G04 #@! TF.GenerationSoftware,KiCad,Pcbnew,8.0.1*
G04 #@! TF.CreationDate,2024-04-22T06:17:08+03:00*
G04 #@! TF.ProjectId,IMU module,494d5520-6d6f-4647-956c-652e6b696361,rev?*
G04 #@! TF.SameCoordinates,Original*
G04 #@! TF.FileFunction,Copper,L3,Inr*
G04 #@! TF.FilePolarity,Positive*
%FSLAX46Y46*%
G04 Gerber Fmt 4.6, Leading zero omitted, Abs format (unit mm)*
G04 Created by KiCad (PCBNEW 8.0.1) date 2024-04-22 06:17:08*
%MOMM*%
%LPD*%
G01*
G04 APERTURE LIST*
G04 #@! TA.AperFunction,ComponentPad*
%ADD10O,2.000000X1.090000*%
G04 #@! TD*
G04 #@! TA.AperFunction,ComponentPad*
%ADD11O,1.600000X1.050000*%
G04 #@! TD*
G04 #@! TA.AperFunction,ViaPad*
%ADD12C,0.800000*%
G04 #@! TD*
G04 #@! TA.AperFunction,Conductor*
%ADD13C,0.800000*%
G04 #@! TD*
G04 APERTURE END LIST*
D10*
X167600753Y-90365454D03*
D11*
X164150753Y-90365454D03*
D10*
X167600753Y-97565454D03*
D11*
X164150753Y-97565454D03*
D12*
X130093753Y-101814453D03*
X132293752Y-89818454D03*
X130093753Y-100514454D03*
X166390753Y-101814453D03*
X168590752Y-113164453D03*
X158937753Y-109709454D03*
X146650753Y-92545454D03*
X130093753Y-113164453D03*
X143149753Y-112748454D03*
X137651753Y-89648454D03*
X166390753Y-100514454D03*
X166390753Y-113164453D03*
X167490753Y-112514454D03*
X132293752Y-100514454D03*
X156838753Y-113287954D03*
X130093753Y-98718453D03*
X143531753Y-107614454D03*
X145060753Y-100639454D03*
X131193753Y-90468454D03*
X148130753Y-93119454D03*
X157150753Y-94329454D03*
X153132753Y-110352454D03*
X153064753Y-111909454D03*
X131193753Y-112514454D03*
X130093753Y-91118453D03*
X164590753Y-103714454D03*
X158299753Y-98967454D03*
X132293752Y-113164453D03*
X139865753Y-112741454D03*
X148130753Y-90909454D03*
X132293752Y-101814453D03*
X140600753Y-94274454D03*
X130093753Y-97418454D03*
X164990753Y-104964454D03*
X130093753Y-111864454D03*
X146449753Y-112766454D03*
X168590752Y-111864454D03*
X158878753Y-113393954D03*
X168590752Y-100514454D03*
X151781753Y-108894454D03*
X131193753Y-101164454D03*
X160338753Y-113393954D03*
X134093753Y-108714454D03*
X146729753Y-110501454D03*
X137648753Y-95214454D03*
X140730753Y-96702454D03*
X166390753Y-111864454D03*
X155430753Y-90909454D03*
X132293752Y-111864454D03*
X132293752Y-97418454D03*
X164350753Y-92463000D03*
X168590752Y-101814453D03*
X146730753Y-107539454D03*
X134093753Y-109964454D03*
X130093753Y-89818454D03*
X134093753Y-93018454D03*
X147058753Y-95507454D03*
X167490753Y-101164454D03*
X155430753Y-93119454D03*
X132293752Y-98718453D03*
X145055753Y-104123454D03*
X161930753Y-111289454D03*
X140730753Y-100089454D03*
X132293752Y-91118453D03*
X131193753Y-98068454D03*
X145060753Y-99089454D03*
X151191753Y-104159454D03*
X160338753Y-111843954D03*
X146650753Y-90995454D03*
X136101753Y-89648454D03*
X155288753Y-113287954D03*
X156967753Y-90251454D03*
X143572753Y-109041454D03*
X140518753Y-110301454D03*
X158299753Y-97417454D03*
X136550753Y-113231454D03*
X145055753Y-105773453D03*
X148700753Y-91914454D03*
X147058753Y-97057454D03*
X158790753Y-91334454D03*
X146729753Y-105977454D03*
X153381752Y-108894454D03*
X145038753Y-107126454D03*
X140600753Y-92724454D03*
X139146753Y-103393454D03*
X143531753Y-106064454D03*
X142580753Y-103254454D03*
X154822753Y-105939454D03*
X160487753Y-109709454D03*
X149820753Y-110074454D03*
X159446753Y-94322454D03*
X162330753Y-97039454D03*
X138850753Y-99547454D03*
X134093753Y-104964454D03*
X164590753Y-109964454D03*
X134093753Y-103714454D03*
X164590753Y-108714454D03*
X164190753Y-106214454D03*
X160350753Y-98665454D03*
X137200752Y-107474454D03*
X164990752Y-107464454D03*
X136050753Y-106204454D03*
X162585753Y-95604454D03*
X134093753Y-95518454D03*
X143830753Y-102194454D03*
X154420753Y-106954454D03*
X151764753Y-111879454D03*
X145038753Y-108776454D03*
X150000753Y-103074454D03*
X152031753Y-103270454D03*
X143572753Y-110691454D03*
X150109382Y-104109033D03*
X142205753Y-110312454D03*
X148180000Y-101684000D03*
X140806753Y-103379454D03*
X152420753Y-93774454D03*
X155409753Y-96016454D03*
X148420753Y-103884454D03*
X136095753Y-103397454D03*
X162576753Y-104592454D03*
X152660753Y-100617800D03*
X162551000Y-99968000D03*
X151560753Y-100614454D03*
X162550753Y-107574454D03*
X153742000Y-100534000D03*
X143620753Y-95419454D03*
X156113753Y-108595526D03*
X158920753Y-105748793D03*
X157610753Y-102765454D03*
X154513753Y-108824000D03*
X142829462Y-94435293D03*
X141830753Y-94384454D03*
X153761753Y-102936454D03*
X157688753Y-109236454D03*
X151780753Y-98954454D03*
X145403753Y-94231454D03*
X152860753Y-98674454D03*
X140880753Y-90739812D03*
X142970753Y-97684454D03*
X139926000Y-95270454D03*
X148222644Y-98709453D03*
X160650753Y-103290454D03*
X150383036Y-90909655D03*
X153191753Y-96176454D03*
X150630753Y-99354454D03*
X138991133Y-91535133D03*
X151685354Y-96178812D03*
X143890753Y-90644454D03*
X139485753Y-92421758D03*
X149710753Y-98784454D03*
X152840753Y-103894454D03*
X150776753Y-111530454D03*
X157324753Y-105213454D03*
X158654005Y-110793454D03*
D13*
X131193753Y-101164454D02*
X131643752Y-101164454D01*
X130093753Y-97418454D02*
X130093753Y-98718453D01*
X130093753Y-91118453D02*
X130093753Y-90829000D01*
X130454299Y-90468454D02*
X130093753Y-90829000D01*
X167040753Y-101164454D02*
X166390753Y-100514454D01*
X168590752Y-111864454D02*
X168590752Y-113164453D01*
X166390753Y-113164453D02*
X166390753Y-111864454D01*
X132293752Y-100514454D02*
X130093753Y-100514454D01*
X130093753Y-89818454D02*
X132293752Y-89818454D01*
X130093753Y-100514454D02*
X130093753Y-101814453D01*
X166390753Y-111864454D02*
X168590752Y-111864454D01*
X132293752Y-97418454D02*
X130093753Y-97418454D01*
X164990753Y-104114454D02*
X164590753Y-103714454D01*
X131193753Y-98068454D02*
X130743753Y-98068454D01*
X167490753Y-112514454D02*
X167040753Y-112514454D01*
X134093753Y-109964454D02*
X134093753Y-108714454D01*
X131193753Y-101164454D02*
X130743753Y-101164454D01*
X131643752Y-112514454D02*
X132293752Y-111864454D01*
X131193753Y-90468454D02*
X131643753Y-90468454D01*
X130093753Y-113164453D02*
X130093753Y-111864454D01*
X167940752Y-101164454D02*
X168590752Y-100514454D01*
X132293752Y-101814453D02*
X132293752Y-100514454D01*
X130743753Y-112514454D02*
X130093753Y-111864454D01*
X130093753Y-98718453D02*
X132293752Y-98718453D01*
X132293752Y-111864454D02*
X132293752Y-113164453D01*
X131643752Y-98068454D02*
X132293752Y-97418454D01*
X167490753Y-112514454D02*
X167940752Y-112514454D01*
X167490753Y-101164454D02*
X167040753Y-101164454D01*
X166390753Y-101814453D02*
X166390753Y-100514454D01*
X131193753Y-90468454D02*
X130454299Y-90468454D01*
X131643753Y-90468454D02*
X132293752Y-91118453D01*
X130743753Y-101164454D02*
X130093753Y-100514454D01*
X130093753Y-111864454D02*
X132293752Y-111864454D01*
X167490753Y-101164454D02*
X167940752Y-101164454D01*
X164990753Y-104964454D02*
X164990753Y-104114454D01*
X130093753Y-90829000D02*
X130093753Y-89818454D01*
X168590752Y-101814453D02*
X166390753Y-101814453D01*
X158878753Y-113393954D02*
X160338753Y-113393954D01*
X131193753Y-98068454D02*
X131643752Y-98068454D01*
X132293752Y-89818454D02*
X132293752Y-91118453D01*
X167940752Y-112514454D02*
X168590752Y-111864454D01*
X131193753Y-112514454D02*
X131643752Y-112514454D01*
X167040753Y-112514454D02*
X166390753Y-111864454D01*
X131193753Y-112514454D02*
X130743753Y-112514454D01*
X130093753Y-101814453D02*
X132293752Y-101814453D01*
X132293752Y-98718453D02*
X132293752Y-97418454D01*
X166390753Y-100514454D02*
X168590752Y-100514454D01*
X168590752Y-100514454D02*
X168590752Y-101814453D01*
X132293752Y-113164453D02*
X130093753Y-113164453D01*
X131643752Y-101164454D02*
X132293752Y-100514454D01*
X132293752Y-91118453D02*
X130093753Y-91118453D01*
X168590752Y-113164453D02*
X166390753Y-113164453D01*
X130743753Y-98068454D02*
X130093753Y-97418454D01*
G04 #@! TA.AperFunction,Conductor*
G36*
X141269546Y-94621975D02*
G01*
X141295389Y-94661154D01*
X141306217Y-94687295D01*
X141402471Y-94812736D01*
X141527912Y-94908990D01*
X141673991Y-94969498D01*
X141752372Y-94979817D01*
X141830752Y-94990136D01*
X141830753Y-94990136D01*
X141830754Y-94990136D01*
X141891648Y-94982119D01*
X141987515Y-94969498D01*
X142133594Y-94908990D01*
X142225574Y-94838410D01*
X142290741Y-94813217D01*
X142359186Y-94827255D01*
X142395386Y-94857874D01*
X142395433Y-94857828D01*
X142395994Y-94858389D01*
X142399432Y-94861297D01*
X142401180Y-94863575D01*
X142526621Y-94959829D01*
X142672700Y-95020337D01*
X142751081Y-95030656D01*
X142829461Y-95040975D01*
X142829462Y-95040975D01*
X142931804Y-95027501D01*
X143000837Y-95038266D01*
X143053093Y-95084646D01*
X143071979Y-95151915D01*
X143062550Y-95197891D01*
X143035709Y-95262692D01*
X143035708Y-95262693D01*
X143015071Y-95419452D01*
X143015071Y-95419455D01*
X143035708Y-95576214D01*
X143035709Y-95576216D01*
X143086458Y-95698736D01*
X143096217Y-95722295D01*
X143192471Y-95847736D01*
X143317912Y-95943990D01*
X143463991Y-96004498D01*
X143542372Y-96014817D01*
X143620752Y-96025136D01*
X143620753Y-96025136D01*
X143620754Y-96025136D01*
X143673007Y-96018256D01*
X143777515Y-96004498D01*
X143923594Y-95943990D01*
X144049035Y-95847736D01*
X144145289Y-95722295D01*
X144163404Y-95678562D01*
X144207245Y-95624158D01*
X144273539Y-95602093D01*
X144341238Y-95619372D01*
X144349811Y-95624950D01*
X146085700Y-96859214D01*
X146418185Y-97095620D01*
X146461415Y-97150510D01*
X146469269Y-97180492D01*
X146473709Y-97214216D01*
X146534217Y-97360295D01*
X146630471Y-97485736D01*
X146755912Y-97581990D01*
X146901991Y-97642498D01*
X146922029Y-97645136D01*
X147058752Y-97663136D01*
X147058752Y-97663135D01*
X147058753Y-97663136D01*
X147143410Y-97651990D01*
X147212442Y-97662755D01*
X147231440Y-97673866D01*
X147797631Y-98076443D01*
X147840860Y-98131332D01*
X147847551Y-98200881D01*
X147815579Y-98263006D01*
X147801268Y-98275871D01*
X147794364Y-98281168D01*
X147698107Y-98406613D01*
X147637600Y-98552690D01*
X147637599Y-98552692D01*
X147616962Y-98709451D01*
X147616962Y-98709454D01*
X147637599Y-98866213D01*
X147637600Y-98866215D01*
X147652051Y-98901104D01*
X147698108Y-99012294D01*
X147794362Y-99137735D01*
X147919803Y-99233989D01*
X148065882Y-99294497D01*
X148144263Y-99304816D01*
X148222643Y-99315135D01*
X148222644Y-99315135D01*
X148222645Y-99315135D01*
X148274898Y-99308255D01*
X148379406Y-99294497D01*
X148525485Y-99233989D01*
X148650926Y-99137735D01*
X148747180Y-99012294D01*
X148771032Y-98954708D01*
X148814871Y-98900308D01*
X148881165Y-98878242D01*
X148948864Y-98895520D01*
X148957448Y-98901104D01*
X149143342Y-99033280D01*
X149181205Y-99080805D01*
X149182154Y-99080258D01*
X149185799Y-99086572D01*
X149186045Y-99086881D01*
X149186217Y-99087295D01*
X149282471Y-99212736D01*
X149407912Y-99308990D01*
X149553991Y-99369498D01*
X149599788Y-99375527D01*
X149655455Y-99397406D01*
X149960062Y-99613990D01*
X150264808Y-99830673D01*
X150268439Y-99833355D01*
X150327909Y-99878988D01*
X150334950Y-99883053D01*
X150334941Y-99883066D01*
X150350966Y-99891934D01*
X150934091Y-100306551D01*
X150977321Y-100361441D01*
X150984012Y-100430990D01*
X150976802Y-100455051D01*
X150975709Y-100457689D01*
X150955071Y-100614452D01*
X150955071Y-100614455D01*
X150975708Y-100771214D01*
X150975709Y-100771216D01*
X150986063Y-100796214D01*
X151036217Y-100917295D01*
X151132471Y-101042736D01*
X151257912Y-101138990D01*
X151403991Y-101199498D01*
X151429407Y-101202844D01*
X151560752Y-101220136D01*
X151560753Y-101220136D01*
X151560754Y-101220136D01*
X151652168Y-101208101D01*
X151717515Y-101199498D01*
X151863594Y-101138990D01*
X151989035Y-101042736D01*
X152011094Y-101013986D01*
X152067519Y-100972785D01*
X152137265Y-100968630D01*
X152198186Y-101002841D01*
X152207840Y-101013982D01*
X152220894Y-101030994D01*
X152229903Y-101042736D01*
X152232471Y-101046082D01*
X152357912Y-101142336D01*
X152503991Y-101202844D01*
X152582372Y-101213163D01*
X152660752Y-101223482D01*
X152660753Y-101223482D01*
X152660754Y-101223482D01*
X152713007Y-101216602D01*
X152817515Y-101202844D01*
X152963594Y-101142336D01*
X153089035Y-101046082D01*
X153137287Y-100983197D01*
X153193713Y-100941996D01*
X153263459Y-100937841D01*
X153311149Y-100960310D01*
X153313716Y-100962280D01*
X153313718Y-100962282D01*
X153340978Y-100983199D01*
X153439157Y-101058535D01*
X153439158Y-101058535D01*
X153439159Y-101058536D01*
X153585238Y-101119044D01*
X153663619Y-101129363D01*
X153741999Y-101139682D01*
X153742000Y-101139682D01*
X153742001Y-101139682D01*
X153794254Y-101132802D01*
X153898762Y-101119044D01*
X154044841Y-101058536D01*
X154170282Y-100962282D01*
X154266536Y-100836841D01*
X154278840Y-100807134D01*
X154322680Y-100752733D01*
X154388974Y-100730667D01*
X154403173Y-100730974D01*
X160113212Y-101183185D01*
X160178486Y-101208101D01*
X160207299Y-101239084D01*
X161075924Y-102571630D01*
X161096042Y-102638541D01*
X161076793Y-102705706D01*
X161024286Y-102751802D01*
X160955193Y-102762194D01*
X160924592Y-102753905D01*
X160807515Y-102705410D01*
X160807513Y-102705409D01*
X160650754Y-102684772D01*
X160650752Y-102684772D01*
X160493992Y-102705409D01*
X160493990Y-102705410D01*
X160347913Y-102765917D01*
X160222471Y-102862172D01*
X160126216Y-102987614D01*
X160065709Y-103133691D01*
X160065708Y-103133693D01*
X160045071Y-103290452D01*
X160045071Y-103290455D01*
X160065708Y-103447214D01*
X160065709Y-103447216D01*
X160121378Y-103581614D01*
X160126217Y-103593295D01*
X160222471Y-103718736D01*
X160347912Y-103814990D01*
X160493991Y-103875498D01*
X160548468Y-103882670D01*
X160650752Y-103896136D01*
X160650753Y-103896136D01*
X160650754Y-103896136D01*
X160739479Y-103884455D01*
X160807515Y-103875498D01*
X160953594Y-103814990D01*
X161079035Y-103718736D01*
X161175289Y-103593295D01*
X161235797Y-103447216D01*
X161256435Y-103290454D01*
X161254777Y-103277863D01*
X161265541Y-103208831D01*
X161311920Y-103156574D01*
X161379189Y-103137687D01*
X161445990Y-103158166D01*
X161481595Y-103193964D01*
X162081905Y-104114892D01*
X162102023Y-104181803D01*
X162082774Y-104248968D01*
X162076404Y-104258090D01*
X162052217Y-104289612D01*
X161991709Y-104435691D01*
X161991708Y-104435693D01*
X161971071Y-104592452D01*
X161971071Y-104592455D01*
X161991708Y-104749214D01*
X161991709Y-104749216D01*
X162052217Y-104895295D01*
X162148471Y-105020736D01*
X162273912Y-105116990D01*
X162419991Y-105177498D01*
X162498372Y-105187817D01*
X162576752Y-105198136D01*
X162576753Y-105198136D01*
X162693905Y-105182712D01*
X162762937Y-105193477D01*
X162813967Y-105237937D01*
X164944056Y-108505677D01*
X164960954Y-108545304D01*
X165002918Y-108725751D01*
X165006135Y-108752600D01*
X165018579Y-109998901D01*
X164999565Y-110066134D01*
X164993699Y-110074653D01*
X164836096Y-110284288D01*
X164780077Y-110326044D01*
X164767951Y-110329844D01*
X164589010Y-110375996D01*
X164589000Y-110375999D01*
X162626122Y-111089311D01*
X162556391Y-111093708D01*
X162495352Y-111059706D01*
X162469210Y-111020223D01*
X162455289Y-110986613D01*
X162359035Y-110861172D01*
X162233594Y-110764918D01*
X162087515Y-110704410D01*
X162087513Y-110704409D01*
X161930754Y-110683772D01*
X161930752Y-110683772D01*
X161773992Y-110704409D01*
X161773987Y-110704411D01*
X161719634Y-110726925D01*
X161650165Y-110734394D01*
X161587686Y-110703119D01*
X161559832Y-110664836D01*
X161093573Y-109666403D01*
X161082992Y-109630134D01*
X161072797Y-109552692D01*
X161012289Y-109406613D01*
X160916035Y-109281172D01*
X160790594Y-109184918D01*
X160644515Y-109124410D01*
X160644513Y-109124409D01*
X160487754Y-109103772D01*
X160487752Y-109103772D01*
X160330992Y-109124409D01*
X160330987Y-109124411D01*
X160219473Y-109170601D01*
X160152836Y-109178547D01*
X158211005Y-108874454D01*
X158147819Y-108844634D01*
X158131814Y-108827433D01*
X158117036Y-108808173D01*
X158046195Y-108753815D01*
X157991594Y-108711918D01*
X157845515Y-108651410D01*
X157845513Y-108651409D01*
X157688754Y-108630772D01*
X157688752Y-108630772D01*
X157531992Y-108651409D01*
X157531990Y-108651410D01*
X157385909Y-108711919D01*
X157378872Y-108715982D01*
X157377153Y-108713005D01*
X157326698Y-108732447D01*
X157297335Y-108731372D01*
X156817176Y-108656178D01*
X156753989Y-108626358D01*
X156716955Y-108567111D01*
X156713422Y-108549856D01*
X156698797Y-108438765D01*
X156698797Y-108438764D01*
X156638289Y-108292685D01*
X156542035Y-108167244D01*
X156416594Y-108070990D01*
X156414532Y-108070136D01*
X156270515Y-108010482D01*
X156270513Y-108010481D01*
X156113754Y-107989844D01*
X156113749Y-107989844D01*
X156088946Y-107993109D01*
X156019911Y-107982343D01*
X155967656Y-107935962D01*
X155952727Y-107901270D01*
X155868067Y-107574455D01*
X161945071Y-107574455D01*
X161965708Y-107731214D01*
X161965709Y-107731216D01*
X162011719Y-107842295D01*
X162026217Y-107877295D01*
X162122471Y-108002736D01*
X162247912Y-108098990D01*
X162393991Y-108159498D01*
X162452828Y-108167244D01*
X162550752Y-108180136D01*
X162550753Y-108180136D01*
X162550754Y-108180136D01*
X162621880Y-108170772D01*
X162707515Y-108159498D01*
X162853594Y-108098990D01*
X162979035Y-108002736D01*
X163075289Y-107877295D01*
X163135797Y-107731216D01*
X163156435Y-107574454D01*
X163135797Y-107417692D01*
X163075289Y-107271613D01*
X162979035Y-107146172D01*
X162853594Y-107049918D01*
X162844550Y-107046172D01*
X162707515Y-106989410D01*
X162707513Y-106989409D01*
X162550754Y-106968772D01*
X162550752Y-106968772D01*
X162393992Y-106989409D01*
X162393990Y-106989410D01*
X162247913Y-107049917D01*
X162122471Y-107146172D01*
X162026216Y-107271614D01*
X161965709Y-107417691D01*
X161965708Y-107417693D01*
X161945071Y-107574452D01*
X161945071Y-107574455D01*
X155868067Y-107574455D01*
X155413703Y-105820453D01*
X155410810Y-105805585D01*
X155407797Y-105782692D01*
X155400755Y-105765691D01*
X155395287Y-105749361D01*
X155361000Y-105617000D01*
X155302580Y-105571682D01*
X155280210Y-105549193D01*
X155251035Y-105511172D01*
X155125594Y-105414918D01*
X155125593Y-105414917D01*
X155087115Y-105398978D01*
X155058569Y-105382396D01*
X154982000Y-105323000D01*
X146882413Y-105390659D01*
X146865192Y-105389602D01*
X146745006Y-105373779D01*
X146681109Y-105345512D01*
X146669488Y-105334306D01*
X146559491Y-105213455D01*
X156719071Y-105213455D01*
X156739708Y-105370214D01*
X156739709Y-105370216D01*
X156795199Y-105504182D01*
X156800217Y-105516295D01*
X156896471Y-105641736D01*
X157021912Y-105737990D01*
X157167991Y-105798498D01*
X157246372Y-105808817D01*
X157324752Y-105819136D01*
X157324753Y-105819136D01*
X157324754Y-105819136D01*
X157377007Y-105812256D01*
X157481515Y-105798498D01*
X157601511Y-105748794D01*
X158315071Y-105748794D01*
X158335708Y-105905553D01*
X158335709Y-105905555D01*
X158345923Y-105930215D01*
X158396217Y-106051634D01*
X158492471Y-106177075D01*
X158617912Y-106273329D01*
X158763991Y-106333837D01*
X158842372Y-106344156D01*
X158920752Y-106354475D01*
X158920753Y-106354475D01*
X158920754Y-106354475D01*
X158973007Y-106347595D01*
X159077515Y-106333837D01*
X159223594Y-106273329D01*
X159349035Y-106177075D01*
X159445289Y-106051634D01*
X159505797Y-105905555D01*
X159522831Y-105776172D01*
X159526435Y-105748794D01*
X159526435Y-105748791D01*
X159509084Y-105617000D01*
X159505797Y-105592031D01*
X159445289Y-105445952D01*
X159349035Y-105320511D01*
X159223594Y-105224257D01*
X159197513Y-105213454D01*
X159077515Y-105163749D01*
X159077513Y-105163748D01*
X158920754Y-105143111D01*
X158920752Y-105143111D01*
X158763992Y-105163748D01*
X158763990Y-105163749D01*
X158617913Y-105224256D01*
X158492471Y-105320511D01*
X158396216Y-105445953D01*
X158335709Y-105592030D01*
X158335708Y-105592032D01*
X158315071Y-105748791D01*
X158315071Y-105748794D01*
X157601511Y-105748794D01*
X157627594Y-105737990D01*
X157753035Y-105641736D01*
X157849289Y-105516295D01*
X157909797Y-105370216D01*
X157930435Y-105213454D01*
X157928418Y-105198136D01*
X157909797Y-105056693D01*
X157909797Y-105056692D01*
X157849289Y-104910613D01*
X157753035Y-104785172D01*
X157627594Y-104688918D01*
X157481515Y-104628410D01*
X157481513Y-104628409D01*
X157324754Y-104607772D01*
X157324752Y-104607772D01*
X157167992Y-104628409D01*
X157167990Y-104628410D01*
X157021913Y-104688917D01*
X156896471Y-104785172D01*
X156800216Y-104910614D01*
X156739709Y-105056691D01*
X156739708Y-105056693D01*
X156719071Y-105213452D01*
X156719071Y-105213455D01*
X146559491Y-105213455D01*
X145688300Y-104256298D01*
X145657733Y-104193470D01*
X145657064Y-104156653D01*
X145661435Y-104123454D01*
X145640797Y-103966692D01*
X145606733Y-103884455D01*
X147815071Y-103884455D01*
X147835708Y-104041214D01*
X147835709Y-104041216D01*
X147883520Y-104156643D01*
X147896217Y-104187295D01*
X147992471Y-104312736D01*
X148117912Y-104408990D01*
X148263991Y-104469498D01*
X148339941Y-104479497D01*
X148420752Y-104490136D01*
X148420753Y-104490136D01*
X148420754Y-104490136D01*
X148501557Y-104479498D01*
X148577515Y-104469498D01*
X148723594Y-104408990D01*
X148849035Y-104312736D01*
X148945289Y-104187295D01*
X149005797Y-104041216D01*
X149025118Y-103894455D01*
X149026435Y-103884455D01*
X149026435Y-103884452D01*
X149007114Y-103737693D01*
X149005797Y-103727692D01*
X148945289Y-103581613D01*
X148849035Y-103456172D01*
X148723594Y-103359918D01*
X148621598Y-103317670D01*
X148577515Y-103299410D01*
X148577513Y-103299409D01*
X148420754Y-103278772D01*
X148420752Y-103278772D01*
X148263992Y-103299409D01*
X148263990Y-103299410D01*
X148117913Y-103359917D01*
X147992471Y-103456172D01*
X147896216Y-103581614D01*
X147835709Y-103727691D01*
X147835708Y-103727693D01*
X147815071Y-103884452D01*
X147815071Y-103884455D01*
X145606733Y-103884455D01*
X145580289Y-103820613D01*
X145484035Y-103695172D01*
X145358594Y-103598918D01*
X145354079Y-103597048D01*
X145315807Y-103581195D01*
X145212515Y-103538410D01*
X145192806Y-103535815D01*
X145055684Y-103517762D01*
X144991788Y-103489495D01*
X144980167Y-103478289D01*
X144964422Y-103460990D01*
X144612603Y-103074455D01*
X149395071Y-103074455D01*
X149415708Y-103231214D01*
X149415709Y-103231216D01*
X149443955Y-103299409D01*
X149476217Y-103377295D01*
X149572471Y-103502736D01*
X149572472Y-103502737D01*
X149592053Y-103517762D01*
X149618962Y-103538410D01*
X149628441Y-103545683D01*
X149669644Y-103602111D01*
X149673799Y-103671857D01*
X149651331Y-103719545D01*
X149584846Y-103806190D01*
X149524338Y-103952270D01*
X149524337Y-103952272D01*
X149503700Y-104109031D01*
X149503700Y-104109034D01*
X149524337Y-104265793D01*
X149524338Y-104265795D01*
X149584846Y-104411874D01*
X149681100Y-104537315D01*
X149806541Y-104633569D01*
X149952620Y-104694077D01*
X150031001Y-104704396D01*
X150109381Y-104714715D01*
X150109382Y-104714715D01*
X150109383Y-104714715D01*
X150161636Y-104707835D01*
X150266144Y-104694077D01*
X150412223Y-104633569D01*
X150537664Y-104537315D01*
X150537668Y-104537310D01*
X150543411Y-104531568D01*
X150545960Y-104534117D01*
X150588752Y-104502578D01*
X150658478Y-104498111D01*
X150719551Y-104532050D01*
X150729597Y-104543591D01*
X150763471Y-104587736D01*
X150888912Y-104683990D01*
X151034991Y-104744498D01*
X151070813Y-104749214D01*
X151191752Y-104765136D01*
X151191753Y-104765136D01*
X151191754Y-104765136D01*
X151244007Y-104758256D01*
X151348515Y-104744498D01*
X151494594Y-104683990D01*
X151620035Y-104587736D01*
X151716289Y-104462295D01*
X151776797Y-104316216D01*
X151797435Y-104159454D01*
X151776797Y-104002692D01*
X151776795Y-104002689D01*
X151776437Y-103999964D01*
X151787202Y-103930928D01*
X151833582Y-103878672D01*
X151900851Y-103859787D01*
X151915559Y-103860838D01*
X151957208Y-103866322D01*
X152031752Y-103876136D01*
X152031753Y-103876136D01*
X152106296Y-103866322D01*
X152175332Y-103877087D01*
X152227588Y-103923467D01*
X152245421Y-103973075D01*
X152249379Y-104003136D01*
X152254392Y-104041216D01*
X152255709Y-104051214D01*
X152255709Y-104051216D01*
X152314632Y-104193470D01*
X152316217Y-104197295D01*
X152412471Y-104322736D01*
X152537912Y-104418990D01*
X152683991Y-104479498D01*
X152762372Y-104489817D01*
X152840752Y-104500136D01*
X152840753Y-104500136D01*
X152840754Y-104500136D01*
X152893007Y-104493256D01*
X152997515Y-104479498D01*
X153143594Y-104418990D01*
X153269035Y-104322736D01*
X153365289Y-104197295D01*
X153425797Y-104051216D01*
X153442810Y-103921990D01*
X153446435Y-103894455D01*
X153446435Y-103894452D01*
X153429548Y-103766183D01*
X153425797Y-103737692D01*
X153395147Y-103663698D01*
X153387679Y-103594231D01*
X153418954Y-103531751D01*
X153479043Y-103496099D01*
X153548868Y-103498593D01*
X153557148Y-103501681D01*
X153604991Y-103521498D01*
X153682871Y-103531751D01*
X153761752Y-103542136D01*
X153761753Y-103542136D01*
X153761754Y-103542136D01*
X153840635Y-103531751D01*
X153918515Y-103521498D01*
X154064594Y-103460990D01*
X154190035Y-103364736D01*
X154286289Y-103239295D01*
X154346797Y-103093216D01*
X154367435Y-102936454D01*
X154365560Y-102922214D01*
X154346797Y-102779693D01*
X154346797Y-102779692D01*
X154340900Y-102765455D01*
X157005071Y-102765455D01*
X157025708Y-102922214D01*
X157025709Y-102922216D01*
X157086217Y-103068295D01*
X157182471Y-103193736D01*
X157307912Y-103289990D01*
X157453991Y-103350498D01*
X157525536Y-103359917D01*
X157610752Y-103371136D01*
X157610753Y-103371136D01*
X157610754Y-103371136D01*
X157663007Y-103364256D01*
X157767515Y-103350498D01*
X157913594Y-103289990D01*
X158039035Y-103193736D01*
X158135289Y-103068295D01*
X158195797Y-102922216D01*
X158213646Y-102786642D01*
X158216435Y-102765455D01*
X158216435Y-102765452D01*
X158195797Y-102608693D01*
X158195797Y-102608692D01*
X158135289Y-102462613D01*
X158039035Y-102337172D01*
X157913594Y-102240918D01*
X157767515Y-102180410D01*
X157767513Y-102180409D01*
X157610754Y-102159772D01*
X157610752Y-102159772D01*
X157453992Y-102180409D01*
X157453990Y-102180410D01*
X157307913Y-102240917D01*
X157182471Y-102337172D01*
X157086216Y-102462614D01*
X157025709Y-102608691D01*
X157025708Y-102608693D01*
X157005071Y-102765452D01*
X157005071Y-102765455D01*
X154340900Y-102765455D01*
X154286289Y-102633613D01*
X154190035Y-102508172D01*
X154064594Y-102411918D01*
X153918515Y-102351410D01*
X153918513Y-102351409D01*
X153761754Y-102330772D01*
X153761752Y-102330772D01*
X153604992Y-102351409D01*
X153604990Y-102351410D01*
X153458913Y-102411917D01*
X153333471Y-102508172D01*
X153237216Y-102633614D01*
X153176709Y-102779691D01*
X153176708Y-102779693D01*
X153156071Y-102936452D01*
X153156071Y-102936455D01*
X153176708Y-103093214D01*
X153176710Y-103093219D01*
X153207357Y-103167208D01*
X153214826Y-103236677D01*
X153183551Y-103299156D01*
X153123461Y-103334808D01*
X153053636Y-103332314D01*
X153045344Y-103329221D01*
X152997518Y-103309411D01*
X152997513Y-103309409D01*
X152840754Y-103288772D01*
X152840750Y-103288772D01*
X152766207Y-103298585D01*
X152697172Y-103287819D01*
X152644917Y-103241438D01*
X152627084Y-103191831D01*
X152616797Y-103113693D01*
X152616797Y-103113692D01*
X152556289Y-102967613D01*
X152460035Y-102842172D01*
X152334594Y-102745918D01*
X152188515Y-102685410D01*
X152188513Y-102685409D01*
X152031754Y-102664772D01*
X152031752Y-102664772D01*
X151874992Y-102685409D01*
X151874990Y-102685410D01*
X151728913Y-102745917D01*
X151603471Y-102842172D01*
X151507216Y-102967614D01*
X151446709Y-103113691D01*
X151446708Y-103113693D01*
X151426071Y-103270452D01*
X151426071Y-103270455D01*
X151447068Y-103429944D01*
X151436302Y-103498979D01*
X151389922Y-103551235D01*
X151322653Y-103570120D01*
X151307944Y-103569068D01*
X151191754Y-103553772D01*
X151191752Y-103553772D01*
X151034992Y-103574409D01*
X151034990Y-103574410D01*
X150888913Y-103634917D01*
X150885152Y-103637803D01*
X150771652Y-103724895D01*
X150763466Y-103731176D01*
X150757724Y-103736919D01*
X150755260Y-103734455D01*
X150711621Y-103766183D01*
X150641866Y-103770195D01*
X150581016Y-103735858D01*
X150571543Y-103724903D01*
X150537664Y-103680751D01*
X150481690Y-103637801D01*
X150440490Y-103581375D01*
X150436335Y-103511629D01*
X150458801Y-103463943D01*
X150525289Y-103377295D01*
X150585797Y-103231216D01*
X150606435Y-103074454D01*
X150585797Y-102917692D01*
X150525289Y-102771613D01*
X150429035Y-102646172D01*
X150303594Y-102549918D01*
X150202810Y-102508172D01*
X150157515Y-102489410D01*
X150157513Y-102489409D01*
X150000754Y-102468772D01*
X150000752Y-102468772D01*
X149843992Y-102489409D01*
X149843990Y-102489410D01*
X149697913Y-102549917D01*
X149572471Y-102646172D01*
X149476216Y-102771614D01*
X149415709Y-102917691D01*
X149415708Y-102917693D01*
X149395071Y-103074452D01*
X149395071Y-103074455D01*
X144612603Y-103074455D01*
X144302492Y-102733743D01*
X144271927Y-102670918D01*
X144280179Y-102601538D01*
X144295819Y-102574797D01*
X144355289Y-102497295D01*
X144415797Y-102351216D01*
X144436435Y-102194454D01*
X144429474Y-102141583D01*
X144415797Y-102037693D01*
X144415797Y-102037692D01*
X144355289Y-101891613D01*
X144259035Y-101766172D01*
X144151947Y-101684001D01*
X147574318Y-101684001D01*
X147594955Y-101840760D01*
X147594956Y-101840762D01*
X147655464Y-101986841D01*
X147751718Y-102112282D01*
X147877159Y-102208536D01*
X148023238Y-102269044D01*
X148101619Y-102279363D01*
X148179999Y-102289682D01*
X148180000Y-102289682D01*
X148180001Y-102289682D01*
X148232254Y-102282802D01*
X148336762Y-102269044D01*
X148482841Y-102208536D01*
X148608282Y-102112282D01*
X148704536Y-101986841D01*
X148765044Y-101840762D01*
X148785682Y-101684000D01*
X148765044Y-101527238D01*
X148704536Y-101381159D01*
X148608282Y-101255718D01*
X148482841Y-101159464D01*
X148441490Y-101142336D01*
X148336762Y-101098956D01*
X148336760Y-101098955D01*
X148180001Y-101078318D01*
X148179999Y-101078318D01*
X148023239Y-101098955D01*
X148023237Y-101098956D01*
X147877160Y-101159463D01*
X147751718Y-101255718D01*
X147655463Y-101381160D01*
X147594956Y-101527237D01*
X147594955Y-101527239D01*
X147574318Y-101683998D01*
X147574318Y-101684001D01*
X144151947Y-101684001D01*
X144133594Y-101669918D01*
X143987515Y-101609410D01*
X143987513Y-101609409D01*
X143830754Y-101588772D01*
X143830752Y-101588772D01*
X143673992Y-101609409D01*
X143673990Y-101609410D01*
X143527913Y-101669917D01*
X143402471Y-101766172D01*
X143306216Y-101891614D01*
X143245709Y-102037691D01*
X143245709Y-102037693D01*
X143232031Y-102141583D01*
X143203764Y-102205479D01*
X143145439Y-102243950D01*
X143125792Y-102248267D01*
X139164776Y-102786642D01*
X139148076Y-102787772D01*
X139146749Y-102787772D01*
X138989991Y-102808410D01*
X138989990Y-102808410D01*
X138843913Y-102868917D01*
X138718471Y-102965172D01*
X138622216Y-103090614D01*
X138561709Y-103236691D01*
X138561709Y-103236692D01*
X138552747Y-103304761D01*
X138524480Y-103368657D01*
X138523206Y-103370139D01*
X136521439Y-105662310D01*
X136462515Y-105699856D01*
X136392646Y-105699586D01*
X136360963Y-105683411D01*
X136360634Y-105683982D01*
X136353596Y-105679919D01*
X136353591Y-105679917D01*
X136207515Y-105619410D01*
X136207513Y-105619409D01*
X136050754Y-105598772D01*
X136050752Y-105598772D01*
X135893992Y-105619409D01*
X135893990Y-105619410D01*
X135747913Y-105679917D01*
X135722280Y-105699586D01*
X135622471Y-105776172D01*
X135605341Y-105798497D01*
X135532250Y-105893751D01*
X135475822Y-105934953D01*
X135406076Y-105939108D01*
X135387473Y-105933255D01*
X133927714Y-105344218D01*
X133872911Y-105300878D01*
X133868624Y-105294401D01*
X133818612Y-105213452D01*
X133693922Y-105011628D01*
X133675423Y-104944997D01*
X133689736Y-103728372D01*
X133698065Y-103685133D01*
X133793470Y-103438304D01*
X133807850Y-103411472D01*
X133817753Y-103397455D01*
X135490071Y-103397455D01*
X135510708Y-103554214D01*
X135510709Y-103554216D01*
X135563121Y-103680751D01*
X135571217Y-103700295D01*
X135667471Y-103825736D01*
X135792912Y-103921990D01*
X135938991Y-103982498D01*
X136017372Y-103992817D01*
X136095752Y-104003136D01*
X136095753Y-104003136D01*
X136095754Y-104003136D01*
X136148007Y-103996256D01*
X136252515Y-103982498D01*
X136398594Y-103921990D01*
X136524035Y-103825736D01*
X136620289Y-103700295D01*
X136680797Y-103554216D01*
X136701435Y-103397454D01*
X136700908Y-103393454D01*
X136680797Y-103240693D01*
X136680797Y-103240692D01*
X136620289Y-103094613D01*
X136524035Y-102969172D01*
X136398594Y-102872918D01*
X136388937Y-102868918D01*
X136252515Y-102812410D01*
X136252513Y-102812409D01*
X136095754Y-102791772D01*
X136095752Y-102791772D01*
X135938992Y-102812409D01*
X135938990Y-102812410D01*
X135792913Y-102872917D01*
X135667471Y-102969172D01*
X135571216Y-103094614D01*
X135510709Y-103240691D01*
X135510708Y-103240693D01*
X135490071Y-103397452D01*
X135490071Y-103397455D01*
X133817753Y-103397455D01*
X136537733Y-99547455D01*
X138245071Y-99547455D01*
X138265708Y-99704214D01*
X138265709Y-99704216D01*
X138326217Y-99850295D01*
X138422471Y-99975736D01*
X138547912Y-100071990D01*
X138693991Y-100132498D01*
X138772372Y-100142817D01*
X138850752Y-100153136D01*
X138850753Y-100153136D01*
X138850754Y-100153136D01*
X138903007Y-100146256D01*
X139007515Y-100132498D01*
X139111430Y-100089455D01*
X140125071Y-100089455D01*
X140145708Y-100246214D01*
X140145709Y-100246216D01*
X140206217Y-100392295D01*
X140302471Y-100517736D01*
X140427912Y-100613990D01*
X140573991Y-100674498D01*
X140652372Y-100684817D01*
X140730752Y-100695136D01*
X140730753Y-100695136D01*
X140730754Y-100695136D01*
X140783007Y-100688256D01*
X140887515Y-100674498D01*
X140972116Y-100639455D01*
X144455071Y-100639455D01*
X144475708Y-100796214D01*
X144475709Y-100796216D01*
X144527247Y-100920641D01*
X144536217Y-100942295D01*
X144632471Y-101067736D01*
X144757912Y-101163990D01*
X144903991Y-101224498D01*
X144982372Y-101234817D01*
X145060752Y-101245136D01*
X145060753Y-101245136D01*
X145060754Y-101245136D01*
X145113007Y-101238256D01*
X145217515Y-101224498D01*
X145363594Y-101163990D01*
X145489035Y-101067736D01*
X145585289Y-100942295D01*
X145645797Y-100796216D01*
X145666435Y-100639454D01*
X145663143Y-100614452D01*
X145645797Y-100482693D01*
X145645797Y-100482692D01*
X145585289Y-100336613D01*
X145489035Y-100211172D01*
X145363594Y-100114918D01*
X145341383Y-100105718D01*
X145217515Y-100054410D01*
X145217513Y-100054409D01*
X145060754Y-100033772D01*
X145060752Y-100033772D01*
X144903992Y-100054409D01*
X144903990Y-100054410D01*
X144757913Y-100114917D01*
X144632471Y-100211172D01*
X144536216Y-100336614D01*
X144475709Y-100482691D01*
X144475708Y-100482693D01*
X144455071Y-100639452D01*
X144455071Y-100639455D01*
X140972116Y-100639455D01*
X141033594Y-100613990D01*
X141159035Y-100517736D01*
X141255289Y-100392295D01*
X141315797Y-100246216D01*
X141334294Y-100105718D01*
X141336435Y-100089455D01*
X141336435Y-100089452D01*
X141315797Y-99932693D01*
X141315797Y-99932692D01*
X141255289Y-99786613D01*
X141159035Y-99661172D01*
X141033594Y-99564918D01*
X141022049Y-99560136D01*
X140887515Y-99504410D01*
X140887513Y-99504409D01*
X140730754Y-99483772D01*
X140730752Y-99483772D01*
X140573992Y-99504409D01*
X140573990Y-99504410D01*
X140427913Y-99564917D01*
X140302471Y-99661172D01*
X140206216Y-99786614D01*
X140145709Y-99932691D01*
X140145708Y-99932693D01*
X140125071Y-100089452D01*
X140125071Y-100089455D01*
X139111430Y-100089455D01*
X139153594Y-100071990D01*
X139279035Y-99975736D01*
X139375289Y-99850295D01*
X139435797Y-99704216D01*
X139456435Y-99547454D01*
X139452522Y-99517735D01*
X139435797Y-99390693D01*
X139435797Y-99390692D01*
X139375289Y-99244613D01*
X139279035Y-99119172D01*
X139240307Y-99089455D01*
X144455071Y-99089455D01*
X144475708Y-99246214D01*
X144475709Y-99246216D01*
X144535552Y-99390691D01*
X144536217Y-99392295D01*
X144632471Y-99517736D01*
X144757912Y-99613990D01*
X144903991Y-99674498D01*
X144982372Y-99684817D01*
X145060752Y-99695136D01*
X145060753Y-99695136D01*
X145060754Y-99695136D01*
X145113007Y-99688256D01*
X145217515Y-99674498D01*
X145363594Y-99613990D01*
X145489035Y-99517736D01*
X145585289Y-99392295D01*
X145645797Y-99246216D01*
X145666435Y-99089454D01*
X145666096Y-99086882D01*
X145645797Y-98932693D01*
X145645797Y-98932692D01*
X145585289Y-98786613D01*
X145489035Y-98661172D01*
X145363594Y-98564918D01*
X145334075Y-98552691D01*
X145217515Y-98504410D01*
X145217513Y-98504409D01*
X145060754Y-98483772D01*
X145060752Y-98483772D01*
X144903992Y-98504409D01*
X144903990Y-98504410D01*
X144757913Y-98564917D01*
X144632471Y-98661172D01*
X144536216Y-98786614D01*
X144475709Y-98932691D01*
X144475708Y-98932693D01*
X144455071Y-99089452D01*
X144455071Y-99089455D01*
X139240307Y-99089455D01*
X139153594Y-99022918D01*
X139127945Y-99012294D01*
X139007515Y-98962410D01*
X139007513Y-98962409D01*
X138850754Y-98941772D01*
X138850752Y-98941772D01*
X138693992Y-98962409D01*
X138693990Y-98962410D01*
X138547913Y-99022917D01*
X138422471Y-99119172D01*
X138326216Y-99244614D01*
X138265709Y-99390691D01*
X138265708Y-99390693D01*
X138245071Y-99547452D01*
X138245071Y-99547455D01*
X136537733Y-99547455D01*
X137853921Y-97684455D01*
X142365071Y-97684455D01*
X142385708Y-97841214D01*
X142385709Y-97841216D01*
X142446217Y-97987295D01*
X142542471Y-98112736D01*
X142667912Y-98208990D01*
X142813991Y-98269498D01*
X142862399Y-98275871D01*
X142970752Y-98290136D01*
X142970753Y-98290136D01*
X142970754Y-98290136D01*
X143038872Y-98281168D01*
X143127515Y-98269498D01*
X143273594Y-98208990D01*
X143399035Y-98112736D01*
X143495289Y-97987295D01*
X143555797Y-97841216D01*
X143569555Y-97736708D01*
X143576435Y-97684455D01*
X143576435Y-97684452D01*
X143555797Y-97527693D01*
X143555797Y-97527692D01*
X143495289Y-97381613D01*
X143399035Y-97256172D01*
X143273594Y-97159918D01*
X143127515Y-97099410D01*
X143127513Y-97099409D01*
X142970754Y-97078772D01*
X142970752Y-97078772D01*
X142813992Y-97099409D01*
X142813990Y-97099410D01*
X142667913Y-97159917D01*
X142542471Y-97256172D01*
X142446216Y-97381614D01*
X142385709Y-97527691D01*
X142385708Y-97527693D01*
X142365071Y-97684452D01*
X142365071Y-97684455D01*
X137853921Y-97684455D01*
X138547693Y-96702455D01*
X140125071Y-96702455D01*
X140145708Y-96859214D01*
X140145709Y-96859216D01*
X140199538Y-96989172D01*
X140206217Y-97005295D01*
X140302471Y-97130736D01*
X140427912Y-97226990D01*
X140573991Y-97287498D01*
X140652372Y-97297817D01*
X140730752Y-97308136D01*
X140730753Y-97308136D01*
X140730754Y-97308136D01*
X140783007Y-97301256D01*
X140887515Y-97287498D01*
X141033594Y-97226990D01*
X141159035Y-97130736D01*
X141255289Y-97005295D01*
X141315797Y-96859216D01*
X141336435Y-96702454D01*
X141336242Y-96700990D01*
X141315797Y-96545693D01*
X141315797Y-96545692D01*
X141255289Y-96399613D01*
X141159035Y-96274172D01*
X141033594Y-96177918D01*
X141022242Y-96173216D01*
X140887515Y-96117410D01*
X140887513Y-96117409D01*
X140730754Y-96096772D01*
X140730752Y-96096772D01*
X140573992Y-96117409D01*
X140573990Y-96117410D01*
X140427913Y-96177917D01*
X140302471Y-96274172D01*
X140206216Y-96399614D01*
X140145709Y-96545691D01*
X140145708Y-96545693D01*
X140125071Y-96702452D01*
X140125071Y-96702455D01*
X138547693Y-96702455D01*
X139275142Y-95672786D01*
X139329898Y-95629395D01*
X139399426Y-95622494D01*
X139461647Y-95654278D01*
X139474787Y-95668852D01*
X139497718Y-95698736D01*
X139623159Y-95794990D01*
X139769238Y-95855498D01*
X139801095Y-95859692D01*
X139925999Y-95876136D01*
X139926000Y-95876136D01*
X139926001Y-95876136D01*
X139978254Y-95869256D01*
X140082762Y-95855498D01*
X140228841Y-95794990D01*
X140354282Y-95698736D01*
X140450536Y-95573295D01*
X140511044Y-95427216D01*
X140531682Y-95270454D01*
X140524309Y-95214454D01*
X140516076Y-95151915D01*
X140511044Y-95113692D01*
X140485320Y-95051588D01*
X140477851Y-94982119D01*
X140509126Y-94919640D01*
X140569215Y-94883988D01*
X140599881Y-94880136D01*
X140600754Y-94880136D01*
X140653007Y-94873256D01*
X140757515Y-94859498D01*
X140903594Y-94798990D01*
X141029035Y-94702736D01*
X141082452Y-94633120D01*
X141138880Y-94591918D01*
X141208626Y-94587763D01*
X141269546Y-94621975D01*
G37*
G04 #@! TD.AperFunction*
G04 #@! TA.AperFunction,Conductor*
G36*
X137001929Y-89438639D02*
G01*
X137047684Y-89491443D01*
X137057829Y-89559139D01*
X137046071Y-89648452D01*
X137046071Y-89648455D01*
X137066708Y-89805214D01*
X137066709Y-89805216D01*
X137107200Y-89902971D01*
X137127217Y-89951295D01*
X137223471Y-90076736D01*
X137348912Y-90172990D01*
X137494991Y-90233498D01*
X137573372Y-90243817D01*
X137651752Y-90254136D01*
X137651753Y-90254136D01*
X137651754Y-90254136D01*
X137704007Y-90247256D01*
X137808515Y-90233498D01*
X137954594Y-90172990D01*
X138080035Y-90076736D01*
X138176289Y-89951295D01*
X138236797Y-89805216D01*
X138254292Y-89672325D01*
X138257435Y-89648455D01*
X138257435Y-89648452D01*
X138245677Y-89559139D01*
X138256443Y-89490104D01*
X138302823Y-89437848D01*
X138368616Y-89418954D01*
X163656348Y-89418954D01*
X163723387Y-89438639D01*
X163769142Y-89491443D01*
X163779086Y-89560601D01*
X163750061Y-89624157D01*
X163691283Y-89661931D01*
X163680540Y-89664571D01*
X163664138Y-89667833D01*
X163664132Y-89667835D01*
X163532102Y-89722523D01*
X163532093Y-89722528D01*
X163413274Y-89801921D01*
X163413270Y-89801924D01*
X163312223Y-89902971D01*
X163312220Y-89902975D01*
X163232827Y-90021794D01*
X163232822Y-90021803D01*
X163178135Y-90153832D01*
X163178132Y-90153839D01*
X163150253Y-90293996D01*
X163150253Y-90293999D01*
X163150253Y-90436909D01*
X163150253Y-90436911D01*
X163150252Y-90436911D01*
X163178132Y-90577068D01*
X163178134Y-90577074D01*
X163232822Y-90709104D01*
X163232827Y-90709113D01*
X163312220Y-90827932D01*
X163312223Y-90827936D01*
X163413270Y-90928983D01*
X163413274Y-90928986D01*
X163532093Y-91008379D01*
X163532102Y-91008384D01*
X163537445Y-91010597D01*
X163664133Y-91063073D01*
X163664137Y-91063073D01*
X163664138Y-91063074D01*
X163804295Y-91090954D01*
X163804298Y-91090954D01*
X164497210Y-91090954D01*
X164597698Y-91070965D01*
X164637373Y-91063073D01*
X164769406Y-91008383D01*
X164888232Y-90928986D01*
X164989285Y-90827933D01*
X165068682Y-90709107D01*
X165123372Y-90577074D01*
X165141151Y-90487693D01*
X165151253Y-90436911D01*
X165151253Y-90293996D01*
X165123373Y-90153839D01*
X165123371Y-90153832D01*
X165068683Y-90021803D01*
X165068678Y-90021794D01*
X164989285Y-89902975D01*
X164989282Y-89902971D01*
X164888235Y-89801924D01*
X164888231Y-89801921D01*
X164769412Y-89722528D01*
X164769403Y-89722523D01*
X164637373Y-89667835D01*
X164637367Y-89667833D01*
X164620966Y-89664571D01*
X164559055Y-89632186D01*
X164524481Y-89571470D01*
X164528222Y-89501700D01*
X164569088Y-89445029D01*
X164634106Y-89419447D01*
X164645158Y-89418954D01*
X166859331Y-89418954D01*
X166926370Y-89438639D01*
X166972125Y-89491443D01*
X166982069Y-89560601D01*
X166953044Y-89624157D01*
X166906784Y-89657514D01*
X166896700Y-89661692D01*
X166792628Y-89704799D01*
X166792619Y-89704804D01*
X166670525Y-89786385D01*
X166670521Y-89786388D01*
X166566687Y-89890222D01*
X166566684Y-89890226D01*
X166485103Y-90012320D01*
X166485098Y-90012329D01*
X166428902Y-90147999D01*
X166428900Y-90148007D01*
X166400253Y-90292024D01*
X166400253Y-90438883D01*
X166428900Y-90582900D01*
X166428902Y-90582908D01*
X166485098Y-90718578D01*
X166485103Y-90718587D01*
X166566684Y-90840681D01*
X166566687Y-90840685D01*
X166670521Y-90944519D01*
X166670525Y-90944522D01*
X166792619Y-91026103D01*
X166792625Y-91026106D01*
X166792626Y-91026107D01*
X166928299Y-91082305D01*
X167051701Y-91106851D01*
X167072323Y-91110953D01*
X167072327Y-91110954D01*
X167072328Y-91110954D01*
X168129179Y-91110954D01*
X168129180Y-91110953D01*
X168273207Y-91082305D01*
X168408880Y-91026107D01*
X168530981Y-90944522D01*
X168634821Y-90840682D01*
X168716406Y-90718581D01*
X168772604Y-90582908D01*
X168801253Y-90438879D01*
X168801253Y-90292029D01*
X168772604Y-90148000D01*
X168720330Y-90021801D01*
X168716407Y-90012329D01*
X168716402Y-90012320D01*
X168634821Y-89890226D01*
X168634818Y-89890222D01*
X168530984Y-89786388D01*
X168530980Y-89786385D01*
X168408886Y-89704804D01*
X168408877Y-89704799D01*
X168304806Y-89661692D01*
X168294721Y-89657514D01*
X168240319Y-89613674D01*
X168218254Y-89547380D01*
X168235533Y-89479681D01*
X168286670Y-89432070D01*
X168342175Y-89418954D01*
X168666226Y-89418954D01*
X168666254Y-89418955D01*
X168674874Y-89418954D01*
X168674878Y-89418956D01*
X168734684Y-89418954D01*
X168746832Y-89419550D01*
X168894352Y-89434075D01*
X168918194Y-89438816D01*
X169054202Y-89480069D01*
X169076643Y-89489363D01*
X169201989Y-89556356D01*
X169222195Y-89569857D01*
X169332057Y-89660012D01*
X169349245Y-89677198D01*
X169375264Y-89708900D01*
X169439408Y-89787054D01*
X169452913Y-89807265D01*
X169519909Y-89932595D01*
X169529212Y-89955052D01*
X169570470Y-90091042D01*
X169575214Y-90114884D01*
X169589656Y-90261467D01*
X169590253Y-90273625D01*
X169590253Y-112635961D01*
X169590251Y-112635995D01*
X169590252Y-112703382D01*
X169589655Y-112715534D01*
X169575131Y-112863044D01*
X169570389Y-112886887D01*
X169529143Y-113022868D01*
X169519841Y-113045327D01*
X169452855Y-113170653D01*
X169439350Y-113190865D01*
X169414470Y-113221182D01*
X169356725Y-113260517D01*
X169286880Y-113262388D01*
X169227111Y-113226201D01*
X169196395Y-113163446D01*
X169195677Y-113158703D01*
X169192313Y-113133150D01*
X169191252Y-113116965D01*
X169191252Y-111953513D01*
X169191253Y-111953500D01*
X169191253Y-111911933D01*
X169192314Y-111895747D01*
X169192395Y-111895136D01*
X169196434Y-111864454D01*
X169192314Y-111833158D01*
X169191253Y-111816973D01*
X169191253Y-111785398D01*
X169191252Y-111785394D01*
X169183081Y-111754899D01*
X169179916Y-111738989D01*
X169175796Y-111707692D01*
X169163714Y-111678523D01*
X169158501Y-111663168D01*
X169150329Y-111632669D01*
X169134540Y-111605322D01*
X169127370Y-111590784D01*
X169115288Y-111561613D01*
X169115287Y-111561612D01*
X169115287Y-111561611D01*
X169096070Y-111536567D01*
X169087059Y-111523081D01*
X169071274Y-111495741D01*
X169071270Y-111495736D01*
X169048948Y-111473414D01*
X169038253Y-111461219D01*
X169026739Y-111446214D01*
X169019034Y-111436172D01*
X168993985Y-111416951D01*
X168981791Y-111406257D01*
X168959470Y-111383936D01*
X168959468Y-111383934D01*
X168932122Y-111368145D01*
X168918641Y-111359138D01*
X168893593Y-111339918D01*
X168864417Y-111327832D01*
X168849873Y-111320659D01*
X168822542Y-111304879D01*
X168822532Y-111304875D01*
X168792040Y-111296704D01*
X168776686Y-111291492D01*
X168747519Y-111279411D01*
X168747515Y-111279410D01*
X168716210Y-111275288D01*
X168700309Y-111272125D01*
X168687297Y-111268638D01*
X168669809Y-111263953D01*
X168669808Y-111263953D01*
X168638232Y-111263953D01*
X168622047Y-111262892D01*
X168590753Y-111258772D01*
X168590751Y-111258772D01*
X168559457Y-111262892D01*
X168543272Y-111263953D01*
X168504099Y-111263953D01*
X168504083Y-111263954D01*
X166477422Y-111263954D01*
X166477406Y-111263953D01*
X166469810Y-111263953D01*
X166438233Y-111263953D01*
X166422048Y-111262892D01*
X166390754Y-111258772D01*
X166390752Y-111258772D01*
X166359458Y-111262892D01*
X166343273Y-111263953D01*
X166311696Y-111263953D01*
X166311688Y-111263954D01*
X166281195Y-111272124D01*
X166265294Y-111275288D01*
X166233988Y-111279410D01*
X166204818Y-111291492D01*
X166189471Y-111296702D01*
X166165123Y-111303227D01*
X166158968Y-111304877D01*
X166158967Y-111304877D01*
X166158965Y-111304878D01*
X166131626Y-111320662D01*
X166117084Y-111327834D01*
X166087911Y-111339918D01*
X166087906Y-111339921D01*
X166062861Y-111359138D01*
X166049382Y-111368145D01*
X166022036Y-111383934D01*
X165999708Y-111406261D01*
X165987520Y-111416950D01*
X165962471Y-111436172D01*
X165943249Y-111461221D01*
X165932560Y-111473409D01*
X165910233Y-111495737D01*
X165894444Y-111523083D01*
X165885437Y-111536562D01*
X165866220Y-111561607D01*
X165866217Y-111561612D01*
X165866217Y-111561613D01*
X165854138Y-111590774D01*
X165854133Y-111590785D01*
X165846961Y-111605327D01*
X165831177Y-111632666D01*
X165823001Y-111663172D01*
X165817791Y-111678519D01*
X165805709Y-111707689D01*
X165801587Y-111738995D01*
X165798423Y-111754896D01*
X165790253Y-111785389D01*
X165790252Y-111785397D01*
X165790252Y-111816973D01*
X165789191Y-111833158D01*
X165785071Y-111864454D01*
X165789110Y-111895136D01*
X165789191Y-111895747D01*
X165790252Y-111911933D01*
X165790252Y-111953500D01*
X165790253Y-111953513D01*
X165790253Y-113116965D01*
X165789192Y-113133150D01*
X165785071Y-113164451D01*
X165785071Y-113164453D01*
X165789192Y-113195754D01*
X165790253Y-113211940D01*
X165790253Y-113243510D01*
X165798423Y-113274002D01*
X165801586Y-113289903D01*
X165805709Y-113321217D01*
X165817791Y-113350385D01*
X165823004Y-113365742D01*
X165832950Y-113402859D01*
X165831289Y-113472709D01*
X165792127Y-113530572D01*
X165727899Y-113558077D01*
X165713176Y-113558954D01*
X161064107Y-113558954D01*
X160997068Y-113539269D01*
X160951313Y-113486465D01*
X160941168Y-113418768D01*
X160941361Y-113417307D01*
X160944435Y-113393954D01*
X160940314Y-113362651D01*
X160939253Y-113346466D01*
X160939253Y-113314899D01*
X160939253Y-113314897D01*
X160931080Y-113284395D01*
X160927917Y-113268490D01*
X160926927Y-113260973D01*
X160923797Y-113237192D01*
X160911710Y-113208014D01*
X160906498Y-113192657D01*
X160903484Y-113181407D01*
X160898330Y-113162170D01*
X160898328Y-113162166D01*
X160882544Y-113134827D01*
X160875370Y-113120280D01*
X160863289Y-113091114D01*
X160863289Y-113091113D01*
X160844064Y-113066058D01*
X160835058Y-113052579D01*
X160819275Y-113025241D01*
X160819271Y-113025236D01*
X160796949Y-113002914D01*
X160786254Y-112990719D01*
X160767034Y-112965671D01*
X160741986Y-112946451D01*
X160729792Y-112935757D01*
X160707471Y-112913436D01*
X160707469Y-112913434D01*
X160707466Y-112913432D01*
X160707462Y-112913429D01*
X160680125Y-112897646D01*
X160666640Y-112888636D01*
X160641593Y-112869417D01*
X160641592Y-112869416D01*
X160612421Y-112857333D01*
X160597876Y-112850161D01*
X160570537Y-112834377D01*
X160570534Y-112834376D01*
X160540041Y-112826205D01*
X160524685Y-112820992D01*
X160495517Y-112808910D01*
X160464203Y-112804787D01*
X160448305Y-112801624D01*
X160417810Y-112793454D01*
X160386240Y-112793454D01*
X160370055Y-112792393D01*
X160338753Y-112788272D01*
X160307450Y-112792393D01*
X160291266Y-112793454D01*
X158926240Y-112793454D01*
X158910055Y-112792393D01*
X158878753Y-112788272D01*
X158847450Y-112792393D01*
X158831266Y-112793454D01*
X158799693Y-112793454D01*
X158769194Y-112801625D01*
X158753298Y-112804786D01*
X158721997Y-112808908D01*
X158721988Y-112808910D01*
X158692820Y-112820992D01*
X158677468Y-112826204D01*
X158646972Y-112834376D01*
X158646970Y-112834376D01*
X158646969Y-112834377D01*
X158646967Y-112834378D01*
X158646965Y-112834379D01*
X158619628Y-112850161D01*
X158605089Y-112857331D01*
X158575918Y-112869414D01*
X158575913Y-112869417D01*
X158550860Y-112888640D01*
X158537382Y-112897645D01*
X158510036Y-112913434D01*
X158487708Y-112935761D01*
X158475520Y-112946450D01*
X158450471Y-112965672D01*
X158431249Y-112990721D01*
X158420560Y-113002909D01*
X158398233Y-113025237D01*
X158382444Y-113052583D01*
X158373439Y-113066061D01*
X158354216Y-113091114D01*
X158354213Y-113091119D01*
X158342130Y-113120290D01*
X158334960Y-113134829D01*
X158319178Y-113162166D01*
X158319175Y-113162173D01*
X158311003Y-113192669D01*
X158305791Y-113208021D01*
X158293709Y-113237189D01*
X158293707Y-113237198D01*
X158289585Y-113268499D01*
X158286424Y-113284395D01*
X158278253Y-113314894D01*
X158278253Y-113346466D01*
X158277191Y-113362651D01*
X158273071Y-113393954D01*
X158276145Y-113417307D01*
X158276338Y-113418768D01*
X158265573Y-113487803D01*
X158219193Y-113540059D01*
X158153399Y-113558954D01*
X157550152Y-113558954D01*
X157483113Y-113539269D01*
X157437358Y-113486465D01*
X157427213Y-113418769D01*
X157444435Y-113287955D01*
X157444435Y-113287952D01*
X157424276Y-113134829D01*
X157423797Y-113131192D01*
X157363289Y-112985113D01*
X157267035Y-112859672D01*
X157141594Y-112763418D01*
X157122502Y-112755510D01*
X156995515Y-112702910D01*
X156995513Y-112702909D01*
X156838754Y-112682272D01*
X156838752Y-112682272D01*
X156681992Y-112702909D01*
X156681990Y-112702910D01*
X156535913Y-112763417D01*
X156410471Y-112859672D01*
X156314216Y-112985114D01*
X156253709Y-113131191D01*
X156253708Y-113131193D01*
X156233071Y-113287952D01*
X156233071Y-113287955D01*
X156250293Y-113418769D01*
X156239527Y-113487804D01*
X156193147Y-113540060D01*
X156127354Y-113558954D01*
X147176000Y-113558954D01*
X147108961Y-113539269D01*
X147063206Y-113486465D01*
X147052000Y-113434954D01*
X147052000Y-112800672D01*
X147053061Y-112784486D01*
X147055435Y-112766454D01*
X147055435Y-112766452D01*
X147053061Y-112748420D01*
X147052000Y-112732235D01*
X147052000Y-112706562D01*
X147046707Y-112696869D01*
X147044937Y-112686712D01*
X147034797Y-112609692D01*
X146974289Y-112463613D01*
X146878035Y-112338172D01*
X146752594Y-112241918D01*
X146709138Y-112223918D01*
X146606515Y-112181410D01*
X146606513Y-112181409D01*
X146449754Y-112160772D01*
X146449752Y-112160772D01*
X146292992Y-112181409D01*
X146292990Y-112181410D01*
X146146913Y-112241917D01*
X146021471Y-112338172D01*
X145925216Y-112463614D01*
X145864709Y-112609691D01*
X145864708Y-112609693D01*
X145844442Y-112763637D01*
X145844071Y-112766454D01*
X145851937Y-112826205D01*
X145851939Y-112826216D01*
X145853000Y-112842402D01*
X145853000Y-113434954D01*
X145833315Y-113501993D01*
X145780511Y-113547748D01*
X145729000Y-113558954D01*
X143868000Y-113558954D01*
X143800961Y-113539269D01*
X143755206Y-113486465D01*
X143744000Y-113434954D01*
X143744000Y-112843437D01*
X143745061Y-112827251D01*
X143745199Y-112826204D01*
X143755435Y-112748454D01*
X143754513Y-112741454D01*
X143734797Y-112591693D01*
X143734797Y-112591692D01*
X143674289Y-112445613D01*
X143578035Y-112320172D01*
X143452594Y-112223918D01*
X143424531Y-112212294D01*
X143306515Y-112163410D01*
X143306513Y-112163409D01*
X143149754Y-112142772D01*
X143149752Y-112142772D01*
X142992992Y-112163409D01*
X142992990Y-112163410D01*
X142846913Y-112223917D01*
X142721471Y-112320172D01*
X142625216Y-112445614D01*
X142564709Y-112591691D01*
X142564709Y-112591692D01*
X142557073Y-112649690D01*
X142545000Y-112676980D01*
X142545000Y-112733271D01*
X142544071Y-112747441D01*
X142544071Y-112749455D01*
X142545000Y-112763637D01*
X142545000Y-113434954D01*
X142525315Y-113501993D01*
X142472511Y-113547748D01*
X142421000Y-113558954D01*
X140588000Y-113558954D01*
X140520961Y-113539269D01*
X140475206Y-113486465D01*
X140464000Y-113434954D01*
X140464000Y-112806054D01*
X140465061Y-112789868D01*
X140466929Y-112775684D01*
X140471435Y-112741454D01*
X140471427Y-112741397D01*
X140465061Y-112693038D01*
X140464000Y-112676853D01*
X140464000Y-112655009D01*
X140459372Y-112646534D01*
X140457599Y-112636361D01*
X140457546Y-112635961D01*
X140450797Y-112584692D01*
X140390289Y-112438613D01*
X140294035Y-112313172D01*
X140168594Y-112216918D01*
X140157428Y-112212293D01*
X140022515Y-112156410D01*
X140022513Y-112156409D01*
X139865754Y-112135772D01*
X139865752Y-112135772D01*
X139708992Y-112156409D01*
X139708990Y-112156410D01*
X139562913Y-112216917D01*
X139437471Y-112313172D01*
X139341216Y-112438614D01*
X139280709Y-112584691D01*
X139280709Y-112584692D01*
X139274286Y-112633477D01*
X139265000Y-112654467D01*
X139265000Y-112695887D01*
X139263939Y-112712072D01*
X139260079Y-112741397D01*
X139260071Y-112741454D01*
X139262991Y-112763637D01*
X139263939Y-112770833D01*
X139265000Y-112787019D01*
X139265000Y-113434954D01*
X139245315Y-113501993D01*
X139192511Y-113547748D01*
X139141000Y-113558954D01*
X132971329Y-113558954D01*
X132904290Y-113539269D01*
X132858535Y-113486465D01*
X132848591Y-113417307D01*
X132851554Y-113402862D01*
X132861499Y-113365745D01*
X132866714Y-113350381D01*
X132868336Y-113346466D01*
X132878796Y-113321215D01*
X132882919Y-113289892D01*
X132886081Y-113274002D01*
X132894252Y-113243510D01*
X132894252Y-113211940D01*
X132895313Y-113195754D01*
X132899434Y-113164453D01*
X132899434Y-113164451D01*
X132895313Y-113133150D01*
X132894252Y-113116965D01*
X132894252Y-111953513D01*
X132894253Y-111953500D01*
X132894253Y-111911933D01*
X132895314Y-111895747D01*
X132895395Y-111895136D01*
X132899434Y-111864454D01*
X132895314Y-111833158D01*
X132894253Y-111816973D01*
X132894253Y-111785398D01*
X132894252Y-111785394D01*
X132886081Y-111754899D01*
X132882916Y-111738989D01*
X132878796Y-111707692D01*
X132866714Y-111678523D01*
X132861501Y-111663168D01*
X132853329Y-111632669D01*
X132837540Y-111605322D01*
X132830370Y-111590784D01*
X132818288Y-111561613D01*
X132818287Y-111561612D01*
X132818287Y-111561611D01*
X132799070Y-111536567D01*
X132794986Y-111530455D01*
X150171071Y-111530455D01*
X150191708Y-111687214D01*
X150191709Y-111687216D01*
X150248822Y-111825100D01*
X150252217Y-111833295D01*
X150348471Y-111958736D01*
X150473912Y-112054990D01*
X150619991Y-112115498D01*
X150698372Y-112125817D01*
X150776752Y-112136136D01*
X150776753Y-112136136D01*
X150776754Y-112136136D01*
X150829007Y-112129256D01*
X150933515Y-112115498D01*
X151057125Y-112064296D01*
X151126593Y-112056828D01*
X151189073Y-112088103D01*
X151219138Y-112131406D01*
X151240215Y-112182292D01*
X151240216Y-112182293D01*
X151240217Y-112182295D01*
X151336471Y-112307736D01*
X151461912Y-112403990D01*
X151607991Y-112464498D01*
X151686372Y-112474817D01*
X151764752Y-112485136D01*
X151764753Y-112485136D01*
X151764754Y-112485136D01*
X151817007Y-112478256D01*
X151921515Y-112464498D01*
X152067594Y-112403990D01*
X152193035Y-112307736D01*
X152289289Y-112182295D01*
X152293977Y-112170976D01*
X152337814Y-112116572D01*
X152404107Y-112094504D01*
X152471807Y-112111780D01*
X152519420Y-112162915D01*
X152523100Y-112170971D01*
X152540217Y-112212295D01*
X152636471Y-112337736D01*
X152761912Y-112433990D01*
X152907991Y-112494498D01*
X152986372Y-112504817D01*
X153064752Y-112515136D01*
X153064753Y-112515136D01*
X153064754Y-112515136D01*
X153117007Y-112508256D01*
X153221515Y-112494498D01*
X153367594Y-112433990D01*
X153493035Y-112337736D01*
X153589289Y-112212295D01*
X153649797Y-112066216D01*
X153670435Y-111909454D01*
X153668630Y-111895747D01*
X153654102Y-111785389D01*
X153649797Y-111752692D01*
X153589289Y-111606613D01*
X153493035Y-111481172D01*
X153367594Y-111384918D01*
X153365223Y-111383936D01*
X153221515Y-111324410D01*
X153221513Y-111324409D01*
X153064754Y-111303772D01*
X153064752Y-111303772D01*
X152907992Y-111324409D01*
X152907990Y-111324410D01*
X152761913Y-111384917D01*
X152636471Y-111481172D01*
X152540215Y-111606615D01*
X152535526Y-111617937D01*
X152491684Y-111672339D01*
X152425390Y-111694403D01*
X152357691Y-111677123D01*
X152310081Y-111625985D01*
X152306405Y-111617935D01*
X152301183Y-111605327D01*
X152289289Y-111576613D01*
X152193035Y-111451172D01*
X152067594Y-111354918D01*
X152063154Y-111353079D01*
X151921515Y-111294410D01*
X151921513Y-111294409D01*
X151764754Y-111273772D01*
X151764752Y-111273772D01*
X151607992Y-111294409D01*
X151607987Y-111294411D01*
X151484381Y-111345610D01*
X151414912Y-111353079D01*
X151352433Y-111321803D01*
X151322368Y-111278502D01*
X151320007Y-111272804D01*
X151301289Y-111227613D01*
X151205035Y-111102172D01*
X151079594Y-111005918D01*
X151032980Y-110986610D01*
X150933515Y-110945410D01*
X150933513Y-110945409D01*
X150776754Y-110924772D01*
X150776752Y-110924772D01*
X150619992Y-110945409D01*
X150619990Y-110945410D01*
X150473913Y-111005917D01*
X150348471Y-111102172D01*
X150252216Y-111227614D01*
X150191709Y-111373691D01*
X150191708Y-111373693D01*
X150171071Y-111530452D01*
X150171071Y-111530455D01*
X132794986Y-111530455D01*
X132790059Y-111523081D01*
X132774274Y-111495741D01*
X132774270Y-111495736D01*
X132751948Y-111473414D01*
X132741253Y-111461219D01*
X132729739Y-111446214D01*
X132722034Y-111436172D01*
X132696985Y-111416951D01*
X132684791Y-111406257D01*
X132662470Y-111383936D01*
X132662468Y-111383934D01*
X132635122Y-111368145D01*
X132621641Y-111359138D01*
X132596593Y-111339918D01*
X132567417Y-111327832D01*
X132552873Y-111320659D01*
X132525542Y-111304879D01*
X132525532Y-111304875D01*
X132495040Y-111296704D01*
X132479686Y-111291492D01*
X132450519Y-111279411D01*
X132450515Y-111279410D01*
X132419210Y-111275288D01*
X132403309Y-111272125D01*
X132390297Y-111268638D01*
X132372809Y-111263953D01*
X132372808Y-111263953D01*
X132341232Y-111263953D01*
X132325047Y-111262892D01*
X132293753Y-111258772D01*
X132293751Y-111258772D01*
X132262457Y-111262892D01*
X132246272Y-111263953D01*
X132207099Y-111263953D01*
X132207083Y-111263954D01*
X130180422Y-111263954D01*
X130180406Y-111263953D01*
X130172810Y-111263953D01*
X130141233Y-111263953D01*
X130125048Y-111262892D01*
X130093754Y-111258772D01*
X130093752Y-111258772D01*
X130062458Y-111262892D01*
X130046273Y-111263953D01*
X130014696Y-111263953D01*
X130014688Y-111263954D01*
X129984195Y-111272124D01*
X129968294Y-111275288D01*
X129936988Y-111279410D01*
X129907818Y-111291492D01*
X129892471Y-111296702D01*
X129868123Y-111303227D01*
X129861968Y-111304877D01*
X129861967Y-111304877D01*
X129861965Y-111304878D01*
X129834626Y-111320662D01*
X129820084Y-111327834D01*
X129790911Y-111339918D01*
X129790906Y-111339921D01*
X129765861Y-111359138D01*
X129752382Y-111368145D01*
X129725036Y-111383934D01*
X129702708Y-111406261D01*
X129690520Y-111416950D01*
X129665471Y-111436172D01*
X129646249Y-111461221D01*
X129635560Y-111473409D01*
X129613233Y-111495737D01*
X129597444Y-111523083D01*
X129588437Y-111536562D01*
X129569220Y-111561607D01*
X129569217Y-111561612D01*
X129569217Y-111561613D01*
X129557138Y-111590774D01*
X129557133Y-111590785D01*
X129549961Y-111605327D01*
X129534177Y-111632666D01*
X129526001Y-111663172D01*
X129520791Y-111678519D01*
X129508709Y-111707689D01*
X129504587Y-111738995D01*
X129501423Y-111754896D01*
X129493253Y-111785389D01*
X129493252Y-111785397D01*
X129493252Y-111816973D01*
X129492191Y-111833158D01*
X129488071Y-111864454D01*
X129492110Y-111895136D01*
X129492191Y-111895747D01*
X129493252Y-111911933D01*
X129493252Y-111953500D01*
X129493253Y-111953513D01*
X129493253Y-113116965D01*
X129492192Y-113133145D01*
X129490069Y-113149272D01*
X129488840Y-113158609D01*
X129460571Y-113222504D01*
X129402245Y-113260973D01*
X129332380Y-113261802D01*
X129273158Y-113224728D01*
X129270045Y-113221080D01*
X129255876Y-113203814D01*
X129245235Y-113190847D01*
X129231733Y-113170637D01*
X129164753Y-113045316D01*
X129155451Y-113022858D01*
X129114206Y-112886875D01*
X129109465Y-112863033D01*
X129094850Y-112714585D01*
X129094253Y-112702432D01*
X129094253Y-112693038D01*
X129094255Y-112643579D01*
X129094253Y-112643574D01*
X129094254Y-112635995D01*
X129094253Y-112635961D01*
X129094253Y-109964454D01*
X133488071Y-109964454D01*
X133492192Y-109995755D01*
X133493253Y-110011941D01*
X133493253Y-110043511D01*
X133501423Y-110074003D01*
X133504586Y-110089904D01*
X133508709Y-110121218D01*
X133520791Y-110150386D01*
X133526004Y-110165742D01*
X133534175Y-110196235D01*
X133534176Y-110196238D01*
X133549960Y-110223577D01*
X133557132Y-110238122D01*
X133569215Y-110267293D01*
X133569216Y-110267294D01*
X133588435Y-110292341D01*
X133597445Y-110305826D01*
X133613228Y-110333163D01*
X133613235Y-110333172D01*
X133635556Y-110355493D01*
X133646250Y-110367687D01*
X133665470Y-110392735D01*
X133690518Y-110411955D01*
X133702713Y-110422650D01*
X133725037Y-110444974D01*
X133725038Y-110444975D01*
X133725040Y-110444976D01*
X133752378Y-110460759D01*
X133765857Y-110469765D01*
X133790912Y-110488990D01*
X133817762Y-110500111D01*
X133820079Y-110501071D01*
X133834626Y-110508245D01*
X133858695Y-110522141D01*
X133861969Y-110524031D01*
X133892461Y-110532200D01*
X133907813Y-110537411D01*
X133936991Y-110549498D01*
X133968294Y-110553619D01*
X133984194Y-110556781D01*
X134014696Y-110564954D01*
X134046266Y-110564954D01*
X134062450Y-110566014D01*
X134093753Y-110570136D01*
X134125055Y-110566014D01*
X134141240Y-110564954D01*
X134172809Y-110564954D01*
X134172810Y-110564954D01*
X134203308Y-110556781D01*
X134219192Y-110553621D01*
X134250515Y-110549498D01*
X134279683Y-110537415D01*
X134295046Y-110532201D01*
X134314611Y-110526958D01*
X134325537Y-110524031D01*
X134352883Y-110508241D01*
X134367419Y-110501073D01*
X134396594Y-110488990D01*
X134421648Y-110469764D01*
X134435127Y-110460759D01*
X134462469Y-110444974D01*
X134484793Y-110422648D01*
X134496987Y-110411955D01*
X134522035Y-110392736D01*
X134541255Y-110367687D01*
X134551949Y-110355493D01*
X134554990Y-110352452D01*
X134574273Y-110333170D01*
X134586232Y-110312455D01*
X141600071Y-110312455D01*
X141620708Y-110469214D01*
X141620709Y-110469216D01*
X141660804Y-110566015D01*
X141681217Y-110615295D01*
X141777471Y-110740736D01*
X141902912Y-110836990D01*
X142048991Y-110897498D01*
X142131953Y-110908420D01*
X142149597Y-110912063D01*
X142284135Y-110950214D01*
X143368311Y-111257655D01*
X143381926Y-111262387D01*
X143415991Y-111276498D01*
X143461224Y-111282453D01*
X143572752Y-111297136D01*
X143572753Y-111297136D01*
X143572754Y-111297136D01*
X143631119Y-111289452D01*
X143729515Y-111276498D01*
X143875594Y-111215990D01*
X144001035Y-111119736D01*
X144097289Y-110994295D01*
X144157797Y-110848216D01*
X144178435Y-110691454D01*
X144173674Y-110655293D01*
X144160289Y-110553618D01*
X144157797Y-110534692D01*
X144144030Y-110501455D01*
X146124071Y-110501455D01*
X146144708Y-110658214D01*
X146144709Y-110658216D01*
X146200726Y-110793454D01*
X146205217Y-110804295D01*
X146301471Y-110929736D01*
X146426912Y-111025990D01*
X146572991Y-111086498D01*
X146647392Y-111096293D01*
X146729752Y-111107136D01*
X146729753Y-111107136D01*
X146729754Y-111107136D01*
X146782007Y-111100256D01*
X146886515Y-111086498D01*
X147032594Y-111025990D01*
X147158035Y-110929736D01*
X147254289Y-110804295D01*
X147314797Y-110658216D01*
X147332211Y-110525941D01*
X147335435Y-110501455D01*
X147335435Y-110501452D01*
X147314797Y-110344693D01*
X147314797Y-110344692D01*
X147254289Y-110198613D01*
X147159019Y-110074455D01*
X149215071Y-110074455D01*
X149235708Y-110231214D01*
X149235709Y-110231216D01*
X149285927Y-110352454D01*
X149296217Y-110377295D01*
X149392471Y-110502736D01*
X149517912Y-110598990D01*
X149663991Y-110659498D01*
X149742372Y-110669817D01*
X149820752Y-110680136D01*
X149820753Y-110680136D01*
X149820754Y-110680136D01*
X149873007Y-110673256D01*
X149977515Y-110659498D01*
X150123594Y-110598990D01*
X150249035Y-110502736D01*
X150345289Y-110377295D01*
X150355578Y-110352455D01*
X152527071Y-110352455D01*
X152547708Y-110509214D01*
X152547709Y-110509216D01*
X152591647Y-110615293D01*
X152608217Y-110655295D01*
X152704471Y-110780736D01*
X152829912Y-110876990D01*
X152975991Y-110937498D01*
X153036089Y-110945410D01*
X153132752Y-110958136D01*
X153132753Y-110958136D01*
X153132754Y-110958136D01*
X153192927Y-110950214D01*
X153289515Y-110937498D01*
X153435594Y-110876990D01*
X153561035Y-110780736D01*
X153657289Y-110655295D01*
X153717797Y-110509216D01*
X153733132Y-110392733D01*
X153738435Y-110352455D01*
X153738435Y-110352452D01*
X153722474Y-110231216D01*
X153717797Y-110195692D01*
X153657289Y-110049613D01*
X153561035Y-109924172D01*
X153435594Y-109827918D01*
X153420092Y-109821497D01*
X153289515Y-109767410D01*
X153289513Y-109767409D01*
X153132754Y-109746772D01*
X153132752Y-109746772D01*
X152975992Y-109767409D01*
X152975990Y-109767410D01*
X152829913Y-109827917D01*
X152704471Y-109924172D01*
X152608216Y-110049614D01*
X152547709Y-110195691D01*
X152547708Y-110195693D01*
X152527071Y-110352452D01*
X152527071Y-110352455D01*
X150355578Y-110352455D01*
X150405797Y-110231216D01*
X150422228Y-110106410D01*
X150426435Y-110074455D01*
X150426435Y-110074452D01*
X150405797Y-109917693D01*
X150405797Y-109917692D01*
X150345289Y-109771613D01*
X150249035Y-109646172D01*
X150123594Y-109549918D01*
X149977515Y-109489410D01*
X149977513Y-109489409D01*
X149820754Y-109468772D01*
X149820752Y-109468772D01*
X149663992Y-109489409D01*
X149663990Y-109489410D01*
X149517913Y-109549917D01*
X149392471Y-109646172D01*
X149296216Y-109771614D01*
X149235709Y-109917691D01*
X149235708Y-109917693D01*
X149215071Y-110074452D01*
X149215071Y-110074455D01*
X147159019Y-110074455D01*
X147158035Y-110073172D01*
X147032594Y-109976918D01*
X147002503Y-109964454D01*
X146886515Y-109916410D01*
X146886513Y-109916409D01*
X146729754Y-109895772D01*
X146729752Y-109895772D01*
X146572992Y-109916409D01*
X146572990Y-109916410D01*
X146426913Y-109976917D01*
X146301471Y-110073172D01*
X146205216Y-110198614D01*
X146144709Y-110344691D01*
X146144708Y-110344693D01*
X146124071Y-110501452D01*
X146124071Y-110501455D01*
X144144030Y-110501455D01*
X144097289Y-110388613D01*
X144001035Y-110263172D01*
X144001033Y-110263171D01*
X144001033Y-110263170D01*
X143875594Y-110166918D01*
X143875591Y-110166916D01*
X143800245Y-110135707D01*
X143787602Y-110125518D01*
X143760277Y-110118075D01*
X143745415Y-110112996D01*
X143729516Y-110106410D01*
X143714485Y-110104431D01*
X143698083Y-110101132D01*
X142439868Y-109758374D01*
X142425008Y-109753295D01*
X142362518Y-109727411D01*
X142362513Y-109727409D01*
X142205754Y-109706772D01*
X142205752Y-109706772D01*
X142048992Y-109727409D01*
X142048990Y-109727410D01*
X141902913Y-109787917D01*
X141777471Y-109884172D01*
X141681216Y-110009614D01*
X141620709Y-110155691D01*
X141620708Y-110155693D01*
X141600071Y-110312452D01*
X141600071Y-110312455D01*
X134586232Y-110312455D01*
X134590061Y-110305822D01*
X134599063Y-110292349D01*
X134618289Y-110267295D01*
X134630372Y-110238120D01*
X134637545Y-110223577D01*
X134653330Y-110196238D01*
X134661186Y-110166918D01*
X134661500Y-110165747D01*
X134666715Y-110150382D01*
X134678797Y-110121216D01*
X134682920Y-110089893D01*
X134686082Y-110074003D01*
X134694253Y-110043511D01*
X134694253Y-110011941D01*
X134695314Y-109995755D01*
X134699435Y-109964454D01*
X134699435Y-109964452D01*
X134695314Y-109933151D01*
X134694253Y-109916966D01*
X134694253Y-108776455D01*
X144433071Y-108776455D01*
X144453708Y-108933214D01*
X144453709Y-108933216D01*
X144514217Y-109079295D01*
X144610471Y-109204736D01*
X144735912Y-109300990D01*
X144881991Y-109361498D01*
X144960372Y-109371817D01*
X145038752Y-109382136D01*
X145038753Y-109382136D01*
X145038754Y-109382136D01*
X145097818Y-109374360D01*
X145195515Y-109361498D01*
X145341594Y-109300990D01*
X145467035Y-109204736D01*
X145563289Y-109079295D01*
X145623797Y-108933216D01*
X145628900Y-108894455D01*
X151176071Y-108894455D01*
X151196708Y-109051214D01*
X151196709Y-109051216D01*
X151257217Y-109197295D01*
X151353471Y-109322736D01*
X151478912Y-109418990D01*
X151624991Y-109479498D01*
X151700273Y-109489409D01*
X151781752Y-109500136D01*
X151781753Y-109500136D01*
X151781754Y-109500136D01*
X151863233Y-109489409D01*
X151938515Y-109479498D01*
X152084594Y-109418990D01*
X152210035Y-109322736D01*
X152306289Y-109197295D01*
X152366797Y-109051216D01*
X152387435Y-108894454D01*
X152382794Y-108859205D01*
X152378160Y-108824001D01*
X153908071Y-108824001D01*
X153928708Y-108980760D01*
X153928709Y-108980762D01*
X153989217Y-109126841D01*
X154085471Y-109252282D01*
X154210912Y-109348536D01*
X154356991Y-109409044D01*
X154423500Y-109417800D01*
X154513752Y-109429682D01*
X154513753Y-109429682D01*
X154513754Y-109429682D01*
X154594967Y-109418990D01*
X154670515Y-109409044D01*
X154816594Y-109348536D01*
X154942035Y-109252282D01*
X155038289Y-109126841D01*
X155098797Y-108980762D01*
X155114800Y-108859204D01*
X155119435Y-108824001D01*
X155119435Y-108823998D01*
X155098797Y-108667239D01*
X155098797Y-108667238D01*
X155038289Y-108521159D01*
X154942035Y-108395718D01*
X154816594Y-108299464D01*
X154800230Y-108292686D01*
X154670515Y-108238956D01*
X154670513Y-108238955D01*
X154513754Y-108218318D01*
X154513752Y-108218318D01*
X154356992Y-108238955D01*
X154356990Y-108238956D01*
X154210913Y-108299463D01*
X154085471Y-108395718D01*
X153989216Y-108521160D01*
X153928709Y-108667237D01*
X153928708Y-108667239D01*
X153908071Y-108823998D01*
X153908071Y-108824001D01*
X152378160Y-108824001D01*
X152368920Y-108753815D01*
X152366797Y-108737692D01*
X152306289Y-108591613D01*
X152210035Y-108466172D01*
X152084594Y-108369918D01*
X152026218Y-108345738D01*
X151938515Y-108309410D01*
X151938513Y-108309409D01*
X151781754Y-108288772D01*
X151781752Y-108288772D01*
X151624992Y-108309409D01*
X151624990Y-108309410D01*
X151478913Y-108369917D01*
X151353471Y-108466172D01*
X151257216Y-108591614D01*
X151196709Y-108737691D01*
X151196708Y-108737693D01*
X151176071Y-108894452D01*
X151176071Y-108894455D01*
X145628900Y-108894455D01*
X145644435Y-108776454D01*
X145642524Y-108761941D01*
X145625865Y-108635399D01*
X145623797Y-108619692D01*
X145563289Y-108473613D01*
X145467035Y-108348172D01*
X145341594Y-108251918D01*
X145195515Y-108191410D01*
X145195513Y-108191409D01*
X145038754Y-108170772D01*
X145038752Y-108170772D01*
X144881992Y-108191409D01*
X144881990Y-108191410D01*
X144735913Y-108251917D01*
X144610471Y-108348172D01*
X144514216Y-108473614D01*
X144453709Y-108619691D01*
X144453708Y-108619693D01*
X144433071Y-108776452D01*
X144433071Y-108776455D01*
X134694253Y-108776455D01*
X134694253Y-108761941D01*
X134695314Y-108745755D01*
X134696376Y-108737693D01*
X134699435Y-108714454D01*
X134695314Y-108683151D01*
X134694253Y-108666966D01*
X134694253Y-108635399D01*
X134694253Y-108635397D01*
X134686080Y-108604895D01*
X134682917Y-108588990D01*
X134678797Y-108557693D01*
X134678797Y-108557692D01*
X134666710Y-108528514D01*
X134661498Y-108513157D01*
X134657640Y-108498756D01*
X134653330Y-108482670D01*
X134653328Y-108482666D01*
X134637544Y-108455327D01*
X134630370Y-108440780D01*
X134618289Y-108411614D01*
X134618289Y-108411613D01*
X134599064Y-108386558D01*
X134590058Y-108373079D01*
X134588232Y-108369917D01*
X134574273Y-108345738D01*
X134551949Y-108323414D01*
X134541254Y-108311219D01*
X134527033Y-108292686D01*
X134522035Y-108286172D01*
X134496986Y-108266951D01*
X134484792Y-108256257D01*
X134462471Y-108233936D01*
X134462469Y-108233934D01*
X134462466Y-108233932D01*
X134462462Y-108233929D01*
X134435125Y-108218146D01*
X134421640Y-108209136D01*
X134396593Y-108189917D01*
X134396592Y-108189916D01*
X134367421Y-108177833D01*
X134352876Y-108170661D01*
X134325537Y-108154877D01*
X134325534Y-108154876D01*
X134295041Y-108146705D01*
X134279685Y-108141492D01*
X134250517Y-108129410D01*
X134219203Y-108125287D01*
X134203305Y-108122124D01*
X134172810Y-108113954D01*
X134141240Y-108113954D01*
X134125055Y-108112893D01*
X134093753Y-108108772D01*
X134062450Y-108112893D01*
X134046266Y-108113954D01*
X134014693Y-108113954D01*
X133984194Y-108122125D01*
X133968298Y-108125286D01*
X133936997Y-108129408D01*
X133936988Y-108129410D01*
X133907820Y-108141492D01*
X133892468Y-108146704D01*
X133861972Y-108154876D01*
X133861970Y-108154876D01*
X133861969Y-108154877D01*
X133861967Y-108154878D01*
X133861965Y-108154879D01*
X133834628Y-108170661D01*
X133820089Y-108177831D01*
X133790918Y-108189914D01*
X133790913Y-108189917D01*
X133765860Y-108209140D01*
X133752382Y-108218145D01*
X133725036Y-108233934D01*
X133702708Y-108256261D01*
X133690520Y-108266950D01*
X133665471Y-108286172D01*
X133646249Y-108311221D01*
X133635560Y-108323409D01*
X133613233Y-108345737D01*
X133597444Y-108373083D01*
X133588439Y-108386561D01*
X133569216Y-108411614D01*
X133569213Y-108411619D01*
X133557130Y-108440790D01*
X133549960Y-108455329D01*
X133534178Y-108482666D01*
X133534175Y-108482673D01*
X133526003Y-108513169D01*
X133520791Y-108528521D01*
X133508709Y-108557689D01*
X133508707Y-108557698D01*
X133504585Y-108588999D01*
X133501424Y-108604895D01*
X133493253Y-108635394D01*
X133493253Y-108666966D01*
X133492191Y-108683151D01*
X133488071Y-108714454D01*
X133491130Y-108737693D01*
X133492192Y-108745755D01*
X133493253Y-108761941D01*
X133493253Y-109916966D01*
X133492192Y-109933151D01*
X133488071Y-109964452D01*
X133488071Y-109964454D01*
X129094253Y-109964454D01*
X129094253Y-107474455D01*
X136595070Y-107474455D01*
X136615707Y-107631214D01*
X136615708Y-107631216D01*
X136676216Y-107777295D01*
X136772470Y-107902736D01*
X136897911Y-107998990D01*
X137043990Y-108059498D01*
X137087742Y-108065258D01*
X137200751Y-108080136D01*
X137200752Y-108080136D01*
X137200753Y-108080136D01*
X137270223Y-108070990D01*
X137357514Y-108059498D01*
X137503593Y-107998990D01*
X137629034Y-107902736D01*
X137725288Y-107777295D01*
X137785796Y-107631216D01*
X137788003Y-107614455D01*
X142926071Y-107614455D01*
X142946708Y-107771214D01*
X142946709Y-107771216D01*
X143007217Y-107917295D01*
X143103471Y-108042736D01*
X143228912Y-108138990D01*
X143374991Y-108199498D01*
X143448199Y-108209136D01*
X143531752Y-108220136D01*
X143531753Y-108220136D01*
X143531754Y-108220136D01*
X143615276Y-108209140D01*
X143688515Y-108199498D01*
X143834594Y-108138990D01*
X143960035Y-108042736D01*
X144056289Y-107917295D01*
X144116797Y-107771216D01*
X144137435Y-107614454D01*
X144127561Y-107539455D01*
X146125071Y-107539455D01*
X146145708Y-107696214D01*
X146145709Y-107696216D01*
X146206217Y-107842295D01*
X146302471Y-107967736D01*
X146427912Y-108063990D01*
X146573991Y-108124498D01*
X146611302Y-108129410D01*
X146730752Y-108145136D01*
X146730753Y-108145136D01*
X146730754Y-108145136D01*
X146783007Y-108138256D01*
X146887515Y-108124498D01*
X147033594Y-108063990D01*
X147159035Y-107967736D01*
X147255289Y-107842295D01*
X147315797Y-107696216D01*
X147336435Y-107539454D01*
X147315797Y-107382692D01*
X147255289Y-107236613D01*
X147159035Y-107111172D01*
X147033594Y-107014918D01*
X147018756Y-107008772D01*
X146887624Y-106954455D01*
X153815071Y-106954455D01*
X153835708Y-107111214D01*
X153835709Y-107111216D01*
X153887650Y-107236614D01*
X153896217Y-107257295D01*
X153992471Y-107382736D01*
X154117912Y-107478990D01*
X154263991Y-107539498D01*
X154342372Y-107549817D01*
X154420752Y-107560136D01*
X154420753Y-107560136D01*
X154420754Y-107560136D01*
X154473007Y-107553256D01*
X154577515Y-107539498D01*
X154723594Y-107478990D01*
X154849035Y-107382736D01*
X154945289Y-107257295D01*
X155005797Y-107111216D01*
X155026435Y-106954454D01*
X155024521Y-106939918D01*
X155006966Y-106806574D01*
X155005797Y-106797692D01*
X154945289Y-106651613D01*
X154849035Y-106526172D01*
X154723594Y-106429918D01*
X154577515Y-106369410D01*
X154577513Y-106369409D01*
X154420754Y-106348772D01*
X154420752Y-106348772D01*
X154263992Y-106369409D01*
X154263990Y-106369410D01*
X154117913Y-106429917D01*
X153992471Y-106526172D01*
X153896216Y-106651614D01*
X153835709Y-106797691D01*
X153835708Y-106797693D01*
X153815071Y-106954452D01*
X153815071Y-106954455D01*
X146887624Y-106954455D01*
X146887515Y-106954410D01*
X146887513Y-106954409D01*
X146730754Y-106933772D01*
X146730752Y-106933772D01*
X146573992Y-106954409D01*
X146573990Y-106954410D01*
X146427913Y-107014917D01*
X146302471Y-107111172D01*
X146206216Y-107236614D01*
X146145709Y-107382691D01*
X146145708Y-107382693D01*
X146125071Y-107539452D01*
X146125071Y-107539455D01*
X144127561Y-107539455D01*
X144116797Y-107457692D01*
X144056289Y-107311613D01*
X143960035Y-107186172D01*
X143834594Y-107089918D01*
X143688515Y-107029410D01*
X143688513Y-107029409D01*
X143531754Y-107008772D01*
X143531752Y-107008772D01*
X143374992Y-107029409D01*
X143374990Y-107029410D01*
X143228913Y-107089917D01*
X143103471Y-107186172D01*
X143007216Y-107311614D01*
X142946709Y-107457691D01*
X142946708Y-107457693D01*
X142926071Y-107614452D01*
X142926071Y-107614455D01*
X137788003Y-107614455D01*
X137806434Y-107474454D01*
X137805117Y-107464454D01*
X137785796Y-107317693D01*
X137785796Y-107317692D01*
X137725288Y-107171613D01*
X137629034Y-107046172D01*
X137503593Y-106949918D01*
X137479448Y-106939917D01*
X137357514Y-106889410D01*
X137357512Y-106889409D01*
X137200753Y-106868772D01*
X137200751Y-106868772D01*
X137043991Y-106889409D01*
X137043989Y-106889410D01*
X136897912Y-106949917D01*
X136772470Y-107046172D01*
X136676215Y-107171614D01*
X136615708Y-107317691D01*
X136615707Y-107317693D01*
X136595070Y-107474452D01*
X136595070Y-107474455D01*
X129094253Y-107474455D01*
X129094253Y-104942570D01*
X133469936Y-104942570D01*
X133469937Y-104942582D01*
X133477413Y-104999971D01*
X133495911Y-105066602D01*
X133495912Y-105066604D01*
X133496909Y-105068885D01*
X133506225Y-105102351D01*
X133508709Y-105121216D01*
X133557135Y-105238128D01*
X133569217Y-105267295D01*
X133665471Y-105392736D01*
X133690518Y-105411955D01*
X133712072Y-105428494D01*
X133727891Y-105442969D01*
X133744234Y-105460754D01*
X133745439Y-105462065D01*
X133800242Y-105505405D01*
X133805132Y-105508246D01*
X133848502Y-105533444D01*
X133850816Y-105534788D01*
X135121899Y-106047691D01*
X135310585Y-106123829D01*
X135323957Y-106128622D01*
X135325798Y-106129282D01*
X135344401Y-106135135D01*
X135349920Y-106136333D01*
X135349548Y-106138042D01*
X135406327Y-106162593D01*
X135445285Y-106220593D01*
X135449980Y-106241747D01*
X135461367Y-106328241D01*
X135465709Y-106361216D01*
X135526217Y-106507295D01*
X135622471Y-106632736D01*
X135747912Y-106728990D01*
X135893991Y-106789498D01*
X135956231Y-106797692D01*
X136050752Y-106810136D01*
X136050753Y-106810136D01*
X136050754Y-106810136D01*
X136131557Y-106799498D01*
X136207515Y-106789498D01*
X136353594Y-106728990D01*
X136479035Y-106632736D01*
X136575289Y-106507295D01*
X136635797Y-106361216D01*
X136655118Y-106214455D01*
X136656435Y-106204455D01*
X136656435Y-106204452D01*
X136637114Y-106057693D01*
X136635797Y-106047692D01*
X136604346Y-105971764D01*
X136596878Y-105902297D01*
X136628153Y-105839817D01*
X136638062Y-105830292D01*
X136676223Y-105797484D01*
X138677990Y-103505313D01*
X138679040Y-103504102D01*
X138680314Y-103502620D01*
X138712411Y-103451796D01*
X138740678Y-103387900D01*
X138756489Y-103331586D01*
X138759788Y-103306518D01*
X138768166Y-103275255D01*
X138795472Y-103209332D01*
X138811655Y-103181300D01*
X138855101Y-103124681D01*
X138877980Y-103101802D01*
X138934599Y-103058356D01*
X138962630Y-103042173D01*
X139028553Y-103014866D01*
X139059817Y-103006489D01*
X139161841Y-102993057D01*
X139169617Y-102992283D01*
X139178649Y-102991673D01*
X139192453Y-102990270D01*
X139192455Y-102990269D01*
X139192462Y-102990269D01*
X140053219Y-102873276D01*
X140184672Y-102855409D01*
X140253751Y-102865885D01*
X140306201Y-102912046D01*
X140325368Y-102979235D01*
X140305168Y-103046121D01*
X140299749Y-103053764D01*
X140282217Y-103076612D01*
X140221709Y-103222691D01*
X140221708Y-103222693D01*
X140201071Y-103379452D01*
X140201071Y-103379455D01*
X140221708Y-103536214D01*
X140221709Y-103536216D01*
X140271581Y-103656619D01*
X140282217Y-103682295D01*
X140378471Y-103807736D01*
X140503912Y-103903990D01*
X140649991Y-103964498D01*
X140718938Y-103973575D01*
X140806752Y-103985136D01*
X140806753Y-103985136D01*
X140806754Y-103985136D01*
X140859007Y-103978256D01*
X140963515Y-103964498D01*
X141109594Y-103903990D01*
X141235035Y-103807736D01*
X141331289Y-103682295D01*
X141391797Y-103536216D01*
X141408201Y-103411612D01*
X141412435Y-103379455D01*
X141412435Y-103379452D01*
X141398676Y-103274946D01*
X141391797Y-103222692D01*
X141331289Y-103076613D01*
X141235035Y-102951172D01*
X141235033Y-102951171D01*
X141235033Y-102951170D01*
X141207057Y-102929704D01*
X141165854Y-102873276D01*
X141161699Y-102803530D01*
X141195911Y-102742610D01*
X141257629Y-102709857D01*
X141265839Y-102708458D01*
X143153469Y-102451895D01*
X143169894Y-102448979D01*
X143177821Y-102447237D01*
X143247523Y-102452072D01*
X143302815Y-102492860D01*
X143306215Y-102497292D01*
X143306217Y-102497295D01*
X143402471Y-102622736D01*
X143527912Y-102718990D01*
X143673991Y-102779498D01*
X143752372Y-102789817D01*
X143830752Y-102800136D01*
X143830753Y-102800136D01*
X143830754Y-102800136D01*
X143907858Y-102789984D01*
X143987515Y-102779498D01*
X143987515Y-102779497D01*
X143995573Y-102778437D01*
X143995753Y-102779804D01*
X144056983Y-102781261D01*
X144114846Y-102820423D01*
X144121877Y-102829808D01*
X144150517Y-102872068D01*
X144258102Y-102990269D01*
X144334725Y-103074453D01*
X144460628Y-103212780D01*
X144460627Y-103212780D01*
X144696970Y-103472444D01*
X144727538Y-103535272D01*
X144719286Y-103604652D01*
X144680755Y-103654285D01*
X144627473Y-103695169D01*
X144531216Y-103820614D01*
X144470709Y-103966691D01*
X144470708Y-103966693D01*
X144450071Y-104123452D01*
X144450071Y-104123455D01*
X144470708Y-104280214D01*
X144470709Y-104280216D01*
X144515434Y-104388193D01*
X144531217Y-104426295D01*
X144627471Y-104551736D01*
X144752912Y-104647990D01*
X144898991Y-104708498D01*
X144977372Y-104718817D01*
X145055752Y-104729136D01*
X145055753Y-104729136D01*
X145055754Y-104729136D01*
X145108007Y-104722256D01*
X145212515Y-104708498D01*
X145358594Y-104647990D01*
X145484035Y-104551736D01*
X145484039Y-104551731D01*
X145489782Y-104545989D01*
X145490989Y-104547196D01*
X145539514Y-104511758D01*
X145609259Y-104507596D01*
X145670183Y-104541803D01*
X145673151Y-104544950D01*
X146197660Y-105121216D01*
X146281613Y-105213453D01*
X146407515Y-105351779D01*
X146416127Y-105361241D01*
X146517513Y-105472631D01*
X146526843Y-105482234D01*
X146538464Y-105493440D01*
X146597971Y-105533444D01*
X146661868Y-105561711D01*
X146691878Y-105570136D01*
X146715169Y-105576675D01*
X146718183Y-105577521D01*
X146838369Y-105593344D01*
X146852602Y-105594716D01*
X146869823Y-105595773D01*
X146872803Y-105595851D01*
X146884111Y-105596152D01*
X146884125Y-105596151D01*
X146884130Y-105596152D01*
X154870933Y-105529434D01*
X154938134Y-105548558D01*
X154941265Y-105550601D01*
X154955330Y-105560079D01*
X154955332Y-105560081D01*
X154955340Y-105560085D01*
X154955348Y-105560091D01*
X154983894Y-105576673D01*
X155008470Y-105588834D01*
X155008485Y-105588840D01*
X155010377Y-105589700D01*
X155010202Y-105590083D01*
X155034907Y-105604358D01*
X155091515Y-105647794D01*
X155114403Y-105670681D01*
X155117167Y-105674283D01*
X155117173Y-105674290D01*
X155117177Y-105674295D01*
X155134515Y-105694117D01*
X155156885Y-105716606D01*
X155156891Y-105716611D01*
X155157027Y-105716748D01*
X155189154Y-105773104D01*
X155196351Y-105800887D01*
X155200422Y-105814616D01*
X155204533Y-105826892D01*
X155208530Y-105843012D01*
X155208731Y-105842973D01*
X155211987Y-105859707D01*
X155214767Y-105871980D01*
X155573625Y-107257295D01*
X155655783Y-107574453D01*
X155669133Y-107625988D01*
X155753793Y-107952803D01*
X155763963Y-107982501D01*
X155763965Y-107982507D01*
X155763968Y-107982514D01*
X155766101Y-107987471D01*
X155774514Y-108056833D01*
X155744091Y-108119731D01*
X155727684Y-108134851D01*
X155685474Y-108167241D01*
X155685472Y-108167242D01*
X155685471Y-108167244D01*
X155630445Y-108238956D01*
X155589216Y-108292686D01*
X155528709Y-108438763D01*
X155528708Y-108438765D01*
X155508071Y-108595524D01*
X155508071Y-108595527D01*
X155528708Y-108752286D01*
X155528709Y-108752288D01*
X155587596Y-108894455D01*
X155589217Y-108898367D01*
X155685471Y-109023808D01*
X155810912Y-109120062D01*
X155956991Y-109180570D01*
X155990018Y-109184918D01*
X156113752Y-109201208D01*
X156113753Y-109201208D01*
X156113754Y-109201208D01*
X156166007Y-109194328D01*
X156270515Y-109180570D01*
X156416594Y-109120062D01*
X156542035Y-109023808D01*
X156638225Y-108898449D01*
X156694653Y-108857247D01*
X156764399Y-108853092D01*
X156773015Y-108855403D01*
X156785382Y-108859204D01*
X157014406Y-108895069D01*
X157077592Y-108924888D01*
X157114627Y-108984136D01*
X157113751Y-109054000D01*
X157109784Y-109065025D01*
X157103709Y-109079691D01*
X157103708Y-109079693D01*
X157083071Y-109236452D01*
X157083071Y-109236455D01*
X157103708Y-109393214D01*
X157103709Y-109393216D01*
X157143553Y-109489409D01*
X157164217Y-109539295D01*
X157260471Y-109664736D01*
X157385912Y-109760990D01*
X157531991Y-109821498D01*
X157580756Y-109827918D01*
X157688752Y-109842136D01*
X157688753Y-109842136D01*
X157688754Y-109842136D01*
X157741007Y-109835256D01*
X157845515Y-109821498D01*
X157991594Y-109760990D01*
X158117035Y-109664736D01*
X158117039Y-109664731D01*
X158122782Y-109658989D01*
X158124914Y-109661121D01*
X158169709Y-109628393D01*
X158239454Y-109624218D01*
X158300384Y-109658413D01*
X158333154Y-109720121D01*
X158334629Y-109728885D01*
X158352708Y-109866214D01*
X158352709Y-109866216D01*
X158413217Y-110012296D01*
X158449296Y-110059314D01*
X158474491Y-110124483D01*
X158460453Y-110192928D01*
X158411639Y-110242918D01*
X158398376Y-110249361D01*
X158351166Y-110268916D01*
X158225723Y-110365172D01*
X158129468Y-110490614D01*
X158068961Y-110636691D01*
X158068960Y-110636693D01*
X158048323Y-110793452D01*
X158048323Y-110793455D01*
X158068960Y-110950214D01*
X158068961Y-110950216D01*
X158125410Y-111086497D01*
X158129469Y-111096295D01*
X158225723Y-111221736D01*
X158351164Y-111317990D01*
X158497243Y-111378498D01*
X158546008Y-111384918D01*
X158654004Y-111399136D01*
X158654005Y-111399136D01*
X158654006Y-111399136D01*
X158706259Y-111392256D01*
X158810767Y-111378498D01*
X158956846Y-111317990D01*
X159082287Y-111221736D01*
X159178541Y-111096295D01*
X159239049Y-110950216D01*
X159259687Y-110793454D01*
X159258671Y-110785739D01*
X159239049Y-110636693D01*
X159239049Y-110636692D01*
X159178541Y-110490613D01*
X159178540Y-110490612D01*
X159178540Y-110490611D01*
X159155629Y-110460754D01*
X159142460Y-110443591D01*
X159117266Y-110378424D01*
X159131304Y-110309979D01*
X159180117Y-110259989D01*
X159193384Y-110253545D01*
X159219040Y-110242918D01*
X159240594Y-110233990D01*
X159366035Y-110137736D01*
X159462289Y-110012295D01*
X159522797Y-109866216D01*
X159543435Y-109709454D01*
X159540569Y-109687687D01*
X159522797Y-109552693D01*
X159522797Y-109552692D01*
X159490061Y-109473662D01*
X159482593Y-109404196D01*
X159513868Y-109341717D01*
X159573956Y-109306064D01*
X159623805Y-109303705D01*
X160121042Y-109381573D01*
X160175250Y-109382565D01*
X160177166Y-109382601D01*
X160177166Y-109382600D01*
X160177168Y-109382601D01*
X160243805Y-109374655D01*
X160298114Y-109360459D01*
X160369555Y-109330866D01*
X160400812Y-109322491D01*
X160471574Y-109313175D01*
X160503933Y-109313175D01*
X160574679Y-109322488D01*
X160605945Y-109330865D01*
X160671878Y-109358175D01*
X160699909Y-109374360D01*
X160756519Y-109417800D01*
X160779406Y-109440687D01*
X160822846Y-109497298D01*
X160839032Y-109525333D01*
X160866338Y-109591256D01*
X160874716Y-109622522D01*
X160879247Y-109656937D01*
X160879252Y-109656966D01*
X160879556Y-109658413D01*
X160885716Y-109687687D01*
X160896297Y-109723956D01*
X160907375Y-109753356D01*
X161373634Y-110751789D01*
X161373637Y-110751794D01*
X161373646Y-110751811D01*
X161393662Y-110785742D01*
X161393668Y-110785749D01*
X161420274Y-110822317D01*
X161443799Y-110888107D01*
X161428020Y-110956172D01*
X161418385Y-110970753D01*
X161406218Y-110986610D01*
X161345709Y-111132691D01*
X161345708Y-111132693D01*
X161325071Y-111289452D01*
X161325071Y-111289455D01*
X161345708Y-111446214D01*
X161345709Y-111446216D01*
X161405591Y-111590785D01*
X161406217Y-111592295D01*
X161502471Y-111717736D01*
X161627912Y-111813990D01*
X161773991Y-111874498D01*
X161811636Y-111879454D01*
X161930752Y-111895136D01*
X161930753Y-111895136D01*
X161930754Y-111895136D01*
X161983007Y-111888256D01*
X162087515Y-111874498D01*
X162233594Y-111813990D01*
X162359035Y-111717736D01*
X162455289Y-111592295D01*
X162515797Y-111446216D01*
X162521602Y-111402119D01*
X162549868Y-111338223D01*
X162608192Y-111299751D01*
X162636749Y-111294549D01*
X162639054Y-111294404D01*
X162696310Y-111282453D01*
X164644300Y-110574550D01*
X164655647Y-110571033D01*
X164723117Y-110553631D01*
X164737904Y-110550763D01*
X164747515Y-110549498D01*
X164753273Y-110547112D01*
X164769755Y-110541603D01*
X164819274Y-110528832D01*
X164829403Y-110525941D01*
X164841529Y-110522141D01*
X164902890Y-110490808D01*
X164958909Y-110449052D01*
X164997781Y-110410338D01*
X165009786Y-110399832D01*
X165019035Y-110392736D01*
X165115289Y-110267295D01*
X165120715Y-110254192D01*
X165136161Y-110227131D01*
X165157957Y-110198142D01*
X165162954Y-110191199D01*
X165168820Y-110182680D01*
X165197309Y-110122058D01*
X165216323Y-110054825D01*
X165224069Y-109996849D01*
X165211625Y-108750548D01*
X165210176Y-108728152D01*
X165208535Y-108714454D01*
X165206962Y-108701323D01*
X165206959Y-108701307D01*
X165206959Y-108701303D01*
X165203077Y-108679203D01*
X165200294Y-108667238D01*
X165192889Y-108635394D01*
X165178442Y-108573274D01*
X165176284Y-108561391D01*
X165175797Y-108557692D01*
X165175794Y-108557685D01*
X165173888Y-108550572D01*
X165171256Y-108542373D01*
X165161113Y-108498756D01*
X165149985Y-108464696D01*
X165133087Y-108425069D01*
X165116210Y-108393458D01*
X165019716Y-108245429D01*
X164999599Y-108178520D01*
X165018848Y-108111354D01*
X165071355Y-108065258D01*
X165107408Y-108054777D01*
X165147514Y-108049498D01*
X165293593Y-107988990D01*
X165419034Y-107892736D01*
X165515288Y-107767295D01*
X165575796Y-107621216D01*
X165595117Y-107474455D01*
X165596434Y-107464455D01*
X165596434Y-107464452D01*
X165577113Y-107317693D01*
X165575796Y-107307692D01*
X165515288Y-107161613D01*
X165419034Y-107036172D01*
X165293593Y-106939918D01*
X165278755Y-106933772D01*
X165147514Y-106879410D01*
X165147512Y-106879409D01*
X164990753Y-106858772D01*
X164990751Y-106858772D01*
X164833991Y-106879409D01*
X164833989Y-106879410D01*
X164687912Y-106939917D01*
X164668970Y-106954452D01*
X164562470Y-107036172D01*
X164504889Y-107111214D01*
X164490114Y-107130469D01*
X164433686Y-107171671D01*
X164363940Y-107175826D01*
X164303019Y-107141613D01*
X164287859Y-107122696D01*
X164280376Y-107111216D01*
X164206070Y-106997225D01*
X164185953Y-106930317D01*
X164205202Y-106863151D01*
X164257709Y-106817055D01*
X164293763Y-106806574D01*
X164347515Y-106799498D01*
X164493594Y-106738990D01*
X164619035Y-106642736D01*
X164715289Y-106517295D01*
X164775797Y-106371216D01*
X164796435Y-106214454D01*
X164795118Y-106204454D01*
X164775797Y-106057693D01*
X164775797Y-106057692D01*
X164715289Y-105911613D01*
X164619035Y-105786172D01*
X164493594Y-105689918D01*
X164415897Y-105657735D01*
X164347515Y-105629410D01*
X164347513Y-105629409D01*
X164190754Y-105608772D01*
X164190752Y-105608772D01*
X164033992Y-105629409D01*
X164033990Y-105629410D01*
X163887913Y-105689917D01*
X163762468Y-105786174D01*
X163682101Y-105890910D01*
X163625673Y-105932113D01*
X163555927Y-105936267D01*
X163495007Y-105902054D01*
X163479847Y-105883137D01*
X163464574Y-105859707D01*
X163005749Y-105155830D01*
X162985632Y-105088920D01*
X163004881Y-105021755D01*
X163011244Y-105012643D01*
X163101289Y-104895295D01*
X163161797Y-104749216D01*
X163182435Y-104592454D01*
X163177074Y-104551736D01*
X163161797Y-104435693D01*
X163161797Y-104435692D01*
X163101289Y-104289613D01*
X163005035Y-104164172D01*
X162879594Y-104067918D01*
X162872071Y-104064802D01*
X162733515Y-104007410D01*
X162733513Y-104007409D01*
X162576754Y-103986772D01*
X162576752Y-103986772D01*
X162419990Y-104007410D01*
X162419989Y-104007410D01*
X162386877Y-104021125D01*
X162317408Y-104028592D01*
X162254930Y-103997316D01*
X162235549Y-103974277D01*
X162175830Y-103882663D01*
X162066182Y-103714454D01*
X163985071Y-103714454D01*
X163989190Y-103745744D01*
X163989191Y-103745747D01*
X163990252Y-103761933D01*
X163990252Y-103793511D01*
X163994937Y-103810999D01*
X163998424Y-103824011D01*
X164001587Y-103839912D01*
X164005709Y-103871217D01*
X164005710Y-103871221D01*
X164017791Y-103900388D01*
X164023003Y-103915742D01*
X164031174Y-103946234D01*
X164031178Y-103946244D01*
X164046958Y-103973575D01*
X164054131Y-103988119D01*
X164066217Y-104017295D01*
X164066219Y-104017297D01*
X164066221Y-104017301D01*
X164085436Y-104042342D01*
X164094447Y-104055827D01*
X164110234Y-104083170D01*
X164132559Y-104105495D01*
X164143241Y-104117675D01*
X164162471Y-104142736D01*
X164162472Y-104142737D01*
X164187522Y-104161958D01*
X164199717Y-104172653D01*
X164353934Y-104326870D01*
X164387419Y-104388193D01*
X164390253Y-104414551D01*
X164390253Y-104916966D01*
X164389192Y-104933151D01*
X164385071Y-104964452D01*
X164385071Y-104964454D01*
X164389192Y-104995755D01*
X164390253Y-105011941D01*
X164390253Y-105043511D01*
X164398423Y-105074003D01*
X164401586Y-105089904D01*
X164405709Y-105121218D01*
X164417791Y-105150386D01*
X164423004Y-105165742D01*
X164431175Y-105196235D01*
X164431176Y-105196238D01*
X164446960Y-105223577D01*
X164454132Y-105238122D01*
X164466215Y-105267293D01*
X164466216Y-105267294D01*
X164485435Y-105292341D01*
X164494445Y-105305826D01*
X164510228Y-105333163D01*
X164510235Y-105333172D01*
X164532556Y-105355493D01*
X164543250Y-105367687D01*
X164543255Y-105367694D01*
X164562471Y-105392736D01*
X164587511Y-105411950D01*
X164587518Y-105411955D01*
X164599713Y-105422650D01*
X164622037Y-105444974D01*
X164622038Y-105444975D01*
X164622040Y-105444976D01*
X164649378Y-105460759D01*
X164662857Y-105469765D01*
X164687912Y-105488990D01*
X164714762Y-105500111D01*
X164717079Y-105501071D01*
X164731626Y-105508245D01*
X164758967Y-105524030D01*
X164758969Y-105524031D01*
X164789461Y-105532200D01*
X164804813Y-105537411D01*
X164833991Y-105549498D01*
X164865294Y-105553619D01*
X164881194Y-105556781D01*
X164911696Y-105564954D01*
X164943266Y-105564954D01*
X164959450Y-105566014D01*
X164990753Y-105570136D01*
X165022055Y-105566014D01*
X165038240Y-105564954D01*
X165069809Y-105564954D01*
X165069810Y-105564954D01*
X165100308Y-105556781D01*
X165116192Y-105553621D01*
X165147515Y-105549498D01*
X165176683Y-105537415D01*
X165192046Y-105532201D01*
X165211611Y-105526958D01*
X165222537Y-105524031D01*
X165249883Y-105508241D01*
X165264419Y-105501073D01*
X165293594Y-105488990D01*
X165318648Y-105469764D01*
X165332127Y-105460759D01*
X165359469Y-105444974D01*
X165381793Y-105422648D01*
X165393987Y-105411955D01*
X165419035Y-105392736D01*
X165438255Y-105367687D01*
X165448949Y-105355493D01*
X165452663Y-105351779D01*
X165471273Y-105333170D01*
X165487061Y-105305822D01*
X165496063Y-105292349D01*
X165515289Y-105267295D01*
X165527372Y-105238120D01*
X165534545Y-105223577D01*
X165550330Y-105196238D01*
X165553257Y-105185312D01*
X165558500Y-105165747D01*
X165563715Y-105150382D01*
X165575797Y-105121216D01*
X165579920Y-105089893D01*
X165583082Y-105074003D01*
X165591253Y-105043511D01*
X165591253Y-105011941D01*
X165592314Y-104995755D01*
X165596435Y-104964454D01*
X165596435Y-104964452D01*
X165592314Y-104933151D01*
X165591253Y-104916966D01*
X165591253Y-104035396D01*
X165587845Y-104022679D01*
X165587844Y-104022675D01*
X165577785Y-103985136D01*
X165574090Y-103971344D01*
X165550330Y-103882670D01*
X165516464Y-103824011D01*
X165471277Y-103745744D01*
X165471274Y-103745740D01*
X165471273Y-103745738D01*
X165359469Y-103633934D01*
X165359468Y-103633933D01*
X165355138Y-103629603D01*
X165355127Y-103629593D01*
X165048952Y-103323418D01*
X165038257Y-103311223D01*
X165019036Y-103286173D01*
X165019035Y-103286172D01*
X164993974Y-103266942D01*
X164981791Y-103256257D01*
X164959469Y-103233935D01*
X164959468Y-103233934D01*
X164932126Y-103218148D01*
X164918641Y-103209137D01*
X164893600Y-103189922D01*
X164893596Y-103189920D01*
X164893594Y-103189918D01*
X164864418Y-103177832D01*
X164849874Y-103170659D01*
X164822543Y-103154879D01*
X164822533Y-103154875D01*
X164792041Y-103146704D01*
X164776687Y-103141492D01*
X164747520Y-103129411D01*
X164747516Y-103129410D01*
X164716211Y-103125288D01*
X164700310Y-103122125D01*
X164687298Y-103118638D01*
X164669810Y-103113953D01*
X164669809Y-103113953D01*
X164638233Y-103113953D01*
X164622048Y-103112892D01*
X164590754Y-103108772D01*
X164590752Y-103108772D01*
X164559458Y-103112892D01*
X164543273Y-103113953D01*
X164511696Y-103113953D01*
X164511688Y-103113954D01*
X164481195Y-103122124D01*
X164465294Y-103125288D01*
X164433988Y-103129410D01*
X164404818Y-103141492D01*
X164389471Y-103146702D01*
X164365123Y-103153227D01*
X164358968Y-103154877D01*
X164358967Y-103154877D01*
X164358965Y-103154878D01*
X164331626Y-103170662D01*
X164317084Y-103177834D01*
X164287911Y-103189918D01*
X164287910Y-103189918D01*
X164262861Y-103209139D01*
X164249381Y-103218147D01*
X164222033Y-103233936D01*
X164199712Y-103256257D01*
X164187524Y-103266946D01*
X164162470Y-103286171D01*
X164143245Y-103311225D01*
X164132556Y-103323413D01*
X164110235Y-103345734D01*
X164094446Y-103373082D01*
X164085438Y-103386562D01*
X164066217Y-103411611D01*
X164066217Y-103411612D01*
X164054133Y-103440785D01*
X164046961Y-103455327D01*
X164031177Y-103482666D01*
X164023001Y-103513172D01*
X164017791Y-103528519D01*
X164005709Y-103557689D01*
X164001587Y-103588995D01*
X163998423Y-103604896D01*
X163990253Y-103635389D01*
X163990252Y-103635397D01*
X163990252Y-103666973D01*
X163989191Y-103683158D01*
X163985071Y-103714454D01*
X162066182Y-103714454D01*
X161653749Y-103081745D01*
X161653741Y-103081736D01*
X161653739Y-103081732D01*
X161627299Y-103049048D01*
X161591676Y-103013232D01*
X161585509Y-103007285D01*
X161585504Y-103007281D01*
X161506225Y-102961692D01*
X161506219Y-102961689D01*
X161439421Y-102941211D01*
X161414985Y-102935328D01*
X161414981Y-102935327D01*
X161393878Y-102936369D01*
X161325950Y-102920012D01*
X161277649Y-102869527D01*
X161264310Y-102800942D01*
X161273146Y-102765216D01*
X161274341Y-102762319D01*
X161280675Y-102740217D01*
X161293589Y-102695157D01*
X161299023Y-102670617D01*
X161292839Y-102579370D01*
X161272721Y-102512459D01*
X161248078Y-102459411D01*
X160827660Y-101814453D01*
X165785071Y-101814453D01*
X165789192Y-101845754D01*
X165790253Y-101861940D01*
X165790253Y-101893510D01*
X165798423Y-101924002D01*
X165801586Y-101939903D01*
X165805709Y-101971217D01*
X165817791Y-102000385D01*
X165823004Y-102015741D01*
X165831175Y-102046234D01*
X165831176Y-102046237D01*
X165846960Y-102073576D01*
X165854132Y-102088121D01*
X165866215Y-102117292D01*
X165866216Y-102117293D01*
X165885435Y-102142340D01*
X165894445Y-102155825D01*
X165910228Y-102183162D01*
X165910235Y-102183171D01*
X165932556Y-102205492D01*
X165943250Y-102217686D01*
X165962470Y-102242734D01*
X165987518Y-102261954D01*
X165999713Y-102272649D01*
X166022037Y-102294973D01*
X166022038Y-102294974D01*
X166022040Y-102294975D01*
X166049378Y-102310758D01*
X166062857Y-102319764D01*
X166087912Y-102338989D01*
X166114762Y-102350110D01*
X166117079Y-102351070D01*
X166131626Y-102358244D01*
X166158967Y-102374029D01*
X166158969Y-102374030D01*
X166189461Y-102382199D01*
X166204813Y-102387410D01*
X166233991Y-102399497D01*
X166265294Y-102403618D01*
X166281194Y-102406780D01*
X166311696Y-102414953D01*
X166343266Y-102414953D01*
X166359450Y-102416013D01*
X166390753Y-102420135D01*
X166422055Y-102416013D01*
X166438240Y-102414953D01*
X168511695Y-102414953D01*
X168543265Y-102414953D01*
X168559449Y-102416013D01*
X168590752Y-102420135D01*
X168622054Y-102416013D01*
X168638239Y-102414953D01*
X168669808Y-102414953D01*
X168669809Y-102414953D01*
X168700307Y-102406780D01*
X168716191Y-102403620D01*
X168747514Y-102399497D01*
X168776682Y-102387414D01*
X168792045Y-102382200D01*
X168811610Y-102376957D01*
X168822536Y-102374030D01*
X168849882Y-102358240D01*
X168864418Y-102351072D01*
X168893593Y-102338989D01*
X168918647Y-102319763D01*
X168932126Y-102310758D01*
X168959468Y-102294973D01*
X168981792Y-102272647D01*
X168993986Y-102261954D01*
X169019034Y-102242735D01*
X169038254Y-102217686D01*
X169048948Y-102205492D01*
X169071272Y-102183169D01*
X169087060Y-102155821D01*
X169096062Y-102142348D01*
X169115288Y-102117294D01*
X169127371Y-102088119D01*
X169134544Y-102073576D01*
X169150329Y-102046237D01*
X169153256Y-102035311D01*
X169158499Y-102015746D01*
X169163714Y-102000381D01*
X169175796Y-101971215D01*
X169179919Y-101939892D01*
X169183081Y-101924002D01*
X169191252Y-101893510D01*
X169191252Y-101861940D01*
X169192313Y-101845754D01*
X169196434Y-101814453D01*
X169196434Y-101814451D01*
X169192313Y-101783150D01*
X169191252Y-101766965D01*
X169191252Y-100603513D01*
X169191253Y-100603500D01*
X169191253Y-100561933D01*
X169192314Y-100545747D01*
X169196434Y-100514454D01*
X169196434Y-100514452D01*
X169192314Y-100483158D01*
X169191253Y-100466973D01*
X169191253Y-100435398D01*
X169191252Y-100435394D01*
X169183081Y-100404899D01*
X169179916Y-100388989D01*
X169178043Y-100374761D01*
X169175796Y-100357692D01*
X169163714Y-100328523D01*
X169158501Y-100313168D01*
X169158406Y-100312812D01*
X169150329Y-100282669D01*
X169134540Y-100255322D01*
X169127370Y-100240784D01*
X169115288Y-100211613D01*
X169115287Y-100211612D01*
X169115287Y-100211611D01*
X169096070Y-100186567D01*
X169087059Y-100173081D01*
X169071274Y-100145741D01*
X169071270Y-100145736D01*
X169048948Y-100123414D01*
X169038253Y-100111219D01*
X169021908Y-100089918D01*
X169019034Y-100086172D01*
X168993985Y-100066951D01*
X168981791Y-100056257D01*
X168959470Y-100033936D01*
X168959468Y-100033934D01*
X168959465Y-100033932D01*
X168959461Y-100033929D01*
X168932124Y-100018146D01*
X168918639Y-100009136D01*
X168893592Y-99989917D01*
X168893591Y-99989916D01*
X168864420Y-99977833D01*
X168849882Y-99970664D01*
X168845274Y-99968004D01*
X168845275Y-99968001D01*
X168845262Y-99967998D01*
X168833901Y-99961438D01*
X168822541Y-99954879D01*
X168822537Y-99954877D01*
X168822530Y-99954875D01*
X168792034Y-99946703D01*
X168776685Y-99941492D01*
X168747519Y-99929411D01*
X168747515Y-99929410D01*
X168716210Y-99925288D01*
X168700309Y-99922125D01*
X168687297Y-99918638D01*
X168669809Y-99913953D01*
X168669808Y-99913953D01*
X168638232Y-99913953D01*
X168622047Y-99912892D01*
X168590753Y-99908772D01*
X168590751Y-99908772D01*
X168559457Y-99912892D01*
X168543272Y-99913953D01*
X168504099Y-99913953D01*
X168504083Y-99913954D01*
X166477422Y-99913954D01*
X166477406Y-99913953D01*
X166469810Y-99913953D01*
X166438233Y-99913953D01*
X166422048Y-99912892D01*
X166390754Y-99908772D01*
X166390752Y-99908772D01*
X166359458Y-99912892D01*
X166343273Y-99913953D01*
X166311696Y-99913953D01*
X166311688Y-99913954D01*
X166281195Y-99922124D01*
X166265294Y-99925288D01*
X166233990Y-99929410D01*
X166204820Y-99941492D01*
X166189471Y-99946702D01*
X166158972Y-99954875D01*
X166158965Y-99954878D01*
X166145061Y-99962906D01*
X166136239Y-99968000D01*
X166132882Y-99969937D01*
X166131610Y-99970672D01*
X166117092Y-99977829D01*
X166087922Y-99989912D01*
X166087913Y-99989917D01*
X166062860Y-100009140D01*
X166049382Y-100018145D01*
X166022036Y-100033934D01*
X165999708Y-100056261D01*
X165987520Y-100066950D01*
X165962471Y-100086172D01*
X165943249Y-100111221D01*
X165932560Y-100123409D01*
X165910233Y-100145737D01*
X165894444Y-100173083D01*
X165885437Y-100186562D01*
X165866220Y-100211607D01*
X165866217Y-100211612D01*
X165858845Y-100229409D01*
X165854138Y-100240774D01*
X165854133Y-100240785D01*
X165846961Y-100255327D01*
X165831177Y-100282666D01*
X165823001Y-100313172D01*
X165817791Y-100328519D01*
X165805709Y-100357689D01*
X165801587Y-100388995D01*
X165798423Y-100404896D01*
X165790253Y-100435389D01*
X165790252Y-100435397D01*
X165790252Y-100466973D01*
X165789191Y-100483158D01*
X165785071Y-100514452D01*
X165785071Y-100514454D01*
X165789191Y-100545747D01*
X165790252Y-100561933D01*
X165790252Y-100603500D01*
X165790253Y-100603513D01*
X165790253Y-101766965D01*
X165789192Y-101783150D01*
X165785071Y-101814451D01*
X165785071Y-101814453D01*
X160827660Y-101814453D01*
X160379453Y-101126865D01*
X160379450Y-101126860D01*
X160357781Y-101099135D01*
X160328945Y-101068128D01*
X160327815Y-101066923D01*
X160327814Y-101066922D01*
X160251771Y-101016112D01*
X160251766Y-101016110D01*
X160186504Y-100991198D01*
X160186489Y-100991193D01*
X160129441Y-100978326D01*
X154445926Y-100528215D01*
X154380650Y-100503299D01*
X154339207Y-100447048D01*
X154332777Y-100420787D01*
X154330685Y-100404899D01*
X154327044Y-100377238D01*
X154266536Y-100231159D01*
X154170282Y-100105718D01*
X154044841Y-100009464D01*
X154044049Y-100009136D01*
X153944738Y-99968000D01*
X161945318Y-99968000D01*
X161948204Y-99989918D01*
X161965955Y-100124760D01*
X161965956Y-100124762D01*
X162021753Y-100259469D01*
X162026464Y-100270841D01*
X162122718Y-100396282D01*
X162248159Y-100492536D01*
X162394238Y-100553044D01*
X162461757Y-100561933D01*
X162550999Y-100573682D01*
X162551000Y-100573682D01*
X162551001Y-100573682D01*
X162603254Y-100566802D01*
X162707762Y-100553044D01*
X162853841Y-100492536D01*
X162979282Y-100396282D01*
X163075536Y-100270841D01*
X163136044Y-100124762D01*
X163156682Y-99968000D01*
X163154954Y-99954878D01*
X163136044Y-99811239D01*
X163136044Y-99811238D01*
X163075536Y-99665159D01*
X162979282Y-99539718D01*
X162853841Y-99443464D01*
X162772670Y-99409842D01*
X162707762Y-99382956D01*
X162707760Y-99382955D01*
X162551001Y-99362318D01*
X162550999Y-99362318D01*
X162394239Y-99382955D01*
X162394237Y-99382956D01*
X162248160Y-99443463D01*
X162122718Y-99539718D01*
X162026463Y-99665160D01*
X161965956Y-99811237D01*
X161965955Y-99811239D01*
X161947045Y-99954879D01*
X161945318Y-99968000D01*
X153944738Y-99968000D01*
X153898762Y-99948956D01*
X153898760Y-99948955D01*
X153742001Y-99928318D01*
X153741999Y-99928318D01*
X153585239Y-99948955D01*
X153585237Y-99948956D01*
X153439160Y-100009463D01*
X153407269Y-100033934D01*
X153329949Y-100093264D01*
X153313717Y-100105719D01*
X153265465Y-100168602D01*
X153209037Y-100209804D01*
X153139291Y-100213958D01*
X153091603Y-100191490D01*
X153089037Y-100189521D01*
X153089035Y-100189518D01*
X152963594Y-100093264D01*
X152946472Y-100086172D01*
X152817515Y-100032756D01*
X152817513Y-100032755D01*
X152660754Y-100012118D01*
X152660752Y-100012118D01*
X152503992Y-100032755D01*
X152503990Y-100032756D01*
X152357913Y-100093263D01*
X152316863Y-100124762D01*
X152236324Y-100186562D01*
X152232470Y-100189519D01*
X152210411Y-100218267D01*
X152153982Y-100259469D01*
X152084236Y-100263623D01*
X152023316Y-100229409D01*
X152013662Y-100218267D01*
X151991603Y-100189519D01*
X151989036Y-100186173D01*
X151936340Y-100145738D01*
X151863594Y-100089918D01*
X151854550Y-100086172D01*
X151717515Y-100029410D01*
X151717513Y-100029409D01*
X151560754Y-100008772D01*
X151560752Y-100008772D01*
X151403992Y-100029409D01*
X151403990Y-100029410D01*
X151257910Y-100089918D01*
X151198872Y-100135220D01*
X151133702Y-100160414D01*
X151065258Y-100146375D01*
X151051531Y-100137902D01*
X150951968Y-100067110D01*
X150908738Y-100012220D01*
X150902047Y-99942671D01*
X150934019Y-99880546D01*
X150948326Y-99867685D01*
X151059035Y-99782736D01*
X151155289Y-99657295D01*
X151215797Y-99511216D01*
X151215797Y-99511208D01*
X151217900Y-99503366D01*
X151219400Y-99503768D01*
X151243931Y-99448314D01*
X151302255Y-99409842D01*
X151372119Y-99409009D01*
X151414090Y-99430018D01*
X151437934Y-99448314D01*
X151477910Y-99478989D01*
X151477911Y-99478989D01*
X151477912Y-99478990D01*
X151623991Y-99539498D01*
X151684416Y-99547453D01*
X151780752Y-99560136D01*
X151780753Y-99560136D01*
X151780754Y-99560136D01*
X151877090Y-99547453D01*
X151937515Y-99539498D01*
X152083594Y-99478990D01*
X152209035Y-99382736D01*
X152305289Y-99257295D01*
X152322702Y-99215254D01*
X152366541Y-99160855D01*
X152432835Y-99138789D01*
X152500534Y-99156068D01*
X152512749Y-99164335D01*
X152557910Y-99198989D01*
X152557911Y-99198989D01*
X152557912Y-99198990D01*
X152703991Y-99259498D01*
X152724857Y-99262245D01*
X152860752Y-99280136D01*
X152860753Y-99280136D01*
X152860754Y-99280136D01*
X152935518Y-99270293D01*
X153017515Y-99259498D01*
X153163594Y-99198990D01*
X153289035Y-99102736D01*
X153385289Y-98977295D01*
X153389365Y-98967455D01*
X157694071Y-98967455D01*
X157714708Y-99124214D01*
X157714709Y-99124216D01*
X157771882Y-99262245D01*
X157775217Y-99270295D01*
X157871471Y-99395736D01*
X157996912Y-99491990D01*
X158142991Y-99552498D01*
X158201008Y-99560136D01*
X158299752Y-99573136D01*
X158299753Y-99573136D01*
X158299754Y-99573136D01*
X158352007Y-99566256D01*
X158456515Y-99552498D01*
X158602594Y-99491990D01*
X158728035Y-99395736D01*
X158824289Y-99270295D01*
X158884797Y-99124216D01*
X158903176Y-98984615D01*
X158905435Y-98967455D01*
X158905435Y-98967452D01*
X158884797Y-98810693D01*
X158884797Y-98810692D01*
X158824638Y-98665455D01*
X159745071Y-98665455D01*
X159765708Y-98822214D01*
X159765709Y-98822216D01*
X159825868Y-98967454D01*
X159826217Y-98968295D01*
X159922471Y-99093736D01*
X160047912Y-99189990D01*
X160193991Y-99250498D01*
X160262346Y-99259497D01*
X160350752Y-99271136D01*
X160350753Y-99271136D01*
X160350754Y-99271136D01*
X160418295Y-99262244D01*
X160507515Y-99250498D01*
X160653594Y-99189990D01*
X160779035Y-99093736D01*
X160875289Y-98968295D01*
X160935797Y-98822216D01*
X160955250Y-98674454D01*
X160956435Y-98665455D01*
X160956435Y-98665452D01*
X160935797Y-98508693D01*
X160935797Y-98508692D01*
X160875289Y-98362613D01*
X160779035Y-98237172D01*
X160653594Y-98140918D01*
X160624780Y-98128983D01*
X160507515Y-98080410D01*
X160507513Y-98080409D01*
X160350754Y-98059772D01*
X160350752Y-98059772D01*
X160193992Y-98080409D01*
X160193990Y-98080410D01*
X160047913Y-98140917D01*
X159922471Y-98237172D01*
X159826216Y-98362614D01*
X159765709Y-98508691D01*
X159765708Y-98508693D01*
X159745071Y-98665452D01*
X159745071Y-98665455D01*
X158824638Y-98665455D01*
X158824289Y-98664613D01*
X158728035Y-98539172D01*
X158602594Y-98442918D01*
X158571209Y-98429918D01*
X158456515Y-98382410D01*
X158456513Y-98382409D01*
X158299754Y-98361772D01*
X158299752Y-98361772D01*
X158142992Y-98382409D01*
X158142990Y-98382410D01*
X157996913Y-98442917D01*
X157871471Y-98539172D01*
X157775216Y-98664614D01*
X157714709Y-98810691D01*
X157714708Y-98810693D01*
X157694071Y-98967452D01*
X157694071Y-98967455D01*
X153389365Y-98967455D01*
X153445797Y-98831216D01*
X153465825Y-98679091D01*
X153466435Y-98674455D01*
X153466435Y-98674452D01*
X153445797Y-98517693D01*
X153445797Y-98517692D01*
X153385289Y-98371613D01*
X153289035Y-98246172D01*
X153163594Y-98149918D01*
X153052185Y-98103771D01*
X153017515Y-98089410D01*
X153017513Y-98089409D01*
X152860754Y-98068772D01*
X152860752Y-98068772D01*
X152703992Y-98089409D01*
X152703990Y-98089410D01*
X152557913Y-98149917D01*
X152458620Y-98226107D01*
X152432471Y-98246172D01*
X152337908Y-98369410D01*
X152336215Y-98371616D01*
X152318803Y-98413651D01*
X152274962Y-98468054D01*
X152208667Y-98490118D01*
X152140968Y-98472838D01*
X152128756Y-98464572D01*
X152083595Y-98429918D01*
X151937515Y-98369410D01*
X151937513Y-98369409D01*
X151780754Y-98348772D01*
X151780752Y-98348772D01*
X151623992Y-98369409D01*
X151623990Y-98369410D01*
X151477913Y-98429917D01*
X151352471Y-98526172D01*
X151256216Y-98651614D01*
X151195709Y-98797691D01*
X151193606Y-98805542D01*
X151192108Y-98805140D01*
X151167561Y-98860608D01*
X151109232Y-98899071D01*
X151039367Y-98899893D01*
X150997413Y-98878888D01*
X150933595Y-98829918D01*
X150787515Y-98769410D01*
X150787513Y-98769409D01*
X150630754Y-98748772D01*
X150630752Y-98748772D01*
X150473992Y-98769409D01*
X150473984Y-98769412D01*
X150471995Y-98770236D01*
X150470183Y-98770430D01*
X150466140Y-98771514D01*
X150465970Y-98770883D01*
X150402525Y-98777700D01*
X150340048Y-98746421D01*
X150304400Y-98686330D01*
X150301611Y-98671857D01*
X150301494Y-98670965D01*
X150295797Y-98627692D01*
X150235289Y-98481613D01*
X150139035Y-98356172D01*
X150013594Y-98259918D01*
X149980408Y-98246172D01*
X149867515Y-98199410D01*
X149867513Y-98199409D01*
X149710754Y-98178772D01*
X149710752Y-98178772D01*
X149553992Y-98199409D01*
X149553990Y-98199410D01*
X149407913Y-98259917D01*
X149282471Y-98356172D01*
X149186216Y-98481614D01*
X149129037Y-98619657D01*
X149085196Y-98674060D01*
X149018902Y-98696125D01*
X148983814Y-98692353D01*
X148931983Y-98679125D01*
X148925277Y-98677844D01*
X148909538Y-98674838D01*
X148847382Y-98642925D01*
X148812347Y-98582474D01*
X148809867Y-98569244D01*
X148807688Y-98552691D01*
X148747180Y-98406612D01*
X148650926Y-98281171D01*
X148525485Y-98184917D01*
X148379406Y-98124409D01*
X148379404Y-98124408D01*
X148222645Y-98103771D01*
X148222643Y-98103771D01*
X148149229Y-98113436D01*
X148080194Y-98102670D01*
X148027938Y-98056290D01*
X148020999Y-98043618D01*
X148012784Y-98026291D01*
X148002303Y-98004184D01*
X147959074Y-97949295D01*
X147959070Y-97949291D01*
X147959060Y-97949280D01*
X147916722Y-97908970D01*
X147916708Y-97908958D01*
X147350534Y-97506393D01*
X147348624Y-97505159D01*
X147335186Y-97496477D01*
X147327581Y-97492029D01*
X147316188Y-97485365D01*
X147316189Y-97485365D01*
X147244113Y-97459711D01*
X147244105Y-97459709D01*
X147175071Y-97448943D01*
X147116586Y-97448247D01*
X147074934Y-97453731D01*
X147042564Y-97453731D01*
X146971821Y-97444417D01*
X146940555Y-97436039D01*
X146874632Y-97408733D01*
X146846597Y-97392547D01*
X146789986Y-97349107D01*
X146767098Y-97326219D01*
X146723659Y-97269609D01*
X146707473Y-97241575D01*
X146679503Y-97174050D01*
X146672381Y-97150457D01*
X146668061Y-97128417D01*
X146660207Y-97098435D01*
X146630864Y-97039455D01*
X161725071Y-97039455D01*
X161745708Y-97196214D01*
X161745709Y-97196216D01*
X161805016Y-97339397D01*
X161806217Y-97342295D01*
X161902471Y-97467736D01*
X162027912Y-97563990D01*
X162173991Y-97624498D01*
X162252372Y-97634817D01*
X162330752Y-97645136D01*
X162330753Y-97645136D01*
X162330754Y-97645136D01*
X162393228Y-97636911D01*
X163150252Y-97636911D01*
X163178132Y-97777068D01*
X163178134Y-97777074D01*
X163232822Y-97909104D01*
X163232827Y-97909113D01*
X163312220Y-98027932D01*
X163312223Y-98027936D01*
X163413270Y-98128983D01*
X163413274Y-98128986D01*
X163532093Y-98208379D01*
X163532099Y-98208382D01*
X163532100Y-98208383D01*
X163664133Y-98263073D01*
X163664137Y-98263073D01*
X163664138Y-98263074D01*
X163804295Y-98290954D01*
X163804298Y-98290954D01*
X164497210Y-98290954D01*
X164591504Y-98272196D01*
X164637373Y-98263073D01*
X164769406Y-98208383D01*
X164888232Y-98128986D01*
X164989285Y-98027933D01*
X165068682Y-97909107D01*
X165123372Y-97777074D01*
X165149617Y-97645136D01*
X165150861Y-97638883D01*
X166400253Y-97638883D01*
X166428900Y-97782900D01*
X166428902Y-97782908D01*
X166485098Y-97918578D01*
X166485103Y-97918587D01*
X166566684Y-98040681D01*
X166566687Y-98040685D01*
X166670521Y-98144519D01*
X166670525Y-98144522D01*
X166792619Y-98226103D01*
X166792625Y-98226106D01*
X166792626Y-98226107D01*
X166928299Y-98282305D01*
X167072323Y-98310953D01*
X167072327Y-98310954D01*
X167072328Y-98310954D01*
X168129179Y-98310954D01*
X168129180Y-98310953D01*
X168273207Y-98282305D01*
X168408880Y-98226107D01*
X168530981Y-98144522D01*
X168634821Y-98040682D01*
X168716406Y-97918581D01*
X168772604Y-97782908D01*
X168801253Y-97638879D01*
X168801253Y-97492029D01*
X168772604Y-97348000D01*
X168720330Y-97221801D01*
X168716407Y-97212329D01*
X168716402Y-97212320D01*
X168634821Y-97090226D01*
X168634818Y-97090222D01*
X168530984Y-96986388D01*
X168530980Y-96986385D01*
X168408886Y-96904804D01*
X168408877Y-96904799D01*
X168273207Y-96848603D01*
X168273199Y-96848601D01*
X168129182Y-96819954D01*
X168129178Y-96819954D01*
X167072328Y-96819954D01*
X167072323Y-96819954D01*
X166928306Y-96848601D01*
X166928298Y-96848603D01*
X166792628Y-96904799D01*
X166792619Y-96904804D01*
X166670525Y-96986385D01*
X166670521Y-96986388D01*
X166566687Y-97090222D01*
X166566684Y-97090226D01*
X166485103Y-97212320D01*
X166485098Y-97212329D01*
X166428902Y-97347999D01*
X166428900Y-97348007D01*
X166400253Y-97492024D01*
X166400253Y-97638883D01*
X165150861Y-97638883D01*
X165151253Y-97636911D01*
X165151253Y-97493996D01*
X165123373Y-97353839D01*
X165123371Y-97353832D01*
X165118591Y-97342293D01*
X165088485Y-97269609D01*
X165068683Y-97221803D01*
X165068678Y-97221794D01*
X164989285Y-97102975D01*
X164989282Y-97102971D01*
X164888235Y-97001924D01*
X164888231Y-97001921D01*
X164769412Y-96922528D01*
X164769403Y-96922523D01*
X164637373Y-96867835D01*
X164637367Y-96867833D01*
X164497210Y-96839954D01*
X164497208Y-96839954D01*
X163804298Y-96839954D01*
X163804296Y-96839954D01*
X163664138Y-96867833D01*
X163664132Y-96867835D01*
X163532102Y-96922523D01*
X163532093Y-96922528D01*
X163413274Y-97001921D01*
X163413270Y-97001924D01*
X163312223Y-97102971D01*
X163312220Y-97102975D01*
X163232827Y-97221794D01*
X163232822Y-97221803D01*
X163185120Y-97336966D01*
X163182915Y-97342293D01*
X163178135Y-97353832D01*
X163178132Y-97353839D01*
X163150253Y-97493996D01*
X163150253Y-97493999D01*
X163150253Y-97636909D01*
X163150253Y-97636911D01*
X163150252Y-97636911D01*
X162393228Y-97636911D01*
X162487515Y-97624498D01*
X162633594Y-97563990D01*
X162759035Y-97467736D01*
X162855289Y-97342295D01*
X162915797Y-97196216D01*
X162936435Y-97039454D01*
X162934316Y-97023362D01*
X162915797Y-96882693D01*
X162915797Y-96882692D01*
X162855289Y-96736613D01*
X162759035Y-96611172D01*
X162633594Y-96514918D01*
X162553285Y-96481653D01*
X162487515Y-96454410D01*
X162487513Y-96454409D01*
X162330754Y-96433772D01*
X162330752Y-96433772D01*
X162173992Y-96454409D01*
X162173990Y-96454410D01*
X162027913Y-96514917D01*
X161902471Y-96611172D01*
X161806216Y-96736614D01*
X161745709Y-96882691D01*
X161745708Y-96882693D01*
X161725071Y-97039452D01*
X161725071Y-97039455D01*
X146630864Y-97039455D01*
X146622857Y-97023362D01*
X146579627Y-96968472D01*
X146537268Y-96928140D01*
X146537265Y-96928137D01*
X146537262Y-96928135D01*
X145483403Y-96178813D01*
X151079672Y-96178813D01*
X151100309Y-96335572D01*
X151100310Y-96335574D01*
X151149533Y-96454410D01*
X151160818Y-96481653D01*
X151257072Y-96607094D01*
X151382513Y-96703348D01*
X151528592Y-96763856D01*
X151606973Y-96774175D01*
X151685353Y-96784494D01*
X151685354Y-96784494D01*
X151685355Y-96784494D01*
X151737608Y-96777614D01*
X151842116Y-96763856D01*
X151988195Y-96703348D01*
X152113636Y-96607094D01*
X152209890Y-96481653D01*
X152270398Y-96335574D01*
X152291036Y-96178812D01*
X152290725Y-96176455D01*
X152586071Y-96176455D01*
X152606708Y-96333214D01*
X152606709Y-96333216D01*
X152661690Y-96465953D01*
X152667217Y-96479295D01*
X152763471Y-96604736D01*
X152888912Y-96700990D01*
X153034991Y-96761498D01*
X153113372Y-96771817D01*
X153191752Y-96782136D01*
X153191753Y-96782136D01*
X153191754Y-96782136D01*
X153244007Y-96775256D01*
X153348515Y-96761498D01*
X153494594Y-96700990D01*
X153620035Y-96604736D01*
X153716289Y-96479295D01*
X153776797Y-96333216D01*
X153795718Y-96189497D01*
X153797435Y-96176455D01*
X153797435Y-96176452D01*
X153778331Y-96031344D01*
X153776797Y-96019692D01*
X153775456Y-96016455D01*
X154804071Y-96016455D01*
X154824708Y-96173214D01*
X154824709Y-96173216D01*
X154885217Y-96319295D01*
X154981471Y-96444736D01*
X155106912Y-96540990D01*
X155252991Y-96601498D01*
X155326473Y-96611172D01*
X155409752Y-96622136D01*
X155409753Y-96622136D01*
X155409754Y-96622136D01*
X155493033Y-96611172D01*
X155566515Y-96601498D01*
X155712594Y-96540990D01*
X155838035Y-96444736D01*
X155934289Y-96319295D01*
X155994797Y-96173216D01*
X156008555Y-96068708D01*
X156015435Y-96016455D01*
X156015435Y-96016452D01*
X155994797Y-95859693D01*
X155994797Y-95859692D01*
X155934289Y-95713613D01*
X155850529Y-95604455D01*
X161980071Y-95604455D01*
X162000708Y-95761214D01*
X162000709Y-95761216D01*
X162048242Y-95875972D01*
X162061217Y-95907295D01*
X162157471Y-96032736D01*
X162282912Y-96128990D01*
X162428991Y-96189498D01*
X162507372Y-96199817D01*
X162585752Y-96210136D01*
X162585753Y-96210136D01*
X162585754Y-96210136D01*
X162638007Y-96203256D01*
X162742515Y-96189498D01*
X162888594Y-96128990D01*
X163014035Y-96032736D01*
X163015102Y-96031346D01*
X164950253Y-96031346D01*
X164953373Y-96042990D01*
X164984361Y-96158641D01*
X164996006Y-96178810D01*
X165050253Y-96272768D01*
X165143439Y-96365954D01*
X165257567Y-96431846D01*
X165384861Y-96465954D01*
X165384863Y-96465954D01*
X165516643Y-96465954D01*
X165516645Y-96465954D01*
X165643939Y-96431846D01*
X165758067Y-96365954D01*
X165851253Y-96272768D01*
X165917145Y-96158640D01*
X165951253Y-96031346D01*
X165951253Y-95899562D01*
X165917145Y-95772268D01*
X165851253Y-95658140D01*
X165758067Y-95564954D01*
X165677527Y-95518454D01*
X165643940Y-95499062D01*
X165580292Y-95482008D01*
X165516645Y-95464954D01*
X165384861Y-95464954D01*
X165257565Y-95499062D01*
X165143439Y-95564954D01*
X165143436Y-95564956D01*
X165050255Y-95658137D01*
X165050253Y-95658140D01*
X164984361Y-95772266D01*
X164971535Y-95820136D01*
X164950253Y-95899562D01*
X164950253Y-96031346D01*
X163015102Y-96031346D01*
X163110289Y-95907295D01*
X163170797Y-95761216D01*
X163191435Y-95604454D01*
X163189291Y-95588172D01*
X163173515Y-95468335D01*
X163170797Y-95447692D01*
X163110289Y-95301613D01*
X163014035Y-95176172D01*
X162888594Y-95079918D01*
X162834933Y-95057691D01*
X162742515Y-95019410D01*
X162742513Y-95019409D01*
X162585754Y-94998772D01*
X162585752Y-94998772D01*
X162428992Y-95019409D01*
X162428990Y-95019410D01*
X162282913Y-95079917D01*
X162157471Y-95176172D01*
X162061216Y-95301614D01*
X162000709Y-95447691D01*
X162000708Y-95447693D01*
X161980071Y-95604452D01*
X161980071Y-95604455D01*
X155850529Y-95604455D01*
X155838035Y-95588172D01*
X155712594Y-95491918D01*
X155655657Y-95468334D01*
X155566515Y-95431410D01*
X155566513Y-95431409D01*
X155409754Y-95410772D01*
X155409752Y-95410772D01*
X155252992Y-95431409D01*
X155252990Y-95431410D01*
X155106913Y-95491917D01*
X154981471Y-95588172D01*
X154885216Y-95713614D01*
X154824709Y-95859691D01*
X154824708Y-95859693D01*
X154804071Y-96016452D01*
X154804071Y-96016455D01*
X153775456Y-96016455D01*
X153716289Y-95873613D01*
X153620035Y-95748172D01*
X153494594Y-95651918D01*
X153472424Y-95642735D01*
X153348515Y-95591410D01*
X153348513Y-95591409D01*
X153191754Y-95570772D01*
X153191752Y-95570772D01*
X153034992Y-95591409D01*
X153034990Y-95591410D01*
X152888913Y-95651917D01*
X152763471Y-95748172D01*
X152667216Y-95873614D01*
X152606709Y-96019691D01*
X152606708Y-96019693D01*
X152586071Y-96176452D01*
X152586071Y-96176455D01*
X152290725Y-96176455D01*
X152290725Y-96176452D01*
X152271622Y-96031345D01*
X152270398Y-96022050D01*
X152209890Y-95875971D01*
X152113636Y-95750530D01*
X151988195Y-95654276D01*
X151982502Y-95651918D01*
X151842116Y-95593768D01*
X151842114Y-95593767D01*
X151685355Y-95573130D01*
X151685353Y-95573130D01*
X151528593Y-95593767D01*
X151528591Y-95593768D01*
X151382514Y-95654275D01*
X151257072Y-95750530D01*
X151160817Y-95875972D01*
X151100310Y-96022049D01*
X151100309Y-96022051D01*
X151079672Y-96178810D01*
X151079672Y-96178813D01*
X145483403Y-96178813D01*
X144539194Y-95507455D01*
X146453071Y-95507455D01*
X146473708Y-95664214D01*
X146473709Y-95664216D01*
X146534217Y-95810295D01*
X146630471Y-95935736D01*
X146755912Y-96031990D01*
X146901991Y-96092498D01*
X146980372Y-96102817D01*
X147058752Y-96113136D01*
X147058753Y-96113136D01*
X147058754Y-96113136D01*
X147131961Y-96103498D01*
X147215515Y-96092498D01*
X147361594Y-96031990D01*
X147487035Y-95935736D01*
X147583289Y-95810295D01*
X147643797Y-95664216D01*
X147657555Y-95559708D01*
X147664435Y-95507455D01*
X147664435Y-95507452D01*
X147643797Y-95350693D01*
X147643797Y-95350692D01*
X147583289Y-95204613D01*
X147487035Y-95079172D01*
X147361594Y-94982918D01*
X147215515Y-94922410D01*
X147215513Y-94922409D01*
X147058754Y-94901772D01*
X147058752Y-94901772D01*
X146901992Y-94922409D01*
X146901990Y-94922410D01*
X146755913Y-94982917D01*
X146630471Y-95079172D01*
X146534216Y-95204614D01*
X146473709Y-95350691D01*
X146473708Y-95350693D01*
X146453071Y-95507452D01*
X146453071Y-95507455D01*
X144539194Y-95507455D01*
X144468897Y-95457472D01*
X144461908Y-95452717D01*
X144461896Y-95452709D01*
X144461884Y-95452701D01*
X144453311Y-95447123D01*
X144453307Y-95447121D01*
X144453303Y-95447119D01*
X144395711Y-95421857D01*
X144392059Y-95420255D01*
X144392057Y-95420254D01*
X144324369Y-95402978D01*
X144324364Y-95402977D01*
X144324360Y-95402976D01*
X144319916Y-95402127D01*
X144309664Y-95400169D01*
X144247508Y-95368255D01*
X144212474Y-95307804D01*
X144209992Y-95294564D01*
X144205797Y-95262692D01*
X144145289Y-95116613D01*
X144049035Y-94991172D01*
X143923594Y-94894918D01*
X143847925Y-94863575D01*
X143777515Y-94834410D01*
X143777513Y-94834409D01*
X143620754Y-94813772D01*
X143620752Y-94813772D01*
X143518411Y-94827245D01*
X143449376Y-94816479D01*
X143397120Y-94770099D01*
X143378235Y-94702830D01*
X143387664Y-94656856D01*
X143414506Y-94592055D01*
X143435144Y-94435293D01*
X143434607Y-94431216D01*
X143414506Y-94278532D01*
X143414506Y-94278531D01*
X143395006Y-94231455D01*
X144798071Y-94231455D01*
X144818708Y-94388214D01*
X144818709Y-94388216D01*
X144862244Y-94493320D01*
X144879217Y-94534295D01*
X144975471Y-94659736D01*
X145100912Y-94755990D01*
X145246991Y-94816498D01*
X145296007Y-94822951D01*
X145403752Y-94837136D01*
X145403753Y-94837136D01*
X145403754Y-94837136D01*
X145478883Y-94827245D01*
X145560515Y-94816498D01*
X145706594Y-94755990D01*
X145832035Y-94659736D01*
X145928289Y-94534295D01*
X145988797Y-94388216D01*
X146009435Y-94231454D01*
X146000777Y-94165693D01*
X145988797Y-94074693D01*
X145988797Y-94074692D01*
X145928289Y-93928613D01*
X145832035Y-93803172D01*
X145794610Y-93774455D01*
X151815071Y-93774455D01*
X151835708Y-93931214D01*
X151835709Y-93931216D01*
X151891948Y-94066990D01*
X151896217Y-94077295D01*
X151992471Y-94202736D01*
X152117912Y-94298990D01*
X152263991Y-94359498D01*
X152342372Y-94369817D01*
X152420752Y-94380136D01*
X152420753Y-94380136D01*
X152420754Y-94380136D01*
X152473007Y-94373256D01*
X152577515Y-94359498D01*
X152650045Y-94329455D01*
X156545071Y-94329455D01*
X156565708Y-94486214D01*
X156565709Y-94486216D01*
X156625021Y-94629409D01*
X156626217Y-94632295D01*
X156722471Y-94757736D01*
X156847912Y-94853990D01*
X156993991Y-94914498D01*
X157054089Y-94922410D01*
X157150752Y-94935136D01*
X157150753Y-94935136D01*
X157150754Y-94935136D01*
X157243710Y-94922898D01*
X157307515Y-94914498D01*
X157453594Y-94853990D01*
X157579035Y-94757736D01*
X157675289Y-94632295D01*
X157735797Y-94486216D01*
X157756435Y-94329454D01*
X157755513Y-94322455D01*
X158841071Y-94322455D01*
X158861708Y-94479214D01*
X158861709Y-94479216D01*
X158908448Y-94592055D01*
X158922217Y-94625295D01*
X159018471Y-94750736D01*
X159143912Y-94846990D01*
X159289991Y-94907498D01*
X159343154Y-94914497D01*
X159446752Y-94928136D01*
X159446753Y-94928136D01*
X159446754Y-94928136D01*
X159499007Y-94921256D01*
X159603515Y-94907498D01*
X159749594Y-94846990D01*
X159875035Y-94750736D01*
X159971289Y-94625295D01*
X160031797Y-94479216D01*
X160051513Y-94329455D01*
X160052435Y-94322455D01*
X160052435Y-94322452D01*
X160032719Y-94172693D01*
X160031797Y-94165692D01*
X159971289Y-94019613D01*
X159875035Y-93894172D01*
X159749594Y-93797918D01*
X159692949Y-93774455D01*
X159603515Y-93737410D01*
X159603513Y-93737409D01*
X159446754Y-93716772D01*
X159446752Y-93716772D01*
X159289992Y-93737409D01*
X159289990Y-93737410D01*
X159143913Y-93797917D01*
X159018471Y-93894172D01*
X158922216Y-94019614D01*
X158861709Y-94165691D01*
X158861708Y-94165693D01*
X158841071Y-94322452D01*
X158841071Y-94322455D01*
X157755513Y-94322455D01*
X157755513Y-94322454D01*
X157735797Y-94172693D01*
X157735797Y-94172692D01*
X157675289Y-94026613D01*
X157579035Y-93901172D01*
X157453594Y-93804918D01*
X157320812Y-93749918D01*
X157307515Y-93744410D01*
X157307513Y-93744409D01*
X157150754Y-93723772D01*
X157150752Y-93723772D01*
X156993992Y-93744409D01*
X156993990Y-93744410D01*
X156847913Y-93804917D01*
X156722471Y-93901172D01*
X156626216Y-94026614D01*
X156565709Y-94172691D01*
X156565708Y-94172693D01*
X156545071Y-94329452D01*
X156545071Y-94329455D01*
X152650045Y-94329455D01*
X152723594Y-94298990D01*
X152849035Y-94202736D01*
X152945289Y-94077295D01*
X153005797Y-93931216D01*
X153022424Y-93804918D01*
X153026435Y-93774455D01*
X153026435Y-93774452D01*
X153005797Y-93617693D01*
X153005797Y-93617692D01*
X152945289Y-93471613D01*
X152849035Y-93346172D01*
X152723594Y-93249918D01*
X152577515Y-93189410D01*
X152577513Y-93189409D01*
X152420754Y-93168772D01*
X152420752Y-93168772D01*
X152263992Y-93189409D01*
X152263990Y-93189410D01*
X152117913Y-93249917D01*
X151992471Y-93346172D01*
X151896216Y-93471614D01*
X151835709Y-93617691D01*
X151835708Y-93617693D01*
X151815071Y-93774452D01*
X151815071Y-93774455D01*
X145794610Y-93774455D01*
X145706594Y-93706918D01*
X145700749Y-93704497D01*
X145560515Y-93646410D01*
X145560513Y-93646409D01*
X145403754Y-93625772D01*
X145403752Y-93625772D01*
X145246992Y-93646409D01*
X145246990Y-93646410D01*
X145100913Y-93706917D01*
X144975471Y-93803172D01*
X144879216Y-93928614D01*
X144818709Y-94074691D01*
X144818708Y-94074693D01*
X144798071Y-94231452D01*
X144798071Y-94231455D01*
X143395006Y-94231455D01*
X143353998Y-94132452D01*
X143257744Y-94007011D01*
X143132303Y-93910757D01*
X143092263Y-93894172D01*
X142986224Y-93850249D01*
X142986222Y-93850248D01*
X142829463Y-93829611D01*
X142829461Y-93829611D01*
X142672701Y-93850248D01*
X142672699Y-93850249D01*
X142526619Y-93910757D01*
X142434641Y-93981335D01*
X142369472Y-94006529D01*
X142301027Y-93992490D01*
X142264829Y-93961871D01*
X142264782Y-93961919D01*
X142264212Y-93961349D01*
X142260780Y-93958446D01*
X142259037Y-93956174D01*
X142259035Y-93956173D01*
X142259035Y-93956172D01*
X142133594Y-93859918D01*
X142100408Y-93846172D01*
X141987515Y-93799410D01*
X141987513Y-93799409D01*
X141830754Y-93778772D01*
X141830752Y-93778772D01*
X141673992Y-93799409D01*
X141673990Y-93799410D01*
X141527913Y-93859917D01*
X141527912Y-93859918D01*
X141434995Y-93931216D01*
X141402470Y-93956173D01*
X141349052Y-94025788D01*
X141292623Y-94066990D01*
X141222877Y-94071144D01*
X141161957Y-94036930D01*
X141136116Y-93997753D01*
X141125289Y-93971613D01*
X141029035Y-93846172D01*
X140903594Y-93749918D01*
X140757515Y-93689410D01*
X140757513Y-93689409D01*
X140600754Y-93668772D01*
X140600752Y-93668772D01*
X140443992Y-93689409D01*
X140443990Y-93689410D01*
X140297913Y-93749917D01*
X140172471Y-93846172D01*
X140076216Y-93971614D01*
X140015709Y-94117691D01*
X140015708Y-94117693D01*
X139995071Y-94274452D01*
X139995071Y-94274455D01*
X140015708Y-94431214D01*
X140015710Y-94431219D01*
X140041433Y-94493320D01*
X140048902Y-94562789D01*
X140017627Y-94625268D01*
X139957538Y-94660920D01*
X139926872Y-94664772D01*
X139925999Y-94664772D01*
X139769239Y-94685409D01*
X139769237Y-94685410D01*
X139623160Y-94745917D01*
X139497718Y-94842172D01*
X139401463Y-94967614D01*
X139340956Y-95113691D01*
X139340955Y-95113693D01*
X139320318Y-95270452D01*
X139320318Y-95270455D01*
X139326090Y-95314300D01*
X139315324Y-95383336D01*
X139268944Y-95435591D01*
X139256609Y-95442370D01*
X139202266Y-95468334D01*
X139202265Y-95468335D01*
X139147510Y-95511725D01*
X139107302Y-95554210D01*
X138379854Y-96583879D01*
X138296083Y-96702453D01*
X137686082Y-97565879D01*
X137686081Y-97565878D01*
X137602312Y-97684451D01*
X137602312Y-97684452D01*
X136609695Y-99089453D01*
X136369894Y-99428879D01*
X136286123Y-99547453D01*
X135903207Y-100089452D01*
X135514638Y-100639453D01*
X134776678Y-101683999D01*
X133649915Y-103278878D01*
X133649914Y-103278880D01*
X133640009Y-103292898D01*
X133626728Y-103314391D01*
X133626721Y-103314403D01*
X133612349Y-103341219D01*
X133612345Y-103341225D01*
X133612342Y-103341233D01*
X133610274Y-103345738D01*
X133601954Y-103363858D01*
X133587644Y-103387597D01*
X133569218Y-103411610D01*
X133569216Y-103411614D01*
X133508709Y-103557692D01*
X133498835Y-103632686D01*
X133496495Y-103645341D01*
X133496278Y-103646247D01*
X133487946Y-103689502D01*
X133487945Y-103689508D01*
X133484250Y-103725945D01*
X133484249Y-103725965D01*
X133469936Y-104942570D01*
X129094253Y-104942570D01*
X129094253Y-101814453D01*
X129488071Y-101814453D01*
X129492192Y-101845754D01*
X129493253Y-101861940D01*
X129493253Y-101893510D01*
X129501423Y-101924002D01*
X129504586Y-101939903D01*
X129508709Y-101971217D01*
X129520791Y-102000385D01*
X129526004Y-102015741D01*
X129534175Y-102046234D01*
X129534176Y-102046237D01*
X129549960Y-102073576D01*
X129557132Y-102088121D01*
X129569215Y-102117292D01*
X129569216Y-102117293D01*
X129588435Y-102142340D01*
X129597445Y-102155825D01*
X129613228Y-102183162D01*
X129613235Y-102183171D01*
X129635556Y-102205492D01*
X129646250Y-102217686D01*
X129665470Y-102242734D01*
X129690518Y-102261954D01*
X129702713Y-102272649D01*
X129725037Y-102294973D01*
X129725038Y-102294974D01*
X129725040Y-102294975D01*
X129752378Y-102310758D01*
X129765857Y-102319764D01*
X129790912Y-102338989D01*
X129817762Y-102350110D01*
X129820079Y-102351070D01*
X129834626Y-102358244D01*
X129861967Y-102374029D01*
X129861969Y-102374030D01*
X129892461Y-102382199D01*
X129907813Y-102387410D01*
X129936991Y-102399497D01*
X129968294Y-102403618D01*
X129984194Y-102406780D01*
X130014696Y-102414953D01*
X130046266Y-102414953D01*
X130062450Y-102416013D01*
X130093753Y-102420135D01*
X130125055Y-102416013D01*
X130141240Y-102414953D01*
X132214695Y-102414953D01*
X132246265Y-102414953D01*
X132262449Y-102416013D01*
X132293752Y-102420135D01*
X132325054Y-102416013D01*
X132341239Y-102414953D01*
X132372808Y-102414953D01*
X132372809Y-102414953D01*
X132403307Y-102406780D01*
X132419191Y-102403620D01*
X132450514Y-102399497D01*
X132479682Y-102387414D01*
X132495045Y-102382200D01*
X132514610Y-102376957D01*
X132525536Y-102374030D01*
X132552882Y-102358240D01*
X132567418Y-102351072D01*
X132596593Y-102338989D01*
X132621647Y-102319763D01*
X132635126Y-102310758D01*
X132662468Y-102294973D01*
X132684792Y-102272647D01*
X132696986Y-102261954D01*
X132722034Y-102242735D01*
X132741254Y-102217686D01*
X132751948Y-102205492D01*
X132774272Y-102183169D01*
X132790060Y-102155821D01*
X132799062Y-102142348D01*
X132818288Y-102117294D01*
X132830371Y-102088119D01*
X132837544Y-102073576D01*
X132853329Y-102046237D01*
X132856256Y-102035311D01*
X132861499Y-102015746D01*
X132866714Y-102000381D01*
X132878796Y-101971215D01*
X132882919Y-101939892D01*
X132886081Y-101924002D01*
X132894252Y-101893510D01*
X132894252Y-101861940D01*
X132895313Y-101845754D01*
X132899434Y-101814453D01*
X132899434Y-101814451D01*
X132895313Y-101783150D01*
X132894252Y-101766965D01*
X132894252Y-100603513D01*
X132894253Y-100603500D01*
X132894253Y-100561933D01*
X132895314Y-100545747D01*
X132899434Y-100514454D01*
X132899434Y-100514452D01*
X132895314Y-100483158D01*
X132894253Y-100466973D01*
X132894253Y-100435398D01*
X132894252Y-100435394D01*
X132886081Y-100404899D01*
X132882916Y-100388989D01*
X132881043Y-100374761D01*
X132878796Y-100357692D01*
X132866714Y-100328523D01*
X132861501Y-100313168D01*
X132861406Y-100312812D01*
X132853329Y-100282669D01*
X132837540Y-100255322D01*
X132830370Y-100240784D01*
X132818288Y-100211613D01*
X132818287Y-100211612D01*
X132818287Y-100211611D01*
X132799070Y-100186567D01*
X132790059Y-100173081D01*
X132774274Y-100145741D01*
X132774270Y-100145736D01*
X132751948Y-100123414D01*
X132741253Y-100111219D01*
X132724908Y-100089918D01*
X132722034Y-100086172D01*
X132696985Y-100066951D01*
X132684791Y-100056257D01*
X132662470Y-100033936D01*
X132662468Y-100033934D01*
X132662465Y-100033932D01*
X132662461Y-100033929D01*
X132635124Y-100018146D01*
X132621639Y-100009136D01*
X132596592Y-99989917D01*
X132596591Y-99989916D01*
X132567420Y-99977833D01*
X132552882Y-99970664D01*
X132548274Y-99968004D01*
X132548275Y-99968001D01*
X132548262Y-99967998D01*
X132536901Y-99961438D01*
X132525541Y-99954879D01*
X132525537Y-99954877D01*
X132525530Y-99954875D01*
X132495034Y-99946703D01*
X132479685Y-99941492D01*
X132450519Y-99929411D01*
X132450515Y-99929410D01*
X132419210Y-99925288D01*
X132403309Y-99922125D01*
X132390297Y-99918638D01*
X132372809Y-99913953D01*
X132372808Y-99913953D01*
X132341232Y-99913953D01*
X132325047Y-99912892D01*
X132293753Y-99908772D01*
X132293751Y-99908772D01*
X132262457Y-99912892D01*
X132246272Y-99913953D01*
X132207099Y-99913953D01*
X132207083Y-99913954D01*
X130180422Y-99913954D01*
X130180406Y-99913953D01*
X130172810Y-99913953D01*
X130141233Y-99913953D01*
X130125048Y-99912892D01*
X130093754Y-99908772D01*
X130093752Y-99908772D01*
X130062458Y-99912892D01*
X130046273Y-99913953D01*
X130014696Y-99913953D01*
X130014688Y-99913954D01*
X129984195Y-99922124D01*
X129968294Y-99925288D01*
X129936990Y-99929410D01*
X129907820Y-99941492D01*
X129892471Y-99946702D01*
X129861972Y-99954875D01*
X129861965Y-99954878D01*
X129848061Y-99962906D01*
X129839239Y-99968000D01*
X129835882Y-99969937D01*
X129834610Y-99970672D01*
X129820092Y-99977829D01*
X129790922Y-99989912D01*
X129790913Y-99989917D01*
X129765860Y-100009140D01*
X129752382Y-100018145D01*
X129725036Y-100033934D01*
X129702708Y-100056261D01*
X129690520Y-100066950D01*
X129665471Y-100086172D01*
X129646249Y-100111221D01*
X129635560Y-100123409D01*
X129613233Y-100145737D01*
X129597444Y-100173083D01*
X129588437Y-100186562D01*
X129569220Y-100211607D01*
X129569217Y-100211612D01*
X129561845Y-100229409D01*
X129557138Y-100240774D01*
X129557133Y-100240785D01*
X129549961Y-100255327D01*
X129534177Y-100282666D01*
X129526001Y-100313172D01*
X129520791Y-100328519D01*
X129508709Y-100357689D01*
X129504587Y-100388995D01*
X129501423Y-100404896D01*
X129493253Y-100435389D01*
X129493252Y-100435397D01*
X129493252Y-100466973D01*
X129492191Y-100483158D01*
X129488071Y-100514452D01*
X129488071Y-100514454D01*
X129492191Y-100545747D01*
X129493252Y-100561933D01*
X129493252Y-100603500D01*
X129493253Y-100603513D01*
X129493253Y-101766965D01*
X129492192Y-101783150D01*
X129488071Y-101814451D01*
X129488071Y-101814453D01*
X129094253Y-101814453D01*
X129094253Y-98718453D01*
X129488071Y-98718453D01*
X129492192Y-98749754D01*
X129493253Y-98765940D01*
X129493253Y-98797510D01*
X129501423Y-98828002D01*
X129504586Y-98843903D01*
X129508709Y-98875217D01*
X129520791Y-98904385D01*
X129526004Y-98919741D01*
X129534175Y-98950234D01*
X129534176Y-98950237D01*
X129549960Y-98977576D01*
X129557132Y-98992121D01*
X129569215Y-99021292D01*
X129569216Y-99021293D01*
X129588435Y-99046340D01*
X129597445Y-99059825D01*
X129613228Y-99087162D01*
X129613235Y-99087171D01*
X129635556Y-99109492D01*
X129646250Y-99121686D01*
X129665470Y-99146734D01*
X129690518Y-99165954D01*
X129702713Y-99176649D01*
X129725037Y-99198973D01*
X129725038Y-99198974D01*
X129725040Y-99198975D01*
X129752378Y-99214758D01*
X129765857Y-99223764D01*
X129790912Y-99242989D01*
X129809039Y-99250497D01*
X129820079Y-99255070D01*
X129834626Y-99262244D01*
X129850028Y-99271136D01*
X129861969Y-99278030D01*
X129892461Y-99286199D01*
X129907813Y-99291410D01*
X129936991Y-99303497D01*
X129968294Y-99307618D01*
X129984194Y-99310780D01*
X130014696Y-99318953D01*
X130046266Y-99318953D01*
X130062450Y-99320013D01*
X130093753Y-99324135D01*
X130125055Y-99320013D01*
X130141240Y-99318953D01*
X132214695Y-99318953D01*
X132246265Y-99318953D01*
X132262449Y-99320013D01*
X132293752Y-99324135D01*
X132325054Y-99320013D01*
X132341239Y-99318953D01*
X132372808Y-99318953D01*
X132372809Y-99318953D01*
X132403307Y-99310780D01*
X132419191Y-99307620D01*
X132450514Y-99303497D01*
X132479682Y-99291414D01*
X132495045Y-99286200D01*
X132514610Y-99280957D01*
X132525536Y-99278030D01*
X132552882Y-99262240D01*
X132567418Y-99255072D01*
X132596593Y-99242989D01*
X132621647Y-99223763D01*
X132635126Y-99214758D01*
X132662468Y-99198973D01*
X132684792Y-99176647D01*
X132696986Y-99165954D01*
X132722034Y-99146735D01*
X132741254Y-99121686D01*
X132751948Y-99109492D01*
X132758705Y-99102735D01*
X132774272Y-99087169D01*
X132790060Y-99059821D01*
X132799062Y-99046348D01*
X132818288Y-99021294D01*
X132830371Y-98992119D01*
X132837544Y-98977576D01*
X132853329Y-98950237D01*
X132859777Y-98926172D01*
X132861499Y-98919746D01*
X132866714Y-98904381D01*
X132877274Y-98878888D01*
X132878796Y-98875215D01*
X132882919Y-98843892D01*
X132886081Y-98828002D01*
X132894252Y-98797510D01*
X132894252Y-98765940D01*
X132895313Y-98749754D01*
X132899434Y-98718453D01*
X132899434Y-98718451D01*
X132895313Y-98687150D01*
X132894252Y-98670965D01*
X132894252Y-97507513D01*
X132894253Y-97507500D01*
X132894253Y-97465933D01*
X132895314Y-97449747D01*
X132895512Y-97448247D01*
X132899434Y-97418454D01*
X132895314Y-97387158D01*
X132894253Y-97370973D01*
X132894253Y-97339398D01*
X132894252Y-97339394D01*
X132886081Y-97308899D01*
X132882916Y-97292989D01*
X132879838Y-97269609D01*
X132878796Y-97261692D01*
X132866714Y-97232523D01*
X132861501Y-97217168D01*
X132853329Y-97186669D01*
X132837540Y-97159322D01*
X132830370Y-97144784D01*
X132818288Y-97115613D01*
X132818287Y-97115612D01*
X132818287Y-97115611D01*
X132799070Y-97090567D01*
X132790059Y-97077081D01*
X132774274Y-97049741D01*
X132774270Y-97049736D01*
X132751948Y-97027414D01*
X132741253Y-97015219D01*
X132722034Y-96990172D01*
X132696985Y-96970951D01*
X132684791Y-96960257D01*
X132662470Y-96937936D01*
X132662468Y-96937934D01*
X132635122Y-96922145D01*
X132621641Y-96913138D01*
X132596593Y-96893918D01*
X132567417Y-96881832D01*
X132552873Y-96874659D01*
X132525542Y-96858879D01*
X132525532Y-96858875D01*
X132495040Y-96850704D01*
X132479686Y-96845492D01*
X132450519Y-96833411D01*
X132450515Y-96833410D01*
X132419210Y-96829288D01*
X132403309Y-96826125D01*
X132390297Y-96822638D01*
X132372809Y-96817953D01*
X132372808Y-96817953D01*
X132341232Y-96817953D01*
X132325047Y-96816892D01*
X132293753Y-96812772D01*
X132293751Y-96812772D01*
X132262457Y-96816892D01*
X132246272Y-96817953D01*
X132207099Y-96817953D01*
X132207083Y-96817954D01*
X130180422Y-96817954D01*
X130180406Y-96817953D01*
X130172810Y-96817953D01*
X130141233Y-96817953D01*
X130125048Y-96816892D01*
X130093754Y-96812772D01*
X130093752Y-96812772D01*
X130062458Y-96816892D01*
X130046273Y-96817953D01*
X130014696Y-96817953D01*
X130014688Y-96817954D01*
X129984195Y-96826124D01*
X129968294Y-96829288D01*
X129936988Y-96833410D01*
X129907818Y-96845492D01*
X129892471Y-96850702D01*
X129868123Y-96857227D01*
X129861968Y-96858877D01*
X129861967Y-96858877D01*
X129861965Y-96858878D01*
X129834626Y-96874662D01*
X129820085Y-96881833D01*
X129818010Y-96882693D01*
X129790911Y-96893918D01*
X129790906Y-96893921D01*
X129765861Y-96913138D01*
X129752382Y-96922145D01*
X129725036Y-96937934D01*
X129702708Y-96960261D01*
X129690520Y-96970950D01*
X129665471Y-96990172D01*
X129646249Y-97015221D01*
X129635560Y-97027409D01*
X129613233Y-97049737D01*
X129597444Y-97077083D01*
X129588437Y-97090562D01*
X129569220Y-97115607D01*
X129569217Y-97115612D01*
X129569217Y-97115613D01*
X129557138Y-97144774D01*
X129557133Y-97144785D01*
X129549961Y-97159327D01*
X129534177Y-97186666D01*
X129526001Y-97217172D01*
X129520791Y-97232519D01*
X129508709Y-97261689D01*
X129504587Y-97292995D01*
X129501423Y-97308896D01*
X129493253Y-97339389D01*
X129493252Y-97339397D01*
X129493252Y-97370973D01*
X129492191Y-97387158D01*
X129488071Y-97418454D01*
X129491993Y-97448247D01*
X129492191Y-97449747D01*
X129493252Y-97465933D01*
X129493252Y-97507500D01*
X129493253Y-97507513D01*
X129493253Y-98670965D01*
X129492192Y-98687150D01*
X129488071Y-98718451D01*
X129488071Y-98718453D01*
X129094253Y-98718453D01*
X129094253Y-95518455D01*
X133488071Y-95518455D01*
X133508708Y-95675214D01*
X133508709Y-95675216D01*
X133564660Y-95810295D01*
X133569217Y-95821295D01*
X133665471Y-95946736D01*
X133790912Y-96042990D01*
X133936991Y-96103498D01*
X134010199Y-96113136D01*
X134093752Y-96124136D01*
X134093753Y-96124136D01*
X134093754Y-96124136D01*
X134146007Y-96117256D01*
X134250515Y-96103498D01*
X134396594Y-96042990D01*
X134522035Y-95946736D01*
X134618289Y-95821295D01*
X134678797Y-95675216D01*
X134699435Y-95518454D01*
X134699282Y-95517295D01*
X134680051Y-95371216D01*
X134678797Y-95361692D01*
X134618289Y-95215613D01*
X134617400Y-95214455D01*
X137043071Y-95214455D01*
X137063708Y-95371214D01*
X137063709Y-95371216D01*
X137116664Y-95499062D01*
X137124217Y-95517295D01*
X137220471Y-95642736D01*
X137345912Y-95738990D01*
X137491991Y-95799498D01*
X137570372Y-95809817D01*
X137648752Y-95820136D01*
X137648753Y-95820136D01*
X137648754Y-95820136D01*
X137723518Y-95810293D01*
X137805515Y-95799498D01*
X137951594Y-95738990D01*
X138077035Y-95642736D01*
X138173289Y-95517295D01*
X138233797Y-95371216D01*
X138254282Y-95215614D01*
X138254435Y-95214455D01*
X138254435Y-95214452D01*
X138233797Y-95057693D01*
X138233797Y-95057692D01*
X138173289Y-94911613D01*
X138077035Y-94786172D01*
X137951594Y-94689918D01*
X137940708Y-94685409D01*
X137805515Y-94629410D01*
X137805513Y-94629409D01*
X137648754Y-94608772D01*
X137648752Y-94608772D01*
X137491992Y-94629409D01*
X137491990Y-94629410D01*
X137345913Y-94689917D01*
X137220471Y-94786172D01*
X137124216Y-94911614D01*
X137063709Y-95057691D01*
X137063708Y-95057693D01*
X137043071Y-95214452D01*
X137043071Y-95214455D01*
X134617400Y-95214455D01*
X134522035Y-95090172D01*
X134396594Y-94993918D01*
X134370035Y-94982917D01*
X134250515Y-94933410D01*
X134250513Y-94933409D01*
X134093754Y-94912772D01*
X134093752Y-94912772D01*
X133936992Y-94933409D01*
X133936990Y-94933410D01*
X133790913Y-94993917D01*
X133665471Y-95090172D01*
X133569216Y-95215614D01*
X133508709Y-95361691D01*
X133508708Y-95361693D01*
X133488071Y-95518452D01*
X133488071Y-95518455D01*
X129094253Y-95518455D01*
X129094253Y-93018455D01*
X133488071Y-93018455D01*
X133508708Y-93175214D01*
X133508709Y-93175216D01*
X133569217Y-93321295D01*
X133665471Y-93446736D01*
X133790912Y-93542990D01*
X133936991Y-93603498D01*
X134015372Y-93613817D01*
X134093752Y-93624136D01*
X134093753Y-93624136D01*
X134093754Y-93624136D01*
X134146007Y-93617256D01*
X134250515Y-93603498D01*
X134396594Y-93542990D01*
X134522035Y-93446736D01*
X134618289Y-93321295D01*
X134678797Y-93175216D01*
X134699435Y-93018454D01*
X134678797Y-92861692D01*
X134618289Y-92715613D01*
X134522035Y-92590172D01*
X134396594Y-92493918D01*
X134321951Y-92463000D01*
X134250515Y-92433410D01*
X134250513Y-92433409D01*
X134093754Y-92412772D01*
X134093752Y-92412772D01*
X133936992Y-92433409D01*
X133936990Y-92433410D01*
X133790913Y-92493917D01*
X133665471Y-92590172D01*
X133569216Y-92715614D01*
X133508709Y-92861691D01*
X133508708Y-92861693D01*
X133488071Y-93018452D01*
X133488071Y-93018455D01*
X129094253Y-93018455D01*
X129094253Y-91842000D01*
X129113938Y-91774961D01*
X129166742Y-91729206D01*
X129218253Y-91718000D01*
X129999329Y-91718000D01*
X130013878Y-91718953D01*
X130014696Y-91718953D01*
X130046266Y-91718953D01*
X130062450Y-91720013D01*
X130093753Y-91724135D01*
X130125055Y-91720013D01*
X130141240Y-91718953D01*
X132214694Y-91718953D01*
X132214695Y-91718953D01*
X132246265Y-91718953D01*
X132262449Y-91720013D01*
X132293752Y-91724135D01*
X132325054Y-91720013D01*
X132341239Y-91718953D01*
X132372808Y-91718953D01*
X132372809Y-91718953D01*
X132403307Y-91710780D01*
X132419191Y-91707620D01*
X132450514Y-91703497D01*
X132479682Y-91691414D01*
X132495045Y-91686200D01*
X132514610Y-91680957D01*
X132525536Y-91678030D01*
X132552882Y-91662240D01*
X132567418Y-91655072D01*
X132596593Y-91642989D01*
X132621647Y-91623763D01*
X132635120Y-91614761D01*
X132662468Y-91598973D01*
X132684792Y-91576647D01*
X132696986Y-91565954D01*
X132722034Y-91546735D01*
X132730935Y-91535134D01*
X138385451Y-91535134D01*
X138406088Y-91691893D01*
X138406089Y-91691895D01*
X138459542Y-91820943D01*
X138466597Y-91837974D01*
X138562851Y-91963415D01*
X138688292Y-92059669D01*
X138828543Y-92117763D01*
X138882945Y-92161603D01*
X138905010Y-92227897D01*
X138901715Y-92256930D01*
X138901770Y-92256938D01*
X138901367Y-92259993D01*
X138900867Y-92264406D01*
X138900709Y-92264994D01*
X138880071Y-92421756D01*
X138880071Y-92421759D01*
X138900708Y-92578518D01*
X138900709Y-92578520D01*
X138951945Y-92702216D01*
X138961217Y-92724599D01*
X139057471Y-92850040D01*
X139182912Y-92946294D01*
X139328991Y-93006802D01*
X139407372Y-93017121D01*
X139485752Y-93027440D01*
X139485753Y-93027440D01*
X139485754Y-93027440D01*
X139554024Y-93018452D01*
X139642515Y-93006802D01*
X139788594Y-92946294D01*
X139914035Y-92850040D01*
X140010289Y-92724599D01*
X140070797Y-92578520D01*
X140075150Y-92545455D01*
X146045071Y-92545455D01*
X146065708Y-92702214D01*
X146065709Y-92702216D01*
X146092062Y-92765839D01*
X146126217Y-92848295D01*
X146222471Y-92973736D01*
X146347912Y-93069990D01*
X146493991Y-93130498D01*
X146572372Y-93140817D01*
X146650752Y-93151136D01*
X146650753Y-93151136D01*
X146650754Y-93151136D01*
X146703007Y-93144256D01*
X146807515Y-93130498D01*
X146834175Y-93119455D01*
X147525071Y-93119455D01*
X147545708Y-93276214D01*
X147545709Y-93276216D01*
X147564380Y-93321293D01*
X147606217Y-93422295D01*
X147702471Y-93547736D01*
X147827912Y-93643990D01*
X147973991Y-93704498D01*
X148052372Y-93714817D01*
X148130752Y-93725136D01*
X148130753Y-93725136D01*
X148130754Y-93725136D01*
X148194284Y-93716772D01*
X148287515Y-93704498D01*
X148433594Y-93643990D01*
X148559035Y-93547736D01*
X148655289Y-93422295D01*
X148715797Y-93276216D01*
X148736435Y-93119455D01*
X154825071Y-93119455D01*
X154845708Y-93276214D01*
X154845709Y-93276216D01*
X154864380Y-93321293D01*
X154906217Y-93422295D01*
X155002471Y-93547736D01*
X155127912Y-93643990D01*
X155273991Y-93704498D01*
X155352372Y-93714817D01*
X155430752Y-93725136D01*
X155430753Y-93725136D01*
X155430754Y-93725136D01*
X155494284Y-93716772D01*
X155587515Y-93704498D01*
X155733594Y-93643990D01*
X155859035Y-93547736D01*
X155955289Y-93422295D01*
X156015797Y-93276216D01*
X156036435Y-93119454D01*
X156015797Y-92962692D01*
X155955289Y-92816613D01*
X155859035Y-92691172D01*
X155733594Y-92594918D01*
X155722136Y-92590172D01*
X155587515Y-92534410D01*
X155587513Y-92534409D01*
X155430754Y-92513772D01*
X155430752Y-92513772D01*
X155273992Y-92534409D01*
X155273990Y-92534410D01*
X155127913Y-92594917D01*
X155002471Y-92691172D01*
X154906216Y-92816614D01*
X154845709Y-92962691D01*
X154845708Y-92962693D01*
X154825071Y-93119452D01*
X154825071Y-93119455D01*
X148736435Y-93119455D01*
X148736435Y-93119454D01*
X148715797Y-92962692D01*
X148655289Y-92816613D01*
X148559035Y-92691172D01*
X148433594Y-92594918D01*
X148422136Y-92590172D01*
X148287515Y-92534410D01*
X148287513Y-92534409D01*
X148130754Y-92513772D01*
X148130752Y-92513772D01*
X147973992Y-92534409D01*
X147973990Y-92534410D01*
X147827913Y-92594917D01*
X147702471Y-92691172D01*
X147606216Y-92816614D01*
X147545709Y-92962691D01*
X147545708Y-92962693D01*
X147525071Y-93119452D01*
X147525071Y-93119455D01*
X146834175Y-93119455D01*
X146953594Y-93069990D01*
X147079035Y-92973736D01*
X147175289Y-92848295D01*
X147235797Y-92702216D01*
X147256435Y-92545454D01*
X147235797Y-92388692D01*
X147175289Y-92242613D01*
X147079035Y-92117172D01*
X147028570Y-92078449D01*
X149580252Y-92078449D01*
X149607171Y-92213776D01*
X149607174Y-92213786D01*
X149659974Y-92341258D01*
X149659981Y-92341271D01*
X149736638Y-92455995D01*
X149736641Y-92455999D01*
X149834207Y-92553565D01*
X149834211Y-92553568D01*
X149948935Y-92630225D01*
X149948948Y-92630232D01*
X150076420Y-92683032D01*
X150076425Y-92683034D01*
X150076429Y-92683034D01*
X150076430Y-92683035D01*
X150211757Y-92709954D01*
X150211760Y-92709954D01*
X150349748Y-92709954D01*
X150444169Y-92691172D01*
X150485081Y-92683034D01*
X150612564Y-92630229D01*
X150727295Y-92553568D01*
X150824867Y-92455996D01*
X150901528Y-92341265D01*
X150954333Y-92213782D01*
X150965302Y-92158640D01*
X150981253Y-92078449D01*
X152580252Y-92078449D01*
X152607171Y-92213776D01*
X152607174Y-92213786D01*
X152659974Y-92341258D01*
X152659981Y-92341271D01*
X152736638Y-92455995D01*
X152736641Y-92455999D01*
X152834207Y-92553565D01*
X152834211Y-92553568D01*
X152948935Y-92630225D01*
X152948948Y-92630232D01*
X153076420Y-92683032D01*
X153076425Y-92683034D01*
X153076429Y-92683034D01*
X153076430Y-92683035D01*
X153211757Y-92709954D01*
X153211760Y-92709954D01*
X153349748Y-92709954D01*
X153444169Y-92691172D01*
X153485081Y-92683034D01*
X153612564Y-92630229D01*
X153727295Y-92553568D01*
X153817862Y-92463001D01*
X163745071Y-92463001D01*
X163765708Y-92619760D01*
X163765709Y-92619762D01*
X163826217Y-92765841D01*
X163922471Y-92891282D01*
X164047912Y-92987536D01*
X164193991Y-93048044D01*
X164272372Y-93058363D01*
X164350752Y-93068682D01*
X164350753Y-93068682D01*
X164350754Y-93068682D01*
X164403007Y-93061802D01*
X164507515Y-93048044D01*
X164653594Y-92987536D01*
X164779035Y-92891282D01*
X164875289Y-92765841D01*
X164935797Y-92619762D01*
X164956435Y-92463000D01*
X164956435Y-92462998D01*
X164957296Y-92456460D01*
X164985562Y-92392563D01*
X165043887Y-92354092D01*
X165113752Y-92353261D01*
X165142236Y-92365258D01*
X165143435Y-92365950D01*
X165143439Y-92365954D01*
X165257567Y-92431846D01*
X165384861Y-92465954D01*
X165384863Y-92465954D01*
X165516643Y-92465954D01*
X165516645Y-92465954D01*
X165643939Y-92431846D01*
X165758067Y-92365954D01*
X165851253Y-92272768D01*
X165917145Y-92158640D01*
X165951253Y-92031346D01*
X165951253Y-91899562D01*
X165917145Y-91772268D01*
X165851253Y-91658140D01*
X165758067Y-91564954D01*
X165683137Y-91521693D01*
X165643940Y-91499062D01*
X165529468Y-91468390D01*
X165516645Y-91464954D01*
X165384861Y-91464954D01*
X165257565Y-91499062D01*
X165143439Y-91564954D01*
X165143436Y-91564956D01*
X165050255Y-91658137D01*
X165050253Y-91658140D01*
X164984361Y-91772266D01*
X164950253Y-91899562D01*
X164950253Y-91914651D01*
X164930568Y-91981690D01*
X164877764Y-92027445D01*
X164808606Y-92037389D01*
X164750767Y-92013027D01*
X164653595Y-91938464D01*
X164507515Y-91877956D01*
X164507513Y-91877955D01*
X164350754Y-91857318D01*
X164350752Y-91857318D01*
X164193992Y-91877955D01*
X164193990Y-91877956D01*
X164047913Y-91938463D01*
X163922471Y-92034718D01*
X163826216Y-92160160D01*
X163765709Y-92306237D01*
X163765708Y-92306239D01*
X163745071Y-92462998D01*
X163745071Y-92463001D01*
X153817862Y-92463001D01*
X153824867Y-92455996D01*
X153901528Y-92341265D01*
X153954333Y-92213782D01*
X153965302Y-92158640D01*
X153981253Y-92078449D01*
X153981253Y-91940458D01*
X153954334Y-91805131D01*
X153954333Y-91805130D01*
X153954333Y-91805126D01*
X153918639Y-91718952D01*
X153901531Y-91677649D01*
X153901524Y-91677636D01*
X153824867Y-91562912D01*
X153824864Y-91562908D01*
X153727298Y-91465342D01*
X153727294Y-91465339D01*
X153612570Y-91388682D01*
X153612557Y-91388675D01*
X153485085Y-91335875D01*
X153485075Y-91335872D01*
X153349748Y-91308954D01*
X153349746Y-91308954D01*
X153211760Y-91308954D01*
X153211758Y-91308954D01*
X153076430Y-91335872D01*
X153076420Y-91335875D01*
X152948948Y-91388675D01*
X152948935Y-91388682D01*
X152834211Y-91465339D01*
X152834207Y-91465342D01*
X152736641Y-91562908D01*
X152736638Y-91562912D01*
X152659981Y-91677636D01*
X152659974Y-91677649D01*
X152607174Y-91805121D01*
X152607171Y-91805131D01*
X152580253Y-91940458D01*
X152580253Y-91940461D01*
X152580253Y-92078447D01*
X152580253Y-92078449D01*
X152580252Y-92078449D01*
X150981253Y-92078449D01*
X150981253Y-91940458D01*
X150954334Y-91805131D01*
X150954333Y-91805130D01*
X150954333Y-91805126D01*
X150918639Y-91718952D01*
X150901531Y-91677649D01*
X150901524Y-91677636D01*
X150824867Y-91562912D01*
X150824864Y-91562908D01*
X150791669Y-91529713D01*
X150758184Y-91468390D01*
X150763168Y-91398698D01*
X150803863Y-91343657D01*
X150811318Y-91337937D01*
X150907572Y-91212496D01*
X150968080Y-91066417D01*
X150986173Y-90928986D01*
X150988718Y-90909656D01*
X150988718Y-90909653D01*
X150988692Y-90909455D01*
X154825071Y-90909455D01*
X154845708Y-91066214D01*
X154845709Y-91066216D01*
X154906217Y-91212295D01*
X155002471Y-91337736D01*
X155127912Y-91433990D01*
X155273991Y-91494498D01*
X155352372Y-91504817D01*
X155430752Y-91515136D01*
X155430753Y-91515136D01*
X155430754Y-91515136D01*
X155483007Y-91508256D01*
X155587515Y-91494498D01*
X155733594Y-91433990D01*
X155859035Y-91337736D01*
X155955289Y-91212295D01*
X156015797Y-91066216D01*
X156033864Y-90928983D01*
X156036435Y-90909455D01*
X156036435Y-90909452D01*
X156022185Y-90801214D01*
X156015797Y-90752692D01*
X155955289Y-90606613D01*
X155859035Y-90481172D01*
X155733594Y-90384918D01*
X155611478Y-90334336D01*
X155587515Y-90324410D01*
X155587513Y-90324409D01*
X155430754Y-90303772D01*
X155430752Y-90303772D01*
X155273992Y-90324409D01*
X155273990Y-90324410D01*
X155127913Y-90384917D01*
X155002471Y-90481172D01*
X154906216Y-90606614D01*
X154845709Y-90752691D01*
X154845708Y-90752693D01*
X154825071Y-90909452D01*
X154825071Y-90909455D01*
X150988692Y-90909455D01*
X150968080Y-90752894D01*
X150968080Y-90752893D01*
X150907572Y-90606814D01*
X150811318Y-90481373D01*
X150685877Y-90385119D01*
X150685389Y-90384917D01*
X150539798Y-90324611D01*
X150539796Y-90324610D01*
X150383037Y-90303973D01*
X150383035Y-90303973D01*
X150226275Y-90324610D01*
X150226273Y-90324611D01*
X150080196Y-90385118D01*
X149954754Y-90481373D01*
X149858499Y-90606815D01*
X149797992Y-90752892D01*
X149797991Y-90752894D01*
X149777354Y-90909653D01*
X149777354Y-90909656D01*
X149797991Y-91066415D01*
X149797992Y-91066417D01*
X149858500Y-91212497D01*
X149897927Y-91263879D01*
X149923121Y-91329048D01*
X149909082Y-91397493D01*
X149868442Y-91442467D01*
X149834211Y-91465339D01*
X149834207Y-91465342D01*
X149736641Y-91562908D01*
X149736638Y-91562912D01*
X149659981Y-91677636D01*
X149659974Y-91677649D01*
X149607174Y-91805121D01*
X149607171Y-91805131D01*
X149580253Y-91940458D01*
X149580253Y-91940461D01*
X149580253Y-92078447D01*
X149580253Y-92078449D01*
X149580252Y-92078449D01*
X147028570Y-92078449D01*
X146953594Y-92020918D01*
X146934543Y-92013027D01*
X146807515Y-91960410D01*
X146807513Y-91960409D01*
X146650754Y-91939772D01*
X146650752Y-91939772D01*
X146493992Y-91960409D01*
X146493990Y-91960410D01*
X146347913Y-92020917D01*
X146222471Y-92117172D01*
X146126216Y-92242614D01*
X146065709Y-92388691D01*
X146065708Y-92388693D01*
X146045071Y-92545452D01*
X146045071Y-92545455D01*
X140075150Y-92545455D01*
X140091435Y-92421758D01*
X140087591Y-92392563D01*
X140070797Y-92264997D01*
X140070797Y-92264996D01*
X140010289Y-92118917D01*
X139914035Y-91993476D01*
X139788594Y-91897222D01*
X139742079Y-91877955D01*
X139648343Y-91839128D01*
X139593940Y-91795287D01*
X139571875Y-91728993D01*
X139575172Y-91699960D01*
X139575116Y-91699953D01*
X139575529Y-91696809D01*
X139576023Y-91692467D01*
X139576173Y-91691904D01*
X139576177Y-91691895D01*
X139596815Y-91535133D01*
X139596101Y-91529713D01*
X139577534Y-91388679D01*
X139576177Y-91378371D01*
X139515669Y-91232292D01*
X139419415Y-91106851D01*
X139293974Y-91010597D01*
X139288631Y-91008384D01*
X139147895Y-90950089D01*
X139147893Y-90950088D01*
X138991134Y-90929451D01*
X138991132Y-90929451D01*
X138834372Y-90950088D01*
X138834370Y-90950089D01*
X138688293Y-91010596D01*
X138562851Y-91106851D01*
X138466596Y-91232293D01*
X138406089Y-91378370D01*
X138406088Y-91378372D01*
X138385451Y-91535131D01*
X138385451Y-91535134D01*
X132730935Y-91535134D01*
X132741253Y-91521687D01*
X132751948Y-91509492D01*
X132774272Y-91487169D01*
X132790060Y-91459821D01*
X132799062Y-91446348D01*
X132818288Y-91421294D01*
X132830371Y-91392119D01*
X132837539Y-91377583D01*
X132853329Y-91350237D01*
X132856256Y-91339311D01*
X132861499Y-91319746D01*
X132866714Y-91304381D01*
X132878796Y-91275215D01*
X132882919Y-91243892D01*
X132886081Y-91228002D01*
X132894252Y-91197510D01*
X132894252Y-91165940D01*
X132895313Y-91149754D01*
X132899434Y-91118453D01*
X132899434Y-91118451D01*
X132895313Y-91087150D01*
X132894252Y-91070965D01*
X132894252Y-90739813D01*
X140275071Y-90739813D01*
X140295708Y-90896572D01*
X140295709Y-90896574D01*
X140342938Y-91010596D01*
X140356217Y-91042653D01*
X140452471Y-91168094D01*
X140577912Y-91264348D01*
X140723991Y-91324856D01*
X140755833Y-91329048D01*
X140880752Y-91345494D01*
X140880753Y-91345494D01*
X140880754Y-91345494D01*
X140953817Y-91335875D01*
X141037515Y-91324856D01*
X141183594Y-91264348D01*
X141309035Y-91168094D01*
X141405289Y-91042653D01*
X141465797Y-90896574D01*
X141484739Y-90752692D01*
X141486435Y-90739813D01*
X141486435Y-90739810D01*
X141473881Y-90644455D01*
X143285071Y-90644455D01*
X143305708Y-90801214D01*
X143305709Y-90801216D01*
X143366217Y-90947295D01*
X143462471Y-91072736D01*
X143587912Y-91168990D01*
X143733991Y-91229498D01*
X143782255Y-91235852D01*
X143890752Y-91250136D01*
X143890753Y-91250136D01*
X143890754Y-91250136D01*
X143943007Y-91243256D01*
X144047515Y-91229498D01*
X144193594Y-91168990D01*
X144319035Y-91072736D01*
X144415289Y-90947295D01*
X144430963Y-90909455D01*
X147525071Y-90909455D01*
X147545708Y-91066214D01*
X147545709Y-91066216D01*
X147606217Y-91212295D01*
X147702471Y-91337736D01*
X147827912Y-91433990D01*
X147973991Y-91494498D01*
X148052372Y-91504817D01*
X148130752Y-91515136D01*
X148130753Y-91515136D01*
X148130754Y-91515136D01*
X148183007Y-91508256D01*
X148287515Y-91494498D01*
X148433594Y-91433990D01*
X148559035Y-91337736D01*
X148655289Y-91212295D01*
X148715797Y-91066216D01*
X148733864Y-90928983D01*
X148736435Y-90909455D01*
X148736435Y-90909452D01*
X148722185Y-90801214D01*
X148715797Y-90752692D01*
X148655289Y-90606613D01*
X148559035Y-90481172D01*
X148433594Y-90384918D01*
X148311478Y-90334336D01*
X148287515Y-90324410D01*
X148287513Y-90324409D01*
X148130754Y-90303772D01*
X148130752Y-90303772D01*
X147973992Y-90324409D01*
X147973990Y-90324410D01*
X147827913Y-90384917D01*
X147702471Y-90481172D01*
X147606216Y-90606614D01*
X147545709Y-90752691D01*
X147545708Y-90752693D01*
X147525071Y-90909452D01*
X147525071Y-90909455D01*
X144430963Y-90909455D01*
X144475797Y-90801216D01*
X144496435Y-90644454D01*
X144492162Y-90612000D01*
X144475797Y-90487693D01*
X144475797Y-90487692D01*
X144415289Y-90341613D01*
X144319035Y-90216172D01*
X144193594Y-90119918D01*
X144181460Y-90114892D01*
X144047515Y-90059410D01*
X144047513Y-90059409D01*
X143890754Y-90038772D01*
X143890752Y-90038772D01*
X143733992Y-90059409D01*
X143733990Y-90059410D01*
X143587913Y-90119917D01*
X143462471Y-90216172D01*
X143366216Y-90341614D01*
X143305709Y-90487691D01*
X143305708Y-90487693D01*
X143285071Y-90644452D01*
X143285071Y-90644455D01*
X141473881Y-90644455D01*
X141465797Y-90583051D01*
X141465796Y-90583048D01*
X141465735Y-90582900D01*
X141405289Y-90436971D01*
X141309035Y-90311530D01*
X141183594Y-90215276D01*
X141037515Y-90154768D01*
X141037513Y-90154767D01*
X140880754Y-90134130D01*
X140880752Y-90134130D01*
X140723992Y-90154767D01*
X140723990Y-90154768D01*
X140577913Y-90215275D01*
X140452471Y-90311530D01*
X140356216Y-90436972D01*
X140295710Y-90583048D01*
X140295708Y-90583051D01*
X140275071Y-90739810D01*
X140275071Y-90739813D01*
X132894252Y-90739813D01*
X132894252Y-89865941D01*
X132895313Y-89849755D01*
X132899434Y-89818454D01*
X132899434Y-89818452D01*
X132895313Y-89787151D01*
X132894252Y-89770966D01*
X132894252Y-89739399D01*
X132894252Y-89739397D01*
X132886079Y-89708895D01*
X132882916Y-89692990D01*
X132880837Y-89677200D01*
X132878796Y-89661692D01*
X132866709Y-89632514D01*
X132861497Y-89617157D01*
X132851225Y-89578816D01*
X132853564Y-89578189D01*
X132847407Y-89520942D01*
X132878680Y-89458462D01*
X132938767Y-89422807D01*
X132969438Y-89418954D01*
X136934890Y-89418954D01*
X137001929Y-89438639D01*
G37*
G04 #@! TD.AperFunction*
M02*
