%TF.GenerationSoftware,KiCad,Pcbnew,8.0.1*%
%TF.CreationDate,2024-04-22T06:17:10+03:00*%
%TF.ProjectId,IMU module,494d5520-6d6f-4647-956c-652e6b696361,rev?*%
%TF.SameCoordinates,Original*%
%TF.FileFunction,Drillmap*%
%TF.FilePolarity,Positive*%
%FSLAX45Y45*%
G04 Gerber Fmt 4.5, Leading zero omitted, Abs format (unit mm)*
G04 Created by KiCad (PCBNEW 8.0.1) date 2024-04-22 06:17:10*
%MOMM*%
%LPD*%
G01*
G04 APERTURE LIST*
%ADD10C,0.050000*%
%ADD11C,0.200000*%
%ADD12C,0.100000*%
G04 APERTURE END LIST*
D10*
X12859375Y-9026845D02*
G75*
G02*
X12994375Y-8891845I135005J-5D01*
G01*
X17009075Y-9026845D02*
X17009075Y-11270945D01*
X12994375Y-11405945D02*
G75*
G02*
X12859385Y-11270945I5J134995D01*
G01*
X16874075Y-11405945D02*
X12994375Y-11405945D01*
X16874075Y-8891845D02*
G75*
G02*
X17009085Y-9026845I5J-135005D01*
G01*
X17009075Y-11270945D02*
G75*
G02*
X16874075Y-11405945I-134995J-5D01*
G01*
X12994375Y-8891845D02*
X16874075Y-8891845D01*
X12859375Y-9026845D02*
X12859375Y-11270945D01*
D11*
D12*
X16520075Y-9171545D02*
X16570075Y-9221545D01*
X16570075Y-9171545D02*
X16520075Y-9221545D01*
X16520075Y-9571545D02*
X16570075Y-9621545D01*
X16570075Y-9571545D02*
X16520075Y-9621545D01*
X15073075Y-9200945D02*
G75*
G02*
X14983075Y-9200945I-45000J0D01*
G01*
X14983075Y-9200945D02*
G75*
G02*
X15073075Y-9200945I45000J0D01*
G01*
X15373075Y-9200945D02*
G75*
G02*
X15283075Y-9200945I-45000J0D01*
G01*
X15283075Y-9200945D02*
G75*
G02*
X15373075Y-9200945I45000J0D01*
G01*
D11*
X13117652Y-11719929D02*
X13117652Y-11519929D01*
X13117652Y-11519929D02*
X13165271Y-11519929D01*
X13165271Y-11519929D02*
X13193843Y-11529453D01*
X13193843Y-11529453D02*
X13212890Y-11548501D01*
X13212890Y-11548501D02*
X13222414Y-11567548D01*
X13222414Y-11567548D02*
X13231938Y-11605643D01*
X13231938Y-11605643D02*
X13231938Y-11634215D01*
X13231938Y-11634215D02*
X13222414Y-11672310D01*
X13222414Y-11672310D02*
X13212890Y-11691358D01*
X13212890Y-11691358D02*
X13193843Y-11710405D01*
X13193843Y-11710405D02*
X13165271Y-11719929D01*
X13165271Y-11719929D02*
X13117652Y-11719929D01*
X13317652Y-11719929D02*
X13317652Y-11586596D01*
X13317652Y-11624691D02*
X13327176Y-11605643D01*
X13327176Y-11605643D02*
X13336700Y-11596120D01*
X13336700Y-11596120D02*
X13355747Y-11586596D01*
X13355747Y-11586596D02*
X13374795Y-11586596D01*
X13441462Y-11719929D02*
X13441462Y-11586596D01*
X13441462Y-11519929D02*
X13431938Y-11529453D01*
X13431938Y-11529453D02*
X13441462Y-11538977D01*
X13441462Y-11538977D02*
X13450985Y-11529453D01*
X13450985Y-11529453D02*
X13441462Y-11519929D01*
X13441462Y-11519929D02*
X13441462Y-11538977D01*
X13565271Y-11719929D02*
X13546223Y-11710405D01*
X13546223Y-11710405D02*
X13536700Y-11691358D01*
X13536700Y-11691358D02*
X13536700Y-11519929D01*
X13670033Y-11719929D02*
X13650985Y-11710405D01*
X13650985Y-11710405D02*
X13641462Y-11691358D01*
X13641462Y-11691358D02*
X13641462Y-11519929D01*
X13898604Y-11719929D02*
X13898604Y-11519929D01*
X13898604Y-11519929D02*
X13965271Y-11662786D01*
X13965271Y-11662786D02*
X14031938Y-11519929D01*
X14031938Y-11519929D02*
X14031938Y-11719929D01*
X14212890Y-11719929D02*
X14212890Y-11615167D01*
X14212890Y-11615167D02*
X14203366Y-11596120D01*
X14203366Y-11596120D02*
X14184319Y-11586596D01*
X14184319Y-11586596D02*
X14146223Y-11586596D01*
X14146223Y-11586596D02*
X14127176Y-11596120D01*
X14212890Y-11710405D02*
X14193843Y-11719929D01*
X14193843Y-11719929D02*
X14146223Y-11719929D01*
X14146223Y-11719929D02*
X14127176Y-11710405D01*
X14127176Y-11710405D02*
X14117652Y-11691358D01*
X14117652Y-11691358D02*
X14117652Y-11672310D01*
X14117652Y-11672310D02*
X14127176Y-11653262D01*
X14127176Y-11653262D02*
X14146223Y-11643739D01*
X14146223Y-11643739D02*
X14193843Y-11643739D01*
X14193843Y-11643739D02*
X14212890Y-11634215D01*
X14308128Y-11586596D02*
X14308128Y-11786596D01*
X14308128Y-11596120D02*
X14327176Y-11586596D01*
X14327176Y-11586596D02*
X14365271Y-11586596D01*
X14365271Y-11586596D02*
X14384319Y-11596120D01*
X14384319Y-11596120D02*
X14393843Y-11605643D01*
X14393843Y-11605643D02*
X14403366Y-11624691D01*
X14403366Y-11624691D02*
X14403366Y-11681834D01*
X14403366Y-11681834D02*
X14393843Y-11700881D01*
X14393843Y-11700881D02*
X14384319Y-11710405D01*
X14384319Y-11710405D02*
X14365271Y-11719929D01*
X14365271Y-11719929D02*
X14327176Y-11719929D01*
X14327176Y-11719929D02*
X14308128Y-11710405D01*
X14489081Y-11700881D02*
X14498604Y-11710405D01*
X14498604Y-11710405D02*
X14489081Y-11719929D01*
X14489081Y-11719929D02*
X14479557Y-11710405D01*
X14479557Y-11710405D02*
X14489081Y-11700881D01*
X14489081Y-11700881D02*
X14489081Y-11719929D01*
X14489081Y-11596120D02*
X14498604Y-11605643D01*
X14498604Y-11605643D02*
X14489081Y-11615167D01*
X14489081Y-11615167D02*
X14479557Y-11605643D01*
X14479557Y-11605643D02*
X14489081Y-11596120D01*
X14489081Y-11596120D02*
X14489081Y-11615167D01*
D12*
X12806875Y-12023445D02*
X12856875Y-12073445D01*
X12856875Y-12023445D02*
X12806875Y-12073445D01*
D11*
X13155747Y-11939929D02*
X13174795Y-11939929D01*
X13174795Y-11939929D02*
X13193843Y-11949453D01*
X13193843Y-11949453D02*
X13203366Y-11958977D01*
X13203366Y-11958977D02*
X13212890Y-11978024D01*
X13212890Y-11978024D02*
X13222414Y-12016120D01*
X13222414Y-12016120D02*
X13222414Y-12063739D01*
X13222414Y-12063739D02*
X13212890Y-12101834D01*
X13212890Y-12101834D02*
X13203366Y-12120881D01*
X13203366Y-12120881D02*
X13193843Y-12130405D01*
X13193843Y-12130405D02*
X13174795Y-12139929D01*
X13174795Y-12139929D02*
X13155747Y-12139929D01*
X13155747Y-12139929D02*
X13136700Y-12130405D01*
X13136700Y-12130405D02*
X13127176Y-12120881D01*
X13127176Y-12120881D02*
X13117652Y-12101834D01*
X13117652Y-12101834D02*
X13108128Y-12063739D01*
X13108128Y-12063739D02*
X13108128Y-12016120D01*
X13108128Y-12016120D02*
X13117652Y-11978024D01*
X13117652Y-11978024D02*
X13127176Y-11958977D01*
X13127176Y-11958977D02*
X13136700Y-11949453D01*
X13136700Y-11949453D02*
X13155747Y-11939929D01*
X13308128Y-12120881D02*
X13317652Y-12130405D01*
X13317652Y-12130405D02*
X13308128Y-12139929D01*
X13308128Y-12139929D02*
X13298604Y-12130405D01*
X13298604Y-12130405D02*
X13308128Y-12120881D01*
X13308128Y-12120881D02*
X13308128Y-12139929D01*
X13498604Y-11939929D02*
X13403366Y-11939929D01*
X13403366Y-11939929D02*
X13393843Y-12035167D01*
X13393843Y-12035167D02*
X13403366Y-12025643D01*
X13403366Y-12025643D02*
X13422414Y-12016120D01*
X13422414Y-12016120D02*
X13470033Y-12016120D01*
X13470033Y-12016120D02*
X13489081Y-12025643D01*
X13489081Y-12025643D02*
X13498604Y-12035167D01*
X13498604Y-12035167D02*
X13508128Y-12054215D01*
X13508128Y-12054215D02*
X13508128Y-12101834D01*
X13508128Y-12101834D02*
X13498604Y-12120881D01*
X13498604Y-12120881D02*
X13489081Y-12130405D01*
X13489081Y-12130405D02*
X13470033Y-12139929D01*
X13470033Y-12139929D02*
X13422414Y-12139929D01*
X13422414Y-12139929D02*
X13403366Y-12130405D01*
X13403366Y-12130405D02*
X13393843Y-12120881D01*
X13631938Y-11939929D02*
X13650985Y-11939929D01*
X13650985Y-11939929D02*
X13670033Y-11949453D01*
X13670033Y-11949453D02*
X13679557Y-11958977D01*
X13679557Y-11958977D02*
X13689081Y-11978024D01*
X13689081Y-11978024D02*
X13698604Y-12016120D01*
X13698604Y-12016120D02*
X13698604Y-12063739D01*
X13698604Y-12063739D02*
X13689081Y-12101834D01*
X13689081Y-12101834D02*
X13679557Y-12120881D01*
X13679557Y-12120881D02*
X13670033Y-12130405D01*
X13670033Y-12130405D02*
X13650985Y-12139929D01*
X13650985Y-12139929D02*
X13631938Y-12139929D01*
X13631938Y-12139929D02*
X13612890Y-12130405D01*
X13612890Y-12130405D02*
X13603366Y-12120881D01*
X13603366Y-12120881D02*
X13593843Y-12101834D01*
X13593843Y-12101834D02*
X13584319Y-12063739D01*
X13584319Y-12063739D02*
X13584319Y-12016120D01*
X13584319Y-12016120D02*
X13593843Y-11978024D01*
X13593843Y-11978024D02*
X13603366Y-11958977D01*
X13603366Y-11958977D02*
X13612890Y-11949453D01*
X13612890Y-11949453D02*
X13631938Y-11939929D01*
X13822414Y-11939929D02*
X13841462Y-11939929D01*
X13841462Y-11939929D02*
X13860509Y-11949453D01*
X13860509Y-11949453D02*
X13870033Y-11958977D01*
X13870033Y-11958977D02*
X13879557Y-11978024D01*
X13879557Y-11978024D02*
X13889081Y-12016120D01*
X13889081Y-12016120D02*
X13889081Y-12063739D01*
X13889081Y-12063739D02*
X13879557Y-12101834D01*
X13879557Y-12101834D02*
X13870033Y-12120881D01*
X13870033Y-12120881D02*
X13860509Y-12130405D01*
X13860509Y-12130405D02*
X13841462Y-12139929D01*
X13841462Y-12139929D02*
X13822414Y-12139929D01*
X13822414Y-12139929D02*
X13803366Y-12130405D01*
X13803366Y-12130405D02*
X13793843Y-12120881D01*
X13793843Y-12120881D02*
X13784319Y-12101834D01*
X13784319Y-12101834D02*
X13774795Y-12063739D01*
X13774795Y-12063739D02*
X13774795Y-12016120D01*
X13774795Y-12016120D02*
X13784319Y-11978024D01*
X13784319Y-11978024D02*
X13793843Y-11958977D01*
X13793843Y-11958977D02*
X13803366Y-11949453D01*
X13803366Y-11949453D02*
X13822414Y-11939929D01*
X13974795Y-12139929D02*
X13974795Y-12006596D01*
X13974795Y-12025643D02*
X13984319Y-12016120D01*
X13984319Y-12016120D02*
X14003366Y-12006596D01*
X14003366Y-12006596D02*
X14031938Y-12006596D01*
X14031938Y-12006596D02*
X14050985Y-12016120D01*
X14050985Y-12016120D02*
X14060509Y-12035167D01*
X14060509Y-12035167D02*
X14060509Y-12139929D01*
X14060509Y-12035167D02*
X14070033Y-12016120D01*
X14070033Y-12016120D02*
X14089081Y-12006596D01*
X14089081Y-12006596D02*
X14117652Y-12006596D01*
X14117652Y-12006596D02*
X14136700Y-12016120D01*
X14136700Y-12016120D02*
X14146224Y-12035167D01*
X14146224Y-12035167D02*
X14146224Y-12139929D01*
X14241462Y-12139929D02*
X14241462Y-12006596D01*
X14241462Y-12025643D02*
X14250985Y-12016120D01*
X14250985Y-12016120D02*
X14270033Y-12006596D01*
X14270033Y-12006596D02*
X14298605Y-12006596D01*
X14298605Y-12006596D02*
X14317652Y-12016120D01*
X14317652Y-12016120D02*
X14327176Y-12035167D01*
X14327176Y-12035167D02*
X14327176Y-12139929D01*
X14327176Y-12035167D02*
X14336700Y-12016120D01*
X14336700Y-12016120D02*
X14355747Y-12006596D01*
X14355747Y-12006596D02*
X14384319Y-12006596D01*
X14384319Y-12006596D02*
X14403366Y-12016120D01*
X14403366Y-12016120D02*
X14412890Y-12035167D01*
X14412890Y-12035167D02*
X14412890Y-12139929D01*
X14803366Y-11930405D02*
X14631938Y-12187548D01*
X15060509Y-11939929D02*
X15079557Y-11939929D01*
X15079557Y-11939929D02*
X15098605Y-11949453D01*
X15098605Y-11949453D02*
X15108128Y-11958977D01*
X15108128Y-11958977D02*
X15117652Y-11978024D01*
X15117652Y-11978024D02*
X15127176Y-12016120D01*
X15127176Y-12016120D02*
X15127176Y-12063739D01*
X15127176Y-12063739D02*
X15117652Y-12101834D01*
X15117652Y-12101834D02*
X15108128Y-12120881D01*
X15108128Y-12120881D02*
X15098605Y-12130405D01*
X15098605Y-12130405D02*
X15079557Y-12139929D01*
X15079557Y-12139929D02*
X15060509Y-12139929D01*
X15060509Y-12139929D02*
X15041462Y-12130405D01*
X15041462Y-12130405D02*
X15031938Y-12120881D01*
X15031938Y-12120881D02*
X15022414Y-12101834D01*
X15022414Y-12101834D02*
X15012890Y-12063739D01*
X15012890Y-12063739D02*
X15012890Y-12016120D01*
X15012890Y-12016120D02*
X15022414Y-11978024D01*
X15022414Y-11978024D02*
X15031938Y-11958977D01*
X15031938Y-11958977D02*
X15041462Y-11949453D01*
X15041462Y-11949453D02*
X15060509Y-11939929D01*
X15212890Y-12120881D02*
X15222414Y-12130405D01*
X15222414Y-12130405D02*
X15212890Y-12139929D01*
X15212890Y-12139929D02*
X15203367Y-12130405D01*
X15203367Y-12130405D02*
X15212890Y-12120881D01*
X15212890Y-12120881D02*
X15212890Y-12139929D01*
X15346224Y-11939929D02*
X15365271Y-11939929D01*
X15365271Y-11939929D02*
X15384319Y-11949453D01*
X15384319Y-11949453D02*
X15393843Y-11958977D01*
X15393843Y-11958977D02*
X15403367Y-11978024D01*
X15403367Y-11978024D02*
X15412890Y-12016120D01*
X15412890Y-12016120D02*
X15412890Y-12063739D01*
X15412890Y-12063739D02*
X15403367Y-12101834D01*
X15403367Y-12101834D02*
X15393843Y-12120881D01*
X15393843Y-12120881D02*
X15384319Y-12130405D01*
X15384319Y-12130405D02*
X15365271Y-12139929D01*
X15365271Y-12139929D02*
X15346224Y-12139929D01*
X15346224Y-12139929D02*
X15327176Y-12130405D01*
X15327176Y-12130405D02*
X15317652Y-12120881D01*
X15317652Y-12120881D02*
X15308128Y-12101834D01*
X15308128Y-12101834D02*
X15298605Y-12063739D01*
X15298605Y-12063739D02*
X15298605Y-12016120D01*
X15298605Y-12016120D02*
X15308128Y-11978024D01*
X15308128Y-11978024D02*
X15317652Y-11958977D01*
X15317652Y-11958977D02*
X15327176Y-11949453D01*
X15327176Y-11949453D02*
X15346224Y-11939929D01*
X15603367Y-12139929D02*
X15489081Y-12139929D01*
X15546224Y-12139929D02*
X15546224Y-11939929D01*
X15546224Y-11939929D02*
X15527176Y-11968501D01*
X15527176Y-11968501D02*
X15508128Y-11987548D01*
X15508128Y-11987548D02*
X15489081Y-11997072D01*
X15698605Y-12139929D02*
X15736700Y-12139929D01*
X15736700Y-12139929D02*
X15755748Y-12130405D01*
X15755748Y-12130405D02*
X15765271Y-12120881D01*
X15765271Y-12120881D02*
X15784319Y-12092310D01*
X15784319Y-12092310D02*
X15793843Y-12054215D01*
X15793843Y-12054215D02*
X15793843Y-11978024D01*
X15793843Y-11978024D02*
X15784319Y-11958977D01*
X15784319Y-11958977D02*
X15774795Y-11949453D01*
X15774795Y-11949453D02*
X15755748Y-11939929D01*
X15755748Y-11939929D02*
X15717652Y-11939929D01*
X15717652Y-11939929D02*
X15698605Y-11949453D01*
X15698605Y-11949453D02*
X15689081Y-11958977D01*
X15689081Y-11958977D02*
X15679557Y-11978024D01*
X15679557Y-11978024D02*
X15679557Y-12025643D01*
X15679557Y-12025643D02*
X15689081Y-12044691D01*
X15689081Y-12044691D02*
X15698605Y-12054215D01*
X15698605Y-12054215D02*
X15717652Y-12063739D01*
X15717652Y-12063739D02*
X15755748Y-12063739D01*
X15755748Y-12063739D02*
X15774795Y-12054215D01*
X15774795Y-12054215D02*
X15784319Y-12044691D01*
X15784319Y-12044691D02*
X15793843Y-12025643D01*
X15860509Y-11939929D02*
X15993843Y-11939929D01*
X15993843Y-11939929D02*
X15908128Y-12139929D01*
X16060509Y-11939929D02*
X16060509Y-11978024D01*
X16136700Y-11939929D02*
X16136700Y-11978024D01*
X16431938Y-12216120D02*
X16422414Y-12206596D01*
X16422414Y-12206596D02*
X16403367Y-12178024D01*
X16403367Y-12178024D02*
X16393843Y-12158977D01*
X16393843Y-12158977D02*
X16384319Y-12130405D01*
X16384319Y-12130405D02*
X16374795Y-12082786D01*
X16374795Y-12082786D02*
X16374795Y-12044691D01*
X16374795Y-12044691D02*
X16384319Y-11997072D01*
X16384319Y-11997072D02*
X16393843Y-11968501D01*
X16393843Y-11968501D02*
X16403367Y-11949453D01*
X16403367Y-11949453D02*
X16422414Y-11920881D01*
X16422414Y-11920881D02*
X16431938Y-11911358D01*
X16498605Y-11958977D02*
X16508129Y-11949453D01*
X16508129Y-11949453D02*
X16527176Y-11939929D01*
X16527176Y-11939929D02*
X16574795Y-11939929D01*
X16574795Y-11939929D02*
X16593843Y-11949453D01*
X16593843Y-11949453D02*
X16603367Y-11958977D01*
X16603367Y-11958977D02*
X16612890Y-11978024D01*
X16612890Y-11978024D02*
X16612890Y-11997072D01*
X16612890Y-11997072D02*
X16603367Y-12025643D01*
X16603367Y-12025643D02*
X16489081Y-12139929D01*
X16489081Y-12139929D02*
X16612890Y-12139929D01*
X16850986Y-12139929D02*
X16850986Y-11939929D01*
X16936700Y-12139929D02*
X16936700Y-12035167D01*
X16936700Y-12035167D02*
X16927176Y-12016120D01*
X16927176Y-12016120D02*
X16908129Y-12006596D01*
X16908129Y-12006596D02*
X16879557Y-12006596D01*
X16879557Y-12006596D02*
X16860510Y-12016120D01*
X16860510Y-12016120D02*
X16850986Y-12025643D01*
X17060510Y-12139929D02*
X17041462Y-12130405D01*
X17041462Y-12130405D02*
X17031938Y-12120881D01*
X17031938Y-12120881D02*
X17022414Y-12101834D01*
X17022414Y-12101834D02*
X17022414Y-12044691D01*
X17022414Y-12044691D02*
X17031938Y-12025643D01*
X17031938Y-12025643D02*
X17041462Y-12016120D01*
X17041462Y-12016120D02*
X17060510Y-12006596D01*
X17060510Y-12006596D02*
X17089081Y-12006596D01*
X17089081Y-12006596D02*
X17108129Y-12016120D01*
X17108129Y-12016120D02*
X17117653Y-12025643D01*
X17117653Y-12025643D02*
X17127176Y-12044691D01*
X17127176Y-12044691D02*
X17127176Y-12101834D01*
X17127176Y-12101834D02*
X17117653Y-12120881D01*
X17117653Y-12120881D02*
X17108129Y-12130405D01*
X17108129Y-12130405D02*
X17089081Y-12139929D01*
X17089081Y-12139929D02*
X17060510Y-12139929D01*
X17241462Y-12139929D02*
X17222414Y-12130405D01*
X17222414Y-12130405D02*
X17212891Y-12111358D01*
X17212891Y-12111358D02*
X17212891Y-11939929D01*
X17393843Y-12130405D02*
X17374795Y-12139929D01*
X17374795Y-12139929D02*
X17336700Y-12139929D01*
X17336700Y-12139929D02*
X17317653Y-12130405D01*
X17317653Y-12130405D02*
X17308129Y-12111358D01*
X17308129Y-12111358D02*
X17308129Y-12035167D01*
X17308129Y-12035167D02*
X17317653Y-12016120D01*
X17317653Y-12016120D02*
X17336700Y-12006596D01*
X17336700Y-12006596D02*
X17374795Y-12006596D01*
X17374795Y-12006596D02*
X17393843Y-12016120D01*
X17393843Y-12016120D02*
X17403367Y-12035167D01*
X17403367Y-12035167D02*
X17403367Y-12054215D01*
X17403367Y-12054215D02*
X17308129Y-12073262D01*
X17479557Y-12130405D02*
X17498605Y-12139929D01*
X17498605Y-12139929D02*
X17536700Y-12139929D01*
X17536700Y-12139929D02*
X17555748Y-12130405D01*
X17555748Y-12130405D02*
X17565272Y-12111358D01*
X17565272Y-12111358D02*
X17565272Y-12101834D01*
X17565272Y-12101834D02*
X17555748Y-12082786D01*
X17555748Y-12082786D02*
X17536700Y-12073262D01*
X17536700Y-12073262D02*
X17508129Y-12073262D01*
X17508129Y-12073262D02*
X17489081Y-12063739D01*
X17489081Y-12063739D02*
X17479557Y-12044691D01*
X17479557Y-12044691D02*
X17479557Y-12035167D01*
X17479557Y-12035167D02*
X17489081Y-12016120D01*
X17489081Y-12016120D02*
X17508129Y-12006596D01*
X17508129Y-12006596D02*
X17536700Y-12006596D01*
X17536700Y-12006596D02*
X17555748Y-12016120D01*
X17631938Y-12216120D02*
X17641462Y-12206596D01*
X17641462Y-12206596D02*
X17660510Y-12178024D01*
X17660510Y-12178024D02*
X17670034Y-12158977D01*
X17670034Y-12158977D02*
X17679557Y-12130405D01*
X17679557Y-12130405D02*
X17689081Y-12082786D01*
X17689081Y-12082786D02*
X17689081Y-12044691D01*
X17689081Y-12044691D02*
X17679557Y-11997072D01*
X17679557Y-11997072D02*
X17670034Y-11968501D01*
X17670034Y-11968501D02*
X17660510Y-11949453D01*
X17660510Y-11949453D02*
X17641462Y-11920881D01*
X17641462Y-11920881D02*
X17631938Y-11911358D01*
X17993843Y-12216120D02*
X17984319Y-12206596D01*
X17984319Y-12206596D02*
X17965272Y-12178024D01*
X17965272Y-12178024D02*
X17955748Y-12158977D01*
X17955748Y-12158977D02*
X17946224Y-12130405D01*
X17946224Y-12130405D02*
X17936700Y-12082786D01*
X17936700Y-12082786D02*
X17936700Y-12044691D01*
X17936700Y-12044691D02*
X17946224Y-11997072D01*
X17946224Y-11997072D02*
X17955748Y-11968501D01*
X17955748Y-11968501D02*
X17965272Y-11949453D01*
X17965272Y-11949453D02*
X17984319Y-11920881D01*
X17984319Y-11920881D02*
X17993843Y-11911358D01*
X18070034Y-12006596D02*
X18070034Y-12139929D01*
X18070034Y-12025643D02*
X18079557Y-12016120D01*
X18079557Y-12016120D02*
X18098605Y-12006596D01*
X18098605Y-12006596D02*
X18127176Y-12006596D01*
X18127176Y-12006596D02*
X18146224Y-12016120D01*
X18146224Y-12016120D02*
X18155748Y-12035167D01*
X18155748Y-12035167D02*
X18155748Y-12139929D01*
X18279557Y-12139929D02*
X18260510Y-12130405D01*
X18260510Y-12130405D02*
X18250986Y-12120881D01*
X18250986Y-12120881D02*
X18241462Y-12101834D01*
X18241462Y-12101834D02*
X18241462Y-12044691D01*
X18241462Y-12044691D02*
X18250986Y-12025643D01*
X18250986Y-12025643D02*
X18260510Y-12016120D01*
X18260510Y-12016120D02*
X18279557Y-12006596D01*
X18279557Y-12006596D02*
X18308129Y-12006596D01*
X18308129Y-12006596D02*
X18327176Y-12016120D01*
X18327176Y-12016120D02*
X18336700Y-12025643D01*
X18336700Y-12025643D02*
X18346224Y-12044691D01*
X18346224Y-12044691D02*
X18346224Y-12101834D01*
X18346224Y-12101834D02*
X18336700Y-12120881D01*
X18336700Y-12120881D02*
X18327176Y-12130405D01*
X18327176Y-12130405D02*
X18308129Y-12139929D01*
X18308129Y-12139929D02*
X18279557Y-12139929D01*
X18403367Y-12006596D02*
X18479557Y-12006596D01*
X18431938Y-11939929D02*
X18431938Y-12111358D01*
X18431938Y-12111358D02*
X18441462Y-12130405D01*
X18441462Y-12130405D02*
X18460510Y-12139929D01*
X18460510Y-12139929D02*
X18479557Y-12139929D01*
X18698605Y-12006596D02*
X18698605Y-12206596D01*
X18698605Y-12016120D02*
X18717653Y-12006596D01*
X18717653Y-12006596D02*
X18755748Y-12006596D01*
X18755748Y-12006596D02*
X18774796Y-12016120D01*
X18774796Y-12016120D02*
X18784319Y-12025643D01*
X18784319Y-12025643D02*
X18793843Y-12044691D01*
X18793843Y-12044691D02*
X18793843Y-12101834D01*
X18793843Y-12101834D02*
X18784319Y-12120881D01*
X18784319Y-12120881D02*
X18774796Y-12130405D01*
X18774796Y-12130405D02*
X18755748Y-12139929D01*
X18755748Y-12139929D02*
X18717653Y-12139929D01*
X18717653Y-12139929D02*
X18698605Y-12130405D01*
X18908129Y-12139929D02*
X18889081Y-12130405D01*
X18889081Y-12130405D02*
X18879557Y-12111358D01*
X18879557Y-12111358D02*
X18879557Y-11939929D01*
X19070034Y-12139929D02*
X19070034Y-12035167D01*
X19070034Y-12035167D02*
X19060510Y-12016120D01*
X19060510Y-12016120D02*
X19041462Y-12006596D01*
X19041462Y-12006596D02*
X19003367Y-12006596D01*
X19003367Y-12006596D02*
X18984319Y-12016120D01*
X19070034Y-12130405D02*
X19050986Y-12139929D01*
X19050986Y-12139929D02*
X19003367Y-12139929D01*
X19003367Y-12139929D02*
X18984319Y-12130405D01*
X18984319Y-12130405D02*
X18974796Y-12111358D01*
X18974796Y-12111358D02*
X18974796Y-12092310D01*
X18974796Y-12092310D02*
X18984319Y-12073262D01*
X18984319Y-12073262D02*
X19003367Y-12063739D01*
X19003367Y-12063739D02*
X19050986Y-12063739D01*
X19050986Y-12063739D02*
X19070034Y-12054215D01*
X19136700Y-12006596D02*
X19212891Y-12006596D01*
X19165272Y-11939929D02*
X19165272Y-12111358D01*
X19165272Y-12111358D02*
X19174796Y-12130405D01*
X19174796Y-12130405D02*
X19193843Y-12139929D01*
X19193843Y-12139929D02*
X19212891Y-12139929D01*
X19355748Y-12130405D02*
X19336700Y-12139929D01*
X19336700Y-12139929D02*
X19298605Y-12139929D01*
X19298605Y-12139929D02*
X19279557Y-12130405D01*
X19279557Y-12130405D02*
X19270034Y-12111358D01*
X19270034Y-12111358D02*
X19270034Y-12035167D01*
X19270034Y-12035167D02*
X19279557Y-12016120D01*
X19279557Y-12016120D02*
X19298605Y-12006596D01*
X19298605Y-12006596D02*
X19336700Y-12006596D01*
X19336700Y-12006596D02*
X19355748Y-12016120D01*
X19355748Y-12016120D02*
X19365272Y-12035167D01*
X19365272Y-12035167D02*
X19365272Y-12054215D01*
X19365272Y-12054215D02*
X19270034Y-12073262D01*
X19536700Y-12139929D02*
X19536700Y-11939929D01*
X19536700Y-12130405D02*
X19517653Y-12139929D01*
X19517653Y-12139929D02*
X19479557Y-12139929D01*
X19479557Y-12139929D02*
X19460510Y-12130405D01*
X19460510Y-12130405D02*
X19450986Y-12120881D01*
X19450986Y-12120881D02*
X19441462Y-12101834D01*
X19441462Y-12101834D02*
X19441462Y-12044691D01*
X19441462Y-12044691D02*
X19450986Y-12025643D01*
X19450986Y-12025643D02*
X19460510Y-12016120D01*
X19460510Y-12016120D02*
X19479557Y-12006596D01*
X19479557Y-12006596D02*
X19517653Y-12006596D01*
X19517653Y-12006596D02*
X19536700Y-12016120D01*
X19612891Y-12216120D02*
X19622415Y-12206596D01*
X19622415Y-12206596D02*
X19641462Y-12178024D01*
X19641462Y-12178024D02*
X19650986Y-12158977D01*
X19650986Y-12158977D02*
X19660510Y-12130405D01*
X19660510Y-12130405D02*
X19670034Y-12082786D01*
X19670034Y-12082786D02*
X19670034Y-12044691D01*
X19670034Y-12044691D02*
X19660510Y-11997072D01*
X19660510Y-11997072D02*
X19650986Y-11968501D01*
X19650986Y-11968501D02*
X19641462Y-11949453D01*
X19641462Y-11949453D02*
X19622415Y-11920881D01*
X19622415Y-11920881D02*
X19612891Y-11911358D01*
D12*
X12856875Y-12312445D02*
G75*
G02*
X12766875Y-12312445I-45000J0D01*
G01*
X12766875Y-12312445D02*
G75*
G02*
X12856875Y-12312445I45000J0D01*
G01*
D11*
X13155747Y-12203929D02*
X13174795Y-12203929D01*
X13174795Y-12203929D02*
X13193843Y-12213453D01*
X13193843Y-12213453D02*
X13203366Y-12222977D01*
X13203366Y-12222977D02*
X13212890Y-12242024D01*
X13212890Y-12242024D02*
X13222414Y-12280120D01*
X13222414Y-12280120D02*
X13222414Y-12327739D01*
X13222414Y-12327739D02*
X13212890Y-12365834D01*
X13212890Y-12365834D02*
X13203366Y-12384881D01*
X13203366Y-12384881D02*
X13193843Y-12394405D01*
X13193843Y-12394405D02*
X13174795Y-12403929D01*
X13174795Y-12403929D02*
X13155747Y-12403929D01*
X13155747Y-12403929D02*
X13136700Y-12394405D01*
X13136700Y-12394405D02*
X13127176Y-12384881D01*
X13127176Y-12384881D02*
X13117652Y-12365834D01*
X13117652Y-12365834D02*
X13108128Y-12327739D01*
X13108128Y-12327739D02*
X13108128Y-12280120D01*
X13108128Y-12280120D02*
X13117652Y-12242024D01*
X13117652Y-12242024D02*
X13127176Y-12222977D01*
X13127176Y-12222977D02*
X13136700Y-12213453D01*
X13136700Y-12213453D02*
X13155747Y-12203929D01*
X13308128Y-12384881D02*
X13317652Y-12394405D01*
X13317652Y-12394405D02*
X13308128Y-12403929D01*
X13308128Y-12403929D02*
X13298604Y-12394405D01*
X13298604Y-12394405D02*
X13308128Y-12384881D01*
X13308128Y-12384881D02*
X13308128Y-12403929D01*
X13412890Y-12403929D02*
X13450985Y-12403929D01*
X13450985Y-12403929D02*
X13470033Y-12394405D01*
X13470033Y-12394405D02*
X13479557Y-12384881D01*
X13479557Y-12384881D02*
X13498604Y-12356310D01*
X13498604Y-12356310D02*
X13508128Y-12318215D01*
X13508128Y-12318215D02*
X13508128Y-12242024D01*
X13508128Y-12242024D02*
X13498604Y-12222977D01*
X13498604Y-12222977D02*
X13489081Y-12213453D01*
X13489081Y-12213453D02*
X13470033Y-12203929D01*
X13470033Y-12203929D02*
X13431938Y-12203929D01*
X13431938Y-12203929D02*
X13412890Y-12213453D01*
X13412890Y-12213453D02*
X13403366Y-12222977D01*
X13403366Y-12222977D02*
X13393843Y-12242024D01*
X13393843Y-12242024D02*
X13393843Y-12289643D01*
X13393843Y-12289643D02*
X13403366Y-12308691D01*
X13403366Y-12308691D02*
X13412890Y-12318215D01*
X13412890Y-12318215D02*
X13431938Y-12327739D01*
X13431938Y-12327739D02*
X13470033Y-12327739D01*
X13470033Y-12327739D02*
X13489081Y-12318215D01*
X13489081Y-12318215D02*
X13498604Y-12308691D01*
X13498604Y-12308691D02*
X13508128Y-12289643D01*
X13631938Y-12203929D02*
X13650985Y-12203929D01*
X13650985Y-12203929D02*
X13670033Y-12213453D01*
X13670033Y-12213453D02*
X13679557Y-12222977D01*
X13679557Y-12222977D02*
X13689081Y-12242024D01*
X13689081Y-12242024D02*
X13698604Y-12280120D01*
X13698604Y-12280120D02*
X13698604Y-12327739D01*
X13698604Y-12327739D02*
X13689081Y-12365834D01*
X13689081Y-12365834D02*
X13679557Y-12384881D01*
X13679557Y-12384881D02*
X13670033Y-12394405D01*
X13670033Y-12394405D02*
X13650985Y-12403929D01*
X13650985Y-12403929D02*
X13631938Y-12403929D01*
X13631938Y-12403929D02*
X13612890Y-12394405D01*
X13612890Y-12394405D02*
X13603366Y-12384881D01*
X13603366Y-12384881D02*
X13593843Y-12365834D01*
X13593843Y-12365834D02*
X13584319Y-12327739D01*
X13584319Y-12327739D02*
X13584319Y-12280120D01*
X13584319Y-12280120D02*
X13593843Y-12242024D01*
X13593843Y-12242024D02*
X13603366Y-12222977D01*
X13603366Y-12222977D02*
X13612890Y-12213453D01*
X13612890Y-12213453D02*
X13631938Y-12203929D01*
X13822414Y-12203929D02*
X13841462Y-12203929D01*
X13841462Y-12203929D02*
X13860509Y-12213453D01*
X13860509Y-12213453D02*
X13870033Y-12222977D01*
X13870033Y-12222977D02*
X13879557Y-12242024D01*
X13879557Y-12242024D02*
X13889081Y-12280120D01*
X13889081Y-12280120D02*
X13889081Y-12327739D01*
X13889081Y-12327739D02*
X13879557Y-12365834D01*
X13879557Y-12365834D02*
X13870033Y-12384881D01*
X13870033Y-12384881D02*
X13860509Y-12394405D01*
X13860509Y-12394405D02*
X13841462Y-12403929D01*
X13841462Y-12403929D02*
X13822414Y-12403929D01*
X13822414Y-12403929D02*
X13803366Y-12394405D01*
X13803366Y-12394405D02*
X13793843Y-12384881D01*
X13793843Y-12384881D02*
X13784319Y-12365834D01*
X13784319Y-12365834D02*
X13774795Y-12327739D01*
X13774795Y-12327739D02*
X13774795Y-12280120D01*
X13774795Y-12280120D02*
X13784319Y-12242024D01*
X13784319Y-12242024D02*
X13793843Y-12222977D01*
X13793843Y-12222977D02*
X13803366Y-12213453D01*
X13803366Y-12213453D02*
X13822414Y-12203929D01*
X13974795Y-12403929D02*
X13974795Y-12270596D01*
X13974795Y-12289643D02*
X13984319Y-12280120D01*
X13984319Y-12280120D02*
X14003366Y-12270596D01*
X14003366Y-12270596D02*
X14031938Y-12270596D01*
X14031938Y-12270596D02*
X14050985Y-12280120D01*
X14050985Y-12280120D02*
X14060509Y-12299167D01*
X14060509Y-12299167D02*
X14060509Y-12403929D01*
X14060509Y-12299167D02*
X14070033Y-12280120D01*
X14070033Y-12280120D02*
X14089081Y-12270596D01*
X14089081Y-12270596D02*
X14117652Y-12270596D01*
X14117652Y-12270596D02*
X14136700Y-12280120D01*
X14136700Y-12280120D02*
X14146224Y-12299167D01*
X14146224Y-12299167D02*
X14146224Y-12403929D01*
X14241462Y-12403929D02*
X14241462Y-12270596D01*
X14241462Y-12289643D02*
X14250985Y-12280120D01*
X14250985Y-12280120D02*
X14270033Y-12270596D01*
X14270033Y-12270596D02*
X14298605Y-12270596D01*
X14298605Y-12270596D02*
X14317652Y-12280120D01*
X14317652Y-12280120D02*
X14327176Y-12299167D01*
X14327176Y-12299167D02*
X14327176Y-12403929D01*
X14327176Y-12299167D02*
X14336700Y-12280120D01*
X14336700Y-12280120D02*
X14355747Y-12270596D01*
X14355747Y-12270596D02*
X14384319Y-12270596D01*
X14384319Y-12270596D02*
X14403366Y-12280120D01*
X14403366Y-12280120D02*
X14412890Y-12299167D01*
X14412890Y-12299167D02*
X14412890Y-12403929D01*
X14803366Y-12194405D02*
X14631938Y-12451548D01*
X15060509Y-12203929D02*
X15079557Y-12203929D01*
X15079557Y-12203929D02*
X15098605Y-12213453D01*
X15098605Y-12213453D02*
X15108128Y-12222977D01*
X15108128Y-12222977D02*
X15117652Y-12242024D01*
X15117652Y-12242024D02*
X15127176Y-12280120D01*
X15127176Y-12280120D02*
X15127176Y-12327739D01*
X15127176Y-12327739D02*
X15117652Y-12365834D01*
X15117652Y-12365834D02*
X15108128Y-12384881D01*
X15108128Y-12384881D02*
X15098605Y-12394405D01*
X15098605Y-12394405D02*
X15079557Y-12403929D01*
X15079557Y-12403929D02*
X15060509Y-12403929D01*
X15060509Y-12403929D02*
X15041462Y-12394405D01*
X15041462Y-12394405D02*
X15031938Y-12384881D01*
X15031938Y-12384881D02*
X15022414Y-12365834D01*
X15022414Y-12365834D02*
X15012890Y-12327739D01*
X15012890Y-12327739D02*
X15012890Y-12280120D01*
X15012890Y-12280120D02*
X15022414Y-12242024D01*
X15022414Y-12242024D02*
X15031938Y-12222977D01*
X15031938Y-12222977D02*
X15041462Y-12213453D01*
X15041462Y-12213453D02*
X15060509Y-12203929D01*
X15212890Y-12384881D02*
X15222414Y-12394405D01*
X15222414Y-12394405D02*
X15212890Y-12403929D01*
X15212890Y-12403929D02*
X15203367Y-12394405D01*
X15203367Y-12394405D02*
X15212890Y-12384881D01*
X15212890Y-12384881D02*
X15212890Y-12403929D01*
X15346224Y-12203929D02*
X15365271Y-12203929D01*
X15365271Y-12203929D02*
X15384319Y-12213453D01*
X15384319Y-12213453D02*
X15393843Y-12222977D01*
X15393843Y-12222977D02*
X15403367Y-12242024D01*
X15403367Y-12242024D02*
X15412890Y-12280120D01*
X15412890Y-12280120D02*
X15412890Y-12327739D01*
X15412890Y-12327739D02*
X15403367Y-12365834D01*
X15403367Y-12365834D02*
X15393843Y-12384881D01*
X15393843Y-12384881D02*
X15384319Y-12394405D01*
X15384319Y-12394405D02*
X15365271Y-12403929D01*
X15365271Y-12403929D02*
X15346224Y-12403929D01*
X15346224Y-12403929D02*
X15327176Y-12394405D01*
X15327176Y-12394405D02*
X15317652Y-12384881D01*
X15317652Y-12384881D02*
X15308128Y-12365834D01*
X15308128Y-12365834D02*
X15298605Y-12327739D01*
X15298605Y-12327739D02*
X15298605Y-12280120D01*
X15298605Y-12280120D02*
X15308128Y-12242024D01*
X15308128Y-12242024D02*
X15317652Y-12222977D01*
X15317652Y-12222977D02*
X15327176Y-12213453D01*
X15327176Y-12213453D02*
X15346224Y-12203929D01*
X15479557Y-12203929D02*
X15603367Y-12203929D01*
X15603367Y-12203929D02*
X15536700Y-12280120D01*
X15536700Y-12280120D02*
X15565271Y-12280120D01*
X15565271Y-12280120D02*
X15584319Y-12289643D01*
X15584319Y-12289643D02*
X15593843Y-12299167D01*
X15593843Y-12299167D02*
X15603367Y-12318215D01*
X15603367Y-12318215D02*
X15603367Y-12365834D01*
X15603367Y-12365834D02*
X15593843Y-12384881D01*
X15593843Y-12384881D02*
X15584319Y-12394405D01*
X15584319Y-12394405D02*
X15565271Y-12403929D01*
X15565271Y-12403929D02*
X15508128Y-12403929D01*
X15508128Y-12403929D02*
X15489081Y-12394405D01*
X15489081Y-12394405D02*
X15479557Y-12384881D01*
X15784319Y-12203929D02*
X15689081Y-12203929D01*
X15689081Y-12203929D02*
X15679557Y-12299167D01*
X15679557Y-12299167D02*
X15689081Y-12289643D01*
X15689081Y-12289643D02*
X15708128Y-12280120D01*
X15708128Y-12280120D02*
X15755748Y-12280120D01*
X15755748Y-12280120D02*
X15774795Y-12289643D01*
X15774795Y-12289643D02*
X15784319Y-12299167D01*
X15784319Y-12299167D02*
X15793843Y-12318215D01*
X15793843Y-12318215D02*
X15793843Y-12365834D01*
X15793843Y-12365834D02*
X15784319Y-12384881D01*
X15784319Y-12384881D02*
X15774795Y-12394405D01*
X15774795Y-12394405D02*
X15755748Y-12403929D01*
X15755748Y-12403929D02*
X15708128Y-12403929D01*
X15708128Y-12403929D02*
X15689081Y-12394405D01*
X15689081Y-12394405D02*
X15679557Y-12384881D01*
X15965271Y-12270596D02*
X15965271Y-12403929D01*
X15917652Y-12194405D02*
X15870033Y-12337262D01*
X15870033Y-12337262D02*
X15993843Y-12337262D01*
X16060509Y-12203929D02*
X16060509Y-12242024D01*
X16136700Y-12203929D02*
X16136700Y-12242024D01*
X16431938Y-12480120D02*
X16422414Y-12470596D01*
X16422414Y-12470596D02*
X16403367Y-12442024D01*
X16403367Y-12442024D02*
X16393843Y-12422977D01*
X16393843Y-12422977D02*
X16384319Y-12394405D01*
X16384319Y-12394405D02*
X16374795Y-12346786D01*
X16374795Y-12346786D02*
X16374795Y-12308691D01*
X16374795Y-12308691D02*
X16384319Y-12261072D01*
X16384319Y-12261072D02*
X16393843Y-12232501D01*
X16393843Y-12232501D02*
X16403367Y-12213453D01*
X16403367Y-12213453D02*
X16422414Y-12184881D01*
X16422414Y-12184881D02*
X16431938Y-12175358D01*
X16498605Y-12222977D02*
X16508129Y-12213453D01*
X16508129Y-12213453D02*
X16527176Y-12203929D01*
X16527176Y-12203929D02*
X16574795Y-12203929D01*
X16574795Y-12203929D02*
X16593843Y-12213453D01*
X16593843Y-12213453D02*
X16603367Y-12222977D01*
X16603367Y-12222977D02*
X16612890Y-12242024D01*
X16612890Y-12242024D02*
X16612890Y-12261072D01*
X16612890Y-12261072D02*
X16603367Y-12289643D01*
X16603367Y-12289643D02*
X16489081Y-12403929D01*
X16489081Y-12403929D02*
X16612890Y-12403929D01*
X16850986Y-12403929D02*
X16850986Y-12203929D01*
X16936700Y-12403929D02*
X16936700Y-12299167D01*
X16936700Y-12299167D02*
X16927176Y-12280120D01*
X16927176Y-12280120D02*
X16908129Y-12270596D01*
X16908129Y-12270596D02*
X16879557Y-12270596D01*
X16879557Y-12270596D02*
X16860510Y-12280120D01*
X16860510Y-12280120D02*
X16850986Y-12289643D01*
X17060510Y-12403929D02*
X17041462Y-12394405D01*
X17041462Y-12394405D02*
X17031938Y-12384881D01*
X17031938Y-12384881D02*
X17022414Y-12365834D01*
X17022414Y-12365834D02*
X17022414Y-12308691D01*
X17022414Y-12308691D02*
X17031938Y-12289643D01*
X17031938Y-12289643D02*
X17041462Y-12280120D01*
X17041462Y-12280120D02*
X17060510Y-12270596D01*
X17060510Y-12270596D02*
X17089081Y-12270596D01*
X17089081Y-12270596D02*
X17108129Y-12280120D01*
X17108129Y-12280120D02*
X17117653Y-12289643D01*
X17117653Y-12289643D02*
X17127176Y-12308691D01*
X17127176Y-12308691D02*
X17127176Y-12365834D01*
X17127176Y-12365834D02*
X17117653Y-12384881D01*
X17117653Y-12384881D02*
X17108129Y-12394405D01*
X17108129Y-12394405D02*
X17089081Y-12403929D01*
X17089081Y-12403929D02*
X17060510Y-12403929D01*
X17241462Y-12403929D02*
X17222414Y-12394405D01*
X17222414Y-12394405D02*
X17212891Y-12375358D01*
X17212891Y-12375358D02*
X17212891Y-12203929D01*
X17393843Y-12394405D02*
X17374795Y-12403929D01*
X17374795Y-12403929D02*
X17336700Y-12403929D01*
X17336700Y-12403929D02*
X17317653Y-12394405D01*
X17317653Y-12394405D02*
X17308129Y-12375358D01*
X17308129Y-12375358D02*
X17308129Y-12299167D01*
X17308129Y-12299167D02*
X17317653Y-12280120D01*
X17317653Y-12280120D02*
X17336700Y-12270596D01*
X17336700Y-12270596D02*
X17374795Y-12270596D01*
X17374795Y-12270596D02*
X17393843Y-12280120D01*
X17393843Y-12280120D02*
X17403367Y-12299167D01*
X17403367Y-12299167D02*
X17403367Y-12318215D01*
X17403367Y-12318215D02*
X17308129Y-12337262D01*
X17479557Y-12394405D02*
X17498605Y-12403929D01*
X17498605Y-12403929D02*
X17536700Y-12403929D01*
X17536700Y-12403929D02*
X17555748Y-12394405D01*
X17555748Y-12394405D02*
X17565272Y-12375358D01*
X17565272Y-12375358D02*
X17565272Y-12365834D01*
X17565272Y-12365834D02*
X17555748Y-12346786D01*
X17555748Y-12346786D02*
X17536700Y-12337262D01*
X17536700Y-12337262D02*
X17508129Y-12337262D01*
X17508129Y-12337262D02*
X17489081Y-12327739D01*
X17489081Y-12327739D02*
X17479557Y-12308691D01*
X17479557Y-12308691D02*
X17479557Y-12299167D01*
X17479557Y-12299167D02*
X17489081Y-12280120D01*
X17489081Y-12280120D02*
X17508129Y-12270596D01*
X17508129Y-12270596D02*
X17536700Y-12270596D01*
X17536700Y-12270596D02*
X17555748Y-12280120D01*
X17631938Y-12480120D02*
X17641462Y-12470596D01*
X17641462Y-12470596D02*
X17660510Y-12442024D01*
X17660510Y-12442024D02*
X17670034Y-12422977D01*
X17670034Y-12422977D02*
X17679557Y-12394405D01*
X17679557Y-12394405D02*
X17689081Y-12346786D01*
X17689081Y-12346786D02*
X17689081Y-12308691D01*
X17689081Y-12308691D02*
X17679557Y-12261072D01*
X17679557Y-12261072D02*
X17670034Y-12232501D01*
X17670034Y-12232501D02*
X17660510Y-12213453D01*
X17660510Y-12213453D02*
X17641462Y-12184881D01*
X17641462Y-12184881D02*
X17631938Y-12175358D01*
X17993843Y-12480120D02*
X17984319Y-12470596D01*
X17984319Y-12470596D02*
X17965272Y-12442024D01*
X17965272Y-12442024D02*
X17955748Y-12422977D01*
X17955748Y-12422977D02*
X17946224Y-12394405D01*
X17946224Y-12394405D02*
X17936700Y-12346786D01*
X17936700Y-12346786D02*
X17936700Y-12308691D01*
X17936700Y-12308691D02*
X17946224Y-12261072D01*
X17946224Y-12261072D02*
X17955748Y-12232501D01*
X17955748Y-12232501D02*
X17965272Y-12213453D01*
X17965272Y-12213453D02*
X17984319Y-12184881D01*
X17984319Y-12184881D02*
X17993843Y-12175358D01*
X18070034Y-12270596D02*
X18070034Y-12403929D01*
X18070034Y-12289643D02*
X18079557Y-12280120D01*
X18079557Y-12280120D02*
X18098605Y-12270596D01*
X18098605Y-12270596D02*
X18127176Y-12270596D01*
X18127176Y-12270596D02*
X18146224Y-12280120D01*
X18146224Y-12280120D02*
X18155748Y-12299167D01*
X18155748Y-12299167D02*
X18155748Y-12403929D01*
X18279557Y-12403929D02*
X18260510Y-12394405D01*
X18260510Y-12394405D02*
X18250986Y-12384881D01*
X18250986Y-12384881D02*
X18241462Y-12365834D01*
X18241462Y-12365834D02*
X18241462Y-12308691D01*
X18241462Y-12308691D02*
X18250986Y-12289643D01*
X18250986Y-12289643D02*
X18260510Y-12280120D01*
X18260510Y-12280120D02*
X18279557Y-12270596D01*
X18279557Y-12270596D02*
X18308129Y-12270596D01*
X18308129Y-12270596D02*
X18327176Y-12280120D01*
X18327176Y-12280120D02*
X18336700Y-12289643D01*
X18336700Y-12289643D02*
X18346224Y-12308691D01*
X18346224Y-12308691D02*
X18346224Y-12365834D01*
X18346224Y-12365834D02*
X18336700Y-12384881D01*
X18336700Y-12384881D02*
X18327176Y-12394405D01*
X18327176Y-12394405D02*
X18308129Y-12403929D01*
X18308129Y-12403929D02*
X18279557Y-12403929D01*
X18403367Y-12270596D02*
X18479557Y-12270596D01*
X18431938Y-12203929D02*
X18431938Y-12375358D01*
X18431938Y-12375358D02*
X18441462Y-12394405D01*
X18441462Y-12394405D02*
X18460510Y-12403929D01*
X18460510Y-12403929D02*
X18479557Y-12403929D01*
X18698605Y-12270596D02*
X18698605Y-12470596D01*
X18698605Y-12280120D02*
X18717653Y-12270596D01*
X18717653Y-12270596D02*
X18755748Y-12270596D01*
X18755748Y-12270596D02*
X18774796Y-12280120D01*
X18774796Y-12280120D02*
X18784319Y-12289643D01*
X18784319Y-12289643D02*
X18793843Y-12308691D01*
X18793843Y-12308691D02*
X18793843Y-12365834D01*
X18793843Y-12365834D02*
X18784319Y-12384881D01*
X18784319Y-12384881D02*
X18774796Y-12394405D01*
X18774796Y-12394405D02*
X18755748Y-12403929D01*
X18755748Y-12403929D02*
X18717653Y-12403929D01*
X18717653Y-12403929D02*
X18698605Y-12394405D01*
X18908129Y-12403929D02*
X18889081Y-12394405D01*
X18889081Y-12394405D02*
X18879557Y-12375358D01*
X18879557Y-12375358D02*
X18879557Y-12203929D01*
X19070034Y-12403929D02*
X19070034Y-12299167D01*
X19070034Y-12299167D02*
X19060510Y-12280120D01*
X19060510Y-12280120D02*
X19041462Y-12270596D01*
X19041462Y-12270596D02*
X19003367Y-12270596D01*
X19003367Y-12270596D02*
X18984319Y-12280120D01*
X19070034Y-12394405D02*
X19050986Y-12403929D01*
X19050986Y-12403929D02*
X19003367Y-12403929D01*
X19003367Y-12403929D02*
X18984319Y-12394405D01*
X18984319Y-12394405D02*
X18974796Y-12375358D01*
X18974796Y-12375358D02*
X18974796Y-12356310D01*
X18974796Y-12356310D02*
X18984319Y-12337262D01*
X18984319Y-12337262D02*
X19003367Y-12327739D01*
X19003367Y-12327739D02*
X19050986Y-12327739D01*
X19050986Y-12327739D02*
X19070034Y-12318215D01*
X19136700Y-12270596D02*
X19212891Y-12270596D01*
X19165272Y-12203929D02*
X19165272Y-12375358D01*
X19165272Y-12375358D02*
X19174796Y-12394405D01*
X19174796Y-12394405D02*
X19193843Y-12403929D01*
X19193843Y-12403929D02*
X19212891Y-12403929D01*
X19355748Y-12394405D02*
X19336700Y-12403929D01*
X19336700Y-12403929D02*
X19298605Y-12403929D01*
X19298605Y-12403929D02*
X19279557Y-12394405D01*
X19279557Y-12394405D02*
X19270034Y-12375358D01*
X19270034Y-12375358D02*
X19270034Y-12299167D01*
X19270034Y-12299167D02*
X19279557Y-12280120D01*
X19279557Y-12280120D02*
X19298605Y-12270596D01*
X19298605Y-12270596D02*
X19336700Y-12270596D01*
X19336700Y-12270596D02*
X19355748Y-12280120D01*
X19355748Y-12280120D02*
X19365272Y-12299167D01*
X19365272Y-12299167D02*
X19365272Y-12318215D01*
X19365272Y-12318215D02*
X19270034Y-12337262D01*
X19536700Y-12403929D02*
X19536700Y-12203929D01*
X19536700Y-12394405D02*
X19517653Y-12403929D01*
X19517653Y-12403929D02*
X19479557Y-12403929D01*
X19479557Y-12403929D02*
X19460510Y-12394405D01*
X19460510Y-12394405D02*
X19450986Y-12384881D01*
X19450986Y-12384881D02*
X19441462Y-12365834D01*
X19441462Y-12365834D02*
X19441462Y-12308691D01*
X19441462Y-12308691D02*
X19450986Y-12289643D01*
X19450986Y-12289643D02*
X19460510Y-12280120D01*
X19460510Y-12280120D02*
X19479557Y-12270596D01*
X19479557Y-12270596D02*
X19517653Y-12270596D01*
X19517653Y-12270596D02*
X19536700Y-12280120D01*
X19612891Y-12480120D02*
X19622415Y-12470596D01*
X19622415Y-12470596D02*
X19641462Y-12442024D01*
X19641462Y-12442024D02*
X19650986Y-12422977D01*
X19650986Y-12422977D02*
X19660510Y-12394405D01*
X19660510Y-12394405D02*
X19670034Y-12346786D01*
X19670034Y-12346786D02*
X19670034Y-12308691D01*
X19670034Y-12308691D02*
X19660510Y-12261072D01*
X19660510Y-12261072D02*
X19650986Y-12232501D01*
X19650986Y-12232501D02*
X19641462Y-12213453D01*
X19641462Y-12213453D02*
X19622415Y-12184881D01*
X19622415Y-12184881D02*
X19612891Y-12175358D01*
M02*
