M48
; DRILL file {KiCad 8.0.1} date 2024-04-22T06:17:10+0300
; FORMAT={-:-/ absolute / metric / decimal}
; #@! TF.CreationDate,2024-04-22T06:17:10+03:00
; #@! TF.GenerationSoftware,Kicad,Pcbnew,8.0.1
; #@! TF.FileFunction,Plated,1,4,PTH
FMAT,2
METRIC
; #@! TA.AperFunction,Plated,PTH,ViaDrill
T1C0.400
; #@! TA.AperFunction,Plated,PTH,ComponentDrill
T2C0.450
; #@! TA.AperFunction,Plated,PTH,ComponentDrill
T3C0.500
%
G90
G05
T1
X130.094Y-89.818
X130.094Y-91.118
X130.094Y-97.418
X130.094Y-98.718
X130.094Y-100.514
X130.094Y-101.814
X130.094Y-111.864
X130.094Y-113.164
X131.194Y-90.468
X131.194Y-98.068
X131.194Y-101.164
X131.194Y-112.514
X132.294Y-89.818
X132.294Y-91.118
X132.294Y-97.418
X132.294Y-98.718
X132.294Y-100.514
X132.294Y-101.814
X132.294Y-111.864
X132.294Y-113.164
X134.094Y-93.018
X134.094Y-95.518
X134.094Y-103.714
X134.094Y-104.964
X134.094Y-108.714
X134.094Y-109.964
X136.051Y-106.204
X136.096Y-103.397
X136.102Y-89.648
X136.551Y-113.231
X137.201Y-107.474
X137.649Y-95.214
X137.652Y-89.648
X138.851Y-99.547
X138.991Y-91.535
X139.147Y-103.393
X139.486Y-92.422
X139.866Y-112.741
X139.926Y-95.27
X140.519Y-110.301
X140.601Y-92.724
X140.601Y-94.274
X140.731Y-96.702
X140.731Y-100.089
X140.807Y-103.379
X140.881Y-90.74
X141.831Y-94.384
X142.206Y-110.312
X142.581Y-103.254
X142.829Y-94.435
X142.971Y-97.684
X143.15Y-112.748
X143.532Y-106.064
X143.532Y-107.614
X143.573Y-109.041
X143.573Y-110.691
X143.621Y-95.419
X143.831Y-102.194
X143.891Y-90.644
X145.039Y-107.126
X145.039Y-108.776
X145.056Y-104.123
X145.056Y-105.773
X145.061Y-99.089
X145.061Y-100.639
X145.404Y-94.231
X146.45Y-112.766
X146.651Y-90.995
X146.651Y-92.545
X146.73Y-105.977
X146.73Y-110.501
X146.731Y-107.539
X147.059Y-95.507
X147.059Y-97.057
X148.131Y-90.909
X148.131Y-93.119
X148.18Y-101.684
X148.223Y-98.709
X148.421Y-103.884
X148.701Y-91.914
X149.711Y-98.784
X149.821Y-110.074
X150.001Y-103.074
X150.109Y-104.109
X150.383Y-90.91
X150.631Y-99.354
X150.777Y-111.53
X151.192Y-104.159
X151.561Y-100.614
X151.685Y-96.179
X151.765Y-111.879
X151.781Y-98.954
X151.782Y-108.894
X152.032Y-103.27
X152.421Y-93.774
X152.661Y-100.618
X152.841Y-103.894
X152.861Y-98.674
X153.065Y-111.909
X153.133Y-110.352
X153.192Y-96.176
X153.382Y-108.894
X153.742Y-100.534
X153.762Y-102.936
X154.421Y-106.954
X154.514Y-108.824
X154.823Y-105.939
X155.289Y-113.288
X155.41Y-96.016
X155.431Y-90.909
X155.431Y-93.119
X156.114Y-108.596
X156.839Y-113.288
X156.968Y-90.251
X157.151Y-94.329
X157.325Y-105.213
X157.611Y-102.765
X157.689Y-109.236
X158.3Y-97.417
X158.3Y-98.967
X158.654Y-110.793
X158.791Y-91.334
X158.879Y-113.394
X158.921Y-105.749
X158.938Y-109.709
X159.447Y-94.322
X160.339Y-111.844
X160.339Y-113.394
X160.351Y-98.665
X160.488Y-109.709
X160.651Y-103.29
X161.931Y-111.289
X162.331Y-97.039
X162.551Y-107.574
X162.551Y-99.968
X162.577Y-104.592
X162.586Y-95.604
X164.191Y-106.214
X164.351Y-92.463
X164.591Y-103.714
X164.591Y-108.714
X164.591Y-109.964
X164.991Y-107.464
X164.991Y-104.964
X166.391Y-100.514
X166.391Y-101.814
X166.391Y-111.864
X166.391Y-113.164
X167.491Y-101.164
X167.491Y-112.514
X168.591Y-100.514
X168.591Y-101.814
X168.591Y-111.864
X168.591Y-113.164
T2
X163.876Y-90.365G85X164.426Y-90.365
G05
X163.876Y-97.565G85X164.426Y-97.565
G05
T3
X167.151Y-90.365G85X168.051Y-90.365
G05
X167.151Y-97.565G85X168.051Y-97.565
G05
M30
