%TF.GenerationSoftware,KiCad,Pcbnew,8.0.1*%
%TF.CreationDate,2024-04-22T06:17:10+03:00*%
%TF.ProjectId,IMU module,494d5520-6d6f-4647-956c-652e6b696361,rev?*%
%TF.SameCoordinates,Original*%
%TF.FileFunction,Drillmap*%
%TF.FilePolarity,Positive*%
%FSLAX45Y45*%
G04 Gerber Fmt 4.5, Leading zero omitted, Abs format (unit mm)*
G04 Created by KiCad (PCBNEW 8.0.1) date 2024-04-22 06:17:10*
%MOMM*%
%LPD*%
G01*
G04 APERTURE LIST*
%ADD10C,0.050000*%
%ADD11C,0.200000*%
%ADD12C,0.100000*%
G04 APERTURE END LIST*
D10*
X12859375Y-9026845D02*
G75*
G02*
X12994375Y-8891845I135005J-5D01*
G01*
X17009075Y-9026845D02*
X17009075Y-11270945D01*
X12994375Y-11405945D02*
G75*
G02*
X12859385Y-11270945I5J134995D01*
G01*
X16874075Y-11405945D02*
X12994375Y-11405945D01*
X16874075Y-8891845D02*
G75*
G02*
X17009085Y-9026845I5J-135005D01*
G01*
X17009075Y-11270945D02*
G75*
G02*
X16874075Y-11405945I-134995J-5D01*
G01*
X12994375Y-8891845D02*
X16874075Y-8891845D01*
X12859375Y-9026845D02*
X12859375Y-11270945D01*
D11*
D12*
X12989375Y-8961845D02*
X13029375Y-9001845D01*
X13029375Y-8961845D02*
X12989375Y-9001845D01*
X12989375Y-9091845D02*
X13029375Y-9131845D01*
X13029375Y-9091845D02*
X12989375Y-9131845D01*
X12989375Y-9721845D02*
X13029375Y-9761845D01*
X13029375Y-9721845D02*
X12989375Y-9761845D01*
X12989375Y-9851845D02*
X13029375Y-9891845D01*
X13029375Y-9851845D02*
X12989375Y-9891845D01*
X12989375Y-10031445D02*
X13029375Y-10071445D01*
X13029375Y-10031445D02*
X12989375Y-10071445D01*
X12989375Y-10161445D02*
X13029375Y-10201445D01*
X13029375Y-10161445D02*
X12989375Y-10201445D01*
X12989375Y-11166445D02*
X13029375Y-11206445D01*
X13029375Y-11166445D02*
X12989375Y-11206445D01*
X12989375Y-11296445D02*
X13029375Y-11336445D01*
X13029375Y-11296445D02*
X12989375Y-11336445D01*
X13099375Y-9026845D02*
X13139375Y-9066845D01*
X13139375Y-9026845D02*
X13099375Y-9066845D01*
X13099375Y-9786845D02*
X13139375Y-9826845D01*
X13139375Y-9786845D02*
X13099375Y-9826845D01*
X13099375Y-10096445D02*
X13139375Y-10136445D01*
X13139375Y-10096445D02*
X13099375Y-10136445D01*
X13099375Y-11231445D02*
X13139375Y-11271445D01*
X13139375Y-11231445D02*
X13099375Y-11271445D01*
X13209375Y-8961845D02*
X13249375Y-9001845D01*
X13249375Y-8961845D02*
X13209375Y-9001845D01*
X13209375Y-9091845D02*
X13249375Y-9131845D01*
X13249375Y-9091845D02*
X13209375Y-9131845D01*
X13209375Y-9721845D02*
X13249375Y-9761845D01*
X13249375Y-9721845D02*
X13209375Y-9761845D01*
X13209375Y-9851845D02*
X13249375Y-9891845D01*
X13249375Y-9851845D02*
X13209375Y-9891845D01*
X13209375Y-10031445D02*
X13249375Y-10071445D01*
X13249375Y-10031445D02*
X13209375Y-10071445D01*
X13209375Y-10161445D02*
X13249375Y-10201445D01*
X13249375Y-10161445D02*
X13209375Y-10201445D01*
X13209375Y-11166445D02*
X13249375Y-11206445D01*
X13249375Y-11166445D02*
X13209375Y-11206445D01*
X13209375Y-11296445D02*
X13249375Y-11336445D01*
X13249375Y-11296445D02*
X13209375Y-11336445D01*
X13389375Y-9281845D02*
X13429375Y-9321845D01*
X13429375Y-9281845D02*
X13389375Y-9321845D01*
X13389375Y-9531845D02*
X13429375Y-9571845D01*
X13429375Y-9531845D02*
X13389375Y-9571845D01*
X13389375Y-10351445D02*
X13429375Y-10391445D01*
X13429375Y-10351445D02*
X13389375Y-10391445D01*
X13389375Y-10476445D02*
X13429375Y-10516445D01*
X13429375Y-10476445D02*
X13389375Y-10516445D01*
X13389375Y-10851445D02*
X13429375Y-10891445D01*
X13429375Y-10851445D02*
X13389375Y-10891445D01*
X13389375Y-10976445D02*
X13429375Y-11016445D01*
X13429375Y-10976445D02*
X13389375Y-11016445D01*
X13585075Y-10600445D02*
X13625075Y-10640445D01*
X13625075Y-10600445D02*
X13585075Y-10640445D01*
X13589575Y-10319745D02*
X13629575Y-10359745D01*
X13629575Y-10319745D02*
X13589575Y-10359745D01*
X13590175Y-8944845D02*
X13630175Y-8984845D01*
X13630175Y-8944845D02*
X13590175Y-8984845D01*
X13635075Y-11303145D02*
X13675075Y-11343145D01*
X13675075Y-11303145D02*
X13635075Y-11343145D01*
X13700075Y-10727445D02*
X13740075Y-10767445D01*
X13740075Y-10727445D02*
X13700075Y-10767445D01*
X13744875Y-9501445D02*
X13784875Y-9541445D01*
X13784875Y-9501445D02*
X13744875Y-9541445D01*
X13745175Y-8944845D02*
X13785175Y-8984845D01*
X13785175Y-8944845D02*
X13745175Y-8984845D01*
X13865075Y-9934745D02*
X13905075Y-9974745D01*
X13905075Y-9934745D02*
X13865075Y-9974745D01*
X13879113Y-9133513D02*
X13919113Y-9173513D01*
X13919113Y-9133513D02*
X13879113Y-9173513D01*
X13894675Y-10319345D02*
X13934675Y-10359345D01*
X13934675Y-10319345D02*
X13894675Y-10359345D01*
X13928575Y-9222176D02*
X13968575Y-9262176D01*
X13968575Y-9222176D02*
X13928575Y-9262176D01*
X13966575Y-11254145D02*
X14006575Y-11294145D01*
X14006575Y-11254145D02*
X13966575Y-11294145D01*
X13972600Y-9507045D02*
X14012600Y-9547045D01*
X14012600Y-9507045D02*
X13972600Y-9547045D01*
X14031875Y-11010145D02*
X14071875Y-11050145D01*
X14071875Y-11010145D02*
X14031875Y-11050145D01*
X14040075Y-9252445D02*
X14080075Y-9292445D01*
X14080075Y-9252445D02*
X14040075Y-9292445D01*
X14040075Y-9407445D02*
X14080075Y-9447445D01*
X14080075Y-9407445D02*
X14040075Y-9447445D01*
X14053075Y-9650245D02*
X14093075Y-9690245D01*
X14093075Y-9650245D02*
X14053075Y-9690245D01*
X14053075Y-9988945D02*
X14093075Y-10028945D01*
X14093075Y-9988945D02*
X14053075Y-10028945D01*
X14060675Y-10317945D02*
X14100675Y-10357945D01*
X14100675Y-10317945D02*
X14060675Y-10357945D01*
X14068075Y-9053981D02*
X14108075Y-9093981D01*
X14108075Y-9053981D02*
X14068075Y-9093981D01*
X14163075Y-9418445D02*
X14203075Y-9458445D01*
X14203075Y-9418445D02*
X14163075Y-9458445D01*
X14200575Y-11011245D02*
X14240575Y-11051245D01*
X14240575Y-11011245D02*
X14200575Y-11051245D01*
X14238075Y-10305445D02*
X14278075Y-10345445D01*
X14278075Y-10305445D02*
X14238075Y-10345445D01*
X14262946Y-9423529D02*
X14302946Y-9463529D01*
X14302946Y-9423529D02*
X14262946Y-9463529D01*
X14277075Y-9748445D02*
X14317075Y-9788445D01*
X14317075Y-9748445D02*
X14277075Y-9788445D01*
X14294975Y-11254845D02*
X14334975Y-11294845D01*
X14334975Y-11254845D02*
X14294975Y-11294845D01*
X14333175Y-10586445D02*
X14373175Y-10626445D01*
X14373175Y-10586445D02*
X14333175Y-10626445D01*
X14333175Y-10741445D02*
X14373175Y-10781445D01*
X14373175Y-10741445D02*
X14333175Y-10781445D01*
X14337275Y-10884145D02*
X14377275Y-10924145D01*
X14377275Y-10884145D02*
X14337275Y-10924145D01*
X14337275Y-11049145D02*
X14377275Y-11089145D01*
X14377275Y-11049145D02*
X14337275Y-11089145D01*
X14342075Y-9521945D02*
X14382075Y-9561945D01*
X14382075Y-9521945D02*
X14342075Y-9561945D01*
X14363075Y-10199445D02*
X14403075Y-10239445D01*
X14403075Y-10199445D02*
X14363075Y-10239445D01*
X14369075Y-9044445D02*
X14409075Y-9084445D01*
X14409075Y-9044445D02*
X14369075Y-9084445D01*
X14483875Y-10692645D02*
X14523875Y-10732645D01*
X14523875Y-10692645D02*
X14483875Y-10732645D01*
X14483875Y-10857645D02*
X14523875Y-10897645D01*
X14523875Y-10857645D02*
X14483875Y-10897645D01*
X14485575Y-10392345D02*
X14525575Y-10432345D01*
X14525575Y-10392345D02*
X14485575Y-10432345D01*
X14485575Y-10557345D02*
X14525575Y-10597345D01*
X14525575Y-10557345D02*
X14485575Y-10597345D01*
X14486075Y-9888945D02*
X14526075Y-9928945D01*
X14526075Y-9888945D02*
X14486075Y-9928945D01*
X14486075Y-10043945D02*
X14526075Y-10083945D01*
X14526075Y-10043945D02*
X14486075Y-10083945D01*
X14520375Y-9403145D02*
X14560375Y-9443145D01*
X14560375Y-9403145D02*
X14520375Y-9443145D01*
X14624975Y-11256645D02*
X14664975Y-11296645D01*
X14664975Y-11256645D02*
X14624975Y-11296645D01*
X14645075Y-9079545D02*
X14685075Y-9119545D01*
X14685075Y-9079545D02*
X14645075Y-9119545D01*
X14645075Y-9234545D02*
X14685075Y-9274545D01*
X14685075Y-9234545D02*
X14645075Y-9274545D01*
X14652975Y-10577745D02*
X14692975Y-10617745D01*
X14692975Y-10577745D02*
X14652975Y-10617745D01*
X14652975Y-11030145D02*
X14692975Y-11070145D01*
X14692975Y-11030145D02*
X14652975Y-11070145D01*
X14653075Y-10733945D02*
X14693075Y-10773945D01*
X14693075Y-10733945D02*
X14653075Y-10773945D01*
X14685875Y-9530745D02*
X14725875Y-9570745D01*
X14725875Y-9530745D02*
X14685875Y-9570745D01*
X14685875Y-9685745D02*
X14725875Y-9725745D01*
X14725875Y-9685745D02*
X14685875Y-9725745D01*
X14793075Y-9070945D02*
X14833075Y-9110945D01*
X14833075Y-9070945D02*
X14793075Y-9110945D01*
X14793075Y-9291945D02*
X14833075Y-9331945D01*
X14833075Y-9291945D02*
X14793075Y-9331945D01*
X14798000Y-10148400D02*
X14838000Y-10188400D01*
X14838000Y-10148400D02*
X14798000Y-10188400D01*
X14802264Y-9850945D02*
X14842264Y-9890945D01*
X14842264Y-9850945D02*
X14802264Y-9890945D01*
X14822075Y-10368445D02*
X14862075Y-10408445D01*
X14862075Y-10368445D02*
X14822075Y-10408445D01*
X14850075Y-9171445D02*
X14890075Y-9211445D01*
X14890075Y-9171445D02*
X14850075Y-9211445D01*
X14951075Y-9858445D02*
X14991075Y-9898445D01*
X14991075Y-9858445D02*
X14951075Y-9898445D01*
X14962075Y-10987445D02*
X15002075Y-11027445D01*
X15002075Y-10987445D02*
X14962075Y-11027445D01*
X14980075Y-10287445D02*
X15020075Y-10327445D01*
X15020075Y-10287445D02*
X14980075Y-10327445D01*
X14990938Y-10390903D02*
X15030938Y-10430903D01*
X15030938Y-10390903D02*
X14990938Y-10430903D01*
X15018304Y-9070966D02*
X15058304Y-9110966D01*
X15058304Y-9070966D02*
X15018304Y-9110966D01*
X15043075Y-9915445D02*
X15083075Y-9955445D01*
X15083075Y-9915445D02*
X15043075Y-9955445D01*
X15057675Y-11133045D02*
X15097675Y-11173045D01*
X15097675Y-11133045D02*
X15057675Y-11173045D01*
X15099175Y-10395945D02*
X15139175Y-10435945D01*
X15139175Y-10395945D02*
X15099175Y-10435945D01*
X15136075Y-10041445D02*
X15176075Y-10081445D01*
X15176075Y-10041445D02*
X15136075Y-10081445D01*
X15148535Y-9597881D02*
X15188535Y-9637881D01*
X15188535Y-9597881D02*
X15148535Y-9637881D01*
X15156475Y-11167945D02*
X15196475Y-11207945D01*
X15196475Y-11167945D02*
X15156475Y-11207945D01*
X15158075Y-9875445D02*
X15198075Y-9915445D01*
X15198075Y-9875445D02*
X15158075Y-9915445D01*
X15158175Y-10869445D02*
X15198175Y-10909445D01*
X15198175Y-10869445D02*
X15158175Y-10909445D01*
X15183175Y-10307045D02*
X15223175Y-10347045D01*
X15223175Y-10307045D02*
X15183175Y-10347045D01*
X15222075Y-9357445D02*
X15262075Y-9397445D01*
X15262075Y-9357445D02*
X15222075Y-9397445D01*
X15246075Y-10041780D02*
X15286075Y-10081780D01*
X15286075Y-10041780D02*
X15246075Y-10081780D01*
X15264075Y-10369445D02*
X15304075Y-10409445D01*
X15304075Y-10369445D02*
X15264075Y-10409445D01*
X15266075Y-9847445D02*
X15306075Y-9887445D01*
X15306075Y-9847445D02*
X15266075Y-9887445D01*
X15286475Y-11170945D02*
X15326475Y-11210945D01*
X15326475Y-11170945D02*
X15286475Y-11210945D01*
X15293275Y-11015245D02*
X15333275Y-11055245D01*
X15333275Y-11015245D02*
X15293275Y-11055245D01*
X15299175Y-9597645D02*
X15339175Y-9637645D01*
X15339175Y-9597645D02*
X15299175Y-9637645D01*
X15318175Y-10869445D02*
X15358175Y-10909445D01*
X15358175Y-10869445D02*
X15318175Y-10909445D01*
X15354200Y-10033400D02*
X15394200Y-10073400D01*
X15394200Y-10033400D02*
X15354200Y-10073400D01*
X15356175Y-10273645D02*
X15396175Y-10313645D01*
X15396175Y-10273645D02*
X15356175Y-10313645D01*
X15422075Y-10675445D02*
X15462075Y-10715445D01*
X15462075Y-10675445D02*
X15422075Y-10715445D01*
X15431375Y-10862400D02*
X15471375Y-10902400D01*
X15471375Y-10862400D02*
X15431375Y-10902400D01*
X15462275Y-10573945D02*
X15502275Y-10613945D01*
X15502275Y-10573945D02*
X15462275Y-10613945D01*
X15508875Y-11308795D02*
X15548875Y-11348795D01*
X15548875Y-11308795D02*
X15508875Y-11348795D01*
X15520975Y-9581645D02*
X15560975Y-9621645D01*
X15560975Y-9581645D02*
X15520975Y-9621645D01*
X15523075Y-9070945D02*
X15563075Y-9110945D01*
X15563075Y-9070945D02*
X15523075Y-9110945D01*
X15523075Y-9291945D02*
X15563075Y-9331945D01*
X15563075Y-9291945D02*
X15523075Y-9331945D01*
X15591375Y-10839553D02*
X15631375Y-10879553D01*
X15631375Y-10839553D02*
X15591375Y-10879553D01*
X15663875Y-11308795D02*
X15703875Y-11348795D01*
X15703875Y-11308795D02*
X15663875Y-11348795D01*
X15676775Y-9005145D02*
X15716775Y-9045145D01*
X15716775Y-9005145D02*
X15676775Y-9045145D01*
X15695075Y-9412945D02*
X15735075Y-9452945D01*
X15735075Y-9412945D02*
X15695075Y-9452945D01*
X15712475Y-10501345D02*
X15752475Y-10541345D01*
X15752475Y-10501345D02*
X15712475Y-10541345D01*
X15741075Y-10256545D02*
X15781075Y-10296545D01*
X15781075Y-10256545D02*
X15741075Y-10296545D01*
X15748875Y-10903645D02*
X15788875Y-10943645D01*
X15788875Y-10903645D02*
X15748875Y-10943645D01*
X15809975Y-9721745D02*
X15849975Y-9761745D01*
X15849975Y-9721745D02*
X15809975Y-9761745D01*
X15809975Y-9876745D02*
X15849975Y-9916745D01*
X15849975Y-9876745D02*
X15809975Y-9916745D01*
X15845400Y-11059345D02*
X15885400Y-11099345D01*
X15885400Y-11059345D02*
X15845400Y-11099345D01*
X15859075Y-9113445D02*
X15899075Y-9153445D01*
X15899075Y-9113445D02*
X15859075Y-9153445D01*
X15867875Y-11319395D02*
X15907875Y-11359395D01*
X15907875Y-11319395D02*
X15867875Y-11359395D01*
X15872075Y-10554879D02*
X15912075Y-10594879D01*
X15912075Y-10554879D02*
X15872075Y-10594879D01*
X15873775Y-10950945D02*
X15913775Y-10990945D01*
X15913775Y-10950945D02*
X15873775Y-10990945D01*
X15924675Y-9412245D02*
X15964675Y-9452245D01*
X15964675Y-9412245D02*
X15924675Y-9452245D01*
X16013875Y-11164395D02*
X16053875Y-11204395D01*
X16053875Y-11164395D02*
X16013875Y-11204395D01*
X16013875Y-11319395D02*
X16053875Y-11359395D01*
X16053875Y-11319395D02*
X16013875Y-11359395D01*
X16015075Y-9846545D02*
X16055075Y-9886545D01*
X16055075Y-9846545D02*
X16015075Y-9886545D01*
X16028775Y-10950945D02*
X16068775Y-10990945D01*
X16068775Y-10950945D02*
X16028775Y-10990945D01*
X16045075Y-10309045D02*
X16085075Y-10349045D01*
X16085075Y-10309045D02*
X16045075Y-10349045D01*
X16173075Y-11108945D02*
X16213075Y-11148945D01*
X16213075Y-11108945D02*
X16173075Y-11148945D01*
X16213075Y-9683945D02*
X16253075Y-9723945D01*
X16253075Y-9683945D02*
X16213075Y-9723945D01*
X16235075Y-10737445D02*
X16275075Y-10777445D01*
X16275075Y-10737445D02*
X16235075Y-10777445D01*
X16235100Y-9976800D02*
X16275100Y-10016800D01*
X16275100Y-9976800D02*
X16235100Y-10016800D01*
X16237675Y-10439245D02*
X16277675Y-10479245D01*
X16277675Y-10439245D02*
X16237675Y-10479245D01*
X16238575Y-9540445D02*
X16278575Y-9580445D01*
X16278575Y-9540445D02*
X16238575Y-9580445D01*
X16399075Y-10601445D02*
X16439075Y-10641445D01*
X16439075Y-10601445D02*
X16399075Y-10641445D01*
X16415075Y-9226300D02*
X16455075Y-9266300D01*
X16455075Y-9226300D02*
X16415075Y-9266300D01*
X16439075Y-10351445D02*
X16479075Y-10391445D01*
X16479075Y-10351445D02*
X16439075Y-10391445D01*
X16439075Y-10851445D02*
X16479075Y-10891445D01*
X16479075Y-10851445D02*
X16439075Y-10891445D01*
X16439075Y-10976445D02*
X16479075Y-11016445D01*
X16479075Y-10976445D02*
X16439075Y-11016445D01*
X16479075Y-10726445D02*
X16519075Y-10766445D01*
X16519075Y-10726445D02*
X16479075Y-10766445D01*
X16479075Y-10476445D02*
X16519075Y-10516445D01*
X16519075Y-10476445D02*
X16479075Y-10516445D01*
X16619075Y-10031445D02*
X16659075Y-10071445D01*
X16659075Y-10031445D02*
X16619075Y-10071445D01*
X16619075Y-10161445D02*
X16659075Y-10201445D01*
X16659075Y-10161445D02*
X16619075Y-10201445D01*
X16619075Y-11166445D02*
X16659075Y-11206445D01*
X16659075Y-11166445D02*
X16619075Y-11206445D01*
X16619075Y-11296445D02*
X16659075Y-11336445D01*
X16659075Y-11296445D02*
X16619075Y-11336445D01*
X16729075Y-10096445D02*
X16769075Y-10136445D01*
X16769075Y-10096445D02*
X16729075Y-10136445D01*
X16729075Y-11231445D02*
X16769075Y-11271445D01*
X16769075Y-11231445D02*
X16729075Y-11271445D01*
X16839075Y-10031445D02*
X16879075Y-10071445D01*
X16879075Y-10031445D02*
X16839075Y-10071445D01*
X16839075Y-10161445D02*
X16879075Y-10201445D01*
X16879075Y-10161445D02*
X16839075Y-10201445D01*
X16839075Y-11166445D02*
X16879075Y-11206445D01*
X16879075Y-11166445D02*
X16839075Y-11206445D01*
X16839075Y-11296445D02*
X16879075Y-11336445D01*
X16879075Y-11296445D02*
X16839075Y-11336445D01*
X16437575Y-9036545D02*
G75*
G02*
X16392575Y-9036545I-22500J0D01*
G01*
X16392575Y-9036545D02*
G75*
G02*
X16437575Y-9036545I22500J0D01*
G01*
X16387575Y-9059045D02*
X16442575Y-9059045D01*
X16442575Y-9014045D02*
G75*
G02*
X16442575Y-9059045I0J-22500D01*
G01*
X16442575Y-9014045D02*
X16387575Y-9014045D01*
X16387575Y-9014045D02*
G75*
G03*
X16387575Y-9059045I0J-22500D01*
G01*
X16437575Y-9756545D02*
G75*
G02*
X16392575Y-9756545I-22500J0D01*
G01*
X16392575Y-9756545D02*
G75*
G02*
X16437575Y-9756545I22500J0D01*
G01*
X16387575Y-9779045D02*
X16442575Y-9779045D01*
X16442575Y-9734045D02*
G75*
G02*
X16442575Y-9779045I0J-22500D01*
G01*
X16442575Y-9734045D02*
X16387575Y-9734045D01*
X16387575Y-9734045D02*
G75*
G03*
X16387575Y-9779045I0J-22500D01*
G01*
X16760075Y-9011545D02*
X16760075Y-9061545D01*
X16735075Y-9036545D02*
X16785075Y-9036545D01*
X16715075Y-9061545D02*
X16805075Y-9061545D01*
X16805075Y-9011545D02*
G75*
G02*
X16805075Y-9061545I0J-25000D01*
G01*
X16805075Y-9011545D02*
X16715075Y-9011545D01*
X16715075Y-9011545D02*
G75*
G03*
X16715075Y-9061545I0J-25000D01*
G01*
X16760075Y-9731545D02*
X16760075Y-9781545D01*
X16735075Y-9756545D02*
X16785075Y-9756545D01*
X16715075Y-9781545D02*
X16805075Y-9781545D01*
X16805075Y-9731545D02*
G75*
G02*
X16805075Y-9781545I0J-25000D01*
G01*
X16805075Y-9731545D02*
X16715075Y-9731545D01*
X16715075Y-9731545D02*
G75*
G03*
X16715075Y-9781545I0J-25000D01*
G01*
D11*
X13117652Y-11719929D02*
X13117652Y-11519929D01*
X13117652Y-11519929D02*
X13165271Y-11519929D01*
X13165271Y-11519929D02*
X13193843Y-11529453D01*
X13193843Y-11529453D02*
X13212890Y-11548501D01*
X13212890Y-11548501D02*
X13222414Y-11567548D01*
X13222414Y-11567548D02*
X13231938Y-11605643D01*
X13231938Y-11605643D02*
X13231938Y-11634215D01*
X13231938Y-11634215D02*
X13222414Y-11672310D01*
X13222414Y-11672310D02*
X13212890Y-11691358D01*
X13212890Y-11691358D02*
X13193843Y-11710405D01*
X13193843Y-11710405D02*
X13165271Y-11719929D01*
X13165271Y-11719929D02*
X13117652Y-11719929D01*
X13317652Y-11719929D02*
X13317652Y-11586596D01*
X13317652Y-11624691D02*
X13327176Y-11605643D01*
X13327176Y-11605643D02*
X13336700Y-11596120D01*
X13336700Y-11596120D02*
X13355747Y-11586596D01*
X13355747Y-11586596D02*
X13374795Y-11586596D01*
X13441462Y-11719929D02*
X13441462Y-11586596D01*
X13441462Y-11519929D02*
X13431938Y-11529453D01*
X13431938Y-11529453D02*
X13441462Y-11538977D01*
X13441462Y-11538977D02*
X13450985Y-11529453D01*
X13450985Y-11529453D02*
X13441462Y-11519929D01*
X13441462Y-11519929D02*
X13441462Y-11538977D01*
X13565271Y-11719929D02*
X13546223Y-11710405D01*
X13546223Y-11710405D02*
X13536700Y-11691358D01*
X13536700Y-11691358D02*
X13536700Y-11519929D01*
X13670033Y-11719929D02*
X13650985Y-11710405D01*
X13650985Y-11710405D02*
X13641462Y-11691358D01*
X13641462Y-11691358D02*
X13641462Y-11519929D01*
X13898604Y-11719929D02*
X13898604Y-11519929D01*
X13898604Y-11519929D02*
X13965271Y-11662786D01*
X13965271Y-11662786D02*
X14031938Y-11519929D01*
X14031938Y-11519929D02*
X14031938Y-11719929D01*
X14212890Y-11719929D02*
X14212890Y-11615167D01*
X14212890Y-11615167D02*
X14203366Y-11596120D01*
X14203366Y-11596120D02*
X14184319Y-11586596D01*
X14184319Y-11586596D02*
X14146223Y-11586596D01*
X14146223Y-11586596D02*
X14127176Y-11596120D01*
X14212890Y-11710405D02*
X14193843Y-11719929D01*
X14193843Y-11719929D02*
X14146223Y-11719929D01*
X14146223Y-11719929D02*
X14127176Y-11710405D01*
X14127176Y-11710405D02*
X14117652Y-11691358D01*
X14117652Y-11691358D02*
X14117652Y-11672310D01*
X14117652Y-11672310D02*
X14127176Y-11653262D01*
X14127176Y-11653262D02*
X14146223Y-11643739D01*
X14146223Y-11643739D02*
X14193843Y-11643739D01*
X14193843Y-11643739D02*
X14212890Y-11634215D01*
X14308128Y-11586596D02*
X14308128Y-11786596D01*
X14308128Y-11596120D02*
X14327176Y-11586596D01*
X14327176Y-11586596D02*
X14365271Y-11586596D01*
X14365271Y-11586596D02*
X14384319Y-11596120D01*
X14384319Y-11596120D02*
X14393843Y-11605643D01*
X14393843Y-11605643D02*
X14403366Y-11624691D01*
X14403366Y-11624691D02*
X14403366Y-11681834D01*
X14403366Y-11681834D02*
X14393843Y-11700881D01*
X14393843Y-11700881D02*
X14384319Y-11710405D01*
X14384319Y-11710405D02*
X14365271Y-11719929D01*
X14365271Y-11719929D02*
X14327176Y-11719929D01*
X14327176Y-11719929D02*
X14308128Y-11710405D01*
X14489081Y-11700881D02*
X14498604Y-11710405D01*
X14498604Y-11710405D02*
X14489081Y-11719929D01*
X14489081Y-11719929D02*
X14479557Y-11710405D01*
X14479557Y-11710405D02*
X14489081Y-11700881D01*
X14489081Y-11700881D02*
X14489081Y-11719929D01*
X14489081Y-11596120D02*
X14498604Y-11605643D01*
X14498604Y-11605643D02*
X14489081Y-11615167D01*
X14489081Y-11615167D02*
X14479557Y-11605643D01*
X14479557Y-11605643D02*
X14489081Y-11596120D01*
X14489081Y-11596120D02*
X14489081Y-11615167D01*
D12*
X12816875Y-12028445D02*
X12856875Y-12068445D01*
X12856875Y-12028445D02*
X12816875Y-12068445D01*
D11*
X13155747Y-11939929D02*
X13174795Y-11939929D01*
X13174795Y-11939929D02*
X13193843Y-11949453D01*
X13193843Y-11949453D02*
X13203366Y-11958977D01*
X13203366Y-11958977D02*
X13212890Y-11978024D01*
X13212890Y-11978024D02*
X13222414Y-12016120D01*
X13222414Y-12016120D02*
X13222414Y-12063739D01*
X13222414Y-12063739D02*
X13212890Y-12101834D01*
X13212890Y-12101834D02*
X13203366Y-12120881D01*
X13203366Y-12120881D02*
X13193843Y-12130405D01*
X13193843Y-12130405D02*
X13174795Y-12139929D01*
X13174795Y-12139929D02*
X13155747Y-12139929D01*
X13155747Y-12139929D02*
X13136700Y-12130405D01*
X13136700Y-12130405D02*
X13127176Y-12120881D01*
X13127176Y-12120881D02*
X13117652Y-12101834D01*
X13117652Y-12101834D02*
X13108128Y-12063739D01*
X13108128Y-12063739D02*
X13108128Y-12016120D01*
X13108128Y-12016120D02*
X13117652Y-11978024D01*
X13117652Y-11978024D02*
X13127176Y-11958977D01*
X13127176Y-11958977D02*
X13136700Y-11949453D01*
X13136700Y-11949453D02*
X13155747Y-11939929D01*
X13308128Y-12120881D02*
X13317652Y-12130405D01*
X13317652Y-12130405D02*
X13308128Y-12139929D01*
X13308128Y-12139929D02*
X13298604Y-12130405D01*
X13298604Y-12130405D02*
X13308128Y-12120881D01*
X13308128Y-12120881D02*
X13308128Y-12139929D01*
X13489081Y-12006596D02*
X13489081Y-12139929D01*
X13441462Y-11930405D02*
X13393843Y-12073262D01*
X13393843Y-12073262D02*
X13517652Y-12073262D01*
X13631938Y-11939929D02*
X13650985Y-11939929D01*
X13650985Y-11939929D02*
X13670033Y-11949453D01*
X13670033Y-11949453D02*
X13679557Y-11958977D01*
X13679557Y-11958977D02*
X13689081Y-11978024D01*
X13689081Y-11978024D02*
X13698604Y-12016120D01*
X13698604Y-12016120D02*
X13698604Y-12063739D01*
X13698604Y-12063739D02*
X13689081Y-12101834D01*
X13689081Y-12101834D02*
X13679557Y-12120881D01*
X13679557Y-12120881D02*
X13670033Y-12130405D01*
X13670033Y-12130405D02*
X13650985Y-12139929D01*
X13650985Y-12139929D02*
X13631938Y-12139929D01*
X13631938Y-12139929D02*
X13612890Y-12130405D01*
X13612890Y-12130405D02*
X13603366Y-12120881D01*
X13603366Y-12120881D02*
X13593843Y-12101834D01*
X13593843Y-12101834D02*
X13584319Y-12063739D01*
X13584319Y-12063739D02*
X13584319Y-12016120D01*
X13584319Y-12016120D02*
X13593843Y-11978024D01*
X13593843Y-11978024D02*
X13603366Y-11958977D01*
X13603366Y-11958977D02*
X13612890Y-11949453D01*
X13612890Y-11949453D02*
X13631938Y-11939929D01*
X13822414Y-11939929D02*
X13841462Y-11939929D01*
X13841462Y-11939929D02*
X13860509Y-11949453D01*
X13860509Y-11949453D02*
X13870033Y-11958977D01*
X13870033Y-11958977D02*
X13879557Y-11978024D01*
X13879557Y-11978024D02*
X13889081Y-12016120D01*
X13889081Y-12016120D02*
X13889081Y-12063739D01*
X13889081Y-12063739D02*
X13879557Y-12101834D01*
X13879557Y-12101834D02*
X13870033Y-12120881D01*
X13870033Y-12120881D02*
X13860509Y-12130405D01*
X13860509Y-12130405D02*
X13841462Y-12139929D01*
X13841462Y-12139929D02*
X13822414Y-12139929D01*
X13822414Y-12139929D02*
X13803366Y-12130405D01*
X13803366Y-12130405D02*
X13793843Y-12120881D01*
X13793843Y-12120881D02*
X13784319Y-12101834D01*
X13784319Y-12101834D02*
X13774795Y-12063739D01*
X13774795Y-12063739D02*
X13774795Y-12016120D01*
X13774795Y-12016120D02*
X13784319Y-11978024D01*
X13784319Y-11978024D02*
X13793843Y-11958977D01*
X13793843Y-11958977D02*
X13803366Y-11949453D01*
X13803366Y-11949453D02*
X13822414Y-11939929D01*
X13974795Y-12139929D02*
X13974795Y-12006596D01*
X13974795Y-12025643D02*
X13984319Y-12016120D01*
X13984319Y-12016120D02*
X14003366Y-12006596D01*
X14003366Y-12006596D02*
X14031938Y-12006596D01*
X14031938Y-12006596D02*
X14050985Y-12016120D01*
X14050985Y-12016120D02*
X14060509Y-12035167D01*
X14060509Y-12035167D02*
X14060509Y-12139929D01*
X14060509Y-12035167D02*
X14070033Y-12016120D01*
X14070033Y-12016120D02*
X14089081Y-12006596D01*
X14089081Y-12006596D02*
X14117652Y-12006596D01*
X14117652Y-12006596D02*
X14136700Y-12016120D01*
X14136700Y-12016120D02*
X14146224Y-12035167D01*
X14146224Y-12035167D02*
X14146224Y-12139929D01*
X14241462Y-12139929D02*
X14241462Y-12006596D01*
X14241462Y-12025643D02*
X14250985Y-12016120D01*
X14250985Y-12016120D02*
X14270033Y-12006596D01*
X14270033Y-12006596D02*
X14298605Y-12006596D01*
X14298605Y-12006596D02*
X14317652Y-12016120D01*
X14317652Y-12016120D02*
X14327176Y-12035167D01*
X14327176Y-12035167D02*
X14327176Y-12139929D01*
X14327176Y-12035167D02*
X14336700Y-12016120D01*
X14336700Y-12016120D02*
X14355747Y-12006596D01*
X14355747Y-12006596D02*
X14384319Y-12006596D01*
X14384319Y-12006596D02*
X14403366Y-12016120D01*
X14403366Y-12016120D02*
X14412890Y-12035167D01*
X14412890Y-12035167D02*
X14412890Y-12139929D01*
X14803366Y-11930405D02*
X14631938Y-12187548D01*
X15060509Y-11939929D02*
X15079557Y-11939929D01*
X15079557Y-11939929D02*
X15098605Y-11949453D01*
X15098605Y-11949453D02*
X15108128Y-11958977D01*
X15108128Y-11958977D02*
X15117652Y-11978024D01*
X15117652Y-11978024D02*
X15127176Y-12016120D01*
X15127176Y-12016120D02*
X15127176Y-12063739D01*
X15127176Y-12063739D02*
X15117652Y-12101834D01*
X15117652Y-12101834D02*
X15108128Y-12120881D01*
X15108128Y-12120881D02*
X15098605Y-12130405D01*
X15098605Y-12130405D02*
X15079557Y-12139929D01*
X15079557Y-12139929D02*
X15060509Y-12139929D01*
X15060509Y-12139929D02*
X15041462Y-12130405D01*
X15041462Y-12130405D02*
X15031938Y-12120881D01*
X15031938Y-12120881D02*
X15022414Y-12101834D01*
X15022414Y-12101834D02*
X15012890Y-12063739D01*
X15012890Y-12063739D02*
X15012890Y-12016120D01*
X15012890Y-12016120D02*
X15022414Y-11978024D01*
X15022414Y-11978024D02*
X15031938Y-11958977D01*
X15031938Y-11958977D02*
X15041462Y-11949453D01*
X15041462Y-11949453D02*
X15060509Y-11939929D01*
X15212890Y-12120881D02*
X15222414Y-12130405D01*
X15222414Y-12130405D02*
X15212890Y-12139929D01*
X15212890Y-12139929D02*
X15203367Y-12130405D01*
X15203367Y-12130405D02*
X15212890Y-12120881D01*
X15212890Y-12120881D02*
X15212890Y-12139929D01*
X15346224Y-11939929D02*
X15365271Y-11939929D01*
X15365271Y-11939929D02*
X15384319Y-11949453D01*
X15384319Y-11949453D02*
X15393843Y-11958977D01*
X15393843Y-11958977D02*
X15403367Y-11978024D01*
X15403367Y-11978024D02*
X15412890Y-12016120D01*
X15412890Y-12016120D02*
X15412890Y-12063739D01*
X15412890Y-12063739D02*
X15403367Y-12101834D01*
X15403367Y-12101834D02*
X15393843Y-12120881D01*
X15393843Y-12120881D02*
X15384319Y-12130405D01*
X15384319Y-12130405D02*
X15365271Y-12139929D01*
X15365271Y-12139929D02*
X15346224Y-12139929D01*
X15346224Y-12139929D02*
X15327176Y-12130405D01*
X15327176Y-12130405D02*
X15317652Y-12120881D01*
X15317652Y-12120881D02*
X15308128Y-12101834D01*
X15308128Y-12101834D02*
X15298605Y-12063739D01*
X15298605Y-12063739D02*
X15298605Y-12016120D01*
X15298605Y-12016120D02*
X15308128Y-11978024D01*
X15308128Y-11978024D02*
X15317652Y-11958977D01*
X15317652Y-11958977D02*
X15327176Y-11949453D01*
X15327176Y-11949453D02*
X15346224Y-11939929D01*
X15603367Y-12139929D02*
X15489081Y-12139929D01*
X15546224Y-12139929D02*
X15546224Y-11939929D01*
X15546224Y-11939929D02*
X15527176Y-11968501D01*
X15527176Y-11968501D02*
X15508128Y-11987548D01*
X15508128Y-11987548D02*
X15489081Y-11997072D01*
X15784319Y-11939929D02*
X15689081Y-11939929D01*
X15689081Y-11939929D02*
X15679557Y-12035167D01*
X15679557Y-12035167D02*
X15689081Y-12025643D01*
X15689081Y-12025643D02*
X15708128Y-12016120D01*
X15708128Y-12016120D02*
X15755748Y-12016120D01*
X15755748Y-12016120D02*
X15774795Y-12025643D01*
X15774795Y-12025643D02*
X15784319Y-12035167D01*
X15784319Y-12035167D02*
X15793843Y-12054215D01*
X15793843Y-12054215D02*
X15793843Y-12101834D01*
X15793843Y-12101834D02*
X15784319Y-12120881D01*
X15784319Y-12120881D02*
X15774795Y-12130405D01*
X15774795Y-12130405D02*
X15755748Y-12139929D01*
X15755748Y-12139929D02*
X15708128Y-12139929D01*
X15708128Y-12139929D02*
X15689081Y-12130405D01*
X15689081Y-12130405D02*
X15679557Y-12120881D01*
X15860509Y-11939929D02*
X15993843Y-11939929D01*
X15993843Y-11939929D02*
X15908128Y-12139929D01*
X16060509Y-11939929D02*
X16060509Y-11978024D01*
X16136700Y-11939929D02*
X16136700Y-11978024D01*
X16431938Y-12216120D02*
X16422414Y-12206596D01*
X16422414Y-12206596D02*
X16403367Y-12178024D01*
X16403367Y-12178024D02*
X16393843Y-12158977D01*
X16393843Y-12158977D02*
X16384319Y-12130405D01*
X16384319Y-12130405D02*
X16374795Y-12082786D01*
X16374795Y-12082786D02*
X16374795Y-12044691D01*
X16374795Y-12044691D02*
X16384319Y-11997072D01*
X16384319Y-11997072D02*
X16393843Y-11968501D01*
X16393843Y-11968501D02*
X16403367Y-11949453D01*
X16403367Y-11949453D02*
X16422414Y-11920881D01*
X16422414Y-11920881D02*
X16431938Y-11911358D01*
X16612890Y-12139929D02*
X16498605Y-12139929D01*
X16555748Y-12139929D02*
X16555748Y-11939929D01*
X16555748Y-11939929D02*
X16536700Y-11968501D01*
X16536700Y-11968501D02*
X16517652Y-11987548D01*
X16517652Y-11987548D02*
X16498605Y-11997072D01*
X16793843Y-11939929D02*
X16698605Y-11939929D01*
X16698605Y-11939929D02*
X16689081Y-12035167D01*
X16689081Y-12035167D02*
X16698605Y-12025643D01*
X16698605Y-12025643D02*
X16717652Y-12016120D01*
X16717652Y-12016120D02*
X16765271Y-12016120D01*
X16765271Y-12016120D02*
X16784319Y-12025643D01*
X16784319Y-12025643D02*
X16793843Y-12035167D01*
X16793843Y-12035167D02*
X16803367Y-12054215D01*
X16803367Y-12054215D02*
X16803367Y-12101834D01*
X16803367Y-12101834D02*
X16793843Y-12120881D01*
X16793843Y-12120881D02*
X16784319Y-12130405D01*
X16784319Y-12130405D02*
X16765271Y-12139929D01*
X16765271Y-12139929D02*
X16717652Y-12139929D01*
X16717652Y-12139929D02*
X16698605Y-12130405D01*
X16698605Y-12130405D02*
X16689081Y-12120881D01*
X16974795Y-12006596D02*
X16974795Y-12139929D01*
X16927176Y-11930405D02*
X16879557Y-12073262D01*
X16879557Y-12073262D02*
X17003367Y-12073262D01*
X17231938Y-12139929D02*
X17231938Y-11939929D01*
X17317653Y-12139929D02*
X17317653Y-12035167D01*
X17317653Y-12035167D02*
X17308129Y-12016120D01*
X17308129Y-12016120D02*
X17289081Y-12006596D01*
X17289081Y-12006596D02*
X17260510Y-12006596D01*
X17260510Y-12006596D02*
X17241462Y-12016120D01*
X17241462Y-12016120D02*
X17231938Y-12025643D01*
X17441462Y-12139929D02*
X17422414Y-12130405D01*
X17422414Y-12130405D02*
X17412891Y-12120881D01*
X17412891Y-12120881D02*
X17403367Y-12101834D01*
X17403367Y-12101834D02*
X17403367Y-12044691D01*
X17403367Y-12044691D02*
X17412891Y-12025643D01*
X17412891Y-12025643D02*
X17422414Y-12016120D01*
X17422414Y-12016120D02*
X17441462Y-12006596D01*
X17441462Y-12006596D02*
X17470034Y-12006596D01*
X17470034Y-12006596D02*
X17489081Y-12016120D01*
X17489081Y-12016120D02*
X17498605Y-12025643D01*
X17498605Y-12025643D02*
X17508129Y-12044691D01*
X17508129Y-12044691D02*
X17508129Y-12101834D01*
X17508129Y-12101834D02*
X17498605Y-12120881D01*
X17498605Y-12120881D02*
X17489081Y-12130405D01*
X17489081Y-12130405D02*
X17470034Y-12139929D01*
X17470034Y-12139929D02*
X17441462Y-12139929D01*
X17622414Y-12139929D02*
X17603367Y-12130405D01*
X17603367Y-12130405D02*
X17593843Y-12111358D01*
X17593843Y-12111358D02*
X17593843Y-11939929D01*
X17774795Y-12130405D02*
X17755748Y-12139929D01*
X17755748Y-12139929D02*
X17717653Y-12139929D01*
X17717653Y-12139929D02*
X17698605Y-12130405D01*
X17698605Y-12130405D02*
X17689081Y-12111358D01*
X17689081Y-12111358D02*
X17689081Y-12035167D01*
X17689081Y-12035167D02*
X17698605Y-12016120D01*
X17698605Y-12016120D02*
X17717653Y-12006596D01*
X17717653Y-12006596D02*
X17755748Y-12006596D01*
X17755748Y-12006596D02*
X17774795Y-12016120D01*
X17774795Y-12016120D02*
X17784319Y-12035167D01*
X17784319Y-12035167D02*
X17784319Y-12054215D01*
X17784319Y-12054215D02*
X17689081Y-12073262D01*
X17860510Y-12130405D02*
X17879557Y-12139929D01*
X17879557Y-12139929D02*
X17917653Y-12139929D01*
X17917653Y-12139929D02*
X17936700Y-12130405D01*
X17936700Y-12130405D02*
X17946224Y-12111358D01*
X17946224Y-12111358D02*
X17946224Y-12101834D01*
X17946224Y-12101834D02*
X17936700Y-12082786D01*
X17936700Y-12082786D02*
X17917653Y-12073262D01*
X17917653Y-12073262D02*
X17889081Y-12073262D01*
X17889081Y-12073262D02*
X17870034Y-12063739D01*
X17870034Y-12063739D02*
X17860510Y-12044691D01*
X17860510Y-12044691D02*
X17860510Y-12035167D01*
X17860510Y-12035167D02*
X17870034Y-12016120D01*
X17870034Y-12016120D02*
X17889081Y-12006596D01*
X17889081Y-12006596D02*
X17917653Y-12006596D01*
X17917653Y-12006596D02*
X17936700Y-12016120D01*
X18012891Y-12216120D02*
X18022415Y-12206596D01*
X18022415Y-12206596D02*
X18041462Y-12178024D01*
X18041462Y-12178024D02*
X18050986Y-12158977D01*
X18050986Y-12158977D02*
X18060510Y-12130405D01*
X18060510Y-12130405D02*
X18070034Y-12082786D01*
X18070034Y-12082786D02*
X18070034Y-12044691D01*
X18070034Y-12044691D02*
X18060510Y-11997072D01*
X18060510Y-11997072D02*
X18050986Y-11968501D01*
X18050986Y-11968501D02*
X18041462Y-11949453D01*
X18041462Y-11949453D02*
X18022415Y-11920881D01*
X18022415Y-11920881D02*
X18012891Y-11911358D01*
D12*
X12856875Y-12312445D02*
G75*
G02*
X12811875Y-12312445I-22500J0D01*
G01*
X12811875Y-12312445D02*
G75*
G02*
X12856875Y-12312445I22500J0D01*
G01*
D11*
X13155747Y-12203929D02*
X13174795Y-12203929D01*
X13174795Y-12203929D02*
X13193843Y-12213453D01*
X13193843Y-12213453D02*
X13203366Y-12222977D01*
X13203366Y-12222977D02*
X13212890Y-12242024D01*
X13212890Y-12242024D02*
X13222414Y-12280120D01*
X13222414Y-12280120D02*
X13222414Y-12327739D01*
X13222414Y-12327739D02*
X13212890Y-12365834D01*
X13212890Y-12365834D02*
X13203366Y-12384881D01*
X13203366Y-12384881D02*
X13193843Y-12394405D01*
X13193843Y-12394405D02*
X13174795Y-12403929D01*
X13174795Y-12403929D02*
X13155747Y-12403929D01*
X13155747Y-12403929D02*
X13136700Y-12394405D01*
X13136700Y-12394405D02*
X13127176Y-12384881D01*
X13127176Y-12384881D02*
X13117652Y-12365834D01*
X13117652Y-12365834D02*
X13108128Y-12327739D01*
X13108128Y-12327739D02*
X13108128Y-12280120D01*
X13108128Y-12280120D02*
X13117652Y-12242024D01*
X13117652Y-12242024D02*
X13127176Y-12222977D01*
X13127176Y-12222977D02*
X13136700Y-12213453D01*
X13136700Y-12213453D02*
X13155747Y-12203929D01*
X13308128Y-12384881D02*
X13317652Y-12394405D01*
X13317652Y-12394405D02*
X13308128Y-12403929D01*
X13308128Y-12403929D02*
X13298604Y-12394405D01*
X13298604Y-12394405D02*
X13308128Y-12384881D01*
X13308128Y-12384881D02*
X13308128Y-12403929D01*
X13489081Y-12270596D02*
X13489081Y-12403929D01*
X13441462Y-12194405D02*
X13393843Y-12337262D01*
X13393843Y-12337262D02*
X13517652Y-12337262D01*
X13689081Y-12203929D02*
X13593843Y-12203929D01*
X13593843Y-12203929D02*
X13584319Y-12299167D01*
X13584319Y-12299167D02*
X13593843Y-12289643D01*
X13593843Y-12289643D02*
X13612890Y-12280120D01*
X13612890Y-12280120D02*
X13660509Y-12280120D01*
X13660509Y-12280120D02*
X13679557Y-12289643D01*
X13679557Y-12289643D02*
X13689081Y-12299167D01*
X13689081Y-12299167D02*
X13698604Y-12318215D01*
X13698604Y-12318215D02*
X13698604Y-12365834D01*
X13698604Y-12365834D02*
X13689081Y-12384881D01*
X13689081Y-12384881D02*
X13679557Y-12394405D01*
X13679557Y-12394405D02*
X13660509Y-12403929D01*
X13660509Y-12403929D02*
X13612890Y-12403929D01*
X13612890Y-12403929D02*
X13593843Y-12394405D01*
X13593843Y-12394405D02*
X13584319Y-12384881D01*
X13822414Y-12203929D02*
X13841462Y-12203929D01*
X13841462Y-12203929D02*
X13860509Y-12213453D01*
X13860509Y-12213453D02*
X13870033Y-12222977D01*
X13870033Y-12222977D02*
X13879557Y-12242024D01*
X13879557Y-12242024D02*
X13889081Y-12280120D01*
X13889081Y-12280120D02*
X13889081Y-12327739D01*
X13889081Y-12327739D02*
X13879557Y-12365834D01*
X13879557Y-12365834D02*
X13870033Y-12384881D01*
X13870033Y-12384881D02*
X13860509Y-12394405D01*
X13860509Y-12394405D02*
X13841462Y-12403929D01*
X13841462Y-12403929D02*
X13822414Y-12403929D01*
X13822414Y-12403929D02*
X13803366Y-12394405D01*
X13803366Y-12394405D02*
X13793843Y-12384881D01*
X13793843Y-12384881D02*
X13784319Y-12365834D01*
X13784319Y-12365834D02*
X13774795Y-12327739D01*
X13774795Y-12327739D02*
X13774795Y-12280120D01*
X13774795Y-12280120D02*
X13784319Y-12242024D01*
X13784319Y-12242024D02*
X13793843Y-12222977D01*
X13793843Y-12222977D02*
X13803366Y-12213453D01*
X13803366Y-12213453D02*
X13822414Y-12203929D01*
X13974795Y-12403929D02*
X13974795Y-12270596D01*
X13974795Y-12289643D02*
X13984319Y-12280120D01*
X13984319Y-12280120D02*
X14003366Y-12270596D01*
X14003366Y-12270596D02*
X14031938Y-12270596D01*
X14031938Y-12270596D02*
X14050985Y-12280120D01*
X14050985Y-12280120D02*
X14060509Y-12299167D01*
X14060509Y-12299167D02*
X14060509Y-12403929D01*
X14060509Y-12299167D02*
X14070033Y-12280120D01*
X14070033Y-12280120D02*
X14089081Y-12270596D01*
X14089081Y-12270596D02*
X14117652Y-12270596D01*
X14117652Y-12270596D02*
X14136700Y-12280120D01*
X14136700Y-12280120D02*
X14146224Y-12299167D01*
X14146224Y-12299167D02*
X14146224Y-12403929D01*
X14241462Y-12403929D02*
X14241462Y-12270596D01*
X14241462Y-12289643D02*
X14250985Y-12280120D01*
X14250985Y-12280120D02*
X14270033Y-12270596D01*
X14270033Y-12270596D02*
X14298605Y-12270596D01*
X14298605Y-12270596D02*
X14317652Y-12280120D01*
X14317652Y-12280120D02*
X14327176Y-12299167D01*
X14327176Y-12299167D02*
X14327176Y-12403929D01*
X14327176Y-12299167D02*
X14336700Y-12280120D01*
X14336700Y-12280120D02*
X14355747Y-12270596D01*
X14355747Y-12270596D02*
X14384319Y-12270596D01*
X14384319Y-12270596D02*
X14403366Y-12280120D01*
X14403366Y-12280120D02*
X14412890Y-12299167D01*
X14412890Y-12299167D02*
X14412890Y-12403929D01*
X14803366Y-12194405D02*
X14631938Y-12451548D01*
X15060509Y-12203929D02*
X15079557Y-12203929D01*
X15079557Y-12203929D02*
X15098605Y-12213453D01*
X15098605Y-12213453D02*
X15108128Y-12222977D01*
X15108128Y-12222977D02*
X15117652Y-12242024D01*
X15117652Y-12242024D02*
X15127176Y-12280120D01*
X15127176Y-12280120D02*
X15127176Y-12327739D01*
X15127176Y-12327739D02*
X15117652Y-12365834D01*
X15117652Y-12365834D02*
X15108128Y-12384881D01*
X15108128Y-12384881D02*
X15098605Y-12394405D01*
X15098605Y-12394405D02*
X15079557Y-12403929D01*
X15079557Y-12403929D02*
X15060509Y-12403929D01*
X15060509Y-12403929D02*
X15041462Y-12394405D01*
X15041462Y-12394405D02*
X15031938Y-12384881D01*
X15031938Y-12384881D02*
X15022414Y-12365834D01*
X15022414Y-12365834D02*
X15012890Y-12327739D01*
X15012890Y-12327739D02*
X15012890Y-12280120D01*
X15012890Y-12280120D02*
X15022414Y-12242024D01*
X15022414Y-12242024D02*
X15031938Y-12222977D01*
X15031938Y-12222977D02*
X15041462Y-12213453D01*
X15041462Y-12213453D02*
X15060509Y-12203929D01*
X15212890Y-12384881D02*
X15222414Y-12394405D01*
X15222414Y-12394405D02*
X15212890Y-12403929D01*
X15212890Y-12403929D02*
X15203367Y-12394405D01*
X15203367Y-12394405D02*
X15212890Y-12384881D01*
X15212890Y-12384881D02*
X15212890Y-12403929D01*
X15346224Y-12203929D02*
X15365271Y-12203929D01*
X15365271Y-12203929D02*
X15384319Y-12213453D01*
X15384319Y-12213453D02*
X15393843Y-12222977D01*
X15393843Y-12222977D02*
X15403367Y-12242024D01*
X15403367Y-12242024D02*
X15412890Y-12280120D01*
X15412890Y-12280120D02*
X15412890Y-12327739D01*
X15412890Y-12327739D02*
X15403367Y-12365834D01*
X15403367Y-12365834D02*
X15393843Y-12384881D01*
X15393843Y-12384881D02*
X15384319Y-12394405D01*
X15384319Y-12394405D02*
X15365271Y-12403929D01*
X15365271Y-12403929D02*
X15346224Y-12403929D01*
X15346224Y-12403929D02*
X15327176Y-12394405D01*
X15327176Y-12394405D02*
X15317652Y-12384881D01*
X15317652Y-12384881D02*
X15308128Y-12365834D01*
X15308128Y-12365834D02*
X15298605Y-12327739D01*
X15298605Y-12327739D02*
X15298605Y-12280120D01*
X15298605Y-12280120D02*
X15308128Y-12242024D01*
X15308128Y-12242024D02*
X15317652Y-12222977D01*
X15317652Y-12222977D02*
X15327176Y-12213453D01*
X15327176Y-12213453D02*
X15346224Y-12203929D01*
X15603367Y-12403929D02*
X15489081Y-12403929D01*
X15546224Y-12403929D02*
X15546224Y-12203929D01*
X15546224Y-12203929D02*
X15527176Y-12232501D01*
X15527176Y-12232501D02*
X15508128Y-12251548D01*
X15508128Y-12251548D02*
X15489081Y-12261072D01*
X15670033Y-12203929D02*
X15803367Y-12203929D01*
X15803367Y-12203929D02*
X15717652Y-12403929D01*
X15860509Y-12203929D02*
X15993843Y-12203929D01*
X15993843Y-12203929D02*
X15908128Y-12403929D01*
X16060509Y-12203929D02*
X16060509Y-12242024D01*
X16136700Y-12203929D02*
X16136700Y-12242024D01*
X16431938Y-12480120D02*
X16422414Y-12470596D01*
X16422414Y-12470596D02*
X16403367Y-12442024D01*
X16403367Y-12442024D02*
X16393843Y-12422977D01*
X16393843Y-12422977D02*
X16384319Y-12394405D01*
X16384319Y-12394405D02*
X16374795Y-12346786D01*
X16374795Y-12346786D02*
X16374795Y-12308691D01*
X16374795Y-12308691D02*
X16384319Y-12261072D01*
X16384319Y-12261072D02*
X16393843Y-12232501D01*
X16393843Y-12232501D02*
X16403367Y-12213453D01*
X16403367Y-12213453D02*
X16422414Y-12184881D01*
X16422414Y-12184881D02*
X16431938Y-12175358D01*
X16546224Y-12203929D02*
X16565271Y-12203929D01*
X16565271Y-12203929D02*
X16584319Y-12213453D01*
X16584319Y-12213453D02*
X16593843Y-12222977D01*
X16593843Y-12222977D02*
X16603367Y-12242024D01*
X16603367Y-12242024D02*
X16612890Y-12280120D01*
X16612890Y-12280120D02*
X16612890Y-12327739D01*
X16612890Y-12327739D02*
X16603367Y-12365834D01*
X16603367Y-12365834D02*
X16593843Y-12384881D01*
X16593843Y-12384881D02*
X16584319Y-12394405D01*
X16584319Y-12394405D02*
X16565271Y-12403929D01*
X16565271Y-12403929D02*
X16546224Y-12403929D01*
X16546224Y-12403929D02*
X16527176Y-12394405D01*
X16527176Y-12394405D02*
X16517652Y-12384881D01*
X16517652Y-12384881D02*
X16508129Y-12365834D01*
X16508129Y-12365834D02*
X16498605Y-12327739D01*
X16498605Y-12327739D02*
X16498605Y-12280120D01*
X16498605Y-12280120D02*
X16508129Y-12242024D01*
X16508129Y-12242024D02*
X16517652Y-12222977D01*
X16517652Y-12222977D02*
X16527176Y-12213453D01*
X16527176Y-12213453D02*
X16546224Y-12203929D01*
X16850986Y-12403929D02*
X16850986Y-12203929D01*
X16936700Y-12403929D02*
X16936700Y-12299167D01*
X16936700Y-12299167D02*
X16927176Y-12280120D01*
X16927176Y-12280120D02*
X16908129Y-12270596D01*
X16908129Y-12270596D02*
X16879557Y-12270596D01*
X16879557Y-12270596D02*
X16860510Y-12280120D01*
X16860510Y-12280120D02*
X16850986Y-12289643D01*
X17060510Y-12403929D02*
X17041462Y-12394405D01*
X17041462Y-12394405D02*
X17031938Y-12384881D01*
X17031938Y-12384881D02*
X17022414Y-12365834D01*
X17022414Y-12365834D02*
X17022414Y-12308691D01*
X17022414Y-12308691D02*
X17031938Y-12289643D01*
X17031938Y-12289643D02*
X17041462Y-12280120D01*
X17041462Y-12280120D02*
X17060510Y-12270596D01*
X17060510Y-12270596D02*
X17089081Y-12270596D01*
X17089081Y-12270596D02*
X17108129Y-12280120D01*
X17108129Y-12280120D02*
X17117653Y-12289643D01*
X17117653Y-12289643D02*
X17127176Y-12308691D01*
X17127176Y-12308691D02*
X17127176Y-12365834D01*
X17127176Y-12365834D02*
X17117653Y-12384881D01*
X17117653Y-12384881D02*
X17108129Y-12394405D01*
X17108129Y-12394405D02*
X17089081Y-12403929D01*
X17089081Y-12403929D02*
X17060510Y-12403929D01*
X17241462Y-12403929D02*
X17222414Y-12394405D01*
X17222414Y-12394405D02*
X17212891Y-12375358D01*
X17212891Y-12375358D02*
X17212891Y-12203929D01*
X17393843Y-12394405D02*
X17374795Y-12403929D01*
X17374795Y-12403929D02*
X17336700Y-12403929D01*
X17336700Y-12403929D02*
X17317653Y-12394405D01*
X17317653Y-12394405D02*
X17308129Y-12375358D01*
X17308129Y-12375358D02*
X17308129Y-12299167D01*
X17308129Y-12299167D02*
X17317653Y-12280120D01*
X17317653Y-12280120D02*
X17336700Y-12270596D01*
X17336700Y-12270596D02*
X17374795Y-12270596D01*
X17374795Y-12270596D02*
X17393843Y-12280120D01*
X17393843Y-12280120D02*
X17403367Y-12299167D01*
X17403367Y-12299167D02*
X17403367Y-12318215D01*
X17403367Y-12318215D02*
X17308129Y-12337262D01*
X17479557Y-12394405D02*
X17498605Y-12403929D01*
X17498605Y-12403929D02*
X17536700Y-12403929D01*
X17536700Y-12403929D02*
X17555748Y-12394405D01*
X17555748Y-12394405D02*
X17565272Y-12375358D01*
X17565272Y-12375358D02*
X17565272Y-12365834D01*
X17565272Y-12365834D02*
X17555748Y-12346786D01*
X17555748Y-12346786D02*
X17536700Y-12337262D01*
X17536700Y-12337262D02*
X17508129Y-12337262D01*
X17508129Y-12337262D02*
X17489081Y-12327739D01*
X17489081Y-12327739D02*
X17479557Y-12308691D01*
X17479557Y-12308691D02*
X17479557Y-12299167D01*
X17479557Y-12299167D02*
X17489081Y-12280120D01*
X17489081Y-12280120D02*
X17508129Y-12270596D01*
X17508129Y-12270596D02*
X17536700Y-12270596D01*
X17536700Y-12270596D02*
X17555748Y-12280120D01*
X17803367Y-12327739D02*
X17955748Y-12327739D01*
X17879557Y-12403929D02*
X17879557Y-12251548D01*
X18193843Y-12222977D02*
X18203367Y-12213453D01*
X18203367Y-12213453D02*
X18222415Y-12203929D01*
X18222415Y-12203929D02*
X18270034Y-12203929D01*
X18270034Y-12203929D02*
X18289081Y-12213453D01*
X18289081Y-12213453D02*
X18298605Y-12222977D01*
X18298605Y-12222977D02*
X18308129Y-12242024D01*
X18308129Y-12242024D02*
X18308129Y-12261072D01*
X18308129Y-12261072D02*
X18298605Y-12289643D01*
X18298605Y-12289643D02*
X18184319Y-12403929D01*
X18184319Y-12403929D02*
X18308129Y-12403929D01*
X18536700Y-12394405D02*
X18555748Y-12403929D01*
X18555748Y-12403929D02*
X18593843Y-12403929D01*
X18593843Y-12403929D02*
X18612891Y-12394405D01*
X18612891Y-12394405D02*
X18622415Y-12375358D01*
X18622415Y-12375358D02*
X18622415Y-12365834D01*
X18622415Y-12365834D02*
X18612891Y-12346786D01*
X18612891Y-12346786D02*
X18593843Y-12337262D01*
X18593843Y-12337262D02*
X18565272Y-12337262D01*
X18565272Y-12337262D02*
X18546224Y-12327739D01*
X18546224Y-12327739D02*
X18536700Y-12308691D01*
X18536700Y-12308691D02*
X18536700Y-12299167D01*
X18536700Y-12299167D02*
X18546224Y-12280120D01*
X18546224Y-12280120D02*
X18565272Y-12270596D01*
X18565272Y-12270596D02*
X18593843Y-12270596D01*
X18593843Y-12270596D02*
X18612891Y-12280120D01*
X18736700Y-12403929D02*
X18717653Y-12394405D01*
X18717653Y-12394405D02*
X18708129Y-12375358D01*
X18708129Y-12375358D02*
X18708129Y-12203929D01*
X18841462Y-12403929D02*
X18822415Y-12394405D01*
X18822415Y-12394405D02*
X18812891Y-12384881D01*
X18812891Y-12384881D02*
X18803367Y-12365834D01*
X18803367Y-12365834D02*
X18803367Y-12308691D01*
X18803367Y-12308691D02*
X18812891Y-12289643D01*
X18812891Y-12289643D02*
X18822415Y-12280120D01*
X18822415Y-12280120D02*
X18841462Y-12270596D01*
X18841462Y-12270596D02*
X18870034Y-12270596D01*
X18870034Y-12270596D02*
X18889081Y-12280120D01*
X18889081Y-12280120D02*
X18898605Y-12289643D01*
X18898605Y-12289643D02*
X18908129Y-12308691D01*
X18908129Y-12308691D02*
X18908129Y-12365834D01*
X18908129Y-12365834D02*
X18898605Y-12384881D01*
X18898605Y-12384881D02*
X18889081Y-12394405D01*
X18889081Y-12394405D02*
X18870034Y-12403929D01*
X18870034Y-12403929D02*
X18841462Y-12403929D01*
X18965272Y-12270596D02*
X19041462Y-12270596D01*
X18993843Y-12203929D02*
X18993843Y-12375358D01*
X18993843Y-12375358D02*
X19003367Y-12394405D01*
X19003367Y-12394405D02*
X19022415Y-12403929D01*
X19022415Y-12403929D02*
X19041462Y-12403929D01*
X19098605Y-12394405D02*
X19117653Y-12403929D01*
X19117653Y-12403929D02*
X19155748Y-12403929D01*
X19155748Y-12403929D02*
X19174796Y-12394405D01*
X19174796Y-12394405D02*
X19184319Y-12375358D01*
X19184319Y-12375358D02*
X19184319Y-12365834D01*
X19184319Y-12365834D02*
X19174796Y-12346786D01*
X19174796Y-12346786D02*
X19155748Y-12337262D01*
X19155748Y-12337262D02*
X19127177Y-12337262D01*
X19127177Y-12337262D02*
X19108129Y-12327739D01*
X19108129Y-12327739D02*
X19098605Y-12308691D01*
X19098605Y-12308691D02*
X19098605Y-12299167D01*
X19098605Y-12299167D02*
X19108129Y-12280120D01*
X19108129Y-12280120D02*
X19127177Y-12270596D01*
X19127177Y-12270596D02*
X19155748Y-12270596D01*
X19155748Y-12270596D02*
X19174796Y-12280120D01*
X19250986Y-12480120D02*
X19260510Y-12470596D01*
X19260510Y-12470596D02*
X19279558Y-12442024D01*
X19279558Y-12442024D02*
X19289081Y-12422977D01*
X19289081Y-12422977D02*
X19298605Y-12394405D01*
X19298605Y-12394405D02*
X19308129Y-12346786D01*
X19308129Y-12346786D02*
X19308129Y-12308691D01*
X19308129Y-12308691D02*
X19298605Y-12261072D01*
X19298605Y-12261072D02*
X19289081Y-12232501D01*
X19289081Y-12232501D02*
X19279558Y-12213453D01*
X19279558Y-12213453D02*
X19260510Y-12184881D01*
X19260510Y-12184881D02*
X19250986Y-12175358D01*
D12*
X12831875Y-12551445D02*
X12831875Y-12601445D01*
X12806875Y-12576445D02*
X12856875Y-12576445D01*
D11*
X13155747Y-12467929D02*
X13174795Y-12467929D01*
X13174795Y-12467929D02*
X13193843Y-12477453D01*
X13193843Y-12477453D02*
X13203366Y-12486977D01*
X13203366Y-12486977D02*
X13212890Y-12506024D01*
X13212890Y-12506024D02*
X13222414Y-12544120D01*
X13222414Y-12544120D02*
X13222414Y-12591739D01*
X13222414Y-12591739D02*
X13212890Y-12629834D01*
X13212890Y-12629834D02*
X13203366Y-12648881D01*
X13203366Y-12648881D02*
X13193843Y-12658405D01*
X13193843Y-12658405D02*
X13174795Y-12667929D01*
X13174795Y-12667929D02*
X13155747Y-12667929D01*
X13155747Y-12667929D02*
X13136700Y-12658405D01*
X13136700Y-12658405D02*
X13127176Y-12648881D01*
X13127176Y-12648881D02*
X13117652Y-12629834D01*
X13117652Y-12629834D02*
X13108128Y-12591739D01*
X13108128Y-12591739D02*
X13108128Y-12544120D01*
X13108128Y-12544120D02*
X13117652Y-12506024D01*
X13117652Y-12506024D02*
X13127176Y-12486977D01*
X13127176Y-12486977D02*
X13136700Y-12477453D01*
X13136700Y-12477453D02*
X13155747Y-12467929D01*
X13308128Y-12648881D02*
X13317652Y-12658405D01*
X13317652Y-12658405D02*
X13308128Y-12667929D01*
X13308128Y-12667929D02*
X13298604Y-12658405D01*
X13298604Y-12658405D02*
X13308128Y-12648881D01*
X13308128Y-12648881D02*
X13308128Y-12667929D01*
X13498604Y-12467929D02*
X13403366Y-12467929D01*
X13403366Y-12467929D02*
X13393843Y-12563167D01*
X13393843Y-12563167D02*
X13403366Y-12553643D01*
X13403366Y-12553643D02*
X13422414Y-12544120D01*
X13422414Y-12544120D02*
X13470033Y-12544120D01*
X13470033Y-12544120D02*
X13489081Y-12553643D01*
X13489081Y-12553643D02*
X13498604Y-12563167D01*
X13498604Y-12563167D02*
X13508128Y-12582215D01*
X13508128Y-12582215D02*
X13508128Y-12629834D01*
X13508128Y-12629834D02*
X13498604Y-12648881D01*
X13498604Y-12648881D02*
X13489081Y-12658405D01*
X13489081Y-12658405D02*
X13470033Y-12667929D01*
X13470033Y-12667929D02*
X13422414Y-12667929D01*
X13422414Y-12667929D02*
X13403366Y-12658405D01*
X13403366Y-12658405D02*
X13393843Y-12648881D01*
X13631938Y-12467929D02*
X13650985Y-12467929D01*
X13650985Y-12467929D02*
X13670033Y-12477453D01*
X13670033Y-12477453D02*
X13679557Y-12486977D01*
X13679557Y-12486977D02*
X13689081Y-12506024D01*
X13689081Y-12506024D02*
X13698604Y-12544120D01*
X13698604Y-12544120D02*
X13698604Y-12591739D01*
X13698604Y-12591739D02*
X13689081Y-12629834D01*
X13689081Y-12629834D02*
X13679557Y-12648881D01*
X13679557Y-12648881D02*
X13670033Y-12658405D01*
X13670033Y-12658405D02*
X13650985Y-12667929D01*
X13650985Y-12667929D02*
X13631938Y-12667929D01*
X13631938Y-12667929D02*
X13612890Y-12658405D01*
X13612890Y-12658405D02*
X13603366Y-12648881D01*
X13603366Y-12648881D02*
X13593843Y-12629834D01*
X13593843Y-12629834D02*
X13584319Y-12591739D01*
X13584319Y-12591739D02*
X13584319Y-12544120D01*
X13584319Y-12544120D02*
X13593843Y-12506024D01*
X13593843Y-12506024D02*
X13603366Y-12486977D01*
X13603366Y-12486977D02*
X13612890Y-12477453D01*
X13612890Y-12477453D02*
X13631938Y-12467929D01*
X13822414Y-12467929D02*
X13841462Y-12467929D01*
X13841462Y-12467929D02*
X13860509Y-12477453D01*
X13860509Y-12477453D02*
X13870033Y-12486977D01*
X13870033Y-12486977D02*
X13879557Y-12506024D01*
X13879557Y-12506024D02*
X13889081Y-12544120D01*
X13889081Y-12544120D02*
X13889081Y-12591739D01*
X13889081Y-12591739D02*
X13879557Y-12629834D01*
X13879557Y-12629834D02*
X13870033Y-12648881D01*
X13870033Y-12648881D02*
X13860509Y-12658405D01*
X13860509Y-12658405D02*
X13841462Y-12667929D01*
X13841462Y-12667929D02*
X13822414Y-12667929D01*
X13822414Y-12667929D02*
X13803366Y-12658405D01*
X13803366Y-12658405D02*
X13793843Y-12648881D01*
X13793843Y-12648881D02*
X13784319Y-12629834D01*
X13784319Y-12629834D02*
X13774795Y-12591739D01*
X13774795Y-12591739D02*
X13774795Y-12544120D01*
X13774795Y-12544120D02*
X13784319Y-12506024D01*
X13784319Y-12506024D02*
X13793843Y-12486977D01*
X13793843Y-12486977D02*
X13803366Y-12477453D01*
X13803366Y-12477453D02*
X13822414Y-12467929D01*
X13974795Y-12667929D02*
X13974795Y-12534596D01*
X13974795Y-12553643D02*
X13984319Y-12544120D01*
X13984319Y-12544120D02*
X14003366Y-12534596D01*
X14003366Y-12534596D02*
X14031938Y-12534596D01*
X14031938Y-12534596D02*
X14050985Y-12544120D01*
X14050985Y-12544120D02*
X14060509Y-12563167D01*
X14060509Y-12563167D02*
X14060509Y-12667929D01*
X14060509Y-12563167D02*
X14070033Y-12544120D01*
X14070033Y-12544120D02*
X14089081Y-12534596D01*
X14089081Y-12534596D02*
X14117652Y-12534596D01*
X14117652Y-12534596D02*
X14136700Y-12544120D01*
X14136700Y-12544120D02*
X14146224Y-12563167D01*
X14146224Y-12563167D02*
X14146224Y-12667929D01*
X14241462Y-12667929D02*
X14241462Y-12534596D01*
X14241462Y-12553643D02*
X14250985Y-12544120D01*
X14250985Y-12544120D02*
X14270033Y-12534596D01*
X14270033Y-12534596D02*
X14298605Y-12534596D01*
X14298605Y-12534596D02*
X14317652Y-12544120D01*
X14317652Y-12544120D02*
X14327176Y-12563167D01*
X14327176Y-12563167D02*
X14327176Y-12667929D01*
X14327176Y-12563167D02*
X14336700Y-12544120D01*
X14336700Y-12544120D02*
X14355747Y-12534596D01*
X14355747Y-12534596D02*
X14384319Y-12534596D01*
X14384319Y-12534596D02*
X14403366Y-12544120D01*
X14403366Y-12544120D02*
X14412890Y-12563167D01*
X14412890Y-12563167D02*
X14412890Y-12667929D01*
X14803366Y-12458405D02*
X14631938Y-12715548D01*
X15060509Y-12467929D02*
X15079557Y-12467929D01*
X15079557Y-12467929D02*
X15098605Y-12477453D01*
X15098605Y-12477453D02*
X15108128Y-12486977D01*
X15108128Y-12486977D02*
X15117652Y-12506024D01*
X15117652Y-12506024D02*
X15127176Y-12544120D01*
X15127176Y-12544120D02*
X15127176Y-12591739D01*
X15127176Y-12591739D02*
X15117652Y-12629834D01*
X15117652Y-12629834D02*
X15108128Y-12648881D01*
X15108128Y-12648881D02*
X15098605Y-12658405D01*
X15098605Y-12658405D02*
X15079557Y-12667929D01*
X15079557Y-12667929D02*
X15060509Y-12667929D01*
X15060509Y-12667929D02*
X15041462Y-12658405D01*
X15041462Y-12658405D02*
X15031938Y-12648881D01*
X15031938Y-12648881D02*
X15022414Y-12629834D01*
X15022414Y-12629834D02*
X15012890Y-12591739D01*
X15012890Y-12591739D02*
X15012890Y-12544120D01*
X15012890Y-12544120D02*
X15022414Y-12506024D01*
X15022414Y-12506024D02*
X15031938Y-12486977D01*
X15031938Y-12486977D02*
X15041462Y-12477453D01*
X15041462Y-12477453D02*
X15060509Y-12467929D01*
X15212890Y-12648881D02*
X15222414Y-12658405D01*
X15222414Y-12658405D02*
X15212890Y-12667929D01*
X15212890Y-12667929D02*
X15203367Y-12658405D01*
X15203367Y-12658405D02*
X15212890Y-12648881D01*
X15212890Y-12648881D02*
X15212890Y-12667929D01*
X15346224Y-12467929D02*
X15365271Y-12467929D01*
X15365271Y-12467929D02*
X15384319Y-12477453D01*
X15384319Y-12477453D02*
X15393843Y-12486977D01*
X15393843Y-12486977D02*
X15403367Y-12506024D01*
X15403367Y-12506024D02*
X15412890Y-12544120D01*
X15412890Y-12544120D02*
X15412890Y-12591739D01*
X15412890Y-12591739D02*
X15403367Y-12629834D01*
X15403367Y-12629834D02*
X15393843Y-12648881D01*
X15393843Y-12648881D02*
X15384319Y-12658405D01*
X15384319Y-12658405D02*
X15365271Y-12667929D01*
X15365271Y-12667929D02*
X15346224Y-12667929D01*
X15346224Y-12667929D02*
X15327176Y-12658405D01*
X15327176Y-12658405D02*
X15317652Y-12648881D01*
X15317652Y-12648881D02*
X15308128Y-12629834D01*
X15308128Y-12629834D02*
X15298605Y-12591739D01*
X15298605Y-12591739D02*
X15298605Y-12544120D01*
X15298605Y-12544120D02*
X15308128Y-12506024D01*
X15308128Y-12506024D02*
X15317652Y-12486977D01*
X15317652Y-12486977D02*
X15327176Y-12477453D01*
X15327176Y-12477453D02*
X15346224Y-12467929D01*
X15603367Y-12667929D02*
X15489081Y-12667929D01*
X15546224Y-12667929D02*
X15546224Y-12467929D01*
X15546224Y-12467929D02*
X15527176Y-12496501D01*
X15527176Y-12496501D02*
X15508128Y-12515548D01*
X15508128Y-12515548D02*
X15489081Y-12525072D01*
X15698605Y-12667929D02*
X15736700Y-12667929D01*
X15736700Y-12667929D02*
X15755748Y-12658405D01*
X15755748Y-12658405D02*
X15765271Y-12648881D01*
X15765271Y-12648881D02*
X15784319Y-12620310D01*
X15784319Y-12620310D02*
X15793843Y-12582215D01*
X15793843Y-12582215D02*
X15793843Y-12506024D01*
X15793843Y-12506024D02*
X15784319Y-12486977D01*
X15784319Y-12486977D02*
X15774795Y-12477453D01*
X15774795Y-12477453D02*
X15755748Y-12467929D01*
X15755748Y-12467929D02*
X15717652Y-12467929D01*
X15717652Y-12467929D02*
X15698605Y-12477453D01*
X15698605Y-12477453D02*
X15689081Y-12486977D01*
X15689081Y-12486977D02*
X15679557Y-12506024D01*
X15679557Y-12506024D02*
X15679557Y-12553643D01*
X15679557Y-12553643D02*
X15689081Y-12572691D01*
X15689081Y-12572691D02*
X15698605Y-12582215D01*
X15698605Y-12582215D02*
X15717652Y-12591739D01*
X15717652Y-12591739D02*
X15755748Y-12591739D01*
X15755748Y-12591739D02*
X15774795Y-12582215D01*
X15774795Y-12582215D02*
X15784319Y-12572691D01*
X15784319Y-12572691D02*
X15793843Y-12553643D01*
X15860509Y-12467929D02*
X15993843Y-12467929D01*
X15993843Y-12467929D02*
X15908128Y-12667929D01*
X16060509Y-12467929D02*
X16060509Y-12506024D01*
X16136700Y-12467929D02*
X16136700Y-12506024D01*
X16431938Y-12744120D02*
X16422414Y-12734596D01*
X16422414Y-12734596D02*
X16403367Y-12706024D01*
X16403367Y-12706024D02*
X16393843Y-12686977D01*
X16393843Y-12686977D02*
X16384319Y-12658405D01*
X16384319Y-12658405D02*
X16374795Y-12610786D01*
X16374795Y-12610786D02*
X16374795Y-12572691D01*
X16374795Y-12572691D02*
X16384319Y-12525072D01*
X16384319Y-12525072D02*
X16393843Y-12496501D01*
X16393843Y-12496501D02*
X16403367Y-12477453D01*
X16403367Y-12477453D02*
X16422414Y-12448881D01*
X16422414Y-12448881D02*
X16431938Y-12439358D01*
X16546224Y-12467929D02*
X16565271Y-12467929D01*
X16565271Y-12467929D02*
X16584319Y-12477453D01*
X16584319Y-12477453D02*
X16593843Y-12486977D01*
X16593843Y-12486977D02*
X16603367Y-12506024D01*
X16603367Y-12506024D02*
X16612890Y-12544120D01*
X16612890Y-12544120D02*
X16612890Y-12591739D01*
X16612890Y-12591739D02*
X16603367Y-12629834D01*
X16603367Y-12629834D02*
X16593843Y-12648881D01*
X16593843Y-12648881D02*
X16584319Y-12658405D01*
X16584319Y-12658405D02*
X16565271Y-12667929D01*
X16565271Y-12667929D02*
X16546224Y-12667929D01*
X16546224Y-12667929D02*
X16527176Y-12658405D01*
X16527176Y-12658405D02*
X16517652Y-12648881D01*
X16517652Y-12648881D02*
X16508129Y-12629834D01*
X16508129Y-12629834D02*
X16498605Y-12591739D01*
X16498605Y-12591739D02*
X16498605Y-12544120D01*
X16498605Y-12544120D02*
X16508129Y-12506024D01*
X16508129Y-12506024D02*
X16517652Y-12486977D01*
X16517652Y-12486977D02*
X16527176Y-12477453D01*
X16527176Y-12477453D02*
X16546224Y-12467929D01*
X16850986Y-12667929D02*
X16850986Y-12467929D01*
X16936700Y-12667929D02*
X16936700Y-12563167D01*
X16936700Y-12563167D02*
X16927176Y-12544120D01*
X16927176Y-12544120D02*
X16908129Y-12534596D01*
X16908129Y-12534596D02*
X16879557Y-12534596D01*
X16879557Y-12534596D02*
X16860510Y-12544120D01*
X16860510Y-12544120D02*
X16850986Y-12553643D01*
X17060510Y-12667929D02*
X17041462Y-12658405D01*
X17041462Y-12658405D02*
X17031938Y-12648881D01*
X17031938Y-12648881D02*
X17022414Y-12629834D01*
X17022414Y-12629834D02*
X17022414Y-12572691D01*
X17022414Y-12572691D02*
X17031938Y-12553643D01*
X17031938Y-12553643D02*
X17041462Y-12544120D01*
X17041462Y-12544120D02*
X17060510Y-12534596D01*
X17060510Y-12534596D02*
X17089081Y-12534596D01*
X17089081Y-12534596D02*
X17108129Y-12544120D01*
X17108129Y-12544120D02*
X17117653Y-12553643D01*
X17117653Y-12553643D02*
X17127176Y-12572691D01*
X17127176Y-12572691D02*
X17127176Y-12629834D01*
X17127176Y-12629834D02*
X17117653Y-12648881D01*
X17117653Y-12648881D02*
X17108129Y-12658405D01*
X17108129Y-12658405D02*
X17089081Y-12667929D01*
X17089081Y-12667929D02*
X17060510Y-12667929D01*
X17241462Y-12667929D02*
X17222414Y-12658405D01*
X17222414Y-12658405D02*
X17212891Y-12639358D01*
X17212891Y-12639358D02*
X17212891Y-12467929D01*
X17393843Y-12658405D02*
X17374795Y-12667929D01*
X17374795Y-12667929D02*
X17336700Y-12667929D01*
X17336700Y-12667929D02*
X17317653Y-12658405D01*
X17317653Y-12658405D02*
X17308129Y-12639358D01*
X17308129Y-12639358D02*
X17308129Y-12563167D01*
X17308129Y-12563167D02*
X17317653Y-12544120D01*
X17317653Y-12544120D02*
X17336700Y-12534596D01*
X17336700Y-12534596D02*
X17374795Y-12534596D01*
X17374795Y-12534596D02*
X17393843Y-12544120D01*
X17393843Y-12544120D02*
X17403367Y-12563167D01*
X17403367Y-12563167D02*
X17403367Y-12582215D01*
X17403367Y-12582215D02*
X17308129Y-12601262D01*
X17479557Y-12658405D02*
X17498605Y-12667929D01*
X17498605Y-12667929D02*
X17536700Y-12667929D01*
X17536700Y-12667929D02*
X17555748Y-12658405D01*
X17555748Y-12658405D02*
X17565272Y-12639358D01*
X17565272Y-12639358D02*
X17565272Y-12629834D01*
X17565272Y-12629834D02*
X17555748Y-12610786D01*
X17555748Y-12610786D02*
X17536700Y-12601262D01*
X17536700Y-12601262D02*
X17508129Y-12601262D01*
X17508129Y-12601262D02*
X17489081Y-12591739D01*
X17489081Y-12591739D02*
X17479557Y-12572691D01*
X17479557Y-12572691D02*
X17479557Y-12563167D01*
X17479557Y-12563167D02*
X17489081Y-12544120D01*
X17489081Y-12544120D02*
X17508129Y-12534596D01*
X17508129Y-12534596D02*
X17536700Y-12534596D01*
X17536700Y-12534596D02*
X17555748Y-12544120D01*
X17803367Y-12591739D02*
X17955748Y-12591739D01*
X17879557Y-12667929D02*
X17879557Y-12515548D01*
X18193843Y-12486977D02*
X18203367Y-12477453D01*
X18203367Y-12477453D02*
X18222415Y-12467929D01*
X18222415Y-12467929D02*
X18270034Y-12467929D01*
X18270034Y-12467929D02*
X18289081Y-12477453D01*
X18289081Y-12477453D02*
X18298605Y-12486977D01*
X18298605Y-12486977D02*
X18308129Y-12506024D01*
X18308129Y-12506024D02*
X18308129Y-12525072D01*
X18308129Y-12525072D02*
X18298605Y-12553643D01*
X18298605Y-12553643D02*
X18184319Y-12667929D01*
X18184319Y-12667929D02*
X18308129Y-12667929D01*
X18536700Y-12658405D02*
X18555748Y-12667929D01*
X18555748Y-12667929D02*
X18593843Y-12667929D01*
X18593843Y-12667929D02*
X18612891Y-12658405D01*
X18612891Y-12658405D02*
X18622415Y-12639358D01*
X18622415Y-12639358D02*
X18622415Y-12629834D01*
X18622415Y-12629834D02*
X18612891Y-12610786D01*
X18612891Y-12610786D02*
X18593843Y-12601262D01*
X18593843Y-12601262D02*
X18565272Y-12601262D01*
X18565272Y-12601262D02*
X18546224Y-12591739D01*
X18546224Y-12591739D02*
X18536700Y-12572691D01*
X18536700Y-12572691D02*
X18536700Y-12563167D01*
X18536700Y-12563167D02*
X18546224Y-12544120D01*
X18546224Y-12544120D02*
X18565272Y-12534596D01*
X18565272Y-12534596D02*
X18593843Y-12534596D01*
X18593843Y-12534596D02*
X18612891Y-12544120D01*
X18736700Y-12667929D02*
X18717653Y-12658405D01*
X18717653Y-12658405D02*
X18708129Y-12639358D01*
X18708129Y-12639358D02*
X18708129Y-12467929D01*
X18841462Y-12667929D02*
X18822415Y-12658405D01*
X18822415Y-12658405D02*
X18812891Y-12648881D01*
X18812891Y-12648881D02*
X18803367Y-12629834D01*
X18803367Y-12629834D02*
X18803367Y-12572691D01*
X18803367Y-12572691D02*
X18812891Y-12553643D01*
X18812891Y-12553643D02*
X18822415Y-12544120D01*
X18822415Y-12544120D02*
X18841462Y-12534596D01*
X18841462Y-12534596D02*
X18870034Y-12534596D01*
X18870034Y-12534596D02*
X18889081Y-12544120D01*
X18889081Y-12544120D02*
X18898605Y-12553643D01*
X18898605Y-12553643D02*
X18908129Y-12572691D01*
X18908129Y-12572691D02*
X18908129Y-12629834D01*
X18908129Y-12629834D02*
X18898605Y-12648881D01*
X18898605Y-12648881D02*
X18889081Y-12658405D01*
X18889081Y-12658405D02*
X18870034Y-12667929D01*
X18870034Y-12667929D02*
X18841462Y-12667929D01*
X18965272Y-12534596D02*
X19041462Y-12534596D01*
X18993843Y-12467929D02*
X18993843Y-12639358D01*
X18993843Y-12639358D02*
X19003367Y-12658405D01*
X19003367Y-12658405D02*
X19022415Y-12667929D01*
X19022415Y-12667929D02*
X19041462Y-12667929D01*
X19098605Y-12658405D02*
X19117653Y-12667929D01*
X19117653Y-12667929D02*
X19155748Y-12667929D01*
X19155748Y-12667929D02*
X19174796Y-12658405D01*
X19174796Y-12658405D02*
X19184319Y-12639358D01*
X19184319Y-12639358D02*
X19184319Y-12629834D01*
X19184319Y-12629834D02*
X19174796Y-12610786D01*
X19174796Y-12610786D02*
X19155748Y-12601262D01*
X19155748Y-12601262D02*
X19127177Y-12601262D01*
X19127177Y-12601262D02*
X19108129Y-12591739D01*
X19108129Y-12591739D02*
X19098605Y-12572691D01*
X19098605Y-12572691D02*
X19098605Y-12563167D01*
X19098605Y-12563167D02*
X19108129Y-12544120D01*
X19108129Y-12544120D02*
X19127177Y-12534596D01*
X19127177Y-12534596D02*
X19155748Y-12534596D01*
X19155748Y-12534596D02*
X19174796Y-12544120D01*
X19250986Y-12744120D02*
X19260510Y-12734596D01*
X19260510Y-12734596D02*
X19279558Y-12706024D01*
X19279558Y-12706024D02*
X19289081Y-12686977D01*
X19289081Y-12686977D02*
X19298605Y-12658405D01*
X19298605Y-12658405D02*
X19308129Y-12610786D01*
X19308129Y-12610786D02*
X19308129Y-12572691D01*
X19308129Y-12572691D02*
X19298605Y-12525072D01*
X19298605Y-12525072D02*
X19289081Y-12496501D01*
X19289081Y-12496501D02*
X19279558Y-12477453D01*
X19279558Y-12477453D02*
X19260510Y-12448881D01*
X19260510Y-12448881D02*
X19250986Y-12439358D01*
M02*
