G04 #@! TF.GenerationSoftware,KiCad,Pcbnew,8.0.1*
G04 #@! TF.CreationDate,2024-04-22T06:17:08+03:00*
G04 #@! TF.ProjectId,IMU module,494d5520-6d6f-4647-956c-652e6b696361,rev?*
G04 #@! TF.SameCoordinates,Original*
G04 #@! TF.FileFunction,Paste,Top*
G04 #@! TF.FilePolarity,Positive*
%FSLAX46Y46*%
G04 Gerber Fmt 4.6, Leading zero omitted, Abs format (unit mm)*
G04 Created by KiCad (PCBNEW 8.0.1) date 2024-04-22 06:17:08*
%MOMM*%
%LPD*%
G01*
G04 APERTURE LIST*
G04 Aperture macros list*
%AMRoundRect*
0 Rectangle with rounded corners*
0 $1 Rounding radius*
0 $2 $3 $4 $5 $6 $7 $8 $9 X,Y pos of 4 corners*
0 Add a 4 corners polygon primitive as box body*
4,1,4,$2,$3,$4,$5,$6,$7,$8,$9,$2,$3,0*
0 Add four circle primitives for the rounded corners*
1,1,$1+$1,$2,$3*
1,1,$1+$1,$4,$5*
1,1,$1+$1,$6,$7*
1,1,$1+$1,$8,$9*
0 Add four rect primitives between the rounded corners*
20,1,$1+$1,$2,$3,$4,$5,0*
20,1,$1+$1,$4,$5,$6,$7,0*
20,1,$1+$1,$6,$7,$8,$9,0*
20,1,$1+$1,$8,$9,$2,$3,0*%
G04 Aperture macros list end*
%ADD10RoundRect,0.250000X-0.300000X0.300000X-0.300000X-0.300000X0.300000X-0.300000X0.300000X0.300000X0*%
%ADD11RoundRect,0.225000X-0.225000X-0.250000X0.225000X-0.250000X0.225000X0.250000X-0.225000X0.250000X0*%
%ADD12RoundRect,0.250000X-0.625000X0.375000X-0.625000X-0.375000X0.625000X-0.375000X0.625000X0.375000X0*%
%ADD13RoundRect,0.200000X-0.200000X-0.275000X0.200000X-0.275000X0.200000X0.275000X-0.200000X0.275000X0*%
%ADD14R,0.975000X0.250000*%
%ADD15R,0.250000X0.975000*%
%ADD16RoundRect,0.200000X0.200000X0.275000X-0.200000X0.275000X-0.200000X-0.275000X0.200000X-0.275000X0*%
%ADD17RoundRect,0.225000X0.250000X-0.225000X0.250000X0.225000X-0.250000X0.225000X-0.250000X-0.225000X0*%
%ADD18RoundRect,0.150000X0.150000X-0.512500X0.150000X0.512500X-0.150000X0.512500X-0.150000X-0.512500X0*%
%ADD19RoundRect,0.200000X0.275000X-0.200000X0.275000X0.200000X-0.275000X0.200000X-0.275000X-0.200000X0*%
%ADD20RoundRect,0.225000X0.225000X0.250000X-0.225000X0.250000X-0.225000X-0.250000X0.225000X-0.250000X0*%
%ADD21RoundRect,0.250000X-0.300000X-0.300000X0.300000X-0.300000X0.300000X0.300000X-0.300000X0.300000X0*%
%ADD22R,1.500000X0.900000*%
%ADD23RoundRect,0.200000X-0.275000X0.200000X-0.275000X-0.200000X0.275000X-0.200000X0.275000X0.200000X0*%
%ADD24R,1.800000X0.400000*%
%ADD25RoundRect,0.062500X-0.525000X-0.062500X0.525000X-0.062500X0.525000X0.062500X-0.525000X0.062500X0*%
%ADD26RoundRect,0.062500X-0.062500X0.525000X-0.062500X-0.525000X0.062500X-0.525000X0.062500X0.525000X0*%
%ADD27R,0.700000X1.500000*%
%ADD28R,1.000000X0.800000*%
%ADD29RoundRect,0.225000X-0.250000X0.225000X-0.250000X-0.225000X0.250000X-0.225000X0.250000X0.225000X0*%
%ADD30RoundRect,0.200000X0.600000X-0.200000X0.600000X0.200000X-0.600000X0.200000X-0.600000X-0.200000X0*%
%ADD31RoundRect,0.250001X1.249999X-0.799999X1.249999X0.799999X-1.249999X0.799999X-1.249999X-0.799999X0*%
%ADD32R,1.200000X1.400000*%
%ADD33RoundRect,0.150000X0.825000X0.150000X-0.825000X0.150000X-0.825000X-0.150000X0.825000X-0.150000X0*%
%ADD34RoundRect,0.250000X0.250000X-0.750000X0.250000X0.750000X-0.250000X0.750000X-0.250000X-0.750000X0*%
%ADD35RoundRect,0.150000X-0.512500X-0.150000X0.512500X-0.150000X0.512500X0.150000X-0.512500X0.150000X0*%
%ADD36RoundRect,0.150000X-0.150000X0.650000X-0.150000X-0.650000X0.150000X-0.650000X0.150000X0.650000X0*%
%ADD37RoundRect,0.200000X-0.600000X0.200000X-0.600000X-0.200000X0.600000X-0.200000X0.600000X0.200000X0*%
%ADD38RoundRect,0.250001X-1.249999X0.799999X-1.249999X-0.799999X1.249999X-0.799999X1.249999X0.799999X0*%
%ADD39RoundRect,0.075000X0.075000X-0.662500X0.075000X0.662500X-0.075000X0.662500X-0.075000X-0.662500X0*%
%ADD40RoundRect,0.075000X0.662500X-0.075000X0.662500X0.075000X-0.662500X0.075000X-0.662500X-0.075000X0*%
G04 APERTURE END LIST*
D10*
X136549753Y-96747454D03*
X136549753Y-99547454D03*
D11*
X151781753Y-108894454D03*
X153331753Y-108894454D03*
D12*
X136534753Y-110433454D03*
X136534753Y-113233454D03*
D11*
X151781753Y-107434454D03*
X153331753Y-107434454D03*
D13*
X160935753Y-95604454D03*
X162585753Y-95604454D03*
D14*
X154651253Y-110030454D03*
X154651253Y-110530454D03*
X154651253Y-111030454D03*
X154651253Y-111530454D03*
D15*
X155613753Y-111980954D03*
X156113753Y-111980954D03*
X156613753Y-111980954D03*
D14*
X157576253Y-111518454D03*
X157576253Y-111018454D03*
X157576253Y-110518454D03*
X157576253Y-110018454D03*
D15*
X156613753Y-109555954D03*
X156113753Y-109555954D03*
X155613753Y-109555954D03*
D11*
X158937753Y-109709454D03*
X160487753Y-109709454D03*
D16*
X140797753Y-103395454D03*
X139147753Y-103395454D03*
D17*
X156887753Y-98954454D03*
X156887753Y-97404454D03*
D11*
X136101753Y-89648454D03*
X137651753Y-89648454D03*
D17*
X146730753Y-107539454D03*
X146730753Y-105989454D03*
D18*
X136147753Y-93570454D03*
X137097753Y-93570454D03*
X138047753Y-93570454D03*
X138047753Y-91295454D03*
X136147753Y-91295454D03*
D19*
X162551000Y-101618000D03*
X162551000Y-99968000D03*
D20*
X140618753Y-89648454D03*
X139068753Y-89648454D03*
D12*
X142580753Y-100454454D03*
X142580753Y-103254454D03*
D17*
X143531753Y-107614454D03*
X143531753Y-106064454D03*
D21*
X136200753Y-101504454D03*
X139000753Y-101504454D03*
D22*
X161890753Y-91334454D03*
X158790753Y-91334454D03*
X158790753Y-89934454D03*
X161890753Y-89934454D03*
D23*
X161930753Y-109639454D03*
X161930753Y-111289454D03*
D17*
X145060753Y-100639454D03*
X145060753Y-99089454D03*
D24*
X164350753Y-95265454D03*
X164350753Y-94615454D03*
X164350753Y-93965454D03*
X164350753Y-93315454D03*
X164350753Y-92665454D03*
D25*
X145135753Y-90464454D03*
X145135753Y-90964454D03*
X145135753Y-91464454D03*
X145135753Y-91964454D03*
X145135753Y-92464454D03*
X145135753Y-92964454D03*
X145135753Y-93464454D03*
D26*
X143620753Y-94229454D03*
D25*
X142105753Y-93464454D03*
X142105753Y-92964454D03*
X142105753Y-92464454D03*
X142105753Y-91964454D03*
X142105753Y-91464454D03*
X142105753Y-90964454D03*
X142105753Y-90464454D03*
D26*
X143620753Y-89699454D03*
D27*
X154030753Y-93769454D03*
X151030753Y-93769454D03*
X149530753Y-93769454D03*
D28*
X155430753Y-93119454D03*
X155430753Y-90909454D03*
X148130753Y-93119454D03*
X148130753Y-90909454D03*
D29*
X146650753Y-90995454D03*
X146650753Y-92545454D03*
D19*
X145038753Y-108776454D03*
X145038753Y-107126454D03*
D30*
X164590753Y-109964454D03*
X164590753Y-108714454D03*
X164590753Y-107464454D03*
X164590753Y-106214454D03*
X164590753Y-104964454D03*
X164590753Y-103714454D03*
D31*
X167490753Y-112514454D03*
X167490753Y-101164454D03*
D17*
X158361753Y-98954454D03*
X158361753Y-97404454D03*
D29*
X147058753Y-95507454D03*
X147058753Y-97057454D03*
D23*
X162552753Y-102941454D03*
X162552753Y-104591454D03*
D16*
X142186753Y-110302454D03*
X140536753Y-110302454D03*
D19*
X154822753Y-107589454D03*
X154822753Y-105939454D03*
X143572753Y-110691454D03*
X143572753Y-109041454D03*
D29*
X162330753Y-97039454D03*
X162330753Y-98589454D03*
D20*
X153135753Y-110354454D03*
X151585753Y-110354454D03*
D32*
X148320753Y-107874454D03*
X148320753Y-110074454D03*
X150020753Y-110074454D03*
X150020753Y-107874454D03*
D33*
X141575753Y-108744454D03*
X141575753Y-107474454D03*
X141575753Y-106204454D03*
X141575753Y-104934454D03*
X136625753Y-104934454D03*
X136625753Y-106204454D03*
X136625753Y-107474454D03*
X136625753Y-108744454D03*
D29*
X160338753Y-111843954D03*
X160338753Y-113393954D03*
X158878753Y-111843954D03*
X158878753Y-113393954D03*
D34*
X140730753Y-96702454D03*
X145180753Y-96702454D03*
D23*
X162552753Y-105913454D03*
X162552753Y-107563454D03*
D16*
X137719753Y-103384454D03*
X136069753Y-103384454D03*
D19*
X155424753Y-97624454D03*
X155424753Y-95974454D03*
D16*
X162585753Y-93084454D03*
X160935753Y-93084454D03*
D11*
X136098753Y-95214454D03*
X137648753Y-95214454D03*
D35*
X157093253Y-93340454D03*
X157093253Y-94290454D03*
X157093253Y-95240454D03*
X159368253Y-95240454D03*
X159368253Y-94290454D03*
X159368253Y-93340454D03*
D36*
X160863753Y-100726454D03*
X159593753Y-100726454D03*
X158323753Y-100726454D03*
X157053753Y-100726454D03*
X157053753Y-107926454D03*
X158323753Y-107926454D03*
X159593753Y-107926454D03*
X160863753Y-107926454D03*
D29*
X145055753Y-104173454D03*
X145055753Y-105723454D03*
D37*
X134093753Y-103714454D03*
X134093753Y-104964454D03*
X134093753Y-106214454D03*
X134093753Y-107464454D03*
X134093753Y-108714454D03*
X134093753Y-109964454D03*
D38*
X131193753Y-101164454D03*
X131193753Y-112514454D03*
D37*
X134093753Y-93018454D03*
X134093753Y-94268454D03*
X134093753Y-95518454D03*
D38*
X131193753Y-90468454D03*
X131193753Y-98068454D03*
D10*
X138850753Y-96747454D03*
X138850753Y-99547454D03*
D23*
X156982753Y-90273454D03*
X156982753Y-91923454D03*
D11*
X155288753Y-113287954D03*
X156838753Y-113287954D03*
D17*
X146729753Y-110501454D03*
X146729753Y-108951454D03*
D29*
X140600753Y-92724454D03*
X140600753Y-94274454D03*
D19*
X140730753Y-101739454D03*
X140730753Y-100089454D03*
D39*
X148191753Y-105696954D03*
X148691753Y-105696954D03*
X149191753Y-105696954D03*
X149691753Y-105696954D03*
X150191753Y-105696954D03*
X150691753Y-105696954D03*
X151191753Y-105696954D03*
X151691753Y-105696954D03*
X152191753Y-105696954D03*
X152691753Y-105696954D03*
X153191753Y-105696954D03*
X153691753Y-105696954D03*
D40*
X155104253Y-104284454D03*
X155104253Y-103784454D03*
X155104253Y-103284454D03*
X155104253Y-102784454D03*
X155104253Y-102284454D03*
X155104253Y-101784454D03*
X155104253Y-101284454D03*
X155104253Y-100784454D03*
X155104253Y-100284454D03*
X155104253Y-99784454D03*
X155104253Y-99284454D03*
X155104253Y-98784454D03*
D39*
X153691753Y-97371954D03*
X153191753Y-97371954D03*
X152691753Y-97371954D03*
X152191753Y-97371954D03*
X151691753Y-97371954D03*
X151191753Y-97371954D03*
X150691753Y-97371954D03*
X150191753Y-97371954D03*
X149691753Y-97371954D03*
X149191753Y-97371954D03*
X148691753Y-97371954D03*
X148191753Y-97371954D03*
D40*
X146779253Y-98784454D03*
X146779253Y-99284454D03*
X146779253Y-99784454D03*
X146779253Y-100284454D03*
X146779253Y-100784454D03*
X146779253Y-101284454D03*
X146779253Y-101784454D03*
X146779253Y-102284454D03*
X146779253Y-102784454D03*
X146779253Y-103284454D03*
X146779253Y-103784454D03*
X146779253Y-104284454D03*
M02*
