M48
INCH,TZ
T1C0.0157
T2C0.0197
T3C0.0394
T4C0.0433
T5C0.1260
%
G90
G05
T1
X39600Y-42900
X39600Y-43300
X39600Y-43700
X39600Y-44100
X39600Y-44500
X40000Y-42900
X40000Y-43300
X40000Y-43700
X40000Y-44100
X40000Y-44500
X40400Y-42900
X40400Y-43300
X40400Y-43700
X40400Y-44100
X40400Y-44500
X40600Y-46950
X41000Y-44250
X41000Y-45000
X41339Y-46457
X41350Y-42800
X41500Y-39500
X41500Y-45450
X41600Y-42350
X41680Y-46950
X41900Y-39500
X42050Y-42900
X42150Y-42350
X42200Y-56900
X42300Y-39500
X42500Y-45100
X42500Y-45500
X42700Y-46000
X42760Y-46950
X42800Y-41200
X42900Y-45100
X42900Y-45500
X42950Y-42950
X43250Y-41200
X43300Y-45100
X43300Y-45500
X43350Y-56300
X43700Y-45100
X43700Y-45500
X43750Y-41200
X43800Y-50050
X43800Y-54550
X43840Y-46950
X43850Y-55400
X43900Y-46000
X44100Y-45100
X44100Y-45500
X44250Y-40000
X44250Y-40850
X44400Y-54550
X44450Y-49650
X44450Y-50390
X44450Y-51130
X44450Y-51870
X44450Y-52610
X44450Y-53350
X44500Y-45100
X44500Y-45500
X44650Y-40000
X44650Y-40850
X44650Y-56950
X44650Y-57750
X44900Y-45100
X44900Y-45500
X44920Y-46950
X45200Y-46100
X45300Y-45100
X45300Y-45500
X45300Y-56950
X45300Y-57750
X45400Y-51350
X45400Y-52071
X45400Y-52793
X45400Y-53514
X45700Y-45100
X45700Y-45500
X46000Y-46950
X46095Y-49623
X46100Y-43900
X46100Y-44300
X46100Y-44700
X46100Y-45100
X46100Y-45500
X46387Y-57000
X46400Y-46100
X46500Y-43900
X46500Y-44300
X46500Y-44700
X46500Y-45100
X46500Y-45500
X46568Y-49400
X46600Y-41000
X46800Y-50500
X46950Y-51350
X46950Y-52071
X46950Y-52793
X46950Y-53514
X47078Y-49243
X47100Y-42250
X47100Y-42957
X47100Y-43664
X47100Y-44371
X47100Y-45079
X47100Y-45786
X47400Y-46500
X47400Y-47150
X47650Y-47586
X48000Y-51850
X48000Y-52400
X48000Y-52950
X48144Y-45944
X48150Y-47586
X48150Y-57650
X48168Y-50593
X48168Y-51272
X48200Y-57100
X48350Y-43650
X48350Y-44371
X48350Y-45079
X48571Y-51965
X48571Y-52639
X48600Y-46050
X48633Y-57100
X48650Y-47586
X48663Y-48472
X48663Y-48866
X48800Y-57950
X49050Y-57100
X49100Y-40000
X49100Y-41100
X49100Y-46050
X49168Y-47500
X49500Y-40000
X49500Y-41100
X49600Y-46050
X49900Y-40300
X49900Y-40700
X49900Y-41100
X49900Y-51050
X49913Y-48669
X49913Y-49063
X50050Y-56050
X50050Y-56700
X50218Y-50440
X50300Y-49674
X50350Y-51050
X50388Y-53572
X50500Y-50047
X50900Y-51200
X51200Y-50800
X51542Y-55468
X51700Y-50735
X51900Y-56700
X51945Y-53465
X52050Y-55068
X52166Y-50783
X52265Y-44400
X52400Y-51100
X52450Y-56200
X52698Y-44400
X52700Y-55800
X52997Y-53105
X53056Y-49456
X53056Y-49850
X53056Y-50244
X53131Y-44400
X53150Y-55800
X53300Y-57350
X53350Y-53550
X53421Y-47289
X53565Y-44400
X53800Y-54000
X53998Y-44400
X54059Y-56659
X54250Y-54450
X54431Y-44400
X54629Y-49850
X54750Y-54950
X54821Y-50389
X54850Y-51550
X55100Y-46700
X55100Y-47300
X55100Y-50827
X55200Y-49100
X55200Y-55400
X55500Y-46000
X55500Y-48400
X55600Y-49400
X55659Y-56659
X55700Y-46700
X56150Y-56300
X56300Y-50100
X56350Y-47850
X56500Y-53450
X56809Y-48764
X56900Y-46900
X56900Y-47850
X57175Y-53450
X57234Y-46600
X57416Y-50257
X57554Y-52246
X57562Y-52738
X57736Y-56700
X57850Y-53450
X58464Y-56700
X58525Y-53450
X58609Y-47864
X58800Y-48400
X59009Y-50264
X59109Y-48764
X59200Y-53450
X59300Y-49500
X59400Y-48050
X60175Y-48050
X60238Y-52738
X60850Y-49900
X60850Y-50610
X60850Y-51320
X60850Y-52030
X60850Y-52740
X60850Y-53450
X60950Y-48050
T2
X38425Y-39370
X38425Y-58661
X38702Y-38702
X38702Y-40038
X38702Y-57993
X38702Y-59330
X39370Y-38425
X39370Y-40315
X39370Y-57717
X39370Y-59606
X40038Y-38702
X40038Y-40038
X40038Y-57993
X40038Y-59330
X40315Y-39370
X40315Y-58661
X41670Y-38877
X42162Y-38877
X42654Y-38877
X43146Y-38877
X43638Y-38877
X44130Y-38877
X54116Y-59023
X54608Y-59023
X55100Y-59023
X55592Y-59023
X57362Y-59023
X57854Y-59023
X58208Y-38877
X58346Y-59023
X58700Y-38877
X58838Y-59023
X59192Y-38877
X59684Y-38877
X60352Y-54962
X60352Y-55454
X60352Y-55946
X60352Y-56438
X61260Y-39370
X61260Y-58661
X61537Y-38702
X61537Y-40038
X61537Y-57993
X61537Y-59330
X62205Y-38425
X62205Y-40315
X62205Y-57717
X62205Y-59606
X62573Y-42362
X62573Y-42854
X62573Y-43346
X62573Y-43838
X62573Y-45616
X62573Y-46108
X62573Y-46600
X62573Y-47092
X62573Y-47584
X62573Y-48076
X62573Y-49920
X62573Y-50412
X62573Y-50904
X62573Y-51396
X62573Y-51888
X62573Y-52380
X62623Y-54962
X62623Y-55454
X62623Y-55946
X62623Y-56438
X62873Y-38702
X62873Y-40038
X62873Y-57993
X62873Y-59330
X63150Y-39370
X63150Y-58661
T3
X38968Y-48242
X38968Y-49242
X38968Y-50242
X38968Y-51242
X38968Y-52242
X38968Y-53242
X38968Y-54242
X38968Y-55242
X38968Y-56242
X39968Y-48242
X39968Y-49242
X39968Y-50242
X39968Y-51242
X39968Y-52242
X39968Y-53242
X39968Y-54242
X39968Y-55242
X39968Y-56242
X40968Y-48250
X40968Y-49250
X40968Y-50250
X40968Y-51250
X40968Y-52250
X40968Y-53250
X40968Y-54250
X40968Y-55250
X40968Y-56250
X41750Y-58950
X42750Y-58950
X43750Y-58950
X44750Y-58950
T4
X49900Y-57600
X49900Y-59372
X52459Y-57600
X52459Y-59372
T5
X39370Y-39370
X39370Y-58661
X62205Y-39370
X62205Y-58661
T2
G00X45939Y-38766
M15
G01X45939Y-38491
M16
G05
G00X48537Y-38766
M15
G01X48537Y-38491
M16
G05
T0
M30
