M48
; DRILL file {KiCad 7.0.6} date Mon Aug 28 17:53:35 2023
; FORMAT={-:-/ absolute / metric / decimal}
; #@! TF.CreationDate,2023-08-28T17:53:35+03:00
; #@! TF.GenerationSoftware,Kicad,Pcbnew,7.0.6
; #@! TF.FileFunction,Plated,1,4,PTH
FMAT,2
METRIC
; #@! TA.AperFunction,Plated,PTH,ViaDrill
T1C0.400
; #@! TA.AperFunction,Plated,PTH,ComponentDrill
T2C0.450
; #@! TA.AperFunction,Plated,PTH,ComponentDrill
T3C0.500
; #@! TA.AperFunction,Plated,PTH,ComponentDrill
T4C0.650
; #@! TA.AperFunction,Plated,PTH,ComponentDrill
T5C0.762
; #@! TA.AperFunction,Plated,PTH,ComponentDrill
T6C0.800
; #@! TA.AperFunction,Plated,PTH,ComponentDrill
T7C1.000
; #@! TA.AperFunction,Plated,PTH,ComponentDrill
T8C1.020
; #@! TA.AperFunction,Plated,PTH,ComponentDrill
T9C1.100
; #@! TA.AperFunction,Plated,PTH,ComponentDrill
T10C1.300
; #@! TA.AperFunction,Plated,PTH,ComponentDrill
T11C3.200
%
G90
G05
T1
X74.553Y-71.796
X76.013Y-70.798
X81.833Y-75.656
X83.093Y-51.966
X83.103Y-78.446
X83.583Y-84.286
X83.943Y-76.036
X84.503Y-46.636
X84.503Y-49.736
X85.753Y-80.906
X85.783Y-76.096
X85.902Y-45.756
X85.902Y-47.596
X85.902Y-50.696
X87.023Y-80.906
X88.293Y-82.706
X88.803Y-75.808
X89.803Y-75.796
X89.893Y-82.706
X90.573Y-61.546
X91.003Y-46.686
X91.163Y-80.906
X91.532Y-104.189
X91.532Y-107.306
X91.533Y-97.876
X91.533Y-100.916
X91.533Y-114.836
X91.553Y-94.816
X91.573Y-62.426
X92.433Y-80.906
X92.677Y-51.822
X92.693Y-76.096
X93.343Y-60.656
X93.703Y-82.706
X93.91Y-89.503
X94.193Y-94.846
X94.193Y-97.946
X94.193Y-101.046
X94.193Y-104.146
X94.308Y-50.342
X94.472Y-76.022
X94.491Y-80.541
X95.283Y-82.706
X95.483Y-73.766
X95.593Y-106.366
X95.953Y-69.996
X96.563Y-80.906
X96.743Y-65.006
X97.663Y-70.796
X97.833Y-80.906
X98.093Y-75.426
X98.215Y-76.418
X99.093Y-82.706
X99.293Y-93.976
X99.293Y-97.076
X99.293Y-100.166
X99.293Y-103.266
X99.293Y-106.376
X100.693Y-82.696
X101.263Y-71.036
X101.273Y-69.946
X101.963Y-80.906
X102.453Y-102.801
X102.513Y-104.946
X102.583Y-75.326
X103.117Y-100.081
X103.233Y-80.906
X103.423Y-57.406
X103.433Y-71.946
X104.513Y-82.706
X105.04Y-80.819
X105.513Y-106.276
X105.753Y-92.796
X105.803Y-95.43
X105.853Y-98.064
X105.953Y-69.986
X106.093Y-82.706
X106.443Y-74.626
X107.253Y-110.006
X107.568Y-75.838
X108.123Y-64.282
X109.083Y-100.976
X109.156Y-65.006
X109.913Y-82.706
X110.043Y-104.206
X110.053Y-69.986
X110.063Y-76.826
X110.613Y-87.336
X110.613Y-93.966
X110.833Y-98.506
X112.053Y-87.336
X112.073Y-93.956
X112.253Y-110.006
X112.483Y-100.956
X113.443Y-104.196
X113.533Y-87.336
X113.533Y-93.966
X113.893Y-99.366
X114.343Y-76.286
X114.993Y-87.336
X114.993Y-93.956
X115.448Y-57.826
X115.458Y-60.226
X116.453Y-87.336
X116.453Y-93.956
X117.123Y-100.956
X117.157Y-79.689
X117.157Y-81.139
X117.165Y-82.588
X117.253Y-110.006
X117.633Y-97.506
X117.663Y-99.406
X117.663Y-102.806
X117.848Y-59.636
X118.073Y-69.386
X118.073Y-70.386
X118.073Y-71.386
X118.156Y-82.422
X118.873Y-77.571
X119.003Y-98.406
X119.003Y-101.806
X119.073Y-69.386
X119.073Y-70.386
X119.073Y-71.386
X119.386Y-81.522
X122.093Y-80.712
X122.263Y-116.316
X122.363Y-98.726
X123.143Y-75.076
X123.523Y-106.276
X123.758Y-59.256
X124.063Y-123.196
X124.063Y-128.196
X125.293Y-98.196
X126.943Y-100.656
X127.097Y-108.163
X127.533Y-91.286
X127.553Y-92.576
X127.858Y-58.256
X129.773Y-119.816
X130.093Y-111.077
X130.163Y-87.924
X130.37Y-100.654
X130.433Y-94.197
X130.858Y-55.746
X130.858Y-57.646
X131.315Y-111.077
X131.393Y-91.996
X132.103Y-98.196
X132.273Y-76.286
X132.323Y-78.916
X132.383Y-81.556
X132.403Y-111.077
X132.433Y-84.196
X132.483Y-86.826
X132.533Y-89.456
X132.593Y-93.596
X132.603Y-125.736
X132.603Y-129.566
X133.753Y-100.656
X134.683Y-106.956
X136.263Y-75.006
X136.313Y-77.626
X136.363Y-80.266
X136.413Y-82.896
X136.473Y-85.536
X136.523Y-88.166
X136.783Y-92.596
X137.323Y-96.326
X138.933Y-108.296
X140.033Y-69.406
X140.842Y-70.057
X142.487Y-66.602
X143.352Y-67.747
X143.893Y-47.286
X144.083Y-49.346
X144.313Y-51.406
X144.683Y-53.466
X147.215Y-111.319
X147.263Y-83.226
X147.293Y-56.316
X148.098Y-58.466
X148.098Y-62.556
X148.323Y-111.319
X150.783Y-106.036
X151.773Y-101.846
X152.193Y-111.276
X152.223Y-128.186
X152.233Y-123.186
X152.753Y-101.396
X154.088Y-57.806
X154.098Y-60.206
X154.165Y-107.996
X154.173Y-106.996
X156.488Y-59.626
X156.803Y-98.666
X157.113Y-109.402
X157.113Y-110.901
X157.163Y-97.676
X157.683Y-114.227
X157.763Y-92.966
X157.887Y-116.805
X158.613Y-106.451
X158.653Y-102.496
X158.653Y-104.046
X160.163Y-106.451
X160.293Y-97.896
X160.731Y-117.102
X161.483Y-95.076
X161.607Y-96.068
X161.756Y-114.706
X162.398Y-58.231
X162.711Y-113.611
X163.117Y-118.147
X163.763Y-123.186
X163.763Y-128.196
X163.763Y-125.726
X163.888Y-117.422
X164.373Y-75.196
X164.423Y-91.537
X164.527Y-116.632
X164.973Y-94.37
X165.593Y-125.726
X166.313Y-114.066
X166.498Y-58.231
X166.498Y-74.081
X166.668Y-118.496
X166.723Y-106.646
X169.333Y-100.566
X169.423Y-109.766
X169.498Y-55.726
X169.498Y-57.626
X169.968Y-108.856
X170.323Y-100.116
X170.823Y-107.756
X171.253Y-99.666
X171.474Y-118.542
X171.773Y-90.386
X172.181Y-99.216
X172.243Y-113.936
X172.637Y-107.265
X172.753Y-98.316
X172.978Y-95.21
X173.103Y-87.406
X173.252Y-105.826
X173.263Y-109.961
X173.639Y-109.035
X173.853Y-94.725
X174.42Y-92.679
X175.243Y-98.316
X175.633Y-107.069
X175.753Y-95.516
X175.884Y-106.027
X175.953Y-108.016
X175.963Y-104.866
X175.983Y-103.756
X176.508Y-115.641
X177.76Y-126.99
X177.773Y-94.496
X177.968Y-114.121
X177.973Y-112.546
X178.426Y-111.362
X178.59Y-121.18
X178.813Y-94.496
X178.88Y-120.18
X179.22Y-129.91
X179.373Y-90.797
X179.729Y-109.744
X179.753Y-111.186
X180.28Y-90.088
X180.28Y-101.816
X180.67Y-109.38
X181.079Y-91.521
X181.079Y-96.876
X181.079Y-98.006
X181.193Y-50.946
X181.604Y-60.436
X181.878Y-90.088
X181.878Y-101.946
X182.603Y-62.956
X182.677Y-90.688
X182.677Y-102.652
X183.477Y-104.551
X183.483Y-90.086
X184.282Y-90.688
X184.282Y-105.266
X184.543Y-51.206
X185.007Y-101.822
X185.128Y-108.516
X185.443Y-103.476
X185.593Y-93.176
X185.745Y-102.524
X186.593Y-50.376
X186.643Y-97.336
X186.738Y-58.436
X186.738Y-62.536
X187.107Y-99.864
X187.663Y-100.806
X188.643Y-49.536
X188.714Y-97.304
X188.903Y-102.525
X188.953Y-104.896
X188.97Y-126.155
X189.913Y-107.736
X190.683Y-48.696
X191.003Y-89.959
X191.003Y-104.639
X191.407Y-102.832
X191.537Y-107.01
X191.537Y-108.01
X191.82Y-118.61
X192.553Y-57.236
X192.553Y-58.236
X192.733Y-47.856
X193.553Y-57.236
X193.553Y-58.236
X194.553Y-57.236
X194.553Y-58.236
X194.843Y-47.836
X195.653Y-53.066
X195.949Y-107.472
X197.763Y-58.116
X199.023Y-107.496
X199.023Y-112.336
X200.003Y-58.116
X200.703Y-89.119
X200.703Y-104.639
X202.183Y-112.606
X202.753Y-105.716
X203.713Y-68.026
X203.713Y-69.026
X204.533Y-62.296
X204.553Y-57.026
X204.713Y-68.026
X204.713Y-69.026
X205.083Y-108.226
X205.533Y-62.296
X205.713Y-68.026
X205.713Y-69.026
X206.533Y-62.296
X206.933Y-107.456
T3
X71.828Y-47.786
X71.828Y-127.786
X72.531Y-46.089
X72.531Y-49.483
X72.531Y-126.089
X72.531Y-129.483
X74.228Y-45.386
X74.228Y-50.186
X74.228Y-125.386
X74.228Y-130.186
X75.925Y-46.089
X75.925Y-49.483
X75.925Y-126.089
X75.925Y-129.483
X76.628Y-47.786
X76.628Y-127.786
X201.828Y-47.786
X201.828Y-127.786
X202.531Y-46.089
X202.531Y-49.483
X202.531Y-126.089
X202.531Y-129.483
X204.228Y-45.386
X204.228Y-50.186
X204.228Y-125.386
X204.228Y-130.186
X204.593Y-83.496
X205.843Y-83.496
X205.925Y-46.089
X205.925Y-49.483
X205.925Y-126.089
X205.925Y-129.483
X206.628Y-47.786
X206.628Y-127.786
T4
X149.393Y-70.371
X149.393Y-71.641
X150.663Y-70.371
X150.663Y-71.641
X151.933Y-70.371
X151.933Y-71.641
X153.203Y-70.371
X153.203Y-71.641
X154.473Y-70.371
X154.473Y-71.641
T5
X173.313Y-69.646
X173.313Y-84.886
X178.393Y-69.646
X178.393Y-84.886
X193.633Y-69.646
X193.633Y-84.886
X196.173Y-69.646
X196.173Y-84.886
T6
X127.413Y-44.926
X127.413Y-52.546
X129.953Y-44.926
X129.953Y-52.546
X132.493Y-44.926
X132.493Y-52.546
X135.033Y-44.926
X135.033Y-52.546
X137.573Y-44.926
X137.573Y-52.546
X140.113Y-44.926
X140.113Y-52.546
X166.063Y-44.916
X166.063Y-52.536
X168.603Y-44.916
X168.603Y-52.536
X171.143Y-44.916
X171.143Y-52.536
X173.683Y-44.916
X173.683Y-52.536
X176.223Y-44.916
X176.223Y-52.536
X178.763Y-44.916
X178.763Y-52.536
T7
X152.983Y-76.926
X155.523Y-76.926
X158.063Y-76.926
X160.278Y-84.486
X160.603Y-76.926
X162.818Y-84.486
X163.143Y-76.926
X164.233Y-90.086
X166.773Y-90.086
X169.313Y-90.086
T8
X79.433Y-56.046
X79.433Y-59.046
X79.433Y-62.046
X79.433Y-65.046
X79.433Y-68.046
X79.433Y-82.786
X79.433Y-85.786
X79.433Y-88.786
X79.433Y-91.786
X79.433Y-94.786
X79.433Y-97.786
X79.433Y-100.786
X79.433Y-103.786
X79.433Y-106.786
X79.433Y-109.786
X79.433Y-112.786
X79.433Y-115.786
X82.433Y-56.046
X82.433Y-59.046
X82.433Y-62.046
X82.433Y-65.046
X82.433Y-68.046
X82.433Y-82.786
X82.433Y-85.786
X82.433Y-88.786
X82.433Y-91.786
X82.433Y-94.786
X82.433Y-97.786
X82.433Y-100.786
X82.433Y-103.786
X82.433Y-106.786
X82.433Y-109.786
X82.433Y-112.786
X82.433Y-115.786
X85.093Y-119.536
X85.093Y-122.536
X88.093Y-119.536
X88.093Y-122.536
X91.093Y-119.536
X91.093Y-122.536
X94.093Y-119.536
X94.093Y-122.536
X96.133Y-52.986
X96.133Y-55.986
X97.093Y-119.536
X97.093Y-122.536
X99.133Y-52.986
X99.133Y-55.986
X102.133Y-52.986
X102.133Y-55.986
X105.133Y-52.986
X105.133Y-55.986
X105.253Y-119.536
X105.253Y-122.536
X108.133Y-52.986
X108.133Y-55.986
X108.253Y-119.536
X108.253Y-122.536
X111.253Y-119.536
X111.253Y-122.536
X114.253Y-119.536
X114.253Y-122.536
X116.338Y-52.986
X116.338Y-55.986
X117.253Y-119.536
X117.253Y-122.536
X119.338Y-52.986
X119.338Y-55.986
X136.413Y-119.546
X136.413Y-122.546
X139.413Y-119.546
X139.413Y-122.546
X142.413Y-119.546
X142.413Y-122.546
X145.413Y-119.546
X145.413Y-122.546
X148.413Y-119.546
X148.413Y-122.546
X154.988Y-52.986
X154.988Y-55.986
X157.988Y-52.986
X157.988Y-55.986
X167.573Y-119.546
X167.573Y-122.546
X170.573Y-119.546
X170.573Y-122.546
X193.018Y-119.556
X193.018Y-122.556
X196.018Y-119.556
X196.018Y-122.556
T9
X143.023Y-103.226
X143.023Y-107.726
X149.523Y-103.226
X149.523Y-107.726
T10
X140.153Y-90.576
X160.153Y-90.576
T11
X74.228Y-47.786
X74.228Y-127.786
X204.228Y-47.786
X204.228Y-127.786
T2
X201.707Y-111.106G85X202.257Y-111.106
G05
X201.707Y-118.306G85X202.257Y-118.306
G05
T3
X204.982Y-111.106G85X205.882Y-111.106
G05
X204.982Y-118.306G85X205.882Y-118.306
G05
T0
M30
