G04 #@! TF.GenerationSoftware,KiCad,Pcbnew,8.0.1*
G04 #@! TF.CreationDate,2024-03-31T17:13:02+03:00*
G04 #@! TF.ProjectId,Piezo module,5069657a-6f20-46d6-9f64-756c652e6b69,rev?*
G04 #@! TF.SameCoordinates,Original*
G04 #@! TF.FileFunction,Copper,L4,Bot*
G04 #@! TF.FilePolarity,Positive*
%FSLAX46Y46*%
G04 Gerber Fmt 4.6, Leading zero omitted, Abs format (unit mm)*
G04 Created by KiCad (PCBNEW 8.0.1) date 2024-03-31 17:13:02*
%MOMM*%
%LPD*%
G01*
G04 APERTURE LIST*
G04 Aperture macros list*
%AMRoundRect*
0 Rectangle with rounded corners*
0 $1 Rounding radius*
0 $2 $3 $4 $5 $6 $7 $8 $9 X,Y pos of 4 corners*
0 Add a 4 corners polygon primitive as box body*
4,1,4,$2,$3,$4,$5,$6,$7,$8,$9,$2,$3,0*
0 Add four circle primitives for the rounded corners*
1,1,$1+$1,$2,$3*
1,1,$1+$1,$4,$5*
1,1,$1+$1,$6,$7*
1,1,$1+$1,$8,$9*
0 Add four rect primitives between the rounded corners*
20,1,$1+$1,$2,$3,$4,$5,0*
20,1,$1+$1,$4,$5,$6,$7,0*
20,1,$1+$1,$6,$7,$8,$9,0*
20,1,$1+$1,$8,$9,$2,$3,0*%
%AMFreePoly0*
4,1,19,0.500000,-0.750000,0.000000,-0.750000,0.000000,-0.744911,-0.071157,-0.744911,-0.207708,-0.704816,-0.327430,-0.627875,-0.420627,-0.520320,-0.479746,-0.390866,-0.500000,-0.250000,-0.500000,0.250000,-0.479746,0.390866,-0.420627,0.520320,-0.327430,0.627875,-0.207708,0.704816,-0.071157,0.744911,0.000000,0.744911,0.000000,0.750000,0.500000,0.750000,0.500000,-0.750000,0.500000,-0.750000,
$1*%
%AMFreePoly1*
4,1,19,0.000000,0.744911,0.071157,0.744911,0.207708,0.704816,0.327430,0.627875,0.420627,0.520320,0.479746,0.390866,0.500000,0.250000,0.500000,-0.250000,0.479746,-0.390866,0.420627,-0.520320,0.327430,-0.627875,0.207708,-0.704816,0.071157,-0.744911,0.000000,-0.744911,0.000000,-0.750000,-0.500000,-0.750000,-0.500000,0.750000,0.000000,0.750000,0.000000,0.744911,0.000000,0.744911,
$1*%
%AMFreePoly2*
4,1,9,3.862500,-0.866500,0.737500,-0.866500,0.737500,-0.450000,-0.737500,-0.450000,-0.737500,0.450000,0.737500,0.450000,0.737500,0.866500,3.862500,0.866500,3.862500,-0.866500,3.862500,-0.866500,$1*%
G04 Aperture macros list end*
G04 #@! TA.AperFunction,ComponentPad*
%ADD10C,2.000000*%
G04 #@! TD*
G04 #@! TA.AperFunction,ComponentPad*
%ADD11C,2.600000*%
G04 #@! TD*
G04 #@! TA.AperFunction,ComponentPad*
%ADD12C,0.700000*%
G04 #@! TD*
G04 #@! TA.AperFunction,ComponentPad*
%ADD13C,4.400000*%
G04 #@! TD*
G04 #@! TA.AperFunction,ComponentPad*
%ADD14O,1.090000X2.000000*%
G04 #@! TD*
G04 #@! TA.AperFunction,ComponentPad*
%ADD15O,1.050000X1.600000*%
G04 #@! TD*
G04 #@! TA.AperFunction,SMDPad,CuDef*
%ADD16RoundRect,0.200000X0.275000X-0.200000X0.275000X0.200000X-0.275000X0.200000X-0.275000X-0.200000X0*%
G04 #@! TD*
G04 #@! TA.AperFunction,SMDPad,CuDef*
%ADD17RoundRect,0.150000X0.150000X-0.587500X0.150000X0.587500X-0.150000X0.587500X-0.150000X-0.587500X0*%
G04 #@! TD*
G04 #@! TA.AperFunction,ComponentPad*
%ADD18C,1.000000*%
G04 #@! TD*
G04 #@! TA.AperFunction,SMDPad,CuDef*
%ADD19RoundRect,0.225000X-0.250000X0.225000X-0.250000X-0.225000X0.250000X-0.225000X0.250000X0.225000X0*%
G04 #@! TD*
G04 #@! TA.AperFunction,SMDPad,CuDef*
%ADD20RoundRect,0.100000X-0.637500X-0.100000X0.637500X-0.100000X0.637500X0.100000X-0.637500X0.100000X0*%
G04 #@! TD*
G04 #@! TA.AperFunction,SMDPad,CuDef*
%ADD21RoundRect,0.225000X0.250000X-0.225000X0.250000X0.225000X-0.250000X0.225000X-0.250000X-0.225000X0*%
G04 #@! TD*
G04 #@! TA.AperFunction,SMDPad,CuDef*
%ADD22FreePoly0,180.000000*%
G04 #@! TD*
G04 #@! TA.AperFunction,SMDPad,CuDef*
%ADD23FreePoly1,180.000000*%
G04 #@! TD*
G04 #@! TA.AperFunction,SMDPad,CuDef*
%ADD24RoundRect,0.218750X-0.256250X0.218750X-0.256250X-0.218750X0.256250X-0.218750X0.256250X0.218750X0*%
G04 #@! TD*
G04 #@! TA.AperFunction,SMDPad,CuDef*
%ADD25RoundRect,0.200000X-0.200000X-0.275000X0.200000X-0.275000X0.200000X0.275000X-0.200000X0.275000X0*%
G04 #@! TD*
G04 #@! TA.AperFunction,SMDPad,CuDef*
%ADD26RoundRect,0.150000X-0.150000X0.512500X-0.150000X-0.512500X0.150000X-0.512500X0.150000X0.512500X0*%
G04 #@! TD*
G04 #@! TA.AperFunction,SMDPad,CuDef*
%ADD27RoundRect,0.200000X0.200000X0.275000X-0.200000X0.275000X-0.200000X-0.275000X0.200000X-0.275000X0*%
G04 #@! TD*
G04 #@! TA.AperFunction,SMDPad,CuDef*
%ADD28R,1.400000X1.200000*%
G04 #@! TD*
G04 #@! TA.AperFunction,SMDPad,CuDef*
%ADD29RoundRect,0.250000X-0.300000X0.300000X-0.300000X-0.300000X0.300000X-0.300000X0.300000X0.300000X0*%
G04 #@! TD*
G04 #@! TA.AperFunction,SMDPad,CuDef*
%ADD30RoundRect,0.250000X-0.300000X-0.300000X0.300000X-0.300000X0.300000X0.300000X-0.300000X0.300000X0*%
G04 #@! TD*
G04 #@! TA.AperFunction,SMDPad,CuDef*
%ADD31RoundRect,0.225000X0.225000X0.250000X-0.225000X0.250000X-0.225000X-0.250000X0.225000X-0.250000X0*%
G04 #@! TD*
G04 #@! TA.AperFunction,SMDPad,CuDef*
%ADD32RoundRect,0.225000X-0.225000X-0.250000X0.225000X-0.250000X0.225000X0.250000X-0.225000X0.250000X0*%
G04 #@! TD*
G04 #@! TA.AperFunction,SMDPad,CuDef*
%ADD33RoundRect,0.075000X-0.075000X0.662500X-0.075000X-0.662500X0.075000X-0.662500X0.075000X0.662500X0*%
G04 #@! TD*
G04 #@! TA.AperFunction,SMDPad,CuDef*
%ADD34RoundRect,0.075000X-0.662500X0.075000X-0.662500X-0.075000X0.662500X-0.075000X0.662500X0.075000X0*%
G04 #@! TD*
G04 #@! TA.AperFunction,SMDPad,CuDef*
%ADD35RoundRect,0.225000X-0.335876X-0.017678X-0.017678X-0.335876X0.335876X0.017678X0.017678X0.335876X0*%
G04 #@! TD*
G04 #@! TA.AperFunction,SMDPad,CuDef*
%ADD36RoundRect,0.200000X-0.275000X0.200000X-0.275000X-0.200000X0.275000X-0.200000X0.275000X0.200000X0*%
G04 #@! TD*
G04 #@! TA.AperFunction,SMDPad,CuDef*
%ADD37RoundRect,0.225000X0.425000X0.225000X-0.425000X0.225000X-0.425000X-0.225000X0.425000X-0.225000X0*%
G04 #@! TD*
G04 #@! TA.AperFunction,SMDPad,CuDef*
%ADD38FreePoly2,180.000000*%
G04 #@! TD*
G04 #@! TA.AperFunction,SMDPad,CuDef*
%ADD39FreePoly0,0.000000*%
G04 #@! TD*
G04 #@! TA.AperFunction,SMDPad,CuDef*
%ADD40FreePoly1,0.000000*%
G04 #@! TD*
G04 #@! TA.AperFunction,SMDPad,CuDef*
%ADD41R,1.500000X0.700000*%
G04 #@! TD*
G04 #@! TA.AperFunction,SMDPad,CuDef*
%ADD42R,0.800000X1.000000*%
G04 #@! TD*
G04 #@! TA.AperFunction,ViaPad*
%ADD43C,0.800000*%
G04 #@! TD*
G04 #@! TA.AperFunction,Conductor*
%ADD44C,0.800000*%
G04 #@! TD*
G04 #@! TA.AperFunction,Conductor*
%ADD45C,0.400000*%
G04 #@! TD*
G04 #@! TA.AperFunction,Conductor*
%ADD46C,0.300000*%
G04 #@! TD*
G04 #@! TA.AperFunction,Conductor*
%ADD47C,0.250000*%
G04 #@! TD*
G04 #@! TA.AperFunction,Conductor*
%ADD48C,0.600000*%
G04 #@! TD*
G04 #@! TA.AperFunction,Conductor*
%ADD49C,0.450000*%
G04 #@! TD*
G04 #@! TA.AperFunction,Conductor*
%ADD50C,0.200000*%
G04 #@! TD*
G04 #@! TA.AperFunction,Conductor*
%ADD51C,0.900000*%
G04 #@! TD*
G04 #@! TA.AperFunction,Conductor*
%ADD52C,2.000000*%
G04 #@! TD*
G04 #@! TA.AperFunction,Conductor*
%ADD53C,0.350000*%
G04 #@! TD*
G04 #@! TA.AperFunction,Conductor*
%ADD54C,0.700000*%
G04 #@! TD*
G04 #@! TA.AperFunction,Conductor*
%ADD55C,0.550000*%
G04 #@! TD*
G04 #@! TA.AperFunction,Conductor*
%ADD56C,0.230000*%
G04 #@! TD*
G04 APERTURE END LIST*
D10*
X160085500Y-112035000D03*
X162625500Y-112035000D03*
D11*
X141266500Y-90195000D03*
X147646500Y-90195000D03*
D12*
X160023500Y-90845000D03*
X160506774Y-89678274D03*
X160506774Y-92011726D03*
X161673500Y-89195000D03*
D13*
X161673500Y-90845000D03*
D12*
X161673500Y-92495000D03*
X162840226Y-89678274D03*
X162840226Y-92011726D03*
X163323500Y-90845000D03*
X140274500Y-111085000D03*
X140757774Y-109918274D03*
X140757774Y-112251726D03*
X141924500Y-109435000D03*
D13*
X141924500Y-111085000D03*
D12*
X141924500Y-112735000D03*
X143091226Y-109918274D03*
X143091226Y-112251726D03*
X143574500Y-111085000D03*
D14*
X152294500Y-111160000D03*
D15*
X152294500Y-107710000D03*
D14*
X145094500Y-111160000D03*
D15*
X145094500Y-107710000D03*
D10*
X154543500Y-112035000D03*
X157083500Y-112035000D03*
X155174500Y-89895000D03*
X157714500Y-89895000D03*
D16*
X167866000Y-97710000D03*
X167866000Y-96060000D03*
D17*
X152827500Y-91554500D03*
X150927500Y-91554500D03*
X151877500Y-89679500D03*
D18*
X133872000Y-99218000D03*
D19*
X164345000Y-104706000D03*
X164345000Y-106256000D03*
D20*
X155849500Y-99287500D03*
X155849500Y-98637500D03*
X155849500Y-97987500D03*
X155849500Y-97337500D03*
X155849500Y-96687500D03*
X155849500Y-96037500D03*
X155849500Y-95387500D03*
X155849500Y-94737500D03*
X161574500Y-94737500D03*
X161574500Y-95387500D03*
X161574500Y-96037500D03*
X161574500Y-96687500D03*
X161574500Y-97337500D03*
X161574500Y-97987500D03*
X161574500Y-98637500D03*
X161574500Y-99287500D03*
D21*
X144447500Y-94005000D03*
X144447500Y-92455000D03*
D19*
X155587000Y-102763500D03*
X155587000Y-104313500D03*
D22*
X168648000Y-109208000D03*
D23*
X167348000Y-109208000D03*
D24*
X166384500Y-97758500D03*
X166384500Y-99333500D03*
D19*
X157050000Y-102763500D03*
X157050000Y-104313500D03*
D25*
X141295000Y-107746000D03*
X142945000Y-107746000D03*
D26*
X147745000Y-107872500D03*
X148695000Y-107872500D03*
X149645000Y-107872500D03*
X149645000Y-110147500D03*
X148695000Y-110147500D03*
X147745000Y-110147500D03*
D27*
X157849000Y-105754000D03*
X156199000Y-105754000D03*
D26*
X140357000Y-94588000D03*
X141307000Y-94588000D03*
X142257000Y-94588000D03*
X142257000Y-96863000D03*
X140357000Y-96863000D03*
D28*
X146184500Y-93169000D03*
X148384500Y-93169000D03*
X148384500Y-94869000D03*
X146184500Y-94869000D03*
D29*
X138314000Y-91009000D03*
X138314000Y-93809000D03*
D18*
X133872000Y-92032000D03*
D30*
X137739001Y-101256000D03*
X140538999Y-101256000D03*
D18*
X133872000Y-95967000D03*
D30*
X139944500Y-103992000D03*
X142744500Y-103992000D03*
D16*
X165810000Y-106307000D03*
X165810000Y-104657000D03*
D31*
X163335500Y-100891001D03*
X161785500Y-100891001D03*
D19*
X163441500Y-94806000D03*
X163441500Y-96356000D03*
D32*
X140361000Y-92945000D03*
X141911000Y-92945000D03*
D25*
X142105000Y-102110000D03*
X143755000Y-102110000D03*
D32*
X151558000Y-94790000D03*
X153108000Y-94790000D03*
D19*
X166402500Y-94799000D03*
X166402500Y-96349000D03*
D22*
X168980500Y-92442000D03*
D23*
X167680500Y-92442000D03*
D27*
X167286000Y-103269000D03*
X165636000Y-103269000D03*
D25*
X157566000Y-93096499D03*
X159216000Y-93096499D03*
D22*
X155349000Y-109208000D03*
D23*
X154049000Y-109208000D03*
D31*
X140507000Y-99205000D03*
X138957000Y-99205000D03*
D33*
X146945000Y-96875000D03*
X147445000Y-96875000D03*
X147945000Y-96875000D03*
X148445000Y-96875000D03*
X148945000Y-96875000D03*
X149445000Y-96875000D03*
X149945000Y-96875000D03*
X150445000Y-96875000D03*
X150945000Y-96875000D03*
X151445000Y-96875000D03*
X151945000Y-96875000D03*
X152445000Y-96875000D03*
D34*
X153857500Y-98287500D03*
X153857500Y-98787500D03*
X153857500Y-99287500D03*
X153857500Y-99787500D03*
X153857500Y-100287500D03*
X153857500Y-100787500D03*
X153857500Y-101287500D03*
X153857500Y-101787500D03*
X153857500Y-102287500D03*
X153857500Y-102787500D03*
X153857500Y-103287500D03*
X153857500Y-103787500D03*
D33*
X152445000Y-105200000D03*
X151945000Y-105200000D03*
X151445000Y-105200000D03*
X150945000Y-105200000D03*
X150445000Y-105200000D03*
X149945000Y-105200000D03*
X149445000Y-105200000D03*
X148945000Y-105200000D03*
X148445000Y-105200000D03*
X147945000Y-105200000D03*
X147445000Y-105200000D03*
X146945000Y-105200000D03*
D34*
X145532500Y-103787500D03*
X145532500Y-103287500D03*
X145532500Y-102787500D03*
X145532500Y-102287500D03*
X145532500Y-101787500D03*
X145532500Y-101287500D03*
X145532500Y-100787500D03*
X145532500Y-100287500D03*
X145532500Y-99787500D03*
X145532500Y-99287500D03*
X145532500Y-98787500D03*
X145532500Y-98287500D03*
D22*
X158653000Y-109204000D03*
D23*
X157353000Y-109204000D03*
D22*
X165344000Y-109208000D03*
D23*
X164044000Y-109208000D03*
D25*
X141270000Y-106132000D03*
X142920000Y-106132000D03*
D35*
X144203492Y-95775992D03*
X145299508Y-96872008D03*
D36*
X139884000Y-106092000D03*
X139884000Y-107742000D03*
D37*
X162710500Y-102622000D03*
D38*
X162623000Y-104122000D03*
D37*
X162710500Y-105622000D03*
D19*
X164920500Y-94805000D03*
X164920500Y-96355000D03*
D25*
X165393000Y-111189000D03*
X167043000Y-111189000D03*
D19*
X163446500Y-97771500D03*
X163446500Y-99321500D03*
X150114500Y-93244000D03*
X150114500Y-94794000D03*
D39*
X160704000Y-109208000D03*
D40*
X162004000Y-109208000D03*
D41*
X138124500Y-110435000D03*
X138124500Y-107435000D03*
X138124500Y-105935000D03*
D42*
X135264500Y-111835000D03*
X137474500Y-111835000D03*
X135264500Y-104535000D03*
X137474500Y-104535000D03*
D21*
X143814000Y-99414000D03*
X143814000Y-97864000D03*
D32*
X144290000Y-105789000D03*
X145840000Y-105789000D03*
D19*
X142092000Y-98483000D03*
X142092000Y-100033000D03*
D32*
X151570500Y-93323000D03*
X153120500Y-93323000D03*
D43*
X140506000Y-99261000D03*
X150712000Y-98620000D03*
X153039271Y-93366769D03*
X157050000Y-104313500D03*
X137774500Y-105935000D03*
X163446500Y-97771500D03*
X141297000Y-107694000D03*
X166112000Y-101705000D03*
X143825500Y-97867000D03*
X155661000Y-93112000D03*
X145840000Y-105789000D03*
X166067000Y-112340000D03*
X136364499Y-101939999D03*
X134164500Y-89290000D03*
X167230500Y-106289999D03*
X169430499Y-104990000D03*
X134164500Y-103735000D03*
X157996000Y-97056000D03*
X159840000Y-103655500D03*
X136364499Y-112634999D03*
X163446500Y-99321500D03*
X143825500Y-99417000D03*
X165430500Y-93740000D03*
X159666000Y-109800000D03*
X144203492Y-95775992D03*
X167230500Y-89290000D03*
X137474500Y-104535000D03*
X164345000Y-106256000D03*
X168330500Y-89940000D03*
X157996000Y-98419000D03*
X167230500Y-90589999D03*
X152827500Y-91460500D03*
X169430499Y-106289999D03*
X150703000Y-107910000D03*
X135264500Y-104435000D03*
X167230500Y-100640000D03*
X136364499Y-90589999D03*
X136364499Y-89290000D03*
X169430499Y-112639999D03*
X148380000Y-93155000D03*
X134164500Y-101939999D03*
X134164500Y-111335000D03*
X136364499Y-111335000D03*
X169430499Y-111340000D03*
X135264500Y-111934999D03*
X153961000Y-92493000D03*
X134164500Y-112634999D03*
X167230500Y-112639999D03*
X142092000Y-100033000D03*
X168330500Y-111990000D03*
X134164500Y-105034999D03*
X168330500Y-101290000D03*
X150726000Y-89628000D03*
X137474500Y-111835000D03*
X165344000Y-109440000D03*
X169430499Y-100640000D03*
X138164500Y-98740000D03*
X154583000Y-105754000D03*
X135264500Y-89940000D03*
X138164500Y-97490000D03*
X167230500Y-101939999D03*
X169430499Y-89290000D03*
X136364499Y-105034999D03*
X135264500Y-101290000D03*
X169430499Y-101939999D03*
X156920000Y-102762000D03*
X169430499Y-90589999D03*
X167230500Y-104990000D03*
X136364499Y-100640000D03*
X149171000Y-98654000D03*
X134164500Y-100640000D03*
X159425499Y-101591000D03*
X134164500Y-90589999D03*
X168330500Y-105640000D03*
X168687000Y-109244000D03*
X136364499Y-103735000D03*
X165430500Y-92490000D03*
X149463000Y-99904000D03*
X142436042Y-103677042D03*
X146245000Y-110726000D03*
X142105000Y-102110000D03*
X141270000Y-106132000D03*
X160139000Y-94174000D03*
X165030500Y-97493000D03*
X165030500Y-98752000D03*
X138164500Y-92490000D03*
X154229000Y-94335000D03*
X138164500Y-93740000D03*
X152207000Y-98776000D03*
X146742000Y-103287500D03*
X151464284Y-99548000D03*
X158880000Y-105754000D03*
X140956528Y-103220000D03*
X154148999Y-108925000D03*
X147680391Y-101519426D03*
X157286000Y-108925000D03*
X159216000Y-93096499D03*
X163334000Y-93129000D03*
X159878000Y-98610000D03*
X143292000Y-94118000D03*
X146888000Y-98499000D03*
X148845556Y-103833672D03*
X148819000Y-101447000D03*
X148195000Y-103066000D03*
X147613000Y-99555947D03*
X149645000Y-111441000D03*
X147745000Y-111441000D03*
X163335500Y-100966000D03*
X137889000Y-101256000D03*
X168980500Y-92442000D03*
X169496500Y-97714000D03*
X137651000Y-103121000D03*
X137651000Y-103121000D03*
D44*
X166384500Y-100071786D02*
X166384500Y-99333500D01*
D45*
X161574500Y-97337500D02*
X163012500Y-97337500D01*
D44*
X167043000Y-111364000D02*
X166067000Y-112340000D01*
D46*
X150945000Y-96034380D02*
X151364380Y-95615000D01*
D47*
X157050000Y-104313500D02*
X156942500Y-104313500D01*
D48*
X140361000Y-96906000D02*
X140361000Y-99055000D01*
D44*
X153039271Y-93366769D02*
X153108000Y-93435498D01*
X166112000Y-102793000D02*
X166112000Y-101705000D01*
X165636000Y-103269000D02*
X165636000Y-104483000D01*
D49*
X153120500Y-93323000D02*
X153125501Y-93317999D01*
D44*
X166113000Y-101705000D02*
X166113000Y-100343286D01*
D46*
X152283000Y-95615000D02*
X153108000Y-94790000D01*
X153857500Y-103787500D02*
X155061000Y-103787500D01*
D44*
X157050000Y-104313500D02*
X155587000Y-104313500D01*
X165636000Y-104483000D02*
X165810000Y-104657000D01*
X166113000Y-100343286D02*
X166384500Y-100071786D01*
D45*
X163012500Y-97337500D02*
X163446500Y-97771500D01*
D48*
X140361000Y-99055000D02*
X140511000Y-99205000D01*
D46*
X155061000Y-103787500D02*
X155587000Y-104313500D01*
X151364380Y-95615000D02*
X152283000Y-95615000D01*
X150945000Y-96875000D02*
X150945000Y-96034380D01*
D44*
X153108000Y-93435498D02*
X153108000Y-94790000D01*
X165636000Y-103269000D02*
X166112000Y-102793000D01*
X156914500Y-102763500D02*
X157050000Y-102763500D01*
D47*
X148380000Y-93164500D02*
X148384500Y-93169000D01*
D44*
X150114500Y-93244000D02*
X151491500Y-93244000D01*
D47*
X148394000Y-93169000D02*
X148544000Y-93169000D01*
D46*
X151482274Y-94790000D02*
X151558000Y-94790000D01*
D44*
X150114500Y-93244000D02*
X148459500Y-93244000D01*
D47*
X165430500Y-92490000D02*
X165430500Y-92479000D01*
D44*
X154583000Y-105754000D02*
X156199000Y-105754000D01*
X148459500Y-93244000D02*
X148384500Y-93169000D01*
D46*
X155063000Y-103287500D02*
X155587000Y-102763500D01*
D44*
X156913000Y-102762000D02*
X156914500Y-102763500D01*
D47*
X151416500Y-93169000D02*
X151570500Y-93323000D01*
X148380000Y-93155000D02*
X148394000Y-93169000D01*
D44*
X156911500Y-102763500D02*
X156913000Y-102762000D01*
X151558000Y-94790000D02*
X151558000Y-93335500D01*
D47*
X166395500Y-94806000D02*
X166402500Y-94799000D01*
X148380000Y-93155000D02*
X148380000Y-93164500D01*
D50*
X152294500Y-111160000D02*
X151995972Y-111160000D01*
D46*
X153857500Y-103287500D02*
X155063000Y-103287500D01*
D44*
X155587000Y-102763500D02*
X156911500Y-102763500D01*
D46*
X150445000Y-96875000D02*
X150445000Y-95827274D01*
D44*
X151558000Y-93335500D02*
X151570500Y-93323000D01*
D46*
X150445000Y-95827274D02*
X151482274Y-94790000D01*
D47*
X165430500Y-92479000D02*
X165421500Y-92470000D01*
D44*
X151491500Y-93244000D02*
X151570500Y-93323000D01*
D47*
X149463000Y-99904000D02*
X149945000Y-99422000D01*
X149945000Y-99422000D02*
X149945000Y-96875000D01*
D48*
X148695000Y-110147500D02*
X148695000Y-111763793D01*
X146999000Y-112341000D02*
X146245000Y-111587000D01*
D44*
X142436042Y-103677042D02*
X142744500Y-103985500D01*
D48*
X148117793Y-112341000D02*
X146999000Y-112341000D01*
X148695000Y-111763793D02*
X148117793Y-112341000D01*
X146245000Y-111587000D02*
X146245000Y-110726000D01*
D44*
X142744500Y-103985500D02*
X142744500Y-103992000D01*
D51*
X145470500Y-92455000D02*
X146184500Y-93169000D01*
D47*
X148685764Y-95799000D02*
X148956500Y-96069736D01*
X146284500Y-93169000D02*
X147284500Y-94169000D01*
X146184500Y-93169000D02*
X146284500Y-93169000D01*
X148956500Y-96069736D02*
X148956500Y-96875000D01*
X147284500Y-94169000D02*
X147284500Y-95537000D01*
X147546500Y-95799000D02*
X148685764Y-95799000D01*
D51*
X144447500Y-92455000D02*
X145470500Y-92455000D01*
D47*
X147284500Y-95537000D02*
X147546500Y-95799000D01*
D44*
X140250000Y-92945000D02*
X138314000Y-91009000D01*
X140361000Y-92945000D02*
X140250000Y-92945000D01*
D47*
X139732000Y-95895894D02*
X140361000Y-95266894D01*
D48*
X140361000Y-94584000D02*
X140357000Y-94588000D01*
X141734394Y-95793500D02*
X140887606Y-95793500D01*
X140887606Y-95793500D02*
X140361000Y-95266894D01*
X140361000Y-94592000D02*
X140357000Y-94588000D01*
X142257000Y-94588000D02*
X142257000Y-95270894D01*
D47*
X139064001Y-100357051D02*
X139732000Y-99689052D01*
D48*
X140361000Y-92945000D02*
X140361000Y-94584000D01*
X140361000Y-95266894D02*
X140361000Y-94592000D01*
D47*
X139944500Y-103992000D02*
X139064001Y-103111501D01*
X139732000Y-99689052D02*
X139732000Y-95895894D01*
X139064001Y-103111501D02*
X139064001Y-100357051D01*
D48*
X142257000Y-95270894D02*
X141734394Y-95793500D01*
D45*
X161574500Y-96037500D02*
X160777122Y-96037500D01*
X160777122Y-96037500D02*
X160139000Y-95399378D01*
D52*
X155174500Y-89895000D02*
X157714500Y-89895000D01*
D48*
X151877500Y-89679500D02*
X152093000Y-89895000D01*
D45*
X160139000Y-95399378D02*
X160139000Y-94174000D01*
D48*
X152093000Y-89895000D02*
X155174500Y-89895000D01*
D51*
X163260328Y-105622000D02*
X164176328Y-104706000D01*
X165030500Y-97493000D02*
X165030500Y-98747000D01*
X162710500Y-105622000D02*
X163260328Y-105622000D01*
D46*
X165025500Y-97498000D02*
X165030500Y-97493000D01*
D51*
X164345000Y-104706000D02*
X164345000Y-102852000D01*
X164345000Y-102852000D02*
X165025500Y-102171500D01*
X165025500Y-102171500D02*
X165025500Y-98752000D01*
X164176328Y-104706000D02*
X164345000Y-104706000D01*
X165030500Y-98747000D02*
X165025500Y-98752000D01*
D44*
X138164500Y-92490000D02*
X138164500Y-93740000D01*
D47*
X152207000Y-98157000D02*
X151945000Y-97895000D01*
X151945000Y-97895000D02*
X151945000Y-96875000D01*
X152207000Y-98776000D02*
X152207000Y-98157000D01*
X146742000Y-103287500D02*
X145532500Y-103287500D01*
X151445000Y-99528716D02*
X151445000Y-96875000D01*
X151464284Y-99548000D02*
X151445000Y-99528716D01*
D44*
X157849000Y-105754000D02*
X158880000Y-105754000D01*
D47*
X158861000Y-105754000D02*
X158880000Y-105773000D01*
D46*
X153857500Y-101787500D02*
X157430161Y-101787500D01*
X158015000Y-102372339D02*
X158015000Y-105588000D01*
X157430161Y-101787500D02*
X158015000Y-102372339D01*
X158015000Y-105588000D02*
X157849000Y-105754000D01*
X143932500Y-102287500D02*
X143755000Y-102110000D01*
X145532500Y-102287500D02*
X143932500Y-102287500D01*
D47*
X144539496Y-104278000D02*
X143489496Y-105328000D01*
X142495996Y-105328000D02*
X142087000Y-105736996D01*
X141766000Y-106937000D02*
X140846996Y-106937000D01*
X142087000Y-105736996D02*
X142087000Y-106616000D01*
X147167000Y-104057000D02*
X146697000Y-104057000D01*
X147467000Y-103757000D02*
X147167000Y-104057000D01*
X145532500Y-100287500D02*
X146587500Y-100287500D01*
X147467000Y-102635000D02*
X147467000Y-103757000D01*
X142087000Y-106616000D02*
X141766000Y-106937000D01*
X140846996Y-106937000D02*
X140001996Y-106092000D01*
X146939000Y-100639000D02*
X146939000Y-102107000D01*
X143489496Y-105328000D02*
X142495996Y-105328000D01*
X146476000Y-104278000D02*
X144539496Y-104278000D01*
X146587500Y-100287500D02*
X146939000Y-100639000D01*
X146939000Y-102107000D02*
X147467000Y-102635000D01*
X140001996Y-106092000D02*
X139884000Y-106092000D01*
X146697000Y-104057000D02*
X146476000Y-104278000D01*
X139663999Y-100710900D02*
X139993899Y-100381000D01*
X140956528Y-103220000D02*
X139663999Y-101927471D01*
X139993899Y-100381000D02*
X141084099Y-100381000D01*
X139663999Y-101927471D02*
X139663999Y-100710900D01*
X141084099Y-100381000D02*
X141515599Y-100812500D01*
X145507500Y-100812500D02*
X145532500Y-100787500D01*
X141515599Y-100812500D02*
X145507500Y-100812500D01*
X145532500Y-101287500D02*
X140570499Y-101287500D01*
X140570499Y-101287500D02*
X140538999Y-101256000D01*
D52*
X160085500Y-112035000D02*
X162625500Y-112035000D01*
D47*
X148445000Y-100754817D02*
X148445000Y-96875000D01*
X147680391Y-101519426D02*
X148445000Y-100754817D01*
X156092000Y-110465000D02*
X157360000Y-109197000D01*
X157360000Y-109197000D02*
X157368000Y-109197000D01*
D46*
X157286000Y-108905000D02*
X157368000Y-108987000D01*
X157286000Y-108905000D02*
X157368000Y-108823000D01*
D47*
X151445000Y-105200000D02*
X151445000Y-108364000D01*
D46*
X157368000Y-108987000D02*
X157368000Y-109197000D01*
D47*
X153546000Y-110465000D02*
X156092000Y-110465000D01*
X151445000Y-108364000D02*
X153546000Y-110465000D01*
X153111903Y-106581000D02*
X152283000Y-106581000D01*
X162004000Y-109219000D02*
X162004000Y-108802307D01*
X162004000Y-108802307D02*
X161539091Y-108337398D01*
X161539091Y-108337398D02*
X161539091Y-108326398D01*
X153984903Y-107454000D02*
X153111903Y-106581000D01*
X160655693Y-107454000D02*
X153984903Y-107454000D01*
X161539091Y-108326398D02*
X161340693Y-108128000D01*
X161340693Y-108128000D02*
X161329693Y-108128000D01*
X161329693Y-108128000D02*
X160655693Y-107454000D01*
X152283000Y-106581000D02*
X151945000Y-106243000D01*
D44*
X162004000Y-109219000D02*
X162072242Y-109219000D01*
X165393000Y-111189000D02*
X165393000Y-111199000D01*
D47*
X151945000Y-106243000D02*
X151945000Y-105200000D01*
D44*
X164042242Y-111189000D02*
X165393000Y-111189000D01*
X162072242Y-109219000D02*
X164042242Y-111189000D01*
D53*
X170205499Y-109150444D02*
X170205499Y-104668984D01*
D47*
X152801000Y-106131000D02*
X152445000Y-105775000D01*
D53*
X170205499Y-104668984D02*
X168805515Y-103269000D01*
X164044000Y-109208000D02*
X164044000Y-109695403D01*
D47*
X164044000Y-109208000D02*
X164044000Y-108977000D01*
X152445000Y-105775000D02*
X152445000Y-105200000D01*
D53*
X164686597Y-110338000D02*
X169017943Y-110338000D01*
D47*
X153298299Y-106131000D02*
X152801000Y-106131000D01*
X162071000Y-107004000D02*
X154171299Y-107004000D01*
X164044000Y-108977000D02*
X162071000Y-107004000D01*
D53*
X164044000Y-109695403D02*
X164686597Y-110338000D01*
X169017943Y-110338000D02*
X170205499Y-109150444D01*
X168805515Y-103269000D02*
X167286000Y-103269000D01*
D47*
X154171299Y-107004000D02*
X153298299Y-106131000D01*
X167348000Y-108937000D02*
X167348000Y-109208000D01*
X154357695Y-106554000D02*
X153858000Y-106054305D01*
D44*
X165810000Y-107670000D02*
X167348000Y-109208000D01*
X165810000Y-106307000D02*
X165810000Y-107670000D01*
D47*
X165810000Y-107670000D02*
X163373396Y-107670000D01*
X153052236Y-102787500D02*
X153857500Y-102787500D01*
X162257396Y-106554000D02*
X154357695Y-106554000D01*
X152619000Y-103220736D02*
X153052236Y-102787500D01*
X152619000Y-104068736D02*
X152619000Y-103220736D01*
X163373396Y-107670000D02*
X162257396Y-106554000D01*
X153858000Y-105307736D02*
X152619000Y-104068736D01*
X167348000Y-109208000D02*
X167348000Y-108953000D01*
X153858000Y-106054305D02*
X153858000Y-105307736D01*
D44*
X165377424Y-96355000D02*
X166384500Y-97362076D01*
X164920500Y-96355000D02*
X165377424Y-96355000D01*
D51*
X166402500Y-97740500D02*
X166384500Y-97758500D01*
X163441500Y-96356000D02*
X164919500Y-96356000D01*
D45*
X161574500Y-96687500D02*
X163110000Y-96687500D01*
X163110000Y-96687500D02*
X163441500Y-96356000D01*
D44*
X166384500Y-97362076D02*
X166384500Y-97758500D01*
D51*
X166396500Y-96355000D02*
X166402500Y-96349000D01*
X164920500Y-96355000D02*
X166396500Y-96355000D01*
X166402500Y-96349000D02*
X166402500Y-97740500D01*
X164919500Y-96356000D02*
X164920500Y-96355000D01*
D54*
X139188000Y-107742000D02*
X139884000Y-107742000D01*
X138881000Y-107435000D02*
X139188000Y-107742000D01*
X138124500Y-107435000D02*
X138881000Y-107435000D01*
D52*
X154543500Y-112035000D02*
X157083500Y-112035000D01*
D55*
X160474437Y-93272000D02*
X160728437Y-93526000D01*
X160728437Y-93526000D02*
X162937000Y-93526000D01*
X160100499Y-93096499D02*
X160276000Y-93272000D01*
X162937000Y-93526000D02*
X163334000Y-93129000D01*
X159216000Y-93096499D02*
X160100499Y-93096499D01*
X160276000Y-93272000D02*
X160474437Y-93272000D01*
D44*
X159878000Y-96269748D02*
X159339000Y-95730748D01*
X159339000Y-95730748D02*
X159339000Y-94869499D01*
X159878000Y-98610000D02*
X159878000Y-96269748D01*
X159339000Y-94869499D02*
X157566000Y-93096499D01*
D46*
X147745000Y-107448738D02*
X147745000Y-107872500D01*
D56*
X147174617Y-109393617D02*
X147174617Y-109420383D01*
D46*
X148445000Y-106748738D02*
X147745000Y-107448738D01*
D56*
X146959000Y-109636000D02*
X144760000Y-109636000D01*
X147174617Y-109420383D02*
X146959000Y-109636000D01*
D46*
X148445000Y-105200000D02*
X148445000Y-106748738D01*
D56*
X147745000Y-107872500D02*
X147745000Y-108823234D01*
X147745000Y-108823234D02*
X147174617Y-109393617D01*
X144760000Y-109636000D02*
X142947000Y-107823000D01*
X142947000Y-107823000D02*
X142947000Y-107694000D01*
D46*
X149645000Y-107448738D02*
X149645000Y-107872500D01*
X148945000Y-106748738D02*
X149645000Y-107448738D01*
X148945000Y-105200000D02*
X148945000Y-106748738D01*
D47*
X143014000Y-99873052D02*
X143329948Y-100189000D01*
X143292000Y-95354000D02*
X143014000Y-95632000D01*
X143014000Y-95632000D02*
X143014000Y-99873052D01*
X143329948Y-100189000D02*
X144312552Y-100189000D01*
X144312552Y-100189000D02*
X144714052Y-99787500D01*
X144714052Y-99787500D02*
X145544000Y-99787500D01*
X143292000Y-94118000D02*
X143292000Y-95354000D01*
D46*
X146888000Y-98772620D02*
X146888000Y-98499000D01*
X146373120Y-99287500D02*
X146888000Y-98772620D01*
X145532500Y-99287500D02*
X146373120Y-99287500D01*
D47*
X160041000Y-100287500D02*
X161041000Y-99287500D01*
X148845556Y-103833672D02*
X149476709Y-103833672D01*
X153869000Y-100287500D02*
X160041000Y-100287500D01*
X149476709Y-103833672D02*
X153022881Y-100287500D01*
X153022881Y-100287500D02*
X153857500Y-100287500D01*
X161041000Y-99287500D02*
X161574500Y-99287500D01*
X148819000Y-101447000D02*
X150590589Y-101447000D01*
X150590589Y-101447000D02*
X152750089Y-99287500D01*
D46*
X153857500Y-99287500D02*
X155849500Y-99287500D01*
D47*
X152750089Y-99287500D02*
X153857500Y-99287500D01*
X149607985Y-103066000D02*
X152886485Y-99787500D01*
X153894000Y-99812500D02*
X159708188Y-99812500D01*
X152886485Y-99787500D02*
X153857500Y-99787500D01*
X153869000Y-99787500D02*
X153894000Y-99812500D01*
X160883188Y-98637500D02*
X161574500Y-98637500D01*
X148195000Y-103066000D02*
X149607985Y-103066000D01*
X159708188Y-99812500D02*
X160883188Y-98637500D01*
X147613000Y-97942695D02*
X147445000Y-97774695D01*
X147445000Y-97774695D02*
X147445000Y-96875000D01*
X147613000Y-99555947D02*
X147613000Y-97942695D01*
D48*
X149645000Y-110147500D02*
X149645000Y-111441000D01*
X147745000Y-110147500D02*
X147745000Y-111441000D01*
D51*
X163335500Y-101997000D02*
X162710500Y-102622000D01*
X163335500Y-100891001D02*
X163335500Y-101997000D01*
D47*
X162637000Y-98358688D02*
X162265812Y-97987500D01*
X160177396Y-100787500D02*
X161006896Y-99958000D01*
X153869000Y-100787500D02*
X160177396Y-100787500D01*
X161006896Y-99958000D02*
X162245312Y-99958000D01*
X162265812Y-97987500D02*
X161574500Y-97987500D01*
X162637000Y-99566312D02*
X162637000Y-98358688D01*
X162245312Y-99958000D02*
X162637000Y-99566312D01*
D46*
X154772500Y-98787500D02*
X154922500Y-98637500D01*
X154922500Y-98637500D02*
X155849500Y-98637500D01*
X153857500Y-98787500D02*
X154772500Y-98787500D01*
D47*
X145944500Y-108337082D02*
X145944500Y-108334592D01*
X142122000Y-108142004D02*
X142122000Y-107344000D01*
X147945000Y-106334092D02*
X147945000Y-105200000D01*
X144581254Y-108835000D02*
X145446582Y-108835000D01*
X145446582Y-108835000D02*
X145944500Y-108337082D01*
X133289500Y-99800500D02*
X133289500Y-105433500D01*
X133289500Y-105433500D02*
X136402000Y-108546000D01*
X142122000Y-107344000D02*
X142520000Y-106946000D01*
X133872000Y-99218000D02*
X133289500Y-99800500D01*
X136402000Y-108546000D02*
X141718004Y-108546000D01*
X142520000Y-106946000D02*
X143368004Y-106946000D01*
X145944500Y-108334592D02*
X147945000Y-106334092D01*
X141718004Y-108546000D02*
X142122000Y-108142004D01*
X143844000Y-108097746D02*
X144581254Y-108835000D01*
X143844000Y-107421996D02*
X143844000Y-108097746D01*
X143368004Y-106946000D02*
X143844000Y-107421996D01*
X133872000Y-92032000D02*
X135989000Y-94149000D01*
X144178004Y-102910000D02*
X144300504Y-102787500D01*
X140495100Y-104886000D02*
X141658312Y-103722788D01*
X135989000Y-94149000D02*
X135989000Y-98085899D01*
X139414400Y-104886000D02*
X140495100Y-104886000D01*
X141658312Y-103429467D02*
X142177779Y-102910000D01*
X138614001Y-103301897D02*
X139036000Y-103723896D01*
X139036000Y-104507600D02*
X139414400Y-104886000D01*
X135989000Y-98085899D02*
X138614001Y-100710900D01*
X138614001Y-100710900D02*
X138614001Y-103301897D01*
X141658312Y-103722788D02*
X141658312Y-103429467D01*
X142177779Y-102910000D02*
X144178004Y-102910000D01*
X144300504Y-102787500D02*
X145532500Y-102787500D01*
X139036000Y-103723896D02*
X139036000Y-104507600D01*
D48*
X142257000Y-96863000D02*
X142257000Y-98366000D01*
X142257000Y-98366000D02*
X142095000Y-98528000D01*
D47*
X137814500Y-101256000D02*
X137814500Y-101256501D01*
X137814500Y-101256000D02*
X137798500Y-101272000D01*
X137798500Y-101272000D02*
X137755001Y-101272000D01*
X137814500Y-101256501D02*
X137777001Y-101294000D01*
D44*
X169496500Y-97714000D02*
X167870000Y-97714000D01*
X167870000Y-97714000D02*
X167866000Y-97710000D01*
D47*
X144393600Y-103787500D02*
X143313100Y-104868000D01*
D50*
X137651000Y-103121000D02*
X137625000Y-103121000D01*
X137651000Y-103147000D02*
X137651000Y-103121000D01*
X137625000Y-103121000D02*
X137659000Y-103155000D01*
D47*
X139220500Y-105336000D02*
X138586000Y-104701500D01*
X145532500Y-103787500D02*
X144393600Y-103787500D01*
X141149496Y-104868000D02*
X140681496Y-105336000D01*
X143313100Y-104868000D02*
X141149496Y-104868000D01*
X140681496Y-105336000D02*
X139220500Y-105336000D01*
X138586000Y-104056000D02*
X137651000Y-103121000D01*
X138586000Y-104701500D02*
X138586000Y-104056000D01*
D48*
X167860500Y-96054500D02*
X167860500Y-92622000D01*
X167866000Y-96060000D02*
X167860500Y-96054500D01*
X167860500Y-92622000D02*
X167680500Y-92442000D01*
G04 #@! TA.AperFunction,Conductor*
G36*
X166210500Y-105926962D02*
G01*
X166265038Y-105981500D01*
X166285000Y-106056000D01*
X166285000Y-107924000D01*
X166285000Y-107924001D01*
X166285001Y-107924002D01*
X166691949Y-108629498D01*
X166711882Y-108704006D01*
X166691890Y-108778498D01*
X166637331Y-108833014D01*
X166562823Y-108852947D01*
X166488331Y-108832955D01*
X166487824Y-108832661D01*
X165864524Y-108469194D01*
X165834776Y-108444518D01*
X165833867Y-108445428D01*
X165830104Y-108441665D01*
X165785900Y-108403362D01*
X165785893Y-108403357D01*
X165664954Y-108325634D01*
X165664948Y-108325631D01*
X165664945Y-108325629D01*
X165611740Y-108301331D01*
X165611741Y-108301331D01*
X165611736Y-108301329D01*
X165473793Y-108260825D01*
X165473782Y-108260823D01*
X165415900Y-108252501D01*
X165415892Y-108252500D01*
X165415889Y-108252500D01*
X164844000Y-108252500D01*
X164843999Y-108252500D01*
X164798276Y-108257651D01*
X164798273Y-108257651D01*
X164798272Y-108257652D01*
X164798270Y-108257653D01*
X164764585Y-108273875D01*
X164688802Y-108288213D01*
X164635292Y-108273876D01*
X164633164Y-108272851D01*
X164544001Y-108252500D01*
X164544000Y-108252500D01*
X163972111Y-108252500D01*
X163972107Y-108252500D01*
X163972099Y-108252501D01*
X163914214Y-108260823D01*
X163914213Y-108260824D01*
X163901583Y-108264532D01*
X163824476Y-108266364D01*
X163756784Y-108229398D01*
X163754252Y-108226925D01*
X162637686Y-107110359D01*
X162599122Y-107043564D01*
X162599122Y-106966436D01*
X162637686Y-106899641D01*
X162704481Y-106861077D01*
X162743045Y-106856000D01*
X163734000Y-106856000D01*
X163857962Y-106856000D01*
X163925606Y-106872239D01*
X163961874Y-106890719D01*
X164061512Y-106906500D01*
X164061517Y-106906500D01*
X164628483Y-106906500D01*
X164628488Y-106906500D01*
X164728126Y-106890719D01*
X164848220Y-106829528D01*
X164943528Y-106734220D01*
X165004719Y-106614126D01*
X165020500Y-106514488D01*
X165020500Y-106056000D01*
X165040462Y-105981500D01*
X165095000Y-105926962D01*
X165169500Y-105907000D01*
X166136000Y-105907000D01*
X166210500Y-105926962D01*
G37*
G04 #@! TD.AperFunction*
G04 #@! TA.AperFunction,Conductor*
G36*
X150515500Y-94288962D02*
G01*
X150570038Y-94343500D01*
X150590000Y-94418000D01*
X150590000Y-95124874D01*
X150570038Y-95199374D01*
X150546359Y-95230233D01*
X150164527Y-95612065D01*
X150129139Y-95673359D01*
X150129140Y-95673360D01*
X150118386Y-95691985D01*
X150094500Y-95781129D01*
X150094500Y-95788000D01*
X150074538Y-95862500D01*
X150020000Y-95917038D01*
X149945501Y-95937000D01*
X149842867Y-95937000D01*
X149762504Y-95952985D01*
X149671376Y-96013875D01*
X149671375Y-96013876D01*
X149610485Y-96105003D01*
X149610484Y-96105007D01*
X149594500Y-96185366D01*
X149594501Y-97464000D01*
X149574539Y-97538500D01*
X149520001Y-97593038D01*
X149445501Y-97613000D01*
X149444500Y-97613000D01*
X149370000Y-97593038D01*
X149315462Y-97538500D01*
X149295500Y-97464000D01*
X149295499Y-96185367D01*
X149284864Y-96131897D01*
X149282001Y-96102831D01*
X149282001Y-96026887D01*
X149282001Y-96026884D01*
X149259818Y-95944098D01*
X149219011Y-95873418D01*
X149216965Y-95869874D01*
X149156362Y-95809271D01*
X149156360Y-95809269D01*
X148885626Y-95538535D01*
X148885623Y-95538533D01*
X148885622Y-95538532D01*
X148811405Y-95495683D01*
X148811404Y-95495682D01*
X148811403Y-95495682D01*
X148772983Y-95485387D01*
X148728619Y-95473500D01*
X148728617Y-95473500D01*
X147833000Y-95473500D01*
X147758500Y-95453538D01*
X147703962Y-95399000D01*
X147684000Y-95324500D01*
X147684000Y-94418000D01*
X147703962Y-94343500D01*
X147758500Y-94288962D01*
X147833000Y-94269000D01*
X150441000Y-94269000D01*
X150515500Y-94288962D01*
G37*
G04 #@! TD.AperFunction*
G04 #@! TA.AperFunction,Conductor*
G36*
X147020000Y-104481962D02*
G01*
X147074538Y-104536500D01*
X147094500Y-104611000D01*
X147094500Y-105837788D01*
X147074538Y-105912288D01*
X147020000Y-105966826D01*
X147001428Y-105975893D01*
X146316903Y-106253105D01*
X146260975Y-106264000D01*
X145539000Y-106264000D01*
X145464500Y-106244038D01*
X145409962Y-106189500D01*
X145390000Y-106115000D01*
X145390000Y-104752500D01*
X145409962Y-104678000D01*
X145464500Y-104623462D01*
X145539000Y-104603500D01*
X146518851Y-104603500D01*
X146518853Y-104603500D01*
X146601639Y-104581318D01*
X146675862Y-104538465D01*
X146708687Y-104505639D01*
X146775480Y-104467077D01*
X146814044Y-104462000D01*
X146945500Y-104462000D01*
X147020000Y-104481962D01*
G37*
G04 #@! TD.AperFunction*
G04 #@! TA.AperFunction,Conductor*
G36*
X136059660Y-108889907D02*
G01*
X136095624Y-108939407D01*
X136095624Y-109000593D01*
X136059660Y-109050093D01*
X136039355Y-109061463D01*
X136036503Y-109062645D01*
X136032688Y-109064225D01*
X136032682Y-109064228D01*
X135917958Y-109140885D01*
X135820385Y-109238458D01*
X135743728Y-109353182D01*
X135743722Y-109353193D01*
X135690920Y-109480670D01*
X135690920Y-109480672D01*
X135664000Y-109616004D01*
X135664000Y-109753995D01*
X135679544Y-109832139D01*
X135690748Y-109888465D01*
X135690920Y-109889327D01*
X135690920Y-109889329D01*
X135743722Y-110016806D01*
X135743728Y-110016817D01*
X135820385Y-110131541D01*
X135917958Y-110229114D01*
X136032682Y-110305771D01*
X136032693Y-110305777D01*
X136079783Y-110325282D01*
X136160172Y-110358580D01*
X136295507Y-110385500D01*
X136295508Y-110385500D01*
X136433492Y-110385500D01*
X136433493Y-110385500D01*
X136568828Y-110358580D01*
X136696311Y-110305775D01*
X136811042Y-110229114D01*
X136908614Y-110131542D01*
X136985275Y-110016811D01*
X137038080Y-109889328D01*
X137065000Y-109753993D01*
X137065000Y-109616007D01*
X137038080Y-109480672D01*
X137010692Y-109414552D01*
X136985277Y-109353193D01*
X136985271Y-109353182D01*
X136908614Y-109238458D01*
X136811041Y-109140885D01*
X136696317Y-109064228D01*
X136696312Y-109064225D01*
X136693374Y-109063008D01*
X136690853Y-109061964D01*
X136644328Y-109022229D01*
X136630043Y-108962735D01*
X136653456Y-108906206D01*
X136705625Y-108874236D01*
X136728738Y-108871500D01*
X140582809Y-108871500D01*
X140641000Y-108890407D01*
X140676964Y-108939907D01*
X140676964Y-109001093D01*
X140641000Y-109050593D01*
X140635856Y-109054088D01*
X140635706Y-109054182D01*
X140391340Y-109231723D01*
X140391337Y-109231725D01*
X140171155Y-109438491D01*
X140171145Y-109438502D01*
X139978614Y-109671232D01*
X139816774Y-109926250D01*
X139816767Y-109926263D01*
X139688161Y-110199563D01*
X139653652Y-110305771D01*
X139627747Y-110385500D01*
X139594820Y-110486838D01*
X139594817Y-110486848D01*
X139538220Y-110783537D01*
X139519254Y-111085000D01*
X139538220Y-111386462D01*
X139587545Y-111645029D01*
X139594819Y-111683160D01*
X139686569Y-111965536D01*
X139688161Y-111970436D01*
X139816767Y-112243736D01*
X139816774Y-112243749D01*
X139978614Y-112498767D01*
X140171145Y-112731497D01*
X140171155Y-112731508D01*
X140311533Y-112863332D01*
X140341009Y-112916950D01*
X140333341Y-112977652D01*
X140291456Y-113022254D01*
X140243763Y-113034500D01*
X134019361Y-113034500D01*
X134009657Y-113034023D01*
X133858474Y-113019132D01*
X133839440Y-113015346D01*
X133698742Y-112972666D01*
X133680811Y-112965239D01*
X133551141Y-112895928D01*
X133535005Y-112885146D01*
X133421350Y-112791872D01*
X133407627Y-112778149D01*
X133314353Y-112664494D01*
X133303571Y-112648358D01*
X133234260Y-112518688D01*
X133226833Y-112500757D01*
X133184153Y-112360059D01*
X133180367Y-112341025D01*
X133175181Y-112288375D01*
X133165477Y-112189843D01*
X133165000Y-112180139D01*
X133165000Y-108970000D01*
X133183907Y-108911809D01*
X133233407Y-108875845D01*
X133264000Y-108871000D01*
X136001469Y-108871000D01*
X136059660Y-108889907D01*
G37*
G04 #@! TD.AperFunction*
G04 #@! TA.AperFunction,Conductor*
G36*
X150750000Y-106113659D02*
G01*
X150762505Y-106122015D01*
X150842867Y-106138000D01*
X151020499Y-106137999D01*
X151078690Y-106156906D01*
X151114654Y-106206406D01*
X151119500Y-106236999D01*
X151119500Y-108321147D01*
X151119500Y-108406853D01*
X151141682Y-108489639D01*
X151141682Y-108489640D01*
X151143362Y-108495907D01*
X151140350Y-108496714D01*
X151144025Y-108545128D01*
X151111911Y-108597208D01*
X151055318Y-108620465D01*
X150998325Y-108607485D01*
X150887689Y-108543609D01*
X150887691Y-108543609D01*
X150838299Y-108530375D01*
X150760392Y-108509500D01*
X150628608Y-108509500D01*
X150550700Y-108530375D01*
X150501309Y-108543609D01*
X150387190Y-108609496D01*
X150293996Y-108702690D01*
X150228109Y-108816809D01*
X150220590Y-108844870D01*
X150194000Y-108944108D01*
X150194000Y-109075892D01*
X150224079Y-109188151D01*
X150228109Y-109203190D01*
X150293996Y-109317309D01*
X150293998Y-109317311D01*
X150294000Y-109317314D01*
X150387186Y-109410500D01*
X150387188Y-109410501D01*
X150387190Y-109410503D01*
X150501310Y-109476390D01*
X150501308Y-109476390D01*
X150501312Y-109476391D01*
X150501314Y-109476392D01*
X150628608Y-109510500D01*
X150628610Y-109510500D01*
X150760390Y-109510500D01*
X150760392Y-109510500D01*
X150887686Y-109476392D01*
X150887688Y-109476390D01*
X150887690Y-109476390D01*
X151001809Y-109410503D01*
X151001809Y-109410502D01*
X151001814Y-109410500D01*
X151095000Y-109317314D01*
X151095003Y-109317309D01*
X151160890Y-109203190D01*
X151160890Y-109203188D01*
X151160892Y-109203186D01*
X151195000Y-109075892D01*
X151195000Y-108944108D01*
X151160892Y-108816814D01*
X151159047Y-108813618D01*
X151158497Y-108811031D01*
X151158408Y-108810816D01*
X151158447Y-108810799D01*
X151146325Y-108753769D01*
X151171211Y-108697874D01*
X151224199Y-108667281D01*
X151285049Y-108673676D01*
X151314784Y-108694110D01*
X153285533Y-110664859D01*
X153285535Y-110664862D01*
X153346138Y-110725465D01*
X153383247Y-110746889D01*
X153383249Y-110746891D01*
X153414276Y-110764805D01*
X153420361Y-110768318D01*
X153503147Y-110790501D01*
X153503149Y-110790501D01*
X153594916Y-110790501D01*
X153594932Y-110790500D01*
X153925042Y-110790500D01*
X153983233Y-110809407D01*
X154019197Y-110858907D01*
X154019197Y-110920093D01*
X153983233Y-110969593D01*
X153977156Y-110973673D01*
X153957485Y-110985852D01*
X153950319Y-110989887D01*
X153914298Y-111008241D01*
X153876731Y-111035535D01*
X153870660Y-111039612D01*
X153816936Y-111072877D01*
X153788017Y-111099238D01*
X153779525Y-111106158D01*
X153761426Y-111119310D01*
X153715849Y-111164886D01*
X153712545Y-111168041D01*
X153652517Y-111222765D01*
X153639832Y-111239562D01*
X153630848Y-111249887D01*
X153627812Y-111252923D01*
X153579326Y-111319658D01*
X153578238Y-111321126D01*
X153518442Y-111400309D01*
X153518441Y-111400311D01*
X153471549Y-111494483D01*
X153471138Y-111495298D01*
X153430956Y-111574161D01*
X153429467Y-111577757D01*
X153429364Y-111577714D01*
X153425965Y-111586027D01*
X153419270Y-111599472D01*
X153395398Y-111683370D01*
X153394333Y-111686867D01*
X153372562Y-111753873D01*
X153372559Y-111753885D01*
X153370002Y-111770027D01*
X153367443Y-111781625D01*
X153366803Y-111783876D01*
X153358385Y-111813460D01*
X153358384Y-111813467D01*
X153351997Y-111882383D01*
X153351201Y-111888732D01*
X153343000Y-111940514D01*
X153343000Y-111974917D01*
X153342577Y-111984051D01*
X153337857Y-112035000D01*
X153340901Y-112067845D01*
X153342578Y-112085948D01*
X153343000Y-112095082D01*
X153343000Y-112129484D01*
X153351201Y-112181265D01*
X153351998Y-112187616D01*
X153354644Y-112216165D01*
X153358385Y-112256536D01*
X153358385Y-112256539D01*
X153358386Y-112256540D01*
X153367443Y-112288375D01*
X153370002Y-112299973D01*
X153372559Y-112316118D01*
X153394333Y-112383129D01*
X153395398Y-112386628D01*
X153419270Y-112470526D01*
X153419270Y-112470527D01*
X153425961Y-112483964D01*
X153429361Y-112492280D01*
X153429464Y-112492238D01*
X153430951Y-112495828D01*
X153471160Y-112574743D01*
X153471550Y-112575518D01*
X153518442Y-112669689D01*
X153578222Y-112748851D01*
X153578231Y-112748862D01*
X153579319Y-112750332D01*
X153627806Y-112817069D01*
X153630846Y-112820109D01*
X153639839Y-112830446D01*
X153652510Y-112847225D01*
X153652514Y-112847229D01*
X153652519Y-112847236D01*
X153669086Y-112862339D01*
X153699352Y-112915514D01*
X153692581Y-112976323D01*
X153651361Y-113021540D01*
X153602390Y-113034500D01*
X148215378Y-113034500D01*
X148157187Y-113015593D01*
X148121223Y-112966093D01*
X148121223Y-112904907D01*
X148157187Y-112855407D01*
X148189752Y-112839874D01*
X148310979Y-112807392D01*
X148310981Y-112807390D01*
X148310983Y-112807390D01*
X148425102Y-112741503D01*
X148425102Y-112741502D01*
X148425107Y-112741500D01*
X149095500Y-112071107D01*
X149157021Y-111964548D01*
X149202489Y-111923608D01*
X149263340Y-111917212D01*
X149303024Y-111935507D01*
X149309555Y-111940518D01*
X149342159Y-111965536D01*
X149342160Y-111965536D01*
X149342161Y-111965537D01*
X149488233Y-112026042D01*
X149488238Y-112026044D01*
X149605809Y-112041522D01*
X149644999Y-112046682D01*
X149645000Y-112046682D01*
X149645001Y-112046682D01*
X149676352Y-112042554D01*
X149801762Y-112026044D01*
X149947841Y-111965536D01*
X150073282Y-111869282D01*
X150169536Y-111743841D01*
X150230044Y-111597762D01*
X150250682Y-111441000D01*
X150230044Y-111284238D01*
X150169536Y-111138159D01*
X150169534Y-111138154D01*
X150165955Y-111133490D01*
X150145534Y-111075814D01*
X150145500Y-111073227D01*
X150145500Y-109601743D01*
X150138992Y-109557074D01*
X150135573Y-109533607D01*
X150123278Y-109508458D01*
X150107602Y-109476392D01*
X150084198Y-109428517D01*
X150001483Y-109345802D01*
X149954307Y-109322739D01*
X149896395Y-109294427D01*
X149869139Y-109290456D01*
X149828260Y-109284500D01*
X149461740Y-109284500D01*
X149427673Y-109289463D01*
X149393604Y-109294427D01*
X149288518Y-109345801D01*
X149288517Y-109345801D01*
X149288517Y-109345802D01*
X149240001Y-109394317D01*
X149185487Y-109422093D01*
X149125055Y-109412522D01*
X149099999Y-109394318D01*
X149051483Y-109345802D01*
X149004307Y-109322739D01*
X148946395Y-109294427D01*
X148919139Y-109290456D01*
X148878260Y-109284500D01*
X148511740Y-109284500D01*
X148477673Y-109289463D01*
X148443604Y-109294427D01*
X148338518Y-109345801D01*
X148338517Y-109345801D01*
X148338517Y-109345802D01*
X148290001Y-109394317D01*
X148235487Y-109422093D01*
X148175055Y-109412522D01*
X148149999Y-109394318D01*
X148101483Y-109345802D01*
X148054307Y-109322739D01*
X147996395Y-109294427D01*
X147975831Y-109291431D01*
X147950390Y-109287724D01*
X147895535Y-109260625D01*
X147867084Y-109206457D01*
X147875906Y-109145911D01*
X147894659Y-109119758D01*
X147997462Y-109016956D01*
X148021443Y-108975419D01*
X148038999Y-108945012D01*
X148060500Y-108864770D01*
X148060500Y-108754418D01*
X148079407Y-108696227D01*
X148095727Y-108680043D01*
X148095682Y-108679998D01*
X148101480Y-108674199D01*
X148101483Y-108674198D01*
X148184198Y-108591483D01*
X148235573Y-108486393D01*
X148245500Y-108418260D01*
X148245500Y-107484928D01*
X148264407Y-107426737D01*
X148274496Y-107414924D01*
X148624996Y-107064424D01*
X148679513Y-107036647D01*
X148739945Y-107046218D01*
X148765004Y-107064424D01*
X149115504Y-107414924D01*
X149143281Y-107469441D01*
X149144500Y-107484928D01*
X149144500Y-108418260D01*
X149147912Y-108441675D01*
X149154427Y-108486395D01*
X149189009Y-108557133D01*
X149205802Y-108591483D01*
X149288517Y-108674198D01*
X149336947Y-108697874D01*
X149393604Y-108725572D01*
X149393605Y-108725572D01*
X149393607Y-108725573D01*
X149461740Y-108735500D01*
X149461743Y-108735500D01*
X149828257Y-108735500D01*
X149828260Y-108735500D01*
X149896393Y-108725573D01*
X150001483Y-108674198D01*
X150084198Y-108591483D01*
X150135573Y-108486393D01*
X150145500Y-108418260D01*
X150145500Y-107326740D01*
X150135573Y-107258607D01*
X150084198Y-107153517D01*
X150001483Y-107070802D01*
X150001481Y-107070801D01*
X149896395Y-107019427D01*
X149869139Y-107015456D01*
X149828260Y-107009500D01*
X149828257Y-107009500D01*
X149742452Y-107009500D01*
X149684261Y-106990593D01*
X149672448Y-106980504D01*
X149324496Y-106632552D01*
X149296719Y-106578035D01*
X149295500Y-106562548D01*
X149295500Y-106236999D01*
X149314407Y-106178808D01*
X149363907Y-106142844D01*
X149394495Y-106137999D01*
X149547132Y-106137999D01*
X149627495Y-106122015D01*
X149639996Y-106113661D01*
X149698883Y-106097051D01*
X149750000Y-106113659D01*
X149762505Y-106122015D01*
X149842867Y-106138000D01*
X150047132Y-106137999D01*
X150127495Y-106122015D01*
X150139996Y-106113661D01*
X150198883Y-106097051D01*
X150250000Y-106113659D01*
X150262505Y-106122015D01*
X150342867Y-106138000D01*
X150547132Y-106137999D01*
X150627495Y-106122015D01*
X150639996Y-106113661D01*
X150698883Y-106097051D01*
X150750000Y-106113659D01*
G37*
G04 #@! TD.AperFunction*
G04 #@! TA.AperFunction,Conductor*
G36*
X170375945Y-109607777D02*
G01*
X170419210Y-109651042D01*
X170430000Y-109695987D01*
X170430000Y-112180139D01*
X170429523Y-112189843D01*
X170414632Y-112341025D01*
X170410846Y-112360059D01*
X170368166Y-112500757D01*
X170360739Y-112518688D01*
X170291428Y-112648358D01*
X170280646Y-112664494D01*
X170187372Y-112778149D01*
X170173649Y-112791872D01*
X170059994Y-112885146D01*
X170043858Y-112895928D01*
X169914188Y-112965239D01*
X169896257Y-112972666D01*
X169755559Y-113015346D01*
X169736525Y-113019132D01*
X169585343Y-113034023D01*
X169575639Y-113034500D01*
X166439984Y-113034500D01*
X166381793Y-113015593D01*
X166345829Y-112966093D01*
X166345829Y-112904907D01*
X166379712Y-112856962D01*
X166392400Y-112847225D01*
X166396194Y-112844313D01*
X166406954Y-112837124D01*
X166435716Y-112820519D01*
X166459200Y-112797033D01*
X166468927Y-112788503D01*
X166495282Y-112768282D01*
X166515498Y-112741933D01*
X166524029Y-112732204D01*
X167435277Y-111820956D01*
X167460332Y-111802754D01*
X167481342Y-111792050D01*
X167571050Y-111702342D01*
X167628646Y-111589304D01*
X167643500Y-111495519D01*
X167643499Y-110882482D01*
X167638653Y-110851881D01*
X167634869Y-110827986D01*
X167644441Y-110767554D01*
X167687706Y-110724290D01*
X167732650Y-110713500D01*
X169067379Y-110713500D01*
X169115129Y-110700705D01*
X169115130Y-110700705D01*
X169162877Y-110687911D01*
X169162876Y-110687911D01*
X169162881Y-110687910D01*
X169248505Y-110638475D01*
X169318418Y-110568562D01*
X169318417Y-110568562D01*
X170260997Y-109625982D01*
X170315513Y-109598206D01*
X170375945Y-109607777D01*
G37*
G04 #@! TD.AperFunction*
G04 #@! TA.AperFunction,Conductor*
G36*
X151939501Y-106697828D02*
G01*
X152083138Y-106841465D01*
X152083140Y-106841466D01*
X152083142Y-106841468D01*
X152157357Y-106884316D01*
X152157355Y-106884316D01*
X152157359Y-106884317D01*
X152157361Y-106884318D01*
X152240147Y-106906500D01*
X152325853Y-106906500D01*
X152936068Y-106906500D01*
X152994259Y-106925407D01*
X153006072Y-106935496D01*
X153724438Y-107653862D01*
X153724437Y-107653862D01*
X153759557Y-107688981D01*
X153785041Y-107714465D01*
X153859265Y-107757318D01*
X153942050Y-107779500D01*
X160479858Y-107779500D01*
X160538049Y-107798407D01*
X160549862Y-107808496D01*
X161129831Y-108388465D01*
X161142802Y-108395954D01*
X161144569Y-108396974D01*
X161165072Y-108412706D01*
X161254384Y-108502018D01*
X161270115Y-108522520D01*
X161281870Y-108542879D01*
X161280567Y-108543631D01*
X161298466Y-108594171D01*
X161298500Y-108596766D01*
X161298500Y-108900461D01*
X161297492Y-108914553D01*
X161295451Y-108928749D01*
X161295450Y-108928754D01*
X161295450Y-108987245D01*
X161297441Y-109001093D01*
X161297492Y-109001444D01*
X161298500Y-109015537D01*
X161298500Y-109400461D01*
X161297492Y-109414552D01*
X161295450Y-109428752D01*
X161295450Y-109487245D01*
X161297492Y-109501448D01*
X161298500Y-109515537D01*
X161298500Y-109958001D01*
X161303651Y-110003727D01*
X161333635Y-110065987D01*
X161343334Y-110086127D01*
X161414837Y-110143149D01*
X161504000Y-110163500D01*
X162075892Y-110163500D01*
X162092813Y-110161066D01*
X162106936Y-110159036D01*
X162167224Y-110169468D01*
X162191030Y-110187024D01*
X162669502Y-110665496D01*
X162697279Y-110720013D01*
X162687708Y-110780445D01*
X162644443Y-110823710D01*
X162599498Y-110834500D01*
X159974252Y-110834500D01*
X159973410Y-110834578D01*
X159964281Y-110835000D01*
X157204719Y-110835000D01*
X157195590Y-110834578D01*
X157194748Y-110834500D01*
X157194743Y-110834500D01*
X157177981Y-110834500D01*
X156421834Y-110834500D01*
X156363643Y-110815593D01*
X156327679Y-110766093D01*
X156327679Y-110704907D01*
X156351830Y-110665497D01*
X156428827Y-110588500D01*
X156914258Y-110103066D01*
X156968773Y-110075290D01*
X157029205Y-110084861D01*
X157031696Y-110086176D01*
X157032040Y-110086364D01*
X157032054Y-110086370D01*
X157032055Y-110086371D01*
X157085260Y-110110669D01*
X157223215Y-110151176D01*
X157242513Y-110153950D01*
X157281107Y-110159500D01*
X157281111Y-110159500D01*
X157852999Y-110159500D01*
X157853000Y-110159500D01*
X157898728Y-110154348D01*
X157981127Y-110114666D01*
X158038149Y-110043163D01*
X158058500Y-109954000D01*
X158058500Y-109511537D01*
X158059508Y-109497448D01*
X158061550Y-109483245D01*
X158061550Y-109424752D01*
X158059508Y-109410552D01*
X158058500Y-109396461D01*
X158058500Y-109011537D01*
X158059508Y-108997444D01*
X158061550Y-108983245D01*
X158061550Y-108924752D01*
X158059508Y-108910553D01*
X158058500Y-108896461D01*
X158058500Y-108454000D01*
X158053348Y-108408272D01*
X158013666Y-108325873D01*
X158013367Y-108325634D01*
X157942162Y-108268850D01*
X157853000Y-108248500D01*
X157281111Y-108248500D01*
X157281107Y-108248500D01*
X157223217Y-108256823D01*
X157223213Y-108256824D01*
X157085265Y-108297329D01*
X157085261Y-108297330D01*
X157085260Y-108297331D01*
X157062185Y-108307868D01*
X157032052Y-108321630D01*
X157032045Y-108321634D01*
X156911108Y-108399355D01*
X156911103Y-108399358D01*
X156866897Y-108437664D01*
X156866886Y-108437675D01*
X156772744Y-108546321D01*
X156772735Y-108546334D01*
X156741124Y-108595522D01*
X156741117Y-108595535D01*
X156705193Y-108674198D01*
X156681732Y-108725572D01*
X156681389Y-108726322D01*
X156664912Y-108782437D01*
X156664911Y-108782441D01*
X156644450Y-108924749D01*
X156644450Y-108983245D01*
X156646492Y-108997444D01*
X156647500Y-109011537D01*
X156647500Y-109396461D01*
X156646492Y-109410555D01*
X156644526Y-109424224D01*
X156617527Y-109479130D01*
X156616538Y-109480134D01*
X155986169Y-110110504D01*
X155931652Y-110138281D01*
X155916165Y-110139500D01*
X154837216Y-110139500D01*
X154779025Y-110120593D01*
X154743061Y-110071093D01*
X154740698Y-110018471D01*
X154753751Y-109961281D01*
X154754500Y-109958000D01*
X154754500Y-109515537D01*
X154755508Y-109501448D01*
X154757550Y-109487245D01*
X154757550Y-109428752D01*
X154755508Y-109414552D01*
X154754500Y-109400461D01*
X154754500Y-109015537D01*
X154755508Y-109001444D01*
X154755559Y-109001093D01*
X154757550Y-108987245D01*
X154757550Y-108928754D01*
X154757549Y-108928749D01*
X154755508Y-108914553D01*
X154754500Y-108900461D01*
X154754500Y-108458000D01*
X154749348Y-108412272D01*
X154709666Y-108329873D01*
X154704351Y-108325634D01*
X154638162Y-108272850D01*
X154549000Y-108252500D01*
X153977111Y-108252500D01*
X153977107Y-108252500D01*
X153919217Y-108260823D01*
X153919213Y-108260824D01*
X153781265Y-108301329D01*
X153781261Y-108301330D01*
X153781260Y-108301331D01*
X153758185Y-108311868D01*
X153728052Y-108325630D01*
X153728045Y-108325634D01*
X153607108Y-108403355D01*
X153607103Y-108403358D01*
X153562897Y-108441664D01*
X153562886Y-108441675D01*
X153468744Y-108550321D01*
X153468735Y-108550334D01*
X153437124Y-108599522D01*
X153437117Y-108599535D01*
X153400058Y-108680684D01*
X153379216Y-108726322D01*
X153377389Y-108730322D01*
X153360912Y-108786437D01*
X153360911Y-108786441D01*
X153340450Y-108928749D01*
X153340450Y-108928752D01*
X153340450Y-108928754D01*
X153340450Y-108987245D01*
X153342441Y-109001093D01*
X153342492Y-109001444D01*
X153343500Y-109015537D01*
X153343500Y-109400461D01*
X153342492Y-109414552D01*
X153340450Y-109428752D01*
X153340450Y-109487251D01*
X153350489Y-109557074D01*
X153340056Y-109617363D01*
X153296178Y-109660005D01*
X153235615Y-109668713D01*
X153182493Y-109641167D01*
X152701826Y-109160500D01*
X151799496Y-108258169D01*
X151771719Y-108203652D01*
X151770500Y-108188165D01*
X151770500Y-106767834D01*
X151789407Y-106709643D01*
X151838907Y-106673679D01*
X151900093Y-106673679D01*
X151939501Y-106697828D01*
G37*
G04 #@! TD.AperFunction*
G04 #@! TA.AperFunction,Conductor*
G36*
X166631445Y-103219532D02*
G01*
X166674710Y-103262797D01*
X166685500Y-103307742D01*
X166685500Y-103575520D01*
X166685501Y-103575523D01*
X166700352Y-103669299D01*
X166700354Y-103669304D01*
X166757950Y-103782342D01*
X166847658Y-103872050D01*
X166960696Y-103929646D01*
X167054481Y-103944500D01*
X167517518Y-103944499D01*
X167517520Y-103944499D01*
X167517521Y-103944498D01*
X167564411Y-103937072D01*
X167611299Y-103929647D01*
X167611299Y-103929646D01*
X167611304Y-103929646D01*
X167724342Y-103872050D01*
X167814050Y-103782342D01*
X167856742Y-103698553D01*
X167900006Y-103655290D01*
X167944951Y-103644500D01*
X168608970Y-103644500D01*
X168667161Y-103663407D01*
X168678974Y-103673496D01*
X169801003Y-104795525D01*
X169828780Y-104850042D01*
X169829999Y-104865529D01*
X169829999Y-108953898D01*
X169811092Y-109012089D01*
X169801003Y-109023902D01*
X168891402Y-109933504D01*
X168836885Y-109961281D01*
X168821398Y-109962500D01*
X168152500Y-109962500D01*
X168094309Y-109943593D01*
X168058345Y-109894093D01*
X168053500Y-109863500D01*
X168053500Y-109515537D01*
X168054508Y-109501448D01*
X168056550Y-109487245D01*
X168056550Y-109428752D01*
X168054508Y-109414552D01*
X168053500Y-109400461D01*
X168053500Y-109015537D01*
X168054508Y-109001444D01*
X168054559Y-109001093D01*
X168056550Y-108987245D01*
X168056550Y-108928754D01*
X168056549Y-108928749D01*
X168054508Y-108914553D01*
X168053500Y-108900461D01*
X168053500Y-108458000D01*
X168048348Y-108412272D01*
X168008666Y-108329873D01*
X168003351Y-108325634D01*
X167937162Y-108272850D01*
X167848000Y-108252500D01*
X167282743Y-108252500D01*
X167224552Y-108233593D01*
X167212739Y-108223504D01*
X166519496Y-107530261D01*
X166491719Y-107475744D01*
X166490500Y-107460257D01*
X166490500Y-106056001D01*
X166490499Y-106055996D01*
X166490136Y-106053241D01*
X166487405Y-106032495D01*
X166485847Y-106020654D01*
X166485000Y-106007733D01*
X166485000Y-104898757D01*
X166485306Y-104890982D01*
X166485498Y-104888531D01*
X166485500Y-104888519D01*
X166485499Y-104425482D01*
X166477773Y-104376699D01*
X166470647Y-104331700D01*
X166470646Y-104331698D01*
X166470646Y-104331696D01*
X166413050Y-104218658D01*
X166323342Y-104128950D01*
X166323339Y-104128948D01*
X166290554Y-104112243D01*
X166247290Y-104068978D01*
X166236500Y-104024034D01*
X166236500Y-103558742D01*
X166255407Y-103500551D01*
X166265489Y-103488745D01*
X166516499Y-103237736D01*
X166571013Y-103209961D01*
X166631445Y-103219532D01*
G37*
G04 #@! TD.AperFunction*
G04 #@! TA.AperFunction,Conductor*
G36*
X147553691Y-104480907D02*
G01*
X147589655Y-104530407D01*
X147594500Y-104561000D01*
X147594500Y-105889629D01*
X147594501Y-105889636D01*
X147610484Y-105969992D01*
X147611963Y-105973562D01*
X147619500Y-106011451D01*
X147619500Y-106158257D01*
X147600593Y-106216448D01*
X147590504Y-106228261D01*
X145684031Y-108134734D01*
X145680084Y-108139878D01*
X145679454Y-108139395D01*
X145671419Y-108149834D01*
X145340752Y-108480503D01*
X145286235Y-108508281D01*
X145270748Y-108509500D01*
X144757088Y-108509500D01*
X144698897Y-108490593D01*
X144687084Y-108480503D01*
X144198496Y-107991914D01*
X144170719Y-107937398D01*
X144169500Y-107921911D01*
X144169500Y-107379143D01*
X144156198Y-107329500D01*
X144147318Y-107296357D01*
X144104465Y-107222134D01*
X143567866Y-106685535D01*
X143567863Y-106685533D01*
X143567861Y-106685531D01*
X143493646Y-106642683D01*
X143493648Y-106642683D01*
X143461525Y-106634076D01*
X143410857Y-106620500D01*
X142562853Y-106620500D01*
X142511500Y-106620500D01*
X142453309Y-106601593D01*
X142417345Y-106552093D01*
X142412500Y-106521500D01*
X142412500Y-105912830D01*
X142431407Y-105854639D01*
X142441496Y-105842826D01*
X142601826Y-105682496D01*
X142656343Y-105654719D01*
X142671830Y-105653500D01*
X143532347Y-105653500D01*
X143532349Y-105653500D01*
X143615135Y-105631318D01*
X143615137Y-105631316D01*
X143615139Y-105631316D01*
X143689353Y-105588468D01*
X143689353Y-105588467D01*
X143689358Y-105588465D01*
X144645327Y-104632496D01*
X144699844Y-104604719D01*
X144715331Y-104603500D01*
X145091228Y-104603500D01*
X145149419Y-104622407D01*
X145185383Y-104671907D01*
X145189381Y-104715421D01*
X145184500Y-104752496D01*
X145184500Y-106115001D01*
X145191501Y-106168185D01*
X145211470Y-106242708D01*
X145215993Y-106257372D01*
X145264647Y-106334804D01*
X145264650Y-106334807D01*
X145264652Y-106334810D01*
X145319190Y-106389348D01*
X145330455Y-106399802D01*
X145411313Y-106442536D01*
X145485813Y-106462498D01*
X145539000Y-106469500D01*
X145539001Y-106469500D01*
X146260976Y-106469500D01*
X146263711Y-106469235D01*
X146300269Y-106465708D01*
X146356197Y-106454813D01*
X146376933Y-106448657D01*
X146394034Y-106443581D01*
X146396615Y-106442536D01*
X146467240Y-106413935D01*
X147078565Y-106166367D01*
X147085841Y-106163121D01*
X147091584Y-106160561D01*
X147110156Y-106151494D01*
X147165310Y-106112136D01*
X147204792Y-106072652D01*
X147217615Y-106062131D01*
X147218617Y-106061128D01*
X147218624Y-106061124D01*
X147219511Y-106059796D01*
X147229259Y-106047456D01*
X147230302Y-106046333D01*
X147234714Y-106037983D01*
X147239925Y-106029243D01*
X147241984Y-106026162D01*
X147279515Y-105969995D01*
X147295500Y-105889633D01*
X147295499Y-105878459D01*
X147296346Y-105865534D01*
X147297012Y-105860482D01*
X147300000Y-105837788D01*
X147300000Y-104611000D01*
X147296346Y-104583243D01*
X147295499Y-104570322D01*
X147295499Y-104561000D01*
X147314406Y-104502809D01*
X147363906Y-104466845D01*
X147394499Y-104462000D01*
X147495500Y-104462000D01*
X147553691Y-104480907D01*
G37*
G04 #@! TD.AperFunction*
G04 #@! TA.AperFunction,Conductor*
G36*
X162711999Y-100301907D02*
G01*
X162747963Y-100351407D01*
X162747963Y-100412593D01*
X162742019Y-100426939D01*
X162729534Y-100451445D01*
X162700782Y-100507871D01*
X162700781Y-100507875D01*
X162685000Y-100607511D01*
X162685000Y-101686546D01*
X162666093Y-101744737D01*
X162656004Y-101756550D01*
X162470050Y-101942504D01*
X162415533Y-101970281D01*
X162400046Y-101971500D01*
X162252010Y-101971500D01*
X162152374Y-101987281D01*
X162152367Y-101987283D01*
X162032282Y-102048470D01*
X161936970Y-102143782D01*
X161875783Y-102263867D01*
X161875781Y-102263874D01*
X161861775Y-102352307D01*
X161860000Y-102363512D01*
X161860000Y-102880488D01*
X161869799Y-102942360D01*
X161875781Y-102980125D01*
X161875783Y-102980132D01*
X161936970Y-103100217D01*
X161936972Y-103100220D01*
X162032280Y-103195528D01*
X162032282Y-103195529D01*
X162152367Y-103256716D01*
X162152369Y-103256716D01*
X162152374Y-103256719D01*
X162228041Y-103268703D01*
X162252010Y-103272500D01*
X162252012Y-103272500D01*
X163168990Y-103272500D01*
X163190385Y-103269111D01*
X163268626Y-103256719D01*
X163388720Y-103195528D01*
X163484028Y-103100220D01*
X163507291Y-103054562D01*
X163550555Y-103011299D01*
X163610987Y-103001728D01*
X163665504Y-103029505D01*
X163693281Y-103084022D01*
X163694500Y-103099509D01*
X163694500Y-104226874D01*
X163675593Y-104285065D01*
X163665504Y-104296878D01*
X163019878Y-104942504D01*
X162965361Y-104970281D01*
X162949874Y-104971500D01*
X162252010Y-104971500D01*
X162152374Y-104987281D01*
X162152367Y-104987283D01*
X162032282Y-105048470D01*
X161936970Y-105143782D01*
X161875783Y-105263867D01*
X161875781Y-105263874D01*
X161860160Y-105362504D01*
X161860000Y-105363512D01*
X161860000Y-105880488D01*
X161874741Y-105973562D01*
X161875781Y-105980125D01*
X161875783Y-105980132D01*
X161928990Y-106084555D01*
X161938562Y-106144987D01*
X161910785Y-106199503D01*
X161856268Y-106227281D01*
X161840781Y-106228500D01*
X159473569Y-106228500D01*
X159415378Y-106209593D01*
X159379414Y-106160093D01*
X159379414Y-106098907D01*
X159395029Y-106069230D01*
X159395763Y-106068274D01*
X159404536Y-106056841D01*
X159417247Y-106026150D01*
X159422973Y-106014542D01*
X159439575Y-105985787D01*
X159439577Y-105985784D01*
X159448171Y-105953704D01*
X159452331Y-105941451D01*
X159465044Y-105910762D01*
X159469379Y-105877827D01*
X159471903Y-105865138D01*
X159480500Y-105833057D01*
X159480500Y-105799849D01*
X159481347Y-105786927D01*
X159482042Y-105781652D01*
X159485682Y-105754000D01*
X159482916Y-105732993D01*
X159481347Y-105721071D01*
X159480500Y-105708149D01*
X159480500Y-105674946D01*
X159480500Y-105674943D01*
X159471901Y-105642851D01*
X159469378Y-105630162D01*
X159468588Y-105624164D01*
X159465044Y-105597238D01*
X159452331Y-105566549D01*
X159448171Y-105554293D01*
X159439577Y-105522216D01*
X159439575Y-105522213D01*
X159439575Y-105522211D01*
X159422975Y-105493461D01*
X159417246Y-105481844D01*
X159404537Y-105451162D01*
X159404536Y-105451159D01*
X159384317Y-105424809D01*
X159377124Y-105414044D01*
X159366784Y-105396134D01*
X159360520Y-105385284D01*
X159348946Y-105373710D01*
X159337031Y-105361794D01*
X159328494Y-105352059D01*
X159308285Y-105325722D01*
X159308282Y-105325718D01*
X159281933Y-105305500D01*
X159272204Y-105296967D01*
X159248717Y-105273481D01*
X159248711Y-105273476D01*
X159219955Y-105256874D01*
X159209189Y-105249681D01*
X159182840Y-105229463D01*
X159152157Y-105216754D01*
X159140546Y-105211028D01*
X159111783Y-105194422D01*
X159111780Y-105194421D01*
X159079706Y-105185827D01*
X159067445Y-105181665D01*
X159036765Y-105168957D01*
X159036759Y-105168955D01*
X159003826Y-105164619D01*
X158991131Y-105162093D01*
X158959060Y-105153500D01*
X158959057Y-105153500D01*
X158925850Y-105153500D01*
X158912928Y-105152653D01*
X158880001Y-105148318D01*
X158879999Y-105148318D01*
X158847072Y-105152653D01*
X158834150Y-105153500D01*
X158464500Y-105153500D01*
X158406309Y-105134593D01*
X158370345Y-105085093D01*
X158365500Y-105054500D01*
X158365500Y-102323539D01*
X158365000Y-102315908D01*
X158365000Y-101212000D01*
X158383907Y-101153809D01*
X158433407Y-101117845D01*
X158464000Y-101113000D01*
X160220247Y-101113000D01*
X160220249Y-101113000D01*
X160303035Y-101090818D01*
X160303037Y-101090816D01*
X160303039Y-101090816D01*
X160377253Y-101047968D01*
X160377253Y-101047967D01*
X160377258Y-101047965D01*
X161112727Y-100312496D01*
X161167244Y-100284719D01*
X161182731Y-100283500D01*
X162290824Y-100283500D01*
X162298452Y-100283000D01*
X162653808Y-100283000D01*
X162711999Y-100301907D01*
G37*
G04 #@! TD.AperFunction*
G04 #@! TA.AperFunction,Conductor*
G36*
X133786944Y-99918500D02*
G01*
X133786947Y-99918500D01*
X133958889Y-99918500D01*
X133967162Y-99918000D01*
X137319766Y-99918000D01*
X137377957Y-99936907D01*
X137389770Y-99946996D01*
X137779270Y-100336496D01*
X137807047Y-100391013D01*
X137797476Y-100451445D01*
X137754211Y-100494710D01*
X137709266Y-100505500D01*
X137384726Y-100505500D01*
X137354306Y-100508353D01*
X137354297Y-100508355D01*
X137226117Y-100553207D01*
X137116856Y-100633845D01*
X137116846Y-100633855D01*
X137036208Y-100743116D01*
X136991356Y-100871296D01*
X136991354Y-100871305D01*
X136988501Y-100901725D01*
X136988501Y-101610274D01*
X136991354Y-101640700D01*
X136992640Y-101646586D01*
X136991745Y-101646781D01*
X136995171Y-101664842D01*
X137049342Y-103079607D01*
X137048567Y-103096315D01*
X137045318Y-103120998D01*
X137045318Y-103121000D01*
X137065955Y-103277758D01*
X137065957Y-103277766D01*
X137126462Y-103423838D01*
X137126462Y-103423839D01*
X137168879Y-103479118D01*
X137222718Y-103549282D01*
X137222722Y-103549285D01*
X137222723Y-103549286D01*
X137252082Y-103571813D01*
X137348159Y-103645536D01*
X137494238Y-103706044D01*
X137651000Y-103726682D01*
X137731041Y-103716143D01*
X137791199Y-103727292D01*
X137813966Y-103744292D01*
X138231504Y-104161830D01*
X138259281Y-104216347D01*
X138260500Y-104231834D01*
X138260500Y-104658647D01*
X138260500Y-104744353D01*
X138262682Y-104752496D01*
X138282683Y-104827143D01*
X138325531Y-104901357D01*
X138325535Y-104901362D01*
X138558766Y-105134593D01*
X138639670Y-105215496D01*
X138667448Y-105270013D01*
X138657877Y-105330445D01*
X138614612Y-105373710D01*
X138569667Y-105384500D01*
X138034351Y-105384500D01*
X137996466Y-105376964D01*
X137931266Y-105349957D01*
X137931258Y-105349955D01*
X137774501Y-105329318D01*
X137774499Y-105329318D01*
X137617741Y-105349955D01*
X137617733Y-105349957D01*
X137552534Y-105376964D01*
X137514649Y-105384500D01*
X137354752Y-105384500D01*
X137354751Y-105384500D01*
X137354741Y-105384501D01*
X137296272Y-105396132D01*
X137296266Y-105396134D01*
X137229951Y-105440445D01*
X137229945Y-105440451D01*
X137185634Y-105506766D01*
X137185634Y-105506767D01*
X137185633Y-105506769D01*
X137176182Y-105554283D01*
X137175977Y-105555315D01*
X137146080Y-105608699D01*
X137090514Y-105634314D01*
X137078879Y-105635000D01*
X133992335Y-105635000D01*
X133934144Y-105616093D01*
X133922331Y-105606004D01*
X133643996Y-105327669D01*
X133616219Y-105273152D01*
X133615000Y-105257665D01*
X133615000Y-100002483D01*
X133633907Y-99944292D01*
X133683407Y-99908328D01*
X133737690Y-99906360D01*
X133786944Y-99918500D01*
G37*
G04 #@! TD.AperFunction*
G04 #@! TA.AperFunction,Conductor*
G36*
X169585343Y-88895977D02*
G01*
X169736527Y-88910867D01*
X169755557Y-88914652D01*
X169848094Y-88942723D01*
X169896257Y-88957333D01*
X169914188Y-88964760D01*
X170043858Y-89034071D01*
X170059994Y-89044853D01*
X170173649Y-89138127D01*
X170187372Y-89151850D01*
X170280646Y-89265505D01*
X170291428Y-89281641D01*
X170360739Y-89411311D01*
X170368166Y-89429242D01*
X170410846Y-89569940D01*
X170414632Y-89588974D01*
X170429523Y-89740156D01*
X170430000Y-89749860D01*
X170430000Y-104123440D01*
X170411093Y-104181631D01*
X170361593Y-104217595D01*
X170300407Y-104217595D01*
X170260996Y-104193444D01*
X169036078Y-102968526D01*
X169036078Y-102968525D01*
X168950456Y-102919091D01*
X168950449Y-102919088D01*
X168902700Y-102906294D01*
X168902699Y-102906294D01*
X168854953Y-102893500D01*
X168854951Y-102893500D01*
X168854950Y-102893500D01*
X167944951Y-102893500D01*
X167886760Y-102874593D01*
X167856742Y-102839447D01*
X167814050Y-102755658D01*
X167724342Y-102665950D01*
X167611304Y-102608354D01*
X167611305Y-102608354D01*
X167517522Y-102593500D01*
X167054479Y-102593500D01*
X167054476Y-102593501D01*
X166960700Y-102608352D01*
X166960697Y-102608353D01*
X166856445Y-102661473D01*
X166796013Y-102671044D01*
X166741497Y-102643267D01*
X166713719Y-102588750D01*
X166712500Y-102573263D01*
X166712500Y-101798141D01*
X166713347Y-101785218D01*
X166713500Y-101784055D01*
X166713500Y-101743253D01*
X166714347Y-101730330D01*
X166714713Y-101727554D01*
X166717682Y-101705000D01*
X166715097Y-101685368D01*
X166714347Y-101679667D01*
X166713500Y-101666745D01*
X166713500Y-100633027D01*
X166732407Y-100574836D01*
X166742483Y-100563037D01*
X166745051Y-100560469D01*
X166745067Y-100560458D01*
X166745065Y-100560456D01*
X166753214Y-100552306D01*
X166753216Y-100552306D01*
X166865020Y-100440502D01*
X166907238Y-100367377D01*
X166924078Y-100338210D01*
X166924086Y-100338195D01*
X166924114Y-100338147D01*
X166944077Y-100303571D01*
X166985001Y-100150843D01*
X166985001Y-99992729D01*
X166985001Y-99986666D01*
X166985000Y-99986649D01*
X166985000Y-99823864D01*
X166995790Y-99778921D01*
X167044451Y-99683420D01*
X167059621Y-99587638D01*
X167060000Y-99585248D01*
X167060000Y-99081749D01*
X167059695Y-99077872D01*
X167059804Y-99077863D01*
X167059000Y-99067647D01*
X167059000Y-98413000D01*
X167077907Y-98354809D01*
X167127407Y-98318845D01*
X167158000Y-98314000D01*
X167780648Y-98314000D01*
X167788297Y-98314501D01*
X167790943Y-98314501D01*
X167955120Y-98314501D01*
X167955136Y-98314500D01*
X169450650Y-98314500D01*
X169463572Y-98315347D01*
X169496499Y-98319682D01*
X169496500Y-98319682D01*
X169496501Y-98319682D01*
X169529428Y-98315347D01*
X169542350Y-98314500D01*
X169575556Y-98314500D01*
X169575557Y-98314500D01*
X169607638Y-98305903D01*
X169620327Y-98303379D01*
X169653262Y-98299044D01*
X169683951Y-98286331D01*
X169696204Y-98282171D01*
X169728284Y-98273577D01*
X169757042Y-98256973D01*
X169768650Y-98251247D01*
X169799341Y-98238536D01*
X169825693Y-98218314D01*
X169836454Y-98211125D01*
X169865216Y-98194520D01*
X169888704Y-98171030D01*
X169898432Y-98162500D01*
X169924782Y-98142282D01*
X169945000Y-98115932D01*
X169953530Y-98106204D01*
X169977020Y-98082716D01*
X169993625Y-98053954D01*
X170000814Y-98043193D01*
X170021036Y-98016841D01*
X170033747Y-97986150D01*
X170039473Y-97974542D01*
X170056075Y-97945787D01*
X170056077Y-97945784D01*
X170064671Y-97913704D01*
X170068831Y-97901451D01*
X170081544Y-97870762D01*
X170085879Y-97837827D01*
X170088403Y-97825138D01*
X170097000Y-97793057D01*
X170097000Y-97759849D01*
X170097847Y-97746927D01*
X170102182Y-97714000D01*
X170102182Y-97713999D01*
X170097847Y-97681071D01*
X170097000Y-97668149D01*
X170097000Y-97634946D01*
X170097000Y-97634943D01*
X170088401Y-97602851D01*
X170085878Y-97590162D01*
X170083512Y-97572191D01*
X170081544Y-97557238D01*
X170068831Y-97526549D01*
X170064671Y-97514293D01*
X170056077Y-97482216D01*
X170056075Y-97482213D01*
X170056075Y-97482211D01*
X170039475Y-97453461D01*
X170033746Y-97441844D01*
X170021953Y-97413374D01*
X170021036Y-97411159D01*
X170000817Y-97384809D01*
X169993624Y-97374044D01*
X169977020Y-97345284D01*
X169977018Y-97345282D01*
X169953531Y-97321794D01*
X169944994Y-97312059D01*
X169924785Y-97285722D01*
X169924782Y-97285718D01*
X169898433Y-97265500D01*
X169888704Y-97256967D01*
X169865217Y-97233481D01*
X169865211Y-97233476D01*
X169836455Y-97216874D01*
X169825689Y-97209681D01*
X169799340Y-97189463D01*
X169768657Y-97176754D01*
X169757046Y-97171028D01*
X169728283Y-97154422D01*
X169728280Y-97154421D01*
X169696206Y-97145827D01*
X169683945Y-97141665D01*
X169653265Y-97128957D01*
X169653259Y-97128955D01*
X169620326Y-97124619D01*
X169607631Y-97122093D01*
X169575560Y-97113500D01*
X169575557Y-97113500D01*
X169542350Y-97113500D01*
X169529428Y-97112653D01*
X169496501Y-97108318D01*
X169496499Y-97108318D01*
X169463572Y-97112653D01*
X169450650Y-97113500D01*
X168640000Y-97113500D01*
X168581809Y-97094593D01*
X168545845Y-97045093D01*
X168541000Y-97014500D01*
X168541000Y-96301757D01*
X168541306Y-96293982D01*
X168541498Y-96291531D01*
X168541500Y-96291519D01*
X168541499Y-95828482D01*
X168541498Y-95828478D01*
X168541498Y-95828476D01*
X168526647Y-95734700D01*
X168526646Y-95734698D01*
X168526646Y-95734696D01*
X168469050Y-95621658D01*
X168389994Y-95542602D01*
X168362219Y-95488088D01*
X168361000Y-95472601D01*
X168361000Y-93494366D01*
X168379907Y-93436175D01*
X168429407Y-93400211D01*
X168474829Y-93398176D01*
X168474976Y-93396878D01*
X168480496Y-93397500D01*
X168480500Y-93397500D01*
X169052393Y-93397500D01*
X169085472Y-93392743D01*
X169110285Y-93389176D01*
X169248240Y-93348669D01*
X169301445Y-93324371D01*
X169422399Y-93246639D01*
X169466605Y-93208334D01*
X169551276Y-93110617D01*
X169560755Y-93099678D01*
X169560756Y-93099676D01*
X169560759Y-93099673D01*
X169592381Y-93050468D01*
X169652109Y-92919683D01*
X169668588Y-92863561D01*
X169679167Y-92789981D01*
X169689050Y-92721250D01*
X169689050Y-92662752D01*
X169687008Y-92648552D01*
X169686000Y-92634461D01*
X169686000Y-92249537D01*
X169687008Y-92235444D01*
X169687745Y-92230323D01*
X169689050Y-92221245D01*
X169689050Y-92162754D01*
X169689050Y-92162749D01*
X169674434Y-92061100D01*
X169668588Y-92020439D01*
X169652109Y-91964317D01*
X169592381Y-91833532D01*
X169589790Y-91829500D01*
X169560764Y-91784334D01*
X169560755Y-91784321D01*
X169466613Y-91675675D01*
X169466611Y-91675673D01*
X169466605Y-91675666D01*
X169422399Y-91637361D01*
X169422396Y-91637358D01*
X169422391Y-91637355D01*
X169301454Y-91559634D01*
X169301447Y-91559630D01*
X169301445Y-91559629D01*
X169248240Y-91535331D01*
X169248235Y-91535329D01*
X169248234Y-91535329D01*
X169110286Y-91494824D01*
X169110282Y-91494823D01*
X169052393Y-91486500D01*
X169052389Y-91486500D01*
X168480500Y-91486500D01*
X168480498Y-91486500D01*
X168434772Y-91491651D01*
X168375991Y-91519960D01*
X168315359Y-91528173D01*
X168271307Y-91508162D01*
X168269662Y-91506850D01*
X168180500Y-91486500D01*
X167608611Y-91486500D01*
X167608607Y-91486500D01*
X167550717Y-91494823D01*
X167550713Y-91494824D01*
X167412765Y-91535329D01*
X167412761Y-91535330D01*
X167412760Y-91535331D01*
X167389685Y-91545868D01*
X167359552Y-91559630D01*
X167359545Y-91559634D01*
X167238608Y-91637355D01*
X167238603Y-91637358D01*
X167194397Y-91675664D01*
X167194386Y-91675675D01*
X167100244Y-91784321D01*
X167100235Y-91784334D01*
X167068624Y-91833522D01*
X167068617Y-91833535D01*
X167029062Y-91920149D01*
X167015557Y-91949722D01*
X167008889Y-91964322D01*
X166992412Y-92020437D01*
X166992411Y-92020441D01*
X166971950Y-92162749D01*
X166971950Y-92162754D01*
X166971950Y-92221245D01*
X166973255Y-92230323D01*
X166973992Y-92235444D01*
X166975000Y-92249537D01*
X166975000Y-92634461D01*
X166973992Y-92648552D01*
X166971950Y-92662752D01*
X166971950Y-92721250D01*
X166992411Y-92863558D01*
X166992412Y-92863562D01*
X167008889Y-92919677D01*
X167008891Y-92919683D01*
X167052106Y-93014309D01*
X167068617Y-93050464D01*
X167068624Y-93050477D01*
X167100235Y-93099665D01*
X167100244Y-93099678D01*
X167177162Y-93188446D01*
X167194395Y-93208334D01*
X167238601Y-93246639D01*
X167314524Y-93295431D01*
X167353254Y-93342796D01*
X167360000Y-93378715D01*
X167360000Y-95483601D01*
X167341093Y-95541792D01*
X167331009Y-95553598D01*
X167295461Y-95589147D01*
X167262949Y-95621659D01*
X167205354Y-95734695D01*
X167190500Y-95828478D01*
X167190500Y-95830276D01*
X167190313Y-95830850D01*
X167190195Y-95832354D01*
X167189834Y-95832325D01*
X167171593Y-95888467D01*
X167122093Y-95924431D01*
X167060907Y-95924431D01*
X167011407Y-95888467D01*
X167003291Y-95875222D01*
X167001028Y-95870780D01*
X166905720Y-95775472D01*
X166905717Y-95775470D01*
X166785632Y-95714283D01*
X166785627Y-95714281D01*
X166785626Y-95714281D01*
X166752413Y-95709020D01*
X166685990Y-95698500D01*
X166685988Y-95698500D01*
X166119012Y-95698500D01*
X166119010Y-95698500D01*
X166088826Y-95703281D01*
X166073338Y-95704500D01*
X164637007Y-95704500D01*
X164633130Y-95704805D01*
X164633121Y-95704695D01*
X164622906Y-95705500D01*
X163158007Y-95705500D01*
X163155528Y-95705695D01*
X163147765Y-95706000D01*
X162611000Y-95706000D01*
X162552809Y-95687093D01*
X162516845Y-95637593D01*
X162512000Y-95607000D01*
X162512000Y-95542399D01*
X162512415Y-95535227D01*
X162512335Y-95535223D01*
X162512498Y-95532379D01*
X162512500Y-95532365D01*
X162512499Y-95242636D01*
X162512498Y-95242630D01*
X162512334Y-95239786D01*
X162512413Y-95239781D01*
X162512000Y-95232613D01*
X162512000Y-94892399D01*
X162512415Y-94885227D01*
X162512335Y-94885223D01*
X162512498Y-94882379D01*
X162512500Y-94882365D01*
X162512499Y-94592636D01*
X162512498Y-94592633D01*
X162512334Y-94589786D01*
X162512413Y-94589781D01*
X162512000Y-94582613D01*
X162512000Y-94100500D01*
X162530907Y-94042309D01*
X162580407Y-94006345D01*
X162611000Y-94001500D01*
X162999599Y-94001500D01*
X162999601Y-94001500D01*
X163120536Y-93969095D01*
X163228964Y-93906495D01*
X163387139Y-93748318D01*
X163441653Y-93720542D01*
X163444166Y-93720177D01*
X163490762Y-93714044D01*
X163636841Y-93653536D01*
X163762282Y-93557282D01*
X163858536Y-93431841D01*
X163919044Y-93285762D01*
X163939682Y-93129000D01*
X163919044Y-92972238D01*
X163897275Y-92919683D01*
X163858537Y-92826161D01*
X163858537Y-92826160D01*
X163762286Y-92700723D01*
X163762285Y-92700722D01*
X163762282Y-92700718D01*
X163762277Y-92700714D01*
X163762276Y-92700713D01*
X163708897Y-92659754D01*
X163636841Y-92604464D01*
X163585401Y-92583157D01*
X163534674Y-92562145D01*
X163488149Y-92522408D01*
X163473865Y-92462914D01*
X163496280Y-92407576D01*
X163528606Y-92368501D01*
X163619385Y-92258768D01*
X163757270Y-92041496D01*
X163781225Y-92003749D01*
X163781226Y-92003746D01*
X163781233Y-92003736D01*
X163909841Y-91730430D01*
X164003181Y-91443160D01*
X164059780Y-91146457D01*
X164078746Y-90845000D01*
X164059780Y-90543543D01*
X164057137Y-90529690D01*
X164046415Y-90473479D01*
X164003181Y-90246840D01*
X163909841Y-89959570D01*
X163781233Y-89686264D01*
X163781229Y-89686259D01*
X163781225Y-89686250D01*
X163619385Y-89431232D01*
X163426854Y-89198502D01*
X163426844Y-89198491D01*
X163286467Y-89066668D01*
X163256991Y-89013050D01*
X163264659Y-88952348D01*
X163306544Y-88907746D01*
X163354237Y-88895500D01*
X169514608Y-88895500D01*
X169575639Y-88895500D01*
X169585343Y-88895977D01*
G37*
G04 #@! TD.AperFunction*
G04 #@! TA.AperFunction,Conductor*
G36*
X151344506Y-88914407D02*
G01*
X151380470Y-88963907D01*
X151384280Y-89008769D01*
X151377000Y-89058740D01*
X151377000Y-90300260D01*
X151381410Y-90330528D01*
X151386927Y-90368395D01*
X151419742Y-90435518D01*
X151438302Y-90473483D01*
X151521017Y-90556198D01*
X151574785Y-90582483D01*
X151626104Y-90607572D01*
X151626105Y-90607572D01*
X151626107Y-90607573D01*
X151694240Y-90617500D01*
X151694243Y-90617500D01*
X152060757Y-90617500D01*
X152060760Y-90617500D01*
X152128893Y-90607573D01*
X152233983Y-90556198D01*
X152316698Y-90473483D01*
X152327679Y-90451021D01*
X152370222Y-90407046D01*
X152416620Y-90395500D01*
X154021326Y-90395500D01*
X154079517Y-90414407D01*
X154109946Y-90450370D01*
X154149442Y-90529689D01*
X154209222Y-90608851D01*
X154209231Y-90608862D01*
X154210319Y-90610332D01*
X154258806Y-90677069D01*
X154261846Y-90680109D01*
X154270839Y-90690446D01*
X154283510Y-90707225D01*
X154283513Y-90707228D01*
X154283519Y-90707236D01*
X154283526Y-90707242D01*
X154343533Y-90761947D01*
X154346840Y-90765104D01*
X154392428Y-90810691D01*
X154410518Y-90823835D01*
X154419021Y-90830764D01*
X154447933Y-90857120D01*
X154447936Y-90857122D01*
X154447938Y-90857124D01*
X154461634Y-90865604D01*
X154501657Y-90890385D01*
X154507731Y-90894463D01*
X154545301Y-90921760D01*
X154568814Y-90933740D01*
X154581318Y-90940111D01*
X154588491Y-90944150D01*
X154637095Y-90974245D01*
X154637101Y-90974248D01*
X154644692Y-90977188D01*
X154679205Y-90990558D01*
X154688362Y-90994653D01*
X154713666Y-91007546D01*
X154713670Y-91007548D01*
X154713676Y-91007550D01*
X154769269Y-91025614D01*
X154774438Y-91027453D01*
X154836323Y-91051426D01*
X154844560Y-91054618D01*
X154871183Y-91059594D01*
X154883559Y-91062748D01*
X154893382Y-91065940D01*
X154893385Y-91065940D01*
X154893387Y-91065941D01*
X154893391Y-91065942D01*
X154943306Y-91073846D01*
X154968934Y-91077905D01*
X154971590Y-91078363D01*
X155063257Y-91095500D01*
X155080019Y-91095500D01*
X156867000Y-91095500D01*
X156925191Y-91114407D01*
X156961155Y-91163907D01*
X156966000Y-91194500D01*
X156966000Y-92779733D01*
X156965695Y-92787496D01*
X156965500Y-92789975D01*
X156965500Y-93013339D01*
X156965499Y-93013365D01*
X156965499Y-93179633D01*
X156965500Y-93179658D01*
X156965500Y-93403019D01*
X156965501Y-93403022D01*
X156980352Y-93496798D01*
X156980354Y-93496803D01*
X157037950Y-93609841D01*
X157127658Y-93699549D01*
X157240696Y-93757145D01*
X157334481Y-93771999D01*
X157351253Y-93771998D01*
X157409443Y-93790903D01*
X157421260Y-93800994D01*
X158709504Y-95089238D01*
X158737281Y-95143755D01*
X158738500Y-95159242D01*
X158738500Y-95645611D01*
X158738499Y-95645629D01*
X158738499Y-95651691D01*
X158738499Y-95809805D01*
X158778613Y-95959510D01*
X158779424Y-95962535D01*
X158800397Y-95998860D01*
X158800398Y-95998863D01*
X158858478Y-96099461D01*
X158858480Y-96099464D01*
X158970284Y-96211268D01*
X158970286Y-96211269D01*
X159248504Y-96489487D01*
X159276281Y-96544004D01*
X159277500Y-96559491D01*
X159277500Y-98564149D01*
X159276653Y-98577071D01*
X159272318Y-98609999D01*
X159272318Y-98610000D01*
X159276653Y-98642927D01*
X159277500Y-98655849D01*
X159277500Y-98689060D01*
X159286093Y-98721131D01*
X159288619Y-98733826D01*
X159292955Y-98766759D01*
X159292957Y-98766764D01*
X159305665Y-98797445D01*
X159309827Y-98809706D01*
X159318421Y-98841780D01*
X159318422Y-98841783D01*
X159335028Y-98870546D01*
X159340754Y-98882157D01*
X159353463Y-98912840D01*
X159373681Y-98939189D01*
X159380874Y-98949955D01*
X159397476Y-98978711D01*
X159397481Y-98978717D01*
X159420967Y-99002204D01*
X159429500Y-99011933D01*
X159449718Y-99038282D01*
X159449722Y-99038285D01*
X159476059Y-99058494D01*
X159485794Y-99067031D01*
X159500513Y-99081749D01*
X159509284Y-99090520D01*
X159538047Y-99107126D01*
X159548809Y-99114317D01*
X159575159Y-99134536D01*
X159588979Y-99140260D01*
X159605844Y-99147246D01*
X159617461Y-99152975D01*
X159646211Y-99169575D01*
X159646214Y-99169575D01*
X159646216Y-99169577D01*
X159673467Y-99176878D01*
X159724781Y-99210198D01*
X159746711Y-99267318D01*
X159730878Y-99326420D01*
X159717851Y-99342508D01*
X159602358Y-99458003D01*
X159547842Y-99485781D01*
X159532354Y-99487000D01*
X156886500Y-99487000D01*
X156828309Y-99468093D01*
X156792345Y-99418593D01*
X156787500Y-99388000D01*
X156787499Y-99142640D01*
X156787499Y-99142636D01*
X156784585Y-99117509D01*
X156739206Y-99014735D01*
X156739205Y-99014734D01*
X156735500Y-99006343D01*
X156737875Y-99005294D01*
X156724462Y-98959761D01*
X156737526Y-98919551D01*
X156735500Y-98918657D01*
X156739204Y-98910266D01*
X156739206Y-98910265D01*
X156784585Y-98807491D01*
X156787500Y-98782365D01*
X156787499Y-98492636D01*
X156784585Y-98467509D01*
X156739206Y-98364735D01*
X156659765Y-98285294D01*
X156556991Y-98239915D01*
X156556990Y-98239914D01*
X156556988Y-98239914D01*
X156531868Y-98237000D01*
X155167139Y-98237000D01*
X155167136Y-98237001D01*
X155134610Y-98240773D01*
X155134356Y-98238588D01*
X155083870Y-98236134D01*
X155036175Y-98197808D01*
X155020000Y-98143576D01*
X155020000Y-96531423D01*
X155038907Y-96473232D01*
X155088407Y-96437268D01*
X155134389Y-96436154D01*
X155134613Y-96434227D01*
X155142008Y-96435084D01*
X155142009Y-96435085D01*
X155167135Y-96438000D01*
X156531864Y-96437999D01*
X156556991Y-96435085D01*
X156659765Y-96389706D01*
X156739206Y-96310265D01*
X156784585Y-96207491D01*
X156787500Y-96182365D01*
X156787499Y-95892636D01*
X156784585Y-95867509D01*
X156739206Y-95764735D01*
X156739205Y-95764734D01*
X156735500Y-95756343D01*
X156737875Y-95755294D01*
X156724462Y-95709761D01*
X156737526Y-95669551D01*
X156735500Y-95668657D01*
X156739204Y-95660266D01*
X156739206Y-95660265D01*
X156784585Y-95557491D01*
X156787500Y-95532365D01*
X156787499Y-95242636D01*
X156784585Y-95217509D01*
X156739206Y-95114735D01*
X156739205Y-95114734D01*
X156735500Y-95106343D01*
X156737875Y-95105294D01*
X156724462Y-95059761D01*
X156737526Y-95019551D01*
X156735500Y-95018657D01*
X156739204Y-95010266D01*
X156739206Y-95010265D01*
X156784585Y-94907491D01*
X156787500Y-94882365D01*
X156787499Y-94592636D01*
X156784585Y-94567509D01*
X156739206Y-94464735D01*
X156659765Y-94385294D01*
X156556991Y-94339915D01*
X156556990Y-94339914D01*
X156556988Y-94339914D01*
X156531869Y-94337000D01*
X156531865Y-94337000D01*
X156365000Y-94337000D01*
X156306809Y-94318093D01*
X156270845Y-94268593D01*
X156266000Y-94238000D01*
X156266000Y-93659288D01*
X156266461Y-93652247D01*
X156266288Y-93652236D01*
X156266500Y-93649001D01*
X156266500Y-93119875D01*
X156266682Y-93117097D01*
X156266682Y-93106912D01*
X156266500Y-93104132D01*
X156266500Y-92861001D01*
X156266500Y-92861000D01*
X156259498Y-92807813D01*
X156239536Y-92733313D01*
X156235006Y-92718628D01*
X156235006Y-92718627D01*
X156186352Y-92641195D01*
X156186349Y-92641192D01*
X156186348Y-92641190D01*
X156131810Y-92586652D01*
X156120545Y-92576198D01*
X156088568Y-92559298D01*
X156039688Y-92533464D01*
X155965187Y-92513502D01*
X155912001Y-92506500D01*
X155912000Y-92506500D01*
X155668874Y-92506500D01*
X155666095Y-92506318D01*
X155655905Y-92506318D01*
X155653126Y-92506500D01*
X154619818Y-92506500D01*
X154606418Y-92506937D01*
X154586992Y-92508208D01*
X154521810Y-92523394D01*
X154450556Y-92552888D01*
X154436584Y-92559294D01*
X154436577Y-92559298D01*
X154366140Y-92617629D01*
X154350651Y-92637805D01*
X154344563Y-92641986D01*
X154250646Y-92764380D01*
X154232373Y-92782654D01*
X154170546Y-92830096D01*
X154148164Y-92843018D01*
X154076156Y-92872845D01*
X154051191Y-92879534D01*
X153973920Y-92889706D01*
X153948079Y-92889706D01*
X153870809Y-92879535D01*
X153845843Y-92872846D01*
X153773836Y-92843019D01*
X153751455Y-92830097D01*
X153689622Y-92782651D01*
X153671347Y-92764376D01*
X153578424Y-92643276D01*
X153577158Y-92641937D01*
X153576529Y-92641196D01*
X153576525Y-92641190D01*
X153521987Y-92586652D01*
X153510722Y-92576198D01*
X153478745Y-92559298D01*
X153429865Y-92533464D01*
X153355364Y-92513502D01*
X153302178Y-92506500D01*
X153302177Y-92506500D01*
X152820000Y-92506500D01*
X152819998Y-92506500D01*
X152766814Y-92513501D01*
X152692291Y-92533470D01*
X152677627Y-92537993D01*
X152600195Y-92586647D01*
X152545645Y-92641197D01*
X152535197Y-92652456D01*
X152492464Y-92733311D01*
X152472502Y-92807812D01*
X152465500Y-92860998D01*
X152465500Y-93163099D01*
X152457965Y-93200983D01*
X152454227Y-93210007D01*
X152449891Y-93242934D01*
X152447366Y-93255627D01*
X152438770Y-93287712D01*
X152438770Y-93320926D01*
X152437923Y-93333848D01*
X152433589Y-93366768D01*
X152437923Y-93399687D01*
X152438770Y-93412610D01*
X152438770Y-93445830D01*
X152447365Y-93477909D01*
X152449891Y-93490604D01*
X152454226Y-93523530D01*
X152456131Y-93528128D01*
X152457963Y-93532551D01*
X152465500Y-93570438D01*
X152465500Y-93649001D01*
X152472501Y-93702185D01*
X152492470Y-93776708D01*
X152496992Y-93791369D01*
X152498483Y-93794618D01*
X152507500Y-93835899D01*
X152507500Y-94315946D01*
X152496710Y-94360890D01*
X152473282Y-94406869D01*
X152473281Y-94406874D01*
X152457500Y-94506510D01*
X152457500Y-94903810D01*
X152438593Y-94962001D01*
X152428504Y-94973814D01*
X152166814Y-95235504D01*
X152112297Y-95263281D01*
X152096810Y-95264500D01*
X151318236Y-95264500D01*
X151234466Y-95286946D01*
X151229092Y-95288386D01*
X151149168Y-95334530D01*
X150664529Y-95819169D01*
X150627726Y-95882912D01*
X150627727Y-95882913D01*
X150618386Y-95899090D01*
X150607471Y-95939826D01*
X150594500Y-95988236D01*
X150594500Y-96921144D01*
X150594500Y-96921145D01*
X150594500Y-97233481D01*
X150594501Y-97514000D01*
X150575594Y-97572191D01*
X150526094Y-97608155D01*
X150495501Y-97613000D01*
X150394500Y-97613000D01*
X150336309Y-97594093D01*
X150300345Y-97544593D01*
X150295500Y-97514000D01*
X150295499Y-96185370D01*
X150295498Y-96185363D01*
X150279515Y-96105005D01*
X150279513Y-96105000D01*
X150252823Y-96065056D01*
X150236214Y-96006168D01*
X150247611Y-95963795D01*
X150264691Y-95931477D01*
X150273036Y-95915687D01*
X150292998Y-95841187D01*
X150293929Y-95834111D01*
X150296455Y-95821411D01*
X150306509Y-95783890D01*
X150316395Y-95760020D01*
X150322454Y-95749526D01*
X150338181Y-95729029D01*
X150691669Y-95375543D01*
X150709393Y-95355334D01*
X150733072Y-95324475D01*
X150768536Y-95252561D01*
X150788498Y-95178061D01*
X150795500Y-95124874D01*
X150795500Y-94418000D01*
X150788498Y-94364813D01*
X150768536Y-94290313D01*
X150764006Y-94275628D01*
X150764006Y-94275627D01*
X150715352Y-94198195D01*
X150715349Y-94198192D01*
X150715348Y-94198190D01*
X150660810Y-94143652D01*
X150649545Y-94133198D01*
X150620787Y-94117999D01*
X150568688Y-94090464D01*
X150494187Y-94070502D01*
X150441001Y-94063500D01*
X150441000Y-94063500D01*
X147833000Y-94063500D01*
X147832998Y-94063500D01*
X147801454Y-94067653D01*
X147788532Y-94068500D01*
X147659888Y-94068500D01*
X147659888Y-94066027D01*
X147609399Y-94054918D01*
X147573769Y-94019029D01*
X147572734Y-94017236D01*
X147572734Y-94017237D01*
X147544965Y-93969138D01*
X147484362Y-93908535D01*
X147484359Y-93908533D01*
X147480904Y-93905077D01*
X147480898Y-93905072D01*
X147113996Y-93538169D01*
X147086219Y-93483653D01*
X147085000Y-93468166D01*
X147085000Y-92549253D01*
X147084998Y-92549241D01*
X147081043Y-92529361D01*
X147073367Y-92490769D01*
X147029052Y-92424448D01*
X147029048Y-92424445D01*
X146962733Y-92380134D01*
X146962731Y-92380133D01*
X146962728Y-92380132D01*
X146962727Y-92380132D01*
X146904258Y-92368501D01*
X146904248Y-92368500D01*
X146904247Y-92368500D01*
X146344954Y-92368500D01*
X146286763Y-92349593D01*
X146274951Y-92339504D01*
X146110707Y-92175260D01*
X150427000Y-92175260D01*
X150433205Y-92217847D01*
X150436927Y-92243395D01*
X150475355Y-92321999D01*
X150488302Y-92348483D01*
X150571017Y-92431198D01*
X150617840Y-92454088D01*
X150676104Y-92482572D01*
X150676105Y-92482572D01*
X150676107Y-92482573D01*
X150744240Y-92492500D01*
X150744243Y-92492500D01*
X151110757Y-92492500D01*
X151110760Y-92492500D01*
X151178893Y-92482573D01*
X151283983Y-92431198D01*
X151366698Y-92348483D01*
X151418073Y-92243393D01*
X151428000Y-92175260D01*
X151428000Y-90933740D01*
X151418073Y-90865607D01*
X151413925Y-90857123D01*
X151391223Y-90810684D01*
X151366698Y-90760517D01*
X151283983Y-90677802D01*
X151282484Y-90677069D01*
X151178895Y-90626427D01*
X151151639Y-90622456D01*
X151110760Y-90616500D01*
X150744240Y-90616500D01*
X150710173Y-90621463D01*
X150676104Y-90626427D01*
X150571018Y-90677801D01*
X150488301Y-90760518D01*
X150436927Y-90865604D01*
X150431963Y-90899673D01*
X150427000Y-90933740D01*
X150427000Y-92175260D01*
X146110707Y-92175260D01*
X145885168Y-91949722D01*
X145778626Y-91878534D01*
X145660247Y-91829500D01*
X145660245Y-91829499D01*
X145660244Y-91829499D01*
X145534569Y-91804500D01*
X144730988Y-91804500D01*
X144164012Y-91804500D01*
X144164010Y-91804500D01*
X144064374Y-91820281D01*
X144064367Y-91820283D01*
X143944282Y-91881470D01*
X143848970Y-91976782D01*
X143787783Y-92096867D01*
X143787781Y-92096874D01*
X143772000Y-92196510D01*
X143772000Y-92713489D01*
X143787781Y-92813125D01*
X143787783Y-92813132D01*
X143848970Y-92933217D01*
X143848972Y-92933220D01*
X143944280Y-93028528D01*
X143944282Y-93028529D01*
X144064367Y-93089716D01*
X144064369Y-93089716D01*
X144064374Y-93089719D01*
X144131528Y-93100355D01*
X144164010Y-93105500D01*
X144164012Y-93105500D01*
X144383431Y-93105500D01*
X145160046Y-93105500D01*
X145218237Y-93124407D01*
X145230050Y-93134496D01*
X145255004Y-93159450D01*
X145282781Y-93213967D01*
X145284000Y-93229454D01*
X145284000Y-93788746D01*
X145284001Y-93788758D01*
X145295632Y-93847227D01*
X145295634Y-93847233D01*
X145339945Y-93913548D01*
X145339948Y-93913552D01*
X145406269Y-93957867D01*
X145450731Y-93966711D01*
X145464741Y-93969498D01*
X145464746Y-93969498D01*
X145464752Y-93969500D01*
X146583666Y-93969500D01*
X146641857Y-93988407D01*
X146653670Y-93998496D01*
X146930004Y-94274830D01*
X146957781Y-94329347D01*
X146959000Y-94344834D01*
X146959000Y-95494147D01*
X146959000Y-95579853D01*
X146976624Y-95645629D01*
X146981183Y-95662643D01*
X147024031Y-95736857D01*
X147024036Y-95736863D01*
X147050104Y-95762932D01*
X147077880Y-95817449D01*
X147068308Y-95877880D01*
X147025043Y-95921144D01*
X146974036Y-95931477D01*
X146974036Y-95931500D01*
X146973923Y-95931500D01*
X146973030Y-95931681D01*
X146970501Y-95931500D01*
X146970500Y-95931500D01*
X144813792Y-95931500D01*
X144813773Y-95931500D01*
X144791835Y-95932677D01*
X144791828Y-95932677D01*
X144791823Y-95932678D01*
X144783324Y-95933591D01*
X144765468Y-95935511D01*
X144765463Y-95935512D01*
X144688950Y-95959469D01*
X144627623Y-95992957D01*
X144580795Y-96028013D01*
X144334645Y-96274163D01*
X144322834Y-96284251D01*
X144299622Y-96301116D01*
X144272024Y-96315178D01*
X144252903Y-96321390D01*
X144235572Y-96327022D01*
X144204980Y-96331868D01*
X144166652Y-96331868D01*
X144136058Y-96327022D01*
X144099601Y-96315176D01*
X144072005Y-96301115D01*
X144048799Y-96284255D01*
X144036985Y-96274166D01*
X143790822Y-96028003D01*
X143774476Y-96013320D01*
X143774469Y-96013314D01*
X143774461Y-96013307D01*
X143756537Y-95998863D01*
X143753818Y-95996672D01*
X143682775Y-95959510D01*
X143682770Y-95959508D01*
X143615741Y-95939826D01*
X143615732Y-95939824D01*
X143569521Y-95933180D01*
X143557837Y-95931500D01*
X143474000Y-95931500D01*
X143463044Y-95932678D01*
X143449082Y-95934179D01*
X143389203Y-95921600D01*
X143348155Y-95876227D01*
X143339500Y-95835746D01*
X143339500Y-95807834D01*
X143358407Y-95749643D01*
X143368490Y-95737836D01*
X143552465Y-95553862D01*
X143579889Y-95506362D01*
X143581512Y-95503552D01*
X143590439Y-95488088D01*
X143595318Y-95479638D01*
X143617500Y-95396853D01*
X143617500Y-94673970D01*
X143636407Y-94615779D01*
X143656233Y-94595428D01*
X143720282Y-94546282D01*
X143816536Y-94420841D01*
X143877044Y-94274762D01*
X143897682Y-94118000D01*
X143877044Y-93961238D01*
X143854369Y-93906495D01*
X143816537Y-93815161D01*
X143816537Y-93815160D01*
X143720286Y-93689723D01*
X143720285Y-93689722D01*
X143720282Y-93689718D01*
X143720277Y-93689714D01*
X143720276Y-93689713D01*
X143594838Y-93593462D01*
X143448766Y-93532957D01*
X143448758Y-93532955D01*
X143292001Y-93512318D01*
X143291999Y-93512318D01*
X143135241Y-93532955D01*
X143135233Y-93532957D01*
X142989161Y-93593462D01*
X142989160Y-93593462D01*
X142863723Y-93689713D01*
X142863713Y-93689723D01*
X142781860Y-93796397D01*
X142731435Y-93831053D01*
X142670271Y-93829451D01*
X142633316Y-93806135D01*
X142613483Y-93786302D01*
X142613481Y-93786301D01*
X142508395Y-93734927D01*
X142481139Y-93730956D01*
X142440260Y-93725000D01*
X142073740Y-93725000D01*
X142039673Y-93729963D01*
X142005604Y-93734927D01*
X141900518Y-93786301D01*
X141817801Y-93869018D01*
X141766427Y-93974104D01*
X141762436Y-94001500D01*
X141756501Y-94042238D01*
X141756500Y-94042243D01*
X141756500Y-95022572D01*
X141737593Y-95080763D01*
X141727504Y-95092576D01*
X141556076Y-95264004D01*
X141501559Y-95291781D01*
X141486072Y-95293000D01*
X141135928Y-95293000D01*
X141077737Y-95274093D01*
X141065924Y-95264004D01*
X140890496Y-95088576D01*
X140862719Y-95034059D01*
X140861500Y-95018572D01*
X140861500Y-93562255D01*
X140880407Y-93504064D01*
X140890490Y-93492257D01*
X140934528Y-93448220D01*
X140989745Y-93339849D01*
X140995716Y-93328132D01*
X140995717Y-93328129D01*
X140995719Y-93328126D01*
X141011500Y-93228488D01*
X141011500Y-92661512D01*
X141008281Y-92641191D01*
X141005083Y-92620999D01*
X140995719Y-92561874D01*
X140995716Y-92561869D01*
X140995716Y-92561867D01*
X140934529Y-92441782D01*
X140934528Y-92441780D01*
X140839220Y-92346472D01*
X140839217Y-92346470D01*
X140719132Y-92285283D01*
X140719127Y-92285281D01*
X140719126Y-92285281D01*
X140685913Y-92280020D01*
X140619490Y-92269500D01*
X140619488Y-92269500D01*
X140464743Y-92269500D01*
X140406552Y-92250593D01*
X140394739Y-92240504D01*
X139093496Y-90939261D01*
X139065719Y-90884744D01*
X139064500Y-90869257D01*
X139064500Y-90654727D01*
X139064499Y-90654725D01*
X139061646Y-90624305D01*
X139061646Y-90624301D01*
X139016793Y-90496118D01*
X139000086Y-90473481D01*
X138936154Y-90386855D01*
X138936152Y-90386853D01*
X138936150Y-90386850D01*
X138936146Y-90386847D01*
X138936144Y-90386845D01*
X138826883Y-90306207D01*
X138698703Y-90261355D01*
X138698694Y-90261353D01*
X138668274Y-90258500D01*
X138668266Y-90258500D01*
X137959734Y-90258500D01*
X137959725Y-90258500D01*
X137929305Y-90261353D01*
X137929296Y-90261355D01*
X137801116Y-90306207D01*
X137691855Y-90386845D01*
X137691845Y-90386855D01*
X137611207Y-90496116D01*
X137566355Y-90624296D01*
X137566353Y-90624305D01*
X137563500Y-90654725D01*
X137563500Y-91363274D01*
X137566353Y-91393694D01*
X137566355Y-91393703D01*
X137611207Y-91521883D01*
X137691845Y-91631144D01*
X137691847Y-91631146D01*
X137691850Y-91631150D01*
X137691853Y-91631152D01*
X137691855Y-91631154D01*
X137801114Y-91711791D01*
X137801116Y-91711791D01*
X137801118Y-91711793D01*
X137915138Y-91751690D01*
X137963818Y-91788755D01*
X137981415Y-91847355D01*
X137961207Y-91905107D01*
X137931939Y-91930871D01*
X137903959Y-91947025D01*
X137892347Y-91952751D01*
X137861662Y-91965461D01*
X137835310Y-91985681D01*
X137824547Y-91992872D01*
X137795788Y-92009476D01*
X137795781Y-92009481D01*
X137772299Y-92032963D01*
X137762569Y-92041496D01*
X137736223Y-92061713D01*
X137736213Y-92061723D01*
X137715996Y-92088069D01*
X137707463Y-92097799D01*
X137683981Y-92121281D01*
X137683976Y-92121288D01*
X137667372Y-92150047D01*
X137660181Y-92160810D01*
X137639961Y-92187162D01*
X137627251Y-92217847D01*
X137621526Y-92229456D01*
X137618070Y-92235444D01*
X137604922Y-92258217D01*
X137604921Y-92258219D01*
X137596328Y-92290290D01*
X137592167Y-92302550D01*
X137579456Y-92333237D01*
X137579455Y-92333240D01*
X137575119Y-92366172D01*
X137572594Y-92378866D01*
X137566372Y-92402092D01*
X137564000Y-92410944D01*
X137564000Y-92444149D01*
X137563153Y-92457071D01*
X137558818Y-92489999D01*
X137558818Y-92490000D01*
X137563153Y-92522927D01*
X137564000Y-92535849D01*
X137564000Y-93444766D01*
X137563568Y-93454008D01*
X137563500Y-93454733D01*
X137563500Y-93697947D01*
X137562653Y-93710869D01*
X137558818Y-93740000D01*
X137559913Y-93748320D01*
X137562653Y-93769128D01*
X137563500Y-93782051D01*
X137563500Y-94163274D01*
X137566353Y-94193694D01*
X137566355Y-94193703D01*
X137611207Y-94321883D01*
X137691845Y-94431144D01*
X137691847Y-94431146D01*
X137691850Y-94431150D01*
X137691853Y-94431152D01*
X137691855Y-94431154D01*
X137801116Y-94511792D01*
X137801117Y-94511792D01*
X137801118Y-94511793D01*
X137929301Y-94556646D01*
X137959725Y-94559499D01*
X137959727Y-94559500D01*
X137959734Y-94559500D01*
X138668267Y-94559500D01*
X138668992Y-94559432D01*
X138678234Y-94559000D01*
X139757500Y-94559000D01*
X139815691Y-94577907D01*
X139851655Y-94627407D01*
X139856500Y-94658000D01*
X139856500Y-95133760D01*
X139859466Y-95154116D01*
X139860500Y-95168389D01*
X139860500Y-95266059D01*
X139841593Y-95324250D01*
X139831504Y-95336062D01*
X139471535Y-95696031D01*
X139471531Y-95696036D01*
X139428684Y-95770249D01*
X139428682Y-95770253D01*
X139428682Y-95770255D01*
X139412617Y-95830212D01*
X139412617Y-95830213D01*
X139412616Y-95830212D01*
X139406500Y-95853038D01*
X139406500Y-99513217D01*
X139387593Y-99571408D01*
X139377504Y-99583221D01*
X138803534Y-100157191D01*
X138764489Y-100224818D01*
X138719019Y-100265759D01*
X138658169Y-100272153D01*
X138608749Y-100245321D01*
X136343496Y-97980068D01*
X136315719Y-97925551D01*
X136314500Y-97910064D01*
X136314500Y-94106148D01*
X136314500Y-94106147D01*
X136297677Y-94043362D01*
X136297677Y-94043361D01*
X136297677Y-94043360D01*
X136292320Y-94023366D01*
X136292315Y-94023355D01*
X136249468Y-93949142D01*
X136249467Y-93949141D01*
X136249466Y-93949140D01*
X136249465Y-93949138D01*
X134585167Y-92284840D01*
X134557390Y-92230323D01*
X134556893Y-92202902D01*
X134557139Y-92200873D01*
X134557140Y-92200872D01*
X134577645Y-92032000D01*
X134576241Y-92020441D01*
X134569566Y-91965464D01*
X134557140Y-91863128D01*
X134496818Y-91704070D01*
X134400183Y-91564071D01*
X134363230Y-91531334D01*
X134272853Y-91451267D01*
X134272852Y-91451266D01*
X134122225Y-91372210D01*
X134122224Y-91372209D01*
X134122223Y-91372209D01*
X133957058Y-91331500D01*
X133957056Y-91331500D01*
X133786944Y-91331500D01*
X133786941Y-91331500D01*
X133621776Y-91372209D01*
X133471146Y-91451267D01*
X133343818Y-91564069D01*
X133339848Y-91568552D01*
X133338284Y-91567166D01*
X133296848Y-91598822D01*
X133235680Y-91600293D01*
X133185330Y-91565530D01*
X133165029Y-91507811D01*
X133165000Y-91505430D01*
X133165000Y-89749860D01*
X133165477Y-89740156D01*
X133180367Y-89588974D01*
X133184153Y-89569940D01*
X133191149Y-89546880D01*
X133226833Y-89429240D01*
X133234260Y-89411311D01*
X133249238Y-89383291D01*
X133303572Y-89281639D01*
X133314353Y-89265505D01*
X133318610Y-89260318D01*
X133407630Y-89151846D01*
X133421346Y-89138130D01*
X133535006Y-89044851D01*
X133551141Y-89034071D01*
X133565296Y-89026505D01*
X133680813Y-88964758D01*
X133698740Y-88957333D01*
X133839444Y-88914652D01*
X133858470Y-88910867D01*
X134009657Y-88895977D01*
X134019361Y-88895500D01*
X134080392Y-88895500D01*
X151286315Y-88895500D01*
X151344506Y-88914407D01*
G37*
G04 #@! TD.AperFunction*
G04 #@! TA.AperFunction,Conductor*
G36*
X146281428Y-98653922D02*
G01*
X146321385Y-98700259D01*
X146321566Y-98700692D01*
X146338041Y-98740466D01*
X146342842Y-98801463D01*
X146316582Y-98848354D01*
X146256936Y-98908002D01*
X146202420Y-98935781D01*
X146186931Y-98937000D01*
X144842870Y-98937000D01*
X144842863Y-98937001D01*
X144762505Y-98952984D01*
X144762503Y-98952985D01*
X144671379Y-99013873D01*
X144671373Y-99013879D01*
X144610486Y-99105001D01*
X144610486Y-99105003D01*
X144610485Y-99105005D01*
X144604817Y-99133500D01*
X144594500Y-99185367D01*
X144594500Y-99389629D01*
X144594502Y-99389641D01*
X144596903Y-99401713D01*
X144589710Y-99462474D01*
X144549307Y-99506759D01*
X144514190Y-99527034D01*
X144453586Y-99587637D01*
X144453587Y-99587638D01*
X144206721Y-99834504D01*
X144152204Y-99862281D01*
X144136717Y-99863500D01*
X143505783Y-99863500D01*
X143447592Y-99844593D01*
X143435779Y-99834504D01*
X143368496Y-99767221D01*
X143340719Y-99712704D01*
X143339500Y-99697217D01*
X143339500Y-98738413D01*
X143358407Y-98680222D01*
X143407907Y-98644258D01*
X143452588Y-98640421D01*
X143474000Y-98643500D01*
X143474003Y-98643500D01*
X144826640Y-98643500D01*
X144827806Y-98643471D01*
X144836716Y-98643253D01*
X144846610Y-98642766D01*
X144849631Y-98642619D01*
X144854482Y-98642500D01*
X146182419Y-98642500D01*
X146186360Y-98642335D01*
X146199509Y-98641788D01*
X146220068Y-98640072D01*
X146220072Y-98640070D01*
X146221866Y-98639921D01*
X146281428Y-98653922D01*
G37*
G04 #@! TD.AperFunction*
G04 #@! TA.AperFunction,Conductor*
G36*
X153376677Y-92731962D02*
G01*
X153431215Y-92786500D01*
X153432061Y-92788215D01*
X153436462Y-92795839D01*
X153436464Y-92795841D01*
X153532718Y-92921282D01*
X153658159Y-93017536D01*
X153804238Y-93078044D01*
X153804241Y-93078044D01*
X153804243Y-93078045D01*
X153804240Y-93078045D01*
X153960997Y-93098682D01*
X153961000Y-93098682D01*
X153961003Y-93098682D01*
X154117757Y-93078045D01*
X154117758Y-93078044D01*
X154117762Y-93078044D01*
X154263841Y-93017536D01*
X154389282Y-92921282D01*
X154485536Y-92795841D01*
X154485537Y-92795839D01*
X154490420Y-92787382D01*
X154493521Y-92789172D01*
X154529146Y-92742768D01*
X154600410Y-92713270D01*
X154619823Y-92712000D01*
X155912000Y-92712000D01*
X155986500Y-92731962D01*
X156041038Y-92786500D01*
X156061000Y-92861000D01*
X156061000Y-93649000D01*
X156041038Y-93723500D01*
X155986500Y-93778038D01*
X155912000Y-93798000D01*
X154531388Y-93798000D01*
X154474368Y-93786658D01*
X154385762Y-93749956D01*
X154385760Y-93749955D01*
X154385756Y-93749954D01*
X154385759Y-93749954D01*
X154229003Y-93729318D01*
X154228997Y-93729318D01*
X154072242Y-93749954D01*
X153983632Y-93786658D01*
X153926612Y-93798000D01*
X152820000Y-93798000D01*
X152745500Y-93778038D01*
X152690962Y-93723500D01*
X152671000Y-93649000D01*
X152671000Y-92861000D01*
X152690962Y-92786500D01*
X152745500Y-92731962D01*
X152820000Y-92712000D01*
X153302177Y-92712000D01*
X153376677Y-92731962D01*
G37*
G04 #@! TD.AperFunction*
G04 #@! TA.AperFunction,Conductor*
G36*
X143624876Y-96156685D02*
G01*
X143645518Y-96173319D01*
X143908620Y-96436421D01*
X143990234Y-96495717D01*
X144118421Y-96537368D01*
X144118422Y-96537368D01*
X144253206Y-96537368D01*
X144253207Y-96537368D01*
X144381395Y-96495717D01*
X144463009Y-96436421D01*
X144726111Y-96173319D01*
X144787434Y-96139834D01*
X144813792Y-96137000D01*
X146970500Y-96137000D01*
X147037539Y-96156685D01*
X147083294Y-96209489D01*
X147094500Y-96261000D01*
X147094500Y-97565642D01*
X147095000Y-97575789D01*
X147095000Y-97779175D01*
X147075315Y-97846214D01*
X147022511Y-97891969D01*
X146954815Y-97902114D01*
X146888001Y-97893318D01*
X146887999Y-97893318D01*
X146731239Y-97913955D01*
X146731237Y-97913956D01*
X146585160Y-97974463D01*
X146459718Y-98070718D01*
X146363463Y-98196160D01*
X146302955Y-98342239D01*
X146302190Y-98345097D01*
X146300886Y-98347236D01*
X146299846Y-98349747D01*
X146299454Y-98349584D01*
X146265823Y-98404756D01*
X146202975Y-98435284D01*
X146182416Y-98437000D01*
X144842869Y-98437000D01*
X144838788Y-98437403D01*
X144826634Y-98438000D01*
X143474000Y-98438000D01*
X143406961Y-98418315D01*
X143361206Y-98365511D01*
X143350000Y-98314000D01*
X143350000Y-96261000D01*
X143369685Y-96193961D01*
X143422489Y-96148206D01*
X143474000Y-96137000D01*
X143557837Y-96137000D01*
X143624876Y-96156685D01*
G37*
G04 #@! TD.AperFunction*
M02*
