G04 #@! TF.GenerationSoftware,KiCad,Pcbnew,8.0.1*
G04 #@! TF.CreationDate,2024-03-28T22:20:21+03:00*
G04 #@! TF.ProjectId,Piezo module,5069657a-6f20-46d6-9f64-756c652e6b69,rev?*
G04 #@! TF.SameCoordinates,Original*
G04 #@! TF.FileFunction,Soldermask,Bot*
G04 #@! TF.FilePolarity,Negative*
%FSLAX46Y46*%
G04 Gerber Fmt 4.6, Leading zero omitted, Abs format (unit mm)*
G04 Created by KiCad (PCBNEW 8.0.1) date 2024-03-28 22:20:21*
%MOMM*%
%LPD*%
G01*
G04 APERTURE LIST*
G04 Aperture macros list*
%AMRoundRect*
0 Rectangle with rounded corners*
0 $1 Rounding radius*
0 $2 $3 $4 $5 $6 $7 $8 $9 X,Y pos of 4 corners*
0 Add a 4 corners polygon primitive as box body*
4,1,4,$2,$3,$4,$5,$6,$7,$8,$9,$2,$3,0*
0 Add four circle primitives for the rounded corners*
1,1,$1+$1,$2,$3*
1,1,$1+$1,$4,$5*
1,1,$1+$1,$6,$7*
1,1,$1+$1,$8,$9*
0 Add four rect primitives between the rounded corners*
20,1,$1+$1,$2,$3,$4,$5,0*
20,1,$1+$1,$4,$5,$6,$7,0*
20,1,$1+$1,$6,$7,$8,$9,0*
20,1,$1+$1,$8,$9,$2,$3,0*%
%AMFreePoly0*
4,1,19,0.500000,-0.750000,0.000000,-0.750000,0.000000,-0.744911,-0.071157,-0.744911,-0.207708,-0.704816,-0.327430,-0.627875,-0.420627,-0.520320,-0.479746,-0.390866,-0.500000,-0.250000,-0.500000,0.250000,-0.479746,0.390866,-0.420627,0.520320,-0.327430,0.627875,-0.207708,0.704816,-0.071157,0.744911,0.000000,0.744911,0.000000,0.750000,0.500000,0.750000,0.500000,-0.750000,0.500000,-0.750000,
$1*%
%AMFreePoly1*
4,1,19,0.000000,0.744911,0.071157,0.744911,0.207708,0.704816,0.327430,0.627875,0.420627,0.520320,0.479746,0.390866,0.500000,0.250000,0.500000,-0.250000,0.479746,-0.390866,0.420627,-0.520320,0.327430,-0.627875,0.207708,-0.704816,0.071157,-0.744911,0.000000,-0.744911,0.000000,-0.750000,-0.500000,-0.750000,-0.500000,0.750000,0.000000,0.750000,0.000000,0.744911,0.000000,0.744911,
$1*%
%AMFreePoly2*
4,1,9,3.862500,-0.866500,0.737500,-0.866500,0.737500,-0.450000,-0.737500,-0.450000,-0.737500,0.450000,0.737500,0.450000,0.737500,0.866500,3.862500,0.866500,3.862500,-0.866500,3.862500,-0.866500,$1*%
G04 Aperture macros list end*
%ADD10C,2.000000*%
%ADD11C,2.600000*%
%ADD12C,0.700000*%
%ADD13C,4.400000*%
%ADD14C,0.500000*%
%ADD15O,1.090000X2.000000*%
%ADD16O,1.050000X1.600000*%
%ADD17RoundRect,0.200000X0.275000X-0.200000X0.275000X0.200000X-0.275000X0.200000X-0.275000X-0.200000X0*%
%ADD18RoundRect,0.150000X0.150000X-0.587500X0.150000X0.587500X-0.150000X0.587500X-0.150000X-0.587500X0*%
%ADD19C,1.000000*%
%ADD20RoundRect,0.225000X-0.250000X0.225000X-0.250000X-0.225000X0.250000X-0.225000X0.250000X0.225000X0*%
%ADD21RoundRect,0.100000X-0.637500X-0.100000X0.637500X-0.100000X0.637500X0.100000X-0.637500X0.100000X0*%
%ADD22RoundRect,0.225000X0.250000X-0.225000X0.250000X0.225000X-0.250000X0.225000X-0.250000X-0.225000X0*%
%ADD23FreePoly0,180.000000*%
%ADD24FreePoly1,180.000000*%
%ADD25RoundRect,0.218750X-0.256250X0.218750X-0.256250X-0.218750X0.256250X-0.218750X0.256250X0.218750X0*%
%ADD26RoundRect,0.200000X-0.200000X-0.275000X0.200000X-0.275000X0.200000X0.275000X-0.200000X0.275000X0*%
%ADD27RoundRect,0.150000X-0.150000X0.512500X-0.150000X-0.512500X0.150000X-0.512500X0.150000X0.512500X0*%
%ADD28RoundRect,0.200000X0.200000X0.275000X-0.200000X0.275000X-0.200000X-0.275000X0.200000X-0.275000X0*%
%ADD29R,1.400000X1.200000*%
%ADD30RoundRect,0.250000X-0.300000X0.300000X-0.300000X-0.300000X0.300000X-0.300000X0.300000X0.300000X0*%
%ADD31RoundRect,0.250000X-0.300000X-0.300000X0.300000X-0.300000X0.300000X0.300000X-0.300000X0.300000X0*%
%ADD32RoundRect,0.225000X0.225000X0.250000X-0.225000X0.250000X-0.225000X-0.250000X0.225000X-0.250000X0*%
%ADD33RoundRect,0.225000X-0.225000X-0.250000X0.225000X-0.250000X0.225000X0.250000X-0.225000X0.250000X0*%
%ADD34RoundRect,0.075000X-0.075000X0.662500X-0.075000X-0.662500X0.075000X-0.662500X0.075000X0.662500X0*%
%ADD35RoundRect,0.075000X-0.662500X0.075000X-0.662500X-0.075000X0.662500X-0.075000X0.662500X0.075000X0*%
%ADD36RoundRect,0.225000X-0.335876X-0.017678X-0.017678X-0.335876X0.335876X0.017678X0.017678X0.335876X0*%
%ADD37RoundRect,0.200000X-0.275000X0.200000X-0.275000X-0.200000X0.275000X-0.200000X0.275000X0.200000X0*%
%ADD38RoundRect,0.225000X0.425000X0.225000X-0.425000X0.225000X-0.425000X-0.225000X0.425000X-0.225000X0*%
%ADD39FreePoly2,180.000000*%
%ADD40FreePoly0,0.000000*%
%ADD41FreePoly1,0.000000*%
%ADD42C,0.900000*%
%ADD43R,1.500000X0.700000*%
%ADD44R,0.800000X1.000000*%
G04 APERTURE END LIST*
D10*
X160085500Y-112035000D03*
X162625500Y-112035000D03*
D11*
X141266500Y-90195000D03*
X147646500Y-90195000D03*
D12*
X160023500Y-90845000D03*
X160506774Y-89678274D03*
X160506774Y-92011726D03*
X161673500Y-89195000D03*
D13*
X161673500Y-90845000D03*
D12*
X161673500Y-92495000D03*
X162840226Y-89678274D03*
X162840226Y-92011726D03*
X163323500Y-90845000D03*
X140274500Y-111085000D03*
X140757774Y-109918274D03*
X140757774Y-112251726D03*
X141924500Y-109435000D03*
D13*
X141924500Y-111085000D03*
D12*
X141924500Y-112735000D03*
X143091226Y-109918274D03*
X143091226Y-112251726D03*
X143574500Y-111085000D03*
D14*
X150694500Y-109010000D03*
X146694500Y-109010000D03*
D15*
X152294500Y-111160000D03*
D16*
X152294500Y-107710000D03*
D15*
X145094500Y-111160000D03*
D16*
X145094500Y-107710000D03*
D10*
X154543500Y-112035000D03*
X157083500Y-112035000D03*
X155174500Y-89895000D03*
X157714500Y-89895000D03*
D17*
X167866000Y-97710000D03*
X167866000Y-96060000D03*
D18*
X152827500Y-91554500D03*
X150927500Y-91554500D03*
X151877500Y-89679500D03*
D19*
X133872000Y-99218000D03*
D20*
X164345000Y-104706000D03*
X164345000Y-106256000D03*
D21*
X155849500Y-99287500D03*
X155849500Y-98637500D03*
X155849500Y-97987500D03*
X155849500Y-97337500D03*
X155849500Y-96687500D03*
X155849500Y-96037500D03*
X155849500Y-95387500D03*
X155849500Y-94737500D03*
X161574500Y-94737500D03*
X161574500Y-95387500D03*
X161574500Y-96037500D03*
X161574500Y-96687500D03*
X161574500Y-97337500D03*
X161574500Y-97987500D03*
X161574500Y-98637500D03*
X161574500Y-99287500D03*
D22*
X144447500Y-94005000D03*
X144447500Y-92455000D03*
D20*
X155587000Y-102763500D03*
X155587000Y-104313500D03*
D23*
X168648000Y-109208000D03*
D24*
X167348000Y-109208000D03*
D25*
X166384500Y-97758500D03*
X166384500Y-99333500D03*
D20*
X157050000Y-102763500D03*
X157050000Y-104313500D03*
D26*
X141295000Y-107746000D03*
X142945000Y-107746000D03*
D27*
X147745000Y-107872500D03*
X148695000Y-107872500D03*
X149645000Y-107872500D03*
X149645000Y-110147500D03*
X148695000Y-110147500D03*
X147745000Y-110147500D03*
D28*
X157849000Y-105754000D03*
X156199000Y-105754000D03*
D27*
X140357000Y-94588000D03*
X141307000Y-94588000D03*
X142257000Y-94588000D03*
X142257000Y-96863000D03*
X140357000Y-96863000D03*
D29*
X146184500Y-93169000D03*
X148384500Y-93169000D03*
X148384500Y-94869000D03*
X146184500Y-94869000D03*
D30*
X138314000Y-91009000D03*
X138314000Y-93809000D03*
D19*
X133872000Y-92032000D03*
D31*
X137739001Y-101256000D03*
X140538999Y-101256000D03*
D19*
X133872000Y-95967000D03*
D31*
X139944500Y-103992000D03*
X142744500Y-103992000D03*
D17*
X165810000Y-106307000D03*
X165810000Y-104657000D03*
D32*
X163335500Y-100891001D03*
X161785500Y-100891001D03*
D20*
X163441500Y-94806000D03*
X163441500Y-96356000D03*
D33*
X140361000Y-92945000D03*
X141911000Y-92945000D03*
D26*
X142105000Y-102110000D03*
X143755000Y-102110000D03*
D33*
X151558000Y-94790000D03*
X153108000Y-94790000D03*
D20*
X166402500Y-94799000D03*
X166402500Y-96349000D03*
D23*
X168980500Y-92442000D03*
D24*
X167680500Y-92442000D03*
D28*
X167286000Y-103269000D03*
X165636000Y-103269000D03*
D26*
X157566000Y-93096499D03*
X159216000Y-93096499D03*
D23*
X155349000Y-109208000D03*
D24*
X154049000Y-109208000D03*
D32*
X140507000Y-99205000D03*
X138957000Y-99205000D03*
D34*
X146945000Y-96875000D03*
X147445000Y-96875000D03*
X147945000Y-96875000D03*
X148445000Y-96875000D03*
X148945000Y-96875000D03*
X149445000Y-96875000D03*
X149945000Y-96875000D03*
X150445000Y-96875000D03*
X150945000Y-96875000D03*
X151445000Y-96875000D03*
X151945000Y-96875000D03*
X152445000Y-96875000D03*
D35*
X153857500Y-98287500D03*
X153857500Y-98787500D03*
X153857500Y-99287500D03*
X153857500Y-99787500D03*
X153857500Y-100287500D03*
X153857500Y-100787500D03*
X153857500Y-101287500D03*
X153857500Y-101787500D03*
X153857500Y-102287500D03*
X153857500Y-102787500D03*
X153857500Y-103287500D03*
X153857500Y-103787500D03*
D34*
X152445000Y-105200000D03*
X151945000Y-105200000D03*
X151445000Y-105200000D03*
X150945000Y-105200000D03*
X150445000Y-105200000D03*
X149945000Y-105200000D03*
X149445000Y-105200000D03*
X148945000Y-105200000D03*
X148445000Y-105200000D03*
X147945000Y-105200000D03*
X147445000Y-105200000D03*
X146945000Y-105200000D03*
D35*
X145532500Y-103787500D03*
X145532500Y-103287500D03*
X145532500Y-102787500D03*
X145532500Y-102287500D03*
X145532500Y-101787500D03*
X145532500Y-101287500D03*
X145532500Y-100787500D03*
X145532500Y-100287500D03*
X145532500Y-99787500D03*
X145532500Y-99287500D03*
X145532500Y-98787500D03*
X145532500Y-98287500D03*
D23*
X158653000Y-109204000D03*
D24*
X157353000Y-109204000D03*
D23*
X165344000Y-109208000D03*
D24*
X164044000Y-109208000D03*
D26*
X141270000Y-106132000D03*
X142920000Y-106132000D03*
D36*
X144203492Y-95775992D03*
X145299508Y-96872008D03*
D37*
X139884000Y-106092000D03*
X139884000Y-107742000D03*
D38*
X162710500Y-102622000D03*
D39*
X162623000Y-104122000D03*
D38*
X162710500Y-105622000D03*
D20*
X164920500Y-94805000D03*
X164920500Y-96355000D03*
D26*
X165393000Y-111189000D03*
X167043000Y-111189000D03*
D20*
X163446500Y-97771500D03*
X163446500Y-99321500D03*
X150114500Y-93244000D03*
X150114500Y-94794000D03*
D40*
X160704000Y-109208000D03*
D41*
X162004000Y-109208000D03*
D42*
X136364500Y-109685000D03*
X136364500Y-106685000D03*
D43*
X138124500Y-110435000D03*
X138124500Y-107435000D03*
X138124500Y-105935000D03*
D44*
X135264500Y-111835000D03*
X137474500Y-111835000D03*
X135264500Y-104535000D03*
X137474500Y-104535000D03*
D22*
X143814000Y-99414000D03*
X143814000Y-97864000D03*
D33*
X144290000Y-105789000D03*
X145840000Y-105789000D03*
D20*
X142092000Y-98483000D03*
X142092000Y-100033000D03*
D33*
X151570500Y-93323000D03*
X153120500Y-93323000D03*
M02*
