G04 #@! TF.GenerationSoftware,KiCad,Pcbnew,8.0.1*
G04 #@! TF.CreationDate,2024-03-31T17:13:02+03:00*
G04 #@! TF.ProjectId,Piezo module,5069657a-6f20-46d6-9f64-756c652e6b69,rev?*
G04 #@! TF.SameCoordinates,Original*
G04 #@! TF.FileFunction,Legend,Top*
G04 #@! TF.FilePolarity,Positive*
%FSLAX46Y46*%
G04 Gerber Fmt 4.6, Leading zero omitted, Abs format (unit mm)*
G04 Created by KiCad (PCBNEW 8.0.1) date 2024-03-31 17:13:02*
%MOMM*%
%LPD*%
G01*
G04 APERTURE LIST*
G04 Aperture macros list*
%AMRoundRect*
0 Rectangle with rounded corners*
0 $1 Rounding radius*
0 $2 $3 $4 $5 $6 $7 $8 $9 X,Y pos of 4 corners*
0 Add a 4 corners polygon primitive as box body*
4,1,4,$2,$3,$4,$5,$6,$7,$8,$9,$2,$3,0*
0 Add four circle primitives for the rounded corners*
1,1,$1+$1,$2,$3*
1,1,$1+$1,$4,$5*
1,1,$1+$1,$6,$7*
1,1,$1+$1,$8,$9*
0 Add four rect primitives between the rounded corners*
20,1,$1+$1,$2,$3,$4,$5,0*
20,1,$1+$1,$4,$5,$6,$7,0*
20,1,$1+$1,$6,$7,$8,$9,0*
20,1,$1+$1,$8,$9,$2,$3,0*%
%AMFreePoly0*
4,1,9,3.862500,-0.866500,0.737500,-0.866500,0.737500,-0.450000,-0.737500,-0.450000,-0.737500,0.450000,0.737500,0.450000,0.737500,0.866500,3.862500,0.866500,3.862500,-0.866500,3.862500,-0.866500,$1*%
G04 Aperture macros list end*
%ADD10C,0.120000*%
%ADD11C,0.100000*%
%ADD12C,0.350000*%
%ADD13C,0.150000*%
%ADD14C,0.000000*%
%ADD15RoundRect,0.225000X-0.225000X-0.250000X0.225000X-0.250000X0.225000X0.250000X-0.225000X0.250000X0*%
%ADD16RoundRect,0.225000X-0.250000X0.225000X-0.250000X-0.225000X0.250000X-0.225000X0.250000X0.225000X0*%
%ADD17RoundRect,0.200000X-0.200000X-0.275000X0.200000X-0.275000X0.200000X0.275000X-0.200000X0.275000X0*%
%ADD18RoundRect,0.250000X-0.750000X-0.250000X0.750000X-0.250000X0.750000X0.250000X-0.750000X0.250000X0*%
%ADD19C,2.000000*%
%ADD20RoundRect,0.200000X0.275000X-0.200000X0.275000X0.200000X-0.275000X0.200000X-0.275000X-0.200000X0*%
%ADD21C,2.600000*%
%ADD22C,0.700000*%
%ADD23C,4.400000*%
%ADD24RoundRect,0.150000X-0.150000X0.725000X-0.150000X-0.725000X0.150000X-0.725000X0.150000X0.725000X0*%
%ADD25RoundRect,0.200000X0.600000X-0.200000X0.600000X0.200000X-0.600000X0.200000X-0.600000X-0.200000X0*%
%ADD26RoundRect,0.250001X1.249999X-0.799999X1.249999X0.799999X-1.249999X0.799999X-1.249999X-0.799999X0*%
%ADD27RoundRect,0.200000X-0.600000X0.200000X-0.600000X-0.200000X0.600000X-0.200000X0.600000X0.200000X0*%
%ADD28RoundRect,0.250001X-1.249999X0.799999X-1.249999X-0.799999X1.249999X-0.799999X1.249999X0.799999X0*%
%ADD29RoundRect,0.200000X-0.275000X0.200000X-0.275000X-0.200000X0.275000X-0.200000X0.275000X0.200000X0*%
%ADD30RoundRect,0.250000X0.625000X-0.375000X0.625000X0.375000X-0.625000X0.375000X-0.625000X-0.375000X0*%
%ADD31RoundRect,0.150000X0.825000X0.150000X-0.825000X0.150000X-0.825000X-0.150000X0.825000X-0.150000X0*%
%ADD32RoundRect,0.200000X0.200000X0.275000X-0.200000X0.275000X-0.200000X-0.275000X0.200000X-0.275000X0*%
%ADD33RoundRect,0.250000X-0.625000X0.375000X-0.625000X-0.375000X0.625000X-0.375000X0.625000X0.375000X0*%
%ADD34RoundRect,0.225000X0.425000X0.225000X-0.425000X0.225000X-0.425000X-0.225000X0.425000X-0.225000X0*%
%ADD35FreePoly0,180.000000*%
%ADD36C,0.500000*%
%ADD37R,0.400000X1.800000*%
%ADD38O,1.090000X2.000000*%
%ADD39O,1.050000X1.600000*%
%ADD40RoundRect,0.225000X0.250000X-0.225000X0.250000X0.225000X-0.250000X0.225000X-0.250000X-0.225000X0*%
%ADD41RoundRect,0.150000X0.587500X0.150000X-0.587500X0.150000X-0.587500X-0.150000X0.587500X-0.150000X0*%
%ADD42RoundRect,0.225000X0.225000X0.250000X-0.225000X0.250000X-0.225000X-0.250000X0.225000X-0.250000X0*%
%ADD43R,1.300000X1.600000*%
%ADD44R,2.000000X1.600000*%
%ADD45R,1.500000X0.900000*%
%ADD46RoundRect,0.150000X-0.650000X-0.150000X0.650000X-0.150000X0.650000X0.150000X-0.650000X0.150000X0*%
%ADD47C,1.000000*%
%ADD48C,0.900000*%
G04 APERTURE END LIST*
D10*
X141726000Y-98995000D02*
X141726000Y-102880000D01*
X141726000Y-102880000D02*
X133054500Y-102880000D01*
D11*
X154289217Y-91691514D02*
X154717789Y-91691514D01*
X154203503Y-91948657D02*
X154503503Y-91048657D01*
X154503503Y-91048657D02*
X154803503Y-91948657D01*
X155103503Y-91948657D02*
X155103503Y-91048657D01*
X155103503Y-91048657D02*
X155317789Y-91048657D01*
X155317789Y-91048657D02*
X155446360Y-91091514D01*
X155446360Y-91091514D02*
X155532075Y-91177228D01*
X155532075Y-91177228D02*
X155574932Y-91262942D01*
X155574932Y-91262942D02*
X155617789Y-91434371D01*
X155617789Y-91434371D02*
X155617789Y-91562942D01*
X155617789Y-91562942D02*
X155574932Y-91734371D01*
X155574932Y-91734371D02*
X155532075Y-91820085D01*
X155532075Y-91820085D02*
X155446360Y-91905800D01*
X155446360Y-91905800D02*
X155317789Y-91948657D01*
X155317789Y-91948657D02*
X155103503Y-91948657D01*
X156517789Y-91862942D02*
X156474932Y-91905800D01*
X156474932Y-91905800D02*
X156346360Y-91948657D01*
X156346360Y-91948657D02*
X156260646Y-91948657D01*
X156260646Y-91948657D02*
X156132075Y-91905800D01*
X156132075Y-91905800D02*
X156046360Y-91820085D01*
X156046360Y-91820085D02*
X156003503Y-91734371D01*
X156003503Y-91734371D02*
X155960646Y-91562942D01*
X155960646Y-91562942D02*
X155960646Y-91434371D01*
X155960646Y-91434371D02*
X156003503Y-91262942D01*
X156003503Y-91262942D02*
X156046360Y-91177228D01*
X156046360Y-91177228D02*
X156132075Y-91091514D01*
X156132075Y-91091514D02*
X156260646Y-91048657D01*
X156260646Y-91048657D02*
X156346360Y-91048657D01*
X156346360Y-91048657D02*
X156474932Y-91091514D01*
X156474932Y-91091514D02*
X156517789Y-91134371D01*
X144032419Y-107621544D02*
X143032419Y-107621544D01*
X143032419Y-107621544D02*
X143032419Y-107240592D01*
X143032419Y-107240592D02*
X143080038Y-107145354D01*
X143080038Y-107145354D02*
X143127657Y-107097735D01*
X143127657Y-107097735D02*
X143222895Y-107050116D01*
X143222895Y-107050116D02*
X143365752Y-107050116D01*
X143365752Y-107050116D02*
X143460990Y-107097735D01*
X143460990Y-107097735D02*
X143508609Y-107145354D01*
X143508609Y-107145354D02*
X143556228Y-107240592D01*
X143556228Y-107240592D02*
X143556228Y-107621544D01*
X143032419Y-106716782D02*
X144032419Y-106478687D01*
X144032419Y-106478687D02*
X143318133Y-106288211D01*
X143318133Y-106288211D02*
X144032419Y-106097735D01*
X144032419Y-106097735D02*
X143032419Y-105859640D01*
X144032419Y-104907259D02*
X143556228Y-105240592D01*
X144032419Y-105478687D02*
X143032419Y-105478687D01*
X143032419Y-105478687D02*
X143032419Y-105097735D01*
X143032419Y-105097735D02*
X143080038Y-105002497D01*
X143080038Y-105002497D02*
X143127657Y-104954878D01*
X143127657Y-104954878D02*
X143222895Y-104907259D01*
X143222895Y-104907259D02*
X143365752Y-104907259D01*
X143365752Y-104907259D02*
X143460990Y-104954878D01*
X143460990Y-104954878D02*
X143508609Y-105002497D01*
X143508609Y-105002497D02*
X143556228Y-105097735D01*
X143556228Y-105097735D02*
X143556228Y-105478687D01*
X139159419Y-108931115D02*
X139159419Y-108359687D01*
X140159419Y-108645401D02*
X139159419Y-108645401D01*
X139159419Y-108121591D02*
X140159419Y-107454925D01*
X139159419Y-107454925D02*
X140159419Y-108121591D01*
X164275384Y-112446919D02*
X164275384Y-111446919D01*
X164751574Y-112446919D02*
X164751574Y-111446919D01*
X164751574Y-111446919D02*
X165323002Y-112446919D01*
X165323002Y-112446919D02*
X165323002Y-111446919D01*
G36*
X138545189Y-91102788D02*
G01*
X138597631Y-91106250D01*
X138646457Y-91112020D01*
X138691665Y-91120099D01*
X138752697Y-91136544D01*
X138805591Y-91158182D01*
X138850348Y-91185014D01*
X138886967Y-91217039D01*
X138915449Y-91254257D01*
X138935793Y-91296668D01*
X138947999Y-91344272D01*
X138952068Y-91397070D01*
X138947999Y-91449789D01*
X138935793Y-91497323D01*
X138915449Y-91539671D01*
X138886967Y-91576833D01*
X138850348Y-91608811D01*
X138805591Y-91635602D01*
X138752697Y-91657209D01*
X138691665Y-91673629D01*
X138646457Y-91681696D01*
X138597631Y-91687457D01*
X138545189Y-91690914D01*
X138489130Y-91692066D01*
X138432752Y-91690914D01*
X138380011Y-91687457D01*
X138330907Y-91681696D01*
X138285441Y-91673629D01*
X138224061Y-91657209D01*
X138170865Y-91635602D01*
X138125854Y-91608811D01*
X138089026Y-91576833D01*
X138060382Y-91539671D01*
X138039922Y-91497323D01*
X138027646Y-91449789D01*
X138023571Y-91397290D01*
X138122033Y-91397290D01*
X138128467Y-91442048D01*
X138150706Y-91484235D01*
X138184303Y-91515411D01*
X138203366Y-91527203D01*
X138244754Y-91544504D01*
X138289623Y-91555952D01*
X138333637Y-91563107D01*
X138383672Y-91568094D01*
X138428036Y-91570522D01*
X138476254Y-91571563D01*
X138488910Y-91571606D01*
X138537978Y-91570912D01*
X138583185Y-91568831D01*
X138634265Y-91564278D01*
X138679313Y-91557556D01*
X138725407Y-91546629D01*
X138768206Y-91529934D01*
X138773355Y-91527203D01*
X138812140Y-91498885D01*
X138840347Y-91459876D01*
X138852884Y-91412924D01*
X138853589Y-91397290D01*
X138847243Y-91352230D01*
X138825304Y-91309872D01*
X138792160Y-91278687D01*
X138773355Y-91266937D01*
X138732245Y-91249550D01*
X138687598Y-91238046D01*
X138643757Y-91230855D01*
X138593883Y-91225844D01*
X138549641Y-91223404D01*
X138501539Y-91222358D01*
X138488910Y-91222314D01*
X138439729Y-91223011D01*
X138394402Y-91225103D01*
X138343162Y-91229679D01*
X138297944Y-91236433D01*
X138251630Y-91247415D01*
X138208556Y-91264192D01*
X138203366Y-91266937D01*
X138164050Y-91295201D01*
X138135456Y-91334313D01*
X138122748Y-91381539D01*
X138122033Y-91397290D01*
X138023571Y-91397290D01*
X138023554Y-91397070D01*
X138027646Y-91344272D01*
X138039922Y-91296668D01*
X138060382Y-91254257D01*
X138089026Y-91217039D01*
X138125854Y-91185014D01*
X138170865Y-91158182D01*
X138224061Y-91136544D01*
X138285441Y-91120099D01*
X138330907Y-91112020D01*
X138380011Y-91106250D01*
X138432752Y-91102788D01*
X138489130Y-91101634D01*
X138545189Y-91102788D01*
G37*
G36*
X138726974Y-90525270D02*
G01*
X138938000Y-90525270D01*
X138938000Y-90641993D01*
X138726974Y-90641993D01*
X138726974Y-91029094D01*
X138628495Y-91029094D01*
X138060637Y-90641993D01*
X138208861Y-90641993D01*
X138628495Y-90920284D01*
X138628495Y-90641993D01*
X138208861Y-90641993D01*
X138060637Y-90641993D01*
X138023554Y-90616714D01*
X138023554Y-90525270D01*
X138628495Y-90525270D01*
X138628495Y-90402831D01*
X138726974Y-90402831D01*
X138726974Y-90525270D01*
G37*
G36*
X138037623Y-89995727D02*
G01*
X138938000Y-90257750D01*
X138938000Y-90347436D01*
X138037623Y-90085413D01*
X138037623Y-89995727D01*
G37*
G36*
X138938000Y-89358253D02*
G01*
X138938000Y-89958577D01*
X138892824Y-89954526D01*
X138848795Y-89942372D01*
X138805915Y-89922115D01*
X138782588Y-89907360D01*
X138743309Y-89876296D01*
X138711055Y-89845985D01*
X138676405Y-89809661D01*
X138645700Y-89774798D01*
X138613332Y-89735759D01*
X138599919Y-89718975D01*
X138567057Y-89678288D01*
X138536343Y-89641820D01*
X138502319Y-89603625D01*
X138471387Y-89571505D01*
X138434952Y-89538127D01*
X138426702Y-89531470D01*
X138388975Y-89506924D01*
X138343835Y-89489072D01*
X138300309Y-89481485D01*
X138280083Y-89480692D01*
X138233170Y-89485809D01*
X138190465Y-89503063D01*
X138164238Y-89523996D01*
X138138519Y-89561420D01*
X138125371Y-89604415D01*
X138122033Y-89645775D01*
X138127098Y-89690161D01*
X138144177Y-89733309D01*
X138164898Y-89762060D01*
X138199120Y-89790195D01*
X138242850Y-89808408D01*
X138290854Y-89816355D01*
X138290854Y-89936815D01*
X138246910Y-89930710D01*
X138199998Y-89917532D01*
X138157778Y-89897832D01*
X138120248Y-89871610D01*
X138096314Y-89848888D01*
X138067963Y-89812295D01*
X138046576Y-89770990D01*
X138032152Y-89724972D01*
X138024691Y-89674242D01*
X138023554Y-89643138D01*
X138026074Y-89594539D01*
X138033632Y-89550299D01*
X138048818Y-89504194D01*
X138070862Y-89464022D01*
X138095215Y-89434310D01*
X138133203Y-89402093D01*
X138175724Y-89379081D01*
X138222779Y-89365273D01*
X138267671Y-89360743D01*
X138274367Y-89360671D01*
X138321642Y-89364078D01*
X138366087Y-89374300D01*
X138407701Y-89391336D01*
X138446485Y-89415186D01*
X138481874Y-89444084D01*
X138516645Y-89477041D01*
X138548750Y-89510279D01*
X138583699Y-89548765D01*
X138613706Y-89583333D01*
X138645533Y-89621261D01*
X138653774Y-89631267D01*
X138685500Y-89669183D01*
X138721033Y-89709612D01*
X138751982Y-89742302D01*
X138787612Y-89775068D01*
X138825452Y-89795912D01*
X138825452Y-89358253D01*
X138938000Y-89358253D01*
G37*
G36*
X138726974Y-88773755D02*
G01*
X138938000Y-88773755D01*
X138938000Y-88890479D01*
X138726974Y-88890479D01*
X138726974Y-89277579D01*
X138628495Y-89277579D01*
X138060637Y-88890479D01*
X138208861Y-88890479D01*
X138628495Y-89168769D01*
X138628495Y-88890479D01*
X138208861Y-88890479D01*
X138060637Y-88890479D01*
X138023554Y-88865200D01*
X138023554Y-88773755D01*
X138628495Y-88773755D01*
X138628495Y-88651316D01*
X138726974Y-88651316D01*
X138726974Y-88773755D01*
G37*
X153995955Y-110083609D02*
X153662622Y-110083609D01*
X153662622Y-110607419D02*
X153662622Y-109607419D01*
X153662622Y-109607419D02*
X154138812Y-109607419D01*
X154519765Y-110607419D02*
X154519765Y-109607419D01*
X155472145Y-110607419D02*
X154995955Y-110607419D01*
X154995955Y-110607419D02*
X154995955Y-109607419D01*
X155662622Y-109607419D02*
X156234050Y-109607419D01*
X155948336Y-110607419D02*
X155948336Y-109607419D01*
X156567384Y-110083609D02*
X156900717Y-110083609D01*
X157043574Y-110607419D02*
X156567384Y-110607419D01*
X156567384Y-110607419D02*
X156567384Y-109607419D01*
X156567384Y-109607419D02*
X157043574Y-109607419D01*
X158043574Y-110607419D02*
X157710241Y-110131228D01*
X157472146Y-110607419D02*
X157472146Y-109607419D01*
X157472146Y-109607419D02*
X157853098Y-109607419D01*
X157853098Y-109607419D02*
X157948336Y-109655038D01*
X157948336Y-109655038D02*
X157995955Y-109702657D01*
X157995955Y-109702657D02*
X158043574Y-109797895D01*
X158043574Y-109797895D02*
X158043574Y-109940752D01*
X158043574Y-109940752D02*
X157995955Y-110035990D01*
X157995955Y-110035990D02*
X157948336Y-110083609D01*
X157948336Y-110083609D02*
X157853098Y-110131228D01*
X157853098Y-110131228D02*
X157472146Y-110131228D01*
X164990884Y-110586466D02*
X165752789Y-110586466D01*
X139262419Y-111184687D02*
X138786228Y-111518020D01*
X139262419Y-111756115D02*
X138262419Y-111756115D01*
X138262419Y-111756115D02*
X138262419Y-111375163D01*
X138262419Y-111375163D02*
X138310038Y-111279925D01*
X138310038Y-111279925D02*
X138357657Y-111232306D01*
X138357657Y-111232306D02*
X138452895Y-111184687D01*
X138452895Y-111184687D02*
X138595752Y-111184687D01*
X138595752Y-111184687D02*
X138690990Y-111232306D01*
X138690990Y-111232306D02*
X138738609Y-111279925D01*
X138738609Y-111279925D02*
X138786228Y-111375163D01*
X138786228Y-111375163D02*
X138786228Y-111756115D01*
X138262419Y-110851353D02*
X139262419Y-110184687D01*
X138262419Y-110184687D02*
X139262419Y-110851353D01*
X149539312Y-95882419D02*
X149205979Y-95406228D01*
X148967884Y-95882419D02*
X148967884Y-94882419D01*
X148967884Y-94882419D02*
X149348836Y-94882419D01*
X149348836Y-94882419D02*
X149444074Y-94930038D01*
X149444074Y-94930038D02*
X149491693Y-94977657D01*
X149491693Y-94977657D02*
X149539312Y-95072895D01*
X149539312Y-95072895D02*
X149539312Y-95215752D01*
X149539312Y-95215752D02*
X149491693Y-95310990D01*
X149491693Y-95310990D02*
X149444074Y-95358609D01*
X149444074Y-95358609D02*
X149348836Y-95406228D01*
X149348836Y-95406228D02*
X148967884Y-95406228D01*
X149967884Y-95358609D02*
X150301217Y-95358609D01*
X150444074Y-95882419D02*
X149967884Y-95882419D01*
X149967884Y-95882419D02*
X149967884Y-94882419D01*
X149967884Y-94882419D02*
X150444074Y-94882419D01*
X150825027Y-95834800D02*
X150967884Y-95882419D01*
X150967884Y-95882419D02*
X151205979Y-95882419D01*
X151205979Y-95882419D02*
X151301217Y-95834800D01*
X151301217Y-95834800D02*
X151348836Y-95787180D01*
X151348836Y-95787180D02*
X151396455Y-95691942D01*
X151396455Y-95691942D02*
X151396455Y-95596704D01*
X151396455Y-95596704D02*
X151348836Y-95501466D01*
X151348836Y-95501466D02*
X151301217Y-95453847D01*
X151301217Y-95453847D02*
X151205979Y-95406228D01*
X151205979Y-95406228D02*
X151015503Y-95358609D01*
X151015503Y-95358609D02*
X150920265Y-95310990D01*
X150920265Y-95310990D02*
X150872646Y-95263371D01*
X150872646Y-95263371D02*
X150825027Y-95168133D01*
X150825027Y-95168133D02*
X150825027Y-95072895D01*
X150825027Y-95072895D02*
X150872646Y-94977657D01*
X150872646Y-94977657D02*
X150920265Y-94930038D01*
X150920265Y-94930038D02*
X151015503Y-94882419D01*
X151015503Y-94882419D02*
X151253598Y-94882419D01*
X151253598Y-94882419D02*
X151396455Y-94930038D01*
X151825027Y-95358609D02*
X152158360Y-95358609D01*
X152301217Y-95882419D02*
X151825027Y-95882419D01*
X151825027Y-95882419D02*
X151825027Y-94882419D01*
X151825027Y-94882419D02*
X152301217Y-94882419D01*
X152586932Y-94882419D02*
X153158360Y-94882419D01*
X152872646Y-95882419D02*
X152872646Y-94882419D01*
X164990884Y-107038466D02*
X165752789Y-107038466D01*
X165371836Y-107419419D02*
X165371836Y-106657514D01*
X139167180Y-101407687D02*
X139214800Y-101455306D01*
X139214800Y-101455306D02*
X139262419Y-101598163D01*
X139262419Y-101598163D02*
X139262419Y-101693401D01*
X139262419Y-101693401D02*
X139214800Y-101836258D01*
X139214800Y-101836258D02*
X139119561Y-101931496D01*
X139119561Y-101931496D02*
X139024323Y-101979115D01*
X139024323Y-101979115D02*
X138833847Y-102026734D01*
X138833847Y-102026734D02*
X138690990Y-102026734D01*
X138690990Y-102026734D02*
X138500514Y-101979115D01*
X138500514Y-101979115D02*
X138405276Y-101931496D01*
X138405276Y-101931496D02*
X138310038Y-101836258D01*
X138310038Y-101836258D02*
X138262419Y-101693401D01*
X138262419Y-101693401D02*
X138262419Y-101598163D01*
X138262419Y-101598163D02*
X138310038Y-101455306D01*
X138310038Y-101455306D02*
X138357657Y-101407687D01*
X138976704Y-101026734D02*
X138976704Y-100550544D01*
X139262419Y-101121972D02*
X138262419Y-100788639D01*
X138262419Y-100788639D02*
X139262419Y-100455306D01*
X139262419Y-100121972D02*
X138262419Y-100121972D01*
X138262419Y-100121972D02*
X139262419Y-99550544D01*
X139262419Y-99550544D02*
X138262419Y-99550544D01*
X143710383Y-89654538D02*
X143615145Y-89606919D01*
X143615145Y-89606919D02*
X143472288Y-89606919D01*
X143472288Y-89606919D02*
X143329431Y-89654538D01*
X143329431Y-89654538D02*
X143234193Y-89749776D01*
X143234193Y-89749776D02*
X143186574Y-89845014D01*
X143186574Y-89845014D02*
X143138955Y-90035490D01*
X143138955Y-90035490D02*
X143138955Y-90178347D01*
X143138955Y-90178347D02*
X143186574Y-90368823D01*
X143186574Y-90368823D02*
X143234193Y-90464061D01*
X143234193Y-90464061D02*
X143329431Y-90559300D01*
X143329431Y-90559300D02*
X143472288Y-90606919D01*
X143472288Y-90606919D02*
X143567526Y-90606919D01*
X143567526Y-90606919D02*
X143710383Y-90559300D01*
X143710383Y-90559300D02*
X143758002Y-90511680D01*
X143758002Y-90511680D02*
X143758002Y-90178347D01*
X143758002Y-90178347D02*
X143567526Y-90178347D01*
X144186574Y-90606919D02*
X144186574Y-89606919D01*
X144186574Y-89606919D02*
X144758002Y-90606919D01*
X144758002Y-90606919D02*
X144758002Y-89606919D01*
X145234193Y-90606919D02*
X145234193Y-89606919D01*
X145234193Y-89606919D02*
X145472288Y-89606919D01*
X145472288Y-89606919D02*
X145615145Y-89654538D01*
X145615145Y-89654538D02*
X145710383Y-89749776D01*
X145710383Y-89749776D02*
X145758002Y-89845014D01*
X145758002Y-89845014D02*
X145805621Y-90035490D01*
X145805621Y-90035490D02*
X145805621Y-90178347D01*
X145805621Y-90178347D02*
X145758002Y-90368823D01*
X145758002Y-90368823D02*
X145710383Y-90464061D01*
X145710383Y-90464061D02*
X145615145Y-90559300D01*
X145615145Y-90559300D02*
X145472288Y-90606919D01*
X145472288Y-90606919D02*
X145234193Y-90606919D01*
X138308038Y-105678306D02*
X138260419Y-105773544D01*
X138260419Y-105773544D02*
X138260419Y-105916401D01*
X138260419Y-105916401D02*
X138308038Y-106059258D01*
X138308038Y-106059258D02*
X138403276Y-106154496D01*
X138403276Y-106154496D02*
X138498514Y-106202115D01*
X138498514Y-106202115D02*
X138688990Y-106249734D01*
X138688990Y-106249734D02*
X138831847Y-106249734D01*
X138831847Y-106249734D02*
X139022323Y-106202115D01*
X139022323Y-106202115D02*
X139117561Y-106154496D01*
X139117561Y-106154496D02*
X139212800Y-106059258D01*
X139212800Y-106059258D02*
X139260419Y-105916401D01*
X139260419Y-105916401D02*
X139260419Y-105821163D01*
X139260419Y-105821163D02*
X139212800Y-105678306D01*
X139212800Y-105678306D02*
X139165180Y-105630687D01*
X139165180Y-105630687D02*
X138831847Y-105630687D01*
X138831847Y-105630687D02*
X138831847Y-105821163D01*
X139260419Y-105202115D02*
X138260419Y-105202115D01*
X138260419Y-105202115D02*
X139260419Y-104630687D01*
X139260419Y-104630687D02*
X138260419Y-104630687D01*
X139260419Y-104154496D02*
X138260419Y-104154496D01*
X138260419Y-104154496D02*
X138260419Y-103916401D01*
X138260419Y-103916401D02*
X138308038Y-103773544D01*
X138308038Y-103773544D02*
X138403276Y-103678306D01*
X138403276Y-103678306D02*
X138498514Y-103630687D01*
X138498514Y-103630687D02*
X138688990Y-103583068D01*
X138688990Y-103583068D02*
X138831847Y-103583068D01*
X138831847Y-103583068D02*
X139022323Y-103630687D01*
X139022323Y-103630687D02*
X139117561Y-103678306D01*
X139117561Y-103678306D02*
X139212800Y-103773544D01*
X139212800Y-103773544D02*
X139260419Y-103916401D01*
X139260419Y-103916401D02*
X139260419Y-104154496D01*
D10*
X149805420Y-98144000D02*
X150086580Y-98144000D01*
X149805420Y-99164000D02*
X150086580Y-99164000D01*
X153451000Y-93177420D02*
X153451000Y-93458580D01*
X154471000Y-93177420D02*
X154471000Y-93458580D01*
X160947242Y-109277500D02*
X161421758Y-109277500D01*
X160947242Y-110322500D02*
X161421758Y-110322500D01*
D11*
X149539000Y-89925000D02*
X149539000Y-93775000D01*
X152739000Y-89925000D02*
X152739000Y-93775000D01*
X152039000Y-91850000D02*
G75*
G02*
X150239000Y-91850000I-900000J0D01*
G01*
X150239000Y-91850000D02*
G75*
G02*
X152039000Y-91850000I900000J0D01*
G01*
D10*
X158885500Y-110835000D02*
X158885500Y-113235000D01*
X158885500Y-113235000D02*
X163785500Y-113235000D01*
X163785500Y-110835000D02*
X158885500Y-110835000D01*
X163785500Y-113235000D02*
X163785500Y-110835000D01*
X155195000Y-108335258D02*
X155195000Y-107860742D01*
X156240000Y-108335258D02*
X156240000Y-107860742D01*
X139666500Y-88595000D02*
X149266500Y-88595000D01*
X139666500Y-91795000D02*
X139666500Y-88595000D01*
X149266500Y-88595000D02*
X149266500Y-91795000D01*
X158870500Y-98866000D02*
X158870500Y-96916000D01*
X158870500Y-98866000D02*
X158870500Y-100816000D01*
X163990500Y-98866000D02*
X163990500Y-96916000D01*
X163990500Y-98866000D02*
X163990500Y-100816000D01*
D12*
X162905500Y-97906000D02*
G75*
G02*
X162555500Y-97906000I-175000J0D01*
G01*
X162555500Y-97906000D02*
G75*
G02*
X162905500Y-97906000I175000J0D01*
G01*
D10*
X170090500Y-111050000D02*
X170540500Y-111050000D01*
X170540500Y-106580000D02*
X170090500Y-106580000D01*
X170540500Y-111050000D02*
X170540500Y-106580000D01*
X156688501Y-108337258D02*
X156688501Y-107862742D01*
X157733501Y-108337258D02*
X157733501Y-107862742D01*
X133054500Y-90880000D02*
X133054500Y-100350000D01*
X133054500Y-100350000D02*
X133504500Y-100350000D01*
X133504500Y-90880000D02*
X133054500Y-90880000D01*
X137024500Y-90880000D02*
X137474500Y-90880000D01*
X137024500Y-100350000D02*
X137474500Y-100350000D01*
X137474500Y-90880000D02*
X137474500Y-91830000D01*
X137474500Y-100350000D02*
X137474500Y-99400000D01*
X155089500Y-101594742D02*
X155089500Y-102069258D01*
X156134500Y-101594742D02*
X156134500Y-102069258D01*
D13*
X139791000Y-101165000D02*
X141391000Y-101165000D01*
D12*
X144101000Y-97085000D02*
G75*
G02*
X143751000Y-97085000I-175000J0D01*
G01*
X143751000Y-97085000D02*
G75*
G02*
X144101000Y-97085000I175000J0D01*
G01*
D10*
X153701499Y-108336258D02*
X153701499Y-107861742D01*
X154746499Y-108336258D02*
X154746499Y-107861742D01*
X161421758Y-107777500D02*
X160947242Y-107777500D01*
X161421758Y-108822500D02*
X160947242Y-108822500D01*
D13*
X142322000Y-105754000D02*
X140722000Y-105754000D01*
D10*
X152164500Y-102069258D02*
X152164500Y-101594742D01*
X153209500Y-102069258D02*
X153209500Y-101594742D01*
D14*
G36*
X144828264Y-91905337D02*
G01*
X144846939Y-91944775D01*
X144850396Y-91980455D01*
X144849746Y-92041720D01*
X144847856Y-92119875D01*
X144844931Y-92210638D01*
X144841177Y-92309726D01*
X144836799Y-92412858D01*
X144832003Y-92515750D01*
X144826995Y-92614120D01*
X144821981Y-92703685D01*
X144817165Y-92780163D01*
X144812754Y-92839272D01*
X144808953Y-92876729D01*
X144806842Y-92887598D01*
X144783591Y-92914317D01*
X144749758Y-92917157D01*
X144710817Y-92896185D01*
X144699974Y-92886285D01*
X144687510Y-92872214D01*
X144678238Y-92855527D01*
X144671412Y-92831585D01*
X144666287Y-92795748D01*
X144662115Y-92743377D01*
X144658152Y-92669835D01*
X144655347Y-92608788D01*
X144652331Y-92507402D01*
X144651528Y-92396676D01*
X144652875Y-92288053D01*
X144656306Y-92192980D01*
X144657880Y-92166590D01*
X144663649Y-92086436D01*
X144669040Y-92029760D01*
X144675171Y-91991246D01*
X144683156Y-91965579D01*
X144694113Y-91947444D01*
X144706765Y-91933819D01*
X144754762Y-91898750D01*
X144796400Y-91889625D01*
X144828264Y-91905337D01*
G37*
G36*
X147192396Y-91919752D02*
G01*
X147211071Y-91959191D01*
X147214527Y-91994870D01*
X147213878Y-92056135D01*
X147211987Y-92134290D01*
X147209062Y-92225053D01*
X147205308Y-92324142D01*
X147200931Y-92427273D01*
X147196135Y-92530165D01*
X147191127Y-92628535D01*
X147186112Y-92718100D01*
X147181297Y-92794579D01*
X147176885Y-92853688D01*
X147173084Y-92891145D01*
X147170974Y-92902013D01*
X147147722Y-92928732D01*
X147113889Y-92931572D01*
X147074949Y-92910600D01*
X147064105Y-92900700D01*
X147051642Y-92886630D01*
X147042370Y-92869943D01*
X147035544Y-92846000D01*
X147030419Y-92810163D01*
X147026247Y-92757793D01*
X147022284Y-92684250D01*
X147019479Y-92623203D01*
X147016462Y-92521817D01*
X147015660Y-92411091D01*
X147017007Y-92302469D01*
X147020437Y-92207396D01*
X147022011Y-92181005D01*
X147027780Y-92100852D01*
X147033172Y-92044175D01*
X147039302Y-92005661D01*
X147047288Y-91979995D01*
X147058245Y-91961860D01*
X147070897Y-91948235D01*
X147118894Y-91913165D01*
X147160532Y-91904041D01*
X147192396Y-91919752D01*
G37*
G36*
X145803690Y-91876550D02*
G01*
X145844765Y-91899575D01*
X145877268Y-91931513D01*
X145897728Y-91967102D01*
X145902675Y-92001076D01*
X145888639Y-92028169D01*
X145870248Y-92038724D01*
X145841403Y-92046120D01*
X145792873Y-92055584D01*
X145733561Y-92065429D01*
X145712681Y-92068541D01*
X145587550Y-92086625D01*
X145579425Y-92175377D01*
X145576252Y-92216964D01*
X145572120Y-92281420D01*
X145567372Y-92362813D01*
X145562351Y-92455211D01*
X145557402Y-92552682D01*
X145556462Y-92572035D01*
X145551388Y-92664811D01*
X145545648Y-92748979D01*
X145539651Y-92819862D01*
X145533810Y-92872782D01*
X145528533Y-92903061D01*
X145527037Y-92907194D01*
X145501333Y-92930591D01*
X145465815Y-92929781D01*
X145425647Y-92905193D01*
X145418212Y-92898167D01*
X145381931Y-92861886D01*
X145386433Y-92494167D01*
X145390934Y-92126449D01*
X145347688Y-92135956D01*
X145309307Y-92145998D01*
X145257871Y-92161416D01*
X145225157Y-92172007D01*
X145160157Y-92191144D01*
X145113499Y-92196831D01*
X145077719Y-92188479D01*
X145045355Y-92165499D01*
X145036647Y-92157123D01*
X145002805Y-92111923D01*
X144997191Y-92072055D01*
X145019737Y-92037231D01*
X145046743Y-92022948D01*
X145097161Y-92005011D01*
X145165979Y-91984571D01*
X145248183Y-91962779D01*
X145338757Y-91940789D01*
X145432689Y-91919751D01*
X145524964Y-91900819D01*
X145610569Y-91885145D01*
X145684488Y-91873879D01*
X145741709Y-91868176D01*
X145757513Y-91867706D01*
X145803690Y-91876550D01*
G37*
G36*
X146783940Y-91890966D02*
G01*
X146825015Y-91913990D01*
X146857518Y-91945929D01*
X146877978Y-91981517D01*
X146882925Y-92015491D01*
X146868889Y-92042585D01*
X146850497Y-92053139D01*
X146821652Y-92060536D01*
X146773123Y-92069999D01*
X146713811Y-92079845D01*
X146692931Y-92082957D01*
X146567799Y-92101040D01*
X146559675Y-92189793D01*
X146556502Y-92231379D01*
X146552370Y-92295835D01*
X146547621Y-92377228D01*
X146542601Y-92469627D01*
X146537652Y-92567098D01*
X146536712Y-92586451D01*
X146531638Y-92679226D01*
X146525897Y-92763394D01*
X146519901Y-92834277D01*
X146514059Y-92887197D01*
X146508783Y-92917477D01*
X146507287Y-92921610D01*
X146481583Y-92945006D01*
X146446065Y-92944197D01*
X146405896Y-92919609D01*
X146398462Y-92912582D01*
X146362181Y-92876301D01*
X146366683Y-92508583D01*
X146371184Y-92140864D01*
X146327938Y-92150372D01*
X146289557Y-92160413D01*
X146238121Y-92175831D01*
X146205407Y-92186423D01*
X146140407Y-92205559D01*
X146093749Y-92211246D01*
X146057969Y-92202894D01*
X146025605Y-92179914D01*
X146016897Y-92171539D01*
X145983054Y-92126338D01*
X145977441Y-92086471D01*
X145999987Y-92051646D01*
X146026992Y-92037364D01*
X146077411Y-92019427D01*
X146146229Y-91998986D01*
X146228433Y-91977195D01*
X146319007Y-91955204D01*
X146412939Y-91934167D01*
X146505214Y-91915235D01*
X146590819Y-91899560D01*
X146664738Y-91888295D01*
X146721959Y-91882591D01*
X146737763Y-91882121D01*
X146783940Y-91890966D01*
G37*
G36*
X143302482Y-91907150D02*
G01*
X143370647Y-91948498D01*
X143385217Y-91962302D01*
X143415976Y-92000070D01*
X143439149Y-92044747D01*
X143456432Y-92101872D01*
X143469523Y-92176986D01*
X143479671Y-92270589D01*
X143485664Y-92422380D01*
X143474117Y-92552023D01*
X143444655Y-92660535D01*
X143396905Y-92748928D01*
X143330495Y-92818220D01*
X143262479Y-92861184D01*
X143175835Y-92894942D01*
X143094554Y-92904282D01*
X143010074Y-92889492D01*
X142959494Y-92871319D01*
X142867010Y-92824762D01*
X142785063Y-92767185D01*
X142720597Y-92703963D01*
X142692741Y-92664785D01*
X142663155Y-92588773D01*
X142653188Y-92501094D01*
X142658618Y-92454440D01*
X142862822Y-92454440D01*
X142866423Y-92530181D01*
X142897377Y-92598140D01*
X142935337Y-92640782D01*
X143005684Y-92690442D01*
X143077157Y-92714395D01*
X143146309Y-92711992D01*
X143198086Y-92690381D01*
X143244412Y-92652648D01*
X143276144Y-92603259D01*
X143295643Y-92536844D01*
X143305270Y-92448034D01*
X143305353Y-92446484D01*
X143304953Y-92334941D01*
X143291618Y-92241636D01*
X143265980Y-92169657D01*
X143241340Y-92133925D01*
X143213364Y-92108825D01*
X143184605Y-92100101D01*
X143144778Y-92102744D01*
X143106900Y-92111463D01*
X143073466Y-92130014D01*
X143035795Y-92163951D01*
X143015245Y-92185616D01*
X142937322Y-92281650D01*
X142886485Y-92371427D01*
X142862822Y-92454440D01*
X142658618Y-92454440D01*
X142663574Y-92411864D01*
X142672199Y-92382009D01*
X142695160Y-92334523D01*
X142734494Y-92273425D01*
X142785565Y-92204229D01*
X142843739Y-92132451D01*
X142904380Y-92063604D01*
X142962852Y-92003203D01*
X143014521Y-91956762D01*
X143050558Y-91931887D01*
X143138272Y-91898466D01*
X143223635Y-91890346D01*
X143302482Y-91907150D01*
G37*
G36*
X140172679Y-91891734D02*
G01*
X140221004Y-91932504D01*
X140221237Y-91932770D01*
X140241659Y-91956792D01*
X140259309Y-91980370D01*
X140276137Y-92007504D01*
X140294093Y-92042196D01*
X140315127Y-92088447D01*
X140341191Y-92150260D01*
X140374235Y-92231635D01*
X140407852Y-92315627D01*
X140469028Y-92470846D01*
X140518268Y-92600046D01*
X140555641Y-92703422D01*
X140581214Y-92781165D01*
X140595055Y-92833471D01*
X140597802Y-92854769D01*
X140587261Y-92888482D01*
X140557882Y-92902467D01*
X140513030Y-92895387D01*
X140504101Y-92891989D01*
X140463142Y-92864847D01*
X140427848Y-92817241D01*
X140398523Y-92754255D01*
X140369995Y-92682178D01*
X140292894Y-92683858D01*
X140221586Y-92692953D01*
X140130163Y-92716800D01*
X140022502Y-92754157D01*
X139902477Y-92803785D01*
X139864202Y-92821081D01*
X139807076Y-92845867D01*
X139756717Y-92864982D01*
X139720947Y-92875567D01*
X139711749Y-92876786D01*
X139675631Y-92864449D01*
X139641543Y-92833989D01*
X139618591Y-92795230D01*
X139613948Y-92771276D01*
X139620540Y-92741032D01*
X139638947Y-92689706D01*
X139667117Y-92621493D01*
X139673758Y-92606519D01*
X139904852Y-92606519D01*
X139937791Y-92596588D01*
X139965354Y-92589751D01*
X140013634Y-92579169D01*
X140075026Y-92566472D01*
X140122092Y-92557126D01*
X140186081Y-92544497D01*
X140240313Y-92533524D01*
X140278038Y-92525590D01*
X140291431Y-92522466D01*
X140297051Y-92510921D01*
X140292444Y-92480463D01*
X140277006Y-92428349D01*
X140259861Y-92378711D01*
X140227438Y-92292436D01*
X140200477Y-92231348D01*
X140177433Y-92192666D01*
X140156760Y-92173610D01*
X140144117Y-92170430D01*
X140117974Y-92183828D01*
X140085167Y-92222314D01*
X140047191Y-92283321D01*
X140005543Y-92364286D01*
X139961719Y-92462643D01*
X139934968Y-92529025D01*
X139904852Y-92606519D01*
X139673758Y-92606519D01*
X139702997Y-92540586D01*
X139744535Y-92451180D01*
X139789677Y-92357469D01*
X139836372Y-92263648D01*
X139882566Y-92173910D01*
X139926207Y-92092451D01*
X139965242Y-92023464D01*
X139997618Y-91971144D01*
X140020514Y-91940508D01*
X140073459Y-91895696D01*
X140123839Y-91879451D01*
X140172679Y-91891734D01*
G37*
G36*
X149042060Y-91922651D02*
G01*
X149103001Y-91954418D01*
X149145786Y-92000181D01*
X149163905Y-92044246D01*
X149173506Y-92096834D01*
X149173962Y-92147616D01*
X149164647Y-92186265D01*
X149157688Y-92196378D01*
X149123417Y-92214079D01*
X149086751Y-92205500D01*
X149052843Y-92172186D01*
X149047158Y-92163222D01*
X149017132Y-92125436D01*
X148984846Y-92112804D01*
X148982801Y-92112768D01*
X148944026Y-92120168D01*
X148893474Y-92140188D01*
X148836058Y-92169562D01*
X148776691Y-92205019D01*
X148720285Y-92243294D01*
X148671754Y-92281116D01*
X148636010Y-92315219D01*
X148617966Y-92342334D01*
X148618365Y-92355197D01*
X148633361Y-92362082D01*
X148669956Y-92367088D01*
X148730148Y-92370346D01*
X148815935Y-92371985D01*
X148880784Y-92372246D01*
X148986231Y-92373006D01*
X149067287Y-92375866D01*
X149128365Y-92381693D01*
X149173878Y-92391357D01*
X149208238Y-92405726D01*
X149235860Y-92425668D01*
X149255940Y-92446069D01*
X149291250Y-92504758D01*
X149299051Y-92569006D01*
X149279706Y-92636989D01*
X149233577Y-92706884D01*
X149196512Y-92745865D01*
X149088005Y-92828947D01*
X148963992Y-92888455D01*
X148826667Y-92923570D01*
X148692069Y-92933640D01*
X148618076Y-92930610D01*
X148564222Y-92921303D01*
X148524846Y-92905742D01*
X148463605Y-92858437D01*
X148425189Y-92794484D01*
X148416292Y-92762852D01*
X148415192Y-92735163D01*
X148427301Y-92717619D01*
X148455949Y-92709585D01*
X148504463Y-92710427D01*
X148576173Y-92719510D01*
X148612726Y-92725414D01*
X148721311Y-92738532D01*
X148810555Y-92736921D01*
X148886405Y-92719703D01*
X148954805Y-92686001D01*
X148975720Y-92671859D01*
X149021717Y-92636984D01*
X149045019Y-92613311D01*
X149047682Y-92597254D01*
X149031760Y-92585229D01*
X149026640Y-92583038D01*
X149002507Y-92578691D01*
X148954512Y-92574310D01*
X148887624Y-92570122D01*
X148806809Y-92566353D01*
X148717037Y-92563230D01*
X148623274Y-92560979D01*
X148530489Y-92559826D01*
X148515708Y-92559757D01*
X148484618Y-92550380D01*
X148447795Y-92527257D01*
X148439137Y-92520004D01*
X148398836Y-92466233D01*
X148384217Y-92401791D01*
X148395704Y-92329907D01*
X148409763Y-92295450D01*
X148454837Y-92225008D01*
X148519904Y-92153337D01*
X148599262Y-92084327D01*
X148687207Y-92021872D01*
X148778034Y-91969863D01*
X148866040Y-91932193D01*
X148945521Y-91912752D01*
X148973273Y-91910952D01*
X149042060Y-91922651D01*
G37*
G36*
X141386331Y-91860357D02*
G01*
X141423202Y-91875193D01*
X141433855Y-91882091D01*
X141466800Y-91915150D01*
X141489230Y-91955473D01*
X141496756Y-91993262D01*
X141491810Y-92011453D01*
X141473417Y-92021318D01*
X141433342Y-92032770D01*
X141378535Y-92044010D01*
X141345524Y-92049320D01*
X141215644Y-92071752D01*
X141097907Y-92098909D01*
X140999200Y-92129107D01*
X140964949Y-92142345D01*
X140906841Y-92166698D01*
X140888604Y-92292834D01*
X140881257Y-92349905D01*
X140877105Y-92395358D01*
X140876705Y-92422274D01*
X140877846Y-92426448D01*
X140894588Y-92426837D01*
X140930465Y-92420256D01*
X140968606Y-92410593D01*
X141032838Y-92394005D01*
X141109938Y-92376252D01*
X141193318Y-92358611D01*
X141276391Y-92342361D01*
X141352568Y-92328778D01*
X141415262Y-92319141D01*
X141457884Y-92314728D01*
X141463604Y-92314584D01*
X141514415Y-92324461D01*
X141560603Y-92350016D01*
X141594110Y-92385135D01*
X141606882Y-92423328D01*
X141601882Y-92446982D01*
X141581638Y-92459738D01*
X141552824Y-92465693D01*
X141472776Y-92479777D01*
X141384075Y-92498490D01*
X141291148Y-92520560D01*
X141198420Y-92544715D01*
X141110317Y-92569682D01*
X141031264Y-92594191D01*
X140965689Y-92616969D01*
X140918016Y-92636744D01*
X140892672Y-92652244D01*
X140889969Y-92656186D01*
X140896915Y-92676638D01*
X140925397Y-92699049D01*
X140968743Y-92719440D01*
X141020041Y-92733782D01*
X141070635Y-92737452D01*
X141137608Y-92731418D01*
X141216358Y-92717323D01*
X141306319Y-92700259D01*
X141373286Y-92691549D01*
X141421883Y-92691268D01*
X141456733Y-92699493D01*
X141482459Y-92716300D01*
X141487977Y-92721820D01*
X141513427Y-92757884D01*
X141527171Y-92790294D01*
X141530845Y-92819639D01*
X141522983Y-92842051D01*
X141500061Y-92859306D01*
X141458555Y-92873181D01*
X141394942Y-92885455D01*
X141316600Y-92896508D01*
X141206234Y-92909533D01*
X141119328Y-92916692D01*
X141051119Y-92918021D01*
X140996848Y-92913559D01*
X140951753Y-92903343D01*
X140940299Y-92899520D01*
X140858462Y-92860931D01*
X140795027Y-92808716D01*
X140748611Y-92740240D01*
X140717829Y-92652864D01*
X140701295Y-92543949D01*
X140697397Y-92436819D01*
X140700113Y-92355203D01*
X140707400Y-92268264D01*
X140718296Y-92181737D01*
X140731843Y-92101360D01*
X140747080Y-92032866D01*
X140763046Y-91981993D01*
X140778024Y-91955198D01*
X140810946Y-91939412D01*
X140861147Y-91934997D01*
X140899366Y-91932335D01*
X140957343Y-91923658D01*
X141026968Y-91910350D01*
X141094773Y-91895104D01*
X141197721Y-91871979D01*
X141277814Y-91858587D01*
X141339276Y-91854767D01*
X141386331Y-91860357D01*
G37*
G36*
X148075094Y-91889188D02*
G01*
X148111965Y-91904024D01*
X148122618Y-91910922D01*
X148155563Y-91943981D01*
X148177993Y-91984304D01*
X148185519Y-92022093D01*
X148180573Y-92040284D01*
X148162180Y-92050149D01*
X148122105Y-92061601D01*
X148067298Y-92072841D01*
X148034287Y-92078151D01*
X147904407Y-92100583D01*
X147786670Y-92127739D01*
X147687963Y-92157938D01*
X147653712Y-92171176D01*
X147595604Y-92195529D01*
X147577366Y-92321664D01*
X147570020Y-92378736D01*
X147565868Y-92424189D01*
X147565468Y-92451105D01*
X147566608Y-92455279D01*
X147583351Y-92455668D01*
X147619228Y-92449087D01*
X147657369Y-92439424D01*
X147721601Y-92422836D01*
X147798700Y-92405083D01*
X147882081Y-92387442D01*
X147965153Y-92371192D01*
X148041331Y-92357609D01*
X148104024Y-92347972D01*
X148146647Y-92343559D01*
X148152367Y-92343415D01*
X148203178Y-92353292D01*
X148249365Y-92378847D01*
X148282872Y-92413966D01*
X148295645Y-92452159D01*
X148290645Y-92475813D01*
X148270401Y-92488569D01*
X148241587Y-92494524D01*
X148161539Y-92508608D01*
X148072838Y-92527321D01*
X147979910Y-92549391D01*
X147887182Y-92573545D01*
X147799079Y-92598513D01*
X147720027Y-92623022D01*
X147654452Y-92645800D01*
X147606779Y-92665575D01*
X147581435Y-92681075D01*
X147578732Y-92685017D01*
X147585677Y-92705468D01*
X147614160Y-92727880D01*
X147657506Y-92748271D01*
X147708804Y-92762613D01*
X147759398Y-92766283D01*
X147826370Y-92760249D01*
X147905121Y-92746154D01*
X147995082Y-92729090D01*
X148062049Y-92720380D01*
X148110646Y-92720098D01*
X148145496Y-92728324D01*
X148171222Y-92745131D01*
X148176740Y-92750651D01*
X148202190Y-92786715D01*
X148215934Y-92819124D01*
X148219608Y-92848470D01*
X148211746Y-92870882D01*
X148188824Y-92888136D01*
X148147318Y-92902012D01*
X148083705Y-92914286D01*
X148005363Y-92925339D01*
X147894997Y-92938364D01*
X147808091Y-92945523D01*
X147739882Y-92946852D01*
X147685611Y-92942390D01*
X147640516Y-92932174D01*
X147629062Y-92928351D01*
X147547225Y-92889761D01*
X147483790Y-92837547D01*
X147437374Y-92769071D01*
X147406591Y-92681694D01*
X147390057Y-92572780D01*
X147386160Y-92465650D01*
X147388876Y-92384034D01*
X147396162Y-92297095D01*
X147407059Y-92210568D01*
X147420606Y-92130190D01*
X147435842Y-92061697D01*
X147451809Y-92010823D01*
X147466787Y-91984029D01*
X147499709Y-91968243D01*
X147549910Y-91963828D01*
X147588129Y-91961166D01*
X147646106Y-91952489D01*
X147715731Y-91939181D01*
X147783535Y-91923935D01*
X147886484Y-91900810D01*
X147966577Y-91887418D01*
X148028039Y-91883598D01*
X148075094Y-91889188D01*
G37*
G36*
X144365491Y-91859374D02*
G01*
X144388125Y-91882704D01*
X144398069Y-91901431D01*
X144406947Y-91921124D01*
X144412216Y-91939322D01*
X144412294Y-91958594D01*
X144405604Y-91981508D01*
X144390563Y-92010634D01*
X144365593Y-92048540D01*
X144329113Y-92097796D01*
X144279544Y-92160970D01*
X144215304Y-92240631D01*
X144134815Y-92339349D01*
X144110206Y-92369463D01*
X144059306Y-92432334D01*
X144015912Y-92487060D01*
X143982874Y-92529957D01*
X143963040Y-92557338D01*
X143958621Y-92565621D01*
X143977594Y-92575391D01*
X144017681Y-92592473D01*
X144072816Y-92614553D01*
X144136936Y-92639319D01*
X144203977Y-92664456D01*
X144267876Y-92687651D01*
X144322568Y-92706590D01*
X144356134Y-92717276D01*
X144425415Y-92741822D01*
X144470257Y-92769384D01*
X144495021Y-92804293D01*
X144504068Y-92850882D01*
X144504385Y-92864521D01*
X144500132Y-92901115D01*
X144484372Y-92920441D01*
X144452608Y-92924119D01*
X144400340Y-92913774D01*
X144381854Y-92908709D01*
X144348491Y-92897786D01*
X144293648Y-92878192D01*
X144222621Y-92851939D01*
X144140708Y-92821041D01*
X144053206Y-92787512D01*
X143965412Y-92753363D01*
X143882624Y-92720609D01*
X143816048Y-92693690D01*
X143805156Y-92698042D01*
X143798932Y-92724480D01*
X143796592Y-92770732D01*
X143793184Y-92842400D01*
X143784794Y-92889895D01*
X143769813Y-92917677D01*
X143746638Y-92930205D01*
X143738676Y-92931562D01*
X143700184Y-92925600D01*
X143667169Y-92907627D01*
X143655971Y-92897950D01*
X143647409Y-92886882D01*
X143641060Y-92870639D01*
X143636503Y-92845439D01*
X143633316Y-92807499D01*
X143631079Y-92753037D01*
X143629368Y-92678270D01*
X143627764Y-92579415D01*
X143627324Y-92550127D01*
X143626316Y-92446769D01*
X143626298Y-92345082D01*
X143627200Y-92251348D01*
X143628950Y-92171853D01*
X143631477Y-92112880D01*
X143632440Y-92099335D01*
X143638550Y-92037472D01*
X143646197Y-91996367D01*
X143657932Y-91967964D01*
X143676303Y-91944207D01*
X143684079Y-91936191D01*
X143726101Y-91906148D01*
X143766046Y-91897988D01*
X143797856Y-91911543D01*
X143813909Y-91939783D01*
X143816885Y-91966617D01*
X143818450Y-92016108D01*
X143818550Y-92082114D01*
X143817133Y-92158493D01*
X143816078Y-92192053D01*
X143813865Y-92266564D01*
X143812818Y-92329010D01*
X143812951Y-92374634D01*
X143814278Y-92398678D01*
X143815442Y-92401077D01*
X143827269Y-92387729D01*
X143856446Y-92354296D01*
X143901471Y-92302507D01*
X143960843Y-92234093D01*
X144033061Y-92150782D01*
X144116625Y-92054304D01*
X144210033Y-91946389D01*
X144212631Y-91943387D01*
X144255506Y-91896298D01*
X144287313Y-91868455D01*
X144313706Y-91855620D01*
X144332852Y-91853290D01*
X144365491Y-91859374D01*
G37*
G36*
X142400328Y-91872209D02*
G01*
X142488159Y-91893329D01*
X142556865Y-91926588D01*
X142604213Y-91971564D01*
X142627971Y-92027835D01*
X142630378Y-92055173D01*
X142626321Y-92096712D01*
X142612607Y-92137558D01*
X142586921Y-92180391D01*
X142546949Y-92227889D01*
X142490376Y-92282732D01*
X142414888Y-92347598D01*
X142318169Y-92425167D01*
X142295219Y-92443107D01*
X142238711Y-92487763D01*
X142191510Y-92526272D01*
X142157759Y-92555162D01*
X142141605Y-92570957D01*
X142140798Y-92572550D01*
X142153221Y-92581870D01*
X142186523Y-92600546D01*
X142235449Y-92625759D01*
X142287601Y-92651282D01*
X142383328Y-92700841D01*
X142451967Y-92745153D01*
X142494599Y-92785111D01*
X142512307Y-92821608D01*
X142512466Y-92836903D01*
X142502272Y-92862207D01*
X142478991Y-92872122D01*
X142439474Y-92866505D01*
X142380570Y-92845212D01*
X142344213Y-92829258D01*
X142279384Y-92801674D01*
X142206646Y-92773808D01*
X142132684Y-92747881D01*
X142064184Y-92726113D01*
X142007829Y-92710726D01*
X141970306Y-92703940D01*
X141966524Y-92703801D01*
X141950337Y-92707418D01*
X141941862Y-92722768D01*
X141938735Y-92756602D01*
X141938437Y-92784034D01*
X141935820Y-92834170D01*
X141929112Y-92875801D01*
X141923515Y-92892149D01*
X141897049Y-92914682D01*
X141858601Y-92918386D01*
X141818808Y-92902305D01*
X141817869Y-92901627D01*
X141801785Y-92884375D01*
X141789215Y-92856797D01*
X141779778Y-92815755D01*
X141773096Y-92758107D01*
X141768790Y-92680712D01*
X141766479Y-92580430D01*
X141765796Y-92470293D01*
X141765664Y-92355694D01*
X141938822Y-92355694D01*
X141940042Y-92399450D01*
X141943395Y-92425609D01*
X141946219Y-92429908D01*
X141962616Y-92423955D01*
X141995335Y-92408858D01*
X142014693Y-92399290D01*
X142057616Y-92375061D01*
X142115477Y-92338943D01*
X142181514Y-92295542D01*
X142248964Y-92249464D01*
X142311068Y-92205315D01*
X142361064Y-92167699D01*
X142388920Y-92144369D01*
X142421202Y-92104031D01*
X142426770Y-92070493D01*
X142407315Y-92045619D01*
X142364529Y-92031275D01*
X142300102Y-92029324D01*
X142285623Y-92030502D01*
X142233245Y-92038755D01*
X142166189Y-92053688D01*
X142096979Y-92072434D01*
X142080776Y-92077390D01*
X141956429Y-92116482D01*
X141947558Y-92190306D01*
X141942620Y-92243974D01*
X141939695Y-92301486D01*
X141938822Y-92355694D01*
X141765664Y-92355694D01*
X141765452Y-92171915D01*
X141729066Y-92132654D01*
X141694334Y-92082989D01*
X141680227Y-92034355D01*
X141684243Y-92004468D01*
X141693990Y-91990143D01*
X141714301Y-91976534D01*
X141749321Y-91961992D01*
X141803195Y-91944865D01*
X141880068Y-91923501D01*
X141902399Y-91917560D01*
X142044407Y-91885904D01*
X142176220Y-91868075D01*
X142295605Y-91863651D01*
X142400328Y-91872209D01*
G37*
D10*
X144884500Y-109890000D02*
X144884500Y-108620000D01*
X144884500Y-113446000D02*
X144884500Y-112430000D01*
X145646500Y-113446000D02*
X144884500Y-113446000D01*
X146916500Y-107096000D02*
X145646500Y-107096000D01*
X146916500Y-113446000D02*
X150472500Y-113446000D01*
X151742500Y-107096000D02*
X150472500Y-107096000D01*
X152504500Y-109890000D02*
X152504500Y-108620000D01*
X152504500Y-113446000D02*
X151742500Y-113446000D01*
X152504500Y-113446000D02*
X152504500Y-112430000D01*
X149667420Y-96681000D02*
X149948580Y-96681000D01*
X149667420Y-97701000D02*
X149948580Y-97701000D01*
X166120500Y-90880000D02*
X166120500Y-91830000D01*
X166120500Y-100350000D02*
X166120500Y-99400000D01*
X166570500Y-90880000D02*
X166120500Y-90880000D01*
X166570500Y-100350000D02*
X166120500Y-100350000D01*
X170090500Y-100350000D02*
X170540500Y-100350000D01*
X170540500Y-90880000D02*
X170090500Y-90880000D01*
X170540500Y-100350000D02*
X170540500Y-90880000D01*
X150871258Y-105421500D02*
X150396742Y-105421500D01*
X150871258Y-106466500D02*
X150396742Y-106466500D01*
X153343500Y-110835000D02*
X153343500Y-113235000D01*
X153343500Y-113235000D02*
X158243500Y-113235000D01*
X158243500Y-110835000D02*
X153343500Y-110835000D01*
X158243500Y-113235000D02*
X158243500Y-110835000D01*
X162887500Y-108909420D02*
X162887500Y-109190580D01*
X163907500Y-108909420D02*
X163907500Y-109190580D01*
X157473500Y-99481258D02*
X157473500Y-99006742D01*
X158518500Y-99481258D02*
X158518500Y-99006742D01*
X157486000Y-96421580D02*
X157486000Y-96140420D01*
X158506000Y-96421580D02*
X158506000Y-96140420D01*
X133054500Y-105325000D02*
X133054500Y-111045000D01*
X133054500Y-111045000D02*
X133504500Y-111045000D01*
X133504500Y-105325000D02*
X133054500Y-105325000D01*
X137024500Y-105325000D02*
X137474500Y-105325000D01*
X137024500Y-111045000D02*
X137474500Y-111045000D01*
X137474500Y-105325000D02*
X137474500Y-106275000D01*
X137474500Y-111045000D02*
X137474500Y-110095000D01*
X162746258Y-93763500D02*
X162271742Y-93763500D01*
X162746258Y-94808500D02*
X162271742Y-94808500D01*
X147811580Y-105434000D02*
X147530420Y-105434000D01*
X147811580Y-106454000D02*
X147530420Y-106454000D01*
X158959500Y-106937000D02*
X158959500Y-103197000D01*
X159339500Y-106937000D02*
X158959500Y-106937000D01*
X160239500Y-103197000D02*
X158959500Y-103197000D01*
X161839500Y-106937000D02*
X161119500Y-106937000D01*
X163999500Y-103197000D02*
X162719500Y-103197000D01*
X163999500Y-106937000D02*
X163619500Y-106937000D01*
X163999500Y-106937000D02*
X163999500Y-103197000D01*
X154164000Y-104963000D02*
X154164000Y-103873000D01*
X154164000Y-104963000D02*
X156207000Y-104963000D01*
X154461000Y-104263000D02*
X155241000Y-104263000D01*
X154851000Y-104653000D02*
X154851000Y-103873000D01*
X153626500Y-102069258D02*
X153626500Y-101594742D01*
X154671500Y-102069258D02*
X154671500Y-101594742D01*
X147087000Y-95755580D02*
X147087000Y-95474420D01*
X148107000Y-95755580D02*
X148107000Y-95474420D01*
X157473500Y-102442258D02*
X157473500Y-101967742D01*
X158518500Y-102442258D02*
X158518500Y-101967742D01*
X144580000Y-99628000D02*
X144580000Y-99888000D01*
X144580000Y-105078000D02*
X144580000Y-104818000D01*
X147305000Y-99628000D02*
X144580000Y-99628000D01*
X147305000Y-99628000D02*
X150030000Y-99628000D01*
X147305000Y-105078000D02*
X144580000Y-105078000D01*
X147305000Y-105078000D02*
X150030000Y-105078000D01*
X150030000Y-99628000D02*
X150030000Y-99888000D01*
X150030000Y-105078000D02*
X150030000Y-104818000D01*
D12*
X145590000Y-100433000D02*
G75*
G02*
X145240000Y-100433000I-175000J0D01*
G01*
X145240000Y-100433000D02*
G75*
G02*
X145590000Y-100433000I175000J0D01*
G01*
D10*
X158462500Y-109190580D02*
X158462500Y-108909420D01*
X159482500Y-109190580D02*
X159482500Y-108909420D01*
X153974500Y-91095000D02*
X153974500Y-88695000D01*
X157037000Y-91095000D02*
X158874500Y-91095000D01*
X158874500Y-88695000D02*
X153974500Y-88695000D01*
X158874500Y-91095000D02*
X158874500Y-88695000D01*
%LPC*%
D15*
X149171000Y-98654000D03*
X150721000Y-98654000D03*
D16*
X153961000Y-92543000D03*
X153961000Y-94093000D03*
D17*
X160359500Y-109800000D03*
X162009500Y-109800000D03*
D18*
X151139000Y-89625000D03*
X151139000Y-94075000D03*
D19*
X160085500Y-112035000D03*
X162625500Y-112035000D03*
D20*
X155717500Y-108923000D03*
X155717500Y-107273000D03*
D21*
X141266500Y-90195000D03*
X147646500Y-90195000D03*
D22*
X160023500Y-90845000D03*
X160506774Y-89678274D03*
X160506774Y-92011726D03*
X161673500Y-89195000D03*
D23*
X161673500Y-90845000D03*
D22*
X161673500Y-92495000D03*
X162840226Y-89678274D03*
X162840226Y-92011726D03*
X163323500Y-90845000D03*
D24*
X163335500Y-96291000D03*
X162065500Y-96291000D03*
X160795500Y-96291000D03*
X159525500Y-96291000D03*
X159525500Y-101441000D03*
X160795500Y-101441000D03*
X162065500Y-101441000D03*
X163335500Y-101441000D03*
D25*
X165430500Y-109440000D03*
X165430500Y-108190000D03*
D26*
X168330500Y-111990000D03*
X168330500Y-105640000D03*
D22*
X140274500Y-111085000D03*
X140757774Y-109918274D03*
X140757774Y-112251726D03*
X141924500Y-109435000D03*
D23*
X141924500Y-111085000D03*
D22*
X141924500Y-112735000D03*
X143091226Y-109918274D03*
X143091226Y-112251726D03*
X143574500Y-111085000D03*
D20*
X157211001Y-108925000D03*
X157211001Y-107275000D03*
D27*
X138164500Y-92490000D03*
X138164500Y-93740000D03*
X138164500Y-94990000D03*
X138164500Y-96240000D03*
X138164500Y-97490000D03*
X138164500Y-98740000D03*
D28*
X135264500Y-89940000D03*
X135264500Y-101290000D03*
D29*
X155612000Y-101007000D03*
X155612000Y-102657000D03*
D30*
X140591000Y-101995000D03*
X140591000Y-99195000D03*
D31*
X145641000Y-97520000D03*
X145641000Y-96250000D03*
X145641000Y-94980000D03*
X145641000Y-93710000D03*
X140691000Y-93710000D03*
X140691000Y-94980000D03*
X140691000Y-96250000D03*
X140691000Y-97520000D03*
D20*
X154223999Y-108924000D03*
X154223999Y-107274000D03*
D32*
X162009500Y-108300000D03*
X160359500Y-108300000D03*
D33*
X141522000Y-104924000D03*
X141522000Y-107724000D03*
D20*
X152687000Y-102657000D03*
X152687000Y-101007000D03*
D34*
X156365000Y-98802500D03*
D35*
X156277500Y-97302500D03*
D34*
X156365000Y-95802500D03*
D36*
X150694500Y-109010000D03*
X146694500Y-109010000D03*
D37*
X147394500Y-107910000D03*
X148044500Y-107910000D03*
X148694500Y-107910000D03*
X149344500Y-107910000D03*
X149994500Y-107910000D03*
D38*
X152294500Y-111160000D03*
D39*
X152294500Y-107710000D03*
D38*
X145094500Y-111160000D03*
D39*
X145094500Y-107710000D03*
D15*
X149033000Y-97191000D03*
X150583000Y-97191000D03*
D25*
X165430500Y-98740000D03*
X165430500Y-97490000D03*
X165430500Y-96240000D03*
X165430500Y-94990000D03*
X165430500Y-93740000D03*
X165430500Y-92490000D03*
D26*
X168330500Y-101290000D03*
X168330500Y-89940000D03*
D32*
X151459000Y-105944000D03*
X149809000Y-105944000D03*
D19*
X154543500Y-112035000D03*
X157083500Y-112035000D03*
D16*
X163397500Y-108275000D03*
X163397500Y-109825000D03*
D20*
X157996000Y-100069000D03*
X157996000Y-98419000D03*
D40*
X157996000Y-97056000D03*
X157996000Y-95506000D03*
D41*
X158299500Y-94046500D03*
X158299500Y-92146500D03*
X156424500Y-93096500D03*
D27*
X138164500Y-106935000D03*
X138164500Y-108185000D03*
X138164500Y-109435000D03*
D28*
X135264500Y-104385000D03*
X135264500Y-111985000D03*
D32*
X163334000Y-94286000D03*
X161684000Y-94286000D03*
D42*
X148446000Y-105944000D03*
X146896000Y-105944000D03*
D43*
X160229500Y-106517000D03*
D44*
X161479500Y-103617000D03*
D43*
X162729500Y-106517000D03*
D45*
X153117000Y-104263000D03*
X156217000Y-104263000D03*
X156217000Y-105663000D03*
X153117000Y-105663000D03*
D20*
X154149000Y-102657000D03*
X154149000Y-101007000D03*
D40*
X147597000Y-96390000D03*
X147597000Y-94840000D03*
D20*
X157996000Y-103030000D03*
X157996000Y-101380000D03*
D46*
X143705000Y-100448000D03*
X143705000Y-101718000D03*
X143705000Y-102988000D03*
X143705000Y-104258000D03*
X150905000Y-104258000D03*
X150905000Y-102988000D03*
X150905000Y-101718000D03*
X150905000Y-100448000D03*
D40*
X158972500Y-109825000D03*
X158972500Y-108275000D03*
D19*
X155174500Y-89895000D03*
X157714500Y-89895000D03*
D47*
X133872000Y-99218000D03*
X133872000Y-92032000D03*
X133872000Y-95967000D03*
D48*
X136364500Y-109685000D03*
X136364500Y-106685000D03*
%LPD*%
M02*
