G04 #@! TF.GenerationSoftware,KiCad,Pcbnew,8.0.1*
G04 #@! TF.CreationDate,2024-03-31T17:13:02+03:00*
G04 #@! TF.ProjectId,Piezo module,5069657a-6f20-46d6-9f64-756c652e6b69,rev?*
G04 #@! TF.SameCoordinates,Original*
G04 #@! TF.FileFunction,Copper,L1,Top*
G04 #@! TF.FilePolarity,Positive*
%FSLAX46Y46*%
G04 Gerber Fmt 4.6, Leading zero omitted, Abs format (unit mm)*
G04 Created by KiCad (PCBNEW 8.0.1) date 2024-03-31 17:13:02*
%MOMM*%
%LPD*%
G01*
G04 APERTURE LIST*
G04 Aperture macros list*
%AMRoundRect*
0 Rectangle with rounded corners*
0 $1 Rounding radius*
0 $2 $3 $4 $5 $6 $7 $8 $9 X,Y pos of 4 corners*
0 Add a 4 corners polygon primitive as box body*
4,1,4,$2,$3,$4,$5,$6,$7,$8,$9,$2,$3,0*
0 Add four circle primitives for the rounded corners*
1,1,$1+$1,$2,$3*
1,1,$1+$1,$4,$5*
1,1,$1+$1,$6,$7*
1,1,$1+$1,$8,$9*
0 Add four rect primitives between the rounded corners*
20,1,$1+$1,$2,$3,$4,$5,0*
20,1,$1+$1,$4,$5,$6,$7,0*
20,1,$1+$1,$6,$7,$8,$9,0*
20,1,$1+$1,$8,$9,$2,$3,0*%
%AMFreePoly0*
4,1,9,3.862500,-0.866500,0.737500,-0.866500,0.737500,-0.450000,-0.737500,-0.450000,-0.737500,0.450000,0.737500,0.450000,0.737500,0.866500,3.862500,0.866500,3.862500,-0.866500,3.862500,-0.866500,$1*%
G04 Aperture macros list end*
G04 #@! TA.AperFunction,SMDPad,CuDef*
%ADD10RoundRect,0.225000X-0.225000X-0.250000X0.225000X-0.250000X0.225000X0.250000X-0.225000X0.250000X0*%
G04 #@! TD*
G04 #@! TA.AperFunction,SMDPad,CuDef*
%ADD11RoundRect,0.225000X-0.250000X0.225000X-0.250000X-0.225000X0.250000X-0.225000X0.250000X0.225000X0*%
G04 #@! TD*
G04 #@! TA.AperFunction,SMDPad,CuDef*
%ADD12RoundRect,0.200000X-0.200000X-0.275000X0.200000X-0.275000X0.200000X0.275000X-0.200000X0.275000X0*%
G04 #@! TD*
G04 #@! TA.AperFunction,SMDPad,CuDef*
%ADD13RoundRect,0.250000X-0.750000X-0.250000X0.750000X-0.250000X0.750000X0.250000X-0.750000X0.250000X0*%
G04 #@! TD*
G04 #@! TA.AperFunction,ComponentPad*
%ADD14C,2.000000*%
G04 #@! TD*
G04 #@! TA.AperFunction,SMDPad,CuDef*
%ADD15RoundRect,0.200000X0.275000X-0.200000X0.275000X0.200000X-0.275000X0.200000X-0.275000X-0.200000X0*%
G04 #@! TD*
G04 #@! TA.AperFunction,ComponentPad*
%ADD16C,2.600000*%
G04 #@! TD*
G04 #@! TA.AperFunction,ComponentPad*
%ADD17C,0.700000*%
G04 #@! TD*
G04 #@! TA.AperFunction,ComponentPad*
%ADD18C,4.400000*%
G04 #@! TD*
G04 #@! TA.AperFunction,SMDPad,CuDef*
%ADD19RoundRect,0.150000X-0.150000X0.725000X-0.150000X-0.725000X0.150000X-0.725000X0.150000X0.725000X0*%
G04 #@! TD*
G04 #@! TA.AperFunction,SMDPad,CuDef*
%ADD20RoundRect,0.200000X0.600000X-0.200000X0.600000X0.200000X-0.600000X0.200000X-0.600000X-0.200000X0*%
G04 #@! TD*
G04 #@! TA.AperFunction,SMDPad,CuDef*
%ADD21RoundRect,0.250001X1.249999X-0.799999X1.249999X0.799999X-1.249999X0.799999X-1.249999X-0.799999X0*%
G04 #@! TD*
G04 #@! TA.AperFunction,SMDPad,CuDef*
%ADD22RoundRect,0.200000X-0.600000X0.200000X-0.600000X-0.200000X0.600000X-0.200000X0.600000X0.200000X0*%
G04 #@! TD*
G04 #@! TA.AperFunction,SMDPad,CuDef*
%ADD23RoundRect,0.250001X-1.249999X0.799999X-1.249999X-0.799999X1.249999X-0.799999X1.249999X0.799999X0*%
G04 #@! TD*
G04 #@! TA.AperFunction,SMDPad,CuDef*
%ADD24RoundRect,0.200000X-0.275000X0.200000X-0.275000X-0.200000X0.275000X-0.200000X0.275000X0.200000X0*%
G04 #@! TD*
G04 #@! TA.AperFunction,SMDPad,CuDef*
%ADD25RoundRect,0.250000X0.625000X-0.375000X0.625000X0.375000X-0.625000X0.375000X-0.625000X-0.375000X0*%
G04 #@! TD*
G04 #@! TA.AperFunction,SMDPad,CuDef*
%ADD26RoundRect,0.150000X0.825000X0.150000X-0.825000X0.150000X-0.825000X-0.150000X0.825000X-0.150000X0*%
G04 #@! TD*
G04 #@! TA.AperFunction,SMDPad,CuDef*
%ADD27RoundRect,0.200000X0.200000X0.275000X-0.200000X0.275000X-0.200000X-0.275000X0.200000X-0.275000X0*%
G04 #@! TD*
G04 #@! TA.AperFunction,SMDPad,CuDef*
%ADD28RoundRect,0.250000X-0.625000X0.375000X-0.625000X-0.375000X0.625000X-0.375000X0.625000X0.375000X0*%
G04 #@! TD*
G04 #@! TA.AperFunction,SMDPad,CuDef*
%ADD29RoundRect,0.225000X0.425000X0.225000X-0.425000X0.225000X-0.425000X-0.225000X0.425000X-0.225000X0*%
G04 #@! TD*
G04 #@! TA.AperFunction,SMDPad,CuDef*
%ADD30FreePoly0,180.000000*%
G04 #@! TD*
G04 #@! TA.AperFunction,SMDPad,CuDef*
%ADD31R,0.400000X1.800000*%
G04 #@! TD*
G04 #@! TA.AperFunction,ComponentPad*
%ADD32O,1.090000X2.000000*%
G04 #@! TD*
G04 #@! TA.AperFunction,ComponentPad*
%ADD33O,1.050000X1.600000*%
G04 #@! TD*
G04 #@! TA.AperFunction,SMDPad,CuDef*
%ADD34RoundRect,0.225000X0.250000X-0.225000X0.250000X0.225000X-0.250000X0.225000X-0.250000X-0.225000X0*%
G04 #@! TD*
G04 #@! TA.AperFunction,SMDPad,CuDef*
%ADD35RoundRect,0.150000X0.587500X0.150000X-0.587500X0.150000X-0.587500X-0.150000X0.587500X-0.150000X0*%
G04 #@! TD*
G04 #@! TA.AperFunction,SMDPad,CuDef*
%ADD36RoundRect,0.225000X0.225000X0.250000X-0.225000X0.250000X-0.225000X-0.250000X0.225000X-0.250000X0*%
G04 #@! TD*
G04 #@! TA.AperFunction,SMDPad,CuDef*
%ADD37R,1.300000X1.600000*%
G04 #@! TD*
G04 #@! TA.AperFunction,SMDPad,CuDef*
%ADD38R,2.000000X1.600000*%
G04 #@! TD*
G04 #@! TA.AperFunction,SMDPad,CuDef*
%ADD39R,1.500000X0.900000*%
G04 #@! TD*
G04 #@! TA.AperFunction,SMDPad,CuDef*
%ADD40RoundRect,0.150000X-0.650000X-0.150000X0.650000X-0.150000X0.650000X0.150000X-0.650000X0.150000X0*%
G04 #@! TD*
G04 #@! TA.AperFunction,ComponentPad*
%ADD41C,1.000000*%
G04 #@! TD*
G04 #@! TA.AperFunction,ViaPad*
%ADD42C,0.800000*%
G04 #@! TD*
G04 #@! TA.AperFunction,Conductor*
%ADD43C,0.800000*%
G04 #@! TD*
G04 #@! TA.AperFunction,Conductor*
%ADD44C,0.350000*%
G04 #@! TD*
G04 #@! TA.AperFunction,Conductor*
%ADD45C,0.600000*%
G04 #@! TD*
G04 #@! TA.AperFunction,Conductor*
%ADD46C,0.250000*%
G04 #@! TD*
G04 #@! TA.AperFunction,Conductor*
%ADD47C,0.200000*%
G04 #@! TD*
G04 #@! TA.AperFunction,Conductor*
%ADD48C,0.450000*%
G04 #@! TD*
G04 #@! TA.AperFunction,Conductor*
%ADD49C,0.400000*%
G04 #@! TD*
G04 #@! TA.AperFunction,Conductor*
%ADD50C,2.000000*%
G04 #@! TD*
G04 #@! TA.AperFunction,Conductor*
%ADD51C,0.550000*%
G04 #@! TD*
G04 #@! TA.AperFunction,Conductor*
%ADD52C,0.500000*%
G04 #@! TD*
G04 #@! TA.AperFunction,Conductor*
%ADD53C,0.360000*%
G04 #@! TD*
G04 #@! TA.AperFunction,Conductor*
%ADD54C,0.300000*%
G04 #@! TD*
G04 APERTURE END LIST*
D10*
X149171000Y-98654000D03*
X150721000Y-98654000D03*
D11*
X153961000Y-92543000D03*
X153961000Y-94093000D03*
D12*
X160359500Y-109800000D03*
X162009500Y-109800000D03*
D13*
X151139000Y-89625000D03*
X151139000Y-94075000D03*
D14*
X160085500Y-112035000D03*
X162625500Y-112035000D03*
D15*
X155717500Y-108923000D03*
X155717500Y-107273000D03*
D16*
X141266500Y-90195000D03*
X147646500Y-90195000D03*
D17*
X160023500Y-90845000D03*
X160506774Y-89678274D03*
X160506774Y-92011726D03*
X161673500Y-89195000D03*
D18*
X161673500Y-90845000D03*
D17*
X161673500Y-92495000D03*
X162840226Y-89678274D03*
X162840226Y-92011726D03*
X163323500Y-90845000D03*
D19*
X163335500Y-96291000D03*
X162065500Y-96291000D03*
X160795500Y-96291000D03*
X159525500Y-96291000D03*
X159525500Y-101441000D03*
X160795500Y-101441000D03*
X162065500Y-101441000D03*
X163335500Y-101441000D03*
D20*
X165430500Y-109440000D03*
X165430500Y-108190000D03*
D21*
X168330500Y-111990000D03*
X168330500Y-105640000D03*
D17*
X140274500Y-111085000D03*
X140757774Y-109918274D03*
X140757774Y-112251726D03*
X141924500Y-109435000D03*
D18*
X141924500Y-111085000D03*
D17*
X141924500Y-112735000D03*
X143091226Y-109918274D03*
X143091226Y-112251726D03*
X143574500Y-111085000D03*
D15*
X157211001Y-108925000D03*
X157211001Y-107275000D03*
D22*
X138164500Y-92490000D03*
X138164500Y-93740000D03*
X138164500Y-94990000D03*
X138164500Y-96240000D03*
X138164500Y-97490000D03*
X138164500Y-98740000D03*
D23*
X135264500Y-89940000D03*
X135264500Y-101290000D03*
D24*
X155612000Y-101007000D03*
X155612000Y-102657000D03*
D25*
X140591000Y-101995000D03*
X140591000Y-99195000D03*
D26*
X145641000Y-97520000D03*
X145641000Y-96250000D03*
X145641000Y-94980000D03*
X145641000Y-93710000D03*
X140691000Y-93710000D03*
X140691000Y-94980000D03*
X140691000Y-96250000D03*
X140691000Y-97520000D03*
D15*
X154223999Y-108924000D03*
X154223999Y-107274000D03*
D27*
X162009500Y-108300000D03*
X160359500Y-108300000D03*
D28*
X141522000Y-104924000D03*
X141522000Y-107724000D03*
D15*
X152687000Y-102657000D03*
X152687000Y-101007000D03*
D29*
X156365000Y-98802500D03*
D30*
X156277500Y-97302500D03*
D29*
X156365000Y-95802500D03*
D31*
X147394500Y-107910000D03*
X148044500Y-107910000D03*
X148694500Y-107910000D03*
X149344500Y-107910000D03*
X149994500Y-107910000D03*
D32*
X152294500Y-111160000D03*
D33*
X152294500Y-107710000D03*
D32*
X145094500Y-111160000D03*
D33*
X145094500Y-107710000D03*
D10*
X149033000Y-97191000D03*
X150583000Y-97191000D03*
D20*
X165430500Y-98740000D03*
X165430500Y-97490000D03*
X165430500Y-96240000D03*
X165430500Y-94990000D03*
X165430500Y-93740000D03*
X165430500Y-92490000D03*
D21*
X168330500Y-101290000D03*
X168330500Y-89940000D03*
D27*
X151459000Y-105944000D03*
X149809000Y-105944000D03*
D14*
X154543500Y-112035000D03*
X157083500Y-112035000D03*
D11*
X163397500Y-108275000D03*
X163397500Y-109825000D03*
D15*
X157996000Y-100069000D03*
X157996000Y-98419000D03*
D34*
X157996000Y-97056000D03*
X157996000Y-95506000D03*
D35*
X158299500Y-94046500D03*
X158299500Y-92146500D03*
X156424500Y-93096500D03*
D22*
X138164500Y-106935000D03*
X138164500Y-108185000D03*
X138164500Y-109435000D03*
D23*
X135264500Y-104385000D03*
X135264500Y-111985000D03*
D27*
X163334000Y-94286000D03*
X161684000Y-94286000D03*
D36*
X148446000Y-105944000D03*
X146896000Y-105944000D03*
D37*
X160229500Y-106517000D03*
D38*
X161479500Y-103617000D03*
D37*
X162729500Y-106517000D03*
D39*
X153117000Y-104263000D03*
X156217000Y-104263000D03*
X156217000Y-105663000D03*
X153117000Y-105663000D03*
D15*
X154149000Y-102657000D03*
X154149000Y-101007000D03*
D34*
X147597000Y-96390000D03*
X147597000Y-94840000D03*
D15*
X157996000Y-103030000D03*
X157996000Y-101380000D03*
D40*
X143705000Y-100448000D03*
X143705000Y-101718000D03*
X143705000Y-102988000D03*
X143705000Y-104258000D03*
X150905000Y-104258000D03*
X150905000Y-102988000D03*
X150905000Y-101718000D03*
X150905000Y-100448000D03*
D34*
X158972500Y-109825000D03*
X158972500Y-108275000D03*
D14*
X155174500Y-89895000D03*
X157714500Y-89895000D03*
D41*
X133872000Y-99218000D03*
X133872000Y-92032000D03*
X133872000Y-95967000D03*
D42*
X140506000Y-99261000D03*
X150712000Y-98620000D03*
X153039271Y-93366769D03*
X157050000Y-104313500D03*
X137774500Y-105935000D03*
X163446500Y-97771500D03*
X141297000Y-107694000D03*
X166112000Y-101705000D03*
X143825500Y-97867000D03*
X155661000Y-93112000D03*
X145840000Y-105789000D03*
X166067000Y-112340000D03*
X136364499Y-101939999D03*
X134164500Y-89290000D03*
X167230500Y-106289999D03*
X169430499Y-104990000D03*
X134164500Y-103735000D03*
X157996000Y-97056000D03*
X159840000Y-103655500D03*
X136364499Y-112634999D03*
X163446500Y-99321500D03*
X143825500Y-99417000D03*
X165430500Y-93740000D03*
X159666000Y-109800000D03*
X144203492Y-95775992D03*
X167230500Y-89290000D03*
X137474500Y-104535000D03*
X164345000Y-106256000D03*
X168330500Y-89940000D03*
X157996000Y-98419000D03*
X167230500Y-90589999D03*
X152827500Y-91460500D03*
X169430499Y-106289999D03*
X150703000Y-107910000D03*
X135264500Y-104435000D03*
X167230500Y-100640000D03*
X136364499Y-90589999D03*
X136364499Y-89290000D03*
X169430499Y-112639999D03*
X148380000Y-93155000D03*
X134164500Y-101939999D03*
X134164500Y-111335000D03*
X136364499Y-111335000D03*
X169430499Y-111340000D03*
X135264500Y-111934999D03*
X153961000Y-92493000D03*
X134164500Y-112634999D03*
X167230500Y-112639999D03*
X142092000Y-100033000D03*
X168330500Y-111990000D03*
X134164500Y-105034999D03*
X168330500Y-101290000D03*
X150726000Y-89628000D03*
X137474500Y-111835000D03*
X165344000Y-109440000D03*
X169430499Y-100640000D03*
X138164500Y-98740000D03*
X154583000Y-105754000D03*
X135264500Y-89940000D03*
X138164500Y-97490000D03*
X167230500Y-101939999D03*
X169430499Y-89290000D03*
X136364499Y-105034999D03*
X135264500Y-101290000D03*
X169430499Y-101939999D03*
X156920000Y-102762000D03*
X169430499Y-90589999D03*
X167230500Y-104990000D03*
X136364499Y-100640000D03*
X149171000Y-98654000D03*
X134164500Y-100640000D03*
X159425499Y-101591000D03*
X134164500Y-90589999D03*
X168330500Y-105640000D03*
X168687000Y-109244000D03*
X136364499Y-103735000D03*
X165430500Y-92490000D03*
X149463000Y-99904000D03*
X142436042Y-103677042D03*
X146245000Y-110726000D03*
X142105000Y-102110000D03*
X141270000Y-106132000D03*
X160139000Y-94174000D03*
X165030500Y-97493000D03*
X165030500Y-98752000D03*
X138164500Y-92490000D03*
X154229000Y-94335000D03*
X138164500Y-93740000D03*
X152207000Y-98776000D03*
X146742000Y-103287500D03*
X151464284Y-99548000D03*
X158880000Y-105754000D03*
X140956528Y-103220000D03*
X154148999Y-108925000D03*
X147680391Y-101519426D03*
X157286000Y-108925000D03*
X159216000Y-93096499D03*
X163334000Y-93129000D03*
X159878000Y-98610000D03*
X143292000Y-94118000D03*
X146888000Y-98499000D03*
X148845556Y-103833672D03*
X148819000Y-101447000D03*
X148195000Y-103066000D03*
X147613000Y-99555947D03*
X149645000Y-111441000D03*
X147745000Y-111441000D03*
X163335500Y-100966000D03*
X137889000Y-101256000D03*
X168980500Y-92442000D03*
X169496500Y-97714000D03*
X137651000Y-103121000D03*
X137651000Y-103121000D03*
D43*
X152248010Y-92975000D02*
X152639779Y-93366769D01*
D44*
X156360000Y-106498000D02*
X157137000Y-107275000D01*
D43*
X147597000Y-94840000D02*
X148164990Y-94840000D01*
D45*
X147457000Y-94980000D02*
X147597000Y-94840000D01*
D43*
X157567000Y-106919001D02*
X157567000Y-104830500D01*
X157211001Y-107275000D02*
X157567000Y-106919001D01*
D44*
X157137000Y-107275000D02*
X157211001Y-107275000D01*
D43*
X148164990Y-94840000D02*
X150029990Y-92975000D01*
D45*
X145641000Y-94980000D02*
X147457000Y-94980000D01*
D44*
X154223999Y-107274000D02*
X154322000Y-107274000D01*
D43*
X156999500Y-104263000D02*
X156217000Y-104263000D01*
D44*
X154322000Y-107274000D02*
X155098000Y-106498000D01*
D43*
X151810000Y-95613010D02*
X152739000Y-94684010D01*
X152739000Y-94684010D02*
X152739000Y-93667040D01*
X157567000Y-104830500D02*
X156999500Y-104263000D01*
X150029990Y-92975000D02*
X152248010Y-92975000D01*
X152639779Y-93366769D02*
X153039271Y-93366769D01*
D46*
X155661000Y-93112000D02*
X155676500Y-93096500D01*
D44*
X155098000Y-106498000D02*
X156360000Y-106498000D01*
D43*
X150712000Y-98620000D02*
X150801960Y-98620000D01*
X152739000Y-93667040D02*
X153039271Y-93366769D01*
X150801960Y-98620000D02*
X151810000Y-97611960D01*
D45*
X156424500Y-93096500D02*
X155676500Y-93096500D01*
D43*
X155612000Y-103658000D02*
X155612000Y-102657000D01*
X151810000Y-97611960D02*
X151810000Y-95613010D01*
X156217000Y-104263000D02*
X155612000Y-103658000D01*
D45*
X147457000Y-96250000D02*
X147597000Y-96390000D01*
D43*
X158997500Y-109800000D02*
X158972500Y-109825000D01*
D47*
X160359500Y-109872500D02*
X160359500Y-109800000D01*
D43*
X159666000Y-109800000D02*
X158997500Y-109800000D01*
X159666000Y-109800000D02*
X160359500Y-109800000D01*
D45*
X145641000Y-96250000D02*
X147457000Y-96250000D01*
X138194500Y-97520000D02*
X138164500Y-97490000D01*
X140691000Y-97520000D02*
X138194500Y-97520000D01*
D46*
X149946000Y-99421000D02*
X149463000Y-99904000D01*
D43*
X150583000Y-97191000D02*
X150583000Y-94149000D01*
X150657000Y-94075000D02*
X151139000Y-94075000D01*
D46*
X149946000Y-97828000D02*
X149946000Y-99421000D01*
D43*
X150583000Y-94149000D02*
X150657000Y-94075000D01*
D46*
X149463000Y-99932000D02*
X149435000Y-99960000D01*
X149463000Y-99904000D02*
X149463000Y-99932000D01*
X150583000Y-97191000D02*
X149946000Y-97828000D01*
D48*
X151959000Y-109534000D02*
X151142000Y-110351000D01*
X151142000Y-110351000D02*
X151142000Y-111403000D01*
X151142000Y-111403000D02*
X149779000Y-112766000D01*
X155717500Y-108923000D02*
X155625000Y-108923000D01*
D49*
X147394500Y-106810618D02*
X148261118Y-105944000D01*
D48*
X154572000Y-109976000D02*
X153529000Y-109976000D01*
X155625000Y-108923000D02*
X154572000Y-109976000D01*
X153087000Y-109534000D02*
X151959000Y-109534000D01*
D49*
X147394500Y-109576500D02*
X146245000Y-110726000D01*
D48*
X153529000Y-109976000D02*
X153087000Y-109534000D01*
D49*
X148261118Y-105944000D02*
X148446000Y-105944000D01*
D48*
X146245000Y-111901172D02*
X146245000Y-110726000D01*
D49*
X147394500Y-107910000D02*
X147394500Y-106810618D01*
X147394500Y-107910000D02*
X147394500Y-109576500D01*
D48*
X149779000Y-112766000D02*
X147109828Y-112766000D01*
X147109828Y-112766000D02*
X146245000Y-111901172D01*
D43*
X142105000Y-102110000D02*
X140706000Y-102110000D01*
X140706000Y-102110000D02*
X140591000Y-101995000D01*
D49*
X154644000Y-103152000D02*
X154149000Y-102657000D01*
X156217000Y-105663000D02*
X155848000Y-105663000D01*
X154644000Y-104459000D02*
X154644000Y-103152000D01*
X155848000Y-105663000D02*
X154644000Y-104459000D01*
D43*
X152755000Y-102729000D02*
X152755000Y-103901000D01*
X152755000Y-103901000D02*
X153117000Y-104263000D01*
X153117000Y-105663000D02*
X152836000Y-105944000D01*
X152836000Y-105944000D02*
X151459000Y-105944000D01*
D46*
X141267000Y-106135000D02*
X141267000Y-106176000D01*
D43*
X141270000Y-106132000D02*
X141270000Y-105176000D01*
X141270000Y-105176000D02*
X141522000Y-104924000D01*
D46*
X141270000Y-106132000D02*
X141267000Y-106135000D01*
D45*
X160011500Y-94046500D02*
X160139000Y-94174000D01*
D50*
X155174500Y-89895000D02*
X157714500Y-89895000D01*
D43*
X160139000Y-94174000D02*
X160251000Y-94286000D01*
D45*
X158299500Y-94046500D02*
X160011500Y-94046500D01*
D43*
X160251000Y-94286000D02*
X161684000Y-94286000D01*
X154149000Y-100718000D02*
X152207000Y-98776000D01*
X154149000Y-101007000D02*
X154149000Y-100718000D01*
D45*
X149809000Y-105800460D02*
X148977540Y-104969000D01*
X148645535Y-104969000D02*
X146964035Y-103287500D01*
X148977540Y-104969000D02*
X148645535Y-104969000D01*
X146964035Y-103287500D02*
X146742000Y-103287500D01*
X149809000Y-105944000D02*
X149809000Y-105800460D01*
D51*
X152687000Y-100541960D02*
X152687000Y-101007000D01*
X151693040Y-99548000D02*
X152687000Y-100541960D01*
X151464284Y-99548000D02*
X151693040Y-99548000D01*
D49*
X155842000Y-107273000D02*
X156668000Y-108099000D01*
X155717500Y-107273000D02*
X155842000Y-107273000D01*
X157753000Y-108099000D02*
X158880000Y-106972000D01*
X158880000Y-106972000D02*
X158880000Y-105754000D01*
X156668000Y-108099000D02*
X157753000Y-108099000D01*
D52*
X140160000Y-107914280D02*
X140160000Y-104016528D01*
X138639280Y-109435000D02*
X140160000Y-107914280D01*
X140160000Y-104016528D02*
X140956528Y-103220000D01*
X138164500Y-109435000D02*
X138639280Y-109435000D01*
D43*
X166830500Y-109976912D02*
X164772412Y-112035000D01*
X166117412Y-108190000D02*
X166830500Y-108903088D01*
X164772412Y-112035000D02*
X162625500Y-112035000D01*
X165430500Y-108190000D02*
X166117412Y-108190000D01*
X163482500Y-108190000D02*
X163397500Y-108275000D01*
X166830500Y-108903088D02*
X166830500Y-109976912D01*
D50*
X160085500Y-112035000D02*
X162625500Y-112035000D01*
D43*
X165430500Y-108190000D02*
X163482500Y-108190000D01*
D46*
X162625500Y-112035000D02*
X162625500Y-112031000D01*
X151889000Y-108924000D02*
X154223999Y-108924000D01*
X151444500Y-108479500D02*
X151889000Y-108924000D01*
X151750000Y-105031000D02*
X151046000Y-105031000D01*
X152030000Y-103907092D02*
X152030000Y-104751000D01*
X151046000Y-105031000D02*
X150626000Y-105451000D01*
X150626000Y-105451000D02*
X150626000Y-106337004D01*
X152030000Y-104751000D02*
X151750000Y-105031000D01*
X150626000Y-106337004D02*
X151444500Y-107155504D01*
X149768456Y-103613000D02*
X151735908Y-103613000D01*
X151735908Y-103613000D02*
X152030000Y-103907092D01*
X151444500Y-107155504D02*
X151444500Y-108479500D01*
X147680391Y-101524935D02*
X149768456Y-103613000D01*
X147680391Y-101519426D02*
X147680391Y-101524935D01*
D49*
X163179499Y-102941973D02*
X163179499Y-106067001D01*
D43*
X157996000Y-103030000D02*
X157996000Y-103225714D01*
X162729500Y-106366500D02*
X162729500Y-106517000D01*
D49*
X162065500Y-101441000D02*
X162065500Y-101827974D01*
D43*
X157996000Y-103225714D02*
X159887286Y-105117000D01*
X159887286Y-105117000D02*
X161480000Y-105117000D01*
X161480000Y-105117000D02*
X162729500Y-106366500D01*
D49*
X162729500Y-106517000D02*
X162729500Y-106458500D01*
X163179499Y-106067001D02*
X162729500Y-106517000D01*
X162065500Y-101827974D02*
X163179499Y-102941973D01*
D43*
X158997500Y-108300000D02*
X158972500Y-108275000D01*
D49*
X158972500Y-108275000D02*
X158085000Y-109162500D01*
D43*
X160359500Y-108300000D02*
X158997500Y-108300000D01*
D50*
X154543500Y-112035000D02*
X157083500Y-112035000D01*
D43*
X160359500Y-106647000D02*
X160229500Y-106517000D01*
D49*
X158085000Y-109162500D02*
X158085000Y-111033500D01*
D43*
X160359500Y-108300000D02*
X160359500Y-106647000D01*
D49*
X158085000Y-111033500D02*
X157083500Y-112035000D01*
D43*
X163372500Y-109800000D02*
X163397500Y-109825000D01*
X162009500Y-109800000D02*
X163372500Y-109800000D01*
X162009500Y-109800000D02*
X162009500Y-108300000D01*
D53*
X160187087Y-93119000D02*
X160493087Y-93425000D01*
D43*
X163334000Y-93129000D02*
X163334000Y-94286000D01*
D53*
X159216000Y-93096499D02*
X159216000Y-93109000D01*
X163334000Y-93425000D02*
X163334000Y-94286000D01*
X159216000Y-93096499D02*
X159238501Y-93119000D01*
X159238501Y-93119000D02*
X160187087Y-93119000D01*
X159216000Y-93109000D02*
X159226000Y-93119000D01*
X160493087Y-93425000D02*
X163334000Y-93425000D01*
D45*
X163335500Y-94287500D02*
X163334000Y-94286000D01*
X163335500Y-96291000D02*
X163335500Y-94287500D01*
X160795500Y-101441000D02*
X160795500Y-102933000D01*
X160795500Y-102933000D02*
X161479500Y-103617000D01*
D49*
X158014070Y-101380000D02*
X157996000Y-101380000D01*
X158851035Y-100543035D02*
X158014070Y-101380000D01*
X159878000Y-99405000D02*
X158851035Y-100431965D01*
X159878000Y-99405000D02*
X160673000Y-98610000D01*
X159878000Y-98610000D02*
X159878000Y-99405000D01*
D45*
X162065500Y-97217500D02*
X162065500Y-96291000D01*
X160673000Y-98610000D02*
X162065500Y-97217500D01*
D49*
X158851035Y-100431965D02*
X158851035Y-100543035D01*
D45*
X159878000Y-98610000D02*
X160673000Y-98610000D01*
X143700000Y-93710000D02*
X143292000Y-94118000D01*
X145641000Y-93710000D02*
X143700000Y-93710000D01*
X146888000Y-97999976D02*
X146888000Y-98499000D01*
X145641000Y-97520000D02*
X146408024Y-97520000D01*
X146408024Y-97520000D02*
X146888000Y-97999976D01*
D52*
X150867000Y-104220000D02*
X150905000Y-104258000D01*
X148845556Y-103833672D02*
X149231884Y-104220000D01*
D46*
X148845556Y-103833672D02*
X148813816Y-103865412D01*
X148813816Y-103865412D02*
X148813816Y-103981816D01*
D52*
X149231884Y-104220000D02*
X150867000Y-104220000D01*
D48*
X150905000Y-102988000D02*
X149921274Y-102988000D01*
X149921274Y-102988000D02*
X148819000Y-101885726D01*
X148819000Y-101885726D02*
X148819000Y-101447000D01*
D45*
X148195000Y-103066000D02*
X147954172Y-103066000D01*
X147954172Y-103066000D02*
X146606172Y-101718000D01*
X146606172Y-101718000D02*
X143705000Y-101718000D01*
X146720947Y-100448000D02*
X147613000Y-99555947D01*
X143705000Y-100448000D02*
X146720947Y-100448000D01*
D54*
X147348000Y-112191000D02*
X148895000Y-112191000D01*
X148044500Y-110080839D02*
X146995000Y-111130339D01*
X148044500Y-107910000D02*
X148044500Y-110080839D01*
X148895000Y-112191000D02*
X149645000Y-111441000D01*
X146995000Y-111838000D02*
X147348000Y-112191000D01*
X146995000Y-111130339D02*
X146995000Y-111838000D01*
X148894500Y-110136000D02*
X150438844Y-110136000D01*
X150438844Y-109636000D02*
X148894500Y-109636000D01*
X150638844Y-109936000D02*
X150638844Y-109836000D01*
X148694500Y-108853247D02*
X148694500Y-107910000D01*
X148694500Y-109336000D02*
X148694500Y-108853247D01*
X148694500Y-109436000D02*
X148694500Y-109336000D01*
X147745000Y-111441000D02*
X148694500Y-110491500D01*
X148694500Y-110491500D02*
X148694500Y-110336000D01*
X148694500Y-110336000D02*
G75*
G02*
X148894500Y-110136000I200000J0D01*
G01*
X148894500Y-109636000D02*
G75*
G02*
X148694500Y-109436000I0J200000D01*
G01*
X150438844Y-110136000D02*
G75*
G03*
X150638800Y-109936000I-44J200000D01*
G01*
X150638844Y-109836000D02*
G75*
G03*
X150438844Y-109635956I-200044J0D01*
G01*
D45*
X160012309Y-97697691D02*
X159517309Y-97697691D01*
X160795500Y-96291000D02*
X160795500Y-96914500D01*
X158971000Y-98244000D02*
X158971000Y-99094000D01*
X159517309Y-97697691D02*
X158971000Y-98244000D01*
X158971000Y-99094000D02*
X157996000Y-100069000D01*
D43*
X155612000Y-101007000D02*
X156550000Y-100069000D01*
D45*
X160795500Y-96914500D02*
X160012309Y-97697691D01*
D43*
X156550000Y-100069000D02*
X157996000Y-100069000D01*
D52*
X137889000Y-101289878D02*
X137889000Y-101256000D01*
X139416000Y-102816878D02*
X137889000Y-101289878D01*
X139416000Y-107605000D02*
X139416000Y-102816878D01*
X138836000Y-108185000D02*
X139416000Y-107605000D01*
X138164500Y-108185000D02*
X138836000Y-108185000D01*
D49*
X168980500Y-92442000D02*
X168382570Y-92442000D01*
X165430500Y-94990000D02*
X165834570Y-94990000D01*
D46*
X149754000Y-102042908D02*
X149754000Y-101302000D01*
X158692500Y-102197000D02*
X157503000Y-102197000D01*
X152275000Y-101841000D02*
X151761000Y-102355000D01*
X170221500Y-98014305D02*
X169796805Y-98439000D01*
D49*
X168382570Y-92442000D02*
X165834570Y-94990000D01*
D46*
X157147000Y-101841000D02*
X152275000Y-101841000D01*
X168590971Y-95265000D02*
X170221500Y-96895529D01*
X159136500Y-102641000D02*
X158692500Y-102197000D01*
X149754000Y-101302000D02*
X148369000Y-99917000D01*
D45*
X140691000Y-96250000D02*
X138174500Y-96250000D01*
D46*
X150066092Y-102355000D02*
X149754000Y-102042908D01*
X169796805Y-98439000D02*
X167715000Y-98439000D01*
X165430500Y-94990000D02*
X165705500Y-95265000D01*
X170221500Y-96895529D02*
X170221500Y-98014305D01*
X160170500Y-100515092D02*
X160170500Y-102346908D01*
X160170500Y-102346908D02*
X159876408Y-102641000D01*
X148369000Y-98597092D02*
X146657908Y-96886000D01*
X159876408Y-102641000D02*
X159136500Y-102641000D01*
D45*
X138174500Y-96250000D02*
X138164500Y-96240000D01*
D46*
X166008000Y-100146000D02*
X160539592Y-100146000D01*
X148369000Y-99917000D02*
X148369000Y-98597092D01*
X146657908Y-96886000D02*
X142005000Y-96886000D01*
X165705500Y-95265000D02*
X168590971Y-95265000D01*
X141369000Y-96250000D02*
X140691000Y-96250000D01*
X157503000Y-102197000D02*
X157147000Y-101841000D01*
X151761000Y-102355000D02*
X150066092Y-102355000D01*
X160539592Y-100146000D02*
X160170500Y-100515092D01*
X142005000Y-96886000D02*
X141369000Y-96250000D01*
X167715000Y-98439000D02*
X166008000Y-100146000D01*
X165430500Y-96240000D02*
X165024000Y-96240000D01*
X160030695Y-95091000D02*
X162416408Y-95091000D01*
X163146195Y-98496500D02*
X163746805Y-98496500D01*
D49*
X165430500Y-96240000D02*
X165834570Y-96240000D01*
D46*
X156179500Y-94671500D02*
X159611195Y-94671500D01*
D49*
X167071785Y-97477215D02*
X165834570Y-96240000D01*
X167308570Y-97714000D02*
X167071785Y-97477215D01*
D46*
X146536000Y-92250000D02*
X146552000Y-92250000D01*
X159611195Y-94671500D02*
X160030695Y-95091000D01*
X164171500Y-98071805D02*
X164171500Y-97092500D01*
X146552000Y-92250000D02*
X149795000Y-92250000D01*
X149795000Y-92250000D02*
X151396000Y-90649000D01*
X145106000Y-91357164D02*
X145236000Y-91357164D01*
X145756000Y-92942846D02*
X145886000Y-92942846D01*
X141084182Y-91985844D02*
X141169036Y-91900991D01*
D49*
X169496500Y-97714000D02*
X169004000Y-97714000D01*
D46*
X143997465Y-92353539D02*
X144082318Y-92268683D01*
X163746805Y-98496500D02*
X164171500Y-98071805D01*
X141508448Y-91900991D02*
X142809525Y-93202068D01*
D49*
X167384000Y-97714000D02*
X167308570Y-97714000D01*
D46*
X142710531Y-91406014D02*
X143658055Y-92353538D01*
X142385259Y-93626330D02*
X141084183Y-92325254D01*
X162690500Y-95365092D02*
X162690500Y-98040805D01*
X151396000Y-90649000D02*
X153326052Y-90649000D01*
D45*
X138174500Y-94980000D02*
X138164500Y-94990000D01*
D46*
X143233789Y-92777800D02*
X142286266Y-91830277D01*
X144082318Y-92268683D02*
X144101000Y-92250000D01*
X143233788Y-93117213D02*
X143233788Y-93117212D01*
X164171500Y-97092500D02*
X165024000Y-96240000D01*
X154808000Y-92130948D02*
X154808000Y-93300000D01*
X153326052Y-90649000D02*
X154808000Y-92130948D01*
X143148935Y-93202069D02*
X143233788Y-93117213D01*
D49*
X167870000Y-96242449D02*
X167870000Y-97390000D01*
D46*
X144101000Y-92250000D02*
X144586000Y-92250000D01*
D49*
X168356000Y-95918449D02*
X168194000Y-95918449D01*
X167546000Y-97714000D02*
X167384000Y-97714000D01*
D46*
X142286265Y-91490867D02*
X142371119Y-91406014D01*
X162690500Y-98040805D02*
X163146195Y-98496500D01*
X145496000Y-91990000D02*
X145496000Y-92682846D01*
X144846000Y-91990000D02*
X144846000Y-91617164D01*
X146146000Y-92682846D02*
X146146000Y-92510000D01*
X145496000Y-91617164D02*
X145496000Y-91990000D01*
D49*
X168680000Y-97390000D02*
X168680000Y-96242449D01*
D46*
X162416408Y-95091000D02*
X162690500Y-95365092D01*
X140691000Y-94980000D02*
X141371000Y-94980000D01*
X141371000Y-94980000D02*
X142385258Y-93965742D01*
D45*
X140691000Y-94980000D02*
X138174500Y-94980000D01*
D46*
X154808000Y-93300000D02*
X156179500Y-94671500D01*
X146406000Y-92250000D02*
X146536000Y-92250000D01*
X142809526Y-93202067D02*
G75*
G03*
X143148904Y-93202038I169674J169667D01*
G01*
X145886000Y-92942846D02*
G75*
G03*
X146146046Y-92682846I0J260046D01*
G01*
X144846000Y-91617164D02*
G75*
G02*
X145106000Y-91357200I260000J-36D01*
G01*
X144586000Y-92250000D02*
G75*
G03*
X144846000Y-91990000I0J260000D01*
G01*
X145496000Y-92682846D02*
G75*
G03*
X145756000Y-92942800I260000J46D01*
G01*
X142385258Y-93965742D02*
G75*
G03*
X142385294Y-93626295I-169658J169742D01*
G01*
D49*
X168680000Y-96242449D02*
G75*
G03*
X168356000Y-95918400I-324000J49D01*
G01*
X167870000Y-97390000D02*
G75*
G02*
X167546000Y-97714000I-324000J0D01*
G01*
D46*
X143233788Y-93117212D02*
G75*
G03*
X143233794Y-92777795I-169688J169712D01*
G01*
X141169037Y-91900992D02*
G75*
G02*
X141508447Y-91900992I169705J-169707D01*
G01*
X143658056Y-92353537D02*
G75*
G03*
X143997504Y-92353578I169744J169737D01*
G01*
D49*
X169004000Y-97714000D02*
G75*
G02*
X168680000Y-97390000I0J324000D01*
G01*
X168194000Y-95918449D02*
G75*
G03*
X167870049Y-96242449I0J-323951D01*
G01*
D46*
X141084183Y-92325254D02*
G75*
G02*
X141084134Y-91985796I169717J169754D01*
G01*
X146146000Y-92510000D02*
G75*
G02*
X146406000Y-92250000I260000J0D01*
G01*
X142371120Y-91406015D02*
G75*
G02*
X142710530Y-91406015I169705J-169707D01*
G01*
X142286267Y-91830276D02*
G75*
G02*
X142286294Y-91490896I169733J169676D01*
G01*
X145236000Y-91357164D02*
G75*
G02*
X145496036Y-91617164I0J-260036D01*
G01*
D54*
X137139000Y-99301000D02*
X133872000Y-96034000D01*
X137139000Y-102609000D02*
X137139000Y-99301000D01*
X137651000Y-103121000D02*
X137139000Y-102609000D01*
X133872000Y-96034000D02*
X133872000Y-95967000D01*
G04 #@! TA.AperFunction,Conductor*
G36*
X142869977Y-102181463D02*
G01*
X142923920Y-102194061D01*
X142951716Y-102207648D01*
X142953607Y-102208573D01*
X142953609Y-102208573D01*
X142953611Y-102208574D01*
X143021739Y-102218500D01*
X143021740Y-102218500D01*
X143639108Y-102218500D01*
X146010463Y-102218500D01*
X146077502Y-102238185D01*
X146123257Y-102290989D01*
X146134405Y-102338700D01*
X146158052Y-103110039D01*
X146157049Y-103130024D01*
X146136318Y-103287498D01*
X146136318Y-103287501D01*
X146156955Y-103444260D01*
X146156956Y-103444262D01*
X146217464Y-103590341D01*
X146313718Y-103715782D01*
X146439159Y-103812036D01*
X146585238Y-103872544D01*
X146636039Y-103879232D01*
X146741999Y-103893182D01*
X146741999Y-103893181D01*
X146742000Y-103893182D01*
X146787326Y-103887214D01*
X146856360Y-103897979D01*
X146891193Y-103922472D01*
X148338221Y-105369500D01*
X148452349Y-105435392D01*
X148579642Y-105469500D01*
X148579643Y-105469500D01*
X148718864Y-105469500D01*
X148785903Y-105489185D01*
X148806545Y-105505819D01*
X148864790Y-105564064D01*
X148898275Y-105625387D01*
X148901109Y-105651570D01*
X148901920Y-106226863D01*
X148882330Y-106293930D01*
X148859870Y-106320098D01*
X148779320Y-106391031D01*
X148754619Y-106407964D01*
X148010056Y-106795493D01*
X147952807Y-106809500D01*
X147824747Y-106809500D01*
X147766270Y-106821131D01*
X147766269Y-106821132D01*
X147699947Y-106865447D01*
X147655632Y-106931769D01*
X147650960Y-106943050D01*
X147648730Y-106942126D01*
X147624154Y-106989103D01*
X147596963Y-107009414D01*
X147596000Y-107010999D01*
X147594138Y-108686138D01*
X147574379Y-108753155D01*
X147521524Y-108798852D01*
X147470138Y-108810000D01*
X147318000Y-108810000D01*
X147250961Y-108790315D01*
X147205206Y-108737511D01*
X147194000Y-108686000D01*
X147194000Y-107038430D01*
X147206387Y-106984407D01*
X147263966Y-106865447D01*
X147455339Y-106470063D01*
X147466631Y-106451207D01*
X147469526Y-106447222D01*
X147469528Y-106447220D01*
X147530719Y-106327126D01*
X147531832Y-106320098D01*
X147546500Y-106227493D01*
X147546500Y-106196182D01*
X147547006Y-106185973D01*
X147546999Y-106185002D01*
X147547000Y-106185000D01*
X147546503Y-106112065D01*
X147546500Y-106111220D01*
X147546500Y-105660516D01*
X147546500Y-105660512D01*
X147544745Y-105649436D01*
X147543224Y-105630904D01*
X147543000Y-105598000D01*
X147542997Y-105597995D01*
X147539021Y-105583542D01*
X147534178Y-105570007D01*
X147533733Y-105570152D01*
X147530718Y-105560872D01*
X147505756Y-105511882D01*
X147469528Y-105440780D01*
X147469524Y-105440776D01*
X147469523Y-105440774D01*
X147435605Y-105406856D01*
X147433811Y-105404535D01*
X147415675Y-105386909D01*
X147414416Y-105385667D01*
X147374225Y-105345476D01*
X147374222Y-105345474D01*
X147374220Y-105345472D01*
X147254126Y-105284281D01*
X147242339Y-105282414D01*
X147230223Y-105280495D01*
X147190025Y-105266760D01*
X144593160Y-103843452D01*
X144565077Y-103822395D01*
X144561485Y-103818803D01*
X144456391Y-103767426D01*
X144388261Y-103757500D01*
X144388260Y-103757500D01*
X143021740Y-103757500D01*
X143021739Y-103757500D01*
X142953608Y-103767426D01*
X142848514Y-103818803D01*
X142765803Y-103901514D01*
X142729051Y-103976693D01*
X142681923Y-104028276D01*
X142638004Y-104044551D01*
X142499733Y-104067560D01*
X142430372Y-104059147D01*
X142391917Y-104033142D01*
X142072538Y-103715355D01*
X142038900Y-103654116D01*
X142036000Y-103627455D01*
X142036000Y-103171260D01*
X142704500Y-103171260D01*
X142714426Y-103239391D01*
X142765803Y-103344485D01*
X142848514Y-103427196D01*
X142848515Y-103427196D01*
X142848517Y-103427198D01*
X142953607Y-103478573D01*
X142987673Y-103483536D01*
X143021739Y-103488500D01*
X143021740Y-103488500D01*
X144388261Y-103488500D01*
X144410971Y-103485191D01*
X144456393Y-103478573D01*
X144561483Y-103427198D01*
X144644198Y-103344483D01*
X144695573Y-103239393D01*
X144705500Y-103171260D01*
X144705500Y-102804740D01*
X144695573Y-102736607D01*
X144644198Y-102631517D01*
X144644196Y-102631515D01*
X144644196Y-102631514D01*
X144561485Y-102548803D01*
X144456391Y-102497426D01*
X144388261Y-102487500D01*
X144388260Y-102487500D01*
X143021740Y-102487500D01*
X143021739Y-102487500D01*
X142953608Y-102497426D01*
X142848514Y-102548803D01*
X142796737Y-102600580D01*
X142762363Y-102619348D01*
X142760535Y-102641252D01*
X142756277Y-102650999D01*
X142750704Y-102662398D01*
X142714426Y-102736608D01*
X142704500Y-102804739D01*
X142704500Y-103171260D01*
X142036000Y-103171260D01*
X142036000Y-102834500D01*
X142055685Y-102767461D01*
X142108489Y-102721706D01*
X142160000Y-102710500D01*
X142184056Y-102710500D01*
X142184057Y-102710500D01*
X142214555Y-102702327D01*
X142230439Y-102699167D01*
X142261762Y-102695044D01*
X142290930Y-102682961D01*
X142306293Y-102677747D01*
X142325858Y-102672504D01*
X142336784Y-102669577D01*
X142364130Y-102653787D01*
X142378666Y-102646619D01*
X142407841Y-102634536D01*
X142432895Y-102615310D01*
X142446368Y-102606308D01*
X142473716Y-102590520D01*
X142496040Y-102568194D01*
X142508234Y-102557501D01*
X142533282Y-102538282D01*
X142546500Y-102521055D01*
X142592891Y-102487179D01*
X142600225Y-102453470D01*
X142610679Y-102437414D01*
X142629536Y-102412841D01*
X142641619Y-102383666D01*
X142648787Y-102369130D01*
X142664577Y-102341784D01*
X142667504Y-102330858D01*
X142672747Y-102311293D01*
X142677962Y-102295928D01*
X142693155Y-102259252D01*
X142696060Y-102260455D01*
X142724696Y-102213463D01*
X142787540Y-102182926D01*
X142808628Y-102181208D01*
X142869977Y-102181463D01*
G37*
G04 #@! TD.AperFunction*
G04 #@! TA.AperFunction,Conductor*
G36*
X151114039Y-98198685D02*
G01*
X151159794Y-98251489D01*
X151171000Y-98303000D01*
X151171000Y-98954980D01*
X151151315Y-99022019D01*
X151122487Y-99053355D01*
X151036004Y-99119716D01*
X150939747Y-99245160D01*
X150879240Y-99391237D01*
X150879239Y-99391239D01*
X150858602Y-99547998D01*
X150858602Y-99548001D01*
X150879239Y-99704760D01*
X150879240Y-99704762D01*
X150915110Y-99791361D01*
X150939748Y-99850841D01*
X151036002Y-99976282D01*
X151161443Y-100072536D01*
X151307522Y-100133044D01*
X151381771Y-100142819D01*
X151464283Y-100153682D01*
X151464284Y-100153682D01*
X151464285Y-100153682D01*
X151514296Y-100147097D01*
X151546792Y-100142819D01*
X151615827Y-100153584D01*
X151650659Y-100178077D01*
X151668681Y-100196099D01*
X151702166Y-100257422D01*
X151705000Y-100283780D01*
X151705000Y-101894000D01*
X151685315Y-101961039D01*
X151632511Y-102006794D01*
X151581000Y-102018000D01*
X150240781Y-102018000D01*
X150173742Y-101998315D01*
X150153096Y-101981678D01*
X150141315Y-101969896D01*
X150107833Y-101908571D01*
X150105000Y-101882218D01*
X150105000Y-99773689D01*
X150124685Y-99706650D01*
X150141316Y-99686009D01*
X150206465Y-99620862D01*
X150249318Y-99546639D01*
X150271500Y-99463853D01*
X150271500Y-99378147D01*
X150271500Y-98303000D01*
X150291185Y-98235961D01*
X150343989Y-98190206D01*
X150395500Y-98179000D01*
X151047000Y-98179000D01*
X151114039Y-98198685D01*
G37*
G04 #@! TD.AperFunction*
G04 #@! TA.AperFunction,Conductor*
G36*
X159551045Y-95075685D02*
G01*
X159571687Y-95092319D01*
X159765889Y-95286521D01*
X159765909Y-95286542D01*
X159789679Y-95310311D01*
X159823166Y-95371633D01*
X159826000Y-95397994D01*
X159826000Y-97042000D01*
X159806315Y-97109039D01*
X159753511Y-97154794D01*
X159702000Y-97166000D01*
X158795500Y-97166000D01*
X158728461Y-97146315D01*
X158682706Y-97093511D01*
X158671500Y-97042000D01*
X158671500Y-96797506D01*
X158655720Y-96697878D01*
X158655719Y-96697876D01*
X158655719Y-96697874D01*
X158594528Y-96577780D01*
X158594526Y-96577778D01*
X158594523Y-96577774D01*
X158499225Y-96482476D01*
X158499221Y-96482473D01*
X158499220Y-96482472D01*
X158379126Y-96421281D01*
X158379124Y-96421280D01*
X158379121Y-96421279D01*
X158279493Y-96405500D01*
X158279488Y-96405500D01*
X157712512Y-96405500D01*
X157712507Y-96405500D01*
X157612878Y-96421279D01*
X157492778Y-96482473D01*
X157492774Y-96482476D01*
X157397476Y-96577774D01*
X157397474Y-96577778D01*
X157397472Y-96577780D01*
X157349263Y-96672396D01*
X157301288Y-96723192D01*
X157233467Y-96739987D01*
X157167332Y-96717449D01*
X157161465Y-96713048D01*
X157104163Y-96667351D01*
X157015004Y-96647000D01*
X157015000Y-96647000D01*
X155869500Y-96647000D01*
X155802461Y-96627315D01*
X155756706Y-96574511D01*
X155745500Y-96523000D01*
X155745500Y-96435997D01*
X155745499Y-96435995D01*
X155743841Y-96421281D01*
X155740348Y-96390272D01*
X155727278Y-96363133D01*
X155715000Y-96309334D01*
X155715000Y-95180000D01*
X155734685Y-95112961D01*
X155787489Y-95067206D01*
X155839000Y-95056000D01*
X159484006Y-95056000D01*
X159551045Y-95075685D01*
G37*
G04 #@! TD.AperFunction*
G04 #@! TA.AperFunction,Conductor*
G36*
X133783597Y-99918500D02*
G01*
X133786944Y-99918500D01*
X133960403Y-99918500D01*
X133968675Y-99918000D01*
X136664500Y-99918000D01*
X136731539Y-99937685D01*
X136777294Y-99990489D01*
X136788500Y-100042000D01*
X136788500Y-102655144D01*
X136803333Y-102710500D01*
X136803332Y-102710500D01*
X136803333Y-102710502D01*
X136812384Y-102744284D01*
X136812385Y-102744286D01*
X136858527Y-102824208D01*
X136858531Y-102824213D01*
X137014875Y-102980557D01*
X137048360Y-103041880D01*
X137050133Y-103084422D01*
X137045318Y-103120998D01*
X137045318Y-103121001D01*
X137065955Y-103277760D01*
X137065956Y-103277762D01*
X137126464Y-103423841D01*
X137222718Y-103549282D01*
X137348159Y-103645536D01*
X137494238Y-103706044D01*
X137572619Y-103716363D01*
X137650999Y-103726682D01*
X137651000Y-103726682D01*
X137651001Y-103726682D01*
X137704778Y-103719602D01*
X137807762Y-103706044D01*
X137953841Y-103645536D01*
X138079282Y-103549282D01*
X138175536Y-103423841D01*
X138236044Y-103277762D01*
X138256682Y-103121000D01*
X138256099Y-103116574D01*
X138236044Y-102964239D01*
X138236044Y-102964238D01*
X138175536Y-102818159D01*
X138079282Y-102692718D01*
X137953841Y-102596464D01*
X137942501Y-102591767D01*
X137807762Y-102535956D01*
X137807760Y-102535955D01*
X137651002Y-102515318D01*
X137651000Y-102515318D01*
X137629680Y-102518124D01*
X137560646Y-102507355D01*
X137508392Y-102460973D01*
X137489500Y-102395184D01*
X137489500Y-101926077D01*
X137509185Y-101859038D01*
X137561989Y-101813283D01*
X137631147Y-101803339D01*
X137660947Y-101811514D01*
X137732238Y-101841044D01*
X137772067Y-101846287D01*
X137835962Y-101874551D01*
X137843564Y-101881545D01*
X138929181Y-102967162D01*
X138962666Y-103028485D01*
X138965500Y-103054843D01*
X138965500Y-107367033D01*
X138945815Y-107434072D01*
X138929181Y-107454714D01*
X138835714Y-107548181D01*
X138774391Y-107581666D01*
X138748033Y-107584500D01*
X137532982Y-107584500D01*
X137452019Y-107597323D01*
X137439196Y-107599354D01*
X137326158Y-107656950D01*
X137326157Y-107656951D01*
X137326152Y-107656954D01*
X137236454Y-107746652D01*
X137236451Y-107746657D01*
X137178852Y-107859698D01*
X137164000Y-107953475D01*
X137164000Y-108416517D01*
X137173431Y-108476060D01*
X137178854Y-108510304D01*
X137236450Y-108623342D01*
X137236452Y-108623344D01*
X137236454Y-108623347D01*
X137333058Y-108719951D01*
X137331015Y-108721993D01*
X137364189Y-108765016D01*
X137370165Y-108834630D01*
X137337557Y-108896424D01*
X137331012Y-108902094D01*
X137236454Y-108996652D01*
X137236451Y-108996657D01*
X137236450Y-108996658D01*
X137228928Y-109011421D01*
X137178852Y-109109698D01*
X137164000Y-109203475D01*
X137164000Y-109211896D01*
X137144315Y-109278935D01*
X137091511Y-109324690D01*
X137022353Y-109334634D01*
X136958797Y-109305609D01*
X136936898Y-109280787D01*
X136908614Y-109238458D01*
X136908611Y-109238454D01*
X136811045Y-109140888D01*
X136811041Y-109140885D01*
X136696317Y-109064228D01*
X136696304Y-109064221D01*
X136568832Y-109011421D01*
X136568822Y-109011418D01*
X136433495Y-108984500D01*
X136433493Y-108984500D01*
X136295507Y-108984500D01*
X136295505Y-108984500D01*
X136160177Y-109011418D01*
X136160167Y-109011421D01*
X136032695Y-109064221D01*
X136032682Y-109064228D01*
X135917958Y-109140885D01*
X135917954Y-109140888D01*
X135820388Y-109238454D01*
X135820385Y-109238458D01*
X135743728Y-109353182D01*
X135743721Y-109353195D01*
X135690921Y-109480667D01*
X135690918Y-109480677D01*
X135664000Y-109616004D01*
X135664000Y-109616007D01*
X135664000Y-109753993D01*
X135664000Y-109753995D01*
X135663999Y-109753995D01*
X135690918Y-109889322D01*
X135690921Y-109889332D01*
X135743721Y-110016804D01*
X135743728Y-110016817D01*
X135820385Y-110131541D01*
X135820388Y-110131545D01*
X135917954Y-110229111D01*
X135917958Y-110229114D01*
X136032682Y-110305771D01*
X136032695Y-110305778D01*
X136160167Y-110358578D01*
X136160172Y-110358580D01*
X136160176Y-110358580D01*
X136160177Y-110358581D01*
X136295504Y-110385500D01*
X136295507Y-110385500D01*
X136433495Y-110385500D01*
X136524541Y-110367389D01*
X136568828Y-110358580D01*
X136696311Y-110305775D01*
X136811042Y-110229114D01*
X136908614Y-110131542D01*
X136985275Y-110016811D01*
X136985481Y-110016315D01*
X137029845Y-109909209D01*
X137073685Y-109854805D01*
X137139979Y-109832740D01*
X137207679Y-109850019D01*
X137232087Y-109868980D01*
X137326152Y-109963045D01*
X137326154Y-109963046D01*
X137326158Y-109963050D01*
X137431681Y-110016817D01*
X137439198Y-110020647D01*
X137532975Y-110035499D01*
X137532981Y-110035500D01*
X138204001Y-110035499D01*
X138271039Y-110055183D01*
X138316794Y-110107987D01*
X138328000Y-110159499D01*
X138328000Y-112910500D01*
X138308315Y-112977539D01*
X138255511Y-113023294D01*
X138204000Y-113034500D01*
X134020593Y-113034500D01*
X134008439Y-113033903D01*
X133860926Y-113019374D01*
X133837085Y-113014632D01*
X133769090Y-112994006D01*
X133701094Y-112973380D01*
X133678639Y-112964079D01*
X133601023Y-112922591D01*
X133553312Y-112897089D01*
X133533101Y-112883584D01*
X133423253Y-112793434D01*
X133406065Y-112776246D01*
X133318618Y-112669692D01*
X133315914Y-112666397D01*
X133302410Y-112646187D01*
X133300780Y-112643137D01*
X133235418Y-112520855D01*
X133226121Y-112498410D01*
X133184865Y-112362408D01*
X133180126Y-112338580D01*
X133165597Y-112191061D01*
X133165000Y-112178907D01*
X133165000Y-106753995D01*
X135663999Y-106753995D01*
X135690918Y-106889322D01*
X135690921Y-106889332D01*
X135743721Y-107016804D01*
X135743728Y-107016817D01*
X135820385Y-107131541D01*
X135820388Y-107131545D01*
X135917954Y-107229111D01*
X135917958Y-107229114D01*
X136032682Y-107305771D01*
X136032695Y-107305778D01*
X136160167Y-107358578D01*
X136160172Y-107358580D01*
X136160176Y-107358580D01*
X136160177Y-107358581D01*
X136295504Y-107385500D01*
X136295507Y-107385500D01*
X136433495Y-107385500D01*
X136526332Y-107367033D01*
X136568828Y-107358580D01*
X136696311Y-107305775D01*
X136811042Y-107229114D01*
X136908614Y-107131542D01*
X136985275Y-107016811D01*
X137038080Y-106889328D01*
X137064225Y-106757891D01*
X137065000Y-106753995D01*
X137065000Y-106616004D01*
X137038081Y-106480677D01*
X137038080Y-106480676D01*
X137038080Y-106480672D01*
X137035450Y-106474323D01*
X136985278Y-106353195D01*
X136985271Y-106353182D01*
X136908614Y-106238458D01*
X136908611Y-106238454D01*
X136811045Y-106140888D01*
X136811041Y-106140885D01*
X136696317Y-106064228D01*
X136696304Y-106064221D01*
X136568832Y-106011421D01*
X136568822Y-106011418D01*
X136433495Y-105984500D01*
X136433493Y-105984500D01*
X136295507Y-105984500D01*
X136295505Y-105984500D01*
X136160177Y-106011418D01*
X136160167Y-106011421D01*
X136032695Y-106064221D01*
X136032682Y-106064228D01*
X135917958Y-106140885D01*
X135917954Y-106140888D01*
X135820388Y-106238454D01*
X135820385Y-106238458D01*
X135743728Y-106353182D01*
X135743721Y-106353195D01*
X135690921Y-106480667D01*
X135690918Y-106480677D01*
X135664000Y-106616004D01*
X135664000Y-106616007D01*
X135664000Y-106753993D01*
X135664000Y-106753995D01*
X135663999Y-106753995D01*
X133165000Y-106753995D01*
X133165000Y-105935001D01*
X137168818Y-105935001D01*
X137189455Y-106091760D01*
X137189456Y-106091762D01*
X137245296Y-106226573D01*
X137249964Y-106237841D01*
X137346218Y-106363282D01*
X137471659Y-106459536D01*
X137617738Y-106520044D01*
X137684148Y-106528787D01*
X137774499Y-106540682D01*
X137774500Y-106540682D01*
X137774501Y-106540682D01*
X137826754Y-106533802D01*
X137931262Y-106520044D01*
X138077341Y-106459536D01*
X138202782Y-106363282D01*
X138299036Y-106237841D01*
X138359544Y-106091762D01*
X138378765Y-105945762D01*
X138380182Y-105935001D01*
X138380182Y-105934998D01*
X138360961Y-105789000D01*
X138359544Y-105778238D01*
X138299036Y-105632159D01*
X138202782Y-105506718D01*
X138077341Y-105410464D01*
X137931262Y-105349956D01*
X137931260Y-105349955D01*
X137774501Y-105329318D01*
X137774499Y-105329318D01*
X137617739Y-105349955D01*
X137617737Y-105349956D01*
X137471660Y-105410463D01*
X137346218Y-105506718D01*
X137249963Y-105632160D01*
X137189456Y-105778237D01*
X137189455Y-105778239D01*
X137168818Y-105934998D01*
X137168818Y-105935001D01*
X133165000Y-105935001D01*
X133165000Y-100042000D01*
X133184685Y-99974961D01*
X133237489Y-99929206D01*
X133289000Y-99918000D01*
X133775325Y-99918000D01*
X133783597Y-99918500D01*
G37*
G04 #@! TD.AperFunction*
G04 #@! TA.AperFunction,Conductor*
G36*
X144414314Y-103975598D02*
G01*
X144439777Y-103988046D01*
X144459701Y-104000235D01*
X144463381Y-104002994D01*
X144469880Y-104007867D01*
X144494390Y-104023660D01*
X147091255Y-105446968D01*
X147123581Y-105461222D01*
X147163779Y-105474957D01*
X147173214Y-105477297D01*
X147199651Y-105487163D01*
X147226258Y-105500720D01*
X147234430Y-105504884D01*
X147265801Y-105527673D01*
X147269107Y-105530979D01*
X147270097Y-105531962D01*
X147271356Y-105533204D01*
X147272437Y-105534263D01*
X147283502Y-105545017D01*
X147288929Y-105550719D01*
X147288934Y-105550715D01*
X147289588Y-105551412D01*
X147290163Y-105552016D01*
X147291602Y-105553651D01*
X147291382Y-105553844D01*
X147309996Y-105580337D01*
X147326176Y-105612091D01*
X147339276Y-105658238D01*
X147339932Y-105666234D01*
X147340116Y-105667761D01*
X147341000Y-105682544D01*
X147341000Y-106112088D01*
X147341003Y-106112688D01*
X147341008Y-106113401D01*
X147341008Y-106113414D01*
X147341447Y-106178092D01*
X147341300Y-106185032D01*
X147341252Y-106185996D01*
X147341000Y-106196184D01*
X147341000Y-106201556D01*
X147339473Y-106220954D01*
X147337407Y-106233997D01*
X147335912Y-106243436D01*
X147323924Y-106280327D01*
X147297030Y-106333110D01*
X147274227Y-106364497D01*
X147074019Y-106564705D01*
X147021291Y-106656032D01*
X147002522Y-106726085D01*
X146994000Y-106757888D01*
X146994000Y-106982838D01*
X146993214Y-106996774D01*
X146988500Y-107038430D01*
X146988500Y-107038437D01*
X146988500Y-108409021D01*
X146968815Y-108476060D01*
X146916011Y-108521815D01*
X146846853Y-108531759D01*
X146832408Y-108528796D01*
X146760393Y-108509500D01*
X146760392Y-108509500D01*
X146628608Y-108509500D01*
X146501312Y-108543608D01*
X146387186Y-108609500D01*
X146387183Y-108609502D01*
X146294002Y-108702683D01*
X146294000Y-108702686D01*
X146228108Y-108816812D01*
X146194000Y-108944108D01*
X146194000Y-109075891D01*
X146228108Y-109203187D01*
X146244586Y-109231727D01*
X146294000Y-109317314D01*
X146387186Y-109410500D01*
X146501314Y-109476392D01*
X146628608Y-109510500D01*
X146628610Y-109510500D01*
X146630543Y-109511018D01*
X146690204Y-109547383D01*
X146720733Y-109610230D01*
X146712438Y-109679605D01*
X146686131Y-109718474D01*
X146320008Y-110084597D01*
X146258685Y-110118082D01*
X146248513Y-110119855D01*
X146088238Y-110140956D01*
X146088237Y-110140956D01*
X145942160Y-110201463D01*
X145816718Y-110297718D01*
X145720463Y-110423160D01*
X145659956Y-110569237D01*
X145659955Y-110569239D01*
X145639318Y-110725998D01*
X145639318Y-110726001D01*
X145659955Y-110882760D01*
X145659956Y-110882762D01*
X145713785Y-111012718D01*
X145720464Y-111028841D01*
X145793877Y-111124515D01*
X145819070Y-111189681D01*
X145819500Y-111199999D01*
X145819500Y-111845154D01*
X145819500Y-111957190D01*
X145848497Y-112065409D01*
X145904515Y-112162435D01*
X145904517Y-112162437D01*
X146564899Y-112822819D01*
X146598384Y-112884142D01*
X146593400Y-112953834D01*
X146551528Y-113009767D01*
X146486064Y-113034184D01*
X146477218Y-113034500D01*
X143668380Y-113034500D01*
X143601341Y-113014815D01*
X143555586Y-112962011D01*
X143545642Y-112892853D01*
X143574667Y-112829297D01*
X143583496Y-112820108D01*
X143625035Y-112781100D01*
X143677849Y-112731504D01*
X143870385Y-112498768D01*
X144032233Y-112243736D01*
X144160841Y-111970430D01*
X144254181Y-111683160D01*
X144310780Y-111386457D01*
X144310781Y-111386446D01*
X144329746Y-111085005D01*
X144329746Y-111084994D01*
X144310781Y-110783553D01*
X144310780Y-110783546D01*
X144310780Y-110783543D01*
X144254181Y-110486840D01*
X144160841Y-110199570D01*
X144128829Y-110131542D01*
X144106739Y-110084597D01*
X144032233Y-109926264D01*
X143870385Y-109671232D01*
X143677849Y-109438496D01*
X143595686Y-109361340D01*
X143457663Y-109231727D01*
X143457653Y-109231719D01*
X143213306Y-109054191D01*
X143213299Y-109054186D01*
X143213295Y-109054184D01*
X142948604Y-108908668D01*
X142948601Y-108908666D01*
X142948596Y-108908664D01*
X142948595Y-108908663D01*
X142667765Y-108797475D01*
X142667762Y-108797474D01*
X142394808Y-108727393D01*
X142334770Y-108691655D01*
X142303584Y-108629132D01*
X142311152Y-108559673D01*
X142352913Y-108508000D01*
X142352405Y-108507311D01*
X142355045Y-108505362D01*
X142355070Y-108505332D01*
X142355162Y-108505275D01*
X142359878Y-108501794D01*
X142359882Y-108501793D01*
X142469150Y-108421150D01*
X142549793Y-108311882D01*
X142589467Y-108198500D01*
X142594646Y-108183701D01*
X142594646Y-108183699D01*
X142597500Y-108153269D01*
X142597500Y-107294723D01*
X142597365Y-107291838D01*
X142597385Y-107291837D01*
X142597000Y-107283602D01*
X142597000Y-105789001D01*
X145234318Y-105789001D01*
X145254955Y-105945760D01*
X145254956Y-105945762D01*
X145300966Y-106056841D01*
X145315464Y-106091841D01*
X145411718Y-106217282D01*
X145537159Y-106313536D01*
X145683238Y-106374044D01*
X145761619Y-106384363D01*
X145839999Y-106394682D01*
X145840000Y-106394682D01*
X145840001Y-106394682D01*
X145892254Y-106387802D01*
X145996762Y-106374044D01*
X146142841Y-106313536D01*
X146268282Y-106217282D01*
X146364536Y-106091841D01*
X146425044Y-105945762D01*
X146445682Y-105789000D01*
X146444265Y-105778239D01*
X146425044Y-105632239D01*
X146425044Y-105632238D01*
X146364536Y-105486159D01*
X146268282Y-105360718D01*
X146142841Y-105264464D01*
X145996762Y-105203956D01*
X145996760Y-105203955D01*
X145840001Y-105183318D01*
X145839999Y-105183318D01*
X145683239Y-105203955D01*
X145683237Y-105203956D01*
X145537160Y-105264463D01*
X145411718Y-105360718D01*
X145315463Y-105486160D01*
X145254956Y-105632237D01*
X145254955Y-105632239D01*
X145234318Y-105788998D01*
X145234318Y-105789001D01*
X142597000Y-105789001D01*
X142597000Y-105364398D01*
X142597385Y-105356163D01*
X142597365Y-105356163D01*
X142597500Y-105353277D01*
X142597500Y-104494730D01*
X142594646Y-104464301D01*
X142575790Y-104410414D01*
X142572227Y-104340635D01*
X142606956Y-104280007D01*
X142668949Y-104247780D01*
X142671427Y-104247331D01*
X142671720Y-104247267D01*
X142671723Y-104247266D01*
X142671736Y-104247264D01*
X142709411Y-104237246D01*
X142753330Y-104220971D01*
X142758472Y-104218987D01*
X142833637Y-104166887D01*
X142880765Y-104115304D01*
X142913671Y-104066946D01*
X142926276Y-104041159D01*
X142949992Y-104007943D01*
X142954944Y-104002991D01*
X142988167Y-103979272D01*
X142995690Y-103975594D01*
X143050141Y-103963000D01*
X144359857Y-103963000D01*
X144414314Y-103975598D01*
G37*
G04 #@! TD.AperFunction*
G04 #@! TA.AperFunction,Conductor*
G36*
X170349334Y-98449312D02*
G01*
X170405267Y-98491184D01*
X170429684Y-98556648D01*
X170430000Y-98565494D01*
X170430000Y-112178907D01*
X170429403Y-112191061D01*
X170414874Y-112338573D01*
X170410132Y-112362414D01*
X170368881Y-112498403D01*
X170359578Y-112520862D01*
X170292589Y-112646187D01*
X170279084Y-112666398D01*
X170188934Y-112776246D01*
X170171746Y-112793434D01*
X170061898Y-112883584D01*
X170041687Y-112897089D01*
X169916362Y-112964078D01*
X169893903Y-112973381D01*
X169757914Y-113014632D01*
X169734073Y-113019374D01*
X169586561Y-113033903D01*
X169574407Y-113034500D01*
X166513632Y-113034500D01*
X166446593Y-113014815D01*
X166400838Y-112962011D01*
X166390894Y-112892853D01*
X166419919Y-112829297D01*
X166438141Y-112812127D01*
X166495282Y-112768282D01*
X166591536Y-112642841D01*
X166652044Y-112496762D01*
X166672682Y-112340000D01*
X166669539Y-112316130D01*
X166652044Y-112183239D01*
X166652044Y-112183238D01*
X166591536Y-112037159D01*
X166495282Y-111911718D01*
X166369841Y-111815464D01*
X166342601Y-111804181D01*
X166291659Y-111783080D01*
X166223762Y-111754956D01*
X166214582Y-111753747D01*
X166188452Y-111750307D01*
X166124556Y-111722039D01*
X166086085Y-111663714D01*
X166085255Y-111593849D01*
X166116956Y-111539689D01*
X167189006Y-110467640D01*
X167189011Y-110467636D01*
X167199214Y-110457432D01*
X167199216Y-110457432D01*
X167311020Y-110345628D01*
X167373584Y-110237263D01*
X167390077Y-110208697D01*
X167431001Y-110055969D01*
X167431001Y-109897855D01*
X167431001Y-109890260D01*
X167431000Y-109890242D01*
X167431000Y-108992148D01*
X167431001Y-108992135D01*
X167431001Y-108824032D01*
X167429067Y-108816814D01*
X167390077Y-108671304D01*
X167362389Y-108623347D01*
X167311024Y-108534378D01*
X167311018Y-108534370D01*
X166605002Y-107828355D01*
X166605000Y-107828352D01*
X166486129Y-107709481D01*
X166486128Y-107709480D01*
X166376536Y-107646207D01*
X166376534Y-107646206D01*
X166349197Y-107630423D01*
X166349196Y-107630422D01*
X166349195Y-107630422D01*
X166293293Y-107615443D01*
X166196469Y-107589499D01*
X166038355Y-107589499D01*
X166030759Y-107589499D01*
X166030743Y-107589500D01*
X163670548Y-107589500D01*
X163603509Y-107569815D01*
X163557754Y-107517011D01*
X163547810Y-107447853D01*
X163567448Y-107396606D01*
X163568367Y-107395231D01*
X163580000Y-107336748D01*
X163580000Y-105697252D01*
X163580000Y-105692142D01*
X163579999Y-105692116D01*
X163579999Y-102889248D01*
X163579999Y-102889246D01*
X163552706Y-102787386D01*
X163499979Y-102696060D01*
X163499978Y-102696059D01*
X163497230Y-102691299D01*
X163480757Y-102623399D01*
X163503609Y-102557372D01*
X163558531Y-102514181D01*
X163586741Y-102506595D01*
X163586893Y-102506573D01*
X163691983Y-102455198D01*
X163774698Y-102372483D01*
X163826073Y-102267393D01*
X163836000Y-102199260D01*
X163836000Y-101705001D01*
X165506318Y-101705001D01*
X165526955Y-101861760D01*
X165526956Y-101861762D01*
X165587464Y-102007841D01*
X165683718Y-102133282D01*
X165809159Y-102229536D01*
X165955238Y-102290044D01*
X166033619Y-102300363D01*
X166111999Y-102310682D01*
X166112000Y-102310682D01*
X166112001Y-102310682D01*
X166164254Y-102303802D01*
X166268762Y-102290044D01*
X166414841Y-102229536D01*
X166540282Y-102133282D01*
X166636536Y-102007841D01*
X166697044Y-101861762D01*
X166717682Y-101705000D01*
X166709274Y-101641138D01*
X166697332Y-101550423D01*
X166697044Y-101548238D01*
X166636536Y-101402159D01*
X166540282Y-101276718D01*
X166414841Y-101180464D01*
X166395259Y-101172353D01*
X166268762Y-101119956D01*
X166268760Y-101119955D01*
X166112001Y-101099318D01*
X166111999Y-101099318D01*
X165955239Y-101119955D01*
X165955237Y-101119956D01*
X165809160Y-101180463D01*
X165683718Y-101276718D01*
X165587463Y-101402160D01*
X165526956Y-101548237D01*
X165526955Y-101548239D01*
X165506318Y-101704998D01*
X165506318Y-101705001D01*
X163836000Y-101705001D01*
X163836000Y-101342257D01*
X163855685Y-101275218D01*
X163859424Y-101269900D01*
X163860032Y-101268845D01*
X163860036Y-101268841D01*
X163920544Y-101122762D01*
X163941182Y-100966000D01*
X163940353Y-100959706D01*
X163925713Y-100848499D01*
X163920544Y-100809238D01*
X163864806Y-100674674D01*
X163860037Y-100663161D01*
X163856770Y-100657502D01*
X163840296Y-100589603D01*
X163863147Y-100523575D01*
X163918067Y-100480383D01*
X163964156Y-100471500D01*
X166050851Y-100471500D01*
X166050853Y-100471500D01*
X166133639Y-100449318D01*
X166207862Y-100406465D01*
X167813507Y-98800818D01*
X167874830Y-98767334D01*
X167901188Y-98764500D01*
X169839656Y-98764500D01*
X169839658Y-98764500D01*
X169922444Y-98742318D01*
X169996667Y-98699465D01*
X170218319Y-98477813D01*
X170279642Y-98444328D01*
X170349334Y-98449312D01*
G37*
G04 #@! TD.AperFunction*
G04 #@! TA.AperFunction,Conductor*
G36*
X152082039Y-88915185D02*
G01*
X152127794Y-88967989D01*
X152139000Y-89019500D01*
X152139000Y-90199500D01*
X152119315Y-90266539D01*
X152066511Y-90312294D01*
X152015000Y-90323500D01*
X151353147Y-90323500D01*
X151270359Y-90345682D01*
X151196138Y-90388535D01*
X151196135Y-90388537D01*
X149696492Y-91888181D01*
X149635169Y-91921666D01*
X149608811Y-91924500D01*
X146340023Y-91924500D01*
X146211397Y-91953858D01*
X146092526Y-92011104D01*
X146022812Y-92066699D01*
X145958125Y-92093107D01*
X145889430Y-92080350D01*
X145838536Y-92032479D01*
X145821500Y-91969751D01*
X145821500Y-91678705D01*
X145821507Y-91678606D01*
X145821506Y-91668675D01*
X145821507Y-91668673D01*
X145821506Y-91668526D01*
X145821542Y-91668403D01*
X145821535Y-91617119D01*
X145821536Y-91617119D01*
X145821527Y-91551151D01*
X145792154Y-91422526D01*
X145734897Y-91303660D01*
X145676333Y-91230236D01*
X145652629Y-91200517D01*
X145652627Y-91200516D01*
X145652627Y-91200515D01*
X145617867Y-91172798D01*
X145549471Y-91118260D01*
X145430598Y-91061019D01*
X145371041Y-91047427D01*
X145301968Y-91031663D01*
X145301966Y-91031663D01*
X145236000Y-91031664D01*
X145055373Y-91031664D01*
X145054832Y-91031699D01*
X145040036Y-91031699D01*
X144911414Y-91061053D01*
X144839880Y-91095499D01*
X144792547Y-91118291D01*
X144689400Y-91200538D01*
X144689395Y-91200543D01*
X144607136Y-91303675D01*
X144607135Y-91303678D01*
X144607134Y-91303679D01*
X144607134Y-91303680D01*
X144606119Y-91305787D01*
X144549878Y-91422541D01*
X144520508Y-91551151D01*
X144520508Y-91551159D01*
X144520506Y-91566675D01*
X144520500Y-91566773D01*
X144520500Y-91574311D01*
X144520500Y-91616504D01*
X144520500Y-91617119D01*
X144520496Y-91651191D01*
X144520492Y-91678606D01*
X144520500Y-91678705D01*
X144520500Y-91800500D01*
X144500815Y-91867539D01*
X144448011Y-91913294D01*
X144396500Y-91924500D01*
X144151454Y-91924500D01*
X144151437Y-91924499D01*
X144143844Y-91924499D01*
X144100996Y-91924499D01*
X144100990Y-91924500D01*
X144058143Y-91924500D01*
X144058132Y-91924502D01*
X144019189Y-91934938D01*
X144019187Y-91934939D01*
X143975364Y-91946681D01*
X143975352Y-91946685D01*
X143974205Y-91947246D01*
X143971901Y-91948677D01*
X143942836Y-91965460D01*
X143942830Y-91965464D01*
X143901137Y-91989535D01*
X143901125Y-91989543D01*
X143900493Y-91989990D01*
X143900415Y-91990016D01*
X143899719Y-91990481D01*
X143899687Y-91990434D01*
X143899431Y-91990594D01*
X143899307Y-91990395D01*
X143834384Y-92012604D01*
X143766543Y-91995887D01*
X143741249Y-91976405D01*
X142905025Y-91140180D01*
X142905001Y-91140159D01*
X142895640Y-91130798D01*
X142895638Y-91130796D01*
X142787737Y-91062999D01*
X142787736Y-91062998D01*
X142787732Y-91062996D01*
X142667456Y-91020910D01*
X142540829Y-91006643D01*
X142540821Y-91006643D01*
X142414194Y-91020910D01*
X142414191Y-91020910D01*
X142293917Y-91062996D01*
X142186007Y-91130799D01*
X142171260Y-91145546D01*
X142171259Y-91145548D01*
X142140957Y-91175849D01*
X142140955Y-91175850D01*
X142126789Y-91190015D01*
X142020403Y-91296400D01*
X142019972Y-91296890D01*
X142011078Y-91305784D01*
X142011076Y-91305787D01*
X141943286Y-91413671D01*
X141901198Y-91533934D01*
X141901198Y-91533937D01*
X141899699Y-91547231D01*
X141872626Y-91611642D01*
X141815027Y-91651191D01*
X141745190Y-91653322D01*
X141700783Y-91627881D01*
X141699002Y-91630116D01*
X141693560Y-91625777D01*
X141693557Y-91625775D01*
X141693555Y-91625773D01*
X141585654Y-91557976D01*
X141585653Y-91557975D01*
X141585649Y-91557973D01*
X141465373Y-91515887D01*
X141338746Y-91501620D01*
X141338738Y-91501620D01*
X141212111Y-91515887D01*
X141212108Y-91515887D01*
X141091834Y-91557973D01*
X140983924Y-91625776D01*
X140969177Y-91640523D01*
X140969176Y-91640525D01*
X140938874Y-91670826D01*
X140927036Y-91682664D01*
X140927034Y-91682666D01*
X140896866Y-91712832D01*
X140896762Y-91712922D01*
X140890334Y-91719352D01*
X140890120Y-91719468D01*
X140808882Y-91800734D01*
X140808880Y-91800737D01*
X140789273Y-91831954D01*
X140736946Y-91878254D01*
X140684268Y-91890000D01*
X138807248Y-91890000D01*
X138797525Y-91889618D01*
X138796025Y-91889500D01*
X138796019Y-91889500D01*
X138607644Y-91889500D01*
X138589997Y-91888238D01*
X138589601Y-91888181D01*
X138564000Y-91884500D01*
X138563998Y-91884500D01*
X138174012Y-91884500D01*
X138171235Y-91884318D01*
X138157765Y-91884318D01*
X138154988Y-91884500D01*
X137487992Y-91884500D01*
X137444313Y-91889197D01*
X137392825Y-91900397D01*
X137382627Y-91902890D01*
X137382624Y-91902891D01*
X137301916Y-91945899D01*
X137301913Y-91945901D01*
X137249104Y-91991660D01*
X137231160Y-92009242D01*
X137231154Y-92009249D01*
X137186511Y-92089059D01*
X137186509Y-92089064D01*
X137166826Y-92156096D01*
X137166825Y-92156101D01*
X137166825Y-92156102D01*
X137160388Y-92200874D01*
X137158500Y-92214003D01*
X137158500Y-94016007D01*
X137163197Y-94059686D01*
X137174397Y-94111174D01*
X137176342Y-94119133D01*
X137176890Y-94121373D01*
X137219900Y-94202085D01*
X137227192Y-94210500D01*
X137265660Y-94254895D01*
X137276541Y-94266000D01*
X137283246Y-94272843D01*
X137288996Y-94276059D01*
X137337895Y-94325964D01*
X137352052Y-94394384D01*
X137326970Y-94459597D01*
X137316146Y-94471961D01*
X137236451Y-94551656D01*
X137236451Y-94551657D01*
X137178852Y-94664698D01*
X137164000Y-94758475D01*
X137164000Y-95221517D01*
X137174792Y-95289657D01*
X137178854Y-95315304D01*
X137236450Y-95428342D01*
X137236452Y-95428344D01*
X137236454Y-95428347D01*
X137333058Y-95524951D01*
X137331015Y-95526993D01*
X137364189Y-95570016D01*
X137370165Y-95639630D01*
X137337557Y-95701424D01*
X137331012Y-95707094D01*
X137236454Y-95801652D01*
X137236451Y-95801657D01*
X137236450Y-95801658D01*
X137217251Y-95839337D01*
X137178852Y-95914698D01*
X137164000Y-96008475D01*
X137164000Y-96471517D01*
X137168092Y-96497350D01*
X137178854Y-96565304D01*
X137236450Y-96678342D01*
X137236452Y-96678344D01*
X137236454Y-96678347D01*
X137326152Y-96768045D01*
X137326154Y-96768046D01*
X137326158Y-96768050D01*
X137439194Y-96825645D01*
X137439198Y-96825647D01*
X137532975Y-96840499D01*
X137532981Y-96840500D01*
X138796018Y-96840499D01*
X138889804Y-96825646D01*
X139002842Y-96768050D01*
X139002843Y-96768048D01*
X139010760Y-96764015D01*
X139067055Y-96750500D01*
X139832740Y-96750500D01*
X141357811Y-96750500D01*
X141424850Y-96770185D01*
X141445492Y-96786819D01*
X141740194Y-97081520D01*
X141740204Y-97081531D01*
X141744534Y-97085861D01*
X141744535Y-97085862D01*
X141805138Y-97146465D01*
X141805140Y-97146466D01*
X141805141Y-97146467D01*
X141834670Y-97163515D01*
X141834672Y-97163517D01*
X141834673Y-97163517D01*
X141879361Y-97189318D01*
X141962147Y-97211500D01*
X142047853Y-97211500D01*
X143328043Y-97211500D01*
X143395082Y-97231185D01*
X143440837Y-97283989D01*
X143450781Y-97353147D01*
X143421756Y-97416703D01*
X143403532Y-97433872D01*
X143397218Y-97438718D01*
X143379847Y-97461357D01*
X143300963Y-97564160D01*
X143240456Y-97710237D01*
X143240455Y-97710239D01*
X143219818Y-97866998D01*
X143219818Y-97867001D01*
X143240455Y-98023760D01*
X143240456Y-98023762D01*
X143300615Y-98169000D01*
X143300964Y-98169841D01*
X143397218Y-98295282D01*
X143522659Y-98391536D01*
X143668738Y-98452044D01*
X143746732Y-98462312D01*
X143825499Y-98472682D01*
X143825500Y-98472682D01*
X143825501Y-98472682D01*
X143904268Y-98462312D01*
X143982262Y-98452044D01*
X144128341Y-98391536D01*
X144226516Y-98316203D01*
X144291682Y-98291011D01*
X144360127Y-98305049D01*
X144410117Y-98353863D01*
X144426000Y-98414581D01*
X144426000Y-99823500D01*
X144406315Y-99890539D01*
X144353511Y-99936294D01*
X144302000Y-99947500D01*
X143021739Y-99947500D01*
X142953608Y-99957426D01*
X142848514Y-100008803D01*
X142765803Y-100091514D01*
X142714426Y-100196608D01*
X142704500Y-100264739D01*
X142704500Y-100631265D01*
X142704675Y-100633679D01*
X142705000Y-100642645D01*
X142705000Y-101523357D01*
X142704675Y-101532324D01*
X142704500Y-101534737D01*
X142704500Y-101560902D01*
X142684815Y-101627941D01*
X142632011Y-101673696D01*
X142562853Y-101683640D01*
X142499297Y-101654615D01*
X142492819Y-101648583D01*
X142473718Y-101629482D01*
X142473716Y-101629480D01*
X142473713Y-101629478D01*
X142473709Y-101629475D01*
X142446372Y-101613692D01*
X142432887Y-101604682D01*
X142407840Y-101585463D01*
X142407839Y-101585462D01*
X142378668Y-101573379D01*
X142364123Y-101566207D01*
X142336784Y-101550423D01*
X142336781Y-101550422D01*
X142306288Y-101542251D01*
X142290932Y-101537038D01*
X142261764Y-101524956D01*
X142230450Y-101520833D01*
X142214552Y-101517670D01*
X142184057Y-101509500D01*
X142152487Y-101509500D01*
X142136302Y-101508439D01*
X142105000Y-101504318D01*
X142073697Y-101508439D01*
X142057513Y-101509500D01*
X141742601Y-101509500D01*
X141675562Y-101489815D01*
X141629807Y-101437011D01*
X141625560Y-101426457D01*
X141618793Y-101407119D01*
X141618793Y-101407118D01*
X141538150Y-101297850D01*
X141428882Y-101217207D01*
X141428880Y-101217206D01*
X141300700Y-101172353D01*
X141270270Y-101169500D01*
X141270266Y-101169500D01*
X139911734Y-101169500D01*
X139911730Y-101169500D01*
X139881300Y-101172353D01*
X139881298Y-101172353D01*
X139753119Y-101217206D01*
X139753117Y-101217207D01*
X139643850Y-101297850D01*
X139563207Y-101407117D01*
X139563206Y-101407119D01*
X139518353Y-101535298D01*
X139518353Y-101535300D01*
X139515500Y-101565730D01*
X139515500Y-101979913D01*
X139495815Y-102046952D01*
X139443011Y-102092707D01*
X139373853Y-102102651D01*
X139310297Y-102073626D01*
X139303819Y-102067594D01*
X138524818Y-101288593D01*
X138491333Y-101227270D01*
X138489560Y-101217097D01*
X138484737Y-101180464D01*
X138474044Y-101099238D01*
X138413536Y-100953159D01*
X138317282Y-100827718D01*
X138191841Y-100731464D01*
X138117046Y-100700483D01*
X138045762Y-100670956D01*
X138045760Y-100670955D01*
X137889001Y-100650318D01*
X137888999Y-100650318D01*
X137732239Y-100670955D01*
X137732234Y-100670957D01*
X137660952Y-100700483D01*
X137591483Y-100707952D01*
X137529004Y-100676676D01*
X137493352Y-100616587D01*
X137489500Y-100585922D01*
X137489500Y-99624269D01*
X139515500Y-99624269D01*
X139518353Y-99654699D01*
X139518353Y-99654701D01*
X139562959Y-99782173D01*
X139563207Y-99782882D01*
X139643850Y-99892150D01*
X139753118Y-99972793D01*
X139795845Y-99987744D01*
X139881299Y-100017646D01*
X139911730Y-100020500D01*
X139911734Y-100020500D01*
X141270270Y-100020500D01*
X141300699Y-100017646D01*
X141300701Y-100017646D01*
X141364790Y-99995219D01*
X141428882Y-99972793D01*
X141538150Y-99892150D01*
X141618793Y-99782882D01*
X141651059Y-99690671D01*
X141663646Y-99654701D01*
X141663646Y-99654699D01*
X141666500Y-99624269D01*
X141666500Y-98765730D01*
X141663646Y-98735300D01*
X141663646Y-98735298D01*
X141629342Y-98637266D01*
X141618793Y-98607118D01*
X141538150Y-98497850D01*
X141428882Y-98417207D01*
X141428880Y-98417206D01*
X141300700Y-98372353D01*
X141270270Y-98369500D01*
X141270266Y-98369500D01*
X139911734Y-98369500D01*
X139911730Y-98369500D01*
X139881300Y-98372353D01*
X139881298Y-98372353D01*
X139753119Y-98417206D01*
X139753117Y-98417207D01*
X139643850Y-98497850D01*
X139563207Y-98607117D01*
X139563206Y-98607119D01*
X139518353Y-98735298D01*
X139518353Y-98735300D01*
X139515500Y-98765730D01*
X139515500Y-99624269D01*
X137489500Y-99624269D01*
X137489500Y-99254858D01*
X137489500Y-99254856D01*
X137465614Y-99165712D01*
X137465613Y-99165711D01*
X137465613Y-99165709D01*
X137451311Y-99140939D01*
X137451309Y-99140936D01*
X137443647Y-99127665D01*
X137419470Y-99085788D01*
X134589273Y-96255591D01*
X134555788Y-96194268D01*
X134556488Y-96143348D01*
X134556236Y-96143318D01*
X134556521Y-96140968D01*
X134556559Y-96138226D01*
X134557135Y-96135883D01*
X134557140Y-96135872D01*
X134577645Y-95967000D01*
X134557140Y-95798128D01*
X134496818Y-95639070D01*
X134480364Y-95615233D01*
X134449153Y-95570016D01*
X134400183Y-95499071D01*
X134272852Y-95386266D01*
X134272849Y-95386263D01*
X134122226Y-95307210D01*
X133957056Y-95266500D01*
X133786944Y-95266500D01*
X133621773Y-95307210D01*
X133471150Y-95386264D01*
X133371227Y-95474788D01*
X133307994Y-95504509D01*
X133238730Y-95495325D01*
X133185427Y-95450153D01*
X133165007Y-95383334D01*
X133165000Y-95381972D01*
X133165000Y-92617027D01*
X133184685Y-92549988D01*
X133237489Y-92504233D01*
X133306647Y-92494289D01*
X133370203Y-92523314D01*
X133371221Y-92524207D01*
X133463464Y-92605927D01*
X133471147Y-92612733D01*
X133471149Y-92612735D01*
X133603848Y-92682381D01*
X133621775Y-92691790D01*
X133786944Y-92732500D01*
X133957056Y-92732500D01*
X134122225Y-92691790D01*
X134207564Y-92647000D01*
X134272849Y-92612736D01*
X134272850Y-92612734D01*
X134272852Y-92612734D01*
X134400183Y-92499929D01*
X134496818Y-92359930D01*
X134557140Y-92200872D01*
X134577645Y-92032000D01*
X134557140Y-91863128D01*
X134546972Y-91836318D01*
X134533479Y-91800738D01*
X134496818Y-91704070D01*
X134486154Y-91688621D01*
X134442773Y-91625773D01*
X134400183Y-91564071D01*
X134272852Y-91451266D01*
X134272849Y-91451263D01*
X134122226Y-91372210D01*
X133957056Y-91331500D01*
X133786944Y-91331500D01*
X133621773Y-91372210D01*
X133471150Y-91451264D01*
X133371227Y-91539788D01*
X133307994Y-91569509D01*
X133238730Y-91560325D01*
X133185427Y-91515153D01*
X133165007Y-91448334D01*
X133165000Y-91446972D01*
X133165000Y-89751092D01*
X133165597Y-89738938D01*
X133180126Y-89591417D01*
X133184865Y-89567593D01*
X133226122Y-89431585D01*
X133235416Y-89409148D01*
X133302413Y-89283806D01*
X133315911Y-89263606D01*
X133406069Y-89153748D01*
X133423248Y-89136569D01*
X133533106Y-89046411D01*
X133553306Y-89032913D01*
X133678648Y-88965916D01*
X133701085Y-88956622D01*
X133837093Y-88915365D01*
X133860919Y-88910626D01*
X133985015Y-88898404D01*
X134008440Y-88896097D01*
X134020593Y-88895500D01*
X134080392Y-88895500D01*
X152015000Y-88895500D01*
X152082039Y-88915185D01*
G37*
G04 #@! TD.AperFunction*
G04 #@! TA.AperFunction,Conductor*
G36*
X144448737Y-95217685D02*
G01*
X144493099Y-95267541D01*
X144526802Y-95336484D01*
X144609514Y-95419196D01*
X144609515Y-95419196D01*
X144609517Y-95419198D01*
X144714607Y-95470573D01*
X144734429Y-95473461D01*
X144782739Y-95480500D01*
X144782740Y-95480500D01*
X145575108Y-95480500D01*
X147240616Y-95480500D01*
X147260015Y-95482027D01*
X147313508Y-95490500D01*
X147313512Y-95490500D01*
X147880494Y-95490500D01*
X147881994Y-95490382D01*
X147891717Y-95490000D01*
X149858500Y-95490000D01*
X149925539Y-95509685D01*
X149971294Y-95562489D01*
X149982500Y-95614000D01*
X149982500Y-96710945D01*
X149968986Y-96767238D01*
X149948279Y-96807877D01*
X149932500Y-96907506D01*
X149932500Y-97329811D01*
X149912815Y-97396850D01*
X149896181Y-97417492D01*
X149685537Y-97628135D01*
X149685535Y-97628138D01*
X149642680Y-97702363D01*
X149629763Y-97750575D01*
X149620500Y-97785145D01*
X149620500Y-99177658D01*
X149600815Y-99244697D01*
X149548011Y-99290452D01*
X149480317Y-99300597D01*
X149463004Y-99298318D01*
X149462999Y-99298318D01*
X149306239Y-99318955D01*
X149306237Y-99318956D01*
X149160160Y-99379463D01*
X149034718Y-99475718D01*
X148938463Y-99601160D01*
X148933061Y-99614203D01*
X148889220Y-99668606D01*
X148822925Y-99690671D01*
X148755226Y-99673392D01*
X148707616Y-99622254D01*
X148694500Y-99566750D01*
X148694500Y-98649947D01*
X148694501Y-98649934D01*
X148694501Y-98554241D01*
X148679699Y-98498998D01*
X148672318Y-98471454D01*
X148669382Y-98466368D01*
X148667040Y-98462312D01*
X148629467Y-98397233D01*
X148629466Y-98397232D01*
X148629465Y-98397230D01*
X148568862Y-98336627D01*
X148568861Y-98336626D01*
X148564531Y-98332296D01*
X148564520Y-98332286D01*
X146857772Y-96625537D01*
X146857771Y-96625536D01*
X146857770Y-96625535D01*
X146820658Y-96604108D01*
X146783548Y-96582682D01*
X146718690Y-96565304D01*
X146700761Y-96560500D01*
X146700760Y-96560500D01*
X143748461Y-96560500D01*
X143681422Y-96540815D01*
X143635667Y-96488011D01*
X143624462Y-96437047D01*
X143624432Y-96430311D01*
X143619549Y-95322546D01*
X143638938Y-95255421D01*
X143691540Y-95209434D01*
X143743548Y-95198000D01*
X144381698Y-95198000D01*
X144448737Y-95217685D01*
G37*
G04 #@! TD.AperFunction*
G04 #@! TA.AperFunction,Conductor*
G36*
X158272952Y-96612526D02*
G01*
X158295428Y-96616085D01*
X158332324Y-96628072D01*
X158359427Y-96641881D01*
X158390811Y-96664683D01*
X158412311Y-96686183D01*
X158435113Y-96717567D01*
X158435116Y-96717573D01*
X158448923Y-96744669D01*
X158460912Y-96781563D01*
X158464473Y-96804041D01*
X158466000Y-96823443D01*
X158466000Y-97042007D01*
X158470697Y-97085686D01*
X158481897Y-97137174D01*
X158482957Y-97141510D01*
X158484168Y-97146466D01*
X158484390Y-97147372D01*
X158484391Y-97147375D01*
X158527399Y-97228083D01*
X158527401Y-97228086D01*
X158573160Y-97280895D01*
X158574200Y-97281956D01*
X158590746Y-97298843D01*
X158590747Y-97298844D01*
X158590749Y-97298845D01*
X158670559Y-97343488D01*
X158670563Y-97343490D01*
X158737602Y-97363175D01*
X158795500Y-97371500D01*
X158836324Y-97371500D01*
X158903363Y-97391185D01*
X158949118Y-97443989D01*
X158959062Y-97513147D01*
X158930037Y-97576703D01*
X158924005Y-97583181D01*
X158570502Y-97936683D01*
X158570500Y-97936686D01*
X158504608Y-98050812D01*
X158470500Y-98178108D01*
X158470500Y-98835324D01*
X158450815Y-98902363D01*
X158434181Y-98923005D01*
X157925005Y-99432181D01*
X157863682Y-99465666D01*
X157837324Y-99468500D01*
X156466647Y-99468500D01*
X156459018Y-99469000D01*
X155639000Y-99469000D01*
X155571961Y-99449315D01*
X155526206Y-99396511D01*
X155515000Y-99345000D01*
X155515000Y-98481323D01*
X155534685Y-98414284D01*
X155585198Y-98369603D01*
X155585727Y-98369348D01*
X155585728Y-98369348D01*
X155668127Y-98329666D01*
X155725149Y-98258163D01*
X155745500Y-98169000D01*
X155745500Y-98082000D01*
X155765185Y-98014961D01*
X155817989Y-97969206D01*
X155869500Y-97958000D01*
X157015003Y-97958000D01*
X157015003Y-97957999D01*
X157060728Y-97952848D01*
X157143127Y-97913166D01*
X157200149Y-97841663D01*
X157220500Y-97752500D01*
X157220500Y-97051944D01*
X157240185Y-96984905D01*
X157292989Y-96939150D01*
X157314694Y-96931580D01*
X157328853Y-96928073D01*
X157350685Y-96922667D01*
X157374670Y-96915143D01*
X157450688Y-96864295D01*
X157498663Y-96813499D01*
X157532365Y-96765691D01*
X157556884Y-96717568D01*
X157579682Y-96686189D01*
X157601185Y-96664685D01*
X157632566Y-96641885D01*
X157636873Y-96639689D01*
X157659671Y-96628073D01*
X157696567Y-96616085D01*
X157719050Y-96612524D01*
X157738439Y-96611000D01*
X158253559Y-96611000D01*
X158272952Y-96612526D01*
G37*
G04 #@! TD.AperFunction*
G04 #@! TA.AperFunction,Conductor*
G36*
X169586561Y-88896097D02*
G01*
X169734080Y-88910626D01*
X169757908Y-88915365D01*
X169893910Y-88956621D01*
X169916355Y-88965918D01*
X170016599Y-89019500D01*
X170041687Y-89032910D01*
X170061898Y-89046415D01*
X170171746Y-89136565D01*
X170188934Y-89153753D01*
X170279084Y-89263601D01*
X170292589Y-89283812D01*
X170359578Y-89409137D01*
X170368880Y-89431594D01*
X170371026Y-89438668D01*
X170410132Y-89567585D01*
X170414874Y-89591426D01*
X170429403Y-89738938D01*
X170430000Y-89751092D01*
X170430000Y-91718000D01*
X170410315Y-91785039D01*
X170357511Y-91830794D01*
X170306000Y-91842000D01*
X169031785Y-91842000D01*
X169015600Y-91840939D01*
X168980500Y-91836318D01*
X168980499Y-91836318D01*
X168823739Y-91856955D01*
X168823737Y-91856956D01*
X168677660Y-91917463D01*
X168677659Y-91917464D01*
X168552218Y-92013718D01*
X168552216Y-92013720D01*
X168549407Y-92015876D01*
X168484237Y-92041070D01*
X168473920Y-92041500D01*
X168329843Y-92041500D01*
X168227980Y-92068793D01*
X168136657Y-92121520D01*
X168136654Y-92121522D01*
X165904994Y-94353181D01*
X165843671Y-94386666D01*
X165817313Y-94389500D01*
X164798977Y-94389500D01*
X164797490Y-94389618D01*
X164787767Y-94390000D01*
X164058500Y-94390000D01*
X163991461Y-94370315D01*
X163945706Y-94317511D01*
X163934500Y-94266000D01*
X163934500Y-93176487D01*
X163935561Y-93160301D01*
X163939682Y-93129000D01*
X163939682Y-93128998D01*
X163935561Y-93097697D01*
X163934500Y-93081512D01*
X163934500Y-93049945D01*
X163934500Y-93049943D01*
X163926327Y-93019441D01*
X163923164Y-93003536D01*
X163922411Y-92997819D01*
X163919044Y-92972238D01*
X163906957Y-92943060D01*
X163901745Y-92927703D01*
X163893577Y-92897216D01*
X163882193Y-92877498D01*
X163877791Y-92869873D01*
X163870617Y-92855326D01*
X163869420Y-92852437D01*
X163858536Y-92826159D01*
X163839311Y-92801104D01*
X163830305Y-92787625D01*
X163814522Y-92760287D01*
X163814518Y-92760282D01*
X163792196Y-92737960D01*
X163781501Y-92725765D01*
X163762281Y-92700717D01*
X163737233Y-92681497D01*
X163725039Y-92670803D01*
X163702718Y-92648482D01*
X163702716Y-92648480D01*
X163702713Y-92648478D01*
X163702709Y-92648475D01*
X163675372Y-92632692D01*
X163661887Y-92623682D01*
X163636840Y-92604463D01*
X163636839Y-92604462D01*
X163607668Y-92592379D01*
X163593123Y-92585207D01*
X163581218Y-92578334D01*
X163565784Y-92569423D01*
X163565783Y-92569422D01*
X163558746Y-92565360D01*
X163559937Y-92563296D01*
X163514993Y-92527073D01*
X163492933Y-92460778D01*
X163510216Y-92393080D01*
X163521311Y-92377319D01*
X163523643Y-92374500D01*
X163619385Y-92258768D01*
X163781233Y-92003736D01*
X163909841Y-91730430D01*
X164003181Y-91443160D01*
X164059780Y-91146457D01*
X164059837Y-91145548D01*
X164078746Y-90845005D01*
X164078746Y-90844994D01*
X164059781Y-90543553D01*
X164059780Y-90543546D01*
X164059780Y-90543543D01*
X164003181Y-90246840D01*
X163909841Y-89959570D01*
X163902887Y-89944793D01*
X163834996Y-89800517D01*
X163781233Y-89686264D01*
X163693052Y-89547312D01*
X163619388Y-89431236D01*
X163619385Y-89431232D01*
X163426849Y-89198496D01*
X163369150Y-89144313D01*
X163332496Y-89109892D01*
X163297101Y-89049651D01*
X163299895Y-88979837D01*
X163339989Y-88922616D01*
X163404654Y-88896155D01*
X163417380Y-88895500D01*
X169514608Y-88895500D01*
X169574407Y-88895500D01*
X169586561Y-88896097D01*
G37*
G04 #@! TD.AperFunction*
G04 #@! TA.AperFunction,Conductor*
G36*
X138631039Y-92109685D02*
G01*
X138676794Y-92162489D01*
X138688000Y-92214000D01*
X138688000Y-92343000D01*
X138841000Y-92343000D01*
X138908039Y-92362685D01*
X138953794Y-92415489D01*
X138965000Y-92467000D01*
X138965000Y-94016000D01*
X138945315Y-94083039D01*
X138892511Y-94128794D01*
X138841000Y-94140000D01*
X137488000Y-94140000D01*
X137420961Y-94120315D01*
X137375206Y-94067511D01*
X137364000Y-94016000D01*
X137364000Y-92214000D01*
X137383685Y-92146961D01*
X137436489Y-92101206D01*
X137488000Y-92090000D01*
X138564000Y-92090000D01*
X138631039Y-92109685D01*
G37*
G04 #@! TD.AperFunction*
G04 #@! TA.AperFunction,Conductor*
G36*
X166133854Y-97109685D02*
G01*
X166154496Y-97126319D01*
X166194681Y-97166504D01*
X166228166Y-97227827D01*
X166231000Y-97254185D01*
X166231000Y-99016000D01*
X166211315Y-99083039D01*
X166158511Y-99128794D01*
X166107000Y-99140000D01*
X164754000Y-99140000D01*
X164686961Y-99120315D01*
X164641206Y-99067511D01*
X164630000Y-99016000D01*
X164630000Y-97214000D01*
X164649685Y-97146961D01*
X164702489Y-97101206D01*
X164754000Y-97090000D01*
X166066815Y-97090000D01*
X166133854Y-97109685D01*
G37*
G04 #@! TD.AperFunction*
G04 #@! TA.AperFunction,Conductor*
G36*
X150854347Y-107029685D02*
G01*
X150874989Y-107046319D01*
X151082681Y-107254011D01*
X151116166Y-107315334D01*
X151119000Y-107341692D01*
X151119000Y-108462382D01*
X151099315Y-108529421D01*
X151046511Y-108575176D01*
X150977353Y-108585120D01*
X150933001Y-108569770D01*
X150887687Y-108543608D01*
X150824039Y-108526554D01*
X150760392Y-108509500D01*
X150628608Y-108509500D01*
X150501312Y-108543608D01*
X150387186Y-108609500D01*
X150387183Y-108609502D01*
X150294002Y-108702683D01*
X150293998Y-108702689D01*
X150267838Y-108748000D01*
X150217271Y-108796216D01*
X150160451Y-108810000D01*
X150018500Y-108810000D01*
X149951461Y-108790315D01*
X149905706Y-108737511D01*
X149894500Y-108686000D01*
X149894500Y-107134000D01*
X149914185Y-107066961D01*
X149966989Y-107021206D01*
X150018500Y-107010000D01*
X150787308Y-107010000D01*
X150854347Y-107029685D01*
G37*
G04 #@! TD.AperFunction*
G04 #@! TA.AperFunction,Conductor*
G36*
X154706350Y-93662685D02*
G01*
X154726992Y-93679319D01*
X155476766Y-94429093D01*
X155510251Y-94490416D01*
X155513085Y-94516585D01*
X155514032Y-95139417D01*
X155512771Y-95157248D01*
X155509500Y-95180000D01*
X155509500Y-96309334D01*
X155514651Y-96355058D01*
X155514652Y-96355063D01*
X155514654Y-96355073D01*
X155526927Y-96408852D01*
X155526930Y-96408861D01*
X155533040Y-96426321D01*
X155539999Y-96467275D01*
X155539999Y-96522992D01*
X155540000Y-96523009D01*
X155544696Y-96566681D01*
X155544698Y-96566691D01*
X155555897Y-96618174D01*
X155558390Y-96628372D01*
X155558391Y-96628375D01*
X155601399Y-96709083D01*
X155601401Y-96709086D01*
X155647160Y-96761895D01*
X155664742Y-96779839D01*
X155664746Y-96779843D01*
X155664747Y-96779844D01*
X155664749Y-96779845D01*
X155724914Y-96813499D01*
X155744563Y-96824490D01*
X155811602Y-96844175D01*
X155869500Y-96852500D01*
X156891000Y-96852500D01*
X156958039Y-96872185D01*
X157003794Y-96924989D01*
X157015000Y-96976500D01*
X157015000Y-97310668D01*
X156995315Y-97377707D01*
X156942511Y-97423462D01*
X156887712Y-97434624D01*
X152535712Y-97319201D01*
X152469218Y-97297746D01*
X152424880Y-97243748D01*
X152415000Y-97195245D01*
X152415000Y-96465579D01*
X152428354Y-96409603D01*
X152998643Y-95282337D01*
X153021596Y-95250647D01*
X153097507Y-95174736D01*
X153097511Y-95174734D01*
X153107714Y-95164530D01*
X153107716Y-95164530D01*
X153219520Y-95052726D01*
X153298577Y-94915794D01*
X153336169Y-94775500D01*
X153339500Y-94763068D01*
X153339500Y-94638160D01*
X153352853Y-94582184D01*
X153486000Y-94319000D01*
X153486000Y-93820638D01*
X153505685Y-93753599D01*
X153514992Y-93742050D01*
X153514842Y-93741935D01*
X153519785Y-93735490D01*
X153519791Y-93735485D01*
X153535579Y-93708137D01*
X153544597Y-93694644D01*
X153547011Y-93691499D01*
X153603445Y-93650304D01*
X153645375Y-93643000D01*
X154639311Y-93643000D01*
X154706350Y-93662685D01*
G37*
G04 #@! TD.AperFunction*
M02*
