G04 #@! TF.GenerationSoftware,KiCad,Pcbnew,8.0.1*
G04 #@! TF.CreationDate,2024-03-31T17:13:02+03:00*
G04 #@! TF.ProjectId,Piezo module,5069657a-6f20-46d6-9f64-756c652e6b69,rev?*
G04 #@! TF.SameCoordinates,Original*
G04 #@! TF.FileFunction,Paste,Top*
G04 #@! TF.FilePolarity,Positive*
%FSLAX46Y46*%
G04 Gerber Fmt 4.6, Leading zero omitted, Abs format (unit mm)*
G04 Created by KiCad (PCBNEW 8.0.1) date 2024-03-31 17:13:02*
%MOMM*%
%LPD*%
G01*
G04 APERTURE LIST*
G04 Aperture macros list*
%AMRoundRect*
0 Rectangle with rounded corners*
0 $1 Rounding radius*
0 $2 $3 $4 $5 $6 $7 $8 $9 X,Y pos of 4 corners*
0 Add a 4 corners polygon primitive as box body*
4,1,4,$2,$3,$4,$5,$6,$7,$8,$9,$2,$3,0*
0 Add four circle primitives for the rounded corners*
1,1,$1+$1,$2,$3*
1,1,$1+$1,$4,$5*
1,1,$1+$1,$6,$7*
1,1,$1+$1,$8,$9*
0 Add four rect primitives between the rounded corners*
20,1,$1+$1,$2,$3,$4,$5,0*
20,1,$1+$1,$4,$5,$6,$7,0*
20,1,$1+$1,$6,$7,$8,$9,0*
20,1,$1+$1,$8,$9,$2,$3,0*%
%AMFreePoly0*
4,1,9,3.862500,-0.866500,0.737500,-0.866500,0.737500,-0.450000,-0.737500,-0.450000,-0.737500,0.450000,0.737500,0.450000,0.737500,0.866500,3.862500,0.866500,3.862500,-0.866500,3.862500,-0.866500,$1*%
G04 Aperture macros list end*
%ADD10RoundRect,0.225000X-0.225000X-0.250000X0.225000X-0.250000X0.225000X0.250000X-0.225000X0.250000X0*%
%ADD11RoundRect,0.225000X-0.250000X0.225000X-0.250000X-0.225000X0.250000X-0.225000X0.250000X0.225000X0*%
%ADD12RoundRect,0.200000X-0.200000X-0.275000X0.200000X-0.275000X0.200000X0.275000X-0.200000X0.275000X0*%
%ADD13RoundRect,0.250000X-0.750000X-0.250000X0.750000X-0.250000X0.750000X0.250000X-0.750000X0.250000X0*%
%ADD14RoundRect,0.200000X0.275000X-0.200000X0.275000X0.200000X-0.275000X0.200000X-0.275000X-0.200000X0*%
%ADD15RoundRect,0.150000X-0.150000X0.725000X-0.150000X-0.725000X0.150000X-0.725000X0.150000X0.725000X0*%
%ADD16RoundRect,0.200000X0.600000X-0.200000X0.600000X0.200000X-0.600000X0.200000X-0.600000X-0.200000X0*%
%ADD17RoundRect,0.250001X1.249999X-0.799999X1.249999X0.799999X-1.249999X0.799999X-1.249999X-0.799999X0*%
%ADD18RoundRect,0.200000X-0.600000X0.200000X-0.600000X-0.200000X0.600000X-0.200000X0.600000X0.200000X0*%
%ADD19RoundRect,0.250001X-1.249999X0.799999X-1.249999X-0.799999X1.249999X-0.799999X1.249999X0.799999X0*%
%ADD20RoundRect,0.200000X-0.275000X0.200000X-0.275000X-0.200000X0.275000X-0.200000X0.275000X0.200000X0*%
%ADD21RoundRect,0.250000X0.625000X-0.375000X0.625000X0.375000X-0.625000X0.375000X-0.625000X-0.375000X0*%
%ADD22RoundRect,0.150000X0.825000X0.150000X-0.825000X0.150000X-0.825000X-0.150000X0.825000X-0.150000X0*%
%ADD23RoundRect,0.200000X0.200000X0.275000X-0.200000X0.275000X-0.200000X-0.275000X0.200000X-0.275000X0*%
%ADD24RoundRect,0.250000X-0.625000X0.375000X-0.625000X-0.375000X0.625000X-0.375000X0.625000X0.375000X0*%
%ADD25RoundRect,0.225000X0.425000X0.225000X-0.425000X0.225000X-0.425000X-0.225000X0.425000X-0.225000X0*%
%ADD26FreePoly0,180.000000*%
%ADD27R,0.400000X1.800000*%
%ADD28RoundRect,0.225000X0.250000X-0.225000X0.250000X0.225000X-0.250000X0.225000X-0.250000X-0.225000X0*%
%ADD29RoundRect,0.150000X0.587500X0.150000X-0.587500X0.150000X-0.587500X-0.150000X0.587500X-0.150000X0*%
%ADD30RoundRect,0.225000X0.225000X0.250000X-0.225000X0.250000X-0.225000X-0.250000X0.225000X-0.250000X0*%
%ADD31R,1.300000X1.600000*%
%ADD32R,2.000000X1.600000*%
%ADD33R,1.500000X0.900000*%
%ADD34RoundRect,0.150000X-0.650000X-0.150000X0.650000X-0.150000X0.650000X0.150000X-0.650000X0.150000X0*%
G04 APERTURE END LIST*
D10*
X149171000Y-98654000D03*
X150721000Y-98654000D03*
D11*
X153961000Y-92543000D03*
X153961000Y-94093000D03*
D12*
X160359500Y-109800000D03*
X162009500Y-109800000D03*
D13*
X151139000Y-89625000D03*
X151139000Y-94075000D03*
D14*
X155717500Y-108923000D03*
X155717500Y-107273000D03*
D15*
X163335500Y-96291000D03*
X162065500Y-96291000D03*
X160795500Y-96291000D03*
X159525500Y-96291000D03*
X159525500Y-101441000D03*
X160795500Y-101441000D03*
X162065500Y-101441000D03*
X163335500Y-101441000D03*
D16*
X165430500Y-109440000D03*
X165430500Y-108190000D03*
D17*
X168330500Y-111990000D03*
X168330500Y-105640000D03*
D14*
X157211001Y-108925000D03*
X157211001Y-107275000D03*
D18*
X138164500Y-92490000D03*
X138164500Y-93740000D03*
X138164500Y-94990000D03*
X138164500Y-96240000D03*
X138164500Y-97490000D03*
X138164500Y-98740000D03*
D19*
X135264500Y-89940000D03*
X135264500Y-101290000D03*
D20*
X155612000Y-101007000D03*
X155612000Y-102657000D03*
D21*
X140591000Y-101995000D03*
X140591000Y-99195000D03*
D22*
X145641000Y-97520000D03*
X145641000Y-96250000D03*
X145641000Y-94980000D03*
X145641000Y-93710000D03*
X140691000Y-93710000D03*
X140691000Y-94980000D03*
X140691000Y-96250000D03*
X140691000Y-97520000D03*
D14*
X154223999Y-108924000D03*
X154223999Y-107274000D03*
D23*
X162009500Y-108300000D03*
X160359500Y-108300000D03*
D24*
X141522000Y-104924000D03*
X141522000Y-107724000D03*
D14*
X152687000Y-102657000D03*
X152687000Y-101007000D03*
D25*
X156365000Y-98802500D03*
D26*
X156277500Y-97302500D03*
D25*
X156365000Y-95802500D03*
D27*
X147394500Y-107910000D03*
X148044500Y-107910000D03*
X148694500Y-107910000D03*
X149344500Y-107910000D03*
X149994500Y-107910000D03*
D10*
X149033000Y-97191000D03*
X150583000Y-97191000D03*
D16*
X165430500Y-98740000D03*
X165430500Y-97490000D03*
X165430500Y-96240000D03*
X165430500Y-94990000D03*
X165430500Y-93740000D03*
X165430500Y-92490000D03*
D17*
X168330500Y-101290000D03*
X168330500Y-89940000D03*
D23*
X151459000Y-105944000D03*
X149809000Y-105944000D03*
D11*
X163397500Y-108275000D03*
X163397500Y-109825000D03*
D14*
X157996000Y-100069000D03*
X157996000Y-98419000D03*
D28*
X157996000Y-97056000D03*
X157996000Y-95506000D03*
D29*
X158299500Y-94046500D03*
X158299500Y-92146500D03*
X156424500Y-93096500D03*
D18*
X138164500Y-106935000D03*
X138164500Y-108185000D03*
X138164500Y-109435000D03*
D19*
X135264500Y-104385000D03*
X135264500Y-111985000D03*
D23*
X163334000Y-94286000D03*
X161684000Y-94286000D03*
D30*
X148446000Y-105944000D03*
X146896000Y-105944000D03*
D31*
X160229500Y-106517000D03*
D32*
X161479500Y-103617000D03*
D31*
X162729500Y-106517000D03*
D33*
X153117000Y-104263000D03*
X156217000Y-104263000D03*
X156217000Y-105663000D03*
X153117000Y-105663000D03*
D14*
X154149000Y-102657000D03*
X154149000Y-101007000D03*
D28*
X147597000Y-96390000D03*
X147597000Y-94840000D03*
D14*
X157996000Y-103030000D03*
X157996000Y-101380000D03*
D34*
X143705000Y-100448000D03*
X143705000Y-101718000D03*
X143705000Y-102988000D03*
X143705000Y-104258000D03*
X150905000Y-104258000D03*
X150905000Y-102988000D03*
X150905000Y-101718000D03*
X150905000Y-100448000D03*
D28*
X158972500Y-109825000D03*
X158972500Y-108275000D03*
M02*
