G04 #@! TF.GenerationSoftware,KiCad,Pcbnew,8.0.1*
G04 #@! TF.CreationDate,2024-03-30T02:10:16+03:00*
G04 #@! TF.ProjectId,Piezo module,5069657a-6f20-46d6-9f64-756c652e6b69,rev?*
G04 #@! TF.SameCoordinates,Original*
G04 #@! TF.FileFunction,Legend,Bot*
G04 #@! TF.FilePolarity,Positive*
%FSLAX46Y46*%
G04 Gerber Fmt 4.6, Leading zero omitted, Abs format (unit mm)*
G04 Created by KiCad (PCBNEW 8.0.1) date 2024-03-30 02:10:16*
%MOMM*%
%LPD*%
G01*
G04 APERTURE LIST*
G04 Aperture macros list*
%AMRoundRect*
0 Rectangle with rounded corners*
0 $1 Rounding radius*
0 $2 $3 $4 $5 $6 $7 $8 $9 X,Y pos of 4 corners*
0 Add a 4 corners polygon primitive as box body*
4,1,4,$2,$3,$4,$5,$6,$7,$8,$9,$2,$3,0*
0 Add four circle primitives for the rounded corners*
1,1,$1+$1,$2,$3*
1,1,$1+$1,$4,$5*
1,1,$1+$1,$6,$7*
1,1,$1+$1,$8,$9*
0 Add four rect primitives between the rounded corners*
20,1,$1+$1,$2,$3,$4,$5,0*
20,1,$1+$1,$4,$5,$6,$7,0*
20,1,$1+$1,$6,$7,$8,$9,0*
20,1,$1+$1,$8,$9,$2,$3,0*%
%AMFreePoly0*
4,1,19,0.500000,-0.750000,0.000000,-0.750000,0.000000,-0.744911,-0.071157,-0.744911,-0.207708,-0.704816,-0.327430,-0.627875,-0.420627,-0.520320,-0.479746,-0.390866,-0.500000,-0.250000,-0.500000,0.250000,-0.479746,0.390866,-0.420627,0.520320,-0.327430,0.627875,-0.207708,0.704816,-0.071157,0.744911,0.000000,0.744911,0.000000,0.750000,0.500000,0.750000,0.500000,-0.750000,0.500000,-0.750000,
$1*%
%AMFreePoly1*
4,1,19,0.000000,0.744911,0.071157,0.744911,0.207708,0.704816,0.327430,0.627875,0.420627,0.520320,0.479746,0.390866,0.500000,0.250000,0.500000,-0.250000,0.479746,-0.390866,0.420627,-0.520320,0.327430,-0.627875,0.207708,-0.704816,0.071157,-0.744911,0.000000,-0.744911,0.000000,-0.750000,-0.500000,-0.750000,-0.500000,0.750000,0.000000,0.750000,0.000000,0.744911,0.000000,0.744911,
$1*%
%AMFreePoly2*
4,1,9,3.862500,-0.866500,0.737500,-0.866500,0.737500,-0.450000,-0.737500,-0.450000,-0.737500,0.450000,0.737500,0.450000,0.737500,0.866500,3.862500,0.866500,3.862500,-0.866500,3.862500,-0.866500,$1*%
G04 Aperture macros list end*
%ADD10C,0.100000*%
%ADD11C,0.120000*%
%ADD12C,0.350000*%
%ADD13C,2.000000*%
%ADD14C,2.600000*%
%ADD15C,0.700000*%
%ADD16C,4.400000*%
%ADD17C,0.500000*%
%ADD18O,1.090000X2.000000*%
%ADD19O,1.050000X1.600000*%
%ADD20RoundRect,0.200000X0.275000X-0.200000X0.275000X0.200000X-0.275000X0.200000X-0.275000X-0.200000X0*%
%ADD21RoundRect,0.150000X0.150000X-0.587500X0.150000X0.587500X-0.150000X0.587500X-0.150000X-0.587500X0*%
%ADD22C,1.000000*%
%ADD23RoundRect,0.225000X-0.250000X0.225000X-0.250000X-0.225000X0.250000X-0.225000X0.250000X0.225000X0*%
%ADD24RoundRect,0.100000X-0.637500X-0.100000X0.637500X-0.100000X0.637500X0.100000X-0.637500X0.100000X0*%
%ADD25RoundRect,0.225000X0.250000X-0.225000X0.250000X0.225000X-0.250000X0.225000X-0.250000X-0.225000X0*%
%ADD26FreePoly0,180.000000*%
%ADD27FreePoly1,180.000000*%
%ADD28RoundRect,0.218750X-0.256250X0.218750X-0.256250X-0.218750X0.256250X-0.218750X0.256250X0.218750X0*%
%ADD29RoundRect,0.200000X-0.200000X-0.275000X0.200000X-0.275000X0.200000X0.275000X-0.200000X0.275000X0*%
%ADD30RoundRect,0.150000X-0.150000X0.512500X-0.150000X-0.512500X0.150000X-0.512500X0.150000X0.512500X0*%
%ADD31RoundRect,0.200000X0.200000X0.275000X-0.200000X0.275000X-0.200000X-0.275000X0.200000X-0.275000X0*%
%ADD32R,1.400000X1.200000*%
%ADD33RoundRect,0.250000X-0.300000X0.300000X-0.300000X-0.300000X0.300000X-0.300000X0.300000X0.300000X0*%
%ADD34RoundRect,0.250000X-0.300000X-0.300000X0.300000X-0.300000X0.300000X0.300000X-0.300000X0.300000X0*%
%ADD35RoundRect,0.225000X0.225000X0.250000X-0.225000X0.250000X-0.225000X-0.250000X0.225000X-0.250000X0*%
%ADD36RoundRect,0.225000X-0.225000X-0.250000X0.225000X-0.250000X0.225000X0.250000X-0.225000X0.250000X0*%
%ADD37RoundRect,0.075000X-0.075000X0.662500X-0.075000X-0.662500X0.075000X-0.662500X0.075000X0.662500X0*%
%ADD38RoundRect,0.075000X-0.662500X0.075000X-0.662500X-0.075000X0.662500X-0.075000X0.662500X0.075000X0*%
%ADD39RoundRect,0.225000X-0.335876X-0.017678X-0.017678X-0.335876X0.335876X0.017678X0.017678X0.335876X0*%
%ADD40RoundRect,0.200000X-0.275000X0.200000X-0.275000X-0.200000X0.275000X-0.200000X0.275000X0.200000X0*%
%ADD41RoundRect,0.225000X0.425000X0.225000X-0.425000X0.225000X-0.425000X-0.225000X0.425000X-0.225000X0*%
%ADD42FreePoly2,180.000000*%
%ADD43FreePoly0,0.000000*%
%ADD44FreePoly1,0.000000*%
%ADD45C,0.900000*%
%ADD46R,1.500000X0.700000*%
%ADD47R,0.800000X1.000000*%
G04 APERTURE END LIST*
D10*
X137005639Y-93222657D02*
X136405639Y-93222657D01*
X136405639Y-93222657D02*
X136791353Y-94122657D01*
X136191353Y-93222657D02*
X135891353Y-94122657D01*
X135891353Y-94122657D02*
X135591353Y-93222657D01*
X135119924Y-93222657D02*
X135034210Y-93222657D01*
X135034210Y-93222657D02*
X134948496Y-93265514D01*
X134948496Y-93265514D02*
X134905639Y-93308371D01*
X134905639Y-93308371D02*
X134862781Y-93394085D01*
X134862781Y-93394085D02*
X134819924Y-93565514D01*
X134819924Y-93565514D02*
X134819924Y-93779800D01*
X134819924Y-93779800D02*
X134862781Y-93951228D01*
X134862781Y-93951228D02*
X134905639Y-94036942D01*
X134905639Y-94036942D02*
X134948496Y-94079800D01*
X134948496Y-94079800D02*
X135034210Y-94122657D01*
X135034210Y-94122657D02*
X135119924Y-94122657D01*
X135119924Y-94122657D02*
X135205639Y-94079800D01*
X135205639Y-94079800D02*
X135248496Y-94036942D01*
X135248496Y-94036942D02*
X135291353Y-93951228D01*
X135291353Y-93951228D02*
X135334210Y-93779800D01*
X135334210Y-93779800D02*
X135334210Y-93565514D01*
X135334210Y-93565514D02*
X135291353Y-93394085D01*
X135291353Y-93394085D02*
X135248496Y-93308371D01*
X135248496Y-93308371D02*
X135205639Y-93265514D01*
X135205639Y-93265514D02*
X135119924Y-93222657D01*
X133005842Y-98075925D02*
X133905842Y-98075925D01*
X133905842Y-97475925D02*
X133905842Y-97304497D01*
X133905842Y-97304497D02*
X133862985Y-97218782D01*
X133862985Y-97218782D02*
X133777271Y-97133068D01*
X133777271Y-97133068D02*
X133605842Y-97090211D01*
X133605842Y-97090211D02*
X133305842Y-97090211D01*
X133305842Y-97090211D02*
X133134414Y-97133068D01*
X133134414Y-97133068D02*
X133048700Y-97218782D01*
X133048700Y-97218782D02*
X133005842Y-97304497D01*
X133005842Y-97304497D02*
X133005842Y-97475925D01*
X133005842Y-97475925D02*
X133048700Y-97561640D01*
X133048700Y-97561640D02*
X133134414Y-97647354D01*
X133134414Y-97647354D02*
X133305842Y-97690211D01*
X133305842Y-97690211D02*
X133605842Y-97690211D01*
X133605842Y-97690211D02*
X133777271Y-97647354D01*
X133777271Y-97647354D02*
X133862985Y-97561640D01*
X133862985Y-97561640D02*
X133905842Y-97475925D01*
X157701497Y-107966419D02*
X158272925Y-107966419D01*
X157987211Y-107966419D02*
X157987211Y-106966419D01*
X157987211Y-106966419D02*
X158082449Y-107109276D01*
X158082449Y-107109276D02*
X158177687Y-107204514D01*
X158177687Y-107204514D02*
X158272925Y-107252133D01*
X137005639Y-91969657D02*
X136405639Y-91969657D01*
X136405639Y-91969657D02*
X136791353Y-92869657D01*
X136191353Y-91969657D02*
X135891353Y-92869657D01*
X135891353Y-92869657D02*
X135591353Y-91969657D01*
X135119924Y-91969657D02*
X135034210Y-91969657D01*
X135034210Y-91969657D02*
X134948496Y-92012514D01*
X134948496Y-92012514D02*
X134905639Y-92055371D01*
X134905639Y-92055371D02*
X134862781Y-92141085D01*
X134862781Y-92141085D02*
X134819924Y-92312514D01*
X134819924Y-92312514D02*
X134819924Y-92526800D01*
X134819924Y-92526800D02*
X134862781Y-92698228D01*
X134862781Y-92698228D02*
X134905639Y-92783942D01*
X134905639Y-92783942D02*
X134948496Y-92826800D01*
X134948496Y-92826800D02*
X135034210Y-92869657D01*
X135034210Y-92869657D02*
X135119924Y-92869657D01*
X135119924Y-92869657D02*
X135205639Y-92826800D01*
X135205639Y-92826800D02*
X135248496Y-92783942D01*
X135248496Y-92783942D02*
X135291353Y-92698228D01*
X135291353Y-92698228D02*
X135334210Y-92526800D01*
X135334210Y-92526800D02*
X135334210Y-92312514D01*
X135334210Y-92312514D02*
X135291353Y-92141085D01*
X135291353Y-92141085D02*
X135248496Y-92055371D01*
X135248496Y-92055371D02*
X135205639Y-92012514D01*
X135205639Y-92012514D02*
X135119924Y-91969657D01*
X136705638Y-97015514D02*
X136791353Y-96972657D01*
X136791353Y-96972657D02*
X136919924Y-96972657D01*
X136919924Y-96972657D02*
X137048495Y-97015514D01*
X137048495Y-97015514D02*
X137134210Y-97101228D01*
X137134210Y-97101228D02*
X137177067Y-97186942D01*
X137177067Y-97186942D02*
X137219924Y-97358371D01*
X137219924Y-97358371D02*
X137219924Y-97486942D01*
X137219924Y-97486942D02*
X137177067Y-97658371D01*
X137177067Y-97658371D02*
X137134210Y-97744085D01*
X137134210Y-97744085D02*
X137048495Y-97829800D01*
X137048495Y-97829800D02*
X136919924Y-97872657D01*
X136919924Y-97872657D02*
X136834210Y-97872657D01*
X136834210Y-97872657D02*
X136705638Y-97829800D01*
X136705638Y-97829800D02*
X136662781Y-97786942D01*
X136662781Y-97786942D02*
X136662781Y-97486942D01*
X136662781Y-97486942D02*
X136834210Y-97486942D01*
X136277067Y-97872657D02*
X136277067Y-96972657D01*
X136277067Y-96972657D02*
X135762781Y-97872657D01*
X135762781Y-97872657D02*
X135762781Y-96972657D01*
X135334210Y-97872657D02*
X135334210Y-96972657D01*
X135334210Y-96972657D02*
X135119924Y-96972657D01*
X135119924Y-96972657D02*
X134991353Y-97015514D01*
X134991353Y-97015514D02*
X134905638Y-97101228D01*
X134905638Y-97101228D02*
X134862781Y-97186942D01*
X134862781Y-97186942D02*
X134819924Y-97358371D01*
X134819924Y-97358371D02*
X134819924Y-97486942D01*
X134819924Y-97486942D02*
X134862781Y-97658371D01*
X134862781Y-97658371D02*
X134905638Y-97744085D01*
X134905638Y-97744085D02*
X134991353Y-97829800D01*
X134991353Y-97829800D02*
X135119924Y-97872657D01*
X135119924Y-97872657D02*
X135334210Y-97872657D01*
X165011544Y-106966419D02*
X164392497Y-106966419D01*
X164392497Y-106966419D02*
X164725830Y-107347371D01*
X164725830Y-107347371D02*
X164582973Y-107347371D01*
X164582973Y-107347371D02*
X164487735Y-107394990D01*
X164487735Y-107394990D02*
X164440116Y-107442609D01*
X164440116Y-107442609D02*
X164392497Y-107537847D01*
X164392497Y-107537847D02*
X164392497Y-107775942D01*
X164392497Y-107775942D02*
X164440116Y-107871180D01*
X164440116Y-107871180D02*
X164487735Y-107918800D01*
X164487735Y-107918800D02*
X164582973Y-107966419D01*
X164582973Y-107966419D02*
X164868687Y-107966419D01*
X164868687Y-107966419D02*
X164963925Y-107918800D01*
X164963925Y-107918800D02*
X165011544Y-107871180D01*
X134460580Y-110351639D02*
X134460580Y-110256401D01*
X134460580Y-110256401D02*
X134412961Y-110161163D01*
X134412961Y-110161163D02*
X134365342Y-110113544D01*
X134365342Y-110113544D02*
X134270104Y-110065925D01*
X134270104Y-110065925D02*
X134079628Y-110018306D01*
X134079628Y-110018306D02*
X133841533Y-110018306D01*
X133841533Y-110018306D02*
X133651057Y-110065925D01*
X133651057Y-110065925D02*
X133555819Y-110113544D01*
X133555819Y-110113544D02*
X133508200Y-110161163D01*
X133508200Y-110161163D02*
X133460580Y-110256401D01*
X133460580Y-110256401D02*
X133460580Y-110351639D01*
X133460580Y-110351639D02*
X133508200Y-110446877D01*
X133508200Y-110446877D02*
X133555819Y-110494496D01*
X133555819Y-110494496D02*
X133651057Y-110542115D01*
X133651057Y-110542115D02*
X133841533Y-110589734D01*
X133841533Y-110589734D02*
X134079628Y-110589734D01*
X134079628Y-110589734D02*
X134270104Y-110542115D01*
X134270104Y-110542115D02*
X134365342Y-110494496D01*
X134365342Y-110494496D02*
X134412961Y-110446877D01*
X134412961Y-110446877D02*
X134460580Y-110351639D01*
X138162781Y-95336942D02*
X138205638Y-95379800D01*
X138205638Y-95379800D02*
X138334210Y-95422657D01*
X138334210Y-95422657D02*
X138419924Y-95422657D01*
X138419924Y-95422657D02*
X138548495Y-95379800D01*
X138548495Y-95379800D02*
X138634210Y-95294085D01*
X138634210Y-95294085D02*
X138677067Y-95208371D01*
X138677067Y-95208371D02*
X138719924Y-95036942D01*
X138719924Y-95036942D02*
X138719924Y-94908371D01*
X138719924Y-94908371D02*
X138677067Y-94736942D01*
X138677067Y-94736942D02*
X138634210Y-94651228D01*
X138634210Y-94651228D02*
X138548495Y-94565514D01*
X138548495Y-94565514D02*
X138419924Y-94522657D01*
X138419924Y-94522657D02*
X138334210Y-94522657D01*
X138334210Y-94522657D02*
X138205638Y-94565514D01*
X138205638Y-94565514D02*
X138162781Y-94608371D01*
X137819924Y-95165514D02*
X137391353Y-95165514D01*
X137905638Y-95422657D02*
X137605638Y-94522657D01*
X137605638Y-94522657D02*
X137305638Y-95422657D01*
X137005638Y-95422657D02*
X137005638Y-94522657D01*
X137005638Y-94522657D02*
X136491352Y-95422657D01*
X136491352Y-95422657D02*
X136491352Y-94522657D01*
X136277067Y-95508371D02*
X135591352Y-95508371D01*
X134948495Y-95422657D02*
X135377067Y-95422657D01*
X135377067Y-95422657D02*
X135377067Y-94522657D01*
X138162781Y-96536942D02*
X138205638Y-96579800D01*
X138205638Y-96579800D02*
X138334210Y-96622657D01*
X138334210Y-96622657D02*
X138419924Y-96622657D01*
X138419924Y-96622657D02*
X138548495Y-96579800D01*
X138548495Y-96579800D02*
X138634210Y-96494085D01*
X138634210Y-96494085D02*
X138677067Y-96408371D01*
X138677067Y-96408371D02*
X138719924Y-96236942D01*
X138719924Y-96236942D02*
X138719924Y-96108371D01*
X138719924Y-96108371D02*
X138677067Y-95936942D01*
X138677067Y-95936942D02*
X138634210Y-95851228D01*
X138634210Y-95851228D02*
X138548495Y-95765514D01*
X138548495Y-95765514D02*
X138419924Y-95722657D01*
X138419924Y-95722657D02*
X138334210Y-95722657D01*
X138334210Y-95722657D02*
X138205638Y-95765514D01*
X138205638Y-95765514D02*
X138162781Y-95808371D01*
X137819924Y-96365514D02*
X137391353Y-96365514D01*
X137905638Y-96622657D02*
X137605638Y-95722657D01*
X137605638Y-95722657D02*
X137305638Y-96622657D01*
X137005638Y-96622657D02*
X137005638Y-95722657D01*
X137005638Y-95722657D02*
X136491352Y-96622657D01*
X136491352Y-96622657D02*
X136491352Y-95722657D01*
X136277067Y-96708371D02*
X135591352Y-96708371D01*
X135377067Y-96622657D02*
X135377067Y-95722657D01*
X135377067Y-96151228D02*
X134862781Y-96151228D01*
X134862781Y-96622657D02*
X134862781Y-95722657D01*
X136705638Y-98265514D02*
X136791353Y-98222657D01*
X136791353Y-98222657D02*
X136919924Y-98222657D01*
X136919924Y-98222657D02*
X137048495Y-98265514D01*
X137048495Y-98265514D02*
X137134210Y-98351228D01*
X137134210Y-98351228D02*
X137177067Y-98436942D01*
X137177067Y-98436942D02*
X137219924Y-98608371D01*
X137219924Y-98608371D02*
X137219924Y-98736942D01*
X137219924Y-98736942D02*
X137177067Y-98908371D01*
X137177067Y-98908371D02*
X137134210Y-98994085D01*
X137134210Y-98994085D02*
X137048495Y-99079800D01*
X137048495Y-99079800D02*
X136919924Y-99122657D01*
X136919924Y-99122657D02*
X136834210Y-99122657D01*
X136834210Y-99122657D02*
X136705638Y-99079800D01*
X136705638Y-99079800D02*
X136662781Y-99036942D01*
X136662781Y-99036942D02*
X136662781Y-98736942D01*
X136662781Y-98736942D02*
X136834210Y-98736942D01*
X136277067Y-99122657D02*
X136277067Y-98222657D01*
X136277067Y-98222657D02*
X135762781Y-99122657D01*
X135762781Y-99122657D02*
X135762781Y-98222657D01*
X135334210Y-99122657D02*
X135334210Y-98222657D01*
X135334210Y-98222657D02*
X135119924Y-98222657D01*
X135119924Y-98222657D02*
X134991353Y-98265514D01*
X134991353Y-98265514D02*
X134905638Y-98351228D01*
X134905638Y-98351228D02*
X134862781Y-98436942D01*
X134862781Y-98436942D02*
X134819924Y-98608371D01*
X134819924Y-98608371D02*
X134819924Y-98736942D01*
X134819924Y-98736942D02*
X134862781Y-98908371D01*
X134862781Y-98908371D02*
X134905638Y-98994085D01*
X134905638Y-98994085D02*
X134991353Y-99079800D01*
X134991353Y-99079800D02*
X135119924Y-99122657D01*
X135119924Y-99122657D02*
X135334210Y-99122657D01*
X161623925Y-107061657D02*
X161576306Y-107014038D01*
X161576306Y-107014038D02*
X161481068Y-106966419D01*
X161481068Y-106966419D02*
X161242973Y-106966419D01*
X161242973Y-106966419D02*
X161147735Y-107014038D01*
X161147735Y-107014038D02*
X161100116Y-107061657D01*
X161100116Y-107061657D02*
X161052497Y-107156895D01*
X161052497Y-107156895D02*
X161052497Y-107252133D01*
X161052497Y-107252133D02*
X161100116Y-107394990D01*
X161100116Y-107394990D02*
X161671544Y-107966419D01*
X161671544Y-107966419D02*
X161052497Y-107966419D01*
X133073200Y-91110830D02*
X133035104Y-90996544D01*
X133035104Y-90996544D02*
X133035104Y-90806068D01*
X133035104Y-90806068D02*
X133073200Y-90729877D01*
X133073200Y-90729877D02*
X133111295Y-90691782D01*
X133111295Y-90691782D02*
X133187485Y-90653687D01*
X133187485Y-90653687D02*
X133263676Y-90653687D01*
X133263676Y-90653687D02*
X133339866Y-90691782D01*
X133339866Y-90691782D02*
X133377961Y-90729877D01*
X133377961Y-90729877D02*
X133416057Y-90806068D01*
X133416057Y-90806068D02*
X133454152Y-90958449D01*
X133454152Y-90958449D02*
X133492247Y-91034639D01*
X133492247Y-91034639D02*
X133530342Y-91072734D01*
X133530342Y-91072734D02*
X133606533Y-91110830D01*
X133606533Y-91110830D02*
X133682723Y-91110830D01*
X133682723Y-91110830D02*
X133758914Y-91072734D01*
X133758914Y-91072734D02*
X133797009Y-91034639D01*
X133797009Y-91034639D02*
X133835104Y-90958449D01*
X133835104Y-90958449D02*
X133835104Y-90767972D01*
X133835104Y-90767972D02*
X133797009Y-90653687D01*
X133835104Y-90387020D02*
X133035104Y-90196544D01*
X133035104Y-90196544D02*
X133606533Y-90044163D01*
X133606533Y-90044163D02*
X133035104Y-89891782D01*
X133035104Y-89891782D02*
X133835104Y-89701306D01*
X133835104Y-89244162D02*
X133835104Y-89091781D01*
X133835104Y-89091781D02*
X133797009Y-89015591D01*
X133797009Y-89015591D02*
X133720819Y-88939400D01*
X133720819Y-88939400D02*
X133568438Y-88901305D01*
X133568438Y-88901305D02*
X133301771Y-88901305D01*
X133301771Y-88901305D02*
X133149390Y-88939400D01*
X133149390Y-88939400D02*
X133073200Y-89015591D01*
X133073200Y-89015591D02*
X133035104Y-89091781D01*
X133035104Y-89091781D02*
X133035104Y-89244162D01*
X133035104Y-89244162D02*
X133073200Y-89320353D01*
X133073200Y-89320353D02*
X133149390Y-89396543D01*
X133149390Y-89396543D02*
X133301771Y-89434639D01*
X133301771Y-89434639D02*
X133568438Y-89434639D01*
X133568438Y-89434639D02*
X133720819Y-89396543D01*
X133720819Y-89396543D02*
X133797009Y-89320353D01*
X133797009Y-89320353D02*
X133835104Y-89244162D01*
X133091557Y-94546639D02*
X133048700Y-94589496D01*
X133048700Y-94589496D02*
X133005842Y-94718068D01*
X133005842Y-94718068D02*
X133005842Y-94803782D01*
X133005842Y-94803782D02*
X133048700Y-94932353D01*
X133048700Y-94932353D02*
X133134414Y-95018068D01*
X133134414Y-95018068D02*
X133220128Y-95060925D01*
X133220128Y-95060925D02*
X133391557Y-95103782D01*
X133391557Y-95103782D02*
X133520128Y-95103782D01*
X133520128Y-95103782D02*
X133691557Y-95060925D01*
X133691557Y-95060925D02*
X133777271Y-95018068D01*
X133777271Y-95018068D02*
X133862985Y-94932353D01*
X133862985Y-94932353D02*
X133905842Y-94803782D01*
X133905842Y-94803782D02*
X133905842Y-94718068D01*
X133905842Y-94718068D02*
X133862985Y-94589496D01*
X133862985Y-94589496D02*
X133820128Y-94546639D01*
X133005842Y-93732353D02*
X133005842Y-94160925D01*
X133005842Y-94160925D02*
X133905842Y-94160925D01*
X133005842Y-93432354D02*
X133905842Y-93432354D01*
X133005842Y-92918068D02*
X133520128Y-93303782D01*
X133905842Y-92918068D02*
X133391557Y-93432354D01*
X165775342Y-92598496D02*
X165775342Y-93112782D01*
X165775342Y-92855639D02*
X166675342Y-92855639D01*
X166675342Y-92855639D02*
X166546771Y-92941353D01*
X166546771Y-92941353D02*
X166461057Y-93027068D01*
X166461057Y-93027068D02*
X166418200Y-93112782D01*
X166589628Y-92255639D02*
X166632485Y-92212782D01*
X166632485Y-92212782D02*
X166675342Y-92127068D01*
X166675342Y-92127068D02*
X166675342Y-91912782D01*
X166675342Y-91912782D02*
X166632485Y-91827068D01*
X166632485Y-91827068D02*
X166589628Y-91784210D01*
X166589628Y-91784210D02*
X166503914Y-91741353D01*
X166503914Y-91741353D02*
X166418200Y-91741353D01*
X166418200Y-91741353D02*
X166289628Y-91784210D01*
X166289628Y-91784210D02*
X165775342Y-92298496D01*
X165775342Y-92298496D02*
X165775342Y-91741353D01*
X166675342Y-91184210D02*
X166675342Y-91098496D01*
X166675342Y-91098496D02*
X166632485Y-91012782D01*
X166632485Y-91012782D02*
X166589628Y-90969925D01*
X166589628Y-90969925D02*
X166503914Y-90927067D01*
X166503914Y-90927067D02*
X166332485Y-90884210D01*
X166332485Y-90884210D02*
X166118200Y-90884210D01*
X166118200Y-90884210D02*
X165946771Y-90927067D01*
X165946771Y-90927067D02*
X165861057Y-90969925D01*
X165861057Y-90969925D02*
X165818200Y-91012782D01*
X165818200Y-91012782D02*
X165775342Y-91098496D01*
X165775342Y-91098496D02*
X165775342Y-91184210D01*
X165775342Y-91184210D02*
X165818200Y-91269925D01*
X165818200Y-91269925D02*
X165861057Y-91312782D01*
X165861057Y-91312782D02*
X165946771Y-91355639D01*
X165946771Y-91355639D02*
X166118200Y-91398496D01*
X166118200Y-91398496D02*
X166332485Y-91398496D01*
X166332485Y-91398496D02*
X166503914Y-91355639D01*
X166503914Y-91355639D02*
X166589628Y-91312782D01*
X166589628Y-91312782D02*
X166632485Y-91269925D01*
X166632485Y-91269925D02*
X166675342Y-91184210D01*
X165775342Y-89984210D02*
X166203914Y-90284210D01*
X165775342Y-90498496D02*
X166675342Y-90498496D01*
X166675342Y-90498496D02*
X166675342Y-90155639D01*
X166675342Y-90155639D02*
X166632485Y-90069924D01*
X166632485Y-90069924D02*
X166589628Y-90027067D01*
X166589628Y-90027067D02*
X166503914Y-89984210D01*
X166503914Y-89984210D02*
X166375342Y-89984210D01*
X166375342Y-89984210D02*
X166289628Y-90027067D01*
X166289628Y-90027067D02*
X166246771Y-90069924D01*
X166246771Y-90069924D02*
X166203914Y-90155639D01*
X166203914Y-90155639D02*
X166203914Y-90498496D01*
X133460580Y-105639306D02*
X133460580Y-106210734D01*
X133460580Y-105925020D02*
X134460580Y-105925020D01*
X134460580Y-105925020D02*
X134317723Y-106020258D01*
X134317723Y-106020258D02*
X134222485Y-106115496D01*
X134222485Y-106115496D02*
X134174866Y-106210734D01*
X154730830Y-106966419D02*
X154635592Y-106966419D01*
X154635592Y-106966419D02*
X154540354Y-107014038D01*
X154540354Y-107014038D02*
X154492735Y-107061657D01*
X154492735Y-107061657D02*
X154445116Y-107156895D01*
X154445116Y-107156895D02*
X154397497Y-107347371D01*
X154397497Y-107347371D02*
X154397497Y-107585466D01*
X154397497Y-107585466D02*
X154445116Y-107775942D01*
X154445116Y-107775942D02*
X154492735Y-107871180D01*
X154492735Y-107871180D02*
X154540354Y-107918800D01*
X154540354Y-107918800D02*
X154635592Y-107966419D01*
X154635592Y-107966419D02*
X154730830Y-107966419D01*
X154730830Y-107966419D02*
X154826068Y-107918800D01*
X154826068Y-107918800D02*
X154873687Y-107871180D01*
X154873687Y-107871180D02*
X154921306Y-107775942D01*
X154921306Y-107775942D02*
X154968925Y-107585466D01*
X154968925Y-107585466D02*
X154968925Y-107347371D01*
X154968925Y-107347371D02*
X154921306Y-107156895D01*
X154921306Y-107156895D02*
X154873687Y-107061657D01*
X154873687Y-107061657D02*
X154826068Y-107014038D01*
X154826068Y-107014038D02*
X154730830Y-106966419D01*
X167791735Y-107299752D02*
X167791735Y-107966419D01*
X168029830Y-106918800D02*
X168267925Y-107633085D01*
X168267925Y-107633085D02*
X167648878Y-107633085D01*
D11*
X167343500Y-96647742D02*
X167343500Y-97122258D01*
X168388500Y-96647742D02*
X168388500Y-97122258D01*
X150317500Y-89967000D02*
X150317500Y-90617000D01*
X150317500Y-91267000D02*
X150317500Y-90617000D01*
X153437500Y-89967000D02*
X153437500Y-90617000D01*
X153437500Y-91267000D02*
X153437500Y-90617000D01*
X134572000Y-99218000D02*
G75*
G02*
X133172000Y-99218000I-700000J0D01*
G01*
X133172000Y-99218000D02*
G75*
G02*
X134572000Y-99218000I700000J0D01*
G01*
X163835000Y-105621581D02*
X163835000Y-105340419D01*
X164855000Y-105621581D02*
X164855000Y-105340419D01*
X156512000Y-94277500D02*
X158712000Y-94277500D01*
X156512000Y-99747500D02*
X158712000Y-99747500D01*
X160912000Y-94277500D02*
X158712000Y-94277500D01*
X160912000Y-99747500D02*
X158712000Y-99747500D01*
D12*
X157397000Y-99022500D02*
G75*
G02*
X157047000Y-99022500I-175000J0D01*
G01*
X157047000Y-99022500D02*
G75*
G02*
X157397000Y-99022500I175000J0D01*
G01*
D11*
X143937500Y-93089420D02*
X143937500Y-93370580D01*
X144957500Y-93089420D02*
X144957500Y-93370580D01*
X155077000Y-103679080D02*
X155077000Y-103397920D01*
X156097000Y-103679080D02*
X156097000Y-103397920D01*
X166598000Y-109508000D02*
X166598000Y-108908000D01*
X167298000Y-108208000D02*
X168698000Y-108208000D01*
X168698000Y-110208000D02*
X167298000Y-110208000D01*
X169398000Y-108908000D02*
X169398000Y-109508000D01*
X166598000Y-108908000D02*
G75*
G02*
X167298000Y-108208000I700000J0D01*
G01*
X167298000Y-110208000D02*
G75*
G02*
X166598000Y-109508000I0J700000D01*
G01*
X168698000Y-108208000D02*
G75*
G02*
X169398000Y-108908000I1J-699999D01*
G01*
X169398000Y-109508000D02*
G75*
G02*
X168698000Y-110208000I-699999J-1D01*
G01*
X165874500Y-98708779D02*
X165874500Y-98383221D01*
X166894500Y-98708779D02*
X166894500Y-98383221D01*
X156540000Y-103679080D02*
X156540000Y-103397920D01*
X157560000Y-103679080D02*
X157560000Y-103397920D01*
X142357258Y-107223500D02*
X141882742Y-107223500D01*
X142357258Y-108268500D02*
X141882742Y-108268500D01*
X147135000Y-108210000D02*
X147135000Y-109010000D01*
X147135000Y-109810000D02*
X147135000Y-109010000D01*
X150255000Y-108210000D02*
X150255000Y-109010000D01*
X150255000Y-109810000D02*
X150255000Y-109010000D01*
X147185000Y-107710000D02*
X146855000Y-107950000D01*
X146855000Y-107470000D01*
X147185000Y-107710000D01*
G36*
X147185000Y-107710000D02*
G01*
X146855000Y-107950000D01*
X146855000Y-107470000D01*
X147185000Y-107710000D01*
G37*
X156786742Y-105231500D02*
X157261258Y-105231500D01*
X156786742Y-106276500D02*
X157261258Y-106276500D01*
X139747000Y-94925500D02*
X139747000Y-95725500D01*
X139747000Y-96525500D02*
X139747000Y-95725500D01*
X142867000Y-94925500D02*
X142867000Y-95725500D01*
X142867000Y-96525500D02*
X142867000Y-95725500D01*
X145284500Y-92369000D02*
X145284500Y-95669000D01*
X149284500Y-92369000D02*
X145284500Y-92369000D01*
X137314000Y-94059000D02*
X137314000Y-90199000D01*
X139314000Y-90199000D02*
X137314000Y-90199000D01*
X139314000Y-94059000D02*
X139314000Y-90199000D01*
X134572000Y-92032000D02*
G75*
G02*
X133172000Y-92032000I-700000J0D01*
G01*
X133172000Y-92032000D02*
G75*
G02*
X134572000Y-92032000I700000J0D01*
G01*
X136929000Y-100256000D02*
X136929000Y-102256000D01*
X140789000Y-100256000D02*
X136929000Y-100256000D01*
X140789000Y-102256000D02*
X136929000Y-102256000D01*
X134572000Y-95967000D02*
G75*
G02*
X133172000Y-95967000I-700000J0D01*
G01*
X133172000Y-95967000D02*
G75*
G02*
X134572000Y-95967000I700000J0D01*
G01*
X139134500Y-102992000D02*
X139134500Y-104992000D01*
X142994500Y-102992000D02*
X139134500Y-102992000D01*
X142994500Y-104992000D02*
X139134500Y-104992000D01*
X165287500Y-105244742D02*
X165287500Y-105719258D01*
X166332500Y-105244742D02*
X166332500Y-105719258D01*
X162419920Y-100381001D02*
X162701080Y-100381001D01*
X162419920Y-101401001D02*
X162701080Y-101401001D01*
X162931500Y-95721580D02*
X162931500Y-95440420D01*
X163951500Y-95721580D02*
X163951500Y-95440420D01*
X141276580Y-92435000D02*
X140995420Y-92435000D01*
X141276580Y-93455000D02*
X140995420Y-93455000D01*
X143167258Y-101587500D02*
X142692742Y-101587500D01*
X143167258Y-102632500D02*
X142692742Y-102632500D01*
X152473580Y-94280000D02*
X152192420Y-94280000D01*
X152473580Y-95300000D02*
X152192420Y-95300000D01*
X165892500Y-95714580D02*
X165892500Y-95433420D01*
X166912500Y-95714580D02*
X166912500Y-95433420D01*
X166930500Y-92742000D02*
X166930500Y-92142000D01*
X167630500Y-91442000D02*
X169030500Y-91442000D01*
X169030500Y-93442000D02*
X167630500Y-93442000D01*
X169730500Y-92142000D02*
X169730500Y-92742000D01*
X166930500Y-92142000D02*
G75*
G02*
X167630500Y-91442000I700000J0D01*
G01*
X167630500Y-93442000D02*
G75*
G02*
X166930500Y-92742000I0J700000D01*
G01*
X169030500Y-91442000D02*
G75*
G02*
X169730500Y-92142000I1J-699999D01*
G01*
X169730500Y-92742000D02*
G75*
G02*
X169030500Y-93442000I-699999J-1D01*
G01*
X166223742Y-102746500D02*
X166698258Y-102746500D01*
X166223742Y-103791500D02*
X166698258Y-103791500D01*
X158628258Y-92573999D02*
X158153742Y-92573999D01*
X158628258Y-93618999D02*
X158153742Y-93618999D01*
X153299000Y-109508000D02*
X153299000Y-108908000D01*
X153999000Y-108208000D02*
X155399000Y-108208000D01*
X155399000Y-110208000D02*
X153999000Y-110208000D01*
X156099000Y-108908000D02*
X156099000Y-109508000D01*
X153299000Y-108908000D02*
G75*
G02*
X153999000Y-108208000I700000J0D01*
G01*
X153999000Y-110208000D02*
G75*
G02*
X153299000Y-109508000I0J700000D01*
G01*
X155399000Y-108208000D02*
G75*
G02*
X156099000Y-108908000I1J-699999D01*
G01*
X156099000Y-109508000D02*
G75*
G02*
X155399000Y-110208000I-699999J-1D01*
G01*
X139591420Y-98695000D02*
X139872580Y-98695000D01*
X139591420Y-99715000D02*
X139872580Y-99715000D01*
X146085000Y-97427500D02*
X146085000Y-97877500D01*
X146085000Y-104647500D02*
X146085000Y-104197500D01*
X146535000Y-97427500D02*
X146085000Y-97427500D01*
X146535000Y-104647500D02*
X146085000Y-104647500D01*
X152855000Y-97427500D02*
X153305000Y-97427500D01*
X152855000Y-104647500D02*
X153305000Y-104647500D01*
X153305000Y-97427500D02*
X153305000Y-97877500D01*
X153305000Y-104647500D02*
X153305000Y-104197500D01*
D12*
X147690000Y-98827500D02*
G75*
G02*
X147340000Y-98827500I-175000J0D01*
G01*
X147340000Y-98827500D02*
G75*
G02*
X147690000Y-98827500I175000J0D01*
G01*
D11*
X156603000Y-109504000D02*
X156603000Y-108904000D01*
X157303000Y-108204000D02*
X158703000Y-108204000D01*
X158703000Y-110204000D02*
X157303000Y-110204000D01*
X159403000Y-108904000D02*
X159403000Y-109504000D01*
X156603000Y-108904000D02*
G75*
G02*
X157303000Y-108204000I700000J0D01*
G01*
X157303000Y-110204000D02*
G75*
G02*
X156603000Y-109504000I0J700000D01*
G01*
X158703000Y-108204000D02*
G75*
G02*
X159403000Y-108904000I1J-699999D01*
G01*
X159403000Y-109504000D02*
G75*
G02*
X158703000Y-110204000I-699999J-1D01*
G01*
X163294000Y-109508000D02*
X163294000Y-108908000D01*
X163994000Y-108208000D02*
X165394000Y-108208000D01*
X165394000Y-110208000D02*
X163994000Y-110208000D01*
X166094000Y-108908000D02*
X166094000Y-109508000D01*
X163294000Y-108908000D02*
G75*
G02*
X163994000Y-108208000I700000J0D01*
G01*
X163994000Y-110208000D02*
G75*
G02*
X163294000Y-109508000I0J700000D01*
G01*
X165394000Y-108208000D02*
G75*
G02*
X166094000Y-108908000I1J-699999D01*
G01*
X166094000Y-109508000D02*
G75*
G02*
X165394000Y-110208000I-699999J-1D01*
G01*
X142332258Y-105609500D02*
X141857742Y-105609500D01*
X142332258Y-106654500D02*
X141857742Y-106654500D01*
X144490281Y-96784030D02*
X144291470Y-96585219D01*
X145211530Y-96062781D02*
X145012719Y-95863970D01*
X139361500Y-107154258D02*
X139361500Y-106679742D01*
X140406500Y-107154258D02*
X140406500Y-106679742D01*
X159400500Y-101762000D02*
X159400500Y-102742000D01*
X159400500Y-101762000D02*
X161980500Y-101762000D01*
X159400500Y-106482000D02*
X159400500Y-105502000D01*
X162120500Y-106482000D02*
X159400500Y-106482000D01*
X164410500Y-95720580D02*
X164410500Y-95439420D01*
X165430500Y-95720580D02*
X165430500Y-95439420D01*
X166455258Y-110666500D02*
X165980742Y-110666500D01*
X166455258Y-111711500D02*
X165980742Y-111711500D01*
X162936500Y-98687080D02*
X162936500Y-98405920D01*
X163956500Y-98687080D02*
X163956500Y-98405920D01*
X149604500Y-94159580D02*
X149604500Y-93878420D01*
X150624500Y-94159580D02*
X150624500Y-93878420D01*
X159954000Y-109508000D02*
X159954000Y-108908000D01*
X160654000Y-108208000D02*
X162054000Y-108208000D01*
X162054000Y-110208000D02*
X160654000Y-110208000D01*
X162754000Y-108908000D02*
X162754000Y-109508000D01*
X159954000Y-108908000D02*
G75*
G02*
X160654000Y-108208000I699999J1D01*
G01*
X160654000Y-110208000D02*
G75*
G02*
X159954000Y-109508000I-1J699999D01*
G01*
X162054000Y-108208000D02*
G75*
G02*
X162754000Y-108908000I0J-700000D01*
G01*
X162754000Y-109508000D02*
G75*
G02*
X162054000Y-110208000I-700000J0D01*
G01*
X133464500Y-108485000D02*
X133464500Y-109385000D01*
X133464500Y-108485000D02*
X133674500Y-108285000D01*
X133464500Y-109385000D02*
X133674500Y-109585000D01*
X133674500Y-109585000D02*
X134964500Y-109585000D01*
X134964500Y-105335000D02*
X134964500Y-111035000D01*
X134964500Y-108285000D02*
X133674500Y-108285000D01*
X135974500Y-111635000D02*
X136764500Y-111635000D01*
X136764500Y-104735000D02*
X135974500Y-104735000D01*
X137814500Y-106585000D02*
X137814500Y-106785000D01*
X137814500Y-108085000D02*
X137814500Y-109785000D01*
X143304000Y-98498420D02*
X143304000Y-98779580D01*
X144324000Y-98498420D02*
X144324000Y-98779580D01*
X145205580Y-105279000D02*
X144924420Y-105279000D01*
X145205580Y-106299000D02*
X144924420Y-106299000D01*
X141582000Y-99398580D02*
X141582000Y-99117420D01*
X142602000Y-99398580D02*
X142602000Y-99117420D01*
X152486080Y-92813000D02*
X152204920Y-92813000D01*
X152486080Y-93833000D02*
X152204920Y-93833000D01*
%LPC*%
D13*
X160085500Y-112035000D03*
X162625500Y-112035000D03*
D14*
X141266500Y-90195000D03*
X147646500Y-90195000D03*
D15*
X160023500Y-90845000D03*
X160506774Y-89678274D03*
X160506774Y-92011726D03*
X161673500Y-89195000D03*
D16*
X161673500Y-90845000D03*
D15*
X161673500Y-92495000D03*
X162840226Y-89678274D03*
X162840226Y-92011726D03*
X163323500Y-90845000D03*
X140274500Y-111085000D03*
X140757774Y-109918274D03*
X140757774Y-112251726D03*
X141924500Y-109435000D03*
D16*
X141924500Y-111085000D03*
D15*
X141924500Y-112735000D03*
X143091226Y-109918274D03*
X143091226Y-112251726D03*
X143574500Y-111085000D03*
D17*
X150694500Y-109010000D03*
X146694500Y-109010000D03*
D18*
X152294500Y-111160000D03*
D19*
X152294500Y-107710000D03*
D18*
X145094500Y-111160000D03*
D19*
X145094500Y-107710000D03*
D13*
X154543500Y-112035000D03*
X157083500Y-112035000D03*
X155174500Y-89895000D03*
X157714500Y-89895000D03*
D20*
X167866000Y-97710000D03*
X167866000Y-96060000D03*
D21*
X152827500Y-91554500D03*
X150927500Y-91554500D03*
X151877500Y-89679500D03*
D22*
X133872000Y-99218000D03*
D23*
X164345000Y-104706000D03*
X164345000Y-106256000D03*
D24*
X155849500Y-99287500D03*
X155849500Y-98637500D03*
X155849500Y-97987500D03*
X155849500Y-97337500D03*
X155849500Y-96687500D03*
X155849500Y-96037500D03*
X155849500Y-95387500D03*
X155849500Y-94737500D03*
X161574500Y-94737500D03*
X161574500Y-95387500D03*
X161574500Y-96037500D03*
X161574500Y-96687500D03*
X161574500Y-97337500D03*
X161574500Y-97987500D03*
X161574500Y-98637500D03*
X161574500Y-99287500D03*
D25*
X144447500Y-94005000D03*
X144447500Y-92455000D03*
D23*
X155587000Y-102763500D03*
X155587000Y-104313500D03*
D26*
X168648000Y-109208000D03*
D27*
X167348000Y-109208000D03*
D28*
X166384500Y-97758500D03*
X166384500Y-99333500D03*
D23*
X157050000Y-102763500D03*
X157050000Y-104313500D03*
D29*
X141295000Y-107746000D03*
X142945000Y-107746000D03*
D30*
X147745000Y-107872500D03*
X148695000Y-107872500D03*
X149645000Y-107872500D03*
X149645000Y-110147500D03*
X148695000Y-110147500D03*
X147745000Y-110147500D03*
D31*
X157849000Y-105754000D03*
X156199000Y-105754000D03*
D30*
X140357000Y-94588000D03*
X141307000Y-94588000D03*
X142257000Y-94588000D03*
X142257000Y-96863000D03*
X140357000Y-96863000D03*
D32*
X146184500Y-93169000D03*
X148384500Y-93169000D03*
X148384500Y-94869000D03*
X146184500Y-94869000D03*
D33*
X138314000Y-91009000D03*
X138314000Y-93809000D03*
D22*
X133872000Y-92032000D03*
D34*
X137739001Y-101256000D03*
X140538999Y-101256000D03*
D22*
X133872000Y-95967000D03*
D34*
X139944500Y-103992000D03*
X142744500Y-103992000D03*
D20*
X165810000Y-106307000D03*
X165810000Y-104657000D03*
D35*
X163335500Y-100891001D03*
X161785500Y-100891001D03*
D23*
X163441500Y-94806000D03*
X163441500Y-96356000D03*
D36*
X140361000Y-92945000D03*
X141911000Y-92945000D03*
D29*
X142105000Y-102110000D03*
X143755000Y-102110000D03*
D36*
X151558000Y-94790000D03*
X153108000Y-94790000D03*
D23*
X166402500Y-94799000D03*
X166402500Y-96349000D03*
D26*
X168980500Y-92442000D03*
D27*
X167680500Y-92442000D03*
D31*
X167286000Y-103269000D03*
X165636000Y-103269000D03*
D29*
X157566000Y-93096499D03*
X159216000Y-93096499D03*
D26*
X155349000Y-109208000D03*
D27*
X154049000Y-109208000D03*
D35*
X140507000Y-99205000D03*
X138957000Y-99205000D03*
D37*
X146945000Y-96875000D03*
X147445000Y-96875000D03*
X147945000Y-96875000D03*
X148445000Y-96875000D03*
X148945000Y-96875000D03*
X149445000Y-96875000D03*
X149945000Y-96875000D03*
X150445000Y-96875000D03*
X150945000Y-96875000D03*
X151445000Y-96875000D03*
X151945000Y-96875000D03*
X152445000Y-96875000D03*
D38*
X153857500Y-98287500D03*
X153857500Y-98787500D03*
X153857500Y-99287500D03*
X153857500Y-99787500D03*
X153857500Y-100287500D03*
X153857500Y-100787500D03*
X153857500Y-101287500D03*
X153857500Y-101787500D03*
X153857500Y-102287500D03*
X153857500Y-102787500D03*
X153857500Y-103287500D03*
X153857500Y-103787500D03*
D37*
X152445000Y-105200000D03*
X151945000Y-105200000D03*
X151445000Y-105200000D03*
X150945000Y-105200000D03*
X150445000Y-105200000D03*
X149945000Y-105200000D03*
X149445000Y-105200000D03*
X148945000Y-105200000D03*
X148445000Y-105200000D03*
X147945000Y-105200000D03*
X147445000Y-105200000D03*
X146945000Y-105200000D03*
D38*
X145532500Y-103787500D03*
X145532500Y-103287500D03*
X145532500Y-102787500D03*
X145532500Y-102287500D03*
X145532500Y-101787500D03*
X145532500Y-101287500D03*
X145532500Y-100787500D03*
X145532500Y-100287500D03*
X145532500Y-99787500D03*
X145532500Y-99287500D03*
X145532500Y-98787500D03*
X145532500Y-98287500D03*
D26*
X158653000Y-109204000D03*
D27*
X157353000Y-109204000D03*
D26*
X165344000Y-109208000D03*
D27*
X164044000Y-109208000D03*
D29*
X141270000Y-106132000D03*
X142920000Y-106132000D03*
D39*
X144203492Y-95775992D03*
X145299508Y-96872008D03*
D40*
X139884000Y-106092000D03*
X139884000Y-107742000D03*
D41*
X162710500Y-102622000D03*
D42*
X162623000Y-104122000D03*
D41*
X162710500Y-105622000D03*
D23*
X164920500Y-94805000D03*
X164920500Y-96355000D03*
D29*
X165393000Y-111189000D03*
X167043000Y-111189000D03*
D23*
X163446500Y-97771500D03*
X163446500Y-99321500D03*
X150114500Y-93244000D03*
X150114500Y-94794000D03*
D43*
X160704000Y-109208000D03*
D44*
X162004000Y-109208000D03*
D45*
X136364500Y-109685000D03*
X136364500Y-106685000D03*
D46*
X138124500Y-110435000D03*
X138124500Y-107435000D03*
X138124500Y-105935000D03*
D47*
X135264500Y-111835000D03*
X137474500Y-111835000D03*
X135264500Y-104535000D03*
X137474500Y-104535000D03*
D25*
X143814000Y-99414000D03*
X143814000Y-97864000D03*
D36*
X144290000Y-105789000D03*
X145840000Y-105789000D03*
D23*
X142092000Y-98483000D03*
X142092000Y-100033000D03*
D36*
X151570500Y-93323000D03*
X153120500Y-93323000D03*
%LPD*%
M02*
