M48
; DRILL file {KiCad 8.0.1} date 2024-03-30T02:10:20+0300
; FORMAT={-:-/ absolute / metric / decimal}
; #@! TF.CreationDate,2024-03-30T02:10:20+03:00
; #@! TF.GenerationSoftware,Kicad,Pcbnew,8.0.1
; #@! TF.FileFunction,Plated,1,4,PTH
FMAT,2
METRIC
; #@! TA.AperFunction,Plated,PTH,ViaDrill
T1C0.400
; #@! TA.AperFunction,Plated,PTH,ComponentDrill
T2C0.400
; #@! TA.AperFunction,Plated,PTH,ComponentDrill
T3C0.450
; #@! TA.AperFunction,Plated,PTH,ComponentDrill
T4C0.500
; #@! TA.AperFunction,Plated,PTH,ComponentDrill
T5C1.000
; #@! TA.AperFunction,Plated,PTH,ComponentDrill
T6C1.300
; #@! TA.AperFunction,Plated,PTH,ComponentDrill
T7C2.200
%
G90
G05
T1
X134.165Y-89.29
X134.165Y-90.59
X134.165Y-100.64
X134.165Y-101.94
X134.165Y-103.735
X134.165Y-105.035
X134.165Y-111.335
X134.165Y-112.635
X135.264Y-89.94
X135.264Y-101.29
X135.264Y-104.435
X135.264Y-111.935
X136.364Y-89.29
X136.364Y-90.59
X136.364Y-100.64
X136.364Y-101.94
X136.364Y-103.735
X136.364Y-105.035
X136.364Y-111.335
X136.364Y-112.635
X137.475Y-104.535
X137.475Y-111.835
X137.651Y-103.121
X137.651Y-103.121
X137.774Y-105.935
X137.889Y-101.256
X138.165Y-92.49
X138.165Y-93.74
X138.165Y-97.49
X138.165Y-98.74
X140.506Y-99.261
X140.957Y-103.22
X141.27Y-106.132
X141.297Y-107.694
X142.092Y-100.033
X142.105Y-102.11
X142.436Y-103.677
X143.292Y-94.118
X143.826Y-97.867
X143.826Y-99.417
X144.203Y-95.776
X145.84Y-105.789
X146.245Y-110.726
X146.742Y-103.287
X146.888Y-98.499
X147.613Y-99.556
X147.68Y-101.519
X147.745Y-111.441
X148.195Y-103.066
X148.38Y-93.155
X148.819Y-101.447
X148.846Y-103.834
X149.171Y-98.654
X149.463Y-99.904
X149.645Y-111.441
X150.703Y-107.91
X150.712Y-98.62
X150.726Y-89.628
X151.464Y-99.548
X152.207Y-98.776
X152.827Y-91.46
X153.039Y-93.367
X153.961Y-92.493
X154.149Y-108.925
X154.229Y-94.335
X154.583Y-105.754
X155.661Y-93.112
X156.92Y-102.762
X157.05Y-104.313
X157.286Y-108.925
X157.996Y-97.056
X157.996Y-98.419
X158.88Y-105.754
X159.216Y-93.096
X159.425Y-101.591
X159.666Y-109.8
X159.84Y-103.655
X159.878Y-98.61
X160.139Y-94.174
X163.334Y-93.129
X163.335Y-100.966
X163.446Y-97.771
X163.446Y-99.322
X164.345Y-106.256
X165.03Y-97.493
X165.03Y-98.752
X165.344Y-109.44
X165.43Y-92.49
X165.43Y-93.74
X166.067Y-112.34
X166.112Y-101.705
X167.231Y-89.29
X167.231Y-90.59
X167.231Y-100.64
X167.231Y-101.94
X167.231Y-104.99
X167.231Y-106.29
X167.231Y-112.64
X168.331Y-89.94
X168.331Y-101.29
X168.331Y-105.64
X168.331Y-111.99
X168.687Y-109.244
X168.981Y-92.442
X169.43Y-89.29
X169.43Y-90.59
X169.43Y-100.64
X169.43Y-101.94
X169.43Y-104.99
X169.43Y-106.29
X169.43Y-111.34
X169.43Y-112.64
X169.496Y-97.714
T2
X140.274Y-111.085
X140.758Y-109.918
X140.758Y-112.252
X141.924Y-109.435
X141.924Y-112.735
X143.091Y-109.918
X143.091Y-112.252
X143.575Y-111.085
X160.023Y-90.845
X160.507Y-89.678
X160.507Y-92.012
X161.673Y-89.195
X161.673Y-92.495
X162.84Y-89.678
X162.84Y-92.012
X163.323Y-90.845
T4
X133.872Y-92.032
X133.872Y-95.967
X133.872Y-99.218
T5
X154.543Y-112.035
X155.174Y-89.895
X157.083Y-112.035
X157.714Y-89.895
X160.085Y-112.035
X162.625Y-112.035
T6
X141.267Y-90.195
X147.647Y-90.195
T7
X141.924Y-111.085
X161.673Y-90.845
T3
X145.094Y-107.435G85X145.094Y-107.985
G05
X152.294Y-107.435G85X152.294Y-107.985
G05
T4
X145.094Y-110.71G85X145.094Y-111.61
G05
X152.294Y-110.71G85X152.294Y-111.61
G05
M30
