%TF.GenerationSoftware,KiCad,Pcbnew,8.0.1*%
%TF.CreationDate,2024-03-28T22:20:23+03:00*%
%TF.ProjectId,Piezo module,5069657a-6f20-46d6-9f64-756c652e6b69,rev?*%
%TF.SameCoordinates,Original*%
%TF.FileFunction,Drillmap*%
%TF.FilePolarity,Positive*%
%FSLAX45Y45*%
G04 Gerber Fmt 4.5, Leading zero omitted, Abs format (unit mm)*
G04 Created by KiCad (PCBNEW 8.0.1) date 2024-03-28 22:20:23*
%MOMM*%
%LPD*%
G01*
G04 APERTURE LIST*
%ADD10C,0.050000*%
%ADD11C,0.200000*%
%ADD12C,0.100000*%
G04 APERTURE END LIST*
D10*
X13401450Y-11353500D02*
G75*
G02*
X13266450Y-11218500I0J135000D01*
G01*
X13266450Y-8974500D02*
X13266450Y-11218500D01*
X13266450Y-8974500D02*
G75*
G02*
X13401450Y-8839500I135000J0D01*
G01*
X17093050Y-8974500D02*
X17093050Y-11218500D01*
X16958050Y-8839500D02*
G75*
G02*
X17093050Y-8974500I0J-135000D01*
G01*
X13401450Y-8839500D02*
X16958050Y-8839500D01*
X17093050Y-11218500D02*
G75*
G02*
X16958050Y-11353500I-135000J0D01*
G01*
X16958050Y-11353500D02*
X13401450Y-11353500D01*
D11*
D12*
X14644450Y-10876000D02*
X14694450Y-10926000D01*
X14694450Y-10876000D02*
X14644450Y-10926000D01*
X15044450Y-10876000D02*
X15094450Y-10926000D01*
X15094450Y-10876000D02*
X15044450Y-10926000D01*
X13681450Y-10668500D02*
G75*
G02*
X13591450Y-10668500I-45000J0D01*
G01*
X13591450Y-10668500D02*
G75*
G02*
X13681450Y-10668500I45000J0D01*
G01*
X13681450Y-10968500D02*
G75*
G02*
X13591450Y-10968500I-45000J0D01*
G01*
X13591450Y-10968500D02*
G75*
G02*
X13681450Y-10968500I45000J0D01*
G01*
D11*
X13524727Y-11667484D02*
X13524727Y-11467484D01*
X13524727Y-11467484D02*
X13572346Y-11467484D01*
X13572346Y-11467484D02*
X13600917Y-11477008D01*
X13600917Y-11477008D02*
X13619965Y-11496055D01*
X13619965Y-11496055D02*
X13629489Y-11515103D01*
X13629489Y-11515103D02*
X13639012Y-11553198D01*
X13639012Y-11553198D02*
X13639012Y-11581769D01*
X13639012Y-11581769D02*
X13629489Y-11619865D01*
X13629489Y-11619865D02*
X13619965Y-11638912D01*
X13619965Y-11638912D02*
X13600917Y-11657960D01*
X13600917Y-11657960D02*
X13572346Y-11667484D01*
X13572346Y-11667484D02*
X13524727Y-11667484D01*
X13724727Y-11667484D02*
X13724727Y-11534150D01*
X13724727Y-11572246D02*
X13734251Y-11553198D01*
X13734251Y-11553198D02*
X13743774Y-11543674D01*
X13743774Y-11543674D02*
X13762822Y-11534150D01*
X13762822Y-11534150D02*
X13781870Y-11534150D01*
X13848536Y-11667484D02*
X13848536Y-11534150D01*
X13848536Y-11467484D02*
X13839012Y-11477008D01*
X13839012Y-11477008D02*
X13848536Y-11486531D01*
X13848536Y-11486531D02*
X13858060Y-11477008D01*
X13858060Y-11477008D02*
X13848536Y-11467484D01*
X13848536Y-11467484D02*
X13848536Y-11486531D01*
X13972346Y-11667484D02*
X13953298Y-11657960D01*
X13953298Y-11657960D02*
X13943774Y-11638912D01*
X13943774Y-11638912D02*
X13943774Y-11467484D01*
X14077108Y-11667484D02*
X14058060Y-11657960D01*
X14058060Y-11657960D02*
X14048536Y-11638912D01*
X14048536Y-11638912D02*
X14048536Y-11467484D01*
X14305679Y-11667484D02*
X14305679Y-11467484D01*
X14305679Y-11467484D02*
X14372346Y-11610341D01*
X14372346Y-11610341D02*
X14439012Y-11467484D01*
X14439012Y-11467484D02*
X14439012Y-11667484D01*
X14619965Y-11667484D02*
X14619965Y-11562722D01*
X14619965Y-11562722D02*
X14610441Y-11543674D01*
X14610441Y-11543674D02*
X14591393Y-11534150D01*
X14591393Y-11534150D02*
X14553298Y-11534150D01*
X14553298Y-11534150D02*
X14534251Y-11543674D01*
X14619965Y-11657960D02*
X14600917Y-11667484D01*
X14600917Y-11667484D02*
X14553298Y-11667484D01*
X14553298Y-11667484D02*
X14534251Y-11657960D01*
X14534251Y-11657960D02*
X14524727Y-11638912D01*
X14524727Y-11638912D02*
X14524727Y-11619865D01*
X14524727Y-11619865D02*
X14534251Y-11600817D01*
X14534251Y-11600817D02*
X14553298Y-11591293D01*
X14553298Y-11591293D02*
X14600917Y-11591293D01*
X14600917Y-11591293D02*
X14619965Y-11581769D01*
X14715203Y-11534150D02*
X14715203Y-11734150D01*
X14715203Y-11543674D02*
X14734251Y-11534150D01*
X14734251Y-11534150D02*
X14772346Y-11534150D01*
X14772346Y-11534150D02*
X14791393Y-11543674D01*
X14791393Y-11543674D02*
X14800917Y-11553198D01*
X14800917Y-11553198D02*
X14810441Y-11572246D01*
X14810441Y-11572246D02*
X14810441Y-11629388D01*
X14810441Y-11629388D02*
X14800917Y-11648436D01*
X14800917Y-11648436D02*
X14791393Y-11657960D01*
X14791393Y-11657960D02*
X14772346Y-11667484D01*
X14772346Y-11667484D02*
X14734251Y-11667484D01*
X14734251Y-11667484D02*
X14715203Y-11657960D01*
X14896155Y-11648436D02*
X14905679Y-11657960D01*
X14905679Y-11657960D02*
X14896155Y-11667484D01*
X14896155Y-11667484D02*
X14886632Y-11657960D01*
X14886632Y-11657960D02*
X14896155Y-11648436D01*
X14896155Y-11648436D02*
X14896155Y-11667484D01*
X14896155Y-11543674D02*
X14905679Y-11553198D01*
X14905679Y-11553198D02*
X14896155Y-11562722D01*
X14896155Y-11562722D02*
X14886632Y-11553198D01*
X14886632Y-11553198D02*
X14896155Y-11543674D01*
X14896155Y-11543674D02*
X14896155Y-11562722D01*
D12*
X13213950Y-11971000D02*
X13263950Y-12021000D01*
X13263950Y-11971000D02*
X13213950Y-12021000D01*
D11*
X13562822Y-11887484D02*
X13581870Y-11887484D01*
X13581870Y-11887484D02*
X13600917Y-11897008D01*
X13600917Y-11897008D02*
X13610441Y-11906531D01*
X13610441Y-11906531D02*
X13619965Y-11925579D01*
X13619965Y-11925579D02*
X13629489Y-11963674D01*
X13629489Y-11963674D02*
X13629489Y-12011293D01*
X13629489Y-12011293D02*
X13619965Y-12049388D01*
X13619965Y-12049388D02*
X13610441Y-12068436D01*
X13610441Y-12068436D02*
X13600917Y-12077960D01*
X13600917Y-12077960D02*
X13581870Y-12087484D01*
X13581870Y-12087484D02*
X13562822Y-12087484D01*
X13562822Y-12087484D02*
X13543774Y-12077960D01*
X13543774Y-12077960D02*
X13534251Y-12068436D01*
X13534251Y-12068436D02*
X13524727Y-12049388D01*
X13524727Y-12049388D02*
X13515203Y-12011293D01*
X13515203Y-12011293D02*
X13515203Y-11963674D01*
X13515203Y-11963674D02*
X13524727Y-11925579D01*
X13524727Y-11925579D02*
X13534251Y-11906531D01*
X13534251Y-11906531D02*
X13543774Y-11897008D01*
X13543774Y-11897008D02*
X13562822Y-11887484D01*
X13715203Y-12068436D02*
X13724727Y-12077960D01*
X13724727Y-12077960D02*
X13715203Y-12087484D01*
X13715203Y-12087484D02*
X13705679Y-12077960D01*
X13705679Y-12077960D02*
X13715203Y-12068436D01*
X13715203Y-12068436D02*
X13715203Y-12087484D01*
X13905679Y-11887484D02*
X13810441Y-11887484D01*
X13810441Y-11887484D02*
X13800917Y-11982722D01*
X13800917Y-11982722D02*
X13810441Y-11973198D01*
X13810441Y-11973198D02*
X13829489Y-11963674D01*
X13829489Y-11963674D02*
X13877108Y-11963674D01*
X13877108Y-11963674D02*
X13896155Y-11973198D01*
X13896155Y-11973198D02*
X13905679Y-11982722D01*
X13905679Y-11982722D02*
X13915203Y-12001769D01*
X13915203Y-12001769D02*
X13915203Y-12049388D01*
X13915203Y-12049388D02*
X13905679Y-12068436D01*
X13905679Y-12068436D02*
X13896155Y-12077960D01*
X13896155Y-12077960D02*
X13877108Y-12087484D01*
X13877108Y-12087484D02*
X13829489Y-12087484D01*
X13829489Y-12087484D02*
X13810441Y-12077960D01*
X13810441Y-12077960D02*
X13800917Y-12068436D01*
X14039012Y-11887484D02*
X14058060Y-11887484D01*
X14058060Y-11887484D02*
X14077108Y-11897008D01*
X14077108Y-11897008D02*
X14086632Y-11906531D01*
X14086632Y-11906531D02*
X14096155Y-11925579D01*
X14096155Y-11925579D02*
X14105679Y-11963674D01*
X14105679Y-11963674D02*
X14105679Y-12011293D01*
X14105679Y-12011293D02*
X14096155Y-12049388D01*
X14096155Y-12049388D02*
X14086632Y-12068436D01*
X14086632Y-12068436D02*
X14077108Y-12077960D01*
X14077108Y-12077960D02*
X14058060Y-12087484D01*
X14058060Y-12087484D02*
X14039012Y-12087484D01*
X14039012Y-12087484D02*
X14019965Y-12077960D01*
X14019965Y-12077960D02*
X14010441Y-12068436D01*
X14010441Y-12068436D02*
X14000917Y-12049388D01*
X14000917Y-12049388D02*
X13991393Y-12011293D01*
X13991393Y-12011293D02*
X13991393Y-11963674D01*
X13991393Y-11963674D02*
X14000917Y-11925579D01*
X14000917Y-11925579D02*
X14010441Y-11906531D01*
X14010441Y-11906531D02*
X14019965Y-11897008D01*
X14019965Y-11897008D02*
X14039012Y-11887484D01*
X14229489Y-11887484D02*
X14248536Y-11887484D01*
X14248536Y-11887484D02*
X14267584Y-11897008D01*
X14267584Y-11897008D02*
X14277108Y-11906531D01*
X14277108Y-11906531D02*
X14286632Y-11925579D01*
X14286632Y-11925579D02*
X14296155Y-11963674D01*
X14296155Y-11963674D02*
X14296155Y-12011293D01*
X14296155Y-12011293D02*
X14286632Y-12049388D01*
X14286632Y-12049388D02*
X14277108Y-12068436D01*
X14277108Y-12068436D02*
X14267584Y-12077960D01*
X14267584Y-12077960D02*
X14248536Y-12087484D01*
X14248536Y-12087484D02*
X14229489Y-12087484D01*
X14229489Y-12087484D02*
X14210441Y-12077960D01*
X14210441Y-12077960D02*
X14200917Y-12068436D01*
X14200917Y-12068436D02*
X14191393Y-12049388D01*
X14191393Y-12049388D02*
X14181870Y-12011293D01*
X14181870Y-12011293D02*
X14181870Y-11963674D01*
X14181870Y-11963674D02*
X14191393Y-11925579D01*
X14191393Y-11925579D02*
X14200917Y-11906531D01*
X14200917Y-11906531D02*
X14210441Y-11897008D01*
X14210441Y-11897008D02*
X14229489Y-11887484D01*
X14381870Y-12087484D02*
X14381870Y-11954150D01*
X14381870Y-11973198D02*
X14391393Y-11963674D01*
X14391393Y-11963674D02*
X14410441Y-11954150D01*
X14410441Y-11954150D02*
X14439013Y-11954150D01*
X14439013Y-11954150D02*
X14458060Y-11963674D01*
X14458060Y-11963674D02*
X14467584Y-11982722D01*
X14467584Y-11982722D02*
X14467584Y-12087484D01*
X14467584Y-11982722D02*
X14477108Y-11963674D01*
X14477108Y-11963674D02*
X14496155Y-11954150D01*
X14496155Y-11954150D02*
X14524727Y-11954150D01*
X14524727Y-11954150D02*
X14543774Y-11963674D01*
X14543774Y-11963674D02*
X14553298Y-11982722D01*
X14553298Y-11982722D02*
X14553298Y-12087484D01*
X14648536Y-12087484D02*
X14648536Y-11954150D01*
X14648536Y-11973198D02*
X14658060Y-11963674D01*
X14658060Y-11963674D02*
X14677108Y-11954150D01*
X14677108Y-11954150D02*
X14705679Y-11954150D01*
X14705679Y-11954150D02*
X14724727Y-11963674D01*
X14724727Y-11963674D02*
X14734251Y-11982722D01*
X14734251Y-11982722D02*
X14734251Y-12087484D01*
X14734251Y-11982722D02*
X14743774Y-11963674D01*
X14743774Y-11963674D02*
X14762822Y-11954150D01*
X14762822Y-11954150D02*
X14791393Y-11954150D01*
X14791393Y-11954150D02*
X14810441Y-11963674D01*
X14810441Y-11963674D02*
X14819965Y-11982722D01*
X14819965Y-11982722D02*
X14819965Y-12087484D01*
X15210441Y-11877960D02*
X15039013Y-12135103D01*
X15467584Y-11887484D02*
X15486632Y-11887484D01*
X15486632Y-11887484D02*
X15505679Y-11897008D01*
X15505679Y-11897008D02*
X15515203Y-11906531D01*
X15515203Y-11906531D02*
X15524727Y-11925579D01*
X15524727Y-11925579D02*
X15534251Y-11963674D01*
X15534251Y-11963674D02*
X15534251Y-12011293D01*
X15534251Y-12011293D02*
X15524727Y-12049388D01*
X15524727Y-12049388D02*
X15515203Y-12068436D01*
X15515203Y-12068436D02*
X15505679Y-12077960D01*
X15505679Y-12077960D02*
X15486632Y-12087484D01*
X15486632Y-12087484D02*
X15467584Y-12087484D01*
X15467584Y-12087484D02*
X15448536Y-12077960D01*
X15448536Y-12077960D02*
X15439013Y-12068436D01*
X15439013Y-12068436D02*
X15429489Y-12049388D01*
X15429489Y-12049388D02*
X15419965Y-12011293D01*
X15419965Y-12011293D02*
X15419965Y-11963674D01*
X15419965Y-11963674D02*
X15429489Y-11925579D01*
X15429489Y-11925579D02*
X15439013Y-11906531D01*
X15439013Y-11906531D02*
X15448536Y-11897008D01*
X15448536Y-11897008D02*
X15467584Y-11887484D01*
X15619965Y-12068436D02*
X15629489Y-12077960D01*
X15629489Y-12077960D02*
X15619965Y-12087484D01*
X15619965Y-12087484D02*
X15610441Y-12077960D01*
X15610441Y-12077960D02*
X15619965Y-12068436D01*
X15619965Y-12068436D02*
X15619965Y-12087484D01*
X15753298Y-11887484D02*
X15772346Y-11887484D01*
X15772346Y-11887484D02*
X15791394Y-11897008D01*
X15791394Y-11897008D02*
X15800917Y-11906531D01*
X15800917Y-11906531D02*
X15810441Y-11925579D01*
X15810441Y-11925579D02*
X15819965Y-11963674D01*
X15819965Y-11963674D02*
X15819965Y-12011293D01*
X15819965Y-12011293D02*
X15810441Y-12049388D01*
X15810441Y-12049388D02*
X15800917Y-12068436D01*
X15800917Y-12068436D02*
X15791394Y-12077960D01*
X15791394Y-12077960D02*
X15772346Y-12087484D01*
X15772346Y-12087484D02*
X15753298Y-12087484D01*
X15753298Y-12087484D02*
X15734251Y-12077960D01*
X15734251Y-12077960D02*
X15724727Y-12068436D01*
X15724727Y-12068436D02*
X15715203Y-12049388D01*
X15715203Y-12049388D02*
X15705679Y-12011293D01*
X15705679Y-12011293D02*
X15705679Y-11963674D01*
X15705679Y-11963674D02*
X15715203Y-11925579D01*
X15715203Y-11925579D02*
X15724727Y-11906531D01*
X15724727Y-11906531D02*
X15734251Y-11897008D01*
X15734251Y-11897008D02*
X15753298Y-11887484D01*
X16010441Y-12087484D02*
X15896156Y-12087484D01*
X15953298Y-12087484D02*
X15953298Y-11887484D01*
X15953298Y-11887484D02*
X15934251Y-11916055D01*
X15934251Y-11916055D02*
X15915203Y-11935103D01*
X15915203Y-11935103D02*
X15896156Y-11944627D01*
X16105679Y-12087484D02*
X16143775Y-12087484D01*
X16143775Y-12087484D02*
X16162822Y-12077960D01*
X16162822Y-12077960D02*
X16172346Y-12068436D01*
X16172346Y-12068436D02*
X16191394Y-12039865D01*
X16191394Y-12039865D02*
X16200917Y-12001769D01*
X16200917Y-12001769D02*
X16200917Y-11925579D01*
X16200917Y-11925579D02*
X16191394Y-11906531D01*
X16191394Y-11906531D02*
X16181870Y-11897008D01*
X16181870Y-11897008D02*
X16162822Y-11887484D01*
X16162822Y-11887484D02*
X16124727Y-11887484D01*
X16124727Y-11887484D02*
X16105679Y-11897008D01*
X16105679Y-11897008D02*
X16096156Y-11906531D01*
X16096156Y-11906531D02*
X16086632Y-11925579D01*
X16086632Y-11925579D02*
X16086632Y-11973198D01*
X16086632Y-11973198D02*
X16096156Y-11992246D01*
X16096156Y-11992246D02*
X16105679Y-12001769D01*
X16105679Y-12001769D02*
X16124727Y-12011293D01*
X16124727Y-12011293D02*
X16162822Y-12011293D01*
X16162822Y-12011293D02*
X16181870Y-12001769D01*
X16181870Y-12001769D02*
X16191394Y-11992246D01*
X16191394Y-11992246D02*
X16200917Y-11973198D01*
X16267584Y-11887484D02*
X16400917Y-11887484D01*
X16400917Y-11887484D02*
X16315203Y-12087484D01*
X16467584Y-11887484D02*
X16467584Y-11925579D01*
X16543775Y-11887484D02*
X16543775Y-11925579D01*
X16839013Y-12163674D02*
X16829489Y-12154150D01*
X16829489Y-12154150D02*
X16810441Y-12125579D01*
X16810441Y-12125579D02*
X16800918Y-12106531D01*
X16800918Y-12106531D02*
X16791394Y-12077960D01*
X16791394Y-12077960D02*
X16781870Y-12030341D01*
X16781870Y-12030341D02*
X16781870Y-11992246D01*
X16781870Y-11992246D02*
X16791394Y-11944627D01*
X16791394Y-11944627D02*
X16800918Y-11916055D01*
X16800918Y-11916055D02*
X16810441Y-11897008D01*
X16810441Y-11897008D02*
X16829489Y-11868436D01*
X16829489Y-11868436D02*
X16839013Y-11858912D01*
X16905680Y-11906531D02*
X16915203Y-11897008D01*
X16915203Y-11897008D02*
X16934251Y-11887484D01*
X16934251Y-11887484D02*
X16981870Y-11887484D01*
X16981870Y-11887484D02*
X17000918Y-11897008D01*
X17000918Y-11897008D02*
X17010441Y-11906531D01*
X17010441Y-11906531D02*
X17019965Y-11925579D01*
X17019965Y-11925579D02*
X17019965Y-11944627D01*
X17019965Y-11944627D02*
X17010441Y-11973198D01*
X17010441Y-11973198D02*
X16896156Y-12087484D01*
X16896156Y-12087484D02*
X17019965Y-12087484D01*
X17258061Y-12087484D02*
X17258061Y-11887484D01*
X17343775Y-12087484D02*
X17343775Y-11982722D01*
X17343775Y-11982722D02*
X17334251Y-11963674D01*
X17334251Y-11963674D02*
X17315203Y-11954150D01*
X17315203Y-11954150D02*
X17286632Y-11954150D01*
X17286632Y-11954150D02*
X17267584Y-11963674D01*
X17267584Y-11963674D02*
X17258061Y-11973198D01*
X17467584Y-12087484D02*
X17448537Y-12077960D01*
X17448537Y-12077960D02*
X17439013Y-12068436D01*
X17439013Y-12068436D02*
X17429489Y-12049388D01*
X17429489Y-12049388D02*
X17429489Y-11992246D01*
X17429489Y-11992246D02*
X17439013Y-11973198D01*
X17439013Y-11973198D02*
X17448537Y-11963674D01*
X17448537Y-11963674D02*
X17467584Y-11954150D01*
X17467584Y-11954150D02*
X17496156Y-11954150D01*
X17496156Y-11954150D02*
X17515203Y-11963674D01*
X17515203Y-11963674D02*
X17524727Y-11973198D01*
X17524727Y-11973198D02*
X17534251Y-11992246D01*
X17534251Y-11992246D02*
X17534251Y-12049388D01*
X17534251Y-12049388D02*
X17524727Y-12068436D01*
X17524727Y-12068436D02*
X17515203Y-12077960D01*
X17515203Y-12077960D02*
X17496156Y-12087484D01*
X17496156Y-12087484D02*
X17467584Y-12087484D01*
X17648537Y-12087484D02*
X17629489Y-12077960D01*
X17629489Y-12077960D02*
X17619965Y-12058912D01*
X17619965Y-12058912D02*
X17619965Y-11887484D01*
X17800918Y-12077960D02*
X17781870Y-12087484D01*
X17781870Y-12087484D02*
X17743775Y-12087484D01*
X17743775Y-12087484D02*
X17724727Y-12077960D01*
X17724727Y-12077960D02*
X17715203Y-12058912D01*
X17715203Y-12058912D02*
X17715203Y-11982722D01*
X17715203Y-11982722D02*
X17724727Y-11963674D01*
X17724727Y-11963674D02*
X17743775Y-11954150D01*
X17743775Y-11954150D02*
X17781870Y-11954150D01*
X17781870Y-11954150D02*
X17800918Y-11963674D01*
X17800918Y-11963674D02*
X17810442Y-11982722D01*
X17810442Y-11982722D02*
X17810442Y-12001769D01*
X17810442Y-12001769D02*
X17715203Y-12020817D01*
X17886632Y-12077960D02*
X17905680Y-12087484D01*
X17905680Y-12087484D02*
X17943775Y-12087484D01*
X17943775Y-12087484D02*
X17962823Y-12077960D01*
X17962823Y-12077960D02*
X17972346Y-12058912D01*
X17972346Y-12058912D02*
X17972346Y-12049388D01*
X17972346Y-12049388D02*
X17962823Y-12030341D01*
X17962823Y-12030341D02*
X17943775Y-12020817D01*
X17943775Y-12020817D02*
X17915203Y-12020817D01*
X17915203Y-12020817D02*
X17896156Y-12011293D01*
X17896156Y-12011293D02*
X17886632Y-11992246D01*
X17886632Y-11992246D02*
X17886632Y-11982722D01*
X17886632Y-11982722D02*
X17896156Y-11963674D01*
X17896156Y-11963674D02*
X17915203Y-11954150D01*
X17915203Y-11954150D02*
X17943775Y-11954150D01*
X17943775Y-11954150D02*
X17962823Y-11963674D01*
X18039013Y-12163674D02*
X18048537Y-12154150D01*
X18048537Y-12154150D02*
X18067584Y-12125579D01*
X18067584Y-12125579D02*
X18077108Y-12106531D01*
X18077108Y-12106531D02*
X18086632Y-12077960D01*
X18086632Y-12077960D02*
X18096156Y-12030341D01*
X18096156Y-12030341D02*
X18096156Y-11992246D01*
X18096156Y-11992246D02*
X18086632Y-11944627D01*
X18086632Y-11944627D02*
X18077108Y-11916055D01*
X18077108Y-11916055D02*
X18067584Y-11897008D01*
X18067584Y-11897008D02*
X18048537Y-11868436D01*
X18048537Y-11868436D02*
X18039013Y-11858912D01*
X18400918Y-12163674D02*
X18391394Y-12154150D01*
X18391394Y-12154150D02*
X18372346Y-12125579D01*
X18372346Y-12125579D02*
X18362823Y-12106531D01*
X18362823Y-12106531D02*
X18353299Y-12077960D01*
X18353299Y-12077960D02*
X18343775Y-12030341D01*
X18343775Y-12030341D02*
X18343775Y-11992246D01*
X18343775Y-11992246D02*
X18353299Y-11944627D01*
X18353299Y-11944627D02*
X18362823Y-11916055D01*
X18362823Y-11916055D02*
X18372346Y-11897008D01*
X18372346Y-11897008D02*
X18391394Y-11868436D01*
X18391394Y-11868436D02*
X18400918Y-11858912D01*
X18477108Y-11954150D02*
X18477108Y-12087484D01*
X18477108Y-11973198D02*
X18486632Y-11963674D01*
X18486632Y-11963674D02*
X18505680Y-11954150D01*
X18505680Y-11954150D02*
X18534251Y-11954150D01*
X18534251Y-11954150D02*
X18553299Y-11963674D01*
X18553299Y-11963674D02*
X18562823Y-11982722D01*
X18562823Y-11982722D02*
X18562823Y-12087484D01*
X18686632Y-12087484D02*
X18667584Y-12077960D01*
X18667584Y-12077960D02*
X18658061Y-12068436D01*
X18658061Y-12068436D02*
X18648537Y-12049388D01*
X18648537Y-12049388D02*
X18648537Y-11992246D01*
X18648537Y-11992246D02*
X18658061Y-11973198D01*
X18658061Y-11973198D02*
X18667584Y-11963674D01*
X18667584Y-11963674D02*
X18686632Y-11954150D01*
X18686632Y-11954150D02*
X18715204Y-11954150D01*
X18715204Y-11954150D02*
X18734251Y-11963674D01*
X18734251Y-11963674D02*
X18743775Y-11973198D01*
X18743775Y-11973198D02*
X18753299Y-11992246D01*
X18753299Y-11992246D02*
X18753299Y-12049388D01*
X18753299Y-12049388D02*
X18743775Y-12068436D01*
X18743775Y-12068436D02*
X18734251Y-12077960D01*
X18734251Y-12077960D02*
X18715204Y-12087484D01*
X18715204Y-12087484D02*
X18686632Y-12087484D01*
X18810442Y-11954150D02*
X18886632Y-11954150D01*
X18839013Y-11887484D02*
X18839013Y-12058912D01*
X18839013Y-12058912D02*
X18848537Y-12077960D01*
X18848537Y-12077960D02*
X18867584Y-12087484D01*
X18867584Y-12087484D02*
X18886632Y-12087484D01*
X19105680Y-11954150D02*
X19105680Y-12154150D01*
X19105680Y-11963674D02*
X19124727Y-11954150D01*
X19124727Y-11954150D02*
X19162823Y-11954150D01*
X19162823Y-11954150D02*
X19181870Y-11963674D01*
X19181870Y-11963674D02*
X19191394Y-11973198D01*
X19191394Y-11973198D02*
X19200918Y-11992246D01*
X19200918Y-11992246D02*
X19200918Y-12049388D01*
X19200918Y-12049388D02*
X19191394Y-12068436D01*
X19191394Y-12068436D02*
X19181870Y-12077960D01*
X19181870Y-12077960D02*
X19162823Y-12087484D01*
X19162823Y-12087484D02*
X19124727Y-12087484D01*
X19124727Y-12087484D02*
X19105680Y-12077960D01*
X19315204Y-12087484D02*
X19296156Y-12077960D01*
X19296156Y-12077960D02*
X19286632Y-12058912D01*
X19286632Y-12058912D02*
X19286632Y-11887484D01*
X19477108Y-12087484D02*
X19477108Y-11982722D01*
X19477108Y-11982722D02*
X19467585Y-11963674D01*
X19467585Y-11963674D02*
X19448537Y-11954150D01*
X19448537Y-11954150D02*
X19410442Y-11954150D01*
X19410442Y-11954150D02*
X19391394Y-11963674D01*
X19477108Y-12077960D02*
X19458061Y-12087484D01*
X19458061Y-12087484D02*
X19410442Y-12087484D01*
X19410442Y-12087484D02*
X19391394Y-12077960D01*
X19391394Y-12077960D02*
X19381870Y-12058912D01*
X19381870Y-12058912D02*
X19381870Y-12039865D01*
X19381870Y-12039865D02*
X19391394Y-12020817D01*
X19391394Y-12020817D02*
X19410442Y-12011293D01*
X19410442Y-12011293D02*
X19458061Y-12011293D01*
X19458061Y-12011293D02*
X19477108Y-12001769D01*
X19543775Y-11954150D02*
X19619965Y-11954150D01*
X19572346Y-11887484D02*
X19572346Y-12058912D01*
X19572346Y-12058912D02*
X19581870Y-12077960D01*
X19581870Y-12077960D02*
X19600918Y-12087484D01*
X19600918Y-12087484D02*
X19619965Y-12087484D01*
X19762823Y-12077960D02*
X19743775Y-12087484D01*
X19743775Y-12087484D02*
X19705680Y-12087484D01*
X19705680Y-12087484D02*
X19686632Y-12077960D01*
X19686632Y-12077960D02*
X19677108Y-12058912D01*
X19677108Y-12058912D02*
X19677108Y-11982722D01*
X19677108Y-11982722D02*
X19686632Y-11963674D01*
X19686632Y-11963674D02*
X19705680Y-11954150D01*
X19705680Y-11954150D02*
X19743775Y-11954150D01*
X19743775Y-11954150D02*
X19762823Y-11963674D01*
X19762823Y-11963674D02*
X19772346Y-11982722D01*
X19772346Y-11982722D02*
X19772346Y-12001769D01*
X19772346Y-12001769D02*
X19677108Y-12020817D01*
X19943775Y-12087484D02*
X19943775Y-11887484D01*
X19943775Y-12077960D02*
X19924727Y-12087484D01*
X19924727Y-12087484D02*
X19886632Y-12087484D01*
X19886632Y-12087484D02*
X19867585Y-12077960D01*
X19867585Y-12077960D02*
X19858061Y-12068436D01*
X19858061Y-12068436D02*
X19848537Y-12049388D01*
X19848537Y-12049388D02*
X19848537Y-11992246D01*
X19848537Y-11992246D02*
X19858061Y-11973198D01*
X19858061Y-11973198D02*
X19867585Y-11963674D01*
X19867585Y-11963674D02*
X19886632Y-11954150D01*
X19886632Y-11954150D02*
X19924727Y-11954150D01*
X19924727Y-11954150D02*
X19943775Y-11963674D01*
X20019966Y-12163674D02*
X20029489Y-12154150D01*
X20029489Y-12154150D02*
X20048537Y-12125579D01*
X20048537Y-12125579D02*
X20058061Y-12106531D01*
X20058061Y-12106531D02*
X20067585Y-12077960D01*
X20067585Y-12077960D02*
X20077108Y-12030341D01*
X20077108Y-12030341D02*
X20077108Y-11992246D01*
X20077108Y-11992246D02*
X20067585Y-11944627D01*
X20067585Y-11944627D02*
X20058061Y-11916055D01*
X20058061Y-11916055D02*
X20048537Y-11897008D01*
X20048537Y-11897008D02*
X20029489Y-11868436D01*
X20029489Y-11868436D02*
X20019966Y-11858912D01*
D12*
X13263950Y-12260000D02*
G75*
G02*
X13173950Y-12260000I-45000J0D01*
G01*
X13173950Y-12260000D02*
G75*
G02*
X13263950Y-12260000I45000J0D01*
G01*
D11*
X13562822Y-12151484D02*
X13581870Y-12151484D01*
X13581870Y-12151484D02*
X13600917Y-12161008D01*
X13600917Y-12161008D02*
X13610441Y-12170531D01*
X13610441Y-12170531D02*
X13619965Y-12189579D01*
X13619965Y-12189579D02*
X13629489Y-12227674D01*
X13629489Y-12227674D02*
X13629489Y-12275293D01*
X13629489Y-12275293D02*
X13619965Y-12313388D01*
X13619965Y-12313388D02*
X13610441Y-12332436D01*
X13610441Y-12332436D02*
X13600917Y-12341960D01*
X13600917Y-12341960D02*
X13581870Y-12351484D01*
X13581870Y-12351484D02*
X13562822Y-12351484D01*
X13562822Y-12351484D02*
X13543774Y-12341960D01*
X13543774Y-12341960D02*
X13534251Y-12332436D01*
X13534251Y-12332436D02*
X13524727Y-12313388D01*
X13524727Y-12313388D02*
X13515203Y-12275293D01*
X13515203Y-12275293D02*
X13515203Y-12227674D01*
X13515203Y-12227674D02*
X13524727Y-12189579D01*
X13524727Y-12189579D02*
X13534251Y-12170531D01*
X13534251Y-12170531D02*
X13543774Y-12161008D01*
X13543774Y-12161008D02*
X13562822Y-12151484D01*
X13715203Y-12332436D02*
X13724727Y-12341960D01*
X13724727Y-12341960D02*
X13715203Y-12351484D01*
X13715203Y-12351484D02*
X13705679Y-12341960D01*
X13705679Y-12341960D02*
X13715203Y-12332436D01*
X13715203Y-12332436D02*
X13715203Y-12351484D01*
X13819965Y-12351484D02*
X13858060Y-12351484D01*
X13858060Y-12351484D02*
X13877108Y-12341960D01*
X13877108Y-12341960D02*
X13886632Y-12332436D01*
X13886632Y-12332436D02*
X13905679Y-12303865D01*
X13905679Y-12303865D02*
X13915203Y-12265769D01*
X13915203Y-12265769D02*
X13915203Y-12189579D01*
X13915203Y-12189579D02*
X13905679Y-12170531D01*
X13905679Y-12170531D02*
X13896155Y-12161008D01*
X13896155Y-12161008D02*
X13877108Y-12151484D01*
X13877108Y-12151484D02*
X13839012Y-12151484D01*
X13839012Y-12151484D02*
X13819965Y-12161008D01*
X13819965Y-12161008D02*
X13810441Y-12170531D01*
X13810441Y-12170531D02*
X13800917Y-12189579D01*
X13800917Y-12189579D02*
X13800917Y-12237198D01*
X13800917Y-12237198D02*
X13810441Y-12256246D01*
X13810441Y-12256246D02*
X13819965Y-12265769D01*
X13819965Y-12265769D02*
X13839012Y-12275293D01*
X13839012Y-12275293D02*
X13877108Y-12275293D01*
X13877108Y-12275293D02*
X13896155Y-12265769D01*
X13896155Y-12265769D02*
X13905679Y-12256246D01*
X13905679Y-12256246D02*
X13915203Y-12237198D01*
X14039012Y-12151484D02*
X14058060Y-12151484D01*
X14058060Y-12151484D02*
X14077108Y-12161008D01*
X14077108Y-12161008D02*
X14086632Y-12170531D01*
X14086632Y-12170531D02*
X14096155Y-12189579D01*
X14096155Y-12189579D02*
X14105679Y-12227674D01*
X14105679Y-12227674D02*
X14105679Y-12275293D01*
X14105679Y-12275293D02*
X14096155Y-12313388D01*
X14096155Y-12313388D02*
X14086632Y-12332436D01*
X14086632Y-12332436D02*
X14077108Y-12341960D01*
X14077108Y-12341960D02*
X14058060Y-12351484D01*
X14058060Y-12351484D02*
X14039012Y-12351484D01*
X14039012Y-12351484D02*
X14019965Y-12341960D01*
X14019965Y-12341960D02*
X14010441Y-12332436D01*
X14010441Y-12332436D02*
X14000917Y-12313388D01*
X14000917Y-12313388D02*
X13991393Y-12275293D01*
X13991393Y-12275293D02*
X13991393Y-12227674D01*
X13991393Y-12227674D02*
X14000917Y-12189579D01*
X14000917Y-12189579D02*
X14010441Y-12170531D01*
X14010441Y-12170531D02*
X14019965Y-12161008D01*
X14019965Y-12161008D02*
X14039012Y-12151484D01*
X14229489Y-12151484D02*
X14248536Y-12151484D01*
X14248536Y-12151484D02*
X14267584Y-12161008D01*
X14267584Y-12161008D02*
X14277108Y-12170531D01*
X14277108Y-12170531D02*
X14286632Y-12189579D01*
X14286632Y-12189579D02*
X14296155Y-12227674D01*
X14296155Y-12227674D02*
X14296155Y-12275293D01*
X14296155Y-12275293D02*
X14286632Y-12313388D01*
X14286632Y-12313388D02*
X14277108Y-12332436D01*
X14277108Y-12332436D02*
X14267584Y-12341960D01*
X14267584Y-12341960D02*
X14248536Y-12351484D01*
X14248536Y-12351484D02*
X14229489Y-12351484D01*
X14229489Y-12351484D02*
X14210441Y-12341960D01*
X14210441Y-12341960D02*
X14200917Y-12332436D01*
X14200917Y-12332436D02*
X14191393Y-12313388D01*
X14191393Y-12313388D02*
X14181870Y-12275293D01*
X14181870Y-12275293D02*
X14181870Y-12227674D01*
X14181870Y-12227674D02*
X14191393Y-12189579D01*
X14191393Y-12189579D02*
X14200917Y-12170531D01*
X14200917Y-12170531D02*
X14210441Y-12161008D01*
X14210441Y-12161008D02*
X14229489Y-12151484D01*
X14381870Y-12351484D02*
X14381870Y-12218150D01*
X14381870Y-12237198D02*
X14391393Y-12227674D01*
X14391393Y-12227674D02*
X14410441Y-12218150D01*
X14410441Y-12218150D02*
X14439013Y-12218150D01*
X14439013Y-12218150D02*
X14458060Y-12227674D01*
X14458060Y-12227674D02*
X14467584Y-12246722D01*
X14467584Y-12246722D02*
X14467584Y-12351484D01*
X14467584Y-12246722D02*
X14477108Y-12227674D01*
X14477108Y-12227674D02*
X14496155Y-12218150D01*
X14496155Y-12218150D02*
X14524727Y-12218150D01*
X14524727Y-12218150D02*
X14543774Y-12227674D01*
X14543774Y-12227674D02*
X14553298Y-12246722D01*
X14553298Y-12246722D02*
X14553298Y-12351484D01*
X14648536Y-12351484D02*
X14648536Y-12218150D01*
X14648536Y-12237198D02*
X14658060Y-12227674D01*
X14658060Y-12227674D02*
X14677108Y-12218150D01*
X14677108Y-12218150D02*
X14705679Y-12218150D01*
X14705679Y-12218150D02*
X14724727Y-12227674D01*
X14724727Y-12227674D02*
X14734251Y-12246722D01*
X14734251Y-12246722D02*
X14734251Y-12351484D01*
X14734251Y-12246722D02*
X14743774Y-12227674D01*
X14743774Y-12227674D02*
X14762822Y-12218150D01*
X14762822Y-12218150D02*
X14791393Y-12218150D01*
X14791393Y-12218150D02*
X14810441Y-12227674D01*
X14810441Y-12227674D02*
X14819965Y-12246722D01*
X14819965Y-12246722D02*
X14819965Y-12351484D01*
X15210441Y-12141960D02*
X15039013Y-12399103D01*
X15467584Y-12151484D02*
X15486632Y-12151484D01*
X15486632Y-12151484D02*
X15505679Y-12161008D01*
X15505679Y-12161008D02*
X15515203Y-12170531D01*
X15515203Y-12170531D02*
X15524727Y-12189579D01*
X15524727Y-12189579D02*
X15534251Y-12227674D01*
X15534251Y-12227674D02*
X15534251Y-12275293D01*
X15534251Y-12275293D02*
X15524727Y-12313388D01*
X15524727Y-12313388D02*
X15515203Y-12332436D01*
X15515203Y-12332436D02*
X15505679Y-12341960D01*
X15505679Y-12341960D02*
X15486632Y-12351484D01*
X15486632Y-12351484D02*
X15467584Y-12351484D01*
X15467584Y-12351484D02*
X15448536Y-12341960D01*
X15448536Y-12341960D02*
X15439013Y-12332436D01*
X15439013Y-12332436D02*
X15429489Y-12313388D01*
X15429489Y-12313388D02*
X15419965Y-12275293D01*
X15419965Y-12275293D02*
X15419965Y-12227674D01*
X15419965Y-12227674D02*
X15429489Y-12189579D01*
X15429489Y-12189579D02*
X15439013Y-12170531D01*
X15439013Y-12170531D02*
X15448536Y-12161008D01*
X15448536Y-12161008D02*
X15467584Y-12151484D01*
X15619965Y-12332436D02*
X15629489Y-12341960D01*
X15629489Y-12341960D02*
X15619965Y-12351484D01*
X15619965Y-12351484D02*
X15610441Y-12341960D01*
X15610441Y-12341960D02*
X15619965Y-12332436D01*
X15619965Y-12332436D02*
X15619965Y-12351484D01*
X15753298Y-12151484D02*
X15772346Y-12151484D01*
X15772346Y-12151484D02*
X15791394Y-12161008D01*
X15791394Y-12161008D02*
X15800917Y-12170531D01*
X15800917Y-12170531D02*
X15810441Y-12189579D01*
X15810441Y-12189579D02*
X15819965Y-12227674D01*
X15819965Y-12227674D02*
X15819965Y-12275293D01*
X15819965Y-12275293D02*
X15810441Y-12313388D01*
X15810441Y-12313388D02*
X15800917Y-12332436D01*
X15800917Y-12332436D02*
X15791394Y-12341960D01*
X15791394Y-12341960D02*
X15772346Y-12351484D01*
X15772346Y-12351484D02*
X15753298Y-12351484D01*
X15753298Y-12351484D02*
X15734251Y-12341960D01*
X15734251Y-12341960D02*
X15724727Y-12332436D01*
X15724727Y-12332436D02*
X15715203Y-12313388D01*
X15715203Y-12313388D02*
X15705679Y-12275293D01*
X15705679Y-12275293D02*
X15705679Y-12227674D01*
X15705679Y-12227674D02*
X15715203Y-12189579D01*
X15715203Y-12189579D02*
X15724727Y-12170531D01*
X15724727Y-12170531D02*
X15734251Y-12161008D01*
X15734251Y-12161008D02*
X15753298Y-12151484D01*
X15886632Y-12151484D02*
X16010441Y-12151484D01*
X16010441Y-12151484D02*
X15943775Y-12227674D01*
X15943775Y-12227674D02*
X15972346Y-12227674D01*
X15972346Y-12227674D02*
X15991394Y-12237198D01*
X15991394Y-12237198D02*
X16000917Y-12246722D01*
X16000917Y-12246722D02*
X16010441Y-12265769D01*
X16010441Y-12265769D02*
X16010441Y-12313388D01*
X16010441Y-12313388D02*
X16000917Y-12332436D01*
X16000917Y-12332436D02*
X15991394Y-12341960D01*
X15991394Y-12341960D02*
X15972346Y-12351484D01*
X15972346Y-12351484D02*
X15915203Y-12351484D01*
X15915203Y-12351484D02*
X15896156Y-12341960D01*
X15896156Y-12341960D02*
X15886632Y-12332436D01*
X16191394Y-12151484D02*
X16096156Y-12151484D01*
X16096156Y-12151484D02*
X16086632Y-12246722D01*
X16086632Y-12246722D02*
X16096156Y-12237198D01*
X16096156Y-12237198D02*
X16115203Y-12227674D01*
X16115203Y-12227674D02*
X16162822Y-12227674D01*
X16162822Y-12227674D02*
X16181870Y-12237198D01*
X16181870Y-12237198D02*
X16191394Y-12246722D01*
X16191394Y-12246722D02*
X16200917Y-12265769D01*
X16200917Y-12265769D02*
X16200917Y-12313388D01*
X16200917Y-12313388D02*
X16191394Y-12332436D01*
X16191394Y-12332436D02*
X16181870Y-12341960D01*
X16181870Y-12341960D02*
X16162822Y-12351484D01*
X16162822Y-12351484D02*
X16115203Y-12351484D01*
X16115203Y-12351484D02*
X16096156Y-12341960D01*
X16096156Y-12341960D02*
X16086632Y-12332436D01*
X16372346Y-12218150D02*
X16372346Y-12351484D01*
X16324727Y-12141960D02*
X16277108Y-12284817D01*
X16277108Y-12284817D02*
X16400917Y-12284817D01*
X16467584Y-12151484D02*
X16467584Y-12189579D01*
X16543775Y-12151484D02*
X16543775Y-12189579D01*
X16839013Y-12427674D02*
X16829489Y-12418150D01*
X16829489Y-12418150D02*
X16810441Y-12389579D01*
X16810441Y-12389579D02*
X16800918Y-12370531D01*
X16800918Y-12370531D02*
X16791394Y-12341960D01*
X16791394Y-12341960D02*
X16781870Y-12294341D01*
X16781870Y-12294341D02*
X16781870Y-12256246D01*
X16781870Y-12256246D02*
X16791394Y-12208627D01*
X16791394Y-12208627D02*
X16800918Y-12180055D01*
X16800918Y-12180055D02*
X16810441Y-12161008D01*
X16810441Y-12161008D02*
X16829489Y-12132436D01*
X16829489Y-12132436D02*
X16839013Y-12122912D01*
X16905680Y-12170531D02*
X16915203Y-12161008D01*
X16915203Y-12161008D02*
X16934251Y-12151484D01*
X16934251Y-12151484D02*
X16981870Y-12151484D01*
X16981870Y-12151484D02*
X17000918Y-12161008D01*
X17000918Y-12161008D02*
X17010441Y-12170531D01*
X17010441Y-12170531D02*
X17019965Y-12189579D01*
X17019965Y-12189579D02*
X17019965Y-12208627D01*
X17019965Y-12208627D02*
X17010441Y-12237198D01*
X17010441Y-12237198D02*
X16896156Y-12351484D01*
X16896156Y-12351484D02*
X17019965Y-12351484D01*
X17258061Y-12351484D02*
X17258061Y-12151484D01*
X17343775Y-12351484D02*
X17343775Y-12246722D01*
X17343775Y-12246722D02*
X17334251Y-12227674D01*
X17334251Y-12227674D02*
X17315203Y-12218150D01*
X17315203Y-12218150D02*
X17286632Y-12218150D01*
X17286632Y-12218150D02*
X17267584Y-12227674D01*
X17267584Y-12227674D02*
X17258061Y-12237198D01*
X17467584Y-12351484D02*
X17448537Y-12341960D01*
X17448537Y-12341960D02*
X17439013Y-12332436D01*
X17439013Y-12332436D02*
X17429489Y-12313388D01*
X17429489Y-12313388D02*
X17429489Y-12256246D01*
X17429489Y-12256246D02*
X17439013Y-12237198D01*
X17439013Y-12237198D02*
X17448537Y-12227674D01*
X17448537Y-12227674D02*
X17467584Y-12218150D01*
X17467584Y-12218150D02*
X17496156Y-12218150D01*
X17496156Y-12218150D02*
X17515203Y-12227674D01*
X17515203Y-12227674D02*
X17524727Y-12237198D01*
X17524727Y-12237198D02*
X17534251Y-12256246D01*
X17534251Y-12256246D02*
X17534251Y-12313388D01*
X17534251Y-12313388D02*
X17524727Y-12332436D01*
X17524727Y-12332436D02*
X17515203Y-12341960D01*
X17515203Y-12341960D02*
X17496156Y-12351484D01*
X17496156Y-12351484D02*
X17467584Y-12351484D01*
X17648537Y-12351484D02*
X17629489Y-12341960D01*
X17629489Y-12341960D02*
X17619965Y-12322912D01*
X17619965Y-12322912D02*
X17619965Y-12151484D01*
X17800918Y-12341960D02*
X17781870Y-12351484D01*
X17781870Y-12351484D02*
X17743775Y-12351484D01*
X17743775Y-12351484D02*
X17724727Y-12341960D01*
X17724727Y-12341960D02*
X17715203Y-12322912D01*
X17715203Y-12322912D02*
X17715203Y-12246722D01*
X17715203Y-12246722D02*
X17724727Y-12227674D01*
X17724727Y-12227674D02*
X17743775Y-12218150D01*
X17743775Y-12218150D02*
X17781870Y-12218150D01*
X17781870Y-12218150D02*
X17800918Y-12227674D01*
X17800918Y-12227674D02*
X17810442Y-12246722D01*
X17810442Y-12246722D02*
X17810442Y-12265769D01*
X17810442Y-12265769D02*
X17715203Y-12284817D01*
X17886632Y-12341960D02*
X17905680Y-12351484D01*
X17905680Y-12351484D02*
X17943775Y-12351484D01*
X17943775Y-12351484D02*
X17962823Y-12341960D01*
X17962823Y-12341960D02*
X17972346Y-12322912D01*
X17972346Y-12322912D02*
X17972346Y-12313388D01*
X17972346Y-12313388D02*
X17962823Y-12294341D01*
X17962823Y-12294341D02*
X17943775Y-12284817D01*
X17943775Y-12284817D02*
X17915203Y-12284817D01*
X17915203Y-12284817D02*
X17896156Y-12275293D01*
X17896156Y-12275293D02*
X17886632Y-12256246D01*
X17886632Y-12256246D02*
X17886632Y-12246722D01*
X17886632Y-12246722D02*
X17896156Y-12227674D01*
X17896156Y-12227674D02*
X17915203Y-12218150D01*
X17915203Y-12218150D02*
X17943775Y-12218150D01*
X17943775Y-12218150D02*
X17962823Y-12227674D01*
X18039013Y-12427674D02*
X18048537Y-12418150D01*
X18048537Y-12418150D02*
X18067584Y-12389579D01*
X18067584Y-12389579D02*
X18077108Y-12370531D01*
X18077108Y-12370531D02*
X18086632Y-12341960D01*
X18086632Y-12341960D02*
X18096156Y-12294341D01*
X18096156Y-12294341D02*
X18096156Y-12256246D01*
X18096156Y-12256246D02*
X18086632Y-12208627D01*
X18086632Y-12208627D02*
X18077108Y-12180055D01*
X18077108Y-12180055D02*
X18067584Y-12161008D01*
X18067584Y-12161008D02*
X18048537Y-12132436D01*
X18048537Y-12132436D02*
X18039013Y-12122912D01*
X18400918Y-12427674D02*
X18391394Y-12418150D01*
X18391394Y-12418150D02*
X18372346Y-12389579D01*
X18372346Y-12389579D02*
X18362823Y-12370531D01*
X18362823Y-12370531D02*
X18353299Y-12341960D01*
X18353299Y-12341960D02*
X18343775Y-12294341D01*
X18343775Y-12294341D02*
X18343775Y-12256246D01*
X18343775Y-12256246D02*
X18353299Y-12208627D01*
X18353299Y-12208627D02*
X18362823Y-12180055D01*
X18362823Y-12180055D02*
X18372346Y-12161008D01*
X18372346Y-12161008D02*
X18391394Y-12132436D01*
X18391394Y-12132436D02*
X18400918Y-12122912D01*
X18477108Y-12218150D02*
X18477108Y-12351484D01*
X18477108Y-12237198D02*
X18486632Y-12227674D01*
X18486632Y-12227674D02*
X18505680Y-12218150D01*
X18505680Y-12218150D02*
X18534251Y-12218150D01*
X18534251Y-12218150D02*
X18553299Y-12227674D01*
X18553299Y-12227674D02*
X18562823Y-12246722D01*
X18562823Y-12246722D02*
X18562823Y-12351484D01*
X18686632Y-12351484D02*
X18667584Y-12341960D01*
X18667584Y-12341960D02*
X18658061Y-12332436D01*
X18658061Y-12332436D02*
X18648537Y-12313388D01*
X18648537Y-12313388D02*
X18648537Y-12256246D01*
X18648537Y-12256246D02*
X18658061Y-12237198D01*
X18658061Y-12237198D02*
X18667584Y-12227674D01*
X18667584Y-12227674D02*
X18686632Y-12218150D01*
X18686632Y-12218150D02*
X18715204Y-12218150D01*
X18715204Y-12218150D02*
X18734251Y-12227674D01*
X18734251Y-12227674D02*
X18743775Y-12237198D01*
X18743775Y-12237198D02*
X18753299Y-12256246D01*
X18753299Y-12256246D02*
X18753299Y-12313388D01*
X18753299Y-12313388D02*
X18743775Y-12332436D01*
X18743775Y-12332436D02*
X18734251Y-12341960D01*
X18734251Y-12341960D02*
X18715204Y-12351484D01*
X18715204Y-12351484D02*
X18686632Y-12351484D01*
X18810442Y-12218150D02*
X18886632Y-12218150D01*
X18839013Y-12151484D02*
X18839013Y-12322912D01*
X18839013Y-12322912D02*
X18848537Y-12341960D01*
X18848537Y-12341960D02*
X18867584Y-12351484D01*
X18867584Y-12351484D02*
X18886632Y-12351484D01*
X19105680Y-12218150D02*
X19105680Y-12418150D01*
X19105680Y-12227674D02*
X19124727Y-12218150D01*
X19124727Y-12218150D02*
X19162823Y-12218150D01*
X19162823Y-12218150D02*
X19181870Y-12227674D01*
X19181870Y-12227674D02*
X19191394Y-12237198D01*
X19191394Y-12237198D02*
X19200918Y-12256246D01*
X19200918Y-12256246D02*
X19200918Y-12313388D01*
X19200918Y-12313388D02*
X19191394Y-12332436D01*
X19191394Y-12332436D02*
X19181870Y-12341960D01*
X19181870Y-12341960D02*
X19162823Y-12351484D01*
X19162823Y-12351484D02*
X19124727Y-12351484D01*
X19124727Y-12351484D02*
X19105680Y-12341960D01*
X19315204Y-12351484D02*
X19296156Y-12341960D01*
X19296156Y-12341960D02*
X19286632Y-12322912D01*
X19286632Y-12322912D02*
X19286632Y-12151484D01*
X19477108Y-12351484D02*
X19477108Y-12246722D01*
X19477108Y-12246722D02*
X19467585Y-12227674D01*
X19467585Y-12227674D02*
X19448537Y-12218150D01*
X19448537Y-12218150D02*
X19410442Y-12218150D01*
X19410442Y-12218150D02*
X19391394Y-12227674D01*
X19477108Y-12341960D02*
X19458061Y-12351484D01*
X19458061Y-12351484D02*
X19410442Y-12351484D01*
X19410442Y-12351484D02*
X19391394Y-12341960D01*
X19391394Y-12341960D02*
X19381870Y-12322912D01*
X19381870Y-12322912D02*
X19381870Y-12303865D01*
X19381870Y-12303865D02*
X19391394Y-12284817D01*
X19391394Y-12284817D02*
X19410442Y-12275293D01*
X19410442Y-12275293D02*
X19458061Y-12275293D01*
X19458061Y-12275293D02*
X19477108Y-12265769D01*
X19543775Y-12218150D02*
X19619965Y-12218150D01*
X19572346Y-12151484D02*
X19572346Y-12322912D01*
X19572346Y-12322912D02*
X19581870Y-12341960D01*
X19581870Y-12341960D02*
X19600918Y-12351484D01*
X19600918Y-12351484D02*
X19619965Y-12351484D01*
X19762823Y-12341960D02*
X19743775Y-12351484D01*
X19743775Y-12351484D02*
X19705680Y-12351484D01*
X19705680Y-12351484D02*
X19686632Y-12341960D01*
X19686632Y-12341960D02*
X19677108Y-12322912D01*
X19677108Y-12322912D02*
X19677108Y-12246722D01*
X19677108Y-12246722D02*
X19686632Y-12227674D01*
X19686632Y-12227674D02*
X19705680Y-12218150D01*
X19705680Y-12218150D02*
X19743775Y-12218150D01*
X19743775Y-12218150D02*
X19762823Y-12227674D01*
X19762823Y-12227674D02*
X19772346Y-12246722D01*
X19772346Y-12246722D02*
X19772346Y-12265769D01*
X19772346Y-12265769D02*
X19677108Y-12284817D01*
X19943775Y-12351484D02*
X19943775Y-12151484D01*
X19943775Y-12341960D02*
X19924727Y-12351484D01*
X19924727Y-12351484D02*
X19886632Y-12351484D01*
X19886632Y-12351484D02*
X19867585Y-12341960D01*
X19867585Y-12341960D02*
X19858061Y-12332436D01*
X19858061Y-12332436D02*
X19848537Y-12313388D01*
X19848537Y-12313388D02*
X19848537Y-12256246D01*
X19848537Y-12256246D02*
X19858061Y-12237198D01*
X19858061Y-12237198D02*
X19867585Y-12227674D01*
X19867585Y-12227674D02*
X19886632Y-12218150D01*
X19886632Y-12218150D02*
X19924727Y-12218150D01*
X19924727Y-12218150D02*
X19943775Y-12227674D01*
X20019966Y-12427674D02*
X20029489Y-12418150D01*
X20029489Y-12418150D02*
X20048537Y-12389579D01*
X20048537Y-12389579D02*
X20058061Y-12370531D01*
X20058061Y-12370531D02*
X20067585Y-12341960D01*
X20067585Y-12341960D02*
X20077108Y-12294341D01*
X20077108Y-12294341D02*
X20077108Y-12256246D01*
X20077108Y-12256246D02*
X20067585Y-12208627D01*
X20067585Y-12208627D02*
X20058061Y-12180055D01*
X20058061Y-12180055D02*
X20048537Y-12161008D01*
X20048537Y-12161008D02*
X20029489Y-12132436D01*
X20029489Y-12132436D02*
X20019966Y-12122912D01*
M02*
