M48
; DRILL file {KiCad 8.0.1} date 2024-03-31T00:43:45+0300
; FORMAT={-:-/ absolute / metric / decimal}
; #@! TF.CreationDate,2024-03-31T00:43:45+03:00
; #@! TF.GenerationSoftware,Kicad,Pcbnew,8.0.1
; #@! TF.FileFunction,Plated,1,4,PTH
FMAT,2
METRIC
; #@! TA.AperFunction,Plated,PTH,ViaDrill
T1C0.400
; #@! TA.AperFunction,Plated,PTH,ComponentDrill
T2C0.400
; #@! TA.AperFunction,Plated,PTH,ComponentDrill
T3C0.450
; #@! TA.AperFunction,Plated,PTH,ComponentDrill
T4C0.500
; #@! TA.AperFunction,Plated,PTH,ComponentDrill
T5C0.650
; #@! TA.AperFunction,Plated,PTH,ComponentDrill
T6C0.762
; #@! TA.AperFunction,Plated,PTH,ComponentDrill
T7C0.800
; #@! TA.AperFunction,Plated,PTH,ComponentDrill
T8C1.000
; #@! TA.AperFunction,Plated,PTH,ComponentDrill
T9C1.900
; #@! TA.AperFunction,Plated,PTH,ComponentDrill
T10C2.200
%
G90
G05
T1
X108.399Y-67.092
X108.399Y-78.442
X108.399Y-79.742
X108.399Y-81.532
X108.399Y-82.832
X108.399Y-94.182
X109.499Y-67.092
X109.499Y-79.092
X109.499Y-82.182
X109.499Y-94.182
X110.599Y-67.092
X110.599Y-78.442
X110.599Y-79.742
X110.599Y-81.532
X110.599Y-82.832
X110.599Y-94.182
X111.999Y-72.792
X111.999Y-74.042
X111.999Y-87.232
X111.999Y-88.482
X112.399Y-75.292
X112.399Y-76.542
X112.399Y-84.732
X112.399Y-85.982
X112.799Y-70.292
X112.799Y-71.542
X112.799Y-89.732
X112.799Y-90.982
X114.427Y-92.235
X115.511Y-75.66
X115.53Y-89.757
X116.753Y-91.363
X116.753Y-92.663
X119.886Y-71.85
X119.886Y-75.66
X119.905Y-85.947
X119.905Y-89.757
X121.844Y-72.98
X121.844Y-74.53
X121.87Y-86.854
X121.87Y-88.404
X124.765Y-87.644
X126.686Y-79.084
X127.628Y-83.093
X127.893Y-75.067
X128.078Y-88.34
X129.105Y-85.841
X129.228Y-83.093
X129.578Y-88.34
X130.728Y-81.284
X130.929Y-84.517
X131.078Y-88.34
X131.778Y-83.24
X132.626Y-70.557
X134.891Y-84.332
X135.049Y-85.933
X136.441Y-84.332
X136.989Y-80.889
X137.437Y-87.576
X138.239Y-91.661
X138.28Y-82.666
X138.499Y-80.858
X139.5Y-80.825
X139.921Y-75.186
X139.921Y-76.336
X139.921Y-77.486
X139.935Y-91.661
X140.725Y-75.761
X140.725Y-76.911
X140.767Y-85.482
X141.426Y-89.209
X141.53Y-75.186
X141.53Y-76.336
X141.53Y-77.486
X143.524Y-81.345
X144.692Y-90.897
X144.692Y-93.107
X146.105Y-84.547
X146.168Y-87.508
X146.423Y-67.097
X146.423Y-68.547
X147.173Y-67.822
X147.173Y-69.87
X147.468Y-87.274
X147.568Y-84.547
X147.923Y-67.097
X147.923Y-68.547
X148.707Y-82.119
X149.369Y-84.174
X149.369Y-87.274
X149.621Y-71.26
X150.769Y-84.174
X150.82Y-87.624
X151.992Y-90.897
X151.992Y-93.107
X155.945Y-72.949
X157.495Y-72.949
X158.934Y-72.615
X159.867Y-68.091
X159.899Y-87.617
X159.899Y-88.867
X159.899Y-90.117
X161.699Y-84.417
X161.699Y-85.717
X161.699Y-92.017
X161.699Y-93.317
X162.666Y-68.091
X162.799Y-85.067
X162.799Y-92.667
X163.145Y-78.446
X163.899Y-84.417
X163.899Y-85.717
X163.899Y-92.017
X163.899Y-93.317
T2
X115.249Y-68.597
X115.732Y-67.43
X115.732Y-69.764
X116.899Y-66.947
X116.899Y-70.247
X118.066Y-67.43
X118.066Y-69.764
X118.549Y-68.597
X153.549Y-68.597
X153.549Y-89.197
X154.032Y-67.43
X154.032Y-69.764
X154.032Y-88.03
X154.032Y-90.364
X155.199Y-66.947
X155.199Y-70.247
X155.199Y-87.547
X155.199Y-90.847
X156.366Y-67.43
X156.366Y-69.764
X156.366Y-88.03
X156.366Y-90.364
X156.849Y-68.597
X156.849Y-89.197
T5
X124.991Y-91.04
X124.991Y-92.31
X126.261Y-91.04
X126.261Y-92.31
X127.531Y-91.04
X127.531Y-92.31
X128.801Y-91.04
X128.801Y-92.31
X130.071Y-91.04
X130.071Y-92.31
T6
X132.147Y-75.269
X132.147Y-80.269
T7
X136.436Y-68.428
X136.436Y-70.428
T8
X161.799Y-70.865
X161.799Y-81.865
T9
X151.799Y-73.865
X151.799Y-78.865
T10
X116.899Y-68.597
X155.199Y-68.597
X155.199Y-89.197
T3
X135.812Y-88.959G85X135.812Y-89.509
G05
X143.012Y-88.959G85X143.012Y-89.509
G05
T4
X135.812Y-92.234G85X135.812Y-93.134
G05
X143.012Y-92.234G85X143.012Y-93.134
G05
M30
