G04 #@! TF.GenerationSoftware,KiCad,Pcbnew,8.0.1*
G04 #@! TF.CreationDate,2024-03-31T00:43:17+03:00*
G04 #@! TF.ProjectId,Master board,4d617374-6572-4206-926f-6172642e6b69,rev?*
G04 #@! TF.SameCoordinates,Original*
G04 #@! TF.FileFunction,Paste,Bot*
G04 #@! TF.FilePolarity,Positive*
%FSLAX46Y46*%
G04 Gerber Fmt 4.6, Leading zero omitted, Abs format (unit mm)*
G04 Created by KiCad (PCBNEW 8.0.1) date 2024-03-31 00:43:17*
%MOMM*%
%LPD*%
G01*
G04 APERTURE LIST*
G04 Aperture macros list*
%AMRoundRect*
0 Rectangle with rounded corners*
0 $1 Rounding radius*
0 $2 $3 $4 $5 $6 $7 $8 $9 X,Y pos of 4 corners*
0 Add a 4 corners polygon primitive as box body*
4,1,4,$2,$3,$4,$5,$6,$7,$8,$9,$2,$3,0*
0 Add four circle primitives for the rounded corners*
1,1,$1+$1,$2,$3*
1,1,$1+$1,$4,$5*
1,1,$1+$1,$6,$7*
1,1,$1+$1,$8,$9*
0 Add four rect primitives between the rounded corners*
20,1,$1+$1,$2,$3,$4,$5,0*
20,1,$1+$1,$4,$5,$6,$7,0*
20,1,$1+$1,$6,$7,$8,$9,0*
20,1,$1+$1,$8,$9,$2,$3,0*%
G04 Aperture macros list end*
%ADD10RoundRect,0.225000X-0.250000X0.225000X-0.250000X-0.225000X0.250000X-0.225000X0.250000X0.225000X0*%
%ADD11RoundRect,0.200000X-0.275000X0.200000X-0.275000X-0.200000X0.275000X-0.200000X0.275000X0.200000X0*%
%ADD12RoundRect,0.225000X-0.225000X-0.250000X0.225000X-0.250000X0.225000X0.250000X-0.225000X0.250000X0*%
%ADD13RoundRect,0.200000X0.200000X0.275000X-0.200000X0.275000X-0.200000X-0.275000X0.200000X-0.275000X0*%
%ADD14R,1.300000X0.700000*%
%ADD15R,2.000000X1.200000*%
%ADD16R,1.400000X1.200000*%
%ADD17R,1.400000X1.150000*%
%ADD18RoundRect,0.375000X-0.375000X0.625000X-0.375000X-0.625000X0.375000X-0.625000X0.375000X0.625000X0*%
%ADD19RoundRect,0.500000X-1.400000X0.500000X-1.400000X-0.500000X1.400000X-0.500000X1.400000X0.500000X0*%
%ADD20RoundRect,0.225000X0.225000X0.250000X-0.225000X0.250000X-0.225000X-0.250000X0.225000X-0.250000X0*%
%ADD21RoundRect,0.075000X-0.075000X0.700000X-0.075000X-0.700000X0.075000X-0.700000X0.075000X0.700000X0*%
%ADD22RoundRect,0.075000X-0.700000X0.075000X-0.700000X-0.075000X0.700000X-0.075000X0.700000X0.075000X0*%
%ADD23RoundRect,0.200000X0.275000X-0.200000X0.275000X0.200000X-0.275000X0.200000X-0.275000X-0.200000X0*%
%ADD24RoundRect,0.200000X-0.200000X-0.275000X0.200000X-0.275000X0.200000X0.275000X-0.200000X0.275000X0*%
%ADD25RoundRect,0.150000X0.650000X0.150000X-0.650000X0.150000X-0.650000X-0.150000X0.650000X-0.150000X0*%
%ADD26RoundRect,0.225000X0.335876X0.017678X0.017678X0.335876X-0.335876X-0.017678X-0.017678X-0.335876X0*%
%ADD27RoundRect,0.150000X-0.150000X0.512500X-0.150000X-0.512500X0.150000X-0.512500X0.150000X0.512500X0*%
G04 APERTURE END LIST*
D10*
X126686000Y-79134000D03*
X126686000Y-80684000D03*
X148736000Y-78852000D03*
X148736000Y-80402000D03*
D11*
X146180000Y-87508000D03*
X146180000Y-89158000D03*
D12*
X134891000Y-84407000D03*
X136441000Y-84407000D03*
D13*
X112902000Y-68611000D03*
X111252000Y-68611000D03*
D14*
X125069500Y-77719000D03*
X125069500Y-78819000D03*
X125069500Y-79919000D03*
X125069500Y-81019000D03*
X125069500Y-82119000D03*
X125069500Y-83219000D03*
X125069500Y-84319000D03*
X125069500Y-85419000D03*
X125069500Y-86519000D03*
D15*
X114519500Y-72099000D03*
X114519500Y-87619000D03*
D16*
X124219500Y-72939000D03*
D17*
X124219500Y-87644000D03*
D18*
X127278000Y-82640500D03*
X129578000Y-82640500D03*
D19*
X129578000Y-88940500D03*
D18*
X131878000Y-82640500D03*
D12*
X147255000Y-72083000D03*
X148805000Y-72083000D03*
D20*
X150257000Y-82119000D03*
X148707000Y-82119000D03*
D21*
X137548000Y-72750000D03*
X138048000Y-72750000D03*
X138548000Y-72750000D03*
X139048000Y-72750000D03*
X139548000Y-72750000D03*
X140048000Y-72750000D03*
X140548000Y-72750000D03*
X141048000Y-72750000D03*
X141548000Y-72750000D03*
X142048000Y-72750000D03*
X142548000Y-72750000D03*
X143048000Y-72750000D03*
X143548000Y-72750000D03*
X144048000Y-72750000D03*
X144548000Y-72750000D03*
X145048000Y-72750000D03*
D22*
X146973000Y-74675000D03*
X146973000Y-75175000D03*
X146973000Y-75675000D03*
X146973000Y-76175000D03*
X146973000Y-76675000D03*
X146973000Y-77175000D03*
X146973000Y-77675000D03*
X146973000Y-78175000D03*
X146973000Y-78675000D03*
X146973000Y-79175000D03*
X146973000Y-79675000D03*
X146973000Y-80175000D03*
X146973000Y-80675000D03*
X146973000Y-81175000D03*
X146973000Y-81675000D03*
X146973000Y-82175000D03*
D21*
X145048000Y-84100000D03*
X144548000Y-84100000D03*
X144048000Y-84100000D03*
X143548000Y-84100000D03*
X143048000Y-84100000D03*
X142548000Y-84100000D03*
X142048000Y-84100000D03*
X141548000Y-84100000D03*
X141048000Y-84100000D03*
X140548000Y-84100000D03*
X140048000Y-84100000D03*
X139548000Y-84100000D03*
X139048000Y-84100000D03*
X138548000Y-84100000D03*
X138048000Y-84100000D03*
X137548000Y-84100000D03*
D22*
X135623000Y-82175000D03*
X135623000Y-81675000D03*
X135623000Y-81175000D03*
X135623000Y-80675000D03*
X135623000Y-80175000D03*
X135623000Y-79675000D03*
X135623000Y-79175000D03*
X135623000Y-78675000D03*
X135623000Y-78175000D03*
X135623000Y-77675000D03*
X135623000Y-77175000D03*
X135623000Y-76675000D03*
X135623000Y-76175000D03*
X135623000Y-75675000D03*
X135623000Y-75175000D03*
X135623000Y-74675000D03*
D11*
X127893000Y-75067000D03*
X127893000Y-76717000D03*
D13*
X112902000Y-92663000D03*
X111252000Y-92663000D03*
D11*
X147643000Y-84544000D03*
X147643000Y-86194000D03*
D12*
X142770000Y-70994000D03*
X144320000Y-70994000D03*
D11*
X146180000Y-84547000D03*
X146180000Y-86197000D03*
D12*
X143904000Y-69531000D03*
X145454000Y-69531000D03*
D20*
X157495000Y-72949000D03*
X155945000Y-72949000D03*
D11*
X149294501Y-87274000D03*
X149294501Y-88924000D03*
D23*
X129614000Y-80734000D03*
X129614000Y-79084000D03*
D11*
X149294501Y-84174000D03*
X149294501Y-85824000D03*
D24*
X119905000Y-92076000D03*
X121555000Y-92076000D03*
D12*
X134999000Y-85870000D03*
X136549000Y-85870000D03*
D10*
X142466000Y-68009000D03*
X142466000Y-69559000D03*
X135313000Y-71718000D03*
X135313000Y-73268000D03*
D16*
X138535000Y-69173000D03*
X140735000Y-69173000D03*
X140735000Y-70873000D03*
X138535000Y-70873000D03*
D25*
X163145000Y-74636000D03*
X163145000Y-75906000D03*
X163145000Y-77176000D03*
X163145000Y-78446000D03*
X155945000Y-78446000D03*
X155945000Y-77176000D03*
X155945000Y-75906000D03*
X155945000Y-74636000D03*
D12*
X147255000Y-73544000D03*
X148805000Y-73544000D03*
X138281000Y-67591000D03*
X139831000Y-67591000D03*
D23*
X128147000Y-80734000D03*
X128147000Y-79084000D03*
D11*
X158934000Y-70965000D03*
X158934000Y-72615000D03*
D26*
X133722008Y-74149008D03*
X132625992Y-73052992D03*
D24*
X119080000Y-90613000D03*
X120730000Y-90613000D03*
D11*
X150756000Y-84174000D03*
X150756000Y-85824000D03*
D27*
X138348000Y-86683500D03*
X139298000Y-86683500D03*
X140248000Y-86683500D03*
X140248000Y-88958500D03*
X139298000Y-88958500D03*
X138348000Y-88958500D03*
M02*
