G04 #@! TF.GenerationSoftware,KiCad,Pcbnew,8.0.1*
G04 #@! TF.CreationDate,2024-03-31T00:43:17+03:00*
G04 #@! TF.ProjectId,Master board,4d617374-6572-4206-926f-6172642e6b69,rev?*
G04 #@! TF.SameCoordinates,Original*
G04 #@! TF.FileFunction,Paste,Top*
G04 #@! TF.FilePolarity,Positive*
%FSLAX46Y46*%
G04 Gerber Fmt 4.6, Leading zero omitted, Abs format (unit mm)*
G04 Created by KiCad (PCBNEW 8.0.1) date 2024-03-31 00:43:17*
%MOMM*%
%LPD*%
G01*
G04 APERTURE LIST*
G04 Aperture macros list*
%AMRoundRect*
0 Rectangle with rounded corners*
0 $1 Rounding radius*
0 $2 $3 $4 $5 $6 $7 $8 $9 X,Y pos of 4 corners*
0 Add a 4 corners polygon primitive as box body*
4,1,4,$2,$3,$4,$5,$6,$7,$8,$9,$2,$3,0*
0 Add four circle primitives for the rounded corners*
1,1,$1+$1,$2,$3*
1,1,$1+$1,$4,$5*
1,1,$1+$1,$6,$7*
1,1,$1+$1,$8,$9*
0 Add four rect primitives between the rounded corners*
20,1,$1+$1,$2,$3,$4,$5,0*
20,1,$1+$1,$4,$5,$6,$7,0*
20,1,$1+$1,$6,$7,$8,$9,0*
20,1,$1+$1,$8,$9,$2,$3,0*%
G04 Aperture macros list end*
%ADD10RoundRect,0.225000X0.250000X-0.225000X0.250000X0.225000X-0.250000X0.225000X-0.250000X-0.225000X0*%
%ADD11R,0.400000X1.800000*%
%ADD12RoundRect,0.200000X-0.600000X0.200000X-0.600000X-0.200000X0.600000X-0.200000X0.600000X0.200000X0*%
%ADD13RoundRect,0.250001X-1.249999X0.799999X-1.249999X-0.799999X1.249999X-0.799999X1.249999X0.799999X0*%
%ADD14R,0.700000X1.500000*%
%ADD15R,1.000000X0.800000*%
%ADD16RoundRect,0.250000X-0.375000X-0.625000X0.375000X-0.625000X0.375000X0.625000X-0.375000X0.625000X0*%
%ADD17RoundRect,0.250000X0.250000X-0.750000X0.250000X0.750000X-0.250000X0.750000X-0.250000X-0.750000X0*%
%ADD18R,2.500000X1.900000*%
%ADD19RoundRect,0.225000X-0.017678X0.335876X-0.335876X0.017678X0.017678X-0.335876X0.335876X-0.017678X0*%
%ADD20RoundRect,0.200000X-0.200000X-0.275000X0.200000X-0.275000X0.200000X0.275000X-0.200000X0.275000X0*%
%ADD21RoundRect,0.250000X-0.300000X0.300000X-0.300000X-0.300000X0.300000X-0.300000X0.300000X0.300000X0*%
%ADD22RoundRect,0.250000X0.300000X-0.300000X0.300000X0.300000X-0.300000X0.300000X-0.300000X-0.300000X0*%
%ADD23RoundRect,0.225000X-0.225000X-0.250000X0.225000X-0.250000X0.225000X0.250000X-0.225000X0.250000X0*%
%ADD24RoundRect,0.250000X0.375000X0.625000X-0.375000X0.625000X-0.375000X-0.625000X0.375000X-0.625000X0*%
%ADD25RoundRect,0.250000X1.100000X-0.325000X1.100000X0.325000X-1.100000X0.325000X-1.100000X-0.325000X0*%
%ADD26R,0.900000X1.500000*%
%ADD27RoundRect,0.150000X0.825000X0.150000X-0.825000X0.150000X-0.825000X-0.150000X0.825000X-0.150000X0*%
%ADD28RoundRect,0.225000X-0.250000X0.225000X-0.250000X-0.225000X0.250000X-0.225000X0.250000X0.225000X0*%
%ADD29RoundRect,0.200000X0.200000X0.275000X-0.200000X0.275000X-0.200000X-0.275000X0.200000X-0.275000X0*%
%ADD30R,1.910000X0.610000*%
%ADD31R,0.723000X0.930000*%
%ADD32RoundRect,0.200000X0.600000X-0.200000X0.600000X0.200000X-0.600000X0.200000X-0.600000X-0.200000X0*%
%ADD33RoundRect,0.250001X1.249999X-0.799999X1.249999X0.799999X-1.249999X0.799999X-1.249999X-0.799999X0*%
%ADD34RoundRect,0.200000X0.275000X-0.200000X0.275000X0.200000X-0.275000X0.200000X-0.275000X-0.200000X0*%
%ADD35RoundRect,0.250000X0.900000X-1.000000X0.900000X1.000000X-0.900000X1.000000X-0.900000X-1.000000X0*%
%ADD36RoundRect,0.225000X0.225000X0.250000X-0.225000X0.250000X-0.225000X-0.250000X0.225000X-0.250000X0*%
G04 APERTURE END LIST*
D10*
X121844000Y-74530000D03*
X121844000Y-72980000D03*
D11*
X138112000Y-89434000D03*
X138762000Y-89434000D03*
X139412000Y-89434000D03*
X140062000Y-89434000D03*
X140712000Y-89434000D03*
D12*
X112399000Y-84732000D03*
X112399000Y-85982000D03*
X112399000Y-87232000D03*
X112399000Y-88482000D03*
X112399000Y-89732000D03*
X112399000Y-90982000D03*
D13*
X109499000Y-82182000D03*
X109499000Y-93532000D03*
D14*
X146092000Y-90247000D03*
X149092000Y-90247000D03*
X150592000Y-90247000D03*
D15*
X144692000Y-90897000D03*
X144692000Y-93107000D03*
X151992000Y-90897000D03*
X151992000Y-93107000D03*
D16*
X159866500Y-68091000D03*
X162666500Y-68091000D03*
D17*
X114427000Y-92235000D03*
X118877000Y-92235000D03*
D18*
X142043250Y-72400500D03*
X142043250Y-68300500D03*
D10*
X121870000Y-88404000D03*
X121870000Y-86854000D03*
D19*
X131778000Y-83240499D03*
X130681984Y-84336515D03*
D20*
X139117000Y-85557000D03*
X140767000Y-85557000D03*
D10*
X145463500Y-77110000D03*
X145463500Y-75560000D03*
D21*
X133487000Y-84784501D03*
X133487000Y-87584499D03*
D20*
X136630000Y-82591000D03*
X138280000Y-82591000D03*
D22*
X134798000Y-83171000D03*
X134798000Y-80371000D03*
D23*
X138112000Y-87574499D03*
X139662000Y-87574499D03*
D24*
X126255000Y-73396000D03*
X123455000Y-73396000D03*
D16*
X123486000Y-88007000D03*
X126286000Y-88007000D03*
D23*
X136932250Y-72906000D03*
X138482250Y-72906000D03*
D25*
X147830000Y-78385000D03*
X147830000Y-75435000D03*
D12*
X112399000Y-70292000D03*
X112399000Y-71542000D03*
X112399000Y-72792000D03*
X112399000Y-74042000D03*
X112399000Y-75292000D03*
X112399000Y-76542000D03*
D13*
X109499000Y-67742000D03*
X109499000Y-79092000D03*
D26*
X146118001Y-84524000D03*
X147518001Y-84524000D03*
X146118001Y-87624000D03*
X147518001Y-87624000D03*
D27*
X119905000Y-89757000D03*
X119905000Y-88487000D03*
X119905000Y-87217000D03*
X119905000Y-85947000D03*
X114955000Y-85947000D03*
X114955000Y-87217000D03*
X114955000Y-88487000D03*
X114955000Y-89757000D03*
D28*
X120456000Y-91258000D03*
X120456000Y-92808000D03*
D27*
X119886000Y-75660000D03*
X119886000Y-74390000D03*
X119886000Y-73120000D03*
X119886000Y-71850000D03*
X114936000Y-71850000D03*
X114936000Y-73120000D03*
X114936000Y-74390000D03*
X114936000Y-75660000D03*
D20*
X139117000Y-84054000D03*
X140767000Y-84054000D03*
X140486000Y-81250000D03*
X142136000Y-81250000D03*
D29*
X141994500Y-79770000D03*
X140344500Y-79770000D03*
D30*
X137945500Y-74431000D03*
X137945500Y-75701000D03*
X137945500Y-76971000D03*
X137945500Y-78241000D03*
X143505500Y-78241000D03*
X143505500Y-76971000D03*
X143505500Y-75701000D03*
X143505500Y-74431000D03*
D31*
X140123000Y-75561000D03*
X140123000Y-77111000D03*
X141328000Y-75561000D03*
X141328000Y-77111000D03*
D32*
X159899000Y-90117000D03*
X159899000Y-88867000D03*
X159899000Y-87617000D03*
D33*
X162799000Y-92667000D03*
X162799000Y-85067000D03*
D34*
X143524000Y-81345000D03*
X143524000Y-79695000D03*
D26*
X149419499Y-84524000D03*
X150819499Y-84524000D03*
X149419499Y-87624000D03*
X150819499Y-87624000D03*
D35*
X147173250Y-71997000D03*
X147173250Y-67697000D03*
D29*
X139034500Y-79770000D03*
X137384500Y-79770000D03*
D34*
X134530000Y-78912000D03*
X134530000Y-77262000D03*
D10*
X135993000Y-78862000D03*
X135993000Y-77312000D03*
D36*
X129176000Y-83093000D03*
X127626000Y-83093000D03*
D29*
X123474500Y-71544000D03*
X121824500Y-71544000D03*
D34*
X135993000Y-75948000D03*
X135993000Y-74298000D03*
M02*
