G04 #@! TF.GenerationSoftware,KiCad,Pcbnew,8.0.1*
G04 #@! TF.CreationDate,2024-03-31T00:43:17+03:00*
G04 #@! TF.ProjectId,Master board,4d617374-6572-4206-926f-6172642e6b69,rev?*
G04 #@! TF.SameCoordinates,Original*
G04 #@! TF.FileFunction,Legend,Bot*
G04 #@! TF.FilePolarity,Positive*
%FSLAX46Y46*%
G04 Gerber Fmt 4.6, Leading zero omitted, Abs format (unit mm)*
G04 Created by KiCad (PCBNEW 8.0.1) date 2024-03-31 00:43:17*
%MOMM*%
%LPD*%
G01*
G04 APERTURE LIST*
G04 Aperture macros list*
%AMRoundRect*
0 Rectangle with rounded corners*
0 $1 Rounding radius*
0 $2 $3 $4 $5 $6 $7 $8 $9 X,Y pos of 4 corners*
0 Add a 4 corners polygon primitive as box body*
4,1,4,$2,$3,$4,$5,$6,$7,$8,$9,$2,$3,0*
0 Add four circle primitives for the rounded corners*
1,1,$1+$1,$2,$3*
1,1,$1+$1,$4,$5*
1,1,$1+$1,$6,$7*
1,1,$1+$1,$8,$9*
0 Add four rect primitives between the rounded corners*
20,1,$1+$1,$2,$3,$4,$5,0*
20,1,$1+$1,$4,$5,$6,$7,0*
20,1,$1+$1,$6,$7,$8,$9,0*
20,1,$1+$1,$8,$9,$2,$3,0*%
%AMFreePoly0*
4,1,19,0.500000,-0.750000,0.000000,-0.750000,0.000000,-0.744911,-0.071157,-0.744911,-0.207708,-0.704816,-0.327430,-0.627875,-0.420627,-0.520320,-0.479746,-0.390866,-0.500000,-0.250000,-0.500000,0.250000,-0.479746,0.390866,-0.420627,0.520320,-0.327430,0.627875,-0.207708,0.704816,-0.071157,0.744911,0.000000,0.744911,0.000000,0.750000,0.500000,0.750000,0.500000,-0.750000,0.500000,-0.750000,
$1*%
%AMFreePoly1*
4,1,19,0.000000,0.744911,0.071157,0.744911,0.207708,0.704816,0.327430,0.627875,0.420627,0.520320,0.479746,0.390866,0.500000,0.250000,0.500000,-0.250000,0.479746,-0.390866,0.420627,-0.520320,0.327430,-0.627875,0.207708,-0.704816,0.071157,-0.744911,0.000000,-0.744911,0.000000,-0.750000,-0.500000,-0.750000,-0.500000,0.750000,0.000000,0.750000,0.000000,0.744911,0.000000,0.744911,
$1*%
G04 Aperture macros list end*
%ADD10C,0.100000*%
%ADD11C,0.120000*%
%ADD12C,0.314000*%
%ADD13C,0.350000*%
%ADD14C,1.600000*%
%ADD15C,0.500000*%
%ADD16O,1.090000X2.000000*%
%ADD17O,1.050000X1.600000*%
%ADD18C,0.900000*%
%ADD19C,1.000000*%
%ADD20O,1.000000X1.000000*%
%ADD21C,1.524000*%
%ADD22C,0.700000*%
%ADD23C,4.400000*%
%ADD24C,1.400000*%
%ADD25C,3.500000*%
%ADD26RoundRect,0.225000X-0.250000X0.225000X-0.250000X-0.225000X0.250000X-0.225000X0.250000X0.225000X0*%
%ADD27RoundRect,0.200000X-0.275000X0.200000X-0.275000X-0.200000X0.275000X-0.200000X0.275000X0.200000X0*%
%ADD28RoundRect,0.225000X-0.225000X-0.250000X0.225000X-0.250000X0.225000X0.250000X-0.225000X0.250000X0*%
%ADD29RoundRect,0.200000X0.200000X0.275000X-0.200000X0.275000X-0.200000X-0.275000X0.200000X-0.275000X0*%
%ADD30R,1.300000X0.700000*%
%ADD31R,2.000000X1.200000*%
%ADD32R,1.400000X1.200000*%
%ADD33R,1.400000X1.150000*%
%ADD34RoundRect,0.375000X-0.375000X0.625000X-0.375000X-0.625000X0.375000X-0.625000X0.375000X0.625000X0*%
%ADD35RoundRect,0.500000X-1.400000X0.500000X-1.400000X-0.500000X1.400000X-0.500000X1.400000X0.500000X0*%
%ADD36RoundRect,0.225000X0.225000X0.250000X-0.225000X0.250000X-0.225000X-0.250000X0.225000X-0.250000X0*%
%ADD37RoundRect,0.075000X-0.075000X0.700000X-0.075000X-0.700000X0.075000X-0.700000X0.075000X0.700000X0*%
%ADD38RoundRect,0.075000X-0.700000X0.075000X-0.700000X-0.075000X0.700000X-0.075000X0.700000X0.075000X0*%
%ADD39FreePoly0,270.000000*%
%ADD40FreePoly1,270.000000*%
%ADD41RoundRect,0.200000X0.275000X-0.200000X0.275000X0.200000X-0.275000X0.200000X-0.275000X-0.200000X0*%
%ADD42RoundRect,0.200000X-0.200000X-0.275000X0.200000X-0.275000X0.200000X0.275000X-0.200000X0.275000X0*%
%ADD43RoundRect,0.150000X0.650000X0.150000X-0.650000X0.150000X-0.650000X-0.150000X0.650000X-0.150000X0*%
%ADD44RoundRect,0.225000X0.335876X0.017678X0.017678X0.335876X-0.335876X-0.017678X-0.017678X-0.335876X0*%
%ADD45RoundRect,0.150000X-0.150000X0.512500X-0.150000X-0.512500X0.150000X-0.512500X0.150000X0.512500X0*%
G04 APERTURE END LIST*
D10*
X119571782Y-94452800D02*
X119443211Y-94495657D01*
X119443211Y-94495657D02*
X119228925Y-94495657D01*
X119228925Y-94495657D02*
X119143211Y-94452800D01*
X119143211Y-94452800D02*
X119100353Y-94409942D01*
X119100353Y-94409942D02*
X119057496Y-94324228D01*
X119057496Y-94324228D02*
X119057496Y-94238514D01*
X119057496Y-94238514D02*
X119100353Y-94152800D01*
X119100353Y-94152800D02*
X119143211Y-94109942D01*
X119143211Y-94109942D02*
X119228925Y-94067085D01*
X119228925Y-94067085D02*
X119400353Y-94024228D01*
X119400353Y-94024228D02*
X119486068Y-93981371D01*
X119486068Y-93981371D02*
X119528925Y-93938514D01*
X119528925Y-93938514D02*
X119571782Y-93852800D01*
X119571782Y-93852800D02*
X119571782Y-93767085D01*
X119571782Y-93767085D02*
X119528925Y-93681371D01*
X119528925Y-93681371D02*
X119486068Y-93638514D01*
X119486068Y-93638514D02*
X119400353Y-93595657D01*
X119400353Y-93595657D02*
X119186068Y-93595657D01*
X119186068Y-93595657D02*
X119057496Y-93638514D01*
X118757496Y-93595657D02*
X118543210Y-94495657D01*
X118543210Y-94495657D02*
X118371782Y-93852800D01*
X118371782Y-93852800D02*
X118200353Y-94495657D01*
X118200353Y-94495657D02*
X117986068Y-93595657D01*
X117643211Y-94495657D02*
X117643211Y-93595657D01*
X117643211Y-93595657D02*
X117428925Y-93595657D01*
X117428925Y-93595657D02*
X117300354Y-93638514D01*
X117300354Y-93638514D02*
X117214639Y-93724228D01*
X117214639Y-93724228D02*
X117171782Y-93809942D01*
X117171782Y-93809942D02*
X117128925Y-93981371D01*
X117128925Y-93981371D02*
X117128925Y-94109942D01*
X117128925Y-94109942D02*
X117171782Y-94281371D01*
X117171782Y-94281371D02*
X117214639Y-94367085D01*
X117214639Y-94367085D02*
X117300354Y-94452800D01*
X117300354Y-94452800D02*
X117428925Y-94495657D01*
X117428925Y-94495657D02*
X117643211Y-94495657D01*
X116957497Y-94581371D02*
X116271782Y-94581371D01*
X116143211Y-93595657D02*
X115586068Y-93595657D01*
X115586068Y-93595657D02*
X115886068Y-93938514D01*
X115886068Y-93938514D02*
X115757497Y-93938514D01*
X115757497Y-93938514D02*
X115671783Y-93981371D01*
X115671783Y-93981371D02*
X115628925Y-94024228D01*
X115628925Y-94024228D02*
X115586068Y-94109942D01*
X115586068Y-94109942D02*
X115586068Y-94324228D01*
X115586068Y-94324228D02*
X115628925Y-94409942D01*
X115628925Y-94409942D02*
X115671783Y-94452800D01*
X115671783Y-94452800D02*
X115757497Y-94495657D01*
X115757497Y-94495657D02*
X116014640Y-94495657D01*
X116014640Y-94495657D02*
X116100354Y-94452800D01*
X116100354Y-94452800D02*
X116143211Y-94409942D01*
X115328925Y-93595657D02*
X115028925Y-94495657D01*
X115028925Y-94495657D02*
X114728925Y-93595657D01*
X114514639Y-93595657D02*
X113957496Y-93595657D01*
X113957496Y-93595657D02*
X114257496Y-93938514D01*
X114257496Y-93938514D02*
X114128925Y-93938514D01*
X114128925Y-93938514D02*
X114043211Y-93981371D01*
X114043211Y-93981371D02*
X114000353Y-94024228D01*
X114000353Y-94024228D02*
X113957496Y-94109942D01*
X113957496Y-94109942D02*
X113957496Y-94324228D01*
X113957496Y-94324228D02*
X114000353Y-94409942D01*
X114000353Y-94409942D02*
X114043211Y-94452800D01*
X114043211Y-94452800D02*
X114128925Y-94495657D01*
X114128925Y-94495657D02*
X114386068Y-94495657D01*
X114386068Y-94495657D02*
X114471782Y-94452800D01*
X114471782Y-94452800D02*
X114514639Y-94409942D01*
X109987925Y-71275895D02*
X109454591Y-71275895D01*
X109454591Y-71275895D02*
X109797449Y-72075895D01*
X109264115Y-71275895D02*
X108997448Y-72075895D01*
X108997448Y-72075895D02*
X108730782Y-71275895D01*
X108311734Y-71275895D02*
X108235544Y-71275895D01*
X108235544Y-71275895D02*
X108159353Y-71313990D01*
X108159353Y-71313990D02*
X108121258Y-71352085D01*
X108121258Y-71352085D02*
X108083163Y-71428276D01*
X108083163Y-71428276D02*
X108045068Y-71580657D01*
X108045068Y-71580657D02*
X108045068Y-71771133D01*
X108045068Y-71771133D02*
X108083163Y-71923514D01*
X108083163Y-71923514D02*
X108121258Y-71999704D01*
X108121258Y-71999704D02*
X108159353Y-72037800D01*
X108159353Y-72037800D02*
X108235544Y-72075895D01*
X108235544Y-72075895D02*
X108311734Y-72075895D01*
X108311734Y-72075895D02*
X108387925Y-72037800D01*
X108387925Y-72037800D02*
X108426020Y-71999704D01*
X108426020Y-71999704D02*
X108464115Y-71923514D01*
X108464115Y-71923514D02*
X108502211Y-71771133D01*
X108502211Y-71771133D02*
X108502211Y-71580657D01*
X108502211Y-71580657D02*
X108464115Y-71428276D01*
X108464115Y-71428276D02*
X108426020Y-71352085D01*
X108426020Y-71352085D02*
X108387925Y-71313990D01*
X108387925Y-71313990D02*
X108311734Y-71275895D01*
X109492687Y-77036990D02*
X109568877Y-76998895D01*
X109568877Y-76998895D02*
X109683163Y-76998895D01*
X109683163Y-76998895D02*
X109797449Y-77036990D01*
X109797449Y-77036990D02*
X109873639Y-77113180D01*
X109873639Y-77113180D02*
X109911734Y-77189371D01*
X109911734Y-77189371D02*
X109949830Y-77341752D01*
X109949830Y-77341752D02*
X109949830Y-77456038D01*
X109949830Y-77456038D02*
X109911734Y-77608419D01*
X109911734Y-77608419D02*
X109873639Y-77684609D01*
X109873639Y-77684609D02*
X109797449Y-77760800D01*
X109797449Y-77760800D02*
X109683163Y-77798895D01*
X109683163Y-77798895D02*
X109606972Y-77798895D01*
X109606972Y-77798895D02*
X109492687Y-77760800D01*
X109492687Y-77760800D02*
X109454591Y-77722704D01*
X109454591Y-77722704D02*
X109454591Y-77456038D01*
X109454591Y-77456038D02*
X109606972Y-77456038D01*
X109111734Y-77798895D02*
X109111734Y-76998895D01*
X109111734Y-76998895D02*
X108654591Y-77798895D01*
X108654591Y-77798895D02*
X108654591Y-76998895D01*
X108273639Y-77798895D02*
X108273639Y-76998895D01*
X108273639Y-76998895D02*
X108083163Y-76998895D01*
X108083163Y-76998895D02*
X107968877Y-77036990D01*
X107968877Y-77036990D02*
X107892687Y-77113180D01*
X107892687Y-77113180D02*
X107854592Y-77189371D01*
X107854592Y-77189371D02*
X107816496Y-77341752D01*
X107816496Y-77341752D02*
X107816496Y-77456038D01*
X107816496Y-77456038D02*
X107854592Y-77608419D01*
X107854592Y-77608419D02*
X107892687Y-77684609D01*
X107892687Y-77684609D02*
X107968877Y-77760800D01*
X107968877Y-77760800D02*
X108083163Y-77798895D01*
X108083163Y-77798895D02*
X108273639Y-77798895D01*
X109454591Y-86471904D02*
X109492687Y-86510000D01*
X109492687Y-86510000D02*
X109606972Y-86548095D01*
X109606972Y-86548095D02*
X109683163Y-86548095D01*
X109683163Y-86548095D02*
X109797449Y-86510000D01*
X109797449Y-86510000D02*
X109873639Y-86433809D01*
X109873639Y-86433809D02*
X109911734Y-86357619D01*
X109911734Y-86357619D02*
X109949830Y-86205238D01*
X109949830Y-86205238D02*
X109949830Y-86090952D01*
X109949830Y-86090952D02*
X109911734Y-85938571D01*
X109911734Y-85938571D02*
X109873639Y-85862380D01*
X109873639Y-85862380D02*
X109797449Y-85786190D01*
X109797449Y-85786190D02*
X109683163Y-85748095D01*
X109683163Y-85748095D02*
X109606972Y-85748095D01*
X109606972Y-85748095D02*
X109492687Y-85786190D01*
X109492687Y-85786190D02*
X109454591Y-85824285D01*
X109149830Y-86319523D02*
X108768877Y-86319523D01*
X109226020Y-86548095D02*
X108959353Y-85748095D01*
X108959353Y-85748095D02*
X108692687Y-86548095D01*
X108426020Y-86548095D02*
X108426020Y-85748095D01*
X108426020Y-85748095D02*
X107968877Y-86548095D01*
X107968877Y-86548095D02*
X107968877Y-85748095D01*
X107206973Y-86548095D02*
X107587925Y-86548095D01*
X107587925Y-86548095D02*
X107587925Y-85748095D01*
X162095496Y-88349657D02*
X161581211Y-88349657D01*
X161838353Y-89249657D02*
X161838353Y-88349657D01*
X161366925Y-88349657D02*
X160766925Y-89249657D01*
X160766925Y-88349657D02*
X161366925Y-89249657D01*
X162695496Y-89642514D02*
X162781211Y-89599657D01*
X162781211Y-89599657D02*
X162909782Y-89599657D01*
X162909782Y-89599657D02*
X163038353Y-89642514D01*
X163038353Y-89642514D02*
X163124068Y-89728228D01*
X163124068Y-89728228D02*
X163166925Y-89813942D01*
X163166925Y-89813942D02*
X163209782Y-89985371D01*
X163209782Y-89985371D02*
X163209782Y-90113942D01*
X163209782Y-90113942D02*
X163166925Y-90285371D01*
X163166925Y-90285371D02*
X163124068Y-90371085D01*
X163124068Y-90371085D02*
X163038353Y-90456800D01*
X163038353Y-90456800D02*
X162909782Y-90499657D01*
X162909782Y-90499657D02*
X162824068Y-90499657D01*
X162824068Y-90499657D02*
X162695496Y-90456800D01*
X162695496Y-90456800D02*
X162652639Y-90413942D01*
X162652639Y-90413942D02*
X162652639Y-90113942D01*
X162652639Y-90113942D02*
X162824068Y-90113942D01*
X162266925Y-90499657D02*
X162266925Y-89599657D01*
X162266925Y-89599657D02*
X161752639Y-90499657D01*
X161752639Y-90499657D02*
X161752639Y-89599657D01*
X161324068Y-90499657D02*
X161324068Y-89599657D01*
X161324068Y-89599657D02*
X161109782Y-89599657D01*
X161109782Y-89599657D02*
X160981211Y-89642514D01*
X160981211Y-89642514D02*
X160895496Y-89728228D01*
X160895496Y-89728228D02*
X160852639Y-89813942D01*
X160852639Y-89813942D02*
X160809782Y-89985371D01*
X160809782Y-89985371D02*
X160809782Y-90113942D01*
X160809782Y-90113942D02*
X160852639Y-90285371D01*
X160852639Y-90285371D02*
X160895496Y-90371085D01*
X160895496Y-90371085D02*
X160981211Y-90456800D01*
X160981211Y-90456800D02*
X161109782Y-90499657D01*
X161109782Y-90499657D02*
X161324068Y-90499657D01*
X109454591Y-87616504D02*
X109492687Y-87654600D01*
X109492687Y-87654600D02*
X109606972Y-87692695D01*
X109606972Y-87692695D02*
X109683163Y-87692695D01*
X109683163Y-87692695D02*
X109797449Y-87654600D01*
X109797449Y-87654600D02*
X109873639Y-87578409D01*
X109873639Y-87578409D02*
X109911734Y-87502219D01*
X109911734Y-87502219D02*
X109949830Y-87349838D01*
X109949830Y-87349838D02*
X109949830Y-87235552D01*
X109949830Y-87235552D02*
X109911734Y-87083171D01*
X109911734Y-87083171D02*
X109873639Y-87006980D01*
X109873639Y-87006980D02*
X109797449Y-86930790D01*
X109797449Y-86930790D02*
X109683163Y-86892695D01*
X109683163Y-86892695D02*
X109606972Y-86892695D01*
X109606972Y-86892695D02*
X109492687Y-86930790D01*
X109492687Y-86930790D02*
X109454591Y-86968885D01*
X109149830Y-87464123D02*
X108768877Y-87464123D01*
X109226020Y-87692695D02*
X108959353Y-86892695D01*
X108959353Y-86892695D02*
X108692687Y-87692695D01*
X108426020Y-87692695D02*
X108426020Y-86892695D01*
X108426020Y-86892695D02*
X107968877Y-87692695D01*
X107968877Y-87692695D02*
X107968877Y-86892695D01*
X107587925Y-87692695D02*
X107587925Y-86892695D01*
X107587925Y-87273647D02*
X107130782Y-87273647D01*
X107130782Y-87692695D02*
X107130782Y-86892695D01*
X109987925Y-83458895D02*
X109454591Y-83458895D01*
X109454591Y-83458895D02*
X109797449Y-84258895D01*
X109264115Y-83458895D02*
X108997448Y-84258895D01*
X108997448Y-84258895D02*
X108730782Y-83458895D01*
X108311734Y-83458895D02*
X108235544Y-83458895D01*
X108235544Y-83458895D02*
X108159353Y-83496990D01*
X108159353Y-83496990D02*
X108121258Y-83535085D01*
X108121258Y-83535085D02*
X108083163Y-83611276D01*
X108083163Y-83611276D02*
X108045068Y-83763657D01*
X108045068Y-83763657D02*
X108045068Y-83954133D01*
X108045068Y-83954133D02*
X108083163Y-84106514D01*
X108083163Y-84106514D02*
X108121258Y-84182704D01*
X108121258Y-84182704D02*
X108159353Y-84220800D01*
X108159353Y-84220800D02*
X108235544Y-84258895D01*
X108235544Y-84258895D02*
X108311734Y-84258895D01*
X108311734Y-84258895D02*
X108387925Y-84220800D01*
X108387925Y-84220800D02*
X108426020Y-84182704D01*
X108426020Y-84182704D02*
X108464115Y-84106514D01*
X108464115Y-84106514D02*
X108502211Y-83954133D01*
X108502211Y-83954133D02*
X108502211Y-83763657D01*
X108502211Y-83763657D02*
X108464115Y-83611276D01*
X108464115Y-83611276D02*
X108426020Y-83535085D01*
X108426020Y-83535085D02*
X108387925Y-83496990D01*
X108387925Y-83496990D02*
X108311734Y-83458895D01*
X109492687Y-75892390D02*
X109568877Y-75854295D01*
X109568877Y-75854295D02*
X109683163Y-75854295D01*
X109683163Y-75854295D02*
X109797449Y-75892390D01*
X109797449Y-75892390D02*
X109873639Y-75968580D01*
X109873639Y-75968580D02*
X109911734Y-76044771D01*
X109911734Y-76044771D02*
X109949830Y-76197152D01*
X109949830Y-76197152D02*
X109949830Y-76311438D01*
X109949830Y-76311438D02*
X109911734Y-76463819D01*
X109911734Y-76463819D02*
X109873639Y-76540009D01*
X109873639Y-76540009D02*
X109797449Y-76616200D01*
X109797449Y-76616200D02*
X109683163Y-76654295D01*
X109683163Y-76654295D02*
X109606972Y-76654295D01*
X109606972Y-76654295D02*
X109492687Y-76616200D01*
X109492687Y-76616200D02*
X109454591Y-76578104D01*
X109454591Y-76578104D02*
X109454591Y-76311438D01*
X109454591Y-76311438D02*
X109606972Y-76311438D01*
X109111734Y-76654295D02*
X109111734Y-75854295D01*
X109111734Y-75854295D02*
X108654591Y-76654295D01*
X108654591Y-76654295D02*
X108654591Y-75854295D01*
X108273639Y-76654295D02*
X108273639Y-75854295D01*
X108273639Y-75854295D02*
X108083163Y-75854295D01*
X108083163Y-75854295D02*
X107968877Y-75892390D01*
X107968877Y-75892390D02*
X107892687Y-75968580D01*
X107892687Y-75968580D02*
X107854592Y-76044771D01*
X107854592Y-76044771D02*
X107816496Y-76197152D01*
X107816496Y-76197152D02*
X107816496Y-76311438D01*
X107816496Y-76311438D02*
X107854592Y-76463819D01*
X107854592Y-76463819D02*
X107892687Y-76540009D01*
X107892687Y-76540009D02*
X107968877Y-76616200D01*
X107968877Y-76616200D02*
X108083163Y-76654295D01*
X108083163Y-76654295D02*
X108273639Y-76654295D01*
X109492687Y-89219990D02*
X109568877Y-89181895D01*
X109568877Y-89181895D02*
X109683163Y-89181895D01*
X109683163Y-89181895D02*
X109797449Y-89219990D01*
X109797449Y-89219990D02*
X109873639Y-89296180D01*
X109873639Y-89296180D02*
X109911734Y-89372371D01*
X109911734Y-89372371D02*
X109949830Y-89524752D01*
X109949830Y-89524752D02*
X109949830Y-89639038D01*
X109949830Y-89639038D02*
X109911734Y-89791419D01*
X109911734Y-89791419D02*
X109873639Y-89867609D01*
X109873639Y-89867609D02*
X109797449Y-89943800D01*
X109797449Y-89943800D02*
X109683163Y-89981895D01*
X109683163Y-89981895D02*
X109606972Y-89981895D01*
X109606972Y-89981895D02*
X109492687Y-89943800D01*
X109492687Y-89943800D02*
X109454591Y-89905704D01*
X109454591Y-89905704D02*
X109454591Y-89639038D01*
X109454591Y-89639038D02*
X109606972Y-89639038D01*
X109111734Y-89981895D02*
X109111734Y-89181895D01*
X109111734Y-89181895D02*
X108654591Y-89981895D01*
X108654591Y-89981895D02*
X108654591Y-89181895D01*
X108273639Y-89981895D02*
X108273639Y-89181895D01*
X108273639Y-89181895D02*
X108083163Y-89181895D01*
X108083163Y-89181895D02*
X107968877Y-89219990D01*
X107968877Y-89219990D02*
X107892687Y-89296180D01*
X107892687Y-89296180D02*
X107854592Y-89372371D01*
X107854592Y-89372371D02*
X107816496Y-89524752D01*
X107816496Y-89524752D02*
X107816496Y-89639038D01*
X107816496Y-89639038D02*
X107854592Y-89791419D01*
X107854592Y-89791419D02*
X107892687Y-89867609D01*
X107892687Y-89867609D02*
X107968877Y-89943800D01*
X107968877Y-89943800D02*
X108083163Y-89981895D01*
X108083163Y-89981895D02*
X108273639Y-89981895D01*
X109492687Y-88075390D02*
X109568877Y-88037295D01*
X109568877Y-88037295D02*
X109683163Y-88037295D01*
X109683163Y-88037295D02*
X109797449Y-88075390D01*
X109797449Y-88075390D02*
X109873639Y-88151580D01*
X109873639Y-88151580D02*
X109911734Y-88227771D01*
X109911734Y-88227771D02*
X109949830Y-88380152D01*
X109949830Y-88380152D02*
X109949830Y-88494438D01*
X109949830Y-88494438D02*
X109911734Y-88646819D01*
X109911734Y-88646819D02*
X109873639Y-88723009D01*
X109873639Y-88723009D02*
X109797449Y-88799200D01*
X109797449Y-88799200D02*
X109683163Y-88837295D01*
X109683163Y-88837295D02*
X109606972Y-88837295D01*
X109606972Y-88837295D02*
X109492687Y-88799200D01*
X109492687Y-88799200D02*
X109454591Y-88761104D01*
X109454591Y-88761104D02*
X109454591Y-88494438D01*
X109454591Y-88494438D02*
X109606972Y-88494438D01*
X109111734Y-88837295D02*
X109111734Y-88037295D01*
X109111734Y-88037295D02*
X108654591Y-88837295D01*
X108654591Y-88837295D02*
X108654591Y-88037295D01*
X108273639Y-88837295D02*
X108273639Y-88037295D01*
X108273639Y-88037295D02*
X108083163Y-88037295D01*
X108083163Y-88037295D02*
X107968877Y-88075390D01*
X107968877Y-88075390D02*
X107892687Y-88151580D01*
X107892687Y-88151580D02*
X107854592Y-88227771D01*
X107854592Y-88227771D02*
X107816496Y-88380152D01*
X107816496Y-88380152D02*
X107816496Y-88494438D01*
X107816496Y-88494438D02*
X107854592Y-88646819D01*
X107854592Y-88646819D02*
X107892687Y-88723009D01*
X107892687Y-88723009D02*
X107968877Y-88799200D01*
X107968877Y-88799200D02*
X108083163Y-88837295D01*
X108083163Y-88837295D02*
X108273639Y-88837295D01*
X109987925Y-72420495D02*
X109454591Y-72420495D01*
X109454591Y-72420495D02*
X109797449Y-73220495D01*
X109264115Y-72420495D02*
X108997448Y-73220495D01*
X108997448Y-73220495D02*
X108730782Y-72420495D01*
X108311734Y-72420495D02*
X108235544Y-72420495D01*
X108235544Y-72420495D02*
X108159353Y-72458590D01*
X108159353Y-72458590D02*
X108121258Y-72496685D01*
X108121258Y-72496685D02*
X108083163Y-72572876D01*
X108083163Y-72572876D02*
X108045068Y-72725257D01*
X108045068Y-72725257D02*
X108045068Y-72915733D01*
X108045068Y-72915733D02*
X108083163Y-73068114D01*
X108083163Y-73068114D02*
X108121258Y-73144304D01*
X108121258Y-73144304D02*
X108159353Y-73182400D01*
X108159353Y-73182400D02*
X108235544Y-73220495D01*
X108235544Y-73220495D02*
X108311734Y-73220495D01*
X108311734Y-73220495D02*
X108387925Y-73182400D01*
X108387925Y-73182400D02*
X108426020Y-73144304D01*
X108426020Y-73144304D02*
X108464115Y-73068114D01*
X108464115Y-73068114D02*
X108502211Y-72915733D01*
X108502211Y-72915733D02*
X108502211Y-72725257D01*
X108502211Y-72725257D02*
X108464115Y-72572876D01*
X108464115Y-72572876D02*
X108426020Y-72496685D01*
X108426020Y-72496685D02*
X108387925Y-72458590D01*
X108387925Y-72458590D02*
X108311734Y-72420495D01*
X107180342Y-70305211D02*
X107180342Y-70819497D01*
X107180342Y-70562354D02*
X108080342Y-70562354D01*
X108080342Y-70562354D02*
X107951771Y-70648068D01*
X107951771Y-70648068D02*
X107866057Y-70733783D01*
X107866057Y-70733783D02*
X107823200Y-70819497D01*
X107994628Y-69962354D02*
X108037485Y-69919497D01*
X108037485Y-69919497D02*
X108080342Y-69833783D01*
X108080342Y-69833783D02*
X108080342Y-69619497D01*
X108080342Y-69619497D02*
X108037485Y-69533783D01*
X108037485Y-69533783D02*
X107994628Y-69490925D01*
X107994628Y-69490925D02*
X107908914Y-69448068D01*
X107908914Y-69448068D02*
X107823200Y-69448068D01*
X107823200Y-69448068D02*
X107694628Y-69490925D01*
X107694628Y-69490925D02*
X107180342Y-70005211D01*
X107180342Y-70005211D02*
X107180342Y-69448068D01*
X108080342Y-68890925D02*
X108080342Y-68805211D01*
X108080342Y-68805211D02*
X108037485Y-68719497D01*
X108037485Y-68719497D02*
X107994628Y-68676640D01*
X107994628Y-68676640D02*
X107908914Y-68633782D01*
X107908914Y-68633782D02*
X107737485Y-68590925D01*
X107737485Y-68590925D02*
X107523200Y-68590925D01*
X107523200Y-68590925D02*
X107351771Y-68633782D01*
X107351771Y-68633782D02*
X107266057Y-68676640D01*
X107266057Y-68676640D02*
X107223200Y-68719497D01*
X107223200Y-68719497D02*
X107180342Y-68805211D01*
X107180342Y-68805211D02*
X107180342Y-68890925D01*
X107180342Y-68890925D02*
X107223200Y-68976640D01*
X107223200Y-68976640D02*
X107266057Y-69019497D01*
X107266057Y-69019497D02*
X107351771Y-69062354D01*
X107351771Y-69062354D02*
X107523200Y-69105211D01*
X107523200Y-69105211D02*
X107737485Y-69105211D01*
X107737485Y-69105211D02*
X107908914Y-69062354D01*
X107908914Y-69062354D02*
X107994628Y-69019497D01*
X107994628Y-69019497D02*
X108037485Y-68976640D01*
X108037485Y-68976640D02*
X108080342Y-68890925D01*
X107180342Y-67690925D02*
X107608914Y-67990925D01*
X107180342Y-68205211D02*
X108080342Y-68205211D01*
X108080342Y-68205211D02*
X108080342Y-67862354D01*
X108080342Y-67862354D02*
X108037485Y-67776639D01*
X108037485Y-67776639D02*
X107994628Y-67733782D01*
X107994628Y-67733782D02*
X107908914Y-67690925D01*
X107908914Y-67690925D02*
X107780342Y-67690925D01*
X107780342Y-67690925D02*
X107694628Y-67733782D01*
X107694628Y-67733782D02*
X107651771Y-67776639D01*
X107651771Y-67776639D02*
X107608914Y-67862354D01*
X107608914Y-67862354D02*
X107608914Y-68205211D01*
X161666925Y-87999657D02*
X161966925Y-87571085D01*
X162181211Y-87999657D02*
X162181211Y-87099657D01*
X162181211Y-87099657D02*
X161838354Y-87099657D01*
X161838354Y-87099657D02*
X161752639Y-87142514D01*
X161752639Y-87142514D02*
X161709782Y-87185371D01*
X161709782Y-87185371D02*
X161666925Y-87271085D01*
X161666925Y-87271085D02*
X161666925Y-87399657D01*
X161666925Y-87399657D02*
X161709782Y-87485371D01*
X161709782Y-87485371D02*
X161752639Y-87528228D01*
X161752639Y-87528228D02*
X161838354Y-87571085D01*
X161838354Y-87571085D02*
X162181211Y-87571085D01*
X161366925Y-87099657D02*
X160766925Y-87999657D01*
X160766925Y-87099657D02*
X161366925Y-87999657D01*
X109987925Y-84603495D02*
X109454591Y-84603495D01*
X109454591Y-84603495D02*
X109797449Y-85403495D01*
X109264115Y-84603495D02*
X108997448Y-85403495D01*
X108997448Y-85403495D02*
X108730782Y-84603495D01*
X108311734Y-84603495D02*
X108235544Y-84603495D01*
X108235544Y-84603495D02*
X108159353Y-84641590D01*
X108159353Y-84641590D02*
X108121258Y-84679685D01*
X108121258Y-84679685D02*
X108083163Y-84755876D01*
X108083163Y-84755876D02*
X108045068Y-84908257D01*
X108045068Y-84908257D02*
X108045068Y-85098733D01*
X108045068Y-85098733D02*
X108083163Y-85251114D01*
X108083163Y-85251114D02*
X108121258Y-85327304D01*
X108121258Y-85327304D02*
X108159353Y-85365400D01*
X108159353Y-85365400D02*
X108235544Y-85403495D01*
X108235544Y-85403495D02*
X108311734Y-85403495D01*
X108311734Y-85403495D02*
X108387925Y-85365400D01*
X108387925Y-85365400D02*
X108426020Y-85327304D01*
X108426020Y-85327304D02*
X108464115Y-85251114D01*
X108464115Y-85251114D02*
X108502211Y-85098733D01*
X108502211Y-85098733D02*
X108502211Y-84908257D01*
X108502211Y-84908257D02*
X108464115Y-84755876D01*
X108464115Y-84755876D02*
X108426020Y-84679685D01*
X108426020Y-84679685D02*
X108387925Y-84641590D01*
X108387925Y-84641590D02*
X108311734Y-84603495D01*
X109454591Y-75433504D02*
X109492687Y-75471600D01*
X109492687Y-75471600D02*
X109606972Y-75509695D01*
X109606972Y-75509695D02*
X109683163Y-75509695D01*
X109683163Y-75509695D02*
X109797449Y-75471600D01*
X109797449Y-75471600D02*
X109873639Y-75395409D01*
X109873639Y-75395409D02*
X109911734Y-75319219D01*
X109911734Y-75319219D02*
X109949830Y-75166838D01*
X109949830Y-75166838D02*
X109949830Y-75052552D01*
X109949830Y-75052552D02*
X109911734Y-74900171D01*
X109911734Y-74900171D02*
X109873639Y-74823980D01*
X109873639Y-74823980D02*
X109797449Y-74747790D01*
X109797449Y-74747790D02*
X109683163Y-74709695D01*
X109683163Y-74709695D02*
X109606972Y-74709695D01*
X109606972Y-74709695D02*
X109492687Y-74747790D01*
X109492687Y-74747790D02*
X109454591Y-74785885D01*
X109149830Y-75281123D02*
X108768877Y-75281123D01*
X109226020Y-75509695D02*
X108959353Y-74709695D01*
X108959353Y-74709695D02*
X108692687Y-75509695D01*
X108426020Y-75509695D02*
X108426020Y-74709695D01*
X108426020Y-74709695D02*
X107968877Y-75509695D01*
X107968877Y-75509695D02*
X107968877Y-74709695D01*
X107587925Y-75509695D02*
X107587925Y-74709695D01*
X107587925Y-75090647D02*
X107130782Y-75090647D01*
X107130782Y-75509695D02*
X107130782Y-74709695D01*
X109454591Y-74288904D02*
X109492687Y-74327000D01*
X109492687Y-74327000D02*
X109606972Y-74365095D01*
X109606972Y-74365095D02*
X109683163Y-74365095D01*
X109683163Y-74365095D02*
X109797449Y-74327000D01*
X109797449Y-74327000D02*
X109873639Y-74250809D01*
X109873639Y-74250809D02*
X109911734Y-74174619D01*
X109911734Y-74174619D02*
X109949830Y-74022238D01*
X109949830Y-74022238D02*
X109949830Y-73907952D01*
X109949830Y-73907952D02*
X109911734Y-73755571D01*
X109911734Y-73755571D02*
X109873639Y-73679380D01*
X109873639Y-73679380D02*
X109797449Y-73603190D01*
X109797449Y-73603190D02*
X109683163Y-73565095D01*
X109683163Y-73565095D02*
X109606972Y-73565095D01*
X109606972Y-73565095D02*
X109492687Y-73603190D01*
X109492687Y-73603190D02*
X109454591Y-73641285D01*
X109149830Y-74136523D02*
X108768877Y-74136523D01*
X109226020Y-74365095D02*
X108959353Y-73565095D01*
X108959353Y-73565095D02*
X108692687Y-74365095D01*
X108426020Y-74365095D02*
X108426020Y-73565095D01*
X108426020Y-73565095D02*
X107968877Y-74365095D01*
X107968877Y-74365095D02*
X107968877Y-73565095D01*
X107206973Y-74365095D02*
X107587925Y-74365095D01*
X107587925Y-74365095D02*
X107587925Y-73565095D01*
X107180342Y-93057211D02*
X107180342Y-93571497D01*
X107180342Y-93314354D02*
X108080342Y-93314354D01*
X108080342Y-93314354D02*
X107951771Y-93400068D01*
X107951771Y-93400068D02*
X107866057Y-93485783D01*
X107866057Y-93485783D02*
X107823200Y-93571497D01*
X107994628Y-92714354D02*
X108037485Y-92671497D01*
X108037485Y-92671497D02*
X108080342Y-92585783D01*
X108080342Y-92585783D02*
X108080342Y-92371497D01*
X108080342Y-92371497D02*
X108037485Y-92285783D01*
X108037485Y-92285783D02*
X107994628Y-92242925D01*
X107994628Y-92242925D02*
X107908914Y-92200068D01*
X107908914Y-92200068D02*
X107823200Y-92200068D01*
X107823200Y-92200068D02*
X107694628Y-92242925D01*
X107694628Y-92242925D02*
X107180342Y-92757211D01*
X107180342Y-92757211D02*
X107180342Y-92200068D01*
X108080342Y-91642925D02*
X108080342Y-91557211D01*
X108080342Y-91557211D02*
X108037485Y-91471497D01*
X108037485Y-91471497D02*
X107994628Y-91428640D01*
X107994628Y-91428640D02*
X107908914Y-91385782D01*
X107908914Y-91385782D02*
X107737485Y-91342925D01*
X107737485Y-91342925D02*
X107523200Y-91342925D01*
X107523200Y-91342925D02*
X107351771Y-91385782D01*
X107351771Y-91385782D02*
X107266057Y-91428640D01*
X107266057Y-91428640D02*
X107223200Y-91471497D01*
X107223200Y-91471497D02*
X107180342Y-91557211D01*
X107180342Y-91557211D02*
X107180342Y-91642925D01*
X107180342Y-91642925D02*
X107223200Y-91728640D01*
X107223200Y-91728640D02*
X107266057Y-91771497D01*
X107266057Y-91771497D02*
X107351771Y-91814354D01*
X107351771Y-91814354D02*
X107523200Y-91857211D01*
X107523200Y-91857211D02*
X107737485Y-91857211D01*
X107737485Y-91857211D02*
X107908914Y-91814354D01*
X107908914Y-91814354D02*
X107994628Y-91771497D01*
X107994628Y-91771497D02*
X108037485Y-91728640D01*
X108037485Y-91728640D02*
X108080342Y-91642925D01*
X107180342Y-90442925D02*
X107608914Y-90742925D01*
X107180342Y-90957211D02*
X108080342Y-90957211D01*
X108080342Y-90957211D02*
X108080342Y-90614354D01*
X108080342Y-90614354D02*
X108037485Y-90528639D01*
X108037485Y-90528639D02*
X107994628Y-90485782D01*
X107994628Y-90485782D02*
X107908914Y-90442925D01*
X107908914Y-90442925D02*
X107780342Y-90442925D01*
X107780342Y-90442925D02*
X107694628Y-90485782D01*
X107694628Y-90485782D02*
X107651771Y-90528639D01*
X107651771Y-90528639D02*
X107608914Y-90614354D01*
X107608914Y-90614354D02*
X107608914Y-90957211D01*
D11*
X126176000Y-80049580D02*
X126176000Y-79768420D01*
X127196000Y-80049580D02*
X127196000Y-79768420D01*
X148226000Y-79767580D02*
X148226000Y-79486420D01*
X149246000Y-79767580D02*
X149246000Y-79486420D01*
X145657500Y-88570258D02*
X145657500Y-88095742D01*
X146702500Y-88570258D02*
X146702500Y-88095742D01*
X135806580Y-83897000D02*
X135525420Y-83897000D01*
X135806580Y-84917000D02*
X135525420Y-84917000D01*
X111839742Y-68088500D02*
X112314258Y-68088500D01*
X111839742Y-69133500D02*
X112314258Y-69133500D01*
X110201500Y-72353000D02*
X112868500Y-72353000D01*
X110201500Y-87339000D02*
X110201500Y-72353000D01*
X112741500Y-87339000D02*
X110201500Y-87339000D01*
D10*
X123028500Y-72353000D02*
X115916500Y-72353000D01*
X123028500Y-87339000D02*
X115916500Y-87339000D01*
X125060500Y-74131000D02*
X125060500Y-76925000D01*
D12*
X124328500Y-76925000D02*
G75*
G02*
X124014500Y-76925000I-157000J0D01*
G01*
X124014500Y-76925000D02*
G75*
G02*
X124328500Y-76925000I157000J0D01*
G01*
D11*
X126168000Y-87700500D02*
X126168000Y-83940500D01*
X127428000Y-87700500D02*
X126168000Y-87700500D01*
X131728000Y-87700500D02*
X132988000Y-87700500D01*
X132988000Y-87700500D02*
X132988000Y-83940500D01*
X148170581Y-71573000D02*
X147889419Y-71573000D01*
X148170581Y-72593000D02*
X147889419Y-72593000D01*
X149341419Y-81609000D02*
X149622581Y-81609000D01*
X149341419Y-82629000D02*
X149622581Y-82629000D01*
X136188000Y-73315000D02*
X136188000Y-74265000D01*
X136188000Y-83535000D02*
X136188000Y-82585000D01*
X137138000Y-73315000D02*
X136188000Y-73315000D01*
X137138000Y-83535000D02*
X136188000Y-83535000D01*
X145458000Y-73315000D02*
X146408000Y-73315000D01*
X145458000Y-83535000D02*
X146408000Y-83535000D01*
X146408000Y-73315000D02*
X146408000Y-74265000D01*
X146408000Y-83535000D02*
X146408000Y-82585000D01*
D13*
X137271000Y-74249000D02*
G75*
G02*
X136921000Y-74249000I-175000J0D01*
G01*
X136921000Y-74249000D02*
G75*
G02*
X137271000Y-74249000I175000J0D01*
G01*
D11*
X127370500Y-76129258D02*
X127370500Y-75654742D01*
X128415500Y-76129258D02*
X128415500Y-75654742D01*
X111839742Y-92140500D02*
X112314258Y-92140500D01*
X111839742Y-93185500D02*
X112314258Y-93185500D01*
X147120500Y-85606258D02*
X147120500Y-85131742D01*
X148165500Y-85606258D02*
X148165500Y-85131742D01*
X108344000Y-69961000D02*
X108344000Y-68561000D01*
X109044000Y-67861000D02*
X109644000Y-67861000D01*
X109644000Y-70661000D02*
X109044000Y-70661000D01*
X110344000Y-68561000D02*
X110344000Y-69961000D01*
X108344000Y-68561000D02*
G75*
G02*
X109044000Y-67861000I699999J1D01*
G01*
X109044000Y-70661000D02*
G75*
G02*
X108344000Y-69961000I0J700000D01*
G01*
X109644000Y-67861000D02*
G75*
G02*
X110344000Y-68561000I1J-699999D01*
G01*
X110344000Y-69961000D02*
G75*
G02*
X109644000Y-70661000I-700000J0D01*
G01*
X143685580Y-70484000D02*
X143404420Y-70484000D01*
X143685580Y-71504000D02*
X143404420Y-71504000D01*
X145657500Y-85609258D02*
X145657500Y-85134742D01*
X146702500Y-85609258D02*
X146702500Y-85134742D01*
X144819580Y-69021000D02*
X144538420Y-69021000D01*
X144819580Y-70041000D02*
X144538420Y-70041000D01*
X156579420Y-72439000D02*
X156860580Y-72439000D01*
X156579420Y-73459000D02*
X156860580Y-73459000D01*
X148772001Y-88336258D02*
X148772001Y-87861742D01*
X149817001Y-88336258D02*
X149817001Y-87861742D01*
X129091500Y-79671742D02*
X129091500Y-80146258D01*
X130136500Y-79671742D02*
X130136500Y-80146258D01*
X148772001Y-85236258D02*
X148772001Y-84761742D01*
X149817001Y-85236258D02*
X149817001Y-84761742D01*
X120967258Y-91553500D02*
X120492742Y-91553500D01*
X120967258Y-92598500D02*
X120492742Y-92598500D01*
X135914580Y-85360000D02*
X135633420Y-85360000D01*
X135914580Y-86380000D02*
X135633420Y-86380000D01*
X141956000Y-68924580D02*
X141956000Y-68643420D01*
X142976000Y-68924580D02*
X142976000Y-68643420D01*
X108346000Y-92712997D02*
X108346000Y-91312997D01*
X109046000Y-90612997D02*
X109646000Y-90612997D01*
X109646000Y-93412997D02*
X109046000Y-93412997D01*
X110346000Y-91312997D02*
X110346000Y-92712997D01*
X108346000Y-91312997D02*
G75*
G02*
X109046000Y-90612997I699999J1D01*
G01*
X109046000Y-93412997D02*
G75*
G02*
X108346000Y-92712997I0J700000D01*
G01*
X109646000Y-90612997D02*
G75*
G02*
X110346000Y-91312997I1J-699999D01*
G01*
X110346000Y-92712997D02*
G75*
G02*
X109646000Y-93412997I-700000J0D01*
G01*
X134803000Y-72633580D02*
X134803000Y-72352420D01*
X135823000Y-72633580D02*
X135823000Y-72352420D01*
X137635000Y-68373000D02*
X137635000Y-71673000D01*
X141635000Y-68373000D02*
X137635000Y-68373000D01*
X115753500Y-92713000D02*
X115753500Y-91313000D01*
X116453500Y-90613000D02*
X117053500Y-90613000D01*
X117053500Y-93413000D02*
X116453500Y-93413000D01*
X117753500Y-91313000D02*
X117753500Y-92713000D01*
X115753500Y-91313000D02*
G75*
G02*
X116453500Y-90613000I699999J1D01*
G01*
X116453500Y-93413000D02*
G75*
G02*
X115753500Y-92713000I0J700000D01*
G01*
X117053500Y-90613000D02*
G75*
G02*
X117753500Y-91313000I1J-699999D01*
G01*
X117753500Y-92713000D02*
G75*
G02*
X117053500Y-93413000I-700000J0D01*
G01*
X156820000Y-73816000D02*
X159545000Y-73816000D01*
X156820000Y-74076000D02*
X156820000Y-73816000D01*
X156820000Y-79006000D02*
X156820000Y-79266000D01*
X156820000Y-79266000D02*
X159545000Y-79266000D01*
X162270000Y-73816000D02*
X159545000Y-73816000D01*
X162270000Y-74076000D02*
X162270000Y-73816000D01*
X162270000Y-79006000D02*
X162270000Y-79266000D01*
X162270000Y-79266000D02*
X159545000Y-79266000D01*
D13*
X161688000Y-74636000D02*
G75*
G02*
X161338000Y-74636000I-175000J0D01*
G01*
X161338000Y-74636000D02*
G75*
G02*
X161688000Y-74636000I175000J0D01*
G01*
D11*
X148170580Y-73034000D02*
X147889420Y-73034000D01*
X148170580Y-74054000D02*
X147889420Y-74054000D01*
X139196580Y-67081000D02*
X138915420Y-67081000D01*
X139196580Y-68101000D02*
X138915420Y-68101000D01*
X127624500Y-79671742D02*
X127624500Y-80146258D01*
X128669500Y-79671742D02*
X128669500Y-80146258D01*
X158411500Y-72027258D02*
X158411500Y-71552742D01*
X159456500Y-72027258D02*
X159456500Y-71552742D01*
X132713970Y-73862219D02*
X132912781Y-74061030D01*
X133435219Y-73140970D02*
X133634030Y-73339781D01*
X120142258Y-90090500D02*
X119667742Y-90090500D01*
X120142258Y-91135500D02*
X119667742Y-91135500D01*
X150233500Y-85236258D02*
X150233500Y-84761742D01*
X151278500Y-85236258D02*
X151278500Y-84761742D01*
X137738000Y-87021000D02*
X137738000Y-87821000D01*
X137738000Y-88621000D02*
X137738000Y-87821000D01*
X140858000Y-87021000D02*
X140858000Y-87821000D01*
X140858000Y-88621000D02*
X140858000Y-87821000D01*
X137788000Y-86521000D02*
X137458000Y-86761000D01*
X137458000Y-86281000D01*
X137788000Y-86521000D01*
G36*
X137788000Y-86521000D02*
G01*
X137458000Y-86761000D01*
X137458000Y-86281000D01*
X137788000Y-86521000D01*
G37*
%LPC*%
D14*
X136436250Y-70427613D03*
X136436250Y-68427613D03*
D15*
X141412000Y-90534000D03*
X137412000Y-90534000D03*
D16*
X143012000Y-92684000D03*
D17*
X143012000Y-89234000D03*
D16*
X135812000Y-92684000D03*
D17*
X135812000Y-89234000D03*
D18*
X146842000Y-92007000D03*
X149842000Y-92007000D03*
D19*
X124991000Y-92310000D03*
D20*
X124991000Y-91040000D03*
X126261000Y-92310000D03*
X126261000Y-91040000D03*
X127531000Y-92310000D03*
X127531000Y-91040000D03*
X128801000Y-92310000D03*
X128801000Y-91040000D03*
X130071000Y-92310000D03*
X130071000Y-91040000D03*
D21*
X132147000Y-80269000D03*
X132147000Y-75269000D03*
D22*
X115249000Y-68597000D03*
X115732274Y-67430274D03*
X115732274Y-69763726D03*
X116899000Y-66947000D03*
D23*
X116899000Y-68597000D03*
D22*
X116899000Y-70247000D03*
X118065726Y-67430274D03*
X118065726Y-69763726D03*
X118549000Y-68597000D03*
D24*
X161799000Y-70865000D03*
X161799000Y-81865000D03*
D25*
X151799000Y-78865000D03*
X151799000Y-73865000D03*
D22*
X153549000Y-89197000D03*
X154032274Y-88030274D03*
X154032274Y-90363726D03*
X155199000Y-87547000D03*
D23*
X155199000Y-89197000D03*
D22*
X155199000Y-90847000D03*
X156365726Y-88030274D03*
X156365726Y-90363726D03*
X156849000Y-89197000D03*
X153549000Y-68597000D03*
X154032274Y-67430274D03*
X154032274Y-69763726D03*
X155199000Y-66947000D03*
D23*
X155199000Y-68597000D03*
D22*
X155199000Y-70247000D03*
X156365726Y-67430274D03*
X156365726Y-69763726D03*
X156849000Y-68597000D03*
D26*
X126686000Y-79134000D03*
X126686000Y-80684000D03*
X148736000Y-78852000D03*
X148736000Y-80402000D03*
D27*
X146180000Y-87508000D03*
X146180000Y-89158000D03*
D28*
X134891000Y-84407000D03*
X136441000Y-84407000D03*
D29*
X112902000Y-68611000D03*
X111252000Y-68611000D03*
D19*
X114229500Y-76809000D03*
X114229500Y-84809000D03*
D30*
X125069500Y-77719000D03*
X125069500Y-78819000D03*
X125069500Y-79919000D03*
X125069500Y-81019000D03*
X125069500Y-82119000D03*
X125069500Y-83219000D03*
X125069500Y-84319000D03*
X125069500Y-85419000D03*
X125069500Y-86519000D03*
D31*
X114519500Y-72099000D03*
X114519500Y-87619000D03*
D32*
X124219500Y-72939000D03*
D33*
X124219500Y-87644000D03*
D34*
X127278000Y-82640500D03*
X129578000Y-82640500D03*
D35*
X129578000Y-88940500D03*
D34*
X131878000Y-82640500D03*
D28*
X147255000Y-72083000D03*
X148805000Y-72083000D03*
D36*
X150257000Y-82119000D03*
X148707000Y-82119000D03*
D37*
X137548000Y-72750000D03*
X138048000Y-72750000D03*
X138548000Y-72750000D03*
X139048000Y-72750000D03*
X139548000Y-72750000D03*
X140048000Y-72750000D03*
X140548000Y-72750000D03*
X141048000Y-72750000D03*
X141548000Y-72750000D03*
X142048000Y-72750000D03*
X142548000Y-72750000D03*
X143048000Y-72750000D03*
X143548000Y-72750000D03*
X144048000Y-72750000D03*
X144548000Y-72750000D03*
X145048000Y-72750000D03*
D38*
X146973000Y-74675000D03*
X146973000Y-75175000D03*
X146973000Y-75675000D03*
X146973000Y-76175000D03*
X146973000Y-76675000D03*
X146973000Y-77175000D03*
X146973000Y-77675000D03*
X146973000Y-78175000D03*
X146973000Y-78675000D03*
X146973000Y-79175000D03*
X146973000Y-79675000D03*
X146973000Y-80175000D03*
X146973000Y-80675000D03*
X146973000Y-81175000D03*
X146973000Y-81675000D03*
X146973000Y-82175000D03*
D37*
X145048000Y-84100000D03*
X144548000Y-84100000D03*
X144048000Y-84100000D03*
X143548000Y-84100000D03*
X143048000Y-84100000D03*
X142548000Y-84100000D03*
X142048000Y-84100000D03*
X141548000Y-84100000D03*
X141048000Y-84100000D03*
X140548000Y-84100000D03*
X140048000Y-84100000D03*
X139548000Y-84100000D03*
X139048000Y-84100000D03*
X138548000Y-84100000D03*
X138048000Y-84100000D03*
X137548000Y-84100000D03*
D38*
X135623000Y-82175000D03*
X135623000Y-81675000D03*
X135623000Y-81175000D03*
X135623000Y-80675000D03*
X135623000Y-80175000D03*
X135623000Y-79675000D03*
X135623000Y-79175000D03*
X135623000Y-78675000D03*
X135623000Y-78175000D03*
X135623000Y-77675000D03*
X135623000Y-77175000D03*
X135623000Y-76675000D03*
X135623000Y-76175000D03*
X135623000Y-75675000D03*
X135623000Y-75175000D03*
X135623000Y-74675000D03*
D27*
X127893000Y-75067000D03*
X127893000Y-76717000D03*
D29*
X112902000Y-92663000D03*
X111252000Y-92663000D03*
D27*
X147643000Y-84544000D03*
X147643000Y-86194000D03*
D39*
X109344000Y-68611000D03*
D40*
X109344000Y-69911000D03*
D28*
X142770000Y-70994000D03*
X144320000Y-70994000D03*
D27*
X146180000Y-84547000D03*
X146180000Y-86197000D03*
D28*
X143904000Y-69531000D03*
X145454000Y-69531000D03*
D36*
X157495000Y-72949000D03*
X155945000Y-72949000D03*
D27*
X149294501Y-87274000D03*
X149294501Y-88924000D03*
D41*
X129614000Y-80734000D03*
X129614000Y-79084000D03*
D27*
X149294501Y-84174000D03*
X149294501Y-85824000D03*
D42*
X119905000Y-92076000D03*
X121555000Y-92076000D03*
D28*
X134999000Y-85870000D03*
X136549000Y-85870000D03*
D26*
X142466000Y-68009000D03*
X142466000Y-69559000D03*
D39*
X109346000Y-91362997D03*
D40*
X109346000Y-92662997D03*
D26*
X135313000Y-71718000D03*
X135313000Y-73268000D03*
D32*
X138535000Y-69173000D03*
X140735000Y-69173000D03*
X140735000Y-70873000D03*
X138535000Y-70873000D03*
D39*
X116753500Y-91363000D03*
D40*
X116753500Y-92663000D03*
D43*
X163145000Y-74636000D03*
X163145000Y-75906000D03*
X163145000Y-77176000D03*
X163145000Y-78446000D03*
X155945000Y-78446000D03*
X155945000Y-77176000D03*
X155945000Y-75906000D03*
X155945000Y-74636000D03*
D28*
X147255000Y-73544000D03*
X148805000Y-73544000D03*
X138281000Y-67591000D03*
X139831000Y-67591000D03*
D41*
X128147000Y-80734000D03*
X128147000Y-79084000D03*
D27*
X158934000Y-70965000D03*
X158934000Y-72615000D03*
D44*
X133722008Y-74149008D03*
X132625992Y-73052992D03*
D42*
X119080000Y-90613000D03*
X120730000Y-90613000D03*
D27*
X150756000Y-84174000D03*
X150756000Y-85824000D03*
D45*
X138348000Y-86683500D03*
X139298000Y-86683500D03*
X140248000Y-86683500D03*
X140248000Y-88958500D03*
X139298000Y-88958500D03*
X138348000Y-88958500D03*
%LPD*%
M02*
