G04 #@! TF.GenerationSoftware,KiCad,Pcbnew,8.0.1*
G04 #@! TF.CreationDate,2024-03-31T00:43:17+03:00*
G04 #@! TF.ProjectId,Master board,4d617374-6572-4206-926f-6172642e6b69,rev?*
G04 #@! TF.SameCoordinates,Original*
G04 #@! TF.FileFunction,Copper,L2,Inr*
G04 #@! TF.FilePolarity,Positive*
%FSLAX46Y46*%
G04 Gerber Fmt 4.6, Leading zero omitted, Abs format (unit mm)*
G04 Created by KiCad (PCBNEW 8.0.1) date 2024-03-31 00:43:17*
%MOMM*%
%LPD*%
G01*
G04 APERTURE LIST*
G04 #@! TA.AperFunction,ComponentPad*
%ADD10C,1.600000*%
G04 #@! TD*
G04 #@! TA.AperFunction,ComponentPad*
%ADD11O,1.090000X2.000000*%
G04 #@! TD*
G04 #@! TA.AperFunction,ComponentPad*
%ADD12O,1.050000X1.600000*%
G04 #@! TD*
G04 #@! TA.AperFunction,ComponentPad*
%ADD13C,1.000000*%
G04 #@! TD*
G04 #@! TA.AperFunction,ComponentPad*
%ADD14O,1.000000X1.000000*%
G04 #@! TD*
G04 #@! TA.AperFunction,ComponentPad*
%ADD15C,1.524000*%
G04 #@! TD*
G04 #@! TA.AperFunction,ComponentPad*
%ADD16C,0.700000*%
G04 #@! TD*
G04 #@! TA.AperFunction,ComponentPad*
%ADD17C,4.400000*%
G04 #@! TD*
G04 #@! TA.AperFunction,ComponentPad*
%ADD18C,1.400000*%
G04 #@! TD*
G04 #@! TA.AperFunction,ComponentPad*
%ADD19C,3.500000*%
G04 #@! TD*
G04 #@! TA.AperFunction,ViaPad*
%ADD20C,0.800000*%
G04 #@! TD*
G04 #@! TA.AperFunction,Conductor*
%ADD21C,0.800000*%
G04 #@! TD*
G04 #@! TA.AperFunction,Conductor*
%ADD22C,1.000000*%
G04 #@! TD*
G04 APERTURE END LIST*
D10*
X136436250Y-70427613D03*
X136436250Y-68427613D03*
D11*
X143012000Y-92684000D03*
D12*
X143012000Y-89234000D03*
D11*
X135812000Y-92684000D03*
D12*
X135812000Y-89234000D03*
D13*
X124991000Y-92310000D03*
D14*
X124991000Y-91040000D03*
X126261000Y-92310000D03*
X126261000Y-91040000D03*
X127531000Y-92310000D03*
X127531000Y-91040000D03*
X128801000Y-92310000D03*
X128801000Y-91040000D03*
X130071000Y-92310000D03*
X130071000Y-91040000D03*
D15*
X132147000Y-80269000D03*
X132147000Y-75269000D03*
D16*
X115249000Y-68597000D03*
X115732274Y-67430274D03*
X115732274Y-69763726D03*
X116899000Y-66947000D03*
D17*
X116899000Y-68597000D03*
D16*
X116899000Y-70247000D03*
X118065726Y-67430274D03*
X118065726Y-69763726D03*
X118549000Y-68597000D03*
D18*
X161799000Y-70865000D03*
X161799000Y-81865000D03*
D19*
X151799000Y-78865000D03*
X151799000Y-73865000D03*
D16*
X153549000Y-89197000D03*
X154032274Y-88030274D03*
X154032274Y-90363726D03*
X155199000Y-87547000D03*
D17*
X155199000Y-89197000D03*
D16*
X155199000Y-90847000D03*
X156365726Y-88030274D03*
X156365726Y-90363726D03*
X156849000Y-89197000D03*
X153549000Y-68597000D03*
X154032274Y-67430274D03*
X154032274Y-69763726D03*
X155199000Y-66947000D03*
D17*
X155199000Y-68597000D03*
D16*
X155199000Y-70247000D03*
X156365726Y-67430274D03*
X156365726Y-69763726D03*
X156849000Y-68597000D03*
D20*
X109499000Y-79092000D03*
X151992000Y-90897000D03*
X124765000Y-87644000D03*
X110598999Y-81532000D03*
X146423250Y-68546998D03*
X163898999Y-92017000D03*
X114427000Y-92235000D03*
X108399000Y-79741999D03*
X146423250Y-67097000D03*
X130928545Y-84517342D03*
X110598999Y-82831999D03*
X112798999Y-90982000D03*
X144692000Y-93107000D03*
X159899000Y-90117000D03*
X162799000Y-92667000D03*
X141530499Y-76335999D03*
X147923249Y-67097000D03*
X147173250Y-67821999D03*
X110598999Y-78442000D03*
X115510999Y-75660000D03*
X121844000Y-74530000D03*
X161699000Y-85716999D03*
X115529999Y-89757000D03*
X157495000Y-72949000D03*
X151992000Y-93107000D03*
X163898999Y-85716999D03*
X126686000Y-79084000D03*
X141426000Y-89209000D03*
X161699000Y-84417000D03*
X109499000Y-94181999D03*
X141530499Y-75186000D03*
X140725499Y-76910998D03*
X139920500Y-75186000D03*
X140725499Y-75760999D03*
X109499000Y-82182000D03*
X139920500Y-77485998D03*
X163145000Y-78446000D03*
X110598999Y-94181999D03*
X108399000Y-78442000D03*
X158934000Y-72615000D03*
X163898999Y-93316999D03*
X144692000Y-90897000D03*
X139920500Y-76335998D03*
X141530499Y-77485999D03*
X163898999Y-84417000D03*
X135048999Y-85932999D03*
X112399000Y-76542000D03*
X162799000Y-85067000D03*
X110598999Y-67092000D03*
X147923249Y-68546999D03*
X109499000Y-67092000D03*
X108399000Y-82831999D03*
X112399000Y-75292000D03*
X121870000Y-88404000D03*
X127627999Y-83093000D03*
X161699000Y-92017000D03*
X112798999Y-89732000D03*
X108399000Y-81532000D03*
X108399000Y-67092000D03*
X110598999Y-79741999D03*
X134891000Y-84332000D03*
X161699000Y-93316999D03*
X108399000Y-94181999D03*
X150819500Y-87624000D03*
X116753500Y-91363000D03*
X127893000Y-75067000D03*
X148707000Y-82119000D03*
X121870000Y-86854000D03*
X155945000Y-72949000D03*
X128078000Y-88340500D03*
X149621000Y-71260000D03*
X132625992Y-70557000D03*
X121844000Y-72980000D03*
X131077999Y-88340500D03*
X147468001Y-87274000D03*
X147173250Y-69869500D03*
X162666500Y-68091000D03*
X129578000Y-88340500D03*
X129228000Y-83093000D03*
X136441000Y-84332000D03*
X137437000Y-87576000D03*
X112399000Y-85982000D03*
X112399000Y-84732000D03*
X112798999Y-71542000D03*
X112798999Y-70292000D03*
X131778000Y-83240499D03*
X159866500Y-68091000D03*
X146105000Y-84547000D03*
X147568000Y-84547000D03*
X146168000Y-87508000D03*
X150769500Y-84174000D03*
X149369500Y-87274000D03*
X149369500Y-84174000D03*
X130728000Y-81284000D03*
X136989000Y-80889000D03*
X129105000Y-85841000D03*
X138280000Y-82665999D03*
X139935000Y-91661000D03*
X138239000Y-91661000D03*
X116753500Y-92663000D03*
X143524000Y-81345000D03*
X138499000Y-80858000D03*
X140767000Y-85482000D03*
X139500260Y-80824515D03*
X159899000Y-88867000D03*
X159899000Y-87617000D03*
X111999000Y-72792000D03*
X119886000Y-75660000D03*
X119886000Y-71850000D03*
X119905000Y-85947000D03*
X119905000Y-89757000D03*
X111999000Y-74042000D03*
X111999000Y-88482000D03*
X111999000Y-87232000D03*
D21*
X146423250Y-67097000D02*
X147923249Y-67097000D01*
X141530499Y-75186000D02*
X139920500Y-75186000D01*
X139920500Y-77485998D02*
X141530498Y-77485998D01*
X141530498Y-77485998D02*
X141530499Y-77485999D01*
X139920500Y-75186000D02*
X139920500Y-77485998D01*
X147923249Y-67097000D02*
X147923249Y-68546999D01*
X146423250Y-68546998D02*
X147923248Y-68546998D01*
X141530499Y-77485999D02*
X141530499Y-75186000D01*
X146423250Y-67097000D02*
X146423250Y-68546998D01*
X147923248Y-68546998D02*
X147923249Y-68546999D01*
D22*
X140725499Y-75760999D02*
X140725499Y-76910998D01*
G04 #@! TA.AperFunction,Conductor*
G36*
X145814603Y-66717185D02*
G01*
X145860358Y-66769989D01*
X145870302Y-66839147D01*
X145865336Y-66857252D01*
X145865776Y-66857370D01*
X145855500Y-66895715D01*
X145850288Y-66911067D01*
X145838206Y-66940235D01*
X145838204Y-66940244D01*
X145834082Y-66971545D01*
X145830921Y-66987441D01*
X145822750Y-67017940D01*
X145822750Y-67049512D01*
X145821689Y-67065697D01*
X145817568Y-67096998D01*
X145817568Y-67097000D01*
X145821689Y-67128301D01*
X145822750Y-67144487D01*
X145822750Y-68499510D01*
X145821689Y-68515695D01*
X145817568Y-68546996D01*
X145817568Y-68546998D01*
X145821689Y-68578299D01*
X145822750Y-68594485D01*
X145822750Y-68626055D01*
X145830920Y-68656548D01*
X145834083Y-68672448D01*
X145838206Y-68703762D01*
X145850288Y-68732930D01*
X145855501Y-68748286D01*
X145863672Y-68778779D01*
X145863673Y-68778782D01*
X145879457Y-68806121D01*
X145886629Y-68820666D01*
X145898712Y-68849837D01*
X145898713Y-68849838D01*
X145917932Y-68874885D01*
X145926942Y-68888370D01*
X145942725Y-68915707D01*
X145942732Y-68915716D01*
X145965053Y-68938037D01*
X145975747Y-68950231D01*
X145994968Y-68975280D01*
X146009137Y-68986152D01*
X146020015Y-68994499D01*
X146032210Y-69005194D01*
X146054534Y-69027518D01*
X146054535Y-69027519D01*
X146054537Y-69027520D01*
X146081875Y-69043303D01*
X146095354Y-69052309D01*
X146120409Y-69071534D01*
X146147259Y-69082655D01*
X146149576Y-69083615D01*
X146164123Y-69090789D01*
X146191464Y-69106574D01*
X146191466Y-69106575D01*
X146221958Y-69114744D01*
X146237310Y-69119955D01*
X146266488Y-69132042D01*
X146297791Y-69136163D01*
X146313691Y-69139325D01*
X146344193Y-69147498D01*
X146375763Y-69147498D01*
X146391947Y-69148558D01*
X146423250Y-69152680D01*
X146454552Y-69148558D01*
X146470737Y-69147498D01*
X146502307Y-69147498D01*
X147836579Y-69147498D01*
X147836595Y-69147499D01*
X147844191Y-69147499D01*
X147844192Y-69147499D01*
X147875762Y-69147499D01*
X147891946Y-69148559D01*
X147923249Y-69152681D01*
X147954551Y-69148559D01*
X147970736Y-69147499D01*
X148002305Y-69147499D01*
X148002306Y-69147499D01*
X148032804Y-69139326D01*
X148048688Y-69136166D01*
X148080011Y-69132043D01*
X148109179Y-69119960D01*
X148124542Y-69114746D01*
X148144107Y-69109503D01*
X148155033Y-69106576D01*
X148182379Y-69090786D01*
X148196915Y-69083618D01*
X148226090Y-69071535D01*
X148251144Y-69052309D01*
X148264617Y-69043307D01*
X148291965Y-69027519D01*
X148314289Y-69005193D01*
X148326483Y-68994500D01*
X148351531Y-68975281D01*
X148370752Y-68950231D01*
X148381445Y-68938038D01*
X148381446Y-68938037D01*
X148403769Y-68915715D01*
X148419557Y-68888367D01*
X148428559Y-68874894D01*
X148447785Y-68849840D01*
X148459868Y-68820665D01*
X148467036Y-68806129D01*
X148482826Y-68778783D01*
X148485753Y-68767857D01*
X148490996Y-68748292D01*
X148496211Y-68732927D01*
X148508293Y-68703761D01*
X148512416Y-68672438D01*
X148515578Y-68656548D01*
X148515580Y-68656542D01*
X148523749Y-68626056D01*
X148523749Y-68594485D01*
X148524810Y-68578300D01*
X148528931Y-68546999D01*
X148528931Y-68546997D01*
X148524810Y-68515696D01*
X148523749Y-68499511D01*
X148523749Y-67144487D01*
X148524810Y-67128301D01*
X148528931Y-67097000D01*
X148528931Y-67096998D01*
X148524810Y-67065697D01*
X148523749Y-67049512D01*
X148523749Y-67017945D01*
X148523749Y-67017943D01*
X148515576Y-66987441D01*
X148512413Y-66971536D01*
X148509696Y-66950900D01*
X148508293Y-66940238D01*
X148496206Y-66911060D01*
X148490994Y-66895703D01*
X148480722Y-66857362D01*
X148483061Y-66856735D01*
X148476904Y-66799488D01*
X148508177Y-66737008D01*
X148568264Y-66701353D01*
X148598935Y-66697500D01*
X153401876Y-66697500D01*
X153468915Y-66717185D01*
X153514670Y-66769989D01*
X153524614Y-66839147D01*
X153495589Y-66902703D01*
X153486760Y-66911892D01*
X153445652Y-66950494D01*
X153253111Y-67183236D01*
X153091268Y-67438261D01*
X153091265Y-67438267D01*
X152962661Y-67711563D01*
X152962659Y-67711568D01*
X152869320Y-67998835D01*
X152812719Y-68295546D01*
X152812718Y-68295553D01*
X152793754Y-68596994D01*
X152793754Y-68597005D01*
X152812718Y-68898446D01*
X152812719Y-68898453D01*
X152827375Y-68975280D01*
X152861215Y-69152679D01*
X152869320Y-69195164D01*
X152962659Y-69482431D01*
X152962661Y-69482436D01*
X153091265Y-69755732D01*
X153091268Y-69755738D01*
X153253111Y-70010763D01*
X153253114Y-70010767D01*
X153253115Y-70010768D01*
X153445651Y-70243504D01*
X153609670Y-70397529D01*
X153665836Y-70450272D01*
X153665846Y-70450280D01*
X153910193Y-70627808D01*
X153910198Y-70627810D01*
X153910205Y-70627816D01*
X154174896Y-70773332D01*
X154174901Y-70773334D01*
X154174903Y-70773335D01*
X154174904Y-70773336D01*
X154455734Y-70884524D01*
X154455737Y-70884525D01*
X154553259Y-70909564D01*
X154748302Y-70959642D01*
X154895039Y-70978179D01*
X155047963Y-70997499D01*
X155047969Y-70997499D01*
X155047973Y-70997500D01*
X155047975Y-70997500D01*
X155350025Y-70997500D01*
X155350027Y-70997500D01*
X155350032Y-70997499D01*
X155350036Y-70997499D01*
X155439909Y-70986145D01*
X155649698Y-70959642D01*
X155942262Y-70884525D01*
X155991577Y-70865000D01*
X160893540Y-70865000D01*
X160913326Y-71053256D01*
X160913327Y-71053259D01*
X160971818Y-71233277D01*
X160971821Y-71233284D01*
X161066467Y-71397216D01*
X161081253Y-71413637D01*
X161193129Y-71537888D01*
X161346265Y-71649148D01*
X161346270Y-71649151D01*
X161519192Y-71726142D01*
X161519197Y-71726144D01*
X161704354Y-71765500D01*
X161704355Y-71765500D01*
X161893644Y-71765500D01*
X161893646Y-71765500D01*
X162078803Y-71726144D01*
X162251730Y-71649151D01*
X162404871Y-71537888D01*
X162531533Y-71397216D01*
X162626179Y-71233284D01*
X162684674Y-71053256D01*
X162704460Y-70865000D01*
X162684674Y-70676744D01*
X162626179Y-70496716D01*
X162531533Y-70332784D01*
X162404871Y-70192112D01*
X162404870Y-70192111D01*
X162251734Y-70080851D01*
X162251729Y-70080848D01*
X162078807Y-70003857D01*
X162078802Y-70003855D01*
X161933001Y-69972865D01*
X161893646Y-69964500D01*
X161704354Y-69964500D01*
X161671897Y-69971398D01*
X161519197Y-70003855D01*
X161519192Y-70003857D01*
X161346270Y-70080848D01*
X161346265Y-70080851D01*
X161193129Y-70192111D01*
X161066466Y-70332785D01*
X160971821Y-70496715D01*
X160971818Y-70496722D01*
X160913327Y-70676740D01*
X160913326Y-70676744D01*
X160893540Y-70865000D01*
X155991577Y-70865000D01*
X156223095Y-70773336D01*
X156223096Y-70773335D01*
X156223094Y-70773335D01*
X156223104Y-70773332D01*
X156487795Y-70627816D01*
X156732162Y-70450274D01*
X156952349Y-70243504D01*
X157144885Y-70010768D01*
X157306733Y-69755736D01*
X157435341Y-69482430D01*
X157528681Y-69195160D01*
X157585280Y-68898457D01*
X157585915Y-68888370D01*
X157604246Y-68597005D01*
X157604246Y-68596994D01*
X157585281Y-68295553D01*
X157585280Y-68295546D01*
X157585280Y-68295543D01*
X157546262Y-68091001D01*
X159260818Y-68091001D01*
X159281455Y-68247760D01*
X159281456Y-68247762D01*
X159341964Y-68393841D01*
X159438218Y-68519282D01*
X159563659Y-68615536D01*
X159709738Y-68676044D01*
X159788119Y-68686363D01*
X159866499Y-68696682D01*
X159866500Y-68696682D01*
X159866501Y-68696682D01*
X159918754Y-68689802D01*
X160023262Y-68676044D01*
X160169341Y-68615536D01*
X160294782Y-68519282D01*
X160391036Y-68393841D01*
X160451544Y-68247762D01*
X160472182Y-68091000D01*
X160451544Y-67934238D01*
X160391036Y-67788159D01*
X160294782Y-67662718D01*
X160169341Y-67566464D01*
X160023262Y-67505956D01*
X160023260Y-67505955D01*
X159866501Y-67485318D01*
X159866499Y-67485318D01*
X159709739Y-67505955D01*
X159709737Y-67505956D01*
X159563660Y-67566463D01*
X159438218Y-67662718D01*
X159341963Y-67788160D01*
X159281456Y-67934237D01*
X159281455Y-67934239D01*
X159260818Y-68090998D01*
X159260818Y-68091001D01*
X157546262Y-68091001D01*
X157528681Y-67998840D01*
X157435341Y-67711570D01*
X157306733Y-67438264D01*
X157188685Y-67252250D01*
X157144888Y-67183236D01*
X157078274Y-67102713D01*
X156952349Y-66950496D01*
X156941426Y-66940239D01*
X156911240Y-66911892D01*
X156875845Y-66851651D01*
X156878639Y-66781837D01*
X156918732Y-66724616D01*
X156983398Y-66698155D01*
X156996124Y-66697500D01*
X163723108Y-66697500D01*
X163783588Y-66697500D01*
X163794394Y-66697971D01*
X163970853Y-66713410D01*
X163992138Y-66717163D01*
X164028060Y-66726788D01*
X164157997Y-66761604D01*
X164178298Y-66768993D01*
X164333920Y-66841561D01*
X164352635Y-66852366D01*
X164478137Y-66940244D01*
X164493286Y-66950851D01*
X164509844Y-66964745D01*
X164631254Y-67086155D01*
X164645148Y-67102713D01*
X164743632Y-67243363D01*
X164754439Y-67262081D01*
X164827003Y-67417694D01*
X164834396Y-67438006D01*
X164878836Y-67603861D01*
X164882589Y-67625146D01*
X164898028Y-67801604D01*
X164898500Y-67812412D01*
X164898500Y-93461587D01*
X164898028Y-93472395D01*
X164882589Y-93648853D01*
X164878836Y-93670138D01*
X164834396Y-93835993D01*
X164827003Y-93856305D01*
X164754439Y-94011918D01*
X164743632Y-94030636D01*
X164645148Y-94171286D01*
X164631254Y-94187844D01*
X164509844Y-94309254D01*
X164493286Y-94323148D01*
X164352636Y-94421632D01*
X164333918Y-94432439D01*
X164178305Y-94505003D01*
X164157993Y-94512396D01*
X163992138Y-94556836D01*
X163970853Y-94560589D01*
X163813704Y-94574338D01*
X163794393Y-94576028D01*
X163783588Y-94576500D01*
X115869500Y-94576500D01*
X115802461Y-94556815D01*
X115756706Y-94504011D01*
X115745500Y-94452500D01*
X115745500Y-92663001D01*
X116147818Y-92663001D01*
X116168455Y-92819760D01*
X116168456Y-92819762D01*
X116222500Y-92950237D01*
X116228964Y-92965841D01*
X116325218Y-93091282D01*
X116450659Y-93187536D01*
X116596738Y-93248044D01*
X116675119Y-93258363D01*
X116753499Y-93268682D01*
X116753500Y-93268682D01*
X116753501Y-93268682D01*
X116805754Y-93261802D01*
X116910262Y-93248044D01*
X116996244Y-93212429D01*
X135066500Y-93212429D01*
X135095147Y-93356446D01*
X135095149Y-93356454D01*
X135151345Y-93492124D01*
X135151350Y-93492133D01*
X135232931Y-93614227D01*
X135232934Y-93614231D01*
X135336768Y-93718065D01*
X135336772Y-93718068D01*
X135458866Y-93799649D01*
X135458872Y-93799652D01*
X135458873Y-93799653D01*
X135594546Y-93855851D01*
X135738570Y-93884499D01*
X135738574Y-93884500D01*
X135738575Y-93884500D01*
X135885426Y-93884500D01*
X135885427Y-93884499D01*
X136029454Y-93855851D01*
X136165127Y-93799653D01*
X136287228Y-93718068D01*
X136391068Y-93614228D01*
X136472653Y-93492127D01*
X136528851Y-93356454D01*
X136557499Y-93212429D01*
X142266500Y-93212429D01*
X142295147Y-93356446D01*
X142295149Y-93356454D01*
X142351345Y-93492124D01*
X142351350Y-93492133D01*
X142432931Y-93614227D01*
X142432934Y-93614231D01*
X142536768Y-93718065D01*
X142536772Y-93718068D01*
X142658866Y-93799649D01*
X142658872Y-93799652D01*
X142658873Y-93799653D01*
X142794546Y-93855851D01*
X142938570Y-93884499D01*
X142938574Y-93884500D01*
X142938575Y-93884500D01*
X143085426Y-93884500D01*
X143085427Y-93884499D01*
X143229454Y-93855851D01*
X143365127Y-93799653D01*
X143487228Y-93718068D01*
X143591068Y-93614228D01*
X143672653Y-93492127D01*
X143728851Y-93356454D01*
X143757500Y-93212425D01*
X143757500Y-93107001D01*
X144086318Y-93107001D01*
X144106955Y-93263760D01*
X144106956Y-93263762D01*
X144129007Y-93316999D01*
X144167464Y-93409841D01*
X144263718Y-93535282D01*
X144389159Y-93631536D01*
X144535238Y-93692044D01*
X144613619Y-93702363D01*
X144691999Y-93712682D01*
X144692000Y-93712682D01*
X144692001Y-93712682D01*
X144744254Y-93705802D01*
X144848762Y-93692044D01*
X144994841Y-93631536D01*
X145120282Y-93535282D01*
X145216536Y-93409841D01*
X145277044Y-93263762D01*
X145297682Y-93107001D01*
X151386318Y-93107001D01*
X151406955Y-93263760D01*
X151406956Y-93263762D01*
X151429007Y-93316999D01*
X151467464Y-93409841D01*
X151563718Y-93535282D01*
X151689159Y-93631536D01*
X151835238Y-93692044D01*
X151913619Y-93702363D01*
X151991999Y-93712682D01*
X151992000Y-93712682D01*
X151992001Y-93712682D01*
X152044254Y-93705802D01*
X152148762Y-93692044D01*
X152294841Y-93631536D01*
X152420282Y-93535282D01*
X152516536Y-93409841D01*
X152554992Y-93317000D01*
X161093318Y-93317000D01*
X161113955Y-93473759D01*
X161113956Y-93473761D01*
X161174464Y-93619840D01*
X161270718Y-93745281D01*
X161396159Y-93841535D01*
X161542238Y-93902043D01*
X161620619Y-93912362D01*
X161698999Y-93922681D01*
X161699000Y-93922681D01*
X161699001Y-93922681D01*
X161751254Y-93915801D01*
X161855762Y-93902043D01*
X162001841Y-93841535D01*
X162127282Y-93745281D01*
X162223536Y-93619840D01*
X162284044Y-93473761D01*
X162304682Y-93316999D01*
X162303866Y-93310803D01*
X162314631Y-93241769D01*
X162361009Y-93189513D01*
X162428278Y-93170626D01*
X162488233Y-93189006D01*
X162489119Y-93187472D01*
X162496157Y-93191534D01*
X162496159Y-93191536D01*
X162642238Y-93252044D01*
X162720619Y-93262363D01*
X162798999Y-93272682D01*
X162799000Y-93272682D01*
X162799001Y-93272682D01*
X162866754Y-93263762D01*
X162955762Y-93252044D01*
X163101841Y-93191536D01*
X163101845Y-93191532D01*
X163108881Y-93187472D01*
X163110636Y-93190512D01*
X163160614Y-93171070D01*
X163229088Y-93184963D01*
X163279181Y-93233671D01*
X163294989Y-93301729D01*
X163294133Y-93310798D01*
X163293317Y-93316998D01*
X163293317Y-93317000D01*
X163313954Y-93473759D01*
X163313955Y-93473761D01*
X163374463Y-93619840D01*
X163470717Y-93745281D01*
X163596158Y-93841535D01*
X163742237Y-93902043D01*
X163820618Y-93912362D01*
X163898998Y-93922681D01*
X163898999Y-93922681D01*
X163899000Y-93922681D01*
X163951253Y-93915801D01*
X164055761Y-93902043D01*
X164201840Y-93841535D01*
X164327281Y-93745281D01*
X164423535Y-93619840D01*
X164484043Y-93473761D01*
X164504681Y-93316999D01*
X164496129Y-93252043D01*
X164487637Y-93187536D01*
X164484043Y-93160237D01*
X164423535Y-93014158D01*
X164327281Y-92888717D01*
X164201840Y-92792463D01*
X164201835Y-92792461D01*
X164175518Y-92781560D01*
X164121115Y-92737719D01*
X164099050Y-92671424D01*
X164116329Y-92603725D01*
X164167467Y-92556115D01*
X164175504Y-92552444D01*
X164201840Y-92541536D01*
X164327281Y-92445282D01*
X164423535Y-92319841D01*
X164484043Y-92173762D01*
X164504681Y-92017000D01*
X164500082Y-91982070D01*
X164484043Y-91860239D01*
X164484043Y-91860238D01*
X164423535Y-91714159D01*
X164327281Y-91588718D01*
X164201840Y-91492464D01*
X164182671Y-91484524D01*
X164055761Y-91431956D01*
X164055759Y-91431955D01*
X163899000Y-91411318D01*
X163898998Y-91411318D01*
X163742238Y-91431955D01*
X163742236Y-91431956D01*
X163596159Y-91492463D01*
X163470717Y-91588718D01*
X163374462Y-91714160D01*
X163313955Y-91860237D01*
X163313954Y-91860239D01*
X163293317Y-92016998D01*
X163293317Y-92017000D01*
X163294133Y-92023201D01*
X163283364Y-92092235D01*
X163236982Y-92144489D01*
X163169713Y-92163372D01*
X163109768Y-92144991D01*
X163108881Y-92146528D01*
X163101843Y-92142465D01*
X163098615Y-92141128D01*
X162955762Y-92081956D01*
X162955760Y-92081955D01*
X162799001Y-92061318D01*
X162798999Y-92061318D01*
X162642239Y-92081955D01*
X162642237Y-92081956D01*
X162496156Y-92142465D01*
X162489119Y-92146528D01*
X162487392Y-92143536D01*
X162437005Y-92162962D01*
X162368574Y-92148859D01*
X162318630Y-92099997D01*
X162303031Y-92031891D01*
X162303864Y-92023209D01*
X162304682Y-92017000D01*
X162284044Y-91860238D01*
X162223536Y-91714159D01*
X162127282Y-91588718D01*
X162001841Y-91492464D01*
X161982672Y-91484524D01*
X161855762Y-91431956D01*
X161855760Y-91431955D01*
X161699001Y-91411318D01*
X161698999Y-91411318D01*
X161542239Y-91431955D01*
X161542237Y-91431956D01*
X161396160Y-91492463D01*
X161270718Y-91588718D01*
X161174463Y-91714160D01*
X161113956Y-91860237D01*
X161113955Y-91860239D01*
X161093318Y-92016998D01*
X161093318Y-92017001D01*
X161113955Y-92173760D01*
X161113956Y-92173762D01*
X161174464Y-92319841D01*
X161270718Y-92445282D01*
X161396159Y-92541536D01*
X161422481Y-92552439D01*
X161476882Y-92596278D01*
X161498948Y-92662572D01*
X161481669Y-92730271D01*
X161430533Y-92777882D01*
X161422481Y-92781559D01*
X161396162Y-92792461D01*
X161396159Y-92792462D01*
X161396159Y-92792463D01*
X161270718Y-92888717D01*
X161174463Y-93014159D01*
X161113956Y-93160236D01*
X161113955Y-93160238D01*
X161093318Y-93316997D01*
X161093318Y-93317000D01*
X152554992Y-93317000D01*
X152577044Y-93263762D01*
X152597682Y-93107000D01*
X152596139Y-93095282D01*
X152577044Y-92950239D01*
X152577044Y-92950238D01*
X152516536Y-92804159D01*
X152420282Y-92678718D01*
X152294841Y-92582464D01*
X152196027Y-92541534D01*
X152148762Y-92521956D01*
X152148760Y-92521955D01*
X151992001Y-92501318D01*
X151991999Y-92501318D01*
X151835239Y-92521955D01*
X151835237Y-92521956D01*
X151689160Y-92582463D01*
X151563718Y-92678718D01*
X151467463Y-92804160D01*
X151406956Y-92950237D01*
X151406955Y-92950239D01*
X151386318Y-93106998D01*
X151386318Y-93107001D01*
X145297682Y-93107001D01*
X145297682Y-93107000D01*
X145296139Y-93095282D01*
X145277044Y-92950239D01*
X145277044Y-92950238D01*
X145216536Y-92804159D01*
X145120282Y-92678718D01*
X144994841Y-92582464D01*
X144896027Y-92541534D01*
X144848762Y-92521956D01*
X144848760Y-92521955D01*
X144692001Y-92501318D01*
X144691999Y-92501318D01*
X144535239Y-92521955D01*
X144535237Y-92521956D01*
X144389160Y-92582463D01*
X144263718Y-92678718D01*
X144167463Y-92804160D01*
X144106956Y-92950237D01*
X144106955Y-92950239D01*
X144086318Y-93106998D01*
X144086318Y-93107001D01*
X143757500Y-93107001D01*
X143757500Y-92155575D01*
X143741671Y-92075995D01*
X146141499Y-92075995D01*
X146168418Y-92211322D01*
X146168421Y-92211332D01*
X146221221Y-92338804D01*
X146221228Y-92338817D01*
X146297885Y-92453541D01*
X146297888Y-92453545D01*
X146395454Y-92551111D01*
X146395458Y-92551114D01*
X146510182Y-92627771D01*
X146510195Y-92627778D01*
X146615567Y-92671424D01*
X146637672Y-92680580D01*
X146637676Y-92680580D01*
X146637677Y-92680581D01*
X146773004Y-92707500D01*
X146773007Y-92707500D01*
X146910995Y-92707500D01*
X147002041Y-92689389D01*
X147046328Y-92680580D01*
X147173811Y-92627775D01*
X147288542Y-92551114D01*
X147386114Y-92453542D01*
X147462775Y-92338811D01*
X147515580Y-92211328D01*
X147530074Y-92138463D01*
X147542500Y-92075995D01*
X149141499Y-92075995D01*
X149168418Y-92211322D01*
X149168421Y-92211332D01*
X149221221Y-92338804D01*
X149221228Y-92338817D01*
X149297885Y-92453541D01*
X149297888Y-92453545D01*
X149395454Y-92551111D01*
X149395458Y-92551114D01*
X149510182Y-92627771D01*
X149510195Y-92627778D01*
X149615567Y-92671424D01*
X149637672Y-92680580D01*
X149637676Y-92680580D01*
X149637677Y-92680581D01*
X149773004Y-92707500D01*
X149773007Y-92707500D01*
X149910995Y-92707500D01*
X150002041Y-92689389D01*
X150046328Y-92680580D01*
X150173811Y-92627775D01*
X150288542Y-92551114D01*
X150386114Y-92453542D01*
X150462775Y-92338811D01*
X150515580Y-92211328D01*
X150530074Y-92138463D01*
X150542500Y-92075995D01*
X150542500Y-91938004D01*
X150515581Y-91802677D01*
X150515580Y-91802676D01*
X150515580Y-91802672D01*
X150495325Y-91753772D01*
X150462778Y-91675195D01*
X150462771Y-91675182D01*
X150386114Y-91560458D01*
X150386111Y-91560454D01*
X150288545Y-91462888D01*
X150288541Y-91462885D01*
X150173817Y-91386228D01*
X150173804Y-91386221D01*
X150046332Y-91333421D01*
X150046322Y-91333418D01*
X149910995Y-91306500D01*
X149910993Y-91306500D01*
X149773007Y-91306500D01*
X149773005Y-91306500D01*
X149637677Y-91333418D01*
X149637667Y-91333421D01*
X149510195Y-91386221D01*
X149510182Y-91386228D01*
X149395458Y-91462885D01*
X149395454Y-91462888D01*
X149297888Y-91560454D01*
X149297885Y-91560458D01*
X149221228Y-91675182D01*
X149221221Y-91675195D01*
X149168421Y-91802667D01*
X149168418Y-91802677D01*
X149141500Y-91938004D01*
X149141500Y-91938007D01*
X149141500Y-92075993D01*
X149141500Y-92075995D01*
X149141499Y-92075995D01*
X147542500Y-92075995D01*
X147542500Y-91938004D01*
X147515581Y-91802677D01*
X147515580Y-91802676D01*
X147515580Y-91802672D01*
X147495325Y-91753772D01*
X147462778Y-91675195D01*
X147462771Y-91675182D01*
X147386114Y-91560458D01*
X147386111Y-91560454D01*
X147288545Y-91462888D01*
X147288541Y-91462885D01*
X147173817Y-91386228D01*
X147173804Y-91386221D01*
X147046332Y-91333421D01*
X147046322Y-91333418D01*
X146910995Y-91306500D01*
X146910993Y-91306500D01*
X146773007Y-91306500D01*
X146773005Y-91306500D01*
X146637677Y-91333418D01*
X146637667Y-91333421D01*
X146510195Y-91386221D01*
X146510182Y-91386228D01*
X146395458Y-91462885D01*
X146395454Y-91462888D01*
X146297888Y-91560454D01*
X146297885Y-91560458D01*
X146221228Y-91675182D01*
X146221221Y-91675195D01*
X146168421Y-91802667D01*
X146168418Y-91802677D01*
X146141500Y-91938004D01*
X146141500Y-91938007D01*
X146141500Y-92075993D01*
X146141500Y-92075995D01*
X146141499Y-92075995D01*
X143741671Y-92075995D01*
X143728851Y-92011546D01*
X143672653Y-91875873D01*
X143672652Y-91875872D01*
X143672649Y-91875866D01*
X143591068Y-91753772D01*
X143591065Y-91753768D01*
X143487231Y-91649934D01*
X143487227Y-91649931D01*
X143365133Y-91568350D01*
X143365124Y-91568345D01*
X143229454Y-91512149D01*
X143229446Y-91512147D01*
X143085429Y-91483500D01*
X143085425Y-91483500D01*
X142938575Y-91483500D01*
X142938570Y-91483500D01*
X142794553Y-91512147D01*
X142794545Y-91512149D01*
X142658875Y-91568345D01*
X142658866Y-91568350D01*
X142536772Y-91649931D01*
X142536768Y-91649934D01*
X142432934Y-91753768D01*
X142432931Y-91753772D01*
X142351350Y-91875866D01*
X142351345Y-91875875D01*
X142295149Y-92011545D01*
X142295147Y-92011553D01*
X142266500Y-92155570D01*
X142266500Y-93212429D01*
X136557499Y-93212429D01*
X136557500Y-93212425D01*
X136557500Y-92155575D01*
X136528851Y-92011546D01*
X136472653Y-91875873D01*
X136472652Y-91875872D01*
X136472649Y-91875866D01*
X136391068Y-91753772D01*
X136391065Y-91753768D01*
X136298298Y-91661001D01*
X137633318Y-91661001D01*
X137653955Y-91817760D01*
X137653956Y-91817762D01*
X137678023Y-91875866D01*
X137714464Y-91963841D01*
X137810718Y-92089282D01*
X137936159Y-92185536D01*
X138082238Y-92246044D01*
X138160619Y-92256363D01*
X138238999Y-92266682D01*
X138239000Y-92266682D01*
X138239001Y-92266682D01*
X138291254Y-92259802D01*
X138395762Y-92246044D01*
X138541841Y-92185536D01*
X138667282Y-92089282D01*
X138763536Y-91963841D01*
X138824044Y-91817762D01*
X138844682Y-91661001D01*
X139329318Y-91661001D01*
X139349955Y-91817760D01*
X139349956Y-91817762D01*
X139374023Y-91875866D01*
X139410464Y-91963841D01*
X139506718Y-92089282D01*
X139632159Y-92185536D01*
X139778238Y-92246044D01*
X139856619Y-92256363D01*
X139934999Y-92266682D01*
X139935000Y-92266682D01*
X139935001Y-92266682D01*
X139987254Y-92259802D01*
X140091762Y-92246044D01*
X140237841Y-92185536D01*
X140363282Y-92089282D01*
X140459536Y-91963841D01*
X140520044Y-91817762D01*
X140540682Y-91661000D01*
X140520044Y-91504238D01*
X140459536Y-91358159D01*
X140363282Y-91232718D01*
X140237841Y-91136464D01*
X140091762Y-91075956D01*
X140091760Y-91075955D01*
X139935001Y-91055318D01*
X139934999Y-91055318D01*
X139778239Y-91075955D01*
X139778237Y-91075956D01*
X139632160Y-91136463D01*
X139506718Y-91232718D01*
X139410463Y-91358160D01*
X139349956Y-91504237D01*
X139349955Y-91504239D01*
X139329318Y-91660998D01*
X139329318Y-91661001D01*
X138844682Y-91661001D01*
X138844682Y-91661000D01*
X138824044Y-91504238D01*
X138763536Y-91358159D01*
X138667282Y-91232718D01*
X138541841Y-91136464D01*
X138395762Y-91075956D01*
X138395760Y-91075955D01*
X138239001Y-91055318D01*
X138238999Y-91055318D01*
X138082239Y-91075955D01*
X138082237Y-91075956D01*
X137936160Y-91136463D01*
X137810718Y-91232718D01*
X137714463Y-91358160D01*
X137653956Y-91504237D01*
X137653955Y-91504239D01*
X137633318Y-91660998D01*
X137633318Y-91661001D01*
X136298298Y-91661001D01*
X136287231Y-91649934D01*
X136287227Y-91649931D01*
X136165133Y-91568350D01*
X136165124Y-91568345D01*
X136029454Y-91512149D01*
X136029446Y-91512147D01*
X135885429Y-91483500D01*
X135885425Y-91483500D01*
X135738575Y-91483500D01*
X135738570Y-91483500D01*
X135594553Y-91512147D01*
X135594545Y-91512149D01*
X135458875Y-91568345D01*
X135458866Y-91568350D01*
X135336772Y-91649931D01*
X135336768Y-91649934D01*
X135232934Y-91753768D01*
X135232931Y-91753772D01*
X135151350Y-91875866D01*
X135151345Y-91875875D01*
X135095149Y-92011545D01*
X135095147Y-92011553D01*
X135066500Y-92155570D01*
X135066500Y-93212429D01*
X116996244Y-93212429D01*
X117056341Y-93187536D01*
X117181782Y-93091282D01*
X117278036Y-92965841D01*
X117338544Y-92819762D01*
X117352821Y-92711317D01*
X117359182Y-92663001D01*
X117359182Y-92662998D01*
X117340613Y-92521955D01*
X117338544Y-92506238D01*
X117278036Y-92360159D01*
X117239548Y-92310000D01*
X124285355Y-92310000D01*
X124305859Y-92478869D01*
X124305860Y-92478874D01*
X124366182Y-92637931D01*
X124389301Y-92671424D01*
X124462817Y-92777929D01*
X124568505Y-92871560D01*
X124590150Y-92890736D01*
X124703520Y-92950237D01*
X124740775Y-92969790D01*
X124905944Y-93010500D01*
X125076056Y-93010500D01*
X125241225Y-92969790D01*
X125320692Y-92928081D01*
X125391849Y-92890736D01*
X125391850Y-92890734D01*
X125391852Y-92890734D01*
X125519183Y-92777929D01*
X125523950Y-92771021D01*
X125578230Y-92727033D01*
X125647678Y-92719372D01*
X125710244Y-92750473D01*
X125728046Y-92771017D01*
X125732817Y-92777929D01*
X125749223Y-92792463D01*
X125860150Y-92890736D01*
X125973520Y-92950237D01*
X126010775Y-92969790D01*
X126175944Y-93010500D01*
X126346056Y-93010500D01*
X126511225Y-92969790D01*
X126590692Y-92928081D01*
X126661849Y-92890736D01*
X126661850Y-92890734D01*
X126661852Y-92890734D01*
X126789183Y-92777929D01*
X126793950Y-92771021D01*
X126848230Y-92727033D01*
X126917678Y-92719372D01*
X126980244Y-92750473D01*
X126998046Y-92771017D01*
X127002817Y-92777929D01*
X127019223Y-92792463D01*
X127130150Y-92890736D01*
X127243520Y-92950237D01*
X127280775Y-92969790D01*
X127445944Y-93010500D01*
X127616056Y-93010500D01*
X127781225Y-92969790D01*
X127860692Y-92928081D01*
X127931849Y-92890736D01*
X127931850Y-92890734D01*
X127931852Y-92890734D01*
X128059183Y-92777929D01*
X128063950Y-92771021D01*
X128118230Y-92727033D01*
X128187678Y-92719372D01*
X128250244Y-92750473D01*
X128268046Y-92771017D01*
X128272817Y-92777929D01*
X128289223Y-92792463D01*
X128400150Y-92890736D01*
X128513520Y-92950237D01*
X128550775Y-92969790D01*
X128715944Y-93010500D01*
X128886056Y-93010500D01*
X129051225Y-92969790D01*
X129130692Y-92928081D01*
X129201849Y-92890736D01*
X129201850Y-92890734D01*
X129201852Y-92890734D01*
X129329183Y-92777929D01*
X129333950Y-92771021D01*
X129388230Y-92727033D01*
X129457678Y-92719372D01*
X129520244Y-92750473D01*
X129538046Y-92771017D01*
X129542817Y-92777929D01*
X129559223Y-92792463D01*
X129670150Y-92890736D01*
X129783520Y-92950237D01*
X129820775Y-92969790D01*
X129985944Y-93010500D01*
X130156056Y-93010500D01*
X130321225Y-92969790D01*
X130400692Y-92928081D01*
X130471849Y-92890736D01*
X130471850Y-92890734D01*
X130471852Y-92890734D01*
X130599183Y-92777929D01*
X130695818Y-92637930D01*
X130756140Y-92478872D01*
X130776645Y-92310000D01*
X130756140Y-92141128D01*
X130695818Y-91982070D01*
X130683235Y-91963841D01*
X130622510Y-91875866D01*
X130599183Y-91842071D01*
X130515363Y-91767813D01*
X130478238Y-91708626D01*
X130479006Y-91638761D01*
X130515363Y-91582186D01*
X130599183Y-91507929D01*
X130695818Y-91367930D01*
X130756140Y-91208872D01*
X130776645Y-91040000D01*
X130756140Y-90871128D01*
X130695818Y-90712070D01*
X130618386Y-90599891D01*
X136911500Y-90599891D01*
X136945608Y-90727187D01*
X136953144Y-90740239D01*
X137011500Y-90841314D01*
X137104686Y-90934500D01*
X137218814Y-91000392D01*
X137346108Y-91034500D01*
X137346110Y-91034500D01*
X137477890Y-91034500D01*
X137477892Y-91034500D01*
X137605186Y-91000392D01*
X137719314Y-90934500D01*
X137812500Y-90841314D01*
X137878392Y-90727186D01*
X137912500Y-90599892D01*
X137912500Y-90468108D01*
X137878392Y-90340814D01*
X137877633Y-90339500D01*
X137848354Y-90288787D01*
X137812500Y-90226686D01*
X137719314Y-90133500D01*
X137630869Y-90082436D01*
X137605187Y-90067608D01*
X137541539Y-90050554D01*
X137477892Y-90033500D01*
X137346108Y-90033500D01*
X137218812Y-90067608D01*
X137104686Y-90133500D01*
X137104683Y-90133502D01*
X137011502Y-90226683D01*
X137011500Y-90226686D01*
X136945608Y-90340812D01*
X136911500Y-90468108D01*
X136911500Y-90599891D01*
X130618386Y-90599891D01*
X130599183Y-90572071D01*
X130487066Y-90472744D01*
X130471849Y-90459263D01*
X130321226Y-90380210D01*
X130156056Y-90339500D01*
X129985944Y-90339500D01*
X129820773Y-90380210D01*
X129670150Y-90459263D01*
X129542815Y-90572072D01*
X129538049Y-90578978D01*
X129483766Y-90622968D01*
X129414317Y-90630627D01*
X129351753Y-90599523D01*
X129333951Y-90578978D01*
X129329184Y-90572072D01*
X129201849Y-90459263D01*
X129051226Y-90380210D01*
X128886056Y-90339500D01*
X128715944Y-90339500D01*
X128550773Y-90380210D01*
X128400150Y-90459263D01*
X128272815Y-90572072D01*
X128268049Y-90578978D01*
X128213766Y-90622968D01*
X128144317Y-90630627D01*
X128081753Y-90599523D01*
X128063951Y-90578978D01*
X128059184Y-90572072D01*
X127931849Y-90459263D01*
X127781226Y-90380210D01*
X127616056Y-90339500D01*
X127445944Y-90339500D01*
X127280773Y-90380210D01*
X127130150Y-90459263D01*
X127002815Y-90572072D01*
X126998049Y-90578978D01*
X126943766Y-90622968D01*
X126874317Y-90630627D01*
X126811753Y-90599523D01*
X126793951Y-90578978D01*
X126789184Y-90572072D01*
X126661849Y-90459263D01*
X126511226Y-90380210D01*
X126346056Y-90339500D01*
X126175944Y-90339500D01*
X126010773Y-90380210D01*
X125860150Y-90459263D01*
X125732815Y-90572072D01*
X125728049Y-90578978D01*
X125673766Y-90622968D01*
X125604317Y-90630627D01*
X125541753Y-90599523D01*
X125523951Y-90578978D01*
X125519184Y-90572072D01*
X125391849Y-90459263D01*
X125241226Y-90380210D01*
X125076056Y-90339500D01*
X124905944Y-90339500D01*
X124740773Y-90380210D01*
X124590150Y-90459263D01*
X124462816Y-90572072D01*
X124366182Y-90712068D01*
X124305860Y-90871125D01*
X124305859Y-90871130D01*
X124285355Y-91040000D01*
X124305859Y-91208869D01*
X124305860Y-91208874D01*
X124366182Y-91367931D01*
X124410376Y-91431956D01*
X124460269Y-91504238D01*
X124462818Y-91507930D01*
X124546634Y-91582185D01*
X124583761Y-91641374D01*
X124582993Y-91711240D01*
X124546634Y-91767815D01*
X124462818Y-91842069D01*
X124366182Y-91982068D01*
X124305860Y-92141125D01*
X124305859Y-92141130D01*
X124285355Y-92310000D01*
X117239548Y-92310000D01*
X117181782Y-92234718D01*
X117056341Y-92138464D01*
X116910262Y-92077956D01*
X116910260Y-92077955D01*
X116753501Y-92057318D01*
X116753499Y-92057318D01*
X116596739Y-92077955D01*
X116596737Y-92077956D01*
X116450660Y-92138463D01*
X116325218Y-92234718D01*
X116228963Y-92360160D01*
X116168456Y-92506237D01*
X116168455Y-92506239D01*
X116147818Y-92662998D01*
X116147818Y-92663001D01*
X115745500Y-92663001D01*
X115745500Y-90472744D01*
X115745499Y-90472724D01*
X115743231Y-90442287D01*
X115742635Y-90438314D01*
X115740150Y-90421729D01*
X115749679Y-90352515D01*
X115795117Y-90299438D01*
X115815319Y-90288793D01*
X115832840Y-90281536D01*
X115958281Y-90185282D01*
X116054535Y-90059841D01*
X116115043Y-89913762D01*
X116128801Y-89809254D01*
X116135681Y-89757001D01*
X119299318Y-89757001D01*
X119319955Y-89913760D01*
X119319956Y-89913762D01*
X119380464Y-90059841D01*
X119476718Y-90185282D01*
X119602159Y-90281536D01*
X119748238Y-90342044D01*
X119826619Y-90352363D01*
X119904999Y-90362682D01*
X119905000Y-90362682D01*
X119905001Y-90362682D01*
X119982226Y-90352515D01*
X120061762Y-90342044D01*
X120207841Y-90281536D01*
X120333282Y-90185282D01*
X120429536Y-90059841D01*
X120490044Y-89913762D01*
X120503802Y-89809254D01*
X120510682Y-89757001D01*
X120510682Y-89756998D01*
X120494921Y-89637281D01*
X120490044Y-89600238D01*
X120481850Y-89580457D01*
X135086499Y-89580457D01*
X135114379Y-89720614D01*
X135114381Y-89720620D01*
X135169069Y-89852650D01*
X135169074Y-89852659D01*
X135248467Y-89971478D01*
X135248470Y-89971482D01*
X135349517Y-90072529D01*
X135349521Y-90072532D01*
X135468340Y-90151925D01*
X135468346Y-90151928D01*
X135468347Y-90151929D01*
X135600380Y-90206619D01*
X135600384Y-90206619D01*
X135600385Y-90206620D01*
X135740542Y-90234500D01*
X135740545Y-90234500D01*
X135883457Y-90234500D01*
X135977751Y-90215742D01*
X136023620Y-90206619D01*
X136155653Y-90151929D01*
X136274479Y-90072532D01*
X136375532Y-89971479D01*
X136454929Y-89852653D01*
X136509619Y-89720620D01*
X136526196Y-89637282D01*
X136537500Y-89580457D01*
X136537500Y-89209001D01*
X140820318Y-89209001D01*
X140840955Y-89365760D01*
X140840956Y-89365762D01*
X140896741Y-89500440D01*
X140901464Y-89511841D01*
X140997718Y-89637282D01*
X141123159Y-89733536D01*
X141269238Y-89794044D01*
X141301963Y-89798352D01*
X141365859Y-89826618D01*
X141404331Y-89884942D01*
X141405163Y-89954807D01*
X141368091Y-90014031D01*
X141317872Y-90041065D01*
X141218814Y-90067608D01*
X141218812Y-90067608D01*
X141218812Y-90067609D01*
X141104686Y-90133500D01*
X141104683Y-90133502D01*
X141011502Y-90226683D01*
X141011500Y-90226686D01*
X140945608Y-90340812D01*
X140911500Y-90468108D01*
X140911500Y-90599891D01*
X140945608Y-90727187D01*
X140953144Y-90740239D01*
X141011500Y-90841314D01*
X141104686Y-90934500D01*
X141218814Y-91000392D01*
X141346108Y-91034500D01*
X141346110Y-91034500D01*
X141477890Y-91034500D01*
X141477892Y-91034500D01*
X141605186Y-91000392D01*
X141719314Y-90934500D01*
X141756813Y-90897001D01*
X144086318Y-90897001D01*
X144106955Y-91053760D01*
X144106956Y-91053762D01*
X144167464Y-91199841D01*
X144263718Y-91325282D01*
X144389159Y-91421536D01*
X144535238Y-91482044D01*
X144613619Y-91492363D01*
X144691999Y-91502682D01*
X144692000Y-91502682D01*
X144692001Y-91502682D01*
X144744254Y-91495802D01*
X144848762Y-91482044D01*
X144994841Y-91421536D01*
X145120282Y-91325282D01*
X145216536Y-91199841D01*
X145277044Y-91053762D01*
X145297682Y-90897001D01*
X151386318Y-90897001D01*
X151406955Y-91053760D01*
X151406956Y-91053762D01*
X151467464Y-91199841D01*
X151563718Y-91325282D01*
X151689159Y-91421536D01*
X151835238Y-91482044D01*
X151913619Y-91492363D01*
X151991999Y-91502682D01*
X151992000Y-91502682D01*
X151992001Y-91502682D01*
X152044254Y-91495802D01*
X152148762Y-91482044D01*
X152294841Y-91421536D01*
X152420282Y-91325282D01*
X152516536Y-91199841D01*
X152577044Y-91053762D01*
X152597682Y-90897000D01*
X152577044Y-90740238D01*
X152516536Y-90594159D01*
X152420282Y-90468718D01*
X152294841Y-90372464D01*
X152271225Y-90362682D01*
X152148762Y-90311956D01*
X152148760Y-90311955D01*
X151992001Y-90291318D01*
X151991999Y-90291318D01*
X151835239Y-90311955D01*
X151835237Y-90311956D01*
X151689160Y-90372463D01*
X151563718Y-90468718D01*
X151467463Y-90594160D01*
X151406956Y-90740237D01*
X151406955Y-90740239D01*
X151386318Y-90896998D01*
X151386318Y-90897001D01*
X145297682Y-90897001D01*
X145297682Y-90897000D01*
X145277044Y-90740238D01*
X145216536Y-90594159D01*
X145120282Y-90468718D01*
X144994841Y-90372464D01*
X144971225Y-90362682D01*
X144848762Y-90311956D01*
X144848760Y-90311955D01*
X144692001Y-90291318D01*
X144691999Y-90291318D01*
X144535239Y-90311955D01*
X144535237Y-90311956D01*
X144389160Y-90372463D01*
X144263718Y-90468718D01*
X144167463Y-90594160D01*
X144106956Y-90740237D01*
X144106955Y-90740239D01*
X144086318Y-90896998D01*
X144086318Y-90897001D01*
X141756813Y-90897001D01*
X141812500Y-90841314D01*
X141878392Y-90727186D01*
X141912500Y-90599892D01*
X141912500Y-90468108D01*
X141878392Y-90340814D01*
X141877633Y-90339500D01*
X141848354Y-90288787D01*
X141812500Y-90226686D01*
X141719314Y-90133500D01*
X141630869Y-90082436D01*
X141605187Y-90067608D01*
X141571697Y-90058634D01*
X141515351Y-90043537D01*
X141455692Y-90007173D01*
X141425163Y-89944326D01*
X141433458Y-89874951D01*
X141477943Y-89821073D01*
X141531260Y-89800824D01*
X141582762Y-89794044D01*
X141728841Y-89733536D01*
X141854282Y-89637282D01*
X141897885Y-89580457D01*
X142286499Y-89580457D01*
X142314379Y-89720614D01*
X142314381Y-89720620D01*
X142369069Y-89852650D01*
X142369074Y-89852659D01*
X142448467Y-89971478D01*
X142448470Y-89971482D01*
X142549517Y-90072529D01*
X142549521Y-90072532D01*
X142668340Y-90151925D01*
X142668346Y-90151928D01*
X142668347Y-90151929D01*
X142800380Y-90206619D01*
X142800384Y-90206619D01*
X142800385Y-90206620D01*
X142940542Y-90234500D01*
X142940545Y-90234500D01*
X143083457Y-90234500D01*
X143177751Y-90215742D01*
X143223620Y-90206619D01*
X143355653Y-90151929D01*
X143474479Y-90072532D01*
X143575532Y-89971479D01*
X143654929Y-89852653D01*
X143709619Y-89720620D01*
X143726196Y-89637282D01*
X143737500Y-89580457D01*
X143737500Y-89197005D01*
X152793754Y-89197005D01*
X152812718Y-89498446D01*
X152812719Y-89498453D01*
X152869320Y-89795164D01*
X152962659Y-90082431D01*
X152962661Y-90082436D01*
X153091265Y-90355732D01*
X153091268Y-90355738D01*
X153253111Y-90610763D01*
X153253114Y-90610767D01*
X153253115Y-90610768D01*
X153445651Y-90843504D01*
X153649040Y-91034500D01*
X153665836Y-91050272D01*
X153665846Y-91050280D01*
X153910193Y-91227808D01*
X153910198Y-91227810D01*
X153910205Y-91227816D01*
X154174896Y-91373332D01*
X154174901Y-91373334D01*
X154174903Y-91373335D01*
X154174904Y-91373336D01*
X154455734Y-91484524D01*
X154455737Y-91484525D01*
X154546884Y-91507927D01*
X154748302Y-91559642D01*
X154895039Y-91578179D01*
X155047963Y-91597499D01*
X155047969Y-91597499D01*
X155047973Y-91597500D01*
X155047975Y-91597500D01*
X155350025Y-91597500D01*
X155350027Y-91597500D01*
X155350032Y-91597499D01*
X155350036Y-91597499D01*
X155471263Y-91582184D01*
X155649698Y-91559642D01*
X155942262Y-91484525D01*
X155944851Y-91483500D01*
X156223095Y-91373336D01*
X156223096Y-91373335D01*
X156223094Y-91373335D01*
X156223104Y-91373332D01*
X156487795Y-91227816D01*
X156732162Y-91050274D01*
X156952349Y-90843504D01*
X157144885Y-90610768D01*
X157306733Y-90355736D01*
X157419073Y-90117001D01*
X159293318Y-90117001D01*
X159313955Y-90273760D01*
X159313956Y-90273762D01*
X159368705Y-90405939D01*
X159374464Y-90419841D01*
X159470718Y-90545282D01*
X159596159Y-90641536D01*
X159742238Y-90702044D01*
X159818378Y-90712068D01*
X159898999Y-90722682D01*
X159899000Y-90722682D01*
X159899001Y-90722682D01*
X159951254Y-90715802D01*
X160055762Y-90702044D01*
X160201841Y-90641536D01*
X160327282Y-90545282D01*
X160423536Y-90419841D01*
X160484044Y-90273762D01*
X160500084Y-90151925D01*
X160504682Y-90117001D01*
X160504682Y-90116998D01*
X160484044Y-89960239D01*
X160484044Y-89960238D01*
X160423536Y-89814159D01*
X160327282Y-89688718D01*
X160327280Y-89688717D01*
X160327280Y-89688716D01*
X160199120Y-89590376D01*
X160157917Y-89533948D01*
X160153762Y-89464202D01*
X160187974Y-89403282D01*
X160199120Y-89393624D01*
X160283707Y-89328718D01*
X160327282Y-89295282D01*
X160423536Y-89169841D01*
X160484044Y-89023762D01*
X160504682Y-88867000D01*
X160484044Y-88710238D01*
X160423536Y-88564159D01*
X160327282Y-88438718D01*
X160327280Y-88438717D01*
X160327280Y-88438716D01*
X160199120Y-88340376D01*
X160157917Y-88283948D01*
X160153762Y-88214202D01*
X160187974Y-88153282D01*
X160199120Y-88143624D01*
X160265038Y-88093043D01*
X160327282Y-88045282D01*
X160423536Y-87919841D01*
X160484044Y-87773762D01*
X160504682Y-87617000D01*
X160499284Y-87576001D01*
X160484044Y-87460239D01*
X160484044Y-87460238D01*
X160423536Y-87314159D01*
X160327282Y-87188718D01*
X160201841Y-87092464D01*
X160171069Y-87079718D01*
X160055762Y-87031956D01*
X160055760Y-87031955D01*
X159899001Y-87011318D01*
X159898999Y-87011318D01*
X159742239Y-87031955D01*
X159742237Y-87031956D01*
X159596160Y-87092463D01*
X159470718Y-87188718D01*
X159374463Y-87314160D01*
X159313956Y-87460237D01*
X159313955Y-87460239D01*
X159293318Y-87616998D01*
X159293318Y-87617001D01*
X159313955Y-87773760D01*
X159313956Y-87773762D01*
X159357829Y-87879682D01*
X159374464Y-87919841D01*
X159470718Y-88045282D01*
X159532962Y-88093043D01*
X159598880Y-88143624D01*
X159640082Y-88200053D01*
X159644237Y-88269799D01*
X159610024Y-88330719D01*
X159598880Y-88340376D01*
X159470718Y-88438718D01*
X159374463Y-88564160D01*
X159313956Y-88710237D01*
X159313955Y-88710239D01*
X159293318Y-88866998D01*
X159293318Y-88867001D01*
X159313955Y-89023760D01*
X159313956Y-89023762D01*
X159366791Y-89151318D01*
X159374464Y-89169841D01*
X159470718Y-89295282D01*
X159562567Y-89365760D01*
X159598880Y-89393624D01*
X159640082Y-89450053D01*
X159644237Y-89519799D01*
X159610024Y-89580719D01*
X159598880Y-89590376D01*
X159470718Y-89688718D01*
X159374463Y-89814160D01*
X159313956Y-89960237D01*
X159313955Y-89960239D01*
X159293318Y-90116998D01*
X159293318Y-90117001D01*
X157419073Y-90117001D01*
X157435341Y-90082430D01*
X157528681Y-89795160D01*
X157585280Y-89498457D01*
X157586902Y-89472682D01*
X157604246Y-89197005D01*
X157604246Y-89196994D01*
X157585281Y-88895553D01*
X157585280Y-88895546D01*
X157585280Y-88895543D01*
X157528681Y-88598840D01*
X157435341Y-88311570D01*
X157393513Y-88222682D01*
X157360856Y-88153282D01*
X157306733Y-88038264D01*
X157179440Y-87837682D01*
X157144888Y-87783236D01*
X157144885Y-87783232D01*
X156952349Y-87550496D01*
X156907095Y-87508000D01*
X156805557Y-87412649D01*
X156732162Y-87343726D01*
X156732159Y-87343724D01*
X156732153Y-87343719D01*
X156487806Y-87166191D01*
X156487799Y-87166186D01*
X156487795Y-87166184D01*
X156223104Y-87020668D01*
X156223101Y-87020666D01*
X156223096Y-87020664D01*
X156223095Y-87020663D01*
X155942265Y-86909475D01*
X155942262Y-86909474D01*
X155649695Y-86834357D01*
X155350036Y-86796500D01*
X155350027Y-86796500D01*
X155047973Y-86796500D01*
X155047963Y-86796500D01*
X154748304Y-86834357D01*
X154455737Y-86909474D01*
X154455734Y-86909475D01*
X154174904Y-87020663D01*
X154174903Y-87020664D01*
X153910205Y-87166184D01*
X153910193Y-87166191D01*
X153665846Y-87343719D01*
X153665836Y-87343727D01*
X153445652Y-87550494D01*
X153253111Y-87783236D01*
X153091268Y-88038261D01*
X153091265Y-88038267D01*
X152962661Y-88311563D01*
X152962659Y-88311568D01*
X152869320Y-88598835D01*
X152812719Y-88895546D01*
X152812718Y-88895553D01*
X152793754Y-89196994D01*
X152793754Y-89197005D01*
X143737500Y-89197005D01*
X143737500Y-88887542D01*
X143709620Y-88747385D01*
X143709619Y-88747384D01*
X143709619Y-88747380D01*
X143654929Y-88615347D01*
X143654928Y-88615346D01*
X143654925Y-88615340D01*
X143575532Y-88496521D01*
X143575529Y-88496517D01*
X143474482Y-88395470D01*
X143474478Y-88395467D01*
X143355659Y-88316074D01*
X143355650Y-88316069D01*
X143223620Y-88261381D01*
X143223614Y-88261379D01*
X143083457Y-88233500D01*
X143083455Y-88233500D01*
X142940545Y-88233500D01*
X142940543Y-88233500D01*
X142800385Y-88261379D01*
X142800379Y-88261381D01*
X142668349Y-88316069D01*
X142668340Y-88316074D01*
X142549521Y-88395467D01*
X142549517Y-88395470D01*
X142448470Y-88496517D01*
X142448467Y-88496521D01*
X142369074Y-88615340D01*
X142369069Y-88615349D01*
X142314381Y-88747379D01*
X142314379Y-88747385D01*
X142286500Y-88887542D01*
X142286500Y-88887545D01*
X142286500Y-89580455D01*
X142286500Y-89580457D01*
X142286499Y-89580457D01*
X141897885Y-89580457D01*
X141950536Y-89511841D01*
X142011044Y-89365762D01*
X142031682Y-89209000D01*
X142030101Y-89196994D01*
X142011044Y-89052239D01*
X142011044Y-89052238D01*
X141950536Y-88906159D01*
X141854282Y-88780718D01*
X141728841Y-88684464D01*
X141582762Y-88623956D01*
X141582760Y-88623955D01*
X141426001Y-88603318D01*
X141425999Y-88603318D01*
X141269239Y-88623955D01*
X141269237Y-88623956D01*
X141123160Y-88684463D01*
X140997718Y-88780718D01*
X140901463Y-88906160D01*
X140840956Y-89052237D01*
X140840955Y-89052239D01*
X140820318Y-89208998D01*
X140820318Y-89209001D01*
X136537500Y-89209001D01*
X136537500Y-88887542D01*
X136509620Y-88747385D01*
X136509619Y-88747384D01*
X136509619Y-88747380D01*
X136454929Y-88615347D01*
X136454928Y-88615346D01*
X136454925Y-88615340D01*
X136375532Y-88496521D01*
X136375529Y-88496517D01*
X136274482Y-88395470D01*
X136274478Y-88395467D01*
X136155659Y-88316074D01*
X136155650Y-88316069D01*
X136023620Y-88261381D01*
X136023614Y-88261379D01*
X135883457Y-88233500D01*
X135883455Y-88233500D01*
X135740545Y-88233500D01*
X135740543Y-88233500D01*
X135600385Y-88261379D01*
X135600379Y-88261381D01*
X135468349Y-88316069D01*
X135468340Y-88316074D01*
X135349521Y-88395467D01*
X135349517Y-88395470D01*
X135248470Y-88496517D01*
X135248467Y-88496521D01*
X135169074Y-88615340D01*
X135169069Y-88615349D01*
X135114381Y-88747379D01*
X135114379Y-88747385D01*
X135086500Y-88887542D01*
X135086500Y-88887545D01*
X135086500Y-89580455D01*
X135086500Y-89580457D01*
X135086499Y-89580457D01*
X120481850Y-89580457D01*
X120429536Y-89454159D01*
X120333282Y-89328718D01*
X120207841Y-89232464D01*
X120151196Y-89209001D01*
X120061762Y-89171956D01*
X120061760Y-89171955D01*
X119905001Y-89151318D01*
X119904999Y-89151318D01*
X119748239Y-89171955D01*
X119748237Y-89171956D01*
X119602160Y-89232463D01*
X119476718Y-89328718D01*
X119380463Y-89454160D01*
X119319956Y-89600237D01*
X119319955Y-89600239D01*
X119299318Y-89756998D01*
X119299318Y-89757001D01*
X116135681Y-89757001D01*
X116135681Y-89756998D01*
X116128801Y-89704746D01*
X116115043Y-89600238D01*
X116115039Y-89600230D01*
X116113218Y-89593431D01*
X116114877Y-89523581D01*
X116154037Y-89465716D01*
X116165615Y-89457233D01*
X116196392Y-89437320D01*
X117381493Y-88404001D01*
X121264318Y-88404001D01*
X121284955Y-88560760D01*
X121284956Y-88560762D01*
X121345464Y-88706841D01*
X121441718Y-88832282D01*
X121567159Y-88928536D01*
X121713238Y-88989044D01*
X121791619Y-88999363D01*
X121869999Y-89009682D01*
X121870000Y-89009682D01*
X121870001Y-89009682D01*
X121922254Y-89002802D01*
X122026762Y-88989044D01*
X122172841Y-88928536D01*
X122298282Y-88832282D01*
X122394536Y-88706841D01*
X122455044Y-88560762D01*
X122475682Y-88404000D01*
X122466034Y-88330719D01*
X122455044Y-88247239D01*
X122455044Y-88247238D01*
X122394536Y-88101159D01*
X122298282Y-87975718D01*
X122172841Y-87879464D01*
X122171332Y-87878839D01*
X122026762Y-87818956D01*
X122026760Y-87818955D01*
X121870001Y-87798318D01*
X121869999Y-87798318D01*
X121713239Y-87818955D01*
X121713237Y-87818956D01*
X121567160Y-87879463D01*
X121441718Y-87975718D01*
X121345463Y-88101160D01*
X121284956Y-88247237D01*
X121284955Y-88247239D01*
X121264318Y-88403998D01*
X121264318Y-88404001D01*
X117381493Y-88404001D01*
X118253128Y-87644001D01*
X124159318Y-87644001D01*
X124179955Y-87800760D01*
X124179956Y-87800762D01*
X124240464Y-87946841D01*
X124336718Y-88072282D01*
X124462159Y-88168536D01*
X124608238Y-88229044D01*
X124642085Y-88233500D01*
X124764999Y-88249682D01*
X124765000Y-88249682D01*
X124765001Y-88249682D01*
X124817254Y-88242802D01*
X124921762Y-88229044D01*
X125067841Y-88168536D01*
X125193282Y-88072282D01*
X125289536Y-87946841D01*
X125350044Y-87800762D01*
X125370682Y-87644000D01*
X125367127Y-87617000D01*
X125361729Y-87576001D01*
X136831318Y-87576001D01*
X136851955Y-87732760D01*
X136851956Y-87732762D01*
X136892613Y-87830918D01*
X136912464Y-87878841D01*
X137008718Y-88004282D01*
X137134159Y-88100536D01*
X137280238Y-88161044D01*
X137337146Y-88168536D01*
X137436999Y-88181682D01*
X137437000Y-88181682D01*
X137437001Y-88181682D01*
X137489254Y-88174802D01*
X137593762Y-88161044D01*
X137739841Y-88100536D01*
X137865282Y-88004282D01*
X137961536Y-87878841D01*
X138022044Y-87732762D01*
X138042682Y-87576000D01*
X138039324Y-87550496D01*
X138033730Y-87508001D01*
X145562318Y-87508001D01*
X145582955Y-87664760D01*
X145582956Y-87664762D01*
X145632029Y-87783236D01*
X145643464Y-87810841D01*
X145739718Y-87936282D01*
X145865159Y-88032536D01*
X146011238Y-88093044D01*
X146089619Y-88103363D01*
X146167999Y-88113682D01*
X146168000Y-88113682D01*
X146168001Y-88113682D01*
X146220254Y-88106802D01*
X146324762Y-88093044D01*
X146470841Y-88032536D01*
X146596282Y-87936282D01*
X146692536Y-87810841D01*
X146753044Y-87664762D01*
X146773682Y-87508000D01*
X146763513Y-87430762D01*
X146753044Y-87351239D01*
X146753044Y-87351238D01*
X146721051Y-87274001D01*
X148763818Y-87274001D01*
X148784455Y-87430760D01*
X148784456Y-87430762D01*
X148844615Y-87576000D01*
X148844964Y-87576841D01*
X148941218Y-87702282D01*
X149066659Y-87798536D01*
X149212738Y-87859044D01*
X149291119Y-87869363D01*
X149369499Y-87879682D01*
X149369500Y-87879682D01*
X149369501Y-87879682D01*
X149421754Y-87872802D01*
X149526262Y-87859044D01*
X149672341Y-87798536D01*
X149797782Y-87702282D01*
X149894036Y-87576841D01*
X149954544Y-87430762D01*
X149975182Y-87274000D01*
X149975071Y-87273160D01*
X149954544Y-87117239D01*
X149954544Y-87117238D01*
X149894036Y-86971159D01*
X149797782Y-86845718D01*
X149672341Y-86749464D01*
X149526262Y-86688956D01*
X149526260Y-86688955D01*
X149369501Y-86668318D01*
X149369499Y-86668318D01*
X149212739Y-86688955D01*
X149212737Y-86688956D01*
X149066660Y-86749463D01*
X148941218Y-86845718D01*
X148844963Y-86971160D01*
X148784456Y-87117237D01*
X148784455Y-87117239D01*
X148763818Y-87273998D01*
X148763818Y-87274001D01*
X146721051Y-87274001D01*
X146692536Y-87205159D01*
X146596282Y-87079718D01*
X146470841Y-86983464D01*
X146324762Y-86922956D01*
X146324760Y-86922955D01*
X146168001Y-86902318D01*
X146167999Y-86902318D01*
X146011239Y-86922955D01*
X146011237Y-86922956D01*
X145865160Y-86983463D01*
X145739718Y-87079718D01*
X145643463Y-87205160D01*
X145582956Y-87351237D01*
X145582955Y-87351239D01*
X145562318Y-87507998D01*
X145562318Y-87508001D01*
X138033730Y-87508001D01*
X138022044Y-87419239D01*
X138022044Y-87419238D01*
X137961536Y-87273159D01*
X137865282Y-87147718D01*
X137739841Y-87051464D01*
X137665483Y-87020664D01*
X137593762Y-86990956D01*
X137593760Y-86990955D01*
X137437001Y-86970318D01*
X137436999Y-86970318D01*
X137280239Y-86990955D01*
X137280237Y-86990956D01*
X137134160Y-87051463D01*
X137008718Y-87147718D01*
X136912463Y-87273160D01*
X136851956Y-87419237D01*
X136851955Y-87419239D01*
X136831318Y-87575998D01*
X136831318Y-87576001D01*
X125361729Y-87576001D01*
X125350044Y-87487239D01*
X125350044Y-87487238D01*
X125289536Y-87341159D01*
X125193282Y-87215718D01*
X125067841Y-87119464D01*
X125062469Y-87117239D01*
X124921762Y-87058956D01*
X124921760Y-87058955D01*
X124765001Y-87038318D01*
X124764999Y-87038318D01*
X124608239Y-87058955D01*
X124608237Y-87058956D01*
X124462160Y-87119463D01*
X124336718Y-87215718D01*
X124240463Y-87341160D01*
X124179956Y-87487237D01*
X124179955Y-87487239D01*
X124159318Y-87643998D01*
X124159318Y-87644001D01*
X118253128Y-87644001D01*
X119491803Y-86563970D01*
X119509031Y-86547068D01*
X119525564Y-86528821D01*
X119585161Y-86492364D01*
X119655013Y-86493913D01*
X119664901Y-86497525D01*
X119708192Y-86515456D01*
X119748238Y-86532044D01*
X119826619Y-86542363D01*
X119904999Y-86552682D01*
X119905000Y-86552682D01*
X119905001Y-86552682D01*
X119957254Y-86545802D01*
X120061762Y-86532044D01*
X120207841Y-86471536D01*
X120333282Y-86375282D01*
X120429536Y-86249841D01*
X120490044Y-86103762D01*
X120509027Y-85959569D01*
X120537292Y-85895676D01*
X120595616Y-85857204D01*
X120599562Y-85856066D01*
X120605988Y-85854326D01*
X120638645Y-85845485D01*
X120649042Y-85841001D01*
X128499318Y-85841001D01*
X128519955Y-85997760D01*
X128519956Y-85997762D01*
X128580464Y-86143841D01*
X128676718Y-86269282D01*
X128802159Y-86365536D01*
X128948238Y-86426044D01*
X129026619Y-86436363D01*
X129104999Y-86446682D01*
X129105000Y-86446682D01*
X129105001Y-86446682D01*
X129157254Y-86439802D01*
X129261762Y-86426044D01*
X129407841Y-86365536D01*
X129533282Y-86269282D01*
X129629536Y-86143841D01*
X129690044Y-85997762D01*
X129698570Y-85933000D01*
X134443317Y-85933000D01*
X134463954Y-86089759D01*
X134463955Y-86089761D01*
X134524463Y-86235840D01*
X134620717Y-86361281D01*
X134746158Y-86457535D01*
X134892237Y-86518043D01*
X134970618Y-86528362D01*
X135048998Y-86538681D01*
X135048999Y-86538681D01*
X135049000Y-86538681D01*
X135123863Y-86528825D01*
X135205761Y-86518043D01*
X135351840Y-86457535D01*
X135477281Y-86361281D01*
X135573535Y-86235840D01*
X135634043Y-86089761D01*
X135654681Y-85932999D01*
X135649767Y-85895676D01*
X135634043Y-85776238D01*
X135634043Y-85776237D01*
X135573535Y-85630158D01*
X135477281Y-85504717D01*
X135447677Y-85482001D01*
X140161318Y-85482001D01*
X140181955Y-85638760D01*
X140181956Y-85638762D01*
X140238900Y-85776238D01*
X140242464Y-85784841D01*
X140338718Y-85910282D01*
X140464159Y-86006536D01*
X140610238Y-86067044D01*
X140688619Y-86077363D01*
X140766999Y-86087682D01*
X140767000Y-86087682D01*
X140767001Y-86087682D01*
X140819254Y-86080802D01*
X140923762Y-86067044D01*
X141069841Y-86006536D01*
X141195282Y-85910282D01*
X141291536Y-85784841D01*
X141319637Y-85717000D01*
X161093318Y-85717000D01*
X161113955Y-85873759D01*
X161113956Y-85873761D01*
X161129083Y-85910282D01*
X161174464Y-86019840D01*
X161270718Y-86145281D01*
X161396159Y-86241535D01*
X161542238Y-86302043D01*
X161620619Y-86312362D01*
X161698999Y-86322681D01*
X161699000Y-86322681D01*
X161699001Y-86322681D01*
X161751254Y-86315801D01*
X161855762Y-86302043D01*
X162001841Y-86241535D01*
X162127282Y-86145281D01*
X162223536Y-86019840D01*
X162284044Y-85873761D01*
X162304682Y-85716999D01*
X162303866Y-85710803D01*
X162314631Y-85641769D01*
X162361009Y-85589513D01*
X162428278Y-85570626D01*
X162488233Y-85589006D01*
X162489119Y-85587472D01*
X162496157Y-85591534D01*
X162496159Y-85591536D01*
X162642238Y-85652044D01*
X162720619Y-85662363D01*
X162798999Y-85672682D01*
X162799000Y-85672682D01*
X162799001Y-85672682D01*
X162851254Y-85665802D01*
X162955762Y-85652044D01*
X163101841Y-85591536D01*
X163101845Y-85591532D01*
X163108881Y-85587472D01*
X163110636Y-85590512D01*
X163160614Y-85571070D01*
X163229088Y-85584963D01*
X163279181Y-85633671D01*
X163294989Y-85701729D01*
X163294133Y-85710798D01*
X163293317Y-85716998D01*
X163293317Y-85717000D01*
X163313954Y-85873759D01*
X163313955Y-85873761D01*
X163329082Y-85910282D01*
X163374463Y-86019840D01*
X163470717Y-86145281D01*
X163596158Y-86241535D01*
X163742237Y-86302043D01*
X163820618Y-86312362D01*
X163898998Y-86322681D01*
X163898999Y-86322681D01*
X163899000Y-86322681D01*
X163951253Y-86315801D01*
X164055761Y-86302043D01*
X164201840Y-86241535D01*
X164327281Y-86145281D01*
X164423535Y-86019840D01*
X164484043Y-85873761D01*
X164504681Y-85716999D01*
X164496129Y-85652043D01*
X164487830Y-85589006D01*
X164484043Y-85560237D01*
X164423535Y-85414158D01*
X164327281Y-85288717D01*
X164201840Y-85192463D01*
X164201835Y-85192461D01*
X164175518Y-85181560D01*
X164121115Y-85137719D01*
X164099050Y-85071424D01*
X164116329Y-85003725D01*
X164167467Y-84956115D01*
X164175504Y-84952444D01*
X164201840Y-84941536D01*
X164327281Y-84845282D01*
X164423535Y-84719841D01*
X164484043Y-84573762D01*
X164504681Y-84417000D01*
X164484043Y-84260238D01*
X164423535Y-84114159D01*
X164327281Y-83988718D01*
X164201840Y-83892464D01*
X164150405Y-83871159D01*
X164055761Y-83831956D01*
X164055759Y-83831955D01*
X163899000Y-83811318D01*
X163898998Y-83811318D01*
X163742238Y-83831955D01*
X163742236Y-83831956D01*
X163596159Y-83892463D01*
X163470717Y-83988718D01*
X163374462Y-84114160D01*
X163313955Y-84260237D01*
X163313954Y-84260239D01*
X163293317Y-84416998D01*
X163293317Y-84417000D01*
X163294133Y-84423201D01*
X163283364Y-84492235D01*
X163236982Y-84544489D01*
X163169713Y-84563372D01*
X163109768Y-84544991D01*
X163108881Y-84546528D01*
X163101843Y-84542465D01*
X163041193Y-84517343D01*
X162955762Y-84481956D01*
X162955760Y-84481955D01*
X162799001Y-84461318D01*
X162798999Y-84461318D01*
X162642239Y-84481955D01*
X162642237Y-84481956D01*
X162496156Y-84542465D01*
X162489119Y-84546528D01*
X162487392Y-84543536D01*
X162437005Y-84562962D01*
X162368574Y-84548859D01*
X162318630Y-84499997D01*
X162303031Y-84431891D01*
X162303864Y-84423209D01*
X162304682Y-84417000D01*
X162284044Y-84260238D01*
X162223536Y-84114159D01*
X162127282Y-83988718D01*
X162001841Y-83892464D01*
X161950406Y-83871159D01*
X161855762Y-83831956D01*
X161855760Y-83831955D01*
X161699001Y-83811318D01*
X161698999Y-83811318D01*
X161542239Y-83831955D01*
X161542237Y-83831956D01*
X161396160Y-83892463D01*
X161270718Y-83988718D01*
X161174463Y-84114160D01*
X161113956Y-84260237D01*
X161113955Y-84260239D01*
X161093318Y-84416998D01*
X161093318Y-84417001D01*
X161113955Y-84573760D01*
X161113956Y-84573762D01*
X161174464Y-84719841D01*
X161270718Y-84845282D01*
X161396159Y-84941536D01*
X161422481Y-84952439D01*
X161476882Y-84996278D01*
X161498948Y-85062572D01*
X161481669Y-85130271D01*
X161430533Y-85177882D01*
X161422481Y-85181559D01*
X161396162Y-85192461D01*
X161396159Y-85192462D01*
X161396159Y-85192463D01*
X161313413Y-85255956D01*
X161270718Y-85288717D01*
X161174463Y-85414159D01*
X161113956Y-85560236D01*
X161113955Y-85560238D01*
X161093318Y-85716997D01*
X161093318Y-85717000D01*
X141319637Y-85717000D01*
X141352044Y-85638762D01*
X141372682Y-85482000D01*
X141363750Y-85414158D01*
X141352044Y-85325239D01*
X141352044Y-85325238D01*
X141291536Y-85179159D01*
X141195282Y-85053718D01*
X141069841Y-84957464D01*
X141066584Y-84956115D01*
X140923762Y-84896956D01*
X140923760Y-84896955D01*
X140767001Y-84876318D01*
X140766999Y-84876318D01*
X140610239Y-84896955D01*
X140610237Y-84896956D01*
X140464160Y-84957463D01*
X140338718Y-85053718D01*
X140242463Y-85179160D01*
X140181956Y-85325237D01*
X140181955Y-85325239D01*
X140161318Y-85481998D01*
X140161318Y-85482001D01*
X135447677Y-85482001D01*
X135351840Y-85408463D01*
X135258598Y-85369841D01*
X135205761Y-85347955D01*
X135205759Y-85347954D01*
X135049000Y-85327317D01*
X135048998Y-85327317D01*
X134892238Y-85347954D01*
X134892236Y-85347955D01*
X134746159Y-85408462D01*
X134620717Y-85504717D01*
X134524462Y-85630159D01*
X134463955Y-85776236D01*
X134463954Y-85776238D01*
X134443317Y-85932997D01*
X134443317Y-85933000D01*
X129698570Y-85933000D01*
X129710682Y-85841000D01*
X129690044Y-85684238D01*
X129629536Y-85538159D01*
X129533282Y-85412718D01*
X129407841Y-85316464D01*
X129261762Y-85255956D01*
X129261760Y-85255955D01*
X129105001Y-85235318D01*
X129104999Y-85235318D01*
X128948239Y-85255955D01*
X128948237Y-85255956D01*
X128802160Y-85316463D01*
X128676718Y-85412718D01*
X128580463Y-85538160D01*
X128519956Y-85684237D01*
X128519955Y-85684239D01*
X128499318Y-85840998D01*
X128499318Y-85841001D01*
X120649042Y-85841001D01*
X123718148Y-84517343D01*
X130322863Y-84517343D01*
X130343500Y-84674102D01*
X130343501Y-84674104D01*
X130404009Y-84820183D01*
X130500263Y-84945624D01*
X130625704Y-85041878D01*
X130771783Y-85102386D01*
X130839621Y-85111317D01*
X130928544Y-85123024D01*
X130928545Y-85123024D01*
X130928546Y-85123024D01*
X130980799Y-85116144D01*
X131085307Y-85102386D01*
X131231386Y-85041878D01*
X131356827Y-84945624D01*
X131453081Y-84820183D01*
X131513589Y-84674104D01*
X131530322Y-84547001D01*
X131534227Y-84517343D01*
X131534227Y-84517340D01*
X131517494Y-84390239D01*
X131513589Y-84360580D01*
X131501751Y-84332001D01*
X134285318Y-84332001D01*
X134305955Y-84488760D01*
X134305956Y-84488762D01*
X134352977Y-84602282D01*
X134366464Y-84634841D01*
X134462718Y-84760282D01*
X134588159Y-84856536D01*
X134734238Y-84917044D01*
X134812619Y-84927363D01*
X134890999Y-84937682D01*
X134891000Y-84937682D01*
X134891001Y-84937682D01*
X134943254Y-84930802D01*
X135047762Y-84917044D01*
X135193841Y-84856536D01*
X135319282Y-84760282D01*
X135415536Y-84634841D01*
X135451921Y-84547001D01*
X145499318Y-84547001D01*
X145519955Y-84703760D01*
X145519956Y-84703762D01*
X145578575Y-84845282D01*
X145580464Y-84849841D01*
X145676718Y-84975282D01*
X145802159Y-85071536D01*
X145948238Y-85132044D01*
X146026619Y-85142363D01*
X146104999Y-85152682D01*
X146105000Y-85152682D01*
X146105001Y-85152682D01*
X146157254Y-85145802D01*
X146261762Y-85132044D01*
X146407841Y-85071536D01*
X146533282Y-84975282D01*
X146629536Y-84849841D01*
X146690044Y-84703762D01*
X146710682Y-84547001D01*
X146962318Y-84547001D01*
X146982955Y-84703760D01*
X146982956Y-84703762D01*
X147041575Y-84845282D01*
X147043464Y-84849841D01*
X147139718Y-84975282D01*
X147265159Y-85071536D01*
X147411238Y-85132044D01*
X147489619Y-85142363D01*
X147567999Y-85152682D01*
X147568000Y-85152682D01*
X147568001Y-85152682D01*
X147620254Y-85145802D01*
X147724762Y-85132044D01*
X147870841Y-85071536D01*
X147996282Y-84975282D01*
X148092536Y-84849841D01*
X148153044Y-84703762D01*
X148173682Y-84547000D01*
X148173351Y-84544489D01*
X148153044Y-84390239D01*
X148153044Y-84390238D01*
X148092536Y-84244159D01*
X148038702Y-84174001D01*
X148763818Y-84174001D01*
X148784455Y-84330760D01*
X148784456Y-84330762D01*
X148822745Y-84423201D01*
X148844964Y-84476841D01*
X148941218Y-84602282D01*
X149066659Y-84698536D01*
X149212738Y-84759044D01*
X149291119Y-84769363D01*
X149369499Y-84779682D01*
X149369500Y-84779682D01*
X149369501Y-84779682D01*
X149421754Y-84772802D01*
X149526262Y-84759044D01*
X149672341Y-84698536D01*
X149797782Y-84602282D01*
X149894036Y-84476841D01*
X149954544Y-84330762D01*
X149954544Y-84330761D01*
X149954939Y-84329808D01*
X149998780Y-84275404D01*
X150065074Y-84253339D01*
X150132773Y-84270618D01*
X150180384Y-84321755D01*
X150184061Y-84329808D01*
X150244962Y-84476838D01*
X150244963Y-84476839D01*
X150244964Y-84476841D01*
X150341218Y-84602282D01*
X150466659Y-84698536D01*
X150612738Y-84759044D01*
X150691119Y-84769363D01*
X150769499Y-84779682D01*
X150769500Y-84779682D01*
X150769501Y-84779682D01*
X150821754Y-84772802D01*
X150926262Y-84759044D01*
X151072341Y-84698536D01*
X151197782Y-84602282D01*
X151294036Y-84476841D01*
X151354544Y-84330762D01*
X151375182Y-84174000D01*
X151363999Y-84089060D01*
X151361423Y-84069492D01*
X151354544Y-84017238D01*
X151294036Y-83871159D01*
X151197782Y-83745718D01*
X151072341Y-83649464D01*
X150926262Y-83588956D01*
X150926260Y-83588955D01*
X150769501Y-83568318D01*
X150769499Y-83568318D01*
X150612739Y-83588955D01*
X150612737Y-83588956D01*
X150466660Y-83649463D01*
X150341218Y-83745718D01*
X150244963Y-83871160D01*
X150197150Y-83986590D01*
X150184457Y-84017237D01*
X150184061Y-84018192D01*
X150140220Y-84072595D01*
X150073926Y-84094660D01*
X150006227Y-84077381D01*
X149958616Y-84026244D01*
X149954939Y-84018192D01*
X149954544Y-84017238D01*
X149894036Y-83871159D01*
X149797782Y-83745718D01*
X149672341Y-83649464D01*
X149526262Y-83588956D01*
X149526260Y-83588955D01*
X149369501Y-83568318D01*
X149369499Y-83568318D01*
X149212739Y-83588955D01*
X149212737Y-83588956D01*
X149066660Y-83649463D01*
X148941218Y-83745718D01*
X148844963Y-83871160D01*
X148784456Y-84017237D01*
X148784455Y-84017239D01*
X148763818Y-84173998D01*
X148763818Y-84174001D01*
X148038702Y-84174001D01*
X147996282Y-84118718D01*
X147870841Y-84022464D01*
X147860527Y-84018192D01*
X147724762Y-83961956D01*
X147724760Y-83961955D01*
X147568001Y-83941318D01*
X147567999Y-83941318D01*
X147411239Y-83961955D01*
X147411237Y-83961956D01*
X147265160Y-84022463D01*
X147139718Y-84118718D01*
X147043463Y-84244160D01*
X146982956Y-84390237D01*
X146982955Y-84390239D01*
X146962318Y-84546998D01*
X146962318Y-84547001D01*
X146710682Y-84547001D01*
X146710682Y-84547000D01*
X146710351Y-84544489D01*
X146690044Y-84390239D01*
X146690044Y-84390238D01*
X146629536Y-84244159D01*
X146533282Y-84118718D01*
X146407841Y-84022464D01*
X146397527Y-84018192D01*
X146261762Y-83961956D01*
X146261760Y-83961955D01*
X146105001Y-83941318D01*
X146104999Y-83941318D01*
X145948239Y-83961955D01*
X145948237Y-83961956D01*
X145802160Y-84022463D01*
X145676718Y-84118718D01*
X145580463Y-84244160D01*
X145519956Y-84390237D01*
X145519955Y-84390239D01*
X145499318Y-84546998D01*
X145499318Y-84547001D01*
X135451921Y-84547001D01*
X135476044Y-84488762D01*
X135496682Y-84332000D01*
X135496393Y-84329808D01*
X135476044Y-84175239D01*
X135476044Y-84175238D01*
X135415536Y-84029159D01*
X135319282Y-83903718D01*
X135193841Y-83807464D01*
X135091408Y-83765035D01*
X135047762Y-83746956D01*
X135047760Y-83746955D01*
X134891001Y-83726318D01*
X134890999Y-83726318D01*
X134734239Y-83746955D01*
X134734237Y-83746956D01*
X134588160Y-83807463D01*
X134462718Y-83903718D01*
X134366463Y-84029160D01*
X134305956Y-84175237D01*
X134305955Y-84175239D01*
X134285318Y-84331998D01*
X134285318Y-84332001D01*
X131501751Y-84332001D01*
X131453081Y-84214501D01*
X131356827Y-84089060D01*
X131231386Y-83992806D01*
X131085307Y-83932298D01*
X131085305Y-83932297D01*
X130928546Y-83911660D01*
X130928544Y-83911660D01*
X130771784Y-83932297D01*
X130771782Y-83932298D01*
X130625705Y-83992805D01*
X130500263Y-84089060D01*
X130404008Y-84214502D01*
X130343501Y-84360579D01*
X130343500Y-84360581D01*
X130322863Y-84517340D01*
X130322863Y-84517343D01*
X123718148Y-84517343D01*
X126871599Y-83157308D01*
X126940950Y-83148835D01*
X127003876Y-83179202D01*
X127040395Y-83238768D01*
X127041537Y-83244471D01*
X127042955Y-83249762D01*
X127103463Y-83395841D01*
X127199717Y-83521282D01*
X127325158Y-83617536D01*
X127471237Y-83678044D01*
X127549618Y-83688363D01*
X127627998Y-83698682D01*
X127627999Y-83698682D01*
X127628000Y-83698682D01*
X127680253Y-83691802D01*
X127784761Y-83678044D01*
X127930840Y-83617536D01*
X128056281Y-83521282D01*
X128152535Y-83395841D01*
X128213043Y-83249762D01*
X128233512Y-83094281D01*
X128233681Y-83093001D01*
X128233681Y-83092998D01*
X128213043Y-82936239D01*
X128213041Y-82936234D01*
X128185587Y-82869952D01*
X128178118Y-82800483D01*
X128209394Y-82738004D01*
X128269483Y-82702352D01*
X128300148Y-82698500D01*
X129176702Y-82698500D01*
X129176715Y-82698500D01*
X129190159Y-82698060D01*
X129206342Y-82696999D01*
X129206360Y-82696997D01*
X129206363Y-82696997D01*
X129209425Y-82696695D01*
X129215832Y-82696063D01*
X129240156Y-82696063D01*
X129249658Y-82696999D01*
X129265842Y-82698060D01*
X129279285Y-82698500D01*
X131185529Y-82698500D01*
X131252568Y-82718185D01*
X131298323Y-82770989D01*
X131308267Y-82840147D01*
X131283905Y-82897986D01*
X131253464Y-82937656D01*
X131192956Y-83083736D01*
X131192955Y-83083738D01*
X131172318Y-83240497D01*
X131172318Y-83240500D01*
X131192955Y-83397259D01*
X131192956Y-83397261D01*
X131253464Y-83543340D01*
X131349718Y-83668781D01*
X131475159Y-83765035D01*
X131621238Y-83825543D01*
X131669950Y-83831956D01*
X131777999Y-83846181D01*
X131778000Y-83846181D01*
X131778001Y-83846181D01*
X131830254Y-83839301D01*
X131934762Y-83825543D01*
X132080841Y-83765035D01*
X132206282Y-83668781D01*
X132302536Y-83543340D01*
X132363044Y-83397261D01*
X132383682Y-83240499D01*
X132363044Y-83083737D01*
X132302536Y-82937658D01*
X132302535Y-82937657D01*
X132302535Y-82937656D01*
X132272095Y-82897986D01*
X132246901Y-82832817D01*
X132260939Y-82764372D01*
X132309753Y-82714383D01*
X132370471Y-82698500D01*
X134246991Y-82698500D01*
X134247000Y-82698500D01*
X134290684Y-82693803D01*
X134319875Y-82687452D01*
X134342174Y-82682602D01*
X134342190Y-82682598D01*
X134342195Y-82682597D01*
X134352373Y-82680110D01*
X134378852Y-82666000D01*
X137674318Y-82666000D01*
X137694955Y-82822759D01*
X137694956Y-82822761D01*
X137755464Y-82968840D01*
X137851718Y-83094281D01*
X137977159Y-83190535D01*
X138123238Y-83251043D01*
X138201619Y-83261362D01*
X138279999Y-83271681D01*
X138280000Y-83271681D01*
X138280001Y-83271681D01*
X138332254Y-83264801D01*
X138436762Y-83251043D01*
X138582841Y-83190535D01*
X138708282Y-83094281D01*
X138804536Y-82968840D01*
X138865044Y-82822761D01*
X138885682Y-82665999D01*
X138881877Y-82637100D01*
X138865044Y-82509238D01*
X138865044Y-82509237D01*
X138804536Y-82363158D01*
X138708282Y-82237717D01*
X138582841Y-82141463D01*
X138523888Y-82117044D01*
X138436762Y-82080955D01*
X138436760Y-82080954D01*
X138280001Y-82060317D01*
X138279999Y-82060317D01*
X138123239Y-82080954D01*
X138123237Y-82080955D01*
X137977160Y-82141462D01*
X137851718Y-82237717D01*
X137755463Y-82363159D01*
X137694956Y-82509236D01*
X137694955Y-82509238D01*
X137674318Y-82665997D01*
X137674318Y-82666000D01*
X134378852Y-82666000D01*
X134433085Y-82637100D01*
X134485889Y-82591345D01*
X134503843Y-82573754D01*
X134548490Y-82493937D01*
X134568175Y-82426898D01*
X134576500Y-82369000D01*
X134576500Y-80889001D01*
X136383318Y-80889001D01*
X136403955Y-81045760D01*
X136403956Y-81045762D01*
X136462971Y-81188238D01*
X136464464Y-81191841D01*
X136560718Y-81317282D01*
X136686159Y-81413536D01*
X136832238Y-81474044D01*
X136910619Y-81484363D01*
X136988999Y-81494682D01*
X136989000Y-81494682D01*
X136989001Y-81494682D01*
X137041254Y-81487802D01*
X137145762Y-81474044D01*
X137291841Y-81413536D01*
X137417282Y-81317282D01*
X137513536Y-81191841D01*
X137574044Y-81045762D01*
X137594682Y-80889000D01*
X137590601Y-80858001D01*
X137893318Y-80858001D01*
X137913955Y-81014760D01*
X137913956Y-81014762D01*
X137974464Y-81160841D01*
X138070718Y-81286282D01*
X138196159Y-81382536D01*
X138342238Y-81443044D01*
X138420619Y-81453363D01*
X138498999Y-81463682D01*
X138499000Y-81463682D01*
X138499001Y-81463682D01*
X138551254Y-81456802D01*
X138655762Y-81443044D01*
X138801841Y-81382536D01*
X138927282Y-81286282D01*
X138927286Y-81286277D01*
X138932158Y-81281406D01*
X138993481Y-81247921D01*
X139063173Y-81252905D01*
X139095323Y-81270710D01*
X139115617Y-81286282D01*
X139197417Y-81349050D01*
X139197418Y-81349050D01*
X139197419Y-81349051D01*
X139343498Y-81409559D01*
X139421879Y-81419878D01*
X139500259Y-81430197D01*
X139500260Y-81430197D01*
X139500261Y-81430197D01*
X139552514Y-81423317D01*
X139657022Y-81409559D01*
X139803101Y-81349051D01*
X139808379Y-81345001D01*
X142918318Y-81345001D01*
X142938955Y-81501760D01*
X142938956Y-81501762D01*
X142999464Y-81647841D01*
X143095718Y-81773282D01*
X143221159Y-81869536D01*
X143367238Y-81930044D01*
X143445619Y-81940363D01*
X143523999Y-81950682D01*
X143524000Y-81950682D01*
X143524001Y-81950682D01*
X143576254Y-81943802D01*
X143680762Y-81930044D01*
X143826841Y-81869536D01*
X143832752Y-81865000D01*
X160893540Y-81865000D01*
X160913326Y-82053256D01*
X160913327Y-82053259D01*
X160971818Y-82233277D01*
X160971821Y-82233284D01*
X161066467Y-82397216D01*
X161168538Y-82510577D01*
X161193129Y-82537888D01*
X161346265Y-82649148D01*
X161346270Y-82649151D01*
X161519192Y-82726142D01*
X161519197Y-82726144D01*
X161704354Y-82765500D01*
X161704355Y-82765500D01*
X161893644Y-82765500D01*
X161893646Y-82765500D01*
X162078803Y-82726144D01*
X162251730Y-82649151D01*
X162404871Y-82537888D01*
X162531533Y-82397216D01*
X162626179Y-82233284D01*
X162684674Y-82053256D01*
X162704460Y-81865000D01*
X162684674Y-81676744D01*
X162626179Y-81496716D01*
X162531533Y-81332784D01*
X162404871Y-81192112D01*
X162404498Y-81191841D01*
X162251734Y-81080851D01*
X162251729Y-81080848D01*
X162078807Y-81003857D01*
X162078802Y-81003855D01*
X161933001Y-80972865D01*
X161893646Y-80964500D01*
X161704354Y-80964500D01*
X161671897Y-80971398D01*
X161519197Y-81003855D01*
X161519192Y-81003857D01*
X161346270Y-81080848D01*
X161346265Y-81080851D01*
X161193129Y-81192111D01*
X161066466Y-81332785D01*
X160971821Y-81496715D01*
X160971818Y-81496722D01*
X160922717Y-81647841D01*
X160913326Y-81676744D01*
X160893540Y-81865000D01*
X143832752Y-81865000D01*
X143952282Y-81773282D01*
X144048536Y-81647841D01*
X144109044Y-81501762D01*
X144129682Y-81345000D01*
X144109044Y-81188238D01*
X144048536Y-81042159D01*
X143952282Y-80916718D01*
X143826841Y-80820464D01*
X143680762Y-80759956D01*
X143680760Y-80759955D01*
X143524001Y-80739318D01*
X143523999Y-80739318D01*
X143367239Y-80759955D01*
X143367237Y-80759956D01*
X143221160Y-80820463D01*
X143095718Y-80916718D01*
X142999463Y-81042160D01*
X142938956Y-81188237D01*
X142938955Y-81188239D01*
X142918318Y-81344998D01*
X142918318Y-81345001D01*
X139808379Y-81345001D01*
X139928542Y-81252797D01*
X140024796Y-81127356D01*
X140085304Y-80981277D01*
X140105942Y-80824515D01*
X140085304Y-80667753D01*
X140024796Y-80521674D01*
X139928542Y-80396233D01*
X139803101Y-80299979D01*
X139737859Y-80272955D01*
X139657022Y-80239471D01*
X139657020Y-80239470D01*
X139500261Y-80218833D01*
X139500259Y-80218833D01*
X139343499Y-80239470D01*
X139343497Y-80239471D01*
X139197420Y-80299978D01*
X139197419Y-80299979D01*
X139071978Y-80396233D01*
X139071976Y-80396234D01*
X139071971Y-80396239D01*
X139067098Y-80401112D01*
X139005773Y-80434594D01*
X138936082Y-80429607D01*
X138903935Y-80411803D01*
X138801842Y-80333464D01*
X138655762Y-80272956D01*
X138655760Y-80272955D01*
X138499001Y-80252318D01*
X138498999Y-80252318D01*
X138342239Y-80272955D01*
X138342237Y-80272956D01*
X138196160Y-80333463D01*
X138070718Y-80429718D01*
X137974463Y-80555160D01*
X137913956Y-80701237D01*
X137913955Y-80701239D01*
X137893318Y-80857998D01*
X137893318Y-80858001D01*
X137590601Y-80858001D01*
X137586192Y-80824515D01*
X137574044Y-80732239D01*
X137574044Y-80732238D01*
X137513536Y-80586159D01*
X137417282Y-80460718D01*
X137291841Y-80364464D01*
X137239672Y-80342855D01*
X137145762Y-80303956D01*
X137145760Y-80303955D01*
X136989001Y-80283318D01*
X136988999Y-80283318D01*
X136832239Y-80303955D01*
X136832237Y-80303956D01*
X136686160Y-80364463D01*
X136560718Y-80460718D01*
X136464463Y-80586160D01*
X136403956Y-80732237D01*
X136403955Y-80732239D01*
X136383318Y-80888998D01*
X136383318Y-80889001D01*
X134576500Y-80889001D01*
X134576500Y-78865001D01*
X149843518Y-78865001D01*
X149863422Y-79143299D01*
X149922727Y-79415916D01*
X149922729Y-79415923D01*
X149983266Y-79578230D01*
X150020231Y-79677338D01*
X150020233Y-79677342D01*
X150153940Y-79922207D01*
X150153945Y-79922215D01*
X150321138Y-80145560D01*
X150321154Y-80145578D01*
X150518421Y-80342845D01*
X150518439Y-80342861D01*
X150741784Y-80510054D01*
X150741792Y-80510059D01*
X150986657Y-80643766D01*
X150986661Y-80643768D01*
X150986663Y-80643769D01*
X151248077Y-80741271D01*
X151384391Y-80770924D01*
X151520700Y-80800577D01*
X151520702Y-80800577D01*
X151520706Y-80800578D01*
X151768014Y-80818265D01*
X151798999Y-80820482D01*
X151799000Y-80820482D01*
X151799001Y-80820482D01*
X151826881Y-80818487D01*
X152077294Y-80800578D01*
X152349923Y-80741271D01*
X152611337Y-80643769D01*
X152856213Y-80510056D01*
X153079568Y-80342855D01*
X153276855Y-80145568D01*
X153444056Y-79922213D01*
X153577769Y-79677337D01*
X153675271Y-79415923D01*
X153734578Y-79143294D01*
X153754482Y-78865000D01*
X153734578Y-78586706D01*
X153703969Y-78446001D01*
X162539318Y-78446001D01*
X162559955Y-78602760D01*
X162559956Y-78602762D01*
X162620464Y-78748841D01*
X162716718Y-78874282D01*
X162842159Y-78970536D01*
X162988238Y-79031044D01*
X163066619Y-79041363D01*
X163144999Y-79051682D01*
X163145000Y-79051682D01*
X163145001Y-79051682D01*
X163197254Y-79044802D01*
X163301762Y-79031044D01*
X163447841Y-78970536D01*
X163573282Y-78874282D01*
X163669536Y-78748841D01*
X163730044Y-78602762D01*
X163750682Y-78446000D01*
X163730044Y-78289238D01*
X163669536Y-78143159D01*
X163573282Y-78017718D01*
X163447841Y-77921464D01*
X163430497Y-77914280D01*
X163301762Y-77860956D01*
X163301760Y-77860955D01*
X163145001Y-77840318D01*
X163144999Y-77840318D01*
X162988239Y-77860955D01*
X162988237Y-77860956D01*
X162842160Y-77921463D01*
X162716718Y-78017718D01*
X162620463Y-78143160D01*
X162559956Y-78289237D01*
X162559955Y-78289239D01*
X162539318Y-78445998D01*
X162539318Y-78446001D01*
X153703969Y-78446001D01*
X153675271Y-78314077D01*
X153577769Y-78052663D01*
X153573900Y-78045578D01*
X153444059Y-77807792D01*
X153444054Y-77807784D01*
X153276861Y-77584439D01*
X153276845Y-77584421D01*
X153079578Y-77387154D01*
X153079560Y-77387138D01*
X152856215Y-77219945D01*
X152856207Y-77219940D01*
X152611342Y-77086233D01*
X152611338Y-77086231D01*
X152512230Y-77049266D01*
X152349923Y-76988729D01*
X152349919Y-76988728D01*
X152349916Y-76988727D01*
X152077299Y-76929422D01*
X151799001Y-76909518D01*
X151798999Y-76909518D01*
X151520700Y-76929422D01*
X151248083Y-76988727D01*
X151248078Y-76988728D01*
X151248077Y-76988729D01*
X151184875Y-77012301D01*
X150986661Y-77086231D01*
X150986657Y-77086233D01*
X150741792Y-77219940D01*
X150741784Y-77219945D01*
X150518439Y-77387138D01*
X150518421Y-77387154D01*
X150321154Y-77584421D01*
X150321138Y-77584439D01*
X150153945Y-77807784D01*
X150153940Y-77807792D01*
X150020233Y-78052657D01*
X150020231Y-78052661D01*
X149986477Y-78143160D01*
X149931994Y-78289238D01*
X149922727Y-78314083D01*
X149863422Y-78586700D01*
X149843518Y-78864998D01*
X149843518Y-78865001D01*
X134576500Y-78865001D01*
X134576500Y-78131572D01*
X134576500Y-78131545D01*
X134576350Y-78123730D01*
X134576350Y-78123715D01*
X134575987Y-78114228D01*
X134562805Y-78049273D01*
X134562802Y-78049266D01*
X134562800Y-78049258D01*
X134538056Y-77983953D01*
X134538052Y-77983945D01*
X134538049Y-77983936D01*
X134527722Y-77961018D01*
X134468178Y-77891601D01*
X134468176Y-77891599D01*
X134468171Y-77891595D01*
X134412031Y-77850022D01*
X134412022Y-77850016D01*
X134360548Y-77822254D01*
X133444540Y-77485998D01*
X139314818Y-77485998D01*
X139318939Y-77517299D01*
X139320000Y-77533485D01*
X139320000Y-77565055D01*
X139328170Y-77595548D01*
X139331333Y-77611448D01*
X139335456Y-77642762D01*
X139347538Y-77671930D01*
X139352751Y-77687286D01*
X139360922Y-77717779D01*
X139360923Y-77717782D01*
X139376707Y-77745121D01*
X139383879Y-77759666D01*
X139395962Y-77788837D01*
X139395963Y-77788838D01*
X139415182Y-77813885D01*
X139424192Y-77827370D01*
X139439975Y-77854707D01*
X139439982Y-77854716D01*
X139462303Y-77877037D01*
X139472997Y-77889231D01*
X139492218Y-77914280D01*
X139517260Y-77933495D01*
X139517265Y-77933499D01*
X139529460Y-77944194D01*
X139551784Y-77966518D01*
X139551785Y-77966519D01*
X139551787Y-77966520D01*
X139579125Y-77982303D01*
X139592604Y-77991309D01*
X139617659Y-78010534D01*
X139644509Y-78021655D01*
X139646826Y-78022615D01*
X139661373Y-78029789D01*
X139688714Y-78045574D01*
X139688716Y-78045575D01*
X139719208Y-78053744D01*
X139734560Y-78058955D01*
X139763738Y-78071042D01*
X139795041Y-78075163D01*
X139810941Y-78078325D01*
X139841443Y-78086498D01*
X139873013Y-78086498D01*
X139889197Y-78087558D01*
X139920500Y-78091680D01*
X139951802Y-78087558D01*
X139967987Y-78086498D01*
X139999557Y-78086498D01*
X141443829Y-78086498D01*
X141443845Y-78086499D01*
X141451441Y-78086499D01*
X141451442Y-78086499D01*
X141483012Y-78086499D01*
X141499196Y-78087559D01*
X141530499Y-78091681D01*
X141561801Y-78087559D01*
X141577986Y-78086499D01*
X141609555Y-78086499D01*
X141609556Y-78086499D01*
X141640054Y-78078326D01*
X141655938Y-78075166D01*
X141687261Y-78071043D01*
X141716429Y-78058960D01*
X141731792Y-78053746D01*
X141751357Y-78048503D01*
X141762283Y-78045576D01*
X141789629Y-78029786D01*
X141804165Y-78022618D01*
X141833340Y-78010535D01*
X141858394Y-77991309D01*
X141871867Y-77982307D01*
X141899215Y-77966519D01*
X141921539Y-77944193D01*
X141933733Y-77933500D01*
X141958781Y-77914281D01*
X141978002Y-77889231D01*
X141988695Y-77877038D01*
X141988696Y-77877037D01*
X142011019Y-77854715D01*
X142026807Y-77827367D01*
X142035809Y-77813894D01*
X142055035Y-77788840D01*
X142067118Y-77759665D01*
X142074286Y-77745129D01*
X142090076Y-77717783D01*
X142093003Y-77706857D01*
X142098246Y-77687292D01*
X142103461Y-77671927D01*
X142115543Y-77642761D01*
X142119666Y-77611438D01*
X142122828Y-77595548D01*
X142125805Y-77584439D01*
X142130999Y-77565056D01*
X142130999Y-77533485D01*
X142132060Y-77517300D01*
X142136181Y-77485999D01*
X142136181Y-77485997D01*
X142132060Y-77454696D01*
X142130999Y-77438511D01*
X142130999Y-76383486D01*
X142132060Y-76367300D01*
X142136181Y-76335999D01*
X142136181Y-76335997D01*
X142132060Y-76304696D01*
X142130999Y-76288511D01*
X142130999Y-75233487D01*
X142132060Y-75217301D01*
X142136181Y-75186000D01*
X142136181Y-75185998D01*
X142132060Y-75154697D01*
X142130999Y-75138512D01*
X142130999Y-75106945D01*
X142130999Y-75106943D01*
X142122826Y-75076441D01*
X142119663Y-75060536D01*
X142115543Y-75029239D01*
X142115543Y-75029238D01*
X142103456Y-75000060D01*
X142098244Y-74984703D01*
X142090076Y-74954216D01*
X142090074Y-74954212D01*
X142074290Y-74926873D01*
X142067116Y-74912326D01*
X142066156Y-74910009D01*
X142055035Y-74883159D01*
X142035810Y-74858104D01*
X142026804Y-74844625D01*
X142011021Y-74817287D01*
X142011017Y-74817282D01*
X141988695Y-74794960D01*
X141978000Y-74782765D01*
X141958780Y-74757717D01*
X141933732Y-74738497D01*
X141921538Y-74727803D01*
X141899217Y-74705482D01*
X141899215Y-74705480D01*
X141899212Y-74705478D01*
X141899208Y-74705475D01*
X141871871Y-74689692D01*
X141858386Y-74680682D01*
X141833339Y-74661463D01*
X141833338Y-74661462D01*
X141804167Y-74649379D01*
X141789622Y-74642207D01*
X141762283Y-74626423D01*
X141762280Y-74626422D01*
X141731787Y-74618251D01*
X141716431Y-74613038D01*
X141687263Y-74600956D01*
X141655949Y-74596833D01*
X141640051Y-74593670D01*
X141609556Y-74585500D01*
X141577986Y-74585500D01*
X141561801Y-74584439D01*
X141530499Y-74580318D01*
X141499196Y-74584439D01*
X141483012Y-74585500D01*
X139967987Y-74585500D01*
X139951802Y-74584439D01*
X139920500Y-74580318D01*
X139889197Y-74584439D01*
X139873013Y-74585500D01*
X139841440Y-74585500D01*
X139810941Y-74593671D01*
X139795045Y-74596832D01*
X139763744Y-74600954D01*
X139763735Y-74600956D01*
X139734567Y-74613038D01*
X139719215Y-74618250D01*
X139688719Y-74626422D01*
X139688717Y-74626422D01*
X139688716Y-74626423D01*
X139688714Y-74626424D01*
X139688712Y-74626425D01*
X139661375Y-74642207D01*
X139646836Y-74649377D01*
X139617665Y-74661460D01*
X139617660Y-74661463D01*
X139592607Y-74680686D01*
X139579129Y-74689691D01*
X139551783Y-74705480D01*
X139529455Y-74727807D01*
X139517267Y-74738496D01*
X139492218Y-74757718D01*
X139472996Y-74782767D01*
X139462307Y-74794955D01*
X139439980Y-74817283D01*
X139424191Y-74844629D01*
X139415186Y-74858107D01*
X139395963Y-74883160D01*
X139395960Y-74883165D01*
X139383877Y-74912336D01*
X139376707Y-74926875D01*
X139360925Y-74954212D01*
X139360922Y-74954219D01*
X139352750Y-74984715D01*
X139347538Y-75000067D01*
X139335456Y-75029235D01*
X139335454Y-75029244D01*
X139331332Y-75060545D01*
X139328171Y-75076441D01*
X139320000Y-75106940D01*
X139320000Y-75138512D01*
X139318939Y-75154697D01*
X139314818Y-75185998D01*
X139314818Y-75186000D01*
X139318939Y-75217301D01*
X139320000Y-75233487D01*
X139320000Y-76288510D01*
X139318939Y-76304695D01*
X139314818Y-76335996D01*
X139314818Y-76335998D01*
X139318939Y-76367299D01*
X139320000Y-76383485D01*
X139320000Y-77438510D01*
X139318939Y-77454695D01*
X139314818Y-77485996D01*
X139314818Y-77485998D01*
X133444540Y-77485998D01*
X127999988Y-75487365D01*
X127965147Y-75477952D01*
X127965117Y-75477945D01*
X127945715Y-75474496D01*
X127934682Y-75471495D01*
X127934638Y-75471677D01*
X127927882Y-75470001D01*
X127901878Y-75466577D01*
X127896375Y-75465726D01*
X127894051Y-75465313D01*
X127891287Y-75465183D01*
X127793558Y-75452316D01*
X127774578Y-75448286D01*
X127762867Y-75444822D01*
X127762829Y-75444812D01*
X127741867Y-75439793D01*
X127741855Y-75439790D01*
X126816198Y-75269000D01*
X131179843Y-75269000D01*
X131198426Y-75457681D01*
X131207431Y-75487365D01*
X131253463Y-75639115D01*
X131253464Y-75639118D01*
X131253465Y-75639119D01*
X131253466Y-75639122D01*
X131342834Y-75806318D01*
X131342838Y-75806325D01*
X131463116Y-75952883D01*
X131609674Y-76073161D01*
X131609681Y-76073165D01*
X131776877Y-76162533D01*
X131776878Y-76162533D01*
X131776885Y-76162537D01*
X131958317Y-76217573D01*
X131958316Y-76217573D01*
X131975233Y-76219239D01*
X132147000Y-76236157D01*
X132335683Y-76217573D01*
X132517115Y-76162537D01*
X132684324Y-76073162D01*
X132830883Y-75952883D01*
X132951162Y-75806324D01*
X133040537Y-75639115D01*
X133095573Y-75457683D01*
X133114157Y-75269000D01*
X133095573Y-75080317D01*
X133040537Y-74898885D01*
X133040533Y-74898877D01*
X132951165Y-74731681D01*
X132951161Y-74731674D01*
X132830883Y-74585116D01*
X132684325Y-74464838D01*
X132684318Y-74464834D01*
X132517122Y-74375466D01*
X132517119Y-74375465D01*
X132517118Y-74375464D01*
X132517115Y-74375463D01*
X132335683Y-74320427D01*
X132335681Y-74320426D01*
X132335683Y-74320426D01*
X132147000Y-74301843D01*
X131958318Y-74320426D01*
X131851194Y-74352921D01*
X131776885Y-74375463D01*
X131776882Y-74375464D01*
X131776880Y-74375465D01*
X131776877Y-74375466D01*
X131609681Y-74464834D01*
X131609674Y-74464838D01*
X131463116Y-74585116D01*
X131342838Y-74731674D01*
X131342834Y-74731681D01*
X131253466Y-74898877D01*
X131253465Y-74898880D01*
X131253464Y-74898882D01*
X131253463Y-74898885D01*
X131236680Y-74954212D01*
X131198426Y-75080318D01*
X131179843Y-75269000D01*
X126816198Y-75269000D01*
X122572031Y-74485922D01*
X122572021Y-74485920D01*
X122572015Y-74485919D01*
X122572014Y-74485919D01*
X122549785Y-74483060D01*
X122549782Y-74483059D01*
X122549776Y-74483059D01*
X122543129Y-74482570D01*
X122477714Y-74458020D01*
X122435956Y-74402002D01*
X122429287Y-74375090D01*
X122429044Y-74373238D01*
X122368536Y-74227159D01*
X122272282Y-74101718D01*
X122146841Y-74005464D01*
X122000762Y-73944956D01*
X122000760Y-73944955D01*
X121844001Y-73924318D01*
X121843999Y-73924318D01*
X121687239Y-73944955D01*
X121687234Y-73944957D01*
X121671105Y-73951638D01*
X121601636Y-73959105D01*
X121539157Y-73927829D01*
X121518602Y-73902953D01*
X121510186Y-73889533D01*
X121510185Y-73889532D01*
X121510184Y-73889530D01*
X121489400Y-73865001D01*
X149843518Y-73865001D01*
X149863422Y-74143299D01*
X149922727Y-74415916D01*
X149922729Y-74415923D01*
X149950673Y-74490844D01*
X150020231Y-74677338D01*
X150020233Y-74677342D01*
X150153940Y-74922207D01*
X150153945Y-74922215D01*
X150321138Y-75145560D01*
X150321154Y-75145578D01*
X150518421Y-75342845D01*
X150518439Y-75342861D01*
X150741784Y-75510054D01*
X150741792Y-75510059D01*
X150986657Y-75643766D01*
X150986661Y-75643768D01*
X150986663Y-75643769D01*
X151248077Y-75741271D01*
X151384391Y-75770924D01*
X151520700Y-75800577D01*
X151520702Y-75800577D01*
X151520706Y-75800578D01*
X151768014Y-75818265D01*
X151798999Y-75820482D01*
X151799000Y-75820482D01*
X151799001Y-75820482D01*
X151826881Y-75818487D01*
X152077294Y-75800578D01*
X152349923Y-75741271D01*
X152611337Y-75643769D01*
X152856213Y-75510056D01*
X153079568Y-75342855D01*
X153276855Y-75145568D01*
X153444056Y-74922213D01*
X153577769Y-74677337D01*
X153675271Y-74415923D01*
X153734578Y-74143294D01*
X153754482Y-73865000D01*
X153734578Y-73586706D01*
X153675271Y-73314077D01*
X153577769Y-73052663D01*
X153521165Y-72949001D01*
X156889318Y-72949001D01*
X156909955Y-73105760D01*
X156909956Y-73105762D01*
X156949008Y-73200043D01*
X156970464Y-73251841D01*
X157066718Y-73377282D01*
X157192159Y-73473536D01*
X157338238Y-73534044D01*
X157416619Y-73544363D01*
X157494999Y-73554682D01*
X157495000Y-73554682D01*
X157495001Y-73554682D01*
X157547254Y-73547802D01*
X157651762Y-73534044D01*
X157797841Y-73473536D01*
X157923282Y-73377282D01*
X158019536Y-73251841D01*
X158080044Y-73105762D01*
X158100682Y-72949000D01*
X158080044Y-72792238D01*
X158019536Y-72646159D01*
X157995628Y-72615001D01*
X158328318Y-72615001D01*
X158348955Y-72771760D01*
X158348956Y-72771762D01*
X158409464Y-72917841D01*
X158505718Y-73043282D01*
X158631159Y-73139536D01*
X158777238Y-73200044D01*
X158855619Y-73210363D01*
X158933999Y-73220682D01*
X158934000Y-73220682D01*
X158934001Y-73220682D01*
X158986254Y-73213802D01*
X159090762Y-73200044D01*
X159236841Y-73139536D01*
X159362282Y-73043282D01*
X159458536Y-72917841D01*
X159519044Y-72771762D01*
X159539682Y-72615000D01*
X159519044Y-72458238D01*
X159458536Y-72312159D01*
X159362282Y-72186718D01*
X159236841Y-72090464D01*
X159226626Y-72086233D01*
X159090762Y-72029956D01*
X159090760Y-72029955D01*
X158934001Y-72009318D01*
X158933999Y-72009318D01*
X158777239Y-72029955D01*
X158777237Y-72029956D01*
X158631160Y-72090463D01*
X158505718Y-72186718D01*
X158409463Y-72312160D01*
X158348956Y-72458237D01*
X158348955Y-72458239D01*
X158328318Y-72614998D01*
X158328318Y-72615001D01*
X157995628Y-72615001D01*
X157923282Y-72520718D01*
X157797841Y-72424464D01*
X157720540Y-72392445D01*
X157651762Y-72363956D01*
X157651760Y-72363955D01*
X157495001Y-72343318D01*
X157494999Y-72343318D01*
X157338239Y-72363955D01*
X157338237Y-72363956D01*
X157192160Y-72424463D01*
X157066718Y-72520718D01*
X156970463Y-72646160D01*
X156909956Y-72792237D01*
X156909955Y-72792239D01*
X156889318Y-72948998D01*
X156889318Y-72949001D01*
X153521165Y-72949001D01*
X153521164Y-72949000D01*
X153444059Y-72807792D01*
X153444054Y-72807784D01*
X153276861Y-72584439D01*
X153276845Y-72584421D01*
X153079578Y-72387154D01*
X153079560Y-72387138D01*
X152856215Y-72219945D01*
X152856207Y-72219940D01*
X152611342Y-72086233D01*
X152611338Y-72086231D01*
X152460457Y-72029956D01*
X152349923Y-71988729D01*
X152349919Y-71988728D01*
X152349916Y-71988727D01*
X152077299Y-71929422D01*
X151799001Y-71909518D01*
X151798999Y-71909518D01*
X151520700Y-71929422D01*
X151248083Y-71988727D01*
X151248078Y-71988728D01*
X151248077Y-71988729D01*
X151192876Y-72009318D01*
X150986661Y-72086231D01*
X150986657Y-72086233D01*
X150741792Y-72219940D01*
X150741784Y-72219945D01*
X150518439Y-72387138D01*
X150518421Y-72387154D01*
X150321154Y-72584421D01*
X150321138Y-72584439D01*
X150153945Y-72807784D01*
X150153940Y-72807792D01*
X150020233Y-73052657D01*
X150020231Y-73052661D01*
X149922727Y-73314083D01*
X149863422Y-73586700D01*
X149843518Y-73864998D01*
X149843518Y-73865001D01*
X121489400Y-73865001D01*
X120404365Y-72584432D01*
X120295813Y-72456318D01*
X120267493Y-72392445D01*
X120278202Y-72323401D01*
X120309290Y-72284793D01*
X120308531Y-72284034D01*
X120314275Y-72278288D01*
X120314276Y-72278286D01*
X120314282Y-72278282D01*
X120410536Y-72152841D01*
X120471044Y-72006762D01*
X120491682Y-71850000D01*
X120471044Y-71693238D01*
X120410536Y-71547159D01*
X120314282Y-71421718D01*
X120188841Y-71325464D01*
X120042762Y-71264956D01*
X120042760Y-71264955D01*
X119886001Y-71244318D01*
X119885999Y-71244318D01*
X119729239Y-71264955D01*
X119729237Y-71264956D01*
X119583158Y-71325464D01*
X119528090Y-71367718D01*
X119462920Y-71392911D01*
X119394475Y-71378872D01*
X119357999Y-71349501D01*
X118599613Y-70454447D01*
X118587715Y-70427613D01*
X135430909Y-70427613D01*
X135450225Y-70623742D01*
X135507438Y-70812346D01*
X135600336Y-70986145D01*
X135600340Y-70986152D01*
X135725366Y-71138496D01*
X135877710Y-71263522D01*
X135877717Y-71263526D01*
X136051516Y-71356424D01*
X136051519Y-71356424D01*
X136051523Y-71356427D01*
X136240118Y-71413637D01*
X136436250Y-71432954D01*
X136632382Y-71413637D01*
X136820977Y-71356427D01*
X136994788Y-71263523D01*
X137147133Y-71138496D01*
X137272160Y-70986151D01*
X137365064Y-70812340D01*
X137422274Y-70623745D01*
X137441591Y-70427613D01*
X137422274Y-70231481D01*
X137365064Y-70042886D01*
X137365061Y-70042882D01*
X137365061Y-70042879D01*
X137272163Y-69869080D01*
X137272159Y-69869073D01*
X137147133Y-69716729D01*
X136994789Y-69591703D01*
X136994782Y-69591699D01*
X136892393Y-69536971D01*
X136842549Y-69488009D01*
X136827088Y-69419871D01*
X136850920Y-69354192D01*
X136892393Y-69318255D01*
X136970940Y-69276270D01*
X136994788Y-69263523D01*
X137147133Y-69138496D01*
X137272160Y-68986151D01*
X137345021Y-68849838D01*
X137365061Y-68812346D01*
X137365061Y-68812345D01*
X137365064Y-68812340D01*
X137422274Y-68623745D01*
X137441591Y-68427613D01*
X137422274Y-68231481D01*
X137365064Y-68042886D01*
X137365061Y-68042882D01*
X137365061Y-68042879D01*
X137272163Y-67869080D01*
X137272159Y-67869073D01*
X137147133Y-67716729D01*
X136994789Y-67591703D01*
X136994782Y-67591699D01*
X136820983Y-67498801D01*
X136820977Y-67498799D01*
X136632382Y-67441589D01*
X136632379Y-67441588D01*
X136436250Y-67422272D01*
X136240120Y-67441588D01*
X136051516Y-67498801D01*
X135877717Y-67591699D01*
X135877710Y-67591703D01*
X135725366Y-67716729D01*
X135600340Y-67869073D01*
X135600336Y-67869080D01*
X135507438Y-68042879D01*
X135450225Y-68231483D01*
X135430909Y-68427613D01*
X135450225Y-68623742D01*
X135450226Y-68623745D01*
X135505549Y-68806121D01*
X135507438Y-68812346D01*
X135600336Y-68986145D01*
X135600340Y-68986152D01*
X135725366Y-69138496D01*
X135877710Y-69263522D01*
X135877717Y-69263527D01*
X135980106Y-69318255D01*
X136029951Y-69367217D01*
X136045411Y-69435355D01*
X136021579Y-69501035D01*
X135980106Y-69536971D01*
X135877717Y-69591698D01*
X135877710Y-69591703D01*
X135725366Y-69716729D01*
X135600340Y-69869073D01*
X135600336Y-69869080D01*
X135507438Y-70042879D01*
X135450225Y-70231483D01*
X135430909Y-70427613D01*
X118587715Y-70427613D01*
X118571293Y-70390574D01*
X118582002Y-70321530D01*
X118609333Y-70283898D01*
X118652349Y-70243504D01*
X118844885Y-70010768D01*
X119006733Y-69755736D01*
X119135341Y-69482430D01*
X119228681Y-69195160D01*
X119285280Y-68898457D01*
X119285915Y-68888370D01*
X119304246Y-68597005D01*
X119304246Y-68596994D01*
X119285281Y-68295553D01*
X119285280Y-68295546D01*
X119285280Y-68295543D01*
X119228681Y-67998840D01*
X119135341Y-67711570D01*
X119006733Y-67438264D01*
X118888685Y-67252250D01*
X118844888Y-67183236D01*
X118778274Y-67102713D01*
X118652349Y-66950496D01*
X118641426Y-66940239D01*
X118611240Y-66911892D01*
X118575845Y-66851651D01*
X118578639Y-66781837D01*
X118618732Y-66724616D01*
X118683398Y-66698155D01*
X118696124Y-66697500D01*
X145747564Y-66697500D01*
X145814603Y-66717185D01*
G37*
G04 #@! TD.AperFunction*
G04 #@! TA.AperFunction,Conductor*
G36*
X115168915Y-66717185D02*
G01*
X115214670Y-66769989D01*
X115224614Y-66839147D01*
X115195589Y-66902703D01*
X115186760Y-66911892D01*
X115145652Y-66950494D01*
X114953111Y-67183236D01*
X114791268Y-67438261D01*
X114791265Y-67438267D01*
X114662661Y-67711563D01*
X114662659Y-67711568D01*
X114569320Y-67998835D01*
X114512719Y-68295546D01*
X114512718Y-68295553D01*
X114493754Y-68596994D01*
X114493754Y-68597005D01*
X114512718Y-68898446D01*
X114512719Y-68898453D01*
X114569320Y-69195164D01*
X114662659Y-69482431D01*
X114662661Y-69482436D01*
X114791265Y-69755732D01*
X114791268Y-69755738D01*
X114953111Y-70010763D01*
X114953114Y-70010767D01*
X114953115Y-70010768D01*
X114971063Y-70032464D01*
X115145652Y-70243505D01*
X115365836Y-70450272D01*
X115365846Y-70450280D01*
X115610193Y-70627808D01*
X115610198Y-70627810D01*
X115610205Y-70627816D01*
X115874896Y-70773332D01*
X115874901Y-70773334D01*
X115874903Y-70773335D01*
X115874904Y-70773336D01*
X116155734Y-70884524D01*
X116155737Y-70884525D01*
X116253259Y-70909564D01*
X116448302Y-70959642D01*
X116595039Y-70978179D01*
X116747963Y-70997499D01*
X116747969Y-70997499D01*
X116747973Y-70997500D01*
X116747975Y-70997500D01*
X117050025Y-70997500D01*
X117050027Y-70997500D01*
X117050032Y-70997499D01*
X117050036Y-70997499D01*
X117129591Y-70987448D01*
X117349698Y-70959642D01*
X117642262Y-70884525D01*
X117704607Y-70859841D01*
X117923095Y-70773336D01*
X117923099Y-70773333D01*
X117923104Y-70773332D01*
X118084699Y-70684493D01*
X118187792Y-70627818D01*
X118187799Y-70627813D01*
X118187806Y-70627808D01*
X118273803Y-70565327D01*
X118339608Y-70541847D01*
X118407662Y-70557672D01*
X118441294Y-70585485D01*
X119277971Y-71572939D01*
X119306291Y-71636812D01*
X119300143Y-71684608D01*
X119303059Y-71685390D01*
X119300956Y-71693237D01*
X119280318Y-71849998D01*
X119280318Y-71850001D01*
X119300955Y-72006760D01*
X119300956Y-72006762D01*
X119361464Y-72152841D01*
X119457718Y-72278282D01*
X119583159Y-72374536D01*
X119729238Y-72435044D01*
X119807619Y-72445363D01*
X119885999Y-72455682D01*
X119886000Y-72455682D01*
X119944820Y-72447938D01*
X120013854Y-72458703D01*
X120055611Y-72490717D01*
X121353397Y-74022376D01*
X121381717Y-74086249D01*
X121371008Y-74155293D01*
X121357168Y-74178021D01*
X121319464Y-74227158D01*
X121258956Y-74373237D01*
X121258955Y-74373239D01*
X121238318Y-74529998D01*
X121238318Y-74530001D01*
X121258955Y-74686760D01*
X121258956Y-74686762D01*
X121292383Y-74767463D01*
X121319464Y-74832841D01*
X121415718Y-74958282D01*
X121541159Y-75054536D01*
X121687238Y-75115044D01*
X121765619Y-75125363D01*
X121843999Y-75135682D01*
X121844000Y-75135682D01*
X121844001Y-75135682D01*
X121896254Y-75128802D01*
X122000762Y-75115044D01*
X122146841Y-75054536D01*
X122272282Y-74958282D01*
X122368536Y-74832841D01*
X122397674Y-74762494D01*
X122441512Y-74708096D01*
X122507806Y-74686030D01*
X122534727Y-74688008D01*
X127704566Y-75641879D01*
X127729512Y-75649258D01*
X127736238Y-75652044D01*
X127901058Y-75673743D01*
X127900860Y-75675245D01*
X127929168Y-75680277D01*
X131101596Y-76844839D01*
X133858739Y-77856955D01*
X134289731Y-78015167D01*
X134345881Y-78056748D01*
X134370637Y-78122085D01*
X134371000Y-78131572D01*
X134371000Y-82369000D01*
X134351315Y-82436039D01*
X134298511Y-82481794D01*
X134247000Y-82493000D01*
X129279285Y-82493000D01*
X129263101Y-82491939D01*
X129228000Y-82487318D01*
X129192898Y-82491939D01*
X129176715Y-82493000D01*
X127892998Y-82493000D01*
X127869703Y-82503047D01*
X127800349Y-82511519D01*
X127788514Y-82508961D01*
X127784764Y-82507956D01*
X127628000Y-82487318D01*
X127627998Y-82487318D01*
X127471238Y-82507955D01*
X127471236Y-82507956D01*
X127325159Y-82568463D01*
X127199715Y-82664719D01*
X127103463Y-82790157D01*
X127100850Y-82796467D01*
X127057005Y-82850867D01*
X127035399Y-82862868D01*
X120557262Y-85656787D01*
X120487908Y-85665261D01*
X120424982Y-85634894D01*
X120409783Y-85618416D01*
X120333282Y-85518718D01*
X120207841Y-85422464D01*
X120061762Y-85361956D01*
X120061760Y-85361955D01*
X119905001Y-85341318D01*
X119904999Y-85341318D01*
X119748239Y-85361955D01*
X119748237Y-85361956D01*
X119602160Y-85422463D01*
X119476718Y-85518718D01*
X119380463Y-85644160D01*
X119319956Y-85790237D01*
X119319955Y-85790239D01*
X119299318Y-85946998D01*
X119299318Y-85947001D01*
X119319955Y-86103760D01*
X119319957Y-86103765D01*
X119380461Y-86249836D01*
X119382641Y-86253611D01*
X119383512Y-86257202D01*
X119383574Y-86257351D01*
X119383550Y-86257360D01*
X119399118Y-86321510D01*
X119376270Y-86387538D01*
X119356750Y-86409080D01*
X116061339Y-89282430D01*
X115997873Y-89311651D01*
X115928684Y-89301921D01*
X115904365Y-89287347D01*
X115832840Y-89232464D01*
X115772482Y-89207463D01*
X115686761Y-89171956D01*
X115686759Y-89171955D01*
X115530000Y-89151318D01*
X115529998Y-89151318D01*
X115373238Y-89171955D01*
X115373236Y-89171956D01*
X115227159Y-89232463D01*
X115101717Y-89328718D01*
X115005462Y-89454160D01*
X114944955Y-89600237D01*
X114944954Y-89600239D01*
X114924317Y-89756998D01*
X114924317Y-89757001D01*
X114944954Y-89913760D01*
X114944955Y-89913762D01*
X115005463Y-90059841D01*
X115101717Y-90185282D01*
X115227158Y-90281536D01*
X115373237Y-90342044D01*
X115432185Y-90349804D01*
X115496081Y-90378070D01*
X115534553Y-90436394D01*
X115540000Y-90472743D01*
X115540000Y-94452500D01*
X115520315Y-94519539D01*
X115467511Y-94565294D01*
X115416000Y-94576500D01*
X111271147Y-94576500D01*
X111204108Y-94556815D01*
X111158353Y-94504011D01*
X111148409Y-94434853D01*
X111156586Y-94405047D01*
X111184043Y-94338761D01*
X111201206Y-94208398D01*
X111204681Y-94182000D01*
X111204681Y-94181997D01*
X111184043Y-94025238D01*
X111184043Y-94025237D01*
X111123535Y-93879158D01*
X111027281Y-93753717D01*
X110901840Y-93657463D01*
X110755761Y-93596955D01*
X110755759Y-93596954D01*
X110599000Y-93576317D01*
X110598998Y-93576317D01*
X110442238Y-93596954D01*
X110442236Y-93596955D01*
X110296159Y-93657462D01*
X110233437Y-93705590D01*
X110197637Y-93733061D01*
X110170716Y-93753718D01*
X110147374Y-93784138D01*
X110090945Y-93825340D01*
X110021199Y-93829494D01*
X109960279Y-93795280D01*
X109950623Y-93784136D01*
X109927283Y-93753718D01*
X109927282Y-93753717D01*
X109801841Y-93657463D01*
X109655762Y-93596955D01*
X109655760Y-93596954D01*
X109499001Y-93576317D01*
X109498999Y-93576317D01*
X109342239Y-93596954D01*
X109342237Y-93596955D01*
X109196160Y-93657462D01*
X109113477Y-93720907D01*
X109070718Y-93753717D01*
X109047374Y-93784139D01*
X108990948Y-93825340D01*
X108921202Y-93829495D01*
X108860281Y-93795282D01*
X108850630Y-93784145D01*
X108827282Y-93753717D01*
X108701841Y-93657463D01*
X108555762Y-93596955D01*
X108555760Y-93596954D01*
X108399001Y-93576317D01*
X108398999Y-93576317D01*
X108242239Y-93596954D01*
X108242237Y-93596955D01*
X108096160Y-93657462D01*
X107970718Y-93753717D01*
X107874463Y-93879159D01*
X107813956Y-94025236D01*
X107813956Y-94025237D01*
X107794078Y-94176224D01*
X107765811Y-94240120D01*
X107707487Y-94278591D01*
X107637622Y-94279422D01*
X107578399Y-94242350D01*
X107575286Y-94238703D01*
X107550415Y-94208398D01*
X107536910Y-94188187D01*
X107533603Y-94182000D01*
X107469918Y-94062855D01*
X107460621Y-94040410D01*
X107419365Y-93904408D01*
X107414626Y-93880580D01*
X107400097Y-93733061D01*
X107399500Y-93720907D01*
X107399500Y-92235001D01*
X113821318Y-92235001D01*
X113841955Y-92391760D01*
X113841956Y-92391762D01*
X113889373Y-92506238D01*
X113902464Y-92537841D01*
X113998718Y-92663282D01*
X114124159Y-92759536D01*
X114270238Y-92820044D01*
X114348619Y-92830363D01*
X114426999Y-92840682D01*
X114427000Y-92840682D01*
X114427001Y-92840682D01*
X114479254Y-92833802D01*
X114583762Y-92820044D01*
X114729841Y-92759536D01*
X114855282Y-92663282D01*
X114951536Y-92537841D01*
X115012044Y-92391762D01*
X115032682Y-92235000D01*
X115012044Y-92078238D01*
X114951536Y-91932159D01*
X114855282Y-91806718D01*
X114729841Y-91710464D01*
X114644223Y-91675000D01*
X114583762Y-91649956D01*
X114583760Y-91649955D01*
X114427001Y-91629318D01*
X114426999Y-91629318D01*
X114270239Y-91649955D01*
X114270237Y-91649956D01*
X114124160Y-91710463D01*
X113998718Y-91806718D01*
X113902463Y-91932160D01*
X113841956Y-92078237D01*
X113841955Y-92078239D01*
X113821318Y-92234998D01*
X113821318Y-92235001D01*
X107399500Y-92235001D01*
X107399500Y-90982001D01*
X112193317Y-90982001D01*
X112213954Y-91138760D01*
X112213955Y-91138762D01*
X112242995Y-91208872D01*
X112274463Y-91284841D01*
X112370717Y-91410282D01*
X112496158Y-91506536D01*
X112642237Y-91567044D01*
X112720618Y-91577363D01*
X112798998Y-91587682D01*
X112798999Y-91587682D01*
X112799000Y-91587682D01*
X112851253Y-91580802D01*
X112955761Y-91567044D01*
X113101840Y-91506536D01*
X113227281Y-91410282D01*
X113323535Y-91284841D01*
X113384043Y-91138762D01*
X113404681Y-90982000D01*
X113384043Y-90825238D01*
X113323535Y-90679159D01*
X113227281Y-90553718D01*
X113227279Y-90553717D01*
X113227279Y-90553716D01*
X113099119Y-90455376D01*
X113057916Y-90398948D01*
X113053761Y-90329202D01*
X113087973Y-90268282D01*
X113099119Y-90258624D01*
X113194700Y-90185282D01*
X113227281Y-90160282D01*
X113323535Y-90034841D01*
X113384043Y-89888762D01*
X113404681Y-89732000D01*
X113384043Y-89575238D01*
X113323535Y-89429159D01*
X113227281Y-89303718D01*
X113101840Y-89207464D01*
X112955761Y-89146956D01*
X112955759Y-89146955D01*
X112799000Y-89126318D01*
X112798998Y-89126318D01*
X112642238Y-89146955D01*
X112642236Y-89146956D01*
X112496159Y-89207463D01*
X112370717Y-89303718D01*
X112274462Y-89429160D01*
X112213955Y-89575237D01*
X112213954Y-89575239D01*
X112193317Y-89731998D01*
X112193317Y-89732001D01*
X112213954Y-89888760D01*
X112213955Y-89888762D01*
X112224309Y-89913760D01*
X112274463Y-90034841D01*
X112370717Y-90160282D01*
X112486281Y-90248957D01*
X112498879Y-90258624D01*
X112540081Y-90315053D01*
X112544236Y-90384799D01*
X112510023Y-90445719D01*
X112498879Y-90455376D01*
X112370717Y-90553718D01*
X112274462Y-90679160D01*
X112213955Y-90825237D01*
X112213954Y-90825239D01*
X112193317Y-90981998D01*
X112193317Y-90982001D01*
X107399500Y-90982001D01*
X107399500Y-88482001D01*
X111393318Y-88482001D01*
X111413955Y-88638760D01*
X111413956Y-88638762D01*
X111474464Y-88784841D01*
X111570718Y-88910282D01*
X111696159Y-89006536D01*
X111842238Y-89067044D01*
X111920619Y-89077363D01*
X111998999Y-89087682D01*
X111999000Y-89087682D01*
X111999001Y-89087682D01*
X112051254Y-89080802D01*
X112155762Y-89067044D01*
X112301841Y-89006536D01*
X112427282Y-88910282D01*
X112523536Y-88784841D01*
X112584044Y-88638762D01*
X112604682Y-88482000D01*
X112584044Y-88325238D01*
X112523536Y-88179159D01*
X112427282Y-88053718D01*
X112427280Y-88053717D01*
X112427280Y-88053716D01*
X112299120Y-87955376D01*
X112257917Y-87898948D01*
X112253762Y-87829202D01*
X112287974Y-87768282D01*
X112299120Y-87758624D01*
X112320824Y-87741969D01*
X112427282Y-87660282D01*
X112523536Y-87534841D01*
X112584044Y-87388762D01*
X112604682Y-87232000D01*
X112602538Y-87215718D01*
X112584044Y-87075239D01*
X112584044Y-87075238D01*
X112523536Y-86929159D01*
X112427282Y-86803718D01*
X112301841Y-86707464D01*
X112277153Y-86697238D01*
X112155762Y-86646956D01*
X112155760Y-86646955D01*
X111999001Y-86626318D01*
X111998999Y-86626318D01*
X111842239Y-86646955D01*
X111842237Y-86646956D01*
X111696160Y-86707463D01*
X111570718Y-86803718D01*
X111474463Y-86929160D01*
X111413956Y-87075237D01*
X111413955Y-87075239D01*
X111393318Y-87231998D01*
X111393318Y-87232001D01*
X111413955Y-87388760D01*
X111413956Y-87388762D01*
X111434783Y-87439044D01*
X111474464Y-87534841D01*
X111570718Y-87660282D01*
X111686282Y-87748957D01*
X111698880Y-87758624D01*
X111740082Y-87815053D01*
X111744237Y-87884799D01*
X111710024Y-87945719D01*
X111698880Y-87955376D01*
X111570718Y-88053718D01*
X111474463Y-88179160D01*
X111413956Y-88325237D01*
X111413955Y-88325239D01*
X111393318Y-88481998D01*
X111393318Y-88482001D01*
X107399500Y-88482001D01*
X107399500Y-84882920D01*
X113478999Y-84882920D01*
X113507840Y-85027907D01*
X113507843Y-85027917D01*
X113564412Y-85164488D01*
X113564419Y-85164501D01*
X113646548Y-85287415D01*
X113646551Y-85287419D01*
X113751080Y-85391948D01*
X113751084Y-85391951D01*
X113873998Y-85474080D01*
X113874011Y-85474087D01*
X113981761Y-85518718D01*
X114010587Y-85530658D01*
X114010591Y-85530658D01*
X114010592Y-85530659D01*
X114155579Y-85559500D01*
X114155582Y-85559500D01*
X114303420Y-85559500D01*
X114410704Y-85538159D01*
X114448413Y-85530658D01*
X114584995Y-85474084D01*
X114707916Y-85391951D01*
X114812451Y-85287416D01*
X114894584Y-85164495D01*
X114951158Y-85027913D01*
X114967527Y-84945624D01*
X114980000Y-84882920D01*
X114980000Y-84735079D01*
X114951159Y-84590092D01*
X114951158Y-84590091D01*
X114951158Y-84590087D01*
X114909188Y-84488762D01*
X114894587Y-84453511D01*
X114894580Y-84453498D01*
X114812451Y-84330584D01*
X114812448Y-84330580D01*
X114707919Y-84226051D01*
X114707915Y-84226048D01*
X114585001Y-84143919D01*
X114584988Y-84143912D01*
X114448417Y-84087343D01*
X114448407Y-84087340D01*
X114303420Y-84058500D01*
X114303418Y-84058500D01*
X114155582Y-84058500D01*
X114155580Y-84058500D01*
X114010592Y-84087340D01*
X114010582Y-84087343D01*
X113874011Y-84143912D01*
X113873998Y-84143919D01*
X113751084Y-84226048D01*
X113751080Y-84226051D01*
X113646551Y-84330580D01*
X113646548Y-84330584D01*
X113564419Y-84453498D01*
X113564412Y-84453511D01*
X113507843Y-84590082D01*
X113507840Y-84590092D01*
X113479000Y-84735079D01*
X113479000Y-84735082D01*
X113479000Y-84882918D01*
X113479000Y-84882920D01*
X113478999Y-84882920D01*
X107399500Y-84882920D01*
X107399500Y-82832000D01*
X107793318Y-82832000D01*
X107813955Y-82988759D01*
X107813956Y-82988761D01*
X107874464Y-83134840D01*
X107970718Y-83260281D01*
X108096159Y-83356535D01*
X108242238Y-83417043D01*
X108320619Y-83427362D01*
X108398999Y-83437681D01*
X108399000Y-83437681D01*
X108399001Y-83437681D01*
X108451254Y-83430801D01*
X108555762Y-83417043D01*
X108701841Y-83356535D01*
X108827282Y-83260281D01*
X108923536Y-83134840D01*
X108984044Y-82988761D01*
X109004682Y-82831999D01*
X109003866Y-82825803D01*
X109014631Y-82756769D01*
X109061009Y-82704513D01*
X109128278Y-82685626D01*
X109188233Y-82704006D01*
X109189119Y-82702472D01*
X109196157Y-82706534D01*
X109196159Y-82706536D01*
X109342238Y-82767044D01*
X109420619Y-82777363D01*
X109498999Y-82787682D01*
X109499000Y-82787682D01*
X109499001Y-82787682D01*
X109551254Y-82780802D01*
X109655762Y-82767044D01*
X109801841Y-82706536D01*
X109801845Y-82706532D01*
X109808881Y-82702472D01*
X109810636Y-82705512D01*
X109860614Y-82686070D01*
X109929088Y-82699963D01*
X109979181Y-82748671D01*
X109994989Y-82816729D01*
X109994133Y-82825798D01*
X109993317Y-82831998D01*
X109993317Y-82832000D01*
X110013954Y-82988759D01*
X110013955Y-82988761D01*
X110074463Y-83134840D01*
X110170717Y-83260281D01*
X110296158Y-83356535D01*
X110442237Y-83417043D01*
X110520618Y-83427362D01*
X110598998Y-83437681D01*
X110598999Y-83437681D01*
X110599000Y-83437681D01*
X110651253Y-83430801D01*
X110755761Y-83417043D01*
X110901840Y-83356535D01*
X111027281Y-83260281D01*
X111123535Y-83134840D01*
X111184043Y-82988761D01*
X111204681Y-82831999D01*
X111199172Y-82790157D01*
X111187830Y-82704006D01*
X111184043Y-82675237D01*
X111123535Y-82529158D01*
X111027281Y-82403717D01*
X110901840Y-82307463D01*
X110901835Y-82307461D01*
X110875518Y-82296560D01*
X110821115Y-82252719D01*
X110799050Y-82186424D01*
X110816329Y-82118725D01*
X110867467Y-82071115D01*
X110875504Y-82067444D01*
X110901840Y-82056536D01*
X111027281Y-81960282D01*
X111123535Y-81834841D01*
X111184043Y-81688762D01*
X111204681Y-81532000D01*
X111184043Y-81375238D01*
X111146251Y-81284001D01*
X130122318Y-81284001D01*
X130142955Y-81440760D01*
X130142956Y-81440762D01*
X130203464Y-81586841D01*
X130299718Y-81712282D01*
X130425159Y-81808536D01*
X130571238Y-81869044D01*
X130648069Y-81879159D01*
X130727999Y-81889682D01*
X130728000Y-81889682D01*
X130728001Y-81889682D01*
X130780254Y-81882802D01*
X130884762Y-81869044D01*
X131030841Y-81808536D01*
X131156282Y-81712282D01*
X131252536Y-81586841D01*
X131313044Y-81440762D01*
X131333682Y-81284000D01*
X131313044Y-81127238D01*
X131252536Y-80981159D01*
X131156282Y-80855718D01*
X131030841Y-80759464D01*
X130884762Y-80698956D01*
X130884760Y-80698955D01*
X130728001Y-80678318D01*
X130727999Y-80678318D01*
X130571239Y-80698955D01*
X130571237Y-80698956D01*
X130425160Y-80759463D01*
X130299718Y-80855718D01*
X130203463Y-80981160D01*
X130142956Y-81127237D01*
X130142955Y-81127239D01*
X130122318Y-81283998D01*
X130122318Y-81284001D01*
X111146251Y-81284001D01*
X111123535Y-81229159D01*
X111027281Y-81103718D01*
X110901840Y-81007464D01*
X110755761Y-80946956D01*
X110755759Y-80946955D01*
X110599000Y-80926318D01*
X110598998Y-80926318D01*
X110442238Y-80946955D01*
X110442236Y-80946956D01*
X110296159Y-81007463D01*
X110170717Y-81103718D01*
X110074462Y-81229160D01*
X110013955Y-81375237D01*
X110013954Y-81375239D01*
X109993317Y-81531998D01*
X109993317Y-81532000D01*
X109994133Y-81538201D01*
X109983364Y-81607235D01*
X109936982Y-81659489D01*
X109869713Y-81678372D01*
X109809768Y-81659991D01*
X109808881Y-81661528D01*
X109801843Y-81657465D01*
X109655762Y-81596956D01*
X109655760Y-81596955D01*
X109499001Y-81576318D01*
X109498999Y-81576318D01*
X109342239Y-81596955D01*
X109342237Y-81596956D01*
X109196156Y-81657465D01*
X109189119Y-81661528D01*
X109187392Y-81658536D01*
X109137005Y-81677962D01*
X109068574Y-81663859D01*
X109018630Y-81614997D01*
X109003031Y-81546891D01*
X109003864Y-81538209D01*
X109004682Y-81532000D01*
X108984044Y-81375238D01*
X108923536Y-81229159D01*
X108827282Y-81103718D01*
X108701841Y-81007464D01*
X108555762Y-80946956D01*
X108555760Y-80946955D01*
X108399001Y-80926318D01*
X108398999Y-80926318D01*
X108242239Y-80946955D01*
X108242237Y-80946956D01*
X108096160Y-81007463D01*
X107970718Y-81103718D01*
X107874463Y-81229160D01*
X107813956Y-81375237D01*
X107813955Y-81375239D01*
X107793318Y-81531998D01*
X107793318Y-81532001D01*
X107813955Y-81688760D01*
X107813956Y-81688762D01*
X107874464Y-81834841D01*
X107970718Y-81960282D01*
X108096159Y-82056536D01*
X108122481Y-82067439D01*
X108176882Y-82111278D01*
X108198948Y-82177572D01*
X108181669Y-82245271D01*
X108130533Y-82292882D01*
X108122481Y-82296559D01*
X108096162Y-82307461D01*
X108096159Y-82307462D01*
X108096159Y-82307463D01*
X108015962Y-82369000D01*
X107970718Y-82403717D01*
X107874463Y-82529159D01*
X107813956Y-82675236D01*
X107813955Y-82675238D01*
X107793318Y-82831997D01*
X107793318Y-82832000D01*
X107399500Y-82832000D01*
X107399500Y-79742000D01*
X107793318Y-79742000D01*
X107813955Y-79898759D01*
X107813956Y-79898761D01*
X107874464Y-80044840D01*
X107970718Y-80170281D01*
X108096159Y-80266535D01*
X108242238Y-80327043D01*
X108320619Y-80337362D01*
X108398999Y-80347681D01*
X108399000Y-80347681D01*
X108399001Y-80347681D01*
X108451254Y-80340801D01*
X108555762Y-80327043D01*
X108701841Y-80266535D01*
X108827282Y-80170281D01*
X108923536Y-80044840D01*
X108984044Y-79898761D01*
X109004682Y-79741999D01*
X109003866Y-79735803D01*
X109014631Y-79666769D01*
X109061009Y-79614513D01*
X109128278Y-79595626D01*
X109188233Y-79614006D01*
X109189119Y-79612472D01*
X109196157Y-79616534D01*
X109196159Y-79616536D01*
X109342238Y-79677044D01*
X109420619Y-79687363D01*
X109498999Y-79697682D01*
X109499000Y-79697682D01*
X109499001Y-79697682D01*
X109559766Y-79689682D01*
X109655762Y-79677044D01*
X109801841Y-79616536D01*
X109801845Y-79616532D01*
X109808881Y-79612472D01*
X109810636Y-79615512D01*
X109860614Y-79596070D01*
X109929088Y-79609963D01*
X109979181Y-79658671D01*
X109994989Y-79726729D01*
X109994133Y-79735798D01*
X109993317Y-79741998D01*
X109993317Y-79742000D01*
X110013954Y-79898759D01*
X110013955Y-79898761D01*
X110074463Y-80044840D01*
X110170717Y-80170281D01*
X110296158Y-80266535D01*
X110442237Y-80327043D01*
X110520618Y-80337362D01*
X110598998Y-80347681D01*
X110598999Y-80347681D01*
X110599000Y-80347681D01*
X110651253Y-80340801D01*
X110755761Y-80327043D01*
X110901840Y-80266535D01*
X111027281Y-80170281D01*
X111123535Y-80044840D01*
X111184043Y-79898761D01*
X111204681Y-79741999D01*
X111197793Y-79689682D01*
X111187830Y-79614006D01*
X111184043Y-79585237D01*
X111123535Y-79439158D01*
X111027281Y-79313717D01*
X110901840Y-79217463D01*
X110901835Y-79217461D01*
X110875518Y-79206560D01*
X110821115Y-79162719D01*
X110799050Y-79096424D01*
X110802221Y-79084001D01*
X126080318Y-79084001D01*
X126100955Y-79240760D01*
X126100956Y-79240762D01*
X126161464Y-79386841D01*
X126257718Y-79512282D01*
X126383159Y-79608536D01*
X126529238Y-79669044D01*
X126607619Y-79679363D01*
X126685999Y-79689682D01*
X126686000Y-79689682D01*
X126686001Y-79689682D01*
X126738254Y-79682802D01*
X126842762Y-79669044D01*
X126988841Y-79608536D01*
X127114282Y-79512282D01*
X127210536Y-79386841D01*
X127271044Y-79240762D01*
X127291682Y-79084000D01*
X127271044Y-78927238D01*
X127210536Y-78781159D01*
X127114282Y-78655718D01*
X126988841Y-78559464D01*
X126905630Y-78524997D01*
X126842762Y-78498956D01*
X126842760Y-78498955D01*
X126686001Y-78478318D01*
X126685999Y-78478318D01*
X126529239Y-78498955D01*
X126529237Y-78498956D01*
X126383160Y-78559463D01*
X126257718Y-78655718D01*
X126161463Y-78781160D01*
X126100956Y-78927237D01*
X126100955Y-78927239D01*
X126080318Y-79083998D01*
X126080318Y-79084001D01*
X110802221Y-79084001D01*
X110816329Y-79028725D01*
X110867467Y-78981115D01*
X110875504Y-78977444D01*
X110901840Y-78966536D01*
X111027281Y-78870282D01*
X111123535Y-78744841D01*
X111184043Y-78598762D01*
X111204681Y-78442000D01*
X111184043Y-78285238D01*
X111123535Y-78139159D01*
X111027281Y-78013718D01*
X110901840Y-77917464D01*
X110755761Y-77856956D01*
X110755759Y-77856955D01*
X110599000Y-77836318D01*
X110598998Y-77836318D01*
X110442238Y-77856955D01*
X110442236Y-77856956D01*
X110296159Y-77917463D01*
X110170717Y-78013718D01*
X110074462Y-78139160D01*
X110013955Y-78285237D01*
X110013954Y-78285239D01*
X109993317Y-78441998D01*
X109993317Y-78442000D01*
X109994133Y-78448201D01*
X109983364Y-78517235D01*
X109936982Y-78569489D01*
X109869713Y-78588372D01*
X109809768Y-78569991D01*
X109808881Y-78571528D01*
X109801843Y-78567465D01*
X109655762Y-78506956D01*
X109655760Y-78506955D01*
X109499001Y-78486318D01*
X109498999Y-78486318D01*
X109342239Y-78506955D01*
X109342237Y-78506956D01*
X109196156Y-78567465D01*
X109189119Y-78571528D01*
X109187392Y-78568536D01*
X109137005Y-78587962D01*
X109068574Y-78573859D01*
X109018630Y-78524997D01*
X109003031Y-78456891D01*
X109003864Y-78448209D01*
X109004682Y-78442000D01*
X108984044Y-78285238D01*
X108923536Y-78139159D01*
X108827282Y-78013718D01*
X108701841Y-77917464D01*
X108555762Y-77856956D01*
X108555760Y-77856955D01*
X108399001Y-77836318D01*
X108398999Y-77836318D01*
X108242239Y-77856955D01*
X108242237Y-77856956D01*
X108096160Y-77917463D01*
X107970718Y-78013718D01*
X107874463Y-78139160D01*
X107813956Y-78285237D01*
X107813955Y-78285239D01*
X107793318Y-78441998D01*
X107793318Y-78442001D01*
X107813955Y-78598760D01*
X107813956Y-78598762D01*
X107874464Y-78744841D01*
X107970718Y-78870282D01*
X108096159Y-78966536D01*
X108122481Y-78977439D01*
X108176882Y-79021278D01*
X108198948Y-79087572D01*
X108181669Y-79155271D01*
X108130533Y-79202882D01*
X108122481Y-79206559D01*
X108096162Y-79217461D01*
X108096159Y-79217462D01*
X108096159Y-79217463D01*
X107970718Y-79313717D01*
X107874463Y-79439159D01*
X107813956Y-79585236D01*
X107813955Y-79585238D01*
X107793318Y-79741997D01*
X107793318Y-79742000D01*
X107399500Y-79742000D01*
X107399500Y-74042001D01*
X111393318Y-74042001D01*
X111413955Y-74198760D01*
X111413956Y-74198762D01*
X111456653Y-74301843D01*
X111474464Y-74344841D01*
X111570718Y-74470282D01*
X111696159Y-74566536D01*
X111842238Y-74627044D01*
X111918371Y-74637067D01*
X111982268Y-74665333D01*
X112020739Y-74723658D01*
X112021570Y-74793523D01*
X111984498Y-74852746D01*
X111977682Y-74858373D01*
X111970718Y-74863718D01*
X111935022Y-74910238D01*
X111874463Y-74989160D01*
X111813956Y-75135237D01*
X111813955Y-75135239D01*
X111793318Y-75291998D01*
X111793318Y-75292001D01*
X111813955Y-75448760D01*
X111813956Y-75448762D01*
X111874464Y-75594841D01*
X111970718Y-75720282D01*
X112082850Y-75806324D01*
X112098880Y-75818624D01*
X112140082Y-75875053D01*
X112144237Y-75944799D01*
X112110024Y-76005719D01*
X112098880Y-76015376D01*
X111970718Y-76113718D01*
X111874463Y-76239160D01*
X111813956Y-76385237D01*
X111813955Y-76385239D01*
X111793318Y-76541998D01*
X111793318Y-76542001D01*
X111813955Y-76698760D01*
X111813956Y-76698762D01*
X111874464Y-76844841D01*
X111970718Y-76970282D01*
X112096159Y-77066536D01*
X112242238Y-77127044D01*
X112320619Y-77137363D01*
X112398999Y-77147682D01*
X112399000Y-77147682D01*
X112399001Y-77147682D01*
X112451254Y-77140802D01*
X112555762Y-77127044D01*
X112701841Y-77066536D01*
X112827282Y-76970282D01*
X112894317Y-76882920D01*
X113478999Y-76882920D01*
X113507840Y-77027907D01*
X113507843Y-77027917D01*
X113564412Y-77164488D01*
X113564419Y-77164501D01*
X113646548Y-77287415D01*
X113646551Y-77287419D01*
X113751080Y-77391948D01*
X113751084Y-77391951D01*
X113873998Y-77474080D01*
X113874011Y-77474087D01*
X114010582Y-77530656D01*
X114010587Y-77530658D01*
X114010591Y-77530658D01*
X114010592Y-77530659D01*
X114155579Y-77559500D01*
X114155582Y-77559500D01*
X114303420Y-77559500D01*
X114400962Y-77540096D01*
X114448413Y-77530658D01*
X114584995Y-77474084D01*
X114707916Y-77391951D01*
X114812451Y-77287416D01*
X114894584Y-77164495D01*
X114951158Y-77027913D01*
X114980000Y-76882918D01*
X114980000Y-76735082D01*
X114980000Y-76735079D01*
X114951159Y-76590092D01*
X114951158Y-76590091D01*
X114951158Y-76590087D01*
X114931239Y-76541998D01*
X114894587Y-76453511D01*
X114894580Y-76453498D01*
X114812451Y-76330584D01*
X114812448Y-76330580D01*
X114707919Y-76226051D01*
X114707915Y-76226048D01*
X114585001Y-76143919D01*
X114584988Y-76143912D01*
X114448417Y-76087343D01*
X114448407Y-76087340D01*
X114303420Y-76058500D01*
X114303418Y-76058500D01*
X114155582Y-76058500D01*
X114155580Y-76058500D01*
X114010592Y-76087340D01*
X114010582Y-76087343D01*
X113874011Y-76143912D01*
X113873998Y-76143919D01*
X113751084Y-76226048D01*
X113751080Y-76226051D01*
X113646551Y-76330580D01*
X113646548Y-76330584D01*
X113564419Y-76453498D01*
X113564412Y-76453511D01*
X113507843Y-76590082D01*
X113507840Y-76590092D01*
X113479000Y-76735079D01*
X113479000Y-76735082D01*
X113479000Y-76882918D01*
X113479000Y-76882920D01*
X113478999Y-76882920D01*
X112894317Y-76882920D01*
X112923536Y-76844841D01*
X112984044Y-76698762D01*
X113004682Y-76542000D01*
X112993031Y-76453505D01*
X112984044Y-76385239D01*
X112984044Y-76385238D01*
X112923536Y-76239159D01*
X112827282Y-76113718D01*
X112827280Y-76113717D01*
X112827280Y-76113716D01*
X112699120Y-76015376D01*
X112657917Y-75958948D01*
X112653762Y-75889202D01*
X112687974Y-75828282D01*
X112699120Y-75818624D01*
X112720824Y-75801969D01*
X112827282Y-75720282D01*
X112873537Y-75660001D01*
X114905317Y-75660001D01*
X114925954Y-75816760D01*
X114925955Y-75816762D01*
X114986463Y-75962841D01*
X115082717Y-76088282D01*
X115208158Y-76184536D01*
X115354237Y-76245044D01*
X115432618Y-76255363D01*
X115510998Y-76265682D01*
X115510999Y-76265682D01*
X115511000Y-76265682D01*
X115563253Y-76258802D01*
X115667761Y-76245044D01*
X115813840Y-76184536D01*
X115939281Y-76088282D01*
X116035535Y-75962841D01*
X116096043Y-75816762D01*
X116109801Y-75712254D01*
X116116681Y-75660001D01*
X119280318Y-75660001D01*
X119300955Y-75816760D01*
X119300956Y-75816762D01*
X119361464Y-75962841D01*
X119457718Y-76088282D01*
X119583159Y-76184536D01*
X119729238Y-76245044D01*
X119807619Y-76255363D01*
X119885999Y-76265682D01*
X119886000Y-76265682D01*
X119886001Y-76265682D01*
X119938254Y-76258802D01*
X120042762Y-76245044D01*
X120188841Y-76184536D01*
X120314282Y-76088282D01*
X120410536Y-75962841D01*
X120471044Y-75816762D01*
X120484802Y-75712254D01*
X120491682Y-75660001D01*
X120491682Y-75659998D01*
X120471044Y-75503239D01*
X120471044Y-75503238D01*
X120410536Y-75357159D01*
X120314282Y-75231718D01*
X120188841Y-75135464D01*
X120188295Y-75135238D01*
X120042762Y-75074956D01*
X120042760Y-75074955D01*
X119886001Y-75054318D01*
X119885999Y-75054318D01*
X119729239Y-75074955D01*
X119729237Y-75074956D01*
X119583160Y-75135463D01*
X119457718Y-75231718D01*
X119361463Y-75357160D01*
X119300956Y-75503237D01*
X119300955Y-75503239D01*
X119280318Y-75659998D01*
X119280318Y-75660001D01*
X116116681Y-75660001D01*
X116116681Y-75659998D01*
X116096043Y-75503239D01*
X116096043Y-75503238D01*
X116035535Y-75357159D01*
X115939281Y-75231718D01*
X115813840Y-75135464D01*
X115813294Y-75135238D01*
X115667761Y-75074956D01*
X115667759Y-75074955D01*
X115511000Y-75054318D01*
X115510998Y-75054318D01*
X115354238Y-75074955D01*
X115354236Y-75074956D01*
X115208159Y-75135463D01*
X115082717Y-75231718D01*
X114986462Y-75357160D01*
X114925955Y-75503237D01*
X114925954Y-75503239D01*
X114905317Y-75659998D01*
X114905317Y-75660001D01*
X112873537Y-75660001D01*
X112923536Y-75594841D01*
X112984044Y-75448762D01*
X113004682Y-75292000D01*
X112984044Y-75135238D01*
X112923536Y-74989159D01*
X112827282Y-74863718D01*
X112701841Y-74767464D01*
X112689854Y-74762499D01*
X112596084Y-74723658D01*
X112555762Y-74706956D01*
X112541233Y-74705043D01*
X112479626Y-74696932D01*
X112415730Y-74668665D01*
X112377260Y-74610340D01*
X112376429Y-74540475D01*
X112413502Y-74481252D01*
X112420296Y-74475642D01*
X112427282Y-74470282D01*
X112523536Y-74344841D01*
X112584044Y-74198762D01*
X112604682Y-74042000D01*
X112602098Y-74022376D01*
X112584044Y-73885239D01*
X112584044Y-73885238D01*
X112523536Y-73739159D01*
X112427282Y-73613718D01*
X112427280Y-73613717D01*
X112427280Y-73613716D01*
X112299120Y-73515376D01*
X112257917Y-73458948D01*
X112253762Y-73389202D01*
X112287974Y-73328282D01*
X112299120Y-73318624D01*
X112345753Y-73282841D01*
X112427282Y-73220282D01*
X112523536Y-73094841D01*
X112584044Y-72948762D01*
X112597802Y-72844254D01*
X112604682Y-72792001D01*
X112604682Y-72791998D01*
X112584044Y-72635239D01*
X112584044Y-72635238D01*
X112523536Y-72489159D01*
X112427282Y-72363718D01*
X112301841Y-72267464D01*
X112155762Y-72206956D01*
X112155760Y-72206955D01*
X111999001Y-72186318D01*
X111998999Y-72186318D01*
X111842239Y-72206955D01*
X111842237Y-72206956D01*
X111696160Y-72267463D01*
X111570718Y-72363718D01*
X111474463Y-72489160D01*
X111413956Y-72635237D01*
X111413955Y-72635239D01*
X111393318Y-72791998D01*
X111393318Y-72792001D01*
X111413955Y-72948760D01*
X111413956Y-72948762D01*
X111474464Y-73094841D01*
X111570718Y-73220282D01*
X111652247Y-73282841D01*
X111698880Y-73318624D01*
X111740082Y-73375053D01*
X111744237Y-73444799D01*
X111710024Y-73505719D01*
X111698880Y-73515376D01*
X111570718Y-73613718D01*
X111474463Y-73739160D01*
X111413956Y-73885237D01*
X111413955Y-73885239D01*
X111393318Y-74041998D01*
X111393318Y-74042001D01*
X107399500Y-74042001D01*
X107399500Y-67553092D01*
X107400097Y-67540938D01*
X107414626Y-67393417D01*
X107419365Y-67369593D01*
X107460622Y-67233585D01*
X107469916Y-67211148D01*
X107536913Y-67085806D01*
X107550411Y-67065606D01*
X107575287Y-67035295D01*
X107633032Y-66995962D01*
X107702877Y-66994091D01*
X107762645Y-67030279D01*
X107793361Y-67093035D01*
X107794078Y-67097775D01*
X107813956Y-67248761D01*
X107813956Y-67248762D01*
X107864002Y-67369585D01*
X107874464Y-67394841D01*
X107970718Y-67520282D01*
X108096159Y-67616536D01*
X108242238Y-67677044D01*
X108320619Y-67687363D01*
X108398999Y-67697682D01*
X108399000Y-67697682D01*
X108399001Y-67697682D01*
X108451254Y-67690802D01*
X108555762Y-67677044D01*
X108701841Y-67616536D01*
X108827282Y-67520282D01*
X108850625Y-67489860D01*
X108907051Y-67448658D01*
X108976797Y-67444503D01*
X109037718Y-67478714D01*
X109047368Y-67489851D01*
X109070718Y-67520282D01*
X109196159Y-67616536D01*
X109342238Y-67677044D01*
X109420619Y-67687363D01*
X109498999Y-67697682D01*
X109499000Y-67697682D01*
X109499001Y-67697682D01*
X109551254Y-67690802D01*
X109655762Y-67677044D01*
X109801841Y-67616536D01*
X109927282Y-67520282D01*
X109950624Y-67489860D01*
X110007049Y-67448659D01*
X110076795Y-67444504D01*
X110137716Y-67478715D01*
X110147368Y-67489853D01*
X110170717Y-67520282D01*
X110296158Y-67616536D01*
X110442237Y-67677044D01*
X110520618Y-67687363D01*
X110598998Y-67697682D01*
X110598999Y-67697682D01*
X110599000Y-67697682D01*
X110651253Y-67690802D01*
X110755761Y-67677044D01*
X110901840Y-67616536D01*
X111027281Y-67520282D01*
X111123535Y-67394841D01*
X111184043Y-67248762D01*
X111204681Y-67092000D01*
X111203866Y-67085812D01*
X111184043Y-66935239D01*
X111184041Y-66935234D01*
X111156587Y-66868952D01*
X111149118Y-66799483D01*
X111180394Y-66737004D01*
X111240483Y-66701352D01*
X111271148Y-66697500D01*
X115101876Y-66697500D01*
X115168915Y-66717185D01*
G37*
G04 #@! TD.AperFunction*
G04 #@! TA.AperFunction,Conductor*
G36*
X147821500Y-67137962D02*
G01*
X147876038Y-67192500D01*
X147896000Y-67267000D01*
X147896000Y-68370000D01*
X147876038Y-68444500D01*
X147821500Y-68499038D01*
X147747000Y-68519000D01*
X146585000Y-68519000D01*
X146510500Y-68499038D01*
X146455962Y-68444500D01*
X146436000Y-68370000D01*
X146436000Y-67267000D01*
X146455962Y-67192500D01*
X146510500Y-67137962D01*
X146585000Y-67118000D01*
X147747000Y-67118000D01*
X147821500Y-67137962D01*
G37*
G04 #@! TD.AperFunction*
M02*
