G04 #@! TF.GenerationSoftware,KiCad,Pcbnew,8.0.1*
G04 #@! TF.CreationDate,2024-03-31T17:14:50+03:00*
G04 #@! TF.ProjectId,Master board,4d617374-6572-4206-926f-6172642e6b69,rev?*
G04 #@! TF.SameCoordinates,Original*
G04 #@! TF.FileFunction,Soldermask,Bot*
G04 #@! TF.FilePolarity,Negative*
%FSLAX46Y46*%
G04 Gerber Fmt 4.6, Leading zero omitted, Abs format (unit mm)*
G04 Created by KiCad (PCBNEW 8.0.1) date 2024-03-31 17:14:50*
%MOMM*%
%LPD*%
G01*
G04 APERTURE LIST*
G04 Aperture macros list*
%AMRoundRect*
0 Rectangle with rounded corners*
0 $1 Rounding radius*
0 $2 $3 $4 $5 $6 $7 $8 $9 X,Y pos of 4 corners*
0 Add a 4 corners polygon primitive as box body*
4,1,4,$2,$3,$4,$5,$6,$7,$8,$9,$2,$3,0*
0 Add four circle primitives for the rounded corners*
1,1,$1+$1,$2,$3*
1,1,$1+$1,$4,$5*
1,1,$1+$1,$6,$7*
1,1,$1+$1,$8,$9*
0 Add four rect primitives between the rounded corners*
20,1,$1+$1,$2,$3,$4,$5,0*
20,1,$1+$1,$4,$5,$6,$7,0*
20,1,$1+$1,$6,$7,$8,$9,0*
20,1,$1+$1,$8,$9,$2,$3,0*%
%AMFreePoly0*
4,1,19,0.500000,-0.750000,0.000000,-0.750000,0.000000,-0.744911,-0.071157,-0.744911,-0.207708,-0.704816,-0.327430,-0.627875,-0.420627,-0.520320,-0.479746,-0.390866,-0.500000,-0.250000,-0.500000,0.250000,-0.479746,0.390866,-0.420627,0.520320,-0.327430,0.627875,-0.207708,0.704816,-0.071157,0.744911,0.000000,0.744911,0.000000,0.750000,0.500000,0.750000,0.500000,-0.750000,0.500000,-0.750000,
$1*%
%AMFreePoly1*
4,1,19,0.000000,0.744911,0.071157,0.744911,0.207708,0.704816,0.327430,0.627875,0.420627,0.520320,0.479746,0.390866,0.500000,0.250000,0.500000,-0.250000,0.479746,-0.390866,0.420627,-0.520320,0.327430,-0.627875,0.207708,-0.704816,0.071157,-0.744911,0.000000,-0.744911,0.000000,-0.750000,-0.500000,-0.750000,-0.500000,0.750000,0.000000,0.750000,0.000000,0.744911,0.000000,0.744911,
$1*%
G04 Aperture macros list end*
%ADD10C,1.600000*%
%ADD11C,0.500000*%
%ADD12O,1.090000X2.000000*%
%ADD13O,1.050000X1.600000*%
%ADD14C,0.900000*%
%ADD15C,1.000000*%
%ADD16O,1.000000X1.000000*%
%ADD17C,0.700000*%
%ADD18C,4.400000*%
%ADD19C,1.400000*%
%ADD20C,3.500000*%
%ADD21RoundRect,0.225000X-0.250000X0.225000X-0.250000X-0.225000X0.250000X-0.225000X0.250000X0.225000X0*%
%ADD22RoundRect,0.200000X-0.275000X0.200000X-0.275000X-0.200000X0.275000X-0.200000X0.275000X0.200000X0*%
%ADD23RoundRect,0.225000X-0.225000X-0.250000X0.225000X-0.250000X0.225000X0.250000X-0.225000X0.250000X0*%
%ADD24RoundRect,0.200000X0.200000X0.275000X-0.200000X0.275000X-0.200000X-0.275000X0.200000X-0.275000X0*%
%ADD25R,1.300000X0.700000*%
%ADD26R,2.000000X1.200000*%
%ADD27R,1.400000X1.200000*%
%ADD28R,1.400000X1.150000*%
%ADD29RoundRect,0.375000X-0.375000X0.625000X-0.375000X-0.625000X0.375000X-0.625000X0.375000X0.625000X0*%
%ADD30RoundRect,0.500000X-1.400000X0.500000X-1.400000X-0.500000X1.400000X-0.500000X1.400000X0.500000X0*%
%ADD31RoundRect,0.225000X0.225000X0.250000X-0.225000X0.250000X-0.225000X-0.250000X0.225000X-0.250000X0*%
%ADD32RoundRect,0.075000X-0.075000X0.700000X-0.075000X-0.700000X0.075000X-0.700000X0.075000X0.700000X0*%
%ADD33RoundRect,0.075000X-0.700000X0.075000X-0.700000X-0.075000X0.700000X-0.075000X0.700000X0.075000X0*%
%ADD34RoundRect,0.200000X0.275000X-0.200000X0.275000X0.200000X-0.275000X0.200000X-0.275000X-0.200000X0*%
%ADD35FreePoly0,270.000000*%
%ADD36FreePoly1,270.000000*%
%ADD37RoundRect,0.200000X-0.200000X-0.275000X0.200000X-0.275000X0.200000X0.275000X-0.200000X0.275000X0*%
%ADD38RoundRect,0.150000X0.650000X0.150000X-0.650000X0.150000X-0.650000X-0.150000X0.650000X-0.150000X0*%
%ADD39RoundRect,0.225000X0.335876X0.017678X0.017678X0.335876X-0.335876X-0.017678X-0.017678X-0.335876X0*%
%ADD40RoundRect,0.150000X-0.150000X0.512500X-0.150000X-0.512500X0.150000X-0.512500X0.150000X0.512500X0*%
G04 APERTURE END LIST*
D10*
X136436250Y-70427613D03*
X136436250Y-68427613D03*
D11*
X141412000Y-90534000D03*
X137412000Y-90534000D03*
D12*
X143012000Y-92684000D03*
D13*
X143012000Y-89234000D03*
D12*
X135812000Y-92684000D03*
D13*
X135812000Y-89234000D03*
D14*
X146842000Y-92007000D03*
X149842000Y-92007000D03*
D15*
X124991000Y-92310000D03*
D16*
X124991000Y-91040000D03*
X126261000Y-92310000D03*
X126261000Y-91040000D03*
X127531000Y-92310000D03*
X127531000Y-91040000D03*
X128801000Y-92310000D03*
X128801000Y-91040000D03*
X130071000Y-92310000D03*
X130071000Y-91040000D03*
D17*
X115249000Y-68597000D03*
X115732274Y-67430274D03*
X115732274Y-69763726D03*
X116899000Y-66947000D03*
D18*
X116899000Y-68597000D03*
D17*
X116899000Y-70247000D03*
X118065726Y-67430274D03*
X118065726Y-69763726D03*
X118549000Y-68597000D03*
D19*
X161799000Y-70865000D03*
X161799000Y-81865000D03*
D20*
X151799000Y-78865000D03*
X151799000Y-73865000D03*
D17*
X153549000Y-89197000D03*
X154032274Y-88030274D03*
X154032274Y-90363726D03*
X155199000Y-87547000D03*
D18*
X155199000Y-89197000D03*
D17*
X155199000Y-90847000D03*
X156365726Y-88030274D03*
X156365726Y-90363726D03*
X156849000Y-89197000D03*
X153549000Y-68597000D03*
X154032274Y-67430274D03*
X154032274Y-69763726D03*
X155199000Y-66947000D03*
D18*
X155199000Y-68597000D03*
D17*
X155199000Y-70247000D03*
X156365726Y-67430274D03*
X156365726Y-69763726D03*
X156849000Y-68597000D03*
D21*
X126686000Y-79134000D03*
X126686000Y-80684000D03*
X148736000Y-78852000D03*
X148736000Y-80402000D03*
D22*
X147643000Y-84544000D03*
X147643000Y-86194000D03*
D23*
X134891000Y-84407000D03*
X136441000Y-84407000D03*
D24*
X112902000Y-68611000D03*
X111252000Y-68611000D03*
D15*
X114229500Y-76809000D03*
X114229500Y-84809000D03*
D25*
X125069500Y-77719000D03*
X125069500Y-78819000D03*
X125069500Y-79919000D03*
X125069500Y-81019000D03*
X125069500Y-82119000D03*
X125069500Y-83219000D03*
X125069500Y-84319000D03*
X125069500Y-85419000D03*
X125069500Y-86519000D03*
D26*
X114519500Y-72099000D03*
X114519500Y-87619000D03*
D27*
X124219500Y-72939000D03*
D28*
X124219500Y-87644000D03*
D29*
X127278000Y-82640500D03*
X129578000Y-82640500D03*
D30*
X129578000Y-88940500D03*
D29*
X131878000Y-82640500D03*
D23*
X147255000Y-72083000D03*
X148805000Y-72083000D03*
D31*
X150257000Y-82119000D03*
X148707000Y-82119000D03*
D32*
X137548000Y-72750000D03*
X138048000Y-72750000D03*
X138548000Y-72750000D03*
X139048000Y-72750000D03*
X139548000Y-72750000D03*
X140048000Y-72750000D03*
X140548000Y-72750000D03*
X141048000Y-72750000D03*
X141548000Y-72750000D03*
X142048000Y-72750000D03*
X142548000Y-72750000D03*
X143048000Y-72750000D03*
X143548000Y-72750000D03*
X144048000Y-72750000D03*
X144548000Y-72750000D03*
X145048000Y-72750000D03*
D33*
X146973000Y-74675000D03*
X146973000Y-75175000D03*
X146973000Y-75675000D03*
X146973000Y-76175000D03*
X146973000Y-76675000D03*
X146973000Y-77175000D03*
X146973000Y-77675000D03*
X146973000Y-78175000D03*
X146973000Y-78675000D03*
X146973000Y-79175000D03*
X146973000Y-79675000D03*
X146973000Y-80175000D03*
X146973000Y-80675000D03*
X146973000Y-81175000D03*
X146973000Y-81675000D03*
X146973000Y-82175000D03*
D32*
X145048000Y-84100000D03*
X144548000Y-84100000D03*
X144048000Y-84100000D03*
X143548000Y-84100000D03*
X143048000Y-84100000D03*
X142548000Y-84100000D03*
X142048000Y-84100000D03*
X141548000Y-84100000D03*
X141048000Y-84100000D03*
X140548000Y-84100000D03*
X140048000Y-84100000D03*
X139548000Y-84100000D03*
X139048000Y-84100000D03*
X138548000Y-84100000D03*
X138048000Y-84100000D03*
X137548000Y-84100000D03*
D33*
X135623000Y-82175000D03*
X135623000Y-81675000D03*
X135623000Y-81175000D03*
X135623000Y-80675000D03*
X135623000Y-80175000D03*
X135623000Y-79675000D03*
X135623000Y-79175000D03*
X135623000Y-78675000D03*
X135623000Y-78175000D03*
X135623000Y-77675000D03*
X135623000Y-77175000D03*
X135623000Y-76675000D03*
X135623000Y-76175000D03*
X135623000Y-75675000D03*
X135623000Y-75175000D03*
X135623000Y-74675000D03*
D34*
X128147000Y-80728000D03*
X128147000Y-79078000D03*
D24*
X112902000Y-92663000D03*
X111252000Y-92663000D03*
D22*
X146180000Y-84547000D03*
X146180000Y-86197000D03*
D35*
X109344000Y-68611000D03*
D36*
X109344000Y-69911000D03*
D23*
X142770000Y-70994000D03*
X144320000Y-70994000D03*
D22*
X146180000Y-87508000D03*
X146180000Y-89158000D03*
D23*
X143904000Y-69531000D03*
X145454000Y-69531000D03*
D31*
X157495000Y-72949000D03*
X155945000Y-72949000D03*
D22*
X150756000Y-84174000D03*
X150756000Y-85824000D03*
D34*
X129610000Y-80728000D03*
X129610000Y-79078000D03*
D22*
X149294501Y-87274000D03*
X149294501Y-88924000D03*
D37*
X119905000Y-92076000D03*
X121555000Y-92076000D03*
D23*
X134999000Y-85870000D03*
X136549000Y-85870000D03*
D21*
X142466000Y-68009000D03*
X142466000Y-69559000D03*
D35*
X109346000Y-91362997D03*
D36*
X109346000Y-92662997D03*
D21*
X135313000Y-71718000D03*
X135313000Y-73268000D03*
D27*
X138535000Y-69173000D03*
X140735000Y-69173000D03*
X140735000Y-70873000D03*
X138535000Y-70873000D03*
D35*
X116753500Y-91363000D03*
D36*
X116753500Y-92663000D03*
D38*
X163145000Y-74636000D03*
X163145000Y-75906000D03*
X163145000Y-77176000D03*
X163145000Y-78446000D03*
X155945000Y-78446000D03*
X155945000Y-77176000D03*
X155945000Y-75906000D03*
X155945000Y-74636000D03*
D23*
X147255000Y-73544000D03*
X148805000Y-73544000D03*
X138281000Y-67591000D03*
X139831000Y-67591000D03*
D22*
X126681000Y-75876000D03*
X126681000Y-77526000D03*
X158934000Y-70965000D03*
X158934000Y-72615000D03*
D39*
X133722008Y-74149008D03*
X132625992Y-73052992D03*
D37*
X119080000Y-90613000D03*
X120730000Y-90613000D03*
D22*
X149294501Y-84174000D03*
X149294501Y-85824000D03*
D40*
X138348000Y-86683500D03*
X139298000Y-86683500D03*
X140248000Y-86683500D03*
X140248000Y-88958500D03*
X139298000Y-88958500D03*
X138348000Y-88958500D03*
M02*
