%TF.GenerationSoftware,KiCad,Pcbnew,8.0.1*%
%TF.CreationDate,2024-03-31T00:43:46+03:00*%
%TF.ProjectId,Master board,4d617374-6572-4206-926f-6172642e6b69,rev?*%
%TF.SameCoordinates,Original*%
%TF.FileFunction,Drillmap*%
%TF.FilePolarity,Positive*%
%FSLAX45Y45*%
G04 Gerber Fmt 4.5, Leading zero omitted, Abs format (unit mm)*
G04 Created by KiCad (PCBNEW 8.0.1) date 2024-03-31 00:43:46*
%MOMM*%
%LPD*%
G01*
G04 APERTURE LIST*
%ADD10C,0.050000*%
%ADD11C,0.200000*%
%ADD12C,0.100000*%
G04 APERTURE END LIST*
D10*
X16539900Y-6780700D02*
X16539900Y-9346700D01*
X10689900Y-9372700D02*
X10689900Y-6754700D01*
X10824900Y-9507700D02*
G75*
G02*
X10689900Y-9372700I0J135000D01*
G01*
X16378900Y-6619700D02*
X10824900Y-6619700D01*
X16378900Y-9507700D02*
X10824900Y-9507700D01*
X16539900Y-9346700D02*
G75*
G02*
X16378900Y-9507700I-161000J0D01*
G01*
X16378900Y-6619700D02*
G75*
G02*
X16539900Y-6780700I0J-161000D01*
G01*
X10689900Y-6754700D02*
G75*
G02*
X10824900Y-6619700I135000J0D01*
G01*
D11*
D12*
X13716200Y-9028400D02*
X13766200Y-9078400D01*
X13766200Y-9028400D02*
X13716200Y-9078400D01*
X14116200Y-9028400D02*
X14166200Y-9078400D01*
X14166200Y-9028400D02*
X14116200Y-9078400D01*
X14729200Y-9200700D02*
G75*
G02*
X14639200Y-9200700I-45000J0D01*
G01*
X14639200Y-9200700D02*
G75*
G02*
X14729200Y-9200700I45000J0D01*
G01*
X15029200Y-9200700D02*
G75*
G02*
X14939200Y-9200700I-45000J0D01*
G01*
X14939200Y-9200700D02*
G75*
G02*
X15029200Y-9200700I45000J0D01*
G01*
X11422950Y-7630900D02*
X11422950Y-7730900D01*
X11372950Y-7680900D02*
X11472950Y-7680900D01*
X11422950Y-8430900D02*
X11422950Y-8530900D01*
X11372950Y-8480900D02*
X11472950Y-8480900D01*
D11*
X10948177Y-9821684D02*
X10948177Y-9621684D01*
X10948177Y-9621684D02*
X10995796Y-9621684D01*
X10995796Y-9621684D02*
X11024367Y-9631208D01*
X11024367Y-9631208D02*
X11043415Y-9650255D01*
X11043415Y-9650255D02*
X11052939Y-9669303D01*
X11052939Y-9669303D02*
X11062463Y-9707398D01*
X11062463Y-9707398D02*
X11062463Y-9735970D01*
X11062463Y-9735970D02*
X11052939Y-9774065D01*
X11052939Y-9774065D02*
X11043415Y-9793112D01*
X11043415Y-9793112D02*
X11024367Y-9812160D01*
X11024367Y-9812160D02*
X10995796Y-9821684D01*
X10995796Y-9821684D02*
X10948177Y-9821684D01*
X11148177Y-9821684D02*
X11148177Y-9688350D01*
X11148177Y-9726446D02*
X11157701Y-9707398D01*
X11157701Y-9707398D02*
X11167224Y-9697874D01*
X11167224Y-9697874D02*
X11186272Y-9688350D01*
X11186272Y-9688350D02*
X11205320Y-9688350D01*
X11271986Y-9821684D02*
X11271986Y-9688350D01*
X11271986Y-9621684D02*
X11262462Y-9631208D01*
X11262462Y-9631208D02*
X11271986Y-9640731D01*
X11271986Y-9640731D02*
X11281510Y-9631208D01*
X11281510Y-9631208D02*
X11271986Y-9621684D01*
X11271986Y-9621684D02*
X11271986Y-9640731D01*
X11395796Y-9821684D02*
X11376748Y-9812160D01*
X11376748Y-9812160D02*
X11367224Y-9793112D01*
X11367224Y-9793112D02*
X11367224Y-9621684D01*
X11500558Y-9821684D02*
X11481510Y-9812160D01*
X11481510Y-9812160D02*
X11471986Y-9793112D01*
X11471986Y-9793112D02*
X11471986Y-9621684D01*
X11729129Y-9821684D02*
X11729129Y-9621684D01*
X11729129Y-9621684D02*
X11795796Y-9764541D01*
X11795796Y-9764541D02*
X11862462Y-9621684D01*
X11862462Y-9621684D02*
X11862462Y-9821684D01*
X12043415Y-9821684D02*
X12043415Y-9716922D01*
X12043415Y-9716922D02*
X12033891Y-9697874D01*
X12033891Y-9697874D02*
X12014843Y-9688350D01*
X12014843Y-9688350D02*
X11976748Y-9688350D01*
X11976748Y-9688350D02*
X11957701Y-9697874D01*
X12043415Y-9812160D02*
X12024367Y-9821684D01*
X12024367Y-9821684D02*
X11976748Y-9821684D01*
X11976748Y-9821684D02*
X11957701Y-9812160D01*
X11957701Y-9812160D02*
X11948177Y-9793112D01*
X11948177Y-9793112D02*
X11948177Y-9774065D01*
X11948177Y-9774065D02*
X11957701Y-9755017D01*
X11957701Y-9755017D02*
X11976748Y-9745493D01*
X11976748Y-9745493D02*
X12024367Y-9745493D01*
X12024367Y-9745493D02*
X12043415Y-9735970D01*
X12138653Y-9688350D02*
X12138653Y-9888350D01*
X12138653Y-9697874D02*
X12157701Y-9688350D01*
X12157701Y-9688350D02*
X12195796Y-9688350D01*
X12195796Y-9688350D02*
X12214843Y-9697874D01*
X12214843Y-9697874D02*
X12224367Y-9707398D01*
X12224367Y-9707398D02*
X12233891Y-9726446D01*
X12233891Y-9726446D02*
X12233891Y-9783589D01*
X12233891Y-9783589D02*
X12224367Y-9802636D01*
X12224367Y-9802636D02*
X12214843Y-9812160D01*
X12214843Y-9812160D02*
X12195796Y-9821684D01*
X12195796Y-9821684D02*
X12157701Y-9821684D01*
X12157701Y-9821684D02*
X12138653Y-9812160D01*
X12319605Y-9802636D02*
X12329129Y-9812160D01*
X12329129Y-9812160D02*
X12319605Y-9821684D01*
X12319605Y-9821684D02*
X12310082Y-9812160D01*
X12310082Y-9812160D02*
X12319605Y-9802636D01*
X12319605Y-9802636D02*
X12319605Y-9821684D01*
X12319605Y-9697874D02*
X12329129Y-9707398D01*
X12329129Y-9707398D02*
X12319605Y-9716922D01*
X12319605Y-9716922D02*
X12310082Y-9707398D01*
X12310082Y-9707398D02*
X12319605Y-9697874D01*
X12319605Y-9697874D02*
X12319605Y-9716922D01*
D12*
X10637400Y-10125200D02*
X10687400Y-10175200D01*
X10687400Y-10125200D02*
X10637400Y-10175200D01*
D11*
X10986272Y-10041684D02*
X11005320Y-10041684D01*
X11005320Y-10041684D02*
X11024367Y-10051208D01*
X11024367Y-10051208D02*
X11033891Y-10060731D01*
X11033891Y-10060731D02*
X11043415Y-10079779D01*
X11043415Y-10079779D02*
X11052939Y-10117874D01*
X11052939Y-10117874D02*
X11052939Y-10165493D01*
X11052939Y-10165493D02*
X11043415Y-10203589D01*
X11043415Y-10203589D02*
X11033891Y-10222636D01*
X11033891Y-10222636D02*
X11024367Y-10232160D01*
X11024367Y-10232160D02*
X11005320Y-10241684D01*
X11005320Y-10241684D02*
X10986272Y-10241684D01*
X10986272Y-10241684D02*
X10967224Y-10232160D01*
X10967224Y-10232160D02*
X10957701Y-10222636D01*
X10957701Y-10222636D02*
X10948177Y-10203589D01*
X10948177Y-10203589D02*
X10938653Y-10165493D01*
X10938653Y-10165493D02*
X10938653Y-10117874D01*
X10938653Y-10117874D02*
X10948177Y-10079779D01*
X10948177Y-10079779D02*
X10957701Y-10060731D01*
X10957701Y-10060731D02*
X10967224Y-10051208D01*
X10967224Y-10051208D02*
X10986272Y-10041684D01*
X11138653Y-10222636D02*
X11148177Y-10232160D01*
X11148177Y-10232160D02*
X11138653Y-10241684D01*
X11138653Y-10241684D02*
X11129129Y-10232160D01*
X11129129Y-10232160D02*
X11138653Y-10222636D01*
X11138653Y-10222636D02*
X11138653Y-10241684D01*
X11329129Y-10041684D02*
X11233891Y-10041684D01*
X11233891Y-10041684D02*
X11224367Y-10136922D01*
X11224367Y-10136922D02*
X11233891Y-10127398D01*
X11233891Y-10127398D02*
X11252939Y-10117874D01*
X11252939Y-10117874D02*
X11300558Y-10117874D01*
X11300558Y-10117874D02*
X11319605Y-10127398D01*
X11319605Y-10127398D02*
X11329129Y-10136922D01*
X11329129Y-10136922D02*
X11338653Y-10155970D01*
X11338653Y-10155970D02*
X11338653Y-10203589D01*
X11338653Y-10203589D02*
X11329129Y-10222636D01*
X11329129Y-10222636D02*
X11319605Y-10232160D01*
X11319605Y-10232160D02*
X11300558Y-10241684D01*
X11300558Y-10241684D02*
X11252939Y-10241684D01*
X11252939Y-10241684D02*
X11233891Y-10232160D01*
X11233891Y-10232160D02*
X11224367Y-10222636D01*
X11462462Y-10041684D02*
X11481510Y-10041684D01*
X11481510Y-10041684D02*
X11500558Y-10051208D01*
X11500558Y-10051208D02*
X11510082Y-10060731D01*
X11510082Y-10060731D02*
X11519605Y-10079779D01*
X11519605Y-10079779D02*
X11529129Y-10117874D01*
X11529129Y-10117874D02*
X11529129Y-10165493D01*
X11529129Y-10165493D02*
X11519605Y-10203589D01*
X11519605Y-10203589D02*
X11510082Y-10222636D01*
X11510082Y-10222636D02*
X11500558Y-10232160D01*
X11500558Y-10232160D02*
X11481510Y-10241684D01*
X11481510Y-10241684D02*
X11462462Y-10241684D01*
X11462462Y-10241684D02*
X11443415Y-10232160D01*
X11443415Y-10232160D02*
X11433891Y-10222636D01*
X11433891Y-10222636D02*
X11424367Y-10203589D01*
X11424367Y-10203589D02*
X11414843Y-10165493D01*
X11414843Y-10165493D02*
X11414843Y-10117874D01*
X11414843Y-10117874D02*
X11424367Y-10079779D01*
X11424367Y-10079779D02*
X11433891Y-10060731D01*
X11433891Y-10060731D02*
X11443415Y-10051208D01*
X11443415Y-10051208D02*
X11462462Y-10041684D01*
X11652939Y-10041684D02*
X11671986Y-10041684D01*
X11671986Y-10041684D02*
X11691034Y-10051208D01*
X11691034Y-10051208D02*
X11700558Y-10060731D01*
X11700558Y-10060731D02*
X11710082Y-10079779D01*
X11710082Y-10079779D02*
X11719605Y-10117874D01*
X11719605Y-10117874D02*
X11719605Y-10165493D01*
X11719605Y-10165493D02*
X11710082Y-10203589D01*
X11710082Y-10203589D02*
X11700558Y-10222636D01*
X11700558Y-10222636D02*
X11691034Y-10232160D01*
X11691034Y-10232160D02*
X11671986Y-10241684D01*
X11671986Y-10241684D02*
X11652939Y-10241684D01*
X11652939Y-10241684D02*
X11633891Y-10232160D01*
X11633891Y-10232160D02*
X11624367Y-10222636D01*
X11624367Y-10222636D02*
X11614843Y-10203589D01*
X11614843Y-10203589D02*
X11605320Y-10165493D01*
X11605320Y-10165493D02*
X11605320Y-10117874D01*
X11605320Y-10117874D02*
X11614843Y-10079779D01*
X11614843Y-10079779D02*
X11624367Y-10060731D01*
X11624367Y-10060731D02*
X11633891Y-10051208D01*
X11633891Y-10051208D02*
X11652939Y-10041684D01*
X11805320Y-10241684D02*
X11805320Y-10108350D01*
X11805320Y-10127398D02*
X11814843Y-10117874D01*
X11814843Y-10117874D02*
X11833891Y-10108350D01*
X11833891Y-10108350D02*
X11862463Y-10108350D01*
X11862463Y-10108350D02*
X11881510Y-10117874D01*
X11881510Y-10117874D02*
X11891034Y-10136922D01*
X11891034Y-10136922D02*
X11891034Y-10241684D01*
X11891034Y-10136922D02*
X11900558Y-10117874D01*
X11900558Y-10117874D02*
X11919605Y-10108350D01*
X11919605Y-10108350D02*
X11948177Y-10108350D01*
X11948177Y-10108350D02*
X11967224Y-10117874D01*
X11967224Y-10117874D02*
X11976748Y-10136922D01*
X11976748Y-10136922D02*
X11976748Y-10241684D01*
X12071986Y-10241684D02*
X12071986Y-10108350D01*
X12071986Y-10127398D02*
X12081510Y-10117874D01*
X12081510Y-10117874D02*
X12100558Y-10108350D01*
X12100558Y-10108350D02*
X12129129Y-10108350D01*
X12129129Y-10108350D02*
X12148177Y-10117874D01*
X12148177Y-10117874D02*
X12157701Y-10136922D01*
X12157701Y-10136922D02*
X12157701Y-10241684D01*
X12157701Y-10136922D02*
X12167224Y-10117874D01*
X12167224Y-10117874D02*
X12186272Y-10108350D01*
X12186272Y-10108350D02*
X12214843Y-10108350D01*
X12214843Y-10108350D02*
X12233891Y-10117874D01*
X12233891Y-10117874D02*
X12243415Y-10136922D01*
X12243415Y-10136922D02*
X12243415Y-10241684D01*
X12633891Y-10032160D02*
X12462463Y-10289303D01*
X12891034Y-10041684D02*
X12910082Y-10041684D01*
X12910082Y-10041684D02*
X12929129Y-10051208D01*
X12929129Y-10051208D02*
X12938653Y-10060731D01*
X12938653Y-10060731D02*
X12948177Y-10079779D01*
X12948177Y-10079779D02*
X12957701Y-10117874D01*
X12957701Y-10117874D02*
X12957701Y-10165493D01*
X12957701Y-10165493D02*
X12948177Y-10203589D01*
X12948177Y-10203589D02*
X12938653Y-10222636D01*
X12938653Y-10222636D02*
X12929129Y-10232160D01*
X12929129Y-10232160D02*
X12910082Y-10241684D01*
X12910082Y-10241684D02*
X12891034Y-10241684D01*
X12891034Y-10241684D02*
X12871986Y-10232160D01*
X12871986Y-10232160D02*
X12862463Y-10222636D01*
X12862463Y-10222636D02*
X12852939Y-10203589D01*
X12852939Y-10203589D02*
X12843415Y-10165493D01*
X12843415Y-10165493D02*
X12843415Y-10117874D01*
X12843415Y-10117874D02*
X12852939Y-10079779D01*
X12852939Y-10079779D02*
X12862463Y-10060731D01*
X12862463Y-10060731D02*
X12871986Y-10051208D01*
X12871986Y-10051208D02*
X12891034Y-10041684D01*
X13043415Y-10222636D02*
X13052939Y-10232160D01*
X13052939Y-10232160D02*
X13043415Y-10241684D01*
X13043415Y-10241684D02*
X13033891Y-10232160D01*
X13033891Y-10232160D02*
X13043415Y-10222636D01*
X13043415Y-10222636D02*
X13043415Y-10241684D01*
X13176748Y-10041684D02*
X13195796Y-10041684D01*
X13195796Y-10041684D02*
X13214844Y-10051208D01*
X13214844Y-10051208D02*
X13224367Y-10060731D01*
X13224367Y-10060731D02*
X13233891Y-10079779D01*
X13233891Y-10079779D02*
X13243415Y-10117874D01*
X13243415Y-10117874D02*
X13243415Y-10165493D01*
X13243415Y-10165493D02*
X13233891Y-10203589D01*
X13233891Y-10203589D02*
X13224367Y-10222636D01*
X13224367Y-10222636D02*
X13214844Y-10232160D01*
X13214844Y-10232160D02*
X13195796Y-10241684D01*
X13195796Y-10241684D02*
X13176748Y-10241684D01*
X13176748Y-10241684D02*
X13157701Y-10232160D01*
X13157701Y-10232160D02*
X13148177Y-10222636D01*
X13148177Y-10222636D02*
X13138653Y-10203589D01*
X13138653Y-10203589D02*
X13129129Y-10165493D01*
X13129129Y-10165493D02*
X13129129Y-10117874D01*
X13129129Y-10117874D02*
X13138653Y-10079779D01*
X13138653Y-10079779D02*
X13148177Y-10060731D01*
X13148177Y-10060731D02*
X13157701Y-10051208D01*
X13157701Y-10051208D02*
X13176748Y-10041684D01*
X13433891Y-10241684D02*
X13319606Y-10241684D01*
X13376748Y-10241684D02*
X13376748Y-10041684D01*
X13376748Y-10041684D02*
X13357701Y-10070255D01*
X13357701Y-10070255D02*
X13338653Y-10089303D01*
X13338653Y-10089303D02*
X13319606Y-10098827D01*
X13529129Y-10241684D02*
X13567225Y-10241684D01*
X13567225Y-10241684D02*
X13586272Y-10232160D01*
X13586272Y-10232160D02*
X13595796Y-10222636D01*
X13595796Y-10222636D02*
X13614844Y-10194065D01*
X13614844Y-10194065D02*
X13624367Y-10155970D01*
X13624367Y-10155970D02*
X13624367Y-10079779D01*
X13624367Y-10079779D02*
X13614844Y-10060731D01*
X13614844Y-10060731D02*
X13605320Y-10051208D01*
X13605320Y-10051208D02*
X13586272Y-10041684D01*
X13586272Y-10041684D02*
X13548177Y-10041684D01*
X13548177Y-10041684D02*
X13529129Y-10051208D01*
X13529129Y-10051208D02*
X13519606Y-10060731D01*
X13519606Y-10060731D02*
X13510082Y-10079779D01*
X13510082Y-10079779D02*
X13510082Y-10127398D01*
X13510082Y-10127398D02*
X13519606Y-10146446D01*
X13519606Y-10146446D02*
X13529129Y-10155970D01*
X13529129Y-10155970D02*
X13548177Y-10165493D01*
X13548177Y-10165493D02*
X13586272Y-10165493D01*
X13586272Y-10165493D02*
X13605320Y-10155970D01*
X13605320Y-10155970D02*
X13614844Y-10146446D01*
X13614844Y-10146446D02*
X13624367Y-10127398D01*
X13691034Y-10041684D02*
X13824367Y-10041684D01*
X13824367Y-10041684D02*
X13738653Y-10241684D01*
X13891034Y-10041684D02*
X13891034Y-10079779D01*
X13967225Y-10041684D02*
X13967225Y-10079779D01*
X14262463Y-10317874D02*
X14252939Y-10308350D01*
X14252939Y-10308350D02*
X14233891Y-10279779D01*
X14233891Y-10279779D02*
X14224368Y-10260731D01*
X14224368Y-10260731D02*
X14214844Y-10232160D01*
X14214844Y-10232160D02*
X14205320Y-10184541D01*
X14205320Y-10184541D02*
X14205320Y-10146446D01*
X14205320Y-10146446D02*
X14214844Y-10098827D01*
X14214844Y-10098827D02*
X14224368Y-10070255D01*
X14224368Y-10070255D02*
X14233891Y-10051208D01*
X14233891Y-10051208D02*
X14252939Y-10022636D01*
X14252939Y-10022636D02*
X14262463Y-10013112D01*
X14329129Y-10060731D02*
X14338653Y-10051208D01*
X14338653Y-10051208D02*
X14357701Y-10041684D01*
X14357701Y-10041684D02*
X14405320Y-10041684D01*
X14405320Y-10041684D02*
X14424368Y-10051208D01*
X14424368Y-10051208D02*
X14433891Y-10060731D01*
X14433891Y-10060731D02*
X14443415Y-10079779D01*
X14443415Y-10079779D02*
X14443415Y-10098827D01*
X14443415Y-10098827D02*
X14433891Y-10127398D01*
X14433891Y-10127398D02*
X14319606Y-10241684D01*
X14319606Y-10241684D02*
X14443415Y-10241684D01*
X14681510Y-10241684D02*
X14681510Y-10041684D01*
X14767225Y-10241684D02*
X14767225Y-10136922D01*
X14767225Y-10136922D02*
X14757701Y-10117874D01*
X14757701Y-10117874D02*
X14738653Y-10108350D01*
X14738653Y-10108350D02*
X14710082Y-10108350D01*
X14710082Y-10108350D02*
X14691034Y-10117874D01*
X14691034Y-10117874D02*
X14681510Y-10127398D01*
X14891034Y-10241684D02*
X14871987Y-10232160D01*
X14871987Y-10232160D02*
X14862463Y-10222636D01*
X14862463Y-10222636D02*
X14852939Y-10203589D01*
X14852939Y-10203589D02*
X14852939Y-10146446D01*
X14852939Y-10146446D02*
X14862463Y-10127398D01*
X14862463Y-10127398D02*
X14871987Y-10117874D01*
X14871987Y-10117874D02*
X14891034Y-10108350D01*
X14891034Y-10108350D02*
X14919606Y-10108350D01*
X14919606Y-10108350D02*
X14938653Y-10117874D01*
X14938653Y-10117874D02*
X14948177Y-10127398D01*
X14948177Y-10127398D02*
X14957701Y-10146446D01*
X14957701Y-10146446D02*
X14957701Y-10203589D01*
X14957701Y-10203589D02*
X14948177Y-10222636D01*
X14948177Y-10222636D02*
X14938653Y-10232160D01*
X14938653Y-10232160D02*
X14919606Y-10241684D01*
X14919606Y-10241684D02*
X14891034Y-10241684D01*
X15071987Y-10241684D02*
X15052939Y-10232160D01*
X15052939Y-10232160D02*
X15043415Y-10213112D01*
X15043415Y-10213112D02*
X15043415Y-10041684D01*
X15224368Y-10232160D02*
X15205320Y-10241684D01*
X15205320Y-10241684D02*
X15167225Y-10241684D01*
X15167225Y-10241684D02*
X15148177Y-10232160D01*
X15148177Y-10232160D02*
X15138653Y-10213112D01*
X15138653Y-10213112D02*
X15138653Y-10136922D01*
X15138653Y-10136922D02*
X15148177Y-10117874D01*
X15148177Y-10117874D02*
X15167225Y-10108350D01*
X15167225Y-10108350D02*
X15205320Y-10108350D01*
X15205320Y-10108350D02*
X15224368Y-10117874D01*
X15224368Y-10117874D02*
X15233891Y-10136922D01*
X15233891Y-10136922D02*
X15233891Y-10155970D01*
X15233891Y-10155970D02*
X15138653Y-10175017D01*
X15310082Y-10232160D02*
X15329130Y-10241684D01*
X15329130Y-10241684D02*
X15367225Y-10241684D01*
X15367225Y-10241684D02*
X15386272Y-10232160D01*
X15386272Y-10232160D02*
X15395796Y-10213112D01*
X15395796Y-10213112D02*
X15395796Y-10203589D01*
X15395796Y-10203589D02*
X15386272Y-10184541D01*
X15386272Y-10184541D02*
X15367225Y-10175017D01*
X15367225Y-10175017D02*
X15338653Y-10175017D01*
X15338653Y-10175017D02*
X15319606Y-10165493D01*
X15319606Y-10165493D02*
X15310082Y-10146446D01*
X15310082Y-10146446D02*
X15310082Y-10136922D01*
X15310082Y-10136922D02*
X15319606Y-10117874D01*
X15319606Y-10117874D02*
X15338653Y-10108350D01*
X15338653Y-10108350D02*
X15367225Y-10108350D01*
X15367225Y-10108350D02*
X15386272Y-10117874D01*
X15462463Y-10317874D02*
X15471987Y-10308350D01*
X15471987Y-10308350D02*
X15491034Y-10279779D01*
X15491034Y-10279779D02*
X15500558Y-10260731D01*
X15500558Y-10260731D02*
X15510082Y-10232160D01*
X15510082Y-10232160D02*
X15519606Y-10184541D01*
X15519606Y-10184541D02*
X15519606Y-10146446D01*
X15519606Y-10146446D02*
X15510082Y-10098827D01*
X15510082Y-10098827D02*
X15500558Y-10070255D01*
X15500558Y-10070255D02*
X15491034Y-10051208D01*
X15491034Y-10051208D02*
X15471987Y-10022636D01*
X15471987Y-10022636D02*
X15462463Y-10013112D01*
X15824368Y-10317874D02*
X15814844Y-10308350D01*
X15814844Y-10308350D02*
X15795796Y-10279779D01*
X15795796Y-10279779D02*
X15786272Y-10260731D01*
X15786272Y-10260731D02*
X15776749Y-10232160D01*
X15776749Y-10232160D02*
X15767225Y-10184541D01*
X15767225Y-10184541D02*
X15767225Y-10146446D01*
X15767225Y-10146446D02*
X15776749Y-10098827D01*
X15776749Y-10098827D02*
X15786272Y-10070255D01*
X15786272Y-10070255D02*
X15795796Y-10051208D01*
X15795796Y-10051208D02*
X15814844Y-10022636D01*
X15814844Y-10022636D02*
X15824368Y-10013112D01*
X15900558Y-10108350D02*
X15900558Y-10241684D01*
X15900558Y-10127398D02*
X15910082Y-10117874D01*
X15910082Y-10117874D02*
X15929130Y-10108350D01*
X15929130Y-10108350D02*
X15957701Y-10108350D01*
X15957701Y-10108350D02*
X15976749Y-10117874D01*
X15976749Y-10117874D02*
X15986272Y-10136922D01*
X15986272Y-10136922D02*
X15986272Y-10241684D01*
X16110082Y-10241684D02*
X16091034Y-10232160D01*
X16091034Y-10232160D02*
X16081511Y-10222636D01*
X16081511Y-10222636D02*
X16071987Y-10203589D01*
X16071987Y-10203589D02*
X16071987Y-10146446D01*
X16071987Y-10146446D02*
X16081511Y-10127398D01*
X16081511Y-10127398D02*
X16091034Y-10117874D01*
X16091034Y-10117874D02*
X16110082Y-10108350D01*
X16110082Y-10108350D02*
X16138653Y-10108350D01*
X16138653Y-10108350D02*
X16157701Y-10117874D01*
X16157701Y-10117874D02*
X16167225Y-10127398D01*
X16167225Y-10127398D02*
X16176749Y-10146446D01*
X16176749Y-10146446D02*
X16176749Y-10203589D01*
X16176749Y-10203589D02*
X16167225Y-10222636D01*
X16167225Y-10222636D02*
X16157701Y-10232160D01*
X16157701Y-10232160D02*
X16138653Y-10241684D01*
X16138653Y-10241684D02*
X16110082Y-10241684D01*
X16233892Y-10108350D02*
X16310082Y-10108350D01*
X16262463Y-10041684D02*
X16262463Y-10213112D01*
X16262463Y-10213112D02*
X16271987Y-10232160D01*
X16271987Y-10232160D02*
X16291034Y-10241684D01*
X16291034Y-10241684D02*
X16310082Y-10241684D01*
X16529130Y-10108350D02*
X16529130Y-10308350D01*
X16529130Y-10117874D02*
X16548177Y-10108350D01*
X16548177Y-10108350D02*
X16586273Y-10108350D01*
X16586273Y-10108350D02*
X16605320Y-10117874D01*
X16605320Y-10117874D02*
X16614844Y-10127398D01*
X16614844Y-10127398D02*
X16624368Y-10146446D01*
X16624368Y-10146446D02*
X16624368Y-10203589D01*
X16624368Y-10203589D02*
X16614844Y-10222636D01*
X16614844Y-10222636D02*
X16605320Y-10232160D01*
X16605320Y-10232160D02*
X16586273Y-10241684D01*
X16586273Y-10241684D02*
X16548177Y-10241684D01*
X16548177Y-10241684D02*
X16529130Y-10232160D01*
X16738653Y-10241684D02*
X16719606Y-10232160D01*
X16719606Y-10232160D02*
X16710082Y-10213112D01*
X16710082Y-10213112D02*
X16710082Y-10041684D01*
X16900558Y-10241684D02*
X16900558Y-10136922D01*
X16900558Y-10136922D02*
X16891035Y-10117874D01*
X16891035Y-10117874D02*
X16871987Y-10108350D01*
X16871987Y-10108350D02*
X16833892Y-10108350D01*
X16833892Y-10108350D02*
X16814844Y-10117874D01*
X16900558Y-10232160D02*
X16881511Y-10241684D01*
X16881511Y-10241684D02*
X16833892Y-10241684D01*
X16833892Y-10241684D02*
X16814844Y-10232160D01*
X16814844Y-10232160D02*
X16805320Y-10213112D01*
X16805320Y-10213112D02*
X16805320Y-10194065D01*
X16805320Y-10194065D02*
X16814844Y-10175017D01*
X16814844Y-10175017D02*
X16833892Y-10165493D01*
X16833892Y-10165493D02*
X16881511Y-10165493D01*
X16881511Y-10165493D02*
X16900558Y-10155970D01*
X16967225Y-10108350D02*
X17043415Y-10108350D01*
X16995796Y-10041684D02*
X16995796Y-10213112D01*
X16995796Y-10213112D02*
X17005320Y-10232160D01*
X17005320Y-10232160D02*
X17024368Y-10241684D01*
X17024368Y-10241684D02*
X17043415Y-10241684D01*
X17186273Y-10232160D02*
X17167225Y-10241684D01*
X17167225Y-10241684D02*
X17129130Y-10241684D01*
X17129130Y-10241684D02*
X17110082Y-10232160D01*
X17110082Y-10232160D02*
X17100558Y-10213112D01*
X17100558Y-10213112D02*
X17100558Y-10136922D01*
X17100558Y-10136922D02*
X17110082Y-10117874D01*
X17110082Y-10117874D02*
X17129130Y-10108350D01*
X17129130Y-10108350D02*
X17167225Y-10108350D01*
X17167225Y-10108350D02*
X17186273Y-10117874D01*
X17186273Y-10117874D02*
X17195796Y-10136922D01*
X17195796Y-10136922D02*
X17195796Y-10155970D01*
X17195796Y-10155970D02*
X17100558Y-10175017D01*
X17367225Y-10241684D02*
X17367225Y-10041684D01*
X17367225Y-10232160D02*
X17348177Y-10241684D01*
X17348177Y-10241684D02*
X17310082Y-10241684D01*
X17310082Y-10241684D02*
X17291035Y-10232160D01*
X17291035Y-10232160D02*
X17281511Y-10222636D01*
X17281511Y-10222636D02*
X17271987Y-10203589D01*
X17271987Y-10203589D02*
X17271987Y-10146446D01*
X17271987Y-10146446D02*
X17281511Y-10127398D01*
X17281511Y-10127398D02*
X17291035Y-10117874D01*
X17291035Y-10117874D02*
X17310082Y-10108350D01*
X17310082Y-10108350D02*
X17348177Y-10108350D01*
X17348177Y-10108350D02*
X17367225Y-10117874D01*
X17443416Y-10317874D02*
X17452939Y-10308350D01*
X17452939Y-10308350D02*
X17471987Y-10279779D01*
X17471987Y-10279779D02*
X17481511Y-10260731D01*
X17481511Y-10260731D02*
X17491035Y-10232160D01*
X17491035Y-10232160D02*
X17500558Y-10184541D01*
X17500558Y-10184541D02*
X17500558Y-10146446D01*
X17500558Y-10146446D02*
X17491035Y-10098827D01*
X17491035Y-10098827D02*
X17481511Y-10070255D01*
X17481511Y-10070255D02*
X17471987Y-10051208D01*
X17471987Y-10051208D02*
X17452939Y-10022636D01*
X17452939Y-10022636D02*
X17443416Y-10013112D01*
D12*
X10687400Y-10414200D02*
G75*
G02*
X10597400Y-10414200I-45000J0D01*
G01*
X10597400Y-10414200D02*
G75*
G02*
X10687400Y-10414200I45000J0D01*
G01*
D11*
X10986272Y-10305684D02*
X11005320Y-10305684D01*
X11005320Y-10305684D02*
X11024367Y-10315208D01*
X11024367Y-10315208D02*
X11033891Y-10324731D01*
X11033891Y-10324731D02*
X11043415Y-10343779D01*
X11043415Y-10343779D02*
X11052939Y-10381874D01*
X11052939Y-10381874D02*
X11052939Y-10429493D01*
X11052939Y-10429493D02*
X11043415Y-10467589D01*
X11043415Y-10467589D02*
X11033891Y-10486636D01*
X11033891Y-10486636D02*
X11024367Y-10496160D01*
X11024367Y-10496160D02*
X11005320Y-10505684D01*
X11005320Y-10505684D02*
X10986272Y-10505684D01*
X10986272Y-10505684D02*
X10967224Y-10496160D01*
X10967224Y-10496160D02*
X10957701Y-10486636D01*
X10957701Y-10486636D02*
X10948177Y-10467589D01*
X10948177Y-10467589D02*
X10938653Y-10429493D01*
X10938653Y-10429493D02*
X10938653Y-10381874D01*
X10938653Y-10381874D02*
X10948177Y-10343779D01*
X10948177Y-10343779D02*
X10957701Y-10324731D01*
X10957701Y-10324731D02*
X10967224Y-10315208D01*
X10967224Y-10315208D02*
X10986272Y-10305684D01*
X11138653Y-10486636D02*
X11148177Y-10496160D01*
X11148177Y-10496160D02*
X11138653Y-10505684D01*
X11138653Y-10505684D02*
X11129129Y-10496160D01*
X11129129Y-10496160D02*
X11138653Y-10486636D01*
X11138653Y-10486636D02*
X11138653Y-10505684D01*
X11243415Y-10505684D02*
X11281510Y-10505684D01*
X11281510Y-10505684D02*
X11300558Y-10496160D01*
X11300558Y-10496160D02*
X11310082Y-10486636D01*
X11310082Y-10486636D02*
X11329129Y-10458065D01*
X11329129Y-10458065D02*
X11338653Y-10419970D01*
X11338653Y-10419970D02*
X11338653Y-10343779D01*
X11338653Y-10343779D02*
X11329129Y-10324731D01*
X11329129Y-10324731D02*
X11319605Y-10315208D01*
X11319605Y-10315208D02*
X11300558Y-10305684D01*
X11300558Y-10305684D02*
X11262462Y-10305684D01*
X11262462Y-10305684D02*
X11243415Y-10315208D01*
X11243415Y-10315208D02*
X11233891Y-10324731D01*
X11233891Y-10324731D02*
X11224367Y-10343779D01*
X11224367Y-10343779D02*
X11224367Y-10391398D01*
X11224367Y-10391398D02*
X11233891Y-10410446D01*
X11233891Y-10410446D02*
X11243415Y-10419970D01*
X11243415Y-10419970D02*
X11262462Y-10429493D01*
X11262462Y-10429493D02*
X11300558Y-10429493D01*
X11300558Y-10429493D02*
X11319605Y-10419970D01*
X11319605Y-10419970D02*
X11329129Y-10410446D01*
X11329129Y-10410446D02*
X11338653Y-10391398D01*
X11462462Y-10305684D02*
X11481510Y-10305684D01*
X11481510Y-10305684D02*
X11500558Y-10315208D01*
X11500558Y-10315208D02*
X11510082Y-10324731D01*
X11510082Y-10324731D02*
X11519605Y-10343779D01*
X11519605Y-10343779D02*
X11529129Y-10381874D01*
X11529129Y-10381874D02*
X11529129Y-10429493D01*
X11529129Y-10429493D02*
X11519605Y-10467589D01*
X11519605Y-10467589D02*
X11510082Y-10486636D01*
X11510082Y-10486636D02*
X11500558Y-10496160D01*
X11500558Y-10496160D02*
X11481510Y-10505684D01*
X11481510Y-10505684D02*
X11462462Y-10505684D01*
X11462462Y-10505684D02*
X11443415Y-10496160D01*
X11443415Y-10496160D02*
X11433891Y-10486636D01*
X11433891Y-10486636D02*
X11424367Y-10467589D01*
X11424367Y-10467589D02*
X11414843Y-10429493D01*
X11414843Y-10429493D02*
X11414843Y-10381874D01*
X11414843Y-10381874D02*
X11424367Y-10343779D01*
X11424367Y-10343779D02*
X11433891Y-10324731D01*
X11433891Y-10324731D02*
X11443415Y-10315208D01*
X11443415Y-10315208D02*
X11462462Y-10305684D01*
X11652939Y-10305684D02*
X11671986Y-10305684D01*
X11671986Y-10305684D02*
X11691034Y-10315208D01*
X11691034Y-10315208D02*
X11700558Y-10324731D01*
X11700558Y-10324731D02*
X11710082Y-10343779D01*
X11710082Y-10343779D02*
X11719605Y-10381874D01*
X11719605Y-10381874D02*
X11719605Y-10429493D01*
X11719605Y-10429493D02*
X11710082Y-10467589D01*
X11710082Y-10467589D02*
X11700558Y-10486636D01*
X11700558Y-10486636D02*
X11691034Y-10496160D01*
X11691034Y-10496160D02*
X11671986Y-10505684D01*
X11671986Y-10505684D02*
X11652939Y-10505684D01*
X11652939Y-10505684D02*
X11633891Y-10496160D01*
X11633891Y-10496160D02*
X11624367Y-10486636D01*
X11624367Y-10486636D02*
X11614843Y-10467589D01*
X11614843Y-10467589D02*
X11605320Y-10429493D01*
X11605320Y-10429493D02*
X11605320Y-10381874D01*
X11605320Y-10381874D02*
X11614843Y-10343779D01*
X11614843Y-10343779D02*
X11624367Y-10324731D01*
X11624367Y-10324731D02*
X11633891Y-10315208D01*
X11633891Y-10315208D02*
X11652939Y-10305684D01*
X11805320Y-10505684D02*
X11805320Y-10372350D01*
X11805320Y-10391398D02*
X11814843Y-10381874D01*
X11814843Y-10381874D02*
X11833891Y-10372350D01*
X11833891Y-10372350D02*
X11862463Y-10372350D01*
X11862463Y-10372350D02*
X11881510Y-10381874D01*
X11881510Y-10381874D02*
X11891034Y-10400922D01*
X11891034Y-10400922D02*
X11891034Y-10505684D01*
X11891034Y-10400922D02*
X11900558Y-10381874D01*
X11900558Y-10381874D02*
X11919605Y-10372350D01*
X11919605Y-10372350D02*
X11948177Y-10372350D01*
X11948177Y-10372350D02*
X11967224Y-10381874D01*
X11967224Y-10381874D02*
X11976748Y-10400922D01*
X11976748Y-10400922D02*
X11976748Y-10505684D01*
X12071986Y-10505684D02*
X12071986Y-10372350D01*
X12071986Y-10391398D02*
X12081510Y-10381874D01*
X12081510Y-10381874D02*
X12100558Y-10372350D01*
X12100558Y-10372350D02*
X12129129Y-10372350D01*
X12129129Y-10372350D02*
X12148177Y-10381874D01*
X12148177Y-10381874D02*
X12157701Y-10400922D01*
X12157701Y-10400922D02*
X12157701Y-10505684D01*
X12157701Y-10400922D02*
X12167224Y-10381874D01*
X12167224Y-10381874D02*
X12186272Y-10372350D01*
X12186272Y-10372350D02*
X12214843Y-10372350D01*
X12214843Y-10372350D02*
X12233891Y-10381874D01*
X12233891Y-10381874D02*
X12243415Y-10400922D01*
X12243415Y-10400922D02*
X12243415Y-10505684D01*
X12633891Y-10296160D02*
X12462463Y-10553303D01*
X12891034Y-10305684D02*
X12910082Y-10305684D01*
X12910082Y-10305684D02*
X12929129Y-10315208D01*
X12929129Y-10315208D02*
X12938653Y-10324731D01*
X12938653Y-10324731D02*
X12948177Y-10343779D01*
X12948177Y-10343779D02*
X12957701Y-10381874D01*
X12957701Y-10381874D02*
X12957701Y-10429493D01*
X12957701Y-10429493D02*
X12948177Y-10467589D01*
X12948177Y-10467589D02*
X12938653Y-10486636D01*
X12938653Y-10486636D02*
X12929129Y-10496160D01*
X12929129Y-10496160D02*
X12910082Y-10505684D01*
X12910082Y-10505684D02*
X12891034Y-10505684D01*
X12891034Y-10505684D02*
X12871986Y-10496160D01*
X12871986Y-10496160D02*
X12862463Y-10486636D01*
X12862463Y-10486636D02*
X12852939Y-10467589D01*
X12852939Y-10467589D02*
X12843415Y-10429493D01*
X12843415Y-10429493D02*
X12843415Y-10381874D01*
X12843415Y-10381874D02*
X12852939Y-10343779D01*
X12852939Y-10343779D02*
X12862463Y-10324731D01*
X12862463Y-10324731D02*
X12871986Y-10315208D01*
X12871986Y-10315208D02*
X12891034Y-10305684D01*
X13043415Y-10486636D02*
X13052939Y-10496160D01*
X13052939Y-10496160D02*
X13043415Y-10505684D01*
X13043415Y-10505684D02*
X13033891Y-10496160D01*
X13033891Y-10496160D02*
X13043415Y-10486636D01*
X13043415Y-10486636D02*
X13043415Y-10505684D01*
X13176748Y-10305684D02*
X13195796Y-10305684D01*
X13195796Y-10305684D02*
X13214844Y-10315208D01*
X13214844Y-10315208D02*
X13224367Y-10324731D01*
X13224367Y-10324731D02*
X13233891Y-10343779D01*
X13233891Y-10343779D02*
X13243415Y-10381874D01*
X13243415Y-10381874D02*
X13243415Y-10429493D01*
X13243415Y-10429493D02*
X13233891Y-10467589D01*
X13233891Y-10467589D02*
X13224367Y-10486636D01*
X13224367Y-10486636D02*
X13214844Y-10496160D01*
X13214844Y-10496160D02*
X13195796Y-10505684D01*
X13195796Y-10505684D02*
X13176748Y-10505684D01*
X13176748Y-10505684D02*
X13157701Y-10496160D01*
X13157701Y-10496160D02*
X13148177Y-10486636D01*
X13148177Y-10486636D02*
X13138653Y-10467589D01*
X13138653Y-10467589D02*
X13129129Y-10429493D01*
X13129129Y-10429493D02*
X13129129Y-10381874D01*
X13129129Y-10381874D02*
X13138653Y-10343779D01*
X13138653Y-10343779D02*
X13148177Y-10324731D01*
X13148177Y-10324731D02*
X13157701Y-10315208D01*
X13157701Y-10315208D02*
X13176748Y-10305684D01*
X13310082Y-10305684D02*
X13433891Y-10305684D01*
X13433891Y-10305684D02*
X13367225Y-10381874D01*
X13367225Y-10381874D02*
X13395796Y-10381874D01*
X13395796Y-10381874D02*
X13414844Y-10391398D01*
X13414844Y-10391398D02*
X13424367Y-10400922D01*
X13424367Y-10400922D02*
X13433891Y-10419970D01*
X13433891Y-10419970D02*
X13433891Y-10467589D01*
X13433891Y-10467589D02*
X13424367Y-10486636D01*
X13424367Y-10486636D02*
X13414844Y-10496160D01*
X13414844Y-10496160D02*
X13395796Y-10505684D01*
X13395796Y-10505684D02*
X13338653Y-10505684D01*
X13338653Y-10505684D02*
X13319606Y-10496160D01*
X13319606Y-10496160D02*
X13310082Y-10486636D01*
X13614844Y-10305684D02*
X13519606Y-10305684D01*
X13519606Y-10305684D02*
X13510082Y-10400922D01*
X13510082Y-10400922D02*
X13519606Y-10391398D01*
X13519606Y-10391398D02*
X13538653Y-10381874D01*
X13538653Y-10381874D02*
X13586272Y-10381874D01*
X13586272Y-10381874D02*
X13605320Y-10391398D01*
X13605320Y-10391398D02*
X13614844Y-10400922D01*
X13614844Y-10400922D02*
X13624367Y-10419970D01*
X13624367Y-10419970D02*
X13624367Y-10467589D01*
X13624367Y-10467589D02*
X13614844Y-10486636D01*
X13614844Y-10486636D02*
X13605320Y-10496160D01*
X13605320Y-10496160D02*
X13586272Y-10505684D01*
X13586272Y-10505684D02*
X13538653Y-10505684D01*
X13538653Y-10505684D02*
X13519606Y-10496160D01*
X13519606Y-10496160D02*
X13510082Y-10486636D01*
X13795796Y-10372350D02*
X13795796Y-10505684D01*
X13748177Y-10296160D02*
X13700558Y-10439017D01*
X13700558Y-10439017D02*
X13824367Y-10439017D01*
X13891034Y-10305684D02*
X13891034Y-10343779D01*
X13967225Y-10305684D02*
X13967225Y-10343779D01*
X14262463Y-10581874D02*
X14252939Y-10572350D01*
X14252939Y-10572350D02*
X14233891Y-10543779D01*
X14233891Y-10543779D02*
X14224368Y-10524731D01*
X14224368Y-10524731D02*
X14214844Y-10496160D01*
X14214844Y-10496160D02*
X14205320Y-10448541D01*
X14205320Y-10448541D02*
X14205320Y-10410446D01*
X14205320Y-10410446D02*
X14214844Y-10362827D01*
X14214844Y-10362827D02*
X14224368Y-10334255D01*
X14224368Y-10334255D02*
X14233891Y-10315208D01*
X14233891Y-10315208D02*
X14252939Y-10286636D01*
X14252939Y-10286636D02*
X14262463Y-10277112D01*
X14329129Y-10324731D02*
X14338653Y-10315208D01*
X14338653Y-10315208D02*
X14357701Y-10305684D01*
X14357701Y-10305684D02*
X14405320Y-10305684D01*
X14405320Y-10305684D02*
X14424368Y-10315208D01*
X14424368Y-10315208D02*
X14433891Y-10324731D01*
X14433891Y-10324731D02*
X14443415Y-10343779D01*
X14443415Y-10343779D02*
X14443415Y-10362827D01*
X14443415Y-10362827D02*
X14433891Y-10391398D01*
X14433891Y-10391398D02*
X14319606Y-10505684D01*
X14319606Y-10505684D02*
X14443415Y-10505684D01*
X14681510Y-10505684D02*
X14681510Y-10305684D01*
X14767225Y-10505684D02*
X14767225Y-10400922D01*
X14767225Y-10400922D02*
X14757701Y-10381874D01*
X14757701Y-10381874D02*
X14738653Y-10372350D01*
X14738653Y-10372350D02*
X14710082Y-10372350D01*
X14710082Y-10372350D02*
X14691034Y-10381874D01*
X14691034Y-10381874D02*
X14681510Y-10391398D01*
X14891034Y-10505684D02*
X14871987Y-10496160D01*
X14871987Y-10496160D02*
X14862463Y-10486636D01*
X14862463Y-10486636D02*
X14852939Y-10467589D01*
X14852939Y-10467589D02*
X14852939Y-10410446D01*
X14852939Y-10410446D02*
X14862463Y-10391398D01*
X14862463Y-10391398D02*
X14871987Y-10381874D01*
X14871987Y-10381874D02*
X14891034Y-10372350D01*
X14891034Y-10372350D02*
X14919606Y-10372350D01*
X14919606Y-10372350D02*
X14938653Y-10381874D01*
X14938653Y-10381874D02*
X14948177Y-10391398D01*
X14948177Y-10391398D02*
X14957701Y-10410446D01*
X14957701Y-10410446D02*
X14957701Y-10467589D01*
X14957701Y-10467589D02*
X14948177Y-10486636D01*
X14948177Y-10486636D02*
X14938653Y-10496160D01*
X14938653Y-10496160D02*
X14919606Y-10505684D01*
X14919606Y-10505684D02*
X14891034Y-10505684D01*
X15071987Y-10505684D02*
X15052939Y-10496160D01*
X15052939Y-10496160D02*
X15043415Y-10477112D01*
X15043415Y-10477112D02*
X15043415Y-10305684D01*
X15224368Y-10496160D02*
X15205320Y-10505684D01*
X15205320Y-10505684D02*
X15167225Y-10505684D01*
X15167225Y-10505684D02*
X15148177Y-10496160D01*
X15148177Y-10496160D02*
X15138653Y-10477112D01*
X15138653Y-10477112D02*
X15138653Y-10400922D01*
X15138653Y-10400922D02*
X15148177Y-10381874D01*
X15148177Y-10381874D02*
X15167225Y-10372350D01*
X15167225Y-10372350D02*
X15205320Y-10372350D01*
X15205320Y-10372350D02*
X15224368Y-10381874D01*
X15224368Y-10381874D02*
X15233891Y-10400922D01*
X15233891Y-10400922D02*
X15233891Y-10419970D01*
X15233891Y-10419970D02*
X15138653Y-10439017D01*
X15310082Y-10496160D02*
X15329130Y-10505684D01*
X15329130Y-10505684D02*
X15367225Y-10505684D01*
X15367225Y-10505684D02*
X15386272Y-10496160D01*
X15386272Y-10496160D02*
X15395796Y-10477112D01*
X15395796Y-10477112D02*
X15395796Y-10467589D01*
X15395796Y-10467589D02*
X15386272Y-10448541D01*
X15386272Y-10448541D02*
X15367225Y-10439017D01*
X15367225Y-10439017D02*
X15338653Y-10439017D01*
X15338653Y-10439017D02*
X15319606Y-10429493D01*
X15319606Y-10429493D02*
X15310082Y-10410446D01*
X15310082Y-10410446D02*
X15310082Y-10400922D01*
X15310082Y-10400922D02*
X15319606Y-10381874D01*
X15319606Y-10381874D02*
X15338653Y-10372350D01*
X15338653Y-10372350D02*
X15367225Y-10372350D01*
X15367225Y-10372350D02*
X15386272Y-10381874D01*
X15462463Y-10581874D02*
X15471987Y-10572350D01*
X15471987Y-10572350D02*
X15491034Y-10543779D01*
X15491034Y-10543779D02*
X15500558Y-10524731D01*
X15500558Y-10524731D02*
X15510082Y-10496160D01*
X15510082Y-10496160D02*
X15519606Y-10448541D01*
X15519606Y-10448541D02*
X15519606Y-10410446D01*
X15519606Y-10410446D02*
X15510082Y-10362827D01*
X15510082Y-10362827D02*
X15500558Y-10334255D01*
X15500558Y-10334255D02*
X15491034Y-10315208D01*
X15491034Y-10315208D02*
X15471987Y-10286636D01*
X15471987Y-10286636D02*
X15462463Y-10277112D01*
X15824368Y-10581874D02*
X15814844Y-10572350D01*
X15814844Y-10572350D02*
X15795796Y-10543779D01*
X15795796Y-10543779D02*
X15786272Y-10524731D01*
X15786272Y-10524731D02*
X15776749Y-10496160D01*
X15776749Y-10496160D02*
X15767225Y-10448541D01*
X15767225Y-10448541D02*
X15767225Y-10410446D01*
X15767225Y-10410446D02*
X15776749Y-10362827D01*
X15776749Y-10362827D02*
X15786272Y-10334255D01*
X15786272Y-10334255D02*
X15795796Y-10315208D01*
X15795796Y-10315208D02*
X15814844Y-10286636D01*
X15814844Y-10286636D02*
X15824368Y-10277112D01*
X15900558Y-10372350D02*
X15900558Y-10505684D01*
X15900558Y-10391398D02*
X15910082Y-10381874D01*
X15910082Y-10381874D02*
X15929130Y-10372350D01*
X15929130Y-10372350D02*
X15957701Y-10372350D01*
X15957701Y-10372350D02*
X15976749Y-10381874D01*
X15976749Y-10381874D02*
X15986272Y-10400922D01*
X15986272Y-10400922D02*
X15986272Y-10505684D01*
X16110082Y-10505684D02*
X16091034Y-10496160D01*
X16091034Y-10496160D02*
X16081511Y-10486636D01*
X16081511Y-10486636D02*
X16071987Y-10467589D01*
X16071987Y-10467589D02*
X16071987Y-10410446D01*
X16071987Y-10410446D02*
X16081511Y-10391398D01*
X16081511Y-10391398D02*
X16091034Y-10381874D01*
X16091034Y-10381874D02*
X16110082Y-10372350D01*
X16110082Y-10372350D02*
X16138653Y-10372350D01*
X16138653Y-10372350D02*
X16157701Y-10381874D01*
X16157701Y-10381874D02*
X16167225Y-10391398D01*
X16167225Y-10391398D02*
X16176749Y-10410446D01*
X16176749Y-10410446D02*
X16176749Y-10467589D01*
X16176749Y-10467589D02*
X16167225Y-10486636D01*
X16167225Y-10486636D02*
X16157701Y-10496160D01*
X16157701Y-10496160D02*
X16138653Y-10505684D01*
X16138653Y-10505684D02*
X16110082Y-10505684D01*
X16233892Y-10372350D02*
X16310082Y-10372350D01*
X16262463Y-10305684D02*
X16262463Y-10477112D01*
X16262463Y-10477112D02*
X16271987Y-10496160D01*
X16271987Y-10496160D02*
X16291034Y-10505684D01*
X16291034Y-10505684D02*
X16310082Y-10505684D01*
X16529130Y-10372350D02*
X16529130Y-10572350D01*
X16529130Y-10381874D02*
X16548177Y-10372350D01*
X16548177Y-10372350D02*
X16586273Y-10372350D01*
X16586273Y-10372350D02*
X16605320Y-10381874D01*
X16605320Y-10381874D02*
X16614844Y-10391398D01*
X16614844Y-10391398D02*
X16624368Y-10410446D01*
X16624368Y-10410446D02*
X16624368Y-10467589D01*
X16624368Y-10467589D02*
X16614844Y-10486636D01*
X16614844Y-10486636D02*
X16605320Y-10496160D01*
X16605320Y-10496160D02*
X16586273Y-10505684D01*
X16586273Y-10505684D02*
X16548177Y-10505684D01*
X16548177Y-10505684D02*
X16529130Y-10496160D01*
X16738653Y-10505684D02*
X16719606Y-10496160D01*
X16719606Y-10496160D02*
X16710082Y-10477112D01*
X16710082Y-10477112D02*
X16710082Y-10305684D01*
X16900558Y-10505684D02*
X16900558Y-10400922D01*
X16900558Y-10400922D02*
X16891035Y-10381874D01*
X16891035Y-10381874D02*
X16871987Y-10372350D01*
X16871987Y-10372350D02*
X16833892Y-10372350D01*
X16833892Y-10372350D02*
X16814844Y-10381874D01*
X16900558Y-10496160D02*
X16881511Y-10505684D01*
X16881511Y-10505684D02*
X16833892Y-10505684D01*
X16833892Y-10505684D02*
X16814844Y-10496160D01*
X16814844Y-10496160D02*
X16805320Y-10477112D01*
X16805320Y-10477112D02*
X16805320Y-10458065D01*
X16805320Y-10458065D02*
X16814844Y-10439017D01*
X16814844Y-10439017D02*
X16833892Y-10429493D01*
X16833892Y-10429493D02*
X16881511Y-10429493D01*
X16881511Y-10429493D02*
X16900558Y-10419970D01*
X16967225Y-10372350D02*
X17043415Y-10372350D01*
X16995796Y-10305684D02*
X16995796Y-10477112D01*
X16995796Y-10477112D02*
X17005320Y-10496160D01*
X17005320Y-10496160D02*
X17024368Y-10505684D01*
X17024368Y-10505684D02*
X17043415Y-10505684D01*
X17186273Y-10496160D02*
X17167225Y-10505684D01*
X17167225Y-10505684D02*
X17129130Y-10505684D01*
X17129130Y-10505684D02*
X17110082Y-10496160D01*
X17110082Y-10496160D02*
X17100558Y-10477112D01*
X17100558Y-10477112D02*
X17100558Y-10400922D01*
X17100558Y-10400922D02*
X17110082Y-10381874D01*
X17110082Y-10381874D02*
X17129130Y-10372350D01*
X17129130Y-10372350D02*
X17167225Y-10372350D01*
X17167225Y-10372350D02*
X17186273Y-10381874D01*
X17186273Y-10381874D02*
X17195796Y-10400922D01*
X17195796Y-10400922D02*
X17195796Y-10419970D01*
X17195796Y-10419970D02*
X17100558Y-10439017D01*
X17367225Y-10505684D02*
X17367225Y-10305684D01*
X17367225Y-10496160D02*
X17348177Y-10505684D01*
X17348177Y-10505684D02*
X17310082Y-10505684D01*
X17310082Y-10505684D02*
X17291035Y-10496160D01*
X17291035Y-10496160D02*
X17281511Y-10486636D01*
X17281511Y-10486636D02*
X17271987Y-10467589D01*
X17271987Y-10467589D02*
X17271987Y-10410446D01*
X17271987Y-10410446D02*
X17281511Y-10391398D01*
X17281511Y-10391398D02*
X17291035Y-10381874D01*
X17291035Y-10381874D02*
X17310082Y-10372350D01*
X17310082Y-10372350D02*
X17348177Y-10372350D01*
X17348177Y-10372350D02*
X17367225Y-10381874D01*
X17443416Y-10581874D02*
X17452939Y-10572350D01*
X17452939Y-10572350D02*
X17471987Y-10543779D01*
X17471987Y-10543779D02*
X17481511Y-10524731D01*
X17481511Y-10524731D02*
X17491035Y-10496160D01*
X17491035Y-10496160D02*
X17500558Y-10448541D01*
X17500558Y-10448541D02*
X17500558Y-10410446D01*
X17500558Y-10410446D02*
X17491035Y-10362827D01*
X17491035Y-10362827D02*
X17481511Y-10334255D01*
X17481511Y-10334255D02*
X17471987Y-10315208D01*
X17471987Y-10315208D02*
X17452939Y-10286636D01*
X17452939Y-10286636D02*
X17443416Y-10277112D01*
D12*
X10637400Y-10628200D02*
X10637400Y-10728200D01*
X10587400Y-10678200D02*
X10687400Y-10678200D01*
D11*
X11052939Y-10769684D02*
X10938653Y-10769684D01*
X10995796Y-10769684D02*
X10995796Y-10569684D01*
X10995796Y-10569684D02*
X10976748Y-10598255D01*
X10976748Y-10598255D02*
X10957701Y-10617303D01*
X10957701Y-10617303D02*
X10938653Y-10626827D01*
X11138653Y-10750636D02*
X11148177Y-10760160D01*
X11148177Y-10760160D02*
X11138653Y-10769684D01*
X11138653Y-10769684D02*
X11129129Y-10760160D01*
X11129129Y-10760160D02*
X11138653Y-10750636D01*
X11138653Y-10750636D02*
X11138653Y-10769684D01*
X11271986Y-10569684D02*
X11291034Y-10569684D01*
X11291034Y-10569684D02*
X11310082Y-10579208D01*
X11310082Y-10579208D02*
X11319605Y-10588731D01*
X11319605Y-10588731D02*
X11329129Y-10607779D01*
X11329129Y-10607779D02*
X11338653Y-10645874D01*
X11338653Y-10645874D02*
X11338653Y-10693493D01*
X11338653Y-10693493D02*
X11329129Y-10731589D01*
X11329129Y-10731589D02*
X11319605Y-10750636D01*
X11319605Y-10750636D02*
X11310082Y-10760160D01*
X11310082Y-10760160D02*
X11291034Y-10769684D01*
X11291034Y-10769684D02*
X11271986Y-10769684D01*
X11271986Y-10769684D02*
X11252939Y-10760160D01*
X11252939Y-10760160D02*
X11243415Y-10750636D01*
X11243415Y-10750636D02*
X11233891Y-10731589D01*
X11233891Y-10731589D02*
X11224367Y-10693493D01*
X11224367Y-10693493D02*
X11224367Y-10645874D01*
X11224367Y-10645874D02*
X11233891Y-10607779D01*
X11233891Y-10607779D02*
X11243415Y-10588731D01*
X11243415Y-10588731D02*
X11252939Y-10579208D01*
X11252939Y-10579208D02*
X11271986Y-10569684D01*
X11462462Y-10569684D02*
X11481510Y-10569684D01*
X11481510Y-10569684D02*
X11500558Y-10579208D01*
X11500558Y-10579208D02*
X11510082Y-10588731D01*
X11510082Y-10588731D02*
X11519605Y-10607779D01*
X11519605Y-10607779D02*
X11529129Y-10645874D01*
X11529129Y-10645874D02*
X11529129Y-10693493D01*
X11529129Y-10693493D02*
X11519605Y-10731589D01*
X11519605Y-10731589D02*
X11510082Y-10750636D01*
X11510082Y-10750636D02*
X11500558Y-10760160D01*
X11500558Y-10760160D02*
X11481510Y-10769684D01*
X11481510Y-10769684D02*
X11462462Y-10769684D01*
X11462462Y-10769684D02*
X11443415Y-10760160D01*
X11443415Y-10760160D02*
X11433891Y-10750636D01*
X11433891Y-10750636D02*
X11424367Y-10731589D01*
X11424367Y-10731589D02*
X11414843Y-10693493D01*
X11414843Y-10693493D02*
X11414843Y-10645874D01*
X11414843Y-10645874D02*
X11424367Y-10607779D01*
X11424367Y-10607779D02*
X11433891Y-10588731D01*
X11433891Y-10588731D02*
X11443415Y-10579208D01*
X11443415Y-10579208D02*
X11462462Y-10569684D01*
X11652939Y-10569684D02*
X11671986Y-10569684D01*
X11671986Y-10569684D02*
X11691034Y-10579208D01*
X11691034Y-10579208D02*
X11700558Y-10588731D01*
X11700558Y-10588731D02*
X11710082Y-10607779D01*
X11710082Y-10607779D02*
X11719605Y-10645874D01*
X11719605Y-10645874D02*
X11719605Y-10693493D01*
X11719605Y-10693493D02*
X11710082Y-10731589D01*
X11710082Y-10731589D02*
X11700558Y-10750636D01*
X11700558Y-10750636D02*
X11691034Y-10760160D01*
X11691034Y-10760160D02*
X11671986Y-10769684D01*
X11671986Y-10769684D02*
X11652939Y-10769684D01*
X11652939Y-10769684D02*
X11633891Y-10760160D01*
X11633891Y-10760160D02*
X11624367Y-10750636D01*
X11624367Y-10750636D02*
X11614843Y-10731589D01*
X11614843Y-10731589D02*
X11605320Y-10693493D01*
X11605320Y-10693493D02*
X11605320Y-10645874D01*
X11605320Y-10645874D02*
X11614843Y-10607779D01*
X11614843Y-10607779D02*
X11624367Y-10588731D01*
X11624367Y-10588731D02*
X11633891Y-10579208D01*
X11633891Y-10579208D02*
X11652939Y-10569684D01*
X11805320Y-10769684D02*
X11805320Y-10636350D01*
X11805320Y-10655398D02*
X11814843Y-10645874D01*
X11814843Y-10645874D02*
X11833891Y-10636350D01*
X11833891Y-10636350D02*
X11862463Y-10636350D01*
X11862463Y-10636350D02*
X11881510Y-10645874D01*
X11881510Y-10645874D02*
X11891034Y-10664922D01*
X11891034Y-10664922D02*
X11891034Y-10769684D01*
X11891034Y-10664922D02*
X11900558Y-10645874D01*
X11900558Y-10645874D02*
X11919605Y-10636350D01*
X11919605Y-10636350D02*
X11948177Y-10636350D01*
X11948177Y-10636350D02*
X11967224Y-10645874D01*
X11967224Y-10645874D02*
X11976748Y-10664922D01*
X11976748Y-10664922D02*
X11976748Y-10769684D01*
X12071986Y-10769684D02*
X12071986Y-10636350D01*
X12071986Y-10655398D02*
X12081510Y-10645874D01*
X12081510Y-10645874D02*
X12100558Y-10636350D01*
X12100558Y-10636350D02*
X12129129Y-10636350D01*
X12129129Y-10636350D02*
X12148177Y-10645874D01*
X12148177Y-10645874D02*
X12157701Y-10664922D01*
X12157701Y-10664922D02*
X12157701Y-10769684D01*
X12157701Y-10664922D02*
X12167224Y-10645874D01*
X12167224Y-10645874D02*
X12186272Y-10636350D01*
X12186272Y-10636350D02*
X12214843Y-10636350D01*
X12214843Y-10636350D02*
X12233891Y-10645874D01*
X12233891Y-10645874D02*
X12243415Y-10664922D01*
X12243415Y-10664922D02*
X12243415Y-10769684D01*
X12633891Y-10560160D02*
X12462463Y-10817303D01*
X12891034Y-10569684D02*
X12910082Y-10569684D01*
X12910082Y-10569684D02*
X12929129Y-10579208D01*
X12929129Y-10579208D02*
X12938653Y-10588731D01*
X12938653Y-10588731D02*
X12948177Y-10607779D01*
X12948177Y-10607779D02*
X12957701Y-10645874D01*
X12957701Y-10645874D02*
X12957701Y-10693493D01*
X12957701Y-10693493D02*
X12948177Y-10731589D01*
X12948177Y-10731589D02*
X12938653Y-10750636D01*
X12938653Y-10750636D02*
X12929129Y-10760160D01*
X12929129Y-10760160D02*
X12910082Y-10769684D01*
X12910082Y-10769684D02*
X12891034Y-10769684D01*
X12891034Y-10769684D02*
X12871986Y-10760160D01*
X12871986Y-10760160D02*
X12862463Y-10750636D01*
X12862463Y-10750636D02*
X12852939Y-10731589D01*
X12852939Y-10731589D02*
X12843415Y-10693493D01*
X12843415Y-10693493D02*
X12843415Y-10645874D01*
X12843415Y-10645874D02*
X12852939Y-10607779D01*
X12852939Y-10607779D02*
X12862463Y-10588731D01*
X12862463Y-10588731D02*
X12871986Y-10579208D01*
X12871986Y-10579208D02*
X12891034Y-10569684D01*
X13043415Y-10750636D02*
X13052939Y-10760160D01*
X13052939Y-10760160D02*
X13043415Y-10769684D01*
X13043415Y-10769684D02*
X13033891Y-10760160D01*
X13033891Y-10760160D02*
X13043415Y-10750636D01*
X13043415Y-10750636D02*
X13043415Y-10769684D01*
X13176748Y-10569684D02*
X13195796Y-10569684D01*
X13195796Y-10569684D02*
X13214844Y-10579208D01*
X13214844Y-10579208D02*
X13224367Y-10588731D01*
X13224367Y-10588731D02*
X13233891Y-10607779D01*
X13233891Y-10607779D02*
X13243415Y-10645874D01*
X13243415Y-10645874D02*
X13243415Y-10693493D01*
X13243415Y-10693493D02*
X13233891Y-10731589D01*
X13233891Y-10731589D02*
X13224367Y-10750636D01*
X13224367Y-10750636D02*
X13214844Y-10760160D01*
X13214844Y-10760160D02*
X13195796Y-10769684D01*
X13195796Y-10769684D02*
X13176748Y-10769684D01*
X13176748Y-10769684D02*
X13157701Y-10760160D01*
X13157701Y-10760160D02*
X13148177Y-10750636D01*
X13148177Y-10750636D02*
X13138653Y-10731589D01*
X13138653Y-10731589D02*
X13129129Y-10693493D01*
X13129129Y-10693493D02*
X13129129Y-10645874D01*
X13129129Y-10645874D02*
X13138653Y-10607779D01*
X13138653Y-10607779D02*
X13148177Y-10588731D01*
X13148177Y-10588731D02*
X13157701Y-10579208D01*
X13157701Y-10579208D02*
X13176748Y-10569684D01*
X13310082Y-10569684D02*
X13433891Y-10569684D01*
X13433891Y-10569684D02*
X13367225Y-10645874D01*
X13367225Y-10645874D02*
X13395796Y-10645874D01*
X13395796Y-10645874D02*
X13414844Y-10655398D01*
X13414844Y-10655398D02*
X13424367Y-10664922D01*
X13424367Y-10664922D02*
X13433891Y-10683970D01*
X13433891Y-10683970D02*
X13433891Y-10731589D01*
X13433891Y-10731589D02*
X13424367Y-10750636D01*
X13424367Y-10750636D02*
X13414844Y-10760160D01*
X13414844Y-10760160D02*
X13395796Y-10769684D01*
X13395796Y-10769684D02*
X13338653Y-10769684D01*
X13338653Y-10769684D02*
X13319606Y-10760160D01*
X13319606Y-10760160D02*
X13310082Y-10750636D01*
X13529129Y-10769684D02*
X13567225Y-10769684D01*
X13567225Y-10769684D02*
X13586272Y-10760160D01*
X13586272Y-10760160D02*
X13595796Y-10750636D01*
X13595796Y-10750636D02*
X13614844Y-10722065D01*
X13614844Y-10722065D02*
X13624367Y-10683970D01*
X13624367Y-10683970D02*
X13624367Y-10607779D01*
X13624367Y-10607779D02*
X13614844Y-10588731D01*
X13614844Y-10588731D02*
X13605320Y-10579208D01*
X13605320Y-10579208D02*
X13586272Y-10569684D01*
X13586272Y-10569684D02*
X13548177Y-10569684D01*
X13548177Y-10569684D02*
X13529129Y-10579208D01*
X13529129Y-10579208D02*
X13519606Y-10588731D01*
X13519606Y-10588731D02*
X13510082Y-10607779D01*
X13510082Y-10607779D02*
X13510082Y-10655398D01*
X13510082Y-10655398D02*
X13519606Y-10674446D01*
X13519606Y-10674446D02*
X13529129Y-10683970D01*
X13529129Y-10683970D02*
X13548177Y-10693493D01*
X13548177Y-10693493D02*
X13586272Y-10693493D01*
X13586272Y-10693493D02*
X13605320Y-10683970D01*
X13605320Y-10683970D02*
X13614844Y-10674446D01*
X13614844Y-10674446D02*
X13624367Y-10655398D01*
X13795796Y-10636350D02*
X13795796Y-10769684D01*
X13748177Y-10560160D02*
X13700558Y-10703017D01*
X13700558Y-10703017D02*
X13824367Y-10703017D01*
X13891034Y-10569684D02*
X13891034Y-10607779D01*
X13967225Y-10569684D02*
X13967225Y-10607779D01*
X14262463Y-10845874D02*
X14252939Y-10836350D01*
X14252939Y-10836350D02*
X14233891Y-10807779D01*
X14233891Y-10807779D02*
X14224368Y-10788731D01*
X14224368Y-10788731D02*
X14214844Y-10760160D01*
X14214844Y-10760160D02*
X14205320Y-10712541D01*
X14205320Y-10712541D02*
X14205320Y-10674446D01*
X14205320Y-10674446D02*
X14214844Y-10626827D01*
X14214844Y-10626827D02*
X14224368Y-10598255D01*
X14224368Y-10598255D02*
X14233891Y-10579208D01*
X14233891Y-10579208D02*
X14252939Y-10550636D01*
X14252939Y-10550636D02*
X14262463Y-10541112D01*
X14329129Y-10588731D02*
X14338653Y-10579208D01*
X14338653Y-10579208D02*
X14357701Y-10569684D01*
X14357701Y-10569684D02*
X14405320Y-10569684D01*
X14405320Y-10569684D02*
X14424368Y-10579208D01*
X14424368Y-10579208D02*
X14433891Y-10588731D01*
X14433891Y-10588731D02*
X14443415Y-10607779D01*
X14443415Y-10607779D02*
X14443415Y-10626827D01*
X14443415Y-10626827D02*
X14433891Y-10655398D01*
X14433891Y-10655398D02*
X14319606Y-10769684D01*
X14319606Y-10769684D02*
X14443415Y-10769684D01*
X14681510Y-10769684D02*
X14681510Y-10569684D01*
X14767225Y-10769684D02*
X14767225Y-10664922D01*
X14767225Y-10664922D02*
X14757701Y-10645874D01*
X14757701Y-10645874D02*
X14738653Y-10636350D01*
X14738653Y-10636350D02*
X14710082Y-10636350D01*
X14710082Y-10636350D02*
X14691034Y-10645874D01*
X14691034Y-10645874D02*
X14681510Y-10655398D01*
X14891034Y-10769684D02*
X14871987Y-10760160D01*
X14871987Y-10760160D02*
X14862463Y-10750636D01*
X14862463Y-10750636D02*
X14852939Y-10731589D01*
X14852939Y-10731589D02*
X14852939Y-10674446D01*
X14852939Y-10674446D02*
X14862463Y-10655398D01*
X14862463Y-10655398D02*
X14871987Y-10645874D01*
X14871987Y-10645874D02*
X14891034Y-10636350D01*
X14891034Y-10636350D02*
X14919606Y-10636350D01*
X14919606Y-10636350D02*
X14938653Y-10645874D01*
X14938653Y-10645874D02*
X14948177Y-10655398D01*
X14948177Y-10655398D02*
X14957701Y-10674446D01*
X14957701Y-10674446D02*
X14957701Y-10731589D01*
X14957701Y-10731589D02*
X14948177Y-10750636D01*
X14948177Y-10750636D02*
X14938653Y-10760160D01*
X14938653Y-10760160D02*
X14919606Y-10769684D01*
X14919606Y-10769684D02*
X14891034Y-10769684D01*
X15071987Y-10769684D02*
X15052939Y-10760160D01*
X15052939Y-10760160D02*
X15043415Y-10741112D01*
X15043415Y-10741112D02*
X15043415Y-10569684D01*
X15224368Y-10760160D02*
X15205320Y-10769684D01*
X15205320Y-10769684D02*
X15167225Y-10769684D01*
X15167225Y-10769684D02*
X15148177Y-10760160D01*
X15148177Y-10760160D02*
X15138653Y-10741112D01*
X15138653Y-10741112D02*
X15138653Y-10664922D01*
X15138653Y-10664922D02*
X15148177Y-10645874D01*
X15148177Y-10645874D02*
X15167225Y-10636350D01*
X15167225Y-10636350D02*
X15205320Y-10636350D01*
X15205320Y-10636350D02*
X15224368Y-10645874D01*
X15224368Y-10645874D02*
X15233891Y-10664922D01*
X15233891Y-10664922D02*
X15233891Y-10683970D01*
X15233891Y-10683970D02*
X15138653Y-10703017D01*
X15310082Y-10760160D02*
X15329130Y-10769684D01*
X15329130Y-10769684D02*
X15367225Y-10769684D01*
X15367225Y-10769684D02*
X15386272Y-10760160D01*
X15386272Y-10760160D02*
X15395796Y-10741112D01*
X15395796Y-10741112D02*
X15395796Y-10731589D01*
X15395796Y-10731589D02*
X15386272Y-10712541D01*
X15386272Y-10712541D02*
X15367225Y-10703017D01*
X15367225Y-10703017D02*
X15338653Y-10703017D01*
X15338653Y-10703017D02*
X15319606Y-10693493D01*
X15319606Y-10693493D02*
X15310082Y-10674446D01*
X15310082Y-10674446D02*
X15310082Y-10664922D01*
X15310082Y-10664922D02*
X15319606Y-10645874D01*
X15319606Y-10645874D02*
X15338653Y-10636350D01*
X15338653Y-10636350D02*
X15367225Y-10636350D01*
X15367225Y-10636350D02*
X15386272Y-10645874D01*
X15462463Y-10845874D02*
X15471987Y-10836350D01*
X15471987Y-10836350D02*
X15491034Y-10807779D01*
X15491034Y-10807779D02*
X15500558Y-10788731D01*
X15500558Y-10788731D02*
X15510082Y-10760160D01*
X15510082Y-10760160D02*
X15519606Y-10712541D01*
X15519606Y-10712541D02*
X15519606Y-10674446D01*
X15519606Y-10674446D02*
X15510082Y-10626827D01*
X15510082Y-10626827D02*
X15500558Y-10598255D01*
X15500558Y-10598255D02*
X15491034Y-10579208D01*
X15491034Y-10579208D02*
X15471987Y-10550636D01*
X15471987Y-10550636D02*
X15462463Y-10541112D01*
X15824368Y-10845874D02*
X15814844Y-10836350D01*
X15814844Y-10836350D02*
X15795796Y-10807779D01*
X15795796Y-10807779D02*
X15786272Y-10788731D01*
X15786272Y-10788731D02*
X15776749Y-10760160D01*
X15776749Y-10760160D02*
X15767225Y-10712541D01*
X15767225Y-10712541D02*
X15767225Y-10674446D01*
X15767225Y-10674446D02*
X15776749Y-10626827D01*
X15776749Y-10626827D02*
X15786272Y-10598255D01*
X15786272Y-10598255D02*
X15795796Y-10579208D01*
X15795796Y-10579208D02*
X15814844Y-10550636D01*
X15814844Y-10550636D02*
X15824368Y-10541112D01*
X15900558Y-10636350D02*
X15900558Y-10769684D01*
X15900558Y-10655398D02*
X15910082Y-10645874D01*
X15910082Y-10645874D02*
X15929130Y-10636350D01*
X15929130Y-10636350D02*
X15957701Y-10636350D01*
X15957701Y-10636350D02*
X15976749Y-10645874D01*
X15976749Y-10645874D02*
X15986272Y-10664922D01*
X15986272Y-10664922D02*
X15986272Y-10769684D01*
X16110082Y-10769684D02*
X16091034Y-10760160D01*
X16091034Y-10760160D02*
X16081511Y-10750636D01*
X16081511Y-10750636D02*
X16071987Y-10731589D01*
X16071987Y-10731589D02*
X16071987Y-10674446D01*
X16071987Y-10674446D02*
X16081511Y-10655398D01*
X16081511Y-10655398D02*
X16091034Y-10645874D01*
X16091034Y-10645874D02*
X16110082Y-10636350D01*
X16110082Y-10636350D02*
X16138653Y-10636350D01*
X16138653Y-10636350D02*
X16157701Y-10645874D01*
X16157701Y-10645874D02*
X16167225Y-10655398D01*
X16167225Y-10655398D02*
X16176749Y-10674446D01*
X16176749Y-10674446D02*
X16176749Y-10731589D01*
X16176749Y-10731589D02*
X16167225Y-10750636D01*
X16167225Y-10750636D02*
X16157701Y-10760160D01*
X16157701Y-10760160D02*
X16138653Y-10769684D01*
X16138653Y-10769684D02*
X16110082Y-10769684D01*
X16233892Y-10636350D02*
X16310082Y-10636350D01*
X16262463Y-10569684D02*
X16262463Y-10741112D01*
X16262463Y-10741112D02*
X16271987Y-10760160D01*
X16271987Y-10760160D02*
X16291034Y-10769684D01*
X16291034Y-10769684D02*
X16310082Y-10769684D01*
X16529130Y-10636350D02*
X16529130Y-10836350D01*
X16529130Y-10645874D02*
X16548177Y-10636350D01*
X16548177Y-10636350D02*
X16586273Y-10636350D01*
X16586273Y-10636350D02*
X16605320Y-10645874D01*
X16605320Y-10645874D02*
X16614844Y-10655398D01*
X16614844Y-10655398D02*
X16624368Y-10674446D01*
X16624368Y-10674446D02*
X16624368Y-10731589D01*
X16624368Y-10731589D02*
X16614844Y-10750636D01*
X16614844Y-10750636D02*
X16605320Y-10760160D01*
X16605320Y-10760160D02*
X16586273Y-10769684D01*
X16586273Y-10769684D02*
X16548177Y-10769684D01*
X16548177Y-10769684D02*
X16529130Y-10760160D01*
X16738653Y-10769684D02*
X16719606Y-10760160D01*
X16719606Y-10760160D02*
X16710082Y-10741112D01*
X16710082Y-10741112D02*
X16710082Y-10569684D01*
X16900558Y-10769684D02*
X16900558Y-10664922D01*
X16900558Y-10664922D02*
X16891035Y-10645874D01*
X16891035Y-10645874D02*
X16871987Y-10636350D01*
X16871987Y-10636350D02*
X16833892Y-10636350D01*
X16833892Y-10636350D02*
X16814844Y-10645874D01*
X16900558Y-10760160D02*
X16881511Y-10769684D01*
X16881511Y-10769684D02*
X16833892Y-10769684D01*
X16833892Y-10769684D02*
X16814844Y-10760160D01*
X16814844Y-10760160D02*
X16805320Y-10741112D01*
X16805320Y-10741112D02*
X16805320Y-10722065D01*
X16805320Y-10722065D02*
X16814844Y-10703017D01*
X16814844Y-10703017D02*
X16833892Y-10693493D01*
X16833892Y-10693493D02*
X16881511Y-10693493D01*
X16881511Y-10693493D02*
X16900558Y-10683970D01*
X16967225Y-10636350D02*
X17043415Y-10636350D01*
X16995796Y-10569684D02*
X16995796Y-10741112D01*
X16995796Y-10741112D02*
X17005320Y-10760160D01*
X17005320Y-10760160D02*
X17024368Y-10769684D01*
X17024368Y-10769684D02*
X17043415Y-10769684D01*
X17186273Y-10760160D02*
X17167225Y-10769684D01*
X17167225Y-10769684D02*
X17129130Y-10769684D01*
X17129130Y-10769684D02*
X17110082Y-10760160D01*
X17110082Y-10760160D02*
X17100558Y-10741112D01*
X17100558Y-10741112D02*
X17100558Y-10664922D01*
X17100558Y-10664922D02*
X17110082Y-10645874D01*
X17110082Y-10645874D02*
X17129130Y-10636350D01*
X17129130Y-10636350D02*
X17167225Y-10636350D01*
X17167225Y-10636350D02*
X17186273Y-10645874D01*
X17186273Y-10645874D02*
X17195796Y-10664922D01*
X17195796Y-10664922D02*
X17195796Y-10683970D01*
X17195796Y-10683970D02*
X17100558Y-10703017D01*
X17367225Y-10769684D02*
X17367225Y-10569684D01*
X17367225Y-10760160D02*
X17348177Y-10769684D01*
X17348177Y-10769684D02*
X17310082Y-10769684D01*
X17310082Y-10769684D02*
X17291035Y-10760160D01*
X17291035Y-10760160D02*
X17281511Y-10750636D01*
X17281511Y-10750636D02*
X17271987Y-10731589D01*
X17271987Y-10731589D02*
X17271987Y-10674446D01*
X17271987Y-10674446D02*
X17281511Y-10655398D01*
X17281511Y-10655398D02*
X17291035Y-10645874D01*
X17291035Y-10645874D02*
X17310082Y-10636350D01*
X17310082Y-10636350D02*
X17348177Y-10636350D01*
X17348177Y-10636350D02*
X17367225Y-10645874D01*
X17443416Y-10845874D02*
X17452939Y-10836350D01*
X17452939Y-10836350D02*
X17471987Y-10807779D01*
X17471987Y-10807779D02*
X17481511Y-10788731D01*
X17481511Y-10788731D02*
X17491035Y-10760160D01*
X17491035Y-10760160D02*
X17500558Y-10712541D01*
X17500558Y-10712541D02*
X17500558Y-10674446D01*
X17500558Y-10674446D02*
X17491035Y-10626827D01*
X17491035Y-10626827D02*
X17481511Y-10598255D01*
X17481511Y-10598255D02*
X17471987Y-10579208D01*
X17471987Y-10579208D02*
X17452939Y-10550636D01*
X17452939Y-10550636D02*
X17443416Y-10541112D01*
M02*
