G04 #@! TF.GenerationSoftware,KiCad,Pcbnew,8.0.1*
G04 #@! TF.CreationDate,2024-03-31T00:43:17+03:00*
G04 #@! TF.ProjectId,Master board,4d617374-6572-4206-926f-6172642e6b69,rev?*
G04 #@! TF.SameCoordinates,Original*
G04 #@! TF.FileFunction,Legend,Top*
G04 #@! TF.FilePolarity,Positive*
%FSLAX46Y46*%
G04 Gerber Fmt 4.6, Leading zero omitted, Abs format (unit mm)*
G04 Created by KiCad (PCBNEW 8.0.1) date 2024-03-31 00:43:17*
%MOMM*%
%LPD*%
G01*
G04 APERTURE LIST*
G04 Aperture macros list*
%AMRoundRect*
0 Rectangle with rounded corners*
0 $1 Rounding radius*
0 $2 $3 $4 $5 $6 $7 $8 $9 X,Y pos of 4 corners*
0 Add a 4 corners polygon primitive as box body*
4,1,4,$2,$3,$4,$5,$6,$7,$8,$9,$2,$3,0*
0 Add four circle primitives for the rounded corners*
1,1,$1+$1,$2,$3*
1,1,$1+$1,$4,$5*
1,1,$1+$1,$6,$7*
1,1,$1+$1,$8,$9*
0 Add four rect primitives between the rounded corners*
20,1,$1+$1,$2,$3,$4,$5,0*
20,1,$1+$1,$4,$5,$6,$7,0*
20,1,$1+$1,$6,$7,$8,$9,0*
20,1,$1+$1,$8,$9,$2,$3,0*%
G04 Aperture macros list end*
%ADD10C,0.120000*%
%ADD11C,0.100000*%
%ADD12C,0.150000*%
%ADD13C,0.000000*%
%ADD14C,0.350000*%
%ADD15C,1.600000*%
%ADD16RoundRect,0.225000X0.250000X-0.225000X0.250000X0.225000X-0.250000X0.225000X-0.250000X-0.225000X0*%
%ADD17C,0.500000*%
%ADD18R,0.400000X1.800000*%
%ADD19O,1.090000X2.000000*%
%ADD20O,1.050000X1.600000*%
%ADD21RoundRect,0.200000X-0.600000X0.200000X-0.600000X-0.200000X0.600000X-0.200000X0.600000X0.200000X0*%
%ADD22RoundRect,0.250001X-1.249999X0.799999X-1.249999X-0.799999X1.249999X-0.799999X1.249999X0.799999X0*%
%ADD23C,0.900000*%
%ADD24R,0.700000X1.500000*%
%ADD25R,1.000000X0.800000*%
%ADD26RoundRect,0.250000X-0.375000X-0.625000X0.375000X-0.625000X0.375000X0.625000X-0.375000X0.625000X0*%
%ADD27RoundRect,0.250000X0.250000X-0.750000X0.250000X0.750000X-0.250000X0.750000X-0.250000X-0.750000X0*%
%ADD28R,2.500000X1.900000*%
%ADD29C,1.000000*%
%ADD30O,1.000000X1.000000*%
%ADD31RoundRect,0.225000X-0.017678X0.335876X-0.335876X0.017678X0.017678X-0.335876X0.335876X-0.017678X0*%
%ADD32RoundRect,0.200000X-0.200000X-0.275000X0.200000X-0.275000X0.200000X0.275000X-0.200000X0.275000X0*%
%ADD33C,1.524000*%
%ADD34RoundRect,0.250000X-0.300000X0.300000X-0.300000X-0.300000X0.300000X-0.300000X0.300000X0.300000X0*%
%ADD35RoundRect,0.250000X0.300000X-0.300000X0.300000X0.300000X-0.300000X0.300000X-0.300000X-0.300000X0*%
%ADD36C,0.700000*%
%ADD37C,4.400000*%
%ADD38RoundRect,0.225000X-0.225000X-0.250000X0.225000X-0.250000X0.225000X0.250000X-0.225000X0.250000X0*%
%ADD39RoundRect,0.250000X0.375000X0.625000X-0.375000X0.625000X-0.375000X-0.625000X0.375000X-0.625000X0*%
%ADD40RoundRect,0.250000X1.100000X-0.325000X1.100000X0.325000X-1.100000X0.325000X-1.100000X-0.325000X0*%
%ADD41R,0.900000X1.500000*%
%ADD42RoundRect,0.150000X0.825000X0.150000X-0.825000X0.150000X-0.825000X-0.150000X0.825000X-0.150000X0*%
%ADD43RoundRect,0.225000X-0.250000X0.225000X-0.250000X-0.225000X0.250000X-0.225000X0.250000X0.225000X0*%
%ADD44RoundRect,0.200000X0.200000X0.275000X-0.200000X0.275000X-0.200000X-0.275000X0.200000X-0.275000X0*%
%ADD45R,1.910000X0.610000*%
%ADD46R,1.205000X1.550000*%
%ADD47RoundRect,0.200000X0.600000X-0.200000X0.600000X0.200000X-0.600000X0.200000X-0.600000X-0.200000X0*%
%ADD48RoundRect,0.250001X1.249999X-0.799999X1.249999X0.799999X-1.249999X0.799999X-1.249999X-0.799999X0*%
%ADD49RoundRect,0.200000X0.275000X-0.200000X0.275000X0.200000X-0.275000X0.200000X-0.275000X-0.200000X0*%
%ADD50RoundRect,0.250000X0.900000X-1.000000X0.900000X1.000000X-0.900000X1.000000X-0.900000X-1.000000X0*%
%ADD51C,1.400000*%
%ADD52C,3.500000*%
%ADD53RoundRect,0.225000X0.225000X0.250000X-0.225000X0.250000X-0.225000X-0.250000X0.225000X-0.250000X0*%
G04 APERTURE END LIST*
D10*
X148468750Y-83524000D02*
X148468750Y-88624000D01*
X144204500Y-88624000D02*
X152733000Y-88624000D01*
X144204500Y-88624000D02*
X144204500Y-83524000D01*
X152733000Y-83524000D02*
X152733000Y-88624000D01*
X152733000Y-83524000D02*
X144204500Y-83524000D01*
D11*
X146186360Y-93816419D02*
X146281598Y-93816419D01*
X146281598Y-93816419D02*
X146376836Y-93864038D01*
X146376836Y-93864038D02*
X146424455Y-93911657D01*
X146424455Y-93911657D02*
X146472074Y-94006895D01*
X146472074Y-94006895D02*
X146519693Y-94197371D01*
X146519693Y-94197371D02*
X146519693Y-94435466D01*
X146519693Y-94435466D02*
X146472074Y-94625942D01*
X146472074Y-94625942D02*
X146424455Y-94721180D01*
X146424455Y-94721180D02*
X146376836Y-94768800D01*
X146376836Y-94768800D02*
X146281598Y-94816419D01*
X146281598Y-94816419D02*
X146186360Y-94816419D01*
X146186360Y-94816419D02*
X146091122Y-94768800D01*
X146091122Y-94768800D02*
X146043503Y-94721180D01*
X146043503Y-94721180D02*
X145995884Y-94625942D01*
X145995884Y-94625942D02*
X145948265Y-94435466D01*
X145948265Y-94435466D02*
X145948265Y-94197371D01*
X145948265Y-94197371D02*
X145995884Y-94006895D01*
X145995884Y-94006895D02*
X146043503Y-93911657D01*
X146043503Y-93911657D02*
X146091122Y-93864038D01*
X146091122Y-93864038D02*
X146186360Y-93816419D01*
X156732884Y-91915419D02*
X156732884Y-92724942D01*
X156732884Y-92724942D02*
X156780503Y-92820180D01*
X156780503Y-92820180D02*
X156828122Y-92867800D01*
X156828122Y-92867800D02*
X156923360Y-92915419D01*
X156923360Y-92915419D02*
X157113836Y-92915419D01*
X157113836Y-92915419D02*
X157209074Y-92867800D01*
X157209074Y-92867800D02*
X157256693Y-92820180D01*
X157256693Y-92820180D02*
X157304312Y-92724942D01*
X157304312Y-92724942D02*
X157304312Y-91915419D01*
X157732884Y-92629704D02*
X158209074Y-92629704D01*
X157637646Y-92915419D02*
X157970979Y-91915419D01*
X157970979Y-91915419D02*
X158304312Y-92915419D01*
X159209074Y-92915419D02*
X158875741Y-92439228D01*
X158637646Y-92915419D02*
X158637646Y-91915419D01*
X158637646Y-91915419D02*
X159018598Y-91915419D01*
X159018598Y-91915419D02*
X159113836Y-91963038D01*
X159113836Y-91963038D02*
X159161455Y-92010657D01*
X159161455Y-92010657D02*
X159209074Y-92105895D01*
X159209074Y-92105895D02*
X159209074Y-92248752D01*
X159209074Y-92248752D02*
X159161455Y-92343990D01*
X159161455Y-92343990D02*
X159113836Y-92391609D01*
X159113836Y-92391609D02*
X159018598Y-92439228D01*
X159018598Y-92439228D02*
X158637646Y-92439228D01*
X159494789Y-91915419D02*
X160066217Y-91915419D01*
X159780503Y-92915419D02*
X159780503Y-91915419D01*
X123751741Y-75445180D02*
X123704122Y-75492800D01*
X123704122Y-75492800D02*
X123561265Y-75540419D01*
X123561265Y-75540419D02*
X123466027Y-75540419D01*
X123466027Y-75540419D02*
X123323170Y-75492800D01*
X123323170Y-75492800D02*
X123227932Y-75397561D01*
X123227932Y-75397561D02*
X123180313Y-75302323D01*
X123180313Y-75302323D02*
X123132694Y-75111847D01*
X123132694Y-75111847D02*
X123132694Y-74968990D01*
X123132694Y-74968990D02*
X123180313Y-74778514D01*
X123180313Y-74778514D02*
X123227932Y-74683276D01*
X123227932Y-74683276D02*
X123323170Y-74588038D01*
X123323170Y-74588038D02*
X123466027Y-74540419D01*
X123466027Y-74540419D02*
X123561265Y-74540419D01*
X123561265Y-74540419D02*
X123704122Y-74588038D01*
X123704122Y-74588038D02*
X123751741Y-74635657D01*
X124132694Y-75254704D02*
X124608884Y-75254704D01*
X124037456Y-75540419D02*
X124370789Y-74540419D01*
X124370789Y-74540419D02*
X124704122Y-75540419D01*
X125037456Y-75540419D02*
X125037456Y-74540419D01*
X125037456Y-74540419D02*
X125608884Y-75540419D01*
X125608884Y-75540419D02*
X125608884Y-74540419D01*
X126275551Y-74540419D02*
X126370789Y-74540419D01*
X126370789Y-74540419D02*
X126466027Y-74588038D01*
X126466027Y-74588038D02*
X126513646Y-74635657D01*
X126513646Y-74635657D02*
X126561265Y-74730895D01*
X126561265Y-74730895D02*
X126608884Y-74921371D01*
X126608884Y-74921371D02*
X126608884Y-75159466D01*
X126608884Y-75159466D02*
X126561265Y-75349942D01*
X126561265Y-75349942D02*
X126513646Y-75445180D01*
X126513646Y-75445180D02*
X126466027Y-75492800D01*
X126466027Y-75492800D02*
X126370789Y-75540419D01*
X126370789Y-75540419D02*
X126275551Y-75540419D01*
X126275551Y-75540419D02*
X126180313Y-75492800D01*
X126180313Y-75492800D02*
X126132694Y-75445180D01*
X126132694Y-75445180D02*
X126085075Y-75349942D01*
X126085075Y-75349942D02*
X126037456Y-75159466D01*
X126037456Y-75159466D02*
X126037456Y-74921371D01*
X126037456Y-74921371D02*
X126085075Y-74730895D01*
X126085075Y-74730895D02*
X126132694Y-74635657D01*
X126132694Y-74635657D02*
X126180313Y-74588038D01*
X126180313Y-74588038D02*
X126275551Y-74540419D01*
X115350646Y-94929657D02*
X115050646Y-94501085D01*
X114836360Y-94929657D02*
X114836360Y-94029657D01*
X114836360Y-94029657D02*
X115179217Y-94029657D01*
X115179217Y-94029657D02*
X115264932Y-94072514D01*
X115264932Y-94072514D02*
X115307789Y-94115371D01*
X115307789Y-94115371D02*
X115350646Y-94201085D01*
X115350646Y-94201085D02*
X115350646Y-94329657D01*
X115350646Y-94329657D02*
X115307789Y-94415371D01*
X115307789Y-94415371D02*
X115264932Y-94458228D01*
X115264932Y-94458228D02*
X115179217Y-94501085D01*
X115179217Y-94501085D02*
X114836360Y-94501085D01*
X115736360Y-94458228D02*
X116036360Y-94458228D01*
X116164932Y-94929657D02*
X115736360Y-94929657D01*
X115736360Y-94929657D02*
X115736360Y-94029657D01*
X115736360Y-94029657D02*
X116164932Y-94029657D01*
X116507789Y-94886800D02*
X116636361Y-94929657D01*
X116636361Y-94929657D02*
X116850646Y-94929657D01*
X116850646Y-94929657D02*
X116936361Y-94886800D01*
X116936361Y-94886800D02*
X116979218Y-94843942D01*
X116979218Y-94843942D02*
X117022075Y-94758228D01*
X117022075Y-94758228D02*
X117022075Y-94672514D01*
X117022075Y-94672514D02*
X116979218Y-94586800D01*
X116979218Y-94586800D02*
X116936361Y-94543942D01*
X116936361Y-94543942D02*
X116850646Y-94501085D01*
X116850646Y-94501085D02*
X116679218Y-94458228D01*
X116679218Y-94458228D02*
X116593503Y-94415371D01*
X116593503Y-94415371D02*
X116550646Y-94372514D01*
X116550646Y-94372514D02*
X116507789Y-94286800D01*
X116507789Y-94286800D02*
X116507789Y-94201085D01*
X116507789Y-94201085D02*
X116550646Y-94115371D01*
X116550646Y-94115371D02*
X116593503Y-94072514D01*
X116593503Y-94072514D02*
X116679218Y-94029657D01*
X116679218Y-94029657D02*
X116893503Y-94029657D01*
X116893503Y-94029657D02*
X117022075Y-94072514D01*
X117407789Y-94458228D02*
X117707789Y-94458228D01*
X117836361Y-94929657D02*
X117407789Y-94929657D01*
X117407789Y-94929657D02*
X117407789Y-94029657D01*
X117407789Y-94029657D02*
X117836361Y-94029657D01*
X118093504Y-94029657D02*
X118607790Y-94029657D01*
X118350647Y-94929657D02*
X118350647Y-94029657D01*
X123782741Y-86764180D02*
X123735122Y-86811800D01*
X123735122Y-86811800D02*
X123592265Y-86859419D01*
X123592265Y-86859419D02*
X123497027Y-86859419D01*
X123497027Y-86859419D02*
X123354170Y-86811800D01*
X123354170Y-86811800D02*
X123258932Y-86716561D01*
X123258932Y-86716561D02*
X123211313Y-86621323D01*
X123211313Y-86621323D02*
X123163694Y-86430847D01*
X123163694Y-86430847D02*
X123163694Y-86287990D01*
X123163694Y-86287990D02*
X123211313Y-86097514D01*
X123211313Y-86097514D02*
X123258932Y-86002276D01*
X123258932Y-86002276D02*
X123354170Y-85907038D01*
X123354170Y-85907038D02*
X123497027Y-85859419D01*
X123497027Y-85859419D02*
X123592265Y-85859419D01*
X123592265Y-85859419D02*
X123735122Y-85907038D01*
X123735122Y-85907038D02*
X123782741Y-85954657D01*
X124163694Y-86573704D02*
X124639884Y-86573704D01*
X124068456Y-86859419D02*
X124401789Y-85859419D01*
X124401789Y-85859419D02*
X124735122Y-86859419D01*
X125068456Y-86859419D02*
X125068456Y-85859419D01*
X125068456Y-85859419D02*
X125639884Y-86859419D01*
X125639884Y-86859419D02*
X125639884Y-85859419D01*
X126639884Y-86859419D02*
X126068456Y-86859419D01*
X126354170Y-86859419D02*
X126354170Y-85859419D01*
X126354170Y-85859419D02*
X126258932Y-86002276D01*
X126258932Y-86002276D02*
X126163694Y-86097514D01*
X126163694Y-86097514D02*
X126068456Y-86145133D01*
X152144217Y-85962109D02*
X152287074Y-86009728D01*
X152287074Y-86009728D02*
X152334693Y-86057347D01*
X152334693Y-86057347D02*
X152382312Y-86152585D01*
X152382312Y-86152585D02*
X152382312Y-86295442D01*
X152382312Y-86295442D02*
X152334693Y-86390680D01*
X152334693Y-86390680D02*
X152287074Y-86438300D01*
X152287074Y-86438300D02*
X152191836Y-86485919D01*
X152191836Y-86485919D02*
X151810884Y-86485919D01*
X151810884Y-86485919D02*
X151810884Y-85485919D01*
X151810884Y-85485919D02*
X152144217Y-85485919D01*
X152144217Y-85485919D02*
X152239455Y-85533538D01*
X152239455Y-85533538D02*
X152287074Y-85581157D01*
X152287074Y-85581157D02*
X152334693Y-85676395D01*
X152334693Y-85676395D02*
X152334693Y-85771633D01*
X152334693Y-85771633D02*
X152287074Y-85866871D01*
X152287074Y-85866871D02*
X152239455Y-85914490D01*
X152239455Y-85914490D02*
X152144217Y-85962109D01*
X152144217Y-85962109D02*
X151810884Y-85962109D01*
G36*
X128543696Y-69861496D02*
G01*
X128596590Y-69875136D01*
X128643714Y-69897869D01*
X128685067Y-69929695D01*
X128720650Y-69970615D01*
X128750463Y-70020628D01*
X128774506Y-70079735D01*
X128792778Y-70147934D01*
X128801754Y-70198452D01*
X128808166Y-70253012D01*
X128812012Y-70311613D01*
X128813295Y-70374256D01*
X128812012Y-70436543D01*
X128808166Y-70494812D01*
X128801754Y-70549063D01*
X128792778Y-70599295D01*
X128774506Y-70667108D01*
X128750463Y-70725879D01*
X128720650Y-70775609D01*
X128685067Y-70816297D01*
X128643714Y-70847943D01*
X128596590Y-70870548D01*
X128543696Y-70884110D01*
X128485032Y-70888631D01*
X128426456Y-70884110D01*
X128373640Y-70870548D01*
X128326587Y-70847943D01*
X128285295Y-70816297D01*
X128249765Y-70775609D01*
X128219996Y-70725879D01*
X128195989Y-70667108D01*
X128177744Y-70599295D01*
X128168782Y-70549063D01*
X128162380Y-70494812D01*
X128158539Y-70436543D01*
X128157258Y-70374256D01*
X128157263Y-70374011D01*
X128291103Y-70374011D01*
X128291874Y-70428531D01*
X128294187Y-70478761D01*
X128299246Y-70535516D01*
X128306714Y-70585570D01*
X128318856Y-70636786D01*
X128337405Y-70684341D01*
X128340441Y-70690062D01*
X128371904Y-70733156D01*
X128415248Y-70764497D01*
X128467417Y-70778427D01*
X128484788Y-70779210D01*
X128534855Y-70772158D01*
X128581919Y-70747782D01*
X128616569Y-70710956D01*
X128629624Y-70690062D01*
X128648943Y-70644384D01*
X128661726Y-70594776D01*
X128669715Y-70546063D01*
X128675283Y-70490648D01*
X128677995Y-70441491D01*
X128679157Y-70388043D01*
X128679205Y-70374011D01*
X128678431Y-70319366D01*
X128676107Y-70269002D01*
X128671023Y-70212069D01*
X128663518Y-70161826D01*
X128651316Y-70110366D01*
X128632674Y-70062507D01*
X128629624Y-70056740D01*
X128598220Y-70013055D01*
X128554762Y-69981285D01*
X128502288Y-69967164D01*
X128484788Y-69966370D01*
X128435056Y-69973518D01*
X128388183Y-69998229D01*
X128353542Y-70035559D01*
X128340441Y-70056740D01*
X128321216Y-70102726D01*
X128308497Y-70152581D01*
X128300547Y-70201485D01*
X128295006Y-70257080D01*
X128292308Y-70306374D01*
X128291152Y-70359949D01*
X128291103Y-70374011D01*
X128157263Y-70374011D01*
X128158539Y-70311613D01*
X128162380Y-70253012D01*
X128168782Y-70198452D01*
X128177744Y-70147934D01*
X128195989Y-70079735D01*
X128219996Y-70020628D01*
X128249765Y-69970615D01*
X128285295Y-69929695D01*
X128326587Y-69897869D01*
X128373640Y-69875136D01*
X128426456Y-69861496D01*
X128485032Y-69856949D01*
X128543696Y-69861496D01*
G37*
G36*
X129453699Y-70529106D02*
G01*
X129589743Y-70529106D01*
X129589743Y-70638526D01*
X129453699Y-70638526D01*
X129453699Y-70873000D01*
X129324006Y-70873000D01*
X129324006Y-70638526D01*
X128893895Y-70638526D01*
X128893895Y-70529106D01*
X129014795Y-70529106D01*
X129324006Y-70529106D01*
X129324006Y-70062846D01*
X129014795Y-70529106D01*
X128893895Y-70529106D01*
X129352094Y-69856949D01*
X129453699Y-69856949D01*
X129453699Y-70529106D01*
G37*
G36*
X130042080Y-69872581D02*
G01*
X129750943Y-70873000D01*
X129651292Y-70873000D01*
X129942429Y-69872581D01*
X130042080Y-69872581D01*
G37*
G36*
X130750385Y-70873000D02*
G01*
X130083357Y-70873000D01*
X130087859Y-70822804D01*
X130101364Y-70773884D01*
X130123872Y-70726238D01*
X130140266Y-70700320D01*
X130174781Y-70656677D01*
X130208460Y-70620839D01*
X130248821Y-70582339D01*
X130287557Y-70548223D01*
X130330933Y-70512258D01*
X130349582Y-70497354D01*
X130394790Y-70460842D01*
X130435310Y-70426714D01*
X130477749Y-70388910D01*
X130513438Y-70354541D01*
X130550524Y-70314057D01*
X130557921Y-70304891D01*
X130585195Y-70262973D01*
X130605030Y-70212817D01*
X130613460Y-70164455D01*
X130614341Y-70141981D01*
X130608656Y-70089856D01*
X130589485Y-70042406D01*
X130566226Y-70013265D01*
X130524643Y-69984688D01*
X130476871Y-69970079D01*
X130430915Y-69966370D01*
X130381597Y-69971998D01*
X130333655Y-69990974D01*
X130301711Y-70013997D01*
X130270449Y-70052023D01*
X130250213Y-70100611D01*
X130241383Y-70153949D01*
X130107538Y-70153949D01*
X130114321Y-70105122D01*
X130128964Y-70052998D01*
X130150852Y-70006086D01*
X130179987Y-69964387D01*
X130205235Y-69937794D01*
X130245893Y-69906293D01*
X130291788Y-69882529D01*
X130342919Y-69866502D01*
X130399286Y-69858212D01*
X130433846Y-69856949D01*
X130487845Y-69859749D01*
X130537000Y-69868146D01*
X130588228Y-69885020D01*
X130632864Y-69909513D01*
X130665877Y-69936572D01*
X130701674Y-69978781D01*
X130727243Y-70026026D01*
X130742584Y-70078310D01*
X130747618Y-70128190D01*
X130747698Y-70135630D01*
X130743912Y-70188158D01*
X130732555Y-70237541D01*
X130713626Y-70283779D01*
X130687126Y-70326872D01*
X130655017Y-70366194D01*
X130618398Y-70404828D01*
X130581467Y-70440500D01*
X130538704Y-70479332D01*
X130500295Y-70512673D01*
X130458154Y-70548037D01*
X130447035Y-70557193D01*
X130404907Y-70592445D01*
X130359986Y-70631925D01*
X130323663Y-70666314D01*
X130287257Y-70705902D01*
X130264097Y-70747947D01*
X130750385Y-70747947D01*
X130750385Y-70873000D01*
G37*
G36*
X131399826Y-70529106D02*
G01*
X131535870Y-70529106D01*
X131535870Y-70638526D01*
X131399826Y-70638526D01*
X131399826Y-70873000D01*
X131270133Y-70873000D01*
X131270133Y-70638526D01*
X130840022Y-70638526D01*
X130840022Y-70529106D01*
X130960922Y-70529106D01*
X131270133Y-70529106D01*
X131270133Y-70062846D01*
X130960922Y-70529106D01*
X130840022Y-70529106D01*
X131298221Y-69856949D01*
X131399826Y-69856949D01*
X131399826Y-70529106D01*
G37*
X150898693Y-94750419D02*
X150327265Y-94750419D01*
X150612979Y-94750419D02*
X150612979Y-93750419D01*
X150612979Y-93750419D02*
X150517741Y-93893276D01*
X150517741Y-93893276D02*
X150422503Y-93988514D01*
X150422503Y-93988514D02*
X150327265Y-94036133D01*
X144584265Y-86200204D02*
X145060455Y-86200204D01*
X144489027Y-86485919D02*
X144822360Y-85485919D01*
X144822360Y-85485919D02*
X145155693Y-86485919D01*
X157678884Y-70523419D02*
X157678884Y-69523419D01*
X157678884Y-69523419D02*
X158059836Y-69523419D01*
X158059836Y-69523419D02*
X158155074Y-69571038D01*
X158155074Y-69571038D02*
X158202693Y-69618657D01*
X158202693Y-69618657D02*
X158250312Y-69713895D01*
X158250312Y-69713895D02*
X158250312Y-69856752D01*
X158250312Y-69856752D02*
X158202693Y-69951990D01*
X158202693Y-69951990D02*
X158155074Y-69999609D01*
X158155074Y-69999609D02*
X158059836Y-70047228D01*
X158059836Y-70047228D02*
X157678884Y-70047228D01*
X158583646Y-69523419D02*
X158821741Y-70523419D01*
X158821741Y-70523419D02*
X159012217Y-69809133D01*
X159012217Y-69809133D02*
X159202693Y-70523419D01*
X159202693Y-70523419D02*
X159440789Y-69523419D01*
X160393169Y-70523419D02*
X160059836Y-70047228D01*
X159821741Y-70523419D02*
X159821741Y-69523419D01*
X159821741Y-69523419D02*
X160202693Y-69523419D01*
X160202693Y-69523419D02*
X160297931Y-69571038D01*
X160297931Y-69571038D02*
X160345550Y-69618657D01*
X160345550Y-69618657D02*
X160393169Y-69713895D01*
X160393169Y-69713895D02*
X160393169Y-69856752D01*
X160393169Y-69856752D02*
X160345550Y-69951990D01*
X160345550Y-69951990D02*
X160297931Y-69999609D01*
X160297931Y-69999609D02*
X160202693Y-70047228D01*
X160202693Y-70047228D02*
X159821741Y-70047228D01*
D12*
X151913700Y-71655428D02*
X151913700Y-70512571D01*
X152485128Y-71083999D02*
X151342271Y-71083999D01*
X151227571Y-81466700D02*
X152370429Y-81466700D01*
D10*
X133856250Y-69387613D02*
X135396250Y-69387613D01*
X133856250Y-69427613D02*
X135396250Y-69427613D01*
X133857250Y-69347613D02*
X135396250Y-69347613D01*
X133858250Y-69307613D02*
X135396250Y-69307613D01*
X133860250Y-69267613D02*
X135396250Y-69267613D01*
X133863250Y-69227613D02*
X135396250Y-69227613D01*
X133867250Y-69187613D02*
X135396250Y-69187613D01*
X133871250Y-69147613D02*
X135396250Y-69147613D01*
X133875250Y-69107613D02*
X135396250Y-69107613D01*
X133880250Y-69067613D02*
X135396250Y-69067613D01*
X133886250Y-69027613D02*
X135396250Y-69027613D01*
X133893250Y-68987613D02*
X135396250Y-68987613D01*
X133900250Y-68947613D02*
X135396250Y-68947613D01*
X133908250Y-68907613D02*
X135396250Y-68907613D01*
X133916250Y-68867613D02*
X135396250Y-68867613D01*
X133925250Y-68827613D02*
X135396250Y-68827613D01*
X133935250Y-68787613D02*
X135396250Y-68787613D01*
X133945250Y-68747613D02*
X135396250Y-68747613D01*
X133956250Y-68706613D02*
X135396250Y-68706613D01*
X133968250Y-68666613D02*
X135396250Y-68666613D01*
X133981250Y-68626613D02*
X135396250Y-68626613D01*
X133994250Y-68586613D02*
X135396250Y-68586613D01*
X134008250Y-68546613D02*
X135396250Y-68546613D01*
X134022250Y-68506613D02*
X135396250Y-68506613D01*
X134038250Y-68466613D02*
X135396250Y-68466613D01*
X134054250Y-68426613D02*
X135396250Y-68426613D01*
X134071250Y-68386613D02*
X135396250Y-68386613D01*
X134088250Y-68346613D02*
X135396250Y-68346613D01*
X134107250Y-68306613D02*
X135396250Y-68306613D01*
X134126250Y-68266613D02*
X135396250Y-68266613D01*
X134146250Y-68226613D02*
X135396250Y-68226613D01*
X134168250Y-68186613D02*
X135396250Y-68186613D01*
X134189250Y-68146613D02*
X135396250Y-68146613D01*
X134212250Y-68106613D02*
X135396250Y-68106613D01*
X134236250Y-68066613D02*
X135396250Y-68066613D01*
X134261250Y-68026613D02*
X135396250Y-68026613D01*
X134287250Y-67986613D02*
X135396250Y-67986613D01*
X134314250Y-67946613D02*
X135396250Y-67946613D01*
X134341250Y-67906613D02*
X135396250Y-67906613D01*
X134371250Y-67866613D02*
X135396250Y-67866613D01*
X134401250Y-67826613D02*
X135396250Y-67826613D01*
X134432250Y-67786613D02*
X135396250Y-67786613D01*
X134465250Y-67746613D02*
X135396250Y-67746613D01*
X134499250Y-67706613D02*
X135396250Y-67706613D01*
X134535250Y-67666613D02*
X135396250Y-67666613D01*
X134572250Y-67626613D02*
X135396250Y-67626613D01*
X134610250Y-67586613D02*
X135396250Y-67586613D01*
X134651250Y-67546613D02*
X135396250Y-67546613D01*
X134693250Y-67506613D02*
X135396250Y-67506613D01*
X134737250Y-67466613D02*
X135396250Y-67466613D01*
X134783250Y-67426613D02*
X135396250Y-67426613D01*
X134831250Y-67386613D02*
X138041250Y-67386613D01*
X134882250Y-67346613D02*
X137990250Y-67346613D01*
X134936250Y-67306613D02*
X137936250Y-67306613D01*
X134993250Y-67266613D02*
X137879250Y-67266613D01*
X135053250Y-67226613D02*
X137819250Y-67226613D01*
X135117250Y-67186613D02*
X137755250Y-67186613D01*
X135185250Y-67146613D02*
X137687250Y-67146613D01*
X135195250Y-71238613D02*
X135695250Y-71238613D01*
X135258250Y-67106613D02*
X137614250Y-67106613D01*
X135338250Y-67066613D02*
X137534250Y-67066613D01*
X135425250Y-67026613D02*
X137447250Y-67026613D01*
X135445250Y-71488613D02*
X135445250Y-70988613D01*
X135521250Y-66986613D02*
X137351250Y-66986613D01*
X135631250Y-66946613D02*
X137241250Y-66946613D01*
X135759250Y-66906613D02*
X137113250Y-66906613D01*
X135918250Y-66866613D02*
X136954250Y-66866613D01*
X136152250Y-66826613D02*
X136720250Y-66826613D01*
X137476250Y-67426613D02*
X138089250Y-67426613D01*
X137476250Y-67466613D02*
X138135250Y-67466613D01*
X137476250Y-67506613D02*
X138179250Y-67506613D01*
X137476250Y-67546613D02*
X138221250Y-67546613D01*
X137476250Y-67586613D02*
X138262250Y-67586613D01*
X137476250Y-67626613D02*
X138300250Y-67626613D01*
X137476250Y-67666613D02*
X138337250Y-67666613D01*
X137476250Y-67706613D02*
X138373250Y-67706613D01*
X137476250Y-67746613D02*
X138407250Y-67746613D01*
X137476250Y-67786613D02*
X138440250Y-67786613D01*
X137476250Y-67826613D02*
X138471250Y-67826613D01*
X137476250Y-67866613D02*
X138501250Y-67866613D01*
X137476250Y-67906613D02*
X138531250Y-67906613D01*
X137476250Y-67946613D02*
X138558250Y-67946613D01*
X137476250Y-67986613D02*
X138585250Y-67986613D01*
X137476250Y-68026613D02*
X138611250Y-68026613D01*
X137476250Y-68066613D02*
X138636250Y-68066613D01*
X137476250Y-68106613D02*
X138660250Y-68106613D01*
X137476250Y-68146613D02*
X138683250Y-68146613D01*
X137476250Y-68186613D02*
X138704250Y-68186613D01*
X137476250Y-68226613D02*
X138726250Y-68226613D01*
X137476250Y-68266613D02*
X138746250Y-68266613D01*
X137476250Y-68306613D02*
X138765250Y-68306613D01*
X137476250Y-68346613D02*
X138784250Y-68346613D01*
X137476250Y-68386613D02*
X138801250Y-68386613D01*
X137476250Y-68426613D02*
X138818250Y-68426613D01*
X137476250Y-68466613D02*
X138834250Y-68466613D01*
X137476250Y-68506613D02*
X138850250Y-68506613D01*
X137476250Y-68546613D02*
X138864250Y-68546613D01*
X137476250Y-68586613D02*
X138878250Y-68586613D01*
X137476250Y-68626613D02*
X138891250Y-68626613D01*
X137476250Y-68666613D02*
X138904250Y-68666613D01*
X137476250Y-68706613D02*
X138916250Y-68706613D01*
X137476250Y-68747613D02*
X138927250Y-68747613D01*
X137476250Y-68787613D02*
X138937250Y-68787613D01*
X137476250Y-68827613D02*
X138947250Y-68827613D01*
X137476250Y-68867613D02*
X138956250Y-68867613D01*
X137476250Y-68907613D02*
X138964250Y-68907613D01*
X137476250Y-68947613D02*
X138972250Y-68947613D01*
X137476250Y-68987613D02*
X138979250Y-68987613D01*
X137476250Y-69027613D02*
X138986250Y-69027613D01*
X137476250Y-69067613D02*
X138992250Y-69067613D01*
X137476250Y-69107613D02*
X138997250Y-69107613D01*
X137476250Y-69147613D02*
X139001250Y-69147613D01*
X137476250Y-69187613D02*
X139005250Y-69187613D01*
X137476250Y-69227613D02*
X139009250Y-69227613D01*
X137476250Y-69267613D02*
X139012250Y-69267613D01*
X137476250Y-69307613D02*
X139014250Y-69307613D01*
X137476250Y-69347613D02*
X139015250Y-69347613D01*
X137476250Y-69387613D02*
X139016250Y-69387613D01*
X137476250Y-69427613D02*
X139016250Y-69427613D01*
X139056250Y-69427613D02*
G75*
G02*
X133816250Y-69427613I-2620000J0D01*
G01*
X133816250Y-69427613D02*
G75*
G02*
X139056250Y-69427613I2620000J0D01*
G01*
X121334000Y-73895580D02*
X121334000Y-73614420D01*
X122354000Y-73895580D02*
X122354000Y-73614420D01*
X135602000Y-91414000D02*
X135602000Y-90144000D01*
X135602000Y-94970000D02*
X135602000Y-93954000D01*
X136364000Y-94970000D02*
X135602000Y-94970000D01*
X137634000Y-88620000D02*
X136364000Y-88620000D01*
X137634000Y-94970000D02*
X141190000Y-94970000D01*
X142460000Y-88620000D02*
X141190000Y-88620000D01*
X143222000Y-91414000D02*
X143222000Y-90144000D01*
X143222000Y-94970000D02*
X142460000Y-94970000D01*
X143222000Y-94970000D02*
X143222000Y-93954000D01*
X107289000Y-83122000D02*
X107289000Y-92592000D01*
X107289000Y-92592000D02*
X107739000Y-92592000D01*
X107739000Y-83122000D02*
X107289000Y-83122000D01*
X111259000Y-83122000D02*
X111709000Y-83122000D01*
X111259000Y-92592000D02*
X111709000Y-92592000D01*
X111709000Y-83122000D02*
X111709000Y-84072000D01*
X111709000Y-92592000D02*
X111709000Y-91642000D01*
X144892000Y-91607000D02*
X144892000Y-92397000D01*
X145492000Y-93407000D02*
X151192000Y-93407000D01*
X146742000Y-90557000D02*
X148442000Y-90557000D01*
X146942000Y-93407000D02*
X146942000Y-94697000D01*
X146942000Y-94697000D02*
X147142000Y-94907000D01*
X147142000Y-94907000D02*
X148042000Y-94907000D01*
X148242000Y-94697000D02*
X148042000Y-94907000D01*
X148242000Y-94697000D02*
X148242000Y-93407000D01*
X149742000Y-90557000D02*
X149942000Y-90557000D01*
X151792000Y-92397000D02*
X151792000Y-91607000D01*
D13*
G36*
X123542829Y-83909535D02*
G01*
X123548312Y-83911723D01*
X123597511Y-83938950D01*
X123648943Y-83977069D01*
X123698657Y-84022257D01*
X123742704Y-84070696D01*
X123777129Y-84118567D01*
X123792626Y-84147912D01*
X123804772Y-84183607D01*
X123805153Y-84206600D01*
X123794286Y-84216397D01*
X123772681Y-84212511D01*
X123742666Y-84195685D01*
X123719791Y-84178450D01*
X123691547Y-84154832D01*
X123670944Y-84136304D01*
X123640437Y-84108716D01*
X123605142Y-84078114D01*
X123580731Y-84057730D01*
X123538477Y-84020940D01*
X123510445Y-83990727D01*
X123495321Y-83965425D01*
X123491690Y-83944856D01*
X123499108Y-83918846D01*
X123516752Y-83906722D01*
X123542829Y-83909535D01*
G37*
G36*
X118465735Y-80261665D02*
G01*
X118509920Y-80279009D01*
X118549048Y-80309419D01*
X118580344Y-80352029D01*
X118592392Y-80378166D01*
X118604459Y-80430871D01*
X118603511Y-80486892D01*
X118590751Y-80541895D01*
X118567375Y-80591542D01*
X118534591Y-80631501D01*
X118518727Y-80644064D01*
X118482301Y-80660588D01*
X118438665Y-80668206D01*
X118394613Y-80666591D01*
X118356954Y-80655416D01*
X118351019Y-80652146D01*
X118308640Y-80616789D01*
X118278410Y-80571704D01*
X118260510Y-80520049D01*
X118255121Y-80464976D01*
X118262423Y-80409645D01*
X118282605Y-80357211D01*
X118315840Y-80310831D01*
X118330556Y-80296644D01*
X118373281Y-80269619D01*
X118419265Y-80258248D01*
X118465735Y-80261665D01*
G37*
G36*
X123168419Y-84086226D02*
G01*
X123217230Y-84109806D01*
X123264790Y-84144009D01*
X123308396Y-84185978D01*
X123345338Y-84232848D01*
X123372911Y-84281759D01*
X123388403Y-84329848D01*
X123390639Y-84360985D01*
X123386624Y-84380565D01*
X123375968Y-84388093D01*
X123356756Y-84383579D01*
X123327058Y-84367037D01*
X123318546Y-84361538D01*
X123291154Y-84341877D01*
X123257667Y-84315320D01*
X123220451Y-84284048D01*
X123181886Y-84250229D01*
X123144339Y-84216036D01*
X123110187Y-84183644D01*
X123081797Y-84155222D01*
X123061545Y-84132946D01*
X123051801Y-84118991D01*
X123051285Y-84116735D01*
X123060257Y-84097672D01*
X123081647Y-84083184D01*
X123110351Y-84076241D01*
X123121072Y-84076135D01*
X123168419Y-84086226D01*
G37*
G36*
X127918490Y-81276184D02*
G01*
X127929520Y-81277495D01*
X127936092Y-81279472D01*
X127939210Y-81281701D01*
X127938110Y-81290771D01*
X127921078Y-81301398D01*
X127889672Y-81313299D01*
X127845446Y-81326203D01*
X127789960Y-81339833D01*
X127724773Y-81353912D01*
X127651436Y-81368163D01*
X127571511Y-81382312D01*
X127486551Y-81396078D01*
X127398115Y-81409191D01*
X127307760Y-81421368D01*
X127217045Y-81432337D01*
X127127524Y-81441823D01*
X127040752Y-81449544D01*
X126963313Y-81454934D01*
X126825747Y-81460850D01*
X126675904Y-81463387D01*
X126518726Y-81462648D01*
X126359170Y-81458733D01*
X126202192Y-81451748D01*
X126052741Y-81441795D01*
X125969527Y-81434509D01*
X125855486Y-81422636D01*
X125743387Y-81409297D01*
X125635055Y-81394805D01*
X125532316Y-81379476D01*
X125436997Y-81363621D01*
X125350921Y-81347552D01*
X125275913Y-81331583D01*
X125213801Y-81316027D01*
X125166412Y-81301198D01*
X125147425Y-81293530D01*
X125131816Y-81285534D01*
X125131226Y-81280650D01*
X125141434Y-81276333D01*
X125153287Y-81275629D01*
X125181090Y-81275817D01*
X125223235Y-81276834D01*
X125278111Y-81278622D01*
X125344106Y-81281119D01*
X125419618Y-81284266D01*
X125503033Y-81288001D01*
X125592746Y-81292268D01*
X125673039Y-81296277D01*
X125851494Y-81305125D01*
X126014409Y-81312601D01*
X126163763Y-81318710D01*
X126301544Y-81323459D01*
X126429730Y-81326856D01*
X126550311Y-81328906D01*
X126665267Y-81329623D01*
X126776586Y-81329011D01*
X126886250Y-81327075D01*
X126996245Y-81323825D01*
X127108553Y-81319271D01*
X127225164Y-81313415D01*
X127348056Y-81306270D01*
X127402681Y-81302841D01*
X127512722Y-81295844D01*
X127606527Y-81289973D01*
X127685404Y-81285183D01*
X127750663Y-81281417D01*
X127803614Y-81278627D01*
X127845562Y-81276760D01*
X127877817Y-81275767D01*
X127901692Y-81275590D01*
X127918490Y-81276184D01*
G37*
G36*
X120546445Y-76467396D02*
G01*
X120552341Y-76471335D01*
X120567012Y-76486034D01*
X120580974Y-76508859D01*
X120594655Y-76541225D01*
X120608474Y-76584549D01*
X120622858Y-76640252D01*
X120638223Y-76709756D01*
X120654997Y-76794475D01*
X120665578Y-76851355D01*
X120674684Y-76897863D01*
X120682481Y-76929286D01*
X120689728Y-76948004D01*
X120697181Y-76956390D01*
X120699319Y-76957192D01*
X120714390Y-76955075D01*
X120739097Y-76945977D01*
X120766637Y-76932620D01*
X120822058Y-76906955D01*
X120892171Y-76881286D01*
X120974099Y-76856232D01*
X121064959Y-76832414D01*
X121161872Y-76810452D01*
X121261961Y-76790963D01*
X121362343Y-76774571D01*
X121460142Y-76761895D01*
X121552474Y-76753554D01*
X121611948Y-76750638D01*
X121692018Y-76750448D01*
X121773099Y-76754148D01*
X121853015Y-76761315D01*
X121929579Y-76771524D01*
X122000619Y-76784352D01*
X122063954Y-76799373D01*
X122117403Y-76816169D01*
X122158791Y-76834307D01*
X122185932Y-76853376D01*
X122193824Y-76863757D01*
X122196453Y-76870995D01*
X122195457Y-76878575D01*
X122189267Y-76887761D01*
X122176326Y-76899841D01*
X122155062Y-76916087D01*
X122123915Y-76937775D01*
X122081319Y-76966187D01*
X122025711Y-77002598D01*
X122015999Y-77008926D01*
X121945221Y-77056121D01*
X121886069Y-77097816D01*
X121839071Y-77133532D01*
X121804755Y-77162789D01*
X121783647Y-77185099D01*
X121776276Y-77199984D01*
X121783169Y-77206960D01*
X121800100Y-77206398D01*
X121881527Y-77197761D01*
X121976088Y-77195253D01*
X122080574Y-77198516D01*
X122191776Y-77207192D01*
X122306480Y-77220928D01*
X122421484Y-77239365D01*
X122533568Y-77262151D01*
X122639530Y-77288924D01*
X122695819Y-77305791D01*
X122749519Y-77325309D01*
X122803704Y-77349221D01*
X122855928Y-77375988D01*
X122903740Y-77404079D01*
X122944687Y-77431957D01*
X122976323Y-77458088D01*
X122996199Y-77480938D01*
X123002004Y-77497635D01*
X122994621Y-77510298D01*
X122973314Y-77520864D01*
X122937138Y-77529571D01*
X122885150Y-77536651D01*
X122828126Y-77541551D01*
X122736178Y-77551681D01*
X122637387Y-77569867D01*
X122529083Y-77596682D01*
X122418683Y-77629484D01*
X122369338Y-77645148D01*
X122335496Y-77656639D01*
X122315990Y-77665371D01*
X122309652Y-77672756D01*
X122315314Y-77680210D01*
X122331808Y-77689140D01*
X122357964Y-77700964D01*
X122359139Y-77701491D01*
X122596075Y-77817295D01*
X122828926Y-77949563D01*
X123056337Y-78097387D01*
X123276961Y-78259860D01*
X123489449Y-78436080D01*
X123594655Y-78531331D01*
X123647493Y-78582473D01*
X123708194Y-78644364D01*
X123774067Y-78714006D01*
X123842417Y-78788408D01*
X123910557Y-78864573D01*
X123975793Y-78939509D01*
X124035437Y-79010219D01*
X124086789Y-79073715D01*
X124114296Y-79109477D01*
X124276774Y-79340224D01*
X124423406Y-79577286D01*
X124525402Y-79763651D01*
X124587779Y-79884107D01*
X124619529Y-79880891D01*
X124677141Y-79875606D01*
X124750130Y-79869794D01*
X124836299Y-79863572D01*
X124933451Y-79857064D01*
X125039391Y-79850386D01*
X125151921Y-79843656D01*
X125268844Y-79836995D01*
X125387967Y-79830519D01*
X125507092Y-79824352D01*
X125624024Y-79818607D01*
X125736563Y-79813406D01*
X125842517Y-79808871D01*
X125939689Y-79805115D01*
X126025881Y-79802261D01*
X126098900Y-79800428D01*
X126107999Y-79800257D01*
X126236879Y-79798470D01*
X126349735Y-79798059D01*
X126448081Y-79799152D01*
X126533435Y-79801886D01*
X126607310Y-79806389D01*
X126671227Y-79812795D01*
X126726696Y-79821235D01*
X126775236Y-79831842D01*
X126818361Y-79844747D01*
X126857588Y-79860084D01*
X126872348Y-79866842D01*
X126901583Y-79881314D01*
X126929033Y-79896347D01*
X126956730Y-79913432D01*
X126986707Y-79934054D01*
X127020997Y-79959700D01*
X127061631Y-79991856D01*
X127110644Y-80032008D01*
X127170066Y-80081647D01*
X127196970Y-80104297D01*
X127302527Y-80195126D01*
X127408628Y-80289938D01*
X127513669Y-80387120D01*
X127616044Y-80485050D01*
X127714152Y-80582109D01*
X127806379Y-80676683D01*
X127891126Y-80767150D01*
X127966783Y-80851895D01*
X128031750Y-80929297D01*
X128084415Y-80997742D01*
X128086703Y-81000909D01*
X128116312Y-81044126D01*
X128140817Y-81085434D01*
X128161881Y-81128656D01*
X128181184Y-81177624D01*
X128200397Y-81236159D01*
X128221193Y-81308086D01*
X128221500Y-81309200D01*
X128245156Y-81399815D01*
X128262357Y-81478677D01*
X128273797Y-81550093D01*
X128280175Y-81618373D01*
X128282177Y-81684935D01*
X128277690Y-81777622D01*
X128263374Y-81856598D01*
X128238838Y-81922990D01*
X128203684Y-81977930D01*
X128166027Y-82015747D01*
X128133772Y-82039496D01*
X128099057Y-82058047D01*
X128057541Y-82073152D01*
X128004876Y-82086558D01*
X127974639Y-82092849D01*
X127856117Y-82112510D01*
X127722456Y-82127863D01*
X127575552Y-82138958D01*
X127417305Y-82145842D01*
X127249610Y-82148559D01*
X127074367Y-82147158D01*
X126893474Y-82141678D01*
X126708830Y-82132172D01*
X126522329Y-82118684D01*
X126335873Y-82101258D01*
X126151356Y-82079944D01*
X125970677Y-82054784D01*
X125891974Y-82042360D01*
X125837787Y-82033205D01*
X125774354Y-82022039D01*
X125703825Y-82009280D01*
X125628354Y-81995340D01*
X125550089Y-81980641D01*
X125471187Y-81965599D01*
X125393793Y-81950630D01*
X125320068Y-81936151D01*
X125252154Y-81922581D01*
X125192210Y-81910337D01*
X125142385Y-81899838D01*
X125104832Y-81891495D01*
X125081702Y-81885731D01*
X125077525Y-81884441D01*
X125067557Y-81872902D01*
X125056215Y-81845855D01*
X125044634Y-81806468D01*
X125036524Y-81773203D01*
X125030953Y-81747173D01*
X125028764Y-81732444D01*
X125029013Y-81730643D01*
X125038158Y-81731551D01*
X125061735Y-81735756D01*
X125097010Y-81742716D01*
X125141254Y-81751899D01*
X125191738Y-81762757D01*
X125191963Y-81762806D01*
X125335486Y-81792962D01*
X125476469Y-81819963D01*
X125617173Y-81844076D01*
X125759801Y-81865575D01*
X125906590Y-81884725D01*
X126059777Y-81901799D01*
X126221584Y-81917061D01*
X126394249Y-81930786D01*
X126580000Y-81943236D01*
X126781070Y-81954689D01*
X126783046Y-81954793D01*
X126982894Y-81964369D01*
X127165723Y-81971149D01*
X127331876Y-81975132D01*
X127481701Y-81976323D01*
X127615537Y-81974710D01*
X127733728Y-81970301D01*
X127836617Y-81963093D01*
X127924549Y-81953084D01*
X127934624Y-81951619D01*
X127989202Y-81941823D01*
X128029759Y-81930044D01*
X128059854Y-81914545D01*
X128083050Y-81893592D01*
X128099216Y-81871447D01*
X128108852Y-81855238D01*
X128115709Y-81839726D01*
X128120457Y-81821273D01*
X128123762Y-81796244D01*
X128126295Y-81761001D01*
X128128721Y-81711904D01*
X128128780Y-81710573D01*
X128130752Y-81656133D01*
X128130755Y-81613205D01*
X128128372Y-81575783D01*
X128123184Y-81537862D01*
X128114771Y-81493441D01*
X128113081Y-81485247D01*
X128097022Y-81415310D01*
X128077890Y-81343850D01*
X128056969Y-81274957D01*
X128035553Y-81212725D01*
X128014931Y-81161248D01*
X128003258Y-81136814D01*
X127988538Y-81113773D01*
X127963350Y-81080019D01*
X127929410Y-81037518D01*
X127888429Y-80988240D01*
X127842119Y-80934159D01*
X127792192Y-80877240D01*
X127740360Y-80819455D01*
X127688332Y-80762775D01*
X127637824Y-80709168D01*
X127590548Y-80660604D01*
X127582053Y-80652093D01*
X127487678Y-80559590D01*
X127392300Y-80469219D01*
X127297472Y-80382295D01*
X127204734Y-80300133D01*
X127115638Y-80224047D01*
X127031729Y-80155349D01*
X126954559Y-80095355D01*
X126885669Y-80045378D01*
X126826611Y-80006732D01*
X126811798Y-79997980D01*
X126785254Y-79984040D01*
X126759227Y-79974024D01*
X126728473Y-79966460D01*
X126687742Y-79959876D01*
X126665158Y-79956891D01*
X126607559Y-79951389D01*
X126534109Y-79947321D01*
X126446486Y-79944657D01*
X126346361Y-79943358D01*
X126235409Y-79943397D01*
X126115304Y-79944732D01*
X125987720Y-79947337D01*
X125854330Y-79951171D01*
X125716804Y-79956202D01*
X125576822Y-79962400D01*
X125436054Y-79969727D01*
X125296178Y-79978150D01*
X125160555Y-79987508D01*
X125109303Y-79992080D01*
X125051125Y-79998587D01*
X124988878Y-80006575D01*
X124925418Y-80015592D01*
X124863603Y-80025182D01*
X124806287Y-80034892D01*
X124756331Y-80044271D01*
X124716586Y-80052862D01*
X124689917Y-80060212D01*
X124681934Y-80063518D01*
X124677542Y-80069352D01*
X124677728Y-80081425D01*
X124683117Y-80102310D01*
X124694349Y-80134579D01*
X124708821Y-80172514D01*
X124774288Y-80354851D01*
X124831599Y-80543605D01*
X124880100Y-80735556D01*
X124919134Y-80927492D01*
X124948044Y-81116194D01*
X124966172Y-81298444D01*
X124972835Y-81465941D01*
X124973355Y-81508074D01*
X124974258Y-81547676D01*
X124975390Y-81578744D01*
X124976004Y-81589363D01*
X124978581Y-81624712D01*
X124948589Y-81570320D01*
X124874172Y-81450907D01*
X124785722Y-81336147D01*
X124751986Y-81297864D01*
X124643975Y-81192293D01*
X124525605Y-81100383D01*
X124398052Y-81022520D01*
X124262499Y-80959088D01*
X124120104Y-80910467D01*
X123972042Y-80877045D01*
X123819491Y-80859203D01*
X123663619Y-80857324D01*
X123505599Y-80871797D01*
X123467748Y-80877700D01*
X123401449Y-80890288D01*
X123338997Y-80904808D01*
X123282631Y-80920508D01*
X123234596Y-80936631D01*
X123197127Y-80952423D01*
X123172471Y-80967127D01*
X123162865Y-80979990D01*
X123162824Y-80980477D01*
X123167736Y-80985067D01*
X123183846Y-80987833D01*
X123212349Y-80988770D01*
X123254446Y-80987871D01*
X123311335Y-80985129D01*
X123384211Y-80980535D01*
X123405009Y-80979101D01*
X123472661Y-80976245D01*
X123550291Y-80976064D01*
X123633290Y-80978315D01*
X123717072Y-80982755D01*
X123797032Y-80989140D01*
X123868570Y-80997232D01*
X123926276Y-81006619D01*
X124060477Y-81038826D01*
X124183713Y-81079925D01*
X124301109Y-81131712D01*
X124338046Y-81150711D01*
X124428731Y-81202638D01*
X124510454Y-81257965D01*
X124587629Y-81320146D01*
X124664676Y-81392640D01*
X124717397Y-81447594D01*
X124763430Y-81498519D01*
X124804683Y-81547404D01*
X124843936Y-81597945D01*
X124883967Y-81653831D01*
X124927558Y-81718750D01*
X124963696Y-81774709D01*
X124989609Y-81814003D01*
X125013516Y-81847858D01*
X125033334Y-81873489D01*
X125046975Y-81888115D01*
X125050454Y-81890340D01*
X125062720Y-81900526D01*
X125078449Y-81921898D01*
X125092319Y-81946219D01*
X125108181Y-81973482D01*
X125128545Y-81999414D01*
X125156685Y-82027634D01*
X125195870Y-82061762D01*
X125199664Y-82064925D01*
X125296839Y-82153902D01*
X125393841Y-82258591D01*
X125489266Y-82377163D01*
X125581716Y-82507788D01*
X125669789Y-82648636D01*
X125732400Y-82760393D01*
X125760667Y-82815444D01*
X125779603Y-82858180D01*
X125789639Y-82890922D01*
X125791201Y-82915977D01*
X125784715Y-82935666D01*
X125770614Y-82952303D01*
X125768254Y-82954355D01*
X125759232Y-82961068D01*
X125748770Y-82965642D01*
X125733933Y-82968273D01*
X125711780Y-82969154D01*
X125679376Y-82968471D01*
X125633788Y-82966424D01*
X125605974Y-82964993D01*
X125482333Y-82962565D01*
X125373111Y-82969134D01*
X125277514Y-82984884D01*
X125194750Y-83009984D01*
X125124029Y-83044608D01*
X125070998Y-83083209D01*
X125045534Y-83103796D01*
X125022814Y-83119537D01*
X125009258Y-83126424D01*
X124995216Y-83127148D01*
X124966723Y-83126122D01*
X124926813Y-83123545D01*
X124878512Y-83119619D01*
X124824847Y-83114534D01*
X124820618Y-83114104D01*
X124730924Y-83106510D01*
X124636099Y-83101280D01*
X124539869Y-83098425D01*
X124445970Y-83097966D01*
X124358136Y-83099916D01*
X124280094Y-83104293D01*
X124215580Y-83111113D01*
X124213278Y-83111445D01*
X124163826Y-83119411D01*
X124123901Y-83127333D01*
X124095681Y-83134677D01*
X124081349Y-83140902D01*
X124080488Y-83144072D01*
X124088505Y-83149379D01*
X124109609Y-83162750D01*
X124141922Y-83183012D01*
X124183574Y-83208996D01*
X124232682Y-83239524D01*
X124287374Y-83273428D01*
X124305451Y-83284616D01*
X124403173Y-83345376D01*
X124500097Y-83406222D01*
X124594452Y-83466010D01*
X124684458Y-83523588D01*
X124768342Y-83577808D01*
X124844325Y-83627525D01*
X124910632Y-83671592D01*
X124965492Y-83708856D01*
X125007122Y-83738174D01*
X125007781Y-83738650D01*
X125062936Y-83780144D01*
X125105753Y-83816113D01*
X125139273Y-83849562D01*
X125166531Y-83883511D01*
X125188764Y-83917885D01*
X125223363Y-83991724D01*
X125240559Y-84066201D01*
X125240504Y-84140868D01*
X125223341Y-84215289D01*
X125189218Y-84289018D01*
X125138286Y-84361617D01*
X125070693Y-84432644D01*
X124994730Y-84495614D01*
X124901368Y-84559439D01*
X124791592Y-84623534D01*
X124666542Y-84687386D01*
X124527370Y-84750472D01*
X124375221Y-84812277D01*
X124211244Y-84872278D01*
X124036585Y-84929958D01*
X124029815Y-84932076D01*
X123908717Y-84969785D01*
X123790135Y-85006442D01*
X123675904Y-85041505D01*
X123567846Y-85074411D01*
X123467794Y-85104614D01*
X123377576Y-85131560D01*
X123299013Y-85154698D01*
X123233938Y-85173475D01*
X123193399Y-85184825D01*
X123015610Y-85229260D01*
X122847481Y-85262435D01*
X122689739Y-85284277D01*
X122543096Y-85294706D01*
X122408266Y-85293640D01*
X122297349Y-85282750D01*
X122156527Y-85253331D01*
X122021920Y-85207787D01*
X121894749Y-85146539D01*
X121886833Y-85142060D01*
X121829366Y-85108086D01*
X121759209Y-85064666D01*
X121677830Y-85012780D01*
X121586691Y-84953421D01*
X121487256Y-84887572D01*
X121380988Y-84816225D01*
X121269356Y-84740363D01*
X121153818Y-84660980D01*
X121035839Y-84579060D01*
X120916885Y-84495592D01*
X120798418Y-84411559D01*
X120706228Y-84345494D01*
X120498371Y-84195825D01*
X120422462Y-84216344D01*
X120322309Y-84238256D01*
X120218154Y-84250397D01*
X120105601Y-84253162D01*
X120037682Y-84250785D01*
X119981441Y-84247225D01*
X119929234Y-84242491D01*
X119878874Y-84236050D01*
X119828165Y-84227372D01*
X119774923Y-84215926D01*
X119716952Y-84201182D01*
X119652066Y-84182604D01*
X119578075Y-84159666D01*
X119492784Y-84131836D01*
X119394007Y-84098581D01*
X119354345Y-84085049D01*
X119292824Y-84064404D01*
X119218950Y-84040258D01*
X119137245Y-84014053D01*
X119052238Y-83987228D01*
X118968451Y-83961221D01*
X118891054Y-83937666D01*
X118786641Y-83906037D01*
X118696735Y-83878221D01*
X118618894Y-83853365D01*
X118550666Y-83830615D01*
X118489611Y-83809122D01*
X118433278Y-83788036D01*
X118379223Y-83766503D01*
X118325000Y-83743673D01*
X118291023Y-83728846D01*
X118163550Y-83669342D01*
X118049334Y-83609286D01*
X117949099Y-83549177D01*
X117863569Y-83489509D01*
X117793463Y-83430777D01*
X117739508Y-83373476D01*
X117709289Y-83330420D01*
X117692302Y-83303171D01*
X117679128Y-83287871D01*
X117665416Y-83280892D01*
X117647240Y-83278623D01*
X117619476Y-83275883D01*
X117577880Y-83270136D01*
X117525839Y-83261982D01*
X117466731Y-83252020D01*
X117403939Y-83240854D01*
X117340844Y-83229077D01*
X117296653Y-83220400D01*
X117820233Y-83220400D01*
X117829393Y-83250607D01*
X117854146Y-83285973D01*
X117864626Y-83298018D01*
X117916919Y-83348094D01*
X117985107Y-83400346D01*
X118067764Y-83453960D01*
X118163453Y-83508130D01*
X118270743Y-83562043D01*
X118388206Y-83614892D01*
X118514409Y-83665863D01*
X118515017Y-83666096D01*
X118549972Y-83678750D01*
X118598856Y-83695426D01*
X118658737Y-83715176D01*
X118726672Y-83737046D01*
X118799730Y-83760093D01*
X118874968Y-83783362D01*
X118921913Y-83797633D01*
X119001651Y-83821941D01*
X119085126Y-83847821D01*
X119168549Y-83874069D01*
X119248117Y-83899474D01*
X119320034Y-83922833D01*
X119380505Y-83942934D01*
X119401934Y-83950240D01*
X119498589Y-83983241D01*
X119580859Y-84010671D01*
X119650821Y-84033158D01*
X119710539Y-84051340D01*
X119762081Y-84065853D01*
X119807518Y-84077331D01*
X119839214Y-84084407D01*
X119897909Y-84094278D01*
X119967005Y-84101997D01*
X120041031Y-84107273D01*
X120114509Y-84109825D01*
X120181964Y-84109362D01*
X120237926Y-84105601D01*
X120240039Y-84105357D01*
X120277158Y-84100714D01*
X120308935Y-84096325D01*
X120330324Y-84092902D01*
X120334890Y-84091950D01*
X120331553Y-84086079D01*
X120315527Y-84070997D01*
X120288330Y-84047849D01*
X120251475Y-84017788D01*
X120206482Y-83981969D01*
X120154865Y-83941537D01*
X120098142Y-83897647D01*
X120037825Y-83851447D01*
X119975435Y-83804087D01*
X119912487Y-83756722D01*
X119850498Y-83710497D01*
X119790981Y-83666568D01*
X119735455Y-83626084D01*
X119685436Y-83590194D01*
X119642439Y-83560050D01*
X119607982Y-83536805D01*
X119583578Y-83521607D01*
X119582892Y-83521214D01*
X119498897Y-83480509D01*
X119399586Y-83444572D01*
X119286684Y-83413873D01*
X119161938Y-83388889D01*
X119028059Y-83370199D01*
X118979265Y-83364523D01*
X118944903Y-83359757D01*
X118921908Y-83355126D01*
X118907210Y-83349850D01*
X118898579Y-83343746D01*
X119561378Y-83343746D01*
X119568607Y-83349458D01*
X119587799Y-83359944D01*
X119614801Y-83372937D01*
X119614871Y-83372968D01*
X119633320Y-83383534D01*
X119665034Y-83404318D01*
X119709341Y-83434834D01*
X119765557Y-83474595D01*
X119833005Y-83523111D01*
X119911005Y-83579899D01*
X119998873Y-83644466D01*
X120095936Y-83716328D01*
X120164273Y-83767196D01*
X120327434Y-83888592D01*
X120478321Y-84000219D01*
X120618480Y-84103183D01*
X120749454Y-84198595D01*
X120872783Y-84287559D01*
X120990023Y-84371182D01*
X121102695Y-84450576D01*
X121212359Y-84526842D01*
X121320555Y-84601095D01*
X121426954Y-84673174D01*
X121539146Y-84748468D01*
X121638233Y-84814362D01*
X121725498Y-84871576D01*
X121802221Y-84920829D01*
X121869680Y-84962843D01*
X121929154Y-84998334D01*
X121981923Y-85028023D01*
X122029267Y-85052634D01*
X122072462Y-85072879D01*
X122112790Y-85089479D01*
X122151528Y-85103161D01*
X122189964Y-85114638D01*
X122229355Y-85124629D01*
X122229503Y-85124663D01*
X122281495Y-85134186D01*
X122345989Y-85141831D01*
X122417968Y-85147328D01*
X122492425Y-85150410D01*
X122564351Y-85150803D01*
X122628730Y-85148239D01*
X122643998Y-85147019D01*
X122704051Y-85140635D01*
X122766522Y-85131964D01*
X122832824Y-85120663D01*
X122904384Y-85106374D01*
X122982618Y-85088749D01*
X123068945Y-85067439D01*
X123164787Y-85042094D01*
X123271563Y-85012362D01*
X123390691Y-84977891D01*
X123523591Y-84938337D01*
X123670873Y-84893592D01*
X123789923Y-84856969D01*
X123894008Y-84824573D01*
X123985058Y-84795772D01*
X124065011Y-84769929D01*
X124135798Y-84746409D01*
X124199353Y-84724578D01*
X124257604Y-84703798D01*
X124312489Y-84683438D01*
X124324044Y-84679053D01*
X124466251Y-84621749D01*
X124595307Y-84563379D01*
X124710768Y-84504300D01*
X124812184Y-84444858D01*
X124899112Y-84385408D01*
X124971104Y-84326300D01*
X125027718Y-84267889D01*
X125068504Y-84210521D01*
X125093022Y-84154554D01*
X125100819Y-84100338D01*
X125097281Y-84068761D01*
X125078422Y-84016507D01*
X125045488Y-83964111D01*
X125001398Y-83915948D01*
X124986716Y-83903209D01*
X124947622Y-83873007D01*
X124893617Y-83834297D01*
X124825052Y-83787303D01*
X124742275Y-83732239D01*
X124645644Y-83669337D01*
X124535509Y-83598799D01*
X124412218Y-83520859D01*
X124276132Y-83435733D01*
X124127596Y-83343645D01*
X123966967Y-83244809D01*
X123794594Y-83139446D01*
X123610832Y-83027781D01*
X123416030Y-82910030D01*
X123210543Y-82786412D01*
X122994722Y-82657154D01*
X122944466Y-82627128D01*
X122697090Y-82479414D01*
X122979933Y-82479414D01*
X123006993Y-82496539D01*
X123041355Y-82517996D01*
X123085759Y-82545271D01*
X123138594Y-82577410D01*
X123198257Y-82613462D01*
X123263137Y-82652469D01*
X123331634Y-82693483D01*
X123402133Y-82735549D01*
X123473033Y-82777713D01*
X123542725Y-82819025D01*
X123609606Y-82858529D01*
X123672064Y-82895275D01*
X123728496Y-82928307D01*
X123777293Y-82956673D01*
X123816849Y-82979420D01*
X123845557Y-82995594D01*
X123861810Y-83004246D01*
X123864930Y-83005407D01*
X123864856Y-82993993D01*
X123861723Y-82970606D01*
X123856606Y-82942376D01*
X123825452Y-82804095D01*
X123789382Y-82674198D01*
X123748947Y-82553813D01*
X123704703Y-82444073D01*
X123657211Y-82346115D01*
X123607023Y-82261068D01*
X123554690Y-82190067D01*
X123500775Y-82134241D01*
X123450400Y-82098015D01*
X123674096Y-82098015D01*
X123681302Y-82112748D01*
X123698004Y-82135702D01*
X123698069Y-82135790D01*
X123746379Y-82208169D01*
X123793949Y-82295831D01*
X123839870Y-82396473D01*
X123883237Y-82507793D01*
X123923144Y-82627491D01*
X123958683Y-82753264D01*
X123985128Y-82864821D01*
X123996354Y-82916802D01*
X124004444Y-82954053D01*
X124009994Y-82979023D01*
X124013606Y-82994162D01*
X124015874Y-83001922D01*
X124017399Y-83004754D01*
X124018783Y-83005106D01*
X124019377Y-83005099D01*
X124029207Y-83002946D01*
X124049850Y-82997299D01*
X124060616Y-82994173D01*
X124127211Y-82978841D01*
X124209515Y-82967257D01*
X124306041Y-82959499D01*
X124415306Y-82955642D01*
X124535821Y-82955762D01*
X124666100Y-82959939D01*
X124693929Y-82961305D01*
X124888855Y-82971430D01*
X124850210Y-82870359D01*
X124793988Y-82734391D01*
X124731804Y-82604149D01*
X124664940Y-82481731D01*
X124594677Y-82369257D01*
X124522298Y-82268829D01*
X124449087Y-82182558D01*
X124404932Y-82138129D01*
X124344682Y-82088393D01*
X124275922Y-82042997D01*
X124204298Y-82005213D01*
X124135465Y-81978324D01*
X124130223Y-81976786D01*
X124453227Y-81976786D01*
X124459039Y-81986765D01*
X124474877Y-82004864D01*
X124497589Y-82027553D01*
X124503118Y-82032738D01*
X124575758Y-82107775D01*
X124648968Y-82198052D01*
X124721413Y-82301329D01*
X124791756Y-82415366D01*
X124858662Y-82537923D01*
X124920796Y-82666757D01*
X124976822Y-82799630D01*
X125004744Y-82874171D01*
X125026439Y-82934850D01*
X125050007Y-82921013D01*
X125073170Y-82908192D01*
X125101803Y-82893319D01*
X125109723Y-82889372D01*
X125165226Y-82867406D01*
X125235056Y-82848494D01*
X125316161Y-82833185D01*
X125405436Y-82822038D01*
X125499823Y-82815612D01*
X125520811Y-82814892D01*
X125554140Y-82813241D01*
X125579522Y-82810632D01*
X125592840Y-82807539D01*
X125593888Y-82806460D01*
X125589676Y-82797047D01*
X125577873Y-82775507D01*
X125560096Y-82744682D01*
X125537976Y-82707416D01*
X125528486Y-82691698D01*
X125440937Y-82556008D01*
X125350676Y-82432828D01*
X125258563Y-82323093D01*
X125165467Y-82227739D01*
X125072251Y-82147697D01*
X124979778Y-82083903D01*
X124950328Y-82066988D01*
X124877402Y-82031638D01*
X124798189Y-82000922D01*
X124717735Y-81976381D01*
X124641081Y-81959552D01*
X124573381Y-81951980D01*
X124537343Y-81952559D01*
X124503077Y-81956521D01*
X124474903Y-81962977D01*
X124457143Y-81971034D01*
X124453227Y-81976786D01*
X124130223Y-81976786D01*
X124123182Y-81974720D01*
X124062537Y-81961481D01*
X123997997Y-81953350D01*
X123934453Y-81950508D01*
X123876797Y-81953138D01*
X123829928Y-81961421D01*
X123822896Y-81963566D01*
X123776629Y-81984827D01*
X123732672Y-82015418D01*
X123696957Y-82050798D01*
X123682943Y-82070707D01*
X123675078Y-82085879D01*
X123674096Y-82098015D01*
X123450400Y-82098015D01*
X123445829Y-82094728D01*
X123439172Y-82091124D01*
X123421515Y-82084777D01*
X123386314Y-82072124D01*
X123330769Y-82067192D01*
X123277638Y-82076449D01*
X123253101Y-82086682D01*
X123205854Y-82118802D01*
X123157546Y-82165622D01*
X123110123Y-82224514D01*
X123065534Y-82292856D01*
X123025725Y-82368023D01*
X123000008Y-82427739D01*
X122979933Y-82479414D01*
X122697090Y-82479414D01*
X122669876Y-82463164D01*
X122641407Y-82446165D01*
X122452356Y-82441676D01*
X122228803Y-82441756D01*
X122001431Y-82452181D01*
X121773064Y-82472517D01*
X121546523Y-82502331D01*
X121324632Y-82541189D01*
X121110217Y-82588660D01*
X120906097Y-82644310D01*
X120715099Y-82707702D01*
X120711741Y-82708932D01*
X120565626Y-82765285D01*
X120429758Y-82823715D01*
X120300662Y-82886126D01*
X120174861Y-82954413D01*
X120048879Y-83030481D01*
X119919241Y-83116226D01*
X119782470Y-83213546D01*
X119765643Y-83225922D01*
X119709907Y-83265679D01*
X119662732Y-83296505D01*
X119625717Y-83317404D01*
X119604105Y-83326421D01*
X119579824Y-83334480D01*
X119564329Y-83341209D01*
X119561378Y-83343746D01*
X118898579Y-83343746D01*
X118897742Y-83343154D01*
X118891417Y-83335636D01*
X118880311Y-83308052D01*
X118879567Y-83306205D01*
X118879404Y-83272298D01*
X118888471Y-83246960D01*
X118905127Y-83232861D01*
X118931716Y-83222334D01*
X118960650Y-83217621D01*
X118980904Y-83219700D01*
X118996934Y-83221882D01*
X119027342Y-83223642D01*
X119068936Y-83224966D01*
X119118512Y-83225849D01*
X119172874Y-83226278D01*
X119228821Y-83226246D01*
X119283155Y-83225739D01*
X119332683Y-83224748D01*
X119374201Y-83223264D01*
X119404512Y-83221277D01*
X119406841Y-83221047D01*
X119467237Y-83213537D01*
X119514860Y-83204091D01*
X119554528Y-83191071D01*
X119591040Y-83172849D01*
X119629219Y-83147792D01*
X119634918Y-83143683D01*
X119709220Y-83089806D01*
X119771541Y-83044960D01*
X119824011Y-83007679D01*
X119868750Y-82976486D01*
X119907881Y-82949915D01*
X119943530Y-82926490D01*
X119977820Y-82904742D01*
X119996902Y-82892943D01*
X120201709Y-82777159D01*
X120418769Y-82673380D01*
X120647322Y-82581795D01*
X120886603Y-82502593D01*
X121135848Y-82435961D01*
X121394288Y-82382090D01*
X121661163Y-82341169D01*
X121935704Y-82313386D01*
X122217147Y-82298930D01*
X122409319Y-82296797D01*
X122458508Y-82296755D01*
X122501388Y-82296189D01*
X122534943Y-82295187D01*
X122556162Y-82293826D01*
X122562144Y-82292639D01*
X122562940Y-82281101D01*
X122556050Y-82258072D01*
X122542992Y-82227051D01*
X122525284Y-82191538D01*
X122504434Y-82155026D01*
X122498224Y-82145077D01*
X122442178Y-82071484D01*
X122374484Y-82008824D01*
X122294339Y-81956617D01*
X122200943Y-81914387D01*
X122093498Y-81881653D01*
X122037746Y-81869376D01*
X121990242Y-81861979D01*
X121928957Y-81855373D01*
X121857672Y-81849721D01*
X121780184Y-81845191D01*
X121700272Y-81841947D01*
X121621732Y-81840155D01*
X121548348Y-81839987D01*
X121483908Y-81841590D01*
X121449226Y-81843625D01*
X121207848Y-81870787D01*
X120966337Y-81914846D01*
X120726636Y-81975240D01*
X120490682Y-82051410D01*
X120260419Y-82142787D01*
X120037788Y-82248812D01*
X120020306Y-82257940D01*
X119916871Y-82314731D01*
X119803654Y-82381233D01*
X119683911Y-82455363D01*
X119560898Y-82535037D01*
X119437868Y-82618161D01*
X119318081Y-82702655D01*
X119258127Y-82746461D01*
X119184734Y-82800692D01*
X119123690Y-82845574D01*
X119073279Y-82882310D01*
X119031785Y-82912110D01*
X118997493Y-82936176D01*
X118968690Y-82955717D01*
X118943660Y-82971941D01*
X118920690Y-82986053D01*
X118902001Y-82996998D01*
X118828708Y-83034702D01*
X118750749Y-83065590D01*
X118664579Y-83090770D01*
X118566650Y-83111350D01*
X118503331Y-83121575D01*
X118480593Y-83123335D01*
X118443025Y-83124376D01*
X118393375Y-83124706D01*
X118334383Y-83124326D01*
X118268793Y-83123242D01*
X118199347Y-83121456D01*
X118189347Y-83121148D01*
X117928597Y-83112891D01*
X117889994Y-83137281D01*
X117850162Y-83166080D01*
X117827032Y-83193005D01*
X117820233Y-83220400D01*
X117296653Y-83220400D01*
X117280829Y-83217293D01*
X117227273Y-83206102D01*
X117188065Y-83197190D01*
X117140150Y-83184757D01*
X117094551Y-83172926D01*
X117005412Y-83146315D01*
X116923720Y-83118425D01*
X116852542Y-83090321D01*
X116794945Y-83063069D01*
X116782611Y-83056279D01*
X116746064Y-83033672D01*
X116700469Y-83002917D01*
X116650241Y-82967190D01*
X116599785Y-82929673D01*
X116553505Y-82893541D01*
X116528871Y-82873252D01*
X116521943Y-82866046D01*
X116519316Y-82856923D01*
X116521354Y-82841863D01*
X116528422Y-82816855D01*
X116536173Y-82792462D01*
X116549455Y-82740169D01*
X116560610Y-82674381D01*
X116569322Y-82599094D01*
X116575279Y-82518299D01*
X116578176Y-82435990D01*
X116577692Y-82356165D01*
X116574757Y-82297999D01*
X116559297Y-82159346D01*
X116534374Y-82029511D01*
X116500476Y-81909926D01*
X116458091Y-81802015D01*
X116407710Y-81707209D01*
X116349821Y-81626935D01*
X116341600Y-81617454D01*
X116309279Y-81584264D01*
X116276022Y-81555664D01*
X116264485Y-81547631D01*
X116245428Y-81534363D01*
X116221092Y-81523071D01*
X116214823Y-81521987D01*
X116207076Y-81525259D01*
X116206569Y-81537260D01*
X116213809Y-81559505D01*
X116229300Y-81593511D01*
X116253549Y-81640796D01*
X116255947Y-81645318D01*
X116296140Y-81727912D01*
X116331219Y-81815389D01*
X116361519Y-81909390D01*
X116387371Y-82011551D01*
X116409109Y-82123508D01*
X116427070Y-82246905D01*
X116441587Y-82383373D01*
X116452993Y-82534553D01*
X116458811Y-82639680D01*
X116462496Y-82712598D01*
X116465765Y-82769749D01*
X116468824Y-82812946D01*
X116471867Y-82843999D01*
X116475094Y-82864720D01*
X116478705Y-82876911D01*
X116482898Y-82882386D01*
X116485565Y-82883195D01*
X116487023Y-82891263D01*
X116485372Y-82912281D01*
X116480981Y-82941965D01*
X116480126Y-82946781D01*
X116468713Y-83010058D01*
X116514864Y-83082060D01*
X116560934Y-83162539D01*
X116605138Y-83255986D01*
X116645800Y-83357793D01*
X116681237Y-83463343D01*
X116709769Y-83568028D01*
X116729715Y-83667230D01*
X116730954Y-83675212D01*
X116738073Y-83727572D01*
X116741000Y-83765978D01*
X116739491Y-83793612D01*
X116733300Y-83813655D01*
X116722180Y-83829288D01*
X116718784Y-83832705D01*
X116703155Y-83844853D01*
X116685750Y-83850743D01*
X116663153Y-83850198D01*
X116631949Y-83843042D01*
X116588723Y-83829095D01*
X116578184Y-83825422D01*
X116476848Y-83793377D01*
X116369608Y-83765870D01*
X116260455Y-83743576D01*
X116153387Y-83727168D01*
X116052389Y-83717327D01*
X115961462Y-83714727D01*
X115930526Y-83715769D01*
X115845740Y-83722887D01*
X115748306Y-83735375D01*
X115642069Y-83752503D01*
X115530876Y-83773541D01*
X115418565Y-83797760D01*
X115308983Y-83824431D01*
X115205978Y-83852823D01*
X115201549Y-83854132D01*
X115158056Y-83866495D01*
X115126619Y-83873219D01*
X115102595Y-83874203D01*
X115081343Y-83869337D01*
X115058225Y-83858513D01*
X115043913Y-83850489D01*
X114966342Y-83810578D01*
X114876122Y-83772052D01*
X114778184Y-83736781D01*
X114677458Y-83706633D01*
X114637757Y-83696493D01*
X114592436Y-83687611D01*
X114533804Y-83679223D01*
X114466123Y-83671665D01*
X114393668Y-83665266D01*
X114320708Y-83660359D01*
X114251507Y-83657276D01*
X114190338Y-83656349D01*
X114141785Y-83657891D01*
X114006600Y-83671379D01*
X113887138Y-83691816D01*
X113860963Y-83697720D01*
X113827491Y-83704187D01*
X113798390Y-83707217D01*
X113779920Y-83706167D01*
X113779802Y-83706134D01*
X113764633Y-83696665D01*
X113742925Y-83677307D01*
X113719018Y-83651982D01*
X113715672Y-83648104D01*
X113666736Y-83595412D01*
X113608085Y-83539711D01*
X113604106Y-83536304D01*
X113901155Y-83536304D01*
X113911462Y-83537547D01*
X113934464Y-83536126D01*
X113965523Y-83532350D01*
X113971057Y-83531532D01*
X114069974Y-83520302D01*
X114178668Y-83514581D01*
X114291906Y-83514252D01*
X114404461Y-83519194D01*
X114511097Y-83529290D01*
X114606592Y-83544422D01*
X114615099Y-83546157D01*
X114709770Y-83568580D01*
X114805405Y-83596055D01*
X114895956Y-83626687D01*
X114975369Y-83658579D01*
X114979880Y-83660596D01*
X115013621Y-83675688D01*
X115041086Y-83687780D01*
X115058505Y-83695229D01*
X115062532Y-83696775D01*
X115066406Y-83689322D01*
X115072753Y-83668144D01*
X115080602Y-83636759D01*
X115086845Y-83608856D01*
X115110548Y-83485426D01*
X115128578Y-83364717D01*
X115140696Y-83249504D01*
X115146671Y-83142550D01*
X115146266Y-83046629D01*
X115140554Y-82974385D01*
X115122411Y-82868824D01*
X115096068Y-82777005D01*
X115061782Y-82699526D01*
X115030022Y-82652205D01*
X115204406Y-82652205D01*
X115207299Y-82661205D01*
X115215077Y-82682243D01*
X115226139Y-82711005D01*
X115227717Y-82715036D01*
X115249849Y-82784294D01*
X115267801Y-82866950D01*
X115280923Y-82959175D01*
X115288570Y-83057141D01*
X115289440Y-83078725D01*
X115289142Y-83168218D01*
X115283062Y-83269658D01*
X115271670Y-83378560D01*
X115255432Y-83490438D01*
X115235186Y-83599023D01*
X115226181Y-83643264D01*
X115221527Y-83672703D01*
X115221918Y-83689740D01*
X115228057Y-83696774D01*
X115240639Y-83696211D01*
X115260370Y-83690444D01*
X115261695Y-83690019D01*
X115278800Y-83685277D01*
X115309436Y-83677523D01*
X115349994Y-83667639D01*
X115396859Y-83656518D01*
X115424234Y-83650144D01*
X115572502Y-83618417D01*
X115708284Y-83595139D01*
X115834506Y-83580293D01*
X115954094Y-83573861D01*
X116069971Y-83575829D01*
X116185067Y-83586182D01*
X116302307Y-83604902D01*
X116424614Y-83631973D01*
X116472776Y-83644379D01*
X116513406Y-83654880D01*
X116547482Y-83663073D01*
X116571645Y-83668191D01*
X116582541Y-83669473D01*
X116582771Y-83669364D01*
X116582915Y-83659194D01*
X116578740Y-83635646D01*
X116571134Y-83602139D01*
X116560989Y-83562087D01*
X116549199Y-83518907D01*
X116536651Y-83476015D01*
X116524238Y-83436827D01*
X116515851Y-83412740D01*
X116460272Y-83281027D01*
X116395137Y-83163123D01*
X116319553Y-83057538D01*
X116268204Y-82998825D01*
X116192483Y-82925654D01*
X116114098Y-82865402D01*
X116028318Y-82814925D01*
X115930421Y-82771071D01*
X115920313Y-82767134D01*
X115815492Y-82729307D01*
X115712325Y-82696962D01*
X115612891Y-82670494D01*
X115519244Y-82650313D01*
X115433446Y-82636817D01*
X115357565Y-82630411D01*
X115293662Y-82631498D01*
X115255543Y-82637308D01*
X115228497Y-82644099D01*
X115209952Y-82649603D01*
X115204406Y-82652205D01*
X115030022Y-82652205D01*
X115023664Y-82642732D01*
X115019806Y-82636988D01*
X114980311Y-82597669D01*
X114926395Y-82560258D01*
X114867400Y-82532810D01*
X114799553Y-82513972D01*
X114719077Y-82502380D01*
X114714565Y-82501958D01*
X114617059Y-82498819D01*
X114530000Y-82508653D01*
X114451401Y-82532001D01*
X114379278Y-82569407D01*
X114328378Y-82606896D01*
X114281150Y-82654002D01*
X114232326Y-82717484D01*
X114182532Y-82796274D01*
X114132386Y-82889304D01*
X114082517Y-82995507D01*
X114035237Y-83109476D01*
X114018300Y-83154363D01*
X114000004Y-83205586D01*
X113981159Y-83260588D01*
X113962562Y-83316810D01*
X113945017Y-83371690D01*
X113929334Y-83422672D01*
X113916313Y-83467192D01*
X113906759Y-83502693D01*
X113901472Y-83526618D01*
X113901155Y-83536304D01*
X113604106Y-83536304D01*
X113572667Y-83509386D01*
X113545560Y-83486177D01*
X113485004Y-83439987D01*
X113466724Y-83427422D01*
X113359419Y-83364351D01*
X113252611Y-83318527D01*
X113145278Y-83289672D01*
X113036401Y-83277511D01*
X112924957Y-83281776D01*
X112924036Y-83281877D01*
X112871783Y-83286794D01*
X112833973Y-83287736D01*
X112807775Y-83284061D01*
X112790363Y-83275121D01*
X112778911Y-83260264D01*
X112773415Y-83247392D01*
X112768799Y-83231625D01*
X112767824Y-83216526D01*
X112771610Y-83199552D01*
X112781277Y-83178158D01*
X112797949Y-83149803D01*
X112815258Y-83123377D01*
X112987686Y-83123377D01*
X112995687Y-83126273D01*
X113017800Y-83130240D01*
X113050626Y-83134747D01*
X113090126Y-83139207D01*
X113217513Y-83161046D01*
X113341283Y-83200085D01*
X113461449Y-83256326D01*
X113578014Y-83329774D01*
X113689331Y-83418955D01*
X113717620Y-83443454D01*
X113740879Y-83462310D01*
X113756178Y-83473228D01*
X113760602Y-83474901D01*
X113764438Y-83465664D01*
X113772461Y-83442408D01*
X113783749Y-83407944D01*
X113797376Y-83365076D01*
X113809501Y-83326112D01*
X113863592Y-83161573D01*
X113919521Y-83013152D01*
X113977871Y-82879429D01*
X114039226Y-82758989D01*
X114051766Y-82736623D01*
X114072214Y-82699566D01*
X114084083Y-82674690D01*
X114088358Y-82659419D01*
X114086033Y-82651177D01*
X114084910Y-82650182D01*
X114019840Y-82607563D01*
X113955097Y-82579117D01*
X113884937Y-82562775D01*
X113826653Y-82557288D01*
X113727561Y-82561167D01*
X113627833Y-82582352D01*
X113527950Y-82620600D01*
X113428380Y-82675668D01*
X113329608Y-82747313D01*
X113232105Y-82835295D01*
X113184856Y-82884381D01*
X113154979Y-82917498D01*
X113122485Y-82954681D01*
X113089427Y-82993440D01*
X113057867Y-83031283D01*
X113029856Y-83065714D01*
X113007453Y-83094246D01*
X112992714Y-83114382D01*
X112987686Y-83123377D01*
X112815258Y-83123377D01*
X112820980Y-83114642D01*
X112822746Y-83111943D01*
X112852303Y-83068573D01*
X112940581Y-82948146D01*
X113033258Y-82836995D01*
X113128760Y-82736641D01*
X113225513Y-82648601D01*
X113321942Y-82574402D01*
X113416474Y-82515561D01*
X113434287Y-82506142D01*
X113465727Y-82489471D01*
X113490202Y-82475467D01*
X113504205Y-82466185D01*
X113506185Y-82463943D01*
X113505910Y-82453750D01*
X113505034Y-82429073D01*
X113503671Y-82392997D01*
X113501940Y-82348609D01*
X113500697Y-82317376D01*
X113499060Y-82251896D01*
X113498985Y-82180557D01*
X113500324Y-82106700D01*
X113502925Y-82033668D01*
X113506641Y-81964798D01*
X113511321Y-81903431D01*
X113516818Y-81852909D01*
X113522980Y-81816570D01*
X113523079Y-81816136D01*
X113535012Y-81771812D01*
X113550364Y-81729441D01*
X113570368Y-81687202D01*
X113596264Y-81643270D01*
X113629287Y-81595818D01*
X113670676Y-81543022D01*
X113721666Y-81483059D01*
X113783497Y-81414103D01*
X113829332Y-81364406D01*
X113908937Y-81278782D01*
X113923658Y-81107717D01*
X113948345Y-80884408D01*
X113983250Y-80667079D01*
X113999108Y-80592578D01*
X117884924Y-80592578D01*
X117887846Y-80690251D01*
X117898869Y-80790629D01*
X117917714Y-80889574D01*
X117941423Y-80974866D01*
X117986757Y-81087681D01*
X118045699Y-81192073D01*
X118116877Y-81286687D01*
X118198924Y-81370172D01*
X118290478Y-81441176D01*
X118390167Y-81498346D01*
X118496628Y-81540331D01*
X118519814Y-81547119D01*
X118590838Y-81561157D01*
X118671733Y-81567930D01*
X118756295Y-81567284D01*
X118838320Y-81559072D01*
X118860621Y-81555279D01*
X118938070Y-81537745D01*
X119020031Y-81513926D01*
X119103180Y-81485199D01*
X119184187Y-81452939D01*
X119259729Y-81418525D01*
X119326483Y-81383332D01*
X119381117Y-81348737D01*
X119405844Y-81329573D01*
X119457101Y-81278021D01*
X119508622Y-81211282D01*
X119558696Y-81131641D01*
X119572483Y-81106868D01*
X119620742Y-81005662D01*
X119655312Y-80903662D01*
X119677501Y-80801134D01*
X119687630Y-80688186D01*
X119681096Y-80575072D01*
X119658730Y-80463396D01*
X119621363Y-80354768D01*
X119569826Y-80250789D01*
X119504951Y-80153073D01*
X119427569Y-80063215D01*
X119338510Y-79982831D01*
X119238604Y-79913521D01*
X119209389Y-79896641D01*
X119148924Y-79864298D01*
X119098125Y-79840439D01*
X119052146Y-79823638D01*
X119006129Y-79812461D01*
X118955224Y-79805480D01*
X118894579Y-79801261D01*
X118884262Y-79800774D01*
X118829967Y-79798897D01*
X118786767Y-79799159D01*
X118748245Y-79802018D01*
X118707995Y-79807940D01*
X118662900Y-79816699D01*
X118531575Y-79850269D01*
X118408642Y-79894544D01*
X118295856Y-79948626D01*
X118194968Y-80011614D01*
X118107734Y-80082610D01*
X118070365Y-80120207D01*
X118024370Y-80177436D01*
X117980922Y-80245031D01*
X117943286Y-80317053D01*
X117914727Y-80387565D01*
X117904474Y-80421946D01*
X117890371Y-80501760D01*
X117884924Y-80592578D01*
X113999108Y-80592578D01*
X114027950Y-80457076D01*
X114045597Y-80391369D01*
X114082023Y-80255741D01*
X114145049Y-80064406D01*
X114216603Y-79884413D01*
X114296262Y-79717101D01*
X114383603Y-79563805D01*
X114436890Y-79482887D01*
X114488798Y-79412367D01*
X114552669Y-79332534D01*
X114626834Y-79245192D01*
X114709623Y-79152142D01*
X114799373Y-79055183D01*
X114894414Y-78956116D01*
X114993085Y-78856746D01*
X115093711Y-78758872D01*
X115193236Y-78665578D01*
X115249691Y-78616254D01*
X116129048Y-78616254D01*
X116131098Y-78619903D01*
X116138974Y-78619999D01*
X116154456Y-78615920D01*
X116179325Y-78607043D01*
X116215350Y-78592746D01*
X116264311Y-78572409D01*
X116311528Y-78552417D01*
X116368371Y-78528516D01*
X116426286Y-78504656D01*
X116480881Y-78482609D01*
X116527765Y-78464153D01*
X116560256Y-78451893D01*
X116760903Y-78388076D01*
X116964651Y-78341108D01*
X117170423Y-78311018D01*
X117377141Y-78297843D01*
X117583736Y-78301617D01*
X117789126Y-78322373D01*
X117992242Y-78360146D01*
X118147637Y-78401217D01*
X118191812Y-78414939D01*
X118240392Y-78430841D01*
X118290722Y-78447960D01*
X118340146Y-78465328D01*
X118386005Y-78481983D01*
X118425642Y-78496963D01*
X118456404Y-78509301D01*
X118475630Y-78518033D01*
X118480797Y-78522109D01*
X118471495Y-78525433D01*
X118447764Y-78532674D01*
X118412130Y-78543102D01*
X118367121Y-78555972D01*
X118315261Y-78570555D01*
X118295287Y-78576116D01*
X118051708Y-78651203D01*
X117819217Y-78738086D01*
X117598578Y-78836425D01*
X117390550Y-78945878D01*
X117195900Y-79066103D01*
X117189883Y-79070137D01*
X117152986Y-79095961D01*
X117112864Y-79125784D01*
X117071452Y-79157958D01*
X117030685Y-79190836D01*
X116992500Y-79222768D01*
X116958836Y-79252111D01*
X116931623Y-79277214D01*
X116912801Y-79296432D01*
X116904305Y-79308113D01*
X116907020Y-79310834D01*
X116920539Y-79305261D01*
X116945681Y-79291916D01*
X116979294Y-79272576D01*
X117018235Y-79249017D01*
X117034556Y-79238837D01*
X117238601Y-79117059D01*
X117441334Y-79009765D01*
X117647151Y-78914812D01*
X117860443Y-78830049D01*
X117904643Y-78814038D01*
X118089209Y-78753182D01*
X118280582Y-78699474D01*
X118476353Y-78653243D01*
X118674122Y-78614818D01*
X118871485Y-78584526D01*
X119066029Y-78562697D01*
X119255351Y-78549660D01*
X119437047Y-78545741D01*
X119608711Y-78551271D01*
X119741481Y-78563226D01*
X119960456Y-78596743D01*
X120168440Y-78643570D01*
X120366317Y-78704049D01*
X120554967Y-78778519D01*
X120735270Y-78867320D01*
X120908109Y-78970794D01*
X121041144Y-79064024D01*
X121201660Y-79194984D01*
X121350082Y-79338488D01*
X121486045Y-79493980D01*
X121609176Y-79660899D01*
X121719106Y-79838691D01*
X121815465Y-80026789D01*
X121897886Y-80224642D01*
X121966000Y-80431687D01*
X121981699Y-80488370D01*
X122017184Y-80637465D01*
X122044194Y-80787654D01*
X122062974Y-80941767D01*
X122073765Y-81102636D01*
X122076810Y-81273082D01*
X122072356Y-81455940D01*
X122069732Y-81511003D01*
X122066261Y-81584044D01*
X122064477Y-81639865D01*
X122064476Y-81678758D01*
X122066354Y-81701018D01*
X122070206Y-81706933D01*
X122076123Y-81696799D01*
X122084208Y-81670902D01*
X122094550Y-81629546D01*
X122100244Y-81604735D01*
X122110826Y-81552700D01*
X122121008Y-81494092D01*
X122129155Y-81438635D01*
X122131613Y-81418284D01*
X122138287Y-81358016D01*
X122143725Y-81312805D01*
X122148676Y-81280240D01*
X122153887Y-81257899D01*
X122160112Y-81243373D01*
X122168099Y-81234248D01*
X122178596Y-81228110D01*
X122192351Y-81222540D01*
X122192384Y-81222530D01*
X122246019Y-81195854D01*
X122290246Y-81160244D01*
X122326897Y-81113470D01*
X122357791Y-81053302D01*
X122379648Y-80993844D01*
X122390313Y-80951707D01*
X122400096Y-80896253D01*
X122408609Y-80831746D01*
X122415462Y-80762441D01*
X122420270Y-80692603D01*
X122422640Y-80626495D01*
X122422186Y-80568372D01*
X122420746Y-80543236D01*
X122406379Y-80430309D01*
X122381981Y-80330203D01*
X122346721Y-80240754D01*
X122299776Y-80159804D01*
X122249435Y-80095344D01*
X122209524Y-80054295D01*
X122161635Y-80011755D01*
X122108943Y-79969944D01*
X122054615Y-79931091D01*
X122001825Y-79897422D01*
X121953745Y-79871161D01*
X121913546Y-79854532D01*
X121901560Y-79851319D01*
X121885800Y-79846982D01*
X121873090Y-79839750D01*
X121860754Y-79826635D01*
X121846127Y-79804643D01*
X121826535Y-79770781D01*
X121821167Y-79761214D01*
X121707065Y-79574642D01*
X121580820Y-79400681D01*
X121442815Y-79239633D01*
X121293435Y-79091791D01*
X121133062Y-78957455D01*
X120962080Y-78836927D01*
X120780872Y-78730499D01*
X120589820Y-78638474D01*
X120389310Y-78561147D01*
X120206115Y-78505701D01*
X120016132Y-78462146D01*
X119821999Y-78431625D01*
X119622442Y-78414119D01*
X119416194Y-78409605D01*
X119201982Y-78418059D01*
X118978541Y-78439462D01*
X118744600Y-78473790D01*
X118710612Y-78479682D01*
X118576534Y-78503358D01*
X118517788Y-78463167D01*
X118416535Y-78401205D01*
X118300647Y-78343350D01*
X118172815Y-78290677D01*
X118035727Y-78244256D01*
X117892071Y-78205171D01*
X117845925Y-78194555D01*
X117790599Y-78184669D01*
X117721743Y-78175921D01*
X117643382Y-78168526D01*
X117559542Y-78162694D01*
X117474250Y-78158637D01*
X117391533Y-78156563D01*
X117315422Y-78156689D01*
X117249939Y-78159220D01*
X117219944Y-78161712D01*
X117034481Y-78188544D01*
X116855330Y-78229102D01*
X116683960Y-78282853D01*
X116521834Y-78349276D01*
X116370420Y-78427834D01*
X116231184Y-78518003D01*
X116229945Y-78518898D01*
X116187667Y-78551294D01*
X116155619Y-78579616D01*
X116135514Y-78602212D01*
X116129048Y-78616254D01*
X115249691Y-78616254D01*
X115299454Y-78572777D01*
X115448756Y-78442333D01*
X115713295Y-78234047D01*
X115986927Y-78040682D01*
X116269738Y-77862196D01*
X116561803Y-77698558D01*
X116863204Y-77549726D01*
X117174018Y-77415665D01*
X117494322Y-77296337D01*
X117824202Y-77191704D01*
X118163732Y-77101728D01*
X118512990Y-77026373D01*
X118747835Y-76984797D01*
X118892778Y-76962810D01*
X119047276Y-76942383D01*
X119213952Y-76923191D01*
X119395446Y-76904912D01*
X119404911Y-76904021D01*
X119510842Y-76893680D01*
X119602010Y-76883823D01*
X119681213Y-76874013D01*
X119751249Y-76863806D01*
X119814910Y-76852780D01*
X119875001Y-76840487D01*
X119934311Y-76826492D01*
X119982832Y-76813850D01*
X120101461Y-76776542D01*
X120204832Y-76732500D01*
X120294184Y-76680940D01*
X120370787Y-76621085D01*
X120435907Y-76552161D01*
X120459556Y-76521138D01*
X120486374Y-76486896D01*
X120508220Y-76467372D01*
X120527458Y-76461295D01*
X120546445Y-76467396D01*
G37*
D12*
X160696500Y-67291000D02*
X160696500Y-68891000D01*
D11*
X114727000Y-90635000D02*
X118577000Y-90635000D01*
X114727000Y-93835000D02*
X118577000Y-93835000D01*
X117552000Y-92235000D02*
G75*
G02*
X115752000Y-92235000I-900000J0D01*
G01*
X115752000Y-92235000D02*
G75*
G02*
X117552000Y-92235000I900000J0D01*
G01*
D10*
X139183250Y-67390500D02*
X140533250Y-67390500D01*
X139183250Y-73310500D02*
X139183250Y-67390500D01*
X139183250Y-73310500D02*
X140533250Y-73310500D01*
X144903250Y-67390500D02*
X143553250Y-67390500D01*
X144903250Y-73310500D02*
X143553250Y-73310500D01*
X144903250Y-73310500D02*
X144903250Y-67390500D01*
D11*
X121256000Y-89200000D02*
X121256000Y-94150000D01*
X121256000Y-94150000D02*
X126261000Y-94150000D01*
X126261000Y-93350000D02*
X126261000Y-94150000D01*
X126261000Y-93350000D02*
X128801000Y-93350000D01*
X128801000Y-94150000D02*
X128801000Y-93350000D01*
X133806000Y-89200000D02*
X121256000Y-89200000D01*
X133806000Y-94150000D02*
X128801000Y-94150000D01*
X133806000Y-94150000D02*
X133806000Y-89200000D01*
D10*
X121360000Y-87769580D02*
X121360000Y-87488420D01*
X122380000Y-87769580D02*
X122380000Y-87488420D01*
X130968773Y-83328477D02*
X130769962Y-83527288D01*
X131690022Y-84049726D02*
X131491211Y-84248537D01*
X139704742Y-85034500D02*
X140179258Y-85034500D01*
X139704742Y-86079500D02*
X140179258Y-86079500D01*
X144953500Y-76475580D02*
X144953500Y-76194420D01*
X145973500Y-76475580D02*
X145973500Y-76194420D01*
D11*
X132147000Y-77769000D02*
X132147000Y-76269000D01*
X132147000Y-79269000D02*
X132147000Y-77769000D01*
X131877000Y-78869000D02*
X132417000Y-78869000D01*
X132417000Y-76669000D01*
X131877000Y-76669000D01*
X131877000Y-78869000D01*
D10*
X132487000Y-83974500D02*
X132487000Y-87834500D01*
X134487000Y-83974500D02*
X132487000Y-83974500D01*
X134487000Y-83974500D02*
X134487000Y-87834500D01*
X137217742Y-82068500D02*
X137692258Y-82068500D01*
X137217742Y-83113500D02*
X137692258Y-83113500D01*
X133798000Y-83981000D02*
X133798000Y-80121000D01*
X133798000Y-83981000D02*
X135798000Y-83981000D01*
X135798000Y-83981000D02*
X135798000Y-80121000D01*
D13*
G36*
X126813894Y-67998854D02*
G01*
X126834434Y-68042232D01*
X126838236Y-68081475D01*
X126837522Y-68148859D01*
X126835443Y-68234820D01*
X126832226Y-68334648D01*
X126828096Y-68443633D01*
X126823282Y-68557064D01*
X126818007Y-68670233D01*
X126812499Y-68778427D01*
X126806983Y-68876938D01*
X126801687Y-68961055D01*
X126796835Y-69026067D01*
X126792654Y-69067265D01*
X126790333Y-69079219D01*
X126764759Y-69108607D01*
X126727547Y-69111730D01*
X126684717Y-69088664D01*
X126672791Y-69077775D01*
X126659082Y-69062299D01*
X126648884Y-69043945D01*
X126641377Y-69017611D01*
X126635740Y-68978195D01*
X126631151Y-68920595D01*
X126626792Y-68839707D01*
X126623708Y-68772563D01*
X126620389Y-68661051D01*
X126619507Y-68539266D01*
X126620988Y-68419795D01*
X126624761Y-68315227D01*
X126626493Y-68286200D01*
X126632838Y-68198041D01*
X126638768Y-68135705D01*
X126645511Y-68093344D01*
X126654294Y-68065114D01*
X126666345Y-68045168D01*
X126680261Y-68030182D01*
X126733051Y-67991610D01*
X126778848Y-67981574D01*
X126813894Y-67998854D01*
G37*
G36*
X129414144Y-68014710D02*
G01*
X129434684Y-68058087D01*
X129438486Y-68097330D01*
X129437771Y-68164714D01*
X129435692Y-68250675D01*
X129432475Y-68350503D01*
X129428346Y-68459488D01*
X129423531Y-68572919D01*
X129418257Y-68686088D01*
X129412749Y-68794282D01*
X129407233Y-68892793D01*
X129401936Y-68976910D01*
X129397084Y-69041922D01*
X129392904Y-69083120D01*
X129390582Y-69095074D01*
X129365009Y-69124462D01*
X129327797Y-69127585D01*
X129284967Y-69104519D01*
X129273041Y-69093630D01*
X129259332Y-69078154D01*
X129249134Y-69059800D01*
X129241627Y-69033467D01*
X129235989Y-68994050D01*
X129231401Y-68936450D01*
X129227042Y-68855562D01*
X129223957Y-68788418D01*
X129220639Y-68676906D01*
X129219757Y-68555121D01*
X129221238Y-68435650D01*
X129225011Y-68331082D01*
X129226742Y-68302055D01*
X129233087Y-68213896D01*
X129239017Y-68151560D01*
X129245760Y-68109199D01*
X129254544Y-68080969D01*
X129266595Y-68061023D01*
X129280510Y-68046037D01*
X129333301Y-68007465D01*
X129379098Y-67997429D01*
X129414144Y-68014710D01*
G37*
G36*
X127886741Y-67967193D02*
G01*
X127931918Y-67992517D01*
X127967668Y-68027645D01*
X127990171Y-68066789D01*
X127995613Y-68104155D01*
X127980174Y-68133955D01*
X127959946Y-68145563D01*
X127928220Y-68153699D01*
X127874844Y-68164107D01*
X127809608Y-68174936D01*
X127786643Y-68178359D01*
X127649014Y-68198249D01*
X127640078Y-68295866D01*
X127636588Y-68341606D01*
X127632043Y-68412499D01*
X127626820Y-68502021D01*
X127621299Y-68603648D01*
X127615855Y-68710854D01*
X127614821Y-68732140D01*
X127609240Y-68834181D01*
X127602927Y-68926756D01*
X127596331Y-69004718D01*
X127589906Y-69062924D01*
X127584103Y-69096227D01*
X127582457Y-69100773D01*
X127554186Y-69126506D01*
X127515121Y-69125615D01*
X127470940Y-69098572D01*
X127462764Y-69090844D01*
X127422859Y-69050939D01*
X127427810Y-68646495D01*
X127432761Y-68242050D01*
X127385196Y-68252507D01*
X127342981Y-68263552D01*
X127286409Y-68280509D01*
X127250427Y-68292159D01*
X127178935Y-68313207D01*
X127127617Y-68319461D01*
X127088264Y-68310275D01*
X127052667Y-68285000D01*
X127043090Y-68275788D01*
X127005867Y-68226073D01*
X126999693Y-68182224D01*
X127024490Y-68143921D01*
X127054193Y-68128213D01*
X127109648Y-68108484D01*
X127185339Y-68086002D01*
X127275752Y-68062034D01*
X127375373Y-68037847D01*
X127478687Y-68014709D01*
X127580178Y-67993886D01*
X127674332Y-67976646D01*
X127755634Y-67964255D01*
X127818570Y-67957982D01*
X127835952Y-67957465D01*
X127886741Y-67967193D01*
G37*
G36*
X128964893Y-67983048D02*
G01*
X129010071Y-68008372D01*
X129045820Y-68043501D01*
X129068324Y-68082644D01*
X129073765Y-68120010D01*
X129058326Y-68149810D01*
X129038098Y-68161419D01*
X129006373Y-68169554D01*
X128952996Y-68179962D01*
X128887760Y-68190792D01*
X128864795Y-68194214D01*
X128727166Y-68214104D01*
X128718230Y-68311721D01*
X128714740Y-68357461D01*
X128710195Y-68428354D01*
X128704973Y-68517876D01*
X128699451Y-68619503D01*
X128694007Y-68726709D01*
X128692973Y-68747995D01*
X128687393Y-68850036D01*
X128681079Y-68942611D01*
X128674484Y-69020573D01*
X128668058Y-69078779D01*
X128662255Y-69112082D01*
X128660609Y-69116628D01*
X128632338Y-69142361D01*
X128593273Y-69141471D01*
X128549093Y-69114427D01*
X128540916Y-69106699D01*
X128501011Y-69066794D01*
X128505962Y-68662350D01*
X128510914Y-68257905D01*
X128463348Y-68268362D01*
X128421134Y-68279407D01*
X128364561Y-68296364D01*
X128328579Y-68308014D01*
X128257088Y-68329062D01*
X128205769Y-68335316D01*
X128166416Y-68326130D01*
X128130820Y-68300855D01*
X128121242Y-68291643D01*
X128084020Y-68241928D01*
X128077845Y-68198079D01*
X128102643Y-68159776D01*
X128132346Y-68144068D01*
X128187800Y-68124339D01*
X128263491Y-68101857D01*
X128353905Y-68077889D01*
X128453526Y-68053702D01*
X128556839Y-68030564D01*
X128658330Y-68009741D01*
X128752484Y-67992501D01*
X128833786Y-67980110D01*
X128896722Y-67973837D01*
X128914105Y-67973320D01*
X128964893Y-67983048D01*
G37*
G36*
X125135724Y-68000849D02*
G01*
X125210698Y-68046327D01*
X125226723Y-68061509D01*
X125260554Y-68103049D01*
X125286041Y-68152188D01*
X125305050Y-68215019D01*
X125319449Y-68297634D01*
X125330610Y-68400587D01*
X125337202Y-68567538D01*
X125324501Y-68710129D01*
X125292097Y-68829478D01*
X125239578Y-68926700D01*
X125166535Y-69002912D01*
X125091726Y-69050167D01*
X124996429Y-69087296D01*
X124907029Y-69097570D01*
X124814113Y-69081303D01*
X124758480Y-69061314D01*
X124656759Y-69010108D01*
X124566628Y-68946780D01*
X124495723Y-68877244D01*
X124465085Y-68834153D01*
X124432544Y-68750549D01*
X124421582Y-68654113D01*
X124427555Y-68602800D01*
X124652153Y-68602800D01*
X124656114Y-68686105D01*
X124690159Y-68760852D01*
X124731910Y-68807753D01*
X124809283Y-68862372D01*
X124887895Y-68888718D01*
X124963953Y-68886075D01*
X125020902Y-68862305D01*
X125071855Y-68820804D01*
X125106756Y-68766481D01*
X125128202Y-68693433D01*
X125138791Y-68595754D01*
X125138882Y-68594049D01*
X125138443Y-68471365D01*
X125123776Y-68368741D01*
X125095577Y-68289574D01*
X125068476Y-68250273D01*
X125037706Y-68222667D01*
X125006075Y-68213071D01*
X124962269Y-68215977D01*
X124920609Y-68225567D01*
X124883835Y-68245971D01*
X124842401Y-68283297D01*
X124819800Y-68307126D01*
X124734094Y-68412752D01*
X124678179Y-68511496D01*
X124652153Y-68602800D01*
X124427555Y-68602800D01*
X124433006Y-68555971D01*
X124442491Y-68523135D01*
X124467746Y-68470906D01*
X124511008Y-68403706D01*
X124567181Y-68327599D01*
X124631165Y-68248651D01*
X124697862Y-68172928D01*
X124762174Y-68106495D01*
X124819003Y-68055416D01*
X124858639Y-68028056D01*
X124955114Y-67991297D01*
X125049003Y-67982367D01*
X125135724Y-68000849D01*
G37*
G36*
X121693332Y-67983893D02*
G01*
X121746483Y-68028735D01*
X121746740Y-68029027D01*
X121769202Y-68055449D01*
X121788614Y-68081381D01*
X121807122Y-68111225D01*
X121826872Y-68149382D01*
X121850007Y-68200253D01*
X121878674Y-68268239D01*
X121915018Y-68357742D01*
X121951992Y-68450122D01*
X122019279Y-68620844D01*
X122073437Y-68762948D01*
X122114542Y-68876648D01*
X122142669Y-68962156D01*
X122157893Y-69019687D01*
X122160914Y-69043112D01*
X122149320Y-69080192D01*
X122117007Y-69095573D01*
X122067675Y-69087786D01*
X122057855Y-69084049D01*
X122012805Y-69054196D01*
X121973986Y-69001836D01*
X121941732Y-68932559D01*
X121910355Y-68853283D01*
X121825553Y-68855130D01*
X121747123Y-68865134D01*
X121646570Y-68891362D01*
X121528156Y-68932451D01*
X121396143Y-68987035D01*
X121354046Y-69006059D01*
X121291214Y-69033321D01*
X121235826Y-69054344D01*
X121196484Y-69065987D01*
X121186366Y-69067328D01*
X121146641Y-69053759D01*
X121109148Y-69020256D01*
X121083904Y-68977626D01*
X121078798Y-68951279D01*
X121086048Y-68918015D01*
X121106294Y-68861563D01*
X121137277Y-68786537D01*
X121144581Y-68770068D01*
X121398756Y-68770068D01*
X121434984Y-68759145D01*
X121465300Y-68751624D01*
X121518403Y-68739986D01*
X121585926Y-68726020D01*
X121637693Y-68715741D01*
X121708072Y-68701851D01*
X121767720Y-68689782D01*
X121809213Y-68681056D01*
X121823944Y-68677620D01*
X121830126Y-68664921D01*
X121825058Y-68631422D01*
X121808078Y-68574102D01*
X121789221Y-68519507D01*
X121753560Y-68424616D01*
X121723907Y-68357426D01*
X121698561Y-68314880D01*
X121675823Y-68293921D01*
X121661917Y-68290424D01*
X121633163Y-68305160D01*
X121597079Y-68347490D01*
X121555311Y-68414590D01*
X121509503Y-68503641D01*
X121461302Y-68611821D01*
X121431879Y-68684834D01*
X121398756Y-68770068D01*
X121144581Y-68770068D01*
X121176741Y-68697549D01*
X121222427Y-68599214D01*
X121272078Y-68496143D01*
X121323436Y-68392952D01*
X121374244Y-68294252D01*
X121422243Y-68204657D01*
X121465177Y-68128780D01*
X121500787Y-68071235D01*
X121525970Y-68037539D01*
X121584202Y-67988251D01*
X121639614Y-67970384D01*
X121693332Y-67983893D01*
G37*
G36*
X131448544Y-68017898D02*
G01*
X131515572Y-68052837D01*
X131562630Y-68103171D01*
X131582558Y-68151638D01*
X131593118Y-68209477D01*
X131593620Y-68265331D01*
X131583374Y-68307840D01*
X131575720Y-68318963D01*
X131538026Y-68338432D01*
X131497698Y-68328997D01*
X131460404Y-68292355D01*
X131454151Y-68282496D01*
X131421126Y-68240936D01*
X131385615Y-68227043D01*
X131383366Y-68227003D01*
X131340719Y-68235142D01*
X131285118Y-68257162D01*
X131221968Y-68289469D01*
X131156671Y-68328468D01*
X131094632Y-68370565D01*
X131041253Y-68412165D01*
X131001939Y-68449674D01*
X130982093Y-68479497D01*
X130982532Y-68493645D01*
X130999025Y-68501217D01*
X131039275Y-68506724D01*
X131105479Y-68510307D01*
X131199835Y-68512110D01*
X131271160Y-68512396D01*
X131387139Y-68513232D01*
X131476291Y-68516378D01*
X131543469Y-68522787D01*
X131593527Y-68533416D01*
X131631319Y-68549220D01*
X131661700Y-68571153D01*
X131683785Y-68593593D01*
X131722621Y-68658143D01*
X131731202Y-68728808D01*
X131709925Y-68803581D01*
X131659188Y-68880456D01*
X131618422Y-68923330D01*
X131499077Y-69014711D01*
X131362678Y-69080162D01*
X131211639Y-69118784D01*
X131063598Y-69129859D01*
X130982215Y-69126527D01*
X130922982Y-69116290D01*
X130879672Y-69099176D01*
X130812315Y-69047145D01*
X130770063Y-68976805D01*
X130760277Y-68942014D01*
X130759067Y-68911560D01*
X130772386Y-68892264D01*
X130803894Y-68883427D01*
X130857254Y-68884353D01*
X130936126Y-68894344D01*
X130976330Y-68900837D01*
X131095759Y-68915266D01*
X131193917Y-68913493D01*
X131277342Y-68894555D01*
X131352574Y-68857488D01*
X131375578Y-68841933D01*
X131426169Y-68803575D01*
X131451798Y-68777538D01*
X131454727Y-68759878D01*
X131437215Y-68746651D01*
X131431584Y-68744241D01*
X131405041Y-68739460D01*
X131352252Y-68734642D01*
X131278683Y-68730035D01*
X131189797Y-68725890D01*
X131091058Y-68722455D01*
X130987931Y-68719979D01*
X130885880Y-68718711D01*
X130869622Y-68718635D01*
X130835427Y-68708322D01*
X130794926Y-68682889D01*
X130785403Y-68674912D01*
X130741077Y-68615770D01*
X130724999Y-68544892D01*
X130737633Y-68465828D01*
X130753096Y-68427931D01*
X130802671Y-68350453D01*
X130874238Y-68271623D01*
X130961522Y-68195722D01*
X131058250Y-68127029D01*
X131158148Y-68069826D01*
X131254944Y-68028393D01*
X131342363Y-68007011D01*
X131372887Y-68005030D01*
X131448544Y-68017898D01*
G37*
G36*
X123028197Y-67949382D02*
G01*
X123068751Y-67965701D01*
X123080468Y-67973287D01*
X123116704Y-68009648D01*
X123141374Y-68053998D01*
X123149651Y-68095561D01*
X123144211Y-68115569D01*
X123123981Y-68126419D01*
X123079904Y-68139015D01*
X123019623Y-68151378D01*
X122983315Y-68157218D01*
X122840464Y-68181890D01*
X122710967Y-68211759D01*
X122602402Y-68244974D01*
X122564730Y-68259534D01*
X122500818Y-68286319D01*
X122480760Y-68425053D01*
X122472679Y-68487824D01*
X122468113Y-68537816D01*
X122467672Y-68567421D01*
X122468927Y-68572012D01*
X122487342Y-68572440D01*
X122526802Y-68565202D01*
X122568753Y-68554573D01*
X122639399Y-68536329D01*
X122724199Y-68516803D01*
X122815907Y-68497400D01*
X122907277Y-68479527D01*
X122991062Y-68464587D01*
X123060018Y-68453988D01*
X123106897Y-68449134D01*
X123113188Y-68448976D01*
X123169074Y-68459839D01*
X123219874Y-68487947D01*
X123256728Y-68526573D01*
X123270776Y-68568580D01*
X123265276Y-68594597D01*
X123243011Y-68608626D01*
X123211319Y-68615176D01*
X123123276Y-68630667D01*
X123025716Y-68651249D01*
X122923508Y-68675523D01*
X122821518Y-68702090D01*
X122724616Y-68729552D01*
X122637669Y-68756508D01*
X122565544Y-68781561D01*
X122513110Y-68803311D01*
X122485234Y-68820360D01*
X122482262Y-68824695D01*
X122489901Y-68847189D01*
X122521228Y-68871839D01*
X122568903Y-68894266D01*
X122625324Y-68910041D01*
X122680972Y-68914077D01*
X122754633Y-68907440D01*
X122841248Y-68891938D01*
X122940194Y-68873170D01*
X123013850Y-68863589D01*
X123067301Y-68863280D01*
X123105631Y-68872327D01*
X123133927Y-68890813D01*
X123139996Y-68896884D01*
X123167988Y-68936550D01*
X123183104Y-68972197D01*
X123187145Y-69004473D01*
X123178498Y-69029123D01*
X123153286Y-69048101D01*
X123107635Y-69063363D01*
X123037669Y-69076862D01*
X122951502Y-69089019D01*
X122830114Y-69103345D01*
X122734527Y-69111219D01*
X122659506Y-69112681D01*
X122599815Y-69107773D01*
X122550216Y-69096537D01*
X122537618Y-69092332D01*
X122447607Y-69049888D01*
X122377837Y-68992459D01*
X122326786Y-68917144D01*
X122292928Y-68821041D01*
X122274743Y-68701248D01*
X122270457Y-68583419D01*
X122273444Y-68493651D01*
X122281458Y-68398029D01*
X122293443Y-68302861D01*
X122308343Y-68214455D01*
X122325101Y-68139121D01*
X122342662Y-68083166D01*
X122359136Y-68053696D01*
X122395346Y-68036333D01*
X122450561Y-68031477D01*
X122492597Y-68028549D01*
X122556364Y-68019006D01*
X122632943Y-68004369D01*
X122707520Y-67987600D01*
X122820750Y-67962165D01*
X122908843Y-67947436D01*
X122976443Y-67943235D01*
X123028197Y-67949382D01*
G37*
G36*
X130385001Y-67981093D02*
G01*
X130425555Y-67997411D01*
X130437272Y-68004998D01*
X130473508Y-68041358D01*
X130498178Y-68085708D01*
X130506455Y-68127272D01*
X130501015Y-68147280D01*
X130480785Y-68158129D01*
X130436708Y-68170725D01*
X130376427Y-68183088D01*
X130340119Y-68188929D01*
X130197268Y-68213601D01*
X130067771Y-68243470D01*
X129959206Y-68276684D01*
X129921534Y-68291244D01*
X129857622Y-68318030D01*
X129837564Y-68456763D01*
X129829483Y-68519534D01*
X129824917Y-68569527D01*
X129824476Y-68599132D01*
X129825731Y-68603722D01*
X129844146Y-68604150D01*
X129883606Y-68596912D01*
X129925557Y-68586283D01*
X129996203Y-68568039D01*
X130081003Y-68548513D01*
X130172711Y-68529110D01*
X130264081Y-68511237D01*
X130347866Y-68496298D01*
X130416822Y-68485698D01*
X130463701Y-68480844D01*
X130469992Y-68480686D01*
X130525878Y-68491550D01*
X130576678Y-68519657D01*
X130613532Y-68558283D01*
X130627580Y-68600291D01*
X130622080Y-68626307D01*
X130599815Y-68640337D01*
X130568123Y-68646887D01*
X130480080Y-68662378D01*
X130382520Y-68682960D01*
X130280312Y-68707234D01*
X130178322Y-68733801D01*
X130081420Y-68761262D01*
X129994473Y-68788218D01*
X129922348Y-68813271D01*
X129869914Y-68835021D01*
X129842038Y-68852070D01*
X129839066Y-68856405D01*
X129846705Y-68878899D01*
X129878032Y-68903550D01*
X129925707Y-68925976D01*
X129982128Y-68941751D01*
X130037776Y-68945788D01*
X130111437Y-68939151D01*
X130198052Y-68923649D01*
X130296998Y-68904881D01*
X130370654Y-68895300D01*
X130424105Y-68894991D01*
X130462435Y-68904037D01*
X130490731Y-68922524D01*
X130496800Y-68928595D01*
X130524792Y-68968261D01*
X130539908Y-69003907D01*
X130543949Y-69036183D01*
X130535302Y-69060833D01*
X130510090Y-69079811D01*
X130464439Y-69095073D01*
X130394473Y-69108573D01*
X130308306Y-69120729D01*
X130186918Y-69135056D01*
X130091331Y-69142929D01*
X130016310Y-69144391D01*
X129956619Y-69139483D01*
X129907020Y-69128248D01*
X129894422Y-69124043D01*
X129804411Y-69081599D01*
X129734641Y-69024170D01*
X129683590Y-68948854D01*
X129649732Y-68852751D01*
X129631547Y-68732959D01*
X129627261Y-68615129D01*
X129630248Y-68525361D01*
X129638262Y-68429739D01*
X129650247Y-68334571D01*
X129665147Y-68246165D01*
X129681905Y-68170831D01*
X129699466Y-68114877D01*
X129715940Y-68085406D01*
X129752150Y-68068044D01*
X129807365Y-68063188D01*
X129849401Y-68060260D01*
X129913168Y-68050716D01*
X129989747Y-68036079D01*
X130064324Y-68019310D01*
X130177554Y-67993875D01*
X130265647Y-67979146D01*
X130333247Y-67974945D01*
X130385001Y-67981093D01*
G37*
G36*
X126304902Y-67948302D02*
G01*
X126329797Y-67973961D01*
X126340733Y-67994558D01*
X126350498Y-68016219D01*
X126356293Y-68036234D01*
X126356380Y-68057431D01*
X126349021Y-68082634D01*
X126332478Y-68114669D01*
X126305014Y-68156361D01*
X126264891Y-68210536D01*
X126210370Y-68280019D01*
X126139715Y-68367637D01*
X126051187Y-68476214D01*
X126024120Y-68509336D01*
X125968136Y-68578485D01*
X125920408Y-68638678D01*
X125884070Y-68685859D01*
X125862255Y-68715974D01*
X125857395Y-68725084D01*
X125878264Y-68735830D01*
X125922354Y-68754618D01*
X125982995Y-68778904D01*
X126053520Y-68806143D01*
X126127257Y-68833790D01*
X126197537Y-68859302D01*
X126257692Y-68880133D01*
X126294610Y-68891887D01*
X126370811Y-68918884D01*
X126420131Y-68949198D01*
X126447368Y-68987594D01*
X126457319Y-69038836D01*
X126457668Y-69053838D01*
X126452989Y-69094087D01*
X126435656Y-69115342D01*
X126400719Y-69119388D01*
X126343231Y-69108010D01*
X126322899Y-69102439D01*
X126286204Y-69090425D01*
X126225884Y-69068873D01*
X126147763Y-69039999D01*
X126057669Y-69006015D01*
X125961427Y-68969137D01*
X125864865Y-68931578D01*
X125773808Y-68895552D01*
X125700583Y-68865944D01*
X125688603Y-68870731D01*
X125681758Y-68899810D01*
X125679183Y-68950681D01*
X125675436Y-69029507D01*
X125666207Y-69081746D01*
X125649731Y-69112302D01*
X125624240Y-69126082D01*
X125615484Y-69127574D01*
X125573147Y-69121016D01*
X125536835Y-69101248D01*
X125524519Y-69090605D01*
X125515101Y-69078431D01*
X125508118Y-69060566D01*
X125503105Y-69032849D01*
X125499601Y-68991121D01*
X125497140Y-68931219D01*
X125495259Y-68848984D01*
X125493494Y-68740256D01*
X125493010Y-68708043D01*
X125491901Y-68594363D01*
X125491881Y-68482519D01*
X125492873Y-68379424D01*
X125494798Y-68291989D01*
X125497577Y-68227126D01*
X125498637Y-68212229D01*
X125505357Y-68144187D01*
X125513768Y-68098977D01*
X125526675Y-68067736D01*
X125546881Y-68041607D01*
X125555434Y-68032790D01*
X125601653Y-67999747D01*
X125645587Y-67990772D01*
X125680574Y-68005680D01*
X125698230Y-68036741D01*
X125701503Y-68066255D01*
X125703224Y-68120689D01*
X125703335Y-68193287D01*
X125701777Y-68277294D01*
X125700616Y-68314207D01*
X125698182Y-68396159D01*
X125697030Y-68464843D01*
X125697176Y-68515023D01*
X125698636Y-68541468D01*
X125699916Y-68544107D01*
X125712925Y-68529426D01*
X125745016Y-68492654D01*
X125794537Y-68435693D01*
X125859839Y-68360445D01*
X125939270Y-68268813D01*
X126031180Y-68162700D01*
X126133917Y-68044007D01*
X126136775Y-68040705D01*
X126183932Y-67988913D01*
X126218915Y-67958289D01*
X126247945Y-67944172D01*
X126269003Y-67941610D01*
X126304902Y-67948302D01*
G37*
G36*
X124143468Y-67962419D02*
G01*
X124240071Y-67985648D01*
X124315639Y-68022228D01*
X124367715Y-68071696D01*
X124393846Y-68133587D01*
X124396494Y-68163656D01*
X124392032Y-68209344D01*
X124376948Y-68254269D01*
X124348697Y-68301380D01*
X124304733Y-68353622D01*
X124242509Y-68413942D01*
X124159481Y-68485287D01*
X124053103Y-68570603D01*
X124027861Y-68590335D01*
X123965709Y-68639451D01*
X123913793Y-68681806D01*
X123876673Y-68713581D01*
X123858904Y-68730953D01*
X123858017Y-68732706D01*
X123871681Y-68742957D01*
X123908309Y-68763498D01*
X123962121Y-68791230D01*
X124019482Y-68819301D01*
X124124769Y-68873810D01*
X124200264Y-68922548D01*
X124247154Y-68966496D01*
X124266630Y-69006638D01*
X124266805Y-69023461D01*
X124255593Y-69051292D01*
X124229988Y-69062197D01*
X124186523Y-69056019D01*
X124121736Y-69032600D01*
X124081748Y-69015053D01*
X124010444Y-68984713D01*
X123930442Y-68954064D01*
X123849093Y-68925548D01*
X123773751Y-68901606D01*
X123711768Y-68884683D01*
X123670497Y-68877219D01*
X123666337Y-68877065D01*
X123648534Y-68881043D01*
X123639212Y-68897926D01*
X123635772Y-68935140D01*
X123635445Y-68965311D01*
X123632567Y-69020455D01*
X123625189Y-69066244D01*
X123619032Y-69084225D01*
X123589924Y-69109009D01*
X123547636Y-69113082D01*
X123503868Y-69095395D01*
X123502835Y-69094650D01*
X123485146Y-69075674D01*
X123471320Y-69045342D01*
X123460940Y-69000201D01*
X123453591Y-68936795D01*
X123448854Y-68851671D01*
X123446313Y-68741373D01*
X123445562Y-68620236D01*
X123445416Y-68494191D01*
X123635869Y-68494191D01*
X123637211Y-68542318D01*
X123640899Y-68571089D01*
X123644005Y-68575817D01*
X123662039Y-68569270D01*
X123698025Y-68552665D01*
X123719317Y-68542142D01*
X123766528Y-68515493D01*
X123830167Y-68475768D01*
X123902799Y-68428032D01*
X123976987Y-68377352D01*
X124045293Y-68328793D01*
X124100282Y-68287420D01*
X124130920Y-68261760D01*
X124166426Y-68217393D01*
X124172551Y-68180505D01*
X124151153Y-68153148D01*
X124104093Y-68137371D01*
X124033231Y-68135225D01*
X124017306Y-68136520D01*
X123959698Y-68145598D01*
X123885944Y-68162023D01*
X123809822Y-68182641D01*
X123792000Y-68188092D01*
X123655234Y-68231088D01*
X123645477Y-68312285D01*
X123640046Y-68371314D01*
X123636828Y-68434569D01*
X123635869Y-68494191D01*
X123445416Y-68494191D01*
X123445183Y-68292058D01*
X123405163Y-68248875D01*
X123366962Y-68194250D01*
X123351446Y-68140759D01*
X123355864Y-68107887D01*
X123366584Y-68092131D01*
X123388923Y-68077163D01*
X123427441Y-68061168D01*
X123486696Y-68042330D01*
X123571246Y-68018833D01*
X123595808Y-68012299D01*
X123751999Y-67977481D01*
X123896977Y-67957871D01*
X124028285Y-67953005D01*
X124143468Y-67962419D01*
G37*
D10*
X138746420Y-87064499D02*
X139027580Y-87064499D01*
X138746420Y-88084499D02*
X139027580Y-88084499D01*
D12*
X125425000Y-74196000D02*
X125425000Y-72596000D01*
X124316000Y-87207000D02*
X124316000Y-88807000D01*
D10*
X137566670Y-72396000D02*
X137847830Y-72396000D01*
X137566670Y-73416000D02*
X137847830Y-73416000D01*
X146470000Y-77621252D02*
X146470000Y-76198748D01*
X149190000Y-77621252D02*
X149190000Y-76198748D01*
X107289000Y-68682000D02*
X107289000Y-78152000D01*
X107289000Y-78152000D02*
X107739000Y-78152000D01*
X107739000Y-68682000D02*
X107289000Y-68682000D01*
X111259000Y-68682000D02*
X111709000Y-68682000D01*
X111259000Y-78152000D02*
X111709000Y-78152000D01*
X111709000Y-68682000D02*
X111709000Y-69632000D01*
X111709000Y-78152000D02*
X111709000Y-77202000D01*
X146818001Y-85571000D02*
X146818001Y-87614000D01*
X146818001Y-85571000D02*
X147908001Y-85571000D01*
X147128001Y-86258000D02*
X147908001Y-86258000D01*
X147518001Y-85868000D02*
X147518001Y-86648000D01*
X117430000Y-85292000D02*
X115480000Y-85292000D01*
X117430000Y-85292000D02*
X119380000Y-85292000D01*
X117430000Y-90412000D02*
X115480000Y-90412000D01*
X117430000Y-90412000D02*
X119380000Y-90412000D01*
D14*
X118505000Y-89752000D02*
G75*
G02*
X118155000Y-89752000I-175000J0D01*
G01*
X118155000Y-89752000D02*
G75*
G02*
X118505000Y-89752000I175000J0D01*
G01*
D10*
X119946000Y-91892420D02*
X119946000Y-92173580D01*
X120966000Y-91892420D02*
X120966000Y-92173580D01*
X117411000Y-71195000D02*
X115461000Y-71195000D01*
X117411000Y-71195000D02*
X119361000Y-71195000D01*
X117411000Y-76315000D02*
X115461000Y-76315000D01*
X117411000Y-76315000D02*
X119361000Y-76315000D01*
D14*
X118486000Y-75655000D02*
G75*
G02*
X118136000Y-75655000I-175000J0D01*
G01*
X118136000Y-75655000D02*
G75*
G02*
X118486000Y-75655000I175000J0D01*
G01*
D10*
X139704742Y-83531500D02*
X140179258Y-83531500D01*
X139704742Y-84576500D02*
X140179258Y-84576500D01*
X141073742Y-80727500D02*
X141548258Y-80727500D01*
X141073742Y-81772500D02*
X141548258Y-81772500D01*
X141406758Y-79247500D02*
X140932242Y-79247500D01*
X141406758Y-80292500D02*
X140932242Y-80292500D01*
D12*
X138650500Y-73761000D02*
X142800500Y-73761000D01*
X138650500Y-78911000D02*
X142800500Y-78911000D01*
D14*
X139600500Y-74236000D02*
G75*
G02*
X139250500Y-74236000I-175000J0D01*
G01*
X139250500Y-74236000D02*
G75*
G02*
X139600500Y-74236000I175000J0D01*
G01*
D10*
X160589000Y-86007000D02*
X160589000Y-86957000D01*
X160589000Y-91727000D02*
X160589000Y-90777000D01*
X161039000Y-86007000D02*
X160589000Y-86007000D01*
X161039000Y-91727000D02*
X160589000Y-91727000D01*
X164559000Y-91727000D02*
X165009000Y-91727000D01*
X165009000Y-86007000D02*
X164559000Y-86007000D01*
X165009000Y-91727000D02*
X165009000Y-86007000D01*
X143001500Y-80757258D02*
X143001500Y-80282742D01*
X144046500Y-80757258D02*
X144046500Y-80282742D01*
X150119499Y-85571000D02*
X150119499Y-87614000D01*
X150119499Y-85571000D02*
X151209499Y-85571000D01*
X150429499Y-86258000D02*
X151209499Y-86258000D01*
X150819499Y-85868000D02*
X150819499Y-86648000D01*
X145023250Y-73507000D02*
X145023250Y-67697000D01*
X145023250Y-73507000D02*
X149323250Y-73507000D01*
X149323250Y-73507000D02*
X149323250Y-67697000D01*
X138446758Y-79247500D02*
X137972242Y-79247500D01*
X138446758Y-80292500D02*
X137972242Y-80292500D01*
X134007500Y-78324258D02*
X134007500Y-77849742D01*
X135052500Y-78324258D02*
X135052500Y-77849742D01*
X155789000Y-71305000D02*
X155789000Y-81425000D01*
X160689000Y-70715000D02*
X160689000Y-71305000D01*
X160689000Y-71305000D02*
X155789000Y-71305000D01*
X160689000Y-81425000D02*
X155789000Y-81425000D01*
X160689000Y-81425000D02*
X160689000Y-82015000D01*
X162909000Y-70715000D02*
X162909000Y-71305000D01*
X162909000Y-81425000D02*
X162909000Y-82015000D01*
X165009000Y-71305000D02*
X162909000Y-71305000D01*
X165009000Y-71305000D02*
X165009000Y-81425000D01*
X165009000Y-81425000D02*
X162909000Y-81425000D01*
X160689000Y-70715000D02*
G75*
G02*
X162909000Y-70715000I1110000J0D01*
G01*
X162909000Y-82015000D02*
G75*
G02*
X160689000Y-82015000I-1110000J0D01*
G01*
X135483000Y-78227580D02*
X135483000Y-77946420D01*
X136503000Y-78227580D02*
X136503000Y-77946420D01*
X128541580Y-82583000D02*
X128260420Y-82583000D01*
X128541580Y-83603000D02*
X128260420Y-83603000D01*
X122886758Y-71021500D02*
X122412242Y-71021500D01*
X122886758Y-72066500D02*
X122412242Y-72066500D01*
X135470500Y-75360258D02*
X135470500Y-74885742D01*
X136515500Y-75360258D02*
X136515500Y-74885742D01*
%LPC*%
D15*
X136436250Y-70427613D03*
X136436250Y-68427613D03*
D16*
X121844000Y-74530000D03*
X121844000Y-72980000D03*
D17*
X141412000Y-90534000D03*
X137412000Y-90534000D03*
D18*
X138112000Y-89434000D03*
X138762000Y-89434000D03*
X139412000Y-89434000D03*
X140062000Y-89434000D03*
X140712000Y-89434000D03*
D19*
X143012000Y-92684000D03*
D20*
X143012000Y-89234000D03*
D19*
X135812000Y-92684000D03*
D20*
X135812000Y-89234000D03*
D21*
X112399000Y-84732000D03*
X112399000Y-85982000D03*
X112399000Y-87232000D03*
X112399000Y-88482000D03*
X112399000Y-89732000D03*
X112399000Y-90982000D03*
D22*
X109499000Y-82182000D03*
X109499000Y-93532000D03*
D23*
X146842000Y-92007000D03*
X149842000Y-92007000D03*
D24*
X146092000Y-90247000D03*
X149092000Y-90247000D03*
X150592000Y-90247000D03*
D25*
X144692000Y-90897000D03*
X144692000Y-93107000D03*
X151992000Y-90897000D03*
X151992000Y-93107000D03*
D26*
X159866500Y-68091000D03*
X162666500Y-68091000D03*
D27*
X114427000Y-92235000D03*
X118877000Y-92235000D03*
D28*
X142043250Y-72400500D03*
X142043250Y-68300500D03*
D29*
X124991000Y-92310000D03*
D30*
X124991000Y-91040000D03*
X126261000Y-92310000D03*
X126261000Y-91040000D03*
X127531000Y-92310000D03*
X127531000Y-91040000D03*
X128801000Y-92310000D03*
X128801000Y-91040000D03*
X130071000Y-92310000D03*
X130071000Y-91040000D03*
D16*
X121870000Y-88404000D03*
X121870000Y-86854000D03*
D31*
X131778000Y-83240499D03*
X130681984Y-84336515D03*
D32*
X139117000Y-85557000D03*
X140767000Y-85557000D03*
D16*
X145463500Y-77110000D03*
X145463500Y-75560000D03*
D33*
X132147000Y-80269000D03*
X132147000Y-75269000D03*
D34*
X133487000Y-84784501D03*
X133487000Y-87584499D03*
D32*
X136630000Y-82591000D03*
X138280000Y-82591000D03*
D35*
X134798000Y-83171000D03*
X134798000Y-80371000D03*
D36*
X115249000Y-68597000D03*
X115732274Y-67430274D03*
X115732274Y-69763726D03*
X116899000Y-66947000D03*
D37*
X116899000Y-68597000D03*
D36*
X116899000Y-70247000D03*
X118065726Y-67430274D03*
X118065726Y-69763726D03*
X118549000Y-68597000D03*
D38*
X138112000Y-87574499D03*
X139662000Y-87574499D03*
D39*
X126255000Y-73396000D03*
X123455000Y-73396000D03*
D26*
X123486000Y-88007000D03*
X126286000Y-88007000D03*
D38*
X136932250Y-72906000D03*
X138482250Y-72906000D03*
D40*
X147830000Y-78385000D03*
X147830000Y-75435000D03*
D21*
X112399000Y-70292000D03*
X112399000Y-71542000D03*
X112399000Y-72792000D03*
X112399000Y-74042000D03*
X112399000Y-75292000D03*
X112399000Y-76542000D03*
D22*
X109499000Y-67742000D03*
X109499000Y-79092000D03*
D41*
X146118001Y-84524000D03*
X147518001Y-84524000D03*
X146118001Y-87624000D03*
X147518001Y-87624000D03*
D42*
X119905000Y-89757000D03*
X119905000Y-88487000D03*
X119905000Y-87217000D03*
X119905000Y-85947000D03*
X114955000Y-85947000D03*
X114955000Y-87217000D03*
X114955000Y-88487000D03*
X114955000Y-89757000D03*
D43*
X120456000Y-91258000D03*
X120456000Y-92808000D03*
D42*
X119886000Y-75660000D03*
X119886000Y-74390000D03*
X119886000Y-73120000D03*
X119886000Y-71850000D03*
X114936000Y-71850000D03*
X114936000Y-73120000D03*
X114936000Y-74390000D03*
X114936000Y-75660000D03*
D32*
X139117000Y-84054000D03*
X140767000Y-84054000D03*
X140486000Y-81250000D03*
X142136000Y-81250000D03*
D44*
X141994500Y-79770000D03*
X140344500Y-79770000D03*
D45*
X137945500Y-74431000D03*
X137945500Y-75701000D03*
X137945500Y-76971000D03*
X137945500Y-78241000D03*
X143505500Y-78241000D03*
X143505500Y-76971000D03*
X143505500Y-75701000D03*
X143505500Y-74431000D03*
D46*
X140123000Y-75561000D03*
X140123000Y-77111000D03*
X141328000Y-75561000D03*
X141328000Y-77111000D03*
D47*
X159899000Y-90117000D03*
X159899000Y-88867000D03*
X159899000Y-87617000D03*
D48*
X162799000Y-92667000D03*
X162799000Y-85067000D03*
D49*
X143524000Y-81345000D03*
X143524000Y-79695000D03*
D41*
X149419499Y-84524000D03*
X150819499Y-84524000D03*
X149419499Y-87624000D03*
X150819499Y-87624000D03*
D50*
X147173250Y-71997000D03*
X147173250Y-67697000D03*
D44*
X139034500Y-79770000D03*
X137384500Y-79770000D03*
D49*
X134530000Y-78912000D03*
X134530000Y-77262000D03*
D51*
X161799000Y-70865000D03*
X161799000Y-81865000D03*
D52*
X151799000Y-78865000D03*
X151799000Y-73865000D03*
D16*
X135993000Y-78862000D03*
X135993000Y-77312000D03*
D36*
X153549000Y-89197000D03*
X154032274Y-88030274D03*
X154032274Y-90363726D03*
X155199000Y-87547000D03*
D37*
X155199000Y-89197000D03*
D36*
X155199000Y-90847000D03*
X156365726Y-88030274D03*
X156365726Y-90363726D03*
X156849000Y-89197000D03*
D53*
X129176000Y-83093000D03*
X127626000Y-83093000D03*
D44*
X123474500Y-71544000D03*
X121824500Y-71544000D03*
D49*
X135993000Y-75948000D03*
X135993000Y-74298000D03*
D36*
X153549000Y-68597000D03*
X154032274Y-67430274D03*
X154032274Y-69763726D03*
X155199000Y-66947000D03*
D37*
X155199000Y-68597000D03*
D36*
X155199000Y-70247000D03*
X156365726Y-67430274D03*
X156365726Y-69763726D03*
X156849000Y-68597000D03*
D29*
X114229500Y-76809000D03*
X114229500Y-84809000D03*
%LPD*%
M02*
