G04 #@! TF.GenerationSoftware,KiCad,Pcbnew,8.0.1*
G04 #@! TF.CreationDate,2024-03-31T17:14:50+03:00*
G04 #@! TF.ProjectId,Master board,4d617374-6572-4206-926f-6172642e6b69,rev?*
G04 #@! TF.SameCoordinates,Original*
G04 #@! TF.FileFunction,Copper,L3,Inr*
G04 #@! TF.FilePolarity,Positive*
%FSLAX46Y46*%
G04 Gerber Fmt 4.6, Leading zero omitted, Abs format (unit mm)*
G04 Created by KiCad (PCBNEW 8.0.1) date 2024-03-31 17:14:50*
%MOMM*%
%LPD*%
G01*
G04 APERTURE LIST*
G04 #@! TA.AperFunction,ComponentPad*
%ADD10C,1.600000*%
G04 #@! TD*
G04 #@! TA.AperFunction,ComponentPad*
%ADD11O,1.090000X2.000000*%
G04 #@! TD*
G04 #@! TA.AperFunction,ComponentPad*
%ADD12O,1.050000X1.600000*%
G04 #@! TD*
G04 #@! TA.AperFunction,ComponentPad*
%ADD13C,1.000000*%
G04 #@! TD*
G04 #@! TA.AperFunction,ComponentPad*
%ADD14O,1.000000X1.000000*%
G04 #@! TD*
G04 #@! TA.AperFunction,ComponentPad*
%ADD15C,0.700000*%
G04 #@! TD*
G04 #@! TA.AperFunction,ComponentPad*
%ADD16C,4.400000*%
G04 #@! TD*
G04 #@! TA.AperFunction,ComponentPad*
%ADD17C,1.400000*%
G04 #@! TD*
G04 #@! TA.AperFunction,ComponentPad*
%ADD18C,3.500000*%
G04 #@! TD*
G04 #@! TA.AperFunction,ViaPad*
%ADD19C,0.800000*%
G04 #@! TD*
G04 #@! TA.AperFunction,ViaPad*
%ADD20C,1.400000*%
G04 #@! TD*
G04 #@! TA.AperFunction,Conductor*
%ADD21C,0.800000*%
G04 #@! TD*
G04 #@! TA.AperFunction,Conductor*
%ADD22C,1.400000*%
G04 #@! TD*
G04 APERTURE END LIST*
D10*
X136436250Y-70427613D03*
X136436250Y-68427613D03*
D11*
X143012000Y-92684000D03*
D12*
X143012000Y-89234000D03*
D11*
X135812000Y-92684000D03*
D12*
X135812000Y-89234000D03*
D13*
X124991000Y-92310000D03*
D14*
X124991000Y-91040000D03*
X126261000Y-92310000D03*
X126261000Y-91040000D03*
X127531000Y-92310000D03*
X127531000Y-91040000D03*
X128801000Y-92310000D03*
X128801000Y-91040000D03*
X130071000Y-92310000D03*
X130071000Y-91040000D03*
D15*
X115249000Y-68597000D03*
X115732274Y-67430274D03*
X115732274Y-69763726D03*
X116899000Y-66947000D03*
D16*
X116899000Y-68597000D03*
D15*
X116899000Y-70247000D03*
X118065726Y-67430274D03*
X118065726Y-69763726D03*
X118549000Y-68597000D03*
D17*
X161799000Y-70865000D03*
X161799000Y-81865000D03*
D18*
X151799000Y-78865000D03*
X151799000Y-73865000D03*
D15*
X153549000Y-89197000D03*
X154032274Y-88030274D03*
X154032274Y-90363726D03*
X155199000Y-87547000D03*
D16*
X155199000Y-89197000D03*
D15*
X155199000Y-90847000D03*
X156365726Y-88030274D03*
X156365726Y-90363726D03*
X156849000Y-89197000D03*
X153549000Y-68597000D03*
X154032274Y-67430274D03*
X154032274Y-69763726D03*
X155199000Y-66947000D03*
D16*
X155199000Y-68597000D03*
D15*
X155199000Y-70247000D03*
X156365726Y-67430274D03*
X156365726Y-69763726D03*
X156849000Y-68597000D03*
D19*
X109499000Y-79092000D03*
X151992000Y-90897000D03*
X124765000Y-87644000D03*
X110598999Y-81532000D03*
X146423250Y-68546998D03*
X163898999Y-92017000D03*
X114427000Y-92235000D03*
X108399000Y-79741999D03*
X146423250Y-67097000D03*
X130928545Y-84517342D03*
X110598999Y-82831999D03*
X112798999Y-90982000D03*
X144692000Y-93107000D03*
X159899000Y-90117000D03*
X162799000Y-92667000D03*
X141530499Y-76335999D03*
X147923249Y-67097000D03*
X147173250Y-67821999D03*
X110598999Y-78442000D03*
X115510999Y-75660000D03*
X121844000Y-74530000D03*
X161699000Y-85716999D03*
X115529999Y-89757000D03*
X157495000Y-72949000D03*
X151992000Y-93107000D03*
X163898999Y-85716999D03*
X126760999Y-79084000D03*
X141426000Y-89209000D03*
X161699000Y-84417000D03*
X109499000Y-94181999D03*
X141530499Y-75186000D03*
X140725499Y-76910998D03*
X139920500Y-75186000D03*
X140725499Y-75760999D03*
X109499000Y-82182000D03*
X139920500Y-77485998D03*
X163145000Y-78446000D03*
X110598999Y-94181999D03*
X108399000Y-78442000D03*
X158934000Y-72615000D03*
X163898999Y-93316999D03*
X144692000Y-90897000D03*
X139920500Y-76335998D03*
X141530499Y-77485999D03*
X163898999Y-84417000D03*
X135048999Y-85932999D03*
X112399000Y-76542000D03*
X162799000Y-85067000D03*
X110598999Y-67092000D03*
X147923249Y-68546999D03*
X109499000Y-67092000D03*
X108399000Y-82831999D03*
X112399000Y-75292000D03*
X121870000Y-88404000D03*
X127627999Y-83093000D03*
X161699000Y-92017000D03*
X112798999Y-89732000D03*
X108399000Y-81532000D03*
X108399000Y-67092000D03*
X110598999Y-79741999D03*
X134891000Y-84332000D03*
X161699000Y-93316999D03*
X108399000Y-94181999D03*
X150819500Y-87624000D03*
X116753500Y-91363000D03*
X148707000Y-82119000D03*
X121870000Y-86854000D03*
X155945000Y-72949000D03*
X128078000Y-88340500D03*
X149621000Y-71260000D03*
X132625992Y-70557000D03*
X121844000Y-72980000D03*
X131077999Y-88340500D03*
X147468001Y-87274000D03*
X126755999Y-75876000D03*
X147173250Y-69869500D03*
X162666500Y-68091000D03*
X129578000Y-88340500D03*
X129228000Y-83093000D03*
X136441000Y-84332000D03*
X137437000Y-87576000D03*
D20*
X132596868Y-79725000D03*
X131351000Y-79725000D03*
D19*
X112399000Y-85982000D03*
X112399000Y-84732000D03*
X133639000Y-80397000D03*
X112798999Y-71542000D03*
X112798999Y-70292000D03*
X131778000Y-83240499D03*
X159866500Y-68091000D03*
X147568000Y-84547000D03*
X146105000Y-84547000D03*
X146168000Y-87508000D03*
X149369500Y-84174000D03*
X149369500Y-87274000D03*
X150769500Y-84174000D03*
X128381000Y-84040500D03*
X136989000Y-80889000D03*
X129105000Y-85841000D03*
X138280000Y-82665999D03*
X139935000Y-91661000D03*
X138239000Y-91661000D03*
X116753500Y-92663000D03*
X143524000Y-81345000D03*
X126030000Y-73396000D03*
X140767000Y-85482000D03*
X139500260Y-80824515D03*
X159899000Y-88867000D03*
X159899000Y-87617000D03*
X111999000Y-72792000D03*
X119886000Y-75660000D03*
X119886000Y-71850000D03*
X119905000Y-85947000D03*
X119905000Y-89757000D03*
X111999000Y-74042000D03*
X111999000Y-88482000D03*
X111999000Y-87232000D03*
D21*
X112399000Y-84732000D02*
X112399000Y-85982000D01*
X133639000Y-80397000D02*
X132967000Y-79725000D01*
X132967000Y-79725000D02*
X132596868Y-79725000D01*
X112798999Y-70292000D02*
X112798999Y-71542000D01*
D22*
X131351000Y-79725000D02*
X132596868Y-79725000D01*
G04 #@! TA.AperFunction,Conductor*
G36*
X115168915Y-66717185D02*
G01*
X115214670Y-66769989D01*
X115224614Y-66839147D01*
X115195589Y-66902703D01*
X115186760Y-66911892D01*
X115145652Y-66950494D01*
X114953111Y-67183236D01*
X114791268Y-67438261D01*
X114791265Y-67438267D01*
X114662661Y-67711563D01*
X114662659Y-67711568D01*
X114569320Y-67998835D01*
X114512719Y-68295546D01*
X114512718Y-68295553D01*
X114493754Y-68596994D01*
X114493754Y-68597005D01*
X114512718Y-68898446D01*
X114512719Y-68898453D01*
X114569320Y-69195164D01*
X114662659Y-69482431D01*
X114662661Y-69482436D01*
X114791265Y-69755732D01*
X114791268Y-69755738D01*
X114953111Y-70010763D01*
X114953114Y-70010767D01*
X114953115Y-70010768D01*
X115135706Y-70231483D01*
X115145652Y-70243505D01*
X115365836Y-70450272D01*
X115365846Y-70450280D01*
X115610193Y-70627808D01*
X115610198Y-70627810D01*
X115610205Y-70627816D01*
X115874896Y-70773332D01*
X115874901Y-70773334D01*
X115874903Y-70773335D01*
X115874904Y-70773336D01*
X116155734Y-70884524D01*
X116155737Y-70884525D01*
X116253259Y-70909564D01*
X116448302Y-70959642D01*
X116595039Y-70978179D01*
X116747963Y-70997499D01*
X116747969Y-70997499D01*
X116747973Y-70997500D01*
X116747975Y-70997500D01*
X117050025Y-70997500D01*
X117050027Y-70997500D01*
X117050032Y-70997499D01*
X117050036Y-70997499D01*
X117139909Y-70986145D01*
X117349698Y-70959642D01*
X117642262Y-70884525D01*
X117775638Y-70831718D01*
X117923095Y-70773336D01*
X117923096Y-70773335D01*
X117923094Y-70773335D01*
X117923104Y-70773332D01*
X118187795Y-70627816D01*
X118285264Y-70557001D01*
X132020310Y-70557001D01*
X132040947Y-70713760D01*
X132040948Y-70713762D01*
X132101456Y-70859841D01*
X132197710Y-70985282D01*
X132323151Y-71081536D01*
X132469230Y-71142044D01*
X132547611Y-71152363D01*
X132625991Y-71162682D01*
X132625992Y-71162682D01*
X132625993Y-71162682D01*
X132678246Y-71155802D01*
X132782754Y-71142044D01*
X132928833Y-71081536D01*
X133054274Y-70985282D01*
X133150528Y-70859841D01*
X133211036Y-70713762D01*
X133231674Y-70557000D01*
X133214640Y-70427613D01*
X135430909Y-70427613D01*
X135450225Y-70623742D01*
X135451461Y-70627815D01*
X135484115Y-70735463D01*
X135507438Y-70812346D01*
X135600336Y-70986145D01*
X135600340Y-70986152D01*
X135725366Y-71138496D01*
X135877710Y-71263522D01*
X135877717Y-71263526D01*
X136051516Y-71356424D01*
X136051519Y-71356424D01*
X136051523Y-71356427D01*
X136240118Y-71413637D01*
X136436250Y-71432954D01*
X136632382Y-71413637D01*
X136820977Y-71356427D01*
X136994788Y-71263523D01*
X136999080Y-71260001D01*
X149015318Y-71260001D01*
X149035955Y-71416760D01*
X149035956Y-71416762D01*
X149087830Y-71541998D01*
X149096464Y-71562841D01*
X149192718Y-71688282D01*
X149318159Y-71784536D01*
X149464238Y-71845044D01*
X149542619Y-71855363D01*
X149620999Y-71865682D01*
X149621000Y-71865682D01*
X149621001Y-71865682D01*
X149673254Y-71858802D01*
X149777762Y-71845044D01*
X149923841Y-71784536D01*
X150049282Y-71688282D01*
X150145536Y-71562841D01*
X150206044Y-71416762D01*
X150226682Y-71260000D01*
X150224617Y-71244318D01*
X150206044Y-71103239D01*
X150206044Y-71103238D01*
X150145536Y-70957159D01*
X150049282Y-70831718D01*
X149923841Y-70735464D01*
X149777762Y-70674956D01*
X149777760Y-70674955D01*
X149621001Y-70654318D01*
X149620999Y-70654318D01*
X149464239Y-70674955D01*
X149464237Y-70674956D01*
X149318160Y-70735463D01*
X149192718Y-70831718D01*
X149096463Y-70957160D01*
X149035956Y-71103237D01*
X149035955Y-71103239D01*
X149015318Y-71259998D01*
X149015318Y-71260001D01*
X136999080Y-71260001D01*
X137147133Y-71138496D01*
X137272160Y-70986151D01*
X137365064Y-70812340D01*
X137422274Y-70623745D01*
X137441591Y-70427613D01*
X137422274Y-70231481D01*
X137365064Y-70042886D01*
X137365061Y-70042882D01*
X137365061Y-70042879D01*
X137272388Y-69869501D01*
X146567568Y-69869501D01*
X146588205Y-70026260D01*
X146588206Y-70026262D01*
X146610817Y-70080851D01*
X146648714Y-70172341D01*
X146744968Y-70297782D01*
X146870409Y-70394036D01*
X147016488Y-70454544D01*
X147094869Y-70464863D01*
X147173249Y-70475182D01*
X147173250Y-70475182D01*
X147173251Y-70475182D01*
X147225504Y-70468302D01*
X147330012Y-70454544D01*
X147476091Y-70394036D01*
X147601532Y-70297782D01*
X147697786Y-70172341D01*
X147758294Y-70026262D01*
X147775547Y-69895212D01*
X147778932Y-69869501D01*
X147778932Y-69869498D01*
X147763908Y-69755379D01*
X147758294Y-69712738D01*
X147697786Y-69566659D01*
X147601532Y-69441218D01*
X147476091Y-69344964D01*
X147330012Y-69284456D01*
X147330010Y-69284455D01*
X147173251Y-69263818D01*
X147173249Y-69263818D01*
X147016489Y-69284455D01*
X147016487Y-69284456D01*
X146870410Y-69344963D01*
X146744968Y-69441218D01*
X146648713Y-69566660D01*
X146588206Y-69712737D01*
X146588205Y-69712739D01*
X146567568Y-69869498D01*
X146567568Y-69869501D01*
X137272388Y-69869501D01*
X137272163Y-69869080D01*
X137272159Y-69869073D01*
X137147133Y-69716729D01*
X136994789Y-69591703D01*
X136994782Y-69591699D01*
X136820983Y-69498801D01*
X136820977Y-69498799D01*
X136632382Y-69441589D01*
X136632379Y-69441588D01*
X136436250Y-69422272D01*
X136240120Y-69441588D01*
X136051516Y-69498801D01*
X135877717Y-69591699D01*
X135877710Y-69591703D01*
X135725366Y-69716729D01*
X135600340Y-69869073D01*
X135600336Y-69869080D01*
X135507438Y-70042879D01*
X135450225Y-70231483D01*
X135430909Y-70427613D01*
X133214640Y-70427613D01*
X133211036Y-70400238D01*
X133150528Y-70254159D01*
X133054274Y-70128718D01*
X132928833Y-70032464D01*
X132913855Y-70026260D01*
X132782754Y-69971956D01*
X132782752Y-69971955D01*
X132625993Y-69951318D01*
X132625991Y-69951318D01*
X132469231Y-69971955D01*
X132469229Y-69971956D01*
X132323152Y-70032463D01*
X132197710Y-70128718D01*
X132101455Y-70254160D01*
X132040948Y-70400237D01*
X132040947Y-70400239D01*
X132020310Y-70556998D01*
X132020310Y-70557001D01*
X118285264Y-70557001D01*
X118432162Y-70450274D01*
X118652349Y-70243504D01*
X118844885Y-70010768D01*
X119006733Y-69755736D01*
X119135341Y-69482430D01*
X119228681Y-69195160D01*
X119285280Y-68898457D01*
X119304246Y-68597000D01*
X119299356Y-68519282D01*
X119285281Y-68295553D01*
X119285280Y-68295546D01*
X119285280Y-68295543D01*
X119228681Y-67998840D01*
X119135341Y-67711570D01*
X119006733Y-67438264D01*
X118888685Y-67252250D01*
X118844888Y-67183236D01*
X118778274Y-67102713D01*
X118652349Y-66950496D01*
X118611239Y-66911891D01*
X118575845Y-66851651D01*
X118578639Y-66781837D01*
X118618732Y-66724616D01*
X118683398Y-66698155D01*
X118696124Y-66697500D01*
X153401876Y-66697500D01*
X153468915Y-66717185D01*
X153514670Y-66769989D01*
X153524614Y-66839147D01*
X153495589Y-66902703D01*
X153486760Y-66911892D01*
X153445652Y-66950494D01*
X153253111Y-67183236D01*
X153091268Y-67438261D01*
X153091265Y-67438267D01*
X152962661Y-67711563D01*
X152962659Y-67711568D01*
X152869320Y-67998835D01*
X152812719Y-68295546D01*
X152812718Y-68295553D01*
X152793754Y-68596994D01*
X152793754Y-68597005D01*
X152812718Y-68898446D01*
X152812719Y-68898453D01*
X152869320Y-69195164D01*
X152962659Y-69482431D01*
X152962661Y-69482436D01*
X153091265Y-69755732D01*
X153091268Y-69755738D01*
X153253111Y-70010763D01*
X153253114Y-70010767D01*
X153253115Y-70010768D01*
X153435706Y-70231483D01*
X153445652Y-70243505D01*
X153665836Y-70450272D01*
X153665846Y-70450280D01*
X153910193Y-70627808D01*
X153910198Y-70627810D01*
X153910205Y-70627816D01*
X154174896Y-70773332D01*
X154174901Y-70773334D01*
X154174903Y-70773335D01*
X154174904Y-70773336D01*
X154455734Y-70884524D01*
X154455737Y-70884525D01*
X154553259Y-70909564D01*
X154748302Y-70959642D01*
X154895039Y-70978179D01*
X155047963Y-70997499D01*
X155047969Y-70997499D01*
X155047973Y-70997500D01*
X155047975Y-70997500D01*
X155350025Y-70997500D01*
X155350027Y-70997500D01*
X155350032Y-70997499D01*
X155350036Y-70997499D01*
X155439909Y-70986145D01*
X155649698Y-70959642D01*
X155942262Y-70884525D01*
X155991577Y-70865000D01*
X160893540Y-70865000D01*
X160913326Y-71053256D01*
X160913327Y-71053259D01*
X160971818Y-71233277D01*
X160971821Y-71233284D01*
X161066467Y-71397216D01*
X161088529Y-71421718D01*
X161193129Y-71537888D01*
X161346265Y-71649148D01*
X161346270Y-71649151D01*
X161519192Y-71726142D01*
X161519197Y-71726144D01*
X161704354Y-71765500D01*
X161704355Y-71765500D01*
X161893644Y-71765500D01*
X161893646Y-71765500D01*
X162078803Y-71726144D01*
X162251730Y-71649151D01*
X162404871Y-71537888D01*
X162531533Y-71397216D01*
X162626179Y-71233284D01*
X162684674Y-71053256D01*
X162704460Y-70865000D01*
X162684674Y-70676744D01*
X162626179Y-70496716D01*
X162531533Y-70332784D01*
X162404871Y-70192112D01*
X162380768Y-70174600D01*
X162251734Y-70080851D01*
X162251729Y-70080848D01*
X162078807Y-70003857D01*
X162078802Y-70003855D01*
X161928719Y-69971955D01*
X161893646Y-69964500D01*
X161704354Y-69964500D01*
X161671897Y-69971398D01*
X161519197Y-70003855D01*
X161519192Y-70003857D01*
X161346270Y-70080848D01*
X161346265Y-70080851D01*
X161193129Y-70192111D01*
X161066466Y-70332785D01*
X160971821Y-70496715D01*
X160971818Y-70496722D01*
X160913907Y-70674955D01*
X160913326Y-70676744D01*
X160893540Y-70865000D01*
X155991577Y-70865000D01*
X156075638Y-70831718D01*
X156223095Y-70773336D01*
X156223096Y-70773335D01*
X156223094Y-70773335D01*
X156223104Y-70773332D01*
X156487795Y-70627816D01*
X156732162Y-70450274D01*
X156952349Y-70243504D01*
X157144885Y-70010768D01*
X157306733Y-69755736D01*
X157435341Y-69482430D01*
X157528681Y-69195160D01*
X157585280Y-68898457D01*
X157604246Y-68597000D01*
X157599356Y-68519282D01*
X157585281Y-68295553D01*
X157585280Y-68295546D01*
X157585280Y-68295543D01*
X157546262Y-68091001D01*
X159260818Y-68091001D01*
X159281455Y-68247760D01*
X159281456Y-68247762D01*
X159341964Y-68393841D01*
X159438218Y-68519282D01*
X159563659Y-68615536D01*
X159709738Y-68676044D01*
X159788119Y-68686363D01*
X159866499Y-68696682D01*
X159866500Y-68696682D01*
X159866501Y-68696682D01*
X159918754Y-68689802D01*
X160023262Y-68676044D01*
X160169341Y-68615536D01*
X160294782Y-68519282D01*
X160391036Y-68393841D01*
X160451544Y-68247762D01*
X160472182Y-68091001D01*
X162060818Y-68091001D01*
X162081455Y-68247760D01*
X162081456Y-68247762D01*
X162141964Y-68393841D01*
X162238218Y-68519282D01*
X162363659Y-68615536D01*
X162509738Y-68676044D01*
X162588119Y-68686363D01*
X162666499Y-68696682D01*
X162666500Y-68696682D01*
X162666501Y-68696682D01*
X162718754Y-68689802D01*
X162823262Y-68676044D01*
X162969341Y-68615536D01*
X163094782Y-68519282D01*
X163191036Y-68393841D01*
X163251544Y-68247762D01*
X163272182Y-68091000D01*
X163251544Y-67934238D01*
X163191036Y-67788159D01*
X163094782Y-67662718D01*
X162969341Y-67566464D01*
X162937058Y-67553092D01*
X162823262Y-67505956D01*
X162823260Y-67505955D01*
X162666501Y-67485318D01*
X162666499Y-67485318D01*
X162509739Y-67505955D01*
X162509737Y-67505956D01*
X162363660Y-67566463D01*
X162238218Y-67662718D01*
X162141963Y-67788160D01*
X162081456Y-67934237D01*
X162081455Y-67934239D01*
X162060818Y-68090998D01*
X162060818Y-68091001D01*
X160472182Y-68091001D01*
X160472182Y-68091000D01*
X160451544Y-67934238D01*
X160391036Y-67788159D01*
X160294782Y-67662718D01*
X160169341Y-67566464D01*
X160137058Y-67553092D01*
X160023262Y-67505956D01*
X160023260Y-67505955D01*
X159866501Y-67485318D01*
X159866499Y-67485318D01*
X159709739Y-67505955D01*
X159709737Y-67505956D01*
X159563660Y-67566463D01*
X159438218Y-67662718D01*
X159341963Y-67788160D01*
X159281456Y-67934237D01*
X159281455Y-67934239D01*
X159260818Y-68090998D01*
X159260818Y-68091001D01*
X157546262Y-68091001D01*
X157528681Y-67998840D01*
X157435341Y-67711570D01*
X157306733Y-67438264D01*
X157188685Y-67252250D01*
X157144888Y-67183236D01*
X157078274Y-67102713D01*
X156952349Y-66950496D01*
X156911239Y-66911891D01*
X156875845Y-66851651D01*
X156878639Y-66781837D01*
X156918732Y-66724616D01*
X156983398Y-66698155D01*
X156996124Y-66697500D01*
X163723108Y-66697500D01*
X163783588Y-66697500D01*
X163794394Y-66697971D01*
X163970853Y-66713410D01*
X163992138Y-66717163D01*
X164028060Y-66726788D01*
X164157997Y-66761604D01*
X164178298Y-66768993D01*
X164333920Y-66841561D01*
X164352635Y-66852366D01*
X164475739Y-66938565D01*
X164493286Y-66950851D01*
X164509844Y-66964745D01*
X164631254Y-67086155D01*
X164645148Y-67102713D01*
X164743632Y-67243363D01*
X164754439Y-67262081D01*
X164815686Y-67393426D01*
X164827003Y-67417694D01*
X164834396Y-67438006D01*
X164878836Y-67603861D01*
X164882589Y-67625146D01*
X164898028Y-67801604D01*
X164898500Y-67812412D01*
X164898500Y-93461587D01*
X164898028Y-93472395D01*
X164882589Y-93648853D01*
X164878836Y-93670138D01*
X164834396Y-93835993D01*
X164827003Y-93856305D01*
X164754439Y-94011918D01*
X164743632Y-94030636D01*
X164645148Y-94171286D01*
X164631254Y-94187844D01*
X164509844Y-94309254D01*
X164493286Y-94323148D01*
X164352636Y-94421632D01*
X164333918Y-94432439D01*
X164178305Y-94505003D01*
X164157993Y-94512396D01*
X163992138Y-94556836D01*
X163970853Y-94560589D01*
X163813704Y-94574338D01*
X163794393Y-94576028D01*
X163783588Y-94576500D01*
X108255093Y-94576500D01*
X108242939Y-94575903D01*
X108095426Y-94561374D01*
X108071585Y-94556632D01*
X107935596Y-94515381D01*
X107913139Y-94506079D01*
X107787812Y-94439089D01*
X107767601Y-94425584D01*
X107657753Y-94335434D01*
X107640565Y-94318246D01*
X107550415Y-94208398D01*
X107536910Y-94188187D01*
X107536727Y-94187844D01*
X107469918Y-94062855D01*
X107460621Y-94040410D01*
X107419365Y-93904408D01*
X107414626Y-93880580D01*
X107400097Y-93733061D01*
X107399500Y-93720907D01*
X107399500Y-92663001D01*
X116147818Y-92663001D01*
X116168455Y-92819760D01*
X116168456Y-92819762D01*
X116228964Y-92965841D01*
X116325218Y-93091282D01*
X116450659Y-93187536D01*
X116596738Y-93248044D01*
X116675119Y-93258363D01*
X116753499Y-93268682D01*
X116753500Y-93268682D01*
X116753501Y-93268682D01*
X116805754Y-93261802D01*
X116910262Y-93248044D01*
X117056341Y-93187536D01*
X117181782Y-93091282D01*
X117278036Y-92965841D01*
X117338544Y-92819762D01*
X117352302Y-92715254D01*
X117359182Y-92663001D01*
X117359182Y-92662998D01*
X117338544Y-92506239D01*
X117338544Y-92506238D01*
X117278036Y-92360159D01*
X117239548Y-92310000D01*
X124285355Y-92310000D01*
X124305859Y-92478869D01*
X124305860Y-92478874D01*
X124366182Y-92637931D01*
X124383487Y-92663001D01*
X124462817Y-92777929D01*
X124568505Y-92871560D01*
X124590150Y-92890736D01*
X124733247Y-92965839D01*
X124740775Y-92969790D01*
X124905944Y-93010500D01*
X125076056Y-93010500D01*
X125241225Y-92969790D01*
X125320692Y-92928081D01*
X125391849Y-92890736D01*
X125391850Y-92890734D01*
X125391852Y-92890734D01*
X125519183Y-92777929D01*
X125615818Y-92637930D01*
X125676140Y-92478872D01*
X125696645Y-92310000D01*
X125676140Y-92141128D01*
X125615818Y-91982070D01*
X125603235Y-91963841D01*
X125550565Y-91887536D01*
X125519183Y-91842071D01*
X125435363Y-91767813D01*
X125398238Y-91708626D01*
X125399006Y-91638761D01*
X125435363Y-91582186D01*
X125519183Y-91507929D01*
X125523950Y-91501021D01*
X125578230Y-91457033D01*
X125647678Y-91449372D01*
X125710244Y-91480473D01*
X125728046Y-91501017D01*
X125732817Y-91507929D01*
X125816634Y-91582184D01*
X125860150Y-91620736D01*
X126010773Y-91699789D01*
X126010775Y-91699790D01*
X126175944Y-91740500D01*
X126346056Y-91740500D01*
X126511225Y-91699790D01*
X126590692Y-91658081D01*
X126661849Y-91620736D01*
X126661850Y-91620734D01*
X126661852Y-91620734D01*
X126789183Y-91507929D01*
X126793950Y-91501021D01*
X126848230Y-91457033D01*
X126917678Y-91449372D01*
X126980244Y-91480473D01*
X126998046Y-91501017D01*
X127002817Y-91507929D01*
X127086634Y-91582184D01*
X127130150Y-91620736D01*
X127280773Y-91699789D01*
X127280775Y-91699790D01*
X127445944Y-91740500D01*
X127616056Y-91740500D01*
X127781225Y-91699790D01*
X127860692Y-91658081D01*
X127931849Y-91620736D01*
X127931850Y-91620734D01*
X127931852Y-91620734D01*
X128059183Y-91507929D01*
X128063950Y-91501021D01*
X128118230Y-91457033D01*
X128187678Y-91449372D01*
X128250244Y-91480473D01*
X128268046Y-91501017D01*
X128272817Y-91507929D01*
X128272819Y-91507931D01*
X128272820Y-91507932D01*
X128356634Y-91582185D01*
X128393761Y-91641374D01*
X128392993Y-91711240D01*
X128356634Y-91767815D01*
X128272818Y-91842069D01*
X128176182Y-91982068D01*
X128115860Y-92141125D01*
X128115859Y-92141130D01*
X128095355Y-92310000D01*
X128115859Y-92478869D01*
X128115860Y-92478874D01*
X128176182Y-92637931D01*
X128193487Y-92663001D01*
X128272817Y-92777929D01*
X128378505Y-92871560D01*
X128400150Y-92890736D01*
X128543247Y-92965839D01*
X128550775Y-92969790D01*
X128715944Y-93010500D01*
X128886056Y-93010500D01*
X129051225Y-92969790D01*
X129130692Y-92928081D01*
X129201849Y-92890736D01*
X129201850Y-92890734D01*
X129201852Y-92890734D01*
X129329183Y-92777929D01*
X129425818Y-92637930D01*
X129486140Y-92478872D01*
X129506645Y-92310000D01*
X129486140Y-92141128D01*
X129425818Y-91982070D01*
X129413235Y-91963841D01*
X129360565Y-91887536D01*
X129329183Y-91842071D01*
X129245363Y-91767813D01*
X129208238Y-91708626D01*
X129209006Y-91638761D01*
X129245363Y-91582186D01*
X129329183Y-91507929D01*
X129333950Y-91501021D01*
X129388230Y-91457033D01*
X129457678Y-91449372D01*
X129520244Y-91480473D01*
X129538046Y-91501017D01*
X129542817Y-91507929D01*
X129626634Y-91582184D01*
X129670150Y-91620736D01*
X129820773Y-91699789D01*
X129820775Y-91699790D01*
X129985944Y-91740500D01*
X130156056Y-91740500D01*
X130321225Y-91699790D01*
X130395129Y-91661001D01*
X137633318Y-91661001D01*
X137653955Y-91817760D01*
X137653956Y-91817762D01*
X137687373Y-91898439D01*
X137714464Y-91963841D01*
X137810718Y-92089282D01*
X137936159Y-92185536D01*
X138082238Y-92246044D01*
X138160619Y-92256363D01*
X138238999Y-92266682D01*
X138239000Y-92266682D01*
X138239001Y-92266682D01*
X138291254Y-92259802D01*
X138395762Y-92246044D01*
X138541841Y-92185536D01*
X138667282Y-92089282D01*
X138763536Y-91963841D01*
X138824044Y-91817762D01*
X138844682Y-91661001D01*
X139329318Y-91661001D01*
X139349955Y-91817760D01*
X139349956Y-91817762D01*
X139383373Y-91898439D01*
X139410464Y-91963841D01*
X139506718Y-92089282D01*
X139632159Y-92185536D01*
X139778238Y-92246044D01*
X139856619Y-92256363D01*
X139934999Y-92266682D01*
X139935000Y-92266682D01*
X139935001Y-92266682D01*
X139987254Y-92259802D01*
X140091762Y-92246044D01*
X140237841Y-92185536D01*
X140363282Y-92089282D01*
X140373477Y-92075995D01*
X146141499Y-92075995D01*
X146168418Y-92211322D01*
X146168421Y-92211332D01*
X146221221Y-92338804D01*
X146221228Y-92338817D01*
X146297885Y-92453541D01*
X146297888Y-92453545D01*
X146395454Y-92551111D01*
X146395458Y-92551114D01*
X146510182Y-92627771D01*
X146510195Y-92627778D01*
X146595232Y-92663001D01*
X146637672Y-92680580D01*
X146637676Y-92680580D01*
X146637677Y-92680581D01*
X146773004Y-92707500D01*
X146773007Y-92707500D01*
X146910995Y-92707500D01*
X147002041Y-92689389D01*
X147046328Y-92680580D01*
X147173811Y-92627775D01*
X147288542Y-92551114D01*
X147386114Y-92453542D01*
X147462775Y-92338811D01*
X147515580Y-92211328D01*
X147530074Y-92138462D01*
X147542500Y-92075995D01*
X149141499Y-92075995D01*
X149168418Y-92211322D01*
X149168421Y-92211332D01*
X149221221Y-92338804D01*
X149221228Y-92338817D01*
X149297885Y-92453541D01*
X149297888Y-92453545D01*
X149395454Y-92551111D01*
X149395458Y-92551114D01*
X149510182Y-92627771D01*
X149510195Y-92627778D01*
X149595232Y-92663001D01*
X149637672Y-92680580D01*
X149637676Y-92680580D01*
X149637677Y-92680581D01*
X149773004Y-92707500D01*
X149773007Y-92707500D01*
X149910995Y-92707500D01*
X150002041Y-92689389D01*
X150046328Y-92680580D01*
X150173811Y-92627775D01*
X150288542Y-92551114D01*
X150386114Y-92453542D01*
X150462775Y-92338811D01*
X150515580Y-92211328D01*
X150530074Y-92138462D01*
X150542500Y-92075995D01*
X150542500Y-91938004D01*
X150515581Y-91802677D01*
X150515580Y-91802676D01*
X150515580Y-91802672D01*
X150489828Y-91740500D01*
X150462778Y-91675195D01*
X150462771Y-91675182D01*
X150386114Y-91560458D01*
X150386111Y-91560454D01*
X150288545Y-91462888D01*
X150288541Y-91462885D01*
X150173817Y-91386228D01*
X150173804Y-91386221D01*
X150046332Y-91333421D01*
X150046322Y-91333418D01*
X149910995Y-91306500D01*
X149910993Y-91306500D01*
X149773007Y-91306500D01*
X149773005Y-91306500D01*
X149637677Y-91333418D01*
X149637667Y-91333421D01*
X149510195Y-91386221D01*
X149510182Y-91386228D01*
X149395458Y-91462885D01*
X149395454Y-91462888D01*
X149297888Y-91560454D01*
X149297885Y-91560458D01*
X149221228Y-91675182D01*
X149221221Y-91675195D01*
X149168421Y-91802667D01*
X149168418Y-91802677D01*
X149141500Y-91938004D01*
X149141500Y-91938007D01*
X149141500Y-92075993D01*
X149141500Y-92075995D01*
X149141499Y-92075995D01*
X147542500Y-92075995D01*
X147542500Y-91938004D01*
X147515581Y-91802677D01*
X147515580Y-91802676D01*
X147515580Y-91802672D01*
X147489828Y-91740500D01*
X147462778Y-91675195D01*
X147462771Y-91675182D01*
X147386114Y-91560458D01*
X147386111Y-91560454D01*
X147288545Y-91462888D01*
X147288541Y-91462885D01*
X147173817Y-91386228D01*
X147173804Y-91386221D01*
X147046332Y-91333421D01*
X147046322Y-91333418D01*
X146910995Y-91306500D01*
X146910993Y-91306500D01*
X146773007Y-91306500D01*
X146773005Y-91306500D01*
X146637677Y-91333418D01*
X146637667Y-91333421D01*
X146510195Y-91386221D01*
X146510182Y-91386228D01*
X146395458Y-91462885D01*
X146395454Y-91462888D01*
X146297888Y-91560454D01*
X146297885Y-91560458D01*
X146221228Y-91675182D01*
X146221221Y-91675195D01*
X146168421Y-91802667D01*
X146168418Y-91802677D01*
X146141500Y-91938004D01*
X146141500Y-91938007D01*
X146141500Y-92075993D01*
X146141500Y-92075995D01*
X146141499Y-92075995D01*
X140373477Y-92075995D01*
X140459536Y-91963841D01*
X140520044Y-91817762D01*
X140540682Y-91661000D01*
X140520044Y-91504238D01*
X140459536Y-91358159D01*
X140363282Y-91232718D01*
X140237841Y-91136464D01*
X140091762Y-91075956D01*
X140091760Y-91075955D01*
X139935001Y-91055318D01*
X139934999Y-91055318D01*
X139778239Y-91075955D01*
X139778237Y-91075956D01*
X139632160Y-91136463D01*
X139506718Y-91232718D01*
X139410463Y-91358160D01*
X139349956Y-91504237D01*
X139349955Y-91504239D01*
X139329318Y-91660998D01*
X139329318Y-91661001D01*
X138844682Y-91661001D01*
X138844682Y-91661000D01*
X138824044Y-91504238D01*
X138763536Y-91358159D01*
X138667282Y-91232718D01*
X138541841Y-91136464D01*
X138395762Y-91075956D01*
X138395760Y-91075955D01*
X138239001Y-91055318D01*
X138238999Y-91055318D01*
X138082239Y-91075955D01*
X138082237Y-91075956D01*
X137936160Y-91136463D01*
X137810718Y-91232718D01*
X137714463Y-91358160D01*
X137653956Y-91504237D01*
X137653955Y-91504239D01*
X137633318Y-91660998D01*
X137633318Y-91661001D01*
X130395129Y-91661001D01*
X130400692Y-91658081D01*
X130471849Y-91620736D01*
X130471850Y-91620734D01*
X130471852Y-91620734D01*
X130599183Y-91507929D01*
X130695818Y-91367930D01*
X130756140Y-91208872D01*
X130776645Y-91040000D01*
X130756140Y-90871128D01*
X130695818Y-90712070D01*
X130618386Y-90599891D01*
X136911500Y-90599891D01*
X136945608Y-90727187D01*
X136974920Y-90777955D01*
X137011500Y-90841314D01*
X137104686Y-90934500D01*
X137218814Y-91000392D01*
X137346108Y-91034500D01*
X137346110Y-91034500D01*
X137477890Y-91034500D01*
X137477892Y-91034500D01*
X137605186Y-91000392D01*
X137719314Y-90934500D01*
X137812500Y-90841314D01*
X137878392Y-90727186D01*
X137912500Y-90599892D01*
X137912500Y-90599891D01*
X140911500Y-90599891D01*
X140945608Y-90727187D01*
X140974920Y-90777955D01*
X141011500Y-90841314D01*
X141104686Y-90934500D01*
X141218814Y-91000392D01*
X141346108Y-91034500D01*
X141346110Y-91034500D01*
X141477890Y-91034500D01*
X141477892Y-91034500D01*
X141605186Y-91000392D01*
X141719314Y-90934500D01*
X141812500Y-90841314D01*
X141878392Y-90727186D01*
X141912500Y-90599892D01*
X141912500Y-90468108D01*
X141878392Y-90340814D01*
X141877633Y-90339500D01*
X141869563Y-90325521D01*
X141812500Y-90226686D01*
X141719314Y-90133500D01*
X141630869Y-90082436D01*
X141605187Y-90067608D01*
X141541539Y-90050554D01*
X141477892Y-90033500D01*
X141346108Y-90033500D01*
X141218812Y-90067608D01*
X141104686Y-90133500D01*
X141104683Y-90133502D01*
X141011502Y-90226683D01*
X141011500Y-90226686D01*
X140945608Y-90340812D01*
X140911500Y-90468108D01*
X140911500Y-90599891D01*
X137912500Y-90599891D01*
X137912500Y-90468108D01*
X137878392Y-90340814D01*
X137877633Y-90339500D01*
X137869563Y-90325521D01*
X137812500Y-90226686D01*
X137719314Y-90133500D01*
X137630869Y-90082436D01*
X137605187Y-90067608D01*
X137541539Y-90050554D01*
X137477892Y-90033500D01*
X137346108Y-90033500D01*
X137218812Y-90067608D01*
X137104686Y-90133500D01*
X137104683Y-90133502D01*
X137011502Y-90226683D01*
X137011500Y-90226686D01*
X136945608Y-90340812D01*
X136911500Y-90468108D01*
X136911500Y-90599891D01*
X130618386Y-90599891D01*
X130599183Y-90572071D01*
X130471852Y-90459266D01*
X130471849Y-90459263D01*
X130321226Y-90380210D01*
X130156056Y-90339500D01*
X129985944Y-90339500D01*
X129820773Y-90380210D01*
X129670150Y-90459263D01*
X129542815Y-90572072D01*
X129538049Y-90578978D01*
X129483766Y-90622968D01*
X129414317Y-90630627D01*
X129351753Y-90599523D01*
X129333951Y-90578978D01*
X129329184Y-90572072D01*
X129201849Y-90459263D01*
X129051226Y-90380210D01*
X128886056Y-90339500D01*
X128715944Y-90339500D01*
X128550773Y-90380210D01*
X128400150Y-90459263D01*
X128272815Y-90572072D01*
X128268049Y-90578978D01*
X128213766Y-90622968D01*
X128144317Y-90630627D01*
X128081753Y-90599523D01*
X128063951Y-90578978D01*
X128059184Y-90572072D01*
X127931849Y-90459263D01*
X127781226Y-90380210D01*
X127616056Y-90339500D01*
X127445944Y-90339500D01*
X127280773Y-90380210D01*
X127130150Y-90459263D01*
X127002815Y-90572072D01*
X126998049Y-90578978D01*
X126943766Y-90622968D01*
X126874317Y-90630627D01*
X126811753Y-90599523D01*
X126793951Y-90578978D01*
X126789184Y-90572072D01*
X126661849Y-90459263D01*
X126511226Y-90380210D01*
X126346056Y-90339500D01*
X126175944Y-90339500D01*
X126010773Y-90380210D01*
X125860150Y-90459263D01*
X125732815Y-90572072D01*
X125728049Y-90578978D01*
X125673766Y-90622968D01*
X125604317Y-90630627D01*
X125541753Y-90599523D01*
X125523951Y-90578978D01*
X125519184Y-90572072D01*
X125391849Y-90459263D01*
X125241226Y-90380210D01*
X125076056Y-90339500D01*
X124905944Y-90339500D01*
X124740773Y-90380210D01*
X124590150Y-90459263D01*
X124462816Y-90572072D01*
X124366182Y-90712068D01*
X124305860Y-90871125D01*
X124305859Y-90871130D01*
X124285355Y-91040000D01*
X124305859Y-91208869D01*
X124305860Y-91208874D01*
X124366182Y-91367931D01*
X124378807Y-91386221D01*
X124460269Y-91504238D01*
X124462818Y-91507930D01*
X124546634Y-91582185D01*
X124583761Y-91641374D01*
X124582993Y-91711240D01*
X124546634Y-91767815D01*
X124462818Y-91842069D01*
X124366182Y-91982068D01*
X124305860Y-92141125D01*
X124305859Y-92141130D01*
X124285355Y-92310000D01*
X117239548Y-92310000D01*
X117181782Y-92234718D01*
X117056341Y-92138464D01*
X117056340Y-92138463D01*
X117056338Y-92138462D01*
X117030019Y-92127561D01*
X116975615Y-92083721D01*
X116953550Y-92017427D01*
X116970829Y-91949727D01*
X117021966Y-91902116D01*
X117030019Y-91898439D01*
X117034746Y-91896480D01*
X117056341Y-91887536D01*
X117181782Y-91791282D01*
X117278036Y-91665841D01*
X117338544Y-91519762D01*
X117359182Y-91363000D01*
X117356296Y-91341081D01*
X117338544Y-91206239D01*
X117338544Y-91206238D01*
X117278036Y-91060159D01*
X117181782Y-90934718D01*
X117056341Y-90838464D01*
X116910262Y-90777956D01*
X116910260Y-90777955D01*
X116753501Y-90757318D01*
X116753499Y-90757318D01*
X116596739Y-90777955D01*
X116596737Y-90777956D01*
X116450660Y-90838463D01*
X116325218Y-90934718D01*
X116228963Y-91060160D01*
X116168456Y-91206237D01*
X116168455Y-91206239D01*
X116147818Y-91362998D01*
X116147818Y-91363001D01*
X116168455Y-91519760D01*
X116168456Y-91519762D01*
X116228964Y-91665841D01*
X116325218Y-91791282D01*
X116450659Y-91887536D01*
X116473988Y-91897199D01*
X116476981Y-91898439D01*
X116531384Y-91942280D01*
X116553449Y-92008575D01*
X116536170Y-92076274D01*
X116485032Y-92123884D01*
X116476981Y-92127561D01*
X116450660Y-92138463D01*
X116325218Y-92234718D01*
X116228963Y-92360160D01*
X116168456Y-92506237D01*
X116168455Y-92506239D01*
X116147818Y-92662998D01*
X116147818Y-92663001D01*
X107399500Y-92663001D01*
X107399500Y-89757001D01*
X119299318Y-89757001D01*
X119319955Y-89913760D01*
X119319956Y-89913762D01*
X119380464Y-90059841D01*
X119476718Y-90185282D01*
X119602159Y-90281536D01*
X119748238Y-90342044D01*
X119826619Y-90352363D01*
X119904999Y-90362682D01*
X119905000Y-90362682D01*
X119905001Y-90362682D01*
X119957791Y-90355732D01*
X120061762Y-90342044D01*
X120207841Y-90281536D01*
X120333282Y-90185282D01*
X120429536Y-90059841D01*
X120490044Y-89913762D01*
X120510682Y-89757000D01*
X120490044Y-89600238D01*
X120429536Y-89454159D01*
X120333282Y-89328718D01*
X120207841Y-89232464D01*
X120122235Y-89197005D01*
X152793754Y-89197005D01*
X152812718Y-89498446D01*
X152812719Y-89498453D01*
X152869320Y-89795164D01*
X152962659Y-90082431D01*
X152962661Y-90082436D01*
X153091265Y-90355732D01*
X153091268Y-90355738D01*
X153253111Y-90610763D01*
X153253114Y-90610767D01*
X153253115Y-90610768D01*
X153445651Y-90843504D01*
X153649040Y-91034500D01*
X153665836Y-91050272D01*
X153665846Y-91050280D01*
X153910193Y-91227808D01*
X153910198Y-91227810D01*
X153910205Y-91227816D01*
X154174896Y-91373332D01*
X154174901Y-91373334D01*
X154174903Y-91373335D01*
X154174904Y-91373336D01*
X154455734Y-91484524D01*
X154455737Y-91484525D01*
X154546884Y-91507927D01*
X154748302Y-91559642D01*
X154895039Y-91578179D01*
X155047963Y-91597499D01*
X155047969Y-91597499D01*
X155047973Y-91597500D01*
X155047975Y-91597500D01*
X155350025Y-91597500D01*
X155350027Y-91597500D01*
X155350032Y-91597499D01*
X155350036Y-91597499D01*
X155471263Y-91582184D01*
X155649698Y-91559642D01*
X155942262Y-91484525D01*
X155942265Y-91484524D01*
X156223095Y-91373336D01*
X156223096Y-91373335D01*
X156223094Y-91373335D01*
X156223104Y-91373332D01*
X156487795Y-91227816D01*
X156732162Y-91050274D01*
X156952349Y-90843504D01*
X157144885Y-90610768D01*
X157306733Y-90355736D01*
X157435341Y-90082430D01*
X157528681Y-89795160D01*
X157585280Y-89498457D01*
X157604246Y-89197000D01*
X157602670Y-89171956D01*
X157585281Y-88895553D01*
X157585280Y-88895546D01*
X157585280Y-88895543D01*
X157579835Y-88867001D01*
X159293318Y-88867001D01*
X159313955Y-89023760D01*
X159313956Y-89023762D01*
X159366791Y-89151318D01*
X159374464Y-89169841D01*
X159470718Y-89295282D01*
X159596159Y-89391536D01*
X159742238Y-89452044D01*
X159758311Y-89454160D01*
X159898999Y-89472682D01*
X159899000Y-89472682D01*
X159899001Y-89472682D01*
X159951254Y-89465802D01*
X160055762Y-89452044D01*
X160201841Y-89391536D01*
X160327282Y-89295282D01*
X160423536Y-89169841D01*
X160484044Y-89023762D01*
X160504682Y-88867000D01*
X160504423Y-88865036D01*
X160484044Y-88710239D01*
X160484044Y-88710238D01*
X160423536Y-88564159D01*
X160327282Y-88438718D01*
X160327280Y-88438717D01*
X160327280Y-88438716D01*
X160199120Y-88340376D01*
X160157917Y-88283948D01*
X160153762Y-88214202D01*
X160187974Y-88153282D01*
X160199120Y-88143624D01*
X160265038Y-88093043D01*
X160327282Y-88045282D01*
X160423536Y-87919841D01*
X160484044Y-87773762D01*
X160503760Y-87624001D01*
X160504682Y-87617001D01*
X160504682Y-87616998D01*
X160484966Y-87467239D01*
X160484044Y-87460238D01*
X160423536Y-87314159D01*
X160327282Y-87188718D01*
X160201841Y-87092464D01*
X160171069Y-87079718D01*
X160055762Y-87031956D01*
X160055760Y-87031955D01*
X159899001Y-87011318D01*
X159898999Y-87011318D01*
X159742239Y-87031955D01*
X159742237Y-87031956D01*
X159596160Y-87092463D01*
X159470718Y-87188718D01*
X159374463Y-87314160D01*
X159313956Y-87460237D01*
X159313955Y-87460239D01*
X159293318Y-87616998D01*
X159293318Y-87617001D01*
X159313955Y-87773760D01*
X159313956Y-87773762D01*
X159357829Y-87879682D01*
X159374464Y-87919841D01*
X159470718Y-88045282D01*
X159532962Y-88093043D01*
X159598880Y-88143624D01*
X159640082Y-88200053D01*
X159644237Y-88269799D01*
X159610024Y-88330719D01*
X159598880Y-88340376D01*
X159470718Y-88438718D01*
X159374463Y-88564160D01*
X159313956Y-88710237D01*
X159313955Y-88710239D01*
X159293318Y-88866998D01*
X159293318Y-88867001D01*
X157579835Y-88867001D01*
X157528681Y-88598840D01*
X157435341Y-88311570D01*
X157396807Y-88229682D01*
X157358623Y-88148536D01*
X157306733Y-88038264D01*
X157218321Y-87898948D01*
X157144888Y-87783236D01*
X157144885Y-87783232D01*
X156952349Y-87550496D01*
X156907095Y-87508000D01*
X156769231Y-87378536D01*
X156732162Y-87343726D01*
X156732159Y-87343724D01*
X156732153Y-87343719D01*
X156487806Y-87166191D01*
X156487799Y-87166186D01*
X156487795Y-87166184D01*
X156223104Y-87020668D01*
X156223101Y-87020666D01*
X156223096Y-87020664D01*
X156223095Y-87020663D01*
X155942265Y-86909475D01*
X155942262Y-86909474D01*
X155649695Y-86834357D01*
X155350036Y-86796500D01*
X155350027Y-86796500D01*
X155047973Y-86796500D01*
X155047963Y-86796500D01*
X154748304Y-86834357D01*
X154455737Y-86909474D01*
X154455734Y-86909475D01*
X154174904Y-87020663D01*
X154174903Y-87020664D01*
X153910205Y-87166184D01*
X153910193Y-87166191D01*
X153665846Y-87343719D01*
X153665836Y-87343727D01*
X153445652Y-87550494D01*
X153253111Y-87783236D01*
X153091268Y-88038261D01*
X153091265Y-88038267D01*
X152962661Y-88311563D01*
X152962659Y-88311568D01*
X152869320Y-88598835D01*
X152812719Y-88895546D01*
X152812718Y-88895553D01*
X152793754Y-89196994D01*
X152793754Y-89197005D01*
X120122235Y-89197005D01*
X120122223Y-89197000D01*
X120061762Y-89171956D01*
X120061760Y-89171955D01*
X119905001Y-89151318D01*
X119904999Y-89151318D01*
X119748239Y-89171955D01*
X119748237Y-89171956D01*
X119602160Y-89232463D01*
X119476718Y-89328718D01*
X119380463Y-89454160D01*
X119319956Y-89600237D01*
X119319955Y-89600239D01*
X119299318Y-89756998D01*
X119299318Y-89757001D01*
X107399500Y-89757001D01*
X107399500Y-88482001D01*
X111393318Y-88482001D01*
X111413955Y-88638760D01*
X111413956Y-88638762D01*
X111474464Y-88784841D01*
X111570718Y-88910282D01*
X111696159Y-89006536D01*
X111842238Y-89067044D01*
X111920619Y-89077363D01*
X111998999Y-89087682D01*
X111999000Y-89087682D01*
X111999001Y-89087682D01*
X112051254Y-89080802D01*
X112155762Y-89067044D01*
X112301841Y-89006536D01*
X112427282Y-88910282D01*
X112523536Y-88784841D01*
X112584044Y-88638762D01*
X112604682Y-88482000D01*
X112586053Y-88340501D01*
X127472318Y-88340501D01*
X127492955Y-88497260D01*
X127492956Y-88497262D01*
X127553464Y-88643341D01*
X127649718Y-88768782D01*
X127775159Y-88865036D01*
X127921238Y-88925544D01*
X127999619Y-88935863D01*
X128077999Y-88946182D01*
X128078000Y-88946182D01*
X128078001Y-88946182D01*
X128130254Y-88939302D01*
X128234762Y-88925544D01*
X128380841Y-88865036D01*
X128506282Y-88768782D01*
X128602536Y-88643341D01*
X128663044Y-88497262D01*
X128676802Y-88392754D01*
X128683682Y-88340501D01*
X128972318Y-88340501D01*
X128992955Y-88497260D01*
X128992956Y-88497262D01*
X129053464Y-88643341D01*
X129149718Y-88768782D01*
X129275159Y-88865036D01*
X129421238Y-88925544D01*
X129499619Y-88935863D01*
X129577999Y-88946182D01*
X129578000Y-88946182D01*
X129578001Y-88946182D01*
X129630254Y-88939302D01*
X129734762Y-88925544D01*
X129880841Y-88865036D01*
X130006282Y-88768782D01*
X130102536Y-88643341D01*
X130163044Y-88497262D01*
X130176802Y-88392754D01*
X130183682Y-88340501D01*
X130472317Y-88340501D01*
X130492954Y-88497260D01*
X130492955Y-88497262D01*
X130553463Y-88643341D01*
X130649717Y-88768782D01*
X130775158Y-88865036D01*
X130921237Y-88925544D01*
X130999618Y-88935863D01*
X131077998Y-88946182D01*
X131077999Y-88946182D01*
X131078000Y-88946182D01*
X131130253Y-88939302D01*
X131234761Y-88925544D01*
X131380840Y-88865036D01*
X131506281Y-88768782D01*
X131602535Y-88643341D01*
X131663043Y-88497262D01*
X131676801Y-88392754D01*
X131683681Y-88340501D01*
X131683681Y-88340498D01*
X131663043Y-88183739D01*
X131663043Y-88183738D01*
X131602535Y-88037659D01*
X131506281Y-87912218D01*
X131380840Y-87815964D01*
X131368467Y-87810839D01*
X131234761Y-87755456D01*
X131234759Y-87755455D01*
X131078000Y-87734818D01*
X131077998Y-87734818D01*
X130921238Y-87755455D01*
X130921236Y-87755456D01*
X130775159Y-87815963D01*
X130649717Y-87912218D01*
X130553462Y-88037660D01*
X130492955Y-88183737D01*
X130492954Y-88183739D01*
X130472317Y-88340498D01*
X130472317Y-88340501D01*
X130183682Y-88340501D01*
X130183682Y-88340498D01*
X130163044Y-88183739D01*
X130163044Y-88183738D01*
X130102536Y-88037659D01*
X130006282Y-87912218D01*
X129880841Y-87815964D01*
X129868468Y-87810839D01*
X129734762Y-87755456D01*
X129734760Y-87755455D01*
X129578001Y-87734818D01*
X129577999Y-87734818D01*
X129421239Y-87755455D01*
X129421237Y-87755456D01*
X129275160Y-87815963D01*
X129149718Y-87912218D01*
X129053463Y-88037660D01*
X128992956Y-88183737D01*
X128992955Y-88183739D01*
X128972318Y-88340498D01*
X128972318Y-88340501D01*
X128683682Y-88340501D01*
X128683682Y-88340498D01*
X128663044Y-88183739D01*
X128663044Y-88183738D01*
X128602536Y-88037659D01*
X128506282Y-87912218D01*
X128380841Y-87815964D01*
X128368468Y-87810839D01*
X128234762Y-87755456D01*
X128234760Y-87755455D01*
X128078001Y-87734818D01*
X128077999Y-87734818D01*
X127921239Y-87755455D01*
X127921237Y-87755456D01*
X127775160Y-87815963D01*
X127649718Y-87912218D01*
X127553463Y-88037660D01*
X127492956Y-88183737D01*
X127492955Y-88183739D01*
X127472318Y-88340498D01*
X127472318Y-88340501D01*
X112586053Y-88340501D01*
X112584044Y-88325238D01*
X112523536Y-88179159D01*
X112427282Y-88053718D01*
X112427280Y-88053717D01*
X112427280Y-88053716D01*
X112299120Y-87955376D01*
X112257917Y-87898948D01*
X112253762Y-87829202D01*
X112287974Y-87768282D01*
X112299120Y-87758624D01*
X112320824Y-87741969D01*
X112427282Y-87660282D01*
X112491953Y-87576001D01*
X136831318Y-87576001D01*
X136851955Y-87732760D01*
X136851956Y-87732762D01*
X136879200Y-87798536D01*
X136912464Y-87878841D01*
X137008718Y-88004282D01*
X137134159Y-88100536D01*
X137280238Y-88161044D01*
X137358619Y-88171363D01*
X137436999Y-88181682D01*
X137437000Y-88181682D01*
X137437001Y-88181682D01*
X137489254Y-88174802D01*
X137593762Y-88161044D01*
X137739841Y-88100536D01*
X137865282Y-88004282D01*
X137961536Y-87878841D01*
X138022044Y-87732762D01*
X138042682Y-87576000D01*
X138041675Y-87568354D01*
X138033730Y-87508001D01*
X145562318Y-87508001D01*
X145582955Y-87664760D01*
X145582956Y-87664762D01*
X145632029Y-87783236D01*
X145643464Y-87810841D01*
X145739718Y-87936282D01*
X145865159Y-88032536D01*
X146011238Y-88093044D01*
X146068146Y-88100536D01*
X146167999Y-88113682D01*
X146168000Y-88113682D01*
X146168001Y-88113682D01*
X146220254Y-88106802D01*
X146324762Y-88093044D01*
X146470841Y-88032536D01*
X146596282Y-87936282D01*
X146692536Y-87810841D01*
X146753044Y-87664762D01*
X146753045Y-87664753D01*
X146754707Y-87658551D01*
X146791068Y-87598888D01*
X146853913Y-87568354D01*
X146923289Y-87576644D01*
X146972859Y-87615148D01*
X147039719Y-87702282D01*
X147165160Y-87798536D01*
X147311239Y-87859044D01*
X147389620Y-87869363D01*
X147468000Y-87879682D01*
X147468001Y-87879682D01*
X147468002Y-87879682D01*
X147520255Y-87872802D01*
X147624763Y-87859044D01*
X147770842Y-87798536D01*
X147896283Y-87702282D01*
X147992537Y-87576841D01*
X148053045Y-87430762D01*
X148073683Y-87274001D01*
X148763818Y-87274001D01*
X148784455Y-87430760D01*
X148784456Y-87430762D01*
X148844615Y-87576000D01*
X148844964Y-87576841D01*
X148941218Y-87702282D01*
X149066659Y-87798536D01*
X149212738Y-87859044D01*
X149291119Y-87869363D01*
X149369499Y-87879682D01*
X149369500Y-87879682D01*
X149369501Y-87879682D01*
X149421754Y-87872802D01*
X149526262Y-87859044D01*
X149672341Y-87798536D01*
X149797782Y-87702282D01*
X149857849Y-87624001D01*
X150213818Y-87624001D01*
X150234455Y-87780760D01*
X150234456Y-87780762D01*
X150292064Y-87919841D01*
X150294964Y-87926841D01*
X150391218Y-88052282D01*
X150516659Y-88148536D01*
X150662738Y-88209044D01*
X150741119Y-88219363D01*
X150819499Y-88229682D01*
X150819500Y-88229682D01*
X150819501Y-88229682D01*
X150872671Y-88222682D01*
X150976262Y-88209044D01*
X151122341Y-88148536D01*
X151247782Y-88052282D01*
X151344036Y-87926841D01*
X151404544Y-87780762D01*
X151425182Y-87624000D01*
X151424260Y-87617000D01*
X151411423Y-87519492D01*
X151404544Y-87467238D01*
X151344036Y-87321159D01*
X151247782Y-87195718D01*
X151122341Y-87099464D01*
X151063854Y-87075238D01*
X150976262Y-87038956D01*
X150976260Y-87038955D01*
X150819501Y-87018318D01*
X150819499Y-87018318D01*
X150662739Y-87038955D01*
X150662737Y-87038956D01*
X150516660Y-87099463D01*
X150391218Y-87195718D01*
X150294963Y-87321160D01*
X150234456Y-87467237D01*
X150234455Y-87467239D01*
X150213818Y-87623998D01*
X150213818Y-87624001D01*
X149857849Y-87624001D01*
X149894036Y-87576841D01*
X149954544Y-87430762D01*
X149975182Y-87274000D01*
X149975071Y-87273160D01*
X149954544Y-87117239D01*
X149954544Y-87117238D01*
X149894036Y-86971159D01*
X149797782Y-86845718D01*
X149672341Y-86749464D01*
X149546256Y-86697238D01*
X149526262Y-86688956D01*
X149526260Y-86688955D01*
X149369501Y-86668318D01*
X149369499Y-86668318D01*
X149212739Y-86688955D01*
X149212737Y-86688956D01*
X149066660Y-86749463D01*
X148941218Y-86845718D01*
X148844963Y-86971160D01*
X148784456Y-87117237D01*
X148784455Y-87117239D01*
X148763818Y-87273998D01*
X148763818Y-87274001D01*
X148073683Y-87274001D01*
X148073683Y-87274000D01*
X148073572Y-87273160D01*
X148053045Y-87117239D01*
X148053045Y-87117238D01*
X147992537Y-86971159D01*
X147896283Y-86845718D01*
X147770842Y-86749464D01*
X147644757Y-86697238D01*
X147624763Y-86688956D01*
X147624761Y-86688955D01*
X147468002Y-86668318D01*
X147468000Y-86668318D01*
X147311240Y-86688955D01*
X147311238Y-86688956D01*
X147165161Y-86749463D01*
X147039719Y-86845718D01*
X146943464Y-86971160D01*
X146882955Y-87117241D01*
X146881290Y-87123458D01*
X146844925Y-87183118D01*
X146782077Y-87213646D01*
X146712702Y-87205351D01*
X146663141Y-87166851D01*
X146596282Y-87079718D01*
X146470841Y-86983464D01*
X146324762Y-86922956D01*
X146324760Y-86922955D01*
X146168001Y-86902318D01*
X146167999Y-86902318D01*
X146011239Y-86922955D01*
X146011237Y-86922956D01*
X145865160Y-86983463D01*
X145739718Y-87079718D01*
X145643463Y-87205160D01*
X145582956Y-87351237D01*
X145582955Y-87351239D01*
X145562318Y-87507998D01*
X145562318Y-87508001D01*
X138033730Y-87508001D01*
X138027442Y-87460237D01*
X138022044Y-87419238D01*
X137961536Y-87273159D01*
X137865282Y-87147718D01*
X137739841Y-87051464D01*
X137665483Y-87020664D01*
X137593762Y-86990956D01*
X137593760Y-86990955D01*
X137437001Y-86970318D01*
X137436999Y-86970318D01*
X137280239Y-86990955D01*
X137280237Y-86990956D01*
X137134160Y-87051463D01*
X137008718Y-87147718D01*
X136912463Y-87273160D01*
X136851956Y-87419237D01*
X136851955Y-87419239D01*
X136831318Y-87575998D01*
X136831318Y-87576001D01*
X112491953Y-87576001D01*
X112523536Y-87534841D01*
X112584044Y-87388762D01*
X112598062Y-87282281D01*
X112604682Y-87232001D01*
X112604682Y-87231998D01*
X112589574Y-87117241D01*
X112584044Y-87075238D01*
X112523536Y-86929159D01*
X112465865Y-86854001D01*
X121264318Y-86854001D01*
X121284955Y-87010760D01*
X121284956Y-87010762D01*
X121313518Y-87079718D01*
X121345464Y-87156841D01*
X121441718Y-87282282D01*
X121567159Y-87378536D01*
X121713238Y-87439044D01*
X121791619Y-87449363D01*
X121869999Y-87459682D01*
X121870000Y-87459682D01*
X121870001Y-87459682D01*
X121922254Y-87452802D01*
X122026762Y-87439044D01*
X122172841Y-87378536D01*
X122298282Y-87282282D01*
X122394536Y-87156841D01*
X122455044Y-87010762D01*
X122475682Y-86854000D01*
X122455044Y-86697238D01*
X122394536Y-86551159D01*
X122298282Y-86425718D01*
X122172841Y-86329464D01*
X122158155Y-86323381D01*
X122026762Y-86268956D01*
X122026760Y-86268955D01*
X121870001Y-86248318D01*
X121869999Y-86248318D01*
X121713239Y-86268955D01*
X121713237Y-86268956D01*
X121567160Y-86329463D01*
X121441718Y-86425718D01*
X121345463Y-86551160D01*
X121284956Y-86697237D01*
X121284955Y-86697239D01*
X121264318Y-86853998D01*
X121264318Y-86854001D01*
X112465865Y-86854001D01*
X112427282Y-86803718D01*
X112426134Y-86802837D01*
X112425411Y-86801847D01*
X112421535Y-86797971D01*
X112422139Y-86797366D01*
X112384935Y-86746407D01*
X112380785Y-86676660D01*
X112415001Y-86615742D01*
X112470638Y-86586220D01*
X112470205Y-86584604D01*
X112478057Y-86582500D01*
X112508555Y-86574327D01*
X112524439Y-86571167D01*
X112555762Y-86567044D01*
X112584930Y-86554961D01*
X112600293Y-86549747D01*
X112619858Y-86544504D01*
X112630784Y-86541577D01*
X112658130Y-86525787D01*
X112672666Y-86518619D01*
X112701841Y-86506536D01*
X112726895Y-86487310D01*
X112740368Y-86478308D01*
X112767716Y-86462520D01*
X112790040Y-86440194D01*
X112802234Y-86429501D01*
X112827282Y-86410282D01*
X112846502Y-86385233D01*
X112857196Y-86373039D01*
X112864699Y-86365536D01*
X112879520Y-86350716D01*
X112895308Y-86323368D01*
X112904310Y-86309895D01*
X112923536Y-86284841D01*
X112935619Y-86255666D01*
X112942792Y-86241123D01*
X112958577Y-86213784D01*
X112961504Y-86202858D01*
X112966747Y-86183293D01*
X112971962Y-86167928D01*
X112984044Y-86138762D01*
X112988167Y-86107439D01*
X112991329Y-86091549D01*
X112999500Y-86061057D01*
X112999500Y-86029487D01*
X113000561Y-86013301D01*
X113004682Y-85982000D01*
X113004682Y-85981998D01*
X113000561Y-85950697D01*
X113000319Y-85947001D01*
X119299318Y-85947001D01*
X119319955Y-86103760D01*
X119319956Y-86103762D01*
X119379768Y-86248162D01*
X119380464Y-86249841D01*
X119476718Y-86375282D01*
X119602159Y-86471536D01*
X119748238Y-86532044D01*
X119820649Y-86541577D01*
X119904999Y-86552682D01*
X119905000Y-86552682D01*
X119905001Y-86552682D01*
X119987756Y-86541787D01*
X120061762Y-86532044D01*
X120207841Y-86471536D01*
X120333282Y-86375282D01*
X120429536Y-86249841D01*
X120490044Y-86103762D01*
X120510682Y-85947000D01*
X120496727Y-85841001D01*
X128499318Y-85841001D01*
X128519955Y-85997760D01*
X128519956Y-85997762D01*
X128580464Y-86143841D01*
X128676718Y-86269282D01*
X128802159Y-86365536D01*
X128948238Y-86426044D01*
X128974459Y-86429496D01*
X129104999Y-86446682D01*
X129105000Y-86446682D01*
X129105001Y-86446682D01*
X129157254Y-86439802D01*
X129261762Y-86426044D01*
X129407841Y-86365536D01*
X129533282Y-86269282D01*
X129629536Y-86143841D01*
X129690044Y-85997762D01*
X129710682Y-85841000D01*
X129690044Y-85684238D01*
X129629536Y-85538159D01*
X129586445Y-85482001D01*
X140161318Y-85482001D01*
X140181955Y-85638760D01*
X140181956Y-85638762D01*
X140242464Y-85784841D01*
X140338718Y-85910282D01*
X140464159Y-86006536D01*
X140610238Y-86067044D01*
X140688619Y-86077363D01*
X140766999Y-86087682D01*
X140767000Y-86087682D01*
X140767001Y-86087682D01*
X140819254Y-86080802D01*
X140923762Y-86067044D01*
X141069841Y-86006536D01*
X141195282Y-85910282D01*
X141291536Y-85784841D01*
X141352044Y-85638762D01*
X141372682Y-85482000D01*
X141371639Y-85474080D01*
X141352044Y-85325239D01*
X141352044Y-85325238D01*
X141291536Y-85179159D01*
X141195282Y-85053718D01*
X141069841Y-84957464D01*
X140923762Y-84896956D01*
X140923760Y-84896955D01*
X140767001Y-84876318D01*
X140766999Y-84876318D01*
X140610239Y-84896955D01*
X140610237Y-84896956D01*
X140464160Y-84957463D01*
X140338718Y-85053718D01*
X140242463Y-85179160D01*
X140181956Y-85325237D01*
X140181955Y-85325239D01*
X140161318Y-85481998D01*
X140161318Y-85482001D01*
X129586445Y-85482001D01*
X129533282Y-85412718D01*
X129407841Y-85316464D01*
X129261762Y-85255956D01*
X129261760Y-85255955D01*
X129105001Y-85235318D01*
X129104999Y-85235318D01*
X128948239Y-85255955D01*
X128948237Y-85255956D01*
X128802160Y-85316463D01*
X128676718Y-85412718D01*
X128580463Y-85538160D01*
X128519956Y-85684237D01*
X128519955Y-85684239D01*
X128499318Y-85840998D01*
X128499318Y-85841001D01*
X120496727Y-85841001D01*
X120490044Y-85790238D01*
X120429536Y-85644159D01*
X120333282Y-85518718D01*
X120207841Y-85422464D01*
X120061762Y-85361956D01*
X120061760Y-85361955D01*
X119905001Y-85341318D01*
X119904999Y-85341318D01*
X119748239Y-85361955D01*
X119748237Y-85361956D01*
X119602160Y-85422463D01*
X119476718Y-85518718D01*
X119380463Y-85644160D01*
X119319956Y-85790237D01*
X119319955Y-85790239D01*
X119299318Y-85946998D01*
X119299318Y-85947001D01*
X113000319Y-85947001D01*
X112999500Y-85934512D01*
X112999500Y-84882920D01*
X113478999Y-84882920D01*
X113507840Y-85027907D01*
X113507843Y-85027917D01*
X113564412Y-85164488D01*
X113564419Y-85164501D01*
X113646548Y-85287415D01*
X113646551Y-85287419D01*
X113751080Y-85391948D01*
X113751084Y-85391951D01*
X113873998Y-85474080D01*
X113874011Y-85474087D01*
X113981761Y-85518718D01*
X114010587Y-85530658D01*
X114010591Y-85530658D01*
X114010592Y-85530659D01*
X114155579Y-85559500D01*
X114155582Y-85559500D01*
X114303420Y-85559500D01*
X114410704Y-85538159D01*
X114448413Y-85530658D01*
X114584995Y-85474084D01*
X114707916Y-85391951D01*
X114812451Y-85287416D01*
X114894584Y-85164495D01*
X114951158Y-85027913D01*
X114965172Y-84957463D01*
X114980000Y-84882920D01*
X114980000Y-84735079D01*
X114951159Y-84590092D01*
X114951158Y-84590091D01*
X114951158Y-84590087D01*
X114932926Y-84546070D01*
X114894587Y-84453511D01*
X114894580Y-84453498D01*
X114812451Y-84330584D01*
X114812448Y-84330580D01*
X114707919Y-84226051D01*
X114707915Y-84226048D01*
X114585001Y-84143919D01*
X114584988Y-84143912D01*
X114448417Y-84087343D01*
X114448407Y-84087340D01*
X114303420Y-84058500D01*
X114303418Y-84058500D01*
X114155582Y-84058500D01*
X114155580Y-84058500D01*
X114010592Y-84087340D01*
X114010582Y-84087343D01*
X113874011Y-84143912D01*
X113873998Y-84143919D01*
X113751084Y-84226048D01*
X113751080Y-84226051D01*
X113646551Y-84330580D01*
X113646548Y-84330584D01*
X113564419Y-84453498D01*
X113564412Y-84453511D01*
X113507843Y-84590082D01*
X113507840Y-84590092D01*
X113479000Y-84735079D01*
X113479000Y-84735082D01*
X113479000Y-84882918D01*
X113479000Y-84882920D01*
X113478999Y-84882920D01*
X112999500Y-84882920D01*
X112999500Y-84779487D01*
X113000561Y-84763301D01*
X113000959Y-84760282D01*
X113004682Y-84732000D01*
X113000964Y-84703762D01*
X113000561Y-84700697D01*
X112999500Y-84684512D01*
X112999500Y-84652945D01*
X112999500Y-84652943D01*
X112991327Y-84622441D01*
X112988164Y-84606536D01*
X112985999Y-84590092D01*
X112984044Y-84575238D01*
X112971957Y-84546060D01*
X112966745Y-84530703D01*
X112958577Y-84500216D01*
X112951963Y-84488760D01*
X112942791Y-84472873D01*
X112935617Y-84458326D01*
X112923536Y-84429160D01*
X112923536Y-84429159D01*
X112904311Y-84404104D01*
X112895305Y-84390625D01*
X112879522Y-84363287D01*
X112879518Y-84363282D01*
X112857196Y-84340960D01*
X112846501Y-84328765D01*
X112827281Y-84303717D01*
X112802233Y-84284497D01*
X112790039Y-84273803D01*
X112767718Y-84251482D01*
X112767716Y-84251480D01*
X112767713Y-84251478D01*
X112767709Y-84251475D01*
X112740372Y-84235692D01*
X112726887Y-84226682D01*
X112701840Y-84207463D01*
X112701839Y-84207462D01*
X112672668Y-84195379D01*
X112658123Y-84188207D01*
X112630784Y-84172423D01*
X112630781Y-84172422D01*
X112600288Y-84164251D01*
X112584932Y-84159038D01*
X112555764Y-84146956D01*
X112524450Y-84142833D01*
X112508552Y-84139670D01*
X112478057Y-84131500D01*
X112446487Y-84131500D01*
X112430302Y-84130439D01*
X112399000Y-84126318D01*
X112367697Y-84130439D01*
X112351513Y-84131500D01*
X112319940Y-84131500D01*
X112289441Y-84139671D01*
X112273545Y-84142832D01*
X112242244Y-84146954D01*
X112242235Y-84146956D01*
X112213067Y-84159038D01*
X112197715Y-84164250D01*
X112167219Y-84172422D01*
X112167217Y-84172422D01*
X112167216Y-84172423D01*
X112167214Y-84172424D01*
X112167212Y-84172425D01*
X112139875Y-84188207D01*
X112125336Y-84195377D01*
X112096165Y-84207460D01*
X112096160Y-84207463D01*
X112071107Y-84226686D01*
X112057629Y-84235691D01*
X112030283Y-84251480D01*
X112007955Y-84273807D01*
X111995767Y-84284496D01*
X111970718Y-84303718D01*
X111951496Y-84328767D01*
X111940807Y-84340955D01*
X111918480Y-84363283D01*
X111902691Y-84390629D01*
X111893686Y-84404107D01*
X111874463Y-84429160D01*
X111874460Y-84429165D01*
X111862377Y-84458336D01*
X111855207Y-84472875D01*
X111839425Y-84500212D01*
X111839422Y-84500219D01*
X111831250Y-84530715D01*
X111826038Y-84546067D01*
X111813956Y-84575235D01*
X111813954Y-84575244D01*
X111809832Y-84606545D01*
X111806671Y-84622441D01*
X111798500Y-84652940D01*
X111798500Y-84684512D01*
X111797439Y-84700697D01*
X111797036Y-84703762D01*
X111793318Y-84732000D01*
X111797041Y-84760282D01*
X111797439Y-84763301D01*
X111798500Y-84779487D01*
X111798500Y-85934512D01*
X111797439Y-85950697D01*
X111793318Y-85981998D01*
X111793318Y-85982000D01*
X111797439Y-86013301D01*
X111798500Y-86029487D01*
X111798500Y-86061057D01*
X111806670Y-86091549D01*
X111809833Y-86107450D01*
X111813956Y-86138764D01*
X111826038Y-86167932D01*
X111831251Y-86183288D01*
X111839422Y-86213781D01*
X111839423Y-86213784D01*
X111855207Y-86241123D01*
X111862379Y-86255668D01*
X111874462Y-86284839D01*
X111874463Y-86284840D01*
X111893682Y-86309887D01*
X111902692Y-86323372D01*
X111918475Y-86350709D01*
X111918482Y-86350718D01*
X111940803Y-86373039D01*
X111951497Y-86385233D01*
X111951502Y-86385240D01*
X111970718Y-86410282D01*
X111977670Y-86415616D01*
X112018874Y-86472041D01*
X112023031Y-86541787D01*
X111988821Y-86602708D01*
X111927104Y-86635463D01*
X111918373Y-86636932D01*
X111842238Y-86646956D01*
X111842237Y-86646956D01*
X111696160Y-86707463D01*
X111570718Y-86803718D01*
X111474463Y-86929160D01*
X111413956Y-87075237D01*
X111413955Y-87075239D01*
X111393318Y-87231998D01*
X111393318Y-87232001D01*
X111413955Y-87388760D01*
X111413956Y-87388762D01*
X111434783Y-87439044D01*
X111474464Y-87534841D01*
X111570718Y-87660282D01*
X111686282Y-87748957D01*
X111698880Y-87758624D01*
X111740082Y-87815053D01*
X111744237Y-87884799D01*
X111710024Y-87945719D01*
X111698880Y-87955376D01*
X111570718Y-88053718D01*
X111474463Y-88179160D01*
X111413956Y-88325237D01*
X111413955Y-88325239D01*
X111393318Y-88481998D01*
X111393318Y-88482001D01*
X107399500Y-88482001D01*
X107399500Y-84040501D01*
X127775318Y-84040501D01*
X127795955Y-84197260D01*
X127795956Y-84197262D01*
X127851765Y-84331998D01*
X127856464Y-84343341D01*
X127952718Y-84468782D01*
X128078159Y-84565036D01*
X128224238Y-84625544D01*
X128294841Y-84634839D01*
X128380999Y-84646182D01*
X128381000Y-84646182D01*
X128381001Y-84646182D01*
X128433254Y-84639302D01*
X128537762Y-84625544D01*
X128683841Y-84565036D01*
X128809282Y-84468782D01*
X128905536Y-84343341D01*
X128910233Y-84332001D01*
X135835318Y-84332001D01*
X135855955Y-84488760D01*
X135855956Y-84488762D01*
X135912612Y-84625543D01*
X135916464Y-84634841D01*
X136012718Y-84760282D01*
X136138159Y-84856536D01*
X136284238Y-84917044D01*
X136362619Y-84927363D01*
X136440999Y-84937682D01*
X136441000Y-84937682D01*
X136441001Y-84937682D01*
X136493254Y-84930802D01*
X136597762Y-84917044D01*
X136743841Y-84856536D01*
X136869282Y-84760282D01*
X136965536Y-84634841D01*
X137001921Y-84547001D01*
X145499318Y-84547001D01*
X145519955Y-84703760D01*
X145519956Y-84703762D01*
X145580464Y-84849841D01*
X145676718Y-84975282D01*
X145802159Y-85071536D01*
X145948238Y-85132044D01*
X146026619Y-85142363D01*
X146104999Y-85152682D01*
X146105000Y-85152682D01*
X146105001Y-85152682D01*
X146157254Y-85145802D01*
X146261762Y-85132044D01*
X146407841Y-85071536D01*
X146533282Y-84975282D01*
X146629536Y-84849841D01*
X146690044Y-84703762D01*
X146710682Y-84547001D01*
X146962318Y-84547001D01*
X146982955Y-84703760D01*
X146982956Y-84703762D01*
X147043464Y-84849841D01*
X147139718Y-84975282D01*
X147265159Y-85071536D01*
X147411238Y-85132044D01*
X147489619Y-85142363D01*
X147567999Y-85152682D01*
X147568000Y-85152682D01*
X147568001Y-85152682D01*
X147620254Y-85145802D01*
X147724762Y-85132044D01*
X147870841Y-85071536D01*
X147996282Y-84975282D01*
X148092536Y-84849841D01*
X148153044Y-84703762D01*
X148173682Y-84547000D01*
X148171536Y-84530703D01*
X148153044Y-84390239D01*
X148153044Y-84390238D01*
X148092536Y-84244159D01*
X148038702Y-84174001D01*
X148763818Y-84174001D01*
X148784455Y-84330760D01*
X148784456Y-84330762D01*
X148814836Y-84404107D01*
X148844964Y-84476841D01*
X148941218Y-84602282D01*
X149066659Y-84698536D01*
X149212738Y-84759044D01*
X149291119Y-84769363D01*
X149369499Y-84779682D01*
X149369500Y-84779682D01*
X149369501Y-84779682D01*
X149421754Y-84772802D01*
X149526262Y-84759044D01*
X149672341Y-84698536D01*
X149797782Y-84602282D01*
X149894036Y-84476841D01*
X149954544Y-84330762D01*
X149954544Y-84330761D01*
X149954939Y-84329808D01*
X149998780Y-84275404D01*
X150065074Y-84253339D01*
X150132773Y-84270618D01*
X150180384Y-84321755D01*
X150184061Y-84329808D01*
X150244962Y-84476838D01*
X150244963Y-84476839D01*
X150244964Y-84476841D01*
X150341218Y-84602282D01*
X150466659Y-84698536D01*
X150612738Y-84759044D01*
X150691119Y-84769363D01*
X150769499Y-84779682D01*
X150769500Y-84779682D01*
X150769501Y-84779682D01*
X150821754Y-84772802D01*
X150926262Y-84759044D01*
X151072341Y-84698536D01*
X151197782Y-84602282D01*
X151294036Y-84476841D01*
X151354544Y-84330762D01*
X151375182Y-84174000D01*
X151374974Y-84172423D01*
X151357606Y-84040498D01*
X151354544Y-84017238D01*
X151294036Y-83871159D01*
X151197782Y-83745718D01*
X151072341Y-83649464D01*
X150982421Y-83612218D01*
X150926262Y-83588956D01*
X150926260Y-83588955D01*
X150769501Y-83568318D01*
X150769499Y-83568318D01*
X150612739Y-83588955D01*
X150612737Y-83588956D01*
X150466660Y-83649463D01*
X150341218Y-83745718D01*
X150244963Y-83871160D01*
X150197150Y-83986590D01*
X150184457Y-84017237D01*
X150184061Y-84018192D01*
X150140220Y-84072595D01*
X150073926Y-84094660D01*
X150006227Y-84077381D01*
X149958616Y-84026244D01*
X149954939Y-84018192D01*
X149954544Y-84017238D01*
X149894036Y-83871159D01*
X149797782Y-83745718D01*
X149672341Y-83649464D01*
X149582421Y-83612218D01*
X149526262Y-83588956D01*
X149526260Y-83588955D01*
X149369501Y-83568318D01*
X149369499Y-83568318D01*
X149212739Y-83588955D01*
X149212737Y-83588956D01*
X149066660Y-83649463D01*
X148941218Y-83745718D01*
X148844963Y-83871160D01*
X148784456Y-84017237D01*
X148784455Y-84017239D01*
X148763818Y-84173998D01*
X148763818Y-84174001D01*
X148038702Y-84174001D01*
X147996282Y-84118718D01*
X147870841Y-84022464D01*
X147860527Y-84018192D01*
X147724762Y-83961956D01*
X147724760Y-83961955D01*
X147568001Y-83941318D01*
X147567999Y-83941318D01*
X147411239Y-83961955D01*
X147411237Y-83961956D01*
X147265160Y-84022463D01*
X147139718Y-84118718D01*
X147043463Y-84244160D01*
X146982956Y-84390237D01*
X146982955Y-84390239D01*
X146962318Y-84546998D01*
X146962318Y-84547001D01*
X146710682Y-84547001D01*
X146710682Y-84547000D01*
X146708536Y-84530703D01*
X146690044Y-84390239D01*
X146690044Y-84390238D01*
X146629536Y-84244159D01*
X146533282Y-84118718D01*
X146407841Y-84022464D01*
X146397527Y-84018192D01*
X146261762Y-83961956D01*
X146261760Y-83961955D01*
X146105001Y-83941318D01*
X146104999Y-83941318D01*
X145948239Y-83961955D01*
X145948237Y-83961956D01*
X145802160Y-84022463D01*
X145676718Y-84118718D01*
X145580463Y-84244160D01*
X145519956Y-84390237D01*
X145519955Y-84390239D01*
X145499318Y-84546998D01*
X145499318Y-84547001D01*
X137001921Y-84547001D01*
X137026044Y-84488762D01*
X137045189Y-84343339D01*
X137046682Y-84332001D01*
X137046682Y-84331998D01*
X137026044Y-84175239D01*
X137026044Y-84175238D01*
X136965536Y-84029159D01*
X136869282Y-83903718D01*
X136743841Y-83807464D01*
X136678715Y-83780488D01*
X136597762Y-83746956D01*
X136597760Y-83746955D01*
X136441001Y-83726318D01*
X136440999Y-83726318D01*
X136284239Y-83746955D01*
X136284237Y-83746956D01*
X136138160Y-83807463D01*
X136012718Y-83903718D01*
X135916463Y-84029160D01*
X135855956Y-84175237D01*
X135855955Y-84175239D01*
X135835318Y-84331998D01*
X135835318Y-84332001D01*
X128910233Y-84332001D01*
X128966044Y-84197262D01*
X128986682Y-84040500D01*
X128984307Y-84022463D01*
X128966044Y-83883739D01*
X128966044Y-83883738D01*
X128952050Y-83849955D01*
X128944582Y-83780488D01*
X128975857Y-83718008D01*
X129035946Y-83682356D01*
X129082793Y-83679565D01*
X129228000Y-83698682D01*
X129228001Y-83698682D01*
X129280254Y-83691802D01*
X129384762Y-83678044D01*
X129530841Y-83617536D01*
X129656282Y-83521282D01*
X129752536Y-83395841D01*
X129813044Y-83249762D01*
X129814263Y-83240500D01*
X131172318Y-83240500D01*
X131192955Y-83397259D01*
X131192956Y-83397261D01*
X131253464Y-83543340D01*
X131349718Y-83668781D01*
X131475159Y-83765035D01*
X131621238Y-83825543D01*
X131699619Y-83835862D01*
X131777999Y-83846181D01*
X131778000Y-83846181D01*
X131778001Y-83846181D01*
X131830254Y-83839301D01*
X131934762Y-83825543D01*
X132080841Y-83765035D01*
X132206282Y-83668781D01*
X132302536Y-83543340D01*
X132363044Y-83397261D01*
X132383682Y-83240499D01*
X132363044Y-83083737D01*
X132302536Y-82937658D01*
X132206282Y-82812217D01*
X132080841Y-82715963D01*
X131960220Y-82666000D01*
X137674318Y-82666000D01*
X137694955Y-82822759D01*
X137694956Y-82822761D01*
X137755464Y-82968840D01*
X137851718Y-83094281D01*
X137977159Y-83190535D01*
X138123238Y-83251043D01*
X138201619Y-83261362D01*
X138279999Y-83271681D01*
X138280000Y-83271681D01*
X138280001Y-83271681D01*
X138332254Y-83264801D01*
X138436762Y-83251043D01*
X138582841Y-83190535D01*
X138708282Y-83094281D01*
X138804536Y-82968840D01*
X138865044Y-82822761D01*
X138885682Y-82665999D01*
X138885513Y-82664718D01*
X138865044Y-82509238D01*
X138865044Y-82509237D01*
X138804536Y-82363158D01*
X138708282Y-82237717D01*
X138582841Y-82141463D01*
X138528613Y-82119001D01*
X148101318Y-82119001D01*
X148121955Y-82275760D01*
X148121956Y-82275762D01*
X148182464Y-82421841D01*
X148278718Y-82547282D01*
X148404159Y-82643536D01*
X148550238Y-82704044D01*
X148628619Y-82714363D01*
X148706999Y-82724682D01*
X148707000Y-82724682D01*
X148707001Y-82724682D01*
X148759254Y-82717802D01*
X148863762Y-82704044D01*
X149009841Y-82643536D01*
X149135282Y-82547282D01*
X149231536Y-82421841D01*
X149292044Y-82275762D01*
X149312682Y-82119000D01*
X149292044Y-81962238D01*
X149251767Y-81865000D01*
X160893540Y-81865000D01*
X160913326Y-82053256D01*
X160913327Y-82053259D01*
X160971818Y-82233277D01*
X160971821Y-82233284D01*
X161066467Y-82397216D01*
X161193129Y-82537888D01*
X161346265Y-82649148D01*
X161346270Y-82649151D01*
X161519192Y-82726142D01*
X161519197Y-82726144D01*
X161704354Y-82765500D01*
X161704355Y-82765500D01*
X161893644Y-82765500D01*
X161893646Y-82765500D01*
X162078803Y-82726144D01*
X162251730Y-82649151D01*
X162404871Y-82537888D01*
X162531533Y-82397216D01*
X162626179Y-82233284D01*
X162684674Y-82053256D01*
X162704460Y-81865000D01*
X162684674Y-81676744D01*
X162626179Y-81496716D01*
X162531533Y-81332784D01*
X162404871Y-81192112D01*
X162404498Y-81191841D01*
X162251734Y-81080851D01*
X162251729Y-81080848D01*
X162078807Y-81003857D01*
X162078802Y-81003855D01*
X161904711Y-80966852D01*
X161893646Y-80964500D01*
X161704354Y-80964500D01*
X161693289Y-80966852D01*
X161519197Y-81003855D01*
X161519192Y-81003857D01*
X161346270Y-81080848D01*
X161346265Y-81080851D01*
X161193129Y-81192111D01*
X161066466Y-81332785D01*
X160971821Y-81496715D01*
X160971818Y-81496722D01*
X160922717Y-81647841D01*
X160913326Y-81676744D01*
X160893540Y-81865000D01*
X149251767Y-81865000D01*
X149231536Y-81816159D01*
X149135282Y-81690718D01*
X149009841Y-81594464D01*
X148863762Y-81533956D01*
X148863760Y-81533955D01*
X148707001Y-81513318D01*
X148706999Y-81513318D01*
X148550239Y-81533955D01*
X148550237Y-81533956D01*
X148404160Y-81594463D01*
X148278718Y-81690718D01*
X148182463Y-81816160D01*
X148121956Y-81962237D01*
X148121955Y-81962239D01*
X148101318Y-82118998D01*
X148101318Y-82119001D01*
X138528613Y-82119001D01*
X138436762Y-82080955D01*
X138436760Y-82080954D01*
X138280001Y-82060317D01*
X138279999Y-82060317D01*
X138123239Y-82080954D01*
X138123237Y-82080955D01*
X137977160Y-82141462D01*
X137851718Y-82237717D01*
X137755463Y-82363159D01*
X137694956Y-82509236D01*
X137694955Y-82509238D01*
X137674318Y-82665997D01*
X137674318Y-82666000D01*
X131960220Y-82666000D01*
X131934762Y-82655455D01*
X131934760Y-82655454D01*
X131778001Y-82634817D01*
X131777999Y-82634817D01*
X131621239Y-82655454D01*
X131621237Y-82655455D01*
X131475160Y-82715962D01*
X131349718Y-82812217D01*
X131253463Y-82937659D01*
X131192956Y-83083736D01*
X131192955Y-83083738D01*
X131172318Y-83240497D01*
X131172318Y-83240500D01*
X129814263Y-83240500D01*
X129833513Y-83094281D01*
X129833682Y-83093001D01*
X129833682Y-83092998D01*
X129813044Y-82936239D01*
X129813044Y-82936238D01*
X129752536Y-82790159D01*
X129656282Y-82664718D01*
X129530841Y-82568464D01*
X129384762Y-82507956D01*
X129384760Y-82507955D01*
X129228001Y-82487318D01*
X129227999Y-82487318D01*
X129071239Y-82507955D01*
X129071237Y-82507956D01*
X128925160Y-82568463D01*
X128799718Y-82664718D01*
X128703463Y-82790160D01*
X128642956Y-82936237D01*
X128642955Y-82936239D01*
X128622318Y-83092998D01*
X128622318Y-83093001D01*
X128642955Y-83249759D01*
X128642955Y-83249761D01*
X128642956Y-83249762D01*
X128652035Y-83271681D01*
X128656949Y-83283543D01*
X128664417Y-83353013D01*
X128633141Y-83415492D01*
X128573052Y-83451144D01*
X128526202Y-83453934D01*
X128381001Y-83434818D01*
X128380999Y-83434818D01*
X128224239Y-83455455D01*
X128224237Y-83455456D01*
X128078160Y-83515963D01*
X127952718Y-83612218D01*
X127856463Y-83737660D01*
X127795956Y-83883737D01*
X127795955Y-83883739D01*
X127775318Y-84040498D01*
X127775318Y-84040501D01*
X107399500Y-84040501D01*
X107399500Y-79724999D01*
X130445540Y-79724999D01*
X130449821Y-79765731D01*
X130450500Y-79778692D01*
X130450500Y-79813695D01*
X130458637Y-79854602D01*
X130460341Y-79865831D01*
X130465325Y-79913253D01*
X130465325Y-79913254D01*
X130465326Y-79913256D01*
X130475494Y-79944551D01*
X130475904Y-79945811D01*
X130479590Y-79959938D01*
X130485104Y-79987662D01*
X130485105Y-79987664D01*
X130503644Y-80032423D01*
X130507012Y-80041554D01*
X130523819Y-80093279D01*
X130523822Y-80093286D01*
X130537569Y-80117097D01*
X130544742Y-80131643D01*
X130552984Y-80151542D01*
X130552986Y-80151545D01*
X130552987Y-80151547D01*
X130572154Y-80180233D01*
X130583634Y-80197413D01*
X130587919Y-80204304D01*
X130618468Y-80257218D01*
X130618469Y-80257219D01*
X130632357Y-80272643D01*
X130643307Y-80286721D01*
X130651534Y-80299033D01*
X130695274Y-80342773D01*
X130699744Y-80347483D01*
X130745129Y-80397888D01*
X130745131Y-80397890D01*
X130756467Y-80406126D01*
X130771263Y-80418763D01*
X130776961Y-80424461D01*
X130776965Y-80424464D01*
X130833994Y-80462570D01*
X130837967Y-80465339D01*
X130898270Y-80509151D01*
X130904902Y-80512104D01*
X130923361Y-80522283D01*
X130924453Y-80523013D01*
X130994042Y-80551836D01*
X130996987Y-80553102D01*
X131071197Y-80586144D01*
X131071668Y-80586244D01*
X131071696Y-80586250D01*
X131082370Y-80589562D01*
X131082503Y-80589125D01*
X131088330Y-80590892D01*
X131088334Y-80590894D01*
X131168816Y-80606902D01*
X131170282Y-80607204D01*
X131256354Y-80625500D01*
X131256355Y-80625500D01*
X132691513Y-80625500D01*
X132691514Y-80625500D01*
X132777614Y-80607198D01*
X132779048Y-80606902D01*
X132859534Y-80590894D01*
X132859537Y-80590892D01*
X132859540Y-80590892D01*
X132865364Y-80589126D01*
X132865499Y-80589573D01*
X132876183Y-80586247D01*
X132876671Y-80586144D01*
X132876679Y-80586140D01*
X132881559Y-80584555D01*
X132951400Y-80582555D01*
X133007567Y-80614802D01*
X133180801Y-80788036D01*
X133191496Y-80800231D01*
X133210717Y-80825281D01*
X133235765Y-80844501D01*
X133247960Y-80855196D01*
X133270284Y-80877520D01*
X133270285Y-80877521D01*
X133270287Y-80877522D01*
X133297625Y-80893305D01*
X133311104Y-80902311D01*
X133336159Y-80921536D01*
X133363009Y-80932657D01*
X133365326Y-80933617D01*
X133379873Y-80940791D01*
X133407212Y-80956575D01*
X133407213Y-80956575D01*
X133407216Y-80956577D01*
X133437709Y-80964747D01*
X133453065Y-80969960D01*
X133453075Y-80969964D01*
X133482238Y-80982044D01*
X133513536Y-80986164D01*
X133529445Y-80989329D01*
X133546401Y-80993872D01*
X133559943Y-80997501D01*
X133591520Y-80997501D01*
X133607705Y-80998562D01*
X133638999Y-81002682D01*
X133639000Y-81002682D01*
X133639001Y-81002682D01*
X133670295Y-80998562D01*
X133686480Y-80997501D01*
X133718057Y-80997501D01*
X133718058Y-80997501D01*
X133748561Y-80989327D01*
X133764462Y-80986164D01*
X133795762Y-80982044D01*
X133824930Y-80969961D01*
X133840282Y-80964749D01*
X133870785Y-80956577D01*
X133898126Y-80940790D01*
X133912669Y-80933618D01*
X133941841Y-80921536D01*
X133966895Y-80902310D01*
X133980374Y-80893305D01*
X133987829Y-80889001D01*
X136383318Y-80889001D01*
X136403955Y-81045760D01*
X136403956Y-81045762D01*
X136462971Y-81188238D01*
X136464464Y-81191841D01*
X136560718Y-81317282D01*
X136686159Y-81413536D01*
X136832238Y-81474044D01*
X136910619Y-81484363D01*
X136988999Y-81494682D01*
X136989000Y-81494682D01*
X136989001Y-81494682D01*
X137041254Y-81487802D01*
X137145762Y-81474044D01*
X137291841Y-81413536D01*
X137417282Y-81317282D01*
X137513536Y-81191841D01*
X137574044Y-81045762D01*
X137594682Y-80889000D01*
X137593170Y-80877518D01*
X137586192Y-80824516D01*
X138894578Y-80824516D01*
X138915215Y-80981275D01*
X138915216Y-80981277D01*
X138975724Y-81127356D01*
X139071978Y-81252797D01*
X139197419Y-81349051D01*
X139343498Y-81409559D01*
X139421879Y-81419878D01*
X139500259Y-81430197D01*
X139500260Y-81430197D01*
X139500261Y-81430197D01*
X139552514Y-81423317D01*
X139657022Y-81409559D01*
X139803101Y-81349051D01*
X139808379Y-81345001D01*
X142918318Y-81345001D01*
X142938955Y-81501760D01*
X142938956Y-81501762D01*
X142999464Y-81647841D01*
X143095718Y-81773282D01*
X143221159Y-81869536D01*
X143367238Y-81930044D01*
X143445619Y-81940363D01*
X143523999Y-81950682D01*
X143524000Y-81950682D01*
X143524001Y-81950682D01*
X143576254Y-81943802D01*
X143680762Y-81930044D01*
X143826841Y-81869536D01*
X143952282Y-81773282D01*
X144048536Y-81647841D01*
X144109044Y-81501762D01*
X144129682Y-81345000D01*
X144109044Y-81188238D01*
X144048536Y-81042159D01*
X143952282Y-80916718D01*
X143826841Y-80820464D01*
X143777994Y-80800231D01*
X143680762Y-80759956D01*
X143680760Y-80759955D01*
X143524001Y-80739318D01*
X143523999Y-80739318D01*
X143367239Y-80759955D01*
X143367237Y-80759956D01*
X143221160Y-80820463D01*
X143095718Y-80916718D01*
X142999463Y-81042160D01*
X142938956Y-81188237D01*
X142938955Y-81188239D01*
X142918318Y-81344998D01*
X142918318Y-81345001D01*
X139808379Y-81345001D01*
X139928542Y-81252797D01*
X140024796Y-81127356D01*
X140085304Y-80981277D01*
X140103311Y-80844501D01*
X140105942Y-80824516D01*
X140105942Y-80824513D01*
X140085304Y-80667754D01*
X140085304Y-80667753D01*
X140024796Y-80521674D01*
X139928542Y-80396233D01*
X139803101Y-80299979D01*
X139800817Y-80299033D01*
X139657022Y-80239471D01*
X139657020Y-80239470D01*
X139500261Y-80218833D01*
X139500259Y-80218833D01*
X139343499Y-80239470D01*
X139343497Y-80239471D01*
X139197420Y-80299978D01*
X139071978Y-80396233D01*
X138975723Y-80521675D01*
X138915216Y-80667752D01*
X138915215Y-80667754D01*
X138894578Y-80824513D01*
X138894578Y-80824516D01*
X137586192Y-80824516D01*
X137574044Y-80732239D01*
X137574044Y-80732238D01*
X137513536Y-80586159D01*
X137417282Y-80460718D01*
X137291841Y-80364464D01*
X137250845Y-80347483D01*
X137145762Y-80303956D01*
X137145760Y-80303955D01*
X136989001Y-80283318D01*
X136988999Y-80283318D01*
X136832239Y-80303955D01*
X136832237Y-80303956D01*
X136686160Y-80364463D01*
X136560718Y-80460718D01*
X136464463Y-80586160D01*
X136403956Y-80732237D01*
X136403955Y-80732239D01*
X136383318Y-80888998D01*
X136383318Y-80889001D01*
X133987829Y-80889001D01*
X134007716Y-80877520D01*
X134030040Y-80855194D01*
X134042234Y-80844501D01*
X134067282Y-80825282D01*
X134086504Y-80800231D01*
X134097196Y-80788039D01*
X134097199Y-80788036D01*
X134119520Y-80765716D01*
X134135308Y-80738368D01*
X134144310Y-80724895D01*
X134163536Y-80699841D01*
X134175618Y-80670669D01*
X134182793Y-80656122D01*
X134198576Y-80628786D01*
X134198577Y-80628785D01*
X134206749Y-80598282D01*
X134211961Y-80582930D01*
X134224044Y-80553762D01*
X134228164Y-80522462D01*
X134231327Y-80506561D01*
X134239501Y-80476058D01*
X134239501Y-80444479D01*
X134240562Y-80428293D01*
X134243481Y-80406126D01*
X134244682Y-80397000D01*
X134240562Y-80365704D01*
X134239501Y-80349519D01*
X134239501Y-80317944D01*
X134239500Y-80317940D01*
X134231329Y-80287445D01*
X134228164Y-80271535D01*
X134226279Y-80257216D01*
X134224044Y-80240238D01*
X134211960Y-80211065D01*
X134206746Y-80195705D01*
X134198577Y-80165216D01*
X134198575Y-80165212D01*
X134182791Y-80137873D01*
X134175617Y-80123326D01*
X134173037Y-80117097D01*
X134163536Y-80094159D01*
X134144311Y-80069104D01*
X134135305Y-80055625D01*
X134119522Y-80028287D01*
X134119518Y-80028282D01*
X134097196Y-80005960D01*
X134086501Y-79993765D01*
X134067281Y-79968717D01*
X134042231Y-79949496D01*
X134030036Y-79938801D01*
X133454590Y-79363355D01*
X133454588Y-79363352D01*
X133413849Y-79322613D01*
X133399217Y-79302884D01*
X133398266Y-79303520D01*
X133394882Y-79298456D01*
X133394881Y-79298453D01*
X133364227Y-79252577D01*
X133359956Y-79245708D01*
X133329402Y-79192785D01*
X133329398Y-79192780D01*
X133315505Y-79177350D01*
X133304552Y-79163268D01*
X133296332Y-79150965D01*
X133252589Y-79107222D01*
X133248123Y-79102516D01*
X133202739Y-79052112D01*
X133202738Y-79052111D01*
X133191395Y-79043870D01*
X133176605Y-79031238D01*
X133170903Y-79025536D01*
X133113876Y-78987431D01*
X133109884Y-78984649D01*
X133049598Y-78940849D01*
X133042960Y-78937893D01*
X133024511Y-78927719D01*
X133023419Y-78926989D01*
X133023414Y-78926986D01*
X132953861Y-78898177D01*
X132950878Y-78896895D01*
X132876674Y-78863856D01*
X132876665Y-78863853D01*
X132876153Y-78863745D01*
X132865494Y-78860438D01*
X132865362Y-78860874D01*
X132859535Y-78859106D01*
X132859534Y-78859106D01*
X132859531Y-78859105D01*
X132859530Y-78859105D01*
X132779136Y-78843113D01*
X132777583Y-78842794D01*
X132691514Y-78824500D01*
X132685559Y-78824500D01*
X131445646Y-78824500D01*
X131256354Y-78824500D01*
X131256350Y-78824500D01*
X131170334Y-78842783D01*
X131168745Y-78843110D01*
X131088336Y-78859105D01*
X131082514Y-78860871D01*
X131082382Y-78860437D01*
X131071720Y-78863744D01*
X131071200Y-78863854D01*
X131071199Y-78863854D01*
X130996969Y-78896904D01*
X130993986Y-78898185D01*
X130924457Y-78926984D01*
X130924450Y-78926988D01*
X130923346Y-78927726D01*
X130904911Y-78937892D01*
X130898272Y-78940848D01*
X130898264Y-78940853D01*
X130837976Y-78984653D01*
X130833986Y-78987434D01*
X130776968Y-79025533D01*
X130776958Y-79025542D01*
X130771253Y-79031246D01*
X130756472Y-79043870D01*
X130745129Y-79052111D01*
X130745126Y-79052114D01*
X130699742Y-79102517D01*
X130695277Y-79107222D01*
X130651539Y-79150961D01*
X130651532Y-79150969D01*
X130643310Y-79163275D01*
X130632362Y-79177350D01*
X130618472Y-79192776D01*
X130618467Y-79192784D01*
X130587914Y-79245703D01*
X130583630Y-79252591D01*
X130552988Y-79298450D01*
X130544741Y-79318360D01*
X130537569Y-79332902D01*
X130523824Y-79356710D01*
X130523821Y-79356715D01*
X130507010Y-79408451D01*
X130503643Y-79417578D01*
X130485106Y-79462333D01*
X130479589Y-79490066D01*
X130475905Y-79504183D01*
X130465325Y-79536747D01*
X130460340Y-79584171D01*
X130458638Y-79595396D01*
X130450500Y-79636310D01*
X130450500Y-79671306D01*
X130449821Y-79684266D01*
X130445540Y-79724999D01*
X107399500Y-79724999D01*
X107399500Y-76882920D01*
X113478999Y-76882920D01*
X113507840Y-77027907D01*
X113507843Y-77027917D01*
X113564412Y-77164488D01*
X113564419Y-77164501D01*
X113646548Y-77287415D01*
X113646551Y-77287419D01*
X113751080Y-77391948D01*
X113751084Y-77391951D01*
X113873998Y-77474080D01*
X113874011Y-77474087D01*
X114010582Y-77530656D01*
X114010587Y-77530658D01*
X114010591Y-77530658D01*
X114010592Y-77530659D01*
X114155579Y-77559500D01*
X114155582Y-77559500D01*
X114303420Y-77559500D01*
X114400962Y-77540096D01*
X114448413Y-77530658D01*
X114584995Y-77474084D01*
X114707916Y-77391951D01*
X114812451Y-77287416D01*
X114894584Y-77164495D01*
X114951158Y-77027913D01*
X114980000Y-76882918D01*
X114980000Y-76735082D01*
X114980000Y-76735079D01*
X114951159Y-76590092D01*
X114951158Y-76590091D01*
X114951158Y-76590087D01*
X114951156Y-76590082D01*
X114894587Y-76453511D01*
X114894580Y-76453498D01*
X114812451Y-76330584D01*
X114812448Y-76330580D01*
X114707919Y-76226051D01*
X114707915Y-76226048D01*
X114585001Y-76143919D01*
X114584988Y-76143912D01*
X114448417Y-76087343D01*
X114448407Y-76087340D01*
X114303420Y-76058500D01*
X114303418Y-76058500D01*
X114155582Y-76058500D01*
X114155580Y-76058500D01*
X114010592Y-76087340D01*
X114010582Y-76087343D01*
X113874011Y-76143912D01*
X113873998Y-76143919D01*
X113751084Y-76226048D01*
X113751080Y-76226051D01*
X113646551Y-76330580D01*
X113646548Y-76330584D01*
X113564419Y-76453498D01*
X113564412Y-76453511D01*
X113507843Y-76590082D01*
X113507840Y-76590092D01*
X113479000Y-76735079D01*
X113479000Y-76735082D01*
X113479000Y-76882918D01*
X113479000Y-76882920D01*
X113478999Y-76882920D01*
X107399500Y-76882920D01*
X107399500Y-75660001D01*
X119280318Y-75660001D01*
X119300955Y-75816760D01*
X119300956Y-75816762D01*
X119361464Y-75962841D01*
X119457718Y-76088282D01*
X119583159Y-76184536D01*
X119729238Y-76245044D01*
X119807619Y-76255363D01*
X119885999Y-76265682D01*
X119886000Y-76265682D01*
X119886001Y-76265682D01*
X119938254Y-76258802D01*
X120042762Y-76245044D01*
X120188841Y-76184536D01*
X120314282Y-76088282D01*
X120410536Y-75962841D01*
X120446506Y-75876001D01*
X126150317Y-75876001D01*
X126170954Y-76032760D01*
X126170955Y-76032762D01*
X126216996Y-76143916D01*
X126231463Y-76178841D01*
X126327717Y-76304282D01*
X126453158Y-76400536D01*
X126599237Y-76461044D01*
X126677618Y-76471363D01*
X126755998Y-76481682D01*
X126755999Y-76481682D01*
X126756000Y-76481682D01*
X126808253Y-76474802D01*
X126912761Y-76461044D01*
X127058840Y-76400536D01*
X127184281Y-76304282D01*
X127280535Y-76178841D01*
X127341043Y-76032762D01*
X127361681Y-75876000D01*
X127341043Y-75719238D01*
X127280535Y-75573159D01*
X127184281Y-75447718D01*
X127058840Y-75351464D01*
X126912761Y-75290956D01*
X126912759Y-75290955D01*
X126756000Y-75270318D01*
X126755998Y-75270318D01*
X126599238Y-75290955D01*
X126599236Y-75290956D01*
X126453159Y-75351463D01*
X126327717Y-75447718D01*
X126231462Y-75573160D01*
X126170955Y-75719237D01*
X126170954Y-75719239D01*
X126150317Y-75875998D01*
X126150317Y-75876001D01*
X120446506Y-75876001D01*
X120471044Y-75816762D01*
X120491682Y-75660000D01*
X120471044Y-75503238D01*
X120410536Y-75357159D01*
X120314282Y-75231718D01*
X120188841Y-75135464D01*
X120042762Y-75074956D01*
X120042760Y-75074955D01*
X119886001Y-75054318D01*
X119885999Y-75054318D01*
X119729239Y-75074955D01*
X119729237Y-75074956D01*
X119583160Y-75135463D01*
X119457718Y-75231718D01*
X119361463Y-75357160D01*
X119300956Y-75503237D01*
X119300955Y-75503239D01*
X119280318Y-75659998D01*
X119280318Y-75660001D01*
X107399500Y-75660001D01*
X107399500Y-74042001D01*
X111393318Y-74042001D01*
X111413955Y-74198760D01*
X111413956Y-74198762D01*
X111474464Y-74344841D01*
X111570718Y-74470282D01*
X111696159Y-74566536D01*
X111842238Y-74627044D01*
X111920619Y-74637363D01*
X111998999Y-74647682D01*
X111999000Y-74647682D01*
X111999001Y-74647682D01*
X112051254Y-74640802D01*
X112155762Y-74627044D01*
X112301841Y-74566536D01*
X112427282Y-74470282D01*
X112523536Y-74344841D01*
X112584044Y-74198762D01*
X112604682Y-74042000D01*
X112584044Y-73885238D01*
X112523536Y-73739159D01*
X112427282Y-73613718D01*
X112427280Y-73613717D01*
X112427280Y-73613716D01*
X112299120Y-73515376D01*
X112257917Y-73458948D01*
X112253762Y-73389202D01*
X112287974Y-73328282D01*
X112299120Y-73318624D01*
X112386156Y-73251839D01*
X112427282Y-73220282D01*
X112523536Y-73094841D01*
X112571104Y-72980001D01*
X121238318Y-72980001D01*
X121258955Y-73136760D01*
X121258956Y-73136762D01*
X121306622Y-73251839D01*
X121319464Y-73282841D01*
X121415718Y-73408282D01*
X121541159Y-73504536D01*
X121687238Y-73565044D01*
X121765619Y-73575363D01*
X121843999Y-73585682D01*
X121844000Y-73585682D01*
X121844001Y-73585682D01*
X121896254Y-73578802D01*
X122000762Y-73565044D01*
X122146841Y-73504536D01*
X122272282Y-73408282D01*
X122281706Y-73396001D01*
X125424318Y-73396001D01*
X125444955Y-73552760D01*
X125444956Y-73552762D01*
X125505464Y-73698841D01*
X125601718Y-73824282D01*
X125727159Y-73920536D01*
X125873238Y-73981044D01*
X125951619Y-73991363D01*
X126029999Y-74001682D01*
X126030000Y-74001682D01*
X126030001Y-74001682D01*
X126082254Y-73994802D01*
X126186762Y-73981044D01*
X126332841Y-73920536D01*
X126405216Y-73865001D01*
X149843518Y-73865001D01*
X149863422Y-74143299D01*
X149922727Y-74415916D01*
X149922729Y-74415923D01*
X149943004Y-74470282D01*
X150020231Y-74677338D01*
X150020233Y-74677342D01*
X150153940Y-74922207D01*
X150153945Y-74922215D01*
X150321138Y-75145560D01*
X150321154Y-75145578D01*
X150518421Y-75342845D01*
X150518439Y-75342861D01*
X150741784Y-75510054D01*
X150741792Y-75510059D01*
X150986657Y-75643766D01*
X150986661Y-75643768D01*
X150986663Y-75643769D01*
X151248077Y-75741271D01*
X151384391Y-75770924D01*
X151520700Y-75800577D01*
X151520702Y-75800577D01*
X151520706Y-75800578D01*
X151746960Y-75816760D01*
X151798999Y-75820482D01*
X151799000Y-75820482D01*
X151799001Y-75820482D01*
X151826881Y-75818487D01*
X152077294Y-75800578D01*
X152349923Y-75741271D01*
X152611337Y-75643769D01*
X152856213Y-75510056D01*
X153079568Y-75342855D01*
X153276855Y-75145568D01*
X153444056Y-74922213D01*
X153577769Y-74677337D01*
X153675271Y-74415923D01*
X153734578Y-74143294D01*
X153754482Y-73865000D01*
X153734578Y-73586706D01*
X153734355Y-73585682D01*
X153693458Y-73397682D01*
X153675271Y-73314077D01*
X153577769Y-73052663D01*
X153538092Y-72980001D01*
X153521165Y-72949001D01*
X155339318Y-72949001D01*
X155359955Y-73105760D01*
X155359956Y-73105762D01*
X155420464Y-73251841D01*
X155516718Y-73377282D01*
X155642159Y-73473536D01*
X155788238Y-73534044D01*
X155866619Y-73544363D01*
X155944999Y-73554682D01*
X155945000Y-73554682D01*
X155945001Y-73554682D01*
X155997254Y-73547802D01*
X156101762Y-73534044D01*
X156247841Y-73473536D01*
X156373282Y-73377282D01*
X156469536Y-73251841D01*
X156530044Y-73105762D01*
X156550682Y-72949000D01*
X156550650Y-72948760D01*
X156530044Y-72792239D01*
X156530044Y-72792238D01*
X156469536Y-72646159D01*
X156373282Y-72520718D01*
X156247841Y-72424464D01*
X156101762Y-72363956D01*
X156101760Y-72363955D01*
X155945001Y-72343318D01*
X155944999Y-72343318D01*
X155788239Y-72363955D01*
X155788237Y-72363956D01*
X155642160Y-72424463D01*
X155516718Y-72520718D01*
X155420463Y-72646160D01*
X155359956Y-72792237D01*
X155359955Y-72792239D01*
X155339318Y-72948998D01*
X155339318Y-72949001D01*
X153521165Y-72949001D01*
X153444059Y-72807792D01*
X153444054Y-72807784D01*
X153276861Y-72584439D01*
X153276845Y-72584421D01*
X153079578Y-72387154D01*
X153079560Y-72387138D01*
X152856215Y-72219945D01*
X152856207Y-72219940D01*
X152611342Y-72086233D01*
X152611338Y-72086231D01*
X152482842Y-72038305D01*
X152349923Y-71988729D01*
X152349919Y-71988728D01*
X152349916Y-71988727D01*
X152077299Y-71929422D01*
X151799001Y-71909518D01*
X151798999Y-71909518D01*
X151520700Y-71929422D01*
X151248083Y-71988727D01*
X151248078Y-71988728D01*
X151248077Y-71988729D01*
X151184875Y-72012301D01*
X150986661Y-72086231D01*
X150986657Y-72086233D01*
X150741792Y-72219940D01*
X150741784Y-72219945D01*
X150518439Y-72387138D01*
X150518421Y-72387154D01*
X150321154Y-72584421D01*
X150321138Y-72584439D01*
X150153945Y-72807784D01*
X150153940Y-72807792D01*
X150020233Y-73052657D01*
X150020231Y-73052661D01*
X149957712Y-73220283D01*
X149934380Y-73282841D01*
X149922727Y-73314083D01*
X149863422Y-73586700D01*
X149843518Y-73864998D01*
X149843518Y-73865001D01*
X126405216Y-73865001D01*
X126458282Y-73824282D01*
X126554536Y-73698841D01*
X126615044Y-73552762D01*
X126635682Y-73396000D01*
X126633186Y-73377044D01*
X126615044Y-73239239D01*
X126615044Y-73239238D01*
X126554536Y-73093159D01*
X126458282Y-72967718D01*
X126332841Y-72871464D01*
X126186762Y-72810956D01*
X126186760Y-72810955D01*
X126030001Y-72790318D01*
X126029999Y-72790318D01*
X125873239Y-72810955D01*
X125873237Y-72810956D01*
X125727160Y-72871463D01*
X125601718Y-72967718D01*
X125505463Y-73093160D01*
X125444956Y-73239237D01*
X125444955Y-73239239D01*
X125424318Y-73395998D01*
X125424318Y-73396001D01*
X122281706Y-73396001D01*
X122368536Y-73282841D01*
X122429044Y-73136762D01*
X122449682Y-72980000D01*
X122445569Y-72948762D01*
X122429044Y-72823239D01*
X122429044Y-72823238D01*
X122368536Y-72677159D01*
X122272282Y-72551718D01*
X122146841Y-72455464D01*
X122097540Y-72435043D01*
X122000762Y-72394956D01*
X122000760Y-72394955D01*
X121844001Y-72374318D01*
X121843999Y-72374318D01*
X121687239Y-72394955D01*
X121687237Y-72394956D01*
X121541160Y-72455463D01*
X121415718Y-72551718D01*
X121319463Y-72677160D01*
X121258956Y-72823237D01*
X121258955Y-72823239D01*
X121238318Y-72979998D01*
X121238318Y-72980001D01*
X112571104Y-72980001D01*
X112584044Y-72948762D01*
X112600569Y-72823239D01*
X112604682Y-72792001D01*
X112604682Y-72791998D01*
X112584044Y-72635239D01*
X112584044Y-72635238D01*
X112523536Y-72489159D01*
X112427282Y-72363718D01*
X112301841Y-72267464D01*
X112155762Y-72206956D01*
X112155760Y-72206955D01*
X111999001Y-72186318D01*
X111998999Y-72186318D01*
X111842239Y-72206955D01*
X111842237Y-72206956D01*
X111696160Y-72267463D01*
X111570718Y-72363718D01*
X111474463Y-72489160D01*
X111413956Y-72635237D01*
X111413955Y-72635239D01*
X111393318Y-72791998D01*
X111393318Y-72792001D01*
X111413955Y-72948760D01*
X111413956Y-72948762D01*
X111474464Y-73094841D01*
X111570718Y-73220282D01*
X111611847Y-73251841D01*
X111698880Y-73318624D01*
X111740082Y-73375053D01*
X111744237Y-73444799D01*
X111710024Y-73505719D01*
X111698880Y-73515376D01*
X111570718Y-73613718D01*
X111474463Y-73739160D01*
X111413956Y-73885237D01*
X111413955Y-73885239D01*
X111393318Y-74041998D01*
X111393318Y-74042001D01*
X107399500Y-74042001D01*
X107399500Y-71542000D01*
X112193317Y-71542000D01*
X112197438Y-71573301D01*
X112198499Y-71589487D01*
X112198499Y-71621057D01*
X112206669Y-71651549D01*
X112209832Y-71667450D01*
X112213955Y-71698764D01*
X112226037Y-71727932D01*
X112231250Y-71743288D01*
X112239421Y-71773781D01*
X112239422Y-71773784D01*
X112255206Y-71801123D01*
X112262378Y-71815668D01*
X112274461Y-71844839D01*
X112274462Y-71844840D01*
X112293681Y-71869887D01*
X112302691Y-71883372D01*
X112318474Y-71910709D01*
X112318481Y-71910718D01*
X112340802Y-71933039D01*
X112351496Y-71945233D01*
X112370716Y-71970281D01*
X112395764Y-71989501D01*
X112407959Y-72000196D01*
X112430283Y-72022520D01*
X112430284Y-72022521D01*
X112430286Y-72022522D01*
X112457624Y-72038305D01*
X112471103Y-72047311D01*
X112496158Y-72066536D01*
X112523008Y-72077657D01*
X112525325Y-72078617D01*
X112539872Y-72085791D01*
X112567213Y-72101576D01*
X112567215Y-72101577D01*
X112597707Y-72109746D01*
X112613059Y-72114957D01*
X112642237Y-72127044D01*
X112673540Y-72131165D01*
X112689440Y-72134327D01*
X112719942Y-72142500D01*
X112751512Y-72142500D01*
X112767696Y-72143560D01*
X112798999Y-72147682D01*
X112830301Y-72143560D01*
X112846486Y-72142500D01*
X112878055Y-72142500D01*
X112878056Y-72142500D01*
X112908554Y-72134327D01*
X112924438Y-72131167D01*
X112955761Y-72127044D01*
X112984929Y-72114961D01*
X113000292Y-72109747D01*
X113019857Y-72104504D01*
X113030783Y-72101577D01*
X113058129Y-72085787D01*
X113072665Y-72078619D01*
X113101840Y-72066536D01*
X113126894Y-72047310D01*
X113140373Y-72038305D01*
X113167715Y-72022520D01*
X113190039Y-72000194D01*
X113202233Y-71989501D01*
X113227281Y-71970282D01*
X113246501Y-71945233D01*
X113257195Y-71933039D01*
X113260812Y-71929422D01*
X113279519Y-71910716D01*
X113295307Y-71883368D01*
X113304309Y-71869895D01*
X113319575Y-71850001D01*
X119280318Y-71850001D01*
X119300955Y-72006760D01*
X119300956Y-72006762D01*
X119359326Y-72147681D01*
X119361464Y-72152841D01*
X119457718Y-72278282D01*
X119583159Y-72374536D01*
X119729238Y-72435044D01*
X119807619Y-72445363D01*
X119885999Y-72455682D01*
X119886000Y-72455682D01*
X119886001Y-72455682D01*
X119938254Y-72448802D01*
X120042762Y-72435044D01*
X120188841Y-72374536D01*
X120314282Y-72278282D01*
X120410536Y-72152841D01*
X120471044Y-72006762D01*
X120489064Y-71869887D01*
X120491682Y-71850001D01*
X120491682Y-71849998D01*
X120476600Y-71735441D01*
X120471044Y-71693238D01*
X120410536Y-71547159D01*
X120314282Y-71421718D01*
X120188841Y-71325464D01*
X120042762Y-71264956D01*
X120042760Y-71264955D01*
X119886001Y-71244318D01*
X119885999Y-71244318D01*
X119729239Y-71264955D01*
X119729237Y-71264956D01*
X119583160Y-71325463D01*
X119457718Y-71421718D01*
X119361463Y-71547160D01*
X119300956Y-71693237D01*
X119300955Y-71693239D01*
X119280318Y-71849998D01*
X119280318Y-71850001D01*
X113319575Y-71850001D01*
X113323535Y-71844841D01*
X113335618Y-71815666D01*
X113342791Y-71801123D01*
X113358576Y-71773784D01*
X113361503Y-71762858D01*
X113366746Y-71743293D01*
X113371961Y-71727928D01*
X113372701Y-71726142D01*
X113384043Y-71698762D01*
X113388166Y-71667439D01*
X113391328Y-71651549D01*
X113399499Y-71621057D01*
X113399499Y-71589487D01*
X113400560Y-71573301D01*
X113404681Y-71542000D01*
X113404681Y-71541998D01*
X113400560Y-71510697D01*
X113399499Y-71494512D01*
X113399499Y-70339487D01*
X113400560Y-70323301D01*
X113404681Y-70292000D01*
X113404681Y-70291998D01*
X113400560Y-70260697D01*
X113399499Y-70244512D01*
X113399499Y-70212945D01*
X113399499Y-70212943D01*
X113391326Y-70182441D01*
X113388163Y-70166536D01*
X113384043Y-70135239D01*
X113384043Y-70135238D01*
X113371956Y-70106060D01*
X113366744Y-70090703D01*
X113358576Y-70060216D01*
X113358574Y-70060212D01*
X113342790Y-70032873D01*
X113335616Y-70018326D01*
X113323535Y-69989160D01*
X113323535Y-69989159D01*
X113304310Y-69964104D01*
X113295304Y-69950625D01*
X113279521Y-69923287D01*
X113279517Y-69923282D01*
X113257195Y-69900960D01*
X113246500Y-69888765D01*
X113231718Y-69869501D01*
X113227281Y-69863718D01*
X113202232Y-69844497D01*
X113190038Y-69833803D01*
X113167717Y-69811482D01*
X113167715Y-69811480D01*
X113167712Y-69811478D01*
X113167708Y-69811475D01*
X113140371Y-69795692D01*
X113126886Y-69786682D01*
X113101839Y-69767463D01*
X113101838Y-69767462D01*
X113072667Y-69755379D01*
X113058122Y-69748207D01*
X113030783Y-69732423D01*
X113030780Y-69732422D01*
X113000287Y-69724251D01*
X112984931Y-69719038D01*
X112955763Y-69706956D01*
X112924449Y-69702833D01*
X112908551Y-69699670D01*
X112878056Y-69691500D01*
X112846486Y-69691500D01*
X112830301Y-69690439D01*
X112798999Y-69686318D01*
X112767696Y-69690439D01*
X112751512Y-69691500D01*
X112719939Y-69691500D01*
X112689440Y-69699671D01*
X112673544Y-69702832D01*
X112642243Y-69706954D01*
X112642234Y-69706956D01*
X112613066Y-69719038D01*
X112597714Y-69724250D01*
X112567218Y-69732422D01*
X112567216Y-69732422D01*
X112567215Y-69732423D01*
X112567213Y-69732424D01*
X112567211Y-69732425D01*
X112539874Y-69748207D01*
X112525335Y-69755377D01*
X112496164Y-69767460D01*
X112496159Y-69767463D01*
X112471106Y-69786686D01*
X112457628Y-69795691D01*
X112430282Y-69811480D01*
X112407954Y-69833807D01*
X112395766Y-69844496D01*
X112370717Y-69863718D01*
X112351495Y-69888767D01*
X112340806Y-69900955D01*
X112318479Y-69923283D01*
X112302690Y-69950629D01*
X112293685Y-69964107D01*
X112274462Y-69989160D01*
X112274459Y-69989165D01*
X112262376Y-70018336D01*
X112255206Y-70032875D01*
X112239424Y-70060212D01*
X112239421Y-70060219D01*
X112231249Y-70090715D01*
X112226037Y-70106067D01*
X112213955Y-70135235D01*
X112213953Y-70135244D01*
X112209831Y-70166545D01*
X112206670Y-70182441D01*
X112198499Y-70212940D01*
X112198499Y-70244512D01*
X112197438Y-70260697D01*
X112193317Y-70291998D01*
X112193317Y-70292000D01*
X112197438Y-70323301D01*
X112198499Y-70339487D01*
X112198499Y-71494512D01*
X112197438Y-71510697D01*
X112193317Y-71541998D01*
X112193317Y-71542000D01*
X107399500Y-71542000D01*
X107399500Y-67553092D01*
X107400097Y-67540938D01*
X107414626Y-67393417D01*
X107419365Y-67369593D01*
X107460622Y-67233585D01*
X107469916Y-67211148D01*
X107536913Y-67085806D01*
X107550411Y-67065606D01*
X107640569Y-66955748D01*
X107657748Y-66938569D01*
X107767606Y-66848411D01*
X107787806Y-66834913D01*
X107913148Y-66767916D01*
X107935585Y-66758622D01*
X108071593Y-66717365D01*
X108095419Y-66712626D01*
X108219515Y-66700404D01*
X108242940Y-66698097D01*
X108255093Y-66697500D01*
X108314892Y-66697500D01*
X115101876Y-66697500D01*
X115168915Y-66717185D01*
G37*
G04 #@! TD.AperFunction*
M02*
