%TF.GenerationSoftware,KiCad,Pcbnew,(6.0.6)*%
%TF.CreationDate,2022-09-02T11:51:31+03:00*%
%TF.ProjectId,FC0,4643302e-6b69-4636-9164-5f7063625858,rev?*%
%TF.SameCoordinates,Original*%
%TF.FileFunction,Legend,Top*%
%TF.FilePolarity,Positive*%
%FSLAX46Y46*%
G04 Gerber Fmt 4.6, Leading zero omitted, Abs format (unit mm)*
G04 Created by KiCad (PCBNEW (6.0.6)) date 2022-09-02 11:51:31*
%MOMM*%
%LPD*%
G01*
G04 APERTURE LIST*
%ADD10C,0.150000*%
%ADD11C,0.130000*%
%ADD12C,0.120000*%
%ADD13C,0.100000*%
%ADD14C,0.200000*%
G04 APERTURE END LIST*
D10*
X144018000Y-131826000D02*
X144018000Y-128778000D01*
X144018000Y-128778000D02*
X144272000Y-129286000D01*
X140970000Y-131826000D02*
X141478000Y-132080000D01*
X140970000Y-131826000D02*
X141478000Y-131572000D01*
X143764000Y-129286000D02*
X144018000Y-128778000D01*
X140970000Y-131826000D02*
X144018000Y-131826000D01*
D11*
X101404714Y-119576904D02*
X101023761Y-119576904D01*
X100985666Y-119957857D01*
X101023761Y-119919761D01*
X101099952Y-119881666D01*
X101290428Y-119881666D01*
X101366619Y-119919761D01*
X101404714Y-119957857D01*
X101442809Y-120034047D01*
X101442809Y-120224523D01*
X101404714Y-120300714D01*
X101366619Y-120338809D01*
X101290428Y-120376904D01*
X101099952Y-120376904D01*
X101023761Y-120338809D01*
X100985666Y-120300714D01*
X101709476Y-119843571D02*
X101899952Y-120376904D01*
X102090428Y-119843571D01*
X142735333Y-128593904D02*
X143268666Y-129393904D01*
X143268666Y-128593904D02*
X142735333Y-129393904D01*
X99150428Y-119843571D02*
X99150428Y-120491190D01*
X99112333Y-120567380D01*
X99074238Y-120605476D01*
X98998047Y-120643571D01*
X98883761Y-120643571D01*
X98807571Y-120605476D01*
X99150428Y-120338809D02*
X99074238Y-120376904D01*
X98921857Y-120376904D01*
X98845666Y-120338809D01*
X98807571Y-120300714D01*
X98769476Y-120224523D01*
X98769476Y-119995952D01*
X98807571Y-119919761D01*
X98845666Y-119881666D01*
X98921857Y-119843571D01*
X99074238Y-119843571D01*
X99150428Y-119881666D01*
X112447619Y-119716571D02*
X112447619Y-120364190D01*
X112409523Y-120440380D01*
X112371428Y-120478476D01*
X112295238Y-120516571D01*
X112180952Y-120516571D01*
X112104761Y-120478476D01*
X112447619Y-120211809D02*
X112371428Y-120249904D01*
X112219047Y-120249904D01*
X112142857Y-120211809D01*
X112104761Y-120173714D01*
X112066666Y-120097523D01*
X112066666Y-119868952D01*
X112104761Y-119792761D01*
X112142857Y-119754666D01*
X112219047Y-119716571D01*
X112371428Y-119716571D01*
X112447619Y-119754666D01*
X112828571Y-119716571D02*
X112828571Y-120249904D01*
X112828571Y-119792761D02*
X112866666Y-119754666D01*
X112942857Y-119716571D01*
X113057142Y-119716571D01*
X113133333Y-119754666D01*
X113171428Y-119830857D01*
X113171428Y-120249904D01*
X113895238Y-120249904D02*
X113895238Y-119449904D01*
X113895238Y-120211809D02*
X113819047Y-120249904D01*
X113666666Y-120249904D01*
X113590476Y-120211809D01*
X113552380Y-120173714D01*
X113514285Y-120097523D01*
X113514285Y-119868952D01*
X113552380Y-119792761D01*
X113590476Y-119754666D01*
X113666666Y-119716571D01*
X113819047Y-119716571D01*
X113895238Y-119754666D01*
X96735904Y-124636904D02*
X96812095Y-124636904D01*
X96888285Y-124675000D01*
X96926380Y-124713095D01*
X96964476Y-124789285D01*
X97002571Y-124941666D01*
X97002571Y-125132142D01*
X96964476Y-125284523D01*
X96926380Y-125360714D01*
X96888285Y-125398809D01*
X96812095Y-125436904D01*
X96735904Y-125436904D01*
X96659714Y-125398809D01*
X96621619Y-125360714D01*
X96583523Y-125284523D01*
X96545428Y-125132142D01*
X96545428Y-124941666D01*
X96583523Y-124789285D01*
X96621619Y-124713095D01*
X96659714Y-124675000D01*
X96735904Y-124636904D01*
X106619047Y-119703904D02*
X106238095Y-119703904D01*
X106200000Y-120084857D01*
X106238095Y-120046761D01*
X106314285Y-120008666D01*
X106504761Y-120008666D01*
X106580952Y-120046761D01*
X106619047Y-120084857D01*
X106657142Y-120161047D01*
X106657142Y-120351523D01*
X106619047Y-120427714D01*
X106580952Y-120465809D01*
X106504761Y-120503904D01*
X106314285Y-120503904D01*
X106238095Y-120465809D01*
X106200000Y-120427714D01*
X107000000Y-120427714D02*
X107038095Y-120465809D01*
X107000000Y-120503904D01*
X106961904Y-120465809D01*
X107000000Y-120427714D01*
X107000000Y-120503904D01*
X107533333Y-119703904D02*
X107609523Y-119703904D01*
X107685714Y-119742000D01*
X107723809Y-119780095D01*
X107761904Y-119856285D01*
X107800000Y-120008666D01*
X107800000Y-120199142D01*
X107761904Y-120351523D01*
X107723809Y-120427714D01*
X107685714Y-120465809D01*
X107609523Y-120503904D01*
X107533333Y-120503904D01*
X107457142Y-120465809D01*
X107419047Y-120427714D01*
X107380952Y-120351523D01*
X107342857Y-120199142D01*
X107342857Y-120008666D01*
X107380952Y-119856285D01*
X107419047Y-119780095D01*
X107457142Y-119742000D01*
X107533333Y-119703904D01*
X151364904Y-142639904D02*
X150564904Y-142639904D01*
X150641095Y-142297047D02*
X150603000Y-142258952D01*
X150564904Y-142182761D01*
X150564904Y-141992285D01*
X150603000Y-141916095D01*
X150641095Y-141878000D01*
X150717285Y-141839904D01*
X150793476Y-141839904D01*
X150907761Y-141878000D01*
X151364904Y-142335142D01*
X151364904Y-141839904D01*
X151288714Y-141039904D02*
X151326809Y-141078000D01*
X151364904Y-141192285D01*
X151364904Y-141268476D01*
X151326809Y-141382761D01*
X151250619Y-141458952D01*
X151174428Y-141497047D01*
X151022047Y-141535142D01*
X150907761Y-141535142D01*
X150755380Y-141497047D01*
X150679190Y-141458952D01*
X150603000Y-141382761D01*
X150564904Y-141268476D01*
X150564904Y-141192285D01*
X150603000Y-141078000D01*
X150641095Y-141039904D01*
X151364904Y-140278000D02*
X151364904Y-140735142D01*
X151364904Y-140506571D02*
X150564904Y-140506571D01*
X150679190Y-140582761D01*
X150755380Y-140658952D01*
X150793476Y-140735142D01*
X156425904Y-120646142D02*
X157073523Y-120646142D01*
X157149714Y-120608047D01*
X157187809Y-120569952D01*
X157225904Y-120493761D01*
X157225904Y-120341380D01*
X157187809Y-120265190D01*
X157149714Y-120227095D01*
X157073523Y-120189000D01*
X156425904Y-120189000D01*
X156997333Y-119846142D02*
X156997333Y-119465190D01*
X157225904Y-119922333D02*
X156425904Y-119655666D01*
X157225904Y-119389000D01*
X157225904Y-118665190D02*
X156844952Y-118931857D01*
X157225904Y-119122333D02*
X156425904Y-119122333D01*
X156425904Y-118817571D01*
X156464000Y-118741380D01*
X156502095Y-118703285D01*
X156578285Y-118665190D01*
X156692571Y-118665190D01*
X156768761Y-118703285D01*
X156806857Y-118741380D01*
X156844952Y-118817571D01*
X156844952Y-119122333D01*
X156425904Y-118436619D02*
X156425904Y-117979476D01*
X157225904Y-118208047D02*
X156425904Y-118208047D01*
X156425904Y-117789000D02*
X156425904Y-117293761D01*
X156730666Y-117560428D01*
X156730666Y-117446142D01*
X156768761Y-117369952D01*
X156806857Y-117331857D01*
X156883047Y-117293761D01*
X157073523Y-117293761D01*
X157149714Y-117331857D01*
X157187809Y-117369952D01*
X157225904Y-117446142D01*
X157225904Y-117674714D01*
X157187809Y-117750904D01*
X157149714Y-117789000D01*
X137386142Y-139960333D02*
X137767095Y-139960333D01*
X137309952Y-140188904D02*
X137576619Y-139388904D01*
X137843285Y-140188904D01*
X138109952Y-140188904D02*
X138109952Y-139388904D01*
X138300428Y-139388904D01*
X138414714Y-139427000D01*
X138490904Y-139503190D01*
X138529000Y-139579380D01*
X138567095Y-139731761D01*
X138567095Y-139846047D01*
X138529000Y-139998428D01*
X138490904Y-140074619D01*
X138414714Y-140150809D01*
X138300428Y-140188904D01*
X138109952Y-140188904D01*
X139367095Y-140112714D02*
X139329000Y-140150809D01*
X139214714Y-140188904D01*
X139138523Y-140188904D01*
X139024238Y-140150809D01*
X138948047Y-140074619D01*
X138909952Y-139998428D01*
X138871857Y-139846047D01*
X138871857Y-139731761D01*
X138909952Y-139579380D01*
X138948047Y-139503190D01*
X139024238Y-139427000D01*
X139138523Y-139388904D01*
X139214714Y-139388904D01*
X139329000Y-139427000D01*
X139367095Y-139465095D01*
X140052809Y-139388904D02*
X139900428Y-139388904D01*
X139824238Y-139427000D01*
X139786142Y-139465095D01*
X139709952Y-139579380D01*
X139671857Y-139731761D01*
X139671857Y-140036523D01*
X139709952Y-140112714D01*
X139748047Y-140150809D01*
X139824238Y-140188904D01*
X139976619Y-140188904D01*
X140052809Y-140150809D01*
X140090904Y-140112714D01*
X140129000Y-140036523D01*
X140129000Y-139846047D01*
X140090904Y-139769857D01*
X140052809Y-139731761D01*
X139976619Y-139693666D01*
X139824238Y-139693666D01*
X139748047Y-139731761D01*
X139709952Y-139769857D01*
X139671857Y-139846047D01*
X140471857Y-140112714D02*
X140509952Y-140150809D01*
X140471857Y-140188904D01*
X140433761Y-140150809D01*
X140471857Y-140112714D01*
X140471857Y-140188904D01*
X141195666Y-139388904D02*
X141043285Y-139388904D01*
X140967095Y-139427000D01*
X140929000Y-139465095D01*
X140852809Y-139579380D01*
X140814714Y-139731761D01*
X140814714Y-140036523D01*
X140852809Y-140112714D01*
X140890904Y-140150809D01*
X140967095Y-140188904D01*
X141119476Y-140188904D01*
X141195666Y-140150809D01*
X141233761Y-140112714D01*
X141271857Y-140036523D01*
X141271857Y-139846047D01*
X141233761Y-139769857D01*
X141195666Y-139731761D01*
X141119476Y-139693666D01*
X140967095Y-139693666D01*
X140890904Y-139731761D01*
X140852809Y-139769857D01*
X140814714Y-139846047D01*
X97002571Y-127976904D02*
X96545428Y-127976904D01*
X96774000Y-127976904D02*
X96774000Y-127176904D01*
X96697809Y-127291190D01*
X96621619Y-127367380D01*
X96545428Y-127405476D01*
X148065857Y-100399904D02*
X148065857Y-101047523D01*
X148103952Y-101123714D01*
X148142047Y-101161809D01*
X148218238Y-101199904D01*
X148370619Y-101199904D01*
X148446809Y-101161809D01*
X148484904Y-101123714D01*
X148523000Y-101047523D01*
X148523000Y-100399904D01*
X148865857Y-100971333D02*
X149246809Y-100971333D01*
X148789666Y-101199904D02*
X149056333Y-100399904D01*
X149323000Y-101199904D01*
X150046809Y-101199904D02*
X149780142Y-100818952D01*
X149589666Y-101199904D02*
X149589666Y-100399904D01*
X149894428Y-100399904D01*
X149970619Y-100438000D01*
X150008714Y-100476095D01*
X150046809Y-100552285D01*
X150046809Y-100666571D01*
X150008714Y-100742761D01*
X149970619Y-100780857D01*
X149894428Y-100818952D01*
X149589666Y-100818952D01*
X150275380Y-100399904D02*
X150732523Y-100399904D01*
X150503952Y-101199904D02*
X150503952Y-100399904D01*
X151418238Y-101199904D02*
X150961095Y-101199904D01*
X151189666Y-101199904D02*
X151189666Y-100399904D01*
X151113476Y-100514190D01*
X151037285Y-100590380D01*
X150961095Y-100628476D01*
X156464000Y-132644810D02*
X156425904Y-132721001D01*
X156425904Y-132835286D01*
X156464000Y-132949572D01*
X156540190Y-133025762D01*
X156616380Y-133063858D01*
X156768761Y-133101953D01*
X156883047Y-133101953D01*
X157035428Y-133063858D01*
X157111619Y-133025762D01*
X157187809Y-132949572D01*
X157225904Y-132835286D01*
X157225904Y-132759096D01*
X157187809Y-132644810D01*
X157149714Y-132606715D01*
X156883047Y-132606715D01*
X156883047Y-132759096D01*
X157225904Y-132263858D02*
X156425904Y-132263858D01*
X156425904Y-131959096D01*
X156464000Y-131882905D01*
X156502095Y-131844810D01*
X156578285Y-131806715D01*
X156692571Y-131806715D01*
X156768761Y-131844810D01*
X156806857Y-131882905D01*
X156844952Y-131959096D01*
X156844952Y-132263858D01*
X157187809Y-131501953D02*
X157225904Y-131387667D01*
X157225904Y-131197191D01*
X157187809Y-131121001D01*
X157149714Y-131082905D01*
X157073523Y-131044810D01*
X156997333Y-131044810D01*
X156921142Y-131082905D01*
X156883047Y-131121001D01*
X156844952Y-131197191D01*
X156806857Y-131349572D01*
X156768761Y-131425762D01*
X156730666Y-131463858D01*
X156654476Y-131501953D01*
X156578285Y-131501953D01*
X156502095Y-131463858D01*
X156464000Y-131425762D01*
X156425904Y-131349572D01*
X156425904Y-131159096D01*
X156464000Y-131044810D01*
X156425904Y-130092429D02*
X157073523Y-130092429D01*
X157149714Y-130054334D01*
X157187809Y-130016239D01*
X157225904Y-129940048D01*
X157225904Y-129787667D01*
X157187809Y-129711477D01*
X157149714Y-129673381D01*
X157073523Y-129635286D01*
X156425904Y-129635286D01*
X156997333Y-129292429D02*
X156997333Y-128911477D01*
X157225904Y-129368620D02*
X156425904Y-129101953D01*
X157225904Y-128835286D01*
X157225904Y-128111477D02*
X156844952Y-128378143D01*
X157225904Y-128568620D02*
X156425904Y-128568620D01*
X156425904Y-128263858D01*
X156464000Y-128187667D01*
X156502095Y-128149572D01*
X156578285Y-128111477D01*
X156692571Y-128111477D01*
X156768761Y-128149572D01*
X156806857Y-128187667D01*
X156844952Y-128263858D01*
X156844952Y-128568620D01*
X156425904Y-127882905D02*
X156425904Y-127425762D01*
X157225904Y-127654334D02*
X156425904Y-127654334D01*
X156502095Y-127197191D02*
X156464000Y-127159096D01*
X156425904Y-127082905D01*
X156425904Y-126892429D01*
X156464000Y-126816239D01*
X156502095Y-126778143D01*
X156578285Y-126740048D01*
X156654476Y-126740048D01*
X156768761Y-126778143D01*
X157225904Y-127235286D01*
X157225904Y-126740048D01*
X125230333Y-143579904D02*
X125725571Y-143579904D01*
X125458904Y-143884666D01*
X125573190Y-143884666D01*
X125649380Y-143922761D01*
X125687476Y-143960857D01*
X125725571Y-144037047D01*
X125725571Y-144227523D01*
X125687476Y-144303714D01*
X125649380Y-144341809D01*
X125573190Y-144379904D01*
X125344619Y-144379904D01*
X125268428Y-144341809D01*
X125230333Y-144303714D01*
X108165952Y-152507904D02*
X108165952Y-151707904D01*
X108699285Y-151707904D02*
X108851666Y-151707904D01*
X108927857Y-151746000D01*
X109004047Y-151822190D01*
X109042142Y-151974571D01*
X109042142Y-152241238D01*
X109004047Y-152393619D01*
X108927857Y-152469809D01*
X108851666Y-152507904D01*
X108699285Y-152507904D01*
X108623095Y-152469809D01*
X108546904Y-152393619D01*
X108508809Y-152241238D01*
X108508809Y-151974571D01*
X108546904Y-151822190D01*
X108623095Y-151746000D01*
X108699285Y-151707904D01*
X141224000Y-130790952D02*
X141224000Y-131171904D01*
X140957333Y-130371904D02*
X141224000Y-130790952D01*
X141490666Y-130371904D01*
X156425904Y-111131142D02*
X157073523Y-111131142D01*
X157149714Y-111093047D01*
X157187809Y-111054952D01*
X157225904Y-110978761D01*
X157225904Y-110826380D01*
X157187809Y-110750190D01*
X157149714Y-110712095D01*
X157073523Y-110674000D01*
X156425904Y-110674000D01*
X156997333Y-110331142D02*
X156997333Y-109950190D01*
X157225904Y-110407333D02*
X156425904Y-110140666D01*
X157225904Y-109874000D01*
X157225904Y-109150190D02*
X156844952Y-109416857D01*
X157225904Y-109607333D02*
X156425904Y-109607333D01*
X156425904Y-109302571D01*
X156464000Y-109226380D01*
X156502095Y-109188285D01*
X156578285Y-109150190D01*
X156692571Y-109150190D01*
X156768761Y-109188285D01*
X156806857Y-109226380D01*
X156844952Y-109302571D01*
X156844952Y-109607333D01*
X156425904Y-108921619D02*
X156425904Y-108464476D01*
X157225904Y-108693047D02*
X156425904Y-108693047D01*
X156425904Y-107854952D02*
X156425904Y-108007333D01*
X156464000Y-108083523D01*
X156502095Y-108121619D01*
X156616380Y-108197809D01*
X156768761Y-108235904D01*
X157073523Y-108235904D01*
X157149714Y-108197809D01*
X157187809Y-108159714D01*
X157225904Y-108083523D01*
X157225904Y-107931142D01*
X157187809Y-107854952D01*
X157149714Y-107816857D01*
X157073523Y-107778761D01*
X156883047Y-107778761D01*
X156806857Y-107816857D01*
X156768761Y-107854952D01*
X156730666Y-107931142D01*
X156730666Y-108083523D01*
X156768761Y-108159714D01*
X156806857Y-108197809D01*
X156883047Y-108235904D01*
X105092619Y-151707904D02*
X105587857Y-151707904D01*
X105321190Y-152012666D01*
X105435476Y-152012666D01*
X105511666Y-152050761D01*
X105549761Y-152088857D01*
X105587857Y-152165047D01*
X105587857Y-152355523D01*
X105549761Y-152431714D01*
X105511666Y-152469809D01*
X105435476Y-152507904D01*
X105206904Y-152507904D01*
X105130714Y-152469809D01*
X105092619Y-152431714D01*
X105854523Y-151974571D02*
X106045000Y-152507904D01*
X106235476Y-151974571D01*
X106464047Y-151707904D02*
X106959285Y-151707904D01*
X106692619Y-152012666D01*
X106806904Y-152012666D01*
X106883095Y-152050761D01*
X106921190Y-152088857D01*
X106959285Y-152165047D01*
X106959285Y-152355523D01*
X106921190Y-152431714D01*
X106883095Y-152469809D01*
X106806904Y-152507904D01*
X106578333Y-152507904D01*
X106502142Y-152469809D01*
X106464047Y-152431714D01*
X157352904Y-142639904D02*
X156552904Y-142639904D01*
X156629095Y-142297047D02*
X156591000Y-142258952D01*
X156552904Y-142182761D01*
X156552904Y-141992285D01*
X156591000Y-141916095D01*
X156629095Y-141878000D01*
X156705285Y-141839904D01*
X156781476Y-141839904D01*
X156895761Y-141878000D01*
X157352904Y-142335142D01*
X157352904Y-141839904D01*
X157276714Y-141039904D02*
X157314809Y-141078000D01*
X157352904Y-141192285D01*
X157352904Y-141268476D01*
X157314809Y-141382761D01*
X157238619Y-141458952D01*
X157162428Y-141497047D01*
X157010047Y-141535142D01*
X156895761Y-141535142D01*
X156743380Y-141497047D01*
X156667190Y-141458952D01*
X156591000Y-141382761D01*
X156552904Y-141268476D01*
X156552904Y-141192285D01*
X156591000Y-141078000D01*
X156629095Y-141039904D01*
X157352904Y-140278000D02*
X157352904Y-140735142D01*
X157352904Y-140506571D02*
X156552904Y-140506571D01*
X156667190Y-140582761D01*
X156743380Y-140658952D01*
X156781476Y-140735142D01*
X122677571Y-144379904D02*
X122220428Y-144379904D01*
X122449000Y-144379904D02*
X122449000Y-143579904D01*
X122372809Y-143694190D01*
X122296619Y-143770380D01*
X122220428Y-143808476D01*
X122262904Y-151834904D02*
X122339095Y-151834904D01*
X122415285Y-151873000D01*
X122453380Y-151911095D01*
X122491476Y-151987285D01*
X122529571Y-152139666D01*
X122529571Y-152330142D01*
X122491476Y-152482523D01*
X122453380Y-152558714D01*
X122415285Y-152596809D01*
X122339095Y-152634904D01*
X122262904Y-152634904D01*
X122186714Y-152596809D01*
X122148619Y-152558714D01*
X122110523Y-152482523D01*
X122072428Y-152330142D01*
X122072428Y-152139666D01*
X122110523Y-151987285D01*
X122148619Y-151911095D01*
X122186714Y-151873000D01*
X122262904Y-151834904D01*
X96964476Y-137336904D02*
X96583523Y-137336904D01*
X96545428Y-137717857D01*
X96583523Y-137679761D01*
X96659714Y-137641666D01*
X96850190Y-137641666D01*
X96926380Y-137679761D01*
X96964476Y-137717857D01*
X97002571Y-137794047D01*
X97002571Y-137984523D01*
X96964476Y-138060714D01*
X96926380Y-138098809D01*
X96850190Y-138136904D01*
X96659714Y-138136904D01*
X96583523Y-138098809D01*
X96545428Y-138060714D01*
X145631142Y-143135333D02*
X146012095Y-143135333D01*
X145554952Y-143363904D02*
X145821619Y-142563904D01*
X146088285Y-143363904D01*
X146354952Y-143363904D02*
X146354952Y-142563904D01*
X146545428Y-142563904D01*
X146659714Y-142602000D01*
X146735904Y-142678190D01*
X146774000Y-142754380D01*
X146812095Y-142906761D01*
X146812095Y-143021047D01*
X146774000Y-143173428D01*
X146735904Y-143249619D01*
X146659714Y-143325809D01*
X146545428Y-143363904D01*
X146354952Y-143363904D01*
X147612095Y-143287714D02*
X147574000Y-143325809D01*
X147459714Y-143363904D01*
X147383523Y-143363904D01*
X147269238Y-143325809D01*
X147193047Y-143249619D01*
X147154952Y-143173428D01*
X147116857Y-143021047D01*
X147116857Y-142906761D01*
X147154952Y-142754380D01*
X147193047Y-142678190D01*
X147269238Y-142602000D01*
X147383523Y-142563904D01*
X147459714Y-142563904D01*
X147574000Y-142602000D01*
X147612095Y-142640095D01*
X147878761Y-142563904D02*
X148374000Y-142563904D01*
X148107333Y-142868666D01*
X148221619Y-142868666D01*
X148297809Y-142906761D01*
X148335904Y-142944857D01*
X148374000Y-143021047D01*
X148374000Y-143211523D01*
X148335904Y-143287714D01*
X148297809Y-143325809D01*
X148221619Y-143363904D01*
X147993047Y-143363904D01*
X147916857Y-143325809D01*
X147878761Y-143287714D01*
X148716857Y-143287714D02*
X148754952Y-143325809D01*
X148716857Y-143363904D01*
X148678761Y-143325809D01*
X148716857Y-143287714D01*
X148716857Y-143363904D01*
X149021619Y-142563904D02*
X149516857Y-142563904D01*
X149250190Y-142868666D01*
X149364476Y-142868666D01*
X149440666Y-142906761D01*
X149478761Y-142944857D01*
X149516857Y-143021047D01*
X149516857Y-143211523D01*
X149478761Y-143287714D01*
X149440666Y-143325809D01*
X149364476Y-143363904D01*
X149135904Y-143363904D01*
X149059714Y-143325809D01*
X149021619Y-143287714D01*
X148284261Y-117671904D02*
X148360452Y-117671904D01*
X148431880Y-117710000D01*
X148465214Y-117748095D01*
X148493785Y-117824285D01*
X148512833Y-117976666D01*
X148489023Y-118167142D01*
X148431880Y-118319523D01*
X148384261Y-118395714D01*
X148341404Y-118433809D01*
X148260452Y-118471904D01*
X148184261Y-118471904D01*
X148112833Y-118433809D01*
X148079500Y-118395714D01*
X148050928Y-118319523D01*
X148031880Y-118167142D01*
X148055690Y-117976666D01*
X148112833Y-117824285D01*
X148160452Y-117748095D01*
X148203309Y-117710000D01*
X148284261Y-117671904D01*
X148831880Y-118471904D02*
X148984261Y-118471904D01*
X149065214Y-118433809D01*
X149108071Y-118395714D01*
X149198547Y-118281428D01*
X149255690Y-118129047D01*
X149293785Y-117824285D01*
X149265214Y-117748095D01*
X149231880Y-117710000D01*
X149160452Y-117671904D01*
X149008071Y-117671904D01*
X148927119Y-117710000D01*
X148884261Y-117748095D01*
X148836642Y-117824285D01*
X148812833Y-118014761D01*
X148841404Y-118090952D01*
X148874738Y-118129047D01*
X148946166Y-118167142D01*
X149098547Y-118167142D01*
X149179500Y-118129047D01*
X149222357Y-118090952D01*
X149269976Y-118014761D01*
X150231880Y-117633809D02*
X149417595Y-118662380D01*
X150446166Y-117748095D02*
X150489023Y-117710000D01*
X150569976Y-117671904D01*
X150760452Y-117671904D01*
X150831880Y-117710000D01*
X150865214Y-117748095D01*
X150893785Y-117824285D01*
X150884261Y-117900476D01*
X150831880Y-118014761D01*
X150317595Y-118471904D01*
X150812833Y-118471904D01*
X151208071Y-117748095D02*
X151250928Y-117710000D01*
X151331880Y-117671904D01*
X151522357Y-117671904D01*
X151593785Y-117710000D01*
X151627119Y-117748095D01*
X151655690Y-117824285D01*
X151646166Y-117900476D01*
X151593785Y-118014761D01*
X151079500Y-118471904D01*
X151574738Y-118471904D01*
X96926380Y-135063571D02*
X96926380Y-135596904D01*
X96735904Y-134758809D02*
X96545428Y-135330238D01*
X97040666Y-135330238D01*
X103887571Y-120338809D02*
X103963761Y-120376904D01*
X104116142Y-120376904D01*
X104192333Y-120338809D01*
X104230428Y-120262619D01*
X104230428Y-120224523D01*
X104192333Y-120148333D01*
X104116142Y-120110238D01*
X104001857Y-120110238D01*
X103925666Y-120072142D01*
X103887571Y-119995952D01*
X103887571Y-119957857D01*
X103925666Y-119881666D01*
X104001857Y-119843571D01*
X104116142Y-119843571D01*
X104192333Y-119881666D01*
X96507333Y-142416904D02*
X97040666Y-142416904D01*
X96697809Y-143216904D01*
X96507333Y-132256904D02*
X97002571Y-132256904D01*
X96735904Y-132561666D01*
X96850190Y-132561666D01*
X96926380Y-132599761D01*
X96964476Y-132637857D01*
X97002571Y-132714047D01*
X97002571Y-132904523D01*
X96964476Y-132980714D01*
X96926380Y-133018809D01*
X96850190Y-133056904D01*
X96621619Y-133056904D01*
X96545428Y-133018809D01*
X96507333Y-132980714D01*
X123744428Y-143656095D02*
X123782523Y-143618000D01*
X123858714Y-143579904D01*
X124049190Y-143579904D01*
X124125380Y-143618000D01*
X124163476Y-143656095D01*
X124201571Y-143732285D01*
X124201571Y-143808476D01*
X124163476Y-143922761D01*
X123706333Y-144379904D01*
X124201571Y-144379904D01*
X97135904Y-123735000D02*
X96335904Y-123735000D01*
X96716857Y-123087380D02*
X96754952Y-122973095D01*
X96793047Y-122935000D01*
X96869238Y-122896904D01*
X96983523Y-122896904D01*
X97059714Y-122935000D01*
X97097809Y-122973095D01*
X97135904Y-123049285D01*
X97135904Y-123354047D01*
X96335904Y-123354047D01*
X96335904Y-123087380D01*
X96374000Y-123011190D01*
X96412095Y-122973095D01*
X96488285Y-122935000D01*
X96564476Y-122935000D01*
X96640666Y-122973095D01*
X96678761Y-123011190D01*
X96716857Y-123087380D01*
X96716857Y-123354047D01*
X96335904Y-122554047D02*
X96983523Y-122554047D01*
X97059714Y-122515952D01*
X97097809Y-122477857D01*
X97135904Y-122401666D01*
X97135904Y-122249285D01*
X97097809Y-122173095D01*
X97059714Y-122135000D01*
X96983523Y-122096904D01*
X96335904Y-122096904D01*
X97097809Y-121754047D02*
X97135904Y-121639761D01*
X97135904Y-121449285D01*
X97097809Y-121373095D01*
X97059714Y-121335000D01*
X96983523Y-121296904D01*
X96907333Y-121296904D01*
X96831142Y-121335000D01*
X96793047Y-121373095D01*
X96754952Y-121449285D01*
X96716857Y-121601666D01*
X96678761Y-121677857D01*
X96640666Y-121715952D01*
X96564476Y-121754047D01*
X96488285Y-121754047D01*
X96412095Y-121715952D01*
X96374000Y-121677857D01*
X96335904Y-121601666D01*
X96335904Y-121411190D01*
X96374000Y-121296904D01*
X96926380Y-139876904D02*
X96774000Y-139876904D01*
X96697809Y-139915000D01*
X96659714Y-139953095D01*
X96583523Y-140067380D01*
X96545428Y-140219761D01*
X96545428Y-140524523D01*
X96583523Y-140600714D01*
X96621619Y-140638809D01*
X96697809Y-140676904D01*
X96850190Y-140676904D01*
X96926380Y-140638809D01*
X96964476Y-140600714D01*
X97002571Y-140524523D01*
X97002571Y-140334047D01*
X96964476Y-140257857D01*
X96926380Y-140219761D01*
X96850190Y-140181666D01*
X96697809Y-140181666D01*
X96621619Y-140219761D01*
X96583523Y-140257857D01*
X96545428Y-140334047D01*
X113055476Y-151746000D02*
X112979285Y-151707904D01*
X112865000Y-151707904D01*
X112750714Y-151746000D01*
X112674523Y-151822190D01*
X112636428Y-151898380D01*
X112598333Y-152050761D01*
X112598333Y-152165047D01*
X112636428Y-152317428D01*
X112674523Y-152393619D01*
X112750714Y-152469809D01*
X112865000Y-152507904D01*
X112941190Y-152507904D01*
X113055476Y-152469809D01*
X113093571Y-152431714D01*
X113093571Y-152165047D01*
X112941190Y-152165047D01*
X113436428Y-152507904D02*
X113436428Y-151707904D01*
X113893571Y-152507904D01*
X113893571Y-151707904D01*
X114274523Y-152507904D02*
X114274523Y-151707904D01*
X114465000Y-151707904D01*
X114579285Y-151746000D01*
X114655476Y-151822190D01*
X114693571Y-151898380D01*
X114731666Y-152050761D01*
X114731666Y-152165047D01*
X114693571Y-152317428D01*
X114655476Y-152393619D01*
X114579285Y-152469809D01*
X114465000Y-152507904D01*
X114274523Y-152507904D01*
X109161904Y-119703904D02*
X109657142Y-119703904D01*
X109390476Y-120008666D01*
X109504761Y-120008666D01*
X109580952Y-120046761D01*
X109619047Y-120084857D01*
X109657142Y-120161047D01*
X109657142Y-120351523D01*
X109619047Y-120427714D01*
X109580952Y-120465809D01*
X109504761Y-120503904D01*
X109276190Y-120503904D01*
X109200000Y-120465809D01*
X109161904Y-120427714D01*
X110000000Y-120427714D02*
X110038095Y-120465809D01*
X110000000Y-120503904D01*
X109961904Y-120465809D01*
X110000000Y-120427714D01*
X110000000Y-120503904D01*
X110304761Y-119703904D02*
X110800000Y-119703904D01*
X110533333Y-120008666D01*
X110647619Y-120008666D01*
X110723809Y-120046761D01*
X110761904Y-120084857D01*
X110800000Y-120161047D01*
X110800000Y-120351523D01*
X110761904Y-120427714D01*
X110723809Y-120465809D01*
X110647619Y-120503904D01*
X110419047Y-120503904D01*
X110342857Y-120465809D01*
X110304761Y-120427714D01*
X122237809Y-115931904D02*
X122237809Y-115131904D01*
X122542571Y-115131904D01*
X122618761Y-115170000D01*
X122656857Y-115208095D01*
X122694952Y-115284285D01*
X122694952Y-115398571D01*
X122656857Y-115474761D01*
X122618761Y-115512857D01*
X122542571Y-115550952D01*
X122237809Y-115550952D01*
X122961619Y-115131904D02*
X123152095Y-115931904D01*
X123304476Y-115360476D01*
X123456857Y-115931904D01*
X123647333Y-115131904D01*
X124409238Y-115931904D02*
X124142571Y-115550952D01*
X123952095Y-115931904D02*
X123952095Y-115131904D01*
X124256857Y-115131904D01*
X124333047Y-115170000D01*
X124371142Y-115208095D01*
X124409238Y-115284285D01*
X124409238Y-115398571D01*
X124371142Y-115474761D01*
X124333047Y-115512857D01*
X124256857Y-115550952D01*
X123952095Y-115550952D01*
X125285428Y-115131904D02*
X125780666Y-115131904D01*
X125514000Y-115436666D01*
X125628285Y-115436666D01*
X125704476Y-115474761D01*
X125742571Y-115512857D01*
X125780666Y-115589047D01*
X125780666Y-115779523D01*
X125742571Y-115855714D01*
X125704476Y-115893809D01*
X125628285Y-115931904D01*
X125399714Y-115931904D01*
X125323523Y-115893809D01*
X125285428Y-115855714D01*
X126009238Y-115131904D02*
X126275904Y-115931904D01*
X126542571Y-115131904D01*
X126733047Y-115131904D02*
X127228285Y-115131904D01*
X126961619Y-115436666D01*
X127075904Y-115436666D01*
X127152095Y-115474761D01*
X127190190Y-115512857D01*
X127228285Y-115589047D01*
X127228285Y-115779523D01*
X127190190Y-115855714D01*
X127152095Y-115893809D01*
X127075904Y-115931904D01*
X126847333Y-115931904D01*
X126771142Y-115893809D01*
X126733047Y-115855714D01*
X116224238Y-146538904D02*
X116224238Y-145738904D01*
X116224238Y-146043666D02*
X116300428Y-146005571D01*
X116452809Y-146005571D01*
X116529000Y-146043666D01*
X116567095Y-146081761D01*
X116605190Y-146157952D01*
X116605190Y-146386523D01*
X116567095Y-146462714D01*
X116529000Y-146500809D01*
X116452809Y-146538904D01*
X116300428Y-146538904D01*
X116224238Y-146500809D01*
X117062333Y-146538904D02*
X116986142Y-146500809D01*
X116948047Y-146462714D01*
X116909952Y-146386523D01*
X116909952Y-146157952D01*
X116948047Y-146081761D01*
X116986142Y-146043666D01*
X117062333Y-146005571D01*
X117176619Y-146005571D01*
X117252809Y-146043666D01*
X117290904Y-146081761D01*
X117329000Y-146157952D01*
X117329000Y-146386523D01*
X117290904Y-146462714D01*
X117252809Y-146500809D01*
X117176619Y-146538904D01*
X117062333Y-146538904D01*
X117786142Y-146538904D02*
X117709952Y-146500809D01*
X117671857Y-146462714D01*
X117633761Y-146386523D01*
X117633761Y-146157952D01*
X117671857Y-146081761D01*
X117709952Y-146043666D01*
X117786142Y-146005571D01*
X117900428Y-146005571D01*
X117976619Y-146043666D01*
X118014714Y-146081761D01*
X118052809Y-146157952D01*
X118052809Y-146386523D01*
X118014714Y-146462714D01*
X117976619Y-146500809D01*
X117900428Y-146538904D01*
X117786142Y-146538904D01*
X118281380Y-146005571D02*
X118586142Y-146005571D01*
X118395666Y-145738904D02*
X118395666Y-146424619D01*
X118433761Y-146500809D01*
X118509952Y-146538904D01*
X118586142Y-146538904D01*
X119005190Y-145738904D02*
X119081380Y-145738904D01*
X119157571Y-145777000D01*
X119195666Y-145815095D01*
X119233761Y-145891285D01*
X119271857Y-146043666D01*
X119271857Y-146234142D01*
X119233761Y-146386523D01*
X119195666Y-146462714D01*
X119157571Y-146500809D01*
X119081380Y-146538904D01*
X119005190Y-146538904D01*
X118929000Y-146500809D01*
X118890904Y-146462714D01*
X118852809Y-146386523D01*
X118814714Y-146234142D01*
X118814714Y-146043666D01*
X118852809Y-145891285D01*
X118890904Y-145815095D01*
X118929000Y-145777000D01*
X119005190Y-145738904D01*
X96545428Y-129793095D02*
X96583523Y-129755000D01*
X96659714Y-129716904D01*
X96850190Y-129716904D01*
X96926380Y-129755000D01*
X96964476Y-129793095D01*
X97002571Y-129869285D01*
X97002571Y-129945476D01*
X96964476Y-130059761D01*
X96507333Y-130516904D01*
X97002571Y-130516904D01*
X117957571Y-152634904D02*
X117500428Y-152634904D01*
X117729000Y-152634904D02*
X117729000Y-151834904D01*
X117652809Y-151949190D01*
X117576619Y-152025380D01*
X117500428Y-152063476D01*
X110648809Y-152431714D02*
X110610714Y-152469809D01*
X110496428Y-152507904D01*
X110420238Y-152507904D01*
X110305952Y-152469809D01*
X110229761Y-152393619D01*
X110191666Y-152317428D01*
X110153571Y-152165047D01*
X110153571Y-152050761D01*
X110191666Y-151898380D01*
X110229761Y-151822190D01*
X110305952Y-151746000D01*
X110420238Y-151707904D01*
X110496428Y-151707904D01*
X110610714Y-151746000D01*
X110648809Y-151784095D01*
X111372619Y-152507904D02*
X110991666Y-152507904D01*
X110991666Y-151707904D01*
X111639285Y-152507904D02*
X111639285Y-151707904D01*
X112096428Y-152507904D02*
X111753571Y-152050761D01*
X112096428Y-151707904D02*
X111639285Y-152165047D01*
%TO.C,U1*%
X113609476Y-126476904D02*
X113609476Y-127124523D01*
X113647571Y-127200714D01*
X113685666Y-127238809D01*
X113761857Y-127276904D01*
X113914238Y-127276904D01*
X113990428Y-127238809D01*
X114028523Y-127200714D01*
X114066619Y-127124523D01*
X114066619Y-126476904D01*
X114866619Y-127276904D02*
X114409476Y-127276904D01*
X114638047Y-127276904D02*
X114638047Y-126476904D01*
X114561857Y-126591190D01*
X114485666Y-126667380D01*
X114409476Y-126705476D01*
%TO.C,C20*%
X105530714Y-114839714D02*
X105492619Y-114877809D01*
X105378333Y-114915904D01*
X105302142Y-114915904D01*
X105187857Y-114877809D01*
X105111666Y-114801619D01*
X105073571Y-114725428D01*
X105035476Y-114573047D01*
X105035476Y-114458761D01*
X105073571Y-114306380D01*
X105111666Y-114230190D01*
X105187857Y-114154000D01*
X105302142Y-114115904D01*
X105378333Y-114115904D01*
X105492619Y-114154000D01*
X105530714Y-114192095D01*
X105835476Y-114192095D02*
X105873571Y-114154000D01*
X105949761Y-114115904D01*
X106140238Y-114115904D01*
X106216428Y-114154000D01*
X106254523Y-114192095D01*
X106292619Y-114268285D01*
X106292619Y-114344476D01*
X106254523Y-114458761D01*
X105797380Y-114915904D01*
X106292619Y-114915904D01*
X106787857Y-114115904D02*
X106864047Y-114115904D01*
X106940238Y-114154000D01*
X106978333Y-114192095D01*
X107016428Y-114268285D01*
X107054523Y-114420666D01*
X107054523Y-114611142D01*
X107016428Y-114763523D01*
X106978333Y-114839714D01*
X106940238Y-114877809D01*
X106864047Y-114915904D01*
X106787857Y-114915904D01*
X106711666Y-114877809D01*
X106673571Y-114839714D01*
X106635476Y-114763523D01*
X106597380Y-114611142D01*
X106597380Y-114420666D01*
X106635476Y-114268285D01*
X106673571Y-114192095D01*
X106711666Y-114154000D01*
X106787857Y-114115904D01*
%TO.C,U6*%
X117119476Y-102558904D02*
X117119476Y-103206523D01*
X117157571Y-103282714D01*
X117195666Y-103320809D01*
X117271857Y-103358904D01*
X117424238Y-103358904D01*
X117500428Y-103320809D01*
X117538523Y-103282714D01*
X117576619Y-103206523D01*
X117576619Y-102558904D01*
X118300428Y-102558904D02*
X118148047Y-102558904D01*
X118071857Y-102597000D01*
X118033761Y-102635095D01*
X117957571Y-102749380D01*
X117919476Y-102901761D01*
X117919476Y-103206523D01*
X117957571Y-103282714D01*
X117995666Y-103320809D01*
X118071857Y-103358904D01*
X118224238Y-103358904D01*
X118300428Y-103320809D01*
X118338523Y-103282714D01*
X118376619Y-103206523D01*
X118376619Y-103016047D01*
X118338523Y-102939857D01*
X118300428Y-102901761D01*
X118224238Y-102863666D01*
X118071857Y-102863666D01*
X117995666Y-102901761D01*
X117957571Y-102939857D01*
X117919476Y-103016047D01*
%TO.C,C5*%
X153701714Y-135642333D02*
X153739809Y-135680428D01*
X153777904Y-135794714D01*
X153777904Y-135870904D01*
X153739809Y-135985190D01*
X153663619Y-136061380D01*
X153587428Y-136099476D01*
X153435047Y-136137571D01*
X153320761Y-136137571D01*
X153168380Y-136099476D01*
X153092190Y-136061380D01*
X153016000Y-135985190D01*
X152977904Y-135870904D01*
X152977904Y-135794714D01*
X153016000Y-135680428D01*
X153054095Y-135642333D01*
X152977904Y-134918523D02*
X152977904Y-135299476D01*
X153358857Y-135337571D01*
X153320761Y-135299476D01*
X153282666Y-135223285D01*
X153282666Y-135032809D01*
X153320761Y-134956619D01*
X153358857Y-134918523D01*
X153435047Y-134880428D01*
X153625523Y-134880428D01*
X153701714Y-134918523D01*
X153739809Y-134956619D01*
X153777904Y-135032809D01*
X153777904Y-135223285D01*
X153739809Y-135299476D01*
X153701714Y-135337571D01*
%TO.C,D7*%
X119043523Y-117582904D02*
X119043523Y-116782904D01*
X119234000Y-116782904D01*
X119348285Y-116821000D01*
X119424476Y-116897190D01*
X119462571Y-116973380D01*
X119500666Y-117125761D01*
X119500666Y-117240047D01*
X119462571Y-117392428D01*
X119424476Y-117468619D01*
X119348285Y-117544809D01*
X119234000Y-117582904D01*
X119043523Y-117582904D01*
X119767333Y-116782904D02*
X120300666Y-116782904D01*
X119957809Y-117582904D01*
D10*
%TO.C,C4*%
X153249333Y-126595142D02*
X153201714Y-126642761D01*
X153058857Y-126690380D01*
X152963619Y-126690380D01*
X152820761Y-126642761D01*
X152725523Y-126547523D01*
X152677904Y-126452285D01*
X152630285Y-126261809D01*
X152630285Y-126118952D01*
X152677904Y-125928476D01*
X152725523Y-125833238D01*
X152820761Y-125738000D01*
X152963619Y-125690380D01*
X153058857Y-125690380D01*
X153201714Y-125738000D01*
X153249333Y-125785619D01*
X154106476Y-126023714D02*
X154106476Y-126690380D01*
X153868380Y-125642761D02*
X153630285Y-126357047D01*
X154249333Y-126357047D01*
D11*
%TO.C,C15*%
X128570714Y-142779714D02*
X128532619Y-142817809D01*
X128418333Y-142855904D01*
X128342142Y-142855904D01*
X128227857Y-142817809D01*
X128151666Y-142741619D01*
X128113571Y-142665428D01*
X128075476Y-142513047D01*
X128075476Y-142398761D01*
X128113571Y-142246380D01*
X128151666Y-142170190D01*
X128227857Y-142094000D01*
X128342142Y-142055904D01*
X128418333Y-142055904D01*
X128532619Y-142094000D01*
X128570714Y-142132095D01*
X129332619Y-142855904D02*
X128875476Y-142855904D01*
X129104047Y-142855904D02*
X129104047Y-142055904D01*
X129027857Y-142170190D01*
X128951666Y-142246380D01*
X128875476Y-142284476D01*
X130056428Y-142055904D02*
X129675476Y-142055904D01*
X129637380Y-142436857D01*
X129675476Y-142398761D01*
X129751666Y-142360666D01*
X129942142Y-142360666D01*
X130018333Y-142398761D01*
X130056428Y-142436857D01*
X130094523Y-142513047D01*
X130094523Y-142703523D01*
X130056428Y-142779714D01*
X130018333Y-142817809D01*
X129942142Y-142855904D01*
X129751666Y-142855904D01*
X129675476Y-142817809D01*
X129637380Y-142779714D01*
%TO.C,R18*%
X137335904Y-147072035D02*
X136954952Y-147338702D01*
X137335904Y-147529178D02*
X136535904Y-147529178D01*
X136535904Y-147224416D01*
X136574000Y-147148226D01*
X136612095Y-147110130D01*
X136688285Y-147072035D01*
X136802571Y-147072035D01*
X136878761Y-147110130D01*
X136916857Y-147148226D01*
X136954952Y-147224416D01*
X136954952Y-147529178D01*
X137335904Y-146310130D02*
X137335904Y-146767273D01*
X137335904Y-146538702D02*
X136535904Y-146538702D01*
X136650190Y-146614892D01*
X136726380Y-146691083D01*
X136764476Y-146767273D01*
X136878761Y-145852988D02*
X136840666Y-145929178D01*
X136802571Y-145967273D01*
X136726380Y-146005369D01*
X136688285Y-146005369D01*
X136612095Y-145967273D01*
X136574000Y-145929178D01*
X136535904Y-145852988D01*
X136535904Y-145700607D01*
X136574000Y-145624416D01*
X136612095Y-145586321D01*
X136688285Y-145548226D01*
X136726380Y-145548226D01*
X136802571Y-145586321D01*
X136840666Y-145624416D01*
X136878761Y-145700607D01*
X136878761Y-145852988D01*
X136916857Y-145929178D01*
X136954952Y-145967273D01*
X137031142Y-146005369D01*
X137183523Y-146005369D01*
X137259714Y-145967273D01*
X137297809Y-145929178D01*
X137335904Y-145852988D01*
X137335904Y-145700607D01*
X137297809Y-145624416D01*
X137259714Y-145586321D01*
X137183523Y-145548226D01*
X137031142Y-145548226D01*
X136954952Y-145586321D01*
X136916857Y-145624416D01*
X136878761Y-145700607D01*
%TO.C,D2*%
X119995904Y-142576476D02*
X119195904Y-142576476D01*
X119195904Y-142386000D01*
X119234000Y-142271714D01*
X119310190Y-142195523D01*
X119386380Y-142157428D01*
X119538761Y-142119333D01*
X119653047Y-142119333D01*
X119805428Y-142157428D01*
X119881619Y-142195523D01*
X119957809Y-142271714D01*
X119995904Y-142386000D01*
X119995904Y-142576476D01*
X119272095Y-141814571D02*
X119234000Y-141776476D01*
X119195904Y-141700285D01*
X119195904Y-141509809D01*
X119234000Y-141433619D01*
X119272095Y-141395523D01*
X119348285Y-141357428D01*
X119424476Y-141357428D01*
X119538761Y-141395523D01*
X119995904Y-141852666D01*
X119995904Y-141357428D01*
%TO.C,R7*%
X107535666Y-139553904D02*
X107269000Y-139172952D01*
X107078523Y-139553904D02*
X107078523Y-138753904D01*
X107383285Y-138753904D01*
X107459476Y-138792000D01*
X107497571Y-138830095D01*
X107535666Y-138906285D01*
X107535666Y-139020571D01*
X107497571Y-139096761D01*
X107459476Y-139134857D01*
X107383285Y-139172952D01*
X107078523Y-139172952D01*
X107802333Y-138753904D02*
X108335666Y-138753904D01*
X107992809Y-139553904D01*
%TO.C,D4*%
X122599523Y-105009904D02*
X122599523Y-104209904D01*
X122790000Y-104209904D01*
X122904285Y-104248000D01*
X122980476Y-104324190D01*
X123018571Y-104400380D01*
X123056666Y-104552761D01*
X123056666Y-104667047D01*
X123018571Y-104819428D01*
X122980476Y-104895619D01*
X122904285Y-104971809D01*
X122790000Y-105009904D01*
X122599523Y-105009904D01*
X123742380Y-104476571D02*
X123742380Y-105009904D01*
X123551904Y-104171809D02*
X123361428Y-104743238D01*
X123856666Y-104743238D01*
%TO.C,R17*%
X142093904Y-147072035D02*
X141712952Y-147338702D01*
X142093904Y-147529178D02*
X141293904Y-147529178D01*
X141293904Y-147224416D01*
X141332000Y-147148226D01*
X141370095Y-147110130D01*
X141446285Y-147072035D01*
X141560571Y-147072035D01*
X141636761Y-147110130D01*
X141674857Y-147148226D01*
X141712952Y-147224416D01*
X141712952Y-147529178D01*
X142093904Y-146310130D02*
X142093904Y-146767273D01*
X142093904Y-146538702D02*
X141293904Y-146538702D01*
X141408190Y-146614892D01*
X141484380Y-146691083D01*
X141522476Y-146767273D01*
X141293904Y-146043464D02*
X141293904Y-145510130D01*
X142093904Y-145852988D01*
%TO.C,R6*%
X107535666Y-137013904D02*
X107269000Y-136632952D01*
X107078523Y-137013904D02*
X107078523Y-136213904D01*
X107383285Y-136213904D01*
X107459476Y-136252000D01*
X107497571Y-136290095D01*
X107535666Y-136366285D01*
X107535666Y-136480571D01*
X107497571Y-136556761D01*
X107459476Y-136594857D01*
X107383285Y-136632952D01*
X107078523Y-136632952D01*
X108221380Y-136213904D02*
X108069000Y-136213904D01*
X107992809Y-136252000D01*
X107954714Y-136290095D01*
X107878523Y-136404380D01*
X107840428Y-136556761D01*
X107840428Y-136861523D01*
X107878523Y-136937714D01*
X107916619Y-136975809D01*
X107992809Y-137013904D01*
X108145190Y-137013904D01*
X108221380Y-136975809D01*
X108259476Y-136937714D01*
X108297571Y-136861523D01*
X108297571Y-136671047D01*
X108259476Y-136594857D01*
X108221380Y-136556761D01*
X108145190Y-136518666D01*
X107992809Y-136518666D01*
X107916619Y-136556761D01*
X107878523Y-136594857D01*
X107840428Y-136671047D01*
%TO.C,F1*%
X103873333Y-112210857D02*
X103606666Y-112210857D01*
X103606666Y-112629904D02*
X103606666Y-111829904D01*
X103987619Y-111829904D01*
X104711428Y-112629904D02*
X104254285Y-112629904D01*
X104482857Y-112629904D02*
X104482857Y-111829904D01*
X104406666Y-111944190D01*
X104330476Y-112020380D01*
X104254285Y-112058476D01*
%TO.C,C17*%
X137191714Y-117608285D02*
X137229809Y-117646380D01*
X137267904Y-117760666D01*
X137267904Y-117836857D01*
X137229809Y-117951142D01*
X137153619Y-118027333D01*
X137077428Y-118065428D01*
X136925047Y-118103523D01*
X136810761Y-118103523D01*
X136658380Y-118065428D01*
X136582190Y-118027333D01*
X136506000Y-117951142D01*
X136467904Y-117836857D01*
X136467904Y-117760666D01*
X136506000Y-117646380D01*
X136544095Y-117608285D01*
X137267904Y-116846380D02*
X137267904Y-117303523D01*
X137267904Y-117074952D02*
X136467904Y-117074952D01*
X136582190Y-117151142D01*
X136658380Y-117227333D01*
X136696476Y-117303523D01*
X136467904Y-116579714D02*
X136467904Y-116046380D01*
X137267904Y-116389238D01*
%TO.C,U3*%
X151536476Y-131641904D02*
X151536476Y-132289523D01*
X151574571Y-132365714D01*
X151612666Y-132403809D01*
X151688857Y-132441904D01*
X151841238Y-132441904D01*
X151917428Y-132403809D01*
X151955523Y-132365714D01*
X151993619Y-132289523D01*
X151993619Y-131641904D01*
X152298380Y-131641904D02*
X152793619Y-131641904D01*
X152526952Y-131946666D01*
X152641238Y-131946666D01*
X152717428Y-131984761D01*
X152755523Y-132022857D01*
X152793619Y-132099047D01*
X152793619Y-132289523D01*
X152755523Y-132365714D01*
X152717428Y-132403809D01*
X152641238Y-132441904D01*
X152412666Y-132441904D01*
X152336476Y-132403809D01*
X152298380Y-132365714D01*
%TO.C,R3*%
X107535666Y-129393904D02*
X107269000Y-129012952D01*
X107078523Y-129393904D02*
X107078523Y-128593904D01*
X107383285Y-128593904D01*
X107459476Y-128632000D01*
X107497571Y-128670095D01*
X107535666Y-128746285D01*
X107535666Y-128860571D01*
X107497571Y-128936761D01*
X107459476Y-128974857D01*
X107383285Y-129012952D01*
X107078523Y-129012952D01*
X107802333Y-128593904D02*
X108297571Y-128593904D01*
X108030904Y-128898666D01*
X108145190Y-128898666D01*
X108221380Y-128936761D01*
X108259476Y-128974857D01*
X108297571Y-129051047D01*
X108297571Y-129241523D01*
X108259476Y-129317714D01*
X108221380Y-129355809D01*
X108145190Y-129393904D01*
X107916619Y-129393904D01*
X107840428Y-129355809D01*
X107802333Y-129317714D01*
%TO.C,R21*%
X142093904Y-142500285D02*
X141712952Y-142766952D01*
X142093904Y-142957428D02*
X141293904Y-142957428D01*
X141293904Y-142652666D01*
X141332000Y-142576476D01*
X141370095Y-142538380D01*
X141446285Y-142500285D01*
X141560571Y-142500285D01*
X141636761Y-142538380D01*
X141674857Y-142576476D01*
X141712952Y-142652666D01*
X141712952Y-142957428D01*
X141370095Y-142195523D02*
X141332000Y-142157428D01*
X141293904Y-142081238D01*
X141293904Y-141890761D01*
X141332000Y-141814571D01*
X141370095Y-141776476D01*
X141446285Y-141738380D01*
X141522476Y-141738380D01*
X141636761Y-141776476D01*
X142093904Y-142233619D01*
X142093904Y-141738380D01*
X142093904Y-140976476D02*
X142093904Y-141433619D01*
X142093904Y-141205047D02*
X141293904Y-141205047D01*
X141408190Y-141281238D01*
X141484380Y-141357428D01*
X141522476Y-141433619D01*
%TO.C,C14*%
X134486714Y-143033714D02*
X134448619Y-143071809D01*
X134334333Y-143109904D01*
X134258142Y-143109904D01*
X134143857Y-143071809D01*
X134067666Y-142995619D01*
X134029571Y-142919428D01*
X133991476Y-142767047D01*
X133991476Y-142652761D01*
X134029571Y-142500380D01*
X134067666Y-142424190D01*
X134143857Y-142348000D01*
X134258142Y-142309904D01*
X134334333Y-142309904D01*
X134448619Y-142348000D01*
X134486714Y-142386095D01*
X135248619Y-143109904D02*
X134791476Y-143109904D01*
X135020047Y-143109904D02*
X135020047Y-142309904D01*
X134943857Y-142424190D01*
X134867666Y-142500380D01*
X134791476Y-142538476D01*
X135934333Y-142576571D02*
X135934333Y-143109904D01*
X135743857Y-142271809D02*
X135553380Y-142843238D01*
X136048619Y-142843238D01*
%TO.C,D6*%
X112185523Y-103231904D02*
X112185523Y-102431904D01*
X112376000Y-102431904D01*
X112490285Y-102470000D01*
X112566476Y-102546190D01*
X112604571Y-102622380D01*
X112642666Y-102774761D01*
X112642666Y-102889047D01*
X112604571Y-103041428D01*
X112566476Y-103117619D01*
X112490285Y-103193809D01*
X112376000Y-103231904D01*
X112185523Y-103231904D01*
X113328380Y-102431904D02*
X113176000Y-102431904D01*
X113099809Y-102470000D01*
X113061714Y-102508095D01*
X112985523Y-102622380D01*
X112947428Y-102774761D01*
X112947428Y-103079523D01*
X112985523Y-103155714D01*
X113023619Y-103193809D01*
X113099809Y-103231904D01*
X113252190Y-103231904D01*
X113328380Y-103193809D01*
X113366476Y-103155714D01*
X113404571Y-103079523D01*
X113404571Y-102889047D01*
X113366476Y-102812857D01*
X113328380Y-102774761D01*
X113252190Y-102736666D01*
X113099809Y-102736666D01*
X113023619Y-102774761D01*
X112985523Y-102812857D01*
X112947428Y-102889047D01*
D10*
%TO.C,C3*%
X144105333Y-122023142D02*
X144057714Y-122070761D01*
X143914857Y-122118380D01*
X143819619Y-122118380D01*
X143676761Y-122070761D01*
X143581523Y-121975523D01*
X143533904Y-121880285D01*
X143486285Y-121689809D01*
X143486285Y-121546952D01*
X143533904Y-121356476D01*
X143581523Y-121261238D01*
X143676761Y-121166000D01*
X143819619Y-121118380D01*
X143914857Y-121118380D01*
X144057714Y-121166000D01*
X144105333Y-121213619D01*
X144438666Y-121118380D02*
X145057714Y-121118380D01*
X144724380Y-121499333D01*
X144867238Y-121499333D01*
X144962476Y-121546952D01*
X145010095Y-121594571D01*
X145057714Y-121689809D01*
X145057714Y-121927904D01*
X145010095Y-122023142D01*
X144962476Y-122070761D01*
X144867238Y-122118380D01*
X144581523Y-122118380D01*
X144486285Y-122070761D01*
X144438666Y-122023142D01*
D11*
%TO.C,R22*%
X137335904Y-142500285D02*
X136954952Y-142766952D01*
X137335904Y-142957428D02*
X136535904Y-142957428D01*
X136535904Y-142652666D01*
X136574000Y-142576476D01*
X136612095Y-142538380D01*
X136688285Y-142500285D01*
X136802571Y-142500285D01*
X136878761Y-142538380D01*
X136916857Y-142576476D01*
X136954952Y-142652666D01*
X136954952Y-142957428D01*
X136612095Y-142195523D02*
X136574000Y-142157428D01*
X136535904Y-142081238D01*
X136535904Y-141890761D01*
X136574000Y-141814571D01*
X136612095Y-141776476D01*
X136688285Y-141738380D01*
X136764476Y-141738380D01*
X136878761Y-141776476D01*
X137335904Y-142233619D01*
X137335904Y-141738380D01*
X136612095Y-141433619D02*
X136574000Y-141395523D01*
X136535904Y-141319333D01*
X136535904Y-141128857D01*
X136574000Y-141052666D01*
X136612095Y-141014571D01*
X136688285Y-140976476D01*
X136764476Y-140976476D01*
X136878761Y-141014571D01*
X137335904Y-141471714D01*
X137335904Y-140976476D01*
%TO.C,R25*%
X112916904Y-146691285D02*
X112535952Y-146957952D01*
X112916904Y-147148428D02*
X112116904Y-147148428D01*
X112116904Y-146843666D01*
X112155000Y-146767476D01*
X112193095Y-146729380D01*
X112269285Y-146691285D01*
X112383571Y-146691285D01*
X112459761Y-146729380D01*
X112497857Y-146767476D01*
X112535952Y-146843666D01*
X112535952Y-147148428D01*
X112193095Y-146386523D02*
X112155000Y-146348428D01*
X112116904Y-146272238D01*
X112116904Y-146081761D01*
X112155000Y-146005571D01*
X112193095Y-145967476D01*
X112269285Y-145929380D01*
X112345476Y-145929380D01*
X112459761Y-145967476D01*
X112916904Y-146424619D01*
X112916904Y-145929380D01*
X112116904Y-145205571D02*
X112116904Y-145586523D01*
X112497857Y-145624619D01*
X112459761Y-145586523D01*
X112421666Y-145510333D01*
X112421666Y-145319857D01*
X112459761Y-145243666D01*
X112497857Y-145205571D01*
X112574047Y-145167476D01*
X112764523Y-145167476D01*
X112840714Y-145205571D01*
X112878809Y-145243666D01*
X112916904Y-145319857D01*
X112916904Y-145510333D01*
X112878809Y-145586523D01*
X112840714Y-145624619D01*
%TO.C,C13*%
X135883714Y-133741714D02*
X135845619Y-133779809D01*
X135731333Y-133817904D01*
X135655142Y-133817904D01*
X135540857Y-133779809D01*
X135464666Y-133703619D01*
X135426571Y-133627428D01*
X135388476Y-133475047D01*
X135388476Y-133360761D01*
X135426571Y-133208380D01*
X135464666Y-133132190D01*
X135540857Y-133056000D01*
X135655142Y-133017904D01*
X135731333Y-133017904D01*
X135845619Y-133056000D01*
X135883714Y-133094095D01*
X136645619Y-133817904D02*
X136188476Y-133817904D01*
X136417047Y-133817904D02*
X136417047Y-133017904D01*
X136340857Y-133132190D01*
X136264666Y-133208380D01*
X136188476Y-133246476D01*
X136912285Y-133017904D02*
X137407523Y-133017904D01*
X137140857Y-133322666D01*
X137255142Y-133322666D01*
X137331333Y-133360761D01*
X137369428Y-133398857D01*
X137407523Y-133475047D01*
X137407523Y-133665523D01*
X137369428Y-133741714D01*
X137331333Y-133779809D01*
X137255142Y-133817904D01*
X137026571Y-133817904D01*
X136950380Y-133779809D01*
X136912285Y-133741714D01*
%TO.C,C8*%
X137788666Y-131476714D02*
X137750571Y-131514809D01*
X137636285Y-131552904D01*
X137560095Y-131552904D01*
X137445809Y-131514809D01*
X137369619Y-131438619D01*
X137331523Y-131362428D01*
X137293428Y-131210047D01*
X137293428Y-131095761D01*
X137331523Y-130943380D01*
X137369619Y-130867190D01*
X137445809Y-130791000D01*
X137560095Y-130752904D01*
X137636285Y-130752904D01*
X137750571Y-130791000D01*
X137788666Y-130829095D01*
X138245809Y-131095761D02*
X138169619Y-131057666D01*
X138131523Y-131019571D01*
X138093428Y-130943380D01*
X138093428Y-130905285D01*
X138131523Y-130829095D01*
X138169619Y-130791000D01*
X138245809Y-130752904D01*
X138398190Y-130752904D01*
X138474380Y-130791000D01*
X138512476Y-130829095D01*
X138550571Y-130905285D01*
X138550571Y-130943380D01*
X138512476Y-131019571D01*
X138474380Y-131057666D01*
X138398190Y-131095761D01*
X138245809Y-131095761D01*
X138169619Y-131133857D01*
X138131523Y-131171952D01*
X138093428Y-131248142D01*
X138093428Y-131400523D01*
X138131523Y-131476714D01*
X138169619Y-131514809D01*
X138245809Y-131552904D01*
X138398190Y-131552904D01*
X138474380Y-131514809D01*
X138512476Y-131476714D01*
X138550571Y-131400523D01*
X138550571Y-131248142D01*
X138512476Y-131171952D01*
X138474380Y-131133857D01*
X138398190Y-131095761D01*
%TO.C,C16*%
X133921714Y-138662285D02*
X133959809Y-138700380D01*
X133997904Y-138814666D01*
X133997904Y-138890857D01*
X133959809Y-139005142D01*
X133883619Y-139081333D01*
X133807428Y-139119428D01*
X133655047Y-139157523D01*
X133540761Y-139157523D01*
X133388380Y-139119428D01*
X133312190Y-139081333D01*
X133236000Y-139005142D01*
X133197904Y-138890857D01*
X133197904Y-138814666D01*
X133236000Y-138700380D01*
X133274095Y-138662285D01*
X133997904Y-137900380D02*
X133997904Y-138357523D01*
X133997904Y-138128952D02*
X133197904Y-138128952D01*
X133312190Y-138205142D01*
X133388380Y-138281333D01*
X133426476Y-138357523D01*
X133197904Y-137214666D02*
X133197904Y-137367047D01*
X133236000Y-137443238D01*
X133274095Y-137481333D01*
X133388380Y-137557523D01*
X133540761Y-137595619D01*
X133845523Y-137595619D01*
X133921714Y-137557523D01*
X133959809Y-137519428D01*
X133997904Y-137443238D01*
X133997904Y-137290857D01*
X133959809Y-137214666D01*
X133921714Y-137176571D01*
X133845523Y-137138476D01*
X133655047Y-137138476D01*
X133578857Y-137176571D01*
X133540761Y-137214666D01*
X133502666Y-137290857D01*
X133502666Y-137443238D01*
X133540761Y-137519428D01*
X133578857Y-137557523D01*
X133655047Y-137595619D01*
%TO.C,R13*%
X118725904Y-139452285D02*
X118344952Y-139718952D01*
X118725904Y-139909428D02*
X117925904Y-139909428D01*
X117925904Y-139604666D01*
X117964000Y-139528476D01*
X118002095Y-139490380D01*
X118078285Y-139452285D01*
X118192571Y-139452285D01*
X118268761Y-139490380D01*
X118306857Y-139528476D01*
X118344952Y-139604666D01*
X118344952Y-139909428D01*
X118725904Y-138690380D02*
X118725904Y-139147523D01*
X118725904Y-138918952D02*
X117925904Y-138918952D01*
X118040190Y-138995142D01*
X118116380Y-139071333D01*
X118154476Y-139147523D01*
X117925904Y-138423714D02*
X117925904Y-137928476D01*
X118230666Y-138195142D01*
X118230666Y-138080857D01*
X118268761Y-138004666D01*
X118306857Y-137966571D01*
X118383047Y-137928476D01*
X118573523Y-137928476D01*
X118649714Y-137966571D01*
X118687809Y-138004666D01*
X118725904Y-138080857D01*
X118725904Y-138309428D01*
X118687809Y-138385619D01*
X118649714Y-138423714D01*
%TO.C,C18*%
X121405714Y-120046714D02*
X121367619Y-120084809D01*
X121253333Y-120122904D01*
X121177142Y-120122904D01*
X121062857Y-120084809D01*
X120986666Y-120008619D01*
X120948571Y-119932428D01*
X120910476Y-119780047D01*
X120910476Y-119665761D01*
X120948571Y-119513380D01*
X120986666Y-119437190D01*
X121062857Y-119361000D01*
X121177142Y-119322904D01*
X121253333Y-119322904D01*
X121367619Y-119361000D01*
X121405714Y-119399095D01*
X122167619Y-120122904D02*
X121710476Y-120122904D01*
X121939047Y-120122904D02*
X121939047Y-119322904D01*
X121862857Y-119437190D01*
X121786666Y-119513380D01*
X121710476Y-119551476D01*
X122624761Y-119665761D02*
X122548571Y-119627666D01*
X122510476Y-119589571D01*
X122472380Y-119513380D01*
X122472380Y-119475285D01*
X122510476Y-119399095D01*
X122548571Y-119361000D01*
X122624761Y-119322904D01*
X122777142Y-119322904D01*
X122853333Y-119361000D01*
X122891428Y-119399095D01*
X122929523Y-119475285D01*
X122929523Y-119513380D01*
X122891428Y-119589571D01*
X122853333Y-119627666D01*
X122777142Y-119665761D01*
X122624761Y-119665761D01*
X122548571Y-119703857D01*
X122510476Y-119741952D01*
X122472380Y-119818142D01*
X122472380Y-119970523D01*
X122510476Y-120046714D01*
X122548571Y-120084809D01*
X122624761Y-120122904D01*
X122777142Y-120122904D01*
X122853333Y-120084809D01*
X122891428Y-120046714D01*
X122929523Y-119970523D01*
X122929523Y-119818142D01*
X122891428Y-119741952D01*
X122853333Y-119703857D01*
X122777142Y-119665761D01*
%TO.C,R4*%
X107535666Y-131933904D02*
X107269000Y-131552952D01*
X107078523Y-131933904D02*
X107078523Y-131133904D01*
X107383285Y-131133904D01*
X107459476Y-131172000D01*
X107497571Y-131210095D01*
X107535666Y-131286285D01*
X107535666Y-131400571D01*
X107497571Y-131476761D01*
X107459476Y-131514857D01*
X107383285Y-131552952D01*
X107078523Y-131552952D01*
X108221380Y-131400571D02*
X108221380Y-131933904D01*
X108030904Y-131095809D02*
X107840428Y-131667238D01*
X108335666Y-131667238D01*
%TO.C,C1*%
X116960666Y-125253714D02*
X116922571Y-125291809D01*
X116808285Y-125329904D01*
X116732095Y-125329904D01*
X116617809Y-125291809D01*
X116541619Y-125215619D01*
X116503523Y-125139428D01*
X116465428Y-124987047D01*
X116465428Y-124872761D01*
X116503523Y-124720380D01*
X116541619Y-124644190D01*
X116617809Y-124568000D01*
X116732095Y-124529904D01*
X116808285Y-124529904D01*
X116922571Y-124568000D01*
X116960666Y-124606095D01*
X117722571Y-125329904D02*
X117265428Y-125329904D01*
X117494000Y-125329904D02*
X117494000Y-124529904D01*
X117417809Y-124644190D01*
X117341619Y-124720380D01*
X117265428Y-124758476D01*
D10*
%TO.C,U2*%
X146812095Y-127214380D02*
X146812095Y-128023904D01*
X146859714Y-128119142D01*
X146907333Y-128166761D01*
X147002571Y-128214380D01*
X147193047Y-128214380D01*
X147288285Y-128166761D01*
X147335904Y-128119142D01*
X147383523Y-128023904D01*
X147383523Y-127214380D01*
X147812095Y-127309619D02*
X147859714Y-127262000D01*
X147954952Y-127214380D01*
X148193047Y-127214380D01*
X148288285Y-127262000D01*
X148335904Y-127309619D01*
X148383523Y-127404857D01*
X148383523Y-127500095D01*
X148335904Y-127642952D01*
X147764476Y-128214380D01*
X148383523Y-128214380D01*
D11*
%TO.C,R11*%
X121024714Y-124059904D02*
X120758047Y-123678952D01*
X120567571Y-124059904D02*
X120567571Y-123259904D01*
X120872333Y-123259904D01*
X120948523Y-123298000D01*
X120986619Y-123336095D01*
X121024714Y-123412285D01*
X121024714Y-123526571D01*
X120986619Y-123602761D01*
X120948523Y-123640857D01*
X120872333Y-123678952D01*
X120567571Y-123678952D01*
X121786619Y-124059904D02*
X121329476Y-124059904D01*
X121558047Y-124059904D02*
X121558047Y-123259904D01*
X121481857Y-123374190D01*
X121405666Y-123450380D01*
X121329476Y-123488476D01*
X122548523Y-124059904D02*
X122091380Y-124059904D01*
X122319952Y-124059904D02*
X122319952Y-123259904D01*
X122243761Y-123374190D01*
X122167571Y-123450380D01*
X122091380Y-123488476D01*
%TO.C,R20*%
X145580904Y-146968785D02*
X145199952Y-147235452D01*
X145580904Y-147425928D02*
X144780904Y-147425928D01*
X144780904Y-147121166D01*
X144819000Y-147044976D01*
X144857095Y-147006880D01*
X144933285Y-146968785D01*
X145047571Y-146968785D01*
X145123761Y-147006880D01*
X145161857Y-147044976D01*
X145199952Y-147121166D01*
X145199952Y-147425928D01*
X144857095Y-146664023D02*
X144819000Y-146625928D01*
X144780904Y-146549738D01*
X144780904Y-146359261D01*
X144819000Y-146283071D01*
X144857095Y-146244976D01*
X144933285Y-146206880D01*
X145009476Y-146206880D01*
X145123761Y-146244976D01*
X145580904Y-146702119D01*
X145580904Y-146206880D01*
X144780904Y-145711642D02*
X144780904Y-145635452D01*
X144819000Y-145559261D01*
X144857095Y-145521166D01*
X144933285Y-145483071D01*
X145085666Y-145444976D01*
X145276142Y-145444976D01*
X145428523Y-145483071D01*
X145504714Y-145521166D01*
X145542809Y-145559261D01*
X145580904Y-145635452D01*
X145580904Y-145711642D01*
X145542809Y-145787833D01*
X145504714Y-145825928D01*
X145428523Y-145864023D01*
X145276142Y-145902119D01*
X145085666Y-145902119D01*
X144933285Y-145864023D01*
X144857095Y-145825928D01*
X144819000Y-145787833D01*
X144780904Y-145711642D01*
%TO.C,C9*%
X138715714Y-117481333D02*
X138753809Y-117519428D01*
X138791904Y-117633714D01*
X138791904Y-117709904D01*
X138753809Y-117824190D01*
X138677619Y-117900380D01*
X138601428Y-117938476D01*
X138449047Y-117976571D01*
X138334761Y-117976571D01*
X138182380Y-117938476D01*
X138106190Y-117900380D01*
X138030000Y-117824190D01*
X137991904Y-117709904D01*
X137991904Y-117633714D01*
X138030000Y-117519428D01*
X138068095Y-117481333D01*
X138791904Y-117100380D02*
X138791904Y-116948000D01*
X138753809Y-116871809D01*
X138715714Y-116833714D01*
X138601428Y-116757523D01*
X138449047Y-116719428D01*
X138144285Y-116719428D01*
X138068095Y-116757523D01*
X138030000Y-116795619D01*
X137991904Y-116871809D01*
X137991904Y-117024190D01*
X138030000Y-117100380D01*
X138068095Y-117138476D01*
X138144285Y-117176571D01*
X138334761Y-117176571D01*
X138410952Y-117138476D01*
X138449047Y-117100380D01*
X138487142Y-117024190D01*
X138487142Y-116871809D01*
X138449047Y-116795619D01*
X138410952Y-116757523D01*
X138334761Y-116719428D01*
%TO.C,U4*%
X130200476Y-125291904D02*
X130200476Y-125939523D01*
X130238571Y-126015714D01*
X130276666Y-126053809D01*
X130352857Y-126091904D01*
X130505238Y-126091904D01*
X130581428Y-126053809D01*
X130619523Y-126015714D01*
X130657619Y-125939523D01*
X130657619Y-125291904D01*
X131381428Y-125558571D02*
X131381428Y-126091904D01*
X131190952Y-125253809D02*
X131000476Y-125825238D01*
X131495714Y-125825238D01*
%TO.C,R9*%
X119868904Y-144532333D02*
X119487952Y-144799000D01*
X119868904Y-144989476D02*
X119068904Y-144989476D01*
X119068904Y-144684714D01*
X119107000Y-144608523D01*
X119145095Y-144570428D01*
X119221285Y-144532333D01*
X119335571Y-144532333D01*
X119411761Y-144570428D01*
X119449857Y-144608523D01*
X119487952Y-144684714D01*
X119487952Y-144989476D01*
X119868904Y-144151380D02*
X119868904Y-143999000D01*
X119830809Y-143922809D01*
X119792714Y-143884714D01*
X119678428Y-143808523D01*
X119526047Y-143770428D01*
X119221285Y-143770428D01*
X119145095Y-143808523D01*
X119107000Y-143846619D01*
X119068904Y-143922809D01*
X119068904Y-144075190D01*
X119107000Y-144151380D01*
X119145095Y-144189476D01*
X119221285Y-144227571D01*
X119411761Y-144227571D01*
X119487952Y-144189476D01*
X119526047Y-144151380D01*
X119564142Y-144075190D01*
X119564142Y-143922809D01*
X119526047Y-143846619D01*
X119487952Y-143808523D01*
X119411761Y-143770428D01*
%TO.C,R8*%
X107535666Y-142093904D02*
X107269000Y-141712952D01*
X107078523Y-142093904D02*
X107078523Y-141293904D01*
X107383285Y-141293904D01*
X107459476Y-141332000D01*
X107497571Y-141370095D01*
X107535666Y-141446285D01*
X107535666Y-141560571D01*
X107497571Y-141636761D01*
X107459476Y-141674857D01*
X107383285Y-141712952D01*
X107078523Y-141712952D01*
X107992809Y-141636761D02*
X107916619Y-141598666D01*
X107878523Y-141560571D01*
X107840428Y-141484380D01*
X107840428Y-141446285D01*
X107878523Y-141370095D01*
X107916619Y-141332000D01*
X107992809Y-141293904D01*
X108145190Y-141293904D01*
X108221380Y-141332000D01*
X108259476Y-141370095D01*
X108297571Y-141446285D01*
X108297571Y-141484380D01*
X108259476Y-141560571D01*
X108221380Y-141598666D01*
X108145190Y-141636761D01*
X107992809Y-141636761D01*
X107916619Y-141674857D01*
X107878523Y-141712952D01*
X107840428Y-141789142D01*
X107840428Y-141941523D01*
X107878523Y-142017714D01*
X107916619Y-142055809D01*
X107992809Y-142093904D01*
X108145190Y-142093904D01*
X108221380Y-142055809D01*
X108259476Y-142017714D01*
X108297571Y-141941523D01*
X108297571Y-141789142D01*
X108259476Y-141712952D01*
X108221380Y-141674857D01*
X108145190Y-141636761D01*
%TO.C,C7*%
X126142714Y-135515333D02*
X126180809Y-135553428D01*
X126218904Y-135667714D01*
X126218904Y-135743904D01*
X126180809Y-135858190D01*
X126104619Y-135934380D01*
X126028428Y-135972476D01*
X125876047Y-136010571D01*
X125761761Y-136010571D01*
X125609380Y-135972476D01*
X125533190Y-135934380D01*
X125457000Y-135858190D01*
X125418904Y-135743904D01*
X125418904Y-135667714D01*
X125457000Y-135553428D01*
X125495095Y-135515333D01*
X125418904Y-135248666D02*
X125418904Y-134715333D01*
X126218904Y-135058190D01*
%TO.C,D5*%
X98342523Y-109073904D02*
X98342523Y-108273904D01*
X98533000Y-108273904D01*
X98647285Y-108312000D01*
X98723476Y-108388190D01*
X98761571Y-108464380D01*
X98799666Y-108616761D01*
X98799666Y-108731047D01*
X98761571Y-108883428D01*
X98723476Y-108959619D01*
X98647285Y-109035809D01*
X98533000Y-109073904D01*
X98342523Y-109073904D01*
X99523476Y-108273904D02*
X99142523Y-108273904D01*
X99104428Y-108654857D01*
X99142523Y-108616761D01*
X99218714Y-108578666D01*
X99409190Y-108578666D01*
X99485380Y-108616761D01*
X99523476Y-108654857D01*
X99561571Y-108731047D01*
X99561571Y-108921523D01*
X99523476Y-108997714D01*
X99485380Y-109035809D01*
X99409190Y-109073904D01*
X99218714Y-109073904D01*
X99142523Y-109035809D01*
X99104428Y-108997714D01*
%TO.C,R14*%
X119995904Y-139452285D02*
X119614952Y-139718952D01*
X119995904Y-139909428D02*
X119195904Y-139909428D01*
X119195904Y-139604666D01*
X119234000Y-139528476D01*
X119272095Y-139490380D01*
X119348285Y-139452285D01*
X119462571Y-139452285D01*
X119538761Y-139490380D01*
X119576857Y-139528476D01*
X119614952Y-139604666D01*
X119614952Y-139909428D01*
X119995904Y-138690380D02*
X119995904Y-139147523D01*
X119995904Y-138918952D02*
X119195904Y-138918952D01*
X119310190Y-138995142D01*
X119386380Y-139071333D01*
X119424476Y-139147523D01*
X119462571Y-138004666D02*
X119995904Y-138004666D01*
X119157809Y-138195142D02*
X119729238Y-138385619D01*
X119729238Y-137890380D01*
%TO.C,R19*%
X150475904Y-146968785D02*
X150094952Y-147235452D01*
X150475904Y-147425928D02*
X149675904Y-147425928D01*
X149675904Y-147121166D01*
X149714000Y-147044976D01*
X149752095Y-147006880D01*
X149828285Y-146968785D01*
X149942571Y-146968785D01*
X150018761Y-147006880D01*
X150056857Y-147044976D01*
X150094952Y-147121166D01*
X150094952Y-147425928D01*
X150475904Y-146206880D02*
X150475904Y-146664023D01*
X150475904Y-146435452D02*
X149675904Y-146435452D01*
X149790190Y-146511642D01*
X149866380Y-146587833D01*
X149904476Y-146664023D01*
X150475904Y-145825928D02*
X150475904Y-145673547D01*
X150437809Y-145597357D01*
X150399714Y-145559261D01*
X150285428Y-145483071D01*
X150133047Y-145444976D01*
X149828285Y-145444976D01*
X149752095Y-145483071D01*
X149714000Y-145521166D01*
X149675904Y-145597357D01*
X149675904Y-145749738D01*
X149714000Y-145825928D01*
X149752095Y-145864023D01*
X149828285Y-145902119D01*
X150018761Y-145902119D01*
X150094952Y-145864023D01*
X150133047Y-145825928D01*
X150171142Y-145749738D01*
X150171142Y-145597357D01*
X150133047Y-145521166D01*
X150094952Y-145483071D01*
X150018761Y-145444976D01*
%TO.C,C6*%
X124618714Y-135515333D02*
X124656809Y-135553428D01*
X124694904Y-135667714D01*
X124694904Y-135743904D01*
X124656809Y-135858190D01*
X124580619Y-135934380D01*
X124504428Y-135972476D01*
X124352047Y-136010571D01*
X124237761Y-136010571D01*
X124085380Y-135972476D01*
X124009190Y-135934380D01*
X123933000Y-135858190D01*
X123894904Y-135743904D01*
X123894904Y-135667714D01*
X123933000Y-135553428D01*
X123971095Y-135515333D01*
X123894904Y-134829619D02*
X123894904Y-134982000D01*
X123933000Y-135058190D01*
X123971095Y-135096285D01*
X124085380Y-135172476D01*
X124237761Y-135210571D01*
X124542523Y-135210571D01*
X124618714Y-135172476D01*
X124656809Y-135134380D01*
X124694904Y-135058190D01*
X124694904Y-134905809D01*
X124656809Y-134829619D01*
X124618714Y-134791523D01*
X124542523Y-134753428D01*
X124352047Y-134753428D01*
X124275857Y-134791523D01*
X124237761Y-134829619D01*
X124199666Y-134905809D01*
X124199666Y-135058190D01*
X124237761Y-135134380D01*
X124275857Y-135172476D01*
X124352047Y-135210571D01*
%TO.C,R12*%
X121024714Y-123043904D02*
X120758047Y-122662952D01*
X120567571Y-123043904D02*
X120567571Y-122243904D01*
X120872333Y-122243904D01*
X120948523Y-122282000D01*
X120986619Y-122320095D01*
X121024714Y-122396285D01*
X121024714Y-122510571D01*
X120986619Y-122586761D01*
X120948523Y-122624857D01*
X120872333Y-122662952D01*
X120567571Y-122662952D01*
X121786619Y-123043904D02*
X121329476Y-123043904D01*
X121558047Y-123043904D02*
X121558047Y-122243904D01*
X121481857Y-122358190D01*
X121405666Y-122434380D01*
X121329476Y-122472476D01*
X122091380Y-122320095D02*
X122129476Y-122282000D01*
X122205666Y-122243904D01*
X122396142Y-122243904D01*
X122472333Y-122282000D01*
X122510428Y-122320095D01*
X122548523Y-122396285D01*
X122548523Y-122472476D01*
X122510428Y-122586761D01*
X122053285Y-123043904D01*
X122548523Y-123043904D01*
%TO.C,R1*%
X107562666Y-124059904D02*
X107296000Y-123678952D01*
X107105523Y-124059904D02*
X107105523Y-123259904D01*
X107410285Y-123259904D01*
X107486476Y-123298000D01*
X107524571Y-123336095D01*
X107562666Y-123412285D01*
X107562666Y-123526571D01*
X107524571Y-123602761D01*
X107486476Y-123640857D01*
X107410285Y-123678952D01*
X107105523Y-123678952D01*
X108324571Y-124059904D02*
X107867428Y-124059904D01*
X108096000Y-124059904D02*
X108096000Y-123259904D01*
X108019809Y-123374190D01*
X107943619Y-123450380D01*
X107867428Y-123488476D01*
%TO.C,D1*%
X118725904Y-142576476D02*
X117925904Y-142576476D01*
X117925904Y-142386000D01*
X117964000Y-142271714D01*
X118040190Y-142195523D01*
X118116380Y-142157428D01*
X118268761Y-142119333D01*
X118383047Y-142119333D01*
X118535428Y-142157428D01*
X118611619Y-142195523D01*
X118687809Y-142271714D01*
X118725904Y-142386000D01*
X118725904Y-142576476D01*
X118725904Y-141357428D02*
X118725904Y-141814571D01*
X118725904Y-141586000D02*
X117925904Y-141586000D01*
X118040190Y-141662190D01*
X118116380Y-141738380D01*
X118154476Y-141814571D01*
%TO.C,C19*%
X108578714Y-106330714D02*
X108540619Y-106368809D01*
X108426333Y-106406904D01*
X108350142Y-106406904D01*
X108235857Y-106368809D01*
X108159666Y-106292619D01*
X108121571Y-106216428D01*
X108083476Y-106064047D01*
X108083476Y-105949761D01*
X108121571Y-105797380D01*
X108159666Y-105721190D01*
X108235857Y-105645000D01*
X108350142Y-105606904D01*
X108426333Y-105606904D01*
X108540619Y-105645000D01*
X108578714Y-105683095D01*
X109340619Y-106406904D02*
X108883476Y-106406904D01*
X109112047Y-106406904D02*
X109112047Y-105606904D01*
X109035857Y-105721190D01*
X108959666Y-105797380D01*
X108883476Y-105835476D01*
X109721571Y-106406904D02*
X109873952Y-106406904D01*
X109950142Y-106368809D01*
X109988238Y-106330714D01*
X110064428Y-106216428D01*
X110102523Y-106064047D01*
X110102523Y-105759285D01*
X110064428Y-105683095D01*
X110026333Y-105645000D01*
X109950142Y-105606904D01*
X109797761Y-105606904D01*
X109721571Y-105645000D01*
X109683476Y-105683095D01*
X109645380Y-105759285D01*
X109645380Y-105949761D01*
X109683476Y-106025952D01*
X109721571Y-106064047D01*
X109797761Y-106102142D01*
X109950142Y-106102142D01*
X110026333Y-106064047D01*
X110064428Y-106025952D01*
X110102523Y-105949761D01*
%TO.C,R15*%
X121265904Y-139452285D02*
X120884952Y-139718952D01*
X121265904Y-139909428D02*
X120465904Y-139909428D01*
X120465904Y-139604666D01*
X120504000Y-139528476D01*
X120542095Y-139490380D01*
X120618285Y-139452285D01*
X120732571Y-139452285D01*
X120808761Y-139490380D01*
X120846857Y-139528476D01*
X120884952Y-139604666D01*
X120884952Y-139909428D01*
X121265904Y-138690380D02*
X121265904Y-139147523D01*
X121265904Y-138918952D02*
X120465904Y-138918952D01*
X120580190Y-138995142D01*
X120656380Y-139071333D01*
X120694476Y-139147523D01*
X120465904Y-137966571D02*
X120465904Y-138347523D01*
X120846857Y-138385619D01*
X120808761Y-138347523D01*
X120770666Y-138271333D01*
X120770666Y-138080857D01*
X120808761Y-138004666D01*
X120846857Y-137966571D01*
X120923047Y-137928476D01*
X121113523Y-137928476D01*
X121189714Y-137966571D01*
X121227809Y-138004666D01*
X121265904Y-138080857D01*
X121265904Y-138271333D01*
X121227809Y-138347523D01*
X121189714Y-138385619D01*
%TO.C,C11*%
X121697714Y-129927285D02*
X121735809Y-129965380D01*
X121773904Y-130079666D01*
X121773904Y-130155857D01*
X121735809Y-130270142D01*
X121659619Y-130346333D01*
X121583428Y-130384428D01*
X121431047Y-130422523D01*
X121316761Y-130422523D01*
X121164380Y-130384428D01*
X121088190Y-130346333D01*
X121012000Y-130270142D01*
X120973904Y-130155857D01*
X120973904Y-130079666D01*
X121012000Y-129965380D01*
X121050095Y-129927285D01*
X121773904Y-129165380D02*
X121773904Y-129622523D01*
X121773904Y-129393952D02*
X120973904Y-129393952D01*
X121088190Y-129470142D01*
X121164380Y-129546333D01*
X121202476Y-129622523D01*
X121773904Y-128403476D02*
X121773904Y-128860619D01*
X121773904Y-128632047D02*
X120973904Y-128632047D01*
X121088190Y-128708238D01*
X121164380Y-128784428D01*
X121202476Y-128860619D01*
%TO.C,R10*%
X129393904Y-135134285D02*
X129012952Y-135400952D01*
X129393904Y-135591428D02*
X128593904Y-135591428D01*
X128593904Y-135286666D01*
X128632000Y-135210476D01*
X128670095Y-135172380D01*
X128746285Y-135134285D01*
X128860571Y-135134285D01*
X128936761Y-135172380D01*
X128974857Y-135210476D01*
X129012952Y-135286666D01*
X129012952Y-135591428D01*
X129393904Y-134372380D02*
X129393904Y-134829523D01*
X129393904Y-134600952D02*
X128593904Y-134600952D01*
X128708190Y-134677142D01*
X128784380Y-134753333D01*
X128822476Y-134829523D01*
X128593904Y-133877142D02*
X128593904Y-133800952D01*
X128632000Y-133724761D01*
X128670095Y-133686666D01*
X128746285Y-133648571D01*
X128898666Y-133610476D01*
X129089142Y-133610476D01*
X129241523Y-133648571D01*
X129317714Y-133686666D01*
X129355809Y-133724761D01*
X129393904Y-133800952D01*
X129393904Y-133877142D01*
X129355809Y-133953333D01*
X129317714Y-133991428D01*
X129241523Y-134029523D01*
X129089142Y-134067619D01*
X128898666Y-134067619D01*
X128746285Y-134029523D01*
X128670095Y-133991428D01*
X128632000Y-133953333D01*
X128593904Y-133877142D01*
%TO.C,Y1*%
X131953047Y-141204952D02*
X131953047Y-141585904D01*
X131686380Y-140785904D02*
X131953047Y-141204952D01*
X132219714Y-140785904D01*
X132905428Y-141585904D02*
X132448285Y-141585904D01*
X132676857Y-141585904D02*
X132676857Y-140785904D01*
X132600666Y-140900190D01*
X132524476Y-140976380D01*
X132448285Y-141014476D01*
%TO.C,C10*%
X121405714Y-118522714D02*
X121367619Y-118560809D01*
X121253333Y-118598904D01*
X121177142Y-118598904D01*
X121062857Y-118560809D01*
X120986666Y-118484619D01*
X120948571Y-118408428D01*
X120910476Y-118256047D01*
X120910476Y-118141761D01*
X120948571Y-117989380D01*
X120986666Y-117913190D01*
X121062857Y-117837000D01*
X121177142Y-117798904D01*
X121253333Y-117798904D01*
X121367619Y-117837000D01*
X121405714Y-117875095D01*
X122167619Y-118598904D02*
X121710476Y-118598904D01*
X121939047Y-118598904D02*
X121939047Y-117798904D01*
X121862857Y-117913190D01*
X121786666Y-117989380D01*
X121710476Y-118027476D01*
X122662857Y-117798904D02*
X122739047Y-117798904D01*
X122815238Y-117837000D01*
X122853333Y-117875095D01*
X122891428Y-117951285D01*
X122929523Y-118103666D01*
X122929523Y-118294142D01*
X122891428Y-118446523D01*
X122853333Y-118522714D01*
X122815238Y-118560809D01*
X122739047Y-118598904D01*
X122662857Y-118598904D01*
X122586666Y-118560809D01*
X122548571Y-118522714D01*
X122510476Y-118446523D01*
X122472380Y-118294142D01*
X122472380Y-118103666D01*
X122510476Y-117951285D01*
X122548571Y-117875095D01*
X122586666Y-117837000D01*
X122662857Y-117798904D01*
%TO.C,D3*%
X121265904Y-142576476D02*
X120465904Y-142576476D01*
X120465904Y-142386000D01*
X120504000Y-142271714D01*
X120580190Y-142195523D01*
X120656380Y-142157428D01*
X120808761Y-142119333D01*
X120923047Y-142119333D01*
X121075428Y-142157428D01*
X121151619Y-142195523D01*
X121227809Y-142271714D01*
X121265904Y-142386000D01*
X121265904Y-142576476D01*
X120465904Y-141852666D02*
X120465904Y-141357428D01*
X120770666Y-141624095D01*
X120770666Y-141509809D01*
X120808761Y-141433619D01*
X120846857Y-141395523D01*
X120923047Y-141357428D01*
X121113523Y-141357428D01*
X121189714Y-141395523D01*
X121227809Y-141433619D01*
X121265904Y-141509809D01*
X121265904Y-141738380D01*
X121227809Y-141814571D01*
X121189714Y-141852666D01*
%TO.C,C12*%
X135883714Y-135159714D02*
X135845619Y-135197809D01*
X135731333Y-135235904D01*
X135655142Y-135235904D01*
X135540857Y-135197809D01*
X135464666Y-135121619D01*
X135426571Y-135045428D01*
X135388476Y-134893047D01*
X135388476Y-134778761D01*
X135426571Y-134626380D01*
X135464666Y-134550190D01*
X135540857Y-134474000D01*
X135655142Y-134435904D01*
X135731333Y-134435904D01*
X135845619Y-134474000D01*
X135883714Y-134512095D01*
X136645619Y-135235904D02*
X136188476Y-135235904D01*
X136417047Y-135235904D02*
X136417047Y-134435904D01*
X136340857Y-134550190D01*
X136264666Y-134626380D01*
X136188476Y-134664476D01*
X136950380Y-134512095D02*
X136988476Y-134474000D01*
X137064666Y-134435904D01*
X137255142Y-134435904D01*
X137331333Y-134474000D01*
X137369428Y-134512095D01*
X137407523Y-134588285D01*
X137407523Y-134664476D01*
X137369428Y-134778761D01*
X136912285Y-135235904D01*
X137407523Y-135235904D01*
%TO.C,R5*%
X107535666Y-134473904D02*
X107269000Y-134092952D01*
X107078523Y-134473904D02*
X107078523Y-133673904D01*
X107383285Y-133673904D01*
X107459476Y-133712000D01*
X107497571Y-133750095D01*
X107535666Y-133826285D01*
X107535666Y-133940571D01*
X107497571Y-134016761D01*
X107459476Y-134054857D01*
X107383285Y-134092952D01*
X107078523Y-134092952D01*
X108259476Y-133673904D02*
X107878523Y-133673904D01*
X107840428Y-134054857D01*
X107878523Y-134016761D01*
X107954714Y-133978666D01*
X108145190Y-133978666D01*
X108221380Y-134016761D01*
X108259476Y-134054857D01*
X108297571Y-134131047D01*
X108297571Y-134321523D01*
X108259476Y-134397714D01*
X108221380Y-134435809D01*
X108145190Y-134473904D01*
X107954714Y-134473904D01*
X107878523Y-134435809D01*
X107840428Y-134397714D01*
D10*
%TO.C,C2*%
X151217333Y-128881142D02*
X151169714Y-128928761D01*
X151026857Y-128976380D01*
X150931619Y-128976380D01*
X150788761Y-128928761D01*
X150693523Y-128833523D01*
X150645904Y-128738285D01*
X150598285Y-128547809D01*
X150598285Y-128404952D01*
X150645904Y-128214476D01*
X150693523Y-128119238D01*
X150788761Y-128024000D01*
X150931619Y-127976380D01*
X151026857Y-127976380D01*
X151169714Y-128024000D01*
X151217333Y-128071619D01*
X151598285Y-128071619D02*
X151645904Y-128024000D01*
X151741142Y-127976380D01*
X151979238Y-127976380D01*
X152074476Y-128024000D01*
X152122095Y-128071619D01*
X152169714Y-128166857D01*
X152169714Y-128262095D01*
X152122095Y-128404952D01*
X151550666Y-128976380D01*
X152169714Y-128976380D01*
D11*
%TO.C,R2*%
X107535666Y-126853904D02*
X107269000Y-126472952D01*
X107078523Y-126853904D02*
X107078523Y-126053904D01*
X107383285Y-126053904D01*
X107459476Y-126092000D01*
X107497571Y-126130095D01*
X107535666Y-126206285D01*
X107535666Y-126320571D01*
X107497571Y-126396761D01*
X107459476Y-126434857D01*
X107383285Y-126472952D01*
X107078523Y-126472952D01*
X107840428Y-126130095D02*
X107878523Y-126092000D01*
X107954714Y-126053904D01*
X108145190Y-126053904D01*
X108221380Y-126092000D01*
X108259476Y-126130095D01*
X108297571Y-126206285D01*
X108297571Y-126282476D01*
X108259476Y-126396761D01*
X107802333Y-126853904D01*
X108297571Y-126853904D01*
%TO.C,R24*%
X107549904Y-146691285D02*
X107168952Y-146957952D01*
X107549904Y-147148428D02*
X106749904Y-147148428D01*
X106749904Y-146843666D01*
X106788000Y-146767476D01*
X106826095Y-146729380D01*
X106902285Y-146691285D01*
X107016571Y-146691285D01*
X107092761Y-146729380D01*
X107130857Y-146767476D01*
X107168952Y-146843666D01*
X107168952Y-147148428D01*
X106826095Y-146386523D02*
X106788000Y-146348428D01*
X106749904Y-146272238D01*
X106749904Y-146081761D01*
X106788000Y-146005571D01*
X106826095Y-145967476D01*
X106902285Y-145929380D01*
X106978476Y-145929380D01*
X107092761Y-145967476D01*
X107549904Y-146424619D01*
X107549904Y-145929380D01*
X107016571Y-145243666D02*
X107549904Y-145243666D01*
X106711809Y-145434142D02*
X107283238Y-145624619D01*
X107283238Y-145129380D01*
%TO.C,U5*%
X118008476Y-108527904D02*
X118008476Y-109175523D01*
X118046571Y-109251714D01*
X118084666Y-109289809D01*
X118160857Y-109327904D01*
X118313238Y-109327904D01*
X118389428Y-109289809D01*
X118427523Y-109251714D01*
X118465619Y-109175523D01*
X118465619Y-108527904D01*
X119227523Y-108527904D02*
X118846571Y-108527904D01*
X118808476Y-108908857D01*
X118846571Y-108870761D01*
X118922761Y-108832666D01*
X119113238Y-108832666D01*
X119189428Y-108870761D01*
X119227523Y-108908857D01*
X119265619Y-108985047D01*
X119265619Y-109175523D01*
X119227523Y-109251714D01*
X119189428Y-109289809D01*
X119113238Y-109327904D01*
X118922761Y-109327904D01*
X118846571Y-109289809D01*
X118808476Y-109251714D01*
%TO.C,R16*%
X122548714Y-112121904D02*
X122282047Y-111740952D01*
X122091571Y-112121904D02*
X122091571Y-111321904D01*
X122396333Y-111321904D01*
X122472523Y-111360000D01*
X122510619Y-111398095D01*
X122548714Y-111474285D01*
X122548714Y-111588571D01*
X122510619Y-111664761D01*
X122472523Y-111702857D01*
X122396333Y-111740952D01*
X122091571Y-111740952D01*
X123310619Y-112121904D02*
X122853476Y-112121904D01*
X123082047Y-112121904D02*
X123082047Y-111321904D01*
X123005857Y-111436190D01*
X122929666Y-111512380D01*
X122853476Y-111550476D01*
X123996333Y-111321904D02*
X123843952Y-111321904D01*
X123767761Y-111360000D01*
X123729666Y-111398095D01*
X123653476Y-111512380D01*
X123615380Y-111664761D01*
X123615380Y-111969523D01*
X123653476Y-112045714D01*
X123691571Y-112083809D01*
X123767761Y-112121904D01*
X123920142Y-112121904D01*
X123996333Y-112083809D01*
X124034428Y-112045714D01*
X124072523Y-111969523D01*
X124072523Y-111779047D01*
X124034428Y-111702857D01*
X123996333Y-111664761D01*
X123920142Y-111626666D01*
X123767761Y-111626666D01*
X123691571Y-111664761D01*
X123653476Y-111702857D01*
X123615380Y-111779047D01*
D12*
%TO.C,U1*%
X111909000Y-128030000D02*
X110619000Y-128030000D01*
X116529000Y-127755000D02*
X116529000Y-128030000D01*
X114219000Y-127755000D02*
X116529000Y-127755000D01*
X111909000Y-127755000D02*
X111909000Y-128030000D01*
X111909000Y-137675000D02*
X111909000Y-137400000D01*
X114219000Y-127755000D02*
X111909000Y-127755000D01*
X114219000Y-137675000D02*
X116529000Y-137675000D01*
X116529000Y-137675000D02*
X116529000Y-137400000D01*
X114219000Y-137675000D02*
X111909000Y-137675000D01*
%TO.C,C20*%
X108368752Y-111943000D02*
X106946248Y-111943000D01*
X108368752Y-113763000D02*
X106946248Y-113763000D01*
%TO.C,U6*%
X121870000Y-104107500D02*
X121870000Y-104907500D01*
X121870000Y-104107500D02*
X121870000Y-102307500D01*
X118750000Y-104107500D02*
X118750000Y-103307500D01*
X118750000Y-104107500D02*
X118750000Y-104907500D01*
%TO.C,C5*%
X152402000Y-134671233D02*
X152402000Y-134963767D01*
X151382000Y-134671233D02*
X151382000Y-134963767D01*
%TO.C,D7*%
X121893000Y-114164000D02*
X120423000Y-114164000D01*
X121893000Y-116624000D02*
X121893000Y-114164000D01*
X120423000Y-114164000D02*
X120423000Y-116624000D01*
%TO.C,G\u002A\u002A\u002A*%
G36*
X150157599Y-107640840D02*
G01*
X150220063Y-107640888D01*
X150276666Y-107640982D01*
X150326399Y-107641126D01*
X150368252Y-107641320D01*
X150401215Y-107641568D01*
X150424278Y-107641870D01*
X150436430Y-107642231D01*
X150436732Y-107642250D01*
X150466247Y-107644510D01*
X150486442Y-107647018D01*
X150500303Y-107650562D01*
X150510815Y-107655929D01*
X150520965Y-107663906D01*
X150521860Y-107664688D01*
X150542573Y-107690617D01*
X150554254Y-107722396D01*
X150556710Y-107757290D01*
X150549746Y-107792567D01*
X150533293Y-107825313D01*
X150528201Y-107832945D01*
X150523655Y-107839614D01*
X150518839Y-107845395D01*
X150512933Y-107850361D01*
X150505119Y-107854584D01*
X150494578Y-107858139D01*
X150480490Y-107861099D01*
X150462039Y-107863537D01*
X150438404Y-107865527D01*
X150408767Y-107867143D01*
X150372310Y-107868457D01*
X150328214Y-107869544D01*
X150275660Y-107870477D01*
X150213829Y-107871329D01*
X150141903Y-107872174D01*
X150059063Y-107873085D01*
X149992845Y-107873816D01*
X149912677Y-107874716D01*
X149833296Y-107875613D01*
X149755979Y-107876491D01*
X149682003Y-107877336D01*
X149612643Y-107878133D01*
X149549178Y-107878868D01*
X149492883Y-107879525D01*
X149445034Y-107880091D01*
X149406910Y-107880550D01*
X149379785Y-107880887D01*
X149379118Y-107880896D01*
X149339151Y-107881233D01*
X149301852Y-107881221D01*
X149269545Y-107880885D01*
X149244556Y-107880251D01*
X149229207Y-107879346D01*
X149227874Y-107879188D01*
X149191397Y-107869064D01*
X149161095Y-107850575D01*
X149137659Y-107825639D01*
X149121781Y-107796171D01*
X149114152Y-107764087D01*
X149115461Y-107731302D01*
X149126402Y-107699732D01*
X149147663Y-107671294D01*
X149151560Y-107667620D01*
X149165474Y-107655216D01*
X149175068Y-107646976D01*
X149177677Y-107645006D01*
X149185251Y-107644600D01*
X149204133Y-107644204D01*
X149233313Y-107643819D01*
X149271781Y-107643447D01*
X149318528Y-107643091D01*
X149372543Y-107642753D01*
X149432818Y-107642434D01*
X149498340Y-107642138D01*
X149568102Y-107641867D01*
X149641092Y-107641622D01*
X149716301Y-107641406D01*
X149792720Y-107641221D01*
X149869337Y-107641069D01*
X149945143Y-107640953D01*
X150019129Y-107640875D01*
X150090284Y-107640836D01*
X150157599Y-107640840D01*
G37*
G36*
X150787765Y-114051701D02*
G01*
X150792780Y-114060049D01*
X150789118Y-114067046D01*
X150779157Y-114074846D01*
X150772694Y-114071852D01*
X150771319Y-114064175D01*
X150774106Y-114050881D01*
X150781699Y-114048161D01*
X150787765Y-114051701D01*
G37*
G36*
X148947294Y-114061480D02*
G01*
X148948234Y-114070335D01*
X148945158Y-114080237D01*
X148937267Y-114079558D01*
X148930435Y-114073205D01*
X148926965Y-114064027D01*
X148931788Y-114057860D01*
X148941614Y-114054133D01*
X148947294Y-114061480D01*
G37*
G36*
X150395343Y-115362543D02*
G01*
X150415488Y-115288289D01*
X150446184Y-115215824D01*
X150486943Y-115146653D01*
X150521240Y-115100952D01*
X150536485Y-115082475D01*
X150267420Y-115082138D01*
X150210774Y-115082029D01*
X150143945Y-115081835D01*
X150069067Y-115081566D01*
X149988274Y-115081232D01*
X149903701Y-115080842D01*
X149817483Y-115080406D01*
X149731754Y-115079934D01*
X149648649Y-115079435D01*
X149590717Y-115079059D01*
X149183078Y-115076316D01*
X149198318Y-115094793D01*
X149245854Y-115160795D01*
X149283658Y-115231133D01*
X149311246Y-115304304D01*
X149328129Y-115378810D01*
X149333824Y-115453149D01*
X149330898Y-115504239D01*
X149323678Y-115556022D01*
X149314336Y-115600151D01*
X149301534Y-115641262D01*
X149283932Y-115683996D01*
X149271315Y-115710700D01*
X149229231Y-115783799D01*
X149178870Y-115847806D01*
X149120183Y-115902762D01*
X149053117Y-115948710D01*
X148977623Y-115985689D01*
X148895882Y-116013140D01*
X148876440Y-116017722D01*
X148855690Y-116020964D01*
X148831086Y-116023059D01*
X148800082Y-116024200D01*
X148760134Y-116024579D01*
X148744985Y-116024571D01*
X148704145Y-116024310D01*
X148672770Y-116023547D01*
X148648007Y-116022001D01*
X148627004Y-116019391D01*
X148606910Y-116015434D01*
X148584873Y-116009851D01*
X148578690Y-116008157D01*
X148532794Y-115994824D01*
X148495492Y-115982230D01*
X148463261Y-115968894D01*
X148432580Y-115953334D01*
X148399925Y-115934068D01*
X148394449Y-115930648D01*
X148349244Y-115900904D01*
X148313219Y-115873543D01*
X148284205Y-115846161D01*
X148260034Y-115816348D01*
X148238536Y-115781699D01*
X148217545Y-115739807D01*
X148212455Y-115728659D01*
X148186450Y-115670925D01*
X148153145Y-115711977D01*
X148100745Y-115767071D01*
X148040753Y-115813553D01*
X147974530Y-115851269D01*
X147903438Y-115880067D01*
X147828839Y-115899792D01*
X147752096Y-115910292D01*
X147674570Y-115911413D01*
X147597623Y-115903001D01*
X147522619Y-115884903D01*
X147450918Y-115856965D01*
X147383882Y-115819034D01*
X147359195Y-115801422D01*
X147321185Y-115769587D01*
X147283223Y-115732541D01*
X147248244Y-115693475D01*
X147219185Y-115655580D01*
X147205895Y-115634871D01*
X147180069Y-115586947D01*
X147160458Y-115541123D01*
X147145913Y-115493727D01*
X147135283Y-115441088D01*
X147128157Y-115386588D01*
X147124458Y-115351952D01*
X147083230Y-115379768D01*
X147056535Y-115396898D01*
X147030211Y-115411603D01*
X147001488Y-115425146D01*
X146967594Y-115438786D01*
X146925758Y-115453783D01*
X146904641Y-115460961D01*
X146840983Y-115480590D01*
X146783576Y-115494159D01*
X146728379Y-115502371D01*
X146671348Y-115505931D01*
X146644743Y-115506204D01*
X146559736Y-115501240D01*
X146478524Y-115487194D01*
X146402778Y-115464521D01*
X146334169Y-115433679D01*
X146296824Y-115411241D01*
X146245854Y-115371272D01*
X146200211Y-115323899D01*
X146161623Y-115271458D01*
X146131816Y-115216283D01*
X146112971Y-115162543D01*
X146100504Y-115088379D01*
X146100026Y-115050742D01*
X146264037Y-115050742D01*
X146264548Y-115060918D01*
X146274153Y-115113852D01*
X146294876Y-115163102D01*
X146325889Y-115207990D01*
X146366365Y-115247842D01*
X146415476Y-115281981D01*
X146472394Y-115309731D01*
X146536292Y-115330416D01*
X146606343Y-115343360D01*
X146610952Y-115343902D01*
X146674200Y-115346520D01*
X146743890Y-115341342D01*
X146817473Y-115328989D01*
X146892400Y-115310086D01*
X146966121Y-115285255D01*
X147036086Y-115255119D01*
X147088181Y-115227292D01*
X147111181Y-115214119D01*
X147130565Y-115203747D01*
X147143684Y-115197554D01*
X147147478Y-115196418D01*
X147156895Y-115192137D01*
X147162104Y-115187179D01*
X147174168Y-115179794D01*
X147189750Y-115178119D01*
X147203572Y-115181982D01*
X147209731Y-115188719D01*
X147217788Y-115201396D01*
X147224990Y-115208736D01*
X147230502Y-115216052D01*
X147234855Y-115229037D01*
X147238532Y-115249806D01*
X147242014Y-115280474D01*
X147242517Y-115285724D01*
X147253677Y-115365805D01*
X147271499Y-115436908D01*
X147296612Y-115500797D01*
X147329646Y-115559233D01*
X147350538Y-115588541D01*
X147398661Y-115642309D01*
X147454305Y-115687263D01*
X147516251Y-115723305D01*
X147564394Y-115745127D01*
X147607530Y-115759801D01*
X147649854Y-115768367D01*
X147695563Y-115771862D01*
X147713341Y-115772080D01*
X147783210Y-115765911D01*
X147851314Y-115747716D01*
X147916979Y-115717742D01*
X147979533Y-115676233D01*
X147981911Y-115674374D01*
X148002466Y-115655572D01*
X148026683Y-115629353D01*
X148052213Y-115598705D01*
X148076712Y-115566615D01*
X148097832Y-115536069D01*
X148113226Y-115510055D01*
X148116760Y-115502726D01*
X148133920Y-115473902D01*
X148154662Y-115456796D01*
X148178881Y-115451462D01*
X148205905Y-115457714D01*
X148220520Y-115466301D01*
X148232100Y-115480081D01*
X148242911Y-115500931D01*
X148254791Y-115527149D01*
X148267851Y-115555954D01*
X148274242Y-115570046D01*
X148313216Y-115641853D01*
X148360841Y-115705154D01*
X148416465Y-115759461D01*
X148479437Y-115804285D01*
X148549108Y-115839139D01*
X148624824Y-115863535D01*
X148679625Y-115873929D01*
X148718525Y-115876850D01*
X148762403Y-115876184D01*
X148805914Y-115872250D01*
X148843716Y-115865367D01*
X148849689Y-115863787D01*
X148922930Y-115837611D01*
X148989027Y-115802652D01*
X149047179Y-115759591D01*
X149096584Y-115709109D01*
X149136441Y-115651885D01*
X149162201Y-115598482D01*
X149169312Y-115579156D01*
X149174059Y-115561794D01*
X149176919Y-115543001D01*
X149178372Y-115519378D01*
X149178896Y-115487530D01*
X149178932Y-115479735D01*
X149178841Y-115446643D01*
X149177953Y-115422438D01*
X149175752Y-115403690D01*
X149171721Y-115386972D01*
X149165343Y-115368855D01*
X149160306Y-115356210D01*
X149129822Y-115293830D01*
X149091244Y-115238438D01*
X149052559Y-115196418D01*
X149006636Y-115156603D01*
X148959131Y-115126249D01*
X148905857Y-115102776D01*
X148893525Y-115098473D01*
X148867101Y-115088580D01*
X148841967Y-115077437D01*
X148823064Y-115067259D01*
X148821311Y-115066115D01*
X148806644Y-115057654D01*
X148790421Y-115052047D01*
X148768936Y-115048349D01*
X148741906Y-115045861D01*
X148706046Y-115042702D01*
X148660548Y-115037892D01*
X148607930Y-115031760D01*
X148550712Y-115024636D01*
X148491413Y-115016848D01*
X148432552Y-115008728D01*
X148376648Y-115000603D01*
X148326220Y-114992804D01*
X148290295Y-114986808D01*
X148091167Y-114948864D01*
X147902386Y-114906275D01*
X147722745Y-114858671D01*
X147551037Y-114805681D01*
X147386055Y-114746932D01*
X147226594Y-114682056D01*
X147078539Y-114614126D01*
X146980412Y-114566555D01*
X146908773Y-114563479D01*
X146817273Y-114565571D01*
X146727595Y-114579592D01*
X146640876Y-114605300D01*
X146573913Y-114634361D01*
X146505709Y-114673320D01*
X146444455Y-114718045D01*
X146390886Y-114767524D01*
X146345736Y-114820742D01*
X146309741Y-114876686D01*
X146283636Y-114934344D01*
X146268157Y-114992700D01*
X146264037Y-115050742D01*
X146100026Y-115050742D01*
X146099539Y-115012337D01*
X146109806Y-114936153D01*
X146131031Y-114861566D01*
X146162943Y-114790311D01*
X146174528Y-114769897D01*
X146199661Y-114733046D01*
X146232515Y-114692598D01*
X146270348Y-114651461D01*
X146310418Y-114612542D01*
X146349986Y-114578748D01*
X146366632Y-114566177D01*
X146417286Y-114532900D01*
X146473368Y-114501561D01*
X146531891Y-114473499D01*
X146589870Y-114450055D01*
X146644318Y-114432566D01*
X146684777Y-114423518D01*
X146702699Y-114420219D01*
X146716133Y-114417205D01*
X146718032Y-114416656D01*
X146717111Y-114412289D01*
X146707034Y-114402572D01*
X146689113Y-114388649D01*
X146672654Y-114377049D01*
X146541974Y-114281828D01*
X146416926Y-114178624D01*
X146298636Y-114068607D01*
X146188226Y-113952949D01*
X146086820Y-113832820D01*
X145995543Y-113709391D01*
X145922446Y-113595553D01*
X145843137Y-113453231D01*
X145775358Y-113311287D01*
X145718506Y-113167965D01*
X145671978Y-113021510D01*
X145635172Y-112870166D01*
X145607486Y-112712178D01*
X145599939Y-112655802D01*
X145595293Y-112609102D01*
X145591568Y-112553187D01*
X145588827Y-112491129D01*
X145587130Y-112426001D01*
X145586541Y-112360875D01*
X145587121Y-112298825D01*
X145588932Y-112242922D01*
X145590952Y-112209269D01*
X145597259Y-112139801D01*
X145605869Y-112066431D01*
X145616423Y-111991093D01*
X145628561Y-111915725D01*
X145641923Y-111842261D01*
X145656149Y-111772637D01*
X145670879Y-111708789D01*
X145685755Y-111652653D01*
X145700415Y-111606164D01*
X145705703Y-111591823D01*
X145707493Y-111585231D01*
X145705211Y-111582151D01*
X145697021Y-111582751D01*
X145681089Y-111587197D01*
X145655580Y-111595655D01*
X145652672Y-111596646D01*
X145594486Y-111615753D01*
X145529921Y-111635662D01*
X145461362Y-111655731D01*
X145391195Y-111675319D01*
X145321805Y-111693784D01*
X145255577Y-111710484D01*
X145194896Y-111724777D01*
X145142149Y-111736022D01*
X145117294Y-111740690D01*
X145002631Y-111757019D01*
X144893288Y-111764874D01*
X144789881Y-111764328D01*
X144693030Y-111755452D01*
X144603355Y-111738319D01*
X144521473Y-111713001D01*
X144448005Y-111679571D01*
X144412049Y-111658173D01*
X144380182Y-111634497D01*
X144346136Y-111604338D01*
X144312762Y-111570651D01*
X144282911Y-111536387D01*
X144259432Y-111504501D01*
X144252164Y-111492540D01*
X144227824Y-111439035D01*
X146805578Y-111439035D01*
X146806101Y-111508221D01*
X146808133Y-111570504D01*
X146810568Y-111609299D01*
X146831041Y-111791493D01*
X146863121Y-111969603D01*
X146906820Y-112143659D01*
X146962150Y-112313689D01*
X147029121Y-112479720D01*
X147107745Y-112641782D01*
X147198034Y-112799902D01*
X147299998Y-112954109D01*
X147413651Y-113104431D01*
X147415368Y-113106562D01*
X147446298Y-113143162D01*
X147484732Y-113185885D01*
X147528803Y-113232860D01*
X147576641Y-113282219D01*
X147626379Y-113332092D01*
X147676149Y-113380608D01*
X147724081Y-113425898D01*
X147768307Y-113466092D01*
X147806959Y-113499321D01*
X147811886Y-113503365D01*
X147968354Y-113623372D01*
X148129401Y-113732000D01*
X148295228Y-113829338D01*
X148466037Y-113915477D01*
X148642028Y-113990505D01*
X148823404Y-114054511D01*
X149010364Y-114107586D01*
X149203111Y-114149819D01*
X149305460Y-114167488D01*
X149391220Y-114179236D01*
X149485920Y-114189118D01*
X149587109Y-114197060D01*
X149692333Y-114202986D01*
X149799140Y-114206823D01*
X149905079Y-114208496D01*
X150007697Y-114207931D01*
X150104541Y-114205055D01*
X150193160Y-114199792D01*
X150238593Y-114195742D01*
X150437847Y-114169588D01*
X150631862Y-114132288D01*
X150820689Y-114083822D01*
X151004380Y-114024168D01*
X151182988Y-113953305D01*
X151356563Y-113871212D01*
X151525157Y-113777868D01*
X151688823Y-113673250D01*
X151847611Y-113557338D01*
X151907667Y-113509524D01*
X151945377Y-113477436D01*
X151988925Y-113438116D01*
X152036445Y-113393436D01*
X152086067Y-113345264D01*
X152135924Y-113295470D01*
X152184146Y-113245924D01*
X152228865Y-113198496D01*
X152268213Y-113155056D01*
X152300322Y-113117473D01*
X152304185Y-113112721D01*
X152418005Y-112962455D01*
X152520137Y-112808304D01*
X152610594Y-112650240D01*
X152689385Y-112488235D01*
X152756524Y-112322261D01*
X152812020Y-112152289D01*
X152855887Y-111978291D01*
X152888134Y-111800239D01*
X152908774Y-111618104D01*
X152908986Y-111615458D01*
X152912147Y-111560047D01*
X152913748Y-111495514D01*
X152913862Y-111424944D01*
X152912563Y-111351422D01*
X152909927Y-111278036D01*
X152906029Y-111207871D01*
X152900942Y-111144013D01*
X152896592Y-111103716D01*
X152869275Y-110932336D01*
X152830146Y-110763499D01*
X152779538Y-110597688D01*
X152717783Y-110435386D01*
X152645215Y-110277075D01*
X152562167Y-110123237D01*
X152468970Y-109974356D01*
X152365959Y-109830914D01*
X152253465Y-109693394D01*
X152131821Y-109562278D01*
X152001360Y-109438049D01*
X151862416Y-109321190D01*
X151715319Y-109212183D01*
X151560405Y-109111510D01*
X151497227Y-109074201D01*
X151356197Y-108998604D01*
X151208295Y-108930000D01*
X151051869Y-108867656D01*
X150946852Y-108830816D01*
X150769311Y-108776961D01*
X150592802Y-108734446D01*
X150414875Y-108702800D01*
X150233078Y-108681550D01*
X150133734Y-108674307D01*
X150087171Y-108671525D01*
X150034597Y-108668279D01*
X149981436Y-108664910D01*
X149933109Y-108661758D01*
X149917278Y-108660698D01*
X149851793Y-108658048D01*
X149776619Y-108658082D01*
X149694052Y-108660628D01*
X149606386Y-108665516D01*
X149515916Y-108672576D01*
X149424938Y-108681636D01*
X149335745Y-108692526D01*
X149250632Y-108705076D01*
X149197677Y-108714209D01*
X149031478Y-108749772D01*
X148864910Y-108795132D01*
X148700176Y-108849487D01*
X148539484Y-108912038D01*
X148385037Y-108981984D01*
X148239043Y-109058526D01*
X148222327Y-109068042D01*
X148062414Y-109166656D01*
X147909739Y-109274527D01*
X147764832Y-109391139D01*
X147628223Y-109515974D01*
X147500442Y-109648518D01*
X147382020Y-109788254D01*
X147273486Y-109934665D01*
X147175371Y-110087236D01*
X147175231Y-110087470D01*
X147086944Y-110246691D01*
X147010754Y-110407999D01*
X146946581Y-110571624D01*
X146894345Y-110737795D01*
X146853965Y-110906744D01*
X146825361Y-111078699D01*
X146822961Y-111097557D01*
X146817067Y-111154972D01*
X146812306Y-111220913D01*
X146808755Y-111292295D01*
X146806487Y-111366031D01*
X146805578Y-111439035D01*
X144227824Y-111439035D01*
X144221953Y-111426129D01*
X144201611Y-111353029D01*
X144191195Y-111273995D01*
X144190760Y-111189781D01*
X144200362Y-111101144D01*
X144217363Y-111019269D01*
X144227809Y-110980832D01*
X144239896Y-110942437D01*
X144254306Y-110902433D01*
X144271720Y-110859170D01*
X144292818Y-110810996D01*
X144318282Y-110756260D01*
X144348792Y-110693310D01*
X144366678Y-110657184D01*
X144447459Y-110502545D01*
X144532940Y-110354255D01*
X144626106Y-110207191D01*
X144646393Y-110176776D01*
X144715409Y-110074126D01*
X144778050Y-109980897D01*
X144834837Y-109896304D01*
X144886291Y-109819560D01*
X144932933Y-109749881D01*
X144975285Y-109686479D01*
X145013866Y-109628571D01*
X145049198Y-109575369D01*
X145081803Y-109526088D01*
X145112201Y-109479943D01*
X145140913Y-109436148D01*
X145168460Y-109393917D01*
X145195364Y-109352464D01*
X145222145Y-109311004D01*
X145249324Y-109268751D01*
X145272001Y-109233387D01*
X145318127Y-109159460D01*
X145367527Y-109076767D01*
X145418703Y-108987898D01*
X145470156Y-108895443D01*
X145506622Y-108827940D01*
X145527684Y-108788473D01*
X145546117Y-108754028D01*
X145562857Y-108722897D01*
X145578841Y-108693373D01*
X145595006Y-108663746D01*
X145612288Y-108632309D01*
X145631623Y-108597354D01*
X145653948Y-108557171D01*
X145680200Y-108510053D01*
X145711314Y-108454292D01*
X145719338Y-108439919D01*
X145741560Y-108399897D01*
X145763277Y-108360380D01*
X145783267Y-108323625D01*
X145800303Y-108291893D01*
X145813163Y-108267439D01*
X145817855Y-108258227D01*
X145830520Y-108230938D01*
X145845907Y-108194826D01*
X145862907Y-108152777D01*
X145880413Y-108107675D01*
X145897317Y-108062405D01*
X145912511Y-108019853D01*
X145924887Y-107982903D01*
X145930193Y-107965671D01*
X145939668Y-107936631D01*
X145951088Y-107906137D01*
X145961201Y-107882523D01*
X145967583Y-107868150D01*
X145972426Y-107854340D01*
X145976113Y-107838775D01*
X145978781Y-107820791D01*
X148927273Y-107820791D01*
X148927305Y-107824436D01*
X148932420Y-107863176D01*
X148946414Y-107894061D01*
X148968990Y-107916498D01*
X148975385Y-107920412D01*
X149005195Y-107934608D01*
X149043422Y-107948642D01*
X149090746Y-107962686D01*
X149147849Y-107976915D01*
X149215413Y-107991504D01*
X149294120Y-108006626D01*
X149354733Y-108017367D01*
X149472500Y-108034761D01*
X149599046Y-108048130D01*
X149731459Y-108057326D01*
X149866823Y-108062201D01*
X150002227Y-108062604D01*
X150134757Y-108058388D01*
X150145542Y-108057825D01*
X150255975Y-108050694D01*
X150355918Y-108041632D01*
X150447084Y-108030381D01*
X150531188Y-108016681D01*
X150609944Y-108000271D01*
X150685065Y-107980891D01*
X150718967Y-107970879D01*
X150754428Y-107959638D01*
X150780240Y-107950311D01*
X150798668Y-107941689D01*
X150811978Y-107932561D01*
X150822436Y-107921719D01*
X150829787Y-107911712D01*
X150846268Y-107883178D01*
X150853230Y-107857558D01*
X150851197Y-107830633D01*
X150843119Y-107804445D01*
X150813610Y-107737178D01*
X150775721Y-107670594D01*
X150728575Y-107603403D01*
X150671291Y-107534317D01*
X150625235Y-107484701D01*
X150531979Y-107396479D01*
X150429340Y-107314789D01*
X150318981Y-107240715D01*
X150202566Y-107175340D01*
X150081758Y-107119745D01*
X150038390Y-107102665D01*
X149967560Y-107075989D01*
X149758152Y-107075685D01*
X149686097Y-107108619D01*
X149634517Y-107133862D01*
X149577416Y-107164627D01*
X149518776Y-107198598D01*
X149462574Y-107233453D01*
X149412790Y-107266877D01*
X149405154Y-107272319D01*
X149314841Y-107342455D01*
X149226834Y-107420665D01*
X149143205Y-107504769D01*
X149066029Y-107592587D01*
X148997378Y-107681939D01*
X148953811Y-107746922D01*
X148940002Y-107769963D01*
X148931929Y-107787167D01*
X148928163Y-107802715D01*
X148927273Y-107820791D01*
X145978781Y-107820791D01*
X145979026Y-107819138D01*
X145981548Y-107793108D01*
X145984060Y-107758368D01*
X145985577Y-107734706D01*
X145988570Y-107690567D01*
X145992196Y-107642750D01*
X145996084Y-107595837D01*
X145999862Y-107554412D01*
X146001549Y-107537615D01*
X146005874Y-107496315D01*
X146010847Y-107448828D01*
X146015832Y-107401219D01*
X146019929Y-107362082D01*
X146050158Y-107123747D01*
X146091096Y-106882126D01*
X146124490Y-106723515D01*
X147779365Y-106723515D01*
X147783312Y-106774314D01*
X147797500Y-106822966D01*
X147821265Y-106868272D01*
X147853941Y-106909036D01*
X147894866Y-106944058D01*
X147943374Y-106972142D01*
X147998802Y-106992088D01*
X148012862Y-106995488D01*
X148063479Y-107001195D01*
X148115904Y-106996039D01*
X148156794Y-106985228D01*
X148210003Y-106962940D01*
X148256749Y-106932242D01*
X148279102Y-106912901D01*
X148306424Y-106885006D01*
X148326365Y-106858084D01*
X148341157Y-106828195D01*
X148353035Y-106791395D01*
X148357158Y-106775156D01*
X148363845Y-106746031D01*
X148367485Y-106725012D01*
X148367774Y-106719520D01*
X151351187Y-106719520D01*
X151352905Y-106737153D01*
X151357475Y-106760323D01*
X151362395Y-106781315D01*
X151373897Y-106821984D01*
X151387569Y-106854229D01*
X151405582Y-106881945D01*
X151430104Y-106909025D01*
X151437485Y-106916132D01*
X151488574Y-106956508D01*
X151544095Y-106985519D01*
X151603672Y-107002974D01*
X151610495Y-107004187D01*
X151633894Y-107007916D01*
X151650558Y-107009553D01*
X151665400Y-107008970D01*
X151683333Y-107006041D01*
X151703878Y-107001782D01*
X151763103Y-106983689D01*
X151815452Y-106956398D01*
X151860024Y-106920760D01*
X151895923Y-106877622D01*
X151922249Y-106827834D01*
X151936126Y-106782348D01*
X151940774Y-106732305D01*
X151934287Y-106681431D01*
X151917541Y-106631645D01*
X151891407Y-106584864D01*
X151856759Y-106543006D01*
X151814471Y-106507990D01*
X151809774Y-106504886D01*
X151756829Y-106477707D01*
X151700114Y-106461372D01*
X151641569Y-106455929D01*
X151583133Y-106461427D01*
X151526744Y-106477913D01*
X151488005Y-106496903D01*
X151447089Y-106527436D01*
X151410988Y-106567167D01*
X151381659Y-106613310D01*
X151361060Y-106663081D01*
X151355175Y-106685850D01*
X151352039Y-106703670D01*
X151351187Y-106719520D01*
X148367774Y-106719520D01*
X148368361Y-106708347D01*
X148366758Y-106692281D01*
X148364378Y-106679691D01*
X148346695Y-106623432D01*
X148319079Y-106573455D01*
X148282695Y-106530697D01*
X148238711Y-106496095D01*
X148188290Y-106470589D01*
X148132600Y-106455115D01*
X148079490Y-106450540D01*
X148016592Y-106456074D01*
X147959181Y-106472423D01*
X147907873Y-106499205D01*
X147863288Y-106536037D01*
X147826044Y-106582537D01*
X147804847Y-106620269D01*
X147786321Y-106671768D01*
X147779365Y-106723515D01*
X146124490Y-106723515D01*
X146142264Y-106639091D01*
X146203186Y-106396512D01*
X146273382Y-106156262D01*
X146352375Y-105920212D01*
X146439688Y-105690234D01*
X146458698Y-105643702D01*
X146529448Y-105481992D01*
X146609037Y-105316971D01*
X146637487Y-105262794D01*
X147279127Y-105262794D01*
X147283689Y-105277142D01*
X147296547Y-105297978D01*
X147316455Y-105323996D01*
X147342167Y-105353891D01*
X147372439Y-105386359D01*
X147406024Y-105420094D01*
X147441678Y-105453791D01*
X147478155Y-105486146D01*
X147514210Y-105515854D01*
X147537808Y-105533846D01*
X147611261Y-105585490D01*
X147693869Y-105639574D01*
X147783101Y-105694652D01*
X147876422Y-105749276D01*
X147971301Y-105802000D01*
X148065204Y-105851376D01*
X148155599Y-105895958D01*
X148234676Y-105932011D01*
X148313188Y-105964693D01*
X148389432Y-105993614D01*
X148462387Y-106018525D01*
X148531033Y-106039175D01*
X148594350Y-106055314D01*
X148651317Y-106066693D01*
X148700914Y-106073062D01*
X148742120Y-106074170D01*
X148773915Y-106069768D01*
X148783677Y-106066448D01*
X148808755Y-106050910D01*
X148823802Y-106028951D01*
X148829616Y-106004666D01*
X148830477Y-105987828D01*
X148828406Y-105972753D01*
X148822480Y-105958842D01*
X148811777Y-105945496D01*
X148795376Y-105932114D01*
X148772353Y-105918099D01*
X148741787Y-105902849D01*
X148702755Y-105885767D01*
X148688817Y-105880149D01*
X151028666Y-105880149D01*
X151030036Y-105901333D01*
X151039897Y-105921119D01*
X151042529Y-105924164D01*
X151056907Y-105936504D01*
X151074711Y-105945494D01*
X151097771Y-105951482D01*
X151127919Y-105954819D01*
X151166987Y-105955853D01*
X151205533Y-105955268D01*
X151247069Y-105953734D01*
X151280514Y-105951314D01*
X151310092Y-105947468D01*
X151340026Y-105941656D01*
X151371828Y-105934029D01*
X151453372Y-105911255D01*
X151535069Y-105884062D01*
X151618444Y-105851787D01*
X151705023Y-105813765D01*
X151796335Y-105769330D01*
X151893903Y-105717819D01*
X151983609Y-105667565D01*
X152084521Y-105607681D01*
X152173665Y-105550416D01*
X152251273Y-105495599D01*
X152317576Y-105443059D01*
X152372804Y-105392624D01*
X152413518Y-105348550D01*
X152438888Y-105317275D01*
X152455538Y-105294186D01*
X152463564Y-105278865D01*
X152463060Y-105270895D01*
X152454122Y-105269858D01*
X152436846Y-105275335D01*
X152429510Y-105278423D01*
X152415319Y-105284581D01*
X152391901Y-105294679D01*
X152361355Y-105307814D01*
X152325779Y-105323084D01*
X152287275Y-105339586D01*
X152271052Y-105346531D01*
X152225394Y-105366329D01*
X152172581Y-105389648D01*
X152116576Y-105414711D01*
X152061344Y-105439744D01*
X152010849Y-105462967D01*
X152000053Y-105467992D01*
X151888013Y-105519319D01*
X151774524Y-105569485D01*
X151661477Y-105617720D01*
X151550759Y-105663253D01*
X151444259Y-105705313D01*
X151343866Y-105743131D01*
X151251468Y-105775936D01*
X151214772Y-105788274D01*
X151164678Y-105804983D01*
X151125036Y-105818696D01*
X151094504Y-105829970D01*
X151071739Y-105839362D01*
X151055398Y-105847426D01*
X151044139Y-105854721D01*
X151036618Y-105861801D01*
X151036260Y-105862227D01*
X151028666Y-105880149D01*
X148688817Y-105880149D01*
X148654335Y-105866251D01*
X148595605Y-105843704D01*
X148563293Y-105831557D01*
X148474401Y-105798106D01*
X148395254Y-105767878D01*
X148323942Y-105740105D01*
X148258556Y-105714020D01*
X148197187Y-105688853D01*
X148137926Y-105663836D01*
X148078863Y-105638202D01*
X148039772Y-105620888D01*
X148022966Y-105613104D01*
X147996341Y-105600399D01*
X147961094Y-105583360D01*
X147918424Y-105562572D01*
X147869528Y-105538624D01*
X147815605Y-105512101D01*
X147757854Y-105483590D01*
X147697472Y-105453679D01*
X147645591Y-105427897D01*
X147585590Y-105398108D01*
X147528511Y-105369909D01*
X147475369Y-105343791D01*
X147427179Y-105320247D01*
X147384954Y-105299768D01*
X147349709Y-105282847D01*
X147322459Y-105269975D01*
X147304217Y-105261644D01*
X147296064Y-105258362D01*
X147283174Y-105257173D01*
X147279132Y-105262458D01*
X147279127Y-105262794D01*
X146637487Y-105262794D01*
X146695795Y-105151759D01*
X146788055Y-104989476D01*
X146884147Y-104833241D01*
X146927999Y-104766034D01*
X146946598Y-104738019D01*
X146962906Y-104713364D01*
X146975644Y-104694010D01*
X146983532Y-104681900D01*
X146985337Y-104679036D01*
X146982620Y-104672233D01*
X146971223Y-104660076D01*
X146952673Y-104644108D01*
X146944069Y-104637364D01*
X146905340Y-104605049D01*
X146865774Y-104567367D01*
X146828380Y-104527481D01*
X146796167Y-104488556D01*
X146777139Y-104461777D01*
X146762529Y-104437792D01*
X146745923Y-104408299D01*
X146728643Y-104375906D01*
X146712010Y-104343223D01*
X146697345Y-104312858D01*
X146685972Y-104287421D01*
X146679211Y-104269521D01*
X146678547Y-104267150D01*
X146673248Y-104238283D01*
X146674332Y-104216174D01*
X146679672Y-104201122D01*
X146691624Y-104184733D01*
X146708215Y-104175436D01*
X146730127Y-104173408D01*
X146758042Y-104178825D01*
X146792643Y-104191863D01*
X146834613Y-104212697D01*
X146884635Y-104241503D01*
X146918821Y-104262701D01*
X146944171Y-104278546D01*
X146965512Y-104291486D01*
X146980852Y-104300343D01*
X146988198Y-104303938D01*
X146988524Y-104303930D01*
X146986051Y-104298612D01*
X146977721Y-104286114D01*
X146965243Y-104268977D01*
X146963164Y-104266223D01*
X146905656Y-104185397D01*
X146851262Y-104099190D01*
X146800478Y-104008938D01*
X146753801Y-103915976D01*
X146711728Y-103821641D01*
X146701007Y-103794276D01*
X146917065Y-103794276D01*
X146919556Y-103811652D01*
X146921925Y-103824646D01*
X146930567Y-103863478D01*
X146942096Y-103899314D01*
X146957957Y-103935694D01*
X146979593Y-103976160D01*
X146993149Y-103999230D01*
X147015102Y-104033286D01*
X147043826Y-104074069D01*
X147077613Y-104119373D01*
X147114756Y-104166989D01*
X147153545Y-104214712D01*
X147192273Y-104260333D01*
X147215496Y-104286585D01*
X147244894Y-104317418D01*
X147281851Y-104353369D01*
X147323990Y-104392282D01*
X147368932Y-104431996D01*
X147414299Y-104470355D01*
X147448273Y-104497805D01*
X147508184Y-104542629D01*
X147575486Y-104588740D01*
X147647061Y-104634241D01*
X147719792Y-104677234D01*
X147790561Y-104715822D01*
X147856252Y-104748108D01*
X147868736Y-104753744D01*
X147897961Y-104766859D01*
X147934545Y-104783497D01*
X147974704Y-104801926D01*
X148014655Y-104820413D01*
X148033613Y-104829250D01*
X148080394Y-104850234D01*
X148134277Y-104872899D01*
X148193410Y-104896582D01*
X148255939Y-104920622D01*
X148320011Y-104944356D01*
X148383772Y-104967120D01*
X148445370Y-104988254D01*
X148502951Y-105007093D01*
X148554662Y-105022976D01*
X148598650Y-105035240D01*
X148631042Y-105042825D01*
X148677915Y-105051939D01*
X148722411Y-105060095D01*
X148762473Y-105066951D01*
X148796042Y-105072166D01*
X148821063Y-105075397D01*
X148832403Y-105076296D01*
X148850985Y-105074383D01*
X148862917Y-105065801D01*
X148864738Y-105063379D01*
X148871649Y-105046896D01*
X150846225Y-105046896D01*
X150851956Y-105064615D01*
X150863139Y-105078001D01*
X150878355Y-105083227D01*
X150889180Y-105082238D01*
X150909612Y-105079517D01*
X150937120Y-105075432D01*
X150969172Y-105070349D01*
X150984250Y-105067859D01*
X151029378Y-105060216D01*
X151065454Y-105053732D01*
X151095593Y-105047656D01*
X151122910Y-105041236D01*
X151150523Y-105033720D01*
X151181546Y-105024358D01*
X151219097Y-105012398D01*
X151233249Y-105007819D01*
X151307667Y-104982969D01*
X151383843Y-104956196D01*
X151459328Y-104928430D01*
X151531672Y-104900605D01*
X151598428Y-104873655D01*
X151657145Y-104848511D01*
X151685940Y-104835409D01*
X151724343Y-104817553D01*
X151764870Y-104798878D01*
X151803737Y-104781116D01*
X151837164Y-104766000D01*
X151850817Y-104759903D01*
X151937136Y-104718097D01*
X152026638Y-104668267D01*
X152117132Y-104611979D01*
X152206432Y-104550798D01*
X152292349Y-104486288D01*
X152372694Y-104420015D01*
X152445279Y-104353543D01*
X152504057Y-104292744D01*
X152541890Y-104249534D01*
X152580843Y-104202854D01*
X152619207Y-104154911D01*
X152655275Y-104107914D01*
X152687338Y-104064069D01*
X152713689Y-104025583D01*
X152726405Y-104005389D01*
X152751501Y-103961522D01*
X152770093Y-103923524D01*
X152783625Y-103887856D01*
X152793542Y-103850978D01*
X152797628Y-103830805D01*
X152801528Y-103808532D01*
X152802629Y-103794699D01*
X152800419Y-103785640D01*
X152794387Y-103777691D01*
X152789505Y-103772716D01*
X152782312Y-103765987D01*
X152775506Y-103762067D01*
X152767514Y-103761627D01*
X152756763Y-103765339D01*
X152741680Y-103773873D01*
X152720693Y-103787900D01*
X152692228Y-103808091D01*
X152671392Y-103823093D01*
X152637845Y-103846179D01*
X152601849Y-103869060D01*
X152565365Y-103890673D01*
X152530354Y-103909956D01*
X152498774Y-103925848D01*
X152472587Y-103937287D01*
X152453754Y-103943211D01*
X152448574Y-103943799D01*
X152430665Y-103939417D01*
X152412200Y-103928536D01*
X152398196Y-103914554D01*
X152394296Y-103907043D01*
X152394438Y-103897363D01*
X152397185Y-103877962D01*
X152402136Y-103851062D01*
X152408888Y-103818888D01*
X152415110Y-103791720D01*
X152424514Y-103751485D01*
X152434071Y-103709574D01*
X152442902Y-103669904D01*
X152450130Y-103636390D01*
X152452794Y-103623538D01*
X152458795Y-103594913D01*
X152466805Y-103558053D01*
X152475993Y-103516708D01*
X152485529Y-103474632D01*
X152490958Y-103451084D01*
X152500726Y-103407780D01*
X152507782Y-103372664D01*
X152512646Y-103342035D01*
X152515839Y-103312196D01*
X152517881Y-103279445D01*
X152518925Y-103252138D01*
X152519930Y-103216208D01*
X152520157Y-103190491D01*
X152519446Y-103172901D01*
X152517636Y-103161348D01*
X152514566Y-103153745D01*
X152510980Y-103148974D01*
X152494263Y-103138537D01*
X152474957Y-103139156D01*
X152459558Y-103147739D01*
X152452623Y-103157617D01*
X152442392Y-103177995D01*
X152429405Y-103207663D01*
X152414198Y-103245414D01*
X152402750Y-103275388D01*
X152344611Y-103422157D01*
X152283172Y-103560049D01*
X152216723Y-103692403D01*
X152143555Y-103822559D01*
X152061957Y-103953856D01*
X152032069Y-103999230D01*
X151976281Y-104080622D01*
X151923045Y-104153411D01*
X151870094Y-104220333D01*
X151815165Y-104284124D01*
X151755993Y-104347519D01*
X151690313Y-104413253D01*
X151685231Y-104418190D01*
X151575731Y-104520766D01*
X151467295Y-104614739D01*
X151356412Y-104702943D01*
X151239565Y-104788209D01*
X151153181Y-104847108D01*
X151103983Y-104879475D01*
X151062654Y-104905820D01*
X151027089Y-104927353D01*
X150995183Y-104945279D01*
X150964832Y-104960809D01*
X150933931Y-104975150D01*
X150918142Y-104982028D01*
X150893870Y-104992972D01*
X150873055Y-105003366D01*
X150859013Y-105011513D01*
X150856034Y-105013765D01*
X150847174Y-105028670D01*
X150846225Y-105046896D01*
X148871649Y-105046896D01*
X148873040Y-105043579D01*
X148872625Y-105023482D01*
X148863594Y-105007674D01*
X148863519Y-105007606D01*
X148853119Y-105000833D01*
X148834617Y-104991135D01*
X148811331Y-104980208D01*
X148801411Y-104975869D01*
X148769487Y-104961669D01*
X148739133Y-104946866D01*
X148708243Y-104930251D01*
X148674713Y-104910616D01*
X148636438Y-104886753D01*
X148591314Y-104857453D01*
X148566372Y-104840949D01*
X148443328Y-104756056D01*
X148328682Y-104670191D01*
X148218923Y-104580520D01*
X148110534Y-104484211D01*
X148034322Y-104412031D01*
X147968082Y-104346020D01*
X147908514Y-104282548D01*
X147853353Y-104218878D01*
X147800335Y-104152275D01*
X147747195Y-104080004D01*
X147691669Y-103999329D01*
X147687484Y-103993071D01*
X147602639Y-103860630D01*
X147526804Y-103730462D01*
X147458268Y-103599227D01*
X147395322Y-103463587D01*
X147336256Y-103320203D01*
X147316803Y-103269229D01*
X147300383Y-103226627D01*
X147285814Y-103191279D01*
X147273633Y-103164393D01*
X147264377Y-103147176D01*
X147259995Y-103141580D01*
X147240774Y-103132006D01*
X147221738Y-103133546D01*
X147208573Y-103142815D01*
X147204345Y-103148734D01*
X147201510Y-103156884D01*
X147199906Y-103169352D01*
X147199372Y-103188226D01*
X147199749Y-103215596D01*
X147200628Y-103245979D01*
X147202165Y-103283088D01*
X147204480Y-103314637D01*
X147208095Y-103344324D01*
X147213528Y-103375850D01*
X147221300Y-103412913D01*
X147228595Y-103444925D01*
X147237948Y-103485682D01*
X147247440Y-103527911D01*
X147256243Y-103567860D01*
X147263525Y-103601777D01*
X147266759Y-103617379D01*
X147272896Y-103646503D01*
X147281060Y-103683681D01*
X147290375Y-103724996D01*
X147299963Y-103766531D01*
X147304443Y-103785561D01*
X147312317Y-103820295D01*
X147318700Y-103851479D01*
X147323190Y-103876890D01*
X147325388Y-103894302D01*
X147325257Y-103900884D01*
X147315655Y-103915132D01*
X147298931Y-103928081D01*
X147280103Y-103936332D01*
X147270979Y-103937640D01*
X147255761Y-103934308D01*
X147232379Y-103925022D01*
X147202793Y-103910844D01*
X147168963Y-103892834D01*
X147132851Y-103872056D01*
X147096415Y-103849572D01*
X147061618Y-103826442D01*
X147048162Y-103816934D01*
X147014572Y-103792810D01*
X146989383Y-103775244D01*
X146971023Y-103763565D01*
X146957919Y-103757102D01*
X146948497Y-103755185D01*
X146941185Y-103757142D01*
X146934409Y-103762302D01*
X146930048Y-103766557D01*
X146921798Y-103775393D01*
X146917642Y-103783411D01*
X146917065Y-103794276D01*
X146701007Y-103794276D01*
X146674755Y-103727269D01*
X146643379Y-103634195D01*
X146618097Y-103543756D01*
X146599404Y-103457287D01*
X146587799Y-103376124D01*
X146583777Y-103301603D01*
X146585970Y-103251576D01*
X146589446Y-103223985D01*
X146594173Y-103205898D01*
X146600955Y-103194507D01*
X146602889Y-103192540D01*
X146621657Y-103181588D01*
X146645176Y-103176337D01*
X146667786Y-103177656D01*
X146677179Y-103181157D01*
X146685760Y-103188019D01*
X146701145Y-103202503D01*
X146721847Y-103223121D01*
X146746381Y-103248386D01*
X146773259Y-103276809D01*
X146780676Y-103284778D01*
X146825542Y-103332786D01*
X146870077Y-103379756D01*
X146913542Y-103424959D01*
X146955197Y-103467668D01*
X146994301Y-103507155D01*
X147030114Y-103542693D01*
X147061896Y-103573553D01*
X147088905Y-103599008D01*
X147110403Y-103618330D01*
X147125648Y-103630792D01*
X147133901Y-103635665D01*
X147134659Y-103632766D01*
X147108554Y-103563555D01*
X147083383Y-103484833D01*
X147059830Y-103399407D01*
X147038584Y-103310081D01*
X147020331Y-103219661D01*
X147005759Y-103130952D01*
X146998925Y-103078487D01*
X146992672Y-103006807D01*
X146989595Y-102929641D01*
X146989583Y-102849898D01*
X146992526Y-102770485D01*
X146998316Y-102694308D01*
X147006842Y-102624275D01*
X147017995Y-102563293D01*
X147018428Y-102561375D01*
X147029759Y-102526390D01*
X147045127Y-102501598D01*
X147063809Y-102487495D01*
X147085082Y-102484580D01*
X147108225Y-102493349D01*
X147112814Y-102496405D01*
X147123082Y-102506218D01*
X147136300Y-102523373D01*
X147152841Y-102548493D01*
X147173077Y-102582203D01*
X147197382Y-102625125D01*
X147226128Y-102677883D01*
X147259688Y-102741100D01*
X147263805Y-102748939D01*
X147304453Y-102825440D01*
X147342059Y-102893882D01*
X147378149Y-102956710D01*
X147414251Y-103016368D01*
X147451890Y-103075300D01*
X147492594Y-103135950D01*
X147537889Y-103200763D01*
X147589301Y-103272182D01*
X147598483Y-103284778D01*
X147637895Y-103338593D01*
X147674809Y-103388664D01*
X147708613Y-103434184D01*
X147738694Y-103474343D01*
X147764441Y-103508330D01*
X147785241Y-103535337D01*
X147800482Y-103554554D01*
X147809552Y-103565171D01*
X147811909Y-103567046D01*
X147812124Y-103560440D01*
X147810948Y-103544563D01*
X147808621Y-103522350D01*
X147807461Y-103512662D01*
X147803784Y-103472821D01*
X147801467Y-103425884D01*
X147800478Y-103374888D01*
X147800785Y-103322873D01*
X147802357Y-103272877D01*
X147805162Y-103227938D01*
X147809167Y-103191094D01*
X147810955Y-103180074D01*
X147824134Y-103116654D01*
X147839363Y-103058068D01*
X147856179Y-103005354D01*
X147874123Y-102959547D01*
X147892734Y-102921683D01*
X147911549Y-102892799D01*
X147930108Y-102873932D01*
X147947951Y-102866117D01*
X147950702Y-102865962D01*
X147965158Y-102871319D01*
X147985114Y-102887155D01*
X148010205Y-102913114D01*
X148040066Y-102948845D01*
X148052278Y-102964507D01*
X148070108Y-102986235D01*
X148094862Y-103014271D01*
X148124527Y-103046446D01*
X148157089Y-103080592D01*
X148190532Y-103114540D01*
X148203971Y-103127838D01*
X148246600Y-103169593D01*
X148281229Y-103203291D01*
X148308574Y-103229582D01*
X148329350Y-103249112D01*
X148344274Y-103262530D01*
X148354061Y-103270484D01*
X148359428Y-103273623D01*
X148361089Y-103272595D01*
X148360298Y-103269381D01*
X148357239Y-103258622D01*
X148352442Y-103238726D01*
X148346590Y-103212632D01*
X148340978Y-103186233D01*
X148335894Y-103160294D01*
X148332124Y-103136736D01*
X148329482Y-103112957D01*
X148327781Y-103086351D01*
X148326834Y-103054314D01*
X148326455Y-103014242D01*
X148326425Y-102982984D01*
X148326987Y-102931373D01*
X148328480Y-102880564D01*
X148330761Y-102833794D01*
X148333686Y-102794298D01*
X148335542Y-102776655D01*
X148339929Y-102740121D01*
X148344561Y-102700776D01*
X148348780Y-102664256D01*
X148351040Y-102644235D01*
X148359109Y-102587652D01*
X148370587Y-102530045D01*
X148384966Y-102472577D01*
X148401736Y-102416410D01*
X148420389Y-102362707D01*
X148440415Y-102312630D01*
X148461305Y-102267342D01*
X148482550Y-102228005D01*
X148503642Y-102195782D01*
X148524071Y-102171834D01*
X148543329Y-102157325D01*
X148560905Y-102153416D01*
X148565540Y-102154407D01*
X148571022Y-102160709D01*
X148580988Y-102176728D01*
X148594660Y-102201046D01*
X148611256Y-102232243D01*
X148629998Y-102268902D01*
X148644341Y-102297796D01*
X148676979Y-102363698D01*
X148705972Y-102420671D01*
X148732638Y-102471058D01*
X148758298Y-102517203D01*
X148784274Y-102561448D01*
X148811884Y-102606138D01*
X148842450Y-102653615D01*
X148858866Y-102678545D01*
X148930085Y-102781572D01*
X149001793Y-102875997D01*
X149070531Y-102958348D01*
X149096234Y-102986974D01*
X149127350Y-103020308D01*
X149162057Y-103056516D01*
X149198534Y-103093766D01*
X149234957Y-103130226D01*
X149269505Y-103164061D01*
X149300354Y-103193441D01*
X149325684Y-103216531D01*
X149336256Y-103225599D01*
X149382449Y-103263901D01*
X149579539Y-103265016D01*
X149624816Y-103265292D01*
X149666214Y-103265602D01*
X149705237Y-103265971D01*
X149743385Y-103266429D01*
X149782162Y-103267002D01*
X149823069Y-103267719D01*
X149867609Y-103268608D01*
X149917283Y-103269696D01*
X149973594Y-103271012D01*
X150038044Y-103272582D01*
X150112135Y-103274435D01*
X150177522Y-103276094D01*
X150325894Y-103279871D01*
X150380772Y-103233801D01*
X150406753Y-103210903D01*
X150438974Y-103180814D01*
X150475455Y-103145518D01*
X150514218Y-103107002D01*
X150553287Y-103067251D01*
X150590682Y-103028251D01*
X150624427Y-102991987D01*
X150649015Y-102964507D01*
X150723523Y-102874903D01*
X150795113Y-102779902D01*
X150860687Y-102684704D01*
X150893178Y-102635012D01*
X150922069Y-102589252D01*
X150948678Y-102545083D01*
X150974328Y-102500159D01*
X151000338Y-102452139D01*
X151028028Y-102398678D01*
X151058719Y-102337433D01*
X151075212Y-102303955D01*
X151095013Y-102264251D01*
X151113229Y-102228989D01*
X151129079Y-102199588D01*
X151141785Y-102177467D01*
X151150565Y-102164045D01*
X151154013Y-102160566D01*
X151171017Y-102161237D01*
X151189846Y-102172841D01*
X151209993Y-102194214D01*
X151230947Y-102224195D01*
X151252201Y-102261621D01*
X151273244Y-102305330D01*
X151293569Y-102354159D01*
X151312665Y-102406946D01*
X151330024Y-102462528D01*
X151345137Y-102519743D01*
X151357495Y-102577429D01*
X151366589Y-102634423D01*
X151368513Y-102650394D01*
X151372088Y-102681890D01*
X151376518Y-102719974D01*
X151381142Y-102759010D01*
X151384011Y-102782814D01*
X151387234Y-102816859D01*
X151389891Y-102859979D01*
X151391840Y-102908938D01*
X151392938Y-102960502D01*
X151393128Y-102989143D01*
X151393016Y-103035764D01*
X151392457Y-103072674D01*
X151391263Y-103102478D01*
X151389247Y-103127778D01*
X151386225Y-103151180D01*
X151382008Y-103175287D01*
X151378575Y-103192392D01*
X151372359Y-103221553D01*
X151366581Y-103247167D01*
X151361925Y-103266294D01*
X151359255Y-103275540D01*
X151358557Y-103279329D01*
X151361014Y-103279449D01*
X151367341Y-103275252D01*
X151378256Y-103266088D01*
X151394473Y-103251310D01*
X151416709Y-103230270D01*
X151445679Y-103202320D01*
X151482099Y-103166811D01*
X151515582Y-103133997D01*
X151548808Y-103100753D01*
X151581972Y-103066426D01*
X151613063Y-103033184D01*
X151640064Y-103003197D01*
X151660964Y-102978633D01*
X151667275Y-102970666D01*
X151698812Y-102931403D01*
X151725714Y-102901778D01*
X151747617Y-102882147D01*
X151764155Y-102872863D01*
X151768851Y-102872121D01*
X151786536Y-102878075D01*
X151805012Y-102895248D01*
X151823818Y-102922602D01*
X151842492Y-102959102D01*
X151860573Y-103003710D01*
X151877601Y-103055392D01*
X151893114Y-103113110D01*
X151906651Y-103175828D01*
X151908598Y-103186233D01*
X151913041Y-103219292D01*
X151916296Y-103261576D01*
X151918329Y-103310047D01*
X151919111Y-103361667D01*
X151918607Y-103413396D01*
X151916788Y-103462197D01*
X151913620Y-103505031D01*
X151912092Y-103518821D01*
X151909384Y-103542700D01*
X151907733Y-103561383D01*
X151907380Y-103571932D01*
X151907644Y-103573205D01*
X151911972Y-103569170D01*
X151922905Y-103555962D01*
X151939830Y-103534391D01*
X151962135Y-103505265D01*
X151989209Y-103469395D01*
X152020438Y-103427590D01*
X152055212Y-103380659D01*
X152092917Y-103329413D01*
X152121070Y-103290937D01*
X152173639Y-103218192D01*
X152219839Y-103152457D01*
X152261195Y-103091288D01*
X152299235Y-103032241D01*
X152335485Y-102972871D01*
X152371473Y-102910735D01*
X152408723Y-102843389D01*
X152448764Y-102768387D01*
X152455748Y-102755098D01*
X152489876Y-102690658D01*
X152519148Y-102636748D01*
X152543937Y-102592745D01*
X152564615Y-102558024D01*
X152581555Y-102531963D01*
X152595131Y-102513938D01*
X152605714Y-102503325D01*
X152606739Y-102502564D01*
X152630158Y-102491499D01*
X152651846Y-102492213D01*
X152671080Y-102504210D01*
X152687139Y-102526993D01*
X152699300Y-102560063D01*
X152701125Y-102567534D01*
X152712367Y-102628150D01*
X152720986Y-102697917D01*
X152726873Y-102773930D01*
X152729917Y-102853279D01*
X152730010Y-102933060D01*
X152727040Y-103010363D01*
X152720900Y-103082283D01*
X152720628Y-103084646D01*
X152708659Y-103170911D01*
X152692587Y-103260612D01*
X152673099Y-103350943D01*
X152650883Y-103439098D01*
X152626625Y-103522273D01*
X152601013Y-103597662D01*
X152584895Y-103638925D01*
X152585999Y-103641742D01*
X152594783Y-103636295D01*
X152610506Y-103623312D01*
X152632428Y-103603521D01*
X152659808Y-103577650D01*
X152691906Y-103546427D01*
X152727982Y-103510578D01*
X152767296Y-103470833D01*
X152809107Y-103427919D01*
X152852674Y-103382564D01*
X152897259Y-103335495D01*
X152938877Y-103290937D01*
X152966131Y-103261921D01*
X152991439Y-103235663D01*
X153013315Y-103213652D01*
X153030272Y-103197377D01*
X153040824Y-103188324D01*
X153042374Y-103187316D01*
X153062327Y-103182296D01*
X153086087Y-103184291D01*
X153107996Y-103192431D01*
X153116664Y-103198700D01*
X153125971Y-103214504D01*
X153132222Y-103240690D01*
X153135433Y-103275707D01*
X153135615Y-103318007D01*
X153132784Y-103366041D01*
X153126953Y-103418260D01*
X153118135Y-103473115D01*
X153114034Y-103494187D01*
X153087046Y-103604064D01*
X153050567Y-103717854D01*
X153005691Y-103833174D01*
X152953514Y-103947641D01*
X152895131Y-104058869D01*
X152831639Y-104164477D01*
X152764131Y-104262081D01*
X152756389Y-104272382D01*
X152743446Y-104289986D01*
X152734400Y-104303325D01*
X152730959Y-104309857D01*
X152731029Y-104310090D01*
X152736647Y-104307617D01*
X152750634Y-104299661D01*
X152770997Y-104287399D01*
X152795745Y-104272011D01*
X152800732Y-104268860D01*
X152855916Y-104235184D01*
X152902639Y-104209584D01*
X152941582Y-104191887D01*
X152973430Y-104181915D01*
X152998864Y-104179494D01*
X153018568Y-104184448D01*
X153033223Y-104196600D01*
X153039881Y-104207282D01*
X153046004Y-104226764D01*
X153045692Y-104250020D01*
X153041006Y-104273309D01*
X153035289Y-104289451D01*
X153024704Y-104313634D01*
X153010573Y-104343250D01*
X152994218Y-104375688D01*
X152976959Y-104408341D01*
X152960120Y-104438598D01*
X152945021Y-104463851D01*
X152942414Y-104467936D01*
X152916093Y-104504045D01*
X152882324Y-104543501D01*
X152844116Y-104583137D01*
X152804477Y-104619791D01*
X152775484Y-104643523D01*
X152754617Y-104660535D01*
X152740323Y-104674321D01*
X152734129Y-104683340D01*
X152734217Y-104685195D01*
X152738903Y-104692511D01*
X152749142Y-104708135D01*
X152763652Y-104730125D01*
X152781154Y-104756539D01*
X152791554Y-104772194D01*
X152888823Y-104924707D01*
X152983006Y-105084666D01*
X153072435Y-105248952D01*
X153155442Y-105414444D01*
X153230358Y-105578023D01*
X153260855Y-105649861D01*
X153349825Y-105878354D01*
X153430574Y-106113304D01*
X153502625Y-106352840D01*
X153565500Y-106595091D01*
X153618720Y-106838186D01*
X153661808Y-107080252D01*
X153694286Y-107319418D01*
X153699624Y-107368241D01*
X153704049Y-107410505D01*
X153709053Y-107458298D01*
X153714002Y-107505556D01*
X153718004Y-107543775D01*
X153721594Y-107580872D01*
X153725475Y-107625687D01*
X153729275Y-107673637D01*
X153732622Y-107720138D01*
X153733976Y-107740865D01*
X153736647Y-107781384D01*
X153739116Y-107811918D01*
X153741766Y-107834785D01*
X153744980Y-107852303D01*
X153749140Y-107866791D01*
X153754629Y-107880568D01*
X153758352Y-107888682D01*
X153769259Y-107914296D01*
X153780629Y-107944912D01*
X153789361Y-107971830D01*
X153799666Y-108004362D01*
X153813412Y-108044120D01*
X153829491Y-108088216D01*
X153846794Y-108133768D01*
X153864215Y-108177888D01*
X153880646Y-108217694D01*
X153894978Y-108250298D01*
X153901699Y-108264386D01*
X153911857Y-108284081D01*
X153926839Y-108312248D01*
X153945421Y-108346630D01*
X153966378Y-108384969D01*
X153988485Y-108425006D01*
X154000215Y-108446078D01*
X154032593Y-108504092D01*
X154059891Y-108553065D01*
X154083045Y-108594706D01*
X154102991Y-108630724D01*
X154120666Y-108662826D01*
X154137007Y-108692721D01*
X154152950Y-108722117D01*
X154169431Y-108752722D01*
X154187387Y-108786244D01*
X154207754Y-108824393D01*
X154212931Y-108834099D01*
X154235139Y-108875559D01*
X154256702Y-108915358D01*
X154277990Y-108954077D01*
X154299373Y-108992294D01*
X154321220Y-109030591D01*
X154343902Y-109069547D01*
X154367787Y-109109741D01*
X154393247Y-109151754D01*
X154420651Y-109196165D01*
X154450368Y-109243555D01*
X154482768Y-109294503D01*
X154518222Y-109349589D01*
X154557099Y-109409393D01*
X154599769Y-109474495D01*
X154646601Y-109545474D01*
X154697965Y-109622911D01*
X154754232Y-109707385D01*
X154815771Y-109799476D01*
X154882952Y-109899764D01*
X154956145Y-110008830D01*
X155035719Y-110127252D01*
X155073161Y-110182936D01*
X155168267Y-110330382D01*
X155255079Y-110478003D01*
X155336579Y-110630925D01*
X155352876Y-110663343D01*
X155386247Y-110731162D01*
X155414222Y-110789918D01*
X155437481Y-110841262D01*
X155456706Y-110886846D01*
X155472576Y-110928320D01*
X155485774Y-110967336D01*
X155496979Y-111005545D01*
X155502190Y-111025428D01*
X155520758Y-111117364D01*
X155529240Y-111205547D01*
X155527691Y-111289221D01*
X155516168Y-111367632D01*
X155494725Y-111440025D01*
X155467389Y-111498699D01*
X155447434Y-111528708D01*
X155419909Y-111562334D01*
X155387665Y-111596623D01*
X155353554Y-111628622D01*
X155320426Y-111655377D01*
X155307504Y-111664332D01*
X155238836Y-111702112D01*
X155161420Y-111731819D01*
X155075876Y-111753380D01*
X154982823Y-111766724D01*
X154882880Y-111771777D01*
X154776665Y-111768468D01*
X154664798Y-111756723D01*
X154602260Y-111746849D01*
X154554914Y-111737563D01*
X154498319Y-111724873D01*
X154434859Y-111709423D01*
X154366920Y-111691854D01*
X154296887Y-111672806D01*
X154227146Y-111652924D01*
X154160081Y-111632847D01*
X154098078Y-111613218D01*
X154066882Y-111602806D01*
X154040394Y-111593967D01*
X154023653Y-111589157D01*
X154014824Y-111588209D01*
X154012072Y-111590955D01*
X154013563Y-111597229D01*
X154013851Y-111597982D01*
X154020798Y-111618402D01*
X154029625Y-111648088D01*
X154039599Y-111684270D01*
X154049986Y-111724175D01*
X154060056Y-111765032D01*
X154069073Y-111804070D01*
X154072438Y-111819571D01*
X154102681Y-111986912D01*
X154122679Y-112154472D01*
X154132394Y-112320889D01*
X154131786Y-112484801D01*
X154120816Y-112644849D01*
X154100365Y-112794381D01*
X154067816Y-112951082D01*
X154024809Y-113103581D01*
X153970924Y-113253001D01*
X153905740Y-113400460D01*
X153828836Y-113547082D01*
X153797107Y-113601712D01*
X153715990Y-113727121D01*
X153623724Y-113850293D01*
X153521435Y-113970056D01*
X153410246Y-114085240D01*
X153291280Y-114194673D01*
X153165662Y-114297185D01*
X153046900Y-114383208D01*
X153024280Y-114399388D01*
X153008589Y-114412160D01*
X153001139Y-114420383D01*
X153001521Y-114422815D01*
X153012915Y-114425566D01*
X153030310Y-114428912D01*
X153034777Y-114429677D01*
X153084011Y-114441190D01*
X153139261Y-114459774D01*
X153197540Y-114484088D01*
X153255862Y-114512794D01*
X153311240Y-114544552D01*
X153352921Y-114572336D01*
X153391391Y-114602934D01*
X153431577Y-114639942D01*
X153470739Y-114680456D01*
X153506135Y-114721567D01*
X153535025Y-114760369D01*
X153545025Y-114776056D01*
X153579938Y-114845160D01*
X153604283Y-114917022D01*
X153617976Y-114990216D01*
X153620937Y-115063318D01*
X153613084Y-115134904D01*
X153594333Y-115203547D01*
X153572487Y-115253370D01*
X153534690Y-115313016D01*
X153487266Y-115365704D01*
X153431031Y-115411011D01*
X153366801Y-115448511D01*
X153295392Y-115477780D01*
X153217621Y-115498393D01*
X153134303Y-115509925D01*
X153074811Y-115512364D01*
X153015701Y-115510621D01*
X152960198Y-115504535D01*
X152904257Y-115493400D01*
X152843837Y-115476513D01*
X152814912Y-115467120D01*
X152768809Y-115451152D01*
X152731840Y-115437083D01*
X152701234Y-115423653D01*
X152674219Y-115409602D01*
X152648023Y-115393669D01*
X152636323Y-115385928D01*
X152595095Y-115358111D01*
X152591396Y-115392747D01*
X152583295Y-115453181D01*
X152572305Y-115505090D01*
X152557277Y-115552146D01*
X152537063Y-115598019D01*
X152513658Y-115641030D01*
X152489524Y-115676711D01*
X152457718Y-115715463D01*
X152421180Y-115754097D01*
X152382845Y-115789421D01*
X152360359Y-115807581D01*
X152295522Y-115849467D01*
X152225486Y-115881300D01*
X152151613Y-115903234D01*
X152075264Y-115915421D01*
X151997803Y-115918016D01*
X151920591Y-115911171D01*
X151844990Y-115895041D01*
X151772363Y-115869778D01*
X151704070Y-115835537D01*
X151641475Y-115792470D01*
X151585939Y-115740730D01*
X151566408Y-115718136D01*
X151533103Y-115677084D01*
X151507099Y-115734818D01*
X151485911Y-115778760D01*
X151464728Y-115814894D01*
X151441379Y-115845626D01*
X151413697Y-115873363D01*
X151379513Y-115900513D01*
X151336659Y-115929481D01*
X151325104Y-115936807D01*
X151290927Y-115957278D01*
X151259274Y-115973655D01*
X151226457Y-115987500D01*
X151188785Y-116000374D01*
X151143942Y-116013458D01*
X151107970Y-116021119D01*
X151063991Y-116026953D01*
X151015473Y-116030822D01*
X150965881Y-116032585D01*
X150918683Y-116032102D01*
X150877345Y-116029235D01*
X150851387Y-116025249D01*
X150767390Y-116001690D01*
X150690337Y-115968194D01*
X150620647Y-115925088D01*
X150558739Y-115872701D01*
X150505036Y-115811357D01*
X150459955Y-115741387D01*
X150442420Y-115706799D01*
X150422599Y-115660606D01*
X150407998Y-115616575D01*
X150397344Y-115570060D01*
X150389364Y-115516412D01*
X150388655Y-115510398D01*
X150387165Y-115465223D01*
X150540608Y-115465223D01*
X150540621Y-115485894D01*
X150541015Y-115519832D01*
X150542240Y-115544853D01*
X150544775Y-115564354D01*
X150549099Y-115581732D01*
X150555690Y-115600383D01*
X150557352Y-115604641D01*
X150588710Y-115667713D01*
X150630271Y-115724140D01*
X150681667Y-115773603D01*
X150742531Y-115815785D01*
X150812497Y-115850365D01*
X150860579Y-115867942D01*
X150907307Y-115878437D01*
X150961165Y-115882890D01*
X151018527Y-115881263D01*
X151075766Y-115873518D01*
X151090688Y-115870383D01*
X151165885Y-115847140D01*
X151235424Y-115813219D01*
X151298561Y-115769235D01*
X151354556Y-115715803D01*
X151402666Y-115653538D01*
X151442149Y-115583056D01*
X151445311Y-115576205D01*
X151457315Y-115549734D01*
X151470340Y-115521000D01*
X151476642Y-115507090D01*
X151488106Y-115485221D01*
X151499781Y-115471844D01*
X151513648Y-115463873D01*
X151541173Y-115457612D01*
X151565325Y-115463175D01*
X151585999Y-115480508D01*
X151602793Y-115508885D01*
X151615688Y-115532661D01*
X151635112Y-115561991D01*
X151658718Y-115593889D01*
X151684159Y-115625367D01*
X151709090Y-115653439D01*
X151731162Y-115675117D01*
X151737642Y-115680534D01*
X151800060Y-115722490D01*
X151865616Y-115752921D01*
X151933636Y-115771582D01*
X152003449Y-115778227D01*
X152006212Y-115778239D01*
X152054125Y-115776289D01*
X152097167Y-115769637D01*
X152139535Y-115757243D01*
X152185427Y-115738070D01*
X152203302Y-115729464D01*
X152267627Y-115691785D01*
X152322942Y-115646504D01*
X152369015Y-115594700D01*
X152406493Y-115538436D01*
X152435718Y-115477652D01*
X152457319Y-115410584D01*
X152471924Y-115335472D01*
X152477036Y-115291883D01*
X152480529Y-115259647D01*
X152484149Y-115237608D01*
X152488378Y-115223652D01*
X152493696Y-115215664D01*
X152494563Y-115214895D01*
X152505373Y-115202822D01*
X152509822Y-115194878D01*
X152518616Y-115186819D01*
X152533281Y-115184166D01*
X152548540Y-115187089D01*
X152557449Y-115193338D01*
X152567134Y-115201124D01*
X152572075Y-115202577D01*
X152580078Y-115205546D01*
X152595959Y-115213535D01*
X152617070Y-115225165D01*
X152631372Y-115233451D01*
X152696436Y-115267422D01*
X152767317Y-115296591D01*
X152841465Y-115320337D01*
X152916332Y-115338036D01*
X152989368Y-115349065D01*
X153058023Y-115352800D01*
X153108602Y-115350061D01*
X153179013Y-115337628D01*
X153243324Y-115317411D01*
X153300707Y-115290087D01*
X153350335Y-115256332D01*
X153391380Y-115216821D01*
X153423015Y-115172230D01*
X153444412Y-115123236D01*
X153454744Y-115070514D01*
X153455005Y-115067077D01*
X153452976Y-115009197D01*
X153439456Y-114950822D01*
X153415180Y-114892968D01*
X153380885Y-114836646D01*
X153337304Y-114782870D01*
X153285173Y-114732655D01*
X153225227Y-114687013D01*
X153158201Y-114646959D01*
X153145640Y-114640520D01*
X153062131Y-114605567D01*
X152974749Y-114582108D01*
X152884629Y-114570384D01*
X152810780Y-114569638D01*
X152739141Y-114572714D01*
X152641014Y-114620285D01*
X152485694Y-114691353D01*
X152326004Y-114755939D01*
X152160739Y-114814413D01*
X151988691Y-114867146D01*
X151808653Y-114914510D01*
X151619421Y-114956876D01*
X151429258Y-114992967D01*
X151385297Y-115000245D01*
X151333767Y-115008123D01*
X151277185Y-115016270D01*
X151218073Y-115024357D01*
X151158949Y-115032055D01*
X151102332Y-115039035D01*
X151050741Y-115044966D01*
X151006696Y-115049520D01*
X150977648Y-115052020D01*
X150948218Y-115054807D01*
X150927401Y-115058648D01*
X150911489Y-115064488D01*
X150898242Y-115072274D01*
X150880521Y-115082162D01*
X150855922Y-115093304D01*
X150829385Y-115103486D01*
X150826028Y-115104632D01*
X150771008Y-115126986D01*
X150722638Y-115155679D01*
X150676729Y-115193289D01*
X150666994Y-115202577D01*
X150620176Y-115254838D01*
X150583330Y-115311303D01*
X150559247Y-115362369D01*
X150551253Y-115382901D01*
X150545909Y-115400024D01*
X150542698Y-115417166D01*
X150541103Y-115437756D01*
X150540608Y-115465223D01*
X150387165Y-115465223D01*
X150386236Y-115437081D01*
X150395343Y-115362543D01*
G37*
%TO.C,C4*%
X152378233Y-124166000D02*
X152670767Y-124166000D01*
X152378233Y-125186000D02*
X152670767Y-125186000D01*
%TO.C,TP2*%
X110950000Y-118000000D02*
G75*
G03*
X110950000Y-118000000I-950000J0D01*
G01*
%TO.C,C15*%
X128938733Y-140378000D02*
X129231267Y-140378000D01*
X128938733Y-141398000D02*
X129231267Y-141398000D01*
%TO.C,R18*%
X137881500Y-146812474D02*
X137881500Y-146303026D01*
X138926500Y-146812474D02*
X138926500Y-146303026D01*
%TO.C,SW1*%
X133496000Y-149304000D02*
X133496000Y-147804000D01*
X132246000Y-145304000D02*
X127746000Y-145304000D01*
X126496000Y-147804000D02*
X126496000Y-149304000D01*
X127746000Y-151804000D02*
X132246000Y-151804000D01*
%TO.C,D2*%
X124708000Y-143100500D02*
X124708000Y-140640500D01*
X123238000Y-140640500D02*
X123238000Y-143100500D01*
X123238000Y-143100500D02*
X124708000Y-143100500D01*
%TO.C,R7*%
X107923724Y-140857500D02*
X107414276Y-140857500D01*
X107923724Y-139812500D02*
X107414276Y-139812500D01*
%TO.C,D4*%
X126061000Y-102122000D02*
X122911000Y-102122000D01*
X126061000Y-103822000D02*
X126061000Y-102122000D01*
X126061000Y-103822000D02*
X122911000Y-103822000D01*
%TO.C,J4*%
X144399000Y-149918000D02*
X144399000Y-150718000D01*
X150549000Y-151568000D02*
X147574000Y-151568000D01*
X144399000Y-150718000D02*
X144599000Y-150718000D01*
X151059000Y-152078000D02*
X151059000Y-148658000D01*
X144089000Y-148658000D02*
X144089000Y-152078000D01*
X144599000Y-151568000D02*
X147574000Y-151568000D01*
X151349000Y-148368000D02*
X151349000Y-149368000D01*
X144599000Y-150718000D02*
X144599000Y-151568000D01*
X150749000Y-149918000D02*
X150749000Y-150718000D01*
X150749000Y-150718000D02*
X150549000Y-150718000D01*
X144599000Y-149918000D02*
X144399000Y-149918000D01*
X150549000Y-149918000D02*
X150749000Y-149918000D01*
X144089000Y-152078000D02*
X151059000Y-152078000D01*
X144599000Y-149168000D02*
X144599000Y-149918000D01*
X150549000Y-150718000D02*
X150549000Y-151568000D01*
X147574000Y-149168000D02*
X144599000Y-149168000D01*
X151349000Y-148368000D02*
X150349000Y-148368000D01*
X151059000Y-148658000D02*
X144089000Y-148658000D01*
X147574000Y-149168000D02*
X150549000Y-149168000D01*
X150549000Y-149168000D02*
X150549000Y-149918000D01*
%TO.C,R17*%
X139731500Y-146812474D02*
X139731500Y-146303026D01*
X140776500Y-146812474D02*
X140776500Y-146303026D01*
%TO.C,R6*%
X107923724Y-137272500D02*
X107414276Y-137272500D01*
X107923724Y-138317500D02*
X107414276Y-138317500D01*
%TO.C,J3*%
X136354000Y-149167750D02*
X136354000Y-149917750D01*
X136154000Y-149917750D02*
X136154000Y-150717750D01*
X142814000Y-148657750D02*
X135844000Y-148657750D01*
X142304000Y-149917750D02*
X142504000Y-149917750D01*
X136354000Y-149917750D02*
X136154000Y-149917750D01*
X142304000Y-151567750D02*
X139329000Y-151567750D01*
X135844000Y-152077750D02*
X142814000Y-152077750D01*
X143104000Y-148367750D02*
X143104000Y-149367750D01*
X136354000Y-151567750D02*
X139329000Y-151567750D01*
X142814000Y-152077750D02*
X142814000Y-148657750D01*
X142304000Y-150717750D02*
X142304000Y-151567750D01*
X143104000Y-148367750D02*
X142104000Y-148367750D01*
X142504000Y-149917750D02*
X142504000Y-150717750D01*
X139329000Y-149167750D02*
X142304000Y-149167750D01*
X142504000Y-150717750D02*
X142304000Y-150717750D01*
X136354000Y-150717750D02*
X136354000Y-151567750D01*
X136154000Y-150717750D02*
X136354000Y-150717750D01*
X142304000Y-149167750D02*
X142304000Y-149917750D01*
X135844000Y-148657750D02*
X135844000Y-152077750D01*
X139329000Y-149167750D02*
X136354000Y-149167750D01*
%TO.C,F1*%
X104131000Y-107010748D02*
X104131000Y-109783252D01*
X107551000Y-107010748D02*
X107551000Y-109783252D01*
%TO.C,C17*%
X138933000Y-120123567D02*
X138933000Y-119831033D01*
X137913000Y-120123567D02*
X137913000Y-119831033D01*
%TO.C,J12*%
X153294000Y-144653000D02*
X154094000Y-144653000D01*
X152544000Y-138503000D02*
X153294000Y-138503000D01*
X151744000Y-137703000D02*
X152744000Y-137703000D01*
X154094000Y-144653000D02*
X154094000Y-144453000D01*
X152544000Y-141478000D02*
X152544000Y-144453000D01*
X155454000Y-144963000D02*
X155454000Y-137993000D01*
X154094000Y-138303000D02*
X154094000Y-138503000D01*
X154094000Y-144453000D02*
X154944000Y-144453000D01*
X154944000Y-144453000D02*
X154944000Y-141478000D01*
X152034000Y-144963000D02*
X155454000Y-144963000D01*
X152034000Y-137993000D02*
X152034000Y-144963000D01*
X152544000Y-144453000D02*
X153294000Y-144453000D01*
X155454000Y-137993000D02*
X152034000Y-137993000D01*
X153294000Y-138303000D02*
X154094000Y-138303000D01*
X152544000Y-141478000D02*
X152544000Y-138503000D01*
X154944000Y-138503000D02*
X154944000Y-141478000D01*
X153294000Y-138503000D02*
X153294000Y-138303000D01*
X153294000Y-144453000D02*
X153294000Y-144653000D01*
X154094000Y-138503000D02*
X154944000Y-138503000D01*
X151744000Y-137703000D02*
X151744000Y-138703000D01*
%TO.C,U3*%
X149994000Y-129480000D02*
X150494000Y-129480000D01*
X147694000Y-134680000D02*
X147194000Y-134680000D01*
X150394000Y-134680000D02*
X149444000Y-134680000D01*
X147194000Y-129480000D02*
X147694000Y-129480000D01*
%TO.C,J11*%
X160712000Y-144453000D02*
X160712000Y-141478000D01*
X158312000Y-144453000D02*
X159062000Y-144453000D01*
X158312000Y-141478000D02*
X158312000Y-138503000D01*
X161222000Y-137993000D02*
X157802000Y-137993000D01*
X157512000Y-137703000D02*
X157512000Y-138703000D01*
X157802000Y-137993000D02*
X157802000Y-144963000D01*
X159062000Y-144653000D02*
X159862000Y-144653000D01*
X159062000Y-144453000D02*
X159062000Y-144653000D01*
X160712000Y-138503000D02*
X160712000Y-141478000D01*
X159862000Y-138303000D02*
X159862000Y-138503000D01*
X159862000Y-144653000D02*
X159862000Y-144453000D01*
X158312000Y-138503000D02*
X159062000Y-138503000D01*
X158312000Y-141478000D02*
X158312000Y-144453000D01*
X159062000Y-138503000D02*
X159062000Y-138303000D01*
X159862000Y-144453000D02*
X160712000Y-144453000D01*
X157512000Y-137703000D02*
X158512000Y-137703000D01*
X159062000Y-138303000D02*
X159862000Y-138303000D01*
X157802000Y-144963000D02*
X161222000Y-144963000D01*
X161222000Y-144963000D02*
X161222000Y-137993000D01*
X159862000Y-138503000D02*
X160712000Y-138503000D01*
%TO.C,R3*%
X107923724Y-130697500D02*
X107414276Y-130697500D01*
X107923724Y-129652500D02*
X107414276Y-129652500D01*
%TO.C,R21*%
X140776500Y-143256474D02*
X140776500Y-142747026D01*
X139731500Y-143256474D02*
X139731500Y-142747026D01*
%TO.C,J7*%
X159735000Y-123214000D02*
X160585000Y-123214000D01*
X158185000Y-118989000D02*
X158185000Y-123214000D01*
X158185000Y-114764000D02*
X158935000Y-114764000D01*
X160585000Y-114764000D02*
X160585000Y-118989000D01*
X157385000Y-113964000D02*
X158385000Y-113964000D01*
X157675000Y-123724000D02*
X161095000Y-123724000D01*
X157385000Y-113964000D02*
X157385000Y-114964000D01*
X158185000Y-123214000D02*
X158935000Y-123214000D01*
X161095000Y-123724000D02*
X161095000Y-114254000D01*
X159735000Y-114764000D02*
X160585000Y-114764000D01*
X160585000Y-123214000D02*
X160585000Y-118989000D01*
X158935000Y-114564000D02*
X159735000Y-114564000D01*
X158185000Y-118989000D02*
X158185000Y-114764000D01*
X158935000Y-123414000D02*
X159735000Y-123414000D01*
X157675000Y-114254000D02*
X157675000Y-123724000D01*
X158935000Y-123214000D02*
X158935000Y-123414000D01*
X158935000Y-114764000D02*
X158935000Y-114564000D01*
X161095000Y-114254000D02*
X157675000Y-114254000D01*
X159735000Y-114564000D02*
X159735000Y-114764000D01*
X159735000Y-123414000D02*
X159735000Y-123214000D01*
%TO.C,J9*%
X152698000Y-98748000D02*
X152898000Y-98748000D01*
X152698000Y-97948000D02*
X152698000Y-97098000D01*
X146238000Y-96588000D02*
X146238000Y-100008000D01*
X153208000Y-100008000D02*
X153208000Y-96588000D01*
X146748000Y-97098000D02*
X149723000Y-97098000D01*
X152698000Y-99498000D02*
X152698000Y-98748000D01*
X152898000Y-98748000D02*
X152898000Y-97948000D01*
X149723000Y-99498000D02*
X152698000Y-99498000D01*
X146748000Y-99498000D02*
X146748000Y-98748000D01*
X153208000Y-96588000D02*
X146238000Y-96588000D01*
X146238000Y-100008000D02*
X153208000Y-100008000D01*
X145948000Y-100298000D02*
X146948000Y-100298000D01*
X149723000Y-99498000D02*
X146748000Y-99498000D01*
X146748000Y-97948000D02*
X146748000Y-97098000D01*
X152898000Y-97948000D02*
X152698000Y-97948000D01*
X146748000Y-98748000D02*
X146548000Y-98748000D01*
X146548000Y-97948000D02*
X146748000Y-97948000D01*
X152698000Y-97098000D02*
X149723000Y-97098000D01*
X146548000Y-98748000D02*
X146548000Y-97948000D01*
X145948000Y-100298000D02*
X145948000Y-99298000D01*
%TO.C,C14*%
X133965733Y-143508000D02*
X134258267Y-143508000D01*
X133965733Y-144528000D02*
X134258267Y-144528000D01*
%TO.C,TP3*%
X113950000Y-118000000D02*
G75*
G03*
X113950000Y-118000000I-950000J0D01*
G01*
%TO.C,D6*%
X104441000Y-100720000D02*
X110141000Y-100720000D01*
X104441000Y-100720000D02*
X104441000Y-105020000D01*
X104441000Y-105020000D02*
X110141000Y-105020000D01*
%TO.C,J6*%
X102849000Y-141585000D02*
X100249000Y-141585000D01*
X102849000Y-142855000D02*
X102849000Y-144185000D01*
X102849000Y-141585000D02*
X102849000Y-121205000D01*
X102849000Y-121205000D02*
X97649000Y-121205000D01*
X100249000Y-144185000D02*
X97649000Y-144185000D01*
X102849000Y-144185000D02*
X101519000Y-144185000D01*
X97649000Y-144185000D02*
X97649000Y-121205000D01*
X100249000Y-141585000D02*
X100249000Y-144185000D01*
%TO.C,C3*%
X147119767Y-122084000D02*
X146827233Y-122084000D01*
X147119767Y-121064000D02*
X146827233Y-121064000D01*
%TO.C,G\u002A\u002A\u002A*%
G36*
X152048221Y-116385676D02*
G01*
X152063157Y-116417220D01*
X152065922Y-116445757D01*
X152065402Y-116494758D01*
X152063890Y-116557268D01*
X152061551Y-116629862D01*
X152058548Y-116709115D01*
X152055047Y-116791601D01*
X152051211Y-116873896D01*
X152047206Y-116952574D01*
X152043195Y-117024210D01*
X152039343Y-117085379D01*
X152035815Y-117132655D01*
X152032775Y-117162614D01*
X152031087Y-117171307D01*
X152012490Y-117192677D01*
X151985430Y-117194949D01*
X151954285Y-117178175D01*
X151945612Y-117170257D01*
X151935643Y-117159003D01*
X151928227Y-117145656D01*
X151922768Y-117126506D01*
X151918668Y-117097843D01*
X151915332Y-117055957D01*
X151912162Y-116997136D01*
X151909919Y-116948309D01*
X151907506Y-116867219D01*
X151906864Y-116778658D01*
X151907941Y-116691780D01*
X151910685Y-116615739D01*
X151911944Y-116594631D01*
X151916558Y-116530523D01*
X151920870Y-116485192D01*
X151925774Y-116454388D01*
X151932161Y-116433859D01*
X151940924Y-116419355D01*
X151951043Y-116408457D01*
X151989432Y-116380408D01*
X152022735Y-116373110D01*
X152048221Y-116385676D01*
G37*
G36*
X148432884Y-116755398D02*
G01*
X148451248Y-116717418D01*
X148482708Y-116668550D01*
X148523556Y-116613206D01*
X148570085Y-116555796D01*
X148618587Y-116500731D01*
X148665354Y-116452422D01*
X148706679Y-116415278D01*
X148735502Y-116395382D01*
X148805658Y-116368651D01*
X148873933Y-116362157D01*
X148936996Y-116375597D01*
X148991516Y-116408668D01*
X149003169Y-116419708D01*
X149027771Y-116449916D01*
X149046305Y-116485649D01*
X149060128Y-116531339D01*
X149070598Y-116591416D01*
X149078715Y-116666282D01*
X149083508Y-116787687D01*
X149074272Y-116891378D01*
X149050708Y-116978168D01*
X149012517Y-117048867D01*
X148959401Y-117104287D01*
X148905001Y-117138650D01*
X148835701Y-117165651D01*
X148770691Y-117173122D01*
X148703123Y-117161292D01*
X148662668Y-117146757D01*
X148588697Y-117109520D01*
X148523155Y-117063469D01*
X148471593Y-117012903D01*
X148449313Y-116981567D01*
X148425650Y-116920772D01*
X148417678Y-116850644D01*
X148422022Y-116813330D01*
X148585348Y-116813330D01*
X148588228Y-116873908D01*
X148612985Y-116928264D01*
X148643346Y-116962370D01*
X148699611Y-117002088D01*
X148756777Y-117021246D01*
X148812086Y-117019325D01*
X148853498Y-117002040D01*
X148890551Y-116971860D01*
X148915930Y-116932357D01*
X148931526Y-116879237D01*
X148939226Y-116808206D01*
X148939292Y-116806966D01*
X148938973Y-116717752D01*
X148928307Y-116643125D01*
X148907801Y-116585555D01*
X148888093Y-116556976D01*
X148865718Y-116536901D01*
X148842716Y-116529923D01*
X148810861Y-116532036D01*
X148780566Y-116539010D01*
X148753824Y-116553847D01*
X148723694Y-116580991D01*
X148707258Y-116598319D01*
X148644934Y-116675129D01*
X148604274Y-116746934D01*
X148585348Y-116813330D01*
X148422022Y-116813330D01*
X148425986Y-116779276D01*
X148432884Y-116755398D01*
G37*
G36*
X150157345Y-116374146D02*
G01*
X150172281Y-116405690D01*
X150175046Y-116434227D01*
X150174526Y-116483228D01*
X150173014Y-116545738D01*
X150170675Y-116618332D01*
X150167672Y-116697585D01*
X150164171Y-116780071D01*
X150160335Y-116862366D01*
X150156330Y-116941044D01*
X150152319Y-117012680D01*
X150148467Y-117073849D01*
X150144939Y-117121125D01*
X150141899Y-117151084D01*
X150140211Y-117159777D01*
X150121614Y-117181147D01*
X150094554Y-117183419D01*
X150063408Y-117166645D01*
X150054736Y-117158727D01*
X150044767Y-117147473D01*
X150037351Y-117134126D01*
X150031892Y-117114977D01*
X150027792Y-117086314D01*
X150024456Y-117044427D01*
X150021286Y-116985606D01*
X150019043Y-116936780D01*
X150016630Y-116855689D01*
X150015988Y-116767128D01*
X150017065Y-116680250D01*
X150019809Y-116604209D01*
X150021068Y-116583101D01*
X150025682Y-116518993D01*
X150029994Y-116473663D01*
X150034898Y-116442858D01*
X150041285Y-116422330D01*
X150050048Y-116407825D01*
X150060167Y-116396927D01*
X150098556Y-116368878D01*
X150131859Y-116361580D01*
X150157345Y-116374146D01*
G37*
G36*
X149787210Y-116337385D02*
G01*
X149805313Y-116356044D01*
X149813267Y-116371022D01*
X149820367Y-116386774D01*
X149824581Y-116401329D01*
X149824644Y-116416743D01*
X149819293Y-116435070D01*
X149807263Y-116458365D01*
X149787292Y-116488684D01*
X149758115Y-116528079D01*
X149718468Y-116578607D01*
X149667088Y-116642321D01*
X149602711Y-116721277D01*
X149583029Y-116745364D01*
X149542317Y-116795648D01*
X149507610Y-116839420D01*
X149481186Y-116873729D01*
X149465322Y-116895629D01*
X149461788Y-116902254D01*
X149476963Y-116910068D01*
X149509025Y-116923731D01*
X149553123Y-116941391D01*
X149604408Y-116961199D01*
X149658028Y-116981304D01*
X149709136Y-116999856D01*
X149752879Y-117015004D01*
X149779726Y-117023551D01*
X149835139Y-117043183D01*
X149871004Y-117065227D01*
X149890810Y-117093148D01*
X149898046Y-117130411D01*
X149898300Y-117141320D01*
X149894898Y-117170589D01*
X149882293Y-117186045D01*
X149856888Y-117188988D01*
X149815083Y-117180714D01*
X149800297Y-117176662D01*
X149773613Y-117167926D01*
X149729749Y-117152254D01*
X149672940Y-117131256D01*
X149607425Y-117106544D01*
X149537439Y-117079726D01*
X149467220Y-117052414D01*
X149401004Y-117026216D01*
X149347755Y-117004686D01*
X149339043Y-117008167D01*
X149334066Y-117029313D01*
X149332194Y-117066306D01*
X149329469Y-117123627D01*
X149322758Y-117161614D01*
X149310776Y-117183835D01*
X149292240Y-117193855D01*
X149285872Y-117194940D01*
X149255085Y-117190172D01*
X149228679Y-117175797D01*
X149219723Y-117168057D01*
X149212875Y-117159204D01*
X149207796Y-117146213D01*
X149204152Y-117126058D01*
X149201603Y-117095713D01*
X149199813Y-117052153D01*
X149198446Y-116992353D01*
X149197162Y-116913287D01*
X149196811Y-116889862D01*
X149196004Y-116807194D01*
X149195990Y-116725863D01*
X149196711Y-116650893D01*
X149198111Y-116587311D01*
X149200132Y-116540143D01*
X149200903Y-116529310D01*
X149205789Y-116479831D01*
X149211906Y-116446954D01*
X149221291Y-116424237D01*
X149235985Y-116405235D01*
X149242205Y-116398824D01*
X149275814Y-116374795D01*
X149307763Y-116368269D01*
X149333205Y-116379110D01*
X149346044Y-116401697D01*
X149348425Y-116423160D01*
X149349676Y-116462743D01*
X149349757Y-116515536D01*
X149348624Y-116576625D01*
X149347779Y-116603467D01*
X149346010Y-116663063D01*
X149345172Y-116713009D01*
X149345278Y-116749499D01*
X149346340Y-116768730D01*
X149347271Y-116770649D01*
X149356730Y-116759973D01*
X149380066Y-116733232D01*
X149416078Y-116691811D01*
X149463565Y-116637092D01*
X149521327Y-116570458D01*
X149588162Y-116493293D01*
X149662872Y-116406981D01*
X149664950Y-116404580D01*
X149699242Y-116366917D01*
X149724682Y-116344648D01*
X149745792Y-116334382D01*
X149761105Y-116332519D01*
X149787210Y-116337385D01*
G37*
G36*
X152754219Y-116361230D02*
G01*
X152783709Y-116373097D01*
X152792229Y-116378614D01*
X152818579Y-116405055D01*
X152836519Y-116437306D01*
X152842538Y-116467530D01*
X152838583Y-116482080D01*
X152823872Y-116489970D01*
X152791819Y-116499129D01*
X152747984Y-116508120D01*
X152721581Y-116512367D01*
X152617700Y-116530308D01*
X152523532Y-116552028D01*
X152444584Y-116576182D01*
X152417190Y-116586770D01*
X152370714Y-116606248D01*
X152356127Y-116707133D01*
X152350251Y-116752780D01*
X152346931Y-116789134D01*
X152346610Y-116810662D01*
X152347523Y-116814000D01*
X152360914Y-116814312D01*
X152389609Y-116809048D01*
X152420115Y-116801319D01*
X152471488Y-116788052D01*
X152533154Y-116773853D01*
X152599843Y-116759743D01*
X152666286Y-116746746D01*
X152727214Y-116735882D01*
X152777358Y-116728175D01*
X152811448Y-116724645D01*
X152816023Y-116724530D01*
X152856663Y-116732430D01*
X152893604Y-116752869D01*
X152920404Y-116780958D01*
X152930620Y-116811505D01*
X152926620Y-116830424D01*
X152910429Y-116840626D01*
X152887383Y-116845389D01*
X152823359Y-116856654D01*
X152752414Y-116871621D01*
X152678089Y-116889273D01*
X152603924Y-116908592D01*
X152533457Y-116928562D01*
X152470230Y-116948164D01*
X152417782Y-116966382D01*
X152379652Y-116982199D01*
X152359381Y-116994596D01*
X152357219Y-116997749D01*
X152362774Y-117014107D01*
X152385555Y-117032032D01*
X152420224Y-117048341D01*
X152461253Y-117059812D01*
X152501719Y-117062747D01*
X152555285Y-117057921D01*
X152618271Y-117046648D01*
X152690224Y-117033000D01*
X152743785Y-117026033D01*
X152782654Y-117025808D01*
X152810528Y-117032387D01*
X152831104Y-117045830D01*
X152835517Y-117050245D01*
X152855873Y-117079089D01*
X152866866Y-117105011D01*
X152869804Y-117128482D01*
X152863516Y-117146407D01*
X152845182Y-117160208D01*
X152811985Y-117171306D01*
X152761106Y-117181123D01*
X152698446Y-117189963D01*
X152610174Y-117200381D01*
X152540665Y-117206106D01*
X152486110Y-117207169D01*
X152442703Y-117203600D01*
X152406636Y-117195430D01*
X152397474Y-117192372D01*
X152332019Y-117161508D01*
X152281283Y-117119746D01*
X152244159Y-117064977D01*
X152219538Y-116995092D01*
X152206314Y-116907980D01*
X152203197Y-116822295D01*
X152205369Y-116757017D01*
X152211197Y-116687482D01*
X152219912Y-116618276D01*
X152230747Y-116553989D01*
X152242934Y-116499206D01*
X152255704Y-116458517D01*
X152267684Y-116437086D01*
X152294015Y-116424460D01*
X152334167Y-116420929D01*
X152364735Y-116418800D01*
X152411106Y-116411860D01*
X152466794Y-116401216D01*
X152521025Y-116389021D01*
X152603365Y-116370526D01*
X152667425Y-116359815D01*
X152716583Y-116356760D01*
X152754219Y-116361230D01*
G37*
G36*
X150937508Y-116351123D02*
G01*
X150970361Y-116369538D01*
X150996357Y-116395083D01*
X151012722Y-116423548D01*
X151016678Y-116450720D01*
X151005452Y-116472390D01*
X150990742Y-116480832D01*
X150967671Y-116486748D01*
X150928857Y-116494317D01*
X150881418Y-116502192D01*
X150864718Y-116504681D01*
X150764635Y-116519144D01*
X150758137Y-116590130D01*
X150755599Y-116623392D01*
X150752294Y-116674945D01*
X150748496Y-116740044D01*
X150744481Y-116813946D01*
X150740522Y-116891905D01*
X150739770Y-116907384D01*
X150735712Y-116981588D01*
X150731121Y-117048907D01*
X150726325Y-117105601D01*
X150721653Y-117147927D01*
X150717433Y-117172145D01*
X150716236Y-117175451D01*
X150695678Y-117194164D01*
X150667269Y-117193516D01*
X150635142Y-117173850D01*
X150629196Y-117168230D01*
X150600178Y-117139212D01*
X150603778Y-116845104D01*
X150607379Y-116550996D01*
X150572789Y-116558600D01*
X150542091Y-116566632D01*
X150500952Y-116578963D01*
X150474787Y-116587435D01*
X150422799Y-116602740D01*
X150385481Y-116607289D01*
X150356863Y-116600609D01*
X150330978Y-116582229D01*
X150324013Y-116575530D01*
X150296945Y-116539378D01*
X150292455Y-116507491D01*
X150310488Y-116479638D01*
X150332088Y-116468215D01*
X150372413Y-116453868D01*
X150427455Y-116437519D01*
X150493203Y-116420090D01*
X150565646Y-116402502D01*
X150640775Y-116385676D01*
X150714578Y-116370533D01*
X150783046Y-116357996D01*
X150842168Y-116348986D01*
X150887935Y-116344424D01*
X150900575Y-116344048D01*
X150937508Y-116351123D01*
G37*
G36*
X151721530Y-116362652D02*
G01*
X151754382Y-116381068D01*
X151780379Y-116406613D01*
X151796743Y-116435077D01*
X151800700Y-116462250D01*
X151789474Y-116483920D01*
X151774764Y-116492362D01*
X151751693Y-116498277D01*
X151712879Y-116505846D01*
X151665440Y-116513721D01*
X151648739Y-116516210D01*
X151548657Y-116530674D01*
X151542159Y-116601660D01*
X151539621Y-116634922D01*
X151536316Y-116686475D01*
X151532518Y-116751574D01*
X151528503Y-116825476D01*
X151524544Y-116903435D01*
X151523792Y-116918914D01*
X151519734Y-116993118D01*
X151515143Y-117060437D01*
X151510347Y-117117130D01*
X151505675Y-117159457D01*
X151501454Y-117183675D01*
X151500258Y-117186980D01*
X151479699Y-117205693D01*
X151451291Y-117205046D01*
X151419164Y-117185380D01*
X151413218Y-117179760D01*
X151384200Y-117150742D01*
X151391400Y-116562526D01*
X151356811Y-116570130D01*
X151326113Y-116578161D01*
X151284974Y-116590493D01*
X151258808Y-116598964D01*
X151206821Y-116614270D01*
X151169503Y-116618818D01*
X151140885Y-116612138D01*
X151115000Y-116593758D01*
X151108035Y-116587060D01*
X151080967Y-116550907D01*
X151076477Y-116519021D01*
X151094510Y-116491167D01*
X151116109Y-116479744D01*
X151156435Y-116465398D01*
X151211477Y-116449049D01*
X151277225Y-116431620D01*
X151349668Y-116414031D01*
X151424797Y-116397205D01*
X151498600Y-116382063D01*
X151567068Y-116369526D01*
X151626190Y-116360516D01*
X151671957Y-116355954D01*
X151684597Y-116355578D01*
X151721530Y-116362652D01*
G37*
G36*
X147404423Y-116338171D02*
G01*
X147433913Y-116350037D01*
X147442433Y-116355554D01*
X147468784Y-116381995D01*
X147486724Y-116414246D01*
X147492743Y-116444471D01*
X147488787Y-116459020D01*
X147474076Y-116466910D01*
X147442024Y-116476070D01*
X147398188Y-116485060D01*
X147371785Y-116489307D01*
X147267905Y-116507248D01*
X147173736Y-116528969D01*
X147094788Y-116553122D01*
X147067394Y-116563710D01*
X147020918Y-116583188D01*
X147006332Y-116684074D01*
X147000456Y-116729720D01*
X146997135Y-116766074D01*
X146996815Y-116787603D01*
X146997727Y-116790941D01*
X147011118Y-116791252D01*
X147039813Y-116785989D01*
X147070319Y-116778260D01*
X147121693Y-116764993D01*
X147183358Y-116750793D01*
X147250047Y-116736684D01*
X147316491Y-116723687D01*
X147377419Y-116712823D01*
X147427562Y-116705115D01*
X147461652Y-116701585D01*
X147466227Y-116701470D01*
X147506867Y-116709370D01*
X147543809Y-116729810D01*
X147570608Y-116757898D01*
X147580824Y-116788446D01*
X147576824Y-116807364D01*
X147560633Y-116817567D01*
X147537587Y-116822330D01*
X147473563Y-116833595D01*
X147402619Y-116848562D01*
X147328294Y-116866213D01*
X147254128Y-116885533D01*
X147183662Y-116905502D01*
X147120434Y-116925105D01*
X147067986Y-116943323D01*
X147029856Y-116959139D01*
X147009586Y-116971537D01*
X147007424Y-116974689D01*
X147012979Y-116991047D01*
X147035760Y-117008973D01*
X147070428Y-117025281D01*
X147111457Y-117036752D01*
X147151924Y-117039688D01*
X147205489Y-117034861D01*
X147268475Y-117023588D01*
X147340428Y-117009940D01*
X147393990Y-117002973D01*
X147432858Y-117002748D01*
X147460732Y-117009327D01*
X147481308Y-117022770D01*
X147485722Y-117027185D01*
X147506077Y-117056030D01*
X147517070Y-117081951D01*
X147520008Y-117105422D01*
X147513720Y-117123348D01*
X147495386Y-117137148D01*
X147462189Y-117148246D01*
X147411310Y-117158063D01*
X147348651Y-117166903D01*
X147260378Y-117177322D01*
X147190869Y-117183047D01*
X147136314Y-117184110D01*
X147092907Y-117180541D01*
X147056840Y-117172371D01*
X147047678Y-117169313D01*
X146982223Y-117138448D01*
X146931488Y-117096686D01*
X146894363Y-117041918D01*
X146869742Y-116972032D01*
X146856518Y-116884920D01*
X146853401Y-116799236D01*
X146855573Y-116733958D01*
X146861401Y-116664422D01*
X146870117Y-116595217D01*
X146880951Y-116530929D01*
X146893138Y-116476147D01*
X146905908Y-116435457D01*
X146917888Y-116414027D01*
X146944219Y-116401401D01*
X146984371Y-116397870D01*
X147014940Y-116395740D01*
X147061310Y-116388800D01*
X147116998Y-116378157D01*
X147171229Y-116365962D01*
X147253569Y-116347466D01*
X147317629Y-116336756D01*
X147366788Y-116333700D01*
X147404423Y-116338171D01*
G37*
G36*
X153527616Y-116387995D02*
G01*
X153576358Y-116413402D01*
X153610578Y-116450005D01*
X153625070Y-116485249D01*
X153632749Y-116527309D01*
X153633114Y-116567926D01*
X153625663Y-116598838D01*
X153620098Y-116606926D01*
X153592687Y-116621084D01*
X153563361Y-116614223D01*
X153536241Y-116587578D01*
X153531693Y-116580408D01*
X153507678Y-116550186D01*
X153481855Y-116540083D01*
X153480220Y-116540054D01*
X153449207Y-116545972D01*
X153408775Y-116561985D01*
X153362852Y-116585478D01*
X153315369Y-116613838D01*
X153270255Y-116644451D01*
X153231439Y-116674702D01*
X153202850Y-116701978D01*
X153188418Y-116723665D01*
X153188737Y-116733953D01*
X153200731Y-116739460D01*
X153230000Y-116743464D01*
X153278143Y-116746070D01*
X153346757Y-116747381D01*
X153398625Y-116747589D01*
X153482963Y-116748197D01*
X153547794Y-116750484D01*
X153596645Y-116755145D01*
X153633046Y-116762875D01*
X153660529Y-116774367D01*
X153682621Y-116790317D01*
X153698681Y-116806634D01*
X153726923Y-116853575D01*
X153733162Y-116904962D01*
X153717690Y-116959336D01*
X153680795Y-117015239D01*
X153651150Y-117046416D01*
X153564363Y-117112867D01*
X153465176Y-117160463D01*
X153355341Y-117188549D01*
X153247687Y-117196602D01*
X153188506Y-117194179D01*
X153145433Y-117186735D01*
X153113939Y-117174289D01*
X153064957Y-117136453D01*
X153034231Y-117085303D01*
X153027115Y-117060003D01*
X153026236Y-117037857D01*
X153035921Y-117023825D01*
X153058833Y-117017399D01*
X153097636Y-117018072D01*
X153154991Y-117025337D01*
X153184227Y-117030060D01*
X153271075Y-117040552D01*
X153342454Y-117039263D01*
X153403120Y-117025492D01*
X153457828Y-116998536D01*
X153474556Y-116987225D01*
X153511345Y-116959331D01*
X153529983Y-116940397D01*
X153532112Y-116927555D01*
X153519378Y-116917937D01*
X153515283Y-116916184D01*
X153495981Y-116912707D01*
X153457594Y-116909204D01*
X153404095Y-116905854D01*
X153339458Y-116902840D01*
X153267656Y-116900342D01*
X153192663Y-116898541D01*
X153118452Y-116897619D01*
X153106630Y-116897564D01*
X153081764Y-116890064D01*
X153052312Y-116871570D01*
X153045387Y-116865769D01*
X153013153Y-116822761D01*
X153001462Y-116771220D01*
X153010649Y-116713725D01*
X153021894Y-116686167D01*
X153057944Y-116629826D01*
X153109986Y-116572501D01*
X153173458Y-116517307D01*
X153243798Y-116467354D01*
X153316444Y-116425756D01*
X153386832Y-116395627D01*
X153450402Y-116380078D01*
X153472599Y-116378638D01*
X153527616Y-116387995D01*
G37*
G36*
X147678548Y-116555959D02*
G01*
X147650769Y-116516236D01*
X147639486Y-116477338D01*
X147642698Y-116453434D01*
X147650494Y-116441976D01*
X147666739Y-116431092D01*
X147694749Y-116419461D01*
X147737839Y-116405762D01*
X147799323Y-116388675D01*
X147817183Y-116383923D01*
X147930765Y-116358604D01*
X148036191Y-116344344D01*
X148131677Y-116340805D01*
X148215437Y-116347651D01*
X148285686Y-116364543D01*
X148340638Y-116391144D01*
X148378507Y-116427116D01*
X148397509Y-116472123D01*
X148399435Y-116493989D01*
X148396190Y-116527212D01*
X148385221Y-116559882D01*
X148364677Y-116594140D01*
X148332707Y-116632130D01*
X148287459Y-116675994D01*
X148227082Y-116727875D01*
X148149724Y-116789917D01*
X148131369Y-116804265D01*
X148086172Y-116839982D01*
X148048420Y-116870782D01*
X148021426Y-116893888D01*
X148008505Y-116906522D01*
X148007860Y-116907796D01*
X148017796Y-116915251D01*
X148044431Y-116930188D01*
X148083563Y-116950354D01*
X148125275Y-116970768D01*
X148201839Y-117010406D01*
X148256738Y-117045847D01*
X148290836Y-117077806D01*
X148304999Y-117106997D01*
X148305126Y-117119230D01*
X148296973Y-117139469D01*
X148278353Y-117147399D01*
X148246746Y-117142906D01*
X148199634Y-117125876D01*
X148170554Y-117113116D01*
X148118703Y-117091053D01*
X148060526Y-117068766D01*
X148001370Y-117048029D01*
X147946582Y-117030619D01*
X147901508Y-117018312D01*
X147871497Y-117012884D01*
X147868472Y-117012773D01*
X147855526Y-117015666D01*
X147848747Y-117027943D01*
X147846245Y-117055004D01*
X147846008Y-117076944D01*
X147843915Y-117117045D01*
X147838549Y-117150341D01*
X147834072Y-117163417D01*
X147812905Y-117181440D01*
X147782154Y-117184402D01*
X147750326Y-117171540D01*
X147749575Y-117170998D01*
X147736711Y-117157199D01*
X147726657Y-117135142D01*
X147719109Y-117102316D01*
X147713765Y-117056208D01*
X147710320Y-116994306D01*
X147708473Y-116914099D01*
X147707926Y-116826009D01*
X147707820Y-116734350D01*
X147846315Y-116734350D01*
X147847291Y-116769348D01*
X147849973Y-116790270D01*
X147852232Y-116793708D01*
X147865346Y-116788947D01*
X147891515Y-116776872D01*
X147906998Y-116769220D01*
X147941329Y-116749841D01*
X147987607Y-116720953D01*
X148040425Y-116686240D01*
X148094373Y-116649386D01*
X148144045Y-116614074D01*
X148184032Y-116583989D01*
X148206312Y-116565329D01*
X148232132Y-116533066D01*
X148236585Y-116506241D01*
X148221025Y-116486347D01*
X148186804Y-116474874D01*
X148135273Y-116473314D01*
X148123693Y-116474256D01*
X148081801Y-116480857D01*
X148028168Y-116492801D01*
X147972812Y-116507794D01*
X147959853Y-116511758D01*
X147860398Y-116543024D01*
X147853303Y-116602070D01*
X147849353Y-116644995D01*
X147847013Y-116690994D01*
X147846315Y-116734350D01*
X147707820Y-116734350D01*
X147707651Y-116587361D01*
X147678548Y-116555959D01*
G37*
G36*
X146091284Y-116810722D02*
G01*
X146127390Y-116735770D01*
X146164737Y-116660730D01*
X146201684Y-116588956D01*
X146236589Y-116523804D01*
X146267810Y-116468627D01*
X146293705Y-116426781D01*
X146312018Y-116402277D01*
X146354364Y-116366436D01*
X146394658Y-116353443D01*
X146433722Y-116363267D01*
X146472373Y-116395876D01*
X146472560Y-116396088D01*
X146488894Y-116415301D01*
X146503010Y-116434159D01*
X146516469Y-116455861D01*
X146530831Y-116483609D01*
X146547655Y-116520602D01*
X146568501Y-116570040D01*
X146594930Y-116635126D01*
X146621817Y-116702304D01*
X146670747Y-116826451D01*
X146710131Y-116929788D01*
X146740022Y-117012469D01*
X146760475Y-117074650D01*
X146771546Y-117116486D01*
X146773743Y-117133520D01*
X146765312Y-117160484D01*
X146741814Y-117171670D01*
X146705941Y-117166007D01*
X146698799Y-117163289D01*
X146666040Y-117141580D01*
X146637811Y-117103505D01*
X146614356Y-117053127D01*
X146591539Y-116995478D01*
X146529872Y-116996822D01*
X146472838Y-117004097D01*
X146399717Y-117023169D01*
X146313608Y-117053049D01*
X146217609Y-117092742D01*
X146186996Y-117106576D01*
X146141306Y-117126400D01*
X146101028Y-117141688D01*
X146072419Y-117150155D01*
X146065061Y-117151130D01*
X146036174Y-117141263D01*
X146008909Y-117116900D01*
X145990552Y-117085900D01*
X145986838Y-117066740D01*
X145992111Y-117042551D01*
X146006833Y-117001500D01*
X146029364Y-116946941D01*
X146034675Y-116934965D01*
X146219509Y-116934965D01*
X146245854Y-116927022D01*
X146267899Y-116921553D01*
X146306515Y-116913090D01*
X146355617Y-116902934D01*
X146393261Y-116895460D01*
X146444441Y-116885358D01*
X146487816Y-116876582D01*
X146517990Y-116870237D01*
X146528702Y-116867738D01*
X146533197Y-116858504D01*
X146529512Y-116834143D01*
X146517164Y-116792461D01*
X146503451Y-116752760D01*
X146477519Y-116683756D01*
X146455955Y-116634896D01*
X146437524Y-116603957D01*
X146420990Y-116588716D01*
X146410877Y-116586173D01*
X146389967Y-116596889D01*
X146363728Y-116627671D01*
X146333354Y-116676465D01*
X146300043Y-116741222D01*
X146264992Y-116819890D01*
X146243596Y-116872984D01*
X146219509Y-116934965D01*
X146034675Y-116934965D01*
X146058062Y-116882230D01*
X146091284Y-116810722D01*
G37*
%TO.C,R22*%
X137881500Y-143256474D02*
X137881500Y-142747026D01*
X138926500Y-143256474D02*
X138926500Y-142747026D01*
%TO.C,R25*%
X111647500Y-145922276D02*
X111647500Y-146431724D01*
X110602500Y-145922276D02*
X110602500Y-146431724D01*
%TO.C,C13*%
X132656733Y-135396000D02*
X132949267Y-135396000D01*
X132656733Y-134376000D02*
X132949267Y-134376000D01*
%TO.C,SW2*%
X118673000Y-151242000D02*
X118673000Y-152532000D01*
X116623000Y-149442000D02*
X116623000Y-150232000D01*
X119973000Y-152532000D02*
X119773000Y-152742000D01*
X118873000Y-152742000D02*
X119773000Y-152742000D01*
X117223000Y-151242000D02*
X122923000Y-151242000D01*
X118473000Y-148392000D02*
X120173000Y-148392000D01*
X119973000Y-152532000D02*
X119973000Y-151242000D01*
X121473000Y-148392000D02*
X121673000Y-148392000D01*
X118673000Y-152532000D02*
X118873000Y-152742000D01*
X123523000Y-150232000D02*
X123523000Y-149442000D01*
%TO.C,C8*%
X138806000Y-129015267D02*
X138806000Y-128722733D01*
X137786000Y-129015267D02*
X137786000Y-128722733D01*
%TO.C,C16*%
X132716000Y-138001733D02*
X132716000Y-138294267D01*
X131696000Y-138001733D02*
X131696000Y-138294267D01*
%TO.C,R13*%
X121926500Y-137766276D02*
X121926500Y-138275724D01*
X122971500Y-137766276D02*
X122971500Y-138275724D01*
%TO.C,C18*%
X125057267Y-118759000D02*
X124764733Y-118759000D01*
X125057267Y-117739000D02*
X124764733Y-117739000D01*
%TO.C,TP1*%
X107950000Y-118000000D02*
G75*
G03*
X107950000Y-118000000I-950000J0D01*
G01*
%TO.C,R4*%
X107923724Y-132192500D02*
X107414276Y-132192500D01*
X107923724Y-133237500D02*
X107414276Y-133237500D01*
%TO.C,C1*%
X118090267Y-126363000D02*
X117797733Y-126363000D01*
X118090267Y-127383000D02*
X117797733Y-127383000D01*
D10*
%TO.C,U2*%
X148436000Y-123276000D02*
X148036000Y-123276000D01*
X145236000Y-123276000D02*
X145236000Y-123676000D01*
X148436000Y-126476000D02*
X148436000Y-126076000D01*
X148436000Y-126476000D02*
X148036000Y-126476000D01*
X148436000Y-123276000D02*
X148436000Y-123676000D01*
X145236000Y-123276000D02*
X145636000Y-123276000D01*
X145236000Y-126476000D02*
X145236000Y-126076000D01*
D12*
%TO.C,J8*%
X158935000Y-112649000D02*
X159735000Y-112649000D01*
X157385000Y-105699000D02*
X157385000Y-106699000D01*
X158185000Y-106499000D02*
X158935000Y-106499000D01*
X159735000Y-112449000D02*
X160585000Y-112449000D01*
X159735000Y-112649000D02*
X159735000Y-112449000D01*
X160585000Y-112449000D02*
X160585000Y-109474000D01*
X161095000Y-105989000D02*
X157675000Y-105989000D01*
X161095000Y-112959000D02*
X161095000Y-105989000D01*
X160585000Y-106499000D02*
X160585000Y-109474000D01*
X157385000Y-105699000D02*
X158385000Y-105699000D01*
X158185000Y-109474000D02*
X158185000Y-106499000D01*
X158935000Y-106299000D02*
X159735000Y-106299000D01*
X159735000Y-106299000D02*
X159735000Y-106499000D01*
X158935000Y-106499000D02*
X158935000Y-106299000D01*
X158185000Y-112449000D02*
X158935000Y-112449000D01*
X157675000Y-105989000D02*
X157675000Y-112959000D01*
X157675000Y-112959000D02*
X161095000Y-112959000D01*
X159735000Y-106499000D02*
X160585000Y-106499000D01*
X158935000Y-112449000D02*
X158935000Y-112649000D01*
X158185000Y-109474000D02*
X158185000Y-112449000D01*
%TO.C,R11*%
X121784224Y-127155500D02*
X121274776Y-127155500D01*
X121784224Y-126110500D02*
X121274776Y-126110500D01*
%TO.C,R20*%
X147171500Y-146709224D02*
X147171500Y-146199776D01*
X146126500Y-146709224D02*
X146126500Y-146199776D01*
%TO.C,C9*%
X137383600Y-119831033D02*
X137383600Y-120123567D01*
X136363600Y-119831033D02*
X136363600Y-120123567D01*
%TO.C,U4*%
X135913000Y-130979000D02*
X134963000Y-130979000D01*
X126643000Y-130979000D02*
X126643000Y-132319000D01*
X125693000Y-130029000D02*
X125693000Y-130979000D01*
X125693000Y-130979000D02*
X126643000Y-130979000D01*
X125693000Y-121709000D02*
X125693000Y-120759000D01*
X135913000Y-121709000D02*
X135913000Y-120759000D01*
X135913000Y-120759000D02*
X134963000Y-120759000D01*
X125693000Y-120759000D02*
X126643000Y-120759000D01*
X135913000Y-130029000D02*
X135913000Y-130979000D01*
%TO.C,R9*%
X120300500Y-145056776D02*
X120300500Y-145566224D01*
X121345500Y-145056776D02*
X121345500Y-145566224D01*
%TO.C,R8*%
X107923724Y-142352500D02*
X107414276Y-142352500D01*
X107923724Y-143397500D02*
X107414276Y-143397500D01*
%TO.C,C7*%
X126360000Y-133000267D02*
X126360000Y-132707733D01*
X125340000Y-133000267D02*
X125340000Y-132707733D01*
%TO.C,D5*%
X96835000Y-107822000D02*
X102235000Y-107822000D01*
X96835000Y-104522000D02*
X96835000Y-107822000D01*
X96835000Y-104522000D02*
X102235000Y-104522000D01*
%TO.C,R14*%
X123450500Y-137766276D02*
X123450500Y-138275724D01*
X124495500Y-137766276D02*
X124495500Y-138275724D01*
%TO.C,R19*%
X147976500Y-146709224D02*
X147976500Y-146199776D01*
X149021500Y-146709224D02*
X149021500Y-146199776D01*
%TO.C,C6*%
X123816000Y-133000267D02*
X123816000Y-132707733D01*
X124836000Y-133000267D02*
X124836000Y-132707733D01*
%TO.C,R12*%
X121784224Y-125599500D02*
X121274776Y-125599500D01*
X121784224Y-124554500D02*
X121274776Y-124554500D01*
%TO.C,R1*%
X107923724Y-125617500D02*
X107414276Y-125617500D01*
X107923724Y-124572500D02*
X107414276Y-124572500D01*
%TO.C,J10*%
X158185000Y-129921000D02*
X158185000Y-125696000D01*
X157385000Y-124896000D02*
X158385000Y-124896000D01*
X158935000Y-125696000D02*
X158935000Y-125496000D01*
X159735000Y-134346000D02*
X159735000Y-134146000D01*
X161095000Y-134656000D02*
X161095000Y-125186000D01*
X157675000Y-125186000D02*
X157675000Y-134656000D01*
X159735000Y-125696000D02*
X160585000Y-125696000D01*
X160585000Y-134146000D02*
X160585000Y-129921000D01*
X159735000Y-125496000D02*
X159735000Y-125696000D01*
X158185000Y-134146000D02*
X158935000Y-134146000D01*
X158935000Y-134346000D02*
X159735000Y-134346000D01*
X158935000Y-125496000D02*
X159735000Y-125496000D01*
X158185000Y-129921000D02*
X158185000Y-134146000D01*
X161095000Y-125186000D02*
X157675000Y-125186000D01*
X159735000Y-134146000D02*
X160585000Y-134146000D01*
X157385000Y-124896000D02*
X157385000Y-125896000D01*
X158935000Y-134146000D02*
X158935000Y-134346000D01*
X157675000Y-134656000D02*
X161095000Y-134656000D01*
X158185000Y-125696000D02*
X158935000Y-125696000D01*
X160585000Y-125696000D02*
X160585000Y-129921000D01*
%TO.C,J13*%
X107315000Y-151063000D02*
X107315000Y-148403000D01*
X107315000Y-151063000D02*
X114995000Y-151063000D01*
X106045000Y-151063000D02*
X104715000Y-151063000D01*
X104715000Y-151063000D02*
X104715000Y-149733000D01*
X114995000Y-151063000D02*
X114995000Y-148403000D01*
X107315000Y-148403000D02*
X114995000Y-148403000D01*
%TO.C,D1*%
X121714000Y-143100500D02*
X123184000Y-143100500D01*
X121714000Y-140640500D02*
X121714000Y-143100500D01*
X123184000Y-143100500D02*
X123184000Y-140640500D01*
%TO.C,C19*%
X108183000Y-109770752D02*
X108183000Y-108348248D01*
X110003000Y-109770752D02*
X110003000Y-108348248D01*
%TO.C,R15*%
X126019500Y-137766276D02*
X126019500Y-138275724D01*
X124974500Y-137766276D02*
X124974500Y-138275724D01*
%TO.C,C11*%
X123820000Y-129222733D02*
X123820000Y-129515267D01*
X122800000Y-129222733D02*
X122800000Y-129515267D01*
%TO.C,J2*%
X113191000Y-98748000D02*
X113391000Y-98748000D01*
X104741000Y-99498000D02*
X104741000Y-98748000D01*
X113391000Y-97948000D02*
X113191000Y-97948000D01*
X103941000Y-100298000D02*
X104941000Y-100298000D01*
X108966000Y-99498000D02*
X113191000Y-99498000D01*
X113191000Y-99498000D02*
X113191000Y-98748000D01*
X104541000Y-98748000D02*
X104541000Y-97948000D01*
X113391000Y-98748000D02*
X113391000Y-97948000D01*
X104741000Y-97098000D02*
X108966000Y-97098000D01*
X104741000Y-98748000D02*
X104541000Y-98748000D01*
X108966000Y-99498000D02*
X104741000Y-99498000D01*
X113701000Y-96588000D02*
X104231000Y-96588000D01*
X103941000Y-100298000D02*
X103941000Y-99298000D01*
X113191000Y-97098000D02*
X108966000Y-97098000D01*
X104231000Y-100008000D02*
X113701000Y-100008000D01*
X113701000Y-100008000D02*
X113701000Y-96588000D01*
X104541000Y-97948000D02*
X104741000Y-97948000D01*
X113191000Y-97948000D02*
X113191000Y-97098000D01*
X104231000Y-96588000D02*
X104231000Y-100008000D01*
X104741000Y-97948000D02*
X104741000Y-97098000D01*
%TO.C,J5*%
X102729000Y-122555000D02*
X102729000Y-121225000D01*
X102729000Y-123825000D02*
X105389000Y-123825000D01*
X105389000Y-123825000D02*
X105389000Y-144205000D01*
X102729000Y-144205000D02*
X105389000Y-144205000D01*
X102729000Y-121225000D02*
X104059000Y-121225000D01*
X102729000Y-123825000D02*
X102729000Y-144205000D01*
%TO.C,R10*%
X129662500Y-134464276D02*
X129662500Y-134973724D01*
X130707500Y-134464276D02*
X130707500Y-134973724D01*
%TO.C,Y1*%
X127085000Y-139798000D02*
X131085000Y-139798000D01*
X127085000Y-136498000D02*
X127085000Y-139798000D01*
%TO.C,C10*%
X124764733Y-119263000D02*
X125057267Y-119263000D01*
X124764733Y-120283000D02*
X125057267Y-120283000D01*
%TO.C,D3*%
X126232000Y-143100500D02*
X126232000Y-140640500D01*
X124762000Y-143100500D02*
X126232000Y-143100500D01*
X124762000Y-140640500D02*
X124762000Y-143100500D01*
D13*
%TO.C,J1*%
X127629000Y-102036000D02*
X127629000Y-109236000D01*
X142379000Y-96236000D02*
X127629000Y-96236000D01*
D14*
X132629000Y-112036000D02*
X132629000Y-112036000D01*
D13*
X142379000Y-109236000D02*
X142379000Y-102036000D01*
X127629000Y-96236000D02*
X127629000Y-99336000D01*
X129129000Y-110736000D02*
X132129000Y-110736000D01*
X142379000Y-99336000D02*
X142379000Y-96236000D01*
D14*
X132829000Y-112036000D02*
X132829000Y-112036000D01*
X132829000Y-112036000D02*
G75*
G03*
X132629000Y-112036000I-100000J0D01*
G01*
X132629000Y-112036000D02*
G75*
G03*
X132829000Y-112036000I100000J0D01*
G01*
D12*
%TO.C,C12*%
X132656733Y-132852000D02*
X132949267Y-132852000D01*
X132656733Y-133872000D02*
X132949267Y-133872000D01*
%TO.C,R5*%
X107923724Y-134732500D02*
X107414276Y-134732500D01*
X107923724Y-135777500D02*
X107414276Y-135777500D01*
%TO.C,C2*%
X150600233Y-126398000D02*
X150892767Y-126398000D01*
X150600233Y-127418000D02*
X150892767Y-127418000D01*
%TO.C,R2*%
X107923724Y-128157500D02*
X107414276Y-128157500D01*
X107923724Y-127112500D02*
X107414276Y-127112500D01*
%TO.C,R24*%
X108062500Y-145922276D02*
X108062500Y-146431724D01*
X109107500Y-145922276D02*
X109107500Y-146431724D01*
%TO.C,U5*%
X110523000Y-111613000D02*
X111783000Y-111613000D01*
X110523000Y-107853000D02*
X110523000Y-111613000D01*
X117343000Y-111613000D02*
X116083000Y-111613000D01*
X117343000Y-105603000D02*
X117343000Y-111613000D01*
%TO.C,R16*%
X120635500Y-112522724D02*
X120635500Y-112013276D01*
X121680500Y-112522724D02*
X121680500Y-112013276D01*
%TD*%
M02*
