M48
; DRILL file {KiCad 7.0.6} date Mon Aug 28 17:53:35 2023
; FORMAT={-:-/ absolute / metric / decimal}
; #@! TF.CreationDate,2023-08-28T17:53:35+03:00
; #@! TF.GenerationSoftware,Kicad,Pcbnew,7.0.6
; #@! TF.FileFunction,NonPlated,1,4,NPTH
FMAT,2
METRIC
; #@! TA.AperFunction,NonPlated,NPTH,ComponentDrill
T1C0.500
; #@! TA.AperFunction,NonPlated,NPTH,ComponentDrill
T2C1.000
; #@! TA.AperFunction,NonPlated,NPTH,ComponentDrill
T3C3.000
%
G90
G05
T1
X203.282Y-112.706
X203.282Y-116.706
T2
X200.993Y-93.829
X200.993Y-101.829
T3
X75.113Y-58.186
X75.113Y-65.886
X75.113Y-84.926
X75.113Y-113.626
X87.233Y-126.856
X94.933Y-126.856
X98.293Y-48.666
X105.993Y-48.666
X107.393Y-126.856
X115.093Y-126.856
X117.838Y-48.666
X138.553Y-126.866
X146.253Y-126.866
X156.488Y-48.666
X169.073Y-126.866
X194.518Y-126.876
T0
M30
