G04 #@! TF.GenerationSoftware,KiCad,Pcbnew,7.0.6*
G04 #@! TF.CreationDate,2023-08-28T17:59:06+03:00*
G04 #@! TF.ProjectId,power_sheld,706f7765-725f-4736-9865-6c642e6b6963,rev?*
G04 #@! TF.SameCoordinates,Original*
G04 #@! TF.FileFunction,Paste,Bot*
G04 #@! TF.FilePolarity,Positive*
%FSLAX46Y46*%
G04 Gerber Fmt 4.6, Leading zero omitted, Abs format (unit mm)*
G04 Created by KiCad (PCBNEW 7.0.6) date 2023-08-28 17:59:06*
%MOMM*%
%LPD*%
G01*
G04 APERTURE LIST*
G04 Aperture macros list*
%AMRoundRect*
0 Rectangle with rounded corners*
0 $1 Rounding radius*
0 $2 $3 $4 $5 $6 $7 $8 $9 X,Y pos of 4 corners*
0 Add a 4 corners polygon primitive as box body*
4,1,4,$2,$3,$4,$5,$6,$7,$8,$9,$2,$3,0*
0 Add four circle primitives for the rounded corners*
1,1,$1+$1,$2,$3*
1,1,$1+$1,$4,$5*
1,1,$1+$1,$6,$7*
1,1,$1+$1,$8,$9*
0 Add four rect primitives between the rounded corners*
20,1,$1+$1,$2,$3,$4,$5,0*
20,1,$1+$1,$4,$5,$6,$7,0*
20,1,$1+$1,$6,$7,$8,$9,0*
20,1,$1+$1,$8,$9,$2,$3,0*%
G04 Aperture macros list end*
%ADD10RoundRect,0.200000X0.200000X0.275000X-0.200000X0.275000X-0.200000X-0.275000X0.200000X-0.275000X0*%
%ADD11RoundRect,0.250000X0.689429X0.229810X0.229810X0.689429X-0.689429X-0.229810X-0.229810X-0.689429X0*%
%ADD12RoundRect,0.200000X0.275000X-0.200000X0.275000X0.200000X-0.275000X0.200000X-0.275000X-0.200000X0*%
%ADD13RoundRect,0.250000X0.325000X0.650000X-0.325000X0.650000X-0.325000X-0.650000X0.325000X-0.650000X0*%
%ADD14RoundRect,0.250000X-0.250000X-0.475000X0.250000X-0.475000X0.250000X0.475000X-0.250000X0.475000X0*%
%ADD15RoundRect,0.150000X-0.150000X0.587500X-0.150000X-0.587500X0.150000X-0.587500X0.150000X0.587500X0*%
%ADD16RoundRect,0.250000X-0.325000X-0.650000X0.325000X-0.650000X0.325000X0.650000X-0.325000X0.650000X0*%
%ADD17RoundRect,0.200000X-1.500000X0.200000X-1.500000X-0.200000X1.500000X-0.200000X1.500000X0.200000X0*%
%ADD18RoundRect,0.250000X-0.450000X0.262500X-0.450000X-0.262500X0.450000X-0.262500X0.450000X0.262500X0*%
%ADD19RoundRect,0.250000X-0.262500X-0.450000X0.262500X-0.450000X0.262500X0.450000X-0.262500X0.450000X0*%
%ADD20RoundRect,0.200000X-0.275000X0.200000X-0.275000X-0.200000X0.275000X-0.200000X0.275000X0.200000X0*%
G04 #@! TA.AperFunction,Profile*
%ADD21C,0.100000*%
G04 #@! TD*
G04 APERTURE END LIST*
D10*
X149615000Y-76707500D03*
X147965000Y-76707500D03*
D11*
X120500000Y-78580000D03*
X118414034Y-76494034D03*
D12*
X158850000Y-105950000D03*
X158850000Y-104300000D03*
D13*
X139915000Y-107470000D03*
X136965000Y-107470000D03*
D14*
X117330000Y-116260000D03*
X119230000Y-116260000D03*
D11*
X157258839Y-111121162D03*
X155172873Y-109035196D03*
D15*
X124760000Y-101320000D03*
X126660000Y-101320000D03*
X125710000Y-103195000D03*
D16*
X154115000Y-81470000D03*
X157065000Y-81470000D03*
D17*
X121550000Y-106570000D03*
X121550000Y-107840000D03*
X121550000Y-112920000D03*
X121550000Y-114190000D03*
X114250000Y-114190000D03*
X114250000Y-107840000D03*
X114250000Y-106570000D03*
D12*
X158850000Y-102520000D03*
X158850000Y-100870000D03*
D18*
X128360000Y-101365000D03*
X128360000Y-103190000D03*
D19*
X124797500Y-99387500D03*
X126622500Y-99387500D03*
D20*
X151000000Y-76707500D03*
X151000000Y-78357500D03*
D14*
X116950000Y-104500000D03*
X118850000Y-104500000D03*
D21*
X174068109Y-124568109D02*
G75*
G03*
X177068109Y-121568109I-9J3000009D01*
G01*
X112068109Y-71568109D02*
X112068109Y-121568109D01*
X177068109Y-121568109D02*
X177068109Y-71568109D01*
X115068109Y-68568109D02*
G75*
G03*
X112068109Y-71568109I-9J-2999991D01*
G01*
X115068109Y-124568109D02*
X174068109Y-124568109D01*
X174068109Y-68568109D02*
X115068109Y-68568109D01*
X112068091Y-121568109D02*
G75*
G03*
X115068109Y-124568109I3000009J9D01*
G01*
X177068091Y-71568109D02*
G75*
G03*
X174068109Y-68568109I-2999991J9D01*
G01*
M02*
