G04 #@! TF.GenerationSoftware,KiCad,Pcbnew,7.0.6*
G04 #@! TF.CreationDate,2023-08-28T17:59:06+03:00*
G04 #@! TF.ProjectId,power_sheld,706f7765-725f-4736-9865-6c642e6b6963,rev?*
G04 #@! TF.SameCoordinates,Original*
G04 #@! TF.FileFunction,Legend,Top*
G04 #@! TF.FilePolarity,Positive*
%FSLAX46Y46*%
G04 Gerber Fmt 4.6, Leading zero omitted, Abs format (unit mm)*
G04 Created by KiCad (PCBNEW 7.0.6) date 2023-08-28 17:59:06*
%MOMM*%
%LPD*%
G01*
G04 APERTURE LIST*
G04 Aperture macros list*
%AMRoundRect*
0 Rectangle with rounded corners*
0 $1 Rounding radius*
0 $2 $3 $4 $5 $6 $7 $8 $9 X,Y pos of 4 corners*
0 Add a 4 corners polygon primitive as box body*
4,1,4,$2,$3,$4,$5,$6,$7,$8,$9,$2,$3,0*
0 Add four circle primitives for the rounded corners*
1,1,$1+$1,$2,$3*
1,1,$1+$1,$4,$5*
1,1,$1+$1,$6,$7*
1,1,$1+$1,$8,$9*
0 Add four rect primitives between the rounded corners*
20,1,$1+$1,$2,$3,$4,$5,0*
20,1,$1+$1,$4,$5,$6,$7,0*
20,1,$1+$1,$6,$7,$8,$9,0*
20,1,$1+$1,$8,$9,$2,$3,0*%
G04 Aperture macros list end*
%ADD10C,0.150000*%
%ADD11C,0.125000*%
%ADD12C,0.100000*%
%ADD13C,0.120000*%
%ADD14C,0.800000*%
%ADD15C,5.400000*%
%ADD16RoundRect,0.200000X0.275000X-0.200000X0.275000X0.200000X-0.275000X0.200000X-0.275000X-0.200000X0*%
%ADD17R,2.000000X2.000000*%
%ADD18C,2.000000*%
%ADD19R,1.500000X1.500000*%
%ADD20RoundRect,0.250000X-0.375000X-0.625000X0.375000X-0.625000X0.375000X0.625000X-0.375000X0.625000X0*%
%ADD21RoundRect,0.200000X0.200000X0.275000X-0.200000X0.275000X-0.200000X-0.275000X0.200000X-0.275000X0*%
%ADD22RoundRect,0.250000X0.450000X-0.262500X0.450000X0.262500X-0.450000X0.262500X-0.450000X-0.262500X0*%
%ADD23RoundRect,0.250000X0.650000X-0.325000X0.650000X0.325000X-0.650000X0.325000X-0.650000X-0.325000X0*%
%ADD24RoundRect,0.150000X-0.587500X-0.150000X0.587500X-0.150000X0.587500X0.150000X-0.587500X0.150000X0*%
%ADD25C,3.000000*%
%ADD26RoundRect,0.250001X0.499999X0.499999X-0.499999X0.499999X-0.499999X-0.499999X0.499999X-0.499999X0*%
%ADD27C,1.500000*%
%ADD28RoundRect,0.250000X-0.325000X-0.650000X0.325000X-0.650000X0.325000X0.650000X-0.325000X0.650000X0*%
%ADD29RoundRect,0.250000X-0.250000X-0.475000X0.250000X-0.475000X0.250000X0.475000X-0.250000X0.475000X0*%
%ADD30RoundRect,0.150000X0.150000X-0.725000X0.150000X0.725000X-0.150000X0.725000X-0.150000X-0.725000X0*%
%ADD31RoundRect,0.250000X0.375000X0.625000X-0.375000X0.625000X-0.375000X-0.625000X0.375000X-0.625000X0*%
%ADD32C,2.400000*%
%ADD33RoundRect,0.150000X-0.150000X0.725000X-0.150000X-0.725000X0.150000X-0.725000X0.150000X0.725000X0*%
%ADD34R,1.905000X2.000000*%
%ADD35O,1.905000X2.000000*%
%ADD36RoundRect,1.250000X1.250000X1.250000X-1.250000X1.250000X-1.250000X-1.250000X1.250000X-1.250000X0*%
%ADD37RoundRect,0.250000X-1.400000X-1.000000X1.400000X-1.000000X1.400000X1.000000X-1.400000X1.000000X0*%
%ADD38RoundRect,0.250000X0.325000X0.650000X-0.325000X0.650000X-0.325000X-0.650000X0.325000X-0.650000X0*%
%ADD39RoundRect,0.250000X-0.787500X-1.025000X0.787500X-1.025000X0.787500X1.025000X-0.787500X1.025000X0*%
%ADD40RoundRect,0.250000X0.250000X0.475000X-0.250000X0.475000X-0.250000X-0.475000X0.250000X-0.475000X0*%
%ADD41RoundRect,0.200000X-0.275000X0.200000X-0.275000X-0.200000X0.275000X-0.200000X0.275000X0.200000X0*%
%ADD42R,1.600000X1.600000*%
%ADD43C,1.600000*%
%ADD44R,1.700000X1.700000*%
%ADD45O,1.700000X1.700000*%
G04 #@! TA.AperFunction,Profile*
%ADD46C,0.100000*%
G04 #@! TD*
G04 APERTURE END LIST*
D10*
G36*
X129508164Y-107186336D02*
G01*
X129508164Y-107452561D01*
X128392463Y-107452561D01*
X128392463Y-107186336D01*
X129508164Y-107186336D01*
G37*
G36*
X129090509Y-107877055D02*
G01*
X128810118Y-107877055D01*
X128810118Y-106761842D01*
X129090509Y-106761842D01*
X129090509Y-107877055D01*
G37*
D11*
G36*
X131279274Y-98593705D02*
G01*
X131279274Y-98306402D01*
X131278942Y-98296339D01*
X131277946Y-98286591D01*
X131276286Y-98277159D01*
X131273961Y-98268044D01*
X131270973Y-98259244D01*
X131267321Y-98250761D01*
X131263005Y-98242593D01*
X131258025Y-98234741D01*
X131252434Y-98227213D01*
X131246286Y-98220123D01*
X131239580Y-98213474D01*
X131232318Y-98207264D01*
X131224498Y-98201494D01*
X131216122Y-98196163D01*
X131207188Y-98191272D01*
X131197697Y-98186821D01*
X131187686Y-98182802D01*
X131177318Y-98179320D01*
X131166590Y-98176373D01*
X131155504Y-98173961D01*
X131144059Y-98172086D01*
X131132255Y-98170747D01*
X131120092Y-98169943D01*
X131107571Y-98169675D01*
X131094882Y-98169943D01*
X131082582Y-98170747D01*
X131070671Y-98172086D01*
X131059150Y-98173961D01*
X131048018Y-98176373D01*
X131037275Y-98179320D01*
X131026921Y-98182802D01*
X131016957Y-98186821D01*
X131007405Y-98191272D01*
X130998410Y-98196163D01*
X130989972Y-98201494D01*
X130982091Y-98207264D01*
X130974768Y-98213474D01*
X130968002Y-98220123D01*
X130961792Y-98227213D01*
X130956140Y-98234741D01*
X130951046Y-98242593D01*
X130946630Y-98250761D01*
X130942894Y-98259244D01*
X130939837Y-98268044D01*
X130937460Y-98277159D01*
X130935761Y-98286591D01*
X130934742Y-98296339D01*
X130934403Y-98306402D01*
X130934403Y-98593705D01*
X130801290Y-98593705D01*
X130801290Y-98310579D01*
X130801439Y-98300624D01*
X130801886Y-98290819D01*
X130802630Y-98281163D01*
X130803672Y-98271657D01*
X130805011Y-98262300D01*
X130806649Y-98253093D01*
X130808583Y-98244035D01*
X130810816Y-98235126D01*
X130813346Y-98226367D01*
X130816174Y-98217757D01*
X130819300Y-98209296D01*
X130822723Y-98200985D01*
X130826444Y-98192824D01*
X130832583Y-98180861D01*
X130839392Y-98169235D01*
X130846811Y-98157980D01*
X130854780Y-98147211D01*
X130863298Y-98136928D01*
X130872365Y-98127133D01*
X130881982Y-98117825D01*
X130892149Y-98109003D01*
X130902865Y-98100669D01*
X130914131Y-98092821D01*
X130925946Y-98085460D01*
X130938311Y-98078586D01*
X130946859Y-98074274D01*
X130955616Y-98070174D01*
X130964544Y-98066340D01*
X130973644Y-98062769D01*
X130982916Y-98059463D01*
X130992359Y-98056422D01*
X131001974Y-98053645D01*
X131011761Y-98051133D01*
X131021720Y-98048885D01*
X131031850Y-98046901D01*
X131042152Y-98045182D01*
X131052626Y-98043728D01*
X131063271Y-98042537D01*
X131074089Y-98041612D01*
X131085078Y-98040951D01*
X131096239Y-98040554D01*
X131107571Y-98040422D01*
X131118903Y-98040554D01*
X131130060Y-98040951D01*
X131141045Y-98041612D01*
X131151855Y-98042537D01*
X131162492Y-98043728D01*
X131172956Y-98045182D01*
X131183245Y-98046901D01*
X131193361Y-98048885D01*
X131203304Y-98051133D01*
X131213072Y-98053645D01*
X131222668Y-98056422D01*
X131232089Y-98059463D01*
X131241337Y-98062769D01*
X131250411Y-98066340D01*
X131259312Y-98070174D01*
X131268039Y-98074274D01*
X131280680Y-98080823D01*
X131292777Y-98087860D01*
X131304328Y-98095383D01*
X131315334Y-98103393D01*
X131325795Y-98111890D01*
X131335710Y-98120874D01*
X131345080Y-98130344D01*
X131353905Y-98140302D01*
X131362185Y-98150746D01*
X131369919Y-98161677D01*
X131374773Y-98169235D01*
X131381538Y-98180861D01*
X131387638Y-98192824D01*
X131391335Y-98200985D01*
X131394737Y-98209296D01*
X131397842Y-98217757D01*
X131400652Y-98226367D01*
X131403166Y-98235126D01*
X131405384Y-98244035D01*
X131407307Y-98253093D01*
X131408933Y-98262300D01*
X131410264Y-98271657D01*
X131411299Y-98281163D01*
X131412039Y-98290819D01*
X131412482Y-98300624D01*
X131412630Y-98310579D01*
X131412630Y-98593705D01*
X131279274Y-98593705D01*
G37*
G36*
X130801290Y-98658771D02*
G01*
X130801290Y-98532595D01*
X131800000Y-98532595D01*
X131800000Y-98658771D01*
X130801290Y-98658771D01*
G37*
G36*
X130801290Y-97431304D02*
G01*
X130801290Y-97344916D01*
X131584333Y-97160708D01*
X130801290Y-97001779D01*
X130801290Y-96870547D01*
X131800000Y-97090146D01*
X131800000Y-97218740D01*
X131101953Y-97384483D01*
X131800000Y-97557480D01*
X131800000Y-97686074D01*
X130801290Y-97905673D01*
X130801290Y-97774441D01*
X131584333Y-97615732D01*
X130801290Y-97431304D01*
G37*
G36*
X131244347Y-96685020D02*
G01*
X131244347Y-96378374D01*
X131244046Y-96369543D01*
X131242821Y-96358862D01*
X131240654Y-96348579D01*
X131237545Y-96338692D01*
X131233493Y-96329203D01*
X131228500Y-96320111D01*
X131225052Y-96314846D01*
X131218629Y-96306433D01*
X131211418Y-96298643D01*
X131203421Y-96291475D01*
X131194636Y-96284930D01*
X131185064Y-96279007D01*
X131174705Y-96273707D01*
X131170341Y-96271762D01*
X131161324Y-96268207D01*
X131151977Y-96265126D01*
X131142303Y-96262519D01*
X131132301Y-96260386D01*
X131121970Y-96258727D01*
X131111311Y-96257542D01*
X131100324Y-96256831D01*
X131089009Y-96256594D01*
X131077693Y-96256831D01*
X131066706Y-96257542D01*
X131056047Y-96258727D01*
X131045717Y-96260386D01*
X131035714Y-96262519D01*
X131026040Y-96265126D01*
X131016694Y-96268207D01*
X131007676Y-96271762D01*
X130997002Y-96276802D01*
X130987115Y-96282443D01*
X130978016Y-96288686D01*
X130969704Y-96295529D01*
X130962178Y-96302974D01*
X130955440Y-96311020D01*
X130952965Y-96314406D01*
X130947407Y-96323213D01*
X130942790Y-96332460D01*
X130939116Y-96342147D01*
X130936384Y-96352274D01*
X130934593Y-96362840D01*
X130933840Y-96371611D01*
X130933670Y-96378374D01*
X130933670Y-96685020D01*
X130800558Y-96685020D01*
X130800558Y-96383429D01*
X130800697Y-96373775D01*
X130801115Y-96364267D01*
X130801811Y-96354905D01*
X130802786Y-96345689D01*
X130804040Y-96336619D01*
X130805572Y-96327695D01*
X130807383Y-96318917D01*
X130809473Y-96310285D01*
X130813129Y-96297610D01*
X130817412Y-96285264D01*
X130822323Y-96273246D01*
X130827860Y-96261557D01*
X130834023Y-96250196D01*
X130836217Y-96246482D01*
X130843167Y-96235631D01*
X130850646Y-96225251D01*
X130858652Y-96215342D01*
X130867186Y-96205905D01*
X130876249Y-96196940D01*
X130885840Y-96188445D01*
X130895958Y-96180422D01*
X130906605Y-96172871D01*
X130917780Y-96165791D01*
X130929483Y-96159182D01*
X130937578Y-96155038D01*
X130950032Y-96149224D01*
X130962846Y-96143982D01*
X130976020Y-96139311D01*
X130989556Y-96135213D01*
X131003452Y-96131686D01*
X131017709Y-96128732D01*
X131027414Y-96127080D01*
X131037279Y-96125682D01*
X131047304Y-96124538D01*
X131057490Y-96123648D01*
X131067836Y-96123013D01*
X131078342Y-96122632D01*
X131089009Y-96122505D01*
X131099676Y-96122633D01*
X131110185Y-96123016D01*
X131120536Y-96123656D01*
X131130728Y-96124552D01*
X131140762Y-96125703D01*
X131150638Y-96127111D01*
X131160355Y-96128774D01*
X131169914Y-96130693D01*
X131183955Y-96134051D01*
X131197640Y-96137986D01*
X131210969Y-96142496D01*
X131223941Y-96147581D01*
X131236557Y-96153243D01*
X131240683Y-96155258D01*
X131252695Y-96161631D01*
X131264182Y-96168467D01*
X131275146Y-96175768D01*
X131285586Y-96183532D01*
X131295502Y-96191760D01*
X131304894Y-96200451D01*
X131313763Y-96209606D01*
X131322108Y-96219225D01*
X131329929Y-96229307D01*
X131337226Y-96239853D01*
X131341800Y-96247142D01*
X131348173Y-96258350D01*
X131353919Y-96269883D01*
X131359038Y-96281740D01*
X131363530Y-96293922D01*
X131367395Y-96306428D01*
X131370634Y-96319260D01*
X131372445Y-96327994D01*
X131373977Y-96336872D01*
X131375231Y-96345895D01*
X131376206Y-96355062D01*
X131376902Y-96364374D01*
X131377320Y-96373829D01*
X131377459Y-96383429D01*
X131377459Y-96685020D01*
X131244347Y-96685020D01*
G37*
G36*
X130800558Y-96740195D02*
G01*
X130800558Y-96614019D01*
X131800000Y-96614019D01*
X131800000Y-96740195D01*
X130800558Y-96740195D01*
G37*
G36*
X131346685Y-96440362D02*
G01*
X131314933Y-96314846D01*
X131800000Y-96084696D01*
X131800000Y-96234392D01*
X131346685Y-96440362D01*
G37*
D10*
X123860112Y-105626009D02*
X124002969Y-105673628D01*
X124002969Y-105673628D02*
X124050588Y-105721247D01*
X124050588Y-105721247D02*
X124098207Y-105816485D01*
X124098207Y-105816485D02*
X124098207Y-105959342D01*
X124098207Y-105959342D02*
X124050588Y-106054580D01*
X124050588Y-106054580D02*
X124002969Y-106102200D01*
X124002969Y-106102200D02*
X123907731Y-106149819D01*
X123907731Y-106149819D02*
X123526779Y-106149819D01*
X123526779Y-106149819D02*
X123526779Y-105149819D01*
X123526779Y-105149819D02*
X123860112Y-105149819D01*
X123860112Y-105149819D02*
X123955350Y-105197438D01*
X123955350Y-105197438D02*
X124002969Y-105245057D01*
X124002969Y-105245057D02*
X124050588Y-105340295D01*
X124050588Y-105340295D02*
X124050588Y-105435533D01*
X124050588Y-105435533D02*
X124002969Y-105530771D01*
X124002969Y-105530771D02*
X123955350Y-105578390D01*
X123955350Y-105578390D02*
X123860112Y-105626009D01*
X123860112Y-105626009D02*
X123526779Y-105626009D01*
X124479160Y-105864104D02*
X124955350Y-105864104D01*
X124383922Y-106149819D02*
X124717255Y-105149819D01*
X124717255Y-105149819D02*
X125050588Y-106149819D01*
X125241065Y-105149819D02*
X125812493Y-105149819D01*
X125526779Y-106149819D02*
X125526779Y-105149819D01*
X126002970Y-105149819D02*
X126574398Y-105149819D01*
X126288684Y-106149819D02*
X126288684Y-105149819D01*
X128241065Y-106054580D02*
X128193446Y-106102200D01*
X128193446Y-106102200D02*
X128050589Y-106149819D01*
X128050589Y-106149819D02*
X127955351Y-106149819D01*
X127955351Y-106149819D02*
X127812494Y-106102200D01*
X127812494Y-106102200D02*
X127717256Y-106006961D01*
X127717256Y-106006961D02*
X127669637Y-105911723D01*
X127669637Y-105911723D02*
X127622018Y-105721247D01*
X127622018Y-105721247D02*
X127622018Y-105578390D01*
X127622018Y-105578390D02*
X127669637Y-105387914D01*
X127669637Y-105387914D02*
X127717256Y-105292676D01*
X127717256Y-105292676D02*
X127812494Y-105197438D01*
X127812494Y-105197438D02*
X127955351Y-105149819D01*
X127955351Y-105149819D02*
X128050589Y-105149819D01*
X128050589Y-105149819D02*
X128193446Y-105197438D01*
X128193446Y-105197438D02*
X128241065Y-105245057D01*
X128669637Y-106149819D02*
X128669637Y-105149819D01*
X128669637Y-105626009D02*
X129241065Y-105626009D01*
X129241065Y-106149819D02*
X129241065Y-105149819D01*
X129717256Y-105626009D02*
X130050589Y-105626009D01*
X130193446Y-106149819D02*
X129717256Y-106149819D01*
X129717256Y-106149819D02*
X129717256Y-105149819D01*
X129717256Y-105149819D02*
X130193446Y-105149819D01*
X131193446Y-106054580D02*
X131145827Y-106102200D01*
X131145827Y-106102200D02*
X131002970Y-106149819D01*
X131002970Y-106149819D02*
X130907732Y-106149819D01*
X130907732Y-106149819D02*
X130764875Y-106102200D01*
X130764875Y-106102200D02*
X130669637Y-106006961D01*
X130669637Y-106006961D02*
X130622018Y-105911723D01*
X130622018Y-105911723D02*
X130574399Y-105721247D01*
X130574399Y-105721247D02*
X130574399Y-105578390D01*
X130574399Y-105578390D02*
X130622018Y-105387914D01*
X130622018Y-105387914D02*
X130669637Y-105292676D01*
X130669637Y-105292676D02*
X130764875Y-105197438D01*
X130764875Y-105197438D02*
X130907732Y-105149819D01*
X130907732Y-105149819D02*
X131002970Y-105149819D01*
X131002970Y-105149819D02*
X131145827Y-105197438D01*
X131145827Y-105197438D02*
X131193446Y-105245057D01*
X131622018Y-106149819D02*
X131622018Y-105149819D01*
X132193446Y-106149819D02*
X131764875Y-105578390D01*
X132193446Y-105149819D02*
X131622018Y-105721247D01*
G36*
X148603831Y-112031999D02*
G01*
X148626561Y-112033831D01*
X148648405Y-112036884D01*
X148669364Y-112041158D01*
X148689438Y-112046653D01*
X148708627Y-112053370D01*
X148726929Y-112061308D01*
X148744347Y-112070467D01*
X148760933Y-112080786D01*
X148780226Y-112095231D01*
X148797922Y-112111393D01*
X148814020Y-112129272D01*
X148828519Y-112148869D01*
X148838968Y-112165783D01*
X148848394Y-112183796D01*
X148856752Y-112202847D01*
X148863995Y-112222875D01*
X148870124Y-112243879D01*
X148875139Y-112265861D01*
X148879039Y-112288820D01*
X148881825Y-112312756D01*
X148883497Y-112337669D01*
X148884054Y-112363558D01*
X148883497Y-112389219D01*
X148881825Y-112413934D01*
X148879039Y-112437701D01*
X148875139Y-112460523D01*
X148870124Y-112482398D01*
X148863995Y-112503326D01*
X148856752Y-112523309D01*
X148848394Y-112542344D01*
X148841421Y-112555953D01*
X148831227Y-112573122D01*
X148817047Y-112593017D01*
X148801269Y-112611171D01*
X148783893Y-112627583D01*
X148764919Y-112642254D01*
X148744347Y-112655184D01*
X148726929Y-112664115D01*
X148708627Y-112671854D01*
X148689438Y-112678403D01*
X148669364Y-112683761D01*
X148648405Y-112687928D01*
X148626561Y-112690905D01*
X148603831Y-112692691D01*
X148580216Y-112693286D01*
X148077564Y-112693286D01*
X148077564Y-112031388D01*
X148580216Y-112031388D01*
X148603831Y-112031999D01*
G37*
G36*
X150515313Y-112255115D02*
G01*
X149892297Y-112255115D01*
X150203942Y-111348485D01*
X150515313Y-112255115D01*
G37*
G36*
X152717151Y-113245714D02*
G01*
X147511459Y-113245714D01*
X147511459Y-110962581D01*
X147797173Y-110962581D01*
X147797173Y-112031388D01*
X147797173Y-112960000D01*
X147941765Y-112960000D01*
X148570935Y-112960000D01*
X149348115Y-112960000D01*
X149650000Y-112960000D01*
X149800617Y-112521828D01*
X150606912Y-112521828D01*
X150757397Y-112960000D01*
X151059769Y-112960000D01*
X150323133Y-110962581D01*
X151022156Y-110962581D01*
X151022156Y-111228806D01*
X151586845Y-111228806D01*
X151586845Y-112960000D01*
X151866748Y-112960000D01*
X151866748Y-111228806D01*
X152431437Y-111228806D01*
X152431437Y-110962581D01*
X151022156Y-110962581D01*
X150323133Y-110962581D01*
X150084263Y-110962581D01*
X149607900Y-112255115D01*
X149348115Y-112960000D01*
X148570935Y-112960000D01*
X148582726Y-112959931D01*
X148605987Y-112959386D01*
X148628816Y-112958294D01*
X148651214Y-112956657D01*
X148673180Y-112954474D01*
X148694716Y-112951745D01*
X148715820Y-112948471D01*
X148736493Y-112944651D01*
X148756734Y-112940285D01*
X148776545Y-112935373D01*
X148795924Y-112929916D01*
X148814872Y-112923913D01*
X148842485Y-112913885D01*
X148869128Y-112902630D01*
X148894801Y-112890146D01*
X148911403Y-112881105D01*
X148935370Y-112866614D01*
X148958212Y-112851006D01*
X148979929Y-112834282D01*
X149000522Y-112816442D01*
X149019989Y-112797485D01*
X149038331Y-112777413D01*
X149055549Y-112756224D01*
X149071642Y-112733918D01*
X149086610Y-112710497D01*
X149100453Y-112685959D01*
X149109030Y-112669015D01*
X149120858Y-112642797D01*
X149131441Y-112615617D01*
X149137805Y-112596963D01*
X149143615Y-112577882D01*
X149148872Y-112558373D01*
X149153576Y-112538436D01*
X149157726Y-112518073D01*
X149161323Y-112497281D01*
X149164366Y-112476063D01*
X149166857Y-112454417D01*
X149168793Y-112432343D01*
X149170177Y-112409842D01*
X149171007Y-112386914D01*
X149171284Y-112363558D01*
X149171007Y-112340083D01*
X149170177Y-112317038D01*
X149168793Y-112294424D01*
X149166857Y-112272242D01*
X149164366Y-112250491D01*
X149161323Y-112229171D01*
X149157726Y-112208283D01*
X149153576Y-112187826D01*
X149148872Y-112167800D01*
X149143615Y-112148205D01*
X149137805Y-112129041D01*
X149131441Y-112110309D01*
X149124524Y-112092008D01*
X149113111Y-112065365D01*
X149100453Y-112039692D01*
X149091349Y-112023093D01*
X149076756Y-111999147D01*
X149061038Y-111976342D01*
X149044196Y-111954679D01*
X149026228Y-111934159D01*
X149007136Y-111914780D01*
X148986918Y-111896543D01*
X148965576Y-111879449D01*
X148943109Y-111863496D01*
X148919517Y-111848685D01*
X148894801Y-111835017D01*
X148869128Y-111822446D01*
X148842485Y-111811112D01*
X148824184Y-111804242D01*
X148805452Y-111797923D01*
X148786288Y-111792152D01*
X148766693Y-111786932D01*
X148746667Y-111782260D01*
X148726210Y-111778139D01*
X148705322Y-111774567D01*
X148684002Y-111771544D01*
X148662251Y-111769071D01*
X148640069Y-111767148D01*
X148617455Y-111765774D01*
X148594411Y-111764950D01*
X148570935Y-111764675D01*
X148077564Y-111764675D01*
X148077564Y-111228806D01*
X149025715Y-111228806D01*
X149025715Y-110962581D01*
X148077564Y-110962581D01*
X147797173Y-110962581D01*
X147511459Y-110962581D01*
X147511459Y-110676867D01*
X152717151Y-110676867D01*
X152717151Y-113245714D01*
G37*
G36*
X169751774Y-115969255D02*
G01*
X169774950Y-115970600D01*
X169797441Y-115972842D01*
X169819248Y-115975981D01*
X169840371Y-115980017D01*
X169860809Y-115984949D01*
X169880562Y-115990779D01*
X169899631Y-115997505D01*
X169918015Y-116005128D01*
X169935715Y-116013648D01*
X169952730Y-116023064D01*
X169969061Y-116033378D01*
X169984707Y-116044588D01*
X169999668Y-116056695D01*
X170013945Y-116069699D01*
X170027538Y-116083600D01*
X170040426Y-116098316D01*
X170052482Y-116113764D01*
X170063707Y-116129945D01*
X170074100Y-116146859D01*
X170083662Y-116164506D01*
X170092393Y-116182885D01*
X170100292Y-116201997D01*
X170107359Y-116221842D01*
X170113596Y-116242419D01*
X170119000Y-116263729D01*
X170123573Y-116285772D01*
X170127315Y-116308548D01*
X170130225Y-116332056D01*
X170132304Y-116356297D01*
X170133551Y-116381271D01*
X170133967Y-116406978D01*
X170133967Y-116995115D01*
X170133551Y-117020880D01*
X170132304Y-117045910D01*
X170130225Y-117070202D01*
X170127315Y-117093758D01*
X170123573Y-117116578D01*
X170119000Y-117138661D01*
X170113596Y-117160007D01*
X170107359Y-117180617D01*
X170100292Y-117200490D01*
X170092393Y-117219627D01*
X170083662Y-117238028D01*
X170074100Y-117255691D01*
X170063707Y-117272618D01*
X170052482Y-117288809D01*
X170040426Y-117304263D01*
X170027538Y-117318981D01*
X170013945Y-117332822D01*
X169999668Y-117345771D01*
X169984707Y-117357827D01*
X169969061Y-117368989D01*
X169952730Y-117379259D01*
X169935715Y-117388636D01*
X169918015Y-117397119D01*
X169899631Y-117404710D01*
X169880562Y-117411407D01*
X169860809Y-117417212D01*
X169840371Y-117422124D01*
X169819248Y-117426142D01*
X169797441Y-117429268D01*
X169774950Y-117431500D01*
X169751774Y-117432840D01*
X169727913Y-117433286D01*
X169411618Y-117433286D01*
X169411618Y-115968806D01*
X169727913Y-115968806D01*
X169751774Y-115969255D01*
G37*
G36*
X176961847Y-118006230D02*
G01*
X168880563Y-118006230D01*
X168880563Y-115702581D01*
X169166277Y-115702581D01*
X169166277Y-115968806D01*
X169166277Y-117700000D01*
X169332117Y-117700000D01*
X169719364Y-117700000D01*
X169745414Y-117699673D01*
X169770989Y-117698694D01*
X169796091Y-117697063D01*
X169820718Y-117694779D01*
X169844870Y-117691842D01*
X169868549Y-117688253D01*
X169891754Y-117684011D01*
X169914484Y-117679117D01*
X169936740Y-117673570D01*
X169958522Y-117667370D01*
X169979830Y-117660518D01*
X170000664Y-117653013D01*
X170021023Y-117644856D01*
X170040908Y-117636046D01*
X170060319Y-117626584D01*
X170079256Y-117616468D01*
X170097727Y-117605666D01*
X170115634Y-117594265D01*
X170132977Y-117582265D01*
X170149755Y-117569665D01*
X170165968Y-117556467D01*
X170181618Y-117542669D01*
X170196703Y-117528272D01*
X170211224Y-117513276D01*
X170225180Y-117497681D01*
X170238572Y-117481486D01*
X170251400Y-117464693D01*
X170263663Y-117447300D01*
X170275363Y-117429308D01*
X170286497Y-117410717D01*
X170297068Y-117391527D01*
X170307074Y-117371737D01*
X170316546Y-117351391D01*
X170325406Y-117330529D01*
X170333656Y-117309152D01*
X170341295Y-117287260D01*
X170348322Y-117264852D01*
X170354738Y-117241930D01*
X170360544Y-117218492D01*
X170365738Y-117194539D01*
X170370321Y-117170071D01*
X170374293Y-117145087D01*
X170377654Y-117119589D01*
X170380404Y-117093575D01*
X170382543Y-117067046D01*
X170384070Y-117040002D01*
X170384987Y-117012443D01*
X170385293Y-116984368D01*
X170385293Y-116976064D01*
X170689619Y-116976064D01*
X170689915Y-117003638D01*
X170690801Y-117030797D01*
X170692279Y-117057540D01*
X170694348Y-117083866D01*
X170697007Y-117109777D01*
X170700258Y-117135272D01*
X170704100Y-117160351D01*
X170708533Y-117185013D01*
X170713557Y-117209260D01*
X170719172Y-117233091D01*
X170725378Y-117256506D01*
X170732175Y-117279505D01*
X170739563Y-117302088D01*
X170747542Y-117324255D01*
X170756112Y-117346006D01*
X170765273Y-117367341D01*
X170774972Y-117388168D01*
X170785155Y-117408396D01*
X170795823Y-117428026D01*
X170806974Y-117447056D01*
X170818610Y-117465486D01*
X170830730Y-117483318D01*
X170843334Y-117500550D01*
X170856422Y-117517184D01*
X170869994Y-117533218D01*
X170884051Y-117548653D01*
X170898592Y-117563489D01*
X170913617Y-117577725D01*
X170929126Y-117591363D01*
X170945119Y-117604401D01*
X170961597Y-117616841D01*
X170978558Y-117628681D01*
X170995934Y-117639801D01*
X171013654Y-117650204D01*
X171031718Y-117659890D01*
X171050125Y-117668859D01*
X171068877Y-117677109D01*
X171087973Y-117684643D01*
X171107412Y-117691459D01*
X171127196Y-117697557D01*
X171147323Y-117702938D01*
X171167794Y-117707602D01*
X171188609Y-117711548D01*
X171209769Y-117714776D01*
X171231272Y-117717287D01*
X171253119Y-117719081D01*
X171275310Y-117720157D01*
X171297845Y-117720516D01*
X171316401Y-117720230D01*
X171334777Y-117719371D01*
X171352973Y-117717940D01*
X171370988Y-117715936D01*
X171388823Y-117713360D01*
X171406478Y-117710212D01*
X171423952Y-117706491D01*
X171441246Y-117702198D01*
X171458360Y-117697332D01*
X171475293Y-117691894D01*
X171492046Y-117685883D01*
X171508619Y-117679300D01*
X171525011Y-117672144D01*
X171541223Y-117664416D01*
X171557255Y-117656116D01*
X171573107Y-117647243D01*
X171588709Y-117637786D01*
X171603995Y-117627856D01*
X171618963Y-117617453D01*
X171633614Y-117606577D01*
X171647948Y-117595227D01*
X171661964Y-117583404D01*
X171675664Y-117571108D01*
X171689046Y-117558339D01*
X171702110Y-117545096D01*
X171714858Y-117531380D01*
X171727288Y-117517191D01*
X171739402Y-117502529D01*
X171751198Y-117487394D01*
X171762676Y-117471785D01*
X171773838Y-117455703D01*
X171784682Y-117439148D01*
X171795151Y-117422129D01*
X171805185Y-117404779D01*
X171814785Y-117387096D01*
X171823952Y-117369081D01*
X171832684Y-117350734D01*
X171840982Y-117332055D01*
X171848846Y-117313044D01*
X171856276Y-117293702D01*
X171863271Y-117274027D01*
X171869833Y-117254020D01*
X171875961Y-117233681D01*
X171881654Y-117213010D01*
X171886913Y-117192007D01*
X171891739Y-117170672D01*
X171896130Y-117149005D01*
X171900087Y-117127006D01*
X171648761Y-117127006D01*
X171642617Y-117151621D01*
X171635511Y-117175396D01*
X171627443Y-117198332D01*
X171618414Y-117220429D01*
X171608423Y-117241685D01*
X171597470Y-117262103D01*
X171585555Y-117281680D01*
X171572679Y-117300418D01*
X171559035Y-117318057D01*
X171544816Y-117334582D01*
X171530024Y-117349992D01*
X171514656Y-117364288D01*
X171498715Y-117377469D01*
X171482199Y-117389536D01*
X171465108Y-117400489D01*
X171447444Y-117410327D01*
X171429492Y-117418914D01*
X171411326Y-117426356D01*
X171392947Y-117432653D01*
X171374354Y-117437805D01*
X171355547Y-117441812D01*
X171336527Y-117444674D01*
X171317293Y-117446391D01*
X171297845Y-117446964D01*
X171284590Y-117446737D01*
X171265089Y-117445545D01*
X171246046Y-117443331D01*
X171227462Y-117440095D01*
X171209336Y-117435838D01*
X171191669Y-117430558D01*
X171174459Y-117424257D01*
X171157708Y-117416934D01*
X171141416Y-117408589D01*
X171125581Y-117399223D01*
X171110205Y-117388834D01*
X171100301Y-117381318D01*
X171085971Y-117369335D01*
X171072271Y-117356502D01*
X171059203Y-117342820D01*
X171046766Y-117328287D01*
X171034960Y-117312904D01*
X171023785Y-117296671D01*
X171013242Y-117279587D01*
X171003329Y-117261654D01*
X170994048Y-117242871D01*
X170985397Y-117223237D01*
X170980014Y-117209735D01*
X170972591Y-117188996D01*
X170965949Y-117167672D01*
X170960089Y-117145765D01*
X170955010Y-117123273D01*
X170950712Y-117100198D01*
X170947196Y-117076539D01*
X170944461Y-117052296D01*
X170942508Y-117027469D01*
X170941336Y-117002058D01*
X170940945Y-116976064D01*
X170940945Y-116427983D01*
X170941119Y-116410413D01*
X170942030Y-116384572D01*
X170943723Y-116359351D01*
X170946198Y-116334747D01*
X170949453Y-116310761D01*
X170953491Y-116287394D01*
X170958309Y-116264645D01*
X170963909Y-116242515D01*
X170970290Y-116221002D01*
X170977453Y-116200108D01*
X170985397Y-116179832D01*
X170991094Y-116166706D01*
X171000165Y-116147711D01*
X171009867Y-116129549D01*
X171020201Y-116112219D01*
X171031165Y-116095723D01*
X171042761Y-116080059D01*
X171054987Y-116065229D01*
X171067845Y-116051231D01*
X171081334Y-116038066D01*
X171095454Y-116025734D01*
X171110205Y-116014235D01*
X171120405Y-116007078D01*
X171136087Y-115997208D01*
X171152227Y-115988376D01*
X171168825Y-115980584D01*
X171185881Y-115973830D01*
X171203396Y-115968116D01*
X171221369Y-115963440D01*
X171239801Y-115959804D01*
X171258690Y-115957207D01*
X171278039Y-115955648D01*
X171297845Y-115955129D01*
X171317006Y-115955754D01*
X171336019Y-115957632D01*
X171354886Y-115960761D01*
X171373606Y-115965143D01*
X171392179Y-115970775D01*
X171410605Y-115977660D01*
X171428884Y-115985796D01*
X171447016Y-115995184D01*
X171464781Y-116005611D01*
X171481958Y-116017105D01*
X171498548Y-116029668D01*
X171514549Y-116043300D01*
X171529963Y-116058001D01*
X171544790Y-116073770D01*
X171559028Y-116090607D01*
X171572679Y-116108513D01*
X171585555Y-116127144D01*
X171597470Y-116146401D01*
X171608423Y-116166284D01*
X171618414Y-116186793D01*
X171627443Y-116207928D01*
X171635511Y-116229688D01*
X171642617Y-116252074D01*
X171648761Y-116275087D01*
X171900087Y-116275087D01*
X171896131Y-116253147D01*
X171891745Y-116231535D01*
X171890436Y-116225750D01*
X172812639Y-116225750D01*
X173066530Y-116225750D01*
X173066530Y-116224284D01*
X173067488Y-116216100D01*
X173070964Y-116192250D01*
X173075342Y-116169457D01*
X173080621Y-116147720D01*
X173086802Y-116127039D01*
X173093885Y-116107414D01*
X173101869Y-116088845D01*
X173110755Y-116071333D01*
X173120542Y-116054877D01*
X173131231Y-116039476D01*
X173146885Y-116020586D01*
X173155325Y-116011831D01*
X173173157Y-115996016D01*
X173192258Y-115982461D01*
X173212627Y-115971165D01*
X173228737Y-115964175D01*
X173245560Y-115958456D01*
X173263098Y-115954009D01*
X173281349Y-115950831D01*
X173300314Y-115948925D01*
X173319993Y-115948290D01*
X173327021Y-115948354D01*
X173347495Y-115949320D01*
X173367052Y-115951445D01*
X173385692Y-115954730D01*
X173403416Y-115959173D01*
X173420224Y-115964776D01*
X173441208Y-115974050D01*
X173460562Y-115985384D01*
X173478287Y-115998779D01*
X173494382Y-116014235D01*
X173508808Y-116031561D01*
X173521310Y-116050566D01*
X173531888Y-116071251D01*
X173540544Y-116093614D01*
X173547276Y-116117657D01*
X173551062Y-116136791D01*
X173553767Y-116156869D01*
X173555390Y-116177892D01*
X173555931Y-116199860D01*
X173555931Y-116202302D01*
X173555672Y-116216327D01*
X173554088Y-116240160D01*
X173551784Y-116259638D01*
X173548558Y-116279483D01*
X173544411Y-116299694D01*
X173539342Y-116320272D01*
X173533351Y-116341215D01*
X173526439Y-116362526D01*
X173518698Y-116383920D01*
X173510223Y-116405116D01*
X173501014Y-116426113D01*
X173491069Y-116446912D01*
X173480390Y-116467512D01*
X173468977Y-116487914D01*
X173456829Y-116508117D01*
X173443946Y-116528122D01*
X172834438Y-117456734D01*
X172834438Y-117700000D01*
X173820080Y-117700000D01*
X173820080Y-117433286D01*
X173158853Y-117433286D01*
X173184345Y-117393719D01*
X174030373Y-117393719D01*
X174783923Y-117393719D01*
X174783923Y-117701465D01*
X175023281Y-117701465D01*
X175023281Y-117393719D01*
X175154073Y-117393719D01*
X175154073Y-117133845D01*
X175023281Y-117133845D01*
X175023281Y-116525191D01*
X174783923Y-116525191D01*
X174783923Y-117133845D01*
X174297086Y-117133845D01*
X174869408Y-115703558D01*
X174616800Y-115703558D01*
X174030373Y-117150453D01*
X174030373Y-117393719D01*
X173184345Y-117393719D01*
X173664924Y-116647801D01*
X173673408Y-116634337D01*
X173685688Y-116614027D01*
X173697435Y-116593579D01*
X173708649Y-116572994D01*
X173719329Y-116552272D01*
X173729476Y-116531412D01*
X173739089Y-116510415D01*
X173748169Y-116489280D01*
X173756716Y-116468008D01*
X173764729Y-116446599D01*
X173772208Y-116425052D01*
X173776866Y-116410678D01*
X173783290Y-116389253D01*
X173789038Y-116367991D01*
X173794110Y-116346892D01*
X173798505Y-116325956D01*
X173802224Y-116305183D01*
X173805267Y-116284574D01*
X173807634Y-116264128D01*
X173809324Y-116243845D01*
X173810338Y-116223725D01*
X173810676Y-116203768D01*
X173810676Y-116202302D01*
X173810620Y-116192060D01*
X173810169Y-116171857D01*
X173809268Y-116152027D01*
X173807070Y-116122984D01*
X173803858Y-116094783D01*
X173799632Y-116067423D01*
X173794391Y-116040905D01*
X173788136Y-116015228D01*
X173780867Y-115990392D01*
X173772584Y-115966398D01*
X173763286Y-115943246D01*
X173752974Y-115920935D01*
X173745554Y-115906559D01*
X173733648Y-115885810D01*
X173720810Y-115866041D01*
X173707041Y-115847251D01*
X173692340Y-115829439D01*
X173676707Y-115812606D01*
X173660143Y-115796752D01*
X173642647Y-115781877D01*
X173624219Y-115767981D01*
X173604860Y-115755064D01*
X173584569Y-115743126D01*
X173577605Y-115739339D01*
X173556185Y-115728700D01*
X173533968Y-115719143D01*
X173510955Y-115710668D01*
X173487145Y-115703275D01*
X173484439Y-115702581D01*
X175303244Y-115702581D01*
X175873429Y-117700000D01*
X176106376Y-117700000D01*
X176676133Y-115702581D01*
X176409420Y-115702581D01*
X175989689Y-117268667D01*
X175570385Y-115702581D01*
X175303244Y-115702581D01*
X173484439Y-115702581D01*
X173462539Y-115696964D01*
X173445692Y-115693358D01*
X173428492Y-115690232D01*
X173410937Y-115687587D01*
X173393029Y-115685423D01*
X173374766Y-115683740D01*
X173356150Y-115682538D01*
X173337180Y-115681817D01*
X173317855Y-115681577D01*
X173300672Y-115681827D01*
X173275372Y-115683139D01*
X173250643Y-115685576D01*
X173226485Y-115689138D01*
X173202898Y-115693825D01*
X173179882Y-115699637D01*
X173157437Y-115706573D01*
X173135564Y-115714635D01*
X173114261Y-115723821D01*
X173093529Y-115734132D01*
X173073368Y-115745568D01*
X173060323Y-115753792D01*
X173041326Y-115766973D01*
X173023012Y-115781167D01*
X173005382Y-115796374D01*
X172988436Y-115812594D01*
X172972173Y-115829827D01*
X172956594Y-115848074D01*
X172941699Y-115867334D01*
X172927488Y-115887607D01*
X172913960Y-115908893D01*
X172901116Y-115931193D01*
X172889008Y-115954437D01*
X172877689Y-115978557D01*
X172867160Y-116003553D01*
X172857419Y-116029424D01*
X172848466Y-116056172D01*
X172840303Y-116083795D01*
X172835299Y-116102697D01*
X172830646Y-116121988D01*
X172826343Y-116141669D01*
X172822391Y-116161739D01*
X172818790Y-116182198D01*
X172815539Y-116203047D01*
X172812639Y-116224284D01*
X172812639Y-116225750D01*
X171890436Y-116225750D01*
X171886928Y-116210252D01*
X171881681Y-116189296D01*
X171876002Y-116168669D01*
X171869893Y-116148370D01*
X171863353Y-116128400D01*
X171856383Y-116108757D01*
X171848981Y-116089443D01*
X171841149Y-116070457D01*
X171832886Y-116051799D01*
X171824192Y-116033469D01*
X171815068Y-116015468D01*
X171805512Y-115997795D01*
X171795526Y-115980450D01*
X171785109Y-115963433D01*
X171774369Y-115946821D01*
X171763304Y-115930689D01*
X171751916Y-115915038D01*
X171740203Y-115899869D01*
X171728167Y-115885180D01*
X171715806Y-115870972D01*
X171703122Y-115857244D01*
X171690114Y-115843998D01*
X171676782Y-115831233D01*
X171663126Y-115818948D01*
X171649147Y-115807144D01*
X171634843Y-115795821D01*
X171620215Y-115784979D01*
X171605264Y-115774618D01*
X171589988Y-115764737D01*
X171574389Y-115755338D01*
X171558532Y-115746406D01*
X171542486Y-115738050D01*
X171526248Y-115730271D01*
X171509821Y-115723067D01*
X171493203Y-115716440D01*
X171476395Y-115710390D01*
X171459397Y-115704915D01*
X171442208Y-115700017D01*
X171424829Y-115695695D01*
X171407259Y-115691949D01*
X171389499Y-115688780D01*
X171371549Y-115686187D01*
X171353409Y-115684170D01*
X171335078Y-115682729D01*
X171316556Y-115681865D01*
X171297845Y-115681577D01*
X171275310Y-115681939D01*
X171253119Y-115683027D01*
X171231272Y-115684840D01*
X171209769Y-115687377D01*
X171188609Y-115690640D01*
X171167794Y-115694628D01*
X171147323Y-115699341D01*
X171127196Y-115704780D01*
X171107412Y-115710943D01*
X171087973Y-115717831D01*
X171068877Y-115725445D01*
X171050125Y-115733784D01*
X171031718Y-115742847D01*
X171013654Y-115752636D01*
X170995934Y-115763150D01*
X170978558Y-115774389D01*
X170961597Y-115786288D01*
X170945119Y-115798783D01*
X170929126Y-115811873D01*
X170913617Y-115825558D01*
X170898592Y-115839838D01*
X170884051Y-115854714D01*
X170869994Y-115870186D01*
X170856422Y-115886252D01*
X170843334Y-115902914D01*
X170830730Y-115920171D01*
X170818610Y-115938024D01*
X170806974Y-115956472D01*
X170795823Y-115975515D01*
X170785155Y-115995154D01*
X170774972Y-116015388D01*
X170765273Y-116036217D01*
X170756112Y-116057554D01*
X170747542Y-116079311D01*
X170739563Y-116101487D01*
X170732175Y-116124084D01*
X170725378Y-116147100D01*
X170719172Y-116170536D01*
X170713557Y-116194391D01*
X170708533Y-116218667D01*
X170704100Y-116243362D01*
X170700258Y-116268477D01*
X170697007Y-116294012D01*
X170694348Y-116319966D01*
X170692279Y-116346341D01*
X170690801Y-116373135D01*
X170689915Y-116400349D01*
X170689619Y-116427983D01*
X170689619Y-116976064D01*
X170385293Y-116976064D01*
X170385293Y-116418213D01*
X170384987Y-116390138D01*
X170384070Y-116362579D01*
X170382543Y-116335535D01*
X170380404Y-116309006D01*
X170377654Y-116282992D01*
X170374293Y-116257494D01*
X170370321Y-116232510D01*
X170365738Y-116208042D01*
X170360544Y-116184089D01*
X170354738Y-116160651D01*
X170348322Y-116137729D01*
X170341295Y-116115321D01*
X170333656Y-116093429D01*
X170325406Y-116072052D01*
X170316546Y-116051190D01*
X170307074Y-116030844D01*
X170297071Y-116011056D01*
X170286511Y-115991872D01*
X170275393Y-115973290D01*
X170263717Y-115955312D01*
X170251484Y-115937936D01*
X170238693Y-115921164D01*
X170225344Y-115904994D01*
X170211437Y-115889427D01*
X170196973Y-115874464D01*
X170181952Y-115860103D01*
X170166373Y-115846345D01*
X170150236Y-115833190D01*
X170133541Y-115820639D01*
X170116289Y-115808690D01*
X170098479Y-115797344D01*
X170080111Y-115786601D01*
X170061226Y-115776427D01*
X170041863Y-115766909D01*
X170022023Y-115758048D01*
X170001705Y-115749842D01*
X169980910Y-115742294D01*
X169959637Y-115735402D01*
X169937887Y-115729166D01*
X169915659Y-115723586D01*
X169892954Y-115718663D01*
X169869771Y-115714397D01*
X169846111Y-115710787D01*
X169821973Y-115707833D01*
X169797358Y-115705535D01*
X169772265Y-115703894D01*
X169746695Y-115702910D01*
X169720647Y-115702581D01*
X169411618Y-115702581D01*
X169166277Y-115702581D01*
X168880563Y-115702581D01*
X168880563Y-115395863D01*
X176961847Y-115395863D01*
X176961847Y-118006230D01*
G37*
G36*
X127183056Y-107181011D02*
G01*
X127183056Y-107447236D01*
X126259818Y-107447236D01*
X126259818Y-107181011D01*
X127183056Y-107181011D01*
G37*
G36*
X128605651Y-111266230D02*
G01*
X124651459Y-111266230D01*
X124651459Y-108962581D01*
X124937173Y-108962581D01*
X124937173Y-110960000D01*
X125217564Y-110960000D01*
X125217564Y-109228806D01*
X126071926Y-109228806D01*
X126071926Y-110960000D01*
X126352316Y-110960000D01*
X126352316Y-108962581D01*
X126726496Y-108962581D01*
X127435861Y-110583304D01*
X127434312Y-110585819D01*
X127424733Y-110599917D01*
X127412266Y-110616315D01*
X127399250Y-110631354D01*
X127382907Y-110647605D01*
X127365773Y-110661899D01*
X127347850Y-110674235D01*
X127341746Y-110677903D01*
X127322724Y-110687486D01*
X127302637Y-110694939D01*
X127281485Y-110700262D01*
X127259268Y-110703457D01*
X127235987Y-110704521D01*
X127003956Y-110704521D01*
X127003956Y-110980516D01*
X127235987Y-110980516D01*
X127251493Y-110980325D01*
X127274279Y-110979323D01*
X127296498Y-110977463D01*
X127318151Y-110974744D01*
X127339237Y-110971166D01*
X127359756Y-110966730D01*
X127379709Y-110961434D01*
X127399094Y-110955281D01*
X127417914Y-110948268D01*
X127436166Y-110940397D01*
X127453852Y-110931667D01*
X127465356Y-110925380D01*
X127482247Y-110915269D01*
X127498701Y-110904343D01*
X127514716Y-110892600D01*
X127530294Y-110880042D01*
X127545434Y-110866669D01*
X127560135Y-110852479D01*
X127574399Y-110837474D01*
X127588225Y-110821653D01*
X127601613Y-110805016D01*
X127614563Y-110787564D01*
X127622995Y-110775459D01*
X127635436Y-110756557D01*
X127647628Y-110736762D01*
X127659570Y-110716073D01*
X127671264Y-110694492D01*
X127682709Y-110672018D01*
X127693904Y-110648651D01*
X127704851Y-110624391D01*
X127715548Y-110599238D01*
X127725997Y-110573191D01*
X127736196Y-110546252D01*
X128319937Y-108962581D01*
X128015122Y-108962581D01*
X127571056Y-110244681D01*
X127044989Y-108962581D01*
X126726496Y-108962581D01*
X126352316Y-108962581D01*
X126220425Y-108962581D01*
X125217564Y-108962581D01*
X124937173Y-108962581D01*
X124651459Y-108962581D01*
X124651459Y-108676867D01*
X128605651Y-108676867D01*
X128605651Y-111266230D01*
G37*
G36*
X132648597Y-90850094D02*
G01*
X133027466Y-90850094D01*
X133045786Y-90849858D01*
X133063472Y-90849149D01*
X133080524Y-90847969D01*
X133096944Y-90846316D01*
X133112731Y-90844190D01*
X133127885Y-90841593D01*
X133142405Y-90838523D01*
X133156292Y-90834981D01*
X133169546Y-90830967D01*
X133188241Y-90824060D01*
X133205510Y-90816091D01*
X133221355Y-90807058D01*
X133235776Y-90796964D01*
X133244598Y-90789644D01*
X133256820Y-90777806D01*
X133267839Y-90765099D01*
X133277657Y-90751522D01*
X133286272Y-90737076D01*
X133293685Y-90721761D01*
X133299896Y-90705576D01*
X133304905Y-90688522D01*
X133308712Y-90670598D01*
X133311317Y-90651805D01*
X133312719Y-90632143D01*
X133312986Y-90618551D01*
X133312986Y-90615254D01*
X133312602Y-90596541D01*
X133311448Y-90578503D01*
X133309524Y-90561141D01*
X133306831Y-90544454D01*
X133303369Y-90528443D01*
X133299138Y-90513107D01*
X133294137Y-90498447D01*
X133288367Y-90484462D01*
X133281848Y-90471210D01*
X133274433Y-90458748D01*
X133266119Y-90447076D01*
X133256908Y-90436194D01*
X133246799Y-90426101D01*
X133235793Y-90416799D01*
X133223890Y-90408287D01*
X133211088Y-90400565D01*
X133197378Y-90393695D01*
X133182750Y-90387742D01*
X133167202Y-90382704D01*
X133150736Y-90378583D01*
X133133350Y-90375377D01*
X133119708Y-90373574D01*
X133105549Y-90372286D01*
X133090873Y-90371513D01*
X133075680Y-90371256D01*
X132648597Y-90371256D01*
X132648597Y-90181479D01*
X133075680Y-90181479D01*
X133095538Y-90180999D01*
X133114465Y-90179560D01*
X133132460Y-90177161D01*
X133149523Y-90173802D01*
X133165655Y-90169484D01*
X133180854Y-90164207D01*
X133195123Y-90157970D01*
X133208459Y-90150773D01*
X133220864Y-90142617D01*
X133232338Y-90133501D01*
X133239469Y-90126891D01*
X133249369Y-90116192D01*
X133258295Y-90104565D01*
X133266247Y-90092012D01*
X133273225Y-90078531D01*
X133279230Y-90064122D01*
X133284261Y-90048786D01*
X133288318Y-90032523D01*
X133291401Y-90015333D01*
X133293511Y-89997215D01*
X133294647Y-89978170D01*
X133294863Y-89964958D01*
X133294322Y-89944433D01*
X133292700Y-89924901D01*
X133289995Y-89906360D01*
X133286208Y-89888811D01*
X133281339Y-89872254D01*
X133275389Y-89856688D01*
X133268356Y-89842115D01*
X133260242Y-89828533D01*
X133251046Y-89815943D01*
X133240767Y-89804344D01*
X133233314Y-89797163D01*
X133221233Y-89787211D01*
X133208069Y-89778238D01*
X133193824Y-89770244D01*
X133178497Y-89763228D01*
X133162088Y-89757192D01*
X133144597Y-89752134D01*
X133126024Y-89748056D01*
X133106369Y-89744956D01*
X133092665Y-89743433D01*
X133078480Y-89742346D01*
X133063814Y-89741693D01*
X133048667Y-89741475D01*
X132648597Y-89741475D01*
X132648597Y-89546936D01*
X133084228Y-89546936D01*
X133100982Y-89547129D01*
X133117391Y-89547709D01*
X133133456Y-89548675D01*
X133149176Y-89550027D01*
X133164551Y-89551766D01*
X133179582Y-89553891D01*
X133194268Y-89556403D01*
X133208609Y-89559301D01*
X133222606Y-89562585D01*
X133236258Y-89566256D01*
X133249566Y-89570313D01*
X133268881Y-89577123D01*
X133287421Y-89584803D01*
X133305185Y-89593352D01*
X133310935Y-89596395D01*
X133327708Y-89606033D01*
X133343665Y-89616398D01*
X133358804Y-89627491D01*
X133373125Y-89639311D01*
X133386629Y-89651860D01*
X133399315Y-89665136D01*
X133411184Y-89679139D01*
X133422236Y-89693871D01*
X133432470Y-89709330D01*
X133441887Y-89725517D01*
X133447711Y-89736713D01*
X133455777Y-89753989D01*
X133463050Y-89771884D01*
X133469529Y-89790397D01*
X133475215Y-89809528D01*
X133480108Y-89829277D01*
X133484207Y-89849644D01*
X133487513Y-89870630D01*
X133490026Y-89892234D01*
X133491260Y-89906980D01*
X133492141Y-89922001D01*
X133492670Y-89937297D01*
X133492847Y-89952868D01*
X133492409Y-89972039D01*
X133491094Y-89990901D01*
X133488904Y-90009454D01*
X133485837Y-90027698D01*
X133481894Y-90045632D01*
X133477075Y-90063258D01*
X133471379Y-90080574D01*
X133464808Y-90097581D01*
X133457418Y-90114131D01*
X133449100Y-90130073D01*
X133439851Y-90145409D01*
X133429673Y-90160138D01*
X133418566Y-90174260D01*
X133406528Y-90187776D01*
X133393561Y-90200684D01*
X133379665Y-90212986D01*
X133364961Y-90224492D01*
X133353373Y-90232476D01*
X133341303Y-90239905D01*
X133328753Y-90246781D01*
X133315722Y-90253103D01*
X133302210Y-90258871D01*
X133288217Y-90264085D01*
X133273743Y-90268746D01*
X133258789Y-90272852D01*
X133243353Y-90276405D01*
X133238101Y-90277466D01*
X133253736Y-90280274D01*
X133268968Y-90283752D01*
X133283797Y-90287899D01*
X133298224Y-90292716D01*
X133312248Y-90298203D01*
X133325869Y-90304360D01*
X133339088Y-90311186D01*
X133351903Y-90318682D01*
X133364316Y-90326848D01*
X133376327Y-90335684D01*
X133384110Y-90341946D01*
X133395398Y-90351717D01*
X133406181Y-90361932D01*
X133416459Y-90372591D01*
X133426232Y-90383695D01*
X133435501Y-90395243D01*
X133444264Y-90407235D01*
X133452523Y-90419672D01*
X133460277Y-90432553D01*
X133467526Y-90445878D01*
X133474270Y-90459648D01*
X133478485Y-90469075D01*
X133484352Y-90483473D01*
X133489641Y-90498089D01*
X133494353Y-90512925D01*
X133498489Y-90527979D01*
X133502047Y-90543253D01*
X133505028Y-90558745D01*
X133507433Y-90574457D01*
X133509260Y-90590387D01*
X133510510Y-90606537D01*
X133511183Y-90622905D01*
X133511311Y-90633939D01*
X133511311Y-90636870D01*
X133511115Y-90651961D01*
X133510526Y-90666826D01*
X133509544Y-90681465D01*
X133507335Y-90702999D01*
X133504243Y-90724024D01*
X133500267Y-90744541D01*
X133495407Y-90764549D01*
X133489664Y-90784048D01*
X133483037Y-90803039D01*
X133475527Y-90821521D01*
X133467133Y-90839493D01*
X133461046Y-90851193D01*
X133451304Y-90868202D01*
X133440798Y-90884470D01*
X133429529Y-90899998D01*
X133417497Y-90914786D01*
X133404701Y-90928832D01*
X133391142Y-90942138D01*
X133376820Y-90954704D01*
X133361734Y-90966529D01*
X133345885Y-90977613D01*
X133329272Y-90987957D01*
X133317773Y-90994441D01*
X133300003Y-91003477D01*
X133281697Y-91011623D01*
X133262857Y-91018881D01*
X133243482Y-91025250D01*
X133223571Y-91030731D01*
X133210001Y-91033891D01*
X133196192Y-91036655D01*
X133182146Y-91039025D01*
X133167862Y-91041000D01*
X133153340Y-91042580D01*
X133138580Y-91043765D01*
X133123583Y-91044555D01*
X133108348Y-91044950D01*
X133100642Y-91045000D01*
X132648597Y-91045000D01*
X132648597Y-90850094D01*
G37*
G36*
X132533021Y-89546936D02*
G01*
X132728269Y-89546936D01*
X132728269Y-91045000D01*
X132533021Y-91045000D01*
X132533021Y-89546936D01*
G37*
G36*
X134150397Y-89546936D02*
G01*
X134317606Y-89546936D01*
X134833251Y-91045000D01*
X134621591Y-91045000D01*
X134234173Y-89836364D01*
X133846413Y-91045000D01*
X133635094Y-91045000D01*
X134150397Y-89546936D01*
G37*
G36*
X133872400Y-90516336D02*
G01*
X134608255Y-90516336D01*
X134608255Y-90716371D01*
X133872400Y-90716371D01*
X133872400Y-90516336D01*
G37*
G36*
X135202205Y-89669302D02*
G01*
X135398136Y-89669302D01*
X135398136Y-91045000D01*
X135202205Y-91045000D01*
X135202205Y-89669302D01*
G37*
G36*
X134806922Y-89546936D02*
G01*
X135793419Y-89546936D01*
X135793419Y-89746605D01*
X134806922Y-89746605D01*
X134806922Y-89546936D01*
G37*
G36*
X136289574Y-89669302D02*
G01*
X136485505Y-89669302D01*
X136485505Y-91045000D01*
X136289574Y-91045000D01*
X136289574Y-89669302D01*
G37*
G36*
X135894291Y-89546936D02*
G01*
X136880788Y-89546936D01*
X136880788Y-89746605D01*
X135894291Y-89746605D01*
X135894291Y-89546936D01*
G37*
X137974819Y-95206666D02*
X137498628Y-95539999D01*
X137974819Y-95778094D02*
X136974819Y-95778094D01*
X136974819Y-95778094D02*
X136974819Y-95397142D01*
X136974819Y-95397142D02*
X137022438Y-95301904D01*
X137022438Y-95301904D02*
X137070057Y-95254285D01*
X137070057Y-95254285D02*
X137165295Y-95206666D01*
X137165295Y-95206666D02*
X137308152Y-95206666D01*
X137308152Y-95206666D02*
X137403390Y-95254285D01*
X137403390Y-95254285D02*
X137451009Y-95301904D01*
X137451009Y-95301904D02*
X137498628Y-95397142D01*
X137498628Y-95397142D02*
X137498628Y-95778094D01*
X136974819Y-94873332D02*
X136974819Y-94206666D01*
X136974819Y-94206666D02*
X137974819Y-94635237D01*
X135035714Y-81386104D02*
X134997618Y-81424200D01*
X134997618Y-81424200D02*
X134883333Y-81462295D01*
X134883333Y-81462295D02*
X134807142Y-81462295D01*
X134807142Y-81462295D02*
X134692856Y-81424200D01*
X134692856Y-81424200D02*
X134616666Y-81348009D01*
X134616666Y-81348009D02*
X134578571Y-81271819D01*
X134578571Y-81271819D02*
X134540475Y-81119438D01*
X134540475Y-81119438D02*
X134540475Y-81005152D01*
X134540475Y-81005152D02*
X134578571Y-80852771D01*
X134578571Y-80852771D02*
X134616666Y-80776580D01*
X134616666Y-80776580D02*
X134692856Y-80700390D01*
X134692856Y-80700390D02*
X134807142Y-80662295D01*
X134807142Y-80662295D02*
X134883333Y-80662295D01*
X134883333Y-80662295D02*
X134997618Y-80700390D01*
X134997618Y-80700390D02*
X135035714Y-80738485D01*
X135797618Y-81462295D02*
X135340475Y-81462295D01*
X135569047Y-81462295D02*
X135569047Y-80662295D01*
X135569047Y-80662295D02*
X135492856Y-80776580D01*
X135492856Y-80776580D02*
X135416666Y-80852771D01*
X135416666Y-80852771D02*
X135340475Y-80890866D01*
X136102380Y-80738485D02*
X136140476Y-80700390D01*
X136140476Y-80700390D02*
X136216666Y-80662295D01*
X136216666Y-80662295D02*
X136407142Y-80662295D01*
X136407142Y-80662295D02*
X136483333Y-80700390D01*
X136483333Y-80700390D02*
X136521428Y-80738485D01*
X136521428Y-80738485D02*
X136559523Y-80814676D01*
X136559523Y-80814676D02*
X136559523Y-80890866D01*
X136559523Y-80890866D02*
X136521428Y-81005152D01*
X136521428Y-81005152D02*
X136064285Y-81462295D01*
X136064285Y-81462295D02*
X136559523Y-81462295D01*
X134844819Y-98388094D02*
X133844819Y-98388094D01*
X133844819Y-98388094D02*
X133844819Y-98149999D01*
X133844819Y-98149999D02*
X133892438Y-98007142D01*
X133892438Y-98007142D02*
X133987676Y-97911904D01*
X133987676Y-97911904D02*
X134082914Y-97864285D01*
X134082914Y-97864285D02*
X134273390Y-97816666D01*
X134273390Y-97816666D02*
X134416247Y-97816666D01*
X134416247Y-97816666D02*
X134606723Y-97864285D01*
X134606723Y-97864285D02*
X134701961Y-97911904D01*
X134701961Y-97911904D02*
X134797200Y-98007142D01*
X134797200Y-98007142D02*
X134844819Y-98149999D01*
X134844819Y-98149999D02*
X134844819Y-98388094D01*
X133844819Y-97483332D02*
X133844819Y-96864285D01*
X133844819Y-96864285D02*
X134225771Y-97197618D01*
X134225771Y-97197618D02*
X134225771Y-97054761D01*
X134225771Y-97054761D02*
X134273390Y-96959523D01*
X134273390Y-96959523D02*
X134321009Y-96911904D01*
X134321009Y-96911904D02*
X134416247Y-96864285D01*
X134416247Y-96864285D02*
X134654342Y-96864285D01*
X134654342Y-96864285D02*
X134749580Y-96911904D01*
X134749580Y-96911904D02*
X134797200Y-96959523D01*
X134797200Y-96959523D02*
X134844819Y-97054761D01*
X134844819Y-97054761D02*
X134844819Y-97340475D01*
X134844819Y-97340475D02*
X134797200Y-97435713D01*
X134797200Y-97435713D02*
X134749580Y-97483332D01*
X113457142Y-105964819D02*
X113123809Y-105488628D01*
X112885714Y-105964819D02*
X112885714Y-104964819D01*
X112885714Y-104964819D02*
X113266666Y-104964819D01*
X113266666Y-104964819D02*
X113361904Y-105012438D01*
X113361904Y-105012438D02*
X113409523Y-105060057D01*
X113409523Y-105060057D02*
X113457142Y-105155295D01*
X113457142Y-105155295D02*
X113457142Y-105298152D01*
X113457142Y-105298152D02*
X113409523Y-105393390D01*
X113409523Y-105393390D02*
X113361904Y-105441009D01*
X113361904Y-105441009D02*
X113266666Y-105488628D01*
X113266666Y-105488628D02*
X112885714Y-105488628D01*
X114409523Y-105964819D02*
X113838095Y-105964819D01*
X114123809Y-105964819D02*
X114123809Y-104964819D01*
X114123809Y-104964819D02*
X114028571Y-105107676D01*
X114028571Y-105107676D02*
X113933333Y-105202914D01*
X113933333Y-105202914D02*
X113838095Y-105250533D01*
X115361904Y-105964819D02*
X114790476Y-105964819D01*
X115076190Y-105964819D02*
X115076190Y-104964819D01*
X115076190Y-104964819D02*
X114980952Y-105107676D01*
X114980952Y-105107676D02*
X114885714Y-105202914D01*
X114885714Y-105202914D02*
X114790476Y-105250533D01*
X143813333Y-79234819D02*
X143480000Y-78758628D01*
X143241905Y-79234819D02*
X143241905Y-78234819D01*
X143241905Y-78234819D02*
X143622857Y-78234819D01*
X143622857Y-78234819D02*
X143718095Y-78282438D01*
X143718095Y-78282438D02*
X143765714Y-78330057D01*
X143765714Y-78330057D02*
X143813333Y-78425295D01*
X143813333Y-78425295D02*
X143813333Y-78568152D01*
X143813333Y-78568152D02*
X143765714Y-78663390D01*
X143765714Y-78663390D02*
X143718095Y-78711009D01*
X143718095Y-78711009D02*
X143622857Y-78758628D01*
X143622857Y-78758628D02*
X143241905Y-78758628D01*
X144146667Y-78234819D02*
X144765714Y-78234819D01*
X144765714Y-78234819D02*
X144432381Y-78615771D01*
X144432381Y-78615771D02*
X144575238Y-78615771D01*
X144575238Y-78615771D02*
X144670476Y-78663390D01*
X144670476Y-78663390D02*
X144718095Y-78711009D01*
X144718095Y-78711009D02*
X144765714Y-78806247D01*
X144765714Y-78806247D02*
X144765714Y-79044342D01*
X144765714Y-79044342D02*
X144718095Y-79139580D01*
X144718095Y-79139580D02*
X144670476Y-79187200D01*
X144670476Y-79187200D02*
X144575238Y-79234819D01*
X144575238Y-79234819D02*
X144289524Y-79234819D01*
X144289524Y-79234819D02*
X144194286Y-79187200D01*
X144194286Y-79187200D02*
X144146667Y-79139580D01*
X128615714Y-86366104D02*
X128577618Y-86404200D01*
X128577618Y-86404200D02*
X128463333Y-86442295D01*
X128463333Y-86442295D02*
X128387142Y-86442295D01*
X128387142Y-86442295D02*
X128272856Y-86404200D01*
X128272856Y-86404200D02*
X128196666Y-86328009D01*
X128196666Y-86328009D02*
X128158571Y-86251819D01*
X128158571Y-86251819D02*
X128120475Y-86099438D01*
X128120475Y-86099438D02*
X128120475Y-85985152D01*
X128120475Y-85985152D02*
X128158571Y-85832771D01*
X128158571Y-85832771D02*
X128196666Y-85756580D01*
X128196666Y-85756580D02*
X128272856Y-85680390D01*
X128272856Y-85680390D02*
X128387142Y-85642295D01*
X128387142Y-85642295D02*
X128463333Y-85642295D01*
X128463333Y-85642295D02*
X128577618Y-85680390D01*
X128577618Y-85680390D02*
X128615714Y-85718485D01*
X129377618Y-86442295D02*
X128920475Y-86442295D01*
X129149047Y-86442295D02*
X129149047Y-85642295D01*
X129149047Y-85642295D02*
X129072856Y-85756580D01*
X129072856Y-85756580D02*
X128996666Y-85832771D01*
X128996666Y-85832771D02*
X128920475Y-85870866D01*
X129644285Y-85642295D02*
X130139523Y-85642295D01*
X130139523Y-85642295D02*
X129872857Y-85947057D01*
X129872857Y-85947057D02*
X129987142Y-85947057D01*
X129987142Y-85947057D02*
X130063333Y-85985152D01*
X130063333Y-85985152D02*
X130101428Y-86023247D01*
X130101428Y-86023247D02*
X130139523Y-86099438D01*
X130139523Y-86099438D02*
X130139523Y-86289914D01*
X130139523Y-86289914D02*
X130101428Y-86366104D01*
X130101428Y-86366104D02*
X130063333Y-86404200D01*
X130063333Y-86404200D02*
X129987142Y-86442295D01*
X129987142Y-86442295D02*
X129758571Y-86442295D01*
X129758571Y-86442295D02*
X129682380Y-86404200D01*
X129682380Y-86404200D02*
X129644285Y-86366104D01*
X173723333Y-81339580D02*
X173675714Y-81387200D01*
X173675714Y-81387200D02*
X173532857Y-81434819D01*
X173532857Y-81434819D02*
X173437619Y-81434819D01*
X173437619Y-81434819D02*
X173294762Y-81387200D01*
X173294762Y-81387200D02*
X173199524Y-81291961D01*
X173199524Y-81291961D02*
X173151905Y-81196723D01*
X173151905Y-81196723D02*
X173104286Y-81006247D01*
X173104286Y-81006247D02*
X173104286Y-80863390D01*
X173104286Y-80863390D02*
X173151905Y-80672914D01*
X173151905Y-80672914D02*
X173199524Y-80577676D01*
X173199524Y-80577676D02*
X173294762Y-80482438D01*
X173294762Y-80482438D02*
X173437619Y-80434819D01*
X173437619Y-80434819D02*
X173532857Y-80434819D01*
X173532857Y-80434819D02*
X173675714Y-80482438D01*
X173675714Y-80482438D02*
X173723333Y-80530057D01*
X174675714Y-81434819D02*
X174104286Y-81434819D01*
X174390000Y-81434819D02*
X174390000Y-80434819D01*
X174390000Y-80434819D02*
X174294762Y-80577676D01*
X174294762Y-80577676D02*
X174199524Y-80672914D01*
X174199524Y-80672914D02*
X174104286Y-80720533D01*
X145514761Y-77950057D02*
X145419523Y-77902438D01*
X145419523Y-77902438D02*
X145324285Y-77807200D01*
X145324285Y-77807200D02*
X145181428Y-77664342D01*
X145181428Y-77664342D02*
X145086190Y-77616723D01*
X145086190Y-77616723D02*
X144990952Y-77616723D01*
X145038571Y-77854819D02*
X144943333Y-77807200D01*
X144943333Y-77807200D02*
X144848095Y-77711961D01*
X144848095Y-77711961D02*
X144800476Y-77521485D01*
X144800476Y-77521485D02*
X144800476Y-77188152D01*
X144800476Y-77188152D02*
X144848095Y-76997676D01*
X144848095Y-76997676D02*
X144943333Y-76902438D01*
X144943333Y-76902438D02*
X145038571Y-76854819D01*
X145038571Y-76854819D02*
X145229047Y-76854819D01*
X145229047Y-76854819D02*
X145324285Y-76902438D01*
X145324285Y-76902438D02*
X145419523Y-76997676D01*
X145419523Y-76997676D02*
X145467142Y-77188152D01*
X145467142Y-77188152D02*
X145467142Y-77521485D01*
X145467142Y-77521485D02*
X145419523Y-77711961D01*
X145419523Y-77711961D02*
X145324285Y-77807200D01*
X145324285Y-77807200D02*
X145229047Y-77854819D01*
X145229047Y-77854819D02*
X145038571Y-77854819D01*
X146419523Y-77854819D02*
X145848095Y-77854819D01*
X146133809Y-77854819D02*
X146133809Y-76854819D01*
X146133809Y-76854819D02*
X146038571Y-76997676D01*
X146038571Y-76997676D02*
X145943333Y-77092914D01*
X145943333Y-77092914D02*
X145848095Y-77140533D01*
D12*
X152818095Y-93977419D02*
X152818095Y-94786942D01*
X152818095Y-94786942D02*
X152865714Y-94882180D01*
X152865714Y-94882180D02*
X152913333Y-94929800D01*
X152913333Y-94929800D02*
X153008571Y-94977419D01*
X153008571Y-94977419D02*
X153199047Y-94977419D01*
X153199047Y-94977419D02*
X153294285Y-94929800D01*
X153294285Y-94929800D02*
X153341904Y-94882180D01*
X153341904Y-94882180D02*
X153389523Y-94786942D01*
X153389523Y-94786942D02*
X153389523Y-93977419D01*
X154389523Y-94977419D02*
X153818095Y-94977419D01*
X154103809Y-94977419D02*
X154103809Y-93977419D01*
X154103809Y-93977419D02*
X154008571Y-94120276D01*
X154008571Y-94120276D02*
X153913333Y-94215514D01*
X153913333Y-94215514D02*
X153818095Y-94263133D01*
D10*
X170473333Y-107639580D02*
X170425714Y-107687200D01*
X170425714Y-107687200D02*
X170282857Y-107734819D01*
X170282857Y-107734819D02*
X170187619Y-107734819D01*
X170187619Y-107734819D02*
X170044762Y-107687200D01*
X170044762Y-107687200D02*
X169949524Y-107591961D01*
X169949524Y-107591961D02*
X169901905Y-107496723D01*
X169901905Y-107496723D02*
X169854286Y-107306247D01*
X169854286Y-107306247D02*
X169854286Y-107163390D01*
X169854286Y-107163390D02*
X169901905Y-106972914D01*
X169901905Y-106972914D02*
X169949524Y-106877676D01*
X169949524Y-106877676D02*
X170044762Y-106782438D01*
X170044762Y-106782438D02*
X170187619Y-106734819D01*
X170187619Y-106734819D02*
X170282857Y-106734819D01*
X170282857Y-106734819D02*
X170425714Y-106782438D01*
X170425714Y-106782438D02*
X170473333Y-106830057D01*
X170854286Y-106830057D02*
X170901905Y-106782438D01*
X170901905Y-106782438D02*
X170997143Y-106734819D01*
X170997143Y-106734819D02*
X171235238Y-106734819D01*
X171235238Y-106734819D02*
X171330476Y-106782438D01*
X171330476Y-106782438D02*
X171378095Y-106830057D01*
X171378095Y-106830057D02*
X171425714Y-106925295D01*
X171425714Y-106925295D02*
X171425714Y-107020533D01*
X171425714Y-107020533D02*
X171378095Y-107163390D01*
X171378095Y-107163390D02*
X170806667Y-107734819D01*
X170806667Y-107734819D02*
X171425714Y-107734819D01*
X125467142Y-99739580D02*
X125419523Y-99787200D01*
X125419523Y-99787200D02*
X125276666Y-99834819D01*
X125276666Y-99834819D02*
X125181428Y-99834819D01*
X125181428Y-99834819D02*
X125038571Y-99787200D01*
X125038571Y-99787200D02*
X124943333Y-99691961D01*
X124943333Y-99691961D02*
X124895714Y-99596723D01*
X124895714Y-99596723D02*
X124848095Y-99406247D01*
X124848095Y-99406247D02*
X124848095Y-99263390D01*
X124848095Y-99263390D02*
X124895714Y-99072914D01*
X124895714Y-99072914D02*
X124943333Y-98977676D01*
X124943333Y-98977676D02*
X125038571Y-98882438D01*
X125038571Y-98882438D02*
X125181428Y-98834819D01*
X125181428Y-98834819D02*
X125276666Y-98834819D01*
X125276666Y-98834819D02*
X125419523Y-98882438D01*
X125419523Y-98882438D02*
X125467142Y-98930057D01*
X126419523Y-99834819D02*
X125848095Y-99834819D01*
X126133809Y-99834819D02*
X126133809Y-98834819D01*
X126133809Y-98834819D02*
X126038571Y-98977676D01*
X126038571Y-98977676D02*
X125943333Y-99072914D01*
X125943333Y-99072914D02*
X125848095Y-99120533D01*
X127038571Y-98834819D02*
X127133809Y-98834819D01*
X127133809Y-98834819D02*
X127229047Y-98882438D01*
X127229047Y-98882438D02*
X127276666Y-98930057D01*
X127276666Y-98930057D02*
X127324285Y-99025295D01*
X127324285Y-99025295D02*
X127371904Y-99215771D01*
X127371904Y-99215771D02*
X127371904Y-99453866D01*
X127371904Y-99453866D02*
X127324285Y-99644342D01*
X127324285Y-99644342D02*
X127276666Y-99739580D01*
X127276666Y-99739580D02*
X127229047Y-99787200D01*
X127229047Y-99787200D02*
X127133809Y-99834819D01*
X127133809Y-99834819D02*
X127038571Y-99834819D01*
X127038571Y-99834819D02*
X126943333Y-99787200D01*
X126943333Y-99787200D02*
X126895714Y-99739580D01*
X126895714Y-99739580D02*
X126848095Y-99644342D01*
X126848095Y-99644342D02*
X126800476Y-99453866D01*
X126800476Y-99453866D02*
X126800476Y-99215771D01*
X126800476Y-99215771D02*
X126848095Y-99025295D01*
X126848095Y-99025295D02*
X126895714Y-98930057D01*
X126895714Y-98930057D02*
X126943333Y-98882438D01*
X126943333Y-98882438D02*
X127038571Y-98834819D01*
X118622142Y-116254819D02*
X118288809Y-115778628D01*
X118050714Y-116254819D02*
X118050714Y-115254819D01*
X118050714Y-115254819D02*
X118431666Y-115254819D01*
X118431666Y-115254819D02*
X118526904Y-115302438D01*
X118526904Y-115302438D02*
X118574523Y-115350057D01*
X118574523Y-115350057D02*
X118622142Y-115445295D01*
X118622142Y-115445295D02*
X118622142Y-115588152D01*
X118622142Y-115588152D02*
X118574523Y-115683390D01*
X118574523Y-115683390D02*
X118526904Y-115731009D01*
X118526904Y-115731009D02*
X118431666Y-115778628D01*
X118431666Y-115778628D02*
X118050714Y-115778628D01*
X119574523Y-116254819D02*
X119003095Y-116254819D01*
X119288809Y-116254819D02*
X119288809Y-115254819D01*
X119288809Y-115254819D02*
X119193571Y-115397676D01*
X119193571Y-115397676D02*
X119098333Y-115492914D01*
X119098333Y-115492914D02*
X119003095Y-115540533D01*
X119955476Y-115350057D02*
X120003095Y-115302438D01*
X120003095Y-115302438D02*
X120098333Y-115254819D01*
X120098333Y-115254819D02*
X120336428Y-115254819D01*
X120336428Y-115254819D02*
X120431666Y-115302438D01*
X120431666Y-115302438D02*
X120479285Y-115350057D01*
X120479285Y-115350057D02*
X120526904Y-115445295D01*
X120526904Y-115445295D02*
X120526904Y-115540533D01*
X120526904Y-115540533D02*
X120479285Y-115683390D01*
X120479285Y-115683390D02*
X119907857Y-116254819D01*
X119907857Y-116254819D02*
X120526904Y-116254819D01*
X123567142Y-83659580D02*
X123519523Y-83707200D01*
X123519523Y-83707200D02*
X123376666Y-83754819D01*
X123376666Y-83754819D02*
X123281428Y-83754819D01*
X123281428Y-83754819D02*
X123138571Y-83707200D01*
X123138571Y-83707200D02*
X123043333Y-83611961D01*
X123043333Y-83611961D02*
X122995714Y-83516723D01*
X122995714Y-83516723D02*
X122948095Y-83326247D01*
X122948095Y-83326247D02*
X122948095Y-83183390D01*
X122948095Y-83183390D02*
X122995714Y-82992914D01*
X122995714Y-82992914D02*
X123043333Y-82897676D01*
X123043333Y-82897676D02*
X123138571Y-82802438D01*
X123138571Y-82802438D02*
X123281428Y-82754819D01*
X123281428Y-82754819D02*
X123376666Y-82754819D01*
X123376666Y-82754819D02*
X123519523Y-82802438D01*
X123519523Y-82802438D02*
X123567142Y-82850057D01*
X124519523Y-83754819D02*
X123948095Y-83754819D01*
X124233809Y-83754819D02*
X124233809Y-82754819D01*
X124233809Y-82754819D02*
X124138571Y-82897676D01*
X124138571Y-82897676D02*
X124043333Y-82992914D01*
X124043333Y-82992914D02*
X123948095Y-83040533D01*
X125471904Y-83754819D02*
X124900476Y-83754819D01*
X125186190Y-83754819D02*
X125186190Y-82754819D01*
X125186190Y-82754819D02*
X125090952Y-82897676D01*
X125090952Y-82897676D02*
X124995714Y-82992914D01*
X124995714Y-82992914D02*
X124900476Y-83040533D01*
X154613333Y-117879580D02*
X154565714Y-117927200D01*
X154565714Y-117927200D02*
X154422857Y-117974819D01*
X154422857Y-117974819D02*
X154327619Y-117974819D01*
X154327619Y-117974819D02*
X154184762Y-117927200D01*
X154184762Y-117927200D02*
X154089524Y-117831961D01*
X154089524Y-117831961D02*
X154041905Y-117736723D01*
X154041905Y-117736723D02*
X153994286Y-117546247D01*
X153994286Y-117546247D02*
X153994286Y-117403390D01*
X153994286Y-117403390D02*
X154041905Y-117212914D01*
X154041905Y-117212914D02*
X154089524Y-117117676D01*
X154089524Y-117117676D02*
X154184762Y-117022438D01*
X154184762Y-117022438D02*
X154327619Y-116974819D01*
X154327619Y-116974819D02*
X154422857Y-116974819D01*
X154422857Y-116974819D02*
X154565714Y-117022438D01*
X154565714Y-117022438D02*
X154613333Y-117070057D01*
X155518095Y-116974819D02*
X155041905Y-116974819D01*
X155041905Y-116974819D02*
X154994286Y-117451009D01*
X154994286Y-117451009D02*
X155041905Y-117403390D01*
X155041905Y-117403390D02*
X155137143Y-117355771D01*
X155137143Y-117355771D02*
X155375238Y-117355771D01*
X155375238Y-117355771D02*
X155470476Y-117403390D01*
X155470476Y-117403390D02*
X155518095Y-117451009D01*
X155518095Y-117451009D02*
X155565714Y-117546247D01*
X155565714Y-117546247D02*
X155565714Y-117784342D01*
X155565714Y-117784342D02*
X155518095Y-117879580D01*
X155518095Y-117879580D02*
X155470476Y-117927200D01*
X155470476Y-117927200D02*
X155375238Y-117974819D01*
X155375238Y-117974819D02*
X155137143Y-117974819D01*
X155137143Y-117974819D02*
X155041905Y-117927200D01*
X155041905Y-117927200D02*
X154994286Y-117879580D01*
X119987142Y-103869580D02*
X119939523Y-103917200D01*
X119939523Y-103917200D02*
X119796666Y-103964819D01*
X119796666Y-103964819D02*
X119701428Y-103964819D01*
X119701428Y-103964819D02*
X119558571Y-103917200D01*
X119558571Y-103917200D02*
X119463333Y-103821961D01*
X119463333Y-103821961D02*
X119415714Y-103726723D01*
X119415714Y-103726723D02*
X119368095Y-103536247D01*
X119368095Y-103536247D02*
X119368095Y-103393390D01*
X119368095Y-103393390D02*
X119415714Y-103202914D01*
X119415714Y-103202914D02*
X119463333Y-103107676D01*
X119463333Y-103107676D02*
X119558571Y-103012438D01*
X119558571Y-103012438D02*
X119701428Y-102964819D01*
X119701428Y-102964819D02*
X119796666Y-102964819D01*
X119796666Y-102964819D02*
X119939523Y-103012438D01*
X119939523Y-103012438D02*
X119987142Y-103060057D01*
X120939523Y-103964819D02*
X120368095Y-103964819D01*
X120653809Y-103964819D02*
X120653809Y-102964819D01*
X120653809Y-102964819D02*
X120558571Y-103107676D01*
X120558571Y-103107676D02*
X120463333Y-103202914D01*
X120463333Y-103202914D02*
X120368095Y-103250533D01*
X121272857Y-102964819D02*
X121939523Y-102964819D01*
X121939523Y-102964819D02*
X121510952Y-103964819D01*
X120138095Y-109434819D02*
X120138095Y-110244342D01*
X120138095Y-110244342D02*
X120185714Y-110339580D01*
X120185714Y-110339580D02*
X120233333Y-110387200D01*
X120233333Y-110387200D02*
X120328571Y-110434819D01*
X120328571Y-110434819D02*
X120519047Y-110434819D01*
X120519047Y-110434819D02*
X120614285Y-110387200D01*
X120614285Y-110387200D02*
X120661904Y-110339580D01*
X120661904Y-110339580D02*
X120709523Y-110244342D01*
X120709523Y-110244342D02*
X120709523Y-109434819D01*
X121661904Y-109434819D02*
X121185714Y-109434819D01*
X121185714Y-109434819D02*
X121138095Y-109911009D01*
X121138095Y-109911009D02*
X121185714Y-109863390D01*
X121185714Y-109863390D02*
X121280952Y-109815771D01*
X121280952Y-109815771D02*
X121519047Y-109815771D01*
X121519047Y-109815771D02*
X121614285Y-109863390D01*
X121614285Y-109863390D02*
X121661904Y-109911009D01*
X121661904Y-109911009D02*
X121709523Y-110006247D01*
X121709523Y-110006247D02*
X121709523Y-110244342D01*
X121709523Y-110244342D02*
X121661904Y-110339580D01*
X121661904Y-110339580D02*
X121614285Y-110387200D01*
X121614285Y-110387200D02*
X121519047Y-110434819D01*
X121519047Y-110434819D02*
X121280952Y-110434819D01*
X121280952Y-110434819D02*
X121185714Y-110387200D01*
X121185714Y-110387200D02*
X121138095Y-110339580D01*
X135204819Y-93178094D02*
X134204819Y-93178094D01*
X134204819Y-93178094D02*
X134204819Y-92939999D01*
X134204819Y-92939999D02*
X134252438Y-92797142D01*
X134252438Y-92797142D02*
X134347676Y-92701904D01*
X134347676Y-92701904D02*
X134442914Y-92654285D01*
X134442914Y-92654285D02*
X134633390Y-92606666D01*
X134633390Y-92606666D02*
X134776247Y-92606666D01*
X134776247Y-92606666D02*
X134966723Y-92654285D01*
X134966723Y-92654285D02*
X135061961Y-92701904D01*
X135061961Y-92701904D02*
X135157200Y-92797142D01*
X135157200Y-92797142D02*
X135204819Y-92939999D01*
X135204819Y-92939999D02*
X135204819Y-93178094D01*
X134538152Y-91749523D02*
X135204819Y-91749523D01*
X134157200Y-91987618D02*
X134871485Y-92225713D01*
X134871485Y-92225713D02*
X134871485Y-91606666D01*
D12*
X118391905Y-89607419D02*
X118391905Y-88607419D01*
X118963333Y-89607419D02*
X118534762Y-89035990D01*
X118963333Y-88607419D02*
X118391905Y-89178847D01*
X119915714Y-89607419D02*
X119344286Y-89607419D01*
X119630000Y-89607419D02*
X119630000Y-88607419D01*
X119630000Y-88607419D02*
X119534762Y-88750276D01*
X119534762Y-88750276D02*
X119439524Y-88845514D01*
X119439524Y-88845514D02*
X119344286Y-88893133D01*
D10*
X114708095Y-109414819D02*
X114708095Y-110224342D01*
X114708095Y-110224342D02*
X114755714Y-110319580D01*
X114755714Y-110319580D02*
X114803333Y-110367200D01*
X114803333Y-110367200D02*
X114898571Y-110414819D01*
X114898571Y-110414819D02*
X115089047Y-110414819D01*
X115089047Y-110414819D02*
X115184285Y-110367200D01*
X115184285Y-110367200D02*
X115231904Y-110319580D01*
X115231904Y-110319580D02*
X115279523Y-110224342D01*
X115279523Y-110224342D02*
X115279523Y-109414819D01*
X116184285Y-109748152D02*
X116184285Y-110414819D01*
X115946190Y-109367200D02*
X115708095Y-110081485D01*
X115708095Y-110081485D02*
X116327142Y-110081485D01*
X136418095Y-114714819D02*
X136418095Y-115524342D01*
X136418095Y-115524342D02*
X136465714Y-115619580D01*
X136465714Y-115619580D02*
X136513333Y-115667200D01*
X136513333Y-115667200D02*
X136608571Y-115714819D01*
X136608571Y-115714819D02*
X136799047Y-115714819D01*
X136799047Y-115714819D02*
X136894285Y-115667200D01*
X136894285Y-115667200D02*
X136941904Y-115619580D01*
X136941904Y-115619580D02*
X136989523Y-115524342D01*
X136989523Y-115524342D02*
X136989523Y-114714819D01*
X137418095Y-114810057D02*
X137465714Y-114762438D01*
X137465714Y-114762438D02*
X137560952Y-114714819D01*
X137560952Y-114714819D02*
X137799047Y-114714819D01*
X137799047Y-114714819D02*
X137894285Y-114762438D01*
X137894285Y-114762438D02*
X137941904Y-114810057D01*
X137941904Y-114810057D02*
X137989523Y-114905295D01*
X137989523Y-114905295D02*
X137989523Y-115000533D01*
X137989523Y-115000533D02*
X137941904Y-115143390D01*
X137941904Y-115143390D02*
X137370476Y-115714819D01*
X137370476Y-115714819D02*
X137989523Y-115714819D01*
X139281905Y-99134819D02*
X139281905Y-98134819D01*
X139281905Y-98134819D02*
X139520000Y-98134819D01*
X139520000Y-98134819D02*
X139662857Y-98182438D01*
X139662857Y-98182438D02*
X139758095Y-98277676D01*
X139758095Y-98277676D02*
X139805714Y-98372914D01*
X139805714Y-98372914D02*
X139853333Y-98563390D01*
X139853333Y-98563390D02*
X139853333Y-98706247D01*
X139853333Y-98706247D02*
X139805714Y-98896723D01*
X139805714Y-98896723D02*
X139758095Y-98991961D01*
X139758095Y-98991961D02*
X139662857Y-99087200D01*
X139662857Y-99087200D02*
X139520000Y-99134819D01*
X139520000Y-99134819D02*
X139281905Y-99134819D01*
X140805714Y-99134819D02*
X140234286Y-99134819D01*
X140520000Y-99134819D02*
X140520000Y-98134819D01*
X140520000Y-98134819D02*
X140424762Y-98277676D01*
X140424762Y-98277676D02*
X140329524Y-98372914D01*
X140329524Y-98372914D02*
X140234286Y-98420533D01*
X162453333Y-81999580D02*
X162405714Y-82047200D01*
X162405714Y-82047200D02*
X162262857Y-82094819D01*
X162262857Y-82094819D02*
X162167619Y-82094819D01*
X162167619Y-82094819D02*
X162024762Y-82047200D01*
X162024762Y-82047200D02*
X161929524Y-81951961D01*
X161929524Y-81951961D02*
X161881905Y-81856723D01*
X161881905Y-81856723D02*
X161834286Y-81666247D01*
X161834286Y-81666247D02*
X161834286Y-81523390D01*
X161834286Y-81523390D02*
X161881905Y-81332914D01*
X161881905Y-81332914D02*
X161929524Y-81237676D01*
X161929524Y-81237676D02*
X162024762Y-81142438D01*
X162024762Y-81142438D02*
X162167619Y-81094819D01*
X162167619Y-81094819D02*
X162262857Y-81094819D01*
X162262857Y-81094819D02*
X162405714Y-81142438D01*
X162405714Y-81142438D02*
X162453333Y-81190057D01*
X162786667Y-81094819D02*
X163405714Y-81094819D01*
X163405714Y-81094819D02*
X163072381Y-81475771D01*
X163072381Y-81475771D02*
X163215238Y-81475771D01*
X163215238Y-81475771D02*
X163310476Y-81523390D01*
X163310476Y-81523390D02*
X163358095Y-81571009D01*
X163358095Y-81571009D02*
X163405714Y-81666247D01*
X163405714Y-81666247D02*
X163405714Y-81904342D01*
X163405714Y-81904342D02*
X163358095Y-81999580D01*
X163358095Y-81999580D02*
X163310476Y-82047200D01*
X163310476Y-82047200D02*
X163215238Y-82094819D01*
X163215238Y-82094819D02*
X162929524Y-82094819D01*
X162929524Y-82094819D02*
X162834286Y-82047200D01*
X162834286Y-82047200D02*
X162786667Y-81999580D01*
X156673333Y-111549580D02*
X156625714Y-111597200D01*
X156625714Y-111597200D02*
X156482857Y-111644819D01*
X156482857Y-111644819D02*
X156387619Y-111644819D01*
X156387619Y-111644819D02*
X156244762Y-111597200D01*
X156244762Y-111597200D02*
X156149524Y-111501961D01*
X156149524Y-111501961D02*
X156101905Y-111406723D01*
X156101905Y-111406723D02*
X156054286Y-111216247D01*
X156054286Y-111216247D02*
X156054286Y-111073390D01*
X156054286Y-111073390D02*
X156101905Y-110882914D01*
X156101905Y-110882914D02*
X156149524Y-110787676D01*
X156149524Y-110787676D02*
X156244762Y-110692438D01*
X156244762Y-110692438D02*
X156387619Y-110644819D01*
X156387619Y-110644819D02*
X156482857Y-110644819D01*
X156482857Y-110644819D02*
X156625714Y-110692438D01*
X156625714Y-110692438D02*
X156673333Y-110740057D01*
X157530476Y-110644819D02*
X157340000Y-110644819D01*
X157340000Y-110644819D02*
X157244762Y-110692438D01*
X157244762Y-110692438D02*
X157197143Y-110740057D01*
X157197143Y-110740057D02*
X157101905Y-110882914D01*
X157101905Y-110882914D02*
X157054286Y-111073390D01*
X157054286Y-111073390D02*
X157054286Y-111454342D01*
X157054286Y-111454342D02*
X157101905Y-111549580D01*
X157101905Y-111549580D02*
X157149524Y-111597200D01*
X157149524Y-111597200D02*
X157244762Y-111644819D01*
X157244762Y-111644819D02*
X157435238Y-111644819D01*
X157435238Y-111644819D02*
X157530476Y-111597200D01*
X157530476Y-111597200D02*
X157578095Y-111549580D01*
X157578095Y-111549580D02*
X157625714Y-111454342D01*
X157625714Y-111454342D02*
X157625714Y-111216247D01*
X157625714Y-111216247D02*
X157578095Y-111121009D01*
X157578095Y-111121009D02*
X157530476Y-111073390D01*
X157530476Y-111073390D02*
X157435238Y-111025771D01*
X157435238Y-111025771D02*
X157244762Y-111025771D01*
X157244762Y-111025771D02*
X157149524Y-111073390D01*
X157149524Y-111073390D02*
X157101905Y-111121009D01*
X157101905Y-111121009D02*
X157054286Y-111216247D01*
D12*
X170323333Y-95107419D02*
X169847143Y-95107419D01*
X169847143Y-95107419D02*
X169847143Y-94107419D01*
X171180476Y-95107419D02*
X170609048Y-95107419D01*
X170894762Y-95107419D02*
X170894762Y-94107419D01*
X170894762Y-94107419D02*
X170799524Y-94250276D01*
X170799524Y-94250276D02*
X170704286Y-94345514D01*
X170704286Y-94345514D02*
X170609048Y-94393133D01*
D10*
X152393333Y-77862319D02*
X152060000Y-77386128D01*
X151821905Y-77862319D02*
X151821905Y-76862319D01*
X151821905Y-76862319D02*
X152202857Y-76862319D01*
X152202857Y-76862319D02*
X152298095Y-76909938D01*
X152298095Y-76909938D02*
X152345714Y-76957557D01*
X152345714Y-76957557D02*
X152393333Y-77052795D01*
X152393333Y-77052795D02*
X152393333Y-77195652D01*
X152393333Y-77195652D02*
X152345714Y-77290890D01*
X152345714Y-77290890D02*
X152298095Y-77338509D01*
X152298095Y-77338509D02*
X152202857Y-77386128D01*
X152202857Y-77386128D02*
X151821905Y-77386128D01*
X153250476Y-77195652D02*
X153250476Y-77862319D01*
X153012381Y-76814700D02*
X152774286Y-77528985D01*
X152774286Y-77528985D02*
X153393333Y-77528985D01*
X132093333Y-101509580D02*
X132045714Y-101557200D01*
X132045714Y-101557200D02*
X131902857Y-101604819D01*
X131902857Y-101604819D02*
X131807619Y-101604819D01*
X131807619Y-101604819D02*
X131664762Y-101557200D01*
X131664762Y-101557200D02*
X131569524Y-101461961D01*
X131569524Y-101461961D02*
X131521905Y-101366723D01*
X131521905Y-101366723D02*
X131474286Y-101176247D01*
X131474286Y-101176247D02*
X131474286Y-101033390D01*
X131474286Y-101033390D02*
X131521905Y-100842914D01*
X131521905Y-100842914D02*
X131569524Y-100747676D01*
X131569524Y-100747676D02*
X131664762Y-100652438D01*
X131664762Y-100652438D02*
X131807619Y-100604819D01*
X131807619Y-100604819D02*
X131902857Y-100604819D01*
X131902857Y-100604819D02*
X132045714Y-100652438D01*
X132045714Y-100652438D02*
X132093333Y-100700057D01*
X132569524Y-101604819D02*
X132760000Y-101604819D01*
X132760000Y-101604819D02*
X132855238Y-101557200D01*
X132855238Y-101557200D02*
X132902857Y-101509580D01*
X132902857Y-101509580D02*
X132998095Y-101366723D01*
X132998095Y-101366723D02*
X133045714Y-101176247D01*
X133045714Y-101176247D02*
X133045714Y-100795295D01*
X133045714Y-100795295D02*
X132998095Y-100700057D01*
X132998095Y-100700057D02*
X132950476Y-100652438D01*
X132950476Y-100652438D02*
X132855238Y-100604819D01*
X132855238Y-100604819D02*
X132664762Y-100604819D01*
X132664762Y-100604819D02*
X132569524Y-100652438D01*
X132569524Y-100652438D02*
X132521905Y-100700057D01*
X132521905Y-100700057D02*
X132474286Y-100795295D01*
X132474286Y-100795295D02*
X132474286Y-101033390D01*
X132474286Y-101033390D02*
X132521905Y-101128628D01*
X132521905Y-101128628D02*
X132569524Y-101176247D01*
X132569524Y-101176247D02*
X132664762Y-101223866D01*
X132664762Y-101223866D02*
X132855238Y-101223866D01*
X132855238Y-101223866D02*
X132950476Y-101176247D01*
X132950476Y-101176247D02*
X132998095Y-101128628D01*
X132998095Y-101128628D02*
X133045714Y-101033390D01*
X114207142Y-116599580D02*
X114159523Y-116647200D01*
X114159523Y-116647200D02*
X114016666Y-116694819D01*
X114016666Y-116694819D02*
X113921428Y-116694819D01*
X113921428Y-116694819D02*
X113778571Y-116647200D01*
X113778571Y-116647200D02*
X113683333Y-116551961D01*
X113683333Y-116551961D02*
X113635714Y-116456723D01*
X113635714Y-116456723D02*
X113588095Y-116266247D01*
X113588095Y-116266247D02*
X113588095Y-116123390D01*
X113588095Y-116123390D02*
X113635714Y-115932914D01*
X113635714Y-115932914D02*
X113683333Y-115837676D01*
X113683333Y-115837676D02*
X113778571Y-115742438D01*
X113778571Y-115742438D02*
X113921428Y-115694819D01*
X113921428Y-115694819D02*
X114016666Y-115694819D01*
X114016666Y-115694819D02*
X114159523Y-115742438D01*
X114159523Y-115742438D02*
X114207142Y-115790057D01*
X115159523Y-116694819D02*
X114588095Y-116694819D01*
X114873809Y-116694819D02*
X114873809Y-115694819D01*
X114873809Y-115694819D02*
X114778571Y-115837676D01*
X114778571Y-115837676D02*
X114683333Y-115932914D01*
X114683333Y-115932914D02*
X114588095Y-115980533D01*
X115730952Y-116123390D02*
X115635714Y-116075771D01*
X115635714Y-116075771D02*
X115588095Y-116028152D01*
X115588095Y-116028152D02*
X115540476Y-115932914D01*
X115540476Y-115932914D02*
X115540476Y-115885295D01*
X115540476Y-115885295D02*
X115588095Y-115790057D01*
X115588095Y-115790057D02*
X115635714Y-115742438D01*
X115635714Y-115742438D02*
X115730952Y-115694819D01*
X115730952Y-115694819D02*
X115921428Y-115694819D01*
X115921428Y-115694819D02*
X116016666Y-115742438D01*
X116016666Y-115742438D02*
X116064285Y-115790057D01*
X116064285Y-115790057D02*
X116111904Y-115885295D01*
X116111904Y-115885295D02*
X116111904Y-115932914D01*
X116111904Y-115932914D02*
X116064285Y-116028152D01*
X116064285Y-116028152D02*
X116016666Y-116075771D01*
X116016666Y-116075771D02*
X115921428Y-116123390D01*
X115921428Y-116123390D02*
X115730952Y-116123390D01*
X115730952Y-116123390D02*
X115635714Y-116171009D01*
X115635714Y-116171009D02*
X115588095Y-116218628D01*
X115588095Y-116218628D02*
X115540476Y-116313866D01*
X115540476Y-116313866D02*
X115540476Y-116504342D01*
X115540476Y-116504342D02*
X115588095Y-116599580D01*
X115588095Y-116599580D02*
X115635714Y-116647200D01*
X115635714Y-116647200D02*
X115730952Y-116694819D01*
X115730952Y-116694819D02*
X115921428Y-116694819D01*
X115921428Y-116694819D02*
X116016666Y-116647200D01*
X116016666Y-116647200D02*
X116064285Y-116599580D01*
X116064285Y-116599580D02*
X116111904Y-116504342D01*
X116111904Y-116504342D02*
X116111904Y-116313866D01*
X116111904Y-116313866D02*
X116064285Y-116218628D01*
X116064285Y-116218628D02*
X116016666Y-116171009D01*
X116016666Y-116171009D02*
X115921428Y-116123390D01*
X128381905Y-91994819D02*
X128381905Y-90994819D01*
X128381905Y-90994819D02*
X128620000Y-90994819D01*
X128620000Y-90994819D02*
X128762857Y-91042438D01*
X128762857Y-91042438D02*
X128858095Y-91137676D01*
X128858095Y-91137676D02*
X128905714Y-91232914D01*
X128905714Y-91232914D02*
X128953333Y-91423390D01*
X128953333Y-91423390D02*
X128953333Y-91566247D01*
X128953333Y-91566247D02*
X128905714Y-91756723D01*
X128905714Y-91756723D02*
X128858095Y-91851961D01*
X128858095Y-91851961D02*
X128762857Y-91947200D01*
X128762857Y-91947200D02*
X128620000Y-91994819D01*
X128620000Y-91994819D02*
X128381905Y-91994819D01*
X129334286Y-91090057D02*
X129381905Y-91042438D01*
X129381905Y-91042438D02*
X129477143Y-90994819D01*
X129477143Y-90994819D02*
X129715238Y-90994819D01*
X129715238Y-90994819D02*
X129810476Y-91042438D01*
X129810476Y-91042438D02*
X129858095Y-91090057D01*
X129858095Y-91090057D02*
X129905714Y-91185295D01*
X129905714Y-91185295D02*
X129905714Y-91280533D01*
X129905714Y-91280533D02*
X129858095Y-91423390D01*
X129858095Y-91423390D02*
X129286667Y-91994819D01*
X129286667Y-91994819D02*
X129905714Y-91994819D01*
X131406667Y-94552295D02*
X131140000Y-94171342D01*
X130949524Y-94552295D02*
X130949524Y-93752295D01*
X130949524Y-93752295D02*
X131254286Y-93752295D01*
X131254286Y-93752295D02*
X131330476Y-93790390D01*
X131330476Y-93790390D02*
X131368571Y-93828485D01*
X131368571Y-93828485D02*
X131406667Y-93904676D01*
X131406667Y-93904676D02*
X131406667Y-94018961D01*
X131406667Y-94018961D02*
X131368571Y-94095152D01*
X131368571Y-94095152D02*
X131330476Y-94133247D01*
X131330476Y-94133247D02*
X131254286Y-94171342D01*
X131254286Y-94171342D02*
X130949524Y-94171342D01*
X131863809Y-94095152D02*
X131787619Y-94057057D01*
X131787619Y-94057057D02*
X131749524Y-94018961D01*
X131749524Y-94018961D02*
X131711428Y-93942771D01*
X131711428Y-93942771D02*
X131711428Y-93904676D01*
X131711428Y-93904676D02*
X131749524Y-93828485D01*
X131749524Y-93828485D02*
X131787619Y-93790390D01*
X131787619Y-93790390D02*
X131863809Y-93752295D01*
X131863809Y-93752295D02*
X132016190Y-93752295D01*
X132016190Y-93752295D02*
X132092381Y-93790390D01*
X132092381Y-93790390D02*
X132130476Y-93828485D01*
X132130476Y-93828485D02*
X132168571Y-93904676D01*
X132168571Y-93904676D02*
X132168571Y-93942771D01*
X132168571Y-93942771D02*
X132130476Y-94018961D01*
X132130476Y-94018961D02*
X132092381Y-94057057D01*
X132092381Y-94057057D02*
X132016190Y-94095152D01*
X132016190Y-94095152D02*
X131863809Y-94095152D01*
X131863809Y-94095152D02*
X131787619Y-94133247D01*
X131787619Y-94133247D02*
X131749524Y-94171342D01*
X131749524Y-94171342D02*
X131711428Y-94247533D01*
X131711428Y-94247533D02*
X131711428Y-94399914D01*
X131711428Y-94399914D02*
X131749524Y-94476104D01*
X131749524Y-94476104D02*
X131787619Y-94514200D01*
X131787619Y-94514200D02*
X131863809Y-94552295D01*
X131863809Y-94552295D02*
X132016190Y-94552295D01*
X132016190Y-94552295D02*
X132092381Y-94514200D01*
X132092381Y-94514200D02*
X132130476Y-94476104D01*
X132130476Y-94476104D02*
X132168571Y-94399914D01*
X132168571Y-94399914D02*
X132168571Y-94247533D01*
X132168571Y-94247533D02*
X132130476Y-94171342D01*
X132130476Y-94171342D02*
X132092381Y-94133247D01*
X132092381Y-94133247D02*
X132016190Y-94095152D01*
X138145714Y-90066104D02*
X138107618Y-90104200D01*
X138107618Y-90104200D02*
X137993333Y-90142295D01*
X137993333Y-90142295D02*
X137917142Y-90142295D01*
X137917142Y-90142295D02*
X137802856Y-90104200D01*
X137802856Y-90104200D02*
X137726666Y-90028009D01*
X137726666Y-90028009D02*
X137688571Y-89951819D01*
X137688571Y-89951819D02*
X137650475Y-89799438D01*
X137650475Y-89799438D02*
X137650475Y-89685152D01*
X137650475Y-89685152D02*
X137688571Y-89532771D01*
X137688571Y-89532771D02*
X137726666Y-89456580D01*
X137726666Y-89456580D02*
X137802856Y-89380390D01*
X137802856Y-89380390D02*
X137917142Y-89342295D01*
X137917142Y-89342295D02*
X137993333Y-89342295D01*
X137993333Y-89342295D02*
X138107618Y-89380390D01*
X138107618Y-89380390D02*
X138145714Y-89418485D01*
X138907618Y-90142295D02*
X138450475Y-90142295D01*
X138679047Y-90142295D02*
X138679047Y-89342295D01*
X138679047Y-89342295D02*
X138602856Y-89456580D01*
X138602856Y-89456580D02*
X138526666Y-89532771D01*
X138526666Y-89532771D02*
X138450475Y-89570866D01*
X139631428Y-89342295D02*
X139250476Y-89342295D01*
X139250476Y-89342295D02*
X139212380Y-89723247D01*
X139212380Y-89723247D02*
X139250476Y-89685152D01*
X139250476Y-89685152D02*
X139326666Y-89647057D01*
X139326666Y-89647057D02*
X139517142Y-89647057D01*
X139517142Y-89647057D02*
X139593333Y-89685152D01*
X139593333Y-89685152D02*
X139631428Y-89723247D01*
X139631428Y-89723247D02*
X139669523Y-89799438D01*
X139669523Y-89799438D02*
X139669523Y-89989914D01*
X139669523Y-89989914D02*
X139631428Y-90066104D01*
X139631428Y-90066104D02*
X139593333Y-90104200D01*
X139593333Y-90104200D02*
X139517142Y-90142295D01*
X139517142Y-90142295D02*
X139326666Y-90142295D01*
X139326666Y-90142295D02*
X139250476Y-90104200D01*
X139250476Y-90104200D02*
X139212380Y-90066104D01*
D13*
X135417500Y-95277258D02*
X135417500Y-94802742D01*
X136462500Y-95277258D02*
X136462500Y-94802742D01*
X132705000Y-85847323D02*
X132705000Y-84847323D01*
X132205000Y-85347323D02*
X133205000Y-85347323D01*
X130500000Y-80367677D02*
X140660000Y-80367677D01*
X130500000Y-80327677D02*
X140660000Y-80327677D01*
X130500000Y-80287677D02*
X140660000Y-80287677D01*
X130501000Y-80247677D02*
X140659000Y-80247677D01*
X130502000Y-80207677D02*
X140658000Y-80207677D01*
X130503000Y-80167677D02*
X140657000Y-80167677D01*
X130505000Y-80127677D02*
X140655000Y-80127677D01*
X130507000Y-80087677D02*
X140653000Y-80087677D01*
X130510000Y-80047677D02*
X140650000Y-80047677D01*
X130512000Y-80007677D02*
X140648000Y-80007677D01*
X130515000Y-79967677D02*
X140645000Y-79967677D01*
X130518000Y-79927677D02*
X140642000Y-79927677D01*
X130522000Y-79887677D02*
X140638000Y-79887677D01*
X130526000Y-79847677D02*
X140634000Y-79847677D01*
X130530000Y-79807677D02*
X140630000Y-79807677D01*
X130535000Y-79767677D02*
X140625000Y-79767677D01*
X130540000Y-79727677D02*
X140620000Y-79727677D01*
X130545000Y-79687677D02*
X140615000Y-79687677D01*
X130550000Y-79646677D02*
X140610000Y-79646677D01*
X130556000Y-79606677D02*
X140604000Y-79606677D01*
X130562000Y-79566677D02*
X140598000Y-79566677D01*
X130569000Y-79526677D02*
X140591000Y-79526677D01*
X130576000Y-79486677D02*
X140584000Y-79486677D01*
X130583000Y-79446677D02*
X140577000Y-79446677D01*
X130590000Y-79406677D02*
X140570000Y-79406677D01*
X130598000Y-79366677D02*
X140562000Y-79366677D01*
X130606000Y-79326677D02*
X140554000Y-79326677D01*
X130615000Y-79286677D02*
X140545000Y-79286677D01*
X130624000Y-79246677D02*
X140536000Y-79246677D01*
X130633000Y-79206677D02*
X140527000Y-79206677D01*
X130642000Y-79166677D02*
X140518000Y-79166677D01*
X130652000Y-79126677D02*
X140508000Y-79126677D01*
X130662000Y-79086677D02*
X134339000Y-79086677D01*
X136821000Y-79086677D02*
X140498000Y-79086677D01*
X130673000Y-79046677D02*
X134339000Y-79046677D01*
X136821000Y-79046677D02*
X140487000Y-79046677D01*
X130683000Y-79006677D02*
X134339000Y-79006677D01*
X136821000Y-79006677D02*
X140477000Y-79006677D01*
X130695000Y-78966677D02*
X134339000Y-78966677D01*
X136821000Y-78966677D02*
X140465000Y-78966677D01*
X130706000Y-78926677D02*
X134339000Y-78926677D01*
X136821000Y-78926677D02*
X140454000Y-78926677D01*
X130718000Y-78886677D02*
X134339000Y-78886677D01*
X136821000Y-78886677D02*
X140442000Y-78886677D01*
X130730000Y-78846677D02*
X134339000Y-78846677D01*
X136821000Y-78846677D02*
X140430000Y-78846677D01*
X130743000Y-78806677D02*
X134339000Y-78806677D01*
X136821000Y-78806677D02*
X140417000Y-78806677D01*
X130756000Y-78766677D02*
X134339000Y-78766677D01*
X136821000Y-78766677D02*
X140404000Y-78766677D01*
X130769000Y-78726677D02*
X134339000Y-78726677D01*
X136821000Y-78726677D02*
X140391000Y-78726677D01*
X130783000Y-78686677D02*
X134339000Y-78686677D01*
X136821000Y-78686677D02*
X140377000Y-78686677D01*
X130797000Y-78646677D02*
X134339000Y-78646677D01*
X136821000Y-78646677D02*
X140363000Y-78646677D01*
X130812000Y-78606677D02*
X134339000Y-78606677D01*
X136821000Y-78606677D02*
X140348000Y-78606677D01*
X130826000Y-78566677D02*
X134339000Y-78566677D01*
X136821000Y-78566677D02*
X140334000Y-78566677D01*
X130842000Y-78526677D02*
X134339000Y-78526677D01*
X136821000Y-78526677D02*
X140318000Y-78526677D01*
X130857000Y-78486677D02*
X134339000Y-78486677D01*
X136821000Y-78486677D02*
X140303000Y-78486677D01*
X130873000Y-78446677D02*
X134339000Y-78446677D01*
X136821000Y-78446677D02*
X140287000Y-78446677D01*
X130890000Y-78406677D02*
X134339000Y-78406677D01*
X136821000Y-78406677D02*
X140270000Y-78406677D01*
X130906000Y-78366677D02*
X134339000Y-78366677D01*
X136821000Y-78366677D02*
X140254000Y-78366677D01*
X130923000Y-78326677D02*
X134339000Y-78326677D01*
X136821000Y-78326677D02*
X140237000Y-78326677D01*
X130941000Y-78286677D02*
X134339000Y-78286677D01*
X136821000Y-78286677D02*
X140219000Y-78286677D01*
X130959000Y-78246677D02*
X134339000Y-78246677D01*
X136821000Y-78246677D02*
X140201000Y-78246677D01*
X130977000Y-78206677D02*
X134339000Y-78206677D01*
X136821000Y-78206677D02*
X140183000Y-78206677D01*
X130996000Y-78166677D02*
X134339000Y-78166677D01*
X136821000Y-78166677D02*
X140164000Y-78166677D01*
X131016000Y-78126677D02*
X134339000Y-78126677D01*
X136821000Y-78126677D02*
X140144000Y-78126677D01*
X131035000Y-78086677D02*
X134339000Y-78086677D01*
X136821000Y-78086677D02*
X140125000Y-78086677D01*
X131055000Y-78046677D02*
X134339000Y-78046677D01*
X136821000Y-78046677D02*
X140105000Y-78046677D01*
X131076000Y-78006677D02*
X134339000Y-78006677D01*
X136821000Y-78006677D02*
X140084000Y-78006677D01*
X131097000Y-77966677D02*
X134339000Y-77966677D01*
X136821000Y-77966677D02*
X140063000Y-77966677D01*
X131118000Y-77926677D02*
X134339000Y-77926677D01*
X136821000Y-77926677D02*
X140042000Y-77926677D01*
X131140000Y-77886677D02*
X134339000Y-77886677D01*
X136821000Y-77886677D02*
X140020000Y-77886677D01*
X131163000Y-77846677D02*
X134339000Y-77846677D01*
X136821000Y-77846677D02*
X139997000Y-77846677D01*
X131185000Y-77806677D02*
X134339000Y-77806677D01*
X136821000Y-77806677D02*
X139975000Y-77806677D01*
X131209000Y-77766677D02*
X134339000Y-77766677D01*
X136821000Y-77766677D02*
X139951000Y-77766677D01*
X131233000Y-77726677D02*
X134339000Y-77726677D01*
X136821000Y-77726677D02*
X139927000Y-77726677D01*
X131257000Y-77686677D02*
X134339000Y-77686677D01*
X136821000Y-77686677D02*
X139903000Y-77686677D01*
X131282000Y-77646677D02*
X134339000Y-77646677D01*
X136821000Y-77646677D02*
X139878000Y-77646677D01*
X131307000Y-77606677D02*
X134339000Y-77606677D01*
X136821000Y-77606677D02*
X139853000Y-77606677D01*
X131333000Y-77566677D02*
X134339000Y-77566677D01*
X136821000Y-77566677D02*
X139827000Y-77566677D01*
X131359000Y-77526677D02*
X134339000Y-77526677D01*
X136821000Y-77526677D02*
X139801000Y-77526677D01*
X131386000Y-77486677D02*
X134339000Y-77486677D01*
X136821000Y-77486677D02*
X139774000Y-77486677D01*
X131414000Y-77446677D02*
X134339000Y-77446677D01*
X136821000Y-77446677D02*
X139746000Y-77446677D01*
X131442000Y-77406677D02*
X134339000Y-77406677D01*
X136821000Y-77406677D02*
X139718000Y-77406677D01*
X131470000Y-77366677D02*
X134339000Y-77366677D01*
X136821000Y-77366677D02*
X139690000Y-77366677D01*
X131500000Y-77326677D02*
X134339000Y-77326677D01*
X136821000Y-77326677D02*
X139660000Y-77326677D01*
X131530000Y-77286677D02*
X134339000Y-77286677D01*
X136821000Y-77286677D02*
X139630000Y-77286677D01*
X131560000Y-77246677D02*
X134339000Y-77246677D01*
X136821000Y-77246677D02*
X139600000Y-77246677D01*
X131591000Y-77206677D02*
X134339000Y-77206677D01*
X136821000Y-77206677D02*
X139569000Y-77206677D01*
X131623000Y-77166677D02*
X134339000Y-77166677D01*
X136821000Y-77166677D02*
X139537000Y-77166677D01*
X131655000Y-77126677D02*
X134339000Y-77126677D01*
X136821000Y-77126677D02*
X139505000Y-77126677D01*
X131688000Y-77086677D02*
X134339000Y-77086677D01*
X136821000Y-77086677D02*
X139472000Y-77086677D01*
X131722000Y-77046677D02*
X134339000Y-77046677D01*
X136821000Y-77046677D02*
X139438000Y-77046677D01*
X131756000Y-77006677D02*
X134339000Y-77006677D01*
X136821000Y-77006677D02*
X139404000Y-77006677D01*
X131791000Y-76966677D02*
X134339000Y-76966677D01*
X136821000Y-76966677D02*
X139369000Y-76966677D01*
X131827000Y-76926677D02*
X134339000Y-76926677D01*
X136821000Y-76926677D02*
X139333000Y-76926677D01*
X131864000Y-76886677D02*
X134339000Y-76886677D01*
X136821000Y-76886677D02*
X139296000Y-76886677D01*
X131901000Y-76846677D02*
X134339000Y-76846677D01*
X136821000Y-76846677D02*
X139259000Y-76846677D01*
X131940000Y-76806677D02*
X134339000Y-76806677D01*
X136821000Y-76806677D02*
X139220000Y-76806677D01*
X131979000Y-76766677D02*
X134339000Y-76766677D01*
X136821000Y-76766677D02*
X139181000Y-76766677D01*
X132019000Y-76726677D02*
X134339000Y-76726677D01*
X136821000Y-76726677D02*
X139141000Y-76726677D01*
X132060000Y-76686677D02*
X134339000Y-76686677D01*
X136821000Y-76686677D02*
X139100000Y-76686677D01*
X132102000Y-76646677D02*
X134339000Y-76646677D01*
X136821000Y-76646677D02*
X139058000Y-76646677D01*
X132144000Y-76606677D02*
X139016000Y-76606677D01*
X132188000Y-76566677D02*
X138972000Y-76566677D01*
X132233000Y-76526677D02*
X138927000Y-76526677D01*
X132279000Y-76486677D02*
X138881000Y-76486677D01*
X132326000Y-76446677D02*
X138834000Y-76446677D01*
X132374000Y-76406677D02*
X138786000Y-76406677D01*
X132424000Y-76366677D02*
X138736000Y-76366677D01*
X132474000Y-76326677D02*
X138686000Y-76326677D01*
X132526000Y-76286677D02*
X138634000Y-76286677D01*
X132580000Y-76246677D02*
X138580000Y-76246677D01*
X132635000Y-76206677D02*
X138525000Y-76206677D01*
X132691000Y-76166677D02*
X138469000Y-76166677D01*
X132750000Y-76126677D02*
X138410000Y-76126677D01*
X132810000Y-76086677D02*
X138350000Y-76086677D01*
X132871000Y-76046677D02*
X138289000Y-76046677D01*
X132935000Y-76006677D02*
X138225000Y-76006677D01*
X133001000Y-75966677D02*
X138159000Y-75966677D01*
X133070000Y-75926677D02*
X138090000Y-75926677D01*
X133141000Y-75886677D02*
X138019000Y-75886677D01*
X133215000Y-75846677D02*
X137945000Y-75846677D01*
X133291000Y-75806677D02*
X137869000Y-75806677D01*
X133371000Y-75766677D02*
X137789000Y-75766677D01*
X133455000Y-75726677D02*
X137705000Y-75726677D01*
X133543000Y-75686677D02*
X137617000Y-75686677D01*
X133636000Y-75646677D02*
X137524000Y-75646677D01*
X133734000Y-75606677D02*
X137426000Y-75606677D01*
X133838000Y-75566677D02*
X137322000Y-75566677D01*
X133950000Y-75526677D02*
X137210000Y-75526677D01*
X134070000Y-75486677D02*
X137090000Y-75486677D01*
X134202000Y-75446677D02*
X136958000Y-75446677D01*
X134350000Y-75406677D02*
X136810000Y-75406677D01*
X134518000Y-75366677D02*
X136642000Y-75366677D01*
X134718000Y-75326677D02*
X136442000Y-75326677D01*
X134981000Y-75286677D02*
X136179000Y-75286677D01*
X140700000Y-80367677D02*
G75*
G03*
X140700000Y-80367677I-5120000J0D01*
G01*
X129720000Y-106470000D02*
X131620000Y-106470000D01*
X129720000Y-108370000D02*
X129720000Y-106470000D01*
X131620000Y-106470000D02*
X131620000Y-108370000D01*
X131620000Y-108370000D02*
X129720000Y-108370000D01*
X132105000Y-96515000D02*
X132105000Y-98785000D01*
X132105000Y-98785000D02*
X135990000Y-98785000D01*
X135990000Y-96515000D02*
X132105000Y-96515000D01*
X117177258Y-106062500D02*
X116702742Y-106062500D01*
X117177258Y-105017500D02*
X116702742Y-105017500D01*
X141415000Y-79427064D02*
X141415000Y-78972936D01*
X142885000Y-79427064D02*
X142885000Y-78972936D01*
X128310000Y-84011252D02*
X128310000Y-82588748D01*
X130130000Y-84011252D02*
X130130000Y-82588748D01*
X124140000Y-106470000D02*
X126040000Y-106470000D01*
X124140000Y-108370000D02*
X124140000Y-106470000D01*
X126040000Y-106470000D02*
X126040000Y-108370000D01*
X126040000Y-108370000D02*
X124140000Y-108370000D01*
X168965000Y-85679646D02*
X168965000Y-84679646D01*
X168465000Y-85179646D02*
X169465000Y-85179646D01*
X166760000Y-80200000D02*
X176920000Y-80200000D01*
X166760000Y-80160000D02*
X176920000Y-80160000D01*
X166760000Y-80120000D02*
X176920000Y-80120000D01*
X166761000Y-80080000D02*
X176919000Y-80080000D01*
X166762000Y-80040000D02*
X176918000Y-80040000D01*
X166763000Y-80000000D02*
X176917000Y-80000000D01*
X166765000Y-79960000D02*
X176915000Y-79960000D01*
X166767000Y-79920000D02*
X176913000Y-79920000D01*
X166770000Y-79880000D02*
X176910000Y-79880000D01*
X166772000Y-79840000D02*
X176908000Y-79840000D01*
X166775000Y-79800000D02*
X176905000Y-79800000D01*
X166778000Y-79760000D02*
X176902000Y-79760000D01*
X166782000Y-79720000D02*
X176898000Y-79720000D01*
X166786000Y-79680000D02*
X176894000Y-79680000D01*
X166790000Y-79640000D02*
X176890000Y-79640000D01*
X166795000Y-79600000D02*
X176885000Y-79600000D01*
X166800000Y-79560000D02*
X176880000Y-79560000D01*
X166805000Y-79520000D02*
X176875000Y-79520000D01*
X166810000Y-79479000D02*
X176870000Y-79479000D01*
X166816000Y-79439000D02*
X176864000Y-79439000D01*
X166822000Y-79399000D02*
X176858000Y-79399000D01*
X166829000Y-79359000D02*
X176851000Y-79359000D01*
X166836000Y-79319000D02*
X176844000Y-79319000D01*
X166843000Y-79279000D02*
X176837000Y-79279000D01*
X166850000Y-79239000D02*
X176830000Y-79239000D01*
X166858000Y-79199000D02*
X176822000Y-79199000D01*
X166866000Y-79159000D02*
X176814000Y-79159000D01*
X166875000Y-79119000D02*
X176805000Y-79119000D01*
X166884000Y-79079000D02*
X176796000Y-79079000D01*
X166893000Y-79039000D02*
X176787000Y-79039000D01*
X166902000Y-78999000D02*
X176778000Y-78999000D01*
X166912000Y-78959000D02*
X176768000Y-78959000D01*
X166922000Y-78919000D02*
X170599000Y-78919000D01*
X173081000Y-78919000D02*
X176758000Y-78919000D01*
X166933000Y-78879000D02*
X170599000Y-78879000D01*
X173081000Y-78879000D02*
X176747000Y-78879000D01*
X166943000Y-78839000D02*
X170599000Y-78839000D01*
X173081000Y-78839000D02*
X176737000Y-78839000D01*
X166955000Y-78799000D02*
X170599000Y-78799000D01*
X173081000Y-78799000D02*
X176725000Y-78799000D01*
X166966000Y-78759000D02*
X170599000Y-78759000D01*
X173081000Y-78759000D02*
X176714000Y-78759000D01*
X166978000Y-78719000D02*
X170599000Y-78719000D01*
X173081000Y-78719000D02*
X176702000Y-78719000D01*
X166990000Y-78679000D02*
X170599000Y-78679000D01*
X173081000Y-78679000D02*
X176690000Y-78679000D01*
X167003000Y-78639000D02*
X170599000Y-78639000D01*
X173081000Y-78639000D02*
X176677000Y-78639000D01*
X167016000Y-78599000D02*
X170599000Y-78599000D01*
X173081000Y-78599000D02*
X176664000Y-78599000D01*
X167029000Y-78559000D02*
X170599000Y-78559000D01*
X173081000Y-78559000D02*
X176651000Y-78559000D01*
X167043000Y-78519000D02*
X170599000Y-78519000D01*
X173081000Y-78519000D02*
X176637000Y-78519000D01*
X167057000Y-78479000D02*
X170599000Y-78479000D01*
X173081000Y-78479000D02*
X176623000Y-78479000D01*
X167072000Y-78439000D02*
X170599000Y-78439000D01*
X173081000Y-78439000D02*
X176608000Y-78439000D01*
X167086000Y-78399000D02*
X170599000Y-78399000D01*
X173081000Y-78399000D02*
X176594000Y-78399000D01*
X167102000Y-78359000D02*
X170599000Y-78359000D01*
X173081000Y-78359000D02*
X176578000Y-78359000D01*
X167117000Y-78319000D02*
X170599000Y-78319000D01*
X173081000Y-78319000D02*
X176563000Y-78319000D01*
X167133000Y-78279000D02*
X170599000Y-78279000D01*
X173081000Y-78279000D02*
X176547000Y-78279000D01*
X167150000Y-78239000D02*
X170599000Y-78239000D01*
X173081000Y-78239000D02*
X176530000Y-78239000D01*
X167166000Y-78199000D02*
X170599000Y-78199000D01*
X173081000Y-78199000D02*
X176514000Y-78199000D01*
X167183000Y-78159000D02*
X170599000Y-78159000D01*
X173081000Y-78159000D02*
X176497000Y-78159000D01*
X167201000Y-78119000D02*
X170599000Y-78119000D01*
X173081000Y-78119000D02*
X176479000Y-78119000D01*
X167219000Y-78079000D02*
X170599000Y-78079000D01*
X173081000Y-78079000D02*
X176461000Y-78079000D01*
X167237000Y-78039000D02*
X170599000Y-78039000D01*
X173081000Y-78039000D02*
X176443000Y-78039000D01*
X167256000Y-77999000D02*
X170599000Y-77999000D01*
X173081000Y-77999000D02*
X176424000Y-77999000D01*
X167276000Y-77959000D02*
X170599000Y-77959000D01*
X173081000Y-77959000D02*
X176404000Y-77959000D01*
X167295000Y-77919000D02*
X170599000Y-77919000D01*
X173081000Y-77919000D02*
X176385000Y-77919000D01*
X167315000Y-77879000D02*
X170599000Y-77879000D01*
X173081000Y-77879000D02*
X176365000Y-77879000D01*
X167336000Y-77839000D02*
X170599000Y-77839000D01*
X173081000Y-77839000D02*
X176344000Y-77839000D01*
X167357000Y-77799000D02*
X170599000Y-77799000D01*
X173081000Y-77799000D02*
X176323000Y-77799000D01*
X167378000Y-77759000D02*
X170599000Y-77759000D01*
X173081000Y-77759000D02*
X176302000Y-77759000D01*
X167400000Y-77719000D02*
X170599000Y-77719000D01*
X173081000Y-77719000D02*
X176280000Y-77719000D01*
X167423000Y-77679000D02*
X170599000Y-77679000D01*
X173081000Y-77679000D02*
X176257000Y-77679000D01*
X167445000Y-77639000D02*
X170599000Y-77639000D01*
X173081000Y-77639000D02*
X176235000Y-77639000D01*
X167469000Y-77599000D02*
X170599000Y-77599000D01*
X173081000Y-77599000D02*
X176211000Y-77599000D01*
X167493000Y-77559000D02*
X170599000Y-77559000D01*
X173081000Y-77559000D02*
X176187000Y-77559000D01*
X167517000Y-77519000D02*
X170599000Y-77519000D01*
X173081000Y-77519000D02*
X176163000Y-77519000D01*
X167542000Y-77479000D02*
X170599000Y-77479000D01*
X173081000Y-77479000D02*
X176138000Y-77479000D01*
X167567000Y-77439000D02*
X170599000Y-77439000D01*
X173081000Y-77439000D02*
X176113000Y-77439000D01*
X167593000Y-77399000D02*
X170599000Y-77399000D01*
X173081000Y-77399000D02*
X176087000Y-77399000D01*
X167619000Y-77359000D02*
X170599000Y-77359000D01*
X173081000Y-77359000D02*
X176061000Y-77359000D01*
X167646000Y-77319000D02*
X170599000Y-77319000D01*
X173081000Y-77319000D02*
X176034000Y-77319000D01*
X167674000Y-77279000D02*
X170599000Y-77279000D01*
X173081000Y-77279000D02*
X176006000Y-77279000D01*
X167702000Y-77239000D02*
X170599000Y-77239000D01*
X173081000Y-77239000D02*
X175978000Y-77239000D01*
X167730000Y-77199000D02*
X170599000Y-77199000D01*
X173081000Y-77199000D02*
X175950000Y-77199000D01*
X167760000Y-77159000D02*
X170599000Y-77159000D01*
X173081000Y-77159000D02*
X175920000Y-77159000D01*
X167790000Y-77119000D02*
X170599000Y-77119000D01*
X173081000Y-77119000D02*
X175890000Y-77119000D01*
X167820000Y-77079000D02*
X170599000Y-77079000D01*
X173081000Y-77079000D02*
X175860000Y-77079000D01*
X167851000Y-77039000D02*
X170599000Y-77039000D01*
X173081000Y-77039000D02*
X175829000Y-77039000D01*
X167883000Y-76999000D02*
X170599000Y-76999000D01*
X173081000Y-76999000D02*
X175797000Y-76999000D01*
X167915000Y-76959000D02*
X170599000Y-76959000D01*
X173081000Y-76959000D02*
X175765000Y-76959000D01*
X167948000Y-76919000D02*
X170599000Y-76919000D01*
X173081000Y-76919000D02*
X175732000Y-76919000D01*
X167982000Y-76879000D02*
X170599000Y-76879000D01*
X173081000Y-76879000D02*
X175698000Y-76879000D01*
X168016000Y-76839000D02*
X170599000Y-76839000D01*
X173081000Y-76839000D02*
X175664000Y-76839000D01*
X168051000Y-76799000D02*
X170599000Y-76799000D01*
X173081000Y-76799000D02*
X175629000Y-76799000D01*
X168087000Y-76759000D02*
X170599000Y-76759000D01*
X173081000Y-76759000D02*
X175593000Y-76759000D01*
X168124000Y-76719000D02*
X170599000Y-76719000D01*
X173081000Y-76719000D02*
X175556000Y-76719000D01*
X168161000Y-76679000D02*
X170599000Y-76679000D01*
X173081000Y-76679000D02*
X175519000Y-76679000D01*
X168200000Y-76639000D02*
X170599000Y-76639000D01*
X173081000Y-76639000D02*
X175480000Y-76639000D01*
X168239000Y-76599000D02*
X170599000Y-76599000D01*
X173081000Y-76599000D02*
X175441000Y-76599000D01*
X168279000Y-76559000D02*
X170599000Y-76559000D01*
X173081000Y-76559000D02*
X175401000Y-76559000D01*
X168320000Y-76519000D02*
X170599000Y-76519000D01*
X173081000Y-76519000D02*
X175360000Y-76519000D01*
X168362000Y-76479000D02*
X170599000Y-76479000D01*
X173081000Y-76479000D02*
X175318000Y-76479000D01*
X168404000Y-76439000D02*
X175276000Y-76439000D01*
X168448000Y-76399000D02*
X175232000Y-76399000D01*
X168493000Y-76359000D02*
X175187000Y-76359000D01*
X168539000Y-76319000D02*
X175141000Y-76319000D01*
X168586000Y-76279000D02*
X175094000Y-76279000D01*
X168634000Y-76239000D02*
X175046000Y-76239000D01*
X168684000Y-76199000D02*
X174996000Y-76199000D01*
X168734000Y-76159000D02*
X174946000Y-76159000D01*
X168786000Y-76119000D02*
X174894000Y-76119000D01*
X168840000Y-76079000D02*
X174840000Y-76079000D01*
X168895000Y-76039000D02*
X174785000Y-76039000D01*
X168951000Y-75999000D02*
X174729000Y-75999000D01*
X169010000Y-75959000D02*
X174670000Y-75959000D01*
X169070000Y-75919000D02*
X174610000Y-75919000D01*
X169131000Y-75879000D02*
X174549000Y-75879000D01*
X169195000Y-75839000D02*
X174485000Y-75839000D01*
X169261000Y-75799000D02*
X174419000Y-75799000D01*
X169330000Y-75759000D02*
X174350000Y-75759000D01*
X169401000Y-75719000D02*
X174279000Y-75719000D01*
X169475000Y-75679000D02*
X174205000Y-75679000D01*
X169551000Y-75639000D02*
X174129000Y-75639000D01*
X169631000Y-75599000D02*
X174049000Y-75599000D01*
X169715000Y-75559000D02*
X173965000Y-75559000D01*
X169803000Y-75519000D02*
X173877000Y-75519000D01*
X169896000Y-75479000D02*
X173784000Y-75479000D01*
X169994000Y-75439000D02*
X173686000Y-75439000D01*
X170098000Y-75399000D02*
X173582000Y-75399000D01*
X170210000Y-75359000D02*
X173470000Y-75359000D01*
X170330000Y-75319000D02*
X173350000Y-75319000D01*
X170462000Y-75279000D02*
X173218000Y-75279000D01*
X170610000Y-75239000D02*
X173070000Y-75239000D01*
X170778000Y-75199000D02*
X172902000Y-75199000D01*
X170978000Y-75159000D02*
X172702000Y-75159000D01*
X171241000Y-75119000D02*
X172439000Y-75119000D01*
X176960000Y-80200000D02*
G75*
G03*
X176960000Y-80200000I-5120000J0D01*
G01*
X147910000Y-75847500D02*
X146235000Y-75847500D01*
X147910000Y-75847500D02*
X148560000Y-75847500D01*
X147910000Y-78967500D02*
X147260000Y-78967500D01*
X147910000Y-78967500D02*
X148560000Y-78967500D01*
D12*
X163670000Y-109520000D02*
X143470000Y-109520000D01*
X143470000Y-109520000D02*
X143470000Y-79520000D01*
X143470000Y-79520000D02*
X163670000Y-79520000D01*
X163670000Y-79520000D02*
X163670000Y-109520000D01*
D13*
X150185000Y-123145000D02*
X149185000Y-124145000D01*
X150185000Y-114015000D02*
X150185000Y-123145000D01*
X149185000Y-124145000D02*
X143815000Y-124145000D01*
X143815000Y-124145000D02*
X142815000Y-123145000D01*
X142815000Y-123145000D02*
X142815000Y-114015000D01*
X142815000Y-114015000D02*
X150185000Y-114015000D01*
X166360354Y-106225000D02*
X167360354Y-106225000D01*
X166860354Y-105725000D02*
X166860354Y-106725000D01*
X171840000Y-104020000D02*
X171840000Y-114180000D01*
X171880000Y-104020000D02*
X171880000Y-114180000D01*
X171920000Y-104020000D02*
X171920000Y-114180000D01*
X171960000Y-104021000D02*
X171960000Y-114179000D01*
X172000000Y-104022000D02*
X172000000Y-114178000D01*
X172040000Y-104023000D02*
X172040000Y-114177000D01*
X172080000Y-104025000D02*
X172080000Y-114175000D01*
X172120000Y-104027000D02*
X172120000Y-114173000D01*
X172160000Y-104030000D02*
X172160000Y-114170000D01*
X172200000Y-104032000D02*
X172200000Y-114168000D01*
X172240000Y-104035000D02*
X172240000Y-114165000D01*
X172280000Y-104038000D02*
X172280000Y-114162000D01*
X172320000Y-104042000D02*
X172320000Y-114158000D01*
X172360000Y-104046000D02*
X172360000Y-114154000D01*
X172400000Y-104050000D02*
X172400000Y-114150000D01*
X172440000Y-104055000D02*
X172440000Y-114145000D01*
X172480000Y-104060000D02*
X172480000Y-114140000D01*
X172520000Y-104065000D02*
X172520000Y-114135000D01*
X172561000Y-104070000D02*
X172561000Y-114130000D01*
X172601000Y-104076000D02*
X172601000Y-114124000D01*
X172641000Y-104082000D02*
X172641000Y-114118000D01*
X172681000Y-104089000D02*
X172681000Y-114111000D01*
X172721000Y-104096000D02*
X172721000Y-114104000D01*
X172761000Y-104103000D02*
X172761000Y-114097000D01*
X172801000Y-104110000D02*
X172801000Y-114090000D01*
X172841000Y-104118000D02*
X172841000Y-114082000D01*
X172881000Y-104126000D02*
X172881000Y-114074000D01*
X172921000Y-104135000D02*
X172921000Y-114065000D01*
X172961000Y-104144000D02*
X172961000Y-114056000D01*
X173001000Y-104153000D02*
X173001000Y-114047000D01*
X173041000Y-104162000D02*
X173041000Y-114038000D01*
X173081000Y-104172000D02*
X173081000Y-114028000D01*
X173121000Y-104182000D02*
X173121000Y-107859000D01*
X173121000Y-110341000D02*
X173121000Y-114018000D01*
X173161000Y-104193000D02*
X173161000Y-107859000D01*
X173161000Y-110341000D02*
X173161000Y-114007000D01*
X173201000Y-104203000D02*
X173201000Y-107859000D01*
X173201000Y-110341000D02*
X173201000Y-113997000D01*
X173241000Y-104215000D02*
X173241000Y-107859000D01*
X173241000Y-110341000D02*
X173241000Y-113985000D01*
X173281000Y-104226000D02*
X173281000Y-107859000D01*
X173281000Y-110341000D02*
X173281000Y-113974000D01*
X173321000Y-104238000D02*
X173321000Y-107859000D01*
X173321000Y-110341000D02*
X173321000Y-113962000D01*
X173361000Y-104250000D02*
X173361000Y-107859000D01*
X173361000Y-110341000D02*
X173361000Y-113950000D01*
X173401000Y-104263000D02*
X173401000Y-107859000D01*
X173401000Y-110341000D02*
X173401000Y-113937000D01*
X173441000Y-104276000D02*
X173441000Y-107859000D01*
X173441000Y-110341000D02*
X173441000Y-113924000D01*
X173481000Y-104289000D02*
X173481000Y-107859000D01*
X173481000Y-110341000D02*
X173481000Y-113911000D01*
X173521000Y-104303000D02*
X173521000Y-107859000D01*
X173521000Y-110341000D02*
X173521000Y-113897000D01*
X173561000Y-104317000D02*
X173561000Y-107859000D01*
X173561000Y-110341000D02*
X173561000Y-113883000D01*
X173601000Y-104332000D02*
X173601000Y-107859000D01*
X173601000Y-110341000D02*
X173601000Y-113868000D01*
X173641000Y-104346000D02*
X173641000Y-107859000D01*
X173641000Y-110341000D02*
X173641000Y-113854000D01*
X173681000Y-104362000D02*
X173681000Y-107859000D01*
X173681000Y-110341000D02*
X173681000Y-113838000D01*
X173721000Y-104377000D02*
X173721000Y-107859000D01*
X173721000Y-110341000D02*
X173721000Y-113823000D01*
X173761000Y-104393000D02*
X173761000Y-107859000D01*
X173761000Y-110341000D02*
X173761000Y-113807000D01*
X173801000Y-104410000D02*
X173801000Y-107859000D01*
X173801000Y-110341000D02*
X173801000Y-113790000D01*
X173841000Y-104426000D02*
X173841000Y-107859000D01*
X173841000Y-110341000D02*
X173841000Y-113774000D01*
X173881000Y-104443000D02*
X173881000Y-107859000D01*
X173881000Y-110341000D02*
X173881000Y-113757000D01*
X173921000Y-104461000D02*
X173921000Y-107859000D01*
X173921000Y-110341000D02*
X173921000Y-113739000D01*
X173961000Y-104479000D02*
X173961000Y-107859000D01*
X173961000Y-110341000D02*
X173961000Y-113721000D01*
X174001000Y-104497000D02*
X174001000Y-107859000D01*
X174001000Y-110341000D02*
X174001000Y-113703000D01*
X174041000Y-104516000D02*
X174041000Y-107859000D01*
X174041000Y-110341000D02*
X174041000Y-113684000D01*
X174081000Y-104536000D02*
X174081000Y-107859000D01*
X174081000Y-110341000D02*
X174081000Y-113664000D01*
X174121000Y-104555000D02*
X174121000Y-107859000D01*
X174121000Y-110341000D02*
X174121000Y-113645000D01*
X174161000Y-104575000D02*
X174161000Y-107859000D01*
X174161000Y-110341000D02*
X174161000Y-113625000D01*
X174201000Y-104596000D02*
X174201000Y-107859000D01*
X174201000Y-110341000D02*
X174201000Y-113604000D01*
X174241000Y-104617000D02*
X174241000Y-107859000D01*
X174241000Y-110341000D02*
X174241000Y-113583000D01*
X174281000Y-104638000D02*
X174281000Y-107859000D01*
X174281000Y-110341000D02*
X174281000Y-113562000D01*
X174321000Y-104660000D02*
X174321000Y-107859000D01*
X174321000Y-110341000D02*
X174321000Y-113540000D01*
X174361000Y-104683000D02*
X174361000Y-107859000D01*
X174361000Y-110341000D02*
X174361000Y-113517000D01*
X174401000Y-104705000D02*
X174401000Y-107859000D01*
X174401000Y-110341000D02*
X174401000Y-113495000D01*
X174441000Y-104729000D02*
X174441000Y-107859000D01*
X174441000Y-110341000D02*
X174441000Y-113471000D01*
X174481000Y-104753000D02*
X174481000Y-107859000D01*
X174481000Y-110341000D02*
X174481000Y-113447000D01*
X174521000Y-104777000D02*
X174521000Y-107859000D01*
X174521000Y-110341000D02*
X174521000Y-113423000D01*
X174561000Y-104802000D02*
X174561000Y-107859000D01*
X174561000Y-110341000D02*
X174561000Y-113398000D01*
X174601000Y-104827000D02*
X174601000Y-107859000D01*
X174601000Y-110341000D02*
X174601000Y-113373000D01*
X174641000Y-104853000D02*
X174641000Y-107859000D01*
X174641000Y-110341000D02*
X174641000Y-113347000D01*
X174681000Y-104879000D02*
X174681000Y-107859000D01*
X174681000Y-110341000D02*
X174681000Y-113321000D01*
X174721000Y-104906000D02*
X174721000Y-107859000D01*
X174721000Y-110341000D02*
X174721000Y-113294000D01*
X174761000Y-104934000D02*
X174761000Y-107859000D01*
X174761000Y-110341000D02*
X174761000Y-113266000D01*
X174801000Y-104962000D02*
X174801000Y-107859000D01*
X174801000Y-110341000D02*
X174801000Y-113238000D01*
X174841000Y-104990000D02*
X174841000Y-107859000D01*
X174841000Y-110341000D02*
X174841000Y-113210000D01*
X174881000Y-105020000D02*
X174881000Y-107859000D01*
X174881000Y-110341000D02*
X174881000Y-113180000D01*
X174921000Y-105050000D02*
X174921000Y-107859000D01*
X174921000Y-110341000D02*
X174921000Y-113150000D01*
X174961000Y-105080000D02*
X174961000Y-107859000D01*
X174961000Y-110341000D02*
X174961000Y-113120000D01*
X175001000Y-105111000D02*
X175001000Y-107859000D01*
X175001000Y-110341000D02*
X175001000Y-113089000D01*
X175041000Y-105143000D02*
X175041000Y-107859000D01*
X175041000Y-110341000D02*
X175041000Y-113057000D01*
X175081000Y-105175000D02*
X175081000Y-107859000D01*
X175081000Y-110341000D02*
X175081000Y-113025000D01*
X175121000Y-105208000D02*
X175121000Y-107859000D01*
X175121000Y-110341000D02*
X175121000Y-112992000D01*
X175161000Y-105242000D02*
X175161000Y-107859000D01*
X175161000Y-110341000D02*
X175161000Y-112958000D01*
X175201000Y-105276000D02*
X175201000Y-107859000D01*
X175201000Y-110341000D02*
X175201000Y-112924000D01*
X175241000Y-105311000D02*
X175241000Y-107859000D01*
X175241000Y-110341000D02*
X175241000Y-112889000D01*
X175281000Y-105347000D02*
X175281000Y-107859000D01*
X175281000Y-110341000D02*
X175281000Y-112853000D01*
X175321000Y-105384000D02*
X175321000Y-107859000D01*
X175321000Y-110341000D02*
X175321000Y-112816000D01*
X175361000Y-105421000D02*
X175361000Y-107859000D01*
X175361000Y-110341000D02*
X175361000Y-112779000D01*
X175401000Y-105460000D02*
X175401000Y-107859000D01*
X175401000Y-110341000D02*
X175401000Y-112740000D01*
X175441000Y-105499000D02*
X175441000Y-107859000D01*
X175441000Y-110341000D02*
X175441000Y-112701000D01*
X175481000Y-105539000D02*
X175481000Y-107859000D01*
X175481000Y-110341000D02*
X175481000Y-112661000D01*
X175521000Y-105580000D02*
X175521000Y-107859000D01*
X175521000Y-110341000D02*
X175521000Y-112620000D01*
X175561000Y-105622000D02*
X175561000Y-107859000D01*
X175561000Y-110341000D02*
X175561000Y-112578000D01*
X175601000Y-105664000D02*
X175601000Y-112536000D01*
X175641000Y-105708000D02*
X175641000Y-112492000D01*
X175681000Y-105753000D02*
X175681000Y-112447000D01*
X175721000Y-105799000D02*
X175721000Y-112401000D01*
X175761000Y-105846000D02*
X175761000Y-112354000D01*
X175801000Y-105894000D02*
X175801000Y-112306000D01*
X175841000Y-105944000D02*
X175841000Y-112256000D01*
X175881000Y-105994000D02*
X175881000Y-112206000D01*
X175921000Y-106046000D02*
X175921000Y-112154000D01*
X175961000Y-106100000D02*
X175961000Y-112100000D01*
X176001000Y-106155000D02*
X176001000Y-112045000D01*
X176041000Y-106211000D02*
X176041000Y-111989000D01*
X176081000Y-106270000D02*
X176081000Y-111930000D01*
X176121000Y-106330000D02*
X176121000Y-111870000D01*
X176161000Y-106391000D02*
X176161000Y-111809000D01*
X176201000Y-106455000D02*
X176201000Y-111745000D01*
X176241000Y-106521000D02*
X176241000Y-111679000D01*
X176281000Y-106590000D02*
X176281000Y-111610000D01*
X176321000Y-106661000D02*
X176321000Y-111539000D01*
X176361000Y-106735000D02*
X176361000Y-111465000D01*
X176401000Y-106811000D02*
X176401000Y-111389000D01*
X176441000Y-106891000D02*
X176441000Y-111309000D01*
X176481000Y-106975000D02*
X176481000Y-111225000D01*
X176521000Y-107063000D02*
X176521000Y-111137000D01*
X176561000Y-107156000D02*
X176561000Y-111044000D01*
X176601000Y-107254000D02*
X176601000Y-110946000D01*
X176641000Y-107358000D02*
X176641000Y-110842000D01*
X176681000Y-107470000D02*
X176681000Y-110730000D01*
X176721000Y-107590000D02*
X176721000Y-110610000D01*
X176761000Y-107722000D02*
X176761000Y-110478000D01*
X176801000Y-107870000D02*
X176801000Y-110330000D01*
X176841000Y-108038000D02*
X176841000Y-110162000D01*
X176881000Y-108238000D02*
X176881000Y-109962000D01*
X176921000Y-108501000D02*
X176921000Y-109699000D01*
X176960000Y-109100000D02*
G75*
G03*
X176960000Y-109100000I-5120000J0D01*
G01*
X127348748Y-96690000D02*
X128771252Y-96690000D01*
X127348748Y-98510000D02*
X128771252Y-98510000D01*
X119502258Y-114922500D02*
X119027742Y-114922500D01*
X119502258Y-113877500D02*
X119027742Y-113877500D01*
X126010000Y-84011252D02*
X126010000Y-82588748D01*
X127830000Y-84011252D02*
X127830000Y-82588748D01*
X150348031Y-116445000D02*
X151348031Y-116445000D01*
X150848031Y-115945000D02*
X150848031Y-116945000D01*
X155827677Y-114240000D02*
X155827677Y-124400000D01*
X155867677Y-114240000D02*
X155867677Y-124400000D01*
X155907677Y-114240000D02*
X155907677Y-124400000D01*
X155947677Y-114241000D02*
X155947677Y-124399000D01*
X155987677Y-114242000D02*
X155987677Y-124398000D01*
X156027677Y-114243000D02*
X156027677Y-124397000D01*
X156067677Y-114245000D02*
X156067677Y-124395000D01*
X156107677Y-114247000D02*
X156107677Y-124393000D01*
X156147677Y-114250000D02*
X156147677Y-124390000D01*
X156187677Y-114252000D02*
X156187677Y-124388000D01*
X156227677Y-114255000D02*
X156227677Y-124385000D01*
X156267677Y-114258000D02*
X156267677Y-124382000D01*
X156307677Y-114262000D02*
X156307677Y-124378000D01*
X156347677Y-114266000D02*
X156347677Y-124374000D01*
X156387677Y-114270000D02*
X156387677Y-124370000D01*
X156427677Y-114275000D02*
X156427677Y-124365000D01*
X156467677Y-114280000D02*
X156467677Y-124360000D01*
X156507677Y-114285000D02*
X156507677Y-124355000D01*
X156548677Y-114290000D02*
X156548677Y-124350000D01*
X156588677Y-114296000D02*
X156588677Y-124344000D01*
X156628677Y-114302000D02*
X156628677Y-124338000D01*
X156668677Y-114309000D02*
X156668677Y-124331000D01*
X156708677Y-114316000D02*
X156708677Y-124324000D01*
X156748677Y-114323000D02*
X156748677Y-124317000D01*
X156788677Y-114330000D02*
X156788677Y-124310000D01*
X156828677Y-114338000D02*
X156828677Y-124302000D01*
X156868677Y-114346000D02*
X156868677Y-124294000D01*
X156908677Y-114355000D02*
X156908677Y-124285000D01*
X156948677Y-114364000D02*
X156948677Y-124276000D01*
X156988677Y-114373000D02*
X156988677Y-124267000D01*
X157028677Y-114382000D02*
X157028677Y-124258000D01*
X157068677Y-114392000D02*
X157068677Y-124248000D01*
X157108677Y-114402000D02*
X157108677Y-118079000D01*
X157108677Y-120561000D02*
X157108677Y-124238000D01*
X157148677Y-114413000D02*
X157148677Y-118079000D01*
X157148677Y-120561000D02*
X157148677Y-124227000D01*
X157188677Y-114423000D02*
X157188677Y-118079000D01*
X157188677Y-120561000D02*
X157188677Y-124217000D01*
X157228677Y-114435000D02*
X157228677Y-118079000D01*
X157228677Y-120561000D02*
X157228677Y-124205000D01*
X157268677Y-114446000D02*
X157268677Y-118079000D01*
X157268677Y-120561000D02*
X157268677Y-124194000D01*
X157308677Y-114458000D02*
X157308677Y-118079000D01*
X157308677Y-120561000D02*
X157308677Y-124182000D01*
X157348677Y-114470000D02*
X157348677Y-118079000D01*
X157348677Y-120561000D02*
X157348677Y-124170000D01*
X157388677Y-114483000D02*
X157388677Y-118079000D01*
X157388677Y-120561000D02*
X157388677Y-124157000D01*
X157428677Y-114496000D02*
X157428677Y-118079000D01*
X157428677Y-120561000D02*
X157428677Y-124144000D01*
X157468677Y-114509000D02*
X157468677Y-118079000D01*
X157468677Y-120561000D02*
X157468677Y-124131000D01*
X157508677Y-114523000D02*
X157508677Y-118079000D01*
X157508677Y-120561000D02*
X157508677Y-124117000D01*
X157548677Y-114537000D02*
X157548677Y-118079000D01*
X157548677Y-120561000D02*
X157548677Y-124103000D01*
X157588677Y-114552000D02*
X157588677Y-118079000D01*
X157588677Y-120561000D02*
X157588677Y-124088000D01*
X157628677Y-114566000D02*
X157628677Y-118079000D01*
X157628677Y-120561000D02*
X157628677Y-124074000D01*
X157668677Y-114582000D02*
X157668677Y-118079000D01*
X157668677Y-120561000D02*
X157668677Y-124058000D01*
X157708677Y-114597000D02*
X157708677Y-118079000D01*
X157708677Y-120561000D02*
X157708677Y-124043000D01*
X157748677Y-114613000D02*
X157748677Y-118079000D01*
X157748677Y-120561000D02*
X157748677Y-124027000D01*
X157788677Y-114630000D02*
X157788677Y-118079000D01*
X157788677Y-120561000D02*
X157788677Y-124010000D01*
X157828677Y-114646000D02*
X157828677Y-118079000D01*
X157828677Y-120561000D02*
X157828677Y-123994000D01*
X157868677Y-114663000D02*
X157868677Y-118079000D01*
X157868677Y-120561000D02*
X157868677Y-123977000D01*
X157908677Y-114681000D02*
X157908677Y-118079000D01*
X157908677Y-120561000D02*
X157908677Y-123959000D01*
X157948677Y-114699000D02*
X157948677Y-118079000D01*
X157948677Y-120561000D02*
X157948677Y-123941000D01*
X157988677Y-114717000D02*
X157988677Y-118079000D01*
X157988677Y-120561000D02*
X157988677Y-123923000D01*
X158028677Y-114736000D02*
X158028677Y-118079000D01*
X158028677Y-120561000D02*
X158028677Y-123904000D01*
X158068677Y-114756000D02*
X158068677Y-118079000D01*
X158068677Y-120561000D02*
X158068677Y-123884000D01*
X158108677Y-114775000D02*
X158108677Y-118079000D01*
X158108677Y-120561000D02*
X158108677Y-123865000D01*
X158148677Y-114795000D02*
X158148677Y-118079000D01*
X158148677Y-120561000D02*
X158148677Y-123845000D01*
X158188677Y-114816000D02*
X158188677Y-118079000D01*
X158188677Y-120561000D02*
X158188677Y-123824000D01*
X158228677Y-114837000D02*
X158228677Y-118079000D01*
X158228677Y-120561000D02*
X158228677Y-123803000D01*
X158268677Y-114858000D02*
X158268677Y-118079000D01*
X158268677Y-120561000D02*
X158268677Y-123782000D01*
X158308677Y-114880000D02*
X158308677Y-118079000D01*
X158308677Y-120561000D02*
X158308677Y-123760000D01*
X158348677Y-114903000D02*
X158348677Y-118079000D01*
X158348677Y-120561000D02*
X158348677Y-123737000D01*
X158388677Y-114925000D02*
X158388677Y-118079000D01*
X158388677Y-120561000D02*
X158388677Y-123715000D01*
X158428677Y-114949000D02*
X158428677Y-118079000D01*
X158428677Y-120561000D02*
X158428677Y-123691000D01*
X158468677Y-114973000D02*
X158468677Y-118079000D01*
X158468677Y-120561000D02*
X158468677Y-123667000D01*
X158508677Y-114997000D02*
X158508677Y-118079000D01*
X158508677Y-120561000D02*
X158508677Y-123643000D01*
X158548677Y-115022000D02*
X158548677Y-118079000D01*
X158548677Y-120561000D02*
X158548677Y-123618000D01*
X158588677Y-115047000D02*
X158588677Y-118079000D01*
X158588677Y-120561000D02*
X158588677Y-123593000D01*
X158628677Y-115073000D02*
X158628677Y-118079000D01*
X158628677Y-120561000D02*
X158628677Y-123567000D01*
X158668677Y-115099000D02*
X158668677Y-118079000D01*
X158668677Y-120561000D02*
X158668677Y-123541000D01*
X158708677Y-115126000D02*
X158708677Y-118079000D01*
X158708677Y-120561000D02*
X158708677Y-123514000D01*
X158748677Y-115154000D02*
X158748677Y-118079000D01*
X158748677Y-120561000D02*
X158748677Y-123486000D01*
X158788677Y-115182000D02*
X158788677Y-118079000D01*
X158788677Y-120561000D02*
X158788677Y-123458000D01*
X158828677Y-115210000D02*
X158828677Y-118079000D01*
X158828677Y-120561000D02*
X158828677Y-123430000D01*
X158868677Y-115240000D02*
X158868677Y-118079000D01*
X158868677Y-120561000D02*
X158868677Y-123400000D01*
X158908677Y-115270000D02*
X158908677Y-118079000D01*
X158908677Y-120561000D02*
X158908677Y-123370000D01*
X158948677Y-115300000D02*
X158948677Y-118079000D01*
X158948677Y-120561000D02*
X158948677Y-123340000D01*
X158988677Y-115331000D02*
X158988677Y-118079000D01*
X158988677Y-120561000D02*
X158988677Y-123309000D01*
X159028677Y-115363000D02*
X159028677Y-118079000D01*
X159028677Y-120561000D02*
X159028677Y-123277000D01*
X159068677Y-115395000D02*
X159068677Y-118079000D01*
X159068677Y-120561000D02*
X159068677Y-123245000D01*
X159108677Y-115428000D02*
X159108677Y-118079000D01*
X159108677Y-120561000D02*
X159108677Y-123212000D01*
X159148677Y-115462000D02*
X159148677Y-118079000D01*
X159148677Y-120561000D02*
X159148677Y-123178000D01*
X159188677Y-115496000D02*
X159188677Y-118079000D01*
X159188677Y-120561000D02*
X159188677Y-123144000D01*
X159228677Y-115531000D02*
X159228677Y-118079000D01*
X159228677Y-120561000D02*
X159228677Y-123109000D01*
X159268677Y-115567000D02*
X159268677Y-118079000D01*
X159268677Y-120561000D02*
X159268677Y-123073000D01*
X159308677Y-115604000D02*
X159308677Y-118079000D01*
X159308677Y-120561000D02*
X159308677Y-123036000D01*
X159348677Y-115641000D02*
X159348677Y-118079000D01*
X159348677Y-120561000D02*
X159348677Y-122999000D01*
X159388677Y-115680000D02*
X159388677Y-118079000D01*
X159388677Y-120561000D02*
X159388677Y-122960000D01*
X159428677Y-115719000D02*
X159428677Y-118079000D01*
X159428677Y-120561000D02*
X159428677Y-122921000D01*
X159468677Y-115759000D02*
X159468677Y-118079000D01*
X159468677Y-120561000D02*
X159468677Y-122881000D01*
X159508677Y-115800000D02*
X159508677Y-118079000D01*
X159508677Y-120561000D02*
X159508677Y-122840000D01*
X159548677Y-115842000D02*
X159548677Y-118079000D01*
X159548677Y-120561000D02*
X159548677Y-122798000D01*
X159588677Y-115884000D02*
X159588677Y-122756000D01*
X159628677Y-115928000D02*
X159628677Y-122712000D01*
X159668677Y-115973000D02*
X159668677Y-122667000D01*
X159708677Y-116019000D02*
X159708677Y-122621000D01*
X159748677Y-116066000D02*
X159748677Y-122574000D01*
X159788677Y-116114000D02*
X159788677Y-122526000D01*
X159828677Y-116164000D02*
X159828677Y-122476000D01*
X159868677Y-116214000D02*
X159868677Y-122426000D01*
X159908677Y-116266000D02*
X159908677Y-122374000D01*
X159948677Y-116320000D02*
X159948677Y-122320000D01*
X159988677Y-116375000D02*
X159988677Y-122265000D01*
X160028677Y-116431000D02*
X160028677Y-122209000D01*
X160068677Y-116490000D02*
X160068677Y-122150000D01*
X160108677Y-116550000D02*
X160108677Y-122090000D01*
X160148677Y-116611000D02*
X160148677Y-122029000D01*
X160188677Y-116675000D02*
X160188677Y-121965000D01*
X160228677Y-116741000D02*
X160228677Y-121899000D01*
X160268677Y-116810000D02*
X160268677Y-121830000D01*
X160308677Y-116881000D02*
X160308677Y-121759000D01*
X160348677Y-116955000D02*
X160348677Y-121685000D01*
X160388677Y-117031000D02*
X160388677Y-121609000D01*
X160428677Y-117111000D02*
X160428677Y-121529000D01*
X160468677Y-117195000D02*
X160468677Y-121445000D01*
X160508677Y-117283000D02*
X160508677Y-121357000D01*
X160548677Y-117376000D02*
X160548677Y-121264000D01*
X160588677Y-117474000D02*
X160588677Y-121166000D01*
X160628677Y-117578000D02*
X160628677Y-121062000D01*
X160668677Y-117690000D02*
X160668677Y-120950000D01*
X160708677Y-117810000D02*
X160708677Y-120830000D01*
X160748677Y-117942000D02*
X160748677Y-120698000D01*
X160788677Y-118090000D02*
X160788677Y-120550000D01*
X160828677Y-118258000D02*
X160828677Y-120382000D01*
X160868677Y-118458000D02*
X160868677Y-120182000D01*
X160908677Y-118721000D02*
X160908677Y-119919000D01*
X160947677Y-119320000D02*
G75*
G03*
X160947677Y-119320000I-5120000J0D01*
G01*
X121253748Y-104555000D02*
X121776252Y-104555000D01*
X121253748Y-106025000D02*
X121776252Y-106025000D01*
X118320000Y-109970000D02*
X118320000Y-113420000D01*
X118320000Y-109970000D02*
X118320000Y-108020000D01*
X123440000Y-109970000D02*
X123440000Y-111920000D01*
X123440000Y-109970000D02*
X123440000Y-108020000D01*
X137035000Y-93575000D02*
X137035000Y-91305000D01*
X137035000Y-91305000D02*
X133150000Y-91305000D01*
X133150000Y-93575000D02*
X137035000Y-93575000D01*
D12*
X112160000Y-104200000D02*
X125660000Y-104200000D01*
X125660000Y-104200000D02*
X125660000Y-75200000D01*
X125660000Y-75200000D02*
X112160000Y-75200000D01*
X112160000Y-75200000D02*
X112160000Y-104200000D01*
D13*
X168855000Y-123190000D02*
X167855000Y-124190000D01*
X168855000Y-114060000D02*
X168855000Y-123190000D01*
X167855000Y-124190000D02*
X162485000Y-124190000D01*
X162485000Y-124190000D02*
X161485000Y-123190000D01*
X161485000Y-123190000D02*
X161485000Y-114060000D01*
X161485000Y-114060000D02*
X168855000Y-114060000D01*
X118040000Y-109970000D02*
X118040000Y-106520000D01*
X118040000Y-109970000D02*
X118040000Y-111920000D01*
X112920000Y-109970000D02*
X112920000Y-108020000D01*
X112920000Y-109970000D02*
X112920000Y-111920000D01*
X142290000Y-124400000D02*
X142290000Y-108510000D01*
X142290000Y-124400000D02*
X132050000Y-124400000D01*
X142290000Y-108510000D02*
X132050000Y-108510000D01*
X139710000Y-108510000D02*
X139710000Y-105970000D01*
X137170000Y-108510000D02*
X137170000Y-105970000D01*
X134630000Y-108510000D02*
X134630000Y-105970000D01*
X132050000Y-124400000D02*
X132050000Y-108510000D01*
X143270000Y-93760000D02*
X143270000Y-102270000D01*
X136770000Y-93760000D02*
X143270000Y-93760000D01*
X136770000Y-93760000D02*
X136770000Y-102270000D01*
X164010000Y-82326252D02*
X164010000Y-80903748D01*
X165830000Y-82326252D02*
X165830000Y-80903748D01*
X157563929Y-113805000D02*
X156141425Y-113805000D01*
X157563929Y-111985000D02*
X156141425Y-111985000D01*
D12*
X163870000Y-103750000D02*
X177070000Y-103750000D01*
X177070000Y-103750000D02*
X177070000Y-85550000D01*
X177070000Y-85550000D02*
X163870000Y-85550000D01*
X163870000Y-85550000D02*
X163870000Y-103750000D01*
D13*
X150052500Y-77634564D02*
X150052500Y-77180436D01*
X151522500Y-77634564D02*
X151522500Y-77180436D01*
X127850000Y-98910000D02*
X127850000Y-103430000D01*
X127850000Y-103430000D02*
X135910000Y-103430000D01*
X135910000Y-98910000D02*
X127850000Y-98910000D01*
X115111252Y-115385000D02*
X114588748Y-115385000D01*
X115111252Y-113915000D02*
X114588748Y-113915000D01*
X131515000Y-123195000D02*
X130515000Y-124195000D01*
X131515000Y-114065000D02*
X131515000Y-123195000D01*
X130515000Y-124195000D02*
X122145000Y-124195000D01*
X122145000Y-124195000D02*
X121145000Y-123195000D01*
X121145000Y-123195000D02*
X121145000Y-114065000D01*
X121145000Y-114065000D02*
X131515000Y-114065000D01*
X132360000Y-86630000D02*
X132360000Y-95140000D01*
X125860000Y-86630000D02*
X132360000Y-86630000D01*
X125860000Y-86630000D02*
X125860000Y-95140000D01*
X133722500Y-94802742D02*
X133722500Y-95277258D01*
X132677500Y-94802742D02*
X132677500Y-95277258D01*
X136457380Y-86301000D02*
X137087380Y-86301000D01*
X136772380Y-85986000D02*
X136772380Y-86616000D01*
X139957621Y-84910000D02*
X139957621Y-91370000D01*
X139997621Y-84910000D02*
X139997621Y-91370000D01*
X140037621Y-84910000D02*
X140037621Y-91370000D01*
X140077621Y-84912000D02*
X140077621Y-91368000D01*
X140117621Y-84913000D02*
X140117621Y-91367000D01*
X140157621Y-84916000D02*
X140157621Y-91364000D01*
X140197621Y-84918000D02*
X140197621Y-87100000D01*
X140197621Y-89180000D02*
X140197621Y-91362000D01*
X140237621Y-84922000D02*
X140237621Y-87100000D01*
X140237621Y-89180000D02*
X140237621Y-91358000D01*
X140277621Y-84925000D02*
X140277621Y-87100000D01*
X140277621Y-89180000D02*
X140277621Y-91355000D01*
X140317621Y-84929000D02*
X140317621Y-87100000D01*
X140317621Y-89180000D02*
X140317621Y-91351000D01*
X140357621Y-84934000D02*
X140357621Y-87100000D01*
X140357621Y-89180000D02*
X140357621Y-91346000D01*
X140397621Y-84939000D02*
X140397621Y-87100000D01*
X140397621Y-89180000D02*
X140397621Y-91341000D01*
X140437621Y-84945000D02*
X140437621Y-87100000D01*
X140437621Y-89180000D02*
X140437621Y-91335000D01*
X140477621Y-84951000D02*
X140477621Y-87100000D01*
X140477621Y-89180000D02*
X140477621Y-91329000D01*
X140517621Y-84958000D02*
X140517621Y-87100000D01*
X140517621Y-89180000D02*
X140517621Y-91322000D01*
X140557621Y-84965000D02*
X140557621Y-87100000D01*
X140557621Y-89180000D02*
X140557621Y-91315000D01*
X140597621Y-84973000D02*
X140597621Y-87100000D01*
X140597621Y-89180000D02*
X140597621Y-91307000D01*
X140637621Y-84981000D02*
X140637621Y-87100000D01*
X140637621Y-89180000D02*
X140637621Y-91299000D01*
X140678621Y-84990000D02*
X140678621Y-87100000D01*
X140678621Y-89180000D02*
X140678621Y-91290000D01*
X140718621Y-84999000D02*
X140718621Y-87100000D01*
X140718621Y-89180000D02*
X140718621Y-91281000D01*
X140758621Y-85009000D02*
X140758621Y-87100000D01*
X140758621Y-89180000D02*
X140758621Y-91271000D01*
X140798621Y-85019000D02*
X140798621Y-87100000D01*
X140798621Y-89180000D02*
X140798621Y-91261000D01*
X140838621Y-85030000D02*
X140838621Y-87100000D01*
X140838621Y-89180000D02*
X140838621Y-91250000D01*
X140878621Y-85042000D02*
X140878621Y-87100000D01*
X140878621Y-89180000D02*
X140878621Y-91238000D01*
X140918621Y-85054000D02*
X140918621Y-87100000D01*
X140918621Y-89180000D02*
X140918621Y-91226000D01*
X140958621Y-85066000D02*
X140958621Y-87100000D01*
X140958621Y-89180000D02*
X140958621Y-91214000D01*
X140998621Y-85079000D02*
X140998621Y-87100000D01*
X140998621Y-89180000D02*
X140998621Y-91201000D01*
X141038621Y-85093000D02*
X141038621Y-87100000D01*
X141038621Y-89180000D02*
X141038621Y-91187000D01*
X141078621Y-85107000D02*
X141078621Y-87100000D01*
X141078621Y-89180000D02*
X141078621Y-91173000D01*
X141118621Y-85122000D02*
X141118621Y-87100000D01*
X141118621Y-89180000D02*
X141118621Y-91158000D01*
X141158621Y-85138000D02*
X141158621Y-87100000D01*
X141158621Y-89180000D02*
X141158621Y-91142000D01*
X141198621Y-85154000D02*
X141198621Y-87100000D01*
X141198621Y-89180000D02*
X141198621Y-91126000D01*
X141238621Y-85170000D02*
X141238621Y-87100000D01*
X141238621Y-89180000D02*
X141238621Y-91110000D01*
X141278621Y-85188000D02*
X141278621Y-87100000D01*
X141278621Y-89180000D02*
X141278621Y-91092000D01*
X141318621Y-85206000D02*
X141318621Y-87100000D01*
X141318621Y-89180000D02*
X141318621Y-91074000D01*
X141358621Y-85224000D02*
X141358621Y-87100000D01*
X141358621Y-89180000D02*
X141358621Y-91056000D01*
X141398621Y-85244000D02*
X141398621Y-87100000D01*
X141398621Y-89180000D02*
X141398621Y-91036000D01*
X141438621Y-85264000D02*
X141438621Y-87100000D01*
X141438621Y-89180000D02*
X141438621Y-91016000D01*
X141478621Y-85284000D02*
X141478621Y-87100000D01*
X141478621Y-89180000D02*
X141478621Y-90996000D01*
X141518621Y-85306000D02*
X141518621Y-87100000D01*
X141518621Y-89180000D02*
X141518621Y-90974000D01*
X141558621Y-85328000D02*
X141558621Y-87100000D01*
X141558621Y-89180000D02*
X141558621Y-90952000D01*
X141598621Y-85350000D02*
X141598621Y-87100000D01*
X141598621Y-89180000D02*
X141598621Y-90930000D01*
X141638621Y-85374000D02*
X141638621Y-87100000D01*
X141638621Y-89180000D02*
X141638621Y-90906000D01*
X141678621Y-85398000D02*
X141678621Y-87100000D01*
X141678621Y-89180000D02*
X141678621Y-90882000D01*
X141718621Y-85424000D02*
X141718621Y-87100000D01*
X141718621Y-89180000D02*
X141718621Y-90856000D01*
X141758621Y-85450000D02*
X141758621Y-87100000D01*
X141758621Y-89180000D02*
X141758621Y-90830000D01*
X141798621Y-85476000D02*
X141798621Y-87100000D01*
X141798621Y-89180000D02*
X141798621Y-90804000D01*
X141838621Y-85504000D02*
X141838621Y-87100000D01*
X141838621Y-89180000D02*
X141838621Y-90776000D01*
X141878621Y-85533000D02*
X141878621Y-87100000D01*
X141878621Y-89180000D02*
X141878621Y-90747000D01*
X141918621Y-85562000D02*
X141918621Y-87100000D01*
X141918621Y-89180000D02*
X141918621Y-90718000D01*
X141958621Y-85592000D02*
X141958621Y-87100000D01*
X141958621Y-89180000D02*
X141958621Y-90688000D01*
X141998621Y-85624000D02*
X141998621Y-87100000D01*
X141998621Y-89180000D02*
X141998621Y-90656000D01*
X142038621Y-85656000D02*
X142038621Y-87100000D01*
X142038621Y-89180000D02*
X142038621Y-90624000D01*
X142078621Y-85690000D02*
X142078621Y-87100000D01*
X142078621Y-89180000D02*
X142078621Y-90590000D01*
X142118621Y-85724000D02*
X142118621Y-87100000D01*
X142118621Y-89180000D02*
X142118621Y-90556000D01*
X142158621Y-85760000D02*
X142158621Y-87100000D01*
X142158621Y-89180000D02*
X142158621Y-90520000D01*
X142198621Y-85797000D02*
X142198621Y-87100000D01*
X142198621Y-89180000D02*
X142198621Y-90483000D01*
X142238621Y-85835000D02*
X142238621Y-87100000D01*
X142238621Y-89180000D02*
X142238621Y-90445000D01*
X142278621Y-85875000D02*
X142278621Y-90405000D01*
X142318621Y-85916000D02*
X142318621Y-90364000D01*
X142358621Y-85958000D02*
X142358621Y-90322000D01*
X142398621Y-86003000D02*
X142398621Y-90277000D01*
X142438621Y-86048000D02*
X142438621Y-90232000D01*
X142478621Y-86096000D02*
X142478621Y-90184000D01*
X142518621Y-86145000D02*
X142518621Y-90135000D01*
X142558621Y-86196000D02*
X142558621Y-90084000D01*
X142598621Y-86250000D02*
X142598621Y-90030000D01*
X142638621Y-86306000D02*
X142638621Y-89974000D01*
X142678621Y-86364000D02*
X142678621Y-89916000D01*
X142718621Y-86426000D02*
X142718621Y-89854000D01*
X142758621Y-86490000D02*
X142758621Y-89790000D01*
X142798621Y-86559000D02*
X142798621Y-89721000D01*
X142838621Y-86631000D02*
X142838621Y-89649000D01*
X142878621Y-86708000D02*
X142878621Y-89572000D01*
X142918621Y-86790000D02*
X142918621Y-89490000D01*
X142958621Y-86878000D02*
X142958621Y-89402000D01*
X142998621Y-86975000D02*
X142998621Y-89305000D01*
X143038621Y-87081000D02*
X143038621Y-89199000D01*
X143078621Y-87200000D02*
X143078621Y-89080000D01*
X143118621Y-87338000D02*
X143118621Y-88942000D01*
X143158621Y-87507000D02*
X143158621Y-88773000D01*
X143198621Y-87738000D02*
X143198621Y-88542000D01*
X143227621Y-88140000D02*
G75*
G03*
X143227621Y-88140000I-3270000J0D01*
G01*
%LPC*%
D14*
X171543109Y-72068109D03*
X172136218Y-70636218D03*
X172136218Y-73500000D03*
X173568109Y-70043109D03*
D15*
X173568109Y-72068109D03*
D14*
X173568109Y-74093109D03*
X175000000Y-70636218D03*
X175000000Y-73500000D03*
X175593109Y-72068109D03*
D16*
X135940000Y-95865000D03*
X135940000Y-94215000D03*
D17*
X135580000Y-82867677D03*
D18*
X135580000Y-77867677D03*
D19*
X130670000Y-107420000D03*
D14*
X171543109Y-121068109D03*
X172136218Y-119636218D03*
X172136218Y-122500000D03*
X173568109Y-119043109D03*
D15*
X173568109Y-121068109D03*
D14*
X173568109Y-123093109D03*
X175000000Y-119636218D03*
X175000000Y-122500000D03*
X175593109Y-121068109D03*
D20*
X132990000Y-97650000D03*
X135790000Y-97650000D03*
D21*
X117765000Y-105540000D03*
X116115000Y-105540000D03*
D22*
X142150000Y-80112500D03*
X142150000Y-78287500D03*
D23*
X129220000Y-84775000D03*
X129220000Y-81825000D03*
D19*
X125090000Y-107420000D03*
D17*
X171840000Y-82700000D03*
D18*
X171840000Y-77700000D03*
D24*
X146972500Y-76457500D03*
X146972500Y-78357500D03*
X148847500Y-77407500D03*
D18*
X145950000Y-83090000D03*
X145950000Y-85630000D03*
X145950000Y-88170000D03*
X145950000Y-100870000D03*
X145950000Y-105950000D03*
X161190000Y-105950000D03*
X161190000Y-103410000D03*
X161190000Y-100870000D03*
X161190000Y-85630000D03*
X161190000Y-83090000D03*
X159200000Y-81470000D03*
D25*
X146500000Y-119435000D03*
D26*
X146500000Y-115115000D03*
D27*
X146500000Y-112115000D03*
D17*
X169340000Y-109100000D03*
D18*
X174340000Y-109100000D03*
D28*
X126585000Y-97600000D03*
X129535000Y-97600000D03*
D21*
X120090000Y-114400000D03*
X118440000Y-114400000D03*
D23*
X126920000Y-84775000D03*
X126920000Y-81825000D03*
D17*
X153327677Y-119320000D03*
D18*
X158327677Y-119320000D03*
D29*
X120565000Y-105290000D03*
X122465000Y-105290000D03*
D30*
X118975000Y-112545000D03*
X120245000Y-112545000D03*
X121515000Y-112545000D03*
X122785000Y-112545000D03*
X122785000Y-107395000D03*
X121515000Y-107395000D03*
X120245000Y-107395000D03*
X118975000Y-107395000D03*
D31*
X136150000Y-92440000D03*
X133350000Y-92440000D03*
D25*
X122960000Y-96700000D03*
D32*
X122960000Y-76700000D03*
D25*
X115360000Y-100200000D03*
X115360000Y-93200000D03*
D32*
X115360000Y-76700000D03*
D25*
X165170000Y-119480000D03*
D26*
X165170000Y-115160000D03*
D27*
X165170000Y-112160000D03*
D33*
X117385000Y-107395000D03*
X116115000Y-107395000D03*
X114845000Y-107395000D03*
X113575000Y-107395000D03*
X113575000Y-112545000D03*
X114845000Y-112545000D03*
X116115000Y-112545000D03*
X117385000Y-112545000D03*
D34*
X139710000Y-104820000D03*
D35*
X137170000Y-104820000D03*
X134630000Y-104820000D03*
D36*
X137170000Y-121480000D03*
D37*
X140020000Y-95270000D03*
X140020000Y-102070000D03*
D23*
X164920000Y-83090000D03*
X164920000Y-80140000D03*
D38*
X158327677Y-112895000D03*
X155377677Y-112895000D03*
D32*
X165470000Y-102150000D03*
X175470000Y-102150000D03*
X175470000Y-87150000D03*
X165470000Y-87150000D03*
D22*
X150787500Y-78320000D03*
X150787500Y-76495000D03*
D39*
X129147500Y-101170000D03*
X135372500Y-101170000D03*
D40*
X115800000Y-114650000D03*
X113900000Y-114650000D03*
D25*
X126330000Y-119485000D03*
D26*
X127830000Y-115165000D03*
D27*
X124830000Y-115165000D03*
X127830000Y-112165000D03*
X124830000Y-112165000D03*
D37*
X129110000Y-88140000D03*
X129110000Y-94940000D03*
D14*
X113543109Y-72068109D03*
X114136218Y-70636218D03*
X114136218Y-73500000D03*
X115568109Y-70043109D03*
D15*
X115568109Y-72068109D03*
D14*
X115568109Y-74093109D03*
X117000000Y-70636218D03*
X117000000Y-73500000D03*
X117593109Y-72068109D03*
X113543109Y-121068109D03*
X114136218Y-119636218D03*
X114136218Y-122500000D03*
X115568109Y-119043109D03*
D15*
X115568109Y-121068109D03*
D14*
X115568109Y-123093109D03*
X117000000Y-119636218D03*
X117000000Y-122500000D03*
X117593109Y-121068109D03*
D41*
X133200000Y-94215000D03*
X133200000Y-95865000D03*
D42*
X138707621Y-88140000D03*
D43*
X141207621Y-88140000D03*
D44*
X120468109Y-73358109D03*
D45*
X120468109Y-70818109D03*
X123008109Y-73358109D03*
X123008109Y-70818109D03*
X125548109Y-73358109D03*
X125548109Y-70818109D03*
X128088109Y-73358109D03*
X128088109Y-70818109D03*
X130628109Y-73358109D03*
X130628109Y-70818109D03*
X133168109Y-73358109D03*
X133168109Y-70818109D03*
X135708109Y-73358109D03*
X135708109Y-70818109D03*
X138248109Y-73358109D03*
X138248109Y-70818109D03*
X140788109Y-73358109D03*
X140788109Y-70818109D03*
X143328109Y-73358109D03*
X143328109Y-70818109D03*
X145868109Y-73358109D03*
X145868109Y-70818109D03*
X148408109Y-73358109D03*
X148408109Y-70818109D03*
X150948109Y-73358109D03*
X150948109Y-70818109D03*
X153488109Y-73358109D03*
X153488109Y-70818109D03*
X156028109Y-73358109D03*
X156028109Y-70818109D03*
X158568109Y-73358109D03*
X158568109Y-70818109D03*
X161108109Y-73358109D03*
X161108109Y-70818109D03*
X163648109Y-73358109D03*
X163648109Y-70818109D03*
X166188109Y-73358109D03*
X166188109Y-70818109D03*
X168728109Y-73358109D03*
X168728109Y-70818109D03*
%LPD*%
D46*
X174068109Y-124568109D02*
G75*
G03*
X177068109Y-121568109I-9J3000009D01*
G01*
X112068109Y-71568109D02*
X112068109Y-121568109D01*
X177068109Y-121568109D02*
X177068109Y-71568109D01*
X115068109Y-68568109D02*
G75*
G03*
X112068109Y-71568109I-9J-2999991D01*
G01*
X115068109Y-124568109D02*
X174068109Y-124568109D01*
X174068109Y-68568109D02*
X115068109Y-68568109D01*
X112068091Y-121568109D02*
G75*
G03*
X115068109Y-124568109I3000009J9D01*
G01*
X177068091Y-71568109D02*
G75*
G03*
X174068109Y-68568109I-2999991J9D01*
G01*
M02*
