M48
; DRILL file {KiCad 7.0.6} date Mon Aug 28 17:59:22 2023
; FORMAT={-:-/ absolute / metric / decimal}
; #@! TF.CreationDate,2023-08-28T17:59:22+03:00
; #@! TF.GenerationSoftware,Kicad,Pcbnew,7.0.6
; #@! TF.FileFunction,Plated,1,2,PTH
FMAT,2
METRIC
; #@! TA.AperFunction,Plated,PTH,ViaDrill
T1C0.400
; #@! TA.AperFunction,Plated,PTH,ComponentDrill
T2C0.500
; #@! TA.AperFunction,Plated,PTH,ComponentDrill
T3C0.700
; #@! TA.AperFunction,Plated,PTH,ComponentDrill
T4C0.800
; #@! TA.AperFunction,Plated,PTH,ComponentDrill
T5C1.000
; #@! TA.AperFunction,Plated,PTH,ComponentDrill
T6C1.020
; #@! TA.AperFunction,Plated,PTH,ComponentDrill
T7C1.100
; #@! TA.AperFunction,Plated,PTH,ComponentDrill
T8C1.200
; #@! TA.AperFunction,Plated,PTH,ComponentDrill
T9C1.500
; #@! TA.AperFunction,Plated,PTH,ComponentDrill
T10C2.700
%
G90
G05
T1
X117.33Y-114.86
X118.668Y-74.09
X119.23Y-117.58
X119.93Y-101.7
X122.465Y-103.195
X123.376Y-91.54
X123.57Y-104.6
X125.92Y-78.95
X125.92Y-79.95
X126.92Y-78.95
X126.92Y-79.95
X127.09Y-104.82
X127.92Y-78.95
X127.92Y-79.95
X131.47Y-88.14
X131.59Y-95.63
X134.27Y-94.215
X134.86Y-95.865
X143.4Y-76.73
X148.899Y-78.358
T2
X113.543Y-72.068
X113.543Y-121.068
X114.136Y-70.636
X114.136Y-73.5
X114.136Y-119.636
X114.136Y-122.5
X115.568Y-70.043
X115.568Y-74.093
X115.568Y-119.043
X115.568Y-123.093
X117.0Y-70.636
X117.0Y-73.5
X117.0Y-119.636
X117.0Y-122.5
X117.593Y-72.068
X117.593Y-121.068
X171.543Y-72.068
X171.543Y-121.068
X172.136Y-70.636
X172.136Y-73.5
X172.136Y-119.636
X172.136Y-122.5
X173.568Y-70.043
X173.568Y-74.093
X173.568Y-119.043
X173.568Y-123.093
X175.0Y-70.636
X175.0Y-73.5
X175.0Y-119.636
X175.0Y-122.5
X175.593Y-72.068
X175.593Y-121.068
T3
X125.09Y-107.42
X130.67Y-107.42
T4
X138.708Y-88.14
X141.208Y-88.14
T5
X120.468Y-70.818
X120.468Y-73.358
X123.008Y-70.818
X123.008Y-73.358
X125.548Y-70.818
X125.548Y-73.358
X128.088Y-70.818
X128.088Y-73.358
X130.628Y-70.818
X130.628Y-73.358
X133.168Y-70.818
X133.168Y-73.358
X135.58Y-77.868
X135.58Y-82.868
X135.708Y-70.818
X135.708Y-73.358
X138.248Y-70.818
X138.248Y-73.358
X140.788Y-70.818
X140.788Y-73.358
X143.328Y-70.818
X143.328Y-73.358
X145.868Y-70.818
X145.868Y-73.358
X148.408Y-70.818
X148.408Y-73.358
X150.948Y-70.818
X150.948Y-73.358
X153.328Y-119.32
X153.488Y-70.818
X153.488Y-73.358
X156.028Y-70.818
X156.028Y-73.358
X158.328Y-119.32
X158.568Y-70.818
X158.568Y-73.358
X161.108Y-70.818
X161.108Y-73.358
X163.648Y-70.818
X163.648Y-73.358
X166.188Y-70.818
X166.188Y-73.358
X168.728Y-70.818
X168.728Y-73.358
X169.34Y-109.1
X171.84Y-77.7
X171.84Y-82.7
X174.34Y-109.1
T6
X124.83Y-112.165
X124.83Y-115.165
X127.83Y-112.165
X127.83Y-115.165
X146.5Y-112.115
X146.5Y-115.115
X165.17Y-112.16
X165.17Y-115.16
T7
X134.63Y-104.82
X137.17Y-104.82
X139.71Y-104.82
T8
X115.36Y-76.7
X122.96Y-76.7
X145.95Y-83.09
X145.95Y-85.63
X145.95Y-88.17
X145.95Y-100.87
X145.95Y-105.95
X159.2Y-81.47
X161.19Y-83.09
X161.19Y-85.63
X161.19Y-100.87
X161.19Y-103.41
X161.19Y-105.95
X165.47Y-87.15
X165.47Y-102.15
X175.47Y-87.15
X175.47Y-102.15
T9
X115.36Y-93.2
X115.36Y-100.2
X122.96Y-96.7
T10
X115.568Y-72.068
X115.568Y-121.068
X173.568Y-72.068
X173.568Y-121.068
T0
M30
