G04 #@! TF.GenerationSoftware,KiCad,Pcbnew,7.0.6*
G04 #@! TF.CreationDate,2024-02-28T04:38:31+03:00*
G04 #@! TF.ProjectId,Penguin Junior,50656e67-7569-46e2-904a-756e696f722e,rev?*
G04 #@! TF.SameCoordinates,Original*
G04 #@! TF.FileFunction,Copper,L1,Top*
G04 #@! TF.FilePolarity,Positive*
%FSLAX46Y46*%
G04 Gerber Fmt 4.6, Leading zero omitted, Abs format (unit mm)*
G04 Created by KiCad (PCBNEW 7.0.6) date 2024-02-28 04:38:31*
%MOMM*%
%LPD*%
G01*
G04 APERTURE LIST*
G04 Aperture macros list*
%AMRoundRect*
0 Rectangle with rounded corners*
0 $1 Rounding radius*
0 $2 $3 $4 $5 $6 $7 $8 $9 X,Y pos of 4 corners*
0 Add a 4 corners polygon primitive as box body*
4,1,4,$2,$3,$4,$5,$6,$7,$8,$9,$2,$3,0*
0 Add four circle primitives for the rounded corners*
1,1,$1+$1,$2,$3*
1,1,$1+$1,$4,$5*
1,1,$1+$1,$6,$7*
1,1,$1+$1,$8,$9*
0 Add four rect primitives between the rounded corners*
20,1,$1+$1,$2,$3,$4,$5,0*
20,1,$1+$1,$4,$5,$6,$7,0*
20,1,$1+$1,$6,$7,$8,$9,0*
20,1,$1+$1,$8,$9,$2,$3,0*%
G04 Aperture macros list end*
G04 #@! TA.AperFunction,ComponentPad*
%ADD10RoundRect,0.200000X0.200000X0.450000X-0.200000X0.450000X-0.200000X-0.450000X0.200000X-0.450000X0*%
G04 #@! TD*
G04 #@! TA.AperFunction,ComponentPad*
%ADD11O,0.800000X1.300000*%
G04 #@! TD*
G04 #@! TA.AperFunction,SMDPad,CuDef*
%ADD12RoundRect,0.140000X-0.170000X0.140000X-0.170000X-0.140000X0.170000X-0.140000X0.170000X0.140000X0*%
G04 #@! TD*
G04 #@! TA.AperFunction,SMDPad,CuDef*
%ADD13RoundRect,0.250000X0.425000X-0.450000X0.425000X0.450000X-0.425000X0.450000X-0.425000X-0.450000X0*%
G04 #@! TD*
G04 #@! TA.AperFunction,SMDPad,CuDef*
%ADD14RoundRect,0.140000X-0.021213X0.219203X-0.219203X0.021213X0.021213X-0.219203X0.219203X-0.021213X0*%
G04 #@! TD*
G04 #@! TA.AperFunction,SMDPad,CuDef*
%ADD15RoundRect,0.218750X-0.218750X-0.256250X0.218750X-0.256250X0.218750X0.256250X-0.218750X0.256250X0*%
G04 #@! TD*
G04 #@! TA.AperFunction,SMDPad,CuDef*
%ADD16RoundRect,0.250000X1.000000X0.900000X-1.000000X0.900000X-1.000000X-0.900000X1.000000X-0.900000X0*%
G04 #@! TD*
G04 #@! TA.AperFunction,SMDPad,CuDef*
%ADD17RoundRect,1.250000X-2.250000X1.250000X-2.250000X-1.250000X2.250000X-1.250000X2.250000X1.250000X0*%
G04 #@! TD*
G04 #@! TA.AperFunction,ComponentPad*
%ADD18C,0.700000*%
G04 #@! TD*
G04 #@! TA.AperFunction,ComponentPad*
%ADD19C,4.400000*%
G04 #@! TD*
G04 #@! TA.AperFunction,SMDPad,CuDef*
%ADD20RoundRect,1.750000X-1.750000X-1.750000X1.750000X-1.750000X1.750000X1.750000X-1.750000X1.750000X0*%
G04 #@! TD*
G04 #@! TA.AperFunction,SMDPad,CuDef*
%ADD21RoundRect,0.075000X0.075000X-0.700000X0.075000X0.700000X-0.075000X0.700000X-0.075000X-0.700000X0*%
G04 #@! TD*
G04 #@! TA.AperFunction,SMDPad,CuDef*
%ADD22RoundRect,0.075000X0.700000X-0.075000X0.700000X0.075000X-0.700000X0.075000X-0.700000X-0.075000X0*%
G04 #@! TD*
G04 #@! TA.AperFunction,SMDPad,CuDef*
%ADD23RoundRect,0.218750X-0.256250X0.218750X-0.256250X-0.218750X0.256250X-0.218750X0.256250X0.218750X0*%
G04 #@! TD*
G04 #@! TA.AperFunction,ComponentPad*
%ADD24R,1.600000X1.600000*%
G04 #@! TD*
G04 #@! TA.AperFunction,ComponentPad*
%ADD25C,1.600000*%
G04 #@! TD*
G04 #@! TA.AperFunction,SMDPad,CuDef*
%ADD26RoundRect,0.140000X0.170000X-0.140000X0.170000X0.140000X-0.170000X0.140000X-0.170000X-0.140000X0*%
G04 #@! TD*
G04 #@! TA.AperFunction,ComponentPad*
%ADD27RoundRect,0.200000X-0.200000X-0.450000X0.200000X-0.450000X0.200000X0.450000X-0.200000X0.450000X0*%
G04 #@! TD*
G04 #@! TA.AperFunction,SMDPad,CuDef*
%ADD28RoundRect,0.250000X-1.100000X0.325000X-1.100000X-0.325000X1.100000X-0.325000X1.100000X0.325000X0*%
G04 #@! TD*
G04 #@! TA.AperFunction,ComponentPad*
%ADD29R,1.700000X1.700000*%
G04 #@! TD*
G04 #@! TA.AperFunction,ComponentPad*
%ADD30O,1.700000X1.700000*%
G04 #@! TD*
G04 #@! TA.AperFunction,SMDPad,CuDef*
%ADD31C,1.000000*%
G04 #@! TD*
G04 #@! TA.AperFunction,SMDPad,CuDef*
%ADD32RoundRect,0.135000X0.185000X-0.135000X0.185000X0.135000X-0.185000X0.135000X-0.185000X-0.135000X0*%
G04 #@! TD*
G04 #@! TA.AperFunction,SMDPad,CuDef*
%ADD33RoundRect,0.140000X0.140000X0.170000X-0.140000X0.170000X-0.140000X-0.170000X0.140000X-0.170000X0*%
G04 #@! TD*
G04 #@! TA.AperFunction,SMDPad,CuDef*
%ADD34RoundRect,0.135000X0.135000X0.185000X-0.135000X0.185000X-0.135000X-0.185000X0.135000X-0.185000X0*%
G04 #@! TD*
G04 #@! TA.AperFunction,ComponentPad*
%ADD35R,1.000000X1.000000*%
G04 #@! TD*
G04 #@! TA.AperFunction,ComponentPad*
%ADD36O,1.000000X1.000000*%
G04 #@! TD*
G04 #@! TA.AperFunction,SMDPad,CuDef*
%ADD37R,1.900000X2.500000*%
G04 #@! TD*
G04 #@! TA.AperFunction,SMDPad,CuDef*
%ADD38RoundRect,0.140000X0.219203X0.021213X0.021213X0.219203X-0.219203X-0.021213X-0.021213X-0.219203X0*%
G04 #@! TD*
G04 #@! TA.AperFunction,SMDPad,CuDef*
%ADD39RoundRect,0.250000X0.750000X0.250000X-0.750000X0.250000X-0.750000X-0.250000X0.750000X-0.250000X0*%
G04 #@! TD*
G04 #@! TA.AperFunction,SMDPad,CuDef*
%ADD40R,0.400000X1.800000*%
G04 #@! TD*
G04 #@! TA.AperFunction,ComponentPad*
%ADD41O,1.090000X2.000000*%
G04 #@! TD*
G04 #@! TA.AperFunction,ComponentPad*
%ADD42O,1.050000X1.600000*%
G04 #@! TD*
G04 #@! TA.AperFunction,SMDPad,CuDef*
%ADD43RoundRect,0.135000X-0.135000X-0.185000X0.135000X-0.185000X0.135000X0.185000X-0.135000X0.185000X0*%
G04 #@! TD*
G04 #@! TA.AperFunction,SMDPad,CuDef*
%ADD44RoundRect,0.140000X-0.140000X-0.170000X0.140000X-0.170000X0.140000X0.170000X-0.140000X0.170000X0*%
G04 #@! TD*
G04 #@! TA.AperFunction,SMDPad,CuDef*
%ADD45R,1.400000X1.200000*%
G04 #@! TD*
G04 #@! TA.AperFunction,SMDPad,CuDef*
%ADD46RoundRect,0.218750X0.218750X0.256250X-0.218750X0.256250X-0.218750X-0.256250X0.218750X-0.256250X0*%
G04 #@! TD*
G04 #@! TA.AperFunction,SMDPad,CuDef*
%ADD47RoundRect,0.062500X-0.325000X-0.062500X0.325000X-0.062500X0.325000X0.062500X-0.325000X0.062500X0*%
G04 #@! TD*
G04 #@! TA.AperFunction,SMDPad,CuDef*
%ADD48RoundRect,0.062500X-0.062500X0.325000X-0.062500X-0.325000X0.062500X-0.325000X0.062500X0.325000X0*%
G04 #@! TD*
G04 #@! TA.AperFunction,SMDPad,CuDef*
%ADD49R,2.000000X1.500000*%
G04 #@! TD*
G04 #@! TA.AperFunction,SMDPad,CuDef*
%ADD50R,2.000000X3.800000*%
G04 #@! TD*
G04 #@! TA.AperFunction,SMDPad,CuDef*
%ADD51RoundRect,0.062500X0.525000X0.062500X-0.525000X0.062500X-0.525000X-0.062500X0.525000X-0.062500X0*%
G04 #@! TD*
G04 #@! TA.AperFunction,SMDPad,CuDef*
%ADD52RoundRect,0.062500X0.062500X-0.525000X0.062500X0.525000X-0.062500X0.525000X-0.062500X-0.525000X0*%
G04 #@! TD*
G04 #@! TA.AperFunction,SMDPad,CuDef*
%ADD53RoundRect,0.135000X-0.185000X0.135000X-0.185000X-0.135000X0.185000X-0.135000X0.185000X0.135000X0*%
G04 #@! TD*
G04 #@! TA.AperFunction,SMDPad,CuDef*
%ADD54RoundRect,0.135000X0.035355X-0.226274X0.226274X-0.035355X-0.035355X0.226274X-0.226274X0.035355X0*%
G04 #@! TD*
G04 #@! TA.AperFunction,ViaPad*
%ADD55C,0.800000*%
G04 #@! TD*
G04 #@! TA.AperFunction,Conductor*
%ADD56C,0.250000*%
G04 #@! TD*
G04 #@! TA.AperFunction,Conductor*
%ADD57C,0.800000*%
G04 #@! TD*
G04 #@! TA.AperFunction,Conductor*
%ADD58C,0.500000*%
G04 #@! TD*
G04 #@! TA.AperFunction,Conductor*
%ADD59C,0.200000*%
G04 #@! TD*
G04 #@! TA.AperFunction,Conductor*
%ADD60C,0.400000*%
G04 #@! TD*
G04 #@! TA.AperFunction,Conductor*
%ADD61C,0.300000*%
G04 #@! TD*
G04 #@! TA.AperFunction,Conductor*
%ADD62C,0.680000*%
G04 #@! TD*
G04 #@! TA.AperFunction,Conductor*
%ADD63C,1.000000*%
G04 #@! TD*
G04 APERTURE END LIST*
D10*
X132175000Y-84800000D03*
D11*
X130925000Y-84800000D03*
X129675000Y-84800000D03*
X128425000Y-84800000D03*
X127175000Y-84800000D03*
X125925000Y-84800000D03*
D12*
X114780000Y-103020000D03*
X114780000Y-103980000D03*
D13*
X132170000Y-91010000D03*
X132170000Y-88310000D03*
D10*
X145200000Y-84800000D03*
D11*
X143950000Y-84800000D03*
X142700000Y-84800000D03*
D14*
X137498822Y-101690589D03*
X136820000Y-102369411D03*
D15*
X115492500Y-106600000D03*
X117067500Y-106600000D03*
D12*
X122470000Y-106810000D03*
X122470000Y-107770000D03*
D16*
X149455000Y-96280000D03*
X145155000Y-96280000D03*
D17*
X156455000Y-97807000D03*
X156455000Y-105910000D03*
D18*
X110275000Y-85860000D03*
X110758274Y-84693274D03*
X110758274Y-87026726D03*
X111925000Y-84210000D03*
D19*
X111925000Y-85860000D03*
D18*
X111925000Y-87510000D03*
X113091726Y-84693274D03*
X113091726Y-87026726D03*
X113575000Y-85860000D03*
D12*
X128640000Y-91800000D03*
X128640000Y-92760000D03*
D20*
X156455000Y-87410000D03*
D21*
X118175000Y-103015000D03*
X118675000Y-103015000D03*
X119175000Y-103015000D03*
X119675000Y-103015000D03*
X120175000Y-103015000D03*
X120675000Y-103015000D03*
X121175000Y-103015000D03*
X121675000Y-103015000D03*
X122175000Y-103015000D03*
X122675000Y-103015000D03*
X123175000Y-103015000D03*
X123675000Y-103015000D03*
X124175000Y-103015000D03*
X124675000Y-103015000D03*
X125175000Y-103015000D03*
X125675000Y-103015000D03*
D22*
X127600000Y-101090000D03*
X127600000Y-100590000D03*
X127600000Y-100090000D03*
X127600000Y-99590000D03*
X127600000Y-99090000D03*
X127600000Y-98590000D03*
X127600000Y-98090000D03*
X127600000Y-97590000D03*
X127600000Y-97090000D03*
X127600000Y-96590000D03*
X127600000Y-96090000D03*
X127600000Y-95590000D03*
X127600000Y-95090000D03*
X127600000Y-94590000D03*
X127600000Y-94090000D03*
X127600000Y-93590000D03*
D21*
X125675000Y-91665000D03*
X125175000Y-91665000D03*
X124675000Y-91665000D03*
X124175000Y-91665000D03*
X123675000Y-91665000D03*
X123175000Y-91665000D03*
X122675000Y-91665000D03*
X122175000Y-91665000D03*
X121675000Y-91665000D03*
X121175000Y-91665000D03*
X120675000Y-91665000D03*
X120175000Y-91665000D03*
X119675000Y-91665000D03*
X119175000Y-91665000D03*
X118675000Y-91665000D03*
X118175000Y-91665000D03*
D22*
X116250000Y-93590000D03*
X116250000Y-94090000D03*
X116250000Y-94590000D03*
X116250000Y-95090000D03*
X116250000Y-95590000D03*
X116250000Y-96090000D03*
X116250000Y-96590000D03*
X116250000Y-97090000D03*
X116250000Y-97590000D03*
X116250000Y-98090000D03*
X116250000Y-98590000D03*
X116250000Y-99090000D03*
X116250000Y-99590000D03*
X116250000Y-100090000D03*
X116250000Y-100590000D03*
X116250000Y-101090000D03*
D23*
X150220000Y-100162500D03*
X150220000Y-101737500D03*
D18*
X148575000Y-106460000D03*
X149058274Y-105293274D03*
X149058274Y-107626726D03*
X150225000Y-104810000D03*
D19*
X150225000Y-106460000D03*
D18*
X150225000Y-108110000D03*
X151391726Y-105293274D03*
X151391726Y-107626726D03*
X151875000Y-106460000D03*
D24*
X141705000Y-89510000D03*
D25*
X141705000Y-91510000D03*
D26*
X129210000Y-102870000D03*
X129210000Y-101910000D03*
D27*
X142010000Y-107510000D03*
D11*
X143260000Y-107510000D03*
X144510000Y-107510000D03*
X145760000Y-107510000D03*
D28*
X156455000Y-91238500D03*
X156455000Y-91633500D03*
X156455000Y-94583500D03*
X156455000Y-94978500D03*
D23*
X147300000Y-100162500D03*
X147300000Y-101737500D03*
D29*
X105715000Y-84735000D03*
D30*
X105715000Y-87275000D03*
X105715000Y-89815000D03*
X105715000Y-92355000D03*
X105715000Y-94895000D03*
X105715000Y-97435000D03*
X105715000Y-99975000D03*
X105715000Y-102515000D03*
X105715000Y-105055000D03*
X105715000Y-107595000D03*
D12*
X130312500Y-95130000D03*
X130312500Y-96090000D03*
D27*
X124930000Y-107510000D03*
D11*
X126180000Y-107510000D03*
X127430000Y-107510000D03*
X128680000Y-107510000D03*
X129930000Y-107510000D03*
X131180000Y-107510000D03*
D26*
X129210000Y-101050000D03*
X129210000Y-100090000D03*
D31*
X130690000Y-97920000D03*
D32*
X126860000Y-88790000D03*
X126860000Y-87770000D03*
D33*
X132762500Y-93335000D03*
X131802500Y-93335000D03*
D32*
X128810000Y-88800000D03*
X128810000Y-87780000D03*
D34*
X149350000Y-99000000D03*
X148330000Y-99000000D03*
D23*
X148760000Y-100162500D03*
X148760000Y-101737500D03*
D35*
X140040000Y-103150000D03*
D36*
X140040000Y-101880000D03*
X141310000Y-103150000D03*
X141310000Y-101880000D03*
X142580000Y-103150000D03*
X142580000Y-101880000D03*
X143850000Y-103150000D03*
X143850000Y-101880000D03*
X145120000Y-103150000D03*
X145120000Y-101880000D03*
D37*
X149755000Y-91180000D03*
X145655000Y-91180000D03*
D38*
X135559411Y-102369411D03*
X134880589Y-101690589D03*
D29*
X108255000Y-84735000D03*
D30*
X108255000Y-87275000D03*
X108255000Y-89815000D03*
X108255000Y-92355000D03*
X108255000Y-94895000D03*
X108255000Y-97435000D03*
X108255000Y-99975000D03*
X108255000Y-102515000D03*
X108255000Y-105055000D03*
X108255000Y-107595000D03*
D27*
X134720000Y-107510000D03*
D11*
X135970000Y-107510000D03*
X137220000Y-107510000D03*
X138470000Y-107510000D03*
D13*
X136420000Y-92320000D03*
X136420000Y-89620000D03*
D39*
X111740000Y-102085000D03*
X111740000Y-97635000D03*
D31*
X134295000Y-92620000D03*
D33*
X122400000Y-104500000D03*
X121440000Y-104500000D03*
D40*
X120900000Y-89182000D03*
X120250000Y-89182000D03*
X119600000Y-89182000D03*
X118950000Y-89182000D03*
X118300000Y-89182000D03*
D41*
X116000000Y-85932000D03*
D42*
X116000000Y-89382000D03*
D41*
X123200000Y-85932000D03*
D42*
X123200000Y-89382000D03*
D43*
X135790000Y-87820000D03*
X136810000Y-87820000D03*
D12*
X127720000Y-91800000D03*
X127720000Y-92760000D03*
D44*
X115670000Y-103050000D03*
X116630000Y-103050000D03*
D31*
X136380000Y-100450000D03*
D32*
X125400000Y-88790000D03*
X125400000Y-87770000D03*
D18*
X110275000Y-106460000D03*
X110758274Y-105293274D03*
X110758274Y-107626726D03*
X111925000Y-104810000D03*
D19*
X111925000Y-106460000D03*
D18*
X111925000Y-108110000D03*
X113091726Y-105293274D03*
X113091726Y-107626726D03*
X113575000Y-106460000D03*
D32*
X113890000Y-100230000D03*
X113890000Y-99210000D03*
D35*
X112900000Y-95200000D03*
D36*
X111630000Y-95200000D03*
X112900000Y-93930000D03*
X111630000Y-93930000D03*
X112900000Y-92660000D03*
X111630000Y-92660000D03*
X112900000Y-91390000D03*
X111630000Y-91390000D03*
X112900000Y-90120000D03*
X111630000Y-90120000D03*
D44*
X115270000Y-101950000D03*
X116230000Y-101950000D03*
D45*
X118810000Y-107980000D03*
X121010000Y-107980000D03*
X121010000Y-106280000D03*
X118810000Y-106280000D03*
D44*
X116380000Y-91630000D03*
X117340000Y-91630000D03*
D43*
X111590000Y-103280000D03*
X112610000Y-103280000D03*
D15*
X115492500Y-105140000D03*
X117067500Y-105140000D03*
D31*
X132180000Y-97920000D03*
D46*
X117067500Y-108060000D03*
X115492500Y-108060000D03*
D47*
X131287500Y-95074000D03*
X131287500Y-95574000D03*
D48*
X131800000Y-96332500D03*
X132300000Y-96332500D03*
X132800000Y-96332500D03*
D47*
X133312500Y-95570000D03*
X133312500Y-95070000D03*
D48*
X132800000Y-94307500D03*
X132300000Y-94307500D03*
X131800000Y-94307500D03*
D49*
X142395000Y-99180000D03*
X142395000Y-96880000D03*
D50*
X136095000Y-96880000D03*
D49*
X142395000Y-94580000D03*
D44*
X116380000Y-90710000D03*
X117340000Y-90710000D03*
D51*
X130445000Y-103410000D03*
X130445000Y-102910000D03*
X130445000Y-102410000D03*
X130445000Y-101910000D03*
X130445000Y-101410000D03*
X130445000Y-100910000D03*
X130445000Y-100410000D03*
D52*
X131960000Y-99645000D03*
D51*
X133475000Y-100410000D03*
X133475000Y-100910000D03*
X133475000Y-101410000D03*
X133475000Y-101910000D03*
X133475000Y-102410000D03*
X133475000Y-102910000D03*
X133475000Y-103410000D03*
D52*
X131960000Y-104175000D03*
D32*
X114620000Y-88320000D03*
X114620000Y-87300000D03*
D34*
X150530000Y-102900000D03*
X149510000Y-102900000D03*
D18*
X148575000Y-85860000D03*
X149058274Y-84693274D03*
X149058274Y-87026726D03*
X150225000Y-84210000D03*
D19*
X150225000Y-85860000D03*
D18*
X150225000Y-87510000D03*
X151391726Y-84693274D03*
X151391726Y-87026726D03*
X151875000Y-85860000D03*
D44*
X119590000Y-104970000D03*
X120550000Y-104970000D03*
D10*
X138690000Y-84800000D03*
D11*
X137440000Y-84800000D03*
X136190000Y-84800000D03*
D44*
X123260000Y-104500000D03*
X124220000Y-104500000D03*
D53*
X113890000Y-101070000D03*
X113890000Y-102090000D03*
D12*
X113890000Y-96490000D03*
X113890000Y-97450000D03*
D29*
X103175000Y-84735000D03*
D30*
X103175000Y-87275000D03*
X103175000Y-89815000D03*
X103175000Y-92355000D03*
X103175000Y-94895000D03*
X103175000Y-97435000D03*
X103175000Y-99975000D03*
X103175000Y-102515000D03*
X103175000Y-105055000D03*
X103175000Y-107595000D03*
D54*
X147139376Y-103780624D03*
X147860624Y-103059376D03*
D31*
X129920000Y-99190000D03*
X133660000Y-97920000D03*
D55*
X140639999Y-107260000D03*
X159455000Y-87410000D03*
X159455000Y-88410000D03*
X154455000Y-89410000D03*
X158455000Y-87410000D03*
X155455000Y-87410000D03*
X153455000Y-88410000D03*
X139839999Y-107260000D03*
X154455000Y-86410000D03*
X132629500Y-107260000D03*
X155455000Y-85410000D03*
X156455000Y-89410000D03*
X149540000Y-98330000D03*
X156455000Y-91633500D03*
X158455000Y-89410000D03*
X147340000Y-107260000D03*
X126330000Y-88860000D03*
X153455000Y-85410000D03*
X155455000Y-86410000D03*
X156455000Y-88410000D03*
X153455000Y-86410000D03*
X157455000Y-87410000D03*
X155455000Y-88410000D03*
X156455000Y-86410000D03*
X130520500Y-93769131D03*
X156455000Y-85410000D03*
X121008136Y-107961000D03*
X158455000Y-88410000D03*
X147340000Y-108060000D03*
X116015600Y-92185600D03*
X157455000Y-89410000D03*
X158455000Y-85410000D03*
X129210000Y-101480000D03*
X155455000Y-89410000D03*
X119110500Y-106480000D03*
X154455000Y-88410000D03*
X159455000Y-86410000D03*
X153455000Y-89410000D03*
X159455000Y-89410000D03*
X140639999Y-108060000D03*
X157455000Y-88410000D03*
X157455000Y-85410000D03*
X156455000Y-84410000D03*
X158455000Y-86410000D03*
X154455000Y-84410000D03*
X130750000Y-90340000D03*
X155455000Y-84410000D03*
X153455000Y-87410000D03*
X158455000Y-84410000D03*
X156455000Y-87410000D03*
X154455000Y-85410000D03*
X157455000Y-86410000D03*
X153470000Y-92265000D03*
X133710000Y-107260000D03*
X158455000Y-90410000D03*
X159455000Y-85410000D03*
X144870000Y-96440000D03*
X129557502Y-91985299D03*
X139839999Y-108060000D03*
X115450000Y-91620000D03*
X157455000Y-91633500D03*
X157455000Y-90410000D03*
X157455000Y-84410000D03*
X156455000Y-90410000D03*
X155455000Y-90410000D03*
X154455000Y-87410000D03*
X130190000Y-88570000D03*
X130770000Y-94750000D03*
X119600000Y-85720000D03*
X146374031Y-105069085D03*
X135732337Y-101380984D03*
X128448398Y-102510000D03*
X129210000Y-100090000D03*
X123920000Y-107260000D03*
X118110000Y-92880000D03*
X150965000Y-98835000D03*
X119410378Y-100660378D03*
X124450000Y-88860000D03*
X114740000Y-97020000D03*
X117650000Y-99330000D03*
X119110000Y-108030000D03*
X139309059Y-95530500D03*
X139979117Y-91710000D03*
X140710000Y-92550000D03*
X121615500Y-89080000D03*
X148955000Y-96780000D03*
X150080000Y-89330000D03*
X152360000Y-94805000D03*
X149430000Y-89330000D03*
X150080000Y-88680000D03*
X149955000Y-96780000D03*
X149955000Y-95780000D03*
X149430000Y-89980000D03*
X152080000Y-95670000D03*
X153220000Y-94805000D03*
X150080000Y-89980000D03*
X149430000Y-88680000D03*
X149430000Y-90630000D03*
X151360000Y-95160000D03*
X150080000Y-90630000D03*
X148955000Y-95780000D03*
X157455000Y-103910000D03*
X153455000Y-104910000D03*
X154455000Y-105910000D03*
X158455000Y-107910000D03*
X156455000Y-105910000D03*
X159455000Y-104910000D03*
X154455000Y-103910000D03*
X154455000Y-107910000D03*
X154455000Y-104910000D03*
X158455000Y-103910000D03*
X156455000Y-106910000D03*
X155455000Y-106910000D03*
X156455000Y-103910000D03*
X155455000Y-104910000D03*
X153455000Y-106910000D03*
X153455000Y-105910000D03*
X154455000Y-106910000D03*
X156455000Y-107910000D03*
X157455000Y-105910000D03*
X157455000Y-106910000D03*
X158455000Y-105910000D03*
X155455000Y-103910000D03*
X159455000Y-106910000D03*
X157455000Y-107910000D03*
X159455000Y-105910000D03*
X157455000Y-104910000D03*
X156455000Y-104910000D03*
X158455000Y-104910000D03*
X158455000Y-106910000D03*
X155455000Y-105910000D03*
X155455000Y-107910000D03*
X141867500Y-94110000D03*
X141867500Y-94760000D03*
X142517500Y-94760000D03*
X142517500Y-94110000D03*
X117067500Y-105140000D03*
X117067500Y-106600000D03*
X145090000Y-89030000D03*
X138970000Y-89510000D03*
X145090000Y-91630000D03*
X138320000Y-88860000D03*
X138970000Y-90160000D03*
X138970000Y-90810000D03*
X145740000Y-89680000D03*
X145090000Y-90980000D03*
X145090000Y-89680000D03*
X138320000Y-89510000D03*
X138320000Y-88210000D03*
X145740000Y-89030000D03*
X138970000Y-88210000D03*
X138320000Y-90160000D03*
X145740000Y-90980000D03*
X145740000Y-90330000D03*
X138970000Y-88860000D03*
X145090000Y-90330000D03*
X145740000Y-91630000D03*
X138320000Y-90810000D03*
X117930000Y-94340000D03*
X118940000Y-94380000D03*
X119910000Y-93820000D03*
X118770000Y-95590000D03*
X122899500Y-93150000D03*
X122399500Y-94070000D03*
X121899500Y-95010000D03*
X122410000Y-97600000D03*
X114010000Y-98334999D03*
X126200000Y-100080000D03*
X120420000Y-97990000D03*
X119200000Y-98094500D03*
X141145000Y-104260000D03*
X142745000Y-104260000D03*
X141945000Y-104260000D03*
X120642300Y-99817700D03*
X119240000Y-99110000D03*
X123460688Y-101190000D03*
X114880000Y-98850000D03*
X122940000Y-96740000D03*
X125929622Y-97352002D03*
X154455000Y-97807000D03*
X158455000Y-99807000D03*
X155455000Y-95807000D03*
X155455000Y-97807000D03*
X156455000Y-96807000D03*
X157455000Y-96807000D03*
X154455000Y-99807000D03*
X158455000Y-97807000D03*
X156455000Y-94583500D03*
X157455000Y-94583500D03*
X157455000Y-98807000D03*
X154455000Y-98807000D03*
X153505000Y-97807000D03*
X157455000Y-95807000D03*
X153505000Y-96807000D03*
X156455000Y-95807000D03*
X155455000Y-99807000D03*
X156455000Y-99807000D03*
X155455000Y-98807000D03*
X158455000Y-95807000D03*
X154455000Y-95807000D03*
X156455000Y-98807000D03*
X158455000Y-98807000D03*
X155455000Y-96807000D03*
X159455000Y-97807000D03*
X154455000Y-96807000D03*
X155455000Y-94583500D03*
X159455000Y-98807000D03*
X159455000Y-96807000D03*
X158455000Y-96807000D03*
X156455000Y-97807000D03*
X157455000Y-97807000D03*
X157455000Y-99807000D03*
X124404500Y-96902502D03*
X127658635Y-101871365D03*
X132250000Y-95340000D03*
X129608176Y-98074500D03*
X131887999Y-101680000D03*
X134881107Y-100685061D03*
X117620000Y-96814500D03*
X124530000Y-94920000D03*
X129436638Y-96675000D03*
X120366697Y-96213303D03*
X125675000Y-94540000D03*
X123680000Y-97841000D03*
X124420000Y-101520000D03*
X134520000Y-89510000D03*
X133870000Y-89510000D03*
X134520000Y-88210000D03*
X133870000Y-90810000D03*
X134520000Y-90810000D03*
X134520000Y-90160000D03*
X141945000Y-100810000D03*
X142745000Y-100810000D03*
X133870000Y-88210000D03*
X134520000Y-88860000D03*
X133870000Y-88860000D03*
X133870000Y-90160000D03*
X141145000Y-100810000D03*
X132140000Y-86180000D03*
X132140000Y-86980000D03*
X132940000Y-86680000D03*
X130187500Y-86980000D03*
X145492500Y-94525000D03*
X132940000Y-85880000D03*
X144842500Y-93875000D03*
X144842500Y-94525000D03*
X145492500Y-93875000D03*
X124720000Y-98010000D03*
X115014312Y-94087615D03*
X126264439Y-98789140D03*
X114780000Y-86790000D03*
X117430000Y-85710000D03*
X115349500Y-90610000D03*
D56*
X129600000Y-95385109D02*
X130304891Y-96090000D01*
D57*
X139839999Y-107260000D02*
X139839999Y-108060000D01*
D56*
X131170000Y-102910000D02*
X130445000Y-102910000D01*
X131090000Y-101910000D02*
X131437999Y-102257999D01*
X129600000Y-94874891D02*
X129600000Y-95385109D01*
D58*
X119260000Y-106330500D02*
X119260000Y-105330000D01*
D59*
X118810000Y-105780000D02*
X118810000Y-106179500D01*
D57*
X140639999Y-107260000D02*
X139839999Y-107260000D01*
D58*
X119110500Y-106480000D02*
X119260000Y-106330500D01*
X119260000Y-105330000D02*
X119620000Y-104970000D01*
D59*
X118810000Y-106179500D02*
X119110500Y-106480000D01*
D56*
X131437999Y-102257999D02*
X131437999Y-102642001D01*
X130520500Y-93769131D02*
X130520500Y-93954391D01*
D57*
X139839999Y-108060000D02*
X140639999Y-108060000D01*
D56*
X130445000Y-101910000D02*
X131090000Y-101910000D01*
X123675000Y-104085000D02*
X123260000Y-104500000D01*
D60*
X122280000Y-106880000D02*
X122470000Y-106880000D01*
X121180000Y-107980000D02*
X122280000Y-106880000D01*
X121010000Y-107980000D02*
X121180000Y-107980000D01*
D56*
X130304891Y-96090000D02*
X130312500Y-96090000D01*
D58*
X129557502Y-91985299D02*
X129372203Y-91800000D01*
D61*
X116200000Y-89080000D02*
X116000000Y-89280000D01*
D56*
X130520500Y-93954391D02*
X129600000Y-94874891D01*
X131437999Y-102642001D02*
X131170000Y-102910000D01*
D57*
X147340000Y-107260000D02*
X147340000Y-108060000D01*
D56*
X123675000Y-103015000D02*
X123675000Y-104085000D01*
D57*
X116015600Y-92185600D02*
X115450000Y-91620000D01*
D58*
X122400000Y-104500000D02*
X123260000Y-104500000D01*
D57*
X140639999Y-108060000D02*
X140639999Y-107260000D01*
D58*
X129372203Y-91800000D02*
X127640000Y-91800000D01*
D56*
X128223299Y-91195000D02*
X127357391Y-91195000D01*
D61*
X114780000Y-103980000D02*
X113697642Y-103980000D01*
D56*
X130190000Y-88570000D02*
X130190000Y-89228299D01*
D62*
X146384031Y-105069085D02*
X143660915Y-105069085D01*
D60*
X135732337Y-101380984D02*
X135586172Y-101380984D01*
X135276567Y-101690589D02*
X134880589Y-101690589D01*
D56*
X127650000Y-93540000D02*
X127650000Y-92760000D01*
X123240000Y-107007609D02*
X123240000Y-106910000D01*
D60*
X135586172Y-101380984D02*
X135276567Y-101690589D01*
D56*
X123240000Y-106910000D02*
X124220000Y-105930000D01*
D62*
X143660915Y-105069085D02*
X143430000Y-105300000D01*
D61*
X116630000Y-103092965D02*
X115742965Y-103980000D01*
D62*
X140040000Y-104625782D02*
X140040000Y-103150000D01*
D61*
X116630000Y-103050000D02*
X116630000Y-103092965D01*
D56*
X133475000Y-101410000D02*
X134600000Y-101410000D01*
X130445000Y-102410000D02*
X129677609Y-102410000D01*
X124175000Y-103015000D02*
X124175000Y-104455000D01*
X127065000Y-92112609D02*
X127712391Y-92760000D01*
D61*
X113697642Y-103980000D02*
X113167641Y-103449999D01*
X112610000Y-103280000D02*
X112779999Y-103449999D01*
D56*
X122477609Y-107770000D02*
X123240000Y-107007609D01*
X124220000Y-105930000D02*
X124220000Y-104500000D01*
D61*
X113167641Y-103449999D02*
X112779999Y-103449999D01*
X127600000Y-100090000D02*
X129210000Y-100090000D01*
D56*
X123260000Y-107920000D02*
X122620000Y-107920000D01*
D62*
X143430000Y-105300000D02*
X140714218Y-105300000D01*
X140714218Y-105300000D02*
X140040000Y-104625782D01*
D56*
X134600000Y-101410000D02*
X134880589Y-101690589D01*
X129677609Y-102410000D02*
X129217609Y-102870000D01*
X124175000Y-104455000D02*
X124220000Y-104500000D01*
D58*
X128448398Y-102510000D02*
X128808398Y-102870000D01*
D56*
X123920000Y-107260000D02*
X123260000Y-107920000D01*
X127600000Y-93590000D02*
X127650000Y-93540000D01*
X130190000Y-89228299D02*
X128223299Y-91195000D01*
D61*
X115742965Y-103980000D02*
X114780000Y-103980000D01*
D56*
X122470000Y-107770000D02*
X122477609Y-107770000D01*
X127357391Y-91195000D02*
X127065000Y-91487391D01*
X122620000Y-107920000D02*
X122470000Y-107770000D01*
X127065000Y-91487391D02*
X127065000Y-92112609D01*
D58*
X128808398Y-102870000D02*
X129210000Y-102870000D01*
D56*
X129217609Y-102870000D02*
X129210000Y-102870000D01*
D62*
X146394031Y-105059085D02*
X146384031Y-105069085D01*
D56*
X118250000Y-99930000D02*
X119720000Y-99930000D01*
D58*
X114310000Y-97450000D02*
X114740000Y-97020000D01*
D56*
X119720000Y-99930000D02*
X121175000Y-101385000D01*
D58*
X113890000Y-97450000D02*
X114310000Y-97450000D01*
X113890000Y-97450000D02*
X111925000Y-97450000D01*
D56*
X117650000Y-99330000D02*
X118250000Y-99930000D01*
D60*
X111840001Y-97534999D02*
X111740000Y-97635000D01*
D58*
X111925000Y-97450000D02*
X111740000Y-97635000D01*
D56*
X121175000Y-101385000D02*
X121175000Y-103015000D01*
X118910000Y-107980000D02*
X118810000Y-107980000D01*
X120175000Y-103015000D02*
X120175000Y-104105000D01*
X120550000Y-104977609D02*
X119835000Y-105692609D01*
X119110000Y-108180000D02*
X118910000Y-107980000D01*
X120550000Y-104480000D02*
X120550000Y-104970000D01*
X120550000Y-104970000D02*
X120550000Y-104977609D01*
X120175000Y-104105000D02*
X120550000Y-104480000D01*
X119835000Y-107055000D02*
X119110000Y-108180000D01*
X119835000Y-105692609D02*
X119835000Y-107055000D01*
X121319315Y-104500000D02*
X120675000Y-103855685D01*
X121440000Y-104500000D02*
X121319315Y-104500000D01*
D60*
X121510000Y-104570000D02*
X121510000Y-105780000D01*
D56*
X120675000Y-103855685D02*
X120675000Y-103015000D01*
D60*
X121510000Y-105780000D02*
X121010000Y-106280000D01*
X121440000Y-104500000D02*
X121510000Y-104570000D01*
D56*
X128740000Y-93790685D02*
X128740000Y-92940000D01*
X127600000Y-94090000D02*
X128440685Y-94090000D01*
X128440685Y-94090000D02*
X128740000Y-93790685D01*
X128740000Y-92940000D02*
X128560000Y-92760000D01*
X117520000Y-90530000D02*
X117340000Y-90710000D01*
X118675000Y-90825000D02*
X118380000Y-90530000D01*
X118380000Y-90530000D02*
X117520000Y-90530000D01*
X118675000Y-91665000D02*
X118675000Y-90825000D01*
D58*
X132170000Y-91010000D02*
X132820000Y-91660000D01*
X137280000Y-91170000D02*
X137820000Y-91710000D01*
X132820000Y-91660000D02*
X135100000Y-91660000D01*
X135100000Y-91660000D02*
X135590000Y-91170000D01*
X135590000Y-91170000D02*
X137280000Y-91170000D01*
X137820000Y-91710000D02*
X139979117Y-91710000D01*
X132950000Y-87530000D02*
X133292082Y-87530000D01*
X133292082Y-87530000D02*
X133462082Y-87360000D01*
X136420000Y-89550000D02*
X135790000Y-88920000D01*
X135790000Y-88920000D02*
X135790000Y-87820000D01*
X135330000Y-87360000D02*
X135790000Y-87820000D01*
X133462082Y-87360000D02*
X135330000Y-87360000D01*
X132170000Y-88310000D02*
X132950000Y-87530000D01*
X136420000Y-89620000D02*
X136420000Y-89550000D01*
X135370000Y-93390000D02*
X135370000Y-93980000D01*
X138730000Y-94530000D02*
X139005000Y-94255000D01*
X138380000Y-95180000D02*
X138380000Y-94880000D01*
X136420000Y-92320000D02*
X136420000Y-92340000D01*
X136420000Y-92340000D02*
X135370000Y-93390000D01*
X138792869Y-93052919D02*
X138792868Y-93052920D01*
X139287844Y-93052919D02*
X139499977Y-93265052D01*
X139994951Y-93265052D02*
X140710000Y-92550000D01*
X135370000Y-93980000D02*
X135920000Y-94530000D01*
X139994952Y-93265051D02*
X139994951Y-93265052D01*
X139005000Y-93760026D02*
X138792868Y-93547894D01*
X137680000Y-94880000D02*
X137680000Y-95180000D01*
X139287844Y-93052920D02*
X139287844Y-93052919D01*
X135920000Y-94530000D02*
X137330000Y-94530000D01*
X137680000Y-95180000D02*
G75*
G03*
X138030000Y-95530000I350000J0D01*
G01*
X138030000Y-95530000D02*
G75*
G03*
X138380000Y-95180000I0J350000D01*
G01*
X138730000Y-94530000D02*
G75*
G03*
X138380000Y-94880000I0J-350000D01*
G01*
X138792862Y-93052912D02*
G75*
G03*
X138792868Y-93547894I247538J-247488D01*
G01*
X139287844Y-93052920D02*
G75*
G03*
X138792868Y-93052920I-247488J-247484D01*
G01*
X139004987Y-94254987D02*
G75*
G03*
X139005000Y-93760026I-247487J247487D01*
G01*
X137680000Y-94880000D02*
G75*
G03*
X137330000Y-94530000I-350000J0D01*
G01*
X139500013Y-93265016D02*
G75*
G03*
X139994952Y-93265051I247487J247416D01*
G01*
D57*
X142517500Y-94110000D02*
X141867500Y-94110000D01*
X141867500Y-94110000D02*
X141867500Y-94760000D01*
X142517500Y-94760000D02*
X142517500Y-94110000D01*
X141867500Y-94760000D02*
X142517500Y-94760000D01*
D59*
X115830000Y-105140000D02*
X115492500Y-105140000D01*
X118680000Y-103020000D02*
X118680000Y-103815328D01*
X118680000Y-103815328D02*
X118405328Y-104090000D01*
X118675000Y-103015000D02*
X118680000Y-103020000D01*
X115830000Y-104553190D02*
X115830000Y-105140000D01*
X115492500Y-105140000D02*
X115452500Y-105140000D01*
X117666808Y-103965000D02*
X116418190Y-103965000D01*
X117791809Y-104090000D02*
X117666808Y-103965000D01*
X116418190Y-103965000D02*
X115830000Y-104553190D01*
X118405328Y-104090000D02*
X117791809Y-104090000D01*
X116583876Y-104365000D02*
X116279999Y-104668877D01*
X116279999Y-104668877D02*
X116279999Y-105812501D01*
X117501123Y-104365000D02*
X116583876Y-104365000D01*
X119175000Y-103015000D02*
X119175000Y-103886014D01*
X119175000Y-103886014D02*
X118571013Y-104490000D01*
X117626123Y-104490000D02*
X117501123Y-104365000D01*
X116279999Y-105812501D02*
X115492500Y-106600000D01*
X118571013Y-104490000D02*
X117626123Y-104490000D01*
X119675000Y-103951700D02*
X118436700Y-105190000D01*
X117810000Y-105530000D02*
X117810000Y-107270000D01*
X117810000Y-107270000D02*
X117067500Y-108012500D01*
X118436700Y-105190000D02*
X118150000Y-105190000D01*
X119675000Y-103015000D02*
X119675000Y-103951700D01*
X117067500Y-108012500D02*
X117067500Y-108060000D01*
X118150000Y-105190000D02*
X117810000Y-105530000D01*
D56*
X115492500Y-108032500D02*
X114730000Y-107270000D01*
X112205000Y-103935000D02*
X111590000Y-103320000D01*
X114730000Y-105694110D02*
X112970890Y-103935000D01*
X115492500Y-108060000D02*
X115492500Y-108032500D01*
X111590000Y-103320000D02*
X111590000Y-103280000D01*
X114730000Y-107270000D02*
X114730000Y-105694110D01*
X112970890Y-103935000D02*
X112205000Y-103935000D01*
D60*
X147860624Y-103059376D02*
X147860624Y-102636876D01*
X147860624Y-102636876D02*
X148760000Y-101737500D01*
D58*
X149510000Y-102900000D02*
X149510000Y-102447500D01*
X149510000Y-102447500D02*
X150220000Y-101737500D01*
D57*
X138970000Y-90810000D02*
X138320000Y-90810000D01*
X138320000Y-90810000D02*
X138320000Y-88210000D01*
X138970000Y-88210000D02*
X138970000Y-90810000D01*
X138320000Y-88210000D02*
X138970000Y-88210000D01*
D58*
X147300000Y-100162500D02*
X147300000Y-100030000D01*
X147300000Y-100030000D02*
X148330000Y-99000000D01*
D56*
X117094999Y-94590000D02*
X116250000Y-94590000D01*
X117344999Y-94340000D02*
X117094999Y-94590000D01*
X117930000Y-94340000D02*
X117344999Y-94340000D01*
X118230000Y-95090000D02*
X116250000Y-95090000D01*
X118940000Y-94380000D02*
X118230000Y-95090000D01*
X119495000Y-94985000D02*
X119495000Y-95890305D01*
X119910000Y-94570000D02*
X119495000Y-94985000D01*
X119015305Y-96370000D02*
X118300000Y-96370000D01*
X118300000Y-96370000D02*
X118020000Y-96090000D01*
X119495000Y-95890305D02*
X119015305Y-96370000D01*
X119910000Y-93820000D02*
X119910000Y-94570000D01*
X118020000Y-96090000D02*
X116250000Y-96090000D01*
X118770000Y-95590000D02*
X116250000Y-95590000D01*
X122675000Y-91665000D02*
X122675000Y-92785000D01*
X122675000Y-92785000D02*
X122899500Y-93009500D01*
X122899500Y-93009500D02*
X122899500Y-93150000D01*
X122399500Y-93949500D02*
X122399500Y-94070000D01*
X122175000Y-93725000D02*
X122399500Y-93949500D01*
X122175000Y-91665000D02*
X122175000Y-93725000D01*
X121675000Y-94595000D02*
X121675000Y-91665000D01*
X121899500Y-94819500D02*
X121675000Y-94595000D01*
X121899500Y-95010000D02*
X121899500Y-94819500D01*
D58*
X137390000Y-87360000D02*
X140350000Y-87360000D01*
X142700000Y-85010000D02*
X142700000Y-84800000D01*
X136930000Y-87820000D02*
X137390000Y-87360000D01*
X140350000Y-87360000D02*
X142700000Y-85010000D01*
D56*
X115791396Y-93115000D02*
X114625000Y-91948604D01*
X117690000Y-93610000D02*
X117195000Y-93115000D01*
X109905000Y-89405481D02*
X109905000Y-93475000D01*
X119175000Y-92865000D02*
X118430000Y-93610000D01*
X117195000Y-93115000D02*
X115791396Y-93115000D01*
X114625000Y-89405481D02*
X113614519Y-88395000D01*
X119175000Y-91665000D02*
X119175000Y-92865000D01*
X113614519Y-88395000D02*
X110915481Y-88395000D01*
X109905000Y-93475000D02*
X111630000Y-95200000D01*
X114625000Y-91948604D02*
X114625000Y-89405481D01*
X118430000Y-93610000D02*
X117690000Y-93610000D01*
X110915481Y-88395000D02*
X109905000Y-89405481D01*
X110355000Y-92655000D02*
X111630000Y-93930000D01*
X111101877Y-88845000D02*
X110355000Y-89591877D01*
X115630000Y-93590000D02*
X114175000Y-92135000D01*
X114175000Y-92135000D02*
X114175000Y-89591877D01*
X116250000Y-93590000D02*
X115630000Y-93590000D01*
X113428123Y-88845000D02*
X111101877Y-88845000D01*
X110355000Y-89591877D02*
X110355000Y-92655000D01*
X114175000Y-89591877D02*
X113428123Y-88845000D01*
X113725000Y-92321396D02*
X113725000Y-89778273D01*
X114289312Y-94387920D02*
X114289312Y-93787310D01*
X113725000Y-89778273D02*
X113241727Y-89295000D01*
X111288273Y-89295000D02*
X110805000Y-89778273D01*
X116250000Y-96590000D02*
X115409316Y-96590000D01*
X114290000Y-93786622D02*
X114290000Y-92886396D01*
X110805000Y-91835000D02*
X111630000Y-92660000D01*
X114290000Y-92886396D02*
X113725000Y-92321396D01*
X110805000Y-89778273D02*
X110805000Y-91835000D01*
X113241727Y-89295000D02*
X111288273Y-89295000D01*
X115409316Y-96590000D02*
X115140000Y-96320684D01*
X114289312Y-93787310D02*
X114290000Y-93786622D01*
X115140000Y-96320684D02*
X115140000Y-95238608D01*
X115140000Y-95238608D02*
X114289312Y-94387920D01*
X125675000Y-103635000D02*
X127675000Y-105635000D01*
X127675000Y-105635000D02*
X130580305Y-105635000D01*
X126180000Y-107760000D02*
X126180000Y-107510000D01*
X126905000Y-108485000D02*
X126180000Y-107760000D01*
X131905000Y-108060305D02*
X131480305Y-108485000D01*
X125675000Y-103015000D02*
X125675000Y-103635000D01*
X130580305Y-105635000D02*
X131905000Y-106959695D01*
X131480305Y-108485000D02*
X126905000Y-108485000D01*
X131905000Y-106959695D02*
X131905000Y-108060305D01*
D59*
X126200000Y-100080000D02*
X126280000Y-100160000D01*
X126280000Y-100160000D02*
X126280000Y-100590000D01*
X126280000Y-100590000D02*
X126780000Y-101090000D01*
X126780000Y-101090000D02*
X127600000Y-101090000D01*
D56*
X128680000Y-107270000D02*
X128680000Y-107510000D01*
X127945000Y-106535000D02*
X128680000Y-107270000D01*
X124675000Y-103015000D02*
X124675000Y-103987391D01*
X127222609Y-106535000D02*
X127945000Y-106535000D01*
X125247919Y-104565000D02*
X125252609Y-104565000D01*
X124725000Y-104042081D02*
X125247919Y-104565000D01*
X124675000Y-103987391D02*
X124725000Y-104037391D01*
X124725000Y-104037391D02*
X124725000Y-104042081D01*
X125252609Y-104565000D02*
X127222609Y-106535000D01*
X125439005Y-104115000D02*
X127409005Y-106085000D01*
X129930000Y-107240000D02*
X129930000Y-107510000D01*
X128775000Y-106085000D02*
X129930000Y-107240000D01*
X125175000Y-103015000D02*
X125175000Y-103855685D01*
X127409005Y-106085000D02*
X128775000Y-106085000D01*
X125434315Y-104115000D02*
X125439005Y-104115000D01*
X125175000Y-103855685D02*
X125434315Y-104115000D01*
X118746396Y-97370000D02*
X118026396Y-98090000D01*
X120420000Y-97990000D02*
X119800000Y-97370000D01*
X119800000Y-97370000D02*
X118746396Y-97370000D01*
X118026396Y-98090000D02*
X116250000Y-98090000D01*
X118704500Y-98590000D02*
X116250000Y-98590000D01*
X119200000Y-98094500D02*
X118704500Y-98590000D01*
D63*
X141145000Y-104260000D02*
X142745000Y-104260000D01*
X141635000Y-103150000D02*
X142745000Y-104260000D01*
D60*
X146660000Y-104260000D02*
X147139376Y-103780624D01*
D63*
X141310000Y-104095000D02*
X141145000Y-104260000D01*
X141310000Y-103150000D02*
X141635000Y-103150000D01*
X142580000Y-103150000D02*
X141310000Y-103150000D01*
X141310000Y-103150000D02*
X141310000Y-103625000D01*
D60*
X142745000Y-104260000D02*
X146660000Y-104260000D01*
D63*
X141310000Y-103625000D02*
X141945000Y-104260000D01*
X142580000Y-104095000D02*
X142745000Y-104260000D01*
X142580000Y-103150000D02*
X142580000Y-104095000D01*
X141310000Y-103150000D02*
X141310000Y-104095000D01*
D56*
X130025000Y-91315000D02*
X130025000Y-90029695D01*
X130282502Y-92285604D02*
X130282502Y-91572502D01*
X130282502Y-91572502D02*
X130025000Y-91315000D01*
X128700000Y-94467081D02*
X129190000Y-93977081D01*
X128700000Y-94830685D02*
X128700000Y-94467081D01*
X127600000Y-95090000D02*
X128440685Y-95090000D01*
X129190000Y-93378106D02*
X130282502Y-92285604D01*
X129190000Y-93977081D02*
X129190000Y-93378106D01*
X130925000Y-89129695D02*
X130925000Y-84810000D01*
X130025000Y-90029695D02*
X130925000Y-89129695D01*
X128440685Y-95090000D02*
X128700000Y-94830685D01*
X126313000Y-94143686D02*
X126313000Y-91602995D01*
X127170995Y-90745000D02*
X128036903Y-90745000D01*
X129675000Y-86105000D02*
X129675000Y-84800000D01*
X128036903Y-90745000D02*
X129462500Y-89319403D01*
X127600000Y-94590000D02*
X126759314Y-94590000D01*
X126313000Y-91602995D02*
X127170995Y-90745000D01*
X126759314Y-94590000D02*
X126313000Y-94143686D01*
X129462500Y-89319403D02*
X129462500Y-86317500D01*
X129675000Y-84800000D02*
X129675000Y-84810000D01*
X129462500Y-86317500D02*
X129675000Y-86105000D01*
X120632300Y-99827700D02*
X121670000Y-98790000D01*
X121175000Y-95360611D02*
X121175000Y-91665000D01*
X121670000Y-98790000D02*
X121670000Y-95855611D01*
X121670000Y-95855611D02*
X121175000Y-95360611D01*
X119240000Y-99110000D02*
X120340000Y-99110000D01*
X121220000Y-98230000D02*
X121220000Y-96042007D01*
X121220000Y-96042007D02*
X120675000Y-95497007D01*
X120340000Y-99110000D02*
X121220000Y-98230000D01*
X120675000Y-95497007D02*
X120675000Y-91665000D01*
X122675000Y-101975688D02*
X122675000Y-103015000D01*
X123460688Y-101190000D02*
X122675000Y-101975688D01*
X114880000Y-98850000D02*
X115120000Y-99090000D01*
X115120000Y-99090000D02*
X116250000Y-99090000D01*
X115000538Y-100090000D02*
X114020538Y-101070000D01*
X114020538Y-101070000D02*
X113890000Y-101070000D01*
X116250000Y-100090000D02*
X115000538Y-100090000D01*
X114590000Y-99590000D02*
X116250000Y-99590000D01*
X113950000Y-100230000D02*
X114590000Y-99590000D01*
X113890000Y-100230000D02*
X113950000Y-100230000D01*
X123434315Y-90565000D02*
X123494082Y-90565000D01*
X124394082Y-89665000D02*
X125085000Y-89665000D01*
X125085000Y-89665000D02*
X125400000Y-89350000D01*
X125400000Y-89350000D02*
X125400000Y-88790000D01*
X123175000Y-91665000D02*
X123175000Y-90824315D01*
X123494082Y-90565000D02*
X124394082Y-89665000D01*
X123175000Y-90824315D02*
X123434315Y-90565000D01*
X122940000Y-94613501D02*
X123675000Y-93878501D01*
X123675000Y-93878501D02*
X123675000Y-91665000D01*
X122940000Y-96740000D02*
X122940000Y-94613501D01*
X126691624Y-96590000D02*
X127600000Y-96590000D01*
X125929622Y-97352002D02*
X126691624Y-96590000D01*
X115423000Y-87507000D02*
X122147238Y-87507000D01*
X126910000Y-87770000D02*
X127505000Y-88365000D01*
X123791802Y-87731802D02*
X124348604Y-87175000D01*
X124745000Y-90115000D02*
X124175000Y-90685000D01*
X114560000Y-88370000D02*
X115423000Y-87507000D01*
X126860000Y-87770000D02*
X126910000Y-87770000D01*
X127505000Y-89115538D02*
X126505538Y-90115000D01*
X126505538Y-90115000D02*
X124745000Y-90115000D01*
X126800000Y-87770000D02*
X126860000Y-87770000D01*
X122372040Y-87731802D02*
X123791802Y-87731802D01*
X124348604Y-87175000D02*
X126205000Y-87175000D01*
X124175000Y-90685000D02*
X124175000Y-91665000D01*
X126205000Y-87175000D02*
X126800000Y-87770000D01*
X122147238Y-87507000D02*
X122372040Y-87731802D01*
X127505000Y-88365000D02*
X127505000Y-89115538D01*
D63*
X155455000Y-94583500D02*
X155455000Y-95807000D01*
X157455000Y-94583500D02*
X157455000Y-95807000D01*
X156455000Y-94583500D02*
X156455000Y-95807000D01*
D59*
X125480000Y-98530000D02*
X125940000Y-98070000D01*
X125480000Y-100383298D02*
X125480000Y-98530000D01*
X126925000Y-103152588D02*
X126925000Y-101828298D01*
X126925000Y-101828298D02*
X125480000Y-100383298D01*
X125940000Y-98070000D02*
X127580000Y-98070000D01*
X127947412Y-104175000D02*
X126925000Y-103152588D01*
X127580000Y-98070000D02*
X127600000Y-98090000D01*
X131960000Y-104175000D02*
X127947412Y-104175000D01*
D56*
X128388093Y-103475000D02*
X127658635Y-102745542D01*
X125717002Y-95590000D02*
X127600000Y-95590000D01*
X127658635Y-102745542D02*
X127658635Y-101871365D01*
X130445000Y-103410000D02*
X129637609Y-103410000D01*
X129637609Y-103410000D02*
X129572609Y-103475000D01*
X124404500Y-96902502D02*
X125717002Y-95590000D01*
X129572609Y-103475000D02*
X128388093Y-103475000D01*
D59*
X126125000Y-102159670D02*
X126125000Y-103483960D01*
X132330838Y-105470000D02*
X133565838Y-104235000D01*
X134790000Y-102462670D02*
X134237330Y-101910000D01*
X134315838Y-104235000D02*
X134790000Y-103760838D01*
X134790000Y-103760838D02*
X134790000Y-102462670D01*
X133565838Y-104235000D02*
X134315838Y-104235000D01*
X127851040Y-105210000D02*
X130756345Y-105210000D01*
X122175000Y-101475000D02*
X123170000Y-100480000D01*
X124445330Y-100480000D02*
X126125000Y-102159670D01*
X123170000Y-100480000D02*
X124445330Y-100480000D01*
X134237330Y-101910000D02*
X133475000Y-101910000D01*
X131016345Y-105470000D02*
X132330838Y-105470000D01*
X126125000Y-103483960D02*
X127851040Y-105210000D01*
X130756345Y-105210000D02*
X131016345Y-105470000D01*
X122175000Y-103015000D02*
X122175000Y-101475000D01*
X128016726Y-104810000D02*
X130922031Y-104810000D01*
X124611016Y-100080000D02*
X126525000Y-101993984D01*
X121675000Y-103015000D02*
X121675000Y-101409314D01*
X126525000Y-101993984D02*
X126525000Y-103318274D01*
X123004314Y-100080000D02*
X124611016Y-100080000D01*
X134150152Y-103835000D02*
X134362500Y-103622652D01*
X131182031Y-105070000D02*
X132165152Y-105070000D01*
X134140838Y-102410000D02*
X133475000Y-102410000D01*
X134362500Y-102631662D02*
X134140838Y-102410000D01*
X132165152Y-105070000D02*
X133400152Y-103835000D01*
X130922031Y-104810000D02*
X131182031Y-105070000D01*
X126525000Y-103318274D02*
X128016726Y-104810000D01*
X121675000Y-101409314D02*
X123004314Y-100080000D01*
X133400152Y-103835000D02*
X134150152Y-103835000D01*
X134362500Y-103622652D02*
X134362500Y-102631662D01*
D56*
X129150000Y-94653477D02*
X129150000Y-95017081D01*
X129640000Y-94163477D02*
X129150000Y-94653477D01*
X133825000Y-92235000D02*
X132581827Y-92235000D01*
X133312500Y-95570000D02*
X133748008Y-95570000D01*
X133748008Y-95570000D02*
X134295000Y-95023008D01*
X129150000Y-95017081D02*
X128700000Y-95467081D01*
X129640000Y-93564502D02*
X129640000Y-94163477D01*
X132381827Y-92035000D02*
X131169502Y-92035000D01*
X134210000Y-92620000D02*
X133825000Y-92235000D01*
X134295000Y-95023008D02*
X134295000Y-92620000D01*
X128440685Y-97090000D02*
X127600000Y-97090000D01*
X132581827Y-92235000D02*
X132381827Y-92035000D01*
X134295000Y-92620000D02*
X134210000Y-92620000D01*
X128700000Y-96830685D02*
X128440685Y-97090000D01*
X131169502Y-92035000D02*
X129640000Y-93564502D01*
X128700000Y-95467081D02*
X128700000Y-96830685D01*
X129608176Y-98074500D02*
X128592676Y-99090000D01*
D58*
X130750000Y-97930000D02*
X129752676Y-97930000D01*
D56*
X131960000Y-99140000D02*
X131960000Y-99645000D01*
X130750000Y-97930000D02*
X131960000Y-99140000D01*
X128592676Y-99090000D02*
X127600000Y-99090000D01*
D58*
X129752676Y-97930000D02*
X129608176Y-98074500D01*
D56*
X131887999Y-102524191D02*
X131887999Y-101680000D01*
X134485000Y-100288954D02*
X134881107Y-100685061D01*
X134110508Y-100910000D02*
X134335447Y-100685061D01*
D58*
X135116168Y-100450000D02*
X134881107Y-100685061D01*
D56*
X134485000Y-97275000D02*
X134485000Y-100288954D01*
X132773808Y-103410000D02*
X131887999Y-102524191D01*
X133542500Y-96332500D02*
X134485000Y-97275000D01*
X117200000Y-97090000D02*
X116250000Y-97090000D01*
X133475000Y-100910000D02*
X134110508Y-100910000D01*
X117620000Y-96814500D02*
X117475500Y-96814500D01*
X132800000Y-96332500D02*
X133542500Y-96332500D01*
X117475500Y-96814500D02*
X117200000Y-97090000D01*
X134335447Y-100685061D02*
X134881107Y-100685061D01*
D58*
X136380000Y-100450000D02*
X135116168Y-100450000D01*
D56*
X133475000Y-103410000D02*
X132773808Y-103410000D01*
X120366697Y-96213303D02*
X119660000Y-96920000D01*
X133670000Y-100410000D02*
X133670000Y-97920000D01*
X129456638Y-96695000D02*
X129436638Y-96675000D01*
X118560000Y-96920000D02*
X117890000Y-97590000D01*
X133670000Y-97920000D02*
X132800000Y-97050000D01*
X132300000Y-96332500D02*
X132300000Y-97050000D01*
X119660000Y-96920000D02*
X118560000Y-96920000D01*
X131581992Y-97050000D02*
X131226992Y-96695000D01*
X133475000Y-100410000D02*
X133670000Y-100410000D01*
X132800000Y-97050000D02*
X132300000Y-97050000D01*
X131226992Y-96695000D02*
X129456638Y-96695000D01*
X132300000Y-97050000D02*
X131581992Y-97050000D01*
X117890000Y-97590000D02*
X116250000Y-97590000D01*
D59*
X128931688Y-97590000D02*
X129146688Y-97375000D01*
X130140000Y-97120000D02*
X131050952Y-97120000D01*
X132180000Y-98758959D02*
X132587999Y-99166958D01*
X131050952Y-97120000D02*
X131405952Y-97475000D01*
X132587999Y-99166958D02*
X132587999Y-102623151D01*
X131405952Y-97475000D02*
X131735000Y-97475000D01*
X132180000Y-97920000D02*
X132180000Y-98758959D01*
X127600000Y-97590000D02*
X128931688Y-97590000D01*
X132587999Y-102623151D02*
X132874848Y-102910000D01*
X132874848Y-102910000D02*
X133475000Y-102910000D01*
X129885000Y-97375000D02*
X130140000Y-97120000D01*
X129146688Y-97375000D02*
X129885000Y-97375000D01*
X131735000Y-97475000D02*
X132180000Y-97920000D01*
X131460000Y-100240000D02*
X131070000Y-99850000D01*
X131110000Y-101410000D02*
X131460000Y-101060000D01*
X131070000Y-99850000D02*
X130580000Y-99850000D01*
X129120050Y-99190000D02*
X128720050Y-99590000D01*
X130445000Y-101410000D02*
X131110000Y-101410000D01*
X130580000Y-99850000D02*
X129920000Y-99190000D01*
X131460000Y-101060000D02*
X131460000Y-100240000D01*
X129920000Y-99190000D02*
X129120050Y-99190000D01*
X128720050Y-99590000D02*
X127600000Y-99590000D01*
D56*
X125675000Y-94540000D02*
X125675000Y-91665000D01*
X125175000Y-93045000D02*
X125175000Y-91665000D01*
X123680000Y-97841000D02*
X123680000Y-94540000D01*
X123680000Y-94540000D02*
X125175000Y-93045000D01*
X123421396Y-101915000D02*
X123175000Y-102161396D01*
X124025000Y-101915000D02*
X123421396Y-101915000D01*
X124420000Y-101520000D02*
X124025000Y-101915000D01*
X123175000Y-102161396D02*
X123175000Y-103015000D01*
X120175000Y-91665000D02*
X120175000Y-89257000D01*
X120175000Y-89257000D02*
X120250000Y-89182000D01*
X119675000Y-91665000D02*
X119675000Y-89257000D01*
X119675000Y-89257000D02*
X119600000Y-89182000D01*
X140080000Y-101880000D02*
X140085000Y-101885000D01*
D63*
X141310000Y-101445000D02*
X141945000Y-100810000D01*
D57*
X133870000Y-90810000D02*
X133870000Y-88210000D01*
X134520000Y-88210000D02*
X134520000Y-90810000D01*
D63*
X141145000Y-100810000D02*
X142745000Y-100810000D01*
X141310000Y-101880000D02*
X141310000Y-101445000D01*
X142580000Y-101880000D02*
X142580000Y-101445000D01*
D57*
X134520000Y-90810000D02*
X133870000Y-90810000D01*
D63*
X141310000Y-100975000D02*
X141145000Y-100810000D01*
X142580000Y-101445000D02*
X141945000Y-100810000D01*
D57*
X133870000Y-88210000D02*
X134520000Y-88210000D01*
D63*
X142580000Y-101880000D02*
X141310000Y-101880000D01*
X142580000Y-101880000D02*
X142580000Y-100975000D01*
X142580000Y-100975000D02*
X142745000Y-100810000D01*
X141310000Y-101880000D02*
X141310000Y-100975000D01*
D57*
X132440000Y-86680000D02*
X132140000Y-86980000D01*
X144842500Y-93875000D02*
X144842500Y-94525000D01*
X145492500Y-93875000D02*
X144842500Y-93875000D01*
X132140000Y-86980000D02*
X132140000Y-86180000D01*
X132940000Y-85880000D02*
X132940000Y-86680000D01*
X144842500Y-94525000D02*
X145492500Y-94525000D01*
X145492500Y-94525000D02*
X145492500Y-93875000D01*
X132940000Y-86680000D02*
X132440000Y-86680000D01*
X132640000Y-86180000D02*
X132940000Y-85880000D01*
X132140000Y-86180000D02*
X132640000Y-86180000D01*
D59*
X124720000Y-98010000D02*
X125170000Y-97560000D01*
X125170000Y-97560000D02*
X125170000Y-96980000D01*
X125170000Y-96980000D02*
X126060000Y-96090000D01*
X126060000Y-96090000D02*
X127600000Y-96090000D01*
D56*
X115026697Y-94090000D02*
X116250000Y-94090000D01*
X115024312Y-94087615D02*
X115026697Y-94090000D01*
X128770000Y-88800000D02*
X128810000Y-88800000D01*
X126984599Y-90295000D02*
X127275000Y-90295000D01*
X124935000Y-90565000D02*
X126714599Y-90565000D01*
X127275000Y-90295000D02*
X128770000Y-88800000D01*
X124675000Y-90825000D02*
X124935000Y-90565000D01*
X126714599Y-90565000D02*
X126984599Y-90295000D01*
X124675000Y-91665000D02*
X124675000Y-90825000D01*
X126264439Y-98789140D02*
X126430860Y-98789140D01*
X126430860Y-98789140D02*
X126630000Y-98590000D01*
X126630000Y-98590000D02*
X127600000Y-98590000D01*
X122556634Y-87280000D02*
X123560000Y-87280000D01*
X127755000Y-86725000D02*
X128810000Y-87780000D01*
X123560000Y-87280000D02*
X124115000Y-86725000D01*
X124115000Y-86725000D02*
X127755000Y-86725000D01*
X118777000Y-87057000D02*
X122333634Y-87057000D01*
X117430000Y-85710000D02*
X118777000Y-87057000D01*
X122333634Y-87057000D02*
X122556634Y-87280000D01*
X115349500Y-90519500D02*
X115150000Y-90320000D01*
X115349500Y-90610000D02*
X115349500Y-90519500D01*
X115265000Y-88645538D02*
X115265000Y-88635000D01*
X115150000Y-90320000D02*
X115150000Y-88760538D01*
X122243842Y-88240000D02*
X123920000Y-88240000D01*
X115943000Y-87957000D02*
X121960842Y-87957000D01*
X121960842Y-87957000D02*
X122243842Y-88240000D01*
X115265000Y-88635000D02*
X115943000Y-87957000D01*
X124390000Y-87770000D02*
X125400000Y-87770000D01*
X123920000Y-88240000D02*
X124390000Y-87770000D01*
X115150000Y-88760538D02*
X115265000Y-88645538D01*
X113890000Y-99210000D02*
X113859696Y-99210000D01*
X109280000Y-98460000D02*
X108255000Y-97435000D01*
X113109696Y-98460000D02*
X109280000Y-98460000D01*
X113859696Y-99210000D02*
X113109696Y-98460000D01*
X113890000Y-102090000D02*
X113890000Y-102040538D01*
X113245000Y-101395538D02*
X113245000Y-99231700D01*
X113245000Y-99231700D02*
X112923300Y-98910000D01*
X113890000Y-102040538D02*
X113245000Y-101395538D01*
X112923300Y-98910000D02*
X109320000Y-98910000D01*
X109320000Y-98910000D02*
X108255000Y-99975000D01*
G04 #@! TA.AperFunction,Conductor*
G36*
X118267539Y-90909685D02*
G01*
X118313294Y-90962489D01*
X118324500Y-91014000D01*
X118324500Y-92392129D01*
X118340485Y-92472495D01*
X118401375Y-92563624D01*
X118444891Y-92592700D01*
X118489696Y-92646312D01*
X118500000Y-92695802D01*
X118500000Y-93028311D01*
X118480315Y-93095350D01*
X118463681Y-93115992D01*
X118331491Y-93248182D01*
X118270171Y-93281666D01*
X118243812Y-93284500D01*
X117876188Y-93284500D01*
X117809149Y-93264815D01*
X117788507Y-93248181D01*
X117615354Y-93075028D01*
X117437119Y-92896793D01*
X117433474Y-92892814D01*
X117407456Y-92861807D01*
X117407455Y-92861806D01*
X117396058Y-92855226D01*
X117372392Y-92841561D01*
X117367831Y-92838655D01*
X117354687Y-92829452D01*
X117334684Y-92815446D01*
X117334681Y-92815445D01*
X117329861Y-92813197D01*
X117313055Y-92806235D01*
X117308043Y-92804411D01*
X117268190Y-92797383D01*
X117262910Y-92796212D01*
X117223808Y-92785735D01*
X117188892Y-92788790D01*
X117183481Y-92789264D01*
X117178078Y-92789500D01*
X117054000Y-92789500D01*
X116986961Y-92769815D01*
X116941206Y-92717011D01*
X116930000Y-92665500D01*
X116930000Y-92392129D01*
X116930000Y-91324433D01*
X116949684Y-91257398D01*
X117002487Y-91211643D01*
X117071646Y-91201699D01*
X117106403Y-91212055D01*
X117110513Y-91213972D01*
X117160099Y-91220500D01*
X117519900Y-91220499D01*
X117569487Y-91213972D01*
X117678316Y-91163224D01*
X117763224Y-91078316D01*
X117813972Y-90969487D01*
X117813972Y-90969486D01*
X117817652Y-90961595D01*
X117863824Y-90909156D01*
X117930034Y-90890000D01*
X118200500Y-90890000D01*
X118267539Y-90909685D01*
G37*
G04 #@! TD.AperFunction*
G04 #@! TA.AperFunction,Conductor*
G36*
X126523039Y-83979685D02*
G01*
X126568794Y-84032489D01*
X126580000Y-84084000D01*
X126580000Y-84464794D01*
X126579469Y-84472895D01*
X126574499Y-84510638D01*
X126574500Y-85089354D01*
X126574500Y-85089368D01*
X126579469Y-85127103D01*
X126580000Y-85135205D01*
X126580000Y-86275500D01*
X126560315Y-86342539D01*
X126507511Y-86388294D01*
X126456000Y-86399500D01*
X124131923Y-86399500D01*
X124126519Y-86399264D01*
X124120618Y-86398747D01*
X124086192Y-86395735D01*
X124047090Y-86406213D01*
X124041809Y-86407384D01*
X124001955Y-86414412D01*
X123996962Y-86416229D01*
X123980117Y-86423206D01*
X123975313Y-86425446D01*
X123942166Y-86448656D01*
X123937606Y-86451562D01*
X123902548Y-86471804D01*
X123902545Y-86471806D01*
X123902543Y-86471808D01*
X123902541Y-86471810D01*
X123876524Y-86502815D01*
X123872868Y-86506804D01*
X123651938Y-86727736D01*
X123461493Y-86918181D01*
X123400170Y-86951666D01*
X123373812Y-86954500D01*
X122742822Y-86954500D01*
X122675783Y-86934815D01*
X122655141Y-86918181D01*
X122624434Y-86887474D01*
X122575753Y-86838793D01*
X122572108Y-86834814D01*
X122546090Y-86803807D01*
X122546089Y-86803806D01*
X122531585Y-86795432D01*
X122511026Y-86783561D01*
X122506465Y-86780655D01*
X122493321Y-86771452D01*
X122473318Y-86757446D01*
X122473315Y-86757445D01*
X122468495Y-86755197D01*
X122451689Y-86748235D01*
X122446677Y-86746411D01*
X122406824Y-86739383D01*
X122401544Y-86738212D01*
X122362442Y-86727735D01*
X122327526Y-86730790D01*
X122322115Y-86731264D01*
X122316712Y-86731500D01*
X118963188Y-86731500D01*
X118896149Y-86711815D01*
X118875507Y-86695181D01*
X118062011Y-85881685D01*
X118028526Y-85820362D01*
X118026753Y-85777818D01*
X118034365Y-85720001D01*
X118994318Y-85720001D01*
X119014955Y-85876760D01*
X119014956Y-85876762D01*
X119075464Y-86022841D01*
X119171718Y-86148282D01*
X119297159Y-86244536D01*
X119443238Y-86305044D01*
X119521619Y-86315363D01*
X119599999Y-86325682D01*
X119600000Y-86325682D01*
X119600001Y-86325682D01*
X119662012Y-86317518D01*
X119756762Y-86305044D01*
X119902841Y-86244536D01*
X120028282Y-86148282D01*
X120124536Y-86022841D01*
X120185044Y-85876762D01*
X120205682Y-85720000D01*
X120204365Y-85710000D01*
X120185044Y-85563239D01*
X120185044Y-85563238D01*
X120124536Y-85417159D01*
X120028282Y-85291718D01*
X119902841Y-85195464D01*
X119878696Y-85185463D01*
X119756762Y-85134956D01*
X119756760Y-85134955D01*
X119600001Y-85114318D01*
X119599999Y-85114318D01*
X119443239Y-85134955D01*
X119443237Y-85134956D01*
X119297160Y-85195463D01*
X119171718Y-85291718D01*
X119075463Y-85417160D01*
X119014956Y-85563237D01*
X119014955Y-85563239D01*
X118994318Y-85719998D01*
X118994318Y-85720001D01*
X118034365Y-85720001D01*
X118035682Y-85710000D01*
X118035682Y-85709998D01*
X118016361Y-85563239D01*
X118015044Y-85553238D01*
X117954536Y-85407159D01*
X117858282Y-85281718D01*
X117732841Y-85185464D01*
X117586762Y-85124956D01*
X117586760Y-85124955D01*
X117430001Y-85104318D01*
X117429999Y-85104318D01*
X117273239Y-85124955D01*
X117273237Y-85124956D01*
X117127160Y-85185463D01*
X117001718Y-85281718D01*
X116905463Y-85407160D01*
X116844956Y-85553237D01*
X116844955Y-85553239D01*
X116824318Y-85709998D01*
X116824318Y-85710001D01*
X116844955Y-85866760D01*
X116844956Y-85866762D01*
X116905464Y-86012841D01*
X117001718Y-86138282D01*
X117127159Y-86234536D01*
X117273238Y-86295044D01*
X117301548Y-86298771D01*
X117429999Y-86315682D01*
X117430000Y-86315682D01*
X117430001Y-86315682D01*
X117465708Y-86310980D01*
X117497818Y-86306753D01*
X117566853Y-86317518D01*
X117601685Y-86342011D01*
X118229493Y-86969819D01*
X118262978Y-87031142D01*
X118257994Y-87100834D01*
X118216122Y-87156767D01*
X118150658Y-87181184D01*
X118141812Y-87181500D01*
X115509499Y-87181500D01*
X115442460Y-87161815D01*
X115396705Y-87109011D01*
X115385499Y-87057500D01*
X115385499Y-87018736D01*
X115385499Y-86795416D01*
X115385682Y-86792655D01*
X115385682Y-86787328D01*
X115385500Y-86784550D01*
X115385500Y-86514008D01*
X115385499Y-86513992D01*
X115384297Y-86502815D01*
X115380803Y-86470316D01*
X115371042Y-86425446D01*
X115369598Y-86418807D01*
X115367110Y-86408629D01*
X115367110Y-86408627D01*
X115324100Y-86327915D01*
X115278345Y-86275111D01*
X115260756Y-86257159D01*
X115260750Y-86257154D01*
X115180940Y-86212511D01*
X115180935Y-86212509D01*
X115113903Y-86192826D01*
X115113899Y-86192825D01*
X115113898Y-86192825D01*
X115056000Y-86184500D01*
X115055996Y-86184500D01*
X114785451Y-86184500D01*
X114782674Y-86184318D01*
X114777326Y-86184318D01*
X114774549Y-86184500D01*
X114441877Y-86184500D01*
X114374838Y-86164815D01*
X114329083Y-86112011D01*
X114318122Y-86052714D01*
X114330246Y-85860005D01*
X114330246Y-85859994D01*
X114311281Y-85558553D01*
X114311280Y-85558546D01*
X114311280Y-85558543D01*
X114254681Y-85261840D01*
X114161341Y-84974570D01*
X114032733Y-84701264D01*
X113984781Y-84625704D01*
X113870888Y-84446236D01*
X113870885Y-84446232D01*
X113678349Y-84213496D01*
X113678346Y-84213493D01*
X113636707Y-84174391D01*
X113601313Y-84114150D01*
X113604107Y-84044336D01*
X113644201Y-83987115D01*
X113708866Y-83960655D01*
X113721592Y-83960000D01*
X126456000Y-83960000D01*
X126523039Y-83979685D01*
G37*
G04 #@! TD.AperFunction*
G04 #@! TA.AperFunction,Conductor*
G36*
X123483039Y-104209685D02*
G01*
X123528794Y-104262489D01*
X123540000Y-104314000D01*
X123540000Y-106098311D01*
X123520315Y-106165350D01*
X123503681Y-106185992D01*
X123021803Y-106667870D01*
X123017814Y-106671525D01*
X122986805Y-106697545D01*
X122966562Y-106732606D01*
X122963656Y-106737166D01*
X122940446Y-106770313D01*
X122938206Y-106775117D01*
X122931229Y-106791961D01*
X122929410Y-106796959D01*
X122923158Y-106832413D01*
X122892129Y-106895014D01*
X122888724Y-106898557D01*
X122534100Y-107253181D01*
X122472777Y-107286666D01*
X122446420Y-107289500D01*
X122260105Y-107289500D01*
X122244386Y-107291569D01*
X122210513Y-107296028D01*
X122210511Y-107296029D01*
X122210509Y-107296029D01*
X122101683Y-107346776D01*
X122016776Y-107431683D01*
X121966027Y-107540514D01*
X121959500Y-107590097D01*
X121959500Y-107949894D01*
X121959501Y-107949900D01*
X121966028Y-107999487D01*
X121966029Y-107999489D01*
X121966029Y-107999490D01*
X122016776Y-108108316D01*
X122056778Y-108148318D01*
X122090263Y-108209641D01*
X122085279Y-108279333D01*
X122043407Y-108335266D01*
X121977943Y-108359683D01*
X121969097Y-108359999D01*
X120434000Y-108359999D01*
X120366961Y-108340314D01*
X120321206Y-108287510D01*
X120310000Y-108235999D01*
X120310000Y-107204500D01*
X120329685Y-107137461D01*
X120382489Y-107091706D01*
X120434000Y-107080500D01*
X121729750Y-107080500D01*
X121729751Y-107080499D01*
X121744568Y-107077552D01*
X121788229Y-107068868D01*
X121788229Y-107068867D01*
X121788231Y-107068867D01*
X121854552Y-107024552D01*
X121898867Y-106958231D01*
X121898867Y-106958229D01*
X121898868Y-106958229D01*
X121910499Y-106899752D01*
X121910500Y-106899750D01*
X121910500Y-104789102D01*
X121913373Y-104768979D01*
X121912734Y-104768895D01*
X121920419Y-104710513D01*
X121920500Y-104709901D01*
X121920499Y-104313999D01*
X121940183Y-104246961D01*
X121992987Y-104201206D01*
X122044499Y-104190000D01*
X123416000Y-104190000D01*
X123483039Y-104209685D01*
G37*
G04 #@! TD.AperFunction*
G04 #@! TA.AperFunction,Conductor*
G36*
X130983039Y-100309685D02*
G01*
X131028794Y-100362489D01*
X131040000Y-100414000D01*
X131039999Y-100960500D01*
X131020314Y-101027540D01*
X130967510Y-101073294D01*
X130915999Y-101084500D01*
X129894102Y-101084500D01*
X129817381Y-101099760D01*
X129817379Y-101099761D01*
X129730388Y-101157888D01*
X129672260Y-101244883D01*
X129672258Y-101244887D01*
X129657000Y-101321595D01*
X129657000Y-101498398D01*
X129672260Y-101575118D01*
X129672261Y-101575120D01*
X129694056Y-101607737D01*
X129730388Y-101662112D01*
X129817383Y-101720240D01*
X129817386Y-101720240D01*
X129817387Y-101720241D01*
X129855740Y-101727869D01*
X129894099Y-101735500D01*
X130916000Y-101735499D01*
X130983039Y-101755183D01*
X131028794Y-101807987D01*
X131040000Y-101859499D01*
X131040000Y-101960500D01*
X131020315Y-102027539D01*
X130967511Y-102073294D01*
X130916000Y-102084500D01*
X129694522Y-102084500D01*
X129689120Y-102084264D01*
X129681735Y-102083618D01*
X129648801Y-102080736D01*
X129648800Y-102080736D01*
X129609708Y-102091211D01*
X129604428Y-102092382D01*
X129564563Y-102099412D01*
X129559571Y-102101229D01*
X129542726Y-102108206D01*
X129537922Y-102110446D01*
X129504772Y-102133658D01*
X129500211Y-102136564D01*
X129465153Y-102156806D01*
X129460169Y-102160989D01*
X129396161Y-102189002D01*
X129380463Y-102190000D01*
X129020917Y-102190000D01*
X128953878Y-102170315D01*
X128922541Y-102141486D01*
X128918764Y-102136564D01*
X128876680Y-102081718D01*
X128751239Y-101985464D01*
X128605160Y-101924956D01*
X128605158Y-101924955D01*
X128448399Y-101904318D01*
X128448397Y-101904318D01*
X128394656Y-101911393D01*
X128325621Y-101900627D01*
X128273365Y-101854247D01*
X128255532Y-101804639D01*
X128243679Y-101714604D01*
X128243679Y-101714603D01*
X128201158Y-101611950D01*
X128193690Y-101542483D01*
X128224965Y-101480003D01*
X128285054Y-101444351D01*
X128315720Y-101440499D01*
X128327130Y-101440499D01*
X128327132Y-101440499D01*
X128407495Y-101424515D01*
X128498624Y-101363624D01*
X128559515Y-101272495D01*
X128575500Y-101192133D01*
X128575499Y-100987868D01*
X128559515Y-100907505D01*
X128530914Y-100864701D01*
X128498624Y-100816375D01*
X128417866Y-100762415D01*
X128407495Y-100755485D01*
X128407493Y-100755484D01*
X128407490Y-100755483D01*
X128327137Y-100739500D01*
X126944000Y-100739500D01*
X126876961Y-100719815D01*
X126831206Y-100667011D01*
X126820000Y-100615500D01*
X126820000Y-100564499D01*
X126839685Y-100497460D01*
X126892489Y-100451705D01*
X126943995Y-100440499D01*
X127527069Y-100440499D01*
X127527079Y-100440500D01*
X127541512Y-100440500D01*
X128660884Y-100440500D01*
X128727923Y-100460185D01*
X128759257Y-100489010D01*
X128781718Y-100518282D01*
X128907159Y-100614536D01*
X129053238Y-100675044D01*
X129131618Y-100685363D01*
X129209999Y-100695682D01*
X129210000Y-100695682D01*
X129210001Y-100695682D01*
X129262253Y-100688802D01*
X129366762Y-100675044D01*
X129512841Y-100614536D01*
X129638282Y-100518282D01*
X129734536Y-100392841D01*
X129745426Y-100366548D01*
X129789267Y-100312144D01*
X129855561Y-100290079D01*
X129859988Y-100290000D01*
X130916000Y-100290000D01*
X130983039Y-100309685D01*
G37*
G04 #@! TD.AperFunction*
G04 #@! TA.AperFunction,Conductor*
G36*
X132262678Y-92380185D02*
G01*
X132283320Y-92396819D01*
X132339690Y-92453189D01*
X132343345Y-92457178D01*
X132369368Y-92488190D01*
X132369370Y-92488191D01*
X132369372Y-92488194D01*
X132369374Y-92488195D01*
X132369375Y-92488196D01*
X132404426Y-92508433D01*
X132408989Y-92511339D01*
X132442143Y-92534554D01*
X132442146Y-92534554D01*
X132447003Y-92536820D01*
X132463760Y-92543760D01*
X132468780Y-92545587D01*
X132468782Y-92545588D01*
X132504633Y-92551909D01*
X132508635Y-92552615D01*
X132513907Y-92553783D01*
X132553020Y-92564264D01*
X132593349Y-92560735D01*
X132598751Y-92560500D01*
X133472276Y-92560500D01*
X133539315Y-92580185D01*
X133585070Y-92632989D01*
X133595372Y-92669553D01*
X133609859Y-92788869D01*
X133609860Y-92788874D01*
X133670182Y-92947931D01*
X133732475Y-93038177D01*
X133766817Y-93087929D01*
X133868227Y-93177770D01*
X133905352Y-93236957D01*
X133909999Y-93270584D01*
X133909999Y-94644548D01*
X133890314Y-94711587D01*
X133837510Y-94757342D01*
X133768352Y-94767286D01*
X133743031Y-94760338D01*
X133663404Y-94744500D01*
X132961602Y-94744500D01*
X132884881Y-94759760D01*
X132884877Y-94759762D01*
X132839181Y-94790295D01*
X132772504Y-94811172D01*
X132709759Y-94795413D01*
X132650937Y-94762510D01*
X132650934Y-94762509D01*
X132650935Y-94762509D01*
X132583903Y-94742826D01*
X132583899Y-94742825D01*
X132583898Y-94742825D01*
X132526000Y-94734500D01*
X132525996Y-94734500D01*
X132299500Y-94734500D01*
X132232461Y-94714815D01*
X132186706Y-94662011D01*
X132175500Y-94610500D01*
X132175500Y-93804902D01*
X132195185Y-93737863D01*
X132211821Y-93717219D01*
X132225722Y-93703318D01*
X132225722Y-93703317D01*
X132225724Y-93703316D01*
X132276472Y-93594487D01*
X132283000Y-93544901D01*
X132282999Y-93125100D01*
X132276472Y-93075513D01*
X132225724Y-92966684D01*
X132140816Y-92881776D01*
X132031987Y-92831028D01*
X132031985Y-92831027D01*
X132031986Y-92831027D01*
X131982402Y-92824500D01*
X131982401Y-92824500D01*
X131924420Y-92824500D01*
X131906773Y-92823238D01*
X131862051Y-92816808D01*
X131846000Y-92814500D01*
X131577715Y-92814500D01*
X131577710Y-92814500D01*
X131546996Y-92816808D01*
X131546995Y-92816808D01*
X131510355Y-92822347D01*
X131510344Y-92822350D01*
X131427487Y-92854281D01*
X131427482Y-92854283D01*
X131427478Y-92854285D01*
X131427477Y-92854286D01*
X131369251Y-92892903D01*
X131325605Y-92931840D01*
X130969109Y-93355468D01*
X130969107Y-93355471D01*
X130940341Y-93400419D01*
X130940333Y-93400434D01*
X130923167Y-93436989D01*
X130913187Y-93458240D01*
X130913188Y-93458240D01*
X130905581Y-93476721D01*
X130894872Y-93567548D01*
X130897173Y-93588966D01*
X130896025Y-93595320D01*
X130905978Y-93670917D01*
X130906258Y-93673527D01*
X130906405Y-93674165D01*
X130916777Y-93752945D01*
X130916777Y-93785317D01*
X130907463Y-93856061D01*
X130899085Y-93887327D01*
X130871779Y-93953250D01*
X130855593Y-93981285D01*
X130812153Y-94037896D01*
X130789265Y-94060784D01*
X130732654Y-94104224D01*
X130704620Y-94120410D01*
X130638698Y-94147716D01*
X130607430Y-94156094D01*
X130585247Y-94159014D01*
X130577095Y-94160088D01*
X130571027Y-94161145D01*
X130562722Y-94162593D01*
X130562714Y-94162595D01*
X130499526Y-94184677D01*
X130499522Y-94184679D01*
X130438211Y-94218156D01*
X130391382Y-94253213D01*
X130391370Y-94253223D01*
X130091969Y-94552626D01*
X129867110Y-94777485D01*
X129859751Y-94785676D01*
X129859745Y-94785683D01*
X129859745Y-94785682D01*
X129839670Y-94810596D01*
X129802509Y-94881639D01*
X129782826Y-94948670D01*
X129782825Y-94948675D01*
X129782825Y-94948676D01*
X129775422Y-95000167D01*
X129774500Y-95006577D01*
X129774500Y-95258928D01*
X129775090Y-95269934D01*
X129775090Y-95269935D01*
X129778510Y-95301742D01*
X129778512Y-95301753D01*
X129802468Y-95378257D01*
X129802470Y-95378264D01*
X129816871Y-95404636D01*
X129835955Y-95439586D01*
X129835957Y-95439589D01*
X129835959Y-95439592D01*
X129870997Y-95486396D01*
X129871001Y-95486400D01*
X129871008Y-95486410D01*
X129871015Y-95486417D01*
X129907484Y-95522886D01*
X129907487Y-95522888D01*
X129915666Y-95530237D01*
X129915663Y-95530235D01*
X129941556Y-95551099D01*
X129942993Y-95552389D01*
X129944184Y-95553224D01*
X129960911Y-95561023D01*
X129963406Y-95562257D01*
X130011643Y-95587490D01*
X130018044Y-95589369D01*
X130018927Y-95589629D01*
X130036391Y-95596221D01*
X130053013Y-95603972D01*
X130093209Y-95609263D01*
X130136576Y-95615499D01*
X130136579Y-95615500D01*
X130588407Y-95615500D01*
X130655446Y-95635185D01*
X130701201Y-95687989D01*
X130710024Y-95715309D01*
X130714759Y-95739114D01*
X130714761Y-95739120D01*
X130746313Y-95786340D01*
X130772888Y-95826112D01*
X130859883Y-95884240D01*
X130859886Y-95884240D01*
X130859887Y-95884241D01*
X130898241Y-95891869D01*
X130936599Y-95899500D01*
X130973402Y-95899499D01*
X130991051Y-95900761D01*
X131023998Y-95905499D01*
X131023999Y-95905500D01*
X131024000Y-95905500D01*
X131850500Y-95905500D01*
X131917539Y-95925185D01*
X131963294Y-95977989D01*
X131974500Y-96029500D01*
X131974500Y-96596000D01*
X131954815Y-96663039D01*
X131902011Y-96708794D01*
X131850500Y-96720000D01*
X131763680Y-96720000D01*
X131696641Y-96700315D01*
X131675999Y-96683681D01*
X131588318Y-96596000D01*
X131469111Y-96476793D01*
X131465466Y-96472814D01*
X131439448Y-96441807D01*
X131439447Y-96441806D01*
X131428050Y-96435226D01*
X131404384Y-96421561D01*
X131399823Y-96418655D01*
X131386679Y-96409452D01*
X131366676Y-96395446D01*
X131366673Y-96395445D01*
X131361853Y-96393197D01*
X131345047Y-96386235D01*
X131340035Y-96384411D01*
X131300182Y-96377383D01*
X131294902Y-96376212D01*
X131255800Y-96365735D01*
X131220884Y-96368790D01*
X131215473Y-96369264D01*
X131210070Y-96369500D01*
X130020284Y-96369500D01*
X129953245Y-96349815D01*
X129921910Y-96320989D01*
X129864920Y-96246718D01*
X129739479Y-96150464D01*
X129593400Y-96089956D01*
X129577812Y-96087903D01*
X129513916Y-96059637D01*
X129475446Y-96001312D01*
X129470000Y-95964971D01*
X129470000Y-95096774D01*
X129474225Y-95064688D01*
X129479263Y-95045888D01*
X129475735Y-95005570D01*
X129475500Y-95000167D01*
X129475500Y-94839664D01*
X129495185Y-94772625D01*
X129511815Y-94751987D01*
X129858215Y-94405586D01*
X129862166Y-94401966D01*
X129893194Y-94375932D01*
X129913438Y-94340867D01*
X129916335Y-94336318D01*
X129939554Y-94303161D01*
X129939554Y-94303158D01*
X129941819Y-94298301D01*
X129948747Y-94281576D01*
X129950584Y-94276527D01*
X129950588Y-94276522D01*
X129957619Y-94236639D01*
X129958777Y-94231417D01*
X129969264Y-94192284D01*
X129965735Y-94151955D01*
X129965500Y-94146552D01*
X129965500Y-93750690D01*
X129985185Y-93683651D01*
X130001819Y-93663009D01*
X131268010Y-92396819D01*
X131329333Y-92363334D01*
X131355691Y-92360500D01*
X132195639Y-92360500D01*
X132262678Y-92380185D01*
G37*
G04 #@! TD.AperFunction*
G04 #@! TA.AperFunction,Conductor*
G36*
X151523039Y-98449685D02*
G01*
X151568794Y-98502489D01*
X151580000Y-98554000D01*
X151580000Y-104255907D01*
X151560315Y-104322946D01*
X151507511Y-104368701D01*
X151438353Y-104378645D01*
X151396263Y-104364569D01*
X151249103Y-104283667D01*
X151249095Y-104283663D01*
X150968265Y-104172475D01*
X150968262Y-104172474D01*
X150675695Y-104097357D01*
X150376036Y-104059500D01*
X150376027Y-104059500D01*
X150073973Y-104059500D01*
X150073963Y-104059500D01*
X149774304Y-104097357D01*
X149481737Y-104172474D01*
X149481734Y-104172475D01*
X149200904Y-104283663D01*
X149200903Y-104283664D01*
X148936205Y-104429184D01*
X148936193Y-104429191D01*
X148691846Y-104606719D01*
X148691836Y-104606727D01*
X148471652Y-104813494D01*
X148279111Y-105046236D01*
X148117268Y-105301261D01*
X148117265Y-105301267D01*
X148071371Y-105398797D01*
X148025016Y-105451075D01*
X147959173Y-105470000D01*
X146094000Y-105470000D01*
X146026961Y-105450315D01*
X145981206Y-105397511D01*
X145970000Y-105346000D01*
X145970000Y-104784500D01*
X145989685Y-104717461D01*
X146042489Y-104671706D01*
X146094000Y-104660500D01*
X146723431Y-104660500D01*
X146723433Y-104660500D01*
X146744501Y-104653654D01*
X146763417Y-104649112D01*
X146785304Y-104645646D01*
X146805044Y-104635586D01*
X146823011Y-104628144D01*
X146844090Y-104621296D01*
X146862026Y-104608263D01*
X146878588Y-104598114D01*
X146898342Y-104588050D01*
X146913834Y-104572557D01*
X146913841Y-104572552D01*
X147107676Y-104378717D01*
X147168999Y-104345232D01*
X147195357Y-104342398D01*
X147233887Y-104342398D01*
X147233889Y-104342398D01*
X147345070Y-104301932D01*
X147384165Y-104271933D01*
X147384172Y-104271926D01*
X147384174Y-104271925D01*
X147630677Y-104025422D01*
X147630678Y-104025420D01*
X147630677Y-104025420D01*
X147630685Y-104025413D01*
X147660684Y-103986318D01*
X147701150Y-103875137D01*
X147701150Y-103756822D01*
X147701150Y-103756821D01*
X147701150Y-103745974D01*
X147705153Y-103745974D01*
X147710578Y-103697121D01*
X147754608Y-103642871D01*
X147820979Y-103621037D01*
X147825974Y-103621394D01*
X147825974Y-103621150D01*
X147955135Y-103621150D01*
X147955137Y-103621150D01*
X148066318Y-103580684D01*
X148105413Y-103550685D01*
X148299779Y-103356319D01*
X148361102Y-103322834D01*
X148387460Y-103320000D01*
X149084169Y-103320000D01*
X149151208Y-103339685D01*
X149171850Y-103356319D01*
X149179596Y-103364065D01*
X149286827Y-103414068D01*
X149335683Y-103420500D01*
X149335684Y-103420500D01*
X149684317Y-103420500D01*
X149700601Y-103418356D01*
X149733173Y-103414068D01*
X149840404Y-103364065D01*
X149924065Y-103280404D01*
X149974068Y-103173173D01*
X149980500Y-103124316D01*
X149980500Y-102675684D01*
X149980500Y-102675677D01*
X149980387Y-102673954D01*
X149980500Y-102673448D01*
X149980500Y-102671625D01*
X149980908Y-102671625D01*
X149995644Y-102605770D01*
X150016433Y-102578169D01*
X150182786Y-102411816D01*
X150244107Y-102378334D01*
X150270465Y-102375500D01*
X150509251Y-102375500D01*
X150607417Y-102359952D01*
X150607418Y-102359951D01*
X150607420Y-102359951D01*
X150725751Y-102299658D01*
X150819658Y-102205751D01*
X150879951Y-102087420D01*
X150879951Y-102087418D01*
X150879952Y-102087417D01*
X150895500Y-101989251D01*
X150895500Y-101895862D01*
X150900000Y-101880536D01*
X150900000Y-100369999D01*
X150897353Y-100354860D01*
X150895500Y-100333504D01*
X150895500Y-99910748D01*
X150879952Y-99812582D01*
X150879951Y-99812580D01*
X150819658Y-99694249D01*
X150725751Y-99600342D01*
X150725748Y-99600340D01*
X150725747Y-99600339D01*
X150717853Y-99594603D01*
X150718520Y-99593684D01*
X150700834Y-99580834D01*
X150276319Y-99156319D01*
X150242834Y-99094996D01*
X150240000Y-99068638D01*
X150240000Y-98554000D01*
X150259685Y-98486961D01*
X150312489Y-98441206D01*
X150364000Y-98430000D01*
X151456000Y-98430000D01*
X151523039Y-98449685D01*
G37*
G04 #@! TD.AperFunction*
G04 #@! TA.AperFunction,Conductor*
G36*
X149364619Y-88208707D02*
G01*
X149450775Y-88242819D01*
X149755527Y-88321066D01*
X149821010Y-88329338D01*
X150067670Y-88360499D01*
X150067679Y-88360499D01*
X150067682Y-88360500D01*
X150067684Y-88360500D01*
X150382316Y-88360500D01*
X150382318Y-88360500D01*
X150382321Y-88360499D01*
X150382329Y-88360499D01*
X150613280Y-88331322D01*
X150694473Y-88321066D01*
X150746996Y-88307580D01*
X150816820Y-88309973D01*
X150874270Y-88349738D01*
X150890584Y-88376082D01*
X153608753Y-94315424D01*
X153620000Y-94367026D01*
X153620000Y-95037319D01*
X153600315Y-95104358D01*
X153547511Y-95150113D01*
X153542309Y-95152346D01*
X153527758Y-95158202D01*
X153509984Y-95165356D01*
X153509979Y-95165359D01*
X153295756Y-95294862D01*
X153295746Y-95294869D01*
X153105063Y-95457063D01*
X152942869Y-95647746D01*
X152942859Y-95647760D01*
X152866609Y-95773892D01*
X152835704Y-95808328D01*
X151234569Y-97029813D01*
X150805020Y-97357511D01*
X150743312Y-97404587D01*
X150678072Y-97429598D01*
X150668101Y-97430000D01*
X148334000Y-97430000D01*
X148266961Y-97410315D01*
X148221206Y-97357511D01*
X148210000Y-97306000D01*
X148210000Y-88324000D01*
X148229685Y-88256961D01*
X148282489Y-88211206D01*
X148334000Y-88200000D01*
X149318973Y-88200000D01*
X149364619Y-88208707D01*
G37*
G04 #@! TD.AperFunction*
G04 #@! TA.AperFunction,Conductor*
G36*
X135701401Y-83979685D02*
G01*
X135747156Y-84032489D01*
X135757100Y-84101647D01*
X135732739Y-84159483D01*
X135716477Y-84180678D01*
X135665463Y-84247160D01*
X135604956Y-84393237D01*
X135604955Y-84393239D01*
X135589501Y-84510629D01*
X135589500Y-84510645D01*
X135589500Y-85089354D01*
X135589501Y-85089370D01*
X135604955Y-85206760D01*
X135604956Y-85206762D01*
X135665464Y-85352841D01*
X135761718Y-85478282D01*
X135887159Y-85574536D01*
X136033238Y-85635044D01*
X136111619Y-85645363D01*
X136189999Y-85655682D01*
X136190000Y-85655682D01*
X136190001Y-85655682D01*
X136242253Y-85648802D01*
X136346762Y-85635044D01*
X136492841Y-85574536D01*
X136618282Y-85478282D01*
X136714536Y-85352841D01*
X136714535Y-85352841D01*
X136716624Y-85350120D01*
X136773052Y-85308917D01*
X136842798Y-85304762D01*
X136903718Y-85338974D01*
X136913376Y-85350120D01*
X136991334Y-85451718D01*
X137011718Y-85478282D01*
X137137159Y-85574536D01*
X137283238Y-85635044D01*
X137361619Y-85645363D01*
X137439999Y-85655682D01*
X137440000Y-85655682D01*
X137440001Y-85655682D01*
X137492254Y-85648802D01*
X137596762Y-85635044D01*
X137742841Y-85574536D01*
X137868282Y-85478282D01*
X137964536Y-85352841D01*
X138025044Y-85206762D01*
X138040500Y-85089361D01*
X138040500Y-84510639D01*
X138025044Y-84393238D01*
X137964536Y-84247159D01*
X137897260Y-84159484D01*
X137872068Y-84094318D01*
X137886106Y-84025873D01*
X137934920Y-83975883D01*
X137995637Y-83960000D01*
X139281000Y-83960000D01*
X139348039Y-83979685D01*
X139393794Y-84032489D01*
X139405000Y-84084000D01*
X139405000Y-86785500D01*
X139385315Y-86852539D01*
X139332511Y-86898294D01*
X139281000Y-86909500D01*
X137418783Y-86909500D01*
X137411844Y-86909110D01*
X137397426Y-86907486D01*
X137372964Y-86904729D01*
X137322543Y-86914270D01*
X137314520Y-86915788D01*
X137301832Y-86917700D01*
X137255716Y-86924651D01*
X137247532Y-86927175D01*
X137239528Y-86929976D01*
X137186936Y-86957773D01*
X137133360Y-86983572D01*
X137126200Y-86988455D01*
X137059720Y-87009954D01*
X137056350Y-87010000D01*
X135655217Y-87010000D01*
X135588178Y-86990315D01*
X135581582Y-86985769D01*
X135542886Y-86957209D01*
X135535297Y-86953198D01*
X135527677Y-86949529D01*
X135498852Y-86940638D01*
X135470822Y-86931992D01*
X135449842Y-86924651D01*
X135414695Y-86912352D01*
X135406326Y-86910768D01*
X135397904Y-86909500D01*
X135397902Y-86909500D01*
X135338426Y-86909500D01*
X135278990Y-86907275D01*
X135269756Y-86908316D01*
X135269662Y-86907486D01*
X135254364Y-86909500D01*
X133656863Y-86909500D01*
X133589824Y-86889815D01*
X133544069Y-86837011D01*
X133533924Y-86769315D01*
X133538567Y-86734043D01*
X133545682Y-86680000D01*
X133541027Y-86644655D01*
X133540499Y-86636583D01*
X133540499Y-85923414D01*
X133541027Y-85915345D01*
X133545682Y-85880000D01*
X133525044Y-85723238D01*
X133464536Y-85577159D01*
X133368282Y-85451718D01*
X133242841Y-85355464D01*
X133229939Y-85350120D01*
X133096762Y-85294956D01*
X133096760Y-85294955D01*
X132940001Y-85274318D01*
X132939999Y-85274318D01*
X132783239Y-85294955D01*
X132783237Y-85294956D01*
X132637157Y-85355464D01*
X132511719Y-85451716D01*
X132490022Y-85479990D01*
X132484672Y-85486091D01*
X132427585Y-85543180D01*
X132366262Y-85576666D01*
X132339902Y-85579500D01*
X132183428Y-85579500D01*
X132175329Y-85578969D01*
X132140000Y-85574318D01*
X132139999Y-85574318D01*
X131983239Y-85594955D01*
X131983237Y-85594956D01*
X131837157Y-85655464D01*
X131769486Y-85707391D01*
X131704317Y-85732585D01*
X131635872Y-85718547D01*
X131585883Y-85669733D01*
X131570000Y-85609015D01*
X131570000Y-84084000D01*
X131589685Y-84016961D01*
X131642489Y-83971206D01*
X131694000Y-83960000D01*
X135634362Y-83960000D01*
X135701401Y-83979685D01*
G37*
G04 #@! TD.AperFunction*
G04 #@! TA.AperFunction,Conductor*
G36*
X144841353Y-95130531D02*
G01*
X144842500Y-95130682D01*
X144843647Y-95130531D01*
X144851748Y-95130000D01*
X145483252Y-95130000D01*
X145491353Y-95130531D01*
X145492500Y-95130682D01*
X145493647Y-95130531D01*
X145501748Y-95130000D01*
X146205674Y-95130000D01*
X146272713Y-95149685D01*
X146293011Y-95167151D01*
X146293540Y-95166616D01*
X146317788Y-95190537D01*
X146330474Y-95205177D01*
X146362956Y-95249188D01*
X146380226Y-95281863D01*
X146393041Y-95318486D01*
X146400000Y-95359440D01*
X146400000Y-97200559D01*
X146393041Y-97241515D01*
X146380228Y-97278131D01*
X146362958Y-97310807D01*
X146341296Y-97340159D01*
X146315156Y-97366299D01*
X146285809Y-97387957D01*
X146253134Y-97405226D01*
X146164699Y-97436171D01*
X146123271Y-97456118D01*
X146119182Y-97459018D01*
X146113051Y-97462849D01*
X146080457Y-97480663D01*
X146033697Y-97515681D01*
X146033693Y-97515684D01*
X145443883Y-98105496D01*
X145007111Y-98542268D01*
X144999752Y-98550459D01*
X144999746Y-98550466D01*
X144999746Y-98550465D01*
X144979670Y-98575379D01*
X144979668Y-98575382D01*
X144942512Y-98646419D01*
X144942508Y-98646428D01*
X144922826Y-98713455D01*
X144914500Y-98771364D01*
X144914500Y-101066177D01*
X144914949Y-101075783D01*
X144917975Y-101108110D01*
X144904625Y-101176692D01*
X144856316Y-101227170D01*
X144852142Y-101229464D01*
X144719149Y-101299265D01*
X144591816Y-101412072D01*
X144495182Y-101552068D01*
X144434860Y-101711125D01*
X144434859Y-101711130D01*
X144414355Y-101879999D01*
X144434859Y-102048869D01*
X144434860Y-102048874D01*
X144495182Y-102207931D01*
X144495184Y-102207933D01*
X144497275Y-102210963D01*
X144498122Y-102213531D01*
X144498669Y-102214574D01*
X144498495Y-102214664D01*
X144519156Y-102277318D01*
X144501689Y-102344969D01*
X144450420Y-102392437D01*
X144395223Y-102405400D01*
X143683618Y-102405400D01*
X143616579Y-102385715D01*
X143572209Y-102335842D01*
X143569441Y-102330177D01*
X143532312Y-102270986D01*
X143494495Y-102226363D01*
X143476548Y-102210463D01*
X143470801Y-102204653D01*
X143454535Y-102185884D01*
X143454532Y-102185882D01*
X143390705Y-102136446D01*
X143343882Y-102113174D01*
X143292610Y-102065708D01*
X143275139Y-101998058D01*
X143278677Y-101972450D01*
X143280500Y-101965055D01*
X143280500Y-101926126D01*
X143280952Y-101918646D01*
X143285645Y-101880000D01*
X143280951Y-101841347D01*
X143280500Y-101833872D01*
X143280500Y-101468047D01*
X143280613Y-101464302D01*
X143284358Y-101402395D01*
X143284358Y-101402394D01*
X143282531Y-101392424D01*
X143280500Y-101370073D01*
X143280500Y-101308937D01*
X143300185Y-101241898D01*
X143311682Y-101226712D01*
X143325734Y-101210852D01*
X143330437Y-101201888D01*
X143342627Y-101183033D01*
X143348878Y-101175057D01*
X143374329Y-101118504D01*
X143375960Y-101115153D01*
X143404790Y-101060225D01*
X143407212Y-101050393D01*
X143414539Y-101029163D01*
X143418693Y-101019934D01*
X143418692Y-101019934D01*
X143418694Y-101019932D01*
X143429877Y-100958900D01*
X143430650Y-100955300D01*
X143445500Y-100895056D01*
X143445500Y-100884921D01*
X143447531Y-100862571D01*
X143449357Y-100852606D01*
X143449357Y-100852603D01*
X143445613Y-100790707D01*
X143445500Y-100786963D01*
X143445500Y-100724943D01*
X143443075Y-100715107D01*
X143439697Y-100692912D01*
X143439086Y-100682804D01*
X143420627Y-100623569D01*
X143419636Y-100620014D01*
X143404790Y-100559775D01*
X143400083Y-100550807D01*
X143391492Y-100530068D01*
X143388478Y-100520394D01*
X143356386Y-100467308D01*
X143354552Y-100464057D01*
X143325734Y-100409148D01*
X143319008Y-100401556D01*
X143305715Y-100383489D01*
X143300471Y-100374814D01*
X143300470Y-100374813D01*
X143278550Y-100352894D01*
X143256614Y-100330958D01*
X143254063Y-100328248D01*
X143212929Y-100281817D01*
X143212926Y-100281814D01*
X143204588Y-100276059D01*
X143187345Y-100261689D01*
X143180182Y-100254526D01*
X143127111Y-100222444D01*
X143123965Y-100220410D01*
X143120868Y-100218272D01*
X143072930Y-100185182D01*
X143072927Y-100185181D01*
X143072926Y-100185180D01*
X143063454Y-100181588D01*
X143043280Y-100171766D01*
X143034606Y-100166522D01*
X143034604Y-100166521D01*
X143034602Y-100166520D01*
X143034601Y-100166519D01*
X142975408Y-100148074D01*
X142971869Y-100146853D01*
X142913874Y-100124860D01*
X142903809Y-100123638D01*
X142881872Y-100118929D01*
X142876300Y-100117193D01*
X142872194Y-100115913D01*
X142810286Y-100112168D01*
X142806561Y-100111829D01*
X142802989Y-100111395D01*
X142787376Y-100109500D01*
X142787372Y-100109500D01*
X142768037Y-100109500D01*
X142764293Y-100109387D01*
X142702396Y-100105642D01*
X142702391Y-100105643D01*
X142692429Y-100107469D01*
X142670078Y-100109500D01*
X142019927Y-100109500D01*
X141997576Y-100107469D01*
X141987606Y-100105642D01*
X141987603Y-100105641D01*
X141948747Y-100107992D01*
X141941253Y-100107992D01*
X141902396Y-100105641D01*
X141902393Y-100105642D01*
X141897115Y-100106609D01*
X141892423Y-100107469D01*
X141870073Y-100109500D01*
X141525909Y-100109500D01*
X141458870Y-100089815D01*
X141413115Y-100037011D01*
X141402576Y-99986396D01*
X141402189Y-99986417D01*
X141402053Y-99983885D01*
X141401929Y-99983288D01*
X141401952Y-99981995D01*
X141400089Y-99947232D01*
X141400000Y-99943914D01*
X141400000Y-98559000D01*
X141419685Y-98491961D01*
X141472489Y-98446206D01*
X141524000Y-98435000D01*
X143275991Y-98435000D01*
X143276000Y-98435000D01*
X143319684Y-98430303D01*
X143345439Y-98424700D01*
X143371193Y-98419098D01*
X143375374Y-98418075D01*
X143381373Y-98416610D01*
X143462085Y-98373600D01*
X143514889Y-98327845D01*
X143532843Y-98310254D01*
X143577490Y-98230437D01*
X143597175Y-98163398D01*
X143605500Y-98105500D01*
X143605500Y-96244000D01*
X143600803Y-96200316D01*
X143598334Y-96188966D01*
X143595500Y-96162607D01*
X143595500Y-96110249D01*
X143595499Y-96110247D01*
X143583868Y-96051770D01*
X143583867Y-96051769D01*
X143539552Y-95985447D01*
X143463077Y-95934348D01*
X143464247Y-95932595D01*
X143422140Y-95898659D01*
X143400079Y-95832364D01*
X143400000Y-95827945D01*
X143400000Y-95632054D01*
X143419685Y-95565015D01*
X143463823Y-95526768D01*
X143463077Y-95525652D01*
X143471969Y-95519710D01*
X143472489Y-95519260D01*
X143472931Y-95519067D01*
X143473230Y-95518867D01*
X143473231Y-95518867D01*
X143539552Y-95474552D01*
X143583867Y-95408231D01*
X143583867Y-95408229D01*
X143583868Y-95408229D01*
X143595499Y-95349752D01*
X143595500Y-95349750D01*
X143595500Y-95254000D01*
X143615185Y-95186961D01*
X143667989Y-95141206D01*
X143719500Y-95130000D01*
X144833252Y-95130000D01*
X144841353Y-95130531D01*
G37*
G04 #@! TD.AperFunction*
G04 #@! TA.AperFunction,Conductor*
G36*
X139190175Y-96120530D02*
G01*
X139266210Y-96130540D01*
X139309058Y-96136182D01*
X139309059Y-96136182D01*
X139309060Y-96136182D01*
X139351907Y-96130540D01*
X139427942Y-96120530D01*
X139436041Y-96120000D01*
X143276000Y-96120000D01*
X143343039Y-96139685D01*
X143388794Y-96192489D01*
X143400000Y-96244000D01*
X143400000Y-98105500D01*
X143380315Y-98172539D01*
X143327511Y-98218294D01*
X143276000Y-98229500D01*
X141375247Y-98229500D01*
X141316770Y-98241131D01*
X141316769Y-98241132D01*
X141250447Y-98285447D01*
X141206132Y-98351769D01*
X141206131Y-98351770D01*
X141194500Y-98410247D01*
X141194500Y-99949747D01*
X141197270Y-99963674D01*
X141191041Y-100033265D01*
X141148178Y-100088442D01*
X141090586Y-100110961D01*
X141083431Y-100111830D01*
X141079708Y-100112168D01*
X141017806Y-100115913D01*
X141013182Y-100117353D01*
X141008124Y-100118929D01*
X140986197Y-100123636D01*
X140976134Y-100124858D01*
X140976127Y-100124860D01*
X140918136Y-100146852D01*
X140914597Y-100148073D01*
X140855393Y-100166521D01*
X140846716Y-100171767D01*
X140826554Y-100181584D01*
X140817073Y-100185180D01*
X140817066Y-100185183D01*
X140766030Y-100220410D01*
X140762888Y-100222441D01*
X140709818Y-100254525D01*
X140709812Y-100254530D01*
X140702645Y-100261697D01*
X140685416Y-100276056D01*
X140677069Y-100281818D01*
X140677067Y-100281820D01*
X140635942Y-100328239D01*
X140633377Y-100330965D01*
X140589532Y-100374810D01*
X140589523Y-100374821D01*
X140584280Y-100383494D01*
X140570995Y-100401551D01*
X140564266Y-100409148D01*
X140535450Y-100464049D01*
X140533611Y-100467309D01*
X140501522Y-100520392D01*
X140498506Y-100530071D01*
X140489921Y-100550796D01*
X140485210Y-100559772D01*
X140485209Y-100559775D01*
X140470365Y-100619997D01*
X140469360Y-100623603D01*
X140450914Y-100682801D01*
X140450301Y-100692923D01*
X140446927Y-100715093D01*
X140444500Y-100724940D01*
X140444500Y-100786951D01*
X140444387Y-100790696D01*
X140440642Y-100852604D01*
X140440642Y-100852606D01*
X140442469Y-100862575D01*
X140444500Y-100884927D01*
X140444500Y-100895058D01*
X140459336Y-100955254D01*
X140460122Y-100958914D01*
X140471304Y-101019929D01*
X140471305Y-101019932D01*
X140475468Y-101029183D01*
X140482785Y-101050388D01*
X140485209Y-101060223D01*
X140485210Y-101060227D01*
X140514025Y-101115126D01*
X140515665Y-101118494D01*
X140541120Y-101175054D01*
X140547373Y-101183035D01*
X140559560Y-101201886D01*
X140564265Y-101210851D01*
X140564266Y-101210852D01*
X140578314Y-101226709D01*
X140608036Y-101289941D01*
X140609500Y-101308937D01*
X140609500Y-101370073D01*
X140607469Y-101392424D01*
X140605642Y-101402392D01*
X140605642Y-101402395D01*
X140609387Y-101464302D01*
X140609500Y-101468047D01*
X140609500Y-101794946D01*
X140609499Y-101833874D01*
X140609047Y-101841350D01*
X140604355Y-101879996D01*
X140604355Y-101879998D01*
X140609048Y-101918646D01*
X140609500Y-101926126D01*
X140609500Y-101965058D01*
X140618816Y-102002855D01*
X140620166Y-102010223D01*
X140624859Y-102048869D01*
X140624861Y-102048876D01*
X140638665Y-102085276D01*
X140640894Y-102092429D01*
X140650209Y-102130221D01*
X140650210Y-102130226D01*
X140668299Y-102164693D01*
X140671374Y-102171524D01*
X140685182Y-102207931D01*
X140685183Y-102207933D01*
X140707300Y-102239974D01*
X140711178Y-102246388D01*
X140727198Y-102276913D01*
X140740922Y-102345422D01*
X140715430Y-102410475D01*
X140658813Y-102451418D01*
X140593211Y-102456156D01*
X140559748Y-102449500D01*
X139520252Y-102449500D01*
X139520247Y-102449500D01*
X139461770Y-102461131D01*
X139461769Y-102461132D01*
X139395447Y-102505447D01*
X139351132Y-102571769D01*
X139351131Y-102571770D01*
X139339500Y-102630247D01*
X139339500Y-102716000D01*
X139319815Y-102783039D01*
X139267011Y-102828794D01*
X139215500Y-102840000D01*
X138301362Y-102840000D01*
X138234323Y-102820315D01*
X138213681Y-102803681D01*
X136676962Y-101266962D01*
X136643477Y-101205639D01*
X136648461Y-101135947D01*
X136690333Y-101080014D01*
X136707003Y-101069492D01*
X136780852Y-101030734D01*
X136908183Y-100917929D01*
X137004818Y-100777930D01*
X137065140Y-100618872D01*
X137085645Y-100450000D01*
X137065140Y-100281128D01*
X137063216Y-100276056D01*
X137021676Y-100166521D01*
X137004818Y-100122070D01*
X136996141Y-100109500D01*
X136943520Y-100033265D01*
X136908183Y-99982071D01*
X136780852Y-99869266D01*
X136780849Y-99869263D01*
X136630226Y-99790210D01*
X136465056Y-99749500D01*
X136294944Y-99749500D01*
X136129773Y-99790210D01*
X135979149Y-99869264D01*
X135979147Y-99869266D01*
X135867344Y-99968315D01*
X135804111Y-99998037D01*
X135785117Y-99999500D01*
X135460862Y-99999500D01*
X135393823Y-99979815D01*
X135373181Y-99963181D01*
X135122681Y-99712681D01*
X135089196Y-99651358D01*
X135091341Y-99621362D01*
X135090000Y-99621362D01*
X135090000Y-96244000D01*
X135109685Y-96176961D01*
X135162489Y-96131206D01*
X135214000Y-96120000D01*
X139182077Y-96120000D01*
X139190175Y-96120530D01*
G37*
G04 #@! TD.AperFunction*
G04 #@! TA.AperFunction,Conductor*
G36*
X134460522Y-100163745D02*
G01*
X135121762Y-100194500D01*
X135187814Y-100217278D01*
X135231066Y-100272151D01*
X135240000Y-100318366D01*
X135240000Y-100725874D01*
X135220315Y-100792913D01*
X135167511Y-100838668D01*
X135137443Y-100848006D01*
X134172426Y-101017436D01*
X134102992Y-101009641D01*
X134048796Y-100965545D01*
X134027043Y-100899148D01*
X134040074Y-100839851D01*
X134083812Y-100752375D01*
X134125826Y-100704732D01*
X134189612Y-100662112D01*
X134247740Y-100575117D01*
X134263000Y-100498401D01*
X134262999Y-100423272D01*
X134276089Y-100367821D01*
X134343921Y-100232157D01*
X134391508Y-100181001D01*
X134459199Y-100163691D01*
X134460522Y-100163745D01*
G37*
G04 #@! TD.AperFunction*
G04 #@! TA.AperFunction,Conductor*
G36*
X119605351Y-100279685D02*
G01*
X119625993Y-100296319D01*
X119773680Y-100444006D01*
X119807165Y-100505329D01*
X119809999Y-100531687D01*
X119810000Y-101915500D01*
X119790315Y-101982539D01*
X119737512Y-102028294D01*
X119686001Y-102039500D01*
X119572870Y-102039500D01*
X119512867Y-102051434D01*
X119492505Y-102055485D01*
X119492504Y-102055485D01*
X119492501Y-102055486D01*
X119481220Y-102060159D01*
X119480621Y-102058714D01*
X119427206Y-102075437D01*
X119369055Y-102059481D01*
X119368775Y-102060158D01*
X119363385Y-102057925D01*
X119359827Y-102056949D01*
X119357647Y-102055548D01*
X119357490Y-102055483D01*
X119277135Y-102039500D01*
X119072870Y-102039500D01*
X119012867Y-102051434D01*
X118992505Y-102055485D01*
X118992504Y-102055485D01*
X118992501Y-102055486D01*
X118981220Y-102060159D01*
X118980621Y-102058714D01*
X118927204Y-102075436D01*
X118869061Y-102059481D01*
X118868781Y-102060159D01*
X118863383Y-102057923D01*
X118859825Y-102056947D01*
X118857648Y-102055547D01*
X118857494Y-102055484D01*
X118777135Y-102039500D01*
X118572870Y-102039500D01*
X118492504Y-102055485D01*
X118401375Y-102116375D01*
X118340485Y-102207505D01*
X118340483Y-102207509D01*
X118324500Y-102287862D01*
X118324500Y-102287864D01*
X118324501Y-103665500D01*
X118304816Y-103732539D01*
X118252013Y-103778294D01*
X118200501Y-103789500D01*
X117968379Y-103789500D01*
X117901340Y-103769815D01*
X117884837Y-103757133D01*
X117875432Y-103748559D01*
X117873363Y-103746583D01*
X117859603Y-103732823D01*
X117857392Y-103731309D01*
X117850658Y-103725974D01*
X117827740Y-103705083D01*
X117821278Y-103702580D01*
X117796000Y-103689255D01*
X117790288Y-103685343D01*
X117760104Y-103678243D01*
X117751901Y-103675703D01*
X117722981Y-103664500D01*
X117722980Y-103664500D01*
X117716055Y-103664500D01*
X117687666Y-103661206D01*
X117680926Y-103659621D01*
X117680925Y-103659621D01*
X117669564Y-103661206D01*
X117650215Y-103663905D01*
X117641641Y-103664500D01*
X116481031Y-103664500D01*
X116472457Y-103663905D01*
X116460428Y-103662227D01*
X116460425Y-103662227D01*
X116435409Y-103663383D01*
X116412680Y-103664434D01*
X116409817Y-103664500D01*
X116390345Y-103664500D01*
X116389397Y-103664677D01*
X116387705Y-103664993D01*
X116379177Y-103665982D01*
X116349987Y-103667332D01*
X116348198Y-103667415D01*
X116341853Y-103670215D01*
X116314570Y-103678665D01*
X116307758Y-103679938D01*
X116307757Y-103679939D01*
X116281396Y-103696260D01*
X116273797Y-103700265D01*
X116245425Y-103712793D01*
X116240526Y-103717693D01*
X116218132Y-103735431D01*
X116212240Y-103739079D01*
X116212238Y-103739080D01*
X116212238Y-103739081D01*
X116210994Y-103740728D01*
X116207968Y-103742973D01*
X116203749Y-103746820D01*
X116203359Y-103746393D01*
X116154888Y-103782362D01*
X116112042Y-103790000D01*
X116074000Y-103790000D01*
X116006961Y-103770315D01*
X115961206Y-103717511D01*
X115950000Y-103666000D01*
X115950000Y-103608607D01*
X115969685Y-103541568D01*
X116002877Y-103507032D01*
X116008310Y-103503226D01*
X116008316Y-103503224D01*
X116093224Y-103418316D01*
X116143972Y-103309487D01*
X116150500Y-103259901D01*
X116150499Y-102840100D01*
X116143972Y-102790513D01*
X116093224Y-102681684D01*
X116008316Y-102596776D01*
X116008315Y-102596775D01*
X116002875Y-102592966D01*
X115959250Y-102538389D01*
X115949999Y-102491397D01*
X115950000Y-101064495D01*
X115969684Y-100997460D01*
X116022488Y-100951705D01*
X116073996Y-100940499D01*
X116977132Y-100940499D01*
X117057495Y-100924515D01*
X117148624Y-100863624D01*
X117209515Y-100772495D01*
X117225500Y-100692133D01*
X117225499Y-100487868D01*
X117209651Y-100408188D01*
X117215880Y-100338598D01*
X117258744Y-100283421D01*
X117324634Y-100260178D01*
X117331269Y-100260000D01*
X119538312Y-100260000D01*
X119605351Y-100279685D01*
G37*
G04 #@! TD.AperFunction*
G04 #@! TA.AperFunction,Conductor*
G36*
X147853039Y-84169685D02*
G01*
X147898794Y-84222489D01*
X147910000Y-84274000D01*
X147910000Y-85197016D01*
X147903932Y-85235332D01*
X147895320Y-85261837D01*
X147838719Y-85558546D01*
X147838718Y-85558553D01*
X147819754Y-85859994D01*
X147819754Y-85860005D01*
X147838718Y-86161446D01*
X147838719Y-86161453D01*
X147838720Y-86161457D01*
X147895319Y-86458160D01*
X147903931Y-86484666D01*
X147910000Y-86522982D01*
X147910000Y-98604832D01*
X147898382Y-98657237D01*
X147865932Y-98726825D01*
X147865931Y-98726826D01*
X147859500Y-98775683D01*
X147859500Y-98782034D01*
X147839815Y-98849073D01*
X147823181Y-98869715D01*
X147204716Y-99488181D01*
X147143393Y-99521666D01*
X147117035Y-99524500D01*
X147010749Y-99524500D01*
X146912582Y-99540047D01*
X146833692Y-99580244D01*
X146794249Y-99600342D01*
X146794248Y-99600343D01*
X146794243Y-99600346D01*
X146700346Y-99694243D01*
X146700343Y-99694248D01*
X146640047Y-99812582D01*
X146624500Y-99910748D01*
X146624500Y-100414251D01*
X146640047Y-100512417D01*
X146640049Y-100512420D01*
X146700342Y-100630751D01*
X146700344Y-100630753D01*
X146700346Y-100630756D01*
X146794243Y-100724653D01*
X146794245Y-100724654D01*
X146794249Y-100724658D01*
X146912580Y-100784951D01*
X146912581Y-100784951D01*
X146912583Y-100784952D01*
X146912582Y-100784952D01*
X147010749Y-100800500D01*
X147010754Y-100800500D01*
X147589251Y-100800500D01*
X147687417Y-100784952D01*
X147687419Y-100784951D01*
X147687420Y-100784951D01*
X147687422Y-100784950D01*
X147729705Y-100763406D01*
X147798374Y-100750509D01*
X147863114Y-100776785D01*
X147903372Y-100833891D01*
X147910000Y-100873890D01*
X147910000Y-101969744D01*
X147890315Y-102036783D01*
X147873681Y-102057425D01*
X147555140Y-102375967D01*
X147555137Y-102375970D01*
X147532573Y-102398535D01*
X147532572Y-102398536D01*
X147522515Y-102418273D01*
X147512355Y-102434853D01*
X147499330Y-102452781D01*
X147499327Y-102452786D01*
X147492478Y-102473864D01*
X147485037Y-102491828D01*
X147474978Y-102511571D01*
X147471511Y-102533458D01*
X147466971Y-102552367D01*
X147460124Y-102573443D01*
X147460124Y-102672415D01*
X147440439Y-102739454D01*
X147423805Y-102760096D01*
X147369323Y-102814578D01*
X147369321Y-102814579D01*
X147339315Y-102853682D01*
X147298850Y-102964862D01*
X147298850Y-103094026D01*
X147294857Y-103094026D01*
X147289383Y-103142969D01*
X147245309Y-103197184D01*
X147178921Y-103218965D01*
X147174026Y-103218614D01*
X147174026Y-103218850D01*
X147044862Y-103218850D01*
X146933682Y-103259315D01*
X146894579Y-103289321D01*
X146894577Y-103289322D01*
X146648074Y-103535825D01*
X146648073Y-103535827D01*
X146618067Y-103574930D01*
X146577602Y-103686110D01*
X146577602Y-103724641D01*
X146557917Y-103791680D01*
X146541287Y-103812318D01*
X146530429Y-103823177D01*
X146469108Y-103856665D01*
X146442744Y-103859500D01*
X144744000Y-103859500D01*
X144676961Y-103839815D01*
X144631206Y-103787011D01*
X144620000Y-103735500D01*
X144620000Y-102613818D01*
X144639685Y-102546779D01*
X144692489Y-102501024D01*
X144761647Y-102491080D01*
X144801623Y-102504020D01*
X144869775Y-102539790D01*
X145034944Y-102580500D01*
X145205056Y-102580500D01*
X145370225Y-102539790D01*
X145463033Y-102491080D01*
X145520849Y-102460736D01*
X145520850Y-102460734D01*
X145520852Y-102460734D01*
X145648183Y-102347929D01*
X145744818Y-102207930D01*
X145805140Y-102048872D01*
X145825645Y-101880000D01*
X145805140Y-101711128D01*
X145744818Y-101552070D01*
X145648183Y-101412071D01*
X145520852Y-101299266D01*
X145520849Y-101299263D01*
X145370226Y-101220210D01*
X145214325Y-101181784D01*
X145153944Y-101146628D01*
X145122156Y-101084408D01*
X145120000Y-101061387D01*
X145120000Y-98771361D01*
X145139685Y-98704322D01*
X145156314Y-98683685D01*
X146179009Y-97660990D01*
X146233039Y-97631463D01*
X146232576Y-97630139D01*
X146292959Y-97609009D01*
X146367882Y-97582793D01*
X146477150Y-97502150D01*
X146557793Y-97392882D01*
X146580219Y-97328790D01*
X146602646Y-97264701D01*
X146602646Y-97264699D01*
X146605500Y-97234269D01*
X146605500Y-95325730D01*
X146602646Y-95295300D01*
X146602646Y-95295298D01*
X146569006Y-95199163D01*
X146557793Y-95167118D01*
X146477150Y-95057850D01*
X146477147Y-95057848D01*
X146477145Y-95057845D01*
X146460365Y-95045461D01*
X146418115Y-94989813D01*
X146410000Y-94945692D01*
X146410000Y-93630000D01*
X146122022Y-93630000D01*
X146054983Y-93610315D01*
X146023578Y-93577381D01*
X146021983Y-93578606D01*
X145920783Y-93446719D01*
X145920782Y-93446718D01*
X145795341Y-93350464D01*
X145649262Y-93289956D01*
X145649260Y-93289955D01*
X145492501Y-93269318D01*
X145492500Y-93269318D01*
X145457170Y-93273969D01*
X145449072Y-93274500D01*
X144885928Y-93274500D01*
X144877829Y-93273969D01*
X144842500Y-93269318D01*
X144842499Y-93269318D01*
X144685739Y-93289955D01*
X144685737Y-93289956D01*
X144539660Y-93350463D01*
X144414216Y-93446719D01*
X144313017Y-93578606D01*
X144310925Y-93577001D01*
X144269791Y-93616219D01*
X144212978Y-93630000D01*
X143422872Y-93630000D01*
X143416792Y-93629701D01*
X143414750Y-93629500D01*
X143414748Y-93629500D01*
X142919822Y-93629500D01*
X142852783Y-93609815D01*
X142844335Y-93603875D01*
X142820342Y-93585464D01*
X142674262Y-93524956D01*
X142674260Y-93524955D01*
X142517501Y-93504318D01*
X142517500Y-93504318D01*
X142482170Y-93508969D01*
X142474072Y-93509500D01*
X141910928Y-93509500D01*
X141902829Y-93508969D01*
X141867500Y-93504318D01*
X141867499Y-93504318D01*
X141710739Y-93524955D01*
X141710737Y-93524956D01*
X141564657Y-93585464D01*
X141540665Y-93603875D01*
X141475496Y-93629070D01*
X141465178Y-93629500D01*
X141375250Y-93629500D01*
X141373208Y-93629701D01*
X141367128Y-93630000D01*
X141200000Y-93630000D01*
X141200000Y-93770389D01*
X141197617Y-93794581D01*
X141194500Y-93810252D01*
X141194500Y-95349748D01*
X141195766Y-95356114D01*
X141197617Y-95365416D01*
X141200000Y-95389610D01*
X141200000Y-95790500D01*
X141180315Y-95857539D01*
X141127511Y-95903294D01*
X141076000Y-95914500D01*
X139432681Y-95914500D01*
X139425972Y-95914719D01*
X139411161Y-95915689D01*
X139404457Y-95916349D01*
X139325242Y-95926777D01*
X139292874Y-95926777D01*
X139238276Y-95919589D01*
X139213660Y-95916349D01*
X139206957Y-95915689D01*
X139192147Y-95914719D01*
X139185436Y-95914500D01*
X139185435Y-95914500D01*
X139034000Y-95914500D01*
X138966961Y-95894815D01*
X138921206Y-95842011D01*
X138910000Y-95790500D01*
X138910000Y-95019133D01*
X138929685Y-94952094D01*
X138976060Y-94909502D01*
X139000538Y-94896566D01*
X139307794Y-94589309D01*
X139323552Y-94573552D01*
X139323551Y-94573551D01*
X139359747Y-94537358D01*
X139359872Y-94537204D01*
X139379282Y-94517794D01*
X139379282Y-94517793D01*
X139379286Y-94517790D01*
X139466889Y-94386685D01*
X139527232Y-94241010D01*
X139557997Y-94086361D01*
X139558000Y-93942039D01*
X139577686Y-93875002D01*
X139630491Y-93829249D01*
X139682008Y-93818044D01*
X139686523Y-93818044D01*
X139826288Y-93818054D01*
X139980949Y-93787298D01*
X140126637Y-93726958D01*
X140257752Y-93639353D01*
X140258412Y-93638692D01*
X140258421Y-93638685D01*
X140265487Y-93631619D01*
X140265489Y-93631618D01*
X140337377Y-93559730D01*
X140337378Y-93559727D01*
X140342747Y-93554359D01*
X140342755Y-93554349D01*
X140716424Y-93180679D01*
X140777745Y-93147196D01*
X140787900Y-93145426D01*
X140866762Y-93135044D01*
X141012841Y-93074536D01*
X141138282Y-92978282D01*
X141234536Y-92852841D01*
X141295044Y-92706762D01*
X141310857Y-92586643D01*
X141339123Y-92522749D01*
X141397447Y-92484277D01*
X141467312Y-92483445D01*
X141469708Y-92484144D01*
X141508868Y-92496024D01*
X141705000Y-92515341D01*
X141901132Y-92496024D01*
X142089727Y-92438814D01*
X142089730Y-92438812D01*
X142095556Y-92437045D01*
X142095823Y-92437926D01*
X142135671Y-92430000D01*
X142151040Y-92430000D01*
X142218079Y-92449685D01*
X142245023Y-92473110D01*
X142248881Y-92477592D01*
X142248882Y-92477594D01*
X142294461Y-92530550D01*
X142311995Y-92548565D01*
X142311996Y-92548566D01*
X142391659Y-92593475D01*
X142391662Y-92593475D01*
X142391664Y-92593477D01*
X142458638Y-92613384D01*
X142516505Y-92621900D01*
X144666110Y-92629041D01*
X144679145Y-92630347D01*
X144679189Y-92629902D01*
X144685249Y-92630499D01*
X144685252Y-92630500D01*
X144685255Y-92630500D01*
X145104919Y-92630500D01*
X146484905Y-92635085D01*
X146525349Y-92630838D01*
X146531822Y-92630500D01*
X146624750Y-92630500D01*
X146624751Y-92630499D01*
X146639568Y-92627552D01*
X146683229Y-92618868D01*
X146683229Y-92618867D01*
X146683231Y-92618867D01*
X146749552Y-92574552D01*
X146793867Y-92508231D01*
X146793867Y-92508229D01*
X146793868Y-92508229D01*
X146805499Y-92449752D01*
X146805500Y-92449750D01*
X146805500Y-92384000D01*
X146806762Y-92366351D01*
X146807173Y-92363490D01*
X146807175Y-92363485D01*
X146815500Y-92305587D01*
X146815500Y-87954000D01*
X146810803Y-87910316D01*
X146806535Y-87890701D01*
X146799598Y-87858807D01*
X146797110Y-87848629D01*
X146797110Y-87848627D01*
X146754100Y-87767915D01*
X146708345Y-87715111D01*
X146690756Y-87697159D01*
X146690750Y-87697154D01*
X146610940Y-87652511D01*
X146610935Y-87652509D01*
X146543903Y-87632826D01*
X146543899Y-87632825D01*
X146543898Y-87632825D01*
X146486000Y-87624500D01*
X146485996Y-87624500D01*
X144924000Y-87624500D01*
X144856961Y-87604815D01*
X144811206Y-87552011D01*
X144800000Y-87500500D01*
X144800000Y-84274000D01*
X144819685Y-84206961D01*
X144872489Y-84161206D01*
X144924000Y-84150000D01*
X147786000Y-84150000D01*
X147853039Y-84169685D01*
G37*
G04 #@! TD.AperFunction*
G04 #@! TA.AperFunction,Conductor*
G36*
X127083039Y-88479685D02*
G01*
X127128794Y-88532489D01*
X127140000Y-88584000D01*
X127140000Y-88968849D01*
X127120315Y-89035888D01*
X127103681Y-89056530D01*
X126936530Y-89223681D01*
X126875207Y-89257166D01*
X126848849Y-89260000D01*
X126024000Y-89260000D01*
X125956961Y-89240315D01*
X125911206Y-89187511D01*
X125900000Y-89136000D01*
X125900000Y-89070832D01*
X125911618Y-89018426D01*
X125914068Y-89013173D01*
X125920500Y-88964316D01*
X125920500Y-88615684D01*
X125920500Y-88615680D01*
X125918460Y-88600183D01*
X125929227Y-88531148D01*
X125975608Y-88478893D01*
X126041399Y-88460000D01*
X127016000Y-88460000D01*
X127083039Y-88479685D01*
G37*
G04 #@! TD.AperFunction*
G04 #@! TA.AperFunction,Conductor*
G36*
X104607539Y-83979685D02*
G01*
X104653294Y-84032489D01*
X104664500Y-84084000D01*
X104664500Y-85604752D01*
X104676131Y-85663229D01*
X104676132Y-85663230D01*
X104720447Y-85729552D01*
X104786769Y-85773867D01*
X104786770Y-85773868D01*
X104845247Y-85785499D01*
X104845250Y-85785500D01*
X104845252Y-85785500D01*
X106584750Y-85785500D01*
X106584751Y-85785499D01*
X106599568Y-85782552D01*
X106643229Y-85773868D01*
X106643229Y-85773867D01*
X106643231Y-85773867D01*
X106709552Y-85729552D01*
X106753867Y-85663231D01*
X106753867Y-85663229D01*
X106753868Y-85663229D01*
X106765499Y-85604752D01*
X106765500Y-85604750D01*
X106765500Y-84084000D01*
X106785185Y-84016961D01*
X106837989Y-83971206D01*
X106889500Y-83960000D01*
X107080500Y-83960000D01*
X107147539Y-83979685D01*
X107193294Y-84032489D01*
X107204500Y-84084000D01*
X107204500Y-85604752D01*
X107216131Y-85663229D01*
X107216132Y-85663230D01*
X107260447Y-85729552D01*
X107326769Y-85773867D01*
X107326770Y-85773868D01*
X107385247Y-85785499D01*
X107385250Y-85785500D01*
X107385252Y-85785500D01*
X109124750Y-85785500D01*
X109124751Y-85785499D01*
X109139568Y-85782552D01*
X109183229Y-85773868D01*
X109183229Y-85773867D01*
X109183231Y-85773867D01*
X109249552Y-85729552D01*
X109250253Y-85728503D01*
X109300652Y-85653077D01*
X109304119Y-85655393D01*
X109333498Y-85618899D01*
X109399780Y-85596799D01*
X109467489Y-85614043D01*
X109515126Y-85665155D01*
X109528026Y-85728503D01*
X109519754Y-85859993D01*
X109519754Y-85860005D01*
X109530000Y-86022869D01*
X109530000Y-98134500D01*
X109466188Y-98134500D01*
X109399149Y-98114815D01*
X109378507Y-98098181D01*
X109256321Y-97975995D01*
X109222836Y-97914672D01*
X109227820Y-97844980D01*
X109229446Y-97840850D01*
X109230227Y-97838962D01*
X109230232Y-97838954D01*
X109290300Y-97640934D01*
X109310583Y-97435000D01*
X109290300Y-97229066D01*
X109230232Y-97031046D01*
X109132685Y-96848550D01*
X109075945Y-96779412D01*
X109001410Y-96688589D01*
X108841452Y-96557317D01*
X108841453Y-96557317D01*
X108841450Y-96557315D01*
X108658954Y-96459768D01*
X108460934Y-96399700D01*
X108460932Y-96399699D01*
X108460934Y-96399699D01*
X108255000Y-96379417D01*
X108049067Y-96399699D01*
X107851043Y-96459769D01*
X107784264Y-96495464D01*
X107668550Y-96557315D01*
X107668548Y-96557316D01*
X107668547Y-96557317D01*
X107508589Y-96688589D01*
X107377317Y-96848547D01*
X107279769Y-97031043D01*
X107219699Y-97229067D01*
X107199417Y-97434999D01*
X107219699Y-97640932D01*
X107245690Y-97726613D01*
X107279768Y-97838954D01*
X107377315Y-98021450D01*
X107411969Y-98063677D01*
X107508589Y-98181410D01*
X107539535Y-98206806D01*
X107668550Y-98312685D01*
X107851046Y-98410232D01*
X108049066Y-98470300D01*
X108049065Y-98470300D01*
X108069348Y-98472297D01*
X108255000Y-98490583D01*
X108460934Y-98470300D01*
X108658954Y-98410232D01*
X108658962Y-98410227D01*
X108660850Y-98409446D01*
X108661924Y-98409330D01*
X108664784Y-98408463D01*
X108664948Y-98409004D01*
X108730318Y-98401970D01*
X108792801Y-98433238D01*
X108795995Y-98436321D01*
X108976992Y-98617318D01*
X109010477Y-98678641D01*
X109005493Y-98748333D01*
X108976992Y-98792680D01*
X108795994Y-98973677D01*
X108734671Y-99007162D01*
X108664979Y-99002178D01*
X108660869Y-99000561D01*
X108658958Y-98999769D01*
X108559943Y-98969733D01*
X108460934Y-98939700D01*
X108460932Y-98939699D01*
X108460934Y-98939699D01*
X108273463Y-98921235D01*
X108255000Y-98919417D01*
X108254999Y-98919417D01*
X108049067Y-98939699D01*
X107851043Y-98999769D01*
X107778743Y-99038415D01*
X107668550Y-99097315D01*
X107668548Y-99097316D01*
X107668547Y-99097317D01*
X107508589Y-99228589D01*
X107377317Y-99388547D01*
X107377315Y-99388550D01*
X107353020Y-99434003D01*
X107279769Y-99571043D01*
X107219699Y-99769067D01*
X107199417Y-99974999D01*
X107219699Y-100180932D01*
X107219700Y-100180934D01*
X107279768Y-100378954D01*
X107377315Y-100561450D01*
X107411969Y-100603677D01*
X107508589Y-100721410D01*
X107605209Y-100800702D01*
X107668550Y-100852685D01*
X107851046Y-100950232D01*
X108049066Y-101010300D01*
X108049065Y-101010300D01*
X108067529Y-101012118D01*
X108255000Y-101030583D01*
X108460934Y-101010300D01*
X108658954Y-100950232D01*
X108841450Y-100852685D01*
X109001410Y-100721410D01*
X109132685Y-100561450D01*
X109230232Y-100378954D01*
X109290300Y-100180934D01*
X109310583Y-99975000D01*
X109290300Y-99769066D01*
X109230232Y-99571046D01*
X109230230Y-99571043D01*
X109230230Y-99571041D01*
X109229444Y-99569144D01*
X109229328Y-99568068D01*
X109228463Y-99565216D01*
X109229003Y-99565051D01*
X109221971Y-99499675D01*
X109253242Y-99437194D01*
X109256259Y-99434066D01*
X109418509Y-99271816D01*
X109479832Y-99238334D01*
X109506189Y-99235500D01*
X112737112Y-99235500D01*
X112804151Y-99255185D01*
X112824793Y-99271819D01*
X112883181Y-99330207D01*
X112916666Y-99391530D01*
X112919500Y-99417888D01*
X112919500Y-101378616D01*
X112919264Y-101384023D01*
X112915735Y-101424346D01*
X112926212Y-101463448D01*
X112927383Y-101468728D01*
X112934411Y-101508581D01*
X112936235Y-101513593D01*
X112943197Y-101530399D01*
X112945445Y-101535219D01*
X112945446Y-101535222D01*
X112948630Y-101539769D01*
X112968655Y-101568369D01*
X112971561Y-101572930D01*
X112991806Y-101607993D01*
X113022815Y-101634013D01*
X113026805Y-101637669D01*
X113333180Y-101944044D01*
X113366665Y-102005367D01*
X113369499Y-102031724D01*
X113369499Y-102264316D01*
X113375931Y-102313171D01*
X113375932Y-102313173D01*
X113425935Y-102420404D01*
X113509596Y-102504065D01*
X113616827Y-102554068D01*
X113665683Y-102560500D01*
X113665684Y-102560500D01*
X114114317Y-102560500D01*
X114130601Y-102558356D01*
X114163173Y-102554068D01*
X114270404Y-102504065D01*
X114354065Y-102420404D01*
X114404068Y-102313173D01*
X114410500Y-102264316D01*
X114410500Y-101915684D01*
X114404068Y-101866827D01*
X114354065Y-101759596D01*
X114270404Y-101675935D01*
X114262733Y-101668264D01*
X114265561Y-101665435D01*
X114234843Y-101627023D01*
X114227635Y-101557526D01*
X114259143Y-101495165D01*
X114262903Y-101491906D01*
X114262733Y-101491736D01*
X114295052Y-101459417D01*
X114354065Y-101400404D01*
X114404068Y-101293173D01*
X114410500Y-101244316D01*
X114410499Y-101191725D01*
X114430182Y-101124687D01*
X114446813Y-101104049D01*
X115099045Y-100451819D01*
X115160369Y-100418334D01*
X115186727Y-100415500D01*
X115396075Y-100415500D01*
X115430484Y-100422344D01*
X115430527Y-100422133D01*
X115484721Y-100432912D01*
X115522867Y-100440500D01*
X115826002Y-100440499D01*
X115893039Y-100460183D01*
X115938794Y-100512987D01*
X115950000Y-100564499D01*
X115950000Y-100615500D01*
X115930315Y-100682539D01*
X115877511Y-100728294D01*
X115826000Y-100739500D01*
X115522870Y-100739500D01*
X115442504Y-100755485D01*
X115351375Y-100816375D01*
X115290485Y-100907505D01*
X115290483Y-100907509D01*
X115274500Y-100987863D01*
X115274500Y-101192129D01*
X115290485Y-101272495D01*
X115351375Y-101363624D01*
X115381905Y-101384023D01*
X115442505Y-101424515D01*
X115442508Y-101424515D01*
X115442509Y-101424516D01*
X115469533Y-101429891D01*
X115522867Y-101440500D01*
X115620499Y-101440499D01*
X115687537Y-101460183D01*
X115733293Y-101512986D01*
X115744499Y-101564499D01*
X115744499Y-102491397D01*
X115748369Y-102531091D01*
X115748370Y-102531097D01*
X115757619Y-102578080D01*
X115758954Y-102584347D01*
X115758955Y-102584350D01*
X115798725Y-102666692D01*
X115798729Y-102666698D01*
X115835880Y-102713176D01*
X115837118Y-102716198D01*
X115863005Y-102742084D01*
X115863005Y-102742085D01*
X115906832Y-102785912D01*
X115931524Y-102821172D01*
X115933374Y-102825138D01*
X115944999Y-102877557D01*
X115944999Y-103222440D01*
X115933379Y-103274848D01*
X115931529Y-103278815D01*
X115906835Y-103314084D01*
X115897240Y-103323678D01*
X115835921Y-103357165D01*
X115809557Y-103360000D01*
X113624686Y-103360000D01*
X113557647Y-103340315D01*
X113537005Y-103323681D01*
X113450278Y-103236954D01*
X113434152Y-103217097D01*
X113429078Y-103209330D01*
X113403128Y-103189132D01*
X113397382Y-103184058D01*
X113394948Y-103181624D01*
X113394947Y-103181623D01*
X113394946Y-103181622D01*
X113388489Y-103177012D01*
X113377202Y-103168954D01*
X113336767Y-103137482D01*
X113336763Y-103137480D01*
X113330289Y-103133976D01*
X113323710Y-103130759D01*
X113274595Y-103116137D01*
X113226127Y-103099497D01*
X113218910Y-103098293D01*
X113211592Y-103097381D01*
X113198787Y-103097911D01*
X113130991Y-103081013D01*
X113083094Y-103030144D01*
X113074617Y-103008712D01*
X113074068Y-103006828D01*
X113074068Y-103006827D01*
X113024065Y-102899596D01*
X112940404Y-102815935D01*
X112833173Y-102765932D01*
X112833171Y-102765931D01*
X112833172Y-102765931D01*
X112784317Y-102759500D01*
X112784316Y-102759500D01*
X112435684Y-102759500D01*
X112435683Y-102759500D01*
X112386828Y-102765931D01*
X112279595Y-102815935D01*
X112188264Y-102907267D01*
X112185440Y-102904443D01*
X112146958Y-102935183D01*
X112077458Y-102942352D01*
X112015114Y-102910808D01*
X112011901Y-102907101D01*
X112011736Y-102907267D01*
X111920404Y-102815935D01*
X111920403Y-102815934D01*
X111813173Y-102765932D01*
X111813171Y-102765931D01*
X111813172Y-102765931D01*
X111764317Y-102759500D01*
X111764316Y-102759500D01*
X111415684Y-102759500D01*
X111415683Y-102759500D01*
X111366828Y-102765931D01*
X111259595Y-102815935D01*
X111175935Y-102899595D01*
X111125931Y-103006828D01*
X111119500Y-103055683D01*
X111119500Y-103504316D01*
X111125931Y-103553171D01*
X111125932Y-103553173D01*
X111175935Y-103660404D01*
X111259596Y-103744065D01*
X111366827Y-103794068D01*
X111415683Y-103800500D01*
X111415684Y-103800500D01*
X111558811Y-103800500D01*
X111625850Y-103820185D01*
X111646492Y-103836819D01*
X111677130Y-103867457D01*
X111710615Y-103928780D01*
X111705631Y-103998472D01*
X111680399Y-104039423D01*
X111677579Y-104042466D01*
X111617573Y-104078258D01*
X111602171Y-104081203D01*
X111474305Y-104097357D01*
X111181737Y-104172474D01*
X111181734Y-104172475D01*
X110900904Y-104283663D01*
X110900903Y-104283664D01*
X110636205Y-104429184D01*
X110636193Y-104429191D01*
X110391846Y-104606719D01*
X110391836Y-104606727D01*
X110171652Y-104813494D01*
X109979111Y-105046236D01*
X109817268Y-105301261D01*
X109817265Y-105301267D01*
X109688661Y-105574563D01*
X109688659Y-105574568D01*
X109595320Y-105861835D01*
X109538719Y-106158546D01*
X109538718Y-106158553D01*
X109519754Y-106459994D01*
X109519754Y-106460000D01*
X109529878Y-106620928D01*
X109530000Y-106624799D01*
X109529999Y-107343310D01*
X109510314Y-107410350D01*
X109457510Y-107456104D01*
X109388352Y-107466048D01*
X109324796Y-107437023D01*
X109287340Y-107379308D01*
X109230232Y-107191046D01*
X109132685Y-107008550D01*
X109080702Y-106945209D01*
X109001410Y-106848589D01*
X108841452Y-106717317D01*
X108841453Y-106717317D01*
X108841450Y-106717315D01*
X108658954Y-106619768D01*
X108460934Y-106559700D01*
X108460932Y-106559699D01*
X108460934Y-106559699D01*
X108273463Y-106541235D01*
X108255000Y-106539417D01*
X108254999Y-106539417D01*
X108049067Y-106559699D01*
X107851043Y-106619769D01*
X107740898Y-106678643D01*
X107668550Y-106717315D01*
X107668548Y-106717316D01*
X107668547Y-106717317D01*
X107508589Y-106848589D01*
X107377317Y-107008547D01*
X107279769Y-107191043D01*
X107219699Y-107389067D01*
X107199417Y-107595000D01*
X107219699Y-107800932D01*
X107279769Y-107998956D01*
X107375228Y-108177545D01*
X107389470Y-108245948D01*
X107364470Y-108311192D01*
X107308166Y-108352563D01*
X107265870Y-108359999D01*
X106704130Y-108359999D01*
X106637091Y-108340314D01*
X106591336Y-108287510D01*
X106581392Y-108218352D01*
X106594772Y-108177545D01*
X106615203Y-108139322D01*
X106690232Y-107998954D01*
X106750300Y-107800934D01*
X106770583Y-107595000D01*
X106750300Y-107389066D01*
X106690232Y-107191046D01*
X106592685Y-107008550D01*
X106540702Y-106945209D01*
X106461410Y-106848589D01*
X106301452Y-106717317D01*
X106301453Y-106717317D01*
X106301450Y-106717315D01*
X106118954Y-106619768D01*
X105920934Y-106559700D01*
X105920932Y-106559699D01*
X105920934Y-106559699D01*
X105715000Y-106539417D01*
X105509067Y-106559699D01*
X105311043Y-106619769D01*
X105200898Y-106678643D01*
X105128550Y-106717315D01*
X105128548Y-106717316D01*
X105128547Y-106717317D01*
X104968589Y-106848589D01*
X104837317Y-107008547D01*
X104739769Y-107191043D01*
X104679699Y-107389067D01*
X104659417Y-107595000D01*
X104679699Y-107800932D01*
X104739769Y-107998956D01*
X104835228Y-108177545D01*
X104849470Y-108245948D01*
X104824470Y-108311192D01*
X104768166Y-108352563D01*
X104725870Y-108359999D01*
X102529000Y-108359999D01*
X102461961Y-108340314D01*
X102416206Y-108287510D01*
X102405000Y-108235999D01*
X102405000Y-105054999D01*
X104659417Y-105054999D01*
X104679699Y-105260932D01*
X104679700Y-105260934D01*
X104739768Y-105458954D01*
X104837315Y-105641450D01*
X104837317Y-105641452D01*
X104968589Y-105801410D01*
X105050552Y-105868674D01*
X105128550Y-105932685D01*
X105311046Y-106030232D01*
X105509066Y-106090300D01*
X105509065Y-106090300D01*
X105527529Y-106092118D01*
X105715000Y-106110583D01*
X105920934Y-106090300D01*
X106118954Y-106030232D01*
X106301450Y-105932685D01*
X106461410Y-105801410D01*
X106592685Y-105641450D01*
X106690232Y-105458954D01*
X106750300Y-105260934D01*
X106770583Y-105055000D01*
X107199417Y-105055000D01*
X107219699Y-105260932D01*
X107219700Y-105260934D01*
X107279768Y-105458954D01*
X107377315Y-105641450D01*
X107377317Y-105641452D01*
X107508589Y-105801410D01*
X107590552Y-105868674D01*
X107668550Y-105932685D01*
X107851046Y-106030232D01*
X108049066Y-106090300D01*
X108049065Y-106090300D01*
X108069348Y-106092297D01*
X108255000Y-106110583D01*
X108460934Y-106090300D01*
X108658954Y-106030232D01*
X108841450Y-105932685D01*
X109001410Y-105801410D01*
X109132685Y-105641450D01*
X109230232Y-105458954D01*
X109290300Y-105260934D01*
X109310583Y-105055000D01*
X109290300Y-104849066D01*
X109230232Y-104651046D01*
X109132685Y-104468550D01*
X109070073Y-104392257D01*
X109001410Y-104308589D01*
X108841452Y-104177317D01*
X108841453Y-104177317D01*
X108841450Y-104177315D01*
X108658954Y-104079768D01*
X108460934Y-104019700D01*
X108460932Y-104019699D01*
X108460934Y-104019699D01*
X108255000Y-103999417D01*
X108049067Y-104019699D01*
X107851043Y-104079769D01*
X107817069Y-104097929D01*
X107668550Y-104177315D01*
X107668548Y-104177316D01*
X107668547Y-104177317D01*
X107508589Y-104308589D01*
X107377317Y-104468547D01*
X107279769Y-104651043D01*
X107219699Y-104849067D01*
X107199417Y-105055000D01*
X106770583Y-105055000D01*
X106750300Y-104849066D01*
X106690232Y-104651046D01*
X106592685Y-104468550D01*
X106530073Y-104392257D01*
X106461410Y-104308589D01*
X106301452Y-104177317D01*
X106301453Y-104177317D01*
X106301450Y-104177315D01*
X106118954Y-104079768D01*
X105920934Y-104019700D01*
X105920932Y-104019699D01*
X105920934Y-104019699D01*
X105715000Y-103999417D01*
X105509067Y-104019699D01*
X105311043Y-104079769D01*
X105277069Y-104097929D01*
X105128550Y-104177315D01*
X105128548Y-104177316D01*
X105128547Y-104177317D01*
X104968589Y-104308589D01*
X104837317Y-104468547D01*
X104739769Y-104651043D01*
X104679699Y-104849067D01*
X104659417Y-105054999D01*
X102405000Y-105054999D01*
X102405000Y-102515000D01*
X104659417Y-102515000D01*
X104679699Y-102720932D01*
X104693350Y-102765932D01*
X104739768Y-102918954D01*
X104837315Y-103101450D01*
X104837317Y-103101452D01*
X104968589Y-103261410D01*
X105032774Y-103314084D01*
X105128550Y-103392685D01*
X105311046Y-103490232D01*
X105509066Y-103550300D01*
X105509065Y-103550300D01*
X105529348Y-103552297D01*
X105715000Y-103570583D01*
X105920934Y-103550300D01*
X106118954Y-103490232D01*
X106301450Y-103392685D01*
X106461410Y-103261410D01*
X106592685Y-103101450D01*
X106690232Y-102918954D01*
X106750300Y-102720934D01*
X106770583Y-102515000D01*
X107199417Y-102515000D01*
X107219699Y-102720932D01*
X107233350Y-102765932D01*
X107279768Y-102918954D01*
X107377315Y-103101450D01*
X107377317Y-103101452D01*
X107508589Y-103261410D01*
X107572774Y-103314084D01*
X107668550Y-103392685D01*
X107851046Y-103490232D01*
X108049066Y-103550300D01*
X108049065Y-103550300D01*
X108069348Y-103552297D01*
X108255000Y-103570583D01*
X108460934Y-103550300D01*
X108658954Y-103490232D01*
X108841450Y-103392685D01*
X109001410Y-103261410D01*
X109132685Y-103101450D01*
X109230232Y-102918954D01*
X109290300Y-102720934D01*
X109310583Y-102515000D01*
X109290300Y-102309066D01*
X109230232Y-102111046D01*
X109132685Y-101928550D01*
X109080702Y-101865209D01*
X109001410Y-101768589D01*
X108879162Y-101668264D01*
X108841450Y-101637315D01*
X108671554Y-101546502D01*
X108658956Y-101539769D01*
X108658955Y-101539768D01*
X108658954Y-101539768D01*
X108460934Y-101479700D01*
X108460932Y-101479699D01*
X108460934Y-101479699D01*
X108262777Y-101460183D01*
X108255000Y-101459417D01*
X108254999Y-101459417D01*
X108049067Y-101479699D01*
X107851043Y-101539769D01*
X107740898Y-101598643D01*
X107668550Y-101637315D01*
X107668548Y-101637316D01*
X107668547Y-101637317D01*
X107508589Y-101768589D01*
X107377317Y-101928547D01*
X107377315Y-101928550D01*
X107353343Y-101973398D01*
X107279769Y-102111043D01*
X107219699Y-102309067D01*
X107199417Y-102515000D01*
X106770583Y-102515000D01*
X106750300Y-102309066D01*
X106690232Y-102111046D01*
X106592685Y-101928550D01*
X106540702Y-101865209D01*
X106461410Y-101768589D01*
X106339162Y-101668264D01*
X106301450Y-101637315D01*
X106131554Y-101546502D01*
X106118956Y-101539769D01*
X106118955Y-101539768D01*
X106118954Y-101539768D01*
X105920934Y-101479700D01*
X105920932Y-101479699D01*
X105920934Y-101479699D01*
X105715000Y-101459417D01*
X105509067Y-101479699D01*
X105311043Y-101539769D01*
X105200898Y-101598643D01*
X105128550Y-101637315D01*
X105128548Y-101637316D01*
X105128547Y-101637317D01*
X104968589Y-101768589D01*
X104837317Y-101928547D01*
X104837315Y-101928550D01*
X104813343Y-101973398D01*
X104739769Y-102111043D01*
X104679699Y-102309067D01*
X104659417Y-102515000D01*
X102405000Y-102515000D01*
X102405000Y-99974999D01*
X104659417Y-99974999D01*
X104679699Y-100180932D01*
X104679700Y-100180934D01*
X104739768Y-100378954D01*
X104837315Y-100561450D01*
X104871969Y-100603677D01*
X104968589Y-100721410D01*
X105065209Y-100800702D01*
X105128550Y-100852685D01*
X105311046Y-100950232D01*
X105509066Y-101010300D01*
X105509065Y-101010300D01*
X105527529Y-101012118D01*
X105715000Y-101030583D01*
X105920934Y-101010300D01*
X106118954Y-100950232D01*
X106301450Y-100852685D01*
X106461410Y-100721410D01*
X106592685Y-100561450D01*
X106690232Y-100378954D01*
X106750300Y-100180934D01*
X106770583Y-99975000D01*
X106750300Y-99769066D01*
X106690232Y-99571046D01*
X106592685Y-99388550D01*
X106534605Y-99317779D01*
X106461410Y-99228589D01*
X106301452Y-99097317D01*
X106301453Y-99097317D01*
X106301450Y-99097315D01*
X106118954Y-98999768D01*
X105920934Y-98939700D01*
X105920932Y-98939699D01*
X105920934Y-98939699D01*
X105715000Y-98919417D01*
X105509067Y-98939699D01*
X105311043Y-98999769D01*
X105238743Y-99038415D01*
X105128550Y-99097315D01*
X105128548Y-99097316D01*
X105128547Y-99097317D01*
X104968589Y-99228589D01*
X104837317Y-99388547D01*
X104837315Y-99388550D01*
X104813020Y-99434003D01*
X104739769Y-99571043D01*
X104679699Y-99769067D01*
X104659417Y-99974999D01*
X102405000Y-99974999D01*
X102405000Y-97435000D01*
X104659417Y-97435000D01*
X104679699Y-97640932D01*
X104705690Y-97726613D01*
X104739768Y-97838954D01*
X104837315Y-98021450D01*
X104871969Y-98063677D01*
X104968589Y-98181410D01*
X104999535Y-98206806D01*
X105128550Y-98312685D01*
X105311046Y-98410232D01*
X105509066Y-98470300D01*
X105509065Y-98470300D01*
X105527529Y-98472118D01*
X105715000Y-98490583D01*
X105920934Y-98470300D01*
X106118954Y-98410232D01*
X106301450Y-98312685D01*
X106461410Y-98181410D01*
X106592685Y-98021450D01*
X106690232Y-97838954D01*
X106750300Y-97640934D01*
X106770583Y-97435000D01*
X106750300Y-97229066D01*
X106690232Y-97031046D01*
X106592685Y-96848550D01*
X106535945Y-96779412D01*
X106461410Y-96688589D01*
X106301452Y-96557317D01*
X106301453Y-96557317D01*
X106301450Y-96557315D01*
X106118954Y-96459768D01*
X105920934Y-96399700D01*
X105920932Y-96399699D01*
X105920934Y-96399699D01*
X105715000Y-96379417D01*
X105509067Y-96399699D01*
X105311043Y-96459769D01*
X105244264Y-96495464D01*
X105128550Y-96557315D01*
X105128548Y-96557316D01*
X105128547Y-96557317D01*
X104968589Y-96688589D01*
X104837317Y-96848547D01*
X104739769Y-97031043D01*
X104679699Y-97229067D01*
X104659417Y-97435000D01*
X102405000Y-97435000D01*
X102405000Y-94895000D01*
X104659417Y-94895000D01*
X104679699Y-95100932D01*
X104679700Y-95100934D01*
X104739768Y-95298954D01*
X104837315Y-95481450D01*
X104837317Y-95481452D01*
X104968589Y-95641410D01*
X105064046Y-95719748D01*
X105128550Y-95772685D01*
X105311046Y-95870232D01*
X105509066Y-95930300D01*
X105509065Y-95930300D01*
X105529348Y-95932297D01*
X105715000Y-95950583D01*
X105920934Y-95930300D01*
X106118954Y-95870232D01*
X106301450Y-95772685D01*
X106461410Y-95641410D01*
X106592685Y-95481450D01*
X106690232Y-95298954D01*
X106750300Y-95100934D01*
X106770583Y-94895000D01*
X107199417Y-94895000D01*
X107219699Y-95100932D01*
X107219700Y-95100934D01*
X107279768Y-95298954D01*
X107377315Y-95481450D01*
X107377317Y-95481452D01*
X107508589Y-95641410D01*
X107604046Y-95719748D01*
X107668550Y-95772685D01*
X107851046Y-95870232D01*
X108049066Y-95930300D01*
X108049065Y-95930300D01*
X108069348Y-95932297D01*
X108255000Y-95950583D01*
X108460934Y-95930300D01*
X108658954Y-95870232D01*
X108841450Y-95772685D01*
X109001410Y-95641410D01*
X109132685Y-95481450D01*
X109230232Y-95298954D01*
X109290300Y-95100934D01*
X109310583Y-94895000D01*
X109290300Y-94689066D01*
X109230232Y-94491046D01*
X109132685Y-94308550D01*
X109037145Y-94192133D01*
X109001410Y-94148589D01*
X108841452Y-94017317D01*
X108841453Y-94017317D01*
X108841450Y-94017315D01*
X108658954Y-93919768D01*
X108460934Y-93859700D01*
X108460932Y-93859699D01*
X108460934Y-93859699D01*
X108260919Y-93840000D01*
X108255000Y-93839417D01*
X108254999Y-93839417D01*
X108049067Y-93859699D01*
X107851043Y-93919769D01*
X107831903Y-93930000D01*
X107668550Y-94017315D01*
X107668548Y-94017316D01*
X107668547Y-94017317D01*
X107508589Y-94148589D01*
X107377317Y-94308547D01*
X107279769Y-94491043D01*
X107219699Y-94689067D01*
X107199417Y-94895000D01*
X106770583Y-94895000D01*
X106750300Y-94689066D01*
X106690232Y-94491046D01*
X106592685Y-94308550D01*
X106497145Y-94192133D01*
X106461410Y-94148589D01*
X106301452Y-94017317D01*
X106301453Y-94017317D01*
X106301450Y-94017315D01*
X106118954Y-93919768D01*
X105920934Y-93859700D01*
X105920932Y-93859699D01*
X105920934Y-93859699D01*
X105715000Y-93839417D01*
X105509067Y-93859699D01*
X105311043Y-93919769D01*
X105291903Y-93930000D01*
X105128550Y-94017315D01*
X105128548Y-94017316D01*
X105128547Y-94017317D01*
X104968589Y-94148589D01*
X104837317Y-94308547D01*
X104739769Y-94491043D01*
X104679699Y-94689067D01*
X104659417Y-94895000D01*
X102405000Y-94895000D01*
X102405000Y-92354999D01*
X104659417Y-92354999D01*
X104679699Y-92560932D01*
X104679700Y-92560934D01*
X104739768Y-92758954D01*
X104837315Y-92941450D01*
X104871969Y-92983677D01*
X104968589Y-93101410D01*
X105055085Y-93172394D01*
X105128550Y-93232685D01*
X105311046Y-93330232D01*
X105509066Y-93390300D01*
X105509065Y-93390300D01*
X105527529Y-93392118D01*
X105715000Y-93410583D01*
X105920934Y-93390300D01*
X106118954Y-93330232D01*
X106301450Y-93232685D01*
X106461410Y-93101410D01*
X106592685Y-92941450D01*
X106690232Y-92758954D01*
X106750300Y-92560934D01*
X106770583Y-92355000D01*
X107199417Y-92355000D01*
X107219699Y-92560932D01*
X107219700Y-92560934D01*
X107279768Y-92758954D01*
X107377315Y-92941450D01*
X107411969Y-92983677D01*
X107508589Y-93101410D01*
X107595085Y-93172394D01*
X107668550Y-93232685D01*
X107851046Y-93330232D01*
X108049066Y-93390300D01*
X108049065Y-93390300D01*
X108069348Y-93392297D01*
X108255000Y-93410583D01*
X108460934Y-93390300D01*
X108658954Y-93330232D01*
X108841450Y-93232685D01*
X109001410Y-93101410D01*
X109132685Y-92941450D01*
X109230232Y-92758954D01*
X109290300Y-92560934D01*
X109310583Y-92355000D01*
X109290300Y-92149066D01*
X109230232Y-91951046D01*
X109132685Y-91768550D01*
X109069108Y-91691081D01*
X109001410Y-91608589D01*
X108841452Y-91477317D01*
X108841453Y-91477317D01*
X108841450Y-91477315D01*
X108658954Y-91379768D01*
X108460934Y-91319700D01*
X108460932Y-91319699D01*
X108460934Y-91319699D01*
X108273463Y-91301235D01*
X108255000Y-91299417D01*
X108254999Y-91299417D01*
X108049067Y-91319699D01*
X107851043Y-91379769D01*
X107740898Y-91438643D01*
X107668550Y-91477315D01*
X107668548Y-91477316D01*
X107668547Y-91477317D01*
X107508589Y-91608589D01*
X107377317Y-91768547D01*
X107279769Y-91951043D01*
X107219699Y-92149067D01*
X107199417Y-92355000D01*
X106770583Y-92355000D01*
X106750300Y-92149066D01*
X106690232Y-91951046D01*
X106592685Y-91768550D01*
X106529108Y-91691081D01*
X106461410Y-91608589D01*
X106301452Y-91477317D01*
X106301453Y-91477317D01*
X106301450Y-91477315D01*
X106118954Y-91379768D01*
X105920934Y-91319700D01*
X105920932Y-91319699D01*
X105920934Y-91319699D01*
X105733463Y-91301235D01*
X105715000Y-91299417D01*
X105714999Y-91299417D01*
X105509067Y-91319699D01*
X105311043Y-91379769D01*
X105200898Y-91438643D01*
X105128550Y-91477315D01*
X105128548Y-91477316D01*
X105128547Y-91477317D01*
X104968589Y-91608589D01*
X104837317Y-91768547D01*
X104739769Y-91951043D01*
X104679699Y-92149067D01*
X104659417Y-92354999D01*
X102405000Y-92354999D01*
X102405000Y-89814999D01*
X104659417Y-89814999D01*
X104679699Y-90020932D01*
X104679700Y-90020934D01*
X104739768Y-90218954D01*
X104837315Y-90401450D01*
X104837317Y-90401452D01*
X104968589Y-90561410D01*
X105027797Y-90610000D01*
X105128550Y-90692685D01*
X105311046Y-90790232D01*
X105509066Y-90850300D01*
X105509065Y-90850300D01*
X105527529Y-90852118D01*
X105715000Y-90870583D01*
X105920934Y-90850300D01*
X106118954Y-90790232D01*
X106301450Y-90692685D01*
X106461410Y-90561410D01*
X106592685Y-90401450D01*
X106690232Y-90218954D01*
X106750300Y-90020934D01*
X106770583Y-89815000D01*
X106770583Y-89814999D01*
X107199417Y-89814999D01*
X107219699Y-90020932D01*
X107219700Y-90020934D01*
X107279768Y-90218954D01*
X107377315Y-90401450D01*
X107377317Y-90401452D01*
X107508589Y-90561410D01*
X107567797Y-90610000D01*
X107668550Y-90692685D01*
X107851046Y-90790232D01*
X108049066Y-90850300D01*
X108049065Y-90850300D01*
X108067529Y-90852118D01*
X108255000Y-90870583D01*
X108460934Y-90850300D01*
X108658954Y-90790232D01*
X108841450Y-90692685D01*
X109001410Y-90561410D01*
X109132685Y-90401450D01*
X109230232Y-90218954D01*
X109290300Y-90020934D01*
X109310583Y-89815000D01*
X109290300Y-89609066D01*
X109230232Y-89411046D01*
X109132685Y-89228550D01*
X109063834Y-89144654D01*
X109001410Y-89068589D01*
X108841452Y-88937317D01*
X108841453Y-88937317D01*
X108841450Y-88937315D01*
X108658954Y-88839768D01*
X108460934Y-88779700D01*
X108460932Y-88779699D01*
X108460934Y-88779699D01*
X108273463Y-88761235D01*
X108255000Y-88759417D01*
X108254999Y-88759417D01*
X108049067Y-88779699D01*
X107851043Y-88839769D01*
X107747034Y-88895364D01*
X107668550Y-88937315D01*
X107668548Y-88937316D01*
X107668547Y-88937317D01*
X107508589Y-89068589D01*
X107377317Y-89228547D01*
X107377315Y-89228550D01*
X107357406Y-89265797D01*
X107279769Y-89411043D01*
X107219699Y-89609067D01*
X107199417Y-89814999D01*
X106770583Y-89814999D01*
X106750300Y-89609066D01*
X106690232Y-89411046D01*
X106592685Y-89228550D01*
X106523834Y-89144654D01*
X106461410Y-89068589D01*
X106301452Y-88937317D01*
X106301453Y-88937317D01*
X106301450Y-88937315D01*
X106118954Y-88839768D01*
X105920934Y-88779700D01*
X105920932Y-88779699D01*
X105920934Y-88779699D01*
X105715000Y-88759417D01*
X105509067Y-88779699D01*
X105311043Y-88839769D01*
X105207034Y-88895364D01*
X105128550Y-88937315D01*
X105128548Y-88937316D01*
X105128547Y-88937317D01*
X104968589Y-89068589D01*
X104837317Y-89228547D01*
X104837315Y-89228550D01*
X104817406Y-89265797D01*
X104739769Y-89411043D01*
X104679699Y-89609067D01*
X104659417Y-89814999D01*
X102405000Y-89814999D01*
X102405000Y-87275000D01*
X104659417Y-87275000D01*
X104679699Y-87480932D01*
X104679700Y-87480934D01*
X104739768Y-87678954D01*
X104837315Y-87861450D01*
X104837317Y-87861452D01*
X104968589Y-88021410D01*
X105054217Y-88091682D01*
X105128550Y-88152685D01*
X105311046Y-88250232D01*
X105509066Y-88310300D01*
X105509065Y-88310300D01*
X105527529Y-88312118D01*
X105715000Y-88330583D01*
X105920934Y-88310300D01*
X106118954Y-88250232D01*
X106301450Y-88152685D01*
X106461410Y-88021410D01*
X106592685Y-87861450D01*
X106690232Y-87678954D01*
X106750300Y-87480934D01*
X106770583Y-87275000D01*
X106770583Y-87274999D01*
X107199417Y-87274999D01*
X107219699Y-87480932D01*
X107219700Y-87480934D01*
X107279768Y-87678954D01*
X107377315Y-87861450D01*
X107377317Y-87861452D01*
X107508589Y-88021410D01*
X107594217Y-88091682D01*
X107668550Y-88152685D01*
X107851046Y-88250232D01*
X108049066Y-88310300D01*
X108049065Y-88310300D01*
X108069348Y-88312297D01*
X108255000Y-88330583D01*
X108460934Y-88310300D01*
X108658954Y-88250232D01*
X108841450Y-88152685D01*
X109001410Y-88021410D01*
X109132685Y-87861450D01*
X109230232Y-87678954D01*
X109290300Y-87480934D01*
X109310583Y-87275000D01*
X109290300Y-87069066D01*
X109230232Y-86871046D01*
X109132685Y-86688550D01*
X109080702Y-86625209D01*
X109001410Y-86528589D01*
X108867636Y-86418805D01*
X108841450Y-86397315D01*
X108658954Y-86299768D01*
X108460934Y-86239700D01*
X108460932Y-86239699D01*
X108460934Y-86239699D01*
X108273463Y-86221235D01*
X108255000Y-86219417D01*
X108254999Y-86219417D01*
X108049067Y-86239699D01*
X107851043Y-86299769D01*
X107798387Y-86327915D01*
X107668550Y-86397315D01*
X107668548Y-86397316D01*
X107668547Y-86397317D01*
X107508589Y-86528589D01*
X107377317Y-86688547D01*
X107279769Y-86871043D01*
X107219699Y-87069067D01*
X107199417Y-87274999D01*
X106770583Y-87274999D01*
X106750300Y-87069066D01*
X106690232Y-86871046D01*
X106592685Y-86688550D01*
X106540702Y-86625209D01*
X106461410Y-86528589D01*
X106327636Y-86418805D01*
X106301450Y-86397315D01*
X106118954Y-86299768D01*
X105920934Y-86239700D01*
X105920932Y-86239699D01*
X105920934Y-86239699D01*
X105715000Y-86219417D01*
X105509067Y-86239699D01*
X105311043Y-86299769D01*
X105258387Y-86327915D01*
X105128550Y-86397315D01*
X105128548Y-86397316D01*
X105128547Y-86397317D01*
X104968589Y-86528589D01*
X104837317Y-86688547D01*
X104739769Y-86871043D01*
X104679699Y-87069067D01*
X104659417Y-87275000D01*
X102405000Y-87275000D01*
X102405000Y-84084000D01*
X102424685Y-84016961D01*
X102477489Y-83971206D01*
X102529000Y-83960000D01*
X104540500Y-83960000D01*
X104607539Y-83979685D01*
G37*
G04 #@! TD.AperFunction*
G04 #@! TA.AperFunction,Conductor*
G36*
X109538718Y-86161446D02*
G01*
X109538719Y-86161453D01*
X109556976Y-86257157D01*
X109570473Y-86327915D01*
X109595320Y-86458164D01*
X109688659Y-86745431D01*
X109688661Y-86745436D01*
X109817265Y-87018732D01*
X109817268Y-87018738D01*
X109979111Y-87273763D01*
X110171652Y-87506505D01*
X110391836Y-87713272D01*
X110391846Y-87713280D01*
X110636193Y-87890808D01*
X110636205Y-87890816D01*
X110700275Y-87926039D01*
X110749539Y-87975586D01*
X110764195Y-88043901D01*
X110739591Y-88109295D01*
X110711079Y-88134528D01*
X110711336Y-88134834D01*
X110703021Y-88141810D01*
X110677004Y-88172815D01*
X110673350Y-88176804D01*
X109686803Y-89163351D01*
X109682814Y-89167006D01*
X109651805Y-89193026D01*
X109631562Y-89228087D01*
X109628656Y-89232647D01*
X109605446Y-89265794D01*
X109603206Y-89270598D01*
X109596229Y-89287442D01*
X109594410Y-89292440D01*
X109587383Y-89332292D01*
X109586212Y-89337572D01*
X109575735Y-89376672D01*
X109579264Y-89416994D01*
X109579500Y-89422401D01*
X109579500Y-93458078D01*
X109579264Y-93463485D01*
X109575735Y-93503808D01*
X109586212Y-93542910D01*
X109587383Y-93548190D01*
X109594411Y-93588043D01*
X109596235Y-93593055D01*
X109603197Y-93609861D01*
X109605445Y-93614681D01*
X109605446Y-93614684D01*
X109619452Y-93634687D01*
X109628655Y-93647831D01*
X109631561Y-93652392D01*
X109651806Y-93687455D01*
X109682815Y-93713475D01*
X109686805Y-93717131D01*
X110908224Y-94938551D01*
X110941709Y-94999874D01*
X110943639Y-95041178D01*
X110924355Y-95199999D01*
X110944859Y-95368869D01*
X110944860Y-95368874D01*
X111005182Y-95527931D01*
X111048026Y-95590000D01*
X111101817Y-95667929D01*
X111198040Y-95753175D01*
X111229150Y-95780736D01*
X111379773Y-95859789D01*
X111379775Y-95859790D01*
X111544944Y-95900500D01*
X111715056Y-95900500D01*
X111880225Y-95859790D01*
X111998641Y-95797640D01*
X112030849Y-95780736D01*
X112030850Y-95780734D01*
X112030852Y-95780734D01*
X112038771Y-95773717D01*
X112102001Y-95743995D01*
X112171265Y-95753175D01*
X112224102Y-95797640D01*
X112255447Y-95844552D01*
X112321769Y-95888867D01*
X112321770Y-95888868D01*
X112380247Y-95900499D01*
X112380250Y-95900500D01*
X112380252Y-95900500D01*
X113419750Y-95900500D01*
X113419751Y-95900499D01*
X113434568Y-95897552D01*
X113478229Y-95888868D01*
X113478229Y-95888867D01*
X113478231Y-95888867D01*
X113544552Y-95844552D01*
X113588867Y-95778231D01*
X113588867Y-95778229D01*
X113588868Y-95778229D01*
X113600499Y-95719752D01*
X113600500Y-95719750D01*
X113600500Y-94680249D01*
X113600499Y-94680247D01*
X113588868Y-94621770D01*
X113588867Y-94621769D01*
X113544552Y-94555447D01*
X113478230Y-94511132D01*
X113478229Y-94511131D01*
X113419752Y-94499500D01*
X113419748Y-94499500D01*
X112380252Y-94499500D01*
X112380247Y-94499500D01*
X112341572Y-94507193D01*
X112271980Y-94500966D01*
X112216803Y-94458102D01*
X112193559Y-94392212D01*
X112209627Y-94324216D01*
X112215321Y-94315150D01*
X112254818Y-94257930D01*
X112315140Y-94098872D01*
X112335645Y-93930000D01*
X112315140Y-93761128D01*
X112314144Y-93758503D01*
X112259601Y-93614683D01*
X112254818Y-93602070D01*
X112248595Y-93593055D01*
X112217627Y-93548190D01*
X112158183Y-93462071D01*
X112074363Y-93387813D01*
X112037238Y-93328626D01*
X112038006Y-93258761D01*
X112074363Y-93202186D01*
X112158183Y-93127929D01*
X112254818Y-92987930D01*
X112315140Y-92828872D01*
X112335645Y-92660000D01*
X112315140Y-92491128D01*
X112303744Y-92461080D01*
X112254817Y-92332068D01*
X112220476Y-92282318D01*
X112158183Y-92192071D01*
X112074363Y-92117813D01*
X112037238Y-92058626D01*
X112038006Y-91988761D01*
X112074363Y-91932186D01*
X112158183Y-91857929D01*
X112162946Y-91851028D01*
X112217223Y-91807035D01*
X112286671Y-91799371D01*
X112349238Y-91830469D01*
X112367047Y-91851019D01*
X112371815Y-91857927D01*
X112499150Y-91970736D01*
X112649773Y-92049789D01*
X112649775Y-92049790D01*
X112814944Y-92090500D01*
X112985056Y-92090500D01*
X113150225Y-92049790D01*
X113190816Y-92028485D01*
X113217874Y-92014285D01*
X113286382Y-92000559D01*
X113351435Y-92026051D01*
X113392380Y-92082667D01*
X113399500Y-92124081D01*
X113399500Y-92304474D01*
X113399264Y-92309881D01*
X113395735Y-92350204D01*
X113406212Y-92389306D01*
X113407383Y-92394586D01*
X113414411Y-92434439D01*
X113416235Y-92439451D01*
X113423197Y-92456257D01*
X113425445Y-92461077D01*
X113425446Y-92461080D01*
X113433439Y-92472495D01*
X113448655Y-92494227D01*
X113451561Y-92498788D01*
X113471806Y-92533851D01*
X113502815Y-92559871D01*
X113506805Y-92563527D01*
X113928180Y-92984903D01*
X113961665Y-93046226D01*
X113964499Y-93072584D01*
X113964500Y-93725561D01*
X113960275Y-93757654D01*
X113960047Y-93758502D01*
X113962854Y-93790584D01*
X113963237Y-93794956D01*
X113963576Y-93798823D01*
X113963812Y-93804230D01*
X113963812Y-94370998D01*
X113963576Y-94376405D01*
X113960047Y-94416728D01*
X113970524Y-94455830D01*
X113971695Y-94461110D01*
X113978723Y-94500963D01*
X113980547Y-94505975D01*
X113987509Y-94522781D01*
X113989757Y-94527601D01*
X113989758Y-94527604D01*
X114003764Y-94547607D01*
X114012967Y-94560751D01*
X114015873Y-94565312D01*
X114036118Y-94600375D01*
X114067127Y-94626395D01*
X114071117Y-94630051D01*
X114778181Y-95337115D01*
X114811666Y-95398438D01*
X114814500Y-95424796D01*
X114814499Y-96295764D01*
X114794814Y-96362804D01*
X114742010Y-96408558D01*
X114706685Y-96418703D01*
X114597860Y-96433030D01*
X114583238Y-96434956D01*
X114583237Y-96434956D01*
X114437160Y-96495463D01*
X114311718Y-96591718D01*
X114215463Y-96717160D01*
X114154954Y-96863241D01*
X114152852Y-96871089D01*
X114151198Y-96870645D01*
X114126888Y-96925589D01*
X114068561Y-96964056D01*
X114032221Y-96969500D01*
X113680105Y-96969500D01*
X113664386Y-96971569D01*
X113630513Y-96976028D01*
X113630511Y-96976029D01*
X113630509Y-96976029D01*
X113605092Y-96987882D01*
X113552687Y-96999500D01*
X112766354Y-96999500D01*
X112708413Y-96985130D01*
X112702882Y-96982207D01*
X112574700Y-96937353D01*
X112544270Y-96934500D01*
X112544266Y-96934500D01*
X110935734Y-96934500D01*
X110935730Y-96934500D01*
X110905300Y-96937353D01*
X110905298Y-96937353D01*
X110777119Y-96982206D01*
X110777117Y-96982207D01*
X110667850Y-97062850D01*
X110587207Y-97172117D01*
X110587206Y-97172119D01*
X110542353Y-97300298D01*
X110542353Y-97300300D01*
X110539500Y-97330730D01*
X110539500Y-97939269D01*
X110542353Y-97969699D01*
X110543964Y-97977073D01*
X110542698Y-97977349D01*
X110545861Y-98039327D01*
X110511130Y-98099954D01*
X110449136Y-98132179D01*
X110425258Y-98134500D01*
X109530000Y-98134500D01*
X109530000Y-86022866D01*
X109538718Y-86161446D01*
G37*
G04 #@! TD.AperFunction*
G04 #@! TA.AperFunction,Conductor*
G36*
X118443039Y-88302185D02*
G01*
X118488794Y-88354989D01*
X118500000Y-88406500D01*
X118500000Y-90079132D01*
X118480315Y-90146171D01*
X118427511Y-90191926D01*
X118386813Y-90202660D01*
X118378965Y-90203346D01*
X118368478Y-90204264D01*
X118363079Y-90204500D01*
X117561947Y-90204500D01*
X117553848Y-90203969D01*
X117519901Y-90199500D01*
X117160105Y-90199500D01*
X117144386Y-90201569D01*
X117110513Y-90206028D01*
X117110511Y-90206029D01*
X117110509Y-90206029D01*
X117001683Y-90256776D01*
X116916776Y-90341683D01*
X116866027Y-90450514D01*
X116859500Y-90500098D01*
X116859500Y-90919894D01*
X116859501Y-90919900D01*
X116866028Y-90969487D01*
X116866028Y-90969488D01*
X116867267Y-90978894D01*
X116864339Y-90979279D01*
X116864224Y-91033675D01*
X116826529Y-91092196D01*
X116815118Y-91102085D01*
X116815109Y-91102093D01*
X116797965Y-91118889D01*
X116797158Y-91119681D01*
X116797153Y-91119686D01*
X116752508Y-91199501D01*
X116732826Y-91266527D01*
X116724500Y-91324436D01*
X116724500Y-92665500D01*
X116704815Y-92732539D01*
X116652011Y-92778294D01*
X116600500Y-92789500D01*
X115977584Y-92789500D01*
X115910545Y-92769815D01*
X115889903Y-92753181D01*
X115441196Y-92304474D01*
X114986816Y-91850094D01*
X114953333Y-91788774D01*
X114950500Y-91762425D01*
X114950500Y-91280284D01*
X114970185Y-91213244D01*
X115022989Y-91167490D01*
X115092147Y-91157546D01*
X115121946Y-91165721D01*
X115192738Y-91195044D01*
X115271118Y-91205362D01*
X115349499Y-91215682D01*
X115349500Y-91215682D01*
X115349501Y-91215682D01*
X115401753Y-91208802D01*
X115506262Y-91195044D01*
X115652341Y-91134536D01*
X115777782Y-91038282D01*
X115874036Y-90912841D01*
X115934544Y-90766762D01*
X115949923Y-90649945D01*
X115955182Y-90610001D01*
X115955182Y-90609998D01*
X115934544Y-90453239D01*
X115934544Y-90453238D01*
X115874036Y-90307159D01*
X115777782Y-90181718D01*
X115652341Y-90085464D01*
X115637054Y-90079132D01*
X115552047Y-90043921D01*
X115497644Y-90000080D01*
X115475579Y-89933786D01*
X115475500Y-89929360D01*
X115475500Y-88951639D01*
X115495185Y-88884600D01*
X115511264Y-88866339D01*
X115511221Y-88866303D01*
X115518192Y-88857995D01*
X115518192Y-88857994D01*
X115518194Y-88857993D01*
X115531700Y-88834598D01*
X115551401Y-88808923D01*
X116041506Y-88318819D01*
X116102830Y-88285334D01*
X116129188Y-88282500D01*
X118376000Y-88282500D01*
X118443039Y-88302185D01*
G37*
G04 #@! TD.AperFunction*
G04 #@! TA.AperFunction,Conductor*
G36*
X113910000Y-84507867D02*
G01*
X113870888Y-84446236D01*
X113757719Y-84309438D01*
X113678349Y-84213496D01*
X113678342Y-84213489D01*
X113636707Y-84174391D01*
X113601313Y-84114150D01*
X113604107Y-84044336D01*
X113644201Y-83987115D01*
X113708866Y-83960655D01*
X113721591Y-83960000D01*
X113910000Y-83960000D01*
X113910000Y-84507867D01*
G37*
G04 #@! TD.AperFunction*
G04 #@! TA.AperFunction,Conductor*
G36*
X131913039Y-93039685D02*
G01*
X131958794Y-93092489D01*
X131970000Y-93144000D01*
X131970000Y-94638532D01*
X131950315Y-94705571D01*
X131900635Y-94748619D01*
X131900967Y-94749242D01*
X131898237Y-94750696D01*
X131897511Y-94751326D01*
X131895388Y-94752215D01*
X131813408Y-94795902D01*
X131813405Y-94795904D01*
X131760605Y-94841659D01*
X131760604Y-94841660D01*
X131742654Y-94859247D01*
X131742650Y-94859253D01*
X131698008Y-94939061D01*
X131698008Y-94939062D01*
X131678322Y-95006105D01*
X131669999Y-95063998D01*
X131669999Y-95069999D01*
X131650314Y-95137038D01*
X131597510Y-95182793D01*
X131545999Y-95193999D01*
X131023988Y-95193999D01*
X130980317Y-95198695D01*
X130980308Y-95198696D01*
X130980307Y-95198697D01*
X130928801Y-95209903D01*
X130926143Y-95210552D01*
X130918628Y-95212388D01*
X130837916Y-95255398D01*
X130837913Y-95255400D01*
X130785110Y-95301155D01*
X130767159Y-95318742D01*
X130767156Y-95318745D01*
X130751612Y-95346535D01*
X130701705Y-95395433D01*
X130643392Y-95410000D01*
X130136580Y-95410000D01*
X130069541Y-95390315D01*
X130048899Y-95373681D01*
X130016318Y-95341100D01*
X129982833Y-95279777D01*
X129980000Y-95253428D01*
X129980000Y-95006574D01*
X129999684Y-94939539D01*
X130016313Y-94918902D01*
X130536691Y-94398524D01*
X130598012Y-94365041D01*
X130608165Y-94363271D01*
X130677262Y-94354175D01*
X130823341Y-94293667D01*
X130948782Y-94197413D01*
X131045036Y-94071972D01*
X131105544Y-93925893D01*
X131126182Y-93769131D01*
X131105544Y-93612369D01*
X131105543Y-93612367D01*
X131105543Y-93612365D01*
X131103440Y-93604515D01*
X131105468Y-93603971D01*
X131099196Y-93545596D01*
X131126346Y-93487782D01*
X131482838Y-93064159D01*
X131541066Y-93025540D01*
X131577715Y-93020000D01*
X131846000Y-93020000D01*
X131913039Y-93039685D01*
G37*
G04 #@! TD.AperFunction*
G04 #@! TA.AperFunction,Conductor*
G36*
X149983039Y-97949685D02*
G01*
X150028794Y-98002489D01*
X150040000Y-98054000D01*
X150040000Y-98506878D01*
X150038738Y-98524525D01*
X150034500Y-98554000D01*
X150034500Y-99074138D01*
X150035090Y-99085144D01*
X150035090Y-99085145D01*
X150038511Y-99116961D01*
X150038513Y-99116970D01*
X150062470Y-99193478D01*
X150062471Y-99193483D01*
X150076872Y-99219855D01*
X150095956Y-99254805D01*
X150095958Y-99254808D01*
X150095960Y-99254811D01*
X150130998Y-99301615D01*
X150131002Y-99301619D01*
X150131009Y-99301629D01*
X150131016Y-99301636D01*
X150555519Y-99726140D01*
X150555520Y-99726140D01*
X150555524Y-99726144D01*
X150580035Y-99747079D01*
X150578828Y-99746204D01*
X150593638Y-99758851D01*
X150637444Y-99802657D01*
X150660247Y-99834043D01*
X150673155Y-99859376D01*
X150685143Y-99896267D01*
X150688472Y-99917279D01*
X150690000Y-99936683D01*
X150690000Y-100337952D01*
X150690385Y-100346837D01*
X150693007Y-100377055D01*
X150693978Y-100384498D01*
X150694500Y-100392528D01*
X150694500Y-100476000D01*
X150674815Y-100543039D01*
X150622011Y-100588794D01*
X150570500Y-100600000D01*
X148404000Y-100600000D01*
X148336961Y-100580315D01*
X148291206Y-100527511D01*
X148280000Y-100476000D01*
X148280000Y-99738465D01*
X148299685Y-99671426D01*
X148316319Y-99650784D01*
X148410284Y-99556819D01*
X148471607Y-99523334D01*
X148497965Y-99520500D01*
X148504317Y-99520500D01*
X148520601Y-99518356D01*
X148553173Y-99514068D01*
X148660404Y-99464065D01*
X148744065Y-99380404D01*
X148794068Y-99273173D01*
X148800500Y-99224316D01*
X148800500Y-98775684D01*
X148800499Y-98775682D01*
X148800133Y-98770081D01*
X148800000Y-98766025D01*
X148800000Y-98054000D01*
X148819685Y-97986961D01*
X148872489Y-97941206D01*
X148924000Y-97930000D01*
X149916000Y-97930000D01*
X149983039Y-97949685D01*
G37*
G04 #@! TD.AperFunction*
G04 #@! TA.AperFunction,Conductor*
G36*
X132593039Y-94959685D02*
G01*
X132638794Y-95012489D01*
X132650000Y-95064000D01*
X132650000Y-95576000D01*
X132630315Y-95643039D01*
X132577511Y-95688794D01*
X132526000Y-95700000D01*
X131024000Y-95700000D01*
X130956961Y-95680315D01*
X130911206Y-95627511D01*
X130900000Y-95576000D01*
X130900000Y-95523499D01*
X130919685Y-95456460D01*
X130972489Y-95410705D01*
X131023995Y-95399499D01*
X131638400Y-95399499D01*
X131715117Y-95384240D01*
X131750050Y-95360898D01*
X131816728Y-95340020D01*
X131818942Y-95340000D01*
X131850000Y-95340000D01*
X131850000Y-95288504D01*
X131859440Y-95241049D01*
X131860241Y-95239114D01*
X131875499Y-95162404D01*
X131875500Y-95162401D01*
X131875499Y-95063999D01*
X131895183Y-94996962D01*
X131947986Y-94951206D01*
X131999499Y-94940000D01*
X132526000Y-94940000D01*
X132593039Y-94959685D01*
G37*
G04 #@! TD.AperFunction*
G04 #@! TA.AperFunction,Conductor*
G36*
X137165057Y-102049685D02*
G01*
X137185699Y-102066319D01*
X138072266Y-102952886D01*
X138072269Y-102952888D01*
X138080448Y-102960237D01*
X138080446Y-102960236D01*
X138105376Y-102980325D01*
X138176424Y-103017490D01*
X138243456Y-103037173D01*
X138243458Y-103037173D01*
X138243464Y-103037175D01*
X138301362Y-103045500D01*
X138301366Y-103045500D01*
X139215500Y-103045500D01*
X139282539Y-103065185D01*
X139328294Y-103117989D01*
X139339500Y-103169500D01*
X139339500Y-103669752D01*
X139351131Y-103728229D01*
X139351132Y-103728230D01*
X139395447Y-103794552D01*
X139444391Y-103827255D01*
X139489196Y-103880867D01*
X139499500Y-103930357D01*
X139499500Y-104616551D01*
X139497279Y-104681578D01*
X139507553Y-104723739D01*
X139508738Y-104729978D01*
X139514650Y-104772978D01*
X139521591Y-104788959D01*
X139528330Y-104808997D01*
X139532457Y-104825931D01*
X139553724Y-104863754D01*
X139556550Y-104869443D01*
X139573843Y-104909258D01*
X139584845Y-104922781D01*
X139596739Y-104940258D01*
X139605274Y-104955437D01*
X139605277Y-104955441D01*
X139635956Y-104986120D01*
X139640213Y-104990837D01*
X139667611Y-105024513D01*
X139681852Y-105034565D01*
X139698023Y-105048187D01*
X140325505Y-105675670D01*
X140352002Y-105704041D01*
X140368966Y-105722206D01*
X140369908Y-105723214D01*
X140369910Y-105723215D01*
X140369911Y-105723216D01*
X140406989Y-105745763D01*
X140412231Y-105749330D01*
X140446823Y-105775562D01*
X140463028Y-105781952D01*
X140481965Y-105791357D01*
X140496858Y-105800414D01*
X140538658Y-105812125D01*
X140544661Y-105814145D01*
X140585044Y-105830070D01*
X140602384Y-105831852D01*
X140623153Y-105835800D01*
X140633497Y-105838698D01*
X140639928Y-105840500D01*
X140683321Y-105840500D01*
X140689661Y-105840824D01*
X140732844Y-105845264D01*
X140750017Y-105842302D01*
X140771086Y-105840500D01*
X143420769Y-105840500D01*
X143485794Y-105842721D01*
X143527971Y-105832442D01*
X143534173Y-105831263D01*
X143577196Y-105825350D01*
X143593173Y-105818409D01*
X143613221Y-105811667D01*
X143630149Y-105807543D01*
X143667992Y-105786263D01*
X143673647Y-105783455D01*
X143713476Y-105766156D01*
X143726996Y-105755155D01*
X143744468Y-105743262D01*
X143759660Y-105734722D01*
X143790359Y-105704022D01*
X143795037Y-105699800D01*
X143828731Y-105672389D01*
X143836008Y-105662078D01*
X143890749Y-105618660D01*
X143937314Y-105609585D01*
X145868975Y-105609585D01*
X145929509Y-105625365D01*
X145969063Y-105647490D01*
X146036102Y-105667175D01*
X146094000Y-105675500D01*
X147611000Y-105675500D01*
X147678039Y-105695185D01*
X147723794Y-105747989D01*
X147735000Y-105799500D01*
X147735000Y-108235998D01*
X147715315Y-108303037D01*
X147662511Y-108348792D01*
X147611000Y-108359998D01*
X145057966Y-108359998D01*
X144990927Y-108340313D01*
X144945172Y-108287509D01*
X144935228Y-108218351D01*
X144959588Y-108160514D01*
X145034536Y-108062841D01*
X145095044Y-107916762D01*
X145110500Y-107799361D01*
X145110500Y-107220639D01*
X145095044Y-107103238D01*
X145034536Y-106957159D01*
X144938282Y-106831718D01*
X144812841Y-106735464D01*
X144804367Y-106731954D01*
X144666762Y-106674956D01*
X144666760Y-106674955D01*
X144510001Y-106654318D01*
X144509999Y-106654318D01*
X144353239Y-106674955D01*
X144353237Y-106674956D01*
X144207160Y-106735463D01*
X144081718Y-106831718D01*
X143983376Y-106959880D01*
X143926947Y-107001082D01*
X143857201Y-107005237D01*
X143796281Y-106971024D01*
X143786624Y-106959880D01*
X143767301Y-106934698D01*
X143688282Y-106831718D01*
X143562841Y-106735464D01*
X143554367Y-106731954D01*
X143416762Y-106674956D01*
X143416760Y-106674955D01*
X143260001Y-106654318D01*
X143259999Y-106654318D01*
X143103239Y-106674955D01*
X143103237Y-106674956D01*
X142957160Y-106735463D01*
X142831715Y-106831720D01*
X142777955Y-106901782D01*
X142721527Y-106942985D01*
X142651781Y-106947139D01*
X142590861Y-106912926D01*
X142569098Y-106882593D01*
X142538050Y-106821658D01*
X142538049Y-106821657D01*
X142538045Y-106821652D01*
X142448347Y-106731954D01*
X142448344Y-106731952D01*
X142448342Y-106731950D01*
X142371517Y-106692805D01*
X142335301Y-106674352D01*
X142241524Y-106659500D01*
X141778482Y-106659500D01*
X141697519Y-106672323D01*
X141684696Y-106674354D01*
X141571658Y-106731950D01*
X141571657Y-106731951D01*
X141571652Y-106731954D01*
X141481954Y-106821652D01*
X141481951Y-106821657D01*
X141481950Y-106821658D01*
X141469216Y-106846650D01*
X141424352Y-106934698D01*
X141409500Y-107028475D01*
X141409500Y-107991517D01*
X141420292Y-108059657D01*
X141424354Y-108085304D01*
X141472454Y-108179706D01*
X141485350Y-108248372D01*
X141459074Y-108313112D01*
X141401968Y-108353370D01*
X141361969Y-108359998D01*
X137767966Y-108359998D01*
X137700927Y-108340313D01*
X137655172Y-108287509D01*
X137645228Y-108218351D01*
X137669588Y-108160514D01*
X137744536Y-108062841D01*
X137805044Y-107916762D01*
X137820500Y-107799361D01*
X137820500Y-107220639D01*
X137805044Y-107103238D01*
X137744536Y-106957159D01*
X137648282Y-106831718D01*
X137522841Y-106735464D01*
X137514367Y-106731954D01*
X137376762Y-106674956D01*
X137376760Y-106674955D01*
X137220001Y-106654318D01*
X137219999Y-106654318D01*
X137063239Y-106674955D01*
X137063237Y-106674956D01*
X136917160Y-106735463D01*
X136791718Y-106831718D01*
X136693376Y-106959880D01*
X136636947Y-107001082D01*
X136567201Y-107005237D01*
X136506281Y-106971024D01*
X136496624Y-106959880D01*
X136477301Y-106934698D01*
X136398282Y-106831718D01*
X136272841Y-106735464D01*
X136264367Y-106731954D01*
X136126762Y-106674956D01*
X136126760Y-106674955D01*
X135970001Y-106654318D01*
X135969999Y-106654318D01*
X135813239Y-106674955D01*
X135813237Y-106674956D01*
X135667160Y-106735463D01*
X135541715Y-106831720D01*
X135487955Y-106901782D01*
X135431527Y-106942985D01*
X135361781Y-106947139D01*
X135300861Y-106912926D01*
X135279098Y-106882593D01*
X135248050Y-106821658D01*
X135248049Y-106821657D01*
X135248045Y-106821652D01*
X135158347Y-106731954D01*
X135158344Y-106731952D01*
X135158342Y-106731950D01*
X135081517Y-106692805D01*
X135045301Y-106674352D01*
X134951524Y-106659500D01*
X134488482Y-106659500D01*
X134407519Y-106672323D01*
X134394696Y-106674354D01*
X134281658Y-106731950D01*
X134281657Y-106731951D01*
X134281652Y-106731954D01*
X134191954Y-106821652D01*
X134191951Y-106821657D01*
X134191950Y-106821658D01*
X134179216Y-106846650D01*
X134134352Y-106934698D01*
X134119500Y-107028475D01*
X134119500Y-107991517D01*
X134130292Y-108059657D01*
X134134354Y-108085304D01*
X134182454Y-108179706D01*
X134195350Y-108248372D01*
X134169074Y-108313112D01*
X134111968Y-108353370D01*
X134071969Y-108359998D01*
X132354000Y-108359998D01*
X132286961Y-108340313D01*
X132241206Y-108287509D01*
X132230000Y-108235998D01*
X132230000Y-108121346D01*
X132234226Y-108089251D01*
X132234263Y-108089113D01*
X132234263Y-108089112D01*
X132230733Y-108048769D01*
X132230499Y-108043413D01*
X132230499Y-106976617D01*
X132230735Y-106971210D01*
X132233205Y-106942985D01*
X132234264Y-106930888D01*
X132234263Y-106930887D01*
X132234264Y-106930885D01*
X132234225Y-106930739D01*
X132230000Y-106898648D01*
X132230000Y-105894500D01*
X132249685Y-105827461D01*
X132302489Y-105781706D01*
X132354000Y-105770500D01*
X132358681Y-105770500D01*
X132358682Y-105770500D01*
X132361306Y-105770009D01*
X132369859Y-105769016D01*
X132371083Y-105768959D01*
X132400830Y-105767585D01*
X132407160Y-105764789D01*
X132434467Y-105756332D01*
X132441271Y-105755061D01*
X132467635Y-105738736D01*
X132475230Y-105734733D01*
X132503603Y-105722206D01*
X132508499Y-105717309D01*
X132530907Y-105699561D01*
X132536790Y-105695919D01*
X132555487Y-105671158D01*
X132561104Y-105664703D01*
X133653989Y-104571819D01*
X133715313Y-104538334D01*
X133741671Y-104535500D01*
X134252997Y-104535500D01*
X134261571Y-104536095D01*
X134273599Y-104537772D01*
X134273599Y-104537771D01*
X134273603Y-104537773D01*
X134316758Y-104535778D01*
X134321348Y-104535566D01*
X134324211Y-104535500D01*
X134343681Y-104535500D01*
X134343682Y-104535500D01*
X134346306Y-104535009D01*
X134354859Y-104534016D01*
X134356083Y-104533959D01*
X134385830Y-104532585D01*
X134392160Y-104529789D01*
X134419467Y-104521332D01*
X134426271Y-104520061D01*
X134452635Y-104503736D01*
X134460230Y-104499733D01*
X134488603Y-104487206D01*
X134493499Y-104482309D01*
X134515907Y-104464561D01*
X134521790Y-104460919D01*
X134540487Y-104436158D01*
X134546104Y-104429703D01*
X134958059Y-104017748D01*
X134964532Y-104012117D01*
X134974224Y-104004797D01*
X134974228Y-104004796D01*
X135006459Y-103969438D01*
X135008367Y-103967440D01*
X135022174Y-103953635D01*
X135023684Y-103951430D01*
X135029023Y-103944689D01*
X135038803Y-103933961D01*
X135049916Y-103921771D01*
X135052416Y-103915316D01*
X135065749Y-103890020D01*
X135069656Y-103884319D01*
X135076757Y-103854123D01*
X135079292Y-103845939D01*
X135090500Y-103817011D01*
X135090500Y-103810085D01*
X135093795Y-103781693D01*
X135095378Y-103774961D01*
X135095379Y-103774957D01*
X135091095Y-103744246D01*
X135090500Y-103735671D01*
X135090500Y-102525508D01*
X135091095Y-102516932D01*
X135092771Y-102504909D01*
X135092773Y-102504905D01*
X135090566Y-102457160D01*
X135090500Y-102454297D01*
X135090500Y-102434829D01*
X135090499Y-102434823D01*
X135090009Y-102432203D01*
X135089016Y-102423650D01*
X135087585Y-102392678D01*
X135084786Y-102386340D01*
X135076333Y-102359043D01*
X135075061Y-102352237D01*
X135058740Y-102325877D01*
X135054734Y-102318277D01*
X135051581Y-102311137D01*
X135042510Y-102241859D01*
X135072334Y-102178674D01*
X135077319Y-102173387D01*
X135123299Y-102127407D01*
X135184623Y-102093923D01*
X135210980Y-102091089D01*
X135339998Y-102091089D01*
X135340000Y-102091089D01*
X135361068Y-102084243D01*
X135379984Y-102079701D01*
X135401871Y-102076235D01*
X135421611Y-102066175D01*
X135439578Y-102058733D01*
X135460657Y-102051885D01*
X135460659Y-102051883D01*
X135469353Y-102047454D01*
X135470320Y-102049352D01*
X135523983Y-102030203D01*
X135531068Y-102030000D01*
X137098018Y-102030000D01*
X137165057Y-102049685D01*
G37*
G04 #@! TD.AperFunction*
G04 #@! TA.AperFunction,Conductor*
G36*
X157803039Y-90759685D02*
G01*
X157848794Y-90812489D01*
X157860000Y-90864000D01*
X157860000Y-92086000D01*
X157840315Y-92153039D01*
X157787511Y-92198794D01*
X157736000Y-92210000D01*
X155224000Y-92210000D01*
X155156961Y-92190315D01*
X155111206Y-92137511D01*
X155100000Y-92086000D01*
X155100000Y-90864000D01*
X155119685Y-90796961D01*
X155172489Y-90751206D01*
X155224000Y-90740000D01*
X157736000Y-90740000D01*
X157803039Y-90759685D01*
G37*
G04 #@! TD.AperFunction*
G04 #@! TA.AperFunction,Conductor*
G36*
X115123039Y-86409685D02*
G01*
X115168794Y-86462489D01*
X115180000Y-86514000D01*
X115180000Y-87238310D01*
X115160315Y-87305349D01*
X115143680Y-87325991D01*
X114972162Y-87497511D01*
X114935992Y-87533681D01*
X114874669Y-87567166D01*
X114848311Y-87570000D01*
X114424000Y-87570000D01*
X114356961Y-87550315D01*
X114311206Y-87497511D01*
X114300000Y-87446000D01*
X114300000Y-86514000D01*
X114319685Y-86446961D01*
X114372489Y-86401206D01*
X114424000Y-86390000D01*
X115056000Y-86390000D01*
X115123039Y-86409685D01*
G37*
G04 #@! TD.AperFunction*
G04 #@! TA.AperFunction,Conductor*
G36*
X121841693Y-88302185D02*
G01*
X121862335Y-88318819D01*
X121983681Y-88440165D01*
X122017166Y-88501488D01*
X122020000Y-88527846D01*
X122020000Y-89956000D01*
X122000315Y-90023039D01*
X121947511Y-90068794D01*
X121896000Y-90080000D01*
X120824000Y-90080000D01*
X120756961Y-90060315D01*
X120711206Y-90007511D01*
X120700000Y-89956000D01*
X120700000Y-88406500D01*
X120719685Y-88339461D01*
X120772489Y-88293706D01*
X120824000Y-88282500D01*
X121774654Y-88282500D01*
X121841693Y-88302185D01*
G37*
G04 #@! TD.AperFunction*
G04 #@! TA.AperFunction,Conductor*
G36*
X146553039Y-87849685D02*
G01*
X146598794Y-87902489D01*
X146610000Y-87954000D01*
X146610000Y-92305587D01*
X146590315Y-92372626D01*
X146537511Y-92418381D01*
X146485588Y-92429586D01*
X142517188Y-92416401D01*
X142450214Y-92396494D01*
X142404635Y-92343538D01*
X142394921Y-92274347D01*
X142421746Y-92213738D01*
X142540910Y-92068538D01*
X142633814Y-91894727D01*
X142691024Y-91706132D01*
X142710341Y-91510000D01*
X142691024Y-91313868D01*
X142633814Y-91125273D01*
X142633811Y-91125269D01*
X142633811Y-91125266D01*
X142540913Y-90951467D01*
X142540909Y-90951460D01*
X142415883Y-90799116D01*
X142263539Y-90674090D01*
X142263532Y-90674086D01*
X142089733Y-90581188D01*
X142089727Y-90581186D01*
X141901132Y-90523976D01*
X141901129Y-90523975D01*
X141705000Y-90504659D01*
X141508870Y-90523975D01*
X141320266Y-90581188D01*
X141146467Y-90674086D01*
X141146460Y-90674090D01*
X140994116Y-90799116D01*
X140869090Y-90951460D01*
X140869086Y-90951467D01*
X140776188Y-91125266D01*
X140718975Y-91313870D01*
X140717095Y-91332964D01*
X140690933Y-91397751D01*
X140633898Y-91438109D01*
X140564098Y-91441225D01*
X140503694Y-91406109D01*
X140495316Y-91396294D01*
X140407400Y-91281719D01*
X140407399Y-91281718D01*
X140281958Y-91185464D01*
X140135879Y-91124956D01*
X140135877Y-91124955D01*
X139979118Y-91104318D01*
X139979116Y-91104318D01*
X139822356Y-91124955D01*
X139822354Y-91124956D01*
X139676274Y-91185464D01*
X139613184Y-91233876D01*
X139548015Y-91259070D01*
X139537698Y-91259500D01*
X138636785Y-91259500D01*
X138574640Y-91242803D01*
X138061855Y-90945823D01*
X138013708Y-90895191D01*
X138000000Y-90838520D01*
X138000000Y-87954000D01*
X138019685Y-87886961D01*
X138072489Y-87841206D01*
X138124000Y-87830000D01*
X146486000Y-87830000D01*
X146553039Y-87849685D01*
G37*
G04 #@! TD.AperFunction*
M02*
