G04 #@! TF.GenerationSoftware,KiCad,Pcbnew,7.0.6*
G04 #@! TF.CreationDate,2023-12-21T05:01:06+03:00*
G04 #@! TF.ProjectId,Penguin Junior,50656e67-7569-46e2-904a-756e696f722e,rev?*
G04 #@! TF.SameCoordinates,Original*
G04 #@! TF.FileFunction,Copper,L4,Bot*
G04 #@! TF.FilePolarity,Positive*
%FSLAX46Y46*%
G04 Gerber Fmt 4.6, Leading zero omitted, Abs format (unit mm)*
G04 Created by KiCad (PCBNEW 7.0.6) date 2023-12-21 05:01:06*
%MOMM*%
%LPD*%
G01*
G04 APERTURE LIST*
G04 Aperture macros list*
%AMRoundRect*
0 Rectangle with rounded corners*
0 $1 Rounding radius*
0 $2 $3 $4 $5 $6 $7 $8 $9 X,Y pos of 4 corners*
0 Add a 4 corners polygon primitive as box body*
4,1,4,$2,$3,$4,$5,$6,$7,$8,$9,$2,$3,0*
0 Add four circle primitives for the rounded corners*
1,1,$1+$1,$2,$3*
1,1,$1+$1,$4,$5*
1,1,$1+$1,$6,$7*
1,1,$1+$1,$8,$9*
0 Add four rect primitives between the rounded corners*
20,1,$1+$1,$2,$3,$4,$5,0*
20,1,$1+$1,$4,$5,$6,$7,0*
20,1,$1+$1,$6,$7,$8,$9,0*
20,1,$1+$1,$8,$9,$2,$3,0*%
%AMFreePoly0*
4,1,19,0.550000,-0.750000,0.000000,-0.750000,0.000000,-0.744911,-0.071157,-0.744911,-0.207708,-0.704816,-0.327430,-0.627875,-0.420627,-0.520320,-0.479746,-0.390866,-0.500000,-0.250000,-0.500000,0.250000,-0.479746,0.390866,-0.420627,0.520320,-0.327430,0.627875,-0.207708,0.704816,-0.071157,0.744911,0.000000,0.744911,0.000000,0.750000,0.550000,0.750000,0.550000,-0.750000,0.550000,-0.750000,
$1*%
%AMFreePoly1*
4,1,19,0.000000,0.744911,0.071157,0.744911,0.207708,0.704816,0.327430,0.627875,0.420627,0.520320,0.479746,0.390866,0.500000,0.250000,0.500000,-0.250000,0.479746,-0.390866,0.420627,-0.520320,0.327430,-0.627875,0.207708,-0.704816,0.071157,-0.744911,0.000000,-0.744911,0.000000,-0.750000,-0.550000,-0.750000,-0.550000,0.750000,0.000000,0.750000,0.000000,0.744911,0.000000,0.744911,
$1*%
%AMFreePoly2*
4,1,19,0.500000,-0.750000,0.000000,-0.750000,0.000000,-0.744911,-0.071157,-0.744911,-0.207708,-0.704816,-0.327430,-0.627875,-0.420627,-0.520320,-0.479746,-0.390866,-0.500000,-0.250000,-0.500000,0.250000,-0.479746,0.390866,-0.420627,0.520320,-0.327430,0.627875,-0.207708,0.704816,-0.071157,0.744911,0.000000,0.744911,0.000000,0.750000,0.500000,0.750000,0.500000,-0.750000,0.500000,-0.750000,
$1*%
%AMFreePoly3*
4,1,19,0.000000,0.744911,0.071157,0.744911,0.207708,0.704816,0.327430,0.627875,0.420627,0.520320,0.479746,0.390866,0.500000,0.250000,0.500000,-0.250000,0.479746,-0.390866,0.420627,-0.520320,0.327430,-0.627875,0.207708,-0.704816,0.071157,-0.744911,0.000000,-0.744911,0.000000,-0.750000,-0.500000,-0.750000,-0.500000,0.750000,0.000000,0.750000,0.000000,0.744911,0.000000,0.744911,
$1*%
G04 Aperture macros list end*
G04 #@! TA.AperFunction,ComponentPad*
%ADD10RoundRect,0.200000X0.200000X0.450000X-0.200000X0.450000X-0.200000X-0.450000X0.200000X-0.450000X0*%
G04 #@! TD*
G04 #@! TA.AperFunction,ComponentPad*
%ADD11O,0.800000X1.300000*%
G04 #@! TD*
G04 #@! TA.AperFunction,ComponentPad*
%ADD12C,0.700000*%
G04 #@! TD*
G04 #@! TA.AperFunction,ComponentPad*
%ADD13C,4.400000*%
G04 #@! TD*
G04 #@! TA.AperFunction,ComponentPad*
%ADD14R,1.600000X1.600000*%
G04 #@! TD*
G04 #@! TA.AperFunction,ComponentPad*
%ADD15C,1.600000*%
G04 #@! TD*
G04 #@! TA.AperFunction,ComponentPad*
%ADD16RoundRect,0.200000X-0.200000X-0.450000X0.200000X-0.450000X0.200000X0.450000X-0.200000X0.450000X0*%
G04 #@! TD*
G04 #@! TA.AperFunction,ComponentPad*
%ADD17R,1.700000X1.700000*%
G04 #@! TD*
G04 #@! TA.AperFunction,ComponentPad*
%ADD18O,1.700000X1.700000*%
G04 #@! TD*
G04 #@! TA.AperFunction,ComponentPad*
%ADD19R,1.000000X1.000000*%
G04 #@! TD*
G04 #@! TA.AperFunction,ComponentPad*
%ADD20O,1.000000X1.000000*%
G04 #@! TD*
G04 #@! TA.AperFunction,ComponentPad*
%ADD21O,1.090000X2.000000*%
G04 #@! TD*
G04 #@! TA.AperFunction,ComponentPad*
%ADD22O,1.050000X1.600000*%
G04 #@! TD*
G04 #@! TA.AperFunction,SMDPad,CuDef*
%ADD23RoundRect,0.135000X0.135000X0.185000X-0.135000X0.185000X-0.135000X-0.185000X0.135000X-0.185000X0*%
G04 #@! TD*
G04 #@! TA.AperFunction,SMDPad,CuDef*
%ADD24RoundRect,0.135000X0.185000X-0.135000X0.185000X0.135000X-0.185000X0.135000X-0.185000X-0.135000X0*%
G04 #@! TD*
G04 #@! TA.AperFunction,SMDPad,CuDef*
%ADD25FreePoly0,180.000000*%
G04 #@! TD*
G04 #@! TA.AperFunction,SMDPad,CuDef*
%ADD26R,1.000000X1.500000*%
G04 #@! TD*
G04 #@! TA.AperFunction,SMDPad,CuDef*
%ADD27FreePoly1,180.000000*%
G04 #@! TD*
G04 #@! TA.AperFunction,SMDPad,CuDef*
%ADD28FreePoly2,180.000000*%
G04 #@! TD*
G04 #@! TA.AperFunction,SMDPad,CuDef*
%ADD29FreePoly3,180.000000*%
G04 #@! TD*
G04 #@! TA.AperFunction,SMDPad,CuDef*
%ADD30R,1.910000X0.610000*%
G04 #@! TD*
G04 #@! TA.AperFunction,SMDPad,CuDef*
%ADD31R,1.205000X1.550000*%
G04 #@! TD*
G04 #@! TA.AperFunction,SMDPad,CuDef*
%ADD32RoundRect,0.135000X-0.185000X0.135000X-0.185000X-0.135000X0.185000X-0.135000X0.185000X0.135000X0*%
G04 #@! TD*
G04 #@! TA.AperFunction,SMDPad,CuDef*
%ADD33RoundRect,0.200000X-0.200000X-0.275000X0.200000X-0.275000X0.200000X0.275000X-0.200000X0.275000X0*%
G04 #@! TD*
G04 #@! TA.AperFunction,SMDPad,CuDef*
%ADD34RoundRect,0.200000X0.200000X0.275000X-0.200000X0.275000X-0.200000X-0.275000X0.200000X-0.275000X0*%
G04 #@! TD*
G04 #@! TA.AperFunction,SMDPad,CuDef*
%ADD35RoundRect,0.250000X-0.475000X0.250000X-0.475000X-0.250000X0.475000X-0.250000X0.475000X0.250000X0*%
G04 #@! TD*
G04 #@! TA.AperFunction,SMDPad,CuDef*
%ADD36RoundRect,0.140000X0.140000X0.170000X-0.140000X0.170000X-0.140000X-0.170000X0.140000X-0.170000X0*%
G04 #@! TD*
G04 #@! TA.AperFunction,SMDPad,CuDef*
%ADD37R,1.400000X1.200000*%
G04 #@! TD*
G04 #@! TA.AperFunction,SMDPad,CuDef*
%ADD38RoundRect,0.140000X0.170000X-0.140000X0.170000X0.140000X-0.170000X0.140000X-0.170000X-0.140000X0*%
G04 #@! TD*
G04 #@! TA.AperFunction,SMDPad,CuDef*
%ADD39RoundRect,0.100000X0.100000X-0.637500X0.100000X0.637500X-0.100000X0.637500X-0.100000X-0.637500X0*%
G04 #@! TD*
G04 #@! TA.AperFunction,SMDPad,CuDef*
%ADD40R,5.400000X2.850000*%
G04 #@! TD*
G04 #@! TA.AperFunction,SMDPad,CuDef*
%ADD41RoundRect,0.250001X0.462499X0.624999X-0.462499X0.624999X-0.462499X-0.624999X0.462499X-0.624999X0*%
G04 #@! TD*
G04 #@! TA.AperFunction,SMDPad,CuDef*
%ADD42R,0.700000X1.300000*%
G04 #@! TD*
G04 #@! TA.AperFunction,SMDPad,CuDef*
%ADD43R,1.200000X2.000000*%
G04 #@! TD*
G04 #@! TA.AperFunction,SMDPad,CuDef*
%ADD44R,1.200000X1.400000*%
G04 #@! TD*
G04 #@! TA.AperFunction,SMDPad,CuDef*
%ADD45RoundRect,0.150000X-0.825000X-0.150000X0.825000X-0.150000X0.825000X0.150000X-0.825000X0.150000X0*%
G04 #@! TD*
G04 #@! TA.AperFunction,SMDPad,CuDef*
%ADD46RoundRect,0.225000X0.225000X0.250000X-0.225000X0.250000X-0.225000X-0.250000X0.225000X-0.250000X0*%
G04 #@! TD*
G04 #@! TA.AperFunction,SMDPad,CuDef*
%ADD47RoundRect,0.140000X-0.140000X-0.170000X0.140000X-0.170000X0.140000X0.170000X-0.140000X0.170000X0*%
G04 #@! TD*
G04 #@! TA.AperFunction,SMDPad,CuDef*
%ADD48RoundRect,0.150000X0.150000X-0.587500X0.150000X0.587500X-0.150000X0.587500X-0.150000X-0.587500X0*%
G04 #@! TD*
G04 #@! TA.AperFunction,SMDPad,CuDef*
%ADD49RoundRect,0.250000X0.300000X0.300000X-0.300000X0.300000X-0.300000X-0.300000X0.300000X-0.300000X0*%
G04 #@! TD*
G04 #@! TA.AperFunction,SMDPad,CuDef*
%ADD50RoundRect,0.250000X-0.300000X0.300000X-0.300000X-0.300000X0.300000X-0.300000X0.300000X0.300000X0*%
G04 #@! TD*
G04 #@! TA.AperFunction,SMDPad,CuDef*
%ADD51RoundRect,0.135000X-0.135000X-0.185000X0.135000X-0.185000X0.135000X0.185000X-0.135000X0.185000X0*%
G04 #@! TD*
G04 #@! TA.AperFunction,SMDPad,CuDef*
%ADD52RoundRect,0.250000X-0.400000X-1.450000X0.400000X-1.450000X0.400000X1.450000X-0.400000X1.450000X0*%
G04 #@! TD*
G04 #@! TA.AperFunction,ViaPad*
%ADD53C,0.800000*%
G04 #@! TD*
G04 #@! TA.AperFunction,Conductor*
%ADD54C,0.400000*%
G04 #@! TD*
G04 #@! TA.AperFunction,Conductor*
%ADD55C,0.800000*%
G04 #@! TD*
G04 #@! TA.AperFunction,Conductor*
%ADD56C,0.340000*%
G04 #@! TD*
G04 #@! TA.AperFunction,Conductor*
%ADD57C,0.500000*%
G04 #@! TD*
G04 #@! TA.AperFunction,Conductor*
%ADD58C,1.000000*%
G04 #@! TD*
G04 #@! TA.AperFunction,Conductor*
%ADD59C,0.200000*%
G04 #@! TD*
G04 #@! TA.AperFunction,Conductor*
%ADD60C,0.300000*%
G04 #@! TD*
G04 #@! TA.AperFunction,Conductor*
%ADD61C,0.700000*%
G04 #@! TD*
G04 #@! TA.AperFunction,Conductor*
%ADD62C,0.250000*%
G04 #@! TD*
G04 #@! TA.AperFunction,Conductor*
%ADD63C,0.540000*%
G04 #@! TD*
G04 #@! TA.AperFunction,Conductor*
%ADD64C,0.450000*%
G04 #@! TD*
G04 APERTURE END LIST*
D10*
X132175000Y-84800000D03*
D11*
X130925000Y-84800000D03*
X129675000Y-84800000D03*
X128425000Y-84800000D03*
X127175000Y-84800000D03*
X125925000Y-84800000D03*
D10*
X145200000Y-84800000D03*
D11*
X143950000Y-84800000D03*
X142700000Y-84800000D03*
D12*
X110275000Y-85860000D03*
X110758274Y-84693274D03*
X110758274Y-87026726D03*
X111925000Y-84210000D03*
D13*
X111925000Y-85860000D03*
D12*
X111925000Y-87510000D03*
X113091726Y-84693274D03*
X113091726Y-87026726D03*
X113575000Y-85860000D03*
X148575000Y-106460000D03*
X149058274Y-105293274D03*
X149058274Y-107626726D03*
X150225000Y-104810000D03*
D13*
X150225000Y-106460000D03*
D12*
X150225000Y-108110000D03*
X151391726Y-105293274D03*
X151391726Y-107626726D03*
X151875000Y-106460000D03*
D14*
X141705000Y-89510000D03*
D15*
X141705000Y-91510000D03*
D16*
X142010000Y-107510000D03*
D11*
X143260000Y-107510000D03*
X144510000Y-107510000D03*
X145760000Y-107510000D03*
D17*
X105715000Y-84735000D03*
D18*
X105715000Y-87275000D03*
X105715000Y-89815000D03*
X105715000Y-92355000D03*
X105715000Y-94895000D03*
X105715000Y-97435000D03*
X105715000Y-99975000D03*
X105715000Y-102515000D03*
X105715000Y-105055000D03*
X105715000Y-107595000D03*
D16*
X124930000Y-107510000D03*
D11*
X126180000Y-107510000D03*
X127430000Y-107510000D03*
X128680000Y-107510000D03*
X129930000Y-107510000D03*
X131180000Y-107510000D03*
D19*
X140040000Y-103150000D03*
D20*
X140040000Y-101880000D03*
X141310000Y-103150000D03*
X141310000Y-101880000D03*
X142580000Y-103150000D03*
X142580000Y-101880000D03*
X143850000Y-103150000D03*
X143850000Y-101880000D03*
X145120000Y-103150000D03*
X145120000Y-101880000D03*
D17*
X108255000Y-84735000D03*
D18*
X108255000Y-87275000D03*
X108255000Y-89815000D03*
X108255000Y-92355000D03*
X108255000Y-94895000D03*
X108255000Y-97435000D03*
X108255000Y-99975000D03*
X108255000Y-102515000D03*
X108255000Y-105055000D03*
X108255000Y-107595000D03*
D16*
X134720000Y-107510000D03*
D11*
X135970000Y-107510000D03*
X137220000Y-107510000D03*
X138470000Y-107510000D03*
D21*
X116000000Y-85932000D03*
D22*
X116000000Y-89382000D03*
D21*
X123200000Y-85932000D03*
D22*
X123200000Y-89382000D03*
D12*
X110275000Y-106460000D03*
X110758274Y-105293274D03*
X110758274Y-107626726D03*
X111925000Y-104810000D03*
D13*
X111925000Y-106460000D03*
D12*
X111925000Y-108110000D03*
X113091726Y-105293274D03*
X113091726Y-107626726D03*
X113575000Y-106460000D03*
D19*
X112900000Y-95200000D03*
D20*
X111630000Y-95200000D03*
X112900000Y-93930000D03*
X111630000Y-93930000D03*
X112900000Y-92660000D03*
X111630000Y-92660000D03*
X112900000Y-91390000D03*
X111630000Y-91390000D03*
X112900000Y-90120000D03*
X111630000Y-90120000D03*
D12*
X148575000Y-85860000D03*
X149058274Y-84693274D03*
X149058274Y-87026726D03*
X150225000Y-84210000D03*
D13*
X150225000Y-85860000D03*
D12*
X150225000Y-87510000D03*
X151391726Y-84693274D03*
X151391726Y-87026726D03*
X151875000Y-85860000D03*
D10*
X138690000Y-84800000D03*
D11*
X137440000Y-84800000D03*
X136190000Y-84800000D03*
D17*
X103175000Y-84735000D03*
D18*
X103175000Y-87275000D03*
X103175000Y-89815000D03*
X103175000Y-92355000D03*
X103175000Y-94895000D03*
X103175000Y-97435000D03*
X103175000Y-99975000D03*
X103175000Y-102515000D03*
X103175000Y-105055000D03*
X103175000Y-107595000D03*
D23*
X145710000Y-92650000D03*
X144690000Y-92650000D03*
X112990000Y-99020000D03*
X111970000Y-99020000D03*
D24*
X132800000Y-106100000D03*
X132800000Y-105080000D03*
D25*
X144870000Y-99290000D03*
D26*
X143570000Y-99290000D03*
D27*
X142270000Y-99290000D03*
D24*
X110117500Y-94640000D03*
X110117500Y-93620000D03*
D25*
X144870000Y-96787500D03*
D26*
X143570000Y-96787500D03*
D27*
X142270000Y-96787500D03*
D28*
X112720000Y-97300000D03*
D29*
X111420000Y-97300000D03*
D30*
X147355000Y-94805000D03*
X147355000Y-93535000D03*
X147355000Y-92265000D03*
X147355000Y-90995000D03*
X152915000Y-90995000D03*
X152915000Y-92265000D03*
X152915000Y-93535000D03*
X152915000Y-94805000D03*
D31*
X149532500Y-92125000D03*
X149532500Y-93675000D03*
X150737500Y-92125000D03*
X150737500Y-93675000D03*
D32*
X128300000Y-88580000D03*
X128300000Y-89600000D03*
D23*
X147570000Y-104570000D03*
X146550000Y-104570000D03*
D33*
X141367500Y-87060000D03*
X143017500Y-87060000D03*
D24*
X136650000Y-87140000D03*
X136650000Y-86120000D03*
X111735000Y-103380000D03*
X111735000Y-102360000D03*
D32*
X129240000Y-88580000D03*
X129240000Y-89600000D03*
D34*
X147065000Y-89470000D03*
X145415000Y-89470000D03*
D24*
X110117000Y-91428000D03*
X110117000Y-90408000D03*
D35*
X156455000Y-92158500D03*
X156455000Y-94058500D03*
D32*
X131860000Y-105080000D03*
X131860000Y-106100000D03*
D36*
X138790000Y-100730000D03*
X137830000Y-100730000D03*
D37*
X135790000Y-102660000D03*
X137990000Y-102660000D03*
X137990000Y-104360000D03*
X135790000Y-104360000D03*
D36*
X125310000Y-90050000D03*
X124350000Y-90050000D03*
D24*
X130910000Y-102180000D03*
X130910000Y-101160000D03*
D38*
X124635000Y-86980000D03*
X124635000Y-86020000D03*
D32*
X121375000Y-86605001D03*
X121375000Y-87625001D03*
D39*
X139780000Y-99272500D03*
X139130000Y-99272500D03*
X138480000Y-99272500D03*
X137830000Y-99272500D03*
X137180000Y-99272500D03*
X136530000Y-99272500D03*
X135880000Y-99272500D03*
X135230000Y-99272500D03*
X134580000Y-99272500D03*
X133930000Y-99272500D03*
X133280000Y-99272500D03*
X132630000Y-99272500D03*
X131980000Y-99272500D03*
X131330000Y-99272500D03*
X131330000Y-93547500D03*
X131980000Y-93547500D03*
X132630000Y-93547500D03*
X133280000Y-93547500D03*
X133930000Y-93547500D03*
X134580000Y-93547500D03*
X135230000Y-93547500D03*
X135880000Y-93547500D03*
X136530000Y-93547500D03*
X137180000Y-93547500D03*
X137830000Y-93547500D03*
X138480000Y-93547500D03*
X139130000Y-93547500D03*
X139780000Y-93547500D03*
D40*
X135555000Y-96410000D03*
D41*
X145167500Y-94240000D03*
X142192500Y-94240000D03*
D36*
X135230000Y-92100000D03*
X134270000Y-92100000D03*
D32*
X130910000Y-105370000D03*
X130910000Y-106390000D03*
D24*
X110720000Y-100000000D03*
X110720000Y-98980000D03*
D38*
X143220000Y-92690000D03*
X143220000Y-91730000D03*
D32*
X119600000Y-86605001D03*
X119600000Y-87625001D03*
D36*
X137490000Y-92100000D03*
X136530000Y-92100000D03*
D33*
X145415000Y-87060000D03*
X147065000Y-87060000D03*
D42*
X119798000Y-91393500D03*
X120898000Y-91393500D03*
X121998000Y-91393500D03*
X123098000Y-91393500D03*
X124198000Y-91393500D03*
X125298000Y-91393500D03*
X126398000Y-91393500D03*
X127498000Y-91393500D03*
X128598000Y-91393500D03*
D43*
X114178000Y-101943500D03*
X129698000Y-101943500D03*
D44*
X115018000Y-92243500D03*
X129698000Y-92243500D03*
D23*
X157455000Y-101330000D03*
X156435000Y-101330000D03*
D38*
X155550000Y-102280000D03*
X155550000Y-101320000D03*
D45*
X147465000Y-103305000D03*
X147465000Y-102035000D03*
X147465000Y-100765000D03*
X147465000Y-99495000D03*
X152415000Y-99495000D03*
X152415000Y-100765000D03*
X152415000Y-102035000D03*
X152415000Y-103305000D03*
D38*
X135720000Y-87110000D03*
X135720000Y-86150000D03*
D24*
X117825000Y-87625001D03*
X117825000Y-86605001D03*
D46*
X126175000Y-88860000D03*
X124625000Y-88860000D03*
D47*
X147550000Y-96060000D03*
X148510000Y-96060000D03*
D36*
X151000000Y-98240000D03*
X150040000Y-98240000D03*
D48*
X134030000Y-103667500D03*
X132130000Y-103667500D03*
X133080000Y-101792500D03*
D49*
X130187500Y-86980000D03*
X127387500Y-86980000D03*
D50*
X132140000Y-86980000D03*
X132140000Y-89780000D03*
D32*
X127350000Y-88570000D03*
X127350000Y-89590000D03*
D23*
X157455000Y-102270000D03*
X156435000Y-102270000D03*
D24*
X110520000Y-103770000D03*
X110520000Y-102750000D03*
D36*
X146720000Y-88270000D03*
X145760000Y-88270000D03*
D51*
X147640000Y-98230000D03*
X148660000Y-98230000D03*
D24*
X112940000Y-102900000D03*
X112940000Y-101880000D03*
D52*
X134195000Y-89510000D03*
X138645000Y-89510000D03*
D53*
X140639999Y-107260000D03*
X159455000Y-87410000D03*
X159455000Y-88410000D03*
X154455000Y-89410000D03*
X158455000Y-87410000D03*
X131880000Y-96030000D03*
X155455000Y-87410000D03*
X153455000Y-88410000D03*
X139839999Y-107260000D03*
X154455000Y-86410000D03*
X132629500Y-107260000D03*
X155455000Y-85410000D03*
X156455000Y-89410000D03*
X149540000Y-98330000D03*
X156455000Y-91633500D03*
X158455000Y-89410000D03*
X147340000Y-107260000D03*
X126330000Y-88860000D03*
X153455000Y-85410000D03*
X155455000Y-86410000D03*
X156455000Y-88410000D03*
X153455000Y-86410000D03*
X157455000Y-87410000D03*
X155455000Y-88410000D03*
X156455000Y-86410000D03*
X156455000Y-85410000D03*
X121008136Y-107961000D03*
X158455000Y-88410000D03*
X147340000Y-108060000D03*
X116015600Y-92185600D03*
X157455000Y-89410000D03*
X158455000Y-85410000D03*
X130460000Y-99770000D03*
X155455000Y-89410000D03*
X118810000Y-106280000D03*
X154455000Y-88410000D03*
X159455000Y-86410000D03*
X153455000Y-89410000D03*
X159455000Y-89410000D03*
X140639999Y-108060000D03*
X157455000Y-88410000D03*
X157455000Y-85410000D03*
X156455000Y-84410000D03*
X158455000Y-86410000D03*
X154455000Y-84410000D03*
X130740000Y-90340000D03*
X155455000Y-84410000D03*
X153455000Y-87410000D03*
X158455000Y-84410000D03*
X156455000Y-87410000D03*
X154455000Y-85410000D03*
X157455000Y-86410000D03*
X153470000Y-92265000D03*
X133710000Y-107260000D03*
X158455000Y-90410000D03*
X159455000Y-85410000D03*
X144870000Y-96440000D03*
X152455000Y-89410000D03*
X129557502Y-91985299D03*
X139839999Y-108060000D03*
X115450000Y-91620000D03*
X157455000Y-91633500D03*
X157455000Y-90410000D03*
X157455000Y-84410000D03*
X156455000Y-90410000D03*
X155455000Y-90410000D03*
X154455000Y-87410000D03*
X130190000Y-88570000D03*
X119600000Y-85720000D03*
X146374031Y-105069085D03*
X135732337Y-101380984D03*
X128448398Y-102510000D03*
X129874048Y-98934500D03*
X123920000Y-107260000D03*
X118110000Y-92880000D03*
X150965000Y-98835000D03*
X119410378Y-100660378D03*
X124450000Y-88860000D03*
X114740000Y-97020000D03*
X117650000Y-99330000D03*
X139309059Y-95530500D03*
X139979117Y-91710000D03*
X140710000Y-92550000D03*
X121615500Y-89080000D03*
X148955000Y-96780000D03*
X150080000Y-89330000D03*
X152360000Y-94805000D03*
X149430000Y-89330000D03*
X150080000Y-88680000D03*
X149955000Y-96780000D03*
X149955000Y-95780000D03*
X149430000Y-89980000D03*
X152080000Y-95670000D03*
X153220000Y-94805000D03*
X150080000Y-89980000D03*
X149430000Y-88680000D03*
X149430000Y-90630000D03*
X151360000Y-95160000D03*
X150080000Y-90630000D03*
X148955000Y-95780000D03*
X157455000Y-103910000D03*
X153455000Y-104910000D03*
X154455000Y-105910000D03*
X158455000Y-107910000D03*
X156455000Y-105910000D03*
X159455000Y-104910000D03*
X154455000Y-103910000D03*
X154455000Y-107910000D03*
X154455000Y-104910000D03*
X158455000Y-103910000D03*
X156455000Y-106910000D03*
X155455000Y-106910000D03*
X156455000Y-103910000D03*
X155455000Y-104910000D03*
X153455000Y-106910000D03*
X153455000Y-105910000D03*
X154455000Y-106910000D03*
X156455000Y-107910000D03*
X157455000Y-105910000D03*
X157455000Y-106910000D03*
X158455000Y-105910000D03*
X155455000Y-103910000D03*
X159455000Y-106910000D03*
X157455000Y-107910000D03*
X159455000Y-105910000D03*
X157455000Y-104910000D03*
X156455000Y-104910000D03*
X158455000Y-104910000D03*
X158455000Y-106910000D03*
X155455000Y-105910000D03*
X155455000Y-107910000D03*
X141867500Y-94110000D03*
X141867500Y-94760000D03*
X142517500Y-94760000D03*
X142517500Y-94110000D03*
X117067500Y-105140000D03*
X117067500Y-106600000D03*
X145090000Y-89030000D03*
X138970000Y-89510000D03*
X145090000Y-91630000D03*
X138320000Y-88860000D03*
X138970000Y-90160000D03*
X138970000Y-90810000D03*
X145740000Y-89680000D03*
X145090000Y-90980000D03*
X145090000Y-89680000D03*
X138320000Y-89510000D03*
X138320000Y-88210000D03*
X145740000Y-89030000D03*
X138970000Y-88210000D03*
X138320000Y-90160000D03*
X145740000Y-90980000D03*
X145740000Y-90330000D03*
X138970000Y-88860000D03*
X145090000Y-90330000D03*
X145740000Y-91630000D03*
X138320000Y-90810000D03*
X117930000Y-94340000D03*
X118940000Y-94380000D03*
X119910000Y-93820000D03*
X118770000Y-95590000D03*
X122899500Y-93150000D03*
X122399500Y-94070000D03*
X121899500Y-95059806D03*
X122410000Y-97600000D03*
X114010000Y-98334999D03*
X126200000Y-100080000D03*
X120420000Y-97990000D03*
X119200000Y-98094500D03*
X141145000Y-104260000D03*
X142745000Y-104260000D03*
X141945000Y-104260000D03*
X120642300Y-99817700D03*
X119240000Y-99110000D03*
X123460688Y-101190000D03*
X114880000Y-98850000D03*
X122940000Y-96740000D03*
X125929622Y-97352002D03*
X154455000Y-97807000D03*
X158455000Y-99807000D03*
X155455000Y-95807000D03*
X155455000Y-97807000D03*
X156455000Y-96807000D03*
X157455000Y-96807000D03*
X154455000Y-99807000D03*
X158455000Y-97807000D03*
X156455000Y-94583500D03*
X157455000Y-94583500D03*
X157455000Y-98807000D03*
X154455000Y-98807000D03*
X153505000Y-97807000D03*
X157455000Y-95807000D03*
X153505000Y-96807000D03*
X156455000Y-95807000D03*
X155455000Y-99807000D03*
X156455000Y-99807000D03*
X155455000Y-98807000D03*
X158455000Y-95807000D03*
X154455000Y-95807000D03*
X156455000Y-98807000D03*
X158455000Y-98807000D03*
X155455000Y-96807000D03*
X159455000Y-97807000D03*
X154455000Y-96807000D03*
X155455000Y-94583500D03*
X159455000Y-98807000D03*
X159455000Y-96807000D03*
X158455000Y-96807000D03*
X156455000Y-97807000D03*
X157455000Y-97807000D03*
X157455000Y-99807000D03*
X124404500Y-96902502D03*
X127658635Y-101881365D03*
X130430000Y-96335500D03*
X117620000Y-96814500D03*
X131887999Y-101680000D03*
X134881107Y-100685061D03*
X130430000Y-95110000D03*
X120270000Y-96250000D03*
X125675000Y-94540000D03*
X123680000Y-97841000D03*
X124420000Y-101520000D03*
X134520000Y-89510000D03*
X133870000Y-89510000D03*
X134520000Y-88210000D03*
X133870000Y-90810000D03*
X134520000Y-90810000D03*
X134520000Y-90160000D03*
X141945000Y-100810000D03*
X142745000Y-100810000D03*
X133870000Y-88210000D03*
X134520000Y-88860000D03*
X133870000Y-88860000D03*
X133870000Y-90160000D03*
X141145000Y-100810000D03*
X132140000Y-86180000D03*
X132140000Y-86980000D03*
X132940000Y-86680000D03*
X130187500Y-86980000D03*
X145492500Y-94525000D03*
X132940000Y-85880000D03*
X144842500Y-93875000D03*
X144842500Y-94525000D03*
X145492500Y-93875000D03*
X124720000Y-98010000D03*
X115014312Y-94087615D03*
X126264439Y-98789140D03*
X114780000Y-86790000D03*
X117430000Y-85710000D03*
X115349500Y-90610000D03*
D54*
X125310000Y-89725000D02*
X126175000Y-88860000D01*
D55*
X132629500Y-107260000D02*
X133710000Y-107260000D01*
D56*
X134580000Y-92410000D02*
X134270000Y-92100000D01*
X134580000Y-93547500D02*
X134580000Y-92410000D01*
D55*
X129698000Y-100532000D02*
X129698000Y-101943500D01*
D54*
X125310000Y-90050000D02*
X125310000Y-89725000D01*
D57*
X149993349Y-99065431D02*
X151692918Y-100765000D01*
X125298000Y-91393500D02*
X125298000Y-90050000D01*
D54*
X137440000Y-86406604D02*
X137440000Y-84800000D01*
D57*
X150040000Y-98240000D02*
X149993349Y-98286651D01*
X149993349Y-98286651D02*
X149993349Y-99065431D01*
D58*
X156455000Y-92158500D02*
X156930000Y-92158500D01*
D54*
X136530000Y-92100000D02*
X136530000Y-87316604D01*
D57*
X133830000Y-91660000D02*
X134270000Y-92100000D01*
D58*
X156930000Y-92158500D02*
X157455000Y-91633500D01*
D54*
X136530000Y-87316604D02*
X137440000Y-86406604D01*
D55*
X140639999Y-107260000D02*
X140639999Y-108060000D01*
X139839999Y-107260000D02*
X140639999Y-107260000D01*
D54*
X126420000Y-88810000D02*
X126175000Y-88860000D01*
D55*
X130460000Y-99770000D02*
X129698000Y-100532000D01*
D57*
X132060000Y-91660000D02*
X133830000Y-91660000D01*
D59*
X123390000Y-86020000D02*
X123200000Y-85830000D01*
D54*
X150040000Y-98240000D02*
X149630000Y-98240000D01*
D58*
X157455000Y-91633500D02*
X156455000Y-91633500D01*
D57*
X149392500Y-92265000D02*
X149532500Y-92125000D01*
D54*
X136530000Y-93547500D02*
X136530000Y-92100000D01*
D58*
X156455000Y-91633500D02*
X156455000Y-92158500D01*
D55*
X147340000Y-107260000D02*
X147340000Y-108060000D01*
X140639999Y-108060000D02*
X139839999Y-108060000D01*
D54*
X143220000Y-91730000D02*
X141925000Y-91730000D01*
D55*
X139839999Y-108060000D02*
X139839999Y-107260000D01*
D57*
X130740000Y-90340000D02*
X132060000Y-91660000D01*
D54*
X141925000Y-91730000D02*
X141705000Y-91510000D01*
D55*
X116015600Y-92185600D02*
X115450000Y-91620000D01*
D57*
X151692918Y-100765000D02*
X152415000Y-100765000D01*
D54*
X149630000Y-98240000D02*
X149540000Y-98330000D01*
D57*
X134874939Y-101535061D02*
X135578260Y-101535061D01*
D54*
X131860000Y-106100000D02*
X132856604Y-106100000D01*
D57*
X151000000Y-98240000D02*
X151750000Y-98240000D01*
X124480761Y-106390000D02*
X123920000Y-106950761D01*
D54*
X128280000Y-88580000D02*
X128270000Y-88570000D01*
D57*
X146550000Y-104893116D02*
X146374031Y-105069085D01*
D60*
X148660000Y-98230000D02*
X148660000Y-98149339D01*
D57*
X134505000Y-102596421D02*
X134505000Y-101905000D01*
X134505000Y-101905000D02*
X134874939Y-101535061D01*
D61*
X142270000Y-96787500D02*
X142270000Y-99290000D01*
D56*
X114699482Y-93313500D02*
X113770000Y-94242982D01*
D60*
X149229339Y-97580000D02*
X148090331Y-97580000D01*
D57*
X135578260Y-101535061D02*
X135732337Y-101380984D01*
D54*
X134030000Y-104926604D02*
X134030000Y-103667500D01*
X132856604Y-106100000D02*
X134030000Y-104926604D01*
X130190000Y-88570000D02*
X130180000Y-88580000D01*
D56*
X143020000Y-95560000D02*
X146018751Y-95560000D01*
X142270000Y-96350000D02*
X142700000Y-95920000D01*
X113770000Y-94242982D02*
X113770000Y-95860000D01*
X112720000Y-96910000D02*
X112720000Y-97300000D01*
D57*
X131570000Y-106390000D02*
X124480761Y-106390000D01*
X150965000Y-98835000D02*
X151000000Y-98800000D01*
X131860000Y-106100000D02*
X131570000Y-106390000D01*
D60*
X149229339Y-97580000D02*
X149680000Y-97580000D01*
D57*
X146550000Y-104570000D02*
X146550000Y-104893116D01*
D56*
X142700000Y-95920000D02*
X142700000Y-95880000D01*
X113770000Y-95860000D02*
X112720000Y-96910000D01*
D60*
X148660000Y-98149339D02*
X149229339Y-97580000D01*
D54*
X128270000Y-88570000D02*
X127350000Y-88570000D01*
D56*
X118110000Y-92880000D02*
X117676500Y-93313500D01*
D57*
X134030000Y-103071421D02*
X134505000Y-102596421D01*
D60*
X148090331Y-97580000D02*
X148659670Y-98149339D01*
D57*
X146374031Y-104745969D02*
X146550000Y-104570000D01*
D54*
X130180000Y-88580000D02*
X128280000Y-88580000D01*
D57*
X151000000Y-98800000D02*
X151000000Y-98240000D01*
D56*
X117676500Y-93313500D02*
X114699482Y-93313500D01*
D57*
X123920000Y-106950761D02*
X123920000Y-107260000D01*
D60*
X151000000Y-98197035D02*
X150382965Y-97580000D01*
D57*
X152415000Y-98905000D02*
X152415000Y-99495000D01*
D56*
X142700000Y-95880000D02*
X143020000Y-95560000D01*
D57*
X117825000Y-86605001D02*
X121375000Y-86605001D01*
X119600000Y-85720000D02*
X119600000Y-86605001D01*
D56*
X142270000Y-96787500D02*
X142270000Y-96350000D01*
X146018751Y-95560000D02*
X148038751Y-97580000D01*
D60*
X151000000Y-98240000D02*
X151000000Y-98197035D01*
X150382965Y-97580000D02*
X149680000Y-97580000D01*
D57*
X151750000Y-98240000D02*
X152415000Y-98905000D01*
X146374031Y-105069085D02*
X146374031Y-104745969D01*
X134030000Y-103667500D02*
X134030000Y-103071421D01*
D55*
X114740000Y-97020000D02*
X115340000Y-97020000D01*
X115340000Y-97020000D02*
X117650000Y-99330000D01*
D56*
X137180000Y-93547500D02*
X137180000Y-92410000D01*
D57*
X116765418Y-104200000D02*
X116217500Y-104747918D01*
X116715418Y-107450000D02*
X119680659Y-107450000D01*
D54*
X138690000Y-84800000D02*
X138690000Y-86695761D01*
X135230000Y-93547500D02*
X135230000Y-92100000D01*
D60*
X131180000Y-88750000D02*
X129960000Y-89970000D01*
D54*
X138690000Y-86695761D02*
X137490000Y-87895761D01*
D57*
X120469659Y-106661000D02*
X121546613Y-106661000D01*
D54*
X132991371Y-84800000D02*
X132185000Y-84800000D01*
D57*
X139870000Y-100730000D02*
X138790000Y-100730000D01*
X140430000Y-98407183D02*
X140430000Y-100170000D01*
D55*
X134720000Y-107510000D02*
X134720000Y-106635786D01*
D57*
X127710000Y-103134812D02*
X124915188Y-100340000D01*
D54*
X137490000Y-87895761D02*
X137490000Y-92100000D01*
D57*
X139309059Y-95530500D02*
X139309059Y-97286242D01*
D60*
X133930000Y-92823604D02*
X133930000Y-93547500D01*
X131180000Y-86040000D02*
X131180000Y-88750000D01*
D57*
X116217500Y-106952082D02*
X116715418Y-107450000D01*
D55*
X142010000Y-107045787D02*
X142010000Y-107510000D01*
D54*
X135320000Y-87783675D02*
X134230000Y-86693675D01*
D60*
X138480000Y-99272500D02*
X138480000Y-100420000D01*
D54*
X130470000Y-103350000D02*
X127925188Y-103350000D01*
X130910000Y-102910000D02*
X130470000Y-103350000D01*
D57*
X124915188Y-100340000D02*
X123108606Y-100340000D01*
X124500000Y-108110000D02*
X124930000Y-107680000D01*
D55*
X141224213Y-106260000D02*
X142010000Y-107045787D01*
D54*
X127925188Y-103350000D02*
X127710000Y-103134812D01*
D57*
X123108606Y-100340000D02*
X119248606Y-104200000D01*
X122995613Y-108110000D02*
X124500000Y-108110000D01*
D55*
X135095786Y-106260000D02*
X141224213Y-106260000D01*
D57*
X124930000Y-107680000D02*
X124930000Y-107510000D01*
X119680659Y-107450000D02*
X120469659Y-106661000D01*
D60*
X131550000Y-92260000D02*
X133366396Y-92260000D01*
D54*
X134230000Y-86693675D02*
X134230000Y-86038629D01*
D56*
X137180000Y-92410000D02*
X137490000Y-92100000D01*
D57*
X140430000Y-100170000D02*
X139870000Y-100730000D01*
D60*
X133366396Y-92260000D02*
X133930000Y-92823604D01*
D57*
X121546613Y-106661000D02*
X122995613Y-108110000D01*
X116217500Y-104747918D02*
X116217500Y-106952082D01*
D54*
X134230000Y-86038629D02*
X132991371Y-84800000D01*
X135320000Y-92010000D02*
X135320000Y-87783675D01*
D60*
X129960000Y-90670000D02*
X131550000Y-92260000D01*
D57*
X139309059Y-97286242D02*
X140430000Y-98407183D01*
D60*
X138480000Y-100420000D02*
X138790000Y-100730000D01*
D57*
X119248606Y-104200000D02*
X116765418Y-104200000D01*
D60*
X132175000Y-85045000D02*
X131180000Y-86040000D01*
D55*
X134720000Y-106635786D02*
X135095786Y-106260000D01*
D54*
X130910000Y-102180000D02*
X130910000Y-102910000D01*
D60*
X132175000Y-84810000D02*
X132175000Y-85045000D01*
D54*
X132185000Y-84800000D02*
X132175000Y-84810000D01*
X135230000Y-92100000D02*
X135320000Y-92010000D01*
D60*
X129960000Y-89970000D02*
X129960000Y-90670000D01*
X138882965Y-91710000D02*
X137830000Y-92762965D01*
X139979117Y-91710000D02*
X138882965Y-91710000D01*
X137830000Y-92762965D02*
X137830000Y-93547500D01*
D62*
X140645000Y-92485000D02*
X138853959Y-92485000D01*
X140710000Y-92550000D02*
X140645000Y-92485000D01*
X138480000Y-92858959D02*
X138480000Y-93547500D01*
X138853959Y-92485000D02*
X138480000Y-92858959D01*
D60*
X135880000Y-87270000D02*
X135880000Y-93547500D01*
X135720000Y-87110000D02*
X135880000Y-87270000D01*
D57*
X123612142Y-87382000D02*
X123313500Y-87382000D01*
X123313500Y-87382000D02*
X121615500Y-89080000D01*
X124014142Y-86980000D02*
X123612142Y-87382000D01*
X124635000Y-86980000D02*
X127387500Y-86980000D01*
X124635000Y-86980000D02*
X124014142Y-86980000D01*
X147550000Y-95000000D02*
X147550000Y-96060000D01*
X147355000Y-94805000D02*
X147550000Y-95000000D01*
D55*
X148955000Y-96780000D02*
X149955000Y-96780000D01*
X149430000Y-88680000D02*
X150080000Y-88680000D01*
X150080000Y-88680000D02*
X150080000Y-90630000D01*
X149430000Y-90630000D02*
X149430000Y-88680000D01*
X150080000Y-90630000D02*
X149430000Y-90630000D01*
D57*
X155550000Y-102280000D02*
X154120000Y-102280000D01*
X156425000Y-102280000D02*
X156435000Y-102270000D01*
X153095000Y-103305000D02*
X152415000Y-103305000D01*
X155550000Y-102280000D02*
X156425000Y-102280000D01*
X154120000Y-102280000D02*
X153095000Y-103305000D01*
X157455000Y-102270000D02*
X157455000Y-103910000D01*
X155550000Y-101320000D02*
X153800000Y-101320000D01*
X153085000Y-102035000D02*
X152415000Y-102035000D01*
X156425000Y-101320000D02*
X156435000Y-101330000D01*
X153800000Y-101320000D02*
X153085000Y-102035000D01*
X155550000Y-101320000D02*
X156425000Y-101320000D01*
D63*
X143220000Y-92900000D02*
X142192500Y-93927500D01*
X142192500Y-93927500D02*
X142192500Y-94240000D01*
D55*
X142517500Y-94110000D02*
X142517500Y-94760000D01*
X142517500Y-94760000D02*
X141867500Y-94760000D01*
X141867500Y-94110000D02*
X142517500Y-94110000D01*
D63*
X143220000Y-92690000D02*
X143220000Y-92900000D01*
D55*
X141867500Y-94760000D02*
X141867500Y-94110000D01*
D62*
X131455000Y-104775000D02*
X131760000Y-105080000D01*
X117067500Y-105140000D02*
X117891104Y-105140000D01*
X131760000Y-105080000D02*
X131860000Y-105080000D01*
X118256104Y-104775000D02*
X131455000Y-104775000D01*
X117891104Y-105140000D02*
X118256104Y-104775000D01*
X118297500Y-105370000D02*
X130910000Y-105370000D01*
X117067500Y-106600000D02*
X118297500Y-105370000D01*
D55*
X145740000Y-91630000D02*
X145090000Y-91630000D01*
X138970000Y-90810000D02*
X138320000Y-90810000D01*
X138970000Y-88210000D02*
X138970000Y-90810000D01*
D57*
X144690000Y-92030000D02*
X145090000Y-91630000D01*
D55*
X145740000Y-89030000D02*
X145740000Y-91630000D01*
D57*
X141745000Y-89470000D02*
X141705000Y-89510000D01*
D55*
X145090000Y-89030000D02*
X145740000Y-89030000D01*
X138320000Y-88210000D02*
X138970000Y-88210000D01*
X138320000Y-90810000D02*
X138320000Y-88210000D01*
X145090000Y-91630000D02*
X145090000Y-89030000D01*
D57*
X144690000Y-92650000D02*
X144690000Y-92030000D01*
D62*
X119798000Y-92225604D02*
X119798000Y-91393500D01*
D54*
X117825000Y-89125000D02*
X117825000Y-87625001D01*
D62*
X117930000Y-94093604D02*
X119798000Y-92225604D01*
D54*
X119798000Y-91098000D02*
X117825000Y-89125000D01*
X119798000Y-91393500D02*
X119798000Y-91098000D01*
D62*
X117930000Y-94340000D02*
X117930000Y-94093604D01*
X120898000Y-91762000D02*
X120898000Y-91393500D01*
X118940000Y-93720000D02*
X120898000Y-91762000D01*
D54*
X120898000Y-90928000D02*
X119600000Y-89630000D01*
D62*
X118940000Y-94380000D02*
X118940000Y-93720000D01*
D54*
X119600000Y-89630000D02*
X119600000Y-87625001D01*
X120898000Y-91393500D02*
X120898000Y-90928000D01*
D62*
X120040000Y-93820000D02*
X121998000Y-91862000D01*
X119910000Y-93820000D02*
X120040000Y-93820000D01*
D54*
X121998000Y-91393500D02*
X121998000Y-90928000D01*
D62*
X121998000Y-91862000D02*
X121998000Y-91393500D01*
D54*
X120815500Y-89745500D02*
X120815500Y-88184501D01*
X120815500Y-88184501D02*
X121375000Y-87625001D01*
X121998000Y-90928000D02*
X120815500Y-89745500D01*
D62*
X119228821Y-95131179D02*
X119624126Y-95131179D01*
X123540000Y-92420000D02*
X124198000Y-91762000D01*
X119624126Y-95131179D02*
X122335305Y-92420000D01*
X118770000Y-95590000D02*
X119228821Y-95131179D01*
X122335305Y-92420000D02*
X123540000Y-92420000D01*
X124198000Y-91762000D02*
X124198000Y-91393500D01*
X126398000Y-91762000D02*
X126398000Y-91393500D01*
X123627896Y-93150000D02*
X124409396Y-92368500D01*
X125791500Y-92368500D02*
X126398000Y-91762000D01*
D54*
X126398000Y-91393500D02*
X126398000Y-90542000D01*
X126398000Y-90542000D02*
X127350000Y-89590000D01*
D62*
X124409396Y-92368500D02*
X125791500Y-92368500D01*
X122899500Y-93150000D02*
X123627896Y-93150000D01*
D54*
X128280000Y-89736604D02*
X128280000Y-89600000D01*
D62*
X123393799Y-94070000D02*
X124645299Y-92818500D01*
D54*
X127498000Y-91393500D02*
X127498000Y-90518604D01*
D62*
X124645299Y-92818500D02*
X126441500Y-92818500D01*
X127498000Y-91762000D02*
X127498000Y-91393500D01*
X126441500Y-92818500D02*
X127498000Y-91762000D01*
D54*
X127498000Y-90518604D02*
X128280000Y-89736604D01*
D62*
X122399500Y-94070000D02*
X123393799Y-94070000D01*
X121899500Y-95059806D02*
X123040389Y-95059806D01*
X128598000Y-91762000D02*
X128598000Y-91393500D01*
D54*
X128598000Y-90392000D02*
X129230000Y-89760000D01*
D62*
X124831695Y-93268500D02*
X127091500Y-93268500D01*
D54*
X129230000Y-89760000D02*
X129230000Y-89600000D01*
X128598000Y-91393500D02*
X128598000Y-90392000D01*
D62*
X127091500Y-93268500D02*
X128598000Y-91762000D01*
X123040389Y-95059806D02*
X124831695Y-93268500D01*
X111890000Y-99040000D02*
X112555000Y-98375000D01*
X113969999Y-98375000D02*
X114010000Y-98334999D01*
X112555000Y-98375000D02*
X113969999Y-98375000D01*
X125154566Y-99765500D02*
X122869935Y-99765500D01*
X125469066Y-100080000D02*
X125154566Y-99765500D01*
X122758441Y-108686000D02*
X126524000Y-108686000D01*
X126200000Y-100080000D02*
X125469066Y-100080000D01*
X127430000Y-107780000D02*
X127430000Y-107510000D01*
X119918831Y-108025000D02*
X120707831Y-107236000D01*
X115642500Y-107190255D02*
X116477246Y-108025000D01*
X120707831Y-107236000D02*
X121308441Y-107236000D01*
X121308441Y-107236000D02*
X122758441Y-108686000D01*
X126524000Y-108686000D02*
X127430000Y-107780000D01*
X116477246Y-108025000D02*
X119918831Y-108025000D01*
X116527246Y-103625000D02*
X115642500Y-104509746D01*
X119010434Y-103625000D02*
X116527246Y-103625000D01*
X115642500Y-104509746D02*
X115642500Y-107190255D01*
X122869935Y-99765500D02*
X119010434Y-103625000D01*
X146060305Y-108485000D02*
X143935000Y-108485000D01*
X146500000Y-106614110D02*
X146500000Y-108045305D01*
X147465000Y-99495000D02*
X148145000Y-99495000D01*
X149280000Y-103834110D02*
X146500000Y-106614110D01*
X149280000Y-100630000D02*
X149280000Y-103834110D01*
D54*
X147640000Y-99320000D02*
X147465000Y-99495000D01*
D62*
X143260000Y-107810000D02*
X143260000Y-107510000D01*
X148145000Y-99495000D02*
X149280000Y-100630000D01*
X146500000Y-108045305D02*
X146060305Y-108485000D01*
D54*
X147640000Y-98230000D02*
X147640000Y-99320000D01*
D62*
X143935000Y-108485000D02*
X143260000Y-107810000D01*
X148765000Y-101385000D02*
X148765000Y-103651751D01*
X145255000Y-106535000D02*
X144510000Y-107280000D01*
X147430000Y-104710000D02*
X147430000Y-105038421D01*
X144510000Y-107280000D02*
X144510000Y-107510000D01*
X147570000Y-104520000D02*
X147570000Y-104570000D01*
X147430000Y-105038421D02*
X145933421Y-106535000D01*
X148765000Y-103651751D02*
X148486751Y-103930000D01*
X148486751Y-103930000D02*
X148160000Y-103930000D01*
X148160000Y-103930000D02*
X147570000Y-104520000D01*
X147465000Y-100765000D02*
X148145000Y-100765000D01*
X147570000Y-104570000D02*
X147430000Y-104710000D01*
X145933421Y-106535000D02*
X145255000Y-106535000D01*
X148145000Y-100765000D02*
X148765000Y-101385000D01*
D58*
X142580000Y-104095000D02*
X142745000Y-104260000D01*
X141800000Y-103640000D02*
X141800000Y-104115000D01*
X141800000Y-104115000D02*
X141945000Y-104260000D01*
X141145000Y-104260000D02*
X142745000Y-104260000D01*
X142580000Y-103150000D02*
X142580000Y-104095000D01*
X142580000Y-103150000D02*
X141310000Y-103150000D01*
X141310000Y-103150000D02*
X141310000Y-104095000D01*
X141310000Y-104095000D02*
X141145000Y-104260000D01*
X141310000Y-103150000D02*
X141800000Y-103640000D01*
D64*
X111420000Y-97300000D02*
X111420000Y-96740000D01*
X112900000Y-95260000D02*
X112900000Y-95200000D01*
X111420000Y-96740000D02*
X112900000Y-95260000D01*
D59*
X144020000Y-98415736D02*
X144020000Y-98450000D01*
X143570000Y-98900000D02*
X143570000Y-99290000D01*
X147465000Y-103305000D02*
X146795000Y-103305000D01*
X145970000Y-102480000D02*
X145970000Y-101490000D01*
X145710000Y-101230000D02*
X145710000Y-98748629D01*
X144198236Y-98237500D02*
X144020000Y-98415736D01*
X145710000Y-98748629D02*
X145198871Y-98237500D01*
X145198871Y-98237500D02*
X144198236Y-98237500D01*
X144020000Y-98450000D02*
X143570000Y-98900000D01*
X146795000Y-103305000D02*
X145970000Y-102480000D01*
X145970000Y-101490000D02*
X145710000Y-101230000D01*
D60*
X132630000Y-104910000D02*
X132800000Y-105080000D01*
X132630000Y-104540000D02*
X132630000Y-104910000D01*
D62*
X132130000Y-104325000D02*
X125665000Y-104325000D01*
X123460688Y-102120688D02*
X123460688Y-101190000D01*
X125665000Y-104325000D02*
X123460688Y-102120688D01*
D60*
X132130000Y-103667500D02*
X132130000Y-104040000D01*
X132130000Y-104040000D02*
X132630000Y-104540000D01*
D62*
X132130000Y-103667500D02*
X132130000Y-104325000D01*
X114500000Y-99230000D02*
X112900000Y-99230000D01*
X114880000Y-98850000D02*
X114500000Y-99230000D01*
X112900000Y-99230000D02*
X112900000Y-99020000D01*
X110840000Y-100130000D02*
X110710000Y-100000000D01*
D56*
X122940000Y-96740000D02*
X122929806Y-96729806D01*
D62*
X119004195Y-97265000D02*
X118375000Y-97894195D01*
X118375000Y-99630304D02*
X117875304Y-100130000D01*
X120720305Y-97265000D02*
X119004195Y-97265000D01*
X118375000Y-97894195D02*
X118375000Y-99630304D01*
X117875304Y-100130000D02*
X110840000Y-100130000D01*
X122940000Y-96740000D02*
X121245305Y-96740000D01*
X121245305Y-96740000D02*
X120720305Y-97265000D01*
D59*
X125929622Y-97352002D02*
X125929622Y-98130378D01*
X116087185Y-102800000D02*
X115243685Y-103643500D01*
X125929622Y-98130378D02*
X125119500Y-98940500D01*
X112485686Y-103380000D02*
X111735000Y-103380000D01*
X112749186Y-103643500D02*
X112485686Y-103380000D01*
X115243685Y-103643500D02*
X112749186Y-103643500D01*
X118668708Y-102800000D02*
X116087185Y-102800000D01*
X122528208Y-98940500D02*
X118668708Y-102800000D01*
X125119500Y-98940500D02*
X122528208Y-98940500D01*
D58*
X156455000Y-94058500D02*
X155980000Y-94058500D01*
X155455000Y-94583500D02*
X157455000Y-94583500D01*
X155980000Y-94058500D02*
X155455000Y-94583500D01*
X156455000Y-94058500D02*
X156930000Y-94058500D01*
X156930000Y-94058500D02*
X157455000Y-94583500D01*
D57*
X157455000Y-101330000D02*
X157455000Y-99807000D01*
D62*
X127658635Y-101881365D02*
X127678151Y-101861849D01*
X126229927Y-96627002D02*
X125576158Y-96627002D01*
X127678151Y-101861849D02*
X127678151Y-98075226D01*
X125576158Y-96627002D02*
X125300658Y-96902502D01*
X127678151Y-98075226D02*
X126229927Y-96627002D01*
X125300658Y-96902502D02*
X124404500Y-96902502D01*
X123459089Y-95277502D02*
X129372002Y-95277502D01*
X121089500Y-95449500D02*
X121424806Y-95784806D01*
X122199805Y-95784806D02*
X122474805Y-95509806D01*
X117620000Y-96814500D02*
X118575500Y-96814500D01*
X119942201Y-95449500D02*
X121089500Y-95449500D01*
X123226785Y-95509806D02*
X123459089Y-95277502D01*
X129372002Y-95277502D02*
X130430000Y-96335500D01*
X119810522Y-95581179D02*
X119942201Y-95449500D01*
X122474805Y-95509806D02*
X123226785Y-95509806D01*
X121424806Y-95784806D02*
X122199805Y-95784806D01*
X119808821Y-95581179D02*
X119810522Y-95581179D01*
X118575500Y-96814500D02*
X119808821Y-95581179D01*
X120270000Y-96250000D02*
X120285194Y-96234806D01*
X123357987Y-96015000D02*
X123645485Y-95727502D01*
X131155000Y-96635805D02*
X131155000Y-95835000D01*
X126603219Y-95727502D02*
X128595717Y-97720000D01*
X122606007Y-96015000D02*
X123357987Y-96015000D01*
X122386201Y-96234806D02*
X122606007Y-96015000D01*
X130070805Y-97720000D02*
X131155000Y-96635805D01*
X128595717Y-97720000D02*
X130070805Y-97720000D01*
X120285194Y-96234806D02*
X122386201Y-96234806D01*
X131155000Y-95835000D02*
X130430000Y-95110000D01*
X123645485Y-95727502D02*
X126603219Y-95727502D01*
X138390000Y-98160000D02*
X135653959Y-98160000D01*
X138400000Y-94660000D02*
X138580000Y-94840000D01*
X129974695Y-94540000D02*
X130129695Y-94385000D01*
X130129695Y-94385000D02*
X130795000Y-94385000D01*
X131070000Y-94660000D02*
X138400000Y-94660000D01*
X138580000Y-97970000D02*
X138390000Y-98160000D01*
X130795000Y-94385000D02*
X131070000Y-94660000D01*
X135653959Y-98160000D02*
X135230000Y-98583959D01*
X135230000Y-98583959D02*
X135230000Y-99272500D01*
X138580000Y-94840000D02*
X138580000Y-97970000D01*
X125675000Y-94540000D02*
X129974695Y-94540000D01*
X126416823Y-96177502D02*
X128409321Y-98170000D01*
X133930000Y-98583959D02*
X133930000Y-99272500D01*
X123680000Y-96601697D02*
X124104195Y-96177502D01*
X128409321Y-98170000D02*
X133516041Y-98170000D01*
X124104195Y-96177502D02*
X126416823Y-96177502D01*
X133516041Y-98170000D02*
X133930000Y-98583959D01*
X123680000Y-97841000D02*
X123680000Y-96601697D01*
X133930000Y-102358249D02*
X133930000Y-100610334D01*
X131740000Y-102605000D02*
X132476751Y-102605000D01*
X132726751Y-102855000D02*
X133433249Y-102855000D01*
X131505000Y-103258173D02*
X131505000Y-102840000D01*
X133930000Y-100610334D02*
X134580000Y-99960334D01*
X134580000Y-99960334D02*
X134580000Y-99272500D01*
X130888173Y-103875000D02*
X131505000Y-103258173D01*
X131505000Y-102840000D02*
X131740000Y-102605000D01*
X133433249Y-102855000D02*
X133930000Y-102358249D01*
X126775000Y-103875000D02*
X130888173Y-103875000D01*
D59*
X134580000Y-99925685D02*
X134580000Y-99272500D01*
D62*
X124420000Y-101520000D02*
X126775000Y-103875000D01*
X132476751Y-102605000D02*
X132726751Y-102855000D01*
D60*
X137890000Y-104360000D02*
X136940000Y-103410000D01*
X137990000Y-104360000D02*
X137890000Y-104360000D01*
X136940000Y-101835000D02*
X137180000Y-101595000D01*
X136940000Y-103410000D02*
X136940000Y-101835000D01*
X137180000Y-101595000D02*
X137180000Y-99272500D01*
X136440000Y-102010000D02*
X135790000Y-102660000D01*
X136565000Y-101502893D02*
X136440000Y-101627893D01*
X136530000Y-99272500D02*
X136565000Y-99307500D01*
X136440000Y-101627893D02*
X136440000Y-102010000D01*
X136565000Y-99307500D02*
X136565000Y-101502893D01*
D58*
X142580000Y-100975000D02*
X142745000Y-100810000D01*
D55*
X133870000Y-88210000D02*
X134520000Y-88210000D01*
X133870000Y-90810000D02*
X133870000Y-88210000D01*
D58*
X141145000Y-100810000D02*
X141310000Y-100975000D01*
X141310000Y-100975000D02*
X141310000Y-101880000D01*
X141310000Y-101880000D02*
X141310000Y-101445000D01*
X141310000Y-101880000D02*
X142580000Y-101880000D01*
D55*
X134520000Y-90810000D02*
X133870000Y-90810000D01*
D58*
X141145000Y-100810000D02*
X142745000Y-100810000D01*
X142580000Y-101880000D02*
X142580000Y-100975000D01*
X141310000Y-101445000D02*
X141945000Y-100810000D01*
D55*
X134520000Y-88210000D02*
X134520000Y-90810000D01*
X132140000Y-86180000D02*
X132640000Y-86180000D01*
X132640000Y-86180000D02*
X132940000Y-85880000D01*
X145492500Y-93875000D02*
X144842500Y-93875000D01*
X132640000Y-86980000D02*
X132940000Y-86680000D01*
X144842500Y-94525000D02*
X145492500Y-94525000D01*
X132940000Y-85880000D02*
X132940000Y-86680000D01*
X144842500Y-93875000D02*
X144842500Y-94525000D01*
X132140000Y-86980000D02*
X132640000Y-86980000D01*
X145492500Y-94525000D02*
X145492500Y-93875000D01*
X132140000Y-86180000D02*
X132140000Y-86980000D01*
D60*
X133229999Y-101642501D02*
X133229999Y-99322501D01*
X133229999Y-99322501D02*
X133280000Y-99272500D01*
D57*
X132345040Y-100830000D02*
X131240000Y-100830000D01*
X133080000Y-101564960D02*
X132345040Y-100830000D01*
X131240000Y-100830000D02*
X130910000Y-101160000D01*
X133080000Y-101792500D02*
X133080000Y-101564960D01*
D60*
X133080000Y-101792500D02*
X133229999Y-101642501D01*
D59*
X118840000Y-99900000D02*
X116340000Y-102400000D01*
X113283500Y-103243500D02*
X112940000Y-102900000D01*
X116340000Y-102400000D02*
X115921500Y-102400000D01*
X115078000Y-103243500D02*
X113283500Y-103243500D01*
X124189500Y-98540500D02*
X120889500Y-98540500D01*
X115921500Y-102400000D02*
X115078000Y-103243500D01*
X120889500Y-98540500D02*
X119530000Y-99900000D01*
X119530000Y-99900000D02*
X118840000Y-99900000D01*
X124720000Y-98010000D02*
X124189500Y-98540500D01*
D62*
X110762500Y-92073500D02*
X110117000Y-91428000D01*
X110595000Y-95081250D02*
X110153750Y-94640000D01*
X115014312Y-94087615D02*
X114265000Y-94836927D01*
X110795000Y-98385000D02*
X110595000Y-98185000D01*
X114820306Y-98120000D02*
X115175305Y-98120000D01*
X111370000Y-98659462D02*
X111095538Y-98385000D01*
X111659462Y-99680000D02*
X111370000Y-99390538D01*
X110180000Y-94640000D02*
X110762500Y-94057500D01*
X115605000Y-98549695D02*
X115605000Y-99150305D01*
X110762500Y-94057500D02*
X110762500Y-92073500D01*
X111095538Y-98385000D02*
X110795000Y-98385000D01*
X115175305Y-98120000D02*
X115605000Y-98549695D01*
X110595000Y-98185000D02*
X110595000Y-95081250D01*
X114015000Y-96315036D02*
X114015000Y-97320305D01*
X114265000Y-94836927D02*
X114265000Y-96065036D01*
X111370000Y-99390538D02*
X111370000Y-98659462D01*
X115605000Y-99150305D02*
X115075305Y-99680000D01*
X114445306Y-97745000D02*
X114820306Y-98120000D01*
X114439695Y-97745000D02*
X114445306Y-97745000D01*
X110153750Y-94640000D02*
X110117500Y-94640000D01*
X115075305Y-99680000D02*
X111659462Y-99680000D01*
X110117500Y-94640000D02*
X110180000Y-94640000D01*
X114265000Y-96065036D02*
X114015000Y-96315036D01*
X114015000Y-97320305D02*
X114439695Y-97745000D01*
D59*
X115507706Y-104043500D02*
X112583501Y-104043500D01*
X110700000Y-103950000D02*
X110520000Y-103770000D01*
X112490001Y-103950000D02*
X110700000Y-103950000D01*
X126264439Y-98789140D02*
X125713079Y-99340500D01*
X116351206Y-103200000D02*
X115507706Y-104043500D01*
X122693894Y-99340500D02*
X118834394Y-103200000D01*
X118834394Y-103200000D02*
X116351206Y-103200000D01*
X112583501Y-104043500D02*
X112490001Y-103950000D01*
X125713079Y-99340500D02*
X122693894Y-99340500D01*
D54*
X107005000Y-88525000D02*
X108255000Y-87275000D01*
X107005000Y-92872767D02*
X107005000Y-88525000D01*
X107752233Y-93620000D02*
X107005000Y-92872767D01*
X110117500Y-93620000D02*
X107752233Y-93620000D01*
D62*
X116870000Y-86747366D02*
X115228915Y-88388451D01*
X115228915Y-88388451D02*
X109681549Y-88388451D01*
X117430000Y-85710000D02*
X116870000Y-86270000D01*
X109681549Y-88388451D02*
X108255000Y-89815000D01*
X116870000Y-86270000D02*
X116870000Y-86747366D01*
X110705153Y-88838451D02*
X109380000Y-90163604D01*
X115349500Y-90610000D02*
X113577951Y-88838451D01*
X109380000Y-90163604D02*
X109380000Y-91230000D01*
X109380000Y-91230000D02*
X108255000Y-92355000D01*
X113577951Y-88838451D02*
X110705153Y-88838451D01*
X110720000Y-98946396D02*
X110145000Y-98371396D01*
X109395000Y-94895000D02*
X108255000Y-94895000D01*
X110145000Y-95645000D02*
X109395000Y-94895000D01*
X110145000Y-98371396D02*
X110145000Y-95645000D01*
X110720000Y-98980000D02*
X110720000Y-98946396D01*
X112765000Y-101705000D02*
X109065000Y-101705000D01*
X112940000Y-101880000D02*
X112765000Y-101705000D01*
X109065000Y-101705000D02*
X108255000Y-102515000D01*
X111530000Y-102155000D02*
X110144462Y-102155000D01*
X109400000Y-103910000D02*
X108255000Y-105055000D01*
X111735000Y-102360000D02*
X111530000Y-102155000D01*
X110144462Y-102155000D02*
X109400000Y-102899462D01*
X109400000Y-102899462D02*
X109400000Y-103910000D01*
X109400000Y-106450000D02*
X108255000Y-107595000D01*
X109860000Y-103410000D02*
X109860000Y-104954110D01*
X110520000Y-102750000D02*
X109860000Y-103410000D01*
X109860000Y-104954110D02*
X109400000Y-105414110D01*
X109400000Y-105414110D02*
X109400000Y-106450000D01*
D59*
X146410000Y-101321395D02*
X146130000Y-101041395D01*
X146130000Y-101041395D02*
X146130000Y-98602943D01*
X147465000Y-102035000D02*
X146795000Y-102035000D01*
X146795000Y-102035000D02*
X146410000Y-101650000D01*
X144020000Y-97661764D02*
X144020000Y-97630000D01*
X145364557Y-97837500D02*
X144195736Y-97837500D01*
X146410000Y-101650000D02*
X146410000Y-101321395D01*
X144020000Y-97630000D02*
X143570000Y-97180000D01*
X146130000Y-98602943D02*
X145364557Y-97837500D01*
X144195736Y-97837500D02*
X144020000Y-97661764D01*
X143570000Y-97180000D02*
X143570000Y-96787500D01*
D57*
X146595000Y-93535000D02*
X145710000Y-92650000D01*
X147355000Y-93535000D02*
X146595000Y-93535000D01*
D61*
X143017500Y-87060000D02*
X145415000Y-87060000D01*
G04 #@! TA.AperFunction,Conductor*
G36*
X154250036Y-90509685D02*
G01*
X154265190Y-90521155D01*
X155438123Y-91559592D01*
X155475269Y-91618768D01*
X155474524Y-91688633D01*
X155471281Y-91697921D01*
X155440123Y-91776934D01*
X155440122Y-91776936D01*
X155440123Y-91776936D01*
X155429500Y-91865398D01*
X155429500Y-92451602D01*
X155435126Y-92498454D01*
X155440122Y-92540061D01*
X155495639Y-92680843D01*
X155587077Y-92801422D01*
X155707656Y-92892860D01*
X155707657Y-92892860D01*
X155707658Y-92892861D01*
X155848436Y-92948377D01*
X155936898Y-92959000D01*
X156406564Y-92959000D01*
X156413502Y-92959389D01*
X156442400Y-92962645D01*
X156454998Y-92964065D01*
X156455000Y-92964065D01*
X156455002Y-92964065D01*
X156467599Y-92962645D01*
X156496497Y-92959389D01*
X156503436Y-92959000D01*
X156971777Y-92959000D01*
X157038816Y-92978685D01*
X157053971Y-92990156D01*
X157406467Y-93302232D01*
X157938196Y-93772990D01*
X157975342Y-93832167D01*
X157979999Y-93865832D01*
X157980000Y-94736000D01*
X157960316Y-94803039D01*
X157907512Y-94848794D01*
X157856000Y-94860000D01*
X155652415Y-94860000D01*
X155591733Y-94844138D01*
X154230000Y-94080000D01*
X154229999Y-94080000D01*
X151893656Y-94080000D01*
X151826617Y-94060315D01*
X151780862Y-94007511D01*
X151769656Y-93956346D01*
X151768698Y-93612714D01*
X151766971Y-92992871D01*
X151786469Y-92925780D01*
X151839145Y-92879878D01*
X151905266Y-92869355D01*
X151915135Y-92870500D01*
X153085770Y-92870499D01*
X153143396Y-92884703D01*
X153219773Y-92924789D01*
X153219775Y-92924790D01*
X153384944Y-92965500D01*
X153555056Y-92965500D01*
X153720225Y-92924790D01*
X153796603Y-92884702D01*
X153854229Y-92870499D01*
X153914856Y-92870499D01*
X153914864Y-92870499D01*
X153914879Y-92870497D01*
X153914882Y-92870497D01*
X153939987Y-92867586D01*
X153939988Y-92867585D01*
X153939991Y-92867585D01*
X154042765Y-92822206D01*
X154122206Y-92742765D01*
X154167585Y-92639991D01*
X154170500Y-92614865D01*
X154170499Y-92311131D01*
X154170952Y-92303651D01*
X154172797Y-92288447D01*
X154175645Y-92265000D01*
X154170950Y-92226343D01*
X154170499Y-92218865D01*
X154170499Y-91915143D01*
X154170499Y-91915136D01*
X154168693Y-91899561D01*
X154167586Y-91890012D01*
X154167585Y-91890010D01*
X154167585Y-91890009D01*
X154122206Y-91787235D01*
X154042765Y-91707794D01*
X154020405Y-91697921D01*
X153939992Y-91662415D01*
X153914868Y-91659500D01*
X153914865Y-91659500D01*
X153854228Y-91659500D01*
X153796602Y-91645296D01*
X153720226Y-91605210D01*
X153555056Y-91564500D01*
X153384944Y-91564500D01*
X153219774Y-91605209D01*
X153219774Y-91605210D01*
X153143393Y-91645297D01*
X153085769Y-91659500D01*
X151915143Y-91659500D01*
X151915132Y-91659501D01*
X151902842Y-91660926D01*
X151901201Y-91661116D01*
X151832342Y-91649285D01*
X151780809Y-91602103D01*
X151762920Y-91538290D01*
X151760346Y-90614343D01*
X151779844Y-90547251D01*
X151832521Y-90501350D01*
X151884346Y-90490000D01*
X154182997Y-90490000D01*
X154250036Y-90509685D01*
G37*
G04 #@! TD.AperFunction*
G04 #@! TA.AperFunction,Conductor*
G36*
X134795609Y-87829685D02*
G01*
X134816251Y-87846319D01*
X134883181Y-87913249D01*
X134916666Y-87974572D01*
X134919500Y-88000930D01*
X134919500Y-91086000D01*
X134899815Y-91153039D01*
X134847011Y-91198794D01*
X134795500Y-91210000D01*
X133910511Y-91210000D01*
X133903838Y-91209500D01*
X133897902Y-91209500D01*
X133838426Y-91209500D01*
X133778990Y-91207275D01*
X133769756Y-91208316D01*
X133769662Y-91207486D01*
X133754364Y-91209500D01*
X132297966Y-91209500D01*
X132230927Y-91189815D01*
X132210285Y-91173181D01*
X131626319Y-90589215D01*
X131592834Y-90527892D01*
X131590000Y-90501534D01*
X131590000Y-87934000D01*
X131609685Y-87866961D01*
X131662489Y-87821206D01*
X131714000Y-87810000D01*
X134728570Y-87810000D01*
X134795609Y-87829685D01*
G37*
G04 #@! TD.AperFunction*
G04 #@! TA.AperFunction,Conductor*
G36*
X145092077Y-98559685D02*
G01*
X145112719Y-98576319D01*
X145333681Y-98797281D01*
X145367166Y-98858604D01*
X145370000Y-98884962D01*
X145370000Y-101061880D01*
X145350315Y-101128919D01*
X145297511Y-101174674D01*
X145228353Y-101184618D01*
X145216329Y-101182278D01*
X145205057Y-101179500D01*
X145205056Y-101179500D01*
X145034944Y-101179500D01*
X144869773Y-101220210D01*
X144719150Y-101299263D01*
X144591816Y-101412072D01*
X144495182Y-101552068D01*
X144434860Y-101711125D01*
X144434859Y-101711130D01*
X144414355Y-101879999D01*
X144434859Y-102048869D01*
X144434860Y-102048874D01*
X144496737Y-102212029D01*
X144502104Y-102281692D01*
X144468956Y-102343199D01*
X144407818Y-102377020D01*
X144380795Y-102380000D01*
X143474000Y-102380000D01*
X143406961Y-102360315D01*
X143361206Y-102307511D01*
X143350000Y-102256000D01*
X143350000Y-101199181D01*
X143360923Y-101148292D01*
X143374334Y-101118493D01*
X143375961Y-101115151D01*
X143404790Y-101060225D01*
X143407212Y-101050393D01*
X143414539Y-101029163D01*
X143418693Y-101019934D01*
X143418692Y-101019934D01*
X143418694Y-101019932D01*
X143429877Y-100958900D01*
X143430650Y-100955300D01*
X143445500Y-100895056D01*
X143445500Y-100884921D01*
X143447531Y-100862571D01*
X143449357Y-100852606D01*
X143449357Y-100852603D01*
X143445613Y-100790707D01*
X143445500Y-100786963D01*
X143445500Y-100724943D01*
X143443075Y-100715107D01*
X143439697Y-100692912D01*
X143439086Y-100682804D01*
X143420627Y-100623569D01*
X143419636Y-100620014D01*
X143404790Y-100559775D01*
X143400083Y-100550807D01*
X143391492Y-100530068D01*
X143388478Y-100520394D01*
X143367884Y-100486328D01*
X143350000Y-100422177D01*
X143350000Y-100364500D01*
X143369685Y-100297461D01*
X143422489Y-100251706D01*
X143474000Y-100240500D01*
X144089750Y-100240500D01*
X144089751Y-100240499D01*
X144104568Y-100237552D01*
X144148229Y-100228868D01*
X144148229Y-100228867D01*
X144148231Y-100228867D01*
X144214552Y-100184552D01*
X144258867Y-100118231D01*
X144258867Y-100118229D01*
X144258868Y-100118229D01*
X144270499Y-100059752D01*
X144270500Y-100059750D01*
X144270500Y-98664000D01*
X144290185Y-98596961D01*
X144342989Y-98551206D01*
X144394500Y-98540000D01*
X145025038Y-98540000D01*
X145092077Y-98559685D01*
G37*
G04 #@! TD.AperFunction*
G04 #@! TA.AperFunction,Conductor*
G36*
X148903039Y-97589685D02*
G01*
X148948794Y-97642489D01*
X148960000Y-97694000D01*
X148960000Y-97796000D01*
X148940315Y-97863039D01*
X148887511Y-97908794D01*
X148836000Y-97920000D01*
X148484000Y-97920000D01*
X148416961Y-97900315D01*
X148371206Y-97847511D01*
X148360000Y-97796000D01*
X148360000Y-97694000D01*
X148379685Y-97626961D01*
X148432489Y-97581206D01*
X148484000Y-97570000D01*
X148836000Y-97570000D01*
X148903039Y-97589685D01*
G37*
G04 #@! TD.AperFunction*
G04 #@! TA.AperFunction,Conductor*
G36*
X145983039Y-87819685D02*
G01*
X146028794Y-87872489D01*
X146040000Y-87924000D01*
X146040000Y-92008601D01*
X146020315Y-92075640D01*
X145967511Y-92121395D01*
X145899817Y-92131540D01*
X145884319Y-92129500D01*
X145884316Y-92129500D01*
X145535684Y-92129500D01*
X145535683Y-92129500D01*
X145486828Y-92135931D01*
X145379595Y-92185935D01*
X145295935Y-92269595D01*
X145245931Y-92376828D01*
X145239500Y-92425683D01*
X145239500Y-92846000D01*
X145219815Y-92913039D01*
X145167011Y-92958794D01*
X145115500Y-92970000D01*
X143854500Y-92970000D01*
X143787461Y-92950315D01*
X143741706Y-92897511D01*
X143730500Y-92846000D01*
X143730499Y-92510105D01*
X143730499Y-92510100D01*
X143723972Y-92460513D01*
X143673224Y-92351684D01*
X143619221Y-92297681D01*
X143585736Y-92236358D01*
X143590720Y-92166666D01*
X143619221Y-92122319D01*
X143620145Y-92121395D01*
X143673224Y-92068316D01*
X143723972Y-91959487D01*
X143730500Y-91909901D01*
X143730499Y-91550100D01*
X143723972Y-91500513D01*
X143673224Y-91391684D01*
X143588316Y-91306776D01*
X143479487Y-91256028D01*
X143479485Y-91256027D01*
X143479486Y-91256027D01*
X143429901Y-91249500D01*
X143010105Y-91249500D01*
X142994386Y-91251569D01*
X142960513Y-91256028D01*
X142960511Y-91256029D01*
X142960509Y-91256029D01*
X142841852Y-91311361D01*
X142840488Y-91308436D01*
X142791283Y-91325016D01*
X142723520Y-91307987D01*
X142675721Y-91257026D01*
X142667740Y-91237113D01*
X142633814Y-91125273D01*
X142633812Y-91125270D01*
X142633812Y-91125268D01*
X142540913Y-90951467D01*
X142540909Y-90951460D01*
X142415883Y-90799116D01*
X142263539Y-90674090D01*
X142263532Y-90674086D01*
X142089733Y-90581188D01*
X142089727Y-90581186D01*
X141901132Y-90523976D01*
X141901129Y-90523975D01*
X141705000Y-90504659D01*
X141508870Y-90523975D01*
X141320266Y-90581188D01*
X141146467Y-90674086D01*
X141146460Y-90674090D01*
X140994116Y-90799116D01*
X140869090Y-90951460D01*
X140869085Y-90951467D01*
X140800000Y-91080717D01*
X140800000Y-87800000D01*
X145916000Y-87800000D01*
X145983039Y-87819685D01*
G37*
G04 #@! TD.AperFunction*
G04 #@! TA.AperFunction,Conductor*
G36*
X151799434Y-94370731D02*
G01*
X151807584Y-94373124D01*
X151893656Y-94385500D01*
X153766000Y-94385500D01*
X153833039Y-94405185D01*
X153878794Y-94457989D01*
X153890000Y-94509500D01*
X153890000Y-95277077D01*
X153870315Y-95344116D01*
X153826271Y-95385444D01*
X150651257Y-97151321D01*
X150583102Y-97166703D01*
X150554439Y-97161446D01*
X150523788Y-97151992D01*
X150467661Y-97132352D01*
X150459291Y-97130768D01*
X150450869Y-97129500D01*
X150450867Y-97129500D01*
X150391391Y-97129500D01*
X150331955Y-97127275D01*
X150322721Y-97128316D01*
X150322627Y-97127486D01*
X150307329Y-97129500D01*
X149258122Y-97129500D01*
X149251183Y-97129110D01*
X149236765Y-97127486D01*
X149212304Y-97124729D01*
X149200944Y-97126879D01*
X149198518Y-97127338D01*
X149175467Y-97129500D01*
X148354000Y-97129500D01*
X148286961Y-97109815D01*
X148241206Y-97057011D01*
X148230000Y-97005500D01*
X148230000Y-95534499D01*
X148249685Y-95467460D01*
X148302489Y-95421705D01*
X148351312Y-95411083D01*
X148351291Y-95410705D01*
X148353690Y-95410566D01*
X148354000Y-95410499D01*
X148354856Y-95410499D01*
X148354864Y-95410499D01*
X148354879Y-95410497D01*
X148354882Y-95410497D01*
X148379987Y-95407586D01*
X148379988Y-95407585D01*
X148379991Y-95407585D01*
X148482765Y-95362206D01*
X148562206Y-95282765D01*
X148607585Y-95179991D01*
X148610500Y-95154865D01*
X148610499Y-95085286D01*
X148630183Y-95018250D01*
X148682986Y-94972494D01*
X148710113Y-94963709D01*
X149761134Y-94752920D01*
X149785515Y-94750499D01*
X150090126Y-94750499D01*
X150090135Y-94750500D01*
X151384864Y-94750499D01*
X151384879Y-94750497D01*
X151384882Y-94750497D01*
X151409987Y-94747586D01*
X151409988Y-94747585D01*
X151409991Y-94747585D01*
X151512765Y-94702206D01*
X151592206Y-94622765D01*
X151637585Y-94519991D01*
X151640500Y-94494865D01*
X151640499Y-94489718D01*
X151660176Y-94422680D01*
X151712975Y-94376920D01*
X151782132Y-94366968D01*
X151799434Y-94370731D01*
G37*
G04 #@! TD.AperFunction*
G04 #@! TA.AperFunction,Conductor*
G36*
X142760000Y-91210000D02*
G01*
X142659516Y-91210000D01*
X142633814Y-91125273D01*
X142633812Y-91125270D01*
X142633812Y-91125268D01*
X142540913Y-90951467D01*
X142540909Y-90951460D01*
X142415883Y-90799116D01*
X142263539Y-90674090D01*
X142263532Y-90674086D01*
X142089733Y-90581188D01*
X142089727Y-90581186D01*
X141901132Y-90523976D01*
X141901129Y-90523975D01*
X141705000Y-90504659D01*
X141508870Y-90523975D01*
X141320266Y-90581188D01*
X141146467Y-90674086D01*
X141146460Y-90674090D01*
X140994116Y-90799116D01*
X140869090Y-90951460D01*
X140869086Y-90951467D01*
X140776185Y-91125273D01*
X140773856Y-91130897D01*
X140771880Y-91130078D01*
X140738888Y-91180430D01*
X140675077Y-91208890D01*
X140658520Y-91210000D01*
X140356025Y-91210000D01*
X140288986Y-91190315D01*
X140282678Y-91185880D01*
X140281959Y-91185465D01*
X140281958Y-91185464D01*
X140281956Y-91185463D01*
X140281954Y-91185462D01*
X140135879Y-91124956D01*
X140135877Y-91124955D01*
X139979118Y-91104318D01*
X139979116Y-91104318D01*
X139822356Y-91124955D01*
X139822354Y-91124956D01*
X139676279Y-91185462D01*
X139669242Y-91189526D01*
X139668353Y-91187987D01*
X139612528Y-91209570D01*
X139602209Y-91210000D01*
X138114000Y-91210000D01*
X138046961Y-91190315D01*
X138001206Y-91137511D01*
X137990000Y-91086000D01*
X137990000Y-88013515D01*
X138009685Y-87946476D01*
X138026319Y-87925834D01*
X138115834Y-87836319D01*
X138177157Y-87802834D01*
X138203515Y-87800000D01*
X142760000Y-87800000D01*
X142760000Y-91210000D01*
G37*
G04 #@! TD.AperFunction*
G04 #@! TA.AperFunction,Conductor*
G36*
X125073039Y-88399685D02*
G01*
X125118794Y-88452489D01*
X125130000Y-88504000D01*
X125130000Y-89287245D01*
X125110315Y-89354284D01*
X125093681Y-89374926D01*
X125004513Y-89464094D01*
X124981949Y-89486659D01*
X124981948Y-89486660D01*
X124971891Y-89506397D01*
X124961731Y-89522977D01*
X124948706Y-89540905D01*
X124948703Y-89540910D01*
X124941854Y-89561988D01*
X124934413Y-89579952D01*
X124924354Y-89599696D01*
X124924353Y-89599699D01*
X124922297Y-89612676D01*
X124892364Y-89675809D01*
X124887511Y-89680947D01*
X124886777Y-89681680D01*
X124886775Y-89681683D01*
X124836027Y-89790512D01*
X124836027Y-89790513D01*
X124829500Y-89840098D01*
X124829500Y-90259894D01*
X124831507Y-90275144D01*
X124833407Y-90289578D01*
X124836029Y-90309491D01*
X124838683Y-90318596D01*
X124838014Y-90318790D01*
X124847500Y-90361579D01*
X124847499Y-90470493D01*
X124827814Y-90537532D01*
X124775009Y-90583287D01*
X124705851Y-90593230D01*
X124654608Y-90573594D01*
X124626230Y-90554632D01*
X124626229Y-90554631D01*
X124567752Y-90543000D01*
X124567748Y-90543000D01*
X123828252Y-90543000D01*
X123828247Y-90543000D01*
X123769770Y-90554631D01*
X123769769Y-90554632D01*
X123703447Y-90598947D01*
X123659132Y-90665269D01*
X123659131Y-90665270D01*
X123647500Y-90723747D01*
X123647500Y-91800812D01*
X123627815Y-91867851D01*
X123611181Y-91888493D01*
X123495993Y-92003681D01*
X123434670Y-92037166D01*
X123408312Y-92040000D01*
X122674000Y-92040000D01*
X122606961Y-92020315D01*
X122561206Y-91967511D01*
X122550000Y-91916000D01*
X122550000Y-90328645D01*
X122569685Y-90261606D01*
X122622489Y-90215851D01*
X122691647Y-90205907D01*
X122755203Y-90234932D01*
X122759083Y-90238440D01*
X122763390Y-90242504D01*
X122763813Y-90242903D01*
X122793253Y-90259900D01*
X122910688Y-90327701D01*
X123073161Y-90376342D01*
X123186034Y-90382915D01*
X123242469Y-90386203D01*
X123242469Y-90386202D01*
X123242471Y-90386203D01*
X123409492Y-90356753D01*
X123565219Y-90289579D01*
X123701258Y-90188302D01*
X123810273Y-90058383D01*
X123886388Y-89906825D01*
X123925500Y-89741799D01*
X123925500Y-89375862D01*
X123930000Y-89360536D01*
X123930000Y-88504000D01*
X123949685Y-88436961D01*
X124002489Y-88391206D01*
X124054000Y-88380000D01*
X125006000Y-88380000D01*
X125073039Y-88399685D01*
G37*
G04 #@! TD.AperFunction*
G04 #@! TA.AperFunction,Conductor*
G36*
X142211401Y-83979685D02*
G01*
X142257156Y-84032489D01*
X142267100Y-84101647D01*
X142242739Y-84159483D01*
X142192700Y-84224697D01*
X142175463Y-84247160D01*
X142114956Y-84393237D01*
X142114955Y-84393239D01*
X142099501Y-84510629D01*
X142099500Y-84510645D01*
X142099500Y-85089354D01*
X142099501Y-85089370D01*
X142114955Y-85206760D01*
X142114956Y-85206762D01*
X142145920Y-85281517D01*
X142175464Y-85352841D01*
X142271718Y-85478282D01*
X142397159Y-85574536D01*
X142543238Y-85635044D01*
X142621619Y-85645363D01*
X142699999Y-85655682D01*
X142700000Y-85655682D01*
X142700001Y-85655682D01*
X142752253Y-85648802D01*
X142856762Y-85635044D01*
X143002841Y-85574536D01*
X143128282Y-85478282D01*
X143224536Y-85352841D01*
X143285044Y-85206762D01*
X143300500Y-85089361D01*
X143300500Y-84510639D01*
X143285044Y-84393238D01*
X143224536Y-84247159D01*
X143157260Y-84159484D01*
X143132068Y-84094318D01*
X143146106Y-84025873D01*
X143194920Y-83975883D01*
X143255638Y-83960000D01*
X144546874Y-83960000D01*
X144613913Y-83979685D01*
X144659668Y-84032489D01*
X144669612Y-84101647D01*
X144657359Y-84140295D01*
X144614352Y-84224698D01*
X144599500Y-84318475D01*
X144599500Y-85281517D01*
X144610292Y-85349657D01*
X144614354Y-85375304D01*
X144671950Y-85488342D01*
X144671952Y-85488344D01*
X144671954Y-85488347D01*
X144761652Y-85578045D01*
X144761654Y-85578046D01*
X144761658Y-85578050D01*
X144873513Y-85635043D01*
X144874698Y-85635647D01*
X144968475Y-85650499D01*
X144968481Y-85650500D01*
X145431518Y-85650499D01*
X145525304Y-85635646D01*
X145638342Y-85578050D01*
X145728050Y-85488342D01*
X145785646Y-85375304D01*
X145785646Y-85375302D01*
X145785647Y-85375301D01*
X145800499Y-85281524D01*
X145800500Y-85281519D01*
X145800499Y-84318482D01*
X145785646Y-84224696D01*
X145742640Y-84140293D01*
X145729745Y-84071625D01*
X145756022Y-84006885D01*
X145813128Y-83966628D01*
X145853126Y-83960000D01*
X148428409Y-83960000D01*
X148495448Y-83979685D01*
X148541203Y-84032489D01*
X148551147Y-84101647D01*
X148522122Y-84165203D01*
X148513292Y-84174392D01*
X148471656Y-84213489D01*
X148471656Y-84213490D01*
X148279111Y-84446236D01*
X148117268Y-84701261D01*
X148117265Y-84701267D01*
X147988661Y-84974563D01*
X147988659Y-84974568D01*
X147895320Y-85261835D01*
X147838719Y-85558546D01*
X147838718Y-85558553D01*
X147819754Y-85859994D01*
X147819754Y-85860005D01*
X147838718Y-86161446D01*
X147838719Y-86161453D01*
X147838720Y-86161457D01*
X147895088Y-86456951D01*
X147895320Y-86458164D01*
X147988659Y-86745431D01*
X147988661Y-86745436D01*
X148117265Y-87018732D01*
X148117268Y-87018738D01*
X148279111Y-87273763D01*
X148279114Y-87273767D01*
X148279115Y-87273768D01*
X148471651Y-87506504D01*
X148595184Y-87622510D01*
X148691836Y-87713272D01*
X148691846Y-87713280D01*
X148930000Y-87886308D01*
X148930000Y-88345182D01*
X148905463Y-88377160D01*
X148844956Y-88523237D01*
X148844955Y-88523239D01*
X148824318Y-88679998D01*
X148824318Y-88679999D01*
X148828969Y-88715326D01*
X148829500Y-88723428D01*
X148829500Y-89286571D01*
X148828969Y-89294673D01*
X148824318Y-89329999D01*
X148824318Y-89330000D01*
X148828969Y-89365326D01*
X148829500Y-89373427D01*
X148829500Y-89936571D01*
X148828969Y-89944673D01*
X148824318Y-89979999D01*
X148824318Y-89980000D01*
X148828969Y-90015326D01*
X148829500Y-90023427D01*
X148829500Y-90586571D01*
X148828969Y-90594673D01*
X148824318Y-90629999D01*
X148824318Y-90630000D01*
X148839327Y-90744004D01*
X148844955Y-90786760D01*
X148844956Y-90786762D01*
X148854581Y-90810000D01*
X148905464Y-90932841D01*
X148930000Y-90964817D01*
X148930000Y-93030000D01*
X148332266Y-93030000D01*
X148329752Y-93029500D01*
X148329748Y-93029500D01*
X146777966Y-93029500D01*
X146710927Y-93009815D01*
X146690285Y-92993181D01*
X146436319Y-92739214D01*
X146402834Y-92677891D01*
X146400000Y-92651533D01*
X146400000Y-91625023D01*
X146419685Y-91557984D01*
X146472489Y-91512229D01*
X146541643Y-91502285D01*
X146564000Y-91505500D01*
X146564001Y-91505500D01*
X147345991Y-91505500D01*
X147346000Y-91505500D01*
X147389191Y-91500855D01*
X147395824Y-91500500D01*
X148329750Y-91500500D01*
X148329751Y-91500499D01*
X148344568Y-91497552D01*
X148388229Y-91488868D01*
X148388229Y-91488867D01*
X148388231Y-91488867D01*
X148454552Y-91444552D01*
X148498867Y-91378231D01*
X148498867Y-91378229D01*
X148498868Y-91378229D01*
X148510499Y-91319752D01*
X148510500Y-91319750D01*
X148510500Y-90670249D01*
X148510499Y-90670247D01*
X148498868Y-90611770D01*
X148498867Y-90611769D01*
X148454552Y-90545447D01*
X148388230Y-90501132D01*
X148388229Y-90501131D01*
X148329752Y-90489500D01*
X148329748Y-90489500D01*
X147799500Y-90489500D01*
X147732461Y-90469815D01*
X147686706Y-90417011D01*
X147675500Y-90365500D01*
X147675500Y-86704008D01*
X147675499Y-86703992D01*
X147671316Y-86665090D01*
X147670803Y-86660316D01*
X147666535Y-86640701D01*
X147659598Y-86608807D01*
X147657110Y-86598629D01*
X147657110Y-86598627D01*
X147614100Y-86517915D01*
X147568345Y-86465111D01*
X147550756Y-86447159D01*
X147550750Y-86447154D01*
X147470940Y-86402511D01*
X147470935Y-86402509D01*
X147403903Y-86382826D01*
X147403899Y-86382825D01*
X147403898Y-86382825D01*
X147346000Y-86374500D01*
X146564000Y-86374500D01*
X146563992Y-86374500D01*
X146520313Y-86379197D01*
X146468807Y-86390402D01*
X146458629Y-86392889D01*
X146458624Y-86392891D01*
X146377916Y-86435899D01*
X146377913Y-86435901D01*
X146333244Y-86474606D01*
X146325111Y-86481655D01*
X146307159Y-86499243D01*
X146307154Y-86499249D01*
X146262511Y-86579059D01*
X146262509Y-86579064D01*
X146242823Y-86646108D01*
X146241886Y-86650418D01*
X146241577Y-86650350D01*
X146241577Y-86650352D01*
X146241561Y-86650347D01*
X146240474Y-86650111D01*
X146214023Y-86707996D01*
X146155236Y-86745756D01*
X146085366Y-86745740D01*
X146026597Y-86707951D01*
X146002398Y-86665090D01*
X146000646Y-86659698D01*
X146000646Y-86659696D01*
X145943050Y-86546658D01*
X145943046Y-86546654D01*
X145943045Y-86546652D01*
X145853347Y-86456954D01*
X145853344Y-86456952D01*
X145853342Y-86456950D01*
X145776517Y-86417805D01*
X145740301Y-86399352D01*
X145646524Y-86384500D01*
X145183482Y-86384500D01*
X145102519Y-86397323D01*
X145089696Y-86399354D01*
X144976658Y-86456950D01*
X144976657Y-86456950D01*
X144976657Y-86456951D01*
X144976652Y-86456954D01*
X144960426Y-86473181D01*
X144899103Y-86506666D01*
X144872745Y-86509500D01*
X143559755Y-86509500D01*
X143492716Y-86489815D01*
X143472074Y-86473181D01*
X143455847Y-86456954D01*
X143455844Y-86456952D01*
X143455842Y-86456950D01*
X143379017Y-86417805D01*
X143342801Y-86399352D01*
X143249024Y-86384500D01*
X142785982Y-86384500D01*
X142705019Y-86397323D01*
X142692196Y-86399354D01*
X142579158Y-86456950D01*
X142579156Y-86456951D01*
X142579157Y-86456951D01*
X142579152Y-86456954D01*
X142489454Y-86546652D01*
X142489451Y-86546657D01*
X142431852Y-86659698D01*
X142417000Y-86753475D01*
X142417000Y-87366518D01*
X142430397Y-87451104D01*
X142421441Y-87520397D01*
X142376444Y-87573848D01*
X142309692Y-87594487D01*
X142307923Y-87594500D01*
X139214000Y-87594500D01*
X139146961Y-87574815D01*
X139101206Y-87522011D01*
X139090000Y-87470500D01*
X139090000Y-86772107D01*
X139090499Y-86765769D01*
X139090499Y-86729837D01*
X139090500Y-86729812D01*
X139090500Y-85667254D01*
X139110185Y-85600215D01*
X139126819Y-85579572D01*
X139128339Y-85578051D01*
X139128342Y-85578050D01*
X139218050Y-85488342D01*
X139275646Y-85375304D01*
X139275646Y-85375302D01*
X139275647Y-85375301D01*
X139290499Y-85281524D01*
X139290500Y-85281519D01*
X139290499Y-84318482D01*
X139275646Y-84224696D01*
X139232640Y-84140293D01*
X139219745Y-84071625D01*
X139246022Y-84006885D01*
X139303128Y-83966628D01*
X139343126Y-83960000D01*
X142144362Y-83960000D01*
X142211401Y-83979685D01*
G37*
G04 #@! TD.AperFunction*
G04 #@! TA.AperFunction,Conductor*
G36*
X147413039Y-86599685D02*
G01*
X147458794Y-86652489D01*
X147470000Y-86704000D01*
X147470000Y-91176000D01*
X147450315Y-91243039D01*
X147397511Y-91288794D01*
X147346000Y-91300000D01*
X146564000Y-91300000D01*
X146496961Y-91280315D01*
X146451206Y-91227511D01*
X146440000Y-91176000D01*
X146440000Y-86704000D01*
X146459685Y-86636961D01*
X146512489Y-86591206D01*
X146564000Y-86580000D01*
X147346000Y-86580000D01*
X147413039Y-86599685D01*
G37*
G04 #@! TD.AperFunction*
G04 #@! TA.AperFunction,Conductor*
G36*
X104607539Y-83979685D02*
G01*
X104653294Y-84032489D01*
X104664500Y-84084000D01*
X104664500Y-85604752D01*
X104676131Y-85663229D01*
X104676132Y-85663230D01*
X104720447Y-85729552D01*
X104786769Y-85773867D01*
X104786770Y-85773868D01*
X104845247Y-85785499D01*
X104845250Y-85785500D01*
X104845252Y-85785500D01*
X106584750Y-85785500D01*
X106584751Y-85785499D01*
X106599568Y-85782552D01*
X106643229Y-85773868D01*
X106643229Y-85773867D01*
X106643231Y-85773867D01*
X106709552Y-85729552D01*
X106753867Y-85663231D01*
X106753867Y-85663229D01*
X106753868Y-85663229D01*
X106765499Y-85604752D01*
X106765500Y-85604750D01*
X106765500Y-84084000D01*
X106785185Y-84016961D01*
X106837989Y-83971206D01*
X106889500Y-83960000D01*
X107080500Y-83960000D01*
X107147539Y-83979685D01*
X107193294Y-84032489D01*
X107204500Y-84084000D01*
X107204500Y-85604752D01*
X107216131Y-85663229D01*
X107216132Y-85663230D01*
X107260447Y-85729552D01*
X107326769Y-85773867D01*
X107326770Y-85773868D01*
X107385247Y-85785499D01*
X107385250Y-85785500D01*
X108136000Y-85785500D01*
X108203039Y-85805185D01*
X108248794Y-85857989D01*
X108260000Y-85909500D01*
X108260000Y-86106537D01*
X108240315Y-86173576D01*
X108187511Y-86219331D01*
X108148155Y-86229940D01*
X108049067Y-86239699D01*
X107851043Y-86299769D01*
X107740898Y-86358643D01*
X107668550Y-86397315D01*
X107668548Y-86397316D01*
X107668547Y-86397317D01*
X107508589Y-86528589D01*
X107377317Y-86688547D01*
X107279769Y-86871043D01*
X107219699Y-87069067D01*
X107199417Y-87274999D01*
X107219699Y-87480932D01*
X107259330Y-87611579D01*
X107259953Y-87681446D01*
X107228350Y-87735255D01*
X106699516Y-88264091D01*
X106699513Y-88264094D01*
X106676949Y-88286659D01*
X106676948Y-88286660D01*
X106666891Y-88306397D01*
X106656731Y-88322977D01*
X106643706Y-88340905D01*
X106643703Y-88340910D01*
X106636854Y-88361988D01*
X106629413Y-88379952D01*
X106619354Y-88399695D01*
X106615887Y-88421582D01*
X106611347Y-88440491D01*
X106604500Y-88461567D01*
X106604500Y-88923844D01*
X106584815Y-88990883D01*
X106532011Y-89036638D01*
X106462853Y-89046582D01*
X106401836Y-89019698D01*
X106301453Y-88937317D01*
X106301451Y-88937316D01*
X106301450Y-88937315D01*
X106118954Y-88839768D01*
X105920934Y-88779700D01*
X105920932Y-88779699D01*
X105920934Y-88779699D01*
X105715000Y-88759417D01*
X105509067Y-88779699D01*
X105311043Y-88839769D01*
X105238743Y-88878415D01*
X105128550Y-88937315D01*
X105128548Y-88937316D01*
X105128547Y-88937317D01*
X104968589Y-89068589D01*
X104837317Y-89228547D01*
X104739769Y-89411043D01*
X104679699Y-89609067D01*
X104659417Y-89814999D01*
X104679699Y-90020932D01*
X104679700Y-90020934D01*
X104739768Y-90218954D01*
X104837315Y-90401450D01*
X104837317Y-90401452D01*
X104968589Y-90561410D01*
X105027797Y-90610000D01*
X105128550Y-90692685D01*
X105311046Y-90790232D01*
X105509066Y-90850300D01*
X105509065Y-90850300D01*
X105527529Y-90852118D01*
X105715000Y-90870583D01*
X105920934Y-90850300D01*
X106118954Y-90790232D01*
X106301450Y-90692685D01*
X106401835Y-90610301D01*
X106466144Y-90582989D01*
X106535011Y-90594780D01*
X106586572Y-90641932D01*
X106604499Y-90706155D01*
X106604499Y-91463844D01*
X106584814Y-91530883D01*
X106532010Y-91576638D01*
X106462852Y-91586582D01*
X106401835Y-91559698D01*
X106323289Y-91495238D01*
X106301450Y-91477315D01*
X106118954Y-91379768D01*
X105920934Y-91319700D01*
X105920932Y-91319699D01*
X105920934Y-91319699D01*
X105733463Y-91301235D01*
X105715000Y-91299417D01*
X105714999Y-91299417D01*
X105509067Y-91319699D01*
X105311043Y-91379769D01*
X105291903Y-91390000D01*
X105128550Y-91477315D01*
X105128548Y-91477316D01*
X105128547Y-91477317D01*
X104968589Y-91608589D01*
X104837317Y-91768547D01*
X104739769Y-91951043D01*
X104679699Y-92149067D01*
X104659417Y-92354999D01*
X104679699Y-92560932D01*
X104679700Y-92560934D01*
X104739768Y-92758954D01*
X104837315Y-92941450D01*
X104847198Y-92953492D01*
X104968589Y-93101410D01*
X105043168Y-93162614D01*
X105128550Y-93232685D01*
X105311046Y-93330232D01*
X105509066Y-93390300D01*
X105509065Y-93390300D01*
X105527529Y-93392118D01*
X105715000Y-93410583D01*
X105920934Y-93390300D01*
X106118954Y-93330232D01*
X106301450Y-93232685D01*
X106449593Y-93111108D01*
X106461409Y-93101411D01*
X106461410Y-93101410D01*
X106471067Y-93089642D01*
X106528809Y-93050306D01*
X106598653Y-93048431D01*
X106658424Y-93084615D01*
X106673401Y-93106224D01*
X106676949Y-93111108D01*
X106676950Y-93111109D01*
X106697864Y-93132023D01*
X106697893Y-93132054D01*
X107493219Y-93927380D01*
X107493239Y-93927398D01*
X107520793Y-93954953D01*
X107519142Y-93956603D01*
X107553501Y-94001158D01*
X107559482Y-94070771D01*
X107526878Y-94132567D01*
X107516619Y-94142000D01*
X107508589Y-94148589D01*
X107377317Y-94308547D01*
X107279769Y-94491043D01*
X107219699Y-94689067D01*
X107199417Y-94895000D01*
X107219699Y-95100932D01*
X107249734Y-95199944D01*
X107279768Y-95298954D01*
X107377315Y-95481450D01*
X107397724Y-95506319D01*
X107508589Y-95641410D01*
X107605209Y-95720702D01*
X107668550Y-95772685D01*
X107851046Y-95870232D01*
X108049066Y-95930300D01*
X108049065Y-95930300D01*
X108069348Y-95932297D01*
X108255000Y-95950583D01*
X108460934Y-95930300D01*
X108658954Y-95870232D01*
X108841450Y-95772685D01*
X109001410Y-95641410D01*
X109104876Y-95515335D01*
X109162621Y-95476001D01*
X109200729Y-95470000D01*
X109458312Y-95470000D01*
X109525351Y-95489685D01*
X109545993Y-95506319D01*
X109783182Y-95743508D01*
X109816666Y-95804829D01*
X109819500Y-95831187D01*
X109819499Y-98354473D01*
X109819263Y-98359879D01*
X109815735Y-98400201D01*
X109815735Y-98400202D01*
X109826212Y-98439306D01*
X109827383Y-98444586D01*
X109834411Y-98484439D01*
X109836235Y-98489451D01*
X109843197Y-98506257D01*
X109845445Y-98511077D01*
X109845446Y-98511080D01*
X109852314Y-98520888D01*
X109868655Y-98544227D01*
X109871561Y-98548788D01*
X109891806Y-98583851D01*
X109922815Y-98609871D01*
X109926805Y-98613527D01*
X110163181Y-98849903D01*
X110196666Y-98911226D01*
X110199500Y-98937584D01*
X110199500Y-99154316D01*
X110205931Y-99203171D01*
X110255935Y-99310404D01*
X110347267Y-99401736D01*
X110344443Y-99404559D01*
X110375183Y-99443042D01*
X110382352Y-99512542D01*
X110350808Y-99574886D01*
X110347101Y-99578098D01*
X110347267Y-99578264D01*
X110255935Y-99669595D01*
X110205931Y-99776828D01*
X110199500Y-99825683D01*
X110199500Y-100174316D01*
X110205931Y-100223171D01*
X110205932Y-100223173D01*
X110255935Y-100330404D01*
X110339596Y-100414065D01*
X110446827Y-100464068D01*
X110495683Y-100470500D01*
X110495684Y-100470500D01*
X110944320Y-100470500D01*
X110949917Y-100470133D01*
X110953974Y-100470000D01*
X114656000Y-100470000D01*
X114723039Y-100489685D01*
X114768794Y-100542489D01*
X114780000Y-100594000D01*
X114780000Y-102819000D01*
X114760315Y-102886039D01*
X114707511Y-102931794D01*
X114656000Y-102943000D01*
X113584500Y-102943000D01*
X113517461Y-102923315D01*
X113471706Y-102870511D01*
X113460500Y-102819000D01*
X113460500Y-102725683D01*
X113454941Y-102683462D01*
X113454068Y-102676827D01*
X113404065Y-102569596D01*
X113320404Y-102485935D01*
X113320403Y-102485935D01*
X113312733Y-102478264D01*
X113315561Y-102475435D01*
X113284843Y-102437023D01*
X113277635Y-102367526D01*
X113309143Y-102305165D01*
X113312903Y-102301906D01*
X113312733Y-102301736D01*
X113325602Y-102288867D01*
X113404065Y-102210404D01*
X113454068Y-102103173D01*
X113460500Y-102054316D01*
X113460500Y-101705684D01*
X113454068Y-101656827D01*
X113404065Y-101549596D01*
X113320404Y-101465935D01*
X113213173Y-101415932D01*
X113213171Y-101415931D01*
X113213172Y-101415931D01*
X113164317Y-101409500D01*
X113164316Y-101409500D01*
X112937403Y-101409500D01*
X112888833Y-101396485D01*
X112888238Y-101398122D01*
X112878043Y-101394411D01*
X112838190Y-101387383D01*
X112832910Y-101386212D01*
X112793808Y-101375735D01*
X112758892Y-101378790D01*
X112753481Y-101379264D01*
X112748078Y-101379500D01*
X109081922Y-101379500D01*
X109076518Y-101379264D01*
X109071107Y-101378790D01*
X109036192Y-101375735D01*
X109036191Y-101375735D01*
X108997091Y-101386212D01*
X108991811Y-101387383D01*
X108951959Y-101394410D01*
X108946961Y-101396229D01*
X108930117Y-101403206D01*
X108925313Y-101405446D01*
X108892166Y-101428656D01*
X108887606Y-101431562D01*
X108852548Y-101451804D01*
X108852540Y-101451810D01*
X108826523Y-101482815D01*
X108822869Y-101486804D01*
X108795994Y-101513678D01*
X108734671Y-101547163D01*
X108664979Y-101542179D01*
X108660862Y-101540559D01*
X108658962Y-101539772D01*
X108658954Y-101539768D01*
X108460934Y-101479700D01*
X108460932Y-101479699D01*
X108460934Y-101479699D01*
X108273463Y-101461235D01*
X108255000Y-101459417D01*
X108254999Y-101459417D01*
X108049067Y-101479699D01*
X107851043Y-101539769D01*
X107778743Y-101578415D01*
X107668550Y-101637315D01*
X107668548Y-101637316D01*
X107668547Y-101637317D01*
X107508589Y-101768589D01*
X107377317Y-101928547D01*
X107279769Y-102111043D01*
X107219699Y-102309067D01*
X107199417Y-102515000D01*
X107219699Y-102720932D01*
X107221141Y-102725684D01*
X107279768Y-102918954D01*
X107377315Y-103101450D01*
X107377317Y-103101452D01*
X107508589Y-103261410D01*
X107605209Y-103340702D01*
X107668550Y-103392685D01*
X107851046Y-103490232D01*
X108049066Y-103550300D01*
X108049065Y-103550300D01*
X108066964Y-103552062D01*
X108148155Y-103560059D01*
X108212941Y-103586220D01*
X108253300Y-103643254D01*
X108260000Y-103683462D01*
X108260000Y-103886537D01*
X108240315Y-103953576D01*
X108187511Y-103999331D01*
X108148155Y-104009940D01*
X108049067Y-104019699D01*
X107851043Y-104079769D01*
X107778743Y-104118415D01*
X107668550Y-104177315D01*
X107668548Y-104177316D01*
X107668547Y-104177317D01*
X107508589Y-104308589D01*
X107377317Y-104468547D01*
X107279769Y-104651043D01*
X107219699Y-104849067D01*
X107199417Y-105055000D01*
X107219699Y-105260932D01*
X107219700Y-105260934D01*
X107279768Y-105458954D01*
X107377315Y-105641450D01*
X107377317Y-105641452D01*
X107508589Y-105801410D01*
X107605209Y-105880702D01*
X107668550Y-105932685D01*
X107851046Y-106030232D01*
X108049066Y-106090300D01*
X108049065Y-106090300D01*
X108066964Y-106092062D01*
X108148155Y-106100059D01*
X108212941Y-106126220D01*
X108253300Y-106183254D01*
X108260000Y-106223462D01*
X108260000Y-106426537D01*
X108240315Y-106493576D01*
X108187511Y-106539331D01*
X108148155Y-106549940D01*
X108049067Y-106559699D01*
X107851043Y-106619769D01*
X107778743Y-106658415D01*
X107668550Y-106717315D01*
X107668548Y-106717316D01*
X107668547Y-106717317D01*
X107508589Y-106848589D01*
X107377317Y-107008547D01*
X107279769Y-107191043D01*
X107219699Y-107389067D01*
X107199417Y-107595000D01*
X107219699Y-107800932D01*
X107279769Y-107998956D01*
X107375228Y-108177545D01*
X107389470Y-108245948D01*
X107364470Y-108311192D01*
X107308166Y-108352563D01*
X107265870Y-108359999D01*
X106704130Y-108359999D01*
X106637091Y-108340314D01*
X106591336Y-108287510D01*
X106581392Y-108218352D01*
X106594772Y-108177545D01*
X106615203Y-108139322D01*
X106690232Y-107998954D01*
X106750300Y-107800934D01*
X106770583Y-107595000D01*
X106750300Y-107389066D01*
X106690232Y-107191046D01*
X106592685Y-107008550D01*
X106540702Y-106945209D01*
X106461410Y-106848589D01*
X106301452Y-106717317D01*
X106301453Y-106717317D01*
X106301450Y-106717315D01*
X106118954Y-106619768D01*
X105920934Y-106559700D01*
X105920932Y-106559699D01*
X105920934Y-106559699D01*
X105715000Y-106539417D01*
X105509067Y-106559699D01*
X105311043Y-106619769D01*
X105238743Y-106658415D01*
X105128550Y-106717315D01*
X105128548Y-106717316D01*
X105128547Y-106717317D01*
X104968589Y-106848589D01*
X104837317Y-107008547D01*
X104739769Y-107191043D01*
X104679699Y-107389067D01*
X104659417Y-107595000D01*
X104679699Y-107800932D01*
X104739769Y-107998956D01*
X104835228Y-108177545D01*
X104849470Y-108245948D01*
X104824470Y-108311192D01*
X104768166Y-108352563D01*
X104725870Y-108359999D01*
X102529000Y-108359999D01*
X102461961Y-108340314D01*
X102416206Y-108287510D01*
X102405000Y-108235999D01*
X102405000Y-105054999D01*
X104659417Y-105054999D01*
X104679699Y-105260932D01*
X104679700Y-105260934D01*
X104739768Y-105458954D01*
X104837315Y-105641450D01*
X104837317Y-105641452D01*
X104968589Y-105801410D01*
X105065209Y-105880702D01*
X105128550Y-105932685D01*
X105311046Y-106030232D01*
X105509066Y-106090300D01*
X105509065Y-106090300D01*
X105527529Y-106092118D01*
X105715000Y-106110583D01*
X105920934Y-106090300D01*
X106118954Y-106030232D01*
X106301450Y-105932685D01*
X106461410Y-105801410D01*
X106592685Y-105641450D01*
X106690232Y-105458954D01*
X106750300Y-105260934D01*
X106770583Y-105055000D01*
X106750300Y-104849066D01*
X106690232Y-104651046D01*
X106592685Y-104468550D01*
X106540702Y-104405209D01*
X106461410Y-104308589D01*
X106301452Y-104177317D01*
X106301453Y-104177317D01*
X106301450Y-104177315D01*
X106118954Y-104079768D01*
X105920934Y-104019700D01*
X105920932Y-104019699D01*
X105920934Y-104019699D01*
X105715000Y-103999417D01*
X105509067Y-104019699D01*
X105311043Y-104079769D01*
X105238743Y-104118415D01*
X105128550Y-104177315D01*
X105128548Y-104177316D01*
X105128547Y-104177317D01*
X104968589Y-104308589D01*
X104837317Y-104468547D01*
X104739769Y-104651043D01*
X104679699Y-104849067D01*
X104659417Y-105054999D01*
X102405000Y-105054999D01*
X102405000Y-102515000D01*
X104659417Y-102515000D01*
X104679699Y-102720932D01*
X104681141Y-102725684D01*
X104739768Y-102918954D01*
X104837315Y-103101450D01*
X104837317Y-103101452D01*
X104968589Y-103261410D01*
X105065209Y-103340702D01*
X105128550Y-103392685D01*
X105311046Y-103490232D01*
X105509066Y-103550300D01*
X105509065Y-103550300D01*
X105529348Y-103552297D01*
X105715000Y-103570583D01*
X105920934Y-103550300D01*
X106118954Y-103490232D01*
X106301450Y-103392685D01*
X106461410Y-103261410D01*
X106592685Y-103101450D01*
X106690232Y-102918954D01*
X106750300Y-102720934D01*
X106770583Y-102515000D01*
X106750300Y-102309066D01*
X106690232Y-102111046D01*
X106592685Y-101928550D01*
X106540702Y-101865209D01*
X106461410Y-101768589D01*
X106325227Y-101656828D01*
X106301450Y-101637315D01*
X106118954Y-101539768D01*
X105920934Y-101479700D01*
X105920932Y-101479699D01*
X105920934Y-101479699D01*
X105715000Y-101459417D01*
X105509067Y-101479699D01*
X105311043Y-101539769D01*
X105238743Y-101578415D01*
X105128550Y-101637315D01*
X105128548Y-101637316D01*
X105128547Y-101637317D01*
X104968589Y-101768589D01*
X104837317Y-101928547D01*
X104739769Y-102111043D01*
X104679699Y-102309067D01*
X104659417Y-102515000D01*
X102405000Y-102515000D01*
X102405000Y-99974999D01*
X104659417Y-99974999D01*
X104679699Y-100180932D01*
X104692512Y-100223171D01*
X104739768Y-100378954D01*
X104837315Y-100561450D01*
X104837317Y-100561452D01*
X104968589Y-100721410D01*
X105065209Y-100800702D01*
X105128550Y-100852685D01*
X105311046Y-100950232D01*
X105509066Y-101010300D01*
X105509065Y-101010300D01*
X105527529Y-101012118D01*
X105715000Y-101030583D01*
X105920934Y-101010300D01*
X106118954Y-100950232D01*
X106301450Y-100852685D01*
X106461410Y-100721410D01*
X106592685Y-100561450D01*
X106690232Y-100378954D01*
X106750300Y-100180934D01*
X106770583Y-99975000D01*
X106770583Y-99974999D01*
X107199417Y-99974999D01*
X107219699Y-100180932D01*
X107232512Y-100223171D01*
X107279768Y-100378954D01*
X107377315Y-100561450D01*
X107377317Y-100561452D01*
X107508589Y-100721410D01*
X107605209Y-100800702D01*
X107668550Y-100852685D01*
X107851046Y-100950232D01*
X108049066Y-101010300D01*
X108049065Y-101010300D01*
X108067529Y-101012118D01*
X108255000Y-101030583D01*
X108460934Y-101010300D01*
X108658954Y-100950232D01*
X108841450Y-100852685D01*
X109001410Y-100721410D01*
X109132685Y-100561450D01*
X109230232Y-100378954D01*
X109290300Y-100180934D01*
X109310583Y-99975000D01*
X109290300Y-99769066D01*
X109230232Y-99571046D01*
X109132685Y-99388550D01*
X109051799Y-99289989D01*
X109001410Y-99228589D01*
X108841452Y-99097317D01*
X108841453Y-99097317D01*
X108841450Y-99097315D01*
X108658954Y-98999768D01*
X108460934Y-98939700D01*
X108460932Y-98939699D01*
X108460934Y-98939699D01*
X108273463Y-98921235D01*
X108255000Y-98919417D01*
X108254999Y-98919417D01*
X108049067Y-98939699D01*
X107851043Y-98999769D01*
X107799801Y-99027159D01*
X107668550Y-99097315D01*
X107668548Y-99097316D01*
X107668547Y-99097317D01*
X107508589Y-99228589D01*
X107377317Y-99388547D01*
X107377315Y-99388550D01*
X107370267Y-99401736D01*
X107279769Y-99571043D01*
X107279768Y-99571045D01*
X107279768Y-99571046D01*
X107275252Y-99585935D01*
X107219699Y-99769067D01*
X107199417Y-99974999D01*
X106770583Y-99974999D01*
X106750300Y-99769066D01*
X106690232Y-99571046D01*
X106592685Y-99388550D01*
X106511799Y-99289989D01*
X106461410Y-99228589D01*
X106301452Y-99097317D01*
X106301453Y-99097317D01*
X106301450Y-99097315D01*
X106118954Y-98999768D01*
X105920934Y-98939700D01*
X105920932Y-98939699D01*
X105920934Y-98939699D01*
X105715000Y-98919417D01*
X105509067Y-98939699D01*
X105311043Y-98999769D01*
X105259801Y-99027159D01*
X105128550Y-99097315D01*
X105128548Y-99097316D01*
X105128547Y-99097317D01*
X104968589Y-99228589D01*
X104837317Y-99388547D01*
X104837315Y-99388550D01*
X104830267Y-99401736D01*
X104739769Y-99571043D01*
X104739768Y-99571045D01*
X104739768Y-99571046D01*
X104735252Y-99585935D01*
X104679699Y-99769067D01*
X104659417Y-99974999D01*
X102405000Y-99974999D01*
X102405000Y-97435000D01*
X104659417Y-97435000D01*
X104679699Y-97640932D01*
X104679700Y-97640934D01*
X104739768Y-97838954D01*
X104837315Y-98021450D01*
X104837317Y-98021452D01*
X104968589Y-98181410D01*
X105038602Y-98238867D01*
X105128550Y-98312685D01*
X105311046Y-98410232D01*
X105509066Y-98470300D01*
X105509065Y-98470300D01*
X105527529Y-98472118D01*
X105715000Y-98490583D01*
X105920934Y-98470300D01*
X106118954Y-98410232D01*
X106301450Y-98312685D01*
X106461410Y-98181410D01*
X106592685Y-98021450D01*
X106690232Y-97838954D01*
X106750300Y-97640934D01*
X106770583Y-97435000D01*
X106770583Y-97434999D01*
X107199417Y-97434999D01*
X107219699Y-97640932D01*
X107219700Y-97640934D01*
X107279768Y-97838954D01*
X107377315Y-98021450D01*
X107377317Y-98021452D01*
X107508589Y-98181410D01*
X107578602Y-98238867D01*
X107668550Y-98312685D01*
X107851046Y-98410232D01*
X108049066Y-98470300D01*
X108049065Y-98470300D01*
X108069348Y-98472297D01*
X108255000Y-98490583D01*
X108460934Y-98470300D01*
X108658954Y-98410232D01*
X108841450Y-98312685D01*
X109001410Y-98181410D01*
X109132685Y-98021450D01*
X109230232Y-97838954D01*
X109290300Y-97640934D01*
X109310583Y-97435000D01*
X109290300Y-97229066D01*
X109230232Y-97031046D01*
X109132685Y-96848550D01*
X109078039Y-96781963D01*
X109001410Y-96688589D01*
X108841452Y-96557317D01*
X108841453Y-96557317D01*
X108841450Y-96557315D01*
X108658954Y-96459768D01*
X108460934Y-96399700D01*
X108460932Y-96399699D01*
X108460934Y-96399699D01*
X108255000Y-96379417D01*
X108049067Y-96399699D01*
X107851043Y-96459769D01*
X107784264Y-96495464D01*
X107668550Y-96557315D01*
X107668548Y-96557316D01*
X107668547Y-96557317D01*
X107508589Y-96688589D01*
X107377317Y-96848547D01*
X107279769Y-97031043D01*
X107219699Y-97229067D01*
X107199417Y-97434999D01*
X106770583Y-97434999D01*
X106750300Y-97229066D01*
X106690232Y-97031046D01*
X106592685Y-96848550D01*
X106538039Y-96781963D01*
X106461410Y-96688589D01*
X106301452Y-96557317D01*
X106301453Y-96557317D01*
X106301450Y-96557315D01*
X106118954Y-96459768D01*
X105920934Y-96399700D01*
X105920932Y-96399699D01*
X105920934Y-96399699D01*
X105715000Y-96379417D01*
X105509067Y-96399699D01*
X105311043Y-96459769D01*
X105244264Y-96495464D01*
X105128550Y-96557315D01*
X105128548Y-96557316D01*
X105128547Y-96557317D01*
X104968589Y-96688589D01*
X104837317Y-96848547D01*
X104739769Y-97031043D01*
X104679699Y-97229067D01*
X104659417Y-97435000D01*
X102405000Y-97435000D01*
X102405000Y-94895000D01*
X104659417Y-94895000D01*
X104679699Y-95100932D01*
X104709734Y-95199944D01*
X104739768Y-95298954D01*
X104837315Y-95481450D01*
X104857724Y-95506319D01*
X104968589Y-95641410D01*
X105065209Y-95720702D01*
X105128550Y-95772685D01*
X105311046Y-95870232D01*
X105509066Y-95930300D01*
X105509065Y-95930300D01*
X105529348Y-95932297D01*
X105715000Y-95950583D01*
X105920934Y-95930300D01*
X106118954Y-95870232D01*
X106301450Y-95772685D01*
X106461410Y-95641410D01*
X106592685Y-95481450D01*
X106690232Y-95298954D01*
X106750300Y-95100934D01*
X106770583Y-94895000D01*
X106750300Y-94689066D01*
X106690232Y-94491046D01*
X106592685Y-94308550D01*
X106500745Y-94196520D01*
X106461410Y-94148589D01*
X106301452Y-94017317D01*
X106301453Y-94017317D01*
X106301450Y-94017315D01*
X106118954Y-93919768D01*
X105920934Y-93859700D01*
X105920932Y-93859699D01*
X105920934Y-93859699D01*
X105715000Y-93839417D01*
X105509067Y-93859699D01*
X105311043Y-93919769D01*
X105223380Y-93966627D01*
X105128550Y-94017315D01*
X105128548Y-94017316D01*
X105128547Y-94017317D01*
X104968589Y-94148589D01*
X104837317Y-94308547D01*
X104739769Y-94491043D01*
X104679699Y-94689067D01*
X104659417Y-94895000D01*
X102405000Y-94895000D01*
X102405000Y-87275000D01*
X104659417Y-87275000D01*
X104679699Y-87480932D01*
X104679700Y-87480934D01*
X104739768Y-87678954D01*
X104837315Y-87861450D01*
X104837317Y-87861452D01*
X104968589Y-88021410D01*
X105065209Y-88100702D01*
X105128550Y-88152685D01*
X105311046Y-88250232D01*
X105509066Y-88310300D01*
X105509065Y-88310300D01*
X105527529Y-88312118D01*
X105715000Y-88330583D01*
X105920934Y-88310300D01*
X106118954Y-88250232D01*
X106301450Y-88152685D01*
X106461410Y-88021410D01*
X106592685Y-87861450D01*
X106690232Y-87678954D01*
X106750300Y-87480934D01*
X106770583Y-87275000D01*
X106750300Y-87069066D01*
X106690232Y-86871046D01*
X106592685Y-86688550D01*
X106540702Y-86625209D01*
X106461410Y-86528589D01*
X106301452Y-86397317D01*
X106301453Y-86397317D01*
X106301450Y-86397315D01*
X106118954Y-86299768D01*
X105920934Y-86239700D01*
X105920932Y-86239699D01*
X105920934Y-86239699D01*
X105715000Y-86219417D01*
X105509067Y-86239699D01*
X105311043Y-86299769D01*
X105200898Y-86358643D01*
X105128550Y-86397315D01*
X105128548Y-86397316D01*
X105128547Y-86397317D01*
X104968589Y-86528589D01*
X104837317Y-86688547D01*
X104739769Y-86871043D01*
X104679699Y-87069067D01*
X104659417Y-87275000D01*
X102405000Y-87275000D01*
X102405000Y-84084000D01*
X102424685Y-84016961D01*
X102477489Y-83971206D01*
X102529000Y-83960000D01*
X104540500Y-83960000D01*
X104607539Y-83979685D01*
G37*
G04 #@! TD.AperFunction*
G04 #@! TA.AperFunction,Conductor*
G36*
X136913039Y-83979685D02*
G01*
X136958794Y-84032489D01*
X136970000Y-84084000D01*
X136970000Y-84133993D01*
X136950315Y-84201032D01*
X136944376Y-84209479D01*
X136915464Y-84247157D01*
X136854956Y-84393237D01*
X136854955Y-84393239D01*
X136839501Y-84510629D01*
X136839500Y-84510645D01*
X136839500Y-85089354D01*
X136839501Y-85089370D01*
X136854955Y-85206760D01*
X136854957Y-85206765D01*
X136915461Y-85352836D01*
X136915464Y-85352842D01*
X136932960Y-85375643D01*
X136944375Y-85390519D01*
X136969570Y-85455687D01*
X136970000Y-85466005D01*
X136970000Y-86258849D01*
X136950315Y-86325888D01*
X136933681Y-86346530D01*
X136896530Y-86383681D01*
X136835207Y-86417166D01*
X136808849Y-86420000D01*
X135534000Y-86420000D01*
X135466961Y-86400315D01*
X135421206Y-86347511D01*
X135410000Y-86296000D01*
X135410000Y-84084000D01*
X135429685Y-84016961D01*
X135482489Y-83971206D01*
X135534000Y-83960000D01*
X136846000Y-83960000D01*
X136913039Y-83979685D01*
G37*
G04 #@! TD.AperFunction*
G04 #@! TA.AperFunction,Conductor*
G36*
X159154996Y-83960001D02*
G01*
X159154998Y-83960001D01*
X159226693Y-83961566D01*
X159251580Y-83964645D01*
X159283472Y-83971924D01*
X159390046Y-83996248D01*
X159416249Y-84005417D01*
X159542974Y-84066445D01*
X159566484Y-84081217D01*
X159676452Y-84168915D01*
X159696084Y-84188547D01*
X159783782Y-84298515D01*
X159798556Y-84322028D01*
X159859580Y-84448746D01*
X159868751Y-84474955D01*
X159900354Y-84613419D01*
X159903433Y-84638304D01*
X159904999Y-84710001D01*
X159904999Y-92536000D01*
X159885314Y-92603039D01*
X159832510Y-92648794D01*
X159780999Y-92660000D01*
X157025854Y-92660000D01*
X157008207Y-92658738D01*
X156984497Y-92655329D01*
X156971777Y-92653500D01*
X156499159Y-92653500D01*
X156499157Y-92653500D01*
X156490606Y-92653740D01*
X156475108Y-92654608D01*
X156465425Y-92655425D01*
X156444607Y-92655426D01*
X156438219Y-92654888D01*
X156434889Y-92654608D01*
X156419395Y-92653740D01*
X156410843Y-92653500D01*
X156410842Y-92653500D01*
X155958887Y-92653500D01*
X155951488Y-92653057D01*
X155939773Y-92651650D01*
X155909066Y-92643889D01*
X155874646Y-92630315D01*
X155845210Y-92613764D01*
X155818705Y-92593664D01*
X155794828Y-92569786D01*
X155774732Y-92543285D01*
X155758182Y-92513851D01*
X155755326Y-92506611D01*
X155744609Y-92479433D01*
X155736848Y-92448719D01*
X155735442Y-92436999D01*
X155735000Y-92429607D01*
X155735000Y-91887393D01*
X155735442Y-91879999D01*
X155736089Y-91874605D01*
X155736850Y-91868266D01*
X155744609Y-91837565D01*
X155757707Y-91804351D01*
X155762948Y-91789339D01*
X155780007Y-91691890D01*
X155780752Y-91622025D01*
X155775216Y-91560785D01*
X155734016Y-91456347D01*
X155729578Y-91449277D01*
X155696874Y-91397176D01*
X155652514Y-91344868D01*
X155640631Y-91330855D01*
X155607288Y-91301335D01*
X154463311Y-90288533D01*
X154454239Y-90281103D01*
X154434405Y-90266091D01*
X154336113Y-90216563D01*
X154336104Y-90216559D01*
X154269075Y-90196877D01*
X154269069Y-90196876D01*
X154182997Y-90184500D01*
X151884346Y-90184500D01*
X151884341Y-90184500D01*
X151818994Y-90191571D01*
X151767164Y-90202923D01*
X151728581Y-90214074D01*
X151728574Y-90214077D01*
X151631822Y-90271023D01*
X151579148Y-90316921D01*
X151579141Y-90316928D01*
X151537089Y-90361776D01*
X151486481Y-90461994D01*
X151466984Y-90529082D01*
X151466982Y-90529090D01*
X151454847Y-90615182D01*
X151454847Y-90615191D01*
X151454847Y-90615194D01*
X151455241Y-90756501D01*
X151457421Y-91539147D01*
X151468758Y-91620745D01*
X151468761Y-91620758D01*
X151486647Y-91684562D01*
X151486647Y-91684563D01*
X151507042Y-91737684D01*
X151507043Y-91737686D01*
X151574510Y-91827428D01*
X151626038Y-91874605D01*
X151626043Y-91874609D01*
X151675336Y-91911353D01*
X151675337Y-91911353D01*
X151675338Y-91911354D01*
X151780611Y-91950373D01*
X151849462Y-91962202D01*
X151849463Y-91962203D01*
X151849464Y-91962203D01*
X151849470Y-91962204D01*
X151864739Y-91962622D01*
X151872090Y-91965000D01*
X151915132Y-91965000D01*
X151915132Y-91965001D01*
X153085769Y-91965000D01*
X153085771Y-91965000D01*
X153108813Y-91962202D01*
X153158880Y-91956123D01*
X153216504Y-91941920D01*
X153216515Y-91941916D01*
X153285355Y-91915809D01*
X153285359Y-91915806D01*
X153285364Y-91915805D01*
X153315570Y-91899951D01*
X153343518Y-91889353D01*
X153407421Y-91873603D01*
X153437095Y-91870000D01*
X153502906Y-91870000D01*
X153532579Y-91873603D01*
X153573449Y-91883676D01*
X153588530Y-91887393D01*
X153596475Y-91889351D01*
X153624426Y-91899950D01*
X153654627Y-91915802D01*
X153723489Y-91941918D01*
X153770675Y-91953548D01*
X153831055Y-91988704D01*
X153862843Y-92050924D01*
X153864999Y-92073944D01*
X153864999Y-92223466D01*
X153865276Y-92232664D01*
X153866283Y-92249356D01*
X153866685Y-92253796D01*
X153866684Y-92276239D01*
X153866289Y-92280584D01*
X153865278Y-92297275D01*
X153864999Y-92306511D01*
X153864999Y-92456053D01*
X153845314Y-92523092D01*
X153792510Y-92568847D01*
X153770676Y-92576449D01*
X153723497Y-92588078D01*
X153697881Y-92597793D01*
X153654631Y-92614196D01*
X153654620Y-92614200D01*
X153624423Y-92630048D01*
X153596479Y-92640645D01*
X153532581Y-92656396D01*
X153502903Y-92660000D01*
X153437096Y-92660000D01*
X153407419Y-92656396D01*
X153343519Y-92640645D01*
X153315573Y-92630047D01*
X153294261Y-92618862D01*
X153285370Y-92614196D01*
X153285368Y-92614195D01*
X153285362Y-92614192D01*
X153216513Y-92588082D01*
X153197392Y-92583369D01*
X153158883Y-92573877D01*
X153085770Y-92564999D01*
X153085765Y-92564999D01*
X151885111Y-92564999D01*
X151863862Y-92567511D01*
X151857256Y-92567651D01*
X151791145Y-92578172D01*
X151791124Y-92578176D01*
X151735202Y-92592604D01*
X151735195Y-92592606D01*
X151638443Y-92649554D01*
X151585766Y-92695457D01*
X151543714Y-92740306D01*
X151493107Y-92840522D01*
X151493106Y-92840523D01*
X151473608Y-92907618D01*
X151473607Y-92907621D01*
X151461473Y-92993714D01*
X151461472Y-92993725D01*
X151464157Y-93957208D01*
X151471229Y-94021702D01*
X151482434Y-94072862D01*
X151482435Y-94072867D01*
X151483897Y-94077954D01*
X151483501Y-94147823D01*
X151454954Y-94197269D01*
X151417923Y-94236552D01*
X151417919Y-94236557D01*
X151367041Y-94336640D01*
X151367041Y-94336641D01*
X151361381Y-94355924D01*
X151323612Y-94414705D01*
X151260058Y-94443735D01*
X151242401Y-94444999D01*
X149777954Y-94444999D01*
X149762851Y-94445747D01*
X149762841Y-94445748D01*
X149762839Y-94445748D01*
X149723434Y-94449661D01*
X149723424Y-94449662D01*
X149708472Y-94451898D01*
X149708467Y-94451898D01*
X149708460Y-94451900D01*
X149708459Y-94451900D01*
X148758882Y-94642344D01*
X148689281Y-94636226D01*
X148634036Y-94593451D01*
X148610687Y-94527598D01*
X148610499Y-94520765D01*
X148610499Y-94455143D01*
X148610499Y-94455136D01*
X148610124Y-94451900D01*
X148607586Y-94430012D01*
X148607585Y-94430010D01*
X148607585Y-94430009D01*
X148562206Y-94327235D01*
X148492652Y-94257681D01*
X148459167Y-94196358D01*
X148464151Y-94126666D01*
X148492652Y-94082319D01*
X148502109Y-94072862D01*
X148562206Y-94012765D01*
X148607585Y-93909991D01*
X148610500Y-93884865D01*
X148610499Y-93185136D01*
X148610497Y-93185117D01*
X148607586Y-93160012D01*
X148607585Y-93160010D01*
X148607585Y-93160009D01*
X148562206Y-93057235D01*
X148482765Y-92977794D01*
X148482764Y-92977793D01*
X148379992Y-92932415D01*
X148354868Y-92929500D01*
X148354865Y-92929500D01*
X146819387Y-92929500D01*
X146752348Y-92909815D01*
X146731706Y-92893181D01*
X146436319Y-92597793D01*
X146402834Y-92536470D01*
X146400000Y-92510112D01*
X146400000Y-91894427D01*
X146403600Y-91864765D01*
X146409109Y-91842412D01*
X146411331Y-91835282D01*
X146425140Y-91798872D01*
X146429834Y-91760206D01*
X146431177Y-91752875D01*
X146440500Y-91715056D01*
X146440500Y-91715054D01*
X146440561Y-91714558D01*
X146440706Y-91714219D01*
X146442297Y-91707769D01*
X146443368Y-91708033D01*
X146468180Y-91650379D01*
X146526113Y-91611320D01*
X146563657Y-91605500D01*
X147345991Y-91605500D01*
X147346000Y-91605500D01*
X147377546Y-91602107D01*
X147389200Y-91600855D01*
X147395833Y-91600499D01*
X148354856Y-91600499D01*
X148354864Y-91600499D01*
X148354879Y-91600497D01*
X148354882Y-91600497D01*
X148379987Y-91597586D01*
X148379988Y-91597585D01*
X148379991Y-91597585D01*
X148482765Y-91552206D01*
X148562206Y-91472765D01*
X148607585Y-91369991D01*
X148610500Y-91344865D01*
X148610499Y-91079005D01*
X148630183Y-91011969D01*
X148682987Y-90966214D01*
X148752146Y-90956270D01*
X148815701Y-90985295D01*
X148844295Y-91021381D01*
X148849265Y-91030850D01*
X148849265Y-91030851D01*
X148875075Y-91059986D01*
X148879695Y-91065882D01*
X148879701Y-91065890D01*
X148901816Y-91097928D01*
X148901821Y-91097933D01*
X148930955Y-91123743D01*
X148936250Y-91129037D01*
X148962069Y-91158181D01*
X148962073Y-91158185D01*
X148994111Y-91180299D01*
X149000005Y-91184916D01*
X149012685Y-91196150D01*
X149029145Y-91210732D01*
X149029151Y-91210736D01*
X149063614Y-91228823D01*
X149070018Y-91232694D01*
X149102070Y-91254818D01*
X149138484Y-91268627D01*
X149145283Y-91271687D01*
X149179775Y-91289790D01*
X149179777Y-91289790D01*
X149179778Y-91289791D01*
X149186914Y-91291549D01*
X149217590Y-91299110D01*
X149224712Y-91301329D01*
X149261128Y-91315140D01*
X149280572Y-91317500D01*
X149299773Y-91319832D01*
X149307140Y-91321181D01*
X149331369Y-91327153D01*
X149344943Y-91330500D01*
X149344944Y-91330500D01*
X150165058Y-91330500D01*
X150174590Y-91328149D01*
X150202875Y-91321177D01*
X150210206Y-91319834D01*
X150248872Y-91315140D01*
X150285277Y-91301333D01*
X150292427Y-91299106D01*
X150303744Y-91296316D01*
X150330225Y-91289790D01*
X150364707Y-91271691D01*
X150371507Y-91268630D01*
X150407930Y-91254818D01*
X150439981Y-91232693D01*
X150446379Y-91228825D01*
X150480852Y-91210734D01*
X150510002Y-91184908D01*
X150515871Y-91180310D01*
X150547929Y-91158183D01*
X150573748Y-91129037D01*
X150579037Y-91123748D01*
X150608183Y-91097929D01*
X150630310Y-91065871D01*
X150634908Y-91060002D01*
X150660734Y-91030852D01*
X150678825Y-90996379D01*
X150682693Y-90989981D01*
X150704818Y-90957930D01*
X150718630Y-90921507D01*
X150721691Y-90914707D01*
X150739790Y-90880225D01*
X150749106Y-90842427D01*
X150751335Y-90835271D01*
X150765140Y-90798872D01*
X150769834Y-90760206D01*
X150771177Y-90752875D01*
X150780500Y-90715056D01*
X150780500Y-90676126D01*
X150780952Y-90668646D01*
X150785645Y-90630000D01*
X150780951Y-90591347D01*
X150780500Y-90583872D01*
X150780500Y-90026126D01*
X150780952Y-90018646D01*
X150785645Y-89980000D01*
X150780951Y-89941347D01*
X150780500Y-89933872D01*
X150780500Y-89376126D01*
X150780952Y-89368646D01*
X150785645Y-89330000D01*
X150780951Y-89291347D01*
X150780500Y-89283872D01*
X150780500Y-88726126D01*
X150780952Y-88718646D01*
X150785645Y-88680000D01*
X150780951Y-88641347D01*
X150780500Y-88633872D01*
X150780500Y-88594943D01*
X150771183Y-88557147D01*
X150769832Y-88549773D01*
X150765140Y-88511130D01*
X150765140Y-88511128D01*
X150751329Y-88474712D01*
X150749106Y-88467574D01*
X150741282Y-88435829D01*
X150744352Y-88366027D01*
X150784673Y-88308965D01*
X150830840Y-88286052D01*
X150999225Y-88242819D01*
X150999228Y-88242818D01*
X151291757Y-88126998D01*
X151291758Y-88126997D01*
X151291756Y-88126997D01*
X151291766Y-88126994D01*
X151567484Y-87975416D01*
X151822030Y-87790478D01*
X152051390Y-87575094D01*
X152251947Y-87332663D01*
X152420537Y-87067007D01*
X152554503Y-86782315D01*
X152651731Y-86483079D01*
X152710688Y-86174015D01*
X152730444Y-85860000D01*
X152710688Y-85545985D01*
X152651731Y-85236921D01*
X152554503Y-84937685D01*
X152420537Y-84652993D01*
X152251947Y-84387337D01*
X152244770Y-84378662D01*
X152066393Y-84163041D01*
X152038827Y-84098839D01*
X152050348Y-84029925D01*
X152097297Y-83978180D01*
X152161935Y-83960000D01*
X159154996Y-83960001D01*
G37*
G04 #@! TD.AperFunction*
G04 #@! TA.AperFunction,Conductor*
G36*
X147980703Y-86988339D02*
G01*
X148011696Y-87029252D01*
X148029463Y-87067007D01*
X148029465Y-87067010D01*
X148029466Y-87067012D01*
X148198051Y-87332661D01*
X148198054Y-87332665D01*
X148398606Y-87575090D01*
X148398608Y-87575092D01*
X148627968Y-87790476D01*
X148627978Y-87790484D01*
X148882504Y-87975408D01*
X148882516Y-87975416D01*
X148905050Y-87987804D01*
X148954313Y-88037348D01*
X148968971Y-88105663D01*
X148944369Y-88171058D01*
X148927542Y-88189280D01*
X148901815Y-88212072D01*
X148879700Y-88244110D01*
X148875082Y-88250005D01*
X148849265Y-88279149D01*
X148831174Y-88313617D01*
X148827299Y-88320027D01*
X148805181Y-88352069D01*
X148805180Y-88352071D01*
X148791377Y-88388467D01*
X148788303Y-88395296D01*
X148770212Y-88429770D01*
X148770210Y-88429775D01*
X148760891Y-88467576D01*
X148758664Y-88474725D01*
X148744860Y-88511126D01*
X148740166Y-88549776D01*
X148738816Y-88557143D01*
X148729500Y-88594945D01*
X148729500Y-88633872D01*
X148729048Y-88641352D01*
X148724355Y-88679999D01*
X148729048Y-88718646D01*
X148729500Y-88726126D01*
X148729500Y-89283872D01*
X148729048Y-89291352D01*
X148724355Y-89329999D01*
X148729048Y-89368646D01*
X148729500Y-89376126D01*
X148729500Y-89933872D01*
X148729048Y-89941352D01*
X148724355Y-89979999D01*
X148729048Y-90018646D01*
X148729500Y-90026126D01*
X148729500Y-90385167D01*
X148709815Y-90452206D01*
X148657011Y-90497961D01*
X148587853Y-90507905D01*
X148524297Y-90478880D01*
X148517819Y-90472848D01*
X148482765Y-90437794D01*
X148379992Y-90392415D01*
X148354868Y-90389500D01*
X148354865Y-90389500D01*
X147899500Y-90389500D01*
X147832461Y-90369815D01*
X147786706Y-90317011D01*
X147775500Y-90265500D01*
X147775500Y-87082052D01*
X147795185Y-87015013D01*
X147847989Y-86969258D01*
X147917147Y-86959314D01*
X147980703Y-86988339D01*
G37*
G04 #@! TD.AperFunction*
G04 #@! TA.AperFunction,Conductor*
G36*
X148355103Y-83979685D02*
G01*
X148400858Y-84032489D01*
X148410802Y-84101647D01*
X148383607Y-84163041D01*
X148198054Y-84387334D01*
X148198051Y-84387338D01*
X148029464Y-84652990D01*
X148029461Y-84652996D01*
X147895499Y-84937678D01*
X147895497Y-84937683D01*
X147798270Y-85236916D01*
X147739311Y-85545988D01*
X147739310Y-85545995D01*
X147719556Y-85859994D01*
X147719556Y-85860005D01*
X147739310Y-86174004D01*
X147739311Y-86174011D01*
X147745735Y-86207684D01*
X147738961Y-86277224D01*
X147695666Y-86332063D01*
X147629596Y-86354790D01*
X147567729Y-86341451D01*
X147536502Y-86325573D01*
X147499111Y-86306561D01*
X147499108Y-86306560D01*
X147499110Y-86306560D01*
X147432078Y-86286877D01*
X147432072Y-86286876D01*
X147346000Y-86274500D01*
X146564000Y-86274500D01*
X146563991Y-86274500D01*
X146563990Y-86274501D01*
X146499064Y-86281481D01*
X146499052Y-86281483D01*
X146462682Y-86289395D01*
X146447549Y-86292687D01*
X146447550Y-86292687D01*
X146409345Y-86303644D01*
X146409337Y-86303648D01*
X146400000Y-86309108D01*
X146400000Y-83960000D01*
X148288064Y-83960000D01*
X148355103Y-83979685D01*
G37*
G04 #@! TD.AperFunction*
G04 #@! TA.AperFunction,Conductor*
G36*
X145723594Y-102669685D02*
G01*
X145734813Y-102679160D01*
X145734913Y-102679028D01*
X145744080Y-102685951D01*
X145744081Y-102685952D01*
X145749096Y-102689739D01*
X145768826Y-102704639D01*
X145775311Y-102710282D01*
X145783681Y-102718652D01*
X145817166Y-102779975D01*
X145820000Y-102806333D01*
X145820000Y-104812785D01*
X145810561Y-104860237D01*
X145788988Y-104912319D01*
X145788986Y-104912324D01*
X145768349Y-105069083D01*
X145768349Y-105069086D01*
X145788986Y-105225845D01*
X145788987Y-105225847D01*
X145798349Y-105248450D01*
X145810561Y-105277930D01*
X145820000Y-105325383D01*
X145820000Y-106085500D01*
X145800315Y-106152539D01*
X145747511Y-106198294D01*
X145696000Y-106209500D01*
X145271913Y-106209500D01*
X145266511Y-106209264D01*
X145259126Y-106208618D01*
X145226192Y-106205736D01*
X145226191Y-106205736D01*
X145187099Y-106216211D01*
X145181819Y-106217382D01*
X145141954Y-106224412D01*
X145136962Y-106226229D01*
X145120117Y-106233206D01*
X145115313Y-106235446D01*
X145082166Y-106258656D01*
X145077606Y-106261562D01*
X145042548Y-106281804D01*
X145042540Y-106281810D01*
X145016523Y-106312815D01*
X145012869Y-106316804D01*
X144699358Y-106630314D01*
X144638035Y-106663799D01*
X144595493Y-106665572D01*
X144510003Y-106654318D01*
X144509998Y-106654318D01*
X144353239Y-106674955D01*
X144353237Y-106674956D01*
X144207160Y-106735463D01*
X144081718Y-106831718D01*
X143983376Y-106959880D01*
X143926947Y-107001082D01*
X143857201Y-107005237D01*
X143796281Y-106971024D01*
X143786624Y-106959880D01*
X143761089Y-106926602D01*
X143688282Y-106831718D01*
X143562841Y-106735464D01*
X143416762Y-106674956D01*
X143416760Y-106674955D01*
X143260001Y-106654318D01*
X143259999Y-106654318D01*
X143103239Y-106674955D01*
X143103237Y-106674956D01*
X142957160Y-106735463D01*
X142831718Y-106831718D01*
X142735463Y-106957160D01*
X142674956Y-107103237D01*
X142674955Y-107103239D01*
X142659501Y-107220629D01*
X142659500Y-107220645D01*
X142659500Y-107799354D01*
X142659501Y-107799370D01*
X142674955Y-107916760D01*
X142674957Y-107916765D01*
X142704690Y-107988548D01*
X142712159Y-108058017D01*
X142680883Y-108120496D01*
X142620794Y-108156148D01*
X142590129Y-108160000D01*
X141367591Y-108160000D01*
X141300552Y-108140315D01*
X141254797Y-108087511D01*
X141244652Y-108052184D01*
X141241030Y-108024672D01*
X141240499Y-108016571D01*
X141240499Y-107303427D01*
X141241030Y-107295326D01*
X141243681Y-107275195D01*
X141245681Y-107260000D01*
X141241991Y-107231975D01*
X141225043Y-107103239D01*
X141225043Y-107103238D01*
X141164535Y-106957159D01*
X141068281Y-106831718D01*
X140942840Y-106735464D01*
X140796761Y-106674956D01*
X140796759Y-106674955D01*
X140640000Y-106654318D01*
X140639999Y-106654318D01*
X140604669Y-106658969D01*
X140596571Y-106659500D01*
X139883427Y-106659500D01*
X139875328Y-106658969D01*
X139839999Y-106654318D01*
X139839998Y-106654318D01*
X139683238Y-106674955D01*
X139683236Y-106674956D01*
X139537159Y-106735463D01*
X139411717Y-106831718D01*
X139315462Y-106957160D01*
X139269560Y-107067977D01*
X139225718Y-107122381D01*
X139159424Y-107144445D01*
X139091725Y-107127165D01*
X139044115Y-107076028D01*
X139040438Y-107067977D01*
X139035338Y-107055664D01*
X138994536Y-106957159D01*
X138898282Y-106831718D01*
X138772841Y-106735464D01*
X138626762Y-106674956D01*
X138626760Y-106674955D01*
X138470001Y-106654318D01*
X138469999Y-106654318D01*
X138313239Y-106674955D01*
X138313237Y-106674956D01*
X138167160Y-106735463D01*
X138041718Y-106831718D01*
X137943376Y-106959880D01*
X137886947Y-107001082D01*
X137817201Y-107005237D01*
X137756281Y-106971024D01*
X137746624Y-106959880D01*
X137721089Y-106926602D01*
X137648282Y-106831718D01*
X137522841Y-106735464D01*
X137376762Y-106674956D01*
X137376760Y-106674955D01*
X137220001Y-106654318D01*
X137219999Y-106654318D01*
X137063239Y-106674955D01*
X137063237Y-106674956D01*
X136917160Y-106735463D01*
X136791718Y-106831718D01*
X136693376Y-106959880D01*
X136636947Y-107001082D01*
X136567201Y-107005237D01*
X136506281Y-106971024D01*
X136496624Y-106959880D01*
X136471089Y-106926602D01*
X136398282Y-106831718D01*
X136272841Y-106735464D01*
X136126762Y-106674956D01*
X136126760Y-106674955D01*
X135970001Y-106654318D01*
X135969999Y-106654318D01*
X135813239Y-106674955D01*
X135813237Y-106674956D01*
X135667160Y-106735463D01*
X135541718Y-106831718D01*
X135445463Y-106957160D01*
X135384956Y-107103237D01*
X135384955Y-107103239D01*
X135369501Y-107220629D01*
X135369500Y-107220645D01*
X135369500Y-107799354D01*
X135369501Y-107799370D01*
X135384955Y-107916760D01*
X135384957Y-107916765D01*
X135414690Y-107988548D01*
X135422159Y-108058017D01*
X135390883Y-108120496D01*
X135330794Y-108156148D01*
X135300129Y-108160000D01*
X134439500Y-108160000D01*
X134372461Y-108140315D01*
X134326706Y-108087511D01*
X134315500Y-108036000D01*
X134315500Y-107287757D01*
X134316938Y-107268925D01*
X134322616Y-107231974D01*
X134322616Y-107231975D01*
X134325000Y-107200764D01*
X134324999Y-106675852D01*
X134324919Y-106673390D01*
X134324779Y-106669127D01*
X134323808Y-106654318D01*
X134323213Y-106648280D01*
X134323675Y-106619942D01*
X134333034Y-106548853D01*
X134341409Y-106517596D01*
X134368719Y-106451661D01*
X134384901Y-106423635D01*
X134408431Y-106392970D01*
X134428556Y-106366742D01*
X134448267Y-106346377D01*
X134452959Y-106342527D01*
X134464117Y-106332743D01*
X134469028Y-106328143D01*
X134788143Y-106009028D01*
X134792743Y-106004117D01*
X134802527Y-105992959D01*
X134806381Y-105988262D01*
X134826743Y-105968554D01*
X134883633Y-105924901D01*
X134911663Y-105908719D01*
X134977586Y-105881413D01*
X135008849Y-105873035D01*
X135079940Y-105863676D01*
X135108286Y-105863215D01*
X135114320Y-105863810D01*
X135129126Y-105864780D01*
X135135850Y-105865000D01*
X135135852Y-105865000D01*
X139425991Y-105865000D01*
X139426000Y-105865000D01*
X139469191Y-105860355D01*
X139475824Y-105860000D01*
X139550000Y-105860000D01*
X142222996Y-105069086D01*
X142572754Y-104965595D01*
X142607937Y-104960500D01*
X142670078Y-104960500D01*
X142692429Y-104962531D01*
X142694933Y-104962989D01*
X142702394Y-104964357D01*
X142702395Y-104964356D01*
X142702396Y-104964357D01*
X142764293Y-104960613D01*
X142768037Y-104960500D01*
X142787364Y-104960500D01*
X142787372Y-104960500D01*
X142806606Y-104958164D01*
X142810269Y-104957831D01*
X142872196Y-104954086D01*
X142881870Y-104951070D01*
X142903807Y-104946361D01*
X142913872Y-104945140D01*
X142953086Y-104930267D01*
X142971853Y-104923151D01*
X142975394Y-104921929D01*
X143006233Y-104912319D01*
X143034606Y-104903478D01*
X143043271Y-104898238D01*
X143063459Y-104888409D01*
X143072930Y-104884818D01*
X143123973Y-104849583D01*
X143127120Y-104847549D01*
X143144789Y-104836868D01*
X143180184Y-104815472D01*
X143187342Y-104808313D01*
X143204595Y-104793935D01*
X143212929Y-104788183D01*
X143254087Y-104741723D01*
X143256591Y-104739063D01*
X143300472Y-104695184D01*
X143305718Y-104686505D01*
X143319013Y-104668437D01*
X143325734Y-104660852D01*
X143325736Y-104660847D01*
X143329998Y-104654675D01*
X143330185Y-104654804D01*
X143347406Y-104631288D01*
X144214883Y-103756135D01*
X144245321Y-103733636D01*
X144250852Y-103730734D01*
X144378183Y-103617929D01*
X144474818Y-103477930D01*
X144535140Y-103318872D01*
X144555645Y-103150000D01*
X144535140Y-102981128D01*
X144474818Y-102822070D01*
X144474816Y-102822068D01*
X144473263Y-102817971D01*
X144467896Y-102748308D01*
X144501044Y-102686801D01*
X144562182Y-102652980D01*
X144589205Y-102650000D01*
X145656555Y-102650000D01*
X145723594Y-102669685D01*
G37*
G04 #@! TD.AperFunction*
G04 #@! TA.AperFunction,Conductor*
G36*
X138022539Y-98549685D02*
G01*
X138068294Y-98602489D01*
X138079500Y-98654000D01*
X138079500Y-99954856D01*
X138079502Y-99954882D01*
X138082413Y-99979987D01*
X138082414Y-99979991D01*
X138118934Y-100062699D01*
X138129500Y-100112785D01*
X138129500Y-100370788D01*
X138126861Y-100396232D01*
X138124957Y-100405311D01*
X138124957Y-100405317D01*
X138129023Y-100437937D01*
X138129500Y-100445614D01*
X138129500Y-100449038D01*
X138133087Y-100470541D01*
X138139427Y-100521393D01*
X138141520Y-100528426D01*
X138143908Y-100535381D01*
X138168295Y-100580444D01*
X138190801Y-100626483D01*
X138195065Y-100632455D01*
X138199580Y-100638256D01*
X138199581Y-100638257D01*
X138199582Y-100638258D01*
X138237275Y-100672957D01*
X138273181Y-100708863D01*
X138306666Y-100770184D01*
X138309500Y-100796543D01*
X138309500Y-100939894D01*
X138309501Y-100939900D01*
X138316028Y-100989487D01*
X138316029Y-100989489D01*
X138316029Y-100989490D01*
X138346346Y-101054504D01*
X138366776Y-101098316D01*
X138451684Y-101183224D01*
X138560513Y-101233972D01*
X138610099Y-101240500D01*
X138969900Y-101240499D01*
X139019487Y-101233972D01*
X139109242Y-101192118D01*
X139161648Y-101180500D01*
X139426000Y-101180500D01*
X139493039Y-101200185D01*
X139538794Y-101252989D01*
X139550000Y-101304500D01*
X139550000Y-101322435D01*
X139530315Y-101389474D01*
X139516208Y-101405940D01*
X139516791Y-101406457D01*
X139511815Y-101412073D01*
X139415182Y-101552068D01*
X139354860Y-101711125D01*
X139354859Y-101711130D01*
X139334355Y-101880000D01*
X139354859Y-102048869D01*
X139354860Y-102048874D01*
X139413895Y-102204536D01*
X139415182Y-102207930D01*
X139477983Y-102298913D01*
X139499866Y-102365266D01*
X139482401Y-102432918D01*
X139444826Y-102472453D01*
X139395447Y-102505447D01*
X139351132Y-102571769D01*
X139351131Y-102571770D01*
X139339500Y-102630247D01*
X139339500Y-103669752D01*
X139351131Y-103728229D01*
X139351132Y-103728230D01*
X139395447Y-103794552D01*
X139461769Y-103838867D01*
X139473054Y-103843542D01*
X139471350Y-103847654D01*
X139511939Y-103868791D01*
X139546624Y-103929443D01*
X139550000Y-103958181D01*
X139550000Y-105535500D01*
X139530315Y-105602539D01*
X139477511Y-105648294D01*
X139426000Y-105659500D01*
X135139214Y-105659500D01*
X135131115Y-105658969D01*
X135095786Y-105654318D01*
X135095785Y-105654318D01*
X134976851Y-105669976D01*
X134939024Y-105674956D01*
X134939023Y-105674956D01*
X134792943Y-105735464D01*
X134667505Y-105831716D01*
X134645805Y-105859994D01*
X134640454Y-105866096D01*
X134326096Y-106180454D01*
X134319994Y-106185805D01*
X134291718Y-106207503D01*
X134251437Y-106260000D01*
X134232952Y-106284090D01*
X134202963Y-106323173D01*
X134195462Y-106332948D01*
X134195461Y-106332949D01*
X134134957Y-106479020D01*
X134134955Y-106479025D01*
X134114318Y-106635784D01*
X134118968Y-106671114D01*
X134119499Y-106679214D01*
X134119500Y-107200762D01*
X134113780Y-107237988D01*
X134110000Y-107249998D01*
X134110000Y-108235998D01*
X134090315Y-108303037D01*
X134037511Y-108348792D01*
X133986000Y-108359998D01*
X130904000Y-108359998D01*
X130836961Y-108340313D01*
X130791206Y-108287509D01*
X130780000Y-108235998D01*
X130780000Y-106984500D01*
X130799685Y-106917461D01*
X130852489Y-106871706D01*
X130904000Y-106860500D01*
X131134317Y-106860500D01*
X131150601Y-106858356D01*
X131183173Y-106854068D01*
X131187355Y-106852117D01*
X131239759Y-106840500D01*
X131541217Y-106840500D01*
X131548155Y-106840889D01*
X131580050Y-106844483D01*
X131587034Y-106845270D01*
X131587034Y-106845269D01*
X131587035Y-106845270D01*
X131645479Y-106834211D01*
X131704287Y-106825348D01*
X131704290Y-106825346D01*
X131712447Y-106822830D01*
X131720469Y-106820023D01*
X131720472Y-106820023D01*
X131773072Y-106792222D01*
X131826642Y-106766425D01*
X131826642Y-106766424D01*
X131826644Y-106766424D01*
X131833695Y-106761616D01*
X131840538Y-106756566D01*
X131882598Y-106714505D01*
X131910860Y-106688282D01*
X131926194Y-106674055D01*
X131926196Y-106674050D01*
X131931987Y-106666790D01*
X131932643Y-106667313D01*
X131942033Y-106655069D01*
X131990285Y-106606818D01*
X132051608Y-106573334D01*
X132077965Y-106570500D01*
X132084317Y-106570500D01*
X132100601Y-106568356D01*
X132133173Y-106564068D01*
X132240404Y-106514065D01*
X132240404Y-106514064D01*
X132244579Y-106512118D01*
X132296984Y-106500500D01*
X132363016Y-106500500D01*
X132415421Y-106512118D01*
X132419595Y-106514064D01*
X132419596Y-106514065D01*
X132526827Y-106564068D01*
X132575683Y-106570500D01*
X132575684Y-106570500D01*
X133024317Y-106570500D01*
X133040601Y-106568356D01*
X133073173Y-106564068D01*
X133180404Y-106514065D01*
X133264065Y-106430404D01*
X133314068Y-106323173D01*
X133320500Y-106274316D01*
X133320499Y-106253857D01*
X133340185Y-106186819D01*
X133356814Y-106166182D01*
X134335484Y-105187513D01*
X134335484Y-105187512D01*
X134342552Y-105180445D01*
X134342557Y-105180438D01*
X134358050Y-105164946D01*
X134368109Y-105145202D01*
X134378272Y-105128619D01*
X134391297Y-105110693D01*
X134398144Y-105089618D01*
X134405589Y-105071644D01*
X134415646Y-105051908D01*
X134419111Y-105030025D01*
X134423654Y-105011106D01*
X134430499Y-104990039D01*
X134430500Y-104990037D01*
X134430500Y-104863171D01*
X134430500Y-104863170D01*
X134430500Y-104551543D01*
X134450185Y-104484504D01*
X134466819Y-104463861D01*
X134469198Y-104461483D01*
X134520573Y-104356393D01*
X134530500Y-104288260D01*
X134530500Y-103583999D01*
X134550185Y-103516961D01*
X134602989Y-103471206D01*
X134654500Y-103460000D01*
X135062128Y-103460000D01*
X135068208Y-103460299D01*
X135070250Y-103460500D01*
X136494909Y-103460500D01*
X136561948Y-103480185D01*
X136603961Y-103525480D01*
X136616961Y-103549500D01*
X136628295Y-103570445D01*
X136650801Y-103616482D01*
X136655065Y-103622455D01*
X136659580Y-103628256D01*
X136697275Y-103662958D01*
X137053181Y-104018862D01*
X137086666Y-104080185D01*
X137089500Y-104106543D01*
X137089500Y-104979752D01*
X137101131Y-105038229D01*
X137101132Y-105038230D01*
X137145447Y-105104552D01*
X137211769Y-105148867D01*
X137211770Y-105148868D01*
X137270247Y-105160499D01*
X137270250Y-105160500D01*
X137270252Y-105160500D01*
X138709750Y-105160500D01*
X138709751Y-105160499D01*
X138724568Y-105157552D01*
X138768229Y-105148868D01*
X138768229Y-105148867D01*
X138768231Y-105148867D01*
X138834552Y-105104552D01*
X138878867Y-105038231D01*
X138878867Y-105038229D01*
X138878868Y-105038229D01*
X138890499Y-104979752D01*
X138890500Y-104979750D01*
X138890500Y-103740249D01*
X138890499Y-103740247D01*
X138878868Y-103681770D01*
X138878867Y-103681769D01*
X138834552Y-103615447D01*
X138768230Y-103571132D01*
X138768229Y-103571131D01*
X138709752Y-103559500D01*
X138709748Y-103559500D01*
X137636544Y-103559500D01*
X137569505Y-103539815D01*
X137548863Y-103523181D01*
X137326819Y-103301137D01*
X137293334Y-103239814D01*
X137290500Y-103213456D01*
X137290500Y-102031544D01*
X137310185Y-101964505D01*
X137326819Y-101943863D01*
X137393045Y-101877637D01*
X137412908Y-101861507D01*
X137420669Y-101856437D01*
X137440873Y-101830477D01*
X137445941Y-101824739D01*
X137448375Y-101822307D01*
X137461040Y-101804567D01*
X137469801Y-101793310D01*
X137492517Y-101764126D01*
X137492520Y-101764116D01*
X137496006Y-101757675D01*
X137499235Y-101751070D01*
X137499239Y-101751066D01*
X137513856Y-101701966D01*
X137530500Y-101653488D01*
X137530500Y-101653482D01*
X137531692Y-101646342D01*
X137531701Y-101646272D01*
X137531714Y-101646191D01*
X137532617Y-101638952D01*
X137530500Y-101587770D01*
X137530500Y-100112785D01*
X137541066Y-100062698D01*
X137577584Y-99979993D01*
X137577585Y-99979991D01*
X137580500Y-99954865D01*
X137580499Y-98653999D01*
X137600184Y-98586961D01*
X137652987Y-98541206D01*
X137704499Y-98530000D01*
X137955500Y-98530000D01*
X138022539Y-98549685D01*
G37*
G04 #@! TD.AperFunction*
G04 #@! TA.AperFunction,Conductor*
G36*
X117325946Y-86891932D02*
G01*
X117353848Y-86927122D01*
X117354712Y-86926518D01*
X117360934Y-86935404D01*
X117452267Y-87026737D01*
X117449443Y-87029560D01*
X117480183Y-87068043D01*
X117487352Y-87137543D01*
X117455808Y-87199887D01*
X117452101Y-87203099D01*
X117452267Y-87203265D01*
X117360935Y-87294596D01*
X117310931Y-87401829D01*
X117304500Y-87450684D01*
X117304500Y-87799317D01*
X117310931Y-87848172D01*
X117360935Y-87955405D01*
X117388181Y-87982651D01*
X117421666Y-88043974D01*
X117424500Y-88070332D01*
X117424500Y-89188429D01*
X117424501Y-89188439D01*
X117431346Y-89209507D01*
X117435887Y-89228418D01*
X117439354Y-89250304D01*
X117439355Y-89250307D01*
X117449412Y-89270045D01*
X117456857Y-89288018D01*
X117463704Y-89309090D01*
X117476726Y-89327014D01*
X117486890Y-89343600D01*
X117487680Y-89345150D01*
X117496950Y-89363342D01*
X117517864Y-89384256D01*
X117517893Y-89384287D01*
X119211180Y-91077573D01*
X119244665Y-91138896D01*
X119247499Y-91165254D01*
X119247499Y-92063250D01*
X119247500Y-92063252D01*
X119259131Y-92121729D01*
X119259132Y-92121731D01*
X119275659Y-92146464D01*
X119296538Y-92213141D01*
X119278054Y-92280522D01*
X119260239Y-92303037D01*
X118868736Y-92694540D01*
X118807413Y-92728025D01*
X118737721Y-92723041D01*
X118681788Y-92681169D01*
X118666494Y-92654312D01*
X118654662Y-92625747D01*
X118634536Y-92577159D01*
X118538282Y-92451718D01*
X118412841Y-92355464D01*
X118266762Y-92294956D01*
X118266760Y-92294955D01*
X118110001Y-92274318D01*
X118109999Y-92274318D01*
X117953239Y-92294955D01*
X117953237Y-92294956D01*
X117807160Y-92355463D01*
X117681718Y-92451718D01*
X117585463Y-92577160D01*
X117524956Y-92723237D01*
X117524955Y-92723239D01*
X117510218Y-92835185D01*
X117481952Y-92899082D01*
X117423627Y-92937553D01*
X117387279Y-92943000D01*
X114750770Y-92943000D01*
X114725324Y-92940361D01*
X114715004Y-92938197D01*
X114715003Y-92938197D01*
X114715001Y-92938197D01*
X114680294Y-92942523D01*
X114672618Y-92943000D01*
X114668780Y-92943000D01*
X114646068Y-92946790D01*
X114592298Y-92953492D01*
X114584853Y-92955709D01*
X114577518Y-92958227D01*
X114529892Y-92984001D01*
X114481217Y-93007798D01*
X114474928Y-93012288D01*
X114468771Y-93017079D01*
X114468770Y-93017081D01*
X114468768Y-93017082D01*
X114468768Y-93017083D01*
X114432099Y-93056915D01*
X113544281Y-93944733D01*
X113524429Y-93960856D01*
X113515596Y-93966627D01*
X113494114Y-93994225D01*
X113489037Y-93999976D01*
X113486318Y-94002696D01*
X113486306Y-94002710D01*
X113472925Y-94021451D01*
X113439649Y-94064204D01*
X113435957Y-94071025D01*
X113432541Y-94078012D01*
X113417088Y-94129920D01*
X113399500Y-94181154D01*
X113398225Y-94188794D01*
X113397261Y-94196523D01*
X113399500Y-94250627D01*
X113399500Y-94375500D01*
X113379815Y-94442539D01*
X113327011Y-94488294D01*
X113275500Y-94499500D01*
X112498533Y-94499500D01*
X112431494Y-94479815D01*
X112385739Y-94427011D01*
X112374540Y-94376797D01*
X112350709Y-92099235D01*
X112369690Y-92032000D01*
X112422012Y-91985695D01*
X112491063Y-91975028D01*
X112532327Y-91988148D01*
X112649773Y-92049789D01*
X112649775Y-92049790D01*
X112814944Y-92090500D01*
X112985056Y-92090500D01*
X113150225Y-92049790D01*
X113232361Y-92006681D01*
X113300849Y-91970736D01*
X113300850Y-91970734D01*
X113300852Y-91970734D01*
X113428183Y-91857929D01*
X113524818Y-91717930D01*
X113585140Y-91558872D01*
X113605645Y-91390000D01*
X113585140Y-91221128D01*
X113524818Y-91062070D01*
X113428183Y-90922071D01*
X113300852Y-90809266D01*
X113300849Y-90809263D01*
X113150226Y-90730210D01*
X112985056Y-90689500D01*
X112814944Y-90689500D01*
X112649776Y-90730209D01*
X112517593Y-90799585D01*
X112449084Y-90813310D01*
X112384031Y-90787817D01*
X112343087Y-90731201D01*
X112335975Y-90691093D01*
X112330490Y-90166861D01*
X112330939Y-90158753D01*
X112335645Y-90120000D01*
X112315140Y-89951128D01*
X112304620Y-89923390D01*
X112278138Y-89853561D01*
X112254818Y-89792070D01*
X112250761Y-89786193D01*
X112207683Y-89723784D01*
X112158183Y-89652071D01*
X112054014Y-89559786D01*
X112030849Y-89539263D01*
X111880226Y-89460210D01*
X111715056Y-89419500D01*
X111544944Y-89419500D01*
X111379773Y-89460210D01*
X111229150Y-89539263D01*
X111101816Y-89652072D01*
X111005182Y-89792068D01*
X110944860Y-89951125D01*
X110944859Y-89951130D01*
X110924355Y-90120000D01*
X110944859Y-90288869D01*
X110944860Y-90288874D01*
X111005182Y-90447931D01*
X111031156Y-90485560D01*
X111053039Y-90551915D01*
X111035574Y-90619566D01*
X110984306Y-90667036D01*
X110929106Y-90680000D01*
X109914000Y-90680000D01*
X109846961Y-90660315D01*
X109801206Y-90607511D01*
X109790000Y-90556000D01*
X109790000Y-90265292D01*
X109809685Y-90198253D01*
X109826319Y-90177611D01*
X110276473Y-89727458D01*
X110803660Y-89200270D01*
X110864984Y-89166785D01*
X110891342Y-89163951D01*
X113391763Y-89163951D01*
X113458802Y-89183636D01*
X113479444Y-89200270D01*
X114717488Y-90438314D01*
X114750973Y-90499637D01*
X114752746Y-90542179D01*
X114743818Y-90609997D01*
X114743818Y-90610001D01*
X114764455Y-90766760D01*
X114764456Y-90766762D01*
X114782060Y-90809263D01*
X114824964Y-90912841D01*
X114921218Y-91038282D01*
X115046659Y-91134536D01*
X115192738Y-91195044D01*
X115267048Y-91204827D01*
X115349499Y-91215682D01*
X115349500Y-91215682D01*
X115349501Y-91215682D01*
X115431952Y-91204827D01*
X115506262Y-91195044D01*
X115652341Y-91134536D01*
X115777782Y-91038282D01*
X115874036Y-90912841D01*
X115934544Y-90766762D01*
X115955182Y-90610000D01*
X115954854Y-90607511D01*
X115941423Y-90505492D01*
X115934544Y-90453238D01*
X115874036Y-90307159D01*
X115777782Y-90181718D01*
X115652341Y-90085464D01*
X115608315Y-90067228D01*
X115506262Y-90024956D01*
X115506260Y-90024955D01*
X115349501Y-90004318D01*
X115349497Y-90004318D01*
X115281679Y-90013246D01*
X115212644Y-90002480D01*
X115177814Y-89977988D01*
X114125458Y-88925632D01*
X114091973Y-88864309D01*
X114096957Y-88794617D01*
X114138829Y-88738684D01*
X114204293Y-88714267D01*
X114213139Y-88713951D01*
X115211993Y-88713951D01*
X115217396Y-88714186D01*
X115257722Y-88717715D01*
X115296855Y-88707228D01*
X115302077Y-88706070D01*
X115341960Y-88699039D01*
X115341965Y-88699035D01*
X115347014Y-88697198D01*
X115363739Y-88690270D01*
X115368596Y-88688005D01*
X115368599Y-88688005D01*
X115401756Y-88664786D01*
X115406305Y-88661889D01*
X115441370Y-88641645D01*
X115445331Y-88636925D01*
X115452452Y-88628437D01*
X115467396Y-88610627D01*
X115471037Y-88606653D01*
X117088204Y-86989486D01*
X117092166Y-86985855D01*
X117123194Y-86959821D01*
X117141908Y-86927405D01*
X117192474Y-86879190D01*
X117261080Y-86865965D01*
X117325946Y-86891932D01*
G37*
G04 #@! TD.AperFunction*
G04 #@! TA.AperFunction,Conductor*
G36*
X126686401Y-83979685D02*
G01*
X126732156Y-84032489D01*
X126742100Y-84101647D01*
X126717739Y-84159483D01*
X126662267Y-84231775D01*
X126650463Y-84247160D01*
X126589956Y-84393237D01*
X126589955Y-84393239D01*
X126574501Y-84510629D01*
X126574500Y-84510645D01*
X126574500Y-85089354D01*
X126574501Y-85089370D01*
X126589955Y-85206760D01*
X126589956Y-85206762D01*
X126649336Y-85350119D01*
X126650464Y-85352841D01*
X126746718Y-85478282D01*
X126872159Y-85574536D01*
X127018238Y-85635044D01*
X127096618Y-85645363D01*
X127174999Y-85655682D01*
X127175000Y-85655682D01*
X127175001Y-85655682D01*
X127227253Y-85648802D01*
X127331762Y-85635044D01*
X127477841Y-85574536D01*
X127603282Y-85478282D01*
X127699536Y-85352841D01*
X127699537Y-85352838D01*
X127701623Y-85350120D01*
X127758051Y-85308917D01*
X127827797Y-85304762D01*
X127888717Y-85338974D01*
X127898374Y-85350119D01*
X127978648Y-85454733D01*
X127996718Y-85478282D01*
X128122159Y-85574536D01*
X128268238Y-85635044D01*
X128346618Y-85645363D01*
X128424999Y-85655682D01*
X128425000Y-85655682D01*
X128425001Y-85655682D01*
X128477254Y-85648802D01*
X128581762Y-85635044D01*
X128727841Y-85574536D01*
X128853282Y-85478282D01*
X128949536Y-85352841D01*
X128949535Y-85352841D01*
X128951624Y-85350120D01*
X129008052Y-85308917D01*
X129077798Y-85304762D01*
X129138718Y-85338974D01*
X129148376Y-85350120D01*
X129246715Y-85478279D01*
X129246718Y-85478282D01*
X129372159Y-85574536D01*
X129372167Y-85574539D01*
X129377996Y-85577905D01*
X129426213Y-85628470D01*
X129440000Y-85685295D01*
X129440000Y-86590844D01*
X129439729Y-86596630D01*
X129438072Y-86614299D01*
X129437000Y-86625732D01*
X129437000Y-87334267D01*
X129439729Y-87363363D01*
X129440000Y-87369156D01*
X129440000Y-87985500D01*
X129420315Y-88052539D01*
X129367511Y-88098294D01*
X129316000Y-88109500D01*
X129015683Y-88109500D01*
X128966828Y-88115931D01*
X128855421Y-88167882D01*
X128803016Y-88179500D01*
X128736984Y-88179500D01*
X128684579Y-88167882D01*
X128614615Y-88135257D01*
X128573173Y-88115932D01*
X128573171Y-88115931D01*
X128573172Y-88115931D01*
X128524317Y-88109500D01*
X128524316Y-88109500D01*
X128075684Y-88109500D01*
X128075683Y-88109500D01*
X128026828Y-88115931D01*
X127936866Y-88157882D01*
X127884461Y-88169500D01*
X127786984Y-88169500D01*
X127734579Y-88157882D01*
X127686060Y-88135257D01*
X127623173Y-88105932D01*
X127623171Y-88105931D01*
X127623172Y-88105931D01*
X127574317Y-88099500D01*
X127574316Y-88099500D01*
X127125684Y-88099500D01*
X127125683Y-88099500D01*
X127076828Y-88105931D01*
X126969595Y-88155935D01*
X126885935Y-88239595D01*
X126835931Y-88346828D01*
X126829500Y-88395683D01*
X126829500Y-88744316D01*
X126835931Y-88793171D01*
X126885935Y-88900404D01*
X126977267Y-88991736D01*
X126974443Y-88994559D01*
X127005183Y-89033042D01*
X127012352Y-89102542D01*
X126980808Y-89164886D01*
X126977101Y-89168098D01*
X126977267Y-89168264D01*
X126885935Y-89259595D01*
X126835931Y-89366828D01*
X126829499Y-89415683D01*
X126829499Y-89492747D01*
X126809814Y-89559786D01*
X126793180Y-89580426D01*
X126092516Y-90281091D01*
X126092513Y-90281094D01*
X126069949Y-90303659D01*
X126069948Y-90303660D01*
X126059891Y-90323397D01*
X126049731Y-90339977D01*
X126036706Y-90357905D01*
X126036703Y-90357910D01*
X126029854Y-90378988D01*
X126022413Y-90396952D01*
X126012354Y-90416696D01*
X126012352Y-90416699D01*
X126008886Y-90438582D01*
X126004347Y-90457490D01*
X125997499Y-90478566D01*
X125995973Y-90488206D01*
X125992289Y-90487622D01*
X125977749Y-90536966D01*
X125942392Y-90572925D01*
X125903447Y-90598947D01*
X125859132Y-90665269D01*
X125859131Y-90665270D01*
X125847500Y-90723747D01*
X125847500Y-91800812D01*
X125827815Y-91867851D01*
X125811181Y-91888493D01*
X125692993Y-92006681D01*
X125631670Y-92040166D01*
X125605312Y-92043000D01*
X124872500Y-92043000D01*
X124805461Y-92023315D01*
X124759706Y-91970511D01*
X124748500Y-91919000D01*
X124748500Y-90897684D01*
X124768185Y-90830645D01*
X124820989Y-90784890D01*
X124828308Y-90781901D01*
X124828866Y-90781603D01*
X124828869Y-90781603D01*
X124909582Y-90738595D01*
X124962387Y-90692840D01*
X124980342Y-90675247D01*
X125024989Y-90595430D01*
X125044674Y-90528391D01*
X125052999Y-90470495D01*
X125053000Y-90361581D01*
X125048129Y-90317101D01*
X125041570Y-90287519D01*
X125039298Y-90277266D01*
X125038358Y-90271938D01*
X125037483Y-90265292D01*
X125035529Y-90250447D01*
X125034999Y-90242372D01*
X125034999Y-89877556D01*
X125046615Y-89825156D01*
X125064816Y-89786124D01*
X125074844Y-89768535D01*
X125078050Y-89763848D01*
X125086257Y-89746539D01*
X125107979Y-89700724D01*
X125107979Y-89700723D01*
X125107983Y-89700715D01*
X125111732Y-89688589D01*
X125119739Y-89668881D01*
X125119365Y-89669613D01*
X125122727Y-89662319D01*
X125130193Y-89644293D01*
X125139017Y-89626974D01*
X125142058Y-89622011D01*
X125160095Y-89599131D01*
X125242884Y-89516344D01*
X125242884Y-89516343D01*
X125242890Y-89516338D01*
X125242890Y-89516337D01*
X125250233Y-89508163D01*
X125250234Y-89508160D01*
X125250240Y-89508155D01*
X125270327Y-89483227D01*
X125307490Y-89412182D01*
X125327175Y-89345143D01*
X125335500Y-89287245D01*
X125335500Y-88504000D01*
X125330803Y-88460316D01*
X125326535Y-88440701D01*
X125319598Y-88408807D01*
X125317110Y-88398629D01*
X125317110Y-88398627D01*
X125274100Y-88317915D01*
X125228345Y-88265111D01*
X125210756Y-88247159D01*
X125210750Y-88247154D01*
X125130940Y-88202511D01*
X125130935Y-88202509D01*
X125063903Y-88182826D01*
X125063899Y-88182825D01*
X125063898Y-88182825D01*
X125006000Y-88174500D01*
X124054000Y-88174500D01*
X124053992Y-88174500D01*
X124010313Y-88179197D01*
X123958807Y-88190402D01*
X123948629Y-88192889D01*
X123948624Y-88192891D01*
X123867916Y-88235899D01*
X123867913Y-88235901D01*
X123854921Y-88247159D01*
X123815111Y-88281655D01*
X123797159Y-88299243D01*
X123797154Y-88299249D01*
X123752511Y-88379059D01*
X123752509Y-88379064D01*
X123732826Y-88446096D01*
X123732825Y-88446101D01*
X123732825Y-88446102D01*
X123724502Y-88503992D01*
X123724500Y-88504003D01*
X123724500Y-89335694D01*
X123723238Y-89353339D01*
X123720000Y-89375858D01*
X123720000Y-89703280D01*
X123716657Y-89731877D01*
X123695306Y-89821962D01*
X123685459Y-89849016D01*
X123643916Y-89931735D01*
X123628096Y-89955789D01*
X123568589Y-90026707D01*
X123547646Y-90046466D01*
X123473394Y-90101744D01*
X123448460Y-90116139D01*
X123363460Y-90152804D01*
X123335880Y-90161061D01*
X123244713Y-90177137D01*
X123215969Y-90178811D01*
X123123559Y-90173428D01*
X123095208Y-90168429D01*
X123006518Y-90141878D01*
X122980080Y-90130474D01*
X122866111Y-90064673D01*
X122863045Y-90062782D01*
X122851134Y-90054950D01*
X122840571Y-90048003D01*
X122840566Y-90048000D01*
X122840565Y-90048000D01*
X122777018Y-90018979D01*
X122759484Y-90012235D01*
X122703980Y-89969795D01*
X122680232Y-89904085D01*
X122680000Y-89896501D01*
X122680000Y-88703964D01*
X122699685Y-88636925D01*
X122716314Y-88616288D01*
X123463784Y-87868818D01*
X123525107Y-87835334D01*
X123551465Y-87832500D01*
X123583359Y-87832500D01*
X123590297Y-87832889D01*
X123622192Y-87836483D01*
X123629176Y-87837270D01*
X123629176Y-87837269D01*
X123629177Y-87837270D01*
X123687621Y-87826211D01*
X123746429Y-87817348D01*
X123746432Y-87817346D01*
X123754589Y-87814830D01*
X123762611Y-87812023D01*
X123762614Y-87812023D01*
X123815214Y-87784222D01*
X123868784Y-87758425D01*
X123868784Y-87758424D01*
X123868786Y-87758424D01*
X123875828Y-87753622D01*
X123882673Y-87748569D01*
X123882680Y-87748566D01*
X123924740Y-87706504D01*
X123968336Y-87666055D01*
X123968338Y-87666051D01*
X123974132Y-87658786D01*
X123974788Y-87659309D01*
X123984174Y-87647070D01*
X124164426Y-87466819D01*
X124225749Y-87433334D01*
X124252107Y-87430500D01*
X124297687Y-87430500D01*
X124350091Y-87442117D01*
X124375513Y-87453972D01*
X124425099Y-87460500D01*
X124844900Y-87460499D01*
X124894487Y-87453972D01*
X124919908Y-87442117D01*
X124972313Y-87430500D01*
X126577020Y-87430500D01*
X126644059Y-87450185D01*
X126677531Y-87486628D01*
X126679189Y-87485405D01*
X126684706Y-87492880D01*
X126684707Y-87492882D01*
X126765350Y-87602150D01*
X126874618Y-87682793D01*
X126917345Y-87697744D01*
X127002799Y-87727646D01*
X127033230Y-87730500D01*
X127033234Y-87730500D01*
X127741770Y-87730500D01*
X127772199Y-87727646D01*
X127772201Y-87727646D01*
X127836290Y-87705219D01*
X127900382Y-87682793D01*
X128009650Y-87602150D01*
X128090293Y-87492882D01*
X128124305Y-87395682D01*
X128135146Y-87364701D01*
X128135146Y-87364699D01*
X128135271Y-87363363D01*
X128138000Y-87334266D01*
X128138000Y-86625734D01*
X128135146Y-86595301D01*
X128135146Y-86595300D01*
X128135146Y-86595298D01*
X128097306Y-86487160D01*
X128090293Y-86467118D01*
X128009650Y-86357850D01*
X127900382Y-86277207D01*
X127900380Y-86277206D01*
X127772200Y-86232353D01*
X127741770Y-86229500D01*
X127741766Y-86229500D01*
X127033234Y-86229500D01*
X127033230Y-86229500D01*
X127002800Y-86232353D01*
X127002798Y-86232353D01*
X126874619Y-86277206D01*
X126874617Y-86277207D01*
X126837313Y-86304739D01*
X126765350Y-86357850D01*
X126711597Y-86430684D01*
X126679189Y-86474595D01*
X126677214Y-86473137D01*
X126637920Y-86513515D01*
X126577020Y-86529500D01*
X124972313Y-86529500D01*
X124919908Y-86517882D01*
X124894489Y-86506029D01*
X124894487Y-86506028D01*
X124894485Y-86506027D01*
X124894483Y-86506027D01*
X124844901Y-86499500D01*
X124425105Y-86499500D01*
X124409386Y-86501569D01*
X124375513Y-86506028D01*
X124375511Y-86506029D01*
X124375509Y-86506029D01*
X124350092Y-86517882D01*
X124297687Y-86529500D01*
X124042925Y-86529500D01*
X124035986Y-86529110D01*
X124023687Y-86527724D01*
X123997108Y-86524729D01*
X123938650Y-86535789D01*
X123879850Y-86544652D01*
X123871692Y-86547168D01*
X123863671Y-86549975D01*
X123863670Y-86549976D01*
X123863668Y-86549976D01*
X123863665Y-86549978D01*
X123811057Y-86577783D01*
X123757500Y-86603575D01*
X123750438Y-86608388D01*
X123743604Y-86613433D01*
X123701543Y-86655495D01*
X123657949Y-86695944D01*
X123652154Y-86703210D01*
X123651503Y-86702690D01*
X123642112Y-86714924D01*
X123539147Y-86817891D01*
X123484036Y-86873003D01*
X123461858Y-86895181D01*
X123400535Y-86928666D01*
X123374176Y-86931500D01*
X123342283Y-86931500D01*
X123335344Y-86931110D01*
X123321069Y-86929502D01*
X123296464Y-86926729D01*
X123238011Y-86937789D01*
X123179211Y-86946652D01*
X123171056Y-86949167D01*
X123163030Y-86951975D01*
X123163029Y-86951976D01*
X123163027Y-86951976D01*
X123163024Y-86951978D01*
X123110426Y-86979777D01*
X123056858Y-87005575D01*
X123049808Y-87010380D01*
X123042961Y-87015435D01*
X123021937Y-87036458D01*
X123000913Y-87057483D01*
X122981834Y-87075186D01*
X122957303Y-87097947D01*
X122951513Y-87105208D01*
X122950862Y-87104688D01*
X122941467Y-87116928D01*
X122098677Y-87959718D01*
X122037354Y-87993203D01*
X121967662Y-87988219D01*
X121911729Y-87946347D01*
X121887312Y-87880883D01*
X121888057Y-87855852D01*
X121890504Y-87837270D01*
X121895500Y-87799317D01*
X121895500Y-87450685D01*
X121889068Y-87401828D01*
X121839065Y-87294597D01*
X121755404Y-87210936D01*
X121747733Y-87203265D01*
X121750561Y-87200436D01*
X121719843Y-87162024D01*
X121712635Y-87092527D01*
X121744143Y-87030166D01*
X121747903Y-87026907D01*
X121747733Y-87026737D01*
X121788630Y-86985840D01*
X121839065Y-86935405D01*
X121889068Y-86828174D01*
X121895500Y-86779317D01*
X121895500Y-86430685D01*
X121889068Y-86381828D01*
X121839065Y-86274597D01*
X121755404Y-86190936D01*
X121648173Y-86140933D01*
X121648171Y-86140932D01*
X121648172Y-86140932D01*
X121599317Y-86134501D01*
X121599316Y-86134501D01*
X121150684Y-86134501D01*
X121150683Y-86134501D01*
X121101828Y-86140932D01*
X121099222Y-86142147D01*
X121097644Y-86142883D01*
X121045241Y-86154501D01*
X120255580Y-86154501D01*
X120188541Y-86134816D01*
X120142786Y-86082012D01*
X120132842Y-86012854D01*
X120141019Y-85983049D01*
X120183005Y-85881684D01*
X120185044Y-85876762D01*
X120205682Y-85720000D01*
X120204365Y-85710000D01*
X120185044Y-85563239D01*
X120185044Y-85563238D01*
X120124536Y-85417159D01*
X120028282Y-85291718D01*
X119902841Y-85195464D01*
X119878696Y-85185463D01*
X119756762Y-85134956D01*
X119756760Y-85134955D01*
X119600001Y-85114318D01*
X119599999Y-85114318D01*
X119443239Y-85134955D01*
X119443237Y-85134956D01*
X119297160Y-85195463D01*
X119171718Y-85291718D01*
X119075463Y-85417160D01*
X119014956Y-85563237D01*
X119014955Y-85563239D01*
X118994318Y-85719998D01*
X118994318Y-85720001D01*
X119014955Y-85876760D01*
X119014957Y-85876765D01*
X119058981Y-85983049D01*
X119066450Y-86052518D01*
X119035175Y-86114997D01*
X118975086Y-86150649D01*
X118944420Y-86154501D01*
X118154759Y-86154501D01*
X118102355Y-86142883D01*
X118098173Y-86140933D01*
X118098171Y-86140932D01*
X118098172Y-86140932D01*
X118071865Y-86137469D01*
X118007969Y-86109202D01*
X117969499Y-86050877D01*
X117968668Y-85981012D01*
X117973483Y-85967098D01*
X118015044Y-85866762D01*
X118034365Y-85720001D01*
X118035682Y-85710001D01*
X118035682Y-85709998D01*
X118016361Y-85563239D01*
X118015044Y-85553238D01*
X117954536Y-85407159D01*
X117858282Y-85281718D01*
X117732841Y-85185464D01*
X117586762Y-85124956D01*
X117586760Y-85124955D01*
X117430001Y-85104318D01*
X117429999Y-85104318D01*
X117273239Y-85124955D01*
X117273237Y-85124956D01*
X117127160Y-85185463D01*
X117001718Y-85281718D01*
X116905463Y-85407160D01*
X116844956Y-85553237D01*
X116844955Y-85553239D01*
X116824318Y-85709998D01*
X116824318Y-85710001D01*
X116833246Y-85777818D01*
X116822480Y-85846853D01*
X116797988Y-85881684D01*
X116651803Y-86027870D01*
X116647814Y-86031525D01*
X116616805Y-86057545D01*
X116596562Y-86092606D01*
X116593656Y-86097166D01*
X116570446Y-86130313D01*
X116568206Y-86135117D01*
X116561229Y-86151961D01*
X116559410Y-86156959D01*
X116552383Y-86196811D01*
X116551212Y-86202092D01*
X116540735Y-86241192D01*
X116544263Y-86281511D01*
X116544499Y-86286917D01*
X116544499Y-86561177D01*
X116524814Y-86628216D01*
X116508180Y-86648858D01*
X115130408Y-88026632D01*
X115069085Y-88060117D01*
X115042727Y-88062951D01*
X113358505Y-88062951D01*
X113291466Y-88043266D01*
X113245711Y-87990462D01*
X113235767Y-87921304D01*
X113264792Y-87857748D01*
X113285620Y-87838633D01*
X113377780Y-87771674D01*
X113458162Y-87713274D01*
X113678349Y-87506504D01*
X113870885Y-87273768D01*
X114021022Y-87037188D01*
X114073561Y-86991135D01*
X114142662Y-86980796D01*
X114206383Y-87009457D01*
X114240278Y-87056179D01*
X114255464Y-87092841D01*
X114351718Y-87218282D01*
X114477159Y-87314536D01*
X114623238Y-87375044D01*
X114701619Y-87385363D01*
X114779999Y-87395682D01*
X114780000Y-87395682D01*
X114780001Y-87395682D01*
X114832254Y-87388802D01*
X114936762Y-87375044D01*
X115082841Y-87314536D01*
X115208282Y-87218282D01*
X115304536Y-87092841D01*
X115365044Y-86946762D01*
X115385682Y-86790000D01*
X115374187Y-86702690D01*
X115365044Y-86633239D01*
X115365044Y-86633238D01*
X115304536Y-86487159D01*
X115208282Y-86361718D01*
X115082841Y-86265464D01*
X115024243Y-86241192D01*
X114936762Y-86204956D01*
X114936760Y-86204955D01*
X114780001Y-86184318D01*
X114779999Y-86184318D01*
X114623239Y-86204955D01*
X114623234Y-86204957D01*
X114483814Y-86262706D01*
X114414345Y-86270175D01*
X114351866Y-86238899D01*
X114316214Y-86178810D01*
X114312607Y-86140359D01*
X114313931Y-86119326D01*
X114328882Y-85881684D01*
X114330246Y-85860005D01*
X114330246Y-85859994D01*
X114311281Y-85558553D01*
X114311280Y-85558546D01*
X114311280Y-85558543D01*
X114254681Y-85261840D01*
X114161341Y-84974570D01*
X114032733Y-84701264D01*
X113984781Y-84625704D01*
X113870888Y-84446236D01*
X113870885Y-84446232D01*
X113678349Y-84213496D01*
X113678342Y-84213489D01*
X113636707Y-84174391D01*
X113601313Y-84114150D01*
X113604107Y-84044336D01*
X113644201Y-83987115D01*
X113708866Y-83960655D01*
X113721592Y-83960000D01*
X126619362Y-83960000D01*
X126686401Y-83979685D01*
G37*
G04 #@! TD.AperFunction*
M02*
