G04 #@! TF.GenerationSoftware,KiCad,Pcbnew,7.0.6*
G04 #@! TF.CreationDate,2024-02-28T04:38:31+03:00*
G04 #@! TF.ProjectId,Penguin Junior,50656e67-7569-46e2-904a-756e696f722e,rev?*
G04 #@! TF.SameCoordinates,Original*
G04 #@! TF.FileFunction,Soldermask,Top*
G04 #@! TF.FilePolarity,Negative*
%FSLAX46Y46*%
G04 Gerber Fmt 4.6, Leading zero omitted, Abs format (unit mm)*
G04 Created by KiCad (PCBNEW 7.0.6) date 2024-02-28 04:38:31*
%MOMM*%
%LPD*%
G01*
G04 APERTURE LIST*
G04 Aperture macros list*
%AMRoundRect*
0 Rectangle with rounded corners*
0 $1 Rounding radius*
0 $2 $3 $4 $5 $6 $7 $8 $9 X,Y pos of 4 corners*
0 Add a 4 corners polygon primitive as box body*
4,1,4,$2,$3,$4,$5,$6,$7,$8,$9,$2,$3,0*
0 Add four circle primitives for the rounded corners*
1,1,$1+$1,$2,$3*
1,1,$1+$1,$4,$5*
1,1,$1+$1,$6,$7*
1,1,$1+$1,$8,$9*
0 Add four rect primitives between the rounded corners*
20,1,$1+$1,$2,$3,$4,$5,0*
20,1,$1+$1,$4,$5,$6,$7,0*
20,1,$1+$1,$6,$7,$8,$9,0*
20,1,$1+$1,$8,$9,$2,$3,0*%
G04 Aperture macros list end*
%ADD10RoundRect,0.200000X0.200000X0.450000X-0.200000X0.450000X-0.200000X-0.450000X0.200000X-0.450000X0*%
%ADD11O,0.800000X1.300000*%
%ADD12RoundRect,0.140000X-0.170000X0.140000X-0.170000X-0.140000X0.170000X-0.140000X0.170000X0.140000X0*%
%ADD13RoundRect,0.250000X0.425000X-0.450000X0.425000X0.450000X-0.425000X0.450000X-0.425000X-0.450000X0*%
%ADD14RoundRect,0.140000X-0.021213X0.219203X-0.219203X0.021213X0.021213X-0.219203X0.219203X-0.021213X0*%
%ADD15RoundRect,0.218750X-0.218750X-0.256250X0.218750X-0.256250X0.218750X0.256250X-0.218750X0.256250X0*%
%ADD16RoundRect,0.250000X1.000000X0.900000X-1.000000X0.900000X-1.000000X-0.900000X1.000000X-0.900000X0*%
%ADD17RoundRect,1.250000X-2.250000X1.250000X-2.250000X-1.250000X2.250000X-1.250000X2.250000X1.250000X0*%
%ADD18C,0.700000*%
%ADD19C,4.400000*%
%ADD20RoundRect,1.750000X-1.750000X-1.750000X1.750000X-1.750000X1.750000X1.750000X-1.750000X1.750000X0*%
%ADD21RoundRect,0.075000X0.075000X-0.700000X0.075000X0.700000X-0.075000X0.700000X-0.075000X-0.700000X0*%
%ADD22RoundRect,0.075000X0.700000X-0.075000X0.700000X0.075000X-0.700000X0.075000X-0.700000X-0.075000X0*%
%ADD23RoundRect,0.218750X-0.256250X0.218750X-0.256250X-0.218750X0.256250X-0.218750X0.256250X0.218750X0*%
%ADD24R,1.600000X1.600000*%
%ADD25C,1.600000*%
%ADD26RoundRect,0.140000X0.170000X-0.140000X0.170000X0.140000X-0.170000X0.140000X-0.170000X-0.140000X0*%
%ADD27RoundRect,0.200000X-0.200000X-0.450000X0.200000X-0.450000X0.200000X0.450000X-0.200000X0.450000X0*%
%ADD28RoundRect,0.250000X-1.100000X0.325000X-1.100000X-0.325000X1.100000X-0.325000X1.100000X0.325000X0*%
%ADD29R,1.700000X1.700000*%
%ADD30O,1.700000X1.700000*%
%ADD31C,1.000000*%
%ADD32RoundRect,0.135000X0.185000X-0.135000X0.185000X0.135000X-0.185000X0.135000X-0.185000X-0.135000X0*%
%ADD33RoundRect,0.140000X0.140000X0.170000X-0.140000X0.170000X-0.140000X-0.170000X0.140000X-0.170000X0*%
%ADD34RoundRect,0.135000X0.135000X0.185000X-0.135000X0.185000X-0.135000X-0.185000X0.135000X-0.185000X0*%
%ADD35R,1.000000X1.000000*%
%ADD36O,1.000000X1.000000*%
%ADD37R,1.900000X2.500000*%
%ADD38RoundRect,0.140000X0.219203X0.021213X0.021213X0.219203X-0.219203X-0.021213X-0.021213X-0.219203X0*%
%ADD39RoundRect,0.250000X0.750000X0.250000X-0.750000X0.250000X-0.750000X-0.250000X0.750000X-0.250000X0*%
%ADD40R,0.400000X1.800000*%
%ADD41O,1.090000X2.000000*%
%ADD42O,1.050000X1.600000*%
%ADD43RoundRect,0.135000X-0.135000X-0.185000X0.135000X-0.185000X0.135000X0.185000X-0.135000X0.185000X0*%
%ADD44RoundRect,0.140000X-0.140000X-0.170000X0.140000X-0.170000X0.140000X0.170000X-0.140000X0.170000X0*%
%ADD45R,1.400000X1.200000*%
%ADD46RoundRect,0.218750X0.218750X0.256250X-0.218750X0.256250X-0.218750X-0.256250X0.218750X-0.256250X0*%
%ADD47RoundRect,0.062500X-0.325000X-0.062500X0.325000X-0.062500X0.325000X0.062500X-0.325000X0.062500X0*%
%ADD48RoundRect,0.062500X-0.062500X0.325000X-0.062500X-0.325000X0.062500X-0.325000X0.062500X0.325000X0*%
%ADD49R,2.000000X1.500000*%
%ADD50R,2.000000X3.800000*%
%ADD51RoundRect,0.062500X0.525000X0.062500X-0.525000X0.062500X-0.525000X-0.062500X0.525000X-0.062500X0*%
%ADD52RoundRect,0.062500X0.062500X-0.525000X0.062500X0.525000X-0.062500X0.525000X-0.062500X-0.525000X0*%
%ADD53RoundRect,0.135000X-0.185000X0.135000X-0.185000X-0.135000X0.185000X-0.135000X0.185000X0.135000X0*%
%ADD54RoundRect,0.135000X0.035355X-0.226274X0.226274X-0.035355X-0.035355X0.226274X-0.226274X0.035355X0*%
G04 APERTURE END LIST*
D10*
X132175000Y-84800000D03*
D11*
X130925000Y-84800000D03*
X129675000Y-84800000D03*
X128425000Y-84800000D03*
X127175000Y-84800000D03*
X125925000Y-84800000D03*
D12*
X114780000Y-103020000D03*
X114780000Y-103980000D03*
D13*
X132170000Y-91010000D03*
X132170000Y-88310000D03*
D10*
X145200000Y-84800000D03*
D11*
X143950000Y-84800000D03*
X142700000Y-84800000D03*
D14*
X137498822Y-101690589D03*
X136820000Y-102369411D03*
D15*
X115492500Y-106600000D03*
X117067500Y-106600000D03*
D12*
X122470000Y-106810000D03*
X122470000Y-107770000D03*
D16*
X149455000Y-96280000D03*
X145155000Y-96280000D03*
D17*
X156455000Y-97807000D03*
X156455000Y-105910000D03*
D18*
X110275000Y-85860000D03*
X110758274Y-84693274D03*
X110758274Y-87026726D03*
X111925000Y-84210000D03*
D19*
X111925000Y-85860000D03*
D18*
X111925000Y-87510000D03*
X113091726Y-84693274D03*
X113091726Y-87026726D03*
X113575000Y-85860000D03*
D12*
X128640000Y-91800000D03*
X128640000Y-92760000D03*
D20*
X156455000Y-87410000D03*
D21*
X118175000Y-103015000D03*
X118675000Y-103015000D03*
X119175000Y-103015000D03*
X119675000Y-103015000D03*
X120175000Y-103015000D03*
X120675000Y-103015000D03*
X121175000Y-103015000D03*
X121675000Y-103015000D03*
X122175000Y-103015000D03*
X122675000Y-103015000D03*
X123175000Y-103015000D03*
X123675000Y-103015000D03*
X124175000Y-103015000D03*
X124675000Y-103015000D03*
X125175000Y-103015000D03*
X125675000Y-103015000D03*
D22*
X127600000Y-101090000D03*
X127600000Y-100590000D03*
X127600000Y-100090000D03*
X127600000Y-99590000D03*
X127600000Y-99090000D03*
X127600000Y-98590000D03*
X127600000Y-98090000D03*
X127600000Y-97590000D03*
X127600000Y-97090000D03*
X127600000Y-96590000D03*
X127600000Y-96090000D03*
X127600000Y-95590000D03*
X127600000Y-95090000D03*
X127600000Y-94590000D03*
X127600000Y-94090000D03*
X127600000Y-93590000D03*
D21*
X125675000Y-91665000D03*
X125175000Y-91665000D03*
X124675000Y-91665000D03*
X124175000Y-91665000D03*
X123675000Y-91665000D03*
X123175000Y-91665000D03*
X122675000Y-91665000D03*
X122175000Y-91665000D03*
X121675000Y-91665000D03*
X121175000Y-91665000D03*
X120675000Y-91665000D03*
X120175000Y-91665000D03*
X119675000Y-91665000D03*
X119175000Y-91665000D03*
X118675000Y-91665000D03*
X118175000Y-91665000D03*
D22*
X116250000Y-93590000D03*
X116250000Y-94090000D03*
X116250000Y-94590000D03*
X116250000Y-95090000D03*
X116250000Y-95590000D03*
X116250000Y-96090000D03*
X116250000Y-96590000D03*
X116250000Y-97090000D03*
X116250000Y-97590000D03*
X116250000Y-98090000D03*
X116250000Y-98590000D03*
X116250000Y-99090000D03*
X116250000Y-99590000D03*
X116250000Y-100090000D03*
X116250000Y-100590000D03*
X116250000Y-101090000D03*
D23*
X150220000Y-100162500D03*
X150220000Y-101737500D03*
D18*
X148575000Y-106460000D03*
X149058274Y-105293274D03*
X149058274Y-107626726D03*
X150225000Y-104810000D03*
D19*
X150225000Y-106460000D03*
D18*
X150225000Y-108110000D03*
X151391726Y-105293274D03*
X151391726Y-107626726D03*
X151875000Y-106460000D03*
D24*
X141705000Y-89510000D03*
D25*
X141705000Y-91510000D03*
D26*
X129210000Y-102870000D03*
X129210000Y-101910000D03*
D27*
X142010000Y-107510000D03*
D11*
X143260000Y-107510000D03*
X144510000Y-107510000D03*
X145760000Y-107510000D03*
D28*
X156455000Y-91238500D03*
X156455000Y-91633500D03*
X156455000Y-94583500D03*
X156455000Y-94978500D03*
D23*
X147300000Y-100162500D03*
X147300000Y-101737500D03*
D29*
X105715000Y-84735000D03*
D30*
X105715000Y-87275000D03*
X105715000Y-89815000D03*
X105715000Y-92355000D03*
X105715000Y-94895000D03*
X105715000Y-97435000D03*
X105715000Y-99975000D03*
X105715000Y-102515000D03*
X105715000Y-105055000D03*
X105715000Y-107595000D03*
D12*
X130312500Y-95130000D03*
X130312500Y-96090000D03*
D27*
X124930000Y-107510000D03*
D11*
X126180000Y-107510000D03*
X127430000Y-107510000D03*
X128680000Y-107510000D03*
X129930000Y-107510000D03*
X131180000Y-107510000D03*
D26*
X129210000Y-101050000D03*
X129210000Y-100090000D03*
D31*
X130690000Y-97920000D03*
D32*
X126860000Y-88790000D03*
X126860000Y-87770000D03*
D33*
X132762500Y-93335000D03*
X131802500Y-93335000D03*
D32*
X128810000Y-88800000D03*
X128810000Y-87780000D03*
D34*
X149350000Y-99000000D03*
X148330000Y-99000000D03*
D23*
X148760000Y-100162500D03*
X148760000Y-101737500D03*
D35*
X140040000Y-103150000D03*
D36*
X140040000Y-101880000D03*
X141310000Y-103150000D03*
X141310000Y-101880000D03*
X142580000Y-103150000D03*
X142580000Y-101880000D03*
X143850000Y-103150000D03*
X143850000Y-101880000D03*
X145120000Y-103150000D03*
X145120000Y-101880000D03*
D37*
X149755000Y-91180000D03*
X145655000Y-91180000D03*
D38*
X135559411Y-102369411D03*
X134880589Y-101690589D03*
D29*
X108255000Y-84735000D03*
D30*
X108255000Y-87275000D03*
X108255000Y-89815000D03*
X108255000Y-92355000D03*
X108255000Y-94895000D03*
X108255000Y-97435000D03*
X108255000Y-99975000D03*
X108255000Y-102515000D03*
X108255000Y-105055000D03*
X108255000Y-107595000D03*
D27*
X134720000Y-107510000D03*
D11*
X135970000Y-107510000D03*
X137220000Y-107510000D03*
X138470000Y-107510000D03*
D13*
X136420000Y-92320000D03*
X136420000Y-89620000D03*
D39*
X111740000Y-102085000D03*
X111740000Y-97635000D03*
D31*
X134295000Y-92620000D03*
D33*
X122400000Y-104500000D03*
X121440000Y-104500000D03*
D40*
X120900000Y-89182000D03*
X120250000Y-89182000D03*
X119600000Y-89182000D03*
X118950000Y-89182000D03*
X118300000Y-89182000D03*
D41*
X116000000Y-85932000D03*
D42*
X116000000Y-89382000D03*
D41*
X123200000Y-85932000D03*
D42*
X123200000Y-89382000D03*
D43*
X135790000Y-87820000D03*
X136810000Y-87820000D03*
D12*
X127720000Y-91800000D03*
X127720000Y-92760000D03*
D44*
X115670000Y-103050000D03*
X116630000Y-103050000D03*
D31*
X136380000Y-100450000D03*
D32*
X125400000Y-88790000D03*
X125400000Y-87770000D03*
D18*
X110275000Y-106460000D03*
X110758274Y-105293274D03*
X110758274Y-107626726D03*
X111925000Y-104810000D03*
D19*
X111925000Y-106460000D03*
D18*
X111925000Y-108110000D03*
X113091726Y-105293274D03*
X113091726Y-107626726D03*
X113575000Y-106460000D03*
D32*
X113890000Y-100230000D03*
X113890000Y-99210000D03*
D35*
X112900000Y-95200000D03*
D36*
X111630000Y-95200000D03*
X112900000Y-93930000D03*
X111630000Y-93930000D03*
X112900000Y-92660000D03*
X111630000Y-92660000D03*
X112900000Y-91390000D03*
X111630000Y-91390000D03*
X112900000Y-90120000D03*
X111630000Y-90120000D03*
D44*
X115270000Y-101950000D03*
X116230000Y-101950000D03*
D45*
X118810000Y-107980000D03*
X121010000Y-107980000D03*
X121010000Y-106280000D03*
X118810000Y-106280000D03*
D44*
X116380000Y-91630000D03*
X117340000Y-91630000D03*
D43*
X111590000Y-103280000D03*
X112610000Y-103280000D03*
D15*
X115492500Y-105140000D03*
X117067500Y-105140000D03*
D31*
X132180000Y-97920000D03*
D46*
X117067500Y-108060000D03*
X115492500Y-108060000D03*
D47*
X131287500Y-95074000D03*
X131287500Y-95574000D03*
D48*
X131800000Y-96332500D03*
X132300000Y-96332500D03*
X132800000Y-96332500D03*
D47*
X133312500Y-95570000D03*
X133312500Y-95070000D03*
D48*
X132800000Y-94307500D03*
X132300000Y-94307500D03*
X131800000Y-94307500D03*
D49*
X142395000Y-99180000D03*
X142395000Y-96880000D03*
D50*
X136095000Y-96880000D03*
D49*
X142395000Y-94580000D03*
D44*
X116380000Y-90710000D03*
X117340000Y-90710000D03*
D51*
X130445000Y-103410000D03*
X130445000Y-102910000D03*
X130445000Y-102410000D03*
X130445000Y-101910000D03*
X130445000Y-101410000D03*
X130445000Y-100910000D03*
X130445000Y-100410000D03*
D52*
X131960000Y-99645000D03*
D51*
X133475000Y-100410000D03*
X133475000Y-100910000D03*
X133475000Y-101410000D03*
X133475000Y-101910000D03*
X133475000Y-102410000D03*
X133475000Y-102910000D03*
X133475000Y-103410000D03*
D52*
X131960000Y-104175000D03*
D32*
X114620000Y-88320000D03*
X114620000Y-87300000D03*
D34*
X150530000Y-102900000D03*
X149510000Y-102900000D03*
D18*
X148575000Y-85860000D03*
X149058274Y-84693274D03*
X149058274Y-87026726D03*
X150225000Y-84210000D03*
D19*
X150225000Y-85860000D03*
D18*
X150225000Y-87510000D03*
X151391726Y-84693274D03*
X151391726Y-87026726D03*
X151875000Y-85860000D03*
D44*
X119590000Y-104970000D03*
X120550000Y-104970000D03*
D10*
X138690000Y-84800000D03*
D11*
X137440000Y-84800000D03*
X136190000Y-84800000D03*
D44*
X123260000Y-104500000D03*
X124220000Y-104500000D03*
D53*
X113890000Y-101070000D03*
X113890000Y-102090000D03*
D12*
X113890000Y-96490000D03*
X113890000Y-97450000D03*
D29*
X103175000Y-84735000D03*
D30*
X103175000Y-87275000D03*
X103175000Y-89815000D03*
X103175000Y-92355000D03*
X103175000Y-94895000D03*
X103175000Y-97435000D03*
X103175000Y-99975000D03*
X103175000Y-102515000D03*
X103175000Y-105055000D03*
X103175000Y-107595000D03*
D54*
X147139376Y-103780624D03*
X147860624Y-103059376D03*
D31*
X129920000Y-99190000D03*
X133660000Y-97920000D03*
M02*
