G04 #@! TF.GenerationSoftware,KiCad,Pcbnew,8.0.1*
G04 #@! TF.CreationDate,2024-08-06T04:56:33+03:00*
G04 #@! TF.ProjectId,Penguin Junior,50656e67-7569-46e2-904a-756e696f722e,rev?*
G04 #@! TF.SameCoordinates,Original*
G04 #@! TF.FileFunction,Legend,Bot*
G04 #@! TF.FilePolarity,Positive*
%FSLAX46Y46*%
G04 Gerber Fmt 4.6, Leading zero omitted, Abs format (unit mm)*
G04 Created by KiCad (PCBNEW 8.0.1) date 2024-08-06 04:56:33*
%MOMM*%
%LPD*%
G01*
G04 APERTURE LIST*
G04 Aperture macros list*
%AMRoundRect*
0 Rectangle with rounded corners*
0 $1 Rounding radius*
0 $2 $3 $4 $5 $6 $7 $8 $9 X,Y pos of 4 corners*
0 Add a 4 corners polygon primitive as box body*
4,1,4,$2,$3,$4,$5,$6,$7,$8,$9,$2,$3,0*
0 Add four circle primitives for the rounded corners*
1,1,$1+$1,$2,$3*
1,1,$1+$1,$4,$5*
1,1,$1+$1,$6,$7*
1,1,$1+$1,$8,$9*
0 Add four rect primitives between the rounded corners*
20,1,$1+$1,$2,$3,$4,$5,0*
20,1,$1+$1,$4,$5,$6,$7,0*
20,1,$1+$1,$6,$7,$8,$9,0*
20,1,$1+$1,$8,$9,$2,$3,0*%
%AMFreePoly0*
4,1,19,0.550000,-0.750000,0.000000,-0.750000,0.000000,-0.744911,-0.071157,-0.744911,-0.207708,-0.704816,-0.327430,-0.627875,-0.420627,-0.520320,-0.479746,-0.390866,-0.500000,-0.250000,-0.500000,0.250000,-0.479746,0.390866,-0.420627,0.520320,-0.327430,0.627875,-0.207708,0.704816,-0.071157,0.744911,0.000000,0.744911,0.000000,0.750000,0.550000,0.750000,0.550000,-0.750000,0.550000,-0.750000,
$1*%
%AMFreePoly1*
4,1,19,0.000000,0.744911,0.071157,0.744911,0.207708,0.704816,0.327430,0.627875,0.420627,0.520320,0.479746,0.390866,0.500000,0.250000,0.500000,-0.250000,0.479746,-0.390866,0.420627,-0.520320,0.327430,-0.627875,0.207708,-0.704816,0.071157,-0.744911,0.000000,-0.744911,0.000000,-0.750000,-0.550000,-0.750000,-0.550000,0.750000,0.000000,0.750000,0.000000,0.744911,0.000000,0.744911,
$1*%
%AMFreePoly2*
4,1,19,0.500000,-0.750000,0.000000,-0.750000,0.000000,-0.744911,-0.071157,-0.744911,-0.207708,-0.704816,-0.327430,-0.627875,-0.420627,-0.520320,-0.479746,-0.390866,-0.500000,-0.250000,-0.500000,0.250000,-0.479746,0.390866,-0.420627,0.520320,-0.327430,0.627875,-0.207708,0.704816,-0.071157,0.744911,0.000000,0.744911,0.000000,0.750000,0.500000,0.750000,0.500000,-0.750000,0.500000,-0.750000,
$1*%
%AMFreePoly3*
4,1,19,0.000000,0.744911,0.071157,0.744911,0.207708,0.704816,0.327430,0.627875,0.420627,0.520320,0.479746,0.390866,0.500000,0.250000,0.500000,-0.250000,0.479746,-0.390866,0.420627,-0.520320,0.327430,-0.627875,0.207708,-0.704816,0.071157,-0.744911,0.000000,-0.744911,0.000000,-0.750000,-0.500000,-0.750000,-0.500000,0.750000,0.000000,0.750000,0.000000,0.744911,0.000000,0.744911,
$1*%
G04 Aperture macros list end*
%ADD10C,0.120000*%
%ADD11C,0.500000*%
%ADD12C,0.150000*%
%ADD13C,0.300000*%
%ADD14C,0.100000*%
%ADD15O,0.900000X1.300000*%
%ADD16C,0.700000*%
%ADD17C,4.400000*%
%ADD18C,1.600000*%
%ADD19C,1.700000*%
%ADD20O,1.700000X1.700000*%
%ADD21C,1.000000*%
%ADD22O,1.000000X1.000000*%
%ADD23O,1.000000X1.400000*%
%ADD24O,1.000000X1.800000*%
%ADD25RoundRect,0.135000X0.185000X-0.135000X0.185000X0.135000X-0.185000X0.135000X-0.185000X-0.135000X0*%
%ADD26RoundRect,0.250000X1.000000X0.900000X-1.000000X0.900000X-1.000000X-0.900000X1.000000X-0.900000X0*%
%ADD27FreePoly0,180.000000*%
%ADD28R,1.000000X1.500000*%
%ADD29FreePoly1,180.000000*%
%ADD30RoundRect,0.135000X-0.135000X-0.185000X0.135000X-0.185000X0.135000X0.185000X-0.135000X0.185000X0*%
%ADD31FreePoly2,180.000000*%
%ADD32FreePoly3,180.000000*%
%ADD33R,1.910000X0.610000*%
%ADD34R,1.205000X1.550000*%
%ADD35RoundRect,0.135000X-0.185000X0.135000X-0.185000X-0.135000X0.185000X-0.135000X0.185000X0.135000X0*%
%ADD36RoundRect,0.135000X0.135000X0.185000X-0.135000X0.185000X-0.135000X-0.185000X0.135000X-0.185000X0*%
%ADD37RoundRect,0.200000X-0.200000X-0.275000X0.200000X-0.275000X0.200000X0.275000X-0.200000X0.275000X0*%
%ADD38RoundRect,0.200000X0.200000X0.275000X-0.200000X0.275000X-0.200000X-0.275000X0.200000X-0.275000X0*%
%ADD39RoundRect,0.250000X-0.475000X0.250000X-0.475000X-0.250000X0.475000X-0.250000X0.475000X0.250000X0*%
%ADD40RoundRect,0.140000X0.140000X0.170000X-0.140000X0.170000X-0.140000X-0.170000X0.140000X-0.170000X0*%
%ADD41R,1.400000X1.200000*%
%ADD42RoundRect,0.140000X-0.170000X0.140000X-0.170000X-0.140000X0.170000X-0.140000X0.170000X0.140000X0*%
%ADD43RoundRect,0.100000X0.100000X-0.637500X0.100000X0.637500X-0.100000X0.637500X-0.100000X-0.637500X0*%
%ADD44R,5.400000X2.850000*%
%ADD45RoundRect,0.250001X0.624999X-0.462499X0.624999X0.462499X-0.624999X0.462499X-0.624999X-0.462499X0*%
%ADD46R,0.700000X1.300000*%
%ADD47R,1.200000X2.000000*%
%ADD48R,1.200000X1.400000*%
%ADD49R,1.050000X1.400000*%
%ADD50RoundRect,0.140000X0.170000X-0.140000X0.170000X0.140000X-0.170000X0.140000X-0.170000X-0.140000X0*%
%ADD51RoundRect,0.150000X-0.825000X-0.150000X0.825000X-0.150000X0.825000X0.150000X-0.825000X0.150000X0*%
%ADD52RoundRect,0.140000X-0.140000X-0.170000X0.140000X-0.170000X0.140000X0.170000X-0.140000X0.170000X0*%
%ADD53RoundRect,0.150000X0.150000X-0.587500X0.150000X0.587500X-0.150000X0.587500X-0.150000X-0.587500X0*%
%ADD54RoundRect,0.250000X0.300000X0.300000X-0.300000X0.300000X-0.300000X-0.300000X0.300000X-0.300000X0*%
%ADD55RoundRect,0.250000X-0.300000X0.300000X-0.300000X-0.300000X0.300000X-0.300000X0.300000X0.300000X0*%
%ADD56FreePoly2,270.000000*%
%ADD57FreePoly3,270.000000*%
%ADD58FreePoly2,90.000000*%
%ADD59FreePoly3,90.000000*%
%ADD60RoundRect,0.250000X-0.400000X-1.450000X0.400000X-1.450000X0.400000X1.450000X-0.400000X1.450000X0*%
G04 APERTURE END LIST*
D10*
X109300000Y-88950000D02*
X110940000Y-88950000D01*
X110940000Y-91860000D01*
X109300000Y-91860000D01*
X109300000Y-88950000D01*
D11*
X158960761Y-108300576D02*
X156960761Y-107633910D01*
X156960761Y-107633910D02*
X158960761Y-106967243D01*
X156960761Y-106300576D02*
X158960761Y-106300576D01*
X158960761Y-106300576D02*
X158960761Y-105824386D01*
X158960761Y-105824386D02*
X158865523Y-105538671D01*
X158865523Y-105538671D02*
X158675047Y-105348195D01*
X158675047Y-105348195D02*
X158484571Y-105252957D01*
X158484571Y-105252957D02*
X158103619Y-105157719D01*
X158103619Y-105157719D02*
X157817904Y-105157719D01*
X157817904Y-105157719D02*
X157436952Y-105252957D01*
X157436952Y-105252957D02*
X157246476Y-105348195D01*
X157246476Y-105348195D02*
X157056000Y-105538671D01*
X157056000Y-105538671D02*
X156960761Y-105824386D01*
X156960761Y-105824386D02*
X156960761Y-106300576D01*
X156960761Y-104300576D02*
X158960761Y-104300576D01*
X158960761Y-104300576D02*
X158960761Y-103824386D01*
X158960761Y-103824386D02*
X158865523Y-103538671D01*
X158865523Y-103538671D02*
X158675047Y-103348195D01*
X158675047Y-103348195D02*
X158484571Y-103252957D01*
X158484571Y-103252957D02*
X158103619Y-103157719D01*
X158103619Y-103157719D02*
X157817904Y-103157719D01*
X157817904Y-103157719D02*
X157436952Y-103252957D01*
X157436952Y-103252957D02*
X157246476Y-103348195D01*
X157246476Y-103348195D02*
X157056000Y-103538671D01*
X157056000Y-103538671D02*
X156960761Y-103824386D01*
X156960761Y-103824386D02*
X156960761Y-104300576D01*
X155960761Y-99963910D02*
X155960761Y-99582957D01*
X155960761Y-99582957D02*
X155865523Y-99392481D01*
X155865523Y-99392481D02*
X155675047Y-99202005D01*
X155675047Y-99202005D02*
X155294095Y-99106767D01*
X155294095Y-99106767D02*
X154627428Y-99106767D01*
X154627428Y-99106767D02*
X154246476Y-99202005D01*
X154246476Y-99202005D02*
X154056000Y-99392481D01*
X154056000Y-99392481D02*
X153960761Y-99582957D01*
X153960761Y-99582957D02*
X153960761Y-99963910D01*
X153960761Y-99963910D02*
X154056000Y-100154386D01*
X154056000Y-100154386D02*
X154246476Y-100344862D01*
X154246476Y-100344862D02*
X154627428Y-100440100D01*
X154627428Y-100440100D02*
X155294095Y-100440100D01*
X155294095Y-100440100D02*
X155675047Y-100344862D01*
X155675047Y-100344862D02*
X155865523Y-100154386D01*
X155865523Y-100154386D02*
X155960761Y-99963910D01*
X155960761Y-98249624D02*
X154341714Y-98249624D01*
X154341714Y-98249624D02*
X154151238Y-98154386D01*
X154151238Y-98154386D02*
X154056000Y-98059148D01*
X154056000Y-98059148D02*
X153960761Y-97868672D01*
X153960761Y-97868672D02*
X153960761Y-97487719D01*
X153960761Y-97487719D02*
X154056000Y-97297243D01*
X154056000Y-97297243D02*
X154151238Y-97202005D01*
X154151238Y-97202005D02*
X154341714Y-97106767D01*
X154341714Y-97106767D02*
X155960761Y-97106767D01*
X155960761Y-96440100D02*
X155960761Y-95297243D01*
X153960761Y-95868672D02*
X155960761Y-95868672D01*
D10*
X143978716Y-98844672D02*
X143978716Y-98463719D01*
X143750144Y-98920862D02*
X144550144Y-98654195D01*
X144550144Y-98654195D02*
X143750144Y-98387529D01*
X139679382Y-89378481D02*
X140107954Y-89678481D01*
X139679382Y-89892767D02*
X140579382Y-89892767D01*
X140579382Y-89892767D02*
X140579382Y-89549910D01*
X140579382Y-89549910D02*
X140536525Y-89464195D01*
X140536525Y-89464195D02*
X140493668Y-89421338D01*
X140493668Y-89421338D02*
X140407954Y-89378481D01*
X140407954Y-89378481D02*
X140279382Y-89378481D01*
X140279382Y-89378481D02*
X140193668Y-89421338D01*
X140193668Y-89421338D02*
X140150811Y-89464195D01*
X140150811Y-89464195D02*
X140107954Y-89549910D01*
X140107954Y-89549910D02*
X140107954Y-89892767D01*
X140579382Y-89078481D02*
X140579382Y-88521338D01*
X140579382Y-88521338D02*
X140236525Y-88821338D01*
X140236525Y-88821338D02*
X140236525Y-88692767D01*
X140236525Y-88692767D02*
X140193668Y-88607053D01*
X140193668Y-88607053D02*
X140150811Y-88564195D01*
X140150811Y-88564195D02*
X140065097Y-88521338D01*
X140065097Y-88521338D02*
X139850811Y-88521338D01*
X139850811Y-88521338D02*
X139765097Y-88564195D01*
X139765097Y-88564195D02*
X139722240Y-88607053D01*
X139722240Y-88607053D02*
X139679382Y-88692767D01*
X139679382Y-88692767D02*
X139679382Y-88949910D01*
X139679382Y-88949910D02*
X139722240Y-89035624D01*
X139722240Y-89035624D02*
X139765097Y-89078481D01*
D11*
X158960761Y-100430576D02*
X156960761Y-99763910D01*
X156960761Y-99763910D02*
X158960761Y-99097243D01*
X156960761Y-98430576D02*
X158960761Y-98430576D01*
X158960761Y-98430576D02*
X158960761Y-97954386D01*
X158960761Y-97954386D02*
X158865523Y-97668671D01*
X158865523Y-97668671D02*
X158675047Y-97478195D01*
X158675047Y-97478195D02*
X158484571Y-97382957D01*
X158484571Y-97382957D02*
X158103619Y-97287719D01*
X158103619Y-97287719D02*
X157817904Y-97287719D01*
X157817904Y-97287719D02*
X157436952Y-97382957D01*
X157436952Y-97382957D02*
X157246476Y-97478195D01*
X157246476Y-97478195D02*
X157056000Y-97668671D01*
X157056000Y-97668671D02*
X156960761Y-97954386D01*
X156960761Y-97954386D02*
X156960761Y-98430576D01*
X156960761Y-96430576D02*
X158960761Y-96430576D01*
X158960761Y-96430576D02*
X158960761Y-95954386D01*
X158960761Y-95954386D02*
X158865523Y-95668671D01*
X158865523Y-95668671D02*
X158675047Y-95478195D01*
X158675047Y-95478195D02*
X158484571Y-95382957D01*
X158484571Y-95382957D02*
X158103619Y-95287719D01*
X158103619Y-95287719D02*
X157817904Y-95287719D01*
X157817904Y-95287719D02*
X157436952Y-95382957D01*
X157436952Y-95382957D02*
X157246476Y-95478195D01*
X157246476Y-95478195D02*
X157056000Y-95668671D01*
X157056000Y-95668671D02*
X156960761Y-95954386D01*
X156960761Y-95954386D02*
X156960761Y-96430576D01*
D10*
X110371382Y-98061053D02*
X109728525Y-98061053D01*
X109728525Y-98061053D02*
X109599954Y-98103910D01*
X109599954Y-98103910D02*
X109514240Y-98189624D01*
X109514240Y-98189624D02*
X109471382Y-98318196D01*
X109471382Y-98318196D02*
X109471382Y-98403910D01*
X109471382Y-97632482D02*
X110371382Y-97632482D01*
X110371382Y-97632482D02*
X110371382Y-97289625D01*
X110371382Y-97289625D02*
X110328525Y-97203910D01*
X110328525Y-97203910D02*
X110285668Y-97161053D01*
X110285668Y-97161053D02*
X110199954Y-97118196D01*
X110199954Y-97118196D02*
X110071382Y-97118196D01*
X110071382Y-97118196D02*
X109985668Y-97161053D01*
X109985668Y-97161053D02*
X109942811Y-97203910D01*
X109942811Y-97203910D02*
X109899954Y-97289625D01*
X109899954Y-97289625D02*
X109899954Y-97632482D01*
X110371382Y-96346768D02*
X110371382Y-96518196D01*
X110371382Y-96518196D02*
X110328525Y-96603910D01*
X110328525Y-96603910D02*
X110285668Y-96646768D01*
X110285668Y-96646768D02*
X110157097Y-96732482D01*
X110157097Y-96732482D02*
X109985668Y-96775339D01*
X109985668Y-96775339D02*
X109642811Y-96775339D01*
X109642811Y-96775339D02*
X109557097Y-96732482D01*
X109557097Y-96732482D02*
X109514240Y-96689625D01*
X109514240Y-96689625D02*
X109471382Y-96603910D01*
X109471382Y-96603910D02*
X109471382Y-96432482D01*
X109471382Y-96432482D02*
X109514240Y-96346768D01*
X109514240Y-96346768D02*
X109557097Y-96303910D01*
X109557097Y-96303910D02*
X109642811Y-96261053D01*
X109642811Y-96261053D02*
X109857097Y-96261053D01*
X109857097Y-96261053D02*
X109942811Y-96303910D01*
X109942811Y-96303910D02*
X109985668Y-96346768D01*
X109985668Y-96346768D02*
X110028525Y-96432482D01*
X110028525Y-96432482D02*
X110028525Y-96603910D01*
X110028525Y-96603910D02*
X109985668Y-96689625D01*
X109985668Y-96689625D02*
X109942811Y-96732482D01*
X109942811Y-96732482D02*
X109857097Y-96775339D01*
X141772192Y-98597053D02*
X141734097Y-98482767D01*
X141734097Y-98482767D02*
X141696001Y-98444672D01*
X141696001Y-98444672D02*
X141619811Y-98406576D01*
X141619811Y-98406576D02*
X141505525Y-98406576D01*
X141505525Y-98406576D02*
X141429335Y-98444672D01*
X141429335Y-98444672D02*
X141391240Y-98482767D01*
X141391240Y-98482767D02*
X141353144Y-98558957D01*
X141353144Y-98558957D02*
X141353144Y-98863719D01*
X141353144Y-98863719D02*
X142153144Y-98863719D01*
X142153144Y-98863719D02*
X142153144Y-98597053D01*
X142153144Y-98597053D02*
X142115049Y-98520862D01*
X142115049Y-98520862D02*
X142076954Y-98482767D01*
X142076954Y-98482767D02*
X142000763Y-98444672D01*
X142000763Y-98444672D02*
X141924573Y-98444672D01*
X141924573Y-98444672D02*
X141848382Y-98482767D01*
X141848382Y-98482767D02*
X141810287Y-98520862D01*
X141810287Y-98520862D02*
X141772192Y-98597053D01*
X141772192Y-98597053D02*
X141772192Y-98863719D01*
D11*
X157895523Y-88897243D02*
X157990761Y-89087719D01*
X157990761Y-89087719D02*
X157990761Y-89373433D01*
X157990761Y-89373433D02*
X157895523Y-89659148D01*
X157895523Y-89659148D02*
X157705047Y-89849624D01*
X157705047Y-89849624D02*
X157514571Y-89944862D01*
X157514571Y-89944862D02*
X157133619Y-90040100D01*
X157133619Y-90040100D02*
X156847904Y-90040100D01*
X156847904Y-90040100D02*
X156466952Y-89944862D01*
X156466952Y-89944862D02*
X156276476Y-89849624D01*
X156276476Y-89849624D02*
X156086000Y-89659148D01*
X156086000Y-89659148D02*
X155990761Y-89373433D01*
X155990761Y-89373433D02*
X155990761Y-89182957D01*
X155990761Y-89182957D02*
X156086000Y-88897243D01*
X156086000Y-88897243D02*
X156181238Y-88802005D01*
X156181238Y-88802005D02*
X156847904Y-88802005D01*
X156847904Y-88802005D02*
X156847904Y-89182957D01*
X155990761Y-87944862D02*
X157990761Y-87944862D01*
X157990761Y-87944862D02*
X155990761Y-86802005D01*
X155990761Y-86802005D02*
X157990761Y-86802005D01*
X155990761Y-85849624D02*
X157990761Y-85849624D01*
X157990761Y-85849624D02*
X157990761Y-85373434D01*
X157990761Y-85373434D02*
X157895523Y-85087719D01*
X157895523Y-85087719D02*
X157705047Y-84897243D01*
X157705047Y-84897243D02*
X157514571Y-84802005D01*
X157514571Y-84802005D02*
X157133619Y-84706767D01*
X157133619Y-84706767D02*
X156847904Y-84706767D01*
X156847904Y-84706767D02*
X156466952Y-84802005D01*
X156466952Y-84802005D02*
X156276476Y-84897243D01*
X156276476Y-84897243D02*
X156086000Y-85087719D01*
X156086000Y-85087719D02*
X155990761Y-85373434D01*
X155990761Y-85373434D02*
X155990761Y-85849624D01*
X153960761Y-106434862D02*
X155960761Y-106434862D01*
X153960761Y-105482481D02*
X155960761Y-105482481D01*
X155960761Y-105482481D02*
X153960761Y-104339624D01*
X153960761Y-104339624D02*
X155960761Y-104339624D01*
D10*
X140860666Y-100719855D02*
X140860666Y-101291283D01*
X140860666Y-101291283D02*
X140898761Y-101405569D01*
X140898761Y-101405569D02*
X140974952Y-101481760D01*
X140974952Y-101481760D02*
X141089237Y-101519855D01*
X141089237Y-101519855D02*
X141165428Y-101519855D01*
X140479713Y-101519855D02*
X140479713Y-100719855D01*
X140479713Y-100719855D02*
X140174951Y-100719855D01*
X140174951Y-100719855D02*
X140098761Y-100757950D01*
X140098761Y-100757950D02*
X140060666Y-100796045D01*
X140060666Y-100796045D02*
X140022570Y-100872236D01*
X140022570Y-100872236D02*
X140022570Y-100986521D01*
X140022570Y-100986521D02*
X140060666Y-101062712D01*
X140060666Y-101062712D02*
X140098761Y-101100807D01*
X140098761Y-101100807D02*
X140174951Y-101138902D01*
X140174951Y-101138902D02*
X140479713Y-101138902D01*
X139336856Y-100986521D02*
X139336856Y-101519855D01*
X139527332Y-100681760D02*
X139717809Y-101253188D01*
X139717809Y-101253188D02*
X139222570Y-101253188D01*
X147434999Y-88477117D02*
X147734999Y-88048545D01*
X147949285Y-88477117D02*
X147949285Y-87577117D01*
X147949285Y-87577117D02*
X147606428Y-87577117D01*
X147606428Y-87577117D02*
X147520713Y-87619974D01*
X147520713Y-87619974D02*
X147477856Y-87662831D01*
X147477856Y-87662831D02*
X147434999Y-87748545D01*
X147434999Y-87748545D02*
X147434999Y-87877117D01*
X147434999Y-87877117D02*
X147477856Y-87962831D01*
X147477856Y-87962831D02*
X147520713Y-88005688D01*
X147520713Y-88005688D02*
X147606428Y-88048545D01*
X147606428Y-88048545D02*
X147949285Y-88048545D01*
X146577856Y-88477117D02*
X147092142Y-88477117D01*
X146834999Y-88477117D02*
X146834999Y-87577117D01*
X146834999Y-87577117D02*
X146920713Y-87705688D01*
X146920713Y-87705688D02*
X147006428Y-87791402D01*
X147006428Y-87791402D02*
X147092142Y-87834260D01*
X110253332Y-89963855D02*
X110519999Y-89582902D01*
X110710475Y-89963855D02*
X110710475Y-89163855D01*
X110710475Y-89163855D02*
X110405713Y-89163855D01*
X110405713Y-89163855D02*
X110329523Y-89201950D01*
X110329523Y-89201950D02*
X110291428Y-89240045D01*
X110291428Y-89240045D02*
X110253332Y-89316236D01*
X110253332Y-89316236D02*
X110253332Y-89430521D01*
X110253332Y-89430521D02*
X110291428Y-89506712D01*
X110291428Y-89506712D02*
X110329523Y-89544807D01*
X110329523Y-89544807D02*
X110405713Y-89582902D01*
X110405713Y-89582902D02*
X110710475Y-89582902D01*
X109529523Y-89163855D02*
X109910475Y-89163855D01*
X109910475Y-89163855D02*
X109948571Y-89544807D01*
X109948571Y-89544807D02*
X109910475Y-89506712D01*
X109910475Y-89506712D02*
X109834285Y-89468617D01*
X109834285Y-89468617D02*
X109643809Y-89468617D01*
X109643809Y-89468617D02*
X109567618Y-89506712D01*
X109567618Y-89506712D02*
X109529523Y-89544807D01*
X109529523Y-89544807D02*
X109491428Y-89620998D01*
X109491428Y-89620998D02*
X109491428Y-89811474D01*
X109491428Y-89811474D02*
X109529523Y-89887664D01*
X109529523Y-89887664D02*
X109567618Y-89925760D01*
X109567618Y-89925760D02*
X109643809Y-89963855D01*
X109643809Y-89963855D02*
X109834285Y-89963855D01*
X109834285Y-89963855D02*
X109910475Y-89925760D01*
X109910475Y-89925760D02*
X109948571Y-89887664D01*
X144259999Y-87023117D02*
X144559999Y-86594545D01*
X144774285Y-87023117D02*
X144774285Y-86123117D01*
X144774285Y-86123117D02*
X144431428Y-86123117D01*
X144431428Y-86123117D02*
X144345713Y-86165974D01*
X144345713Y-86165974D02*
X144302856Y-86208831D01*
X144302856Y-86208831D02*
X144259999Y-86294545D01*
X144259999Y-86294545D02*
X144259999Y-86423117D01*
X144259999Y-86423117D02*
X144302856Y-86508831D01*
X144302856Y-86508831D02*
X144345713Y-86551688D01*
X144345713Y-86551688D02*
X144431428Y-86594545D01*
X144431428Y-86594545D02*
X144774285Y-86594545D01*
X143917142Y-86208831D02*
X143874285Y-86165974D01*
X143874285Y-86165974D02*
X143788571Y-86123117D01*
X143788571Y-86123117D02*
X143574285Y-86123117D01*
X143574285Y-86123117D02*
X143488571Y-86165974D01*
X143488571Y-86165974D02*
X143445713Y-86208831D01*
X143445713Y-86208831D02*
X143402856Y-86294545D01*
X143402856Y-86294545D02*
X143402856Y-86380260D01*
X143402856Y-86380260D02*
X143445713Y-86508831D01*
X143445713Y-86508831D02*
X143959999Y-87023117D01*
X143959999Y-87023117D02*
X143402856Y-87023117D01*
X142453666Y-104897855D02*
X142453666Y-105469283D01*
X142453666Y-105469283D02*
X142491761Y-105583569D01*
X142491761Y-105583569D02*
X142567952Y-105659760D01*
X142567952Y-105659760D02*
X142682237Y-105697855D01*
X142682237Y-105697855D02*
X142758428Y-105697855D01*
X142072713Y-105697855D02*
X142072713Y-104897855D01*
X142072713Y-104897855D02*
X141767951Y-104897855D01*
X141767951Y-104897855D02*
X141691761Y-104935950D01*
X141691761Y-104935950D02*
X141653666Y-104974045D01*
X141653666Y-104974045D02*
X141615570Y-105050236D01*
X141615570Y-105050236D02*
X141615570Y-105164521D01*
X141615570Y-105164521D02*
X141653666Y-105240712D01*
X141653666Y-105240712D02*
X141691761Y-105278807D01*
X141691761Y-105278807D02*
X141767951Y-105316902D01*
X141767951Y-105316902D02*
X142072713Y-105316902D01*
X141348904Y-104897855D02*
X140853666Y-104897855D01*
X140853666Y-104897855D02*
X141120332Y-105202617D01*
X141120332Y-105202617D02*
X141006047Y-105202617D01*
X141006047Y-105202617D02*
X140929856Y-105240712D01*
X140929856Y-105240712D02*
X140891761Y-105278807D01*
X140891761Y-105278807D02*
X140853666Y-105354998D01*
X140853666Y-105354998D02*
X140853666Y-105545474D01*
X140853666Y-105545474D02*
X140891761Y-105621664D01*
X140891761Y-105621664D02*
X140929856Y-105659760D01*
X140929856Y-105659760D02*
X141006047Y-105697855D01*
X141006047Y-105697855D02*
X141234618Y-105697855D01*
X141234618Y-105697855D02*
X141310809Y-105659760D01*
X141310809Y-105659760D02*
X141348904Y-105621664D01*
X139956999Y-85820117D02*
X139956999Y-86462974D01*
X139956999Y-86462974D02*
X139999856Y-86591545D01*
X139999856Y-86591545D02*
X140085570Y-86677260D01*
X140085570Y-86677260D02*
X140214142Y-86720117D01*
X140214142Y-86720117D02*
X140299856Y-86720117D01*
X139528428Y-86720117D02*
X139528428Y-85820117D01*
X139528428Y-85820117D02*
X139185571Y-85820117D01*
X139185571Y-85820117D02*
X139099856Y-85862974D01*
X139099856Y-85862974D02*
X139056999Y-85905831D01*
X139056999Y-85905831D02*
X139014142Y-85991545D01*
X139014142Y-85991545D02*
X139014142Y-86120117D01*
X139014142Y-86120117D02*
X139056999Y-86205831D01*
X139056999Y-86205831D02*
X139099856Y-86248688D01*
X139099856Y-86248688D02*
X139185571Y-86291545D01*
X139185571Y-86291545D02*
X139528428Y-86291545D01*
X138199856Y-85820117D02*
X138628428Y-85820117D01*
X138628428Y-85820117D02*
X138671285Y-86248688D01*
X138671285Y-86248688D02*
X138628428Y-86205831D01*
X138628428Y-86205831D02*
X138542714Y-86162974D01*
X138542714Y-86162974D02*
X138328428Y-86162974D01*
X138328428Y-86162974D02*
X138242714Y-86205831D01*
X138242714Y-86205831D02*
X138199856Y-86248688D01*
X138199856Y-86248688D02*
X138156999Y-86334402D01*
X138156999Y-86334402D02*
X138156999Y-86548688D01*
X138156999Y-86548688D02*
X138199856Y-86634402D01*
X138199856Y-86634402D02*
X138242714Y-86677260D01*
X138242714Y-86677260D02*
X138328428Y-86720117D01*
X138328428Y-86720117D02*
X138542714Y-86720117D01*
X138542714Y-86720117D02*
X138628428Y-86677260D01*
X138628428Y-86677260D02*
X138671285Y-86634402D01*
X142855000Y-91743641D02*
X142855000Y-91436359D01*
X143615000Y-91743641D02*
X143615000Y-91436359D01*
X132420000Y-105733641D02*
X132420000Y-105426359D01*
X133180000Y-105733641D02*
X133180000Y-105426359D01*
X144813500Y-94300000D02*
X150623500Y-94300000D01*
X144813500Y-98600000D02*
X150623500Y-98600000D01*
X150623500Y-98600000D02*
X150623500Y-94300000D01*
X109737500Y-94283641D02*
X109737500Y-93976359D01*
X110497500Y-94283641D02*
X110497500Y-93976359D01*
X140905000Y-100250000D02*
X140905000Y-99650000D01*
X144355000Y-100950000D02*
X141555000Y-100950000D01*
X145005000Y-99650000D02*
X145005000Y-100250000D01*
X142455000Y-98950000D02*
X143455000Y-98950000D01*
X142455000Y-98950000D01*
X140905000Y-99650000D02*
G75*
G02*
X141110025Y-99155025I700000J0D01*
G01*
X141605000Y-100950000D02*
G75*
G02*
X140905000Y-100250000I0J700000D01*
G01*
X144799975Y-99155025D02*
G75*
G02*
X145005000Y-99650000I-494976J-494975D01*
G01*
X145005000Y-100250000D02*
G75*
G02*
X144305000Y-100950000I-699999J-1D01*
G01*
X144521641Y-101297000D02*
X144214359Y-101297000D01*
X144521641Y-102057000D02*
X144214359Y-102057000D01*
X110670000Y-97000000D02*
X110670000Y-97600000D01*
X111370000Y-98300000D02*
X112770000Y-98300000D01*
X112770000Y-96300000D02*
X111370000Y-96300000D01*
X113470000Y-97600000D02*
X113470000Y-97000000D01*
X110670000Y-97000000D02*
G75*
G02*
X111370000Y-96300000I700000J0D01*
G01*
X111370000Y-98300000D02*
G75*
G02*
X110670000Y-97600000I0J700000D01*
G01*
X112770000Y-96300000D02*
G75*
G02*
X113470000Y-97000000I1J-699999D01*
G01*
X113470000Y-97600000D02*
G75*
G02*
X112770000Y-98300000I-699999J-1D01*
G01*
D12*
X145630000Y-88925000D02*
X145630000Y-89125000D01*
X145630000Y-88925000D02*
X149780000Y-88925000D01*
X145630000Y-93875000D02*
X144330000Y-93875000D01*
X145630000Y-94075000D02*
X145630000Y-93875000D01*
X145630000Y-94075000D02*
X149780000Y-94075000D01*
X149780000Y-88925000D02*
X149780000Y-89125000D01*
X149780000Y-94075000D02*
X149780000Y-93875000D01*
D13*
X146555000Y-93500000D02*
G75*
G02*
X146255000Y-93500000I-150000J0D01*
G01*
X146255000Y-93500000D02*
G75*
G02*
X146555000Y-93500000I150000J0D01*
G01*
D10*
X127920000Y-88936359D02*
X127920000Y-89243641D01*
X128680000Y-88936359D02*
X128680000Y-89243641D01*
X147213641Y-104190000D02*
X146906359Y-104190000D01*
X147213641Y-104950000D02*
X146906359Y-104950000D01*
X141067742Y-87157500D02*
X141542258Y-87157500D01*
X141067742Y-88202500D02*
X141542258Y-88202500D01*
X136270000Y-86783641D02*
X136270000Y-86476359D01*
X137030000Y-86783641D02*
X137030000Y-86476359D01*
X111087000Y-103019641D02*
X111087000Y-102712359D01*
X111847000Y-103019641D02*
X111847000Y-102712359D01*
X128860000Y-88936359D02*
X128860000Y-89243641D01*
X129620000Y-88936359D02*
X129620000Y-89243641D01*
X145390000Y-101643641D02*
X145390000Y-101336359D01*
X146150000Y-101643641D02*
X146150000Y-101336359D01*
X145422258Y-87547500D02*
X144947742Y-87547500D01*
X145422258Y-88592500D02*
X144947742Y-88592500D01*
D14*
X110297000Y-91098000D02*
X109937000Y-91098000D01*
X109937000Y-90738000D01*
X110297000Y-90738000D01*
X110297000Y-91098000D01*
G36*
X110297000Y-91098000D02*
G01*
X109937000Y-91098000D01*
X109937000Y-90738000D01*
X110297000Y-90738000D01*
X110297000Y-91098000D01*
G37*
D10*
X155720000Y-92847248D02*
X155720000Y-93369752D01*
X157190000Y-92847248D02*
X157190000Y-93369752D01*
X131480000Y-105426359D02*
X131480000Y-105733641D01*
X132240000Y-105426359D02*
X132240000Y-105733641D01*
X138417836Y-100370000D02*
X138202164Y-100370000D01*
X138417836Y-101090000D02*
X138202164Y-101090000D01*
X119810000Y-108030000D02*
G75*
G02*
X118410000Y-108030000I-700000J0D01*
G01*
X118410000Y-108030000D02*
G75*
G02*
X119810000Y-108030000I700000J0D01*
G01*
X123268836Y-89610000D02*
X123053164Y-89610000D01*
X123268836Y-90330000D02*
X123053164Y-90330000D01*
X130530000Y-101823641D02*
X130530000Y-101516359D01*
X131290000Y-101823641D02*
X131290000Y-101516359D01*
X125760000Y-87352164D02*
X125760000Y-87567836D01*
X126480000Y-87352164D02*
X126480000Y-87567836D01*
X120605000Y-87361359D02*
X120605000Y-87668641D01*
X121365000Y-87361359D02*
X121365000Y-87668641D01*
X130595000Y-94100000D02*
X130870000Y-94100000D01*
X130595000Y-96410000D02*
X130595000Y-94100000D01*
X130595000Y-96410000D02*
X130595000Y-98720000D01*
X130595000Y-98720000D02*
X130870000Y-98720000D01*
X140515000Y-94100000D02*
X140240000Y-94100000D01*
X140515000Y-95255000D02*
X140515000Y-94100000D01*
D13*
X140105000Y-98060000D02*
G75*
G02*
X139805000Y-98060000I-150000J0D01*
G01*
X139805000Y-98060000D02*
G75*
G02*
X140105000Y-98060000I150000J0D01*
G01*
D10*
X141259000Y-96531064D02*
X141259000Y-95326936D01*
X143079000Y-96531064D02*
X143079000Y-95326936D01*
X112326359Y-98640000D02*
X112633641Y-98640000D01*
X112326359Y-99400000D02*
X112633641Y-99400000D01*
X134857836Y-91740000D02*
X134642164Y-91740000D01*
X134857836Y-92460000D02*
X134642164Y-92460000D01*
X130538000Y-105519359D02*
X130538000Y-105826641D01*
X131298000Y-105519359D02*
X131298000Y-105826641D01*
X110340000Y-99643641D02*
X110340000Y-99336359D01*
X111100000Y-99643641D02*
X111100000Y-99336359D01*
X142292836Y-92659000D02*
X142077164Y-92659000D01*
X142292836Y-93379000D02*
X142077164Y-93379000D01*
X119663000Y-87361359D02*
X119663000Y-87668641D01*
X120423000Y-87361359D02*
X120423000Y-87668641D01*
X137117836Y-91740000D02*
X136902164Y-91740000D01*
X137117836Y-92460000D02*
X136902164Y-92460000D01*
X146042742Y-86087500D02*
X146517258Y-86087500D01*
X146042742Y-87132500D02*
X146517258Y-87132500D01*
D14*
X114432000Y-93434500D02*
X114432000Y-100546500D01*
D10*
X114432000Y-106261500D02*
X114432000Y-103594500D01*
D14*
X116210000Y-91402500D02*
X119004000Y-91402500D01*
X129418000Y-93434500D02*
X129418000Y-100546500D01*
D10*
X129418000Y-103721500D02*
X129418000Y-106261500D01*
X129418000Y-106261500D02*
X114432000Y-106261500D01*
X157098641Y-100950000D02*
X156791359Y-100950000D01*
X157098641Y-101710000D02*
X156791359Y-101710000D01*
X155190000Y-101907836D02*
X155190000Y-101692164D01*
X155910000Y-101907836D02*
X155910000Y-101692164D01*
X149940000Y-98840000D02*
X147990000Y-98840000D01*
X149940000Y-98840000D02*
X151890000Y-98840000D01*
X149940000Y-103960000D02*
X146490000Y-103960000D01*
X149940000Y-103960000D02*
X151890000Y-103960000D01*
D13*
X149090000Y-103300000D02*
G75*
G02*
X148790000Y-103300000I-150000J0D01*
G01*
X148790000Y-103300000D02*
G75*
G02*
X149090000Y-103300000I150000J0D01*
G01*
D10*
X135360000Y-86737836D02*
X135360000Y-86522164D01*
X136080000Y-86737836D02*
X136080000Y-86522164D01*
X118723000Y-87668641D02*
X118723000Y-87361359D01*
X119483000Y-87668641D02*
X119483000Y-87361359D01*
X151416164Y-97869000D02*
X151631836Y-97869000D01*
X151416164Y-98589000D02*
X151631836Y-98589000D01*
X130997500Y-85980000D02*
X127137500Y-85980000D01*
X130997500Y-85980000D02*
X130997500Y-87980000D01*
X130997500Y-87980000D02*
X127137500Y-87980000D01*
X131140000Y-86170000D02*
X131140000Y-90030000D01*
X131140000Y-86170000D02*
X133140000Y-86170000D01*
X133140000Y-86170000D02*
X133140000Y-90030000D01*
X126970000Y-88926359D02*
X126970000Y-89233641D01*
X127730000Y-88926359D02*
X127730000Y-89233641D01*
X157098641Y-101890000D02*
X156791359Y-101890000D01*
X157098641Y-102650000D02*
X156791359Y-102650000D01*
X110146000Y-103422641D02*
X110146000Y-103115359D01*
X110906000Y-103422641D02*
X110906000Y-103115359D01*
X142885000Y-89247836D02*
X142885000Y-89032164D01*
X143605000Y-89247836D02*
X143605000Y-89032164D01*
X145390000Y-99783641D02*
X145390000Y-99476359D01*
X146150000Y-99783641D02*
X146150000Y-99476359D01*
X112027000Y-102619641D02*
X112027000Y-102312359D01*
X112787000Y-102619641D02*
X112787000Y-102312359D01*
X140787000Y-103782500D02*
X140787000Y-102382500D01*
X141487000Y-101682500D02*
X142087000Y-101682500D01*
X142087000Y-104482500D02*
X141487000Y-104482500D01*
X142787000Y-102382500D02*
X142787000Y-103782500D01*
X140787000Y-102382500D02*
G75*
G02*
X141487000Y-101682500I699999J1D01*
G01*
X141487000Y-104482500D02*
G75*
G02*
X140787000Y-103782500I0J700000D01*
G01*
X142087000Y-101682500D02*
G75*
G02*
X142787000Y-102382500I1J-699999D01*
G01*
X142787000Y-103782500D02*
G75*
G02*
X142087000Y-104482500I-700000J0D01*
G01*
X140490000Y-86000000D02*
X140490000Y-84600000D01*
X141190000Y-83900000D02*
X141790000Y-83900000D01*
X141790000Y-86700000D02*
X141190000Y-86700000D01*
X142490000Y-84600000D02*
X142490000Y-86000000D01*
X140490000Y-84600000D02*
G75*
G02*
X141190000Y-83900000I700000J0D01*
G01*
X141190000Y-86700000D02*
G75*
G02*
X140490000Y-86000000I-1J699999D01*
G01*
X141790000Y-83900000D02*
G75*
G02*
X142490000Y-84600000I0J-700000D01*
G01*
X142490000Y-86000000D02*
G75*
G02*
X141790000Y-86700000I-699999J-1D01*
G01*
X135033748Y-87800000D02*
X137806252Y-87800000D01*
X135033748Y-91220000D02*
X137806252Y-91220000D01*
%LPC*%
D15*
X133680000Y-84800000D03*
X132430000Y-84800000D03*
X131180000Y-84800000D03*
X129930000Y-84800000D03*
X128680000Y-84800000D03*
X127430000Y-84800000D03*
X145760000Y-84800000D03*
X144510000Y-84800000D03*
X143260000Y-84800000D03*
D16*
X110275000Y-85860000D03*
X110758274Y-84693274D03*
X110758274Y-87026726D03*
X111925000Y-84210000D03*
D17*
X111925000Y-85860000D03*
D16*
X111925000Y-87510000D03*
X113091726Y-84693274D03*
X113091726Y-87026726D03*
X113575000Y-85860000D03*
X148575000Y-106460000D03*
X149058274Y-105293274D03*
X149058274Y-107626726D03*
X150225000Y-104810000D03*
D17*
X150225000Y-106460000D03*
D16*
X150225000Y-108110000D03*
X151391726Y-105293274D03*
X151391726Y-107626726D03*
X151875000Y-106460000D03*
D18*
X141705000Y-89510000D03*
X141705000Y-91510000D03*
D15*
X142010000Y-107510000D03*
X143260000Y-107510000D03*
X144510000Y-107510000D03*
X145760000Y-107510000D03*
D19*
X105715000Y-84735000D03*
D20*
X105715000Y-87275000D03*
X105715000Y-89815000D03*
X105715000Y-92355000D03*
X105715000Y-94895000D03*
X105715000Y-97435000D03*
X105715000Y-99975000D03*
X105715000Y-102515000D03*
X105715000Y-105055000D03*
X105715000Y-107595000D03*
D15*
X124930000Y-107510000D03*
X126180000Y-107510000D03*
X127430000Y-107510000D03*
X128680000Y-107510000D03*
X129930000Y-107510000D03*
X131180000Y-107510000D03*
D19*
X108255000Y-84735000D03*
D20*
X108255000Y-87275000D03*
X108255000Y-89815000D03*
X108255000Y-92355000D03*
X108255000Y-94895000D03*
X108255000Y-97435000D03*
X108255000Y-99975000D03*
X108255000Y-102515000D03*
X108255000Y-105055000D03*
X108255000Y-107595000D03*
D15*
X134720000Y-107510000D03*
X135970000Y-107510000D03*
X137220000Y-107510000D03*
X138470000Y-107510000D03*
D16*
X110275000Y-106460000D03*
X110758274Y-105293274D03*
X110758274Y-107626726D03*
X111925000Y-104810000D03*
D17*
X111925000Y-106460000D03*
D16*
X111925000Y-108110000D03*
X113091726Y-105293274D03*
X113091726Y-107626726D03*
X113575000Y-106460000D03*
D21*
X112900000Y-95200000D03*
D22*
X111630000Y-95200000D03*
X112900000Y-93930000D03*
X111630000Y-93930000D03*
X112900000Y-92660000D03*
X111630000Y-92660000D03*
X112900000Y-91390000D03*
X111630000Y-91390000D03*
X112900000Y-90120000D03*
X111630000Y-90120000D03*
D23*
X124745000Y-89050000D03*
D24*
X124745000Y-85050000D03*
D23*
X116105000Y-89050000D03*
D24*
X116105000Y-85050000D03*
D16*
X148575000Y-85860000D03*
X149058274Y-84693274D03*
X149058274Y-87026726D03*
X150225000Y-84210000D03*
D17*
X150225000Y-85860000D03*
D16*
X150225000Y-87510000D03*
X151391726Y-84693274D03*
X151391726Y-87026726D03*
X151875000Y-85860000D03*
D15*
X139720000Y-84800000D03*
X138470000Y-84800000D03*
X137220000Y-84800000D03*
D19*
X103175000Y-84735000D03*
D20*
X103175000Y-87275000D03*
X103175000Y-89815000D03*
X103175000Y-92355000D03*
X103175000Y-94895000D03*
X103175000Y-97435000D03*
X103175000Y-99975000D03*
X103175000Y-102515000D03*
X103175000Y-105055000D03*
X103175000Y-107595000D03*
D25*
X143235000Y-92100000D03*
X143235000Y-91080000D03*
X132800000Y-106090000D03*
X132800000Y-105070000D03*
D26*
X149113500Y-96450000D03*
X144813500Y-96450000D03*
D25*
X110117500Y-94640000D03*
X110117500Y-93620000D03*
D27*
X144255000Y-99950000D03*
D28*
X142955000Y-99950000D03*
D29*
X141655000Y-99950000D03*
D30*
X143858000Y-101677000D03*
X144878000Y-101677000D03*
D31*
X112720000Y-97300000D03*
D32*
X111420000Y-97300000D03*
D33*
X144925000Y-93405000D03*
X144925000Y-92135000D03*
X144925000Y-90865000D03*
X144925000Y-89595000D03*
X150485000Y-89595000D03*
X150485000Y-90865000D03*
X150485000Y-92135000D03*
X150485000Y-93405000D03*
D34*
X147102500Y-90725000D03*
X147102500Y-92275000D03*
X148307500Y-90725000D03*
X148307500Y-92275000D03*
D35*
X128300000Y-88580000D03*
X128300000Y-89600000D03*
D36*
X147570000Y-104570000D03*
X146550000Y-104570000D03*
D37*
X140480000Y-87680000D03*
X142130000Y-87680000D03*
D25*
X136650000Y-87140000D03*
X136650000Y-86120000D03*
X111467000Y-103376000D03*
X111467000Y-102356000D03*
D35*
X129240000Y-88580000D03*
X129240000Y-89600000D03*
X145770000Y-100980000D03*
X145770000Y-102000000D03*
D38*
X146010000Y-88070000D03*
X144360000Y-88070000D03*
D25*
X110117000Y-91428000D03*
X110117000Y-90408000D03*
D39*
X156455000Y-92158500D03*
X156455000Y-94058500D03*
D35*
X131860000Y-105070000D03*
X131860000Y-106090000D03*
D40*
X138790000Y-100730000D03*
X137830000Y-100730000D03*
D21*
X119110000Y-108030000D03*
D41*
X135790000Y-102660000D03*
X137990000Y-102660000D03*
X137990000Y-104360000D03*
X135790000Y-104360000D03*
D40*
X123641000Y-89970000D03*
X122681000Y-89970000D03*
D25*
X130910000Y-102180000D03*
X130910000Y-101160000D03*
D42*
X126120000Y-86980000D03*
X126120000Y-87940000D03*
D35*
X120985000Y-87005000D03*
X120985000Y-88025000D03*
D43*
X139780000Y-99272500D03*
X139130000Y-99272500D03*
X138480000Y-99272500D03*
X137830000Y-99272500D03*
X137180000Y-99272500D03*
X136530000Y-99272500D03*
X135880000Y-99272500D03*
X135230000Y-99272500D03*
X134580000Y-99272500D03*
X133930000Y-99272500D03*
X133280000Y-99272500D03*
X132630000Y-99272500D03*
X131980000Y-99272500D03*
X131330000Y-99272500D03*
X131330000Y-93547500D03*
X131980000Y-93547500D03*
X132630000Y-93547500D03*
X133280000Y-93547500D03*
X133930000Y-93547500D03*
X134580000Y-93547500D03*
X135230000Y-93547500D03*
X135880000Y-93547500D03*
X136530000Y-93547500D03*
X137180000Y-93547500D03*
X137830000Y-93547500D03*
X138480000Y-93547500D03*
X139130000Y-93547500D03*
X139780000Y-93547500D03*
D44*
X135555000Y-96410000D03*
D45*
X142169000Y-97416500D03*
X142169000Y-94441500D03*
D36*
X112990000Y-99020000D03*
X111970000Y-99020000D03*
D40*
X135230000Y-92100000D03*
X134270000Y-92100000D03*
D35*
X130918000Y-105163000D03*
X130918000Y-106183000D03*
D25*
X110720000Y-100000000D03*
X110720000Y-98980000D03*
D40*
X142665000Y-93019000D03*
X141705000Y-93019000D03*
D35*
X120043000Y-87005000D03*
X120043000Y-88025000D03*
D40*
X137490000Y-92100000D03*
X136530000Y-92100000D03*
D37*
X145455000Y-86610000D03*
X147105000Y-86610000D03*
D46*
X119698000Y-91393500D03*
X120798000Y-91393500D03*
X121898000Y-91393500D03*
X122998000Y-91393500D03*
X124098000Y-91393500D03*
X125198000Y-91393500D03*
X126298000Y-91393500D03*
X127398000Y-91393500D03*
X128498000Y-91393500D03*
D47*
X114178000Y-101943500D03*
X129698000Y-101943500D03*
D48*
X115018000Y-92243500D03*
D49*
X129773000Y-92243500D03*
D36*
X157455000Y-101330000D03*
X156435000Y-101330000D03*
D50*
X155550000Y-102280000D03*
X155550000Y-101320000D03*
D51*
X147465000Y-103305000D03*
X147465000Y-102035000D03*
X147465000Y-100765000D03*
X147465000Y-99495000D03*
X152415000Y-99495000D03*
X152415000Y-100765000D03*
X152415000Y-102035000D03*
X152415000Y-103305000D03*
D50*
X135720000Y-87110000D03*
X135720000Y-86150000D03*
D25*
X119103000Y-88025000D03*
X119103000Y-87005000D03*
D52*
X151044000Y-98229000D03*
X152004000Y-98229000D03*
D53*
X134030000Y-103667500D03*
X132130000Y-103667500D03*
X133080000Y-101792500D03*
D54*
X130187500Y-86980000D03*
X127387500Y-86980000D03*
D55*
X132140000Y-86980000D03*
X132140000Y-89780000D03*
D35*
X127350000Y-88570000D03*
X127350000Y-89590000D03*
D36*
X157455000Y-102270000D03*
X156435000Y-102270000D03*
D25*
X110526000Y-103779000D03*
X110526000Y-102759000D03*
D50*
X143245000Y-89620000D03*
X143245000Y-88660000D03*
D25*
X145770000Y-100140000D03*
X145770000Y-99120000D03*
X112407000Y-102976000D03*
X112407000Y-101956000D03*
D56*
X141787000Y-102432500D03*
D57*
X141787000Y-103732500D03*
D58*
X141490000Y-85950000D03*
D59*
X141490000Y-84650000D03*
D60*
X134195000Y-89510000D03*
X138645000Y-89510000D03*
%LPD*%
M02*
