G04 #@! TF.GenerationSoftware,KiCad,Pcbnew,7.0.6*
G04 #@! TF.CreationDate,2023-12-21T05:01:06+03:00*
G04 #@! TF.ProjectId,Penguin Junior,50656e67-7569-46e2-904a-756e696f722e,rev?*
G04 #@! TF.SameCoordinates,Original*
G04 #@! TF.FileFunction,Copper,L3,Inr*
G04 #@! TF.FilePolarity,Positive*
%FSLAX46Y46*%
G04 Gerber Fmt 4.6, Leading zero omitted, Abs format (unit mm)*
G04 Created by KiCad (PCBNEW 7.0.6) date 2023-12-21 05:01:06*
%MOMM*%
%LPD*%
G01*
G04 APERTURE LIST*
G04 Aperture macros list*
%AMRoundRect*
0 Rectangle with rounded corners*
0 $1 Rounding radius*
0 $2 $3 $4 $5 $6 $7 $8 $9 X,Y pos of 4 corners*
0 Add a 4 corners polygon primitive as box body*
4,1,4,$2,$3,$4,$5,$6,$7,$8,$9,$2,$3,0*
0 Add four circle primitives for the rounded corners*
1,1,$1+$1,$2,$3*
1,1,$1+$1,$4,$5*
1,1,$1+$1,$6,$7*
1,1,$1+$1,$8,$9*
0 Add four rect primitives between the rounded corners*
20,1,$1+$1,$2,$3,$4,$5,0*
20,1,$1+$1,$4,$5,$6,$7,0*
20,1,$1+$1,$6,$7,$8,$9,0*
20,1,$1+$1,$8,$9,$2,$3,0*%
G04 Aperture macros list end*
G04 #@! TA.AperFunction,ComponentPad*
%ADD10RoundRect,0.200000X0.200000X0.450000X-0.200000X0.450000X-0.200000X-0.450000X0.200000X-0.450000X0*%
G04 #@! TD*
G04 #@! TA.AperFunction,ComponentPad*
%ADD11O,0.800000X1.300000*%
G04 #@! TD*
G04 #@! TA.AperFunction,ComponentPad*
%ADD12C,0.700000*%
G04 #@! TD*
G04 #@! TA.AperFunction,ComponentPad*
%ADD13C,4.400000*%
G04 #@! TD*
G04 #@! TA.AperFunction,ComponentPad*
%ADD14R,1.600000X1.600000*%
G04 #@! TD*
G04 #@! TA.AperFunction,ComponentPad*
%ADD15C,1.600000*%
G04 #@! TD*
G04 #@! TA.AperFunction,ComponentPad*
%ADD16RoundRect,0.200000X-0.200000X-0.450000X0.200000X-0.450000X0.200000X0.450000X-0.200000X0.450000X0*%
G04 #@! TD*
G04 #@! TA.AperFunction,ComponentPad*
%ADD17R,1.700000X1.700000*%
G04 #@! TD*
G04 #@! TA.AperFunction,ComponentPad*
%ADD18O,1.700000X1.700000*%
G04 #@! TD*
G04 #@! TA.AperFunction,ComponentPad*
%ADD19R,1.000000X1.000000*%
G04 #@! TD*
G04 #@! TA.AperFunction,ComponentPad*
%ADD20O,1.000000X1.000000*%
G04 #@! TD*
G04 #@! TA.AperFunction,ComponentPad*
%ADD21O,1.090000X2.000000*%
G04 #@! TD*
G04 #@! TA.AperFunction,ComponentPad*
%ADD22O,1.050000X1.600000*%
G04 #@! TD*
G04 #@! TA.AperFunction,ViaPad*
%ADD23C,0.800000*%
G04 #@! TD*
G04 #@! TA.AperFunction,Conductor*
%ADD24C,0.800000*%
G04 #@! TD*
G04 #@! TA.AperFunction,Conductor*
%ADD25C,1.600000*%
G04 #@! TD*
G04 #@! TA.AperFunction,Conductor*
%ADD26C,1.000000*%
G04 #@! TD*
G04 #@! TA.AperFunction,Conductor*
%ADD27C,0.500000*%
G04 #@! TD*
G04 #@! TA.AperFunction,Conductor*
%ADD28C,0.340000*%
G04 #@! TD*
G04 APERTURE END LIST*
D10*
X132175000Y-84800000D03*
D11*
X130925000Y-84800000D03*
X129675000Y-84800000D03*
X128425000Y-84800000D03*
X127175000Y-84800000D03*
X125925000Y-84800000D03*
D10*
X145200000Y-84800000D03*
D11*
X143950000Y-84800000D03*
X142700000Y-84800000D03*
D12*
X110275000Y-85860000D03*
X110758274Y-84693274D03*
X110758274Y-87026726D03*
X111925000Y-84210000D03*
D13*
X111925000Y-85860000D03*
D12*
X111925000Y-87510000D03*
X113091726Y-84693274D03*
X113091726Y-87026726D03*
X113575000Y-85860000D03*
X148575000Y-106460000D03*
X149058274Y-105293274D03*
X149058274Y-107626726D03*
X150225000Y-104810000D03*
D13*
X150225000Y-106460000D03*
D12*
X150225000Y-108110000D03*
X151391726Y-105293274D03*
X151391726Y-107626726D03*
X151875000Y-106460000D03*
D14*
X141705000Y-89510000D03*
D15*
X141705000Y-91510000D03*
D16*
X142010000Y-107510000D03*
D11*
X143260000Y-107510000D03*
X144510000Y-107510000D03*
X145760000Y-107510000D03*
D17*
X105715000Y-84735000D03*
D18*
X105715000Y-87275000D03*
X105715000Y-89815000D03*
X105715000Y-92355000D03*
X105715000Y-94895000D03*
X105715000Y-97435000D03*
X105715000Y-99975000D03*
X105715000Y-102515000D03*
X105715000Y-105055000D03*
X105715000Y-107595000D03*
D16*
X124930000Y-107510000D03*
D11*
X126180000Y-107510000D03*
X127430000Y-107510000D03*
X128680000Y-107510000D03*
X129930000Y-107510000D03*
X131180000Y-107510000D03*
D19*
X140040000Y-103150000D03*
D20*
X140040000Y-101880000D03*
X141310000Y-103150000D03*
X141310000Y-101880000D03*
X142580000Y-103150000D03*
X142580000Y-101880000D03*
X143850000Y-103150000D03*
X143850000Y-101880000D03*
X145120000Y-103150000D03*
X145120000Y-101880000D03*
D17*
X108255000Y-84735000D03*
D18*
X108255000Y-87275000D03*
X108255000Y-89815000D03*
X108255000Y-92355000D03*
X108255000Y-94895000D03*
X108255000Y-97435000D03*
X108255000Y-99975000D03*
X108255000Y-102515000D03*
X108255000Y-105055000D03*
X108255000Y-107595000D03*
D16*
X134720000Y-107510000D03*
D11*
X135970000Y-107510000D03*
X137220000Y-107510000D03*
X138470000Y-107510000D03*
D21*
X116000000Y-85932000D03*
D22*
X116000000Y-89382000D03*
D21*
X123200000Y-85932000D03*
D22*
X123200000Y-89382000D03*
D12*
X110275000Y-106460000D03*
X110758274Y-105293274D03*
X110758274Y-107626726D03*
X111925000Y-104810000D03*
D13*
X111925000Y-106460000D03*
D12*
X111925000Y-108110000D03*
X113091726Y-105293274D03*
X113091726Y-107626726D03*
X113575000Y-106460000D03*
D19*
X112900000Y-95200000D03*
D20*
X111630000Y-95200000D03*
X112900000Y-93930000D03*
X111630000Y-93930000D03*
X112900000Y-92660000D03*
X111630000Y-92660000D03*
X112900000Y-91390000D03*
X111630000Y-91390000D03*
X112900000Y-90120000D03*
X111630000Y-90120000D03*
D12*
X148575000Y-85860000D03*
X149058274Y-84693274D03*
X149058274Y-87026726D03*
X150225000Y-84210000D03*
D13*
X150225000Y-85860000D03*
D12*
X150225000Y-87510000D03*
X151391726Y-84693274D03*
X151391726Y-87026726D03*
X151875000Y-85860000D03*
D10*
X138690000Y-84800000D03*
D11*
X137440000Y-84800000D03*
X136190000Y-84800000D03*
D17*
X103175000Y-84735000D03*
D18*
X103175000Y-87275000D03*
X103175000Y-89815000D03*
X103175000Y-92355000D03*
X103175000Y-94895000D03*
X103175000Y-97435000D03*
X103175000Y-99975000D03*
X103175000Y-102515000D03*
X103175000Y-105055000D03*
X103175000Y-107595000D03*
D23*
X140639999Y-107260000D03*
X159455000Y-87410000D03*
X159455000Y-88410000D03*
X154455000Y-89410000D03*
X158455000Y-87410000D03*
X131880000Y-96030000D03*
X155455000Y-87410000D03*
X153455000Y-88410000D03*
X139839999Y-107260000D03*
X154455000Y-86410000D03*
X132629500Y-107260000D03*
X155455000Y-85410000D03*
X156455000Y-89410000D03*
X149540000Y-98330000D03*
X156455000Y-91633500D03*
X158455000Y-89410000D03*
X147340000Y-107260000D03*
X126330000Y-88860000D03*
X153455000Y-85410000D03*
X155455000Y-86410000D03*
X156455000Y-88410000D03*
X153455000Y-86410000D03*
X157455000Y-87410000D03*
X155455000Y-88410000D03*
X156455000Y-86410000D03*
X156455000Y-85410000D03*
X121008136Y-107961000D03*
X158455000Y-88410000D03*
X147340000Y-108060000D03*
X116015600Y-92185600D03*
X157455000Y-89410000D03*
X158455000Y-85410000D03*
X130460000Y-99770000D03*
X155455000Y-89410000D03*
X118810000Y-106280000D03*
X154455000Y-88410000D03*
X159455000Y-86410000D03*
X153455000Y-89410000D03*
X159455000Y-89410000D03*
X140639999Y-108060000D03*
X157455000Y-88410000D03*
X157455000Y-85410000D03*
X156455000Y-84410000D03*
X158455000Y-86410000D03*
X154455000Y-84410000D03*
X130740000Y-90340000D03*
X155455000Y-84410000D03*
X153455000Y-87410000D03*
X158455000Y-84410000D03*
X156455000Y-87410000D03*
X154455000Y-85410000D03*
X157455000Y-86410000D03*
X153470000Y-92265000D03*
X133710000Y-107260000D03*
X158455000Y-90410000D03*
X159455000Y-85410000D03*
X144870000Y-96440000D03*
X152455000Y-89410000D03*
X129557502Y-91985299D03*
X139839999Y-108060000D03*
X115450000Y-91620000D03*
X157455000Y-91633500D03*
X157455000Y-90410000D03*
X157455000Y-84410000D03*
X156455000Y-90410000D03*
X155455000Y-90410000D03*
X154455000Y-87410000D03*
X130190000Y-88570000D03*
X119600000Y-85720000D03*
X146374031Y-105069085D03*
X135732337Y-101380984D03*
X128448398Y-102510000D03*
X129874048Y-98934500D03*
X123920000Y-107260000D03*
X118110000Y-92880000D03*
X150965000Y-98835000D03*
X119410378Y-100660378D03*
X124450000Y-88860000D03*
X114740000Y-97020000D03*
X117650000Y-99330000D03*
X139309059Y-95530500D03*
X139979117Y-91710000D03*
X140710000Y-92550000D03*
X121615500Y-89080000D03*
X148955000Y-96780000D03*
X150080000Y-89330000D03*
X152360000Y-94805000D03*
X149430000Y-89330000D03*
X150080000Y-88680000D03*
X149955000Y-96780000D03*
X149955000Y-95780000D03*
X149430000Y-89980000D03*
X152080000Y-95670000D03*
X153220000Y-94805000D03*
X150080000Y-89980000D03*
X149430000Y-88680000D03*
X149430000Y-90630000D03*
X151360000Y-95160000D03*
X150080000Y-90630000D03*
X148955000Y-95780000D03*
X157455000Y-103910000D03*
X153455000Y-104910000D03*
X154455000Y-105910000D03*
X158455000Y-107910000D03*
X156455000Y-105910000D03*
X159455000Y-104910000D03*
X154455000Y-103910000D03*
X154455000Y-107910000D03*
X154455000Y-104910000D03*
X158455000Y-103910000D03*
X156455000Y-106910000D03*
X155455000Y-106910000D03*
X156455000Y-103910000D03*
X155455000Y-104910000D03*
X153455000Y-106910000D03*
X153455000Y-105910000D03*
X154455000Y-106910000D03*
X156455000Y-107910000D03*
X157455000Y-105910000D03*
X157455000Y-106910000D03*
X158455000Y-105910000D03*
X155455000Y-103910000D03*
X159455000Y-106910000D03*
X157455000Y-107910000D03*
X159455000Y-105910000D03*
X157455000Y-104910000D03*
X156455000Y-104910000D03*
X158455000Y-104910000D03*
X158455000Y-106910000D03*
X155455000Y-105910000D03*
X155455000Y-107910000D03*
X141867500Y-94110000D03*
X141867500Y-94760000D03*
X142517500Y-94760000D03*
X142517500Y-94110000D03*
X117067500Y-105140000D03*
X117067500Y-106600000D03*
X145090000Y-89030000D03*
X138970000Y-89510000D03*
X145090000Y-91630000D03*
X138320000Y-88860000D03*
X138970000Y-90160000D03*
X138970000Y-90810000D03*
X145740000Y-89680000D03*
X145090000Y-90980000D03*
X145090000Y-89680000D03*
X138320000Y-89510000D03*
X138320000Y-88210000D03*
X145740000Y-89030000D03*
X138970000Y-88210000D03*
X138320000Y-90160000D03*
X145740000Y-90980000D03*
X145740000Y-90330000D03*
X138970000Y-88860000D03*
X145090000Y-90330000D03*
X145740000Y-91630000D03*
X138320000Y-90810000D03*
X117930000Y-94340000D03*
X118940000Y-94380000D03*
X119910000Y-93820000D03*
X118770000Y-95590000D03*
X122899500Y-93150000D03*
X122399500Y-94070000D03*
X121899500Y-95059806D03*
X122410000Y-97600000D03*
X114010000Y-98334999D03*
X126200000Y-100080000D03*
X120420000Y-97990000D03*
X119200000Y-98094500D03*
X141145000Y-104260000D03*
X142745000Y-104260000D03*
X141945000Y-104260000D03*
X120642300Y-99817700D03*
X119240000Y-99110000D03*
X123460688Y-101190000D03*
X114880000Y-98850000D03*
X122940000Y-96740000D03*
X125929622Y-97352002D03*
X154455000Y-97807000D03*
X158455000Y-99807000D03*
X155455000Y-95807000D03*
X155455000Y-97807000D03*
X156455000Y-96807000D03*
X157455000Y-96807000D03*
X154455000Y-99807000D03*
X158455000Y-97807000D03*
X156455000Y-94583500D03*
X157455000Y-94583500D03*
X157455000Y-98807000D03*
X154455000Y-98807000D03*
X153505000Y-97807000D03*
X157455000Y-95807000D03*
X153505000Y-96807000D03*
X156455000Y-95807000D03*
X155455000Y-99807000D03*
X156455000Y-99807000D03*
X155455000Y-98807000D03*
X158455000Y-95807000D03*
X154455000Y-95807000D03*
X156455000Y-98807000D03*
X158455000Y-98807000D03*
X155455000Y-96807000D03*
X159455000Y-97807000D03*
X154455000Y-96807000D03*
X155455000Y-94583500D03*
X159455000Y-98807000D03*
X159455000Y-96807000D03*
X158455000Y-96807000D03*
X156455000Y-97807000D03*
X157455000Y-97807000D03*
X157455000Y-99807000D03*
X124404500Y-96902502D03*
X127658635Y-101881365D03*
X130430000Y-96335500D03*
X117620000Y-96814500D03*
X131887999Y-101680000D03*
X134881107Y-100685061D03*
X130430000Y-95110000D03*
X120270000Y-96250000D03*
X125675000Y-94540000D03*
X123680000Y-97841000D03*
X124420000Y-101520000D03*
X134520000Y-89510000D03*
X133870000Y-89510000D03*
X134520000Y-88210000D03*
X133870000Y-90810000D03*
X134520000Y-90810000D03*
X134520000Y-90160000D03*
X141945000Y-100810000D03*
X142745000Y-100810000D03*
X133870000Y-88210000D03*
X134520000Y-88860000D03*
X133870000Y-88860000D03*
X133870000Y-90160000D03*
X141145000Y-100810000D03*
X132140000Y-86180000D03*
X132140000Y-86980000D03*
X132940000Y-86680000D03*
X130187500Y-86980000D03*
X145492500Y-94525000D03*
X132940000Y-85880000D03*
X144842500Y-93875000D03*
X144842500Y-94525000D03*
X145492500Y-93875000D03*
X124720000Y-98010000D03*
X115014312Y-94087615D03*
X126264439Y-98789140D03*
X114780000Y-86790000D03*
X117430000Y-85710000D03*
X115349500Y-90610000D03*
D24*
X147340000Y-107260000D02*
X147340000Y-108060000D01*
X132629500Y-107260000D02*
X133710000Y-107260000D01*
X139839999Y-107260000D02*
X139839999Y-108060000D01*
X140639999Y-108060000D02*
X140639999Y-107260000D01*
D25*
X103175000Y-107595000D02*
X103175000Y-84735000D01*
D24*
X139839999Y-108060000D02*
X140639999Y-108060000D01*
X140639999Y-107260000D02*
X139839999Y-107260000D01*
X131180000Y-107260000D02*
X131180000Y-107510000D01*
X116015600Y-92185600D02*
X115450000Y-91620000D01*
X132629500Y-107260000D02*
X131180000Y-107260000D01*
D26*
X138750000Y-103150000D02*
X140040000Y-103150000D01*
X135732337Y-101380984D02*
X136980984Y-101380984D01*
X136980984Y-101380984D02*
X138750000Y-103150000D01*
D27*
X112506497Y-89170000D02*
X111630000Y-90046497D01*
X113293503Y-89170000D02*
X112506497Y-89170000D01*
X113850000Y-96130000D02*
X113850000Y-89726497D01*
X114740000Y-97020000D02*
X113850000Y-96130000D01*
X111630000Y-90046497D02*
X111630000Y-90120000D01*
X113850000Y-89726497D02*
X113293503Y-89170000D01*
D24*
X141867500Y-94760000D02*
X142517500Y-94760000D01*
X142517500Y-94760000D02*
X142517500Y-94110000D01*
X141867500Y-94110000D02*
X141867500Y-94760000D01*
X142517500Y-94110000D02*
X141867500Y-94110000D01*
X138320000Y-90810000D02*
X138970000Y-90810000D01*
X138320000Y-88210000D02*
X138320000Y-90810000D01*
X138970000Y-88210000D02*
X138320000Y-88210000D01*
X138970000Y-90810000D02*
X138970000Y-88210000D01*
D27*
X122410000Y-97600000D02*
X121920000Y-97110000D01*
X118930000Y-97110000D02*
X118170000Y-97870000D01*
X118170000Y-97870000D02*
X114474999Y-97870000D01*
X114474999Y-97870000D02*
X114010000Y-98334999D01*
X121920000Y-97110000D02*
X118930000Y-97110000D01*
D24*
X133870000Y-88210000D02*
X133870000Y-90810000D01*
X133870000Y-90810000D02*
X134520000Y-90810000D01*
X134520000Y-90810000D02*
X134520000Y-88210000D01*
X134520000Y-88210000D02*
X133870000Y-88210000D01*
X145492500Y-93875000D02*
X144842500Y-93875000D01*
X144842500Y-93875000D02*
X144842500Y-94525000D01*
X132940000Y-85880000D02*
X132640000Y-86180000D01*
X132140000Y-86180000D02*
X132140000Y-86980000D01*
X132940000Y-85880000D02*
X132940000Y-86680000D01*
X132640000Y-86180000D02*
X132140000Y-86180000D01*
X130187500Y-86980000D02*
X132140000Y-86980000D01*
X132940000Y-86680000D02*
X132440000Y-86680000D01*
X145492500Y-94525000D02*
X145492500Y-93875000D01*
X144842500Y-94525000D02*
X145492500Y-94525000D01*
X132440000Y-86680000D02*
X132140000Y-86980000D01*
D28*
X113020000Y-88550000D02*
X110500000Y-88550000D01*
X110500000Y-88550000D02*
X109475000Y-87525000D01*
X109355000Y-86649659D02*
X109355000Y-85835000D01*
X114780000Y-86790000D02*
X113020000Y-88550000D01*
X109475000Y-86769659D02*
X109355000Y-86649659D01*
X109355000Y-85835000D02*
X108255000Y-84735000D01*
X109475000Y-87525000D02*
X109475000Y-86769659D01*
G04 #@! TA.AperFunction,Conductor*
G36*
X139107570Y-87839437D02*
G01*
X139154126Y-87858722D01*
X139182149Y-87874900D01*
X139264138Y-87937812D01*
X139268372Y-87941372D01*
X139290312Y-87961555D01*
X139291573Y-87962704D01*
X139291727Y-87962844D01*
X139320956Y-87979193D01*
X139371543Y-88007490D01*
X139438582Y-88027175D01*
X139496480Y-88035500D01*
X145810500Y-88035500D01*
X145877539Y-88055185D01*
X145923294Y-88107989D01*
X145934500Y-88159500D01*
X145934500Y-88527048D01*
X145935107Y-88541638D01*
X145948755Y-88607187D01*
X145973948Y-88672353D01*
X146002591Y-88723357D01*
X146075093Y-88817844D01*
X146091278Y-88845877D01*
X146118585Y-88911802D01*
X146126963Y-88943069D01*
X146136277Y-89013813D01*
X146136277Y-89046184D01*
X146126963Y-89116930D01*
X146118586Y-89148196D01*
X146083050Y-89233989D01*
X146083049Y-89233993D01*
X146079390Y-89244362D01*
X146070368Y-89275086D01*
X146063221Y-89354946D01*
X146063221Y-89354948D01*
X146070689Y-89424417D01*
X146070690Y-89424420D01*
X146070691Y-89424430D01*
X146085153Y-89481090D01*
X146085157Y-89481102D01*
X146118585Y-89561804D01*
X146126963Y-89593070D01*
X146136277Y-89663813D01*
X146136277Y-89696185D01*
X146126963Y-89766930D01*
X146118586Y-89798195D01*
X146083048Y-89883994D01*
X146083047Y-89883997D01*
X146079383Y-89894380D01*
X146070367Y-89925088D01*
X146070366Y-89925091D01*
X146069178Y-89938377D01*
X146063222Y-90004950D01*
X146063222Y-90004953D01*
X146063222Y-90004957D01*
X146070690Y-90074418D01*
X146070691Y-90074422D01*
X146084024Y-90126660D01*
X146085155Y-90131091D01*
X146118584Y-90211796D01*
X146126961Y-90243061D01*
X146136277Y-90313814D01*
X146136277Y-90346187D01*
X146126963Y-90416931D01*
X146118586Y-90448196D01*
X146083050Y-90533989D01*
X146083049Y-90533993D01*
X146079390Y-90544362D01*
X146070368Y-90575086D01*
X146066195Y-90621717D01*
X146063221Y-90654948D01*
X146070689Y-90724417D01*
X146070690Y-90724420D01*
X146070691Y-90724430D01*
X146085153Y-90781090D01*
X146085157Y-90781102D01*
X146118585Y-90861804D01*
X146126963Y-90893070D01*
X146136277Y-90963813D01*
X146136277Y-90996185D01*
X146126963Y-91066930D01*
X146118586Y-91098195D01*
X146083048Y-91183993D01*
X146082529Y-91185464D01*
X146079383Y-91194380D01*
X146070367Y-91225088D01*
X146070366Y-91225091D01*
X146066133Y-91272409D01*
X146063222Y-91304950D01*
X146063222Y-91304953D01*
X146063222Y-91304957D01*
X146070690Y-91374418D01*
X146070692Y-91374426D01*
X146085152Y-91431083D01*
X146085155Y-91431092D01*
X146108775Y-91488118D01*
X146118586Y-91511803D01*
X146126963Y-91543068D01*
X146136277Y-91613813D01*
X146136277Y-91646185D01*
X146126963Y-91716930D01*
X146118585Y-91748198D01*
X146091277Y-91814124D01*
X146075093Y-91842155D01*
X145999981Y-91940046D01*
X145991576Y-91951999D01*
X145991573Y-91952003D01*
X145962509Y-92012295D01*
X145962509Y-92012296D01*
X145942827Y-92079322D01*
X145934710Y-92135774D01*
X145905684Y-92199329D01*
X145846905Y-92237103D01*
X145811078Y-92242122D01*
X142666228Y-92219457D01*
X142599332Y-92199290D01*
X142553959Y-92146157D01*
X142544515Y-92076929D01*
X142557764Y-92037007D01*
X142633811Y-91894732D01*
X142633814Y-91894727D01*
X142691024Y-91706132D01*
X142710341Y-91510000D01*
X142691024Y-91313868D01*
X142633814Y-91125273D01*
X142633811Y-91125269D01*
X142633811Y-91125266D01*
X142540913Y-90951467D01*
X142540909Y-90951460D01*
X142415883Y-90799116D01*
X142263539Y-90674090D01*
X142263532Y-90674086D01*
X142089733Y-90581188D01*
X142089727Y-90581186D01*
X141951335Y-90539205D01*
X141901129Y-90523975D01*
X141705000Y-90504659D01*
X141508870Y-90523975D01*
X141320266Y-90581188D01*
X141146467Y-90674086D01*
X141146460Y-90674090D01*
X140994116Y-90799116D01*
X140869090Y-90951460D01*
X140869086Y-90951467D01*
X140776188Y-91125266D01*
X140718975Y-91313870D01*
X140717095Y-91332964D01*
X140690933Y-91397751D01*
X140633898Y-91438109D01*
X140564098Y-91441225D01*
X140503694Y-91406109D01*
X140495316Y-91396294D01*
X140407400Y-91281719D01*
X140407399Y-91281718D01*
X140281958Y-91185464D01*
X140278416Y-91183997D01*
X140135879Y-91124956D01*
X140135877Y-91124955D01*
X139979118Y-91104318D01*
X139979116Y-91104318D01*
X139822356Y-91124955D01*
X139822354Y-91124956D01*
X139676277Y-91185463D01*
X139550833Y-91281719D01*
X139454581Y-91407158D01*
X139454578Y-91407163D01*
X139446875Y-91425760D01*
X139403033Y-91480163D01*
X139336738Y-91502226D01*
X139274721Y-91488118D01*
X138806784Y-91242697D01*
X138806782Y-91242696D01*
X138806778Y-91242694D01*
X138760482Y-91225149D01*
X138760477Y-91225147D01*
X138702903Y-91210966D01*
X138702890Y-91210963D01*
X138653743Y-91205000D01*
X138542682Y-91205000D01*
X138480537Y-91188303D01*
X138061855Y-90945823D01*
X138013708Y-90895191D01*
X138000000Y-90838520D01*
X138000000Y-87955700D01*
X138019685Y-87888661D01*
X138072489Y-87842906D01*
X138126955Y-87831735D01*
X138151184Y-87832314D01*
X138166866Y-87830438D01*
X138174226Y-87830000D01*
X139060120Y-87830000D01*
X139107570Y-87839437D01*
G37*
G04 #@! TD.AperFunction*
G04 #@! TA.AperFunction,Conductor*
G36*
X135701401Y-83979685D02*
G01*
X135747156Y-84032489D01*
X135757100Y-84101647D01*
X135732739Y-84159483D01*
X135682700Y-84224697D01*
X135665463Y-84247160D01*
X135604956Y-84393237D01*
X135604955Y-84393239D01*
X135589501Y-84510629D01*
X135589500Y-84510645D01*
X135589500Y-85089354D01*
X135589501Y-85089370D01*
X135604955Y-85206760D01*
X135604956Y-85206762D01*
X135665464Y-85352841D01*
X135761718Y-85478282D01*
X135887159Y-85574536D01*
X136033238Y-85635044D01*
X136040181Y-85635958D01*
X136189999Y-85655682D01*
X136190000Y-85655682D01*
X136190001Y-85655682D01*
X136242253Y-85648802D01*
X136346762Y-85635044D01*
X136492841Y-85574536D01*
X136618282Y-85478282D01*
X136714536Y-85352841D01*
X136714535Y-85352841D01*
X136716624Y-85350120D01*
X136773052Y-85308917D01*
X136842798Y-85304762D01*
X136903718Y-85338974D01*
X136913376Y-85350120D01*
X136949403Y-85397072D01*
X137011718Y-85478282D01*
X137137159Y-85574536D01*
X137283238Y-85635044D01*
X137290181Y-85635958D01*
X137439999Y-85655682D01*
X137440000Y-85655682D01*
X137589816Y-85635958D01*
X137658850Y-85646723D01*
X137711106Y-85693103D01*
X137730000Y-85758897D01*
X137730000Y-88086815D01*
X137729469Y-88094917D01*
X137714318Y-88209998D01*
X137714318Y-88209999D01*
X137718969Y-88245326D01*
X137719500Y-88253428D01*
X137719500Y-88816571D01*
X137718969Y-88824673D01*
X137714318Y-88859999D01*
X137714318Y-88860000D01*
X137718969Y-88895326D01*
X137719500Y-88903427D01*
X137719500Y-89466571D01*
X137718969Y-89474673D01*
X137714318Y-89509999D01*
X137714318Y-89510000D01*
X137718969Y-89545326D01*
X137719500Y-89553427D01*
X137719500Y-90116571D01*
X137718969Y-90124669D01*
X137714318Y-90160000D01*
X137717377Y-90183238D01*
X137718969Y-90195326D01*
X137719500Y-90203427D01*
X137719500Y-90766571D01*
X137718969Y-90774673D01*
X137714318Y-90809999D01*
X137714318Y-90810000D01*
X137719500Y-90849360D01*
X137734955Y-90966760D01*
X137734956Y-90966762D01*
X137791933Y-91104318D01*
X137795464Y-91112841D01*
X137891718Y-91238282D01*
X138017159Y-91334536D01*
X138163238Y-91395044D01*
X138202820Y-91400255D01*
X138319999Y-91415682D01*
X138320000Y-91415682D01*
X138355329Y-91411030D01*
X138363428Y-91410500D01*
X138653743Y-91410500D01*
X138711336Y-91424686D01*
X139325245Y-91746666D01*
X139375470Y-91795235D01*
X139390588Y-91840292D01*
X139394072Y-91866761D01*
X139454580Y-92012839D01*
X139454581Y-92012841D01*
X139550835Y-92138282D01*
X139676276Y-92234536D01*
X139822355Y-92295044D01*
X139900736Y-92305362D01*
X139979116Y-92315682D01*
X139987244Y-92315682D01*
X139987243Y-92317358D01*
X140046727Y-92326629D01*
X140098986Y-92373005D01*
X140117877Y-92440272D01*
X140116825Y-92454991D01*
X140104318Y-92549997D01*
X140104318Y-92550001D01*
X140124955Y-92706760D01*
X140124956Y-92706762D01*
X140185464Y-92852841D01*
X140281718Y-92978282D01*
X140407159Y-93074536D01*
X140553238Y-93135044D01*
X140631619Y-93145363D01*
X140709999Y-93155682D01*
X140710000Y-93155682D01*
X140710001Y-93155682D01*
X140762253Y-93148802D01*
X140866762Y-93135044D01*
X141012841Y-93074536D01*
X141138282Y-92978282D01*
X141234536Y-92852841D01*
X141295044Y-92706762D01*
X141310857Y-92586644D01*
X141339123Y-92522749D01*
X141397447Y-92484278D01*
X141467312Y-92483446D01*
X141469786Y-92484168D01*
X141508868Y-92496024D01*
X141705000Y-92515341D01*
X141901132Y-92496024D01*
X142089727Y-92438814D01*
X142095148Y-92435916D01*
X142154496Y-92421275D01*
X146016896Y-92449112D01*
X146083790Y-92469279D01*
X146129163Y-92522412D01*
X146140000Y-92573109D01*
X146140000Y-98070000D01*
X147413681Y-99343681D01*
X147447166Y-99405004D01*
X147450000Y-99431362D01*
X147450000Y-101158638D01*
X147430315Y-101225677D01*
X147413681Y-101246319D01*
X146176319Y-102483681D01*
X146114996Y-102517166D01*
X146088638Y-102520000D01*
X145457548Y-102520000D01*
X145399922Y-102505796D01*
X145370226Y-102490210D01*
X145205056Y-102449500D01*
X145034944Y-102449500D01*
X144869773Y-102490210D01*
X144840078Y-102505796D01*
X144782452Y-102520000D01*
X144495673Y-102520000D01*
X144428634Y-102500315D01*
X144382879Y-102447511D01*
X144372935Y-102378353D01*
X144393621Y-102325562D01*
X144474818Y-102207930D01*
X144535140Y-102048872D01*
X144555645Y-101880000D01*
X144535140Y-101711128D01*
X144474818Y-101552070D01*
X144378183Y-101412071D01*
X144250852Y-101299266D01*
X144250849Y-101299263D01*
X144100226Y-101220210D01*
X143935056Y-101179500D01*
X143924101Y-101179500D01*
X143857062Y-101159815D01*
X143811307Y-101107011D01*
X143803124Y-101082715D01*
X143802883Y-101081646D01*
X143802883Y-101081638D01*
X143790045Y-101024573D01*
X142851922Y-98562783D01*
X142851921Y-98562782D01*
X142851920Y-98562778D01*
X142831276Y-98522565D01*
X142831272Y-98522559D01*
X142801359Y-98477350D01*
X142801358Y-98477348D01*
X142772422Y-98442623D01*
X141319855Y-97045682D01*
X140690056Y-96440001D01*
X144264318Y-96440001D01*
X144284955Y-96596760D01*
X144284956Y-96596762D01*
X144345464Y-96742841D01*
X144441718Y-96868282D01*
X144567159Y-96964536D01*
X144713238Y-97025044D01*
X144791619Y-97035363D01*
X144869999Y-97045682D01*
X144870000Y-97045682D01*
X144870001Y-97045682D01*
X144922254Y-97038802D01*
X145026762Y-97025044D01*
X145172841Y-96964536D01*
X145298282Y-96868282D01*
X145394536Y-96742841D01*
X145455044Y-96596762D01*
X145475682Y-96440000D01*
X145455044Y-96283238D01*
X145394536Y-96137159D01*
X145298282Y-96011718D01*
X145172841Y-95915464D01*
X145152933Y-95907218D01*
X145026762Y-95854956D01*
X145026760Y-95854955D01*
X144870001Y-95834318D01*
X144869999Y-95834318D01*
X144713239Y-95854955D01*
X144713237Y-95854956D01*
X144567160Y-95915463D01*
X144441718Y-96011718D01*
X144345463Y-96137160D01*
X144284956Y-96283237D01*
X144284955Y-96283239D01*
X144264318Y-96439998D01*
X144264318Y-96440001D01*
X140690056Y-96440001D01*
X140038179Y-95813087D01*
X140038179Y-95813088D01*
X140027233Y-95803936D01*
X140027232Y-95803936D01*
X140027224Y-95803929D01*
X139993613Y-95779582D01*
X139993614Y-95779582D01*
X139973195Y-95770596D01*
X139919764Y-95725575D01*
X139899155Y-95658814D01*
X139900203Y-95640924D01*
X139914741Y-95530500D01*
X139894103Y-95373738D01*
X139833595Y-95227659D01*
X139737341Y-95102218D01*
X139611900Y-95005964D01*
X139465821Y-94945456D01*
X139465819Y-94945455D01*
X139309060Y-94924818D01*
X139309058Y-94924818D01*
X139169539Y-94943186D01*
X139100504Y-94932420D01*
X139048248Y-94886040D01*
X139045730Y-94881834D01*
X139030948Y-94855976D01*
X138994989Y-94809846D01*
X138943159Y-94760001D01*
X141261818Y-94760001D01*
X141278699Y-94888226D01*
X141282455Y-94916761D01*
X141342963Y-95062839D01*
X141342964Y-95062841D01*
X141439218Y-95188282D01*
X141564659Y-95284536D01*
X141710738Y-95345044D01*
X141789119Y-95355362D01*
X141867499Y-95365682D01*
X141867500Y-95365682D01*
X141902829Y-95361030D01*
X141910928Y-95360500D01*
X142474072Y-95360500D01*
X142482170Y-95361030D01*
X142517500Y-95365682D01*
X142517501Y-95365682D01*
X142569753Y-95358802D01*
X142674262Y-95345044D01*
X142820341Y-95284536D01*
X142945782Y-95188282D01*
X143042036Y-95062841D01*
X143102544Y-94916762D01*
X143106301Y-94888226D01*
X143123182Y-94760000D01*
X143118530Y-94724669D01*
X143118000Y-94716571D01*
X143118000Y-94153428D01*
X143118531Y-94145326D01*
X143123182Y-94109999D01*
X143123182Y-94109998D01*
X143102544Y-93953239D01*
X143102544Y-93953238D01*
X143042036Y-93807159D01*
X142945782Y-93681718D01*
X142820341Y-93585464D01*
X142674262Y-93524956D01*
X142674260Y-93524955D01*
X142517501Y-93504318D01*
X142517500Y-93504318D01*
X142482170Y-93508969D01*
X142474072Y-93509500D01*
X141910928Y-93509500D01*
X141902829Y-93508969D01*
X141867500Y-93504318D01*
X141867499Y-93504318D01*
X141710739Y-93524955D01*
X141710737Y-93524956D01*
X141564660Y-93585463D01*
X141439218Y-93681718D01*
X141342963Y-93807160D01*
X141282456Y-93953237D01*
X141282455Y-93953239D01*
X141261818Y-94109998D01*
X141261818Y-94110000D01*
X141266469Y-94145326D01*
X141267000Y-94153427D01*
X141267000Y-94716571D01*
X141266469Y-94724673D01*
X141261818Y-94759999D01*
X141261818Y-94760001D01*
X138943159Y-94760001D01*
X135973547Y-91904109D01*
X135938871Y-91843451D01*
X135935500Y-91814733D01*
X135935500Y-87474008D01*
X135935499Y-87473992D01*
X135931457Y-87436400D01*
X135930803Y-87430316D01*
X135922229Y-87390903D01*
X135919598Y-87378807D01*
X135917110Y-87368629D01*
X135917110Y-87368627D01*
X135874100Y-87287915D01*
X135828345Y-87235111D01*
X135810756Y-87217159D01*
X135810750Y-87217154D01*
X135730940Y-87172511D01*
X135730935Y-87172509D01*
X135663903Y-87152826D01*
X135663899Y-87152825D01*
X135663898Y-87152825D01*
X135606000Y-87144500D01*
X132674153Y-87144500D01*
X132662392Y-87145517D01*
X132638866Y-87147552D01*
X132638867Y-87147552D01*
X132596922Y-87154862D01*
X132595034Y-87155199D01*
X132595029Y-87155200D01*
X132511021Y-87191344D01*
X132484733Y-87210539D01*
X132454591Y-87232549D01*
X132454588Y-87232551D01*
X132454585Y-87232554D01*
X132438378Y-87248379D01*
X132432803Y-87253210D01*
X132378913Y-87294560D01*
X132378911Y-87294562D01*
X132372894Y-87300633D01*
X132332285Y-87327897D01*
X132311869Y-87336353D01*
X132301714Y-87340560D01*
X132254260Y-87350000D01*
X129588600Y-87350000D01*
X129521561Y-87330315D01*
X129475806Y-87277511D01*
X129464600Y-87226000D01*
X129464600Y-85769377D01*
X129484285Y-85702338D01*
X129537089Y-85656583D01*
X129604785Y-85646438D01*
X129675000Y-85655682D01*
X129675001Y-85655682D01*
X129727254Y-85648802D01*
X129831762Y-85635044D01*
X129977841Y-85574536D01*
X130103282Y-85478282D01*
X130199536Y-85352841D01*
X130199535Y-85352841D01*
X130201624Y-85350120D01*
X130258052Y-85308917D01*
X130327798Y-85304762D01*
X130388718Y-85338974D01*
X130398376Y-85350120D01*
X130434403Y-85397072D01*
X130496718Y-85478282D01*
X130622159Y-85574536D01*
X130768238Y-85635044D01*
X130775181Y-85635958D01*
X130924999Y-85655682D01*
X130925000Y-85655682D01*
X130925001Y-85655682D01*
X130977254Y-85648802D01*
X131081762Y-85635044D01*
X131227841Y-85574536D01*
X131353282Y-85478282D01*
X131407044Y-85408216D01*
X131463470Y-85367015D01*
X131533216Y-85362860D01*
X131594137Y-85397072D01*
X131615900Y-85427403D01*
X131646950Y-85488342D01*
X131646951Y-85488343D01*
X131646954Y-85488347D01*
X131736652Y-85578045D01*
X131736654Y-85578046D01*
X131736658Y-85578050D01*
X131848513Y-85635043D01*
X131849698Y-85635647D01*
X131943475Y-85650499D01*
X131943481Y-85650500D01*
X132406518Y-85650499D01*
X132500304Y-85635646D01*
X132613342Y-85578050D01*
X132703050Y-85488342D01*
X132760646Y-85375304D01*
X132760646Y-85375302D01*
X132760647Y-85375301D01*
X132775499Y-85281524D01*
X132775500Y-85281519D01*
X132775499Y-84318482D01*
X132760646Y-84224696D01*
X132717640Y-84140293D01*
X132704745Y-84071625D01*
X132731022Y-84006885D01*
X132788128Y-83966628D01*
X132828126Y-83960000D01*
X135634362Y-83960000D01*
X135701401Y-83979685D01*
G37*
G04 #@! TD.AperFunction*
G04 #@! TA.AperFunction,Conductor*
G36*
X125436401Y-83979685D02*
G01*
X125482156Y-84032489D01*
X125492100Y-84101647D01*
X125467739Y-84159483D01*
X125412267Y-84231775D01*
X125400463Y-84247160D01*
X125339956Y-84393237D01*
X125339955Y-84393239D01*
X125324501Y-84510629D01*
X125324500Y-84510645D01*
X125324500Y-85089354D01*
X125324501Y-85089370D01*
X125339955Y-85206760D01*
X125339956Y-85206762D01*
X125399336Y-85350119D01*
X125400464Y-85352841D01*
X125496718Y-85478282D01*
X125622159Y-85574536D01*
X125768238Y-85635044D01*
X125832301Y-85643478D01*
X125924999Y-85655682D01*
X125925000Y-85655682D01*
X125925001Y-85655682D01*
X126010384Y-85644441D01*
X126081762Y-85635044D01*
X126227841Y-85574536D01*
X126353282Y-85478282D01*
X126449536Y-85352841D01*
X126449535Y-85352841D01*
X126451624Y-85350120D01*
X126508052Y-85308917D01*
X126577798Y-85304762D01*
X126638718Y-85338974D01*
X126648376Y-85350120D01*
X126746715Y-85478279D01*
X126746718Y-85478282D01*
X126872159Y-85574536D01*
X127018238Y-85635044D01*
X127082301Y-85643478D01*
X127174999Y-85655682D01*
X127175000Y-85655682D01*
X127175001Y-85655682D01*
X127260384Y-85644441D01*
X127331762Y-85635044D01*
X127477841Y-85574536D01*
X127603282Y-85478282D01*
X127699536Y-85352841D01*
X127699537Y-85352838D01*
X127701623Y-85350120D01*
X127758051Y-85308917D01*
X127827797Y-85304762D01*
X127888717Y-85338974D01*
X127898374Y-85350119D01*
X127973795Y-85448408D01*
X127996718Y-85478282D01*
X128122159Y-85574536D01*
X128268238Y-85635044D01*
X128332301Y-85643478D01*
X128424999Y-85655682D01*
X128425000Y-85655682D01*
X128425001Y-85655682D01*
X128510384Y-85644441D01*
X128581762Y-85635044D01*
X128727841Y-85574536D01*
X128853282Y-85478282D01*
X128949536Y-85352841D01*
X128949535Y-85352841D01*
X128951624Y-85350120D01*
X129008052Y-85308917D01*
X129077798Y-85304762D01*
X129138718Y-85338974D01*
X129148376Y-85350120D01*
X129246715Y-85478279D01*
X129246718Y-85478282D01*
X129254915Y-85484572D01*
X129296116Y-85540998D01*
X129300271Y-85610744D01*
X129289759Y-85638004D01*
X129289807Y-85638024D01*
X129289140Y-85639610D01*
X129287650Y-85643472D01*
X129287287Y-85644121D01*
X129287109Y-85644441D01*
X129267426Y-85711473D01*
X129259100Y-85769380D01*
X129259100Y-87226007D01*
X129263797Y-87269686D01*
X129275002Y-87321193D01*
X129277489Y-87331370D01*
X129277490Y-87331373D01*
X129320500Y-87412085D01*
X129366255Y-87464889D01*
X129383846Y-87482843D01*
X129383847Y-87482844D01*
X129383849Y-87482845D01*
X129431462Y-87509478D01*
X129463663Y-87527490D01*
X129530702Y-87547175D01*
X129588600Y-87555500D01*
X129983032Y-87555500D01*
X130022763Y-87563402D01*
X130022887Y-87562940D01*
X130029942Y-87564830D01*
X130030481Y-87564937D01*
X130030738Y-87565044D01*
X130060939Y-87569020D01*
X130187499Y-87585682D01*
X130187500Y-87585682D01*
X130222829Y-87581030D01*
X130230928Y-87580500D01*
X130305100Y-87580500D01*
X130372139Y-87600185D01*
X130417894Y-87652989D01*
X130429100Y-87704500D01*
X130429100Y-88125171D01*
X130429707Y-88139761D01*
X130443355Y-88205310D01*
X130468549Y-88270478D01*
X130468554Y-88270489D01*
X130495923Y-88319223D01*
X130497189Y-88321477D01*
X130507921Y-88335463D01*
X130525093Y-88357843D01*
X130541277Y-88385875D01*
X130568585Y-88451802D01*
X130576963Y-88483069D01*
X130586277Y-88553814D01*
X130586277Y-88586186D01*
X130576963Y-88656930D01*
X130568585Y-88688196D01*
X130541278Y-88754122D01*
X130525095Y-88782154D01*
X130494582Y-88821921D01*
X130486175Y-88833876D01*
X130486173Y-88833879D01*
X130457109Y-88894171D01*
X130457109Y-88894172D01*
X130437427Y-88961198D01*
X130437425Y-88961208D01*
X130437425Y-88961210D01*
X130429100Y-89019108D01*
X130429100Y-89611696D01*
X130431369Y-89642152D01*
X130434800Y-89665044D01*
X130436816Y-89678501D01*
X130444340Y-89698137D01*
X130449945Y-89767782D01*
X130417008Y-89829401D01*
X130404036Y-89840879D01*
X130311720Y-89911716D01*
X130311719Y-89911717D01*
X130311718Y-89911718D01*
X130247548Y-89995345D01*
X130215463Y-90037160D01*
X130154956Y-90183237D01*
X130154955Y-90183239D01*
X130134318Y-90339998D01*
X130134318Y-90340001D01*
X130154955Y-90496760D01*
X130154956Y-90496762D01*
X130189858Y-90581024D01*
X130215464Y-90642841D01*
X130311718Y-90768282D01*
X130338231Y-90788626D01*
X130404891Y-90839776D01*
X130446094Y-90896204D01*
X130450249Y-90965950D01*
X130448382Y-90973087D01*
X130437427Y-91010395D01*
X130437426Y-91010401D01*
X130437425Y-91010405D01*
X130429116Y-91068194D01*
X130429100Y-91068306D01*
X130429100Y-93399230D01*
X130429234Y-93404467D01*
X130430011Y-93419705D01*
X130430011Y-93419711D01*
X130444983Y-93486894D01*
X130471390Y-93551586D01*
X130471391Y-93551587D01*
X130500978Y-93602042D01*
X130500981Y-93602046D01*
X130500985Y-93602052D01*
X131810193Y-95243894D01*
X131836599Y-95308581D01*
X131823840Y-95377276D01*
X131775967Y-95428168D01*
X131729430Y-95444140D01*
X131723238Y-95444956D01*
X131723237Y-95444956D01*
X131577160Y-95505463D01*
X131451718Y-95601718D01*
X131355463Y-95727160D01*
X131294956Y-95873237D01*
X131294955Y-95873239D01*
X131274318Y-96029998D01*
X131274318Y-96030001D01*
X131294955Y-96186760D01*
X131294956Y-96186762D01*
X131346714Y-96311718D01*
X131355464Y-96332841D01*
X131451718Y-96458282D01*
X131577159Y-96554536D01*
X131723238Y-96615044D01*
X131801619Y-96625363D01*
X131879999Y-96635682D01*
X131880000Y-96635682D01*
X131880001Y-96635682D01*
X131932253Y-96628802D01*
X132036762Y-96615044D01*
X132182841Y-96554536D01*
X132308282Y-96458282D01*
X132404536Y-96332841D01*
X132417755Y-96300925D01*
X132461594Y-96246523D01*
X132527888Y-96224457D01*
X132595587Y-96241735D01*
X132629265Y-96271068D01*
X134124946Y-98146760D01*
X135554898Y-99940024D01*
X135581142Y-99967338D01*
X135581144Y-99967339D01*
X135615551Y-99997099D01*
X135623661Y-100002899D01*
X135646352Y-100019127D01*
X135646357Y-100019130D01*
X139067462Y-102017141D01*
X139067463Y-102017141D01*
X139079647Y-102023214D01*
X139079646Y-102023213D01*
X139079648Y-102023214D01*
X139116148Y-102038480D01*
X139116152Y-102038480D01*
X139116153Y-102038481D01*
X139199951Y-102054344D01*
X139199954Y-102054344D01*
X139199958Y-102054345D01*
X139199961Y-102054344D01*
X139199962Y-102054345D01*
X139205665Y-102054219D01*
X139268041Y-102052848D01*
X139335495Y-102071054D01*
X139382399Y-102122839D01*
X139386707Y-102132847D01*
X139415182Y-102207930D01*
X139415182Y-102207931D01*
X139444627Y-102250588D01*
X139511817Y-102347929D01*
X139578723Y-102407202D01*
X139639150Y-102460736D01*
X139763853Y-102526185D01*
X139789775Y-102539790D01*
X139954944Y-102580500D01*
X140125056Y-102580500D01*
X140290225Y-102539790D01*
X140294352Y-102537623D01*
X140362858Y-102523897D01*
X140427913Y-102549387D01*
X140447127Y-102567902D01*
X140477490Y-102604233D01*
X140477492Y-102604235D01*
X140508862Y-102632413D01*
X140545581Y-102691855D01*
X140550000Y-102724662D01*
X140550000Y-102833741D01*
X140544978Y-102868674D01*
X140543326Y-102874297D01*
X140543324Y-102874304D01*
X140543325Y-102874304D01*
X140538422Y-102908408D01*
X140535000Y-102932205D01*
X140535000Y-103520999D01*
X140515315Y-103588038D01*
X140462511Y-103633793D01*
X140411000Y-103644999D01*
X138769949Y-103644999D01*
X138769935Y-103645000D01*
X138759986Y-103645300D01*
X138734917Y-103646816D01*
X138705084Y-103645011D01*
X138689562Y-103642167D01*
X138680356Y-103640480D01*
X138670523Y-103638985D01*
X138662454Y-103638005D01*
X138636690Y-103634875D01*
X138618340Y-103631224D01*
X138613699Y-103629930D01*
X138596113Y-103623563D01*
X138583239Y-103617769D01*
X138564997Y-103609559D01*
X138555804Y-103605754D01*
X138555802Y-103605753D01*
X138523950Y-103593673D01*
X138507006Y-103585737D01*
X138502818Y-103583375D01*
X138487262Y-103572981D01*
X138460420Y-103551953D01*
X138460419Y-103551952D01*
X138452403Y-103546054D01*
X138440523Y-103537853D01*
X138431731Y-103531784D01*
X138409362Y-103511966D01*
X138401755Y-103503381D01*
X138392695Y-103493154D01*
X138385904Y-103485940D01*
X138214298Y-103314334D01*
X138203912Y-103304753D01*
X138203910Y-103304751D01*
X138148226Y-103268096D01*
X138148216Y-103268091D01*
X138084411Y-103239657D01*
X138084401Y-103239653D01*
X138028130Y-103223690D01*
X138028121Y-103223688D01*
X132219452Y-102442953D01*
X132155632Y-102414513D01*
X132117319Y-102356085D01*
X132116677Y-102286218D01*
X132153909Y-102227095D01*
X132188523Y-102205495D01*
X132190840Y-102204536D01*
X132316281Y-102108282D01*
X132412535Y-101982841D01*
X132473043Y-101836762D01*
X132493681Y-101680000D01*
X132473043Y-101523238D01*
X132412535Y-101377159D01*
X132316281Y-101251718D01*
X132190840Y-101155464D01*
X132044761Y-101094956D01*
X132044759Y-101094955D01*
X131888000Y-101074318D01*
X131887998Y-101074318D01*
X131731238Y-101094955D01*
X131731236Y-101094956D01*
X131585159Y-101155463D01*
X131459717Y-101251718D01*
X131363462Y-101377160D01*
X131302955Y-101523237D01*
X131302954Y-101523239D01*
X131282317Y-101679998D01*
X131282317Y-101680001D01*
X131302954Y-101836760D01*
X131302955Y-101836762D01*
X131363463Y-101982841D01*
X131459717Y-102108282D01*
X131459719Y-102108283D01*
X131459721Y-102108286D01*
X131465464Y-102114029D01*
X131464134Y-102115358D01*
X131499214Y-102163402D01*
X131503368Y-102233148D01*
X131469154Y-102294068D01*
X131407437Y-102326820D01*
X131366006Y-102328243D01*
X129200727Y-102037211D01*
X129194500Y-102036567D01*
X129176351Y-102035246D01*
X129176349Y-102035246D01*
X129105883Y-102042352D01*
X129105877Y-102042353D01*
X129038619Y-102061236D01*
X129038618Y-102061236D01*
X129038616Y-102061237D01*
X129033615Y-102062977D01*
X129014873Y-102069498D01*
X128940464Y-102122677D01*
X128894079Y-102174941D01*
X128894080Y-102174941D01*
X128878582Y-102194716D01*
X128878581Y-102194718D01*
X128844736Y-102279673D01*
X128844735Y-102279679D01*
X128833968Y-102348716D01*
X128833272Y-102407200D01*
X128844675Y-102493815D01*
X128844675Y-102526185D01*
X128835361Y-102596930D01*
X128826983Y-102628196D01*
X128799677Y-102694119D01*
X128783491Y-102722154D01*
X128740051Y-102778765D01*
X128717163Y-102801653D01*
X128660553Y-102845092D01*
X128632519Y-102861278D01*
X128566594Y-102888585D01*
X128535327Y-102896963D01*
X128464583Y-102906277D01*
X128432211Y-102906277D01*
X128361466Y-102896963D01*
X128330200Y-102888585D01*
X128264277Y-102861279D01*
X128236242Y-102845093D01*
X128179631Y-102801653D01*
X128156743Y-102778765D01*
X128113304Y-102722155D01*
X128097118Y-102694121D01*
X128072583Y-102634889D01*
X128069810Y-102628195D01*
X128061433Y-102596930D01*
X128056536Y-102559730D01*
X128046177Y-102517033D01*
X128028343Y-102467425D01*
X128028249Y-102467185D01*
X128022316Y-102397570D01*
X128054961Y-102335796D01*
X128068337Y-102323903D01*
X128086917Y-102309647D01*
X128183171Y-102184206D01*
X128243679Y-102038127D01*
X128264317Y-101881365D01*
X128264137Y-101880000D01*
X128243679Y-101724604D01*
X128243679Y-101724603D01*
X128183171Y-101578524D01*
X128086917Y-101453083D01*
X127961476Y-101356829D01*
X127815397Y-101296321D01*
X127815395Y-101296320D01*
X127658636Y-101275683D01*
X127658634Y-101275683D01*
X127501874Y-101296320D01*
X127501872Y-101296321D01*
X127355795Y-101356828D01*
X127230353Y-101453083D01*
X127134099Y-101578524D01*
X127099627Y-101661746D01*
X127055785Y-101716149D01*
X126989491Y-101738213D01*
X126968548Y-101737187D01*
X125121145Y-101488881D01*
X125119072Y-101488691D01*
X125054105Y-101462979D01*
X125013353Y-101406225D01*
X125007435Y-101381401D01*
X125005044Y-101363238D01*
X124944536Y-101217159D01*
X124848282Y-101091718D01*
X124722841Y-100995464D01*
X124593999Y-100942096D01*
X124576762Y-100934956D01*
X124576760Y-100934955D01*
X124420001Y-100914318D01*
X124419999Y-100914318D01*
X124263239Y-100934955D01*
X124263234Y-100934957D01*
X124157397Y-100978796D01*
X124087928Y-100986265D01*
X124025449Y-100954989D01*
X123995384Y-100911687D01*
X123985225Y-100887161D01*
X123985224Y-100887160D01*
X123985224Y-100887159D01*
X123888970Y-100761718D01*
X123763529Y-100665464D01*
X123737646Y-100654743D01*
X123617450Y-100604956D01*
X123617448Y-100604955D01*
X123460689Y-100584318D01*
X123460687Y-100584318D01*
X123303927Y-100604955D01*
X123303925Y-100604956D01*
X123157848Y-100665463D01*
X123032406Y-100761718D01*
X122936151Y-100887160D01*
X122875644Y-101033237D01*
X122871973Y-101061121D01*
X122843705Y-101125017D01*
X122785380Y-101163487D01*
X122732516Y-101167828D01*
X121450119Y-100995463D01*
X120008463Y-100801692D01*
X120007788Y-100801682D01*
X119959396Y-100801008D01*
X119959395Y-100801008D01*
X119906052Y-100806671D01*
X119900932Y-100807215D01*
X119898690Y-100807539D01*
X119885448Y-100809457D01*
X119885444Y-100809458D01*
X119801439Y-100845601D01*
X119745014Y-100886802D01*
X119703166Y-100927666D01*
X119703159Y-100927675D01*
X119702022Y-100929157D01*
X119700443Y-100930735D01*
X119700229Y-100930977D01*
X119700214Y-100930964D01*
X119679143Y-100952033D01*
X119622532Y-100995472D01*
X119594499Y-101011657D01*
X119528572Y-101038964D01*
X119497307Y-101047341D01*
X119426563Y-101056655D01*
X119394191Y-101056655D01*
X119323446Y-101047341D01*
X119292180Y-101038963D01*
X119226254Y-101011656D01*
X119198220Y-100995471D01*
X119188353Y-100987900D01*
X119141612Y-100952034D01*
X119118723Y-100929145D01*
X119075281Y-100872529D01*
X119059097Y-100844497D01*
X119056924Y-100839250D01*
X119040219Y-100809458D01*
X119033200Y-100796940D01*
X119033198Y-100796937D01*
X119033194Y-100796930D01*
X118998971Y-100749928D01*
X118989650Y-100738066D01*
X118916491Y-100683184D01*
X118911570Y-100680991D01*
X118852680Y-100654747D01*
X118852670Y-100654743D01*
X118796399Y-100638780D01*
X118796390Y-100638778D01*
X118348797Y-100578618D01*
X118287388Y-100552177D01*
X117765043Y-100130169D01*
X117725267Y-100072727D01*
X117722860Y-100002899D01*
X117758587Y-99942855D01*
X117800001Y-99919961D01*
X117799253Y-99918154D01*
X117806760Y-99915044D01*
X117806762Y-99915044D01*
X117952841Y-99854536D01*
X118000845Y-99817701D01*
X120036618Y-99817701D01*
X120057255Y-99974460D01*
X120057256Y-99974462D01*
X120100970Y-100079998D01*
X120117764Y-100120541D01*
X120214018Y-100245982D01*
X120339459Y-100342236D01*
X120485538Y-100402744D01*
X120563919Y-100413062D01*
X120642299Y-100423382D01*
X120642300Y-100423382D01*
X120642301Y-100423382D01*
X120694553Y-100416502D01*
X120799062Y-100402744D01*
X120945141Y-100342236D01*
X121070582Y-100245982D01*
X121166836Y-100120541D01*
X121183628Y-100080001D01*
X125594318Y-100080001D01*
X125614955Y-100236760D01*
X125614956Y-100236762D01*
X125672498Y-100375682D01*
X125675464Y-100382841D01*
X125771718Y-100508282D01*
X125897159Y-100604536D01*
X126043238Y-100665044D01*
X126121619Y-100675363D01*
X126199999Y-100685682D01*
X126200000Y-100685682D01*
X126200001Y-100685682D01*
X126204710Y-100685062D01*
X134275425Y-100685062D01*
X134296062Y-100841821D01*
X134296063Y-100841823D01*
X134337597Y-100942096D01*
X134356571Y-100987902D01*
X134452825Y-101113343D01*
X134578266Y-101209597D01*
X134724345Y-101270105D01*
X134802726Y-101280424D01*
X134881106Y-101290743D01*
X134881107Y-101290743D01*
X134881108Y-101290743D01*
X134933360Y-101283863D01*
X135037869Y-101270105D01*
X135183948Y-101209597D01*
X135309389Y-101113343D01*
X135405643Y-100987902D01*
X135466151Y-100841823D01*
X135484960Y-100698951D01*
X135486789Y-100685062D01*
X135486789Y-100685059D01*
X135466151Y-100528300D01*
X135466151Y-100528299D01*
X135405643Y-100382220D01*
X135309389Y-100256779D01*
X135183948Y-100160525D01*
X135087413Y-100120539D01*
X135037869Y-100100017D01*
X135037867Y-100100016D01*
X134881108Y-100079379D01*
X134881106Y-100079379D01*
X134724346Y-100100016D01*
X134724344Y-100100017D01*
X134578267Y-100160524D01*
X134452825Y-100256779D01*
X134356570Y-100382221D01*
X134296063Y-100528298D01*
X134296062Y-100528300D01*
X134275425Y-100685059D01*
X134275425Y-100685062D01*
X126204710Y-100685062D01*
X126252254Y-100678802D01*
X126356762Y-100665044D01*
X126502841Y-100604536D01*
X126628282Y-100508282D01*
X126724536Y-100382841D01*
X126785044Y-100236762D01*
X126805682Y-100080000D01*
X126805600Y-100079379D01*
X126785044Y-99923239D01*
X126785044Y-99923238D01*
X126724536Y-99777159D01*
X126719043Y-99770001D01*
X129854318Y-99770001D01*
X129874955Y-99926760D01*
X129874956Y-99926762D01*
X129935464Y-100072841D01*
X130031718Y-100198282D01*
X130157159Y-100294536D01*
X130303238Y-100355044D01*
X130381619Y-100365363D01*
X130459999Y-100375682D01*
X130460000Y-100375682D01*
X130460001Y-100375682D01*
X130512254Y-100368802D01*
X130616762Y-100355044D01*
X130762841Y-100294536D01*
X130888282Y-100198282D01*
X130984536Y-100072841D01*
X131045044Y-99926762D01*
X131065682Y-99770000D01*
X131064139Y-99758282D01*
X131047625Y-99632841D01*
X131045044Y-99613238D01*
X130984536Y-99467159D01*
X130888282Y-99341718D01*
X130762841Y-99245464D01*
X130731917Y-99232655D01*
X130616762Y-99184956D01*
X130616760Y-99184955D01*
X130460001Y-99164318D01*
X130459999Y-99164318D01*
X130303239Y-99184955D01*
X130303237Y-99184956D01*
X130157160Y-99245463D01*
X130031718Y-99341718D01*
X129935463Y-99467160D01*
X129874956Y-99613237D01*
X129874955Y-99613239D01*
X129854318Y-99769998D01*
X129854318Y-99770001D01*
X126719043Y-99770001D01*
X126628282Y-99651718D01*
X126502841Y-99555464D01*
X126502839Y-99555463D01*
X126496392Y-99550516D01*
X126497330Y-99549293D01*
X126455455Y-99505370D01*
X126442236Y-99436762D01*
X126468208Y-99371899D01*
X126518219Y-99333997D01*
X126567280Y-99313676D01*
X126692721Y-99217422D01*
X126788975Y-99091981D01*
X126849483Y-98945902D01*
X126870121Y-98789140D01*
X126849483Y-98632378D01*
X126788975Y-98486299D01*
X126692721Y-98360858D01*
X126567280Y-98264604D01*
X126499590Y-98236566D01*
X126421201Y-98204096D01*
X126421199Y-98204095D01*
X126264440Y-98183458D01*
X126264438Y-98183458D01*
X126107678Y-98204095D01*
X126107676Y-98204096D01*
X125961599Y-98264603D01*
X125836157Y-98360858D01*
X125739902Y-98486300D01*
X125679395Y-98632377D01*
X125679394Y-98632379D01*
X125658757Y-98789138D01*
X125658757Y-98789141D01*
X125679394Y-98945900D01*
X125679395Y-98945902D01*
X125739903Y-99091981D01*
X125836157Y-99217422D01*
X125961598Y-99313676D01*
X125961599Y-99313676D01*
X125968047Y-99318624D01*
X125967108Y-99319847D01*
X126008980Y-99363763D01*
X126022202Y-99432371D01*
X125996233Y-99497235D01*
X125946218Y-99535143D01*
X125897159Y-99555464D01*
X125771718Y-99651718D01*
X125675463Y-99777160D01*
X125614956Y-99923237D01*
X125614955Y-99923239D01*
X125594318Y-100079998D01*
X125594318Y-100080001D01*
X121183628Y-100080001D01*
X121227344Y-99974462D01*
X121241102Y-99869954D01*
X121247982Y-99817701D01*
X121247982Y-99817698D01*
X121227344Y-99660939D01*
X121227344Y-99660938D01*
X121166836Y-99514859D01*
X121070582Y-99389418D01*
X120945141Y-99293164D01*
X120932867Y-99288080D01*
X120799062Y-99232656D01*
X120799060Y-99232655D01*
X120642301Y-99212018D01*
X120642299Y-99212018D01*
X120485539Y-99232655D01*
X120485537Y-99232656D01*
X120339460Y-99293163D01*
X120214018Y-99389418D01*
X120117763Y-99514860D01*
X120057256Y-99660937D01*
X120057255Y-99660939D01*
X120036618Y-99817698D01*
X120036618Y-99817701D01*
X118000845Y-99817701D01*
X118078282Y-99758282D01*
X118174536Y-99632841D01*
X118235044Y-99486762D01*
X118250166Y-99371899D01*
X118255682Y-99330001D01*
X118255682Y-99329998D01*
X118236587Y-99184956D01*
X118235044Y-99173238D01*
X118174536Y-99027159D01*
X118078282Y-98901718D01*
X117952841Y-98805464D01*
X117913431Y-98789140D01*
X117806762Y-98744956D01*
X117806760Y-98744955D01*
X117650001Y-98724318D01*
X117649999Y-98724318D01*
X117493239Y-98744955D01*
X117493237Y-98744956D01*
X117347160Y-98805463D01*
X117221718Y-98901718D01*
X117125463Y-99027160D01*
X117064956Y-99173237D01*
X117064956Y-99173238D01*
X117047252Y-99307710D01*
X117018985Y-99371606D01*
X116960661Y-99410077D01*
X116890796Y-99410908D01*
X116846389Y-99387979D01*
X115810488Y-98551065D01*
X115806560Y-98548045D01*
X115801847Y-98544599D01*
X115759347Y-98489142D01*
X115753576Y-98419511D01*
X115786367Y-98357814D01*
X115847308Y-98323639D01*
X115875032Y-98320500D01*
X118141217Y-98320500D01*
X118148155Y-98320889D01*
X118176154Y-98324044D01*
X118187034Y-98325270D01*
X118187034Y-98325269D01*
X118187035Y-98325270D01*
X118245479Y-98314211D01*
X118304287Y-98305348D01*
X118304290Y-98305346D01*
X118312447Y-98302830D01*
X118320469Y-98300023D01*
X118320472Y-98300023D01*
X118373072Y-98272222D01*
X118426642Y-98246425D01*
X118426642Y-98246424D01*
X118426644Y-98246424D01*
X118433678Y-98241628D01*
X118440534Y-98236568D01*
X118440538Y-98236566D01*
X118440541Y-98236562D01*
X118441919Y-98235546D01*
X118445656Y-98234180D01*
X118447426Y-98232925D01*
X118448807Y-98232196D01*
X118449176Y-98232895D01*
X118507548Y-98211574D01*
X118575718Y-98226888D01*
X118624788Y-98276627D01*
X118630116Y-98287862D01*
X118647087Y-98328834D01*
X118675464Y-98397341D01*
X118765391Y-98514536D01*
X118771720Y-98522784D01*
X118775282Y-98525517D01*
X118816483Y-98581946D01*
X118820635Y-98651693D01*
X118798168Y-98699376D01*
X118715464Y-98807157D01*
X118654956Y-98953237D01*
X118654955Y-98953239D01*
X118634318Y-99109998D01*
X118634318Y-99110001D01*
X118654955Y-99266760D01*
X118654956Y-99266762D01*
X118681162Y-99330030D01*
X118715464Y-99412841D01*
X118811718Y-99538282D01*
X118937159Y-99634536D01*
X119083238Y-99695044D01*
X119161619Y-99705363D01*
X119239999Y-99715682D01*
X119240000Y-99715682D01*
X119240001Y-99715682D01*
X119292253Y-99708802D01*
X119396762Y-99695044D01*
X119542841Y-99634536D01*
X119668282Y-99538282D01*
X119764536Y-99412841D01*
X119825044Y-99266762D01*
X119845682Y-99110000D01*
X119835703Y-99034205D01*
X119825044Y-98953239D01*
X119825044Y-98953238D01*
X119764536Y-98807159D01*
X119668282Y-98681718D01*
X119668280Y-98681717D01*
X119668280Y-98681716D01*
X119664715Y-98678981D01*
X119623516Y-98622551D01*
X119619364Y-98552805D01*
X119641830Y-98505125D01*
X119724536Y-98397341D01*
X119730378Y-98383235D01*
X119774216Y-98328834D01*
X119840509Y-98306767D01*
X119908209Y-98324044D01*
X119943313Y-98355199D01*
X119991718Y-98418282D01*
X120117159Y-98514536D01*
X120263238Y-98575044D01*
X120341619Y-98585363D01*
X120419999Y-98595682D01*
X120420000Y-98595682D01*
X120420001Y-98595682D01*
X120486683Y-98586903D01*
X120576762Y-98575044D01*
X120722841Y-98514536D01*
X120848282Y-98418282D01*
X120944536Y-98292841D01*
X121005044Y-98146762D01*
X121023049Y-98010000D01*
X121025682Y-97990001D01*
X121025682Y-97989998D01*
X121005044Y-97833239D01*
X121005044Y-97833238D01*
X120963089Y-97731951D01*
X120955621Y-97662483D01*
X120986896Y-97600004D01*
X121046985Y-97564352D01*
X121077651Y-97560500D01*
X121682034Y-97560500D01*
X121749073Y-97580185D01*
X121769715Y-97596819D01*
X121779317Y-97606421D01*
X121812802Y-97667744D01*
X121814575Y-97677916D01*
X121824955Y-97756761D01*
X121874569Y-97876538D01*
X121885464Y-97902841D01*
X121981718Y-98028282D01*
X122107159Y-98124536D01*
X122253238Y-98185044D01*
X122325094Y-98194504D01*
X122409999Y-98205682D01*
X122410000Y-98205682D01*
X122410001Y-98205682D01*
X122462254Y-98198802D01*
X122566762Y-98185044D01*
X122712841Y-98124536D01*
X122838282Y-98028282D01*
X122882438Y-97970735D01*
X122938864Y-97929534D01*
X123008610Y-97925379D01*
X123069531Y-97959591D01*
X123095372Y-97998768D01*
X123155464Y-98143841D01*
X123251718Y-98269282D01*
X123377159Y-98365536D01*
X123523238Y-98426044D01*
X123601618Y-98436363D01*
X123679999Y-98446682D01*
X123680000Y-98446682D01*
X123680001Y-98446682D01*
X123732254Y-98439802D01*
X123836762Y-98426044D01*
X123982841Y-98365536D01*
X124043743Y-98318804D01*
X124108910Y-98293611D01*
X124177355Y-98307649D01*
X124217602Y-98341693D01*
X124291718Y-98438282D01*
X124417159Y-98534536D01*
X124563238Y-98595044D01*
X124641619Y-98605363D01*
X124719999Y-98615682D01*
X124720000Y-98615682D01*
X124720001Y-98615682D01*
X124772253Y-98608802D01*
X124876762Y-98595044D01*
X125022841Y-98534536D01*
X125148282Y-98438282D01*
X125244536Y-98312841D01*
X125305044Y-98166762D01*
X125325682Y-98010000D01*
X125311376Y-97901336D01*
X125322141Y-97832302D01*
X125368521Y-97780046D01*
X125435790Y-97761161D01*
X125502591Y-97781641D01*
X125509782Y-97786761D01*
X125626781Y-97876538D01*
X125772860Y-97937046D01*
X125834530Y-97945165D01*
X125929621Y-97957684D01*
X125929622Y-97957684D01*
X125929623Y-97957684D01*
X125981876Y-97950804D01*
X126086384Y-97937046D01*
X126232463Y-97876538D01*
X126357904Y-97780284D01*
X126454158Y-97654843D01*
X126514666Y-97508764D01*
X126535304Y-97352002D01*
X126534231Y-97343854D01*
X126519942Y-97235318D01*
X126514666Y-97195240D01*
X126454158Y-97049161D01*
X126357904Y-96923720D01*
X126232463Y-96827466D01*
X126226106Y-96824833D01*
X126086384Y-96766958D01*
X126086382Y-96766957D01*
X125929623Y-96746320D01*
X125929621Y-96746320D01*
X125772861Y-96766957D01*
X125772859Y-96766958D01*
X125626782Y-96827465D01*
X125501340Y-96923720D01*
X125405085Y-97049162D01*
X125344578Y-97195239D01*
X125344577Y-97195241D01*
X125323940Y-97352000D01*
X125323940Y-97352003D01*
X125338245Y-97460664D01*
X125327479Y-97529699D01*
X125281099Y-97581955D01*
X125213830Y-97600840D01*
X125147030Y-97580359D01*
X125139820Y-97575225D01*
X125022841Y-97485464D01*
X124937854Y-97450261D01*
X124883451Y-97406420D01*
X124861386Y-97340125D01*
X124878665Y-97272426D01*
X124886919Y-97260230D01*
X124929036Y-97205343D01*
X124989544Y-97059264D01*
X125010182Y-96902502D01*
X125009426Y-96896762D01*
X124989544Y-96745741D01*
X124989544Y-96745740D01*
X124929036Y-96599661D01*
X124832782Y-96474220D01*
X124707341Y-96377966D01*
X124640339Y-96350213D01*
X124604821Y-96335501D01*
X129824318Y-96335501D01*
X129844955Y-96492260D01*
X129844956Y-96492262D01*
X129904362Y-96635682D01*
X129905464Y-96638341D01*
X130001718Y-96763782D01*
X130127159Y-96860036D01*
X130273238Y-96920544D01*
X130351619Y-96930862D01*
X130429999Y-96941182D01*
X130430000Y-96941182D01*
X130430001Y-96941182D01*
X130482253Y-96934302D01*
X130586762Y-96920544D01*
X130732841Y-96860036D01*
X130858282Y-96763782D01*
X130954536Y-96638341D01*
X131015044Y-96492262D01*
X131035682Y-96335500D01*
X131035362Y-96333072D01*
X131019004Y-96208818D01*
X131015044Y-96178738D01*
X130954536Y-96032659D01*
X130858282Y-95907218D01*
X130858280Y-95907217D01*
X130858280Y-95907216D01*
X130746084Y-95821126D01*
X130704881Y-95764698D01*
X130700726Y-95694952D01*
X130734938Y-95634032D01*
X130746084Y-95624374D01*
X130858282Y-95538282D01*
X130954536Y-95412841D01*
X131015044Y-95266762D01*
X131032071Y-95137428D01*
X131035682Y-95110001D01*
X131035682Y-95109998D01*
X131019136Y-94984318D01*
X131015044Y-94953238D01*
X130954536Y-94807159D01*
X130858282Y-94681718D01*
X130732841Y-94585464D01*
X130586762Y-94524956D01*
X130586760Y-94524955D01*
X130430001Y-94504318D01*
X130429999Y-94504318D01*
X130273239Y-94524955D01*
X130273237Y-94524956D01*
X130127160Y-94585463D01*
X130001718Y-94681718D01*
X129905463Y-94807160D01*
X129844956Y-94953237D01*
X129844955Y-94953239D01*
X129824318Y-95109998D01*
X129824318Y-95110001D01*
X129844955Y-95266760D01*
X129844956Y-95266762D01*
X129886362Y-95366726D01*
X129905464Y-95412841D01*
X130001718Y-95538282D01*
X130113916Y-95624374D01*
X130155118Y-95680802D01*
X130159273Y-95750548D01*
X130125060Y-95811469D01*
X130113919Y-95821123D01*
X130033127Y-95883117D01*
X130001718Y-95907218D01*
X129905463Y-96032660D01*
X129844956Y-96178737D01*
X129844955Y-96178739D01*
X129824318Y-96335498D01*
X129824318Y-96335501D01*
X124604821Y-96335501D01*
X124561262Y-96317458D01*
X124561260Y-96317457D01*
X124404501Y-96296820D01*
X124404499Y-96296820D01*
X124247739Y-96317457D01*
X124247737Y-96317458D01*
X124101660Y-96377965D01*
X123976218Y-96474220D01*
X123879963Y-96599662D01*
X123819456Y-96745739D01*
X123819455Y-96745741D01*
X123798818Y-96902500D01*
X123798818Y-96902503D01*
X123819455Y-97059262D01*
X123819457Y-97059267D01*
X123822439Y-97066466D01*
X123829908Y-97135935D01*
X123798633Y-97198414D01*
X123738543Y-97234066D01*
X123691694Y-97236857D01*
X123680003Y-97235318D01*
X123679999Y-97235318D01*
X123572835Y-97249426D01*
X123503800Y-97238660D01*
X123451544Y-97192280D01*
X123432659Y-97125011D01*
X123453140Y-97058211D01*
X123458267Y-97051009D01*
X123464536Y-97042841D01*
X123525044Y-96896762D01*
X123544926Y-96745740D01*
X123545682Y-96740001D01*
X123545682Y-96739998D01*
X123525044Y-96583239D01*
X123525044Y-96583238D01*
X123464536Y-96437159D01*
X123368282Y-96311718D01*
X123242841Y-96215464D01*
X123226796Y-96208818D01*
X123096762Y-96154956D01*
X123096760Y-96154955D01*
X122940001Y-96134318D01*
X122939999Y-96134318D01*
X122783239Y-96154955D01*
X122783237Y-96154956D01*
X122637160Y-96215463D01*
X122511718Y-96311718D01*
X122415463Y-96437160D01*
X122354956Y-96583237D01*
X122354956Y-96583238D01*
X122347851Y-96637201D01*
X122319583Y-96701097D01*
X122261258Y-96739568D01*
X122191393Y-96740398D01*
X122151277Y-96720783D01*
X122132886Y-96707209D01*
X122125297Y-96703198D01*
X122117677Y-96699529D01*
X122093161Y-96691967D01*
X122060822Y-96681992D01*
X122039842Y-96674651D01*
X122004695Y-96662352D01*
X121996326Y-96660768D01*
X121987904Y-96659500D01*
X121987902Y-96659500D01*
X121928426Y-96659500D01*
X121868990Y-96657275D01*
X121859756Y-96658316D01*
X121859662Y-96657486D01*
X121844364Y-96659500D01*
X120935935Y-96659500D01*
X120868896Y-96639815D01*
X120823141Y-96587011D01*
X120813197Y-96517853D01*
X120821372Y-96488051D01*
X120855044Y-96406762D01*
X120871670Y-96280472D01*
X120875682Y-96250001D01*
X120875682Y-96249998D01*
X120855044Y-96093239D01*
X120855044Y-96093238D01*
X120794536Y-95947159D01*
X120698282Y-95821718D01*
X120572841Y-95725464D01*
X120549225Y-95715682D01*
X120426762Y-95664956D01*
X120426760Y-95664955D01*
X120270001Y-95644318D01*
X120269999Y-95644318D01*
X120113239Y-95664955D01*
X120113237Y-95664956D01*
X119967160Y-95725463D01*
X119841718Y-95821718D01*
X119745463Y-95947160D01*
X119684956Y-96093237D01*
X119684955Y-96093239D01*
X119664318Y-96249998D01*
X119664318Y-96250001D01*
X119684955Y-96406760D01*
X119684956Y-96406762D01*
X119718626Y-96488048D01*
X119726095Y-96557516D01*
X119694820Y-96619996D01*
X119634731Y-96655648D01*
X119604065Y-96659500D01*
X118958783Y-96659500D01*
X118951844Y-96659110D01*
X118937426Y-96657486D01*
X118912964Y-96654729D01*
X118862543Y-96664270D01*
X118854520Y-96665788D01*
X118841832Y-96667700D01*
X118795716Y-96674651D01*
X118787532Y-96677175D01*
X118779528Y-96679976D01*
X118726936Y-96707773D01*
X118673357Y-96733574D01*
X118666338Y-96738359D01*
X118659461Y-96743435D01*
X118617413Y-96785483D01*
X118573803Y-96825947D01*
X118568013Y-96833208D01*
X118567362Y-96832689D01*
X118557967Y-96844928D01*
X118428989Y-96973906D01*
X118367668Y-97007391D01*
X118297976Y-97002407D01*
X118242042Y-96960536D01*
X118217625Y-96895072D01*
X118218370Y-96870039D01*
X118219266Y-96863238D01*
X118225682Y-96814500D01*
X118221802Y-96785031D01*
X118205276Y-96659500D01*
X118205044Y-96657738D01*
X118144536Y-96511659D01*
X118048282Y-96386218D01*
X117922841Y-96289964D01*
X117899925Y-96280472D01*
X117776762Y-96229456D01*
X117776760Y-96229455D01*
X117620001Y-96208818D01*
X117619999Y-96208818D01*
X117463239Y-96229455D01*
X117463237Y-96229456D01*
X117317160Y-96289963D01*
X117191718Y-96386218D01*
X117095463Y-96511660D01*
X117034956Y-96657737D01*
X117034955Y-96657739D01*
X117014318Y-96814498D01*
X117014318Y-96814501D01*
X117034955Y-96971260D01*
X117034956Y-96971262D01*
X117070971Y-97058211D01*
X117095464Y-97117341D01*
X117174249Y-97220016D01*
X117199442Y-97285182D01*
X117185404Y-97353627D01*
X117136590Y-97403617D01*
X117075872Y-97419500D01*
X115410078Y-97419500D01*
X115343039Y-97399815D01*
X115297284Y-97347011D01*
X115287340Y-97277853D01*
X115295517Y-97248048D01*
X115316075Y-97198414D01*
X115325044Y-97176762D01*
X115345682Y-97020000D01*
X115337853Y-96960536D01*
X115325044Y-96863239D01*
X115325044Y-96863238D01*
X115264536Y-96717159D01*
X115168282Y-96591718D01*
X115042841Y-96495464D01*
X115030833Y-96490490D01*
X114896761Y-96434955D01*
X114817916Y-96424575D01*
X114754019Y-96396308D01*
X114746421Y-96389317D01*
X114336819Y-95979715D01*
X114303334Y-95918392D01*
X114300500Y-95892034D01*
X114300500Y-94509078D01*
X114320185Y-94442039D01*
X114372989Y-94396284D01*
X114442147Y-94386340D01*
X114505703Y-94415365D01*
X114522872Y-94433588D01*
X114529357Y-94442039D01*
X114580797Y-94509078D01*
X114586030Y-94515897D01*
X114711471Y-94612151D01*
X114857550Y-94672659D01*
X114915225Y-94680252D01*
X115014311Y-94693297D01*
X115014312Y-94693297D01*
X115014313Y-94693297D01*
X115066566Y-94686417D01*
X115171074Y-94672659D01*
X115317153Y-94612151D01*
X115442594Y-94515897D01*
X115538848Y-94390456D01*
X115559747Y-94340001D01*
X117324318Y-94340001D01*
X117344955Y-94496760D01*
X117344956Y-94496762D01*
X117405464Y-94642841D01*
X117501718Y-94768282D01*
X117627159Y-94864536D01*
X117773238Y-94925044D01*
X117851618Y-94935363D01*
X117929999Y-94945682D01*
X117930000Y-94945682D01*
X117930001Y-94945682D01*
X117982254Y-94938802D01*
X118086762Y-94925044D01*
X118232841Y-94864536D01*
X118337162Y-94784487D01*
X118402330Y-94759293D01*
X118470775Y-94773331D01*
X118505663Y-94802842D01*
X118505971Y-94802535D01*
X118509655Y-94806219D01*
X118511023Y-94807376D01*
X118511718Y-94808282D01*
X118543373Y-94832572D01*
X118584574Y-94888998D01*
X118588729Y-94958744D01*
X118554517Y-95019665D01*
X118515339Y-95045507D01*
X118467159Y-95065464D01*
X118341718Y-95161718D01*
X118245463Y-95287160D01*
X118184956Y-95433237D01*
X118184955Y-95433239D01*
X118164318Y-95589998D01*
X118164318Y-95590001D01*
X118184955Y-95746760D01*
X118184956Y-95746762D01*
X118237344Y-95873239D01*
X118245464Y-95892841D01*
X118341718Y-96018282D01*
X118467159Y-96114536D01*
X118613238Y-96175044D01*
X118675691Y-96183266D01*
X118769999Y-96195682D01*
X118770000Y-96195682D01*
X118770001Y-96195682D01*
X118837754Y-96186762D01*
X118926762Y-96175044D01*
X119072841Y-96114536D01*
X119198282Y-96018282D01*
X119294536Y-95892841D01*
X119355044Y-95746762D01*
X119375682Y-95590000D01*
X119355044Y-95433238D01*
X119294536Y-95287159D01*
X119198282Y-95161718D01*
X119183178Y-95150128D01*
X119166627Y-95137428D01*
X119125425Y-95081000D01*
X119124162Y-95059807D01*
X121293818Y-95059807D01*
X121314455Y-95216566D01*
X121314456Y-95216568D01*
X121374964Y-95362647D01*
X121471218Y-95488088D01*
X121596659Y-95584342D01*
X121742738Y-95644850D01*
X121821119Y-95655168D01*
X121899499Y-95665488D01*
X121899500Y-95665488D01*
X121899501Y-95665488D01*
X121951754Y-95658608D01*
X122056262Y-95644850D01*
X122202341Y-95584342D01*
X122327782Y-95488088D01*
X122424036Y-95362647D01*
X122484544Y-95216568D01*
X122505182Y-95059806D01*
X122499897Y-95019665D01*
X122487440Y-94925043D01*
X122484544Y-94903044D01*
X122452680Y-94826119D01*
X122445212Y-94756652D01*
X122476487Y-94694172D01*
X122536576Y-94658520D01*
X122551056Y-94655729D01*
X122556262Y-94655044D01*
X122702341Y-94594536D01*
X122773413Y-94540001D01*
X125069318Y-94540001D01*
X125089955Y-94696760D01*
X125089956Y-94696762D01*
X125146209Y-94832570D01*
X125150464Y-94842841D01*
X125246718Y-94968282D01*
X125372159Y-95064536D01*
X125518238Y-95125044D01*
X125596618Y-95135363D01*
X125674999Y-95145682D01*
X125675000Y-95145682D01*
X125675001Y-95145682D01*
X125727253Y-95138802D01*
X125831762Y-95125044D01*
X125977841Y-95064536D01*
X126103282Y-94968282D01*
X126199536Y-94842841D01*
X126260044Y-94696762D01*
X126274697Y-94585463D01*
X126280682Y-94540001D01*
X126280682Y-94539998D01*
X126261978Y-94397929D01*
X126260044Y-94383238D01*
X126199536Y-94237159D01*
X126103282Y-94111718D01*
X125977841Y-94015464D01*
X125884401Y-93976760D01*
X125831762Y-93954956D01*
X125831760Y-93954955D01*
X125675001Y-93934318D01*
X125674999Y-93934318D01*
X125518239Y-93954955D01*
X125518237Y-93954956D01*
X125372160Y-94015463D01*
X125246718Y-94111718D01*
X125150463Y-94237160D01*
X125089956Y-94383237D01*
X125089955Y-94383239D01*
X125069318Y-94539998D01*
X125069318Y-94540001D01*
X122773413Y-94540001D01*
X122827782Y-94498282D01*
X122924036Y-94372841D01*
X122984544Y-94226762D01*
X123005182Y-94070000D01*
X123000858Y-94037159D01*
X122984544Y-93913239D01*
X122984543Y-93913237D01*
X122979381Y-93900773D01*
X122971912Y-93831304D01*
X123003187Y-93768825D01*
X123049839Y-93740776D01*
X123048753Y-93738154D01*
X123056260Y-93735044D01*
X123056262Y-93735044D01*
X123202341Y-93674536D01*
X123327782Y-93578282D01*
X123424036Y-93452841D01*
X123484544Y-93306762D01*
X123502410Y-93171058D01*
X123505182Y-93150001D01*
X123505182Y-93149998D01*
X123484544Y-92993239D01*
X123484544Y-92993238D01*
X123424036Y-92847159D01*
X123327782Y-92721718D01*
X123202341Y-92625464D01*
X123174377Y-92613881D01*
X123056262Y-92564956D01*
X123056260Y-92564955D01*
X122899501Y-92544318D01*
X122899499Y-92544318D01*
X122742739Y-92564955D01*
X122742737Y-92564956D01*
X122596660Y-92625463D01*
X122471218Y-92721718D01*
X122374963Y-92847160D01*
X122314456Y-92993237D01*
X122314455Y-92993239D01*
X122293818Y-93149998D01*
X122293818Y-93150001D01*
X122314455Y-93306760D01*
X122314458Y-93306768D01*
X122319619Y-93319229D01*
X122327086Y-93388698D01*
X122295809Y-93451176D01*
X122249165Y-93479235D01*
X122250247Y-93481846D01*
X122242739Y-93484955D01*
X122242738Y-93484956D01*
X122200214Y-93502570D01*
X122096660Y-93545463D01*
X121971218Y-93641718D01*
X121874963Y-93767160D01*
X121814456Y-93913237D01*
X121814455Y-93913239D01*
X121793818Y-94069998D01*
X121793818Y-94070001D01*
X121814455Y-94226760D01*
X121814457Y-94226765D01*
X121846318Y-94303685D01*
X121853787Y-94373154D01*
X121822512Y-94435633D01*
X121762422Y-94471285D01*
X121747952Y-94474075D01*
X121742741Y-94474761D01*
X121742737Y-94474762D01*
X121596660Y-94535269D01*
X121471218Y-94631524D01*
X121374963Y-94756966D01*
X121314456Y-94903043D01*
X121314455Y-94903045D01*
X121293818Y-95059804D01*
X121293818Y-95059807D01*
X119124162Y-95059807D01*
X119121270Y-95011254D01*
X119155483Y-94950334D01*
X119194658Y-94924493D01*
X119242841Y-94904536D01*
X119368282Y-94808282D01*
X119464536Y-94682841D01*
X119525044Y-94536762D01*
X119532195Y-94482438D01*
X119560461Y-94418543D01*
X119618785Y-94380071D01*
X119688649Y-94379239D01*
X119702577Y-94384059D01*
X119753238Y-94405044D01*
X119831619Y-94415363D01*
X119909999Y-94425682D01*
X119910000Y-94425682D01*
X119910001Y-94425682D01*
X119964226Y-94418543D01*
X120066762Y-94405044D01*
X120212841Y-94344536D01*
X120338282Y-94248282D01*
X120434536Y-94122841D01*
X120495044Y-93976762D01*
X120515682Y-93820000D01*
X120511044Y-93784774D01*
X120496531Y-93674536D01*
X120495044Y-93663238D01*
X120434536Y-93517159D01*
X120338282Y-93391718D01*
X120212841Y-93295464D01*
X120066762Y-93234956D01*
X120066760Y-93234955D01*
X119910001Y-93214318D01*
X119909999Y-93214318D01*
X119753239Y-93234955D01*
X119753237Y-93234956D01*
X119607160Y-93295463D01*
X119481718Y-93391718D01*
X119385463Y-93517160D01*
X119324956Y-93663237D01*
X119324956Y-93663238D01*
X119323469Y-93674536D01*
X119317804Y-93717561D01*
X119289537Y-93781458D01*
X119231212Y-93819928D01*
X119161347Y-93820759D01*
X119147413Y-93815936D01*
X119096765Y-93794957D01*
X119096760Y-93794955D01*
X118940001Y-93774318D01*
X118939999Y-93774318D01*
X118783239Y-93794955D01*
X118783237Y-93794956D01*
X118637157Y-93855464D01*
X118532837Y-93935512D01*
X118467668Y-93960706D01*
X118399223Y-93946667D01*
X118364337Y-93917156D01*
X118364029Y-93917465D01*
X118360335Y-93913771D01*
X118358973Y-93912619D01*
X118358283Y-93911719D01*
X118253484Y-93831304D01*
X118232841Y-93815464D01*
X118183330Y-93794956D01*
X118086762Y-93754956D01*
X118086760Y-93754955D01*
X117930001Y-93734318D01*
X117929999Y-93734318D01*
X117773239Y-93754955D01*
X117773237Y-93754956D01*
X117627160Y-93815463D01*
X117501718Y-93911718D01*
X117405463Y-94037160D01*
X117344956Y-94183237D01*
X117344955Y-94183239D01*
X117324318Y-94339998D01*
X117324318Y-94340001D01*
X115559747Y-94340001D01*
X115599356Y-94244377D01*
X115616975Y-94110544D01*
X115619994Y-94087616D01*
X115619994Y-94087613D01*
X115599356Y-93930854D01*
X115599356Y-93930853D01*
X115538848Y-93784774D01*
X115442594Y-93659333D01*
X115317153Y-93563079D01*
X115289406Y-93551586D01*
X115171074Y-93502571D01*
X115171072Y-93502570D01*
X115014313Y-93481933D01*
X115014311Y-93481933D01*
X114857551Y-93502570D01*
X114857549Y-93502571D01*
X114711472Y-93563078D01*
X114711470Y-93563079D01*
X114711471Y-93563079D01*
X114586030Y-93659333D01*
X114522874Y-93741639D01*
X114466448Y-93782840D01*
X114396702Y-93786995D01*
X114335781Y-93752783D01*
X114303029Y-93691065D01*
X114300500Y-93666151D01*
X114300500Y-90610001D01*
X114743818Y-90610001D01*
X114764455Y-90766760D01*
X114764456Y-90766762D01*
X114818261Y-90896660D01*
X114824964Y-90912841D01*
X114921218Y-91038282D01*
X114960202Y-91068195D01*
X115001404Y-91124621D01*
X115005559Y-91194367D01*
X114983092Y-91242055D01*
X114925464Y-91317158D01*
X114864956Y-91463237D01*
X114864955Y-91463239D01*
X114844318Y-91619998D01*
X114844318Y-91620001D01*
X114864955Y-91776760D01*
X114864956Y-91776762D01*
X114909073Y-91883271D01*
X114925464Y-91922841D01*
X115021718Y-92048282D01*
X115049995Y-92069980D01*
X115056085Y-92075320D01*
X115312835Y-92332070D01*
X115560269Y-92579504D01*
X115565620Y-92585605D01*
X115587318Y-92613882D01*
X115712759Y-92710136D01*
X115858838Y-92770644D01*
X115937219Y-92780963D01*
X116015599Y-92791282D01*
X116015600Y-92791282D01*
X116015601Y-92791282D01*
X116067854Y-92784402D01*
X116172362Y-92770644D01*
X116318441Y-92710136D01*
X116443882Y-92613882D01*
X116540136Y-92488441D01*
X116600644Y-92342362D01*
X116616817Y-92219518D01*
X116621282Y-92185601D01*
X116621282Y-92185598D01*
X116600644Y-92028839D01*
X116600644Y-92028838D01*
X116582610Y-91985300D01*
X128951820Y-91985300D01*
X128972457Y-92142059D01*
X128972458Y-92142061D01*
X129032966Y-92288140D01*
X129129220Y-92413581D01*
X129254661Y-92509835D01*
X129400740Y-92570343D01*
X129470325Y-92579504D01*
X129557501Y-92590981D01*
X129557502Y-92590981D01*
X129557503Y-92590981D01*
X129609756Y-92584101D01*
X129714264Y-92570343D01*
X129860343Y-92509835D01*
X129985784Y-92413581D01*
X130082038Y-92288140D01*
X130142546Y-92142061D01*
X130163184Y-91985299D01*
X130161266Y-91970734D01*
X130146416Y-91857930D01*
X130142546Y-91828537D01*
X130082038Y-91682458D01*
X129985784Y-91557017D01*
X129860343Y-91460763D01*
X129714264Y-91400255D01*
X129714262Y-91400254D01*
X129557503Y-91379617D01*
X129557501Y-91379617D01*
X129400741Y-91400254D01*
X129400739Y-91400255D01*
X129254662Y-91460762D01*
X129129220Y-91557017D01*
X129032965Y-91682459D01*
X128972458Y-91828536D01*
X128972457Y-91828538D01*
X128951820Y-91985297D01*
X128951820Y-91985300D01*
X116582610Y-91985300D01*
X116540136Y-91882759D01*
X116443882Y-91757318D01*
X116415605Y-91735620D01*
X116409504Y-91730269D01*
X116185146Y-91505911D01*
X115905320Y-91226085D01*
X115899980Y-91219995D01*
X115878282Y-91191718D01*
X115839297Y-91161804D01*
X115798095Y-91105377D01*
X115793940Y-91035631D01*
X115816406Y-90987945D01*
X115874036Y-90912841D01*
X115934544Y-90766762D01*
X115952410Y-90631058D01*
X115955182Y-90610001D01*
X115955182Y-90610000D01*
X115951367Y-90581024D01*
X115943861Y-90524009D01*
X115954626Y-90454975D01*
X116001006Y-90402719D01*
X116045265Y-90385710D01*
X116209492Y-90356753D01*
X116365219Y-90289579D01*
X116501258Y-90188302D01*
X116610273Y-90058383D01*
X116686388Y-89906825D01*
X116725500Y-89741799D01*
X116725500Y-89699256D01*
X122474500Y-89699256D01*
X122489250Y-89825451D01*
X122547256Y-89984820D01*
X122640451Y-90126517D01*
X122698961Y-90181718D01*
X122763810Y-90242901D01*
X122763812Y-90242902D01*
X122910688Y-90327701D01*
X123073161Y-90376342D01*
X123186034Y-90382915D01*
X123242469Y-90386203D01*
X123242469Y-90386202D01*
X123242471Y-90386203D01*
X123409492Y-90356753D01*
X123565219Y-90289579D01*
X123701258Y-90188302D01*
X123810273Y-90058383D01*
X123886388Y-89906825D01*
X123925500Y-89741799D01*
X123925500Y-89064744D01*
X123910750Y-88938549D01*
X123882161Y-88860001D01*
X125724318Y-88860001D01*
X125744955Y-89016760D01*
X125744956Y-89016762D01*
X125783165Y-89109008D01*
X125805464Y-89162841D01*
X125901718Y-89288282D01*
X126027159Y-89384536D01*
X126173238Y-89445044D01*
X126251618Y-89455363D01*
X126329999Y-89465682D01*
X126330000Y-89465682D01*
X126330001Y-89465682D01*
X126403846Y-89455960D01*
X126486762Y-89445044D01*
X126632841Y-89384536D01*
X126758282Y-89288282D01*
X126854536Y-89162841D01*
X126915044Y-89016762D01*
X126935682Y-88860000D01*
X126932526Y-88836030D01*
X126915044Y-88703239D01*
X126915044Y-88703238D01*
X126854536Y-88557159D01*
X126758282Y-88431718D01*
X126632841Y-88335464D01*
X126599073Y-88321477D01*
X126486762Y-88274956D01*
X126486760Y-88274955D01*
X126330001Y-88254318D01*
X126329999Y-88254318D01*
X126173239Y-88274955D01*
X126173237Y-88274956D01*
X126027160Y-88335463D01*
X125901718Y-88431718D01*
X125805463Y-88557160D01*
X125744956Y-88703237D01*
X125744955Y-88703239D01*
X125724318Y-88859998D01*
X125724318Y-88860001D01*
X123882161Y-88860001D01*
X123852744Y-88779180D01*
X123759549Y-88637483D01*
X123694061Y-88575698D01*
X123636189Y-88521098D01*
X123489314Y-88436300D01*
X123489313Y-88436299D01*
X123489312Y-88436299D01*
X123392264Y-88407245D01*
X123326840Y-88387658D01*
X123326834Y-88387657D01*
X123157530Y-88377796D01*
X123157528Y-88377797D01*
X122990514Y-88407245D01*
X122990509Y-88407246D01*
X122990508Y-88407247D01*
X122933778Y-88431718D01*
X122834780Y-88474421D01*
X122698745Y-88575695D01*
X122698741Y-88575698D01*
X122589727Y-88705616D01*
X122589726Y-88705618D01*
X122513613Y-88857171D01*
X122513612Y-88857174D01*
X122513612Y-88857175D01*
X122474500Y-89022201D01*
X122474500Y-89699256D01*
X116725500Y-89699256D01*
X116725500Y-89080001D01*
X121009818Y-89080001D01*
X121030455Y-89236760D01*
X121030456Y-89236762D01*
X121087890Y-89375421D01*
X121090964Y-89382841D01*
X121187218Y-89508282D01*
X121312659Y-89604536D01*
X121458738Y-89665044D01*
X121537118Y-89675362D01*
X121615499Y-89685682D01*
X121615500Y-89685682D01*
X121615501Y-89685682D01*
X121670061Y-89678499D01*
X121772262Y-89665044D01*
X121918341Y-89604536D01*
X122043782Y-89508282D01*
X122140036Y-89382841D01*
X122200544Y-89236762D01*
X122221182Y-89080000D01*
X122219174Y-89064750D01*
X122205543Y-88961210D01*
X122200544Y-88923238D01*
X122140036Y-88777159D01*
X122043782Y-88651718D01*
X121918341Y-88555464D01*
X121772262Y-88494956D01*
X121772260Y-88494955D01*
X121615501Y-88474318D01*
X121615499Y-88474318D01*
X121458739Y-88494955D01*
X121458737Y-88494956D01*
X121312660Y-88555463D01*
X121187218Y-88651718D01*
X121090963Y-88777160D01*
X121030456Y-88923237D01*
X121030455Y-88923239D01*
X121009818Y-89079998D01*
X121009818Y-89080001D01*
X116725500Y-89080001D01*
X116725500Y-89064744D01*
X116710750Y-88938549D01*
X116652744Y-88779180D01*
X116559549Y-88637483D01*
X116494061Y-88575698D01*
X116436189Y-88521098D01*
X116289314Y-88436300D01*
X116289313Y-88436299D01*
X116289312Y-88436299D01*
X116192264Y-88407245D01*
X116126840Y-88387658D01*
X116126834Y-88387657D01*
X115957530Y-88377796D01*
X115957528Y-88377797D01*
X115790514Y-88407245D01*
X115790509Y-88407246D01*
X115790508Y-88407247D01*
X115733778Y-88431718D01*
X115634780Y-88474421D01*
X115498745Y-88575695D01*
X115498741Y-88575698D01*
X115389727Y-88705616D01*
X115389726Y-88705618D01*
X115313613Y-88857171D01*
X115313612Y-88857174D01*
X115313612Y-88857175D01*
X115274500Y-89022201D01*
X115274500Y-89699256D01*
X115289250Y-89825451D01*
X115294865Y-89840879D01*
X115301288Y-89858524D01*
X115305719Y-89928253D01*
X115271749Y-89989309D01*
X115210162Y-90022306D01*
X115200958Y-90023873D01*
X115192743Y-90024954D01*
X115192737Y-90024956D01*
X115046660Y-90085463D01*
X114921218Y-90181718D01*
X114824963Y-90307160D01*
X114764456Y-90453237D01*
X114764455Y-90453239D01*
X114743818Y-90609998D01*
X114743818Y-90610001D01*
X114300500Y-90610001D01*
X114300500Y-89755278D01*
X114300889Y-89748341D01*
X114305270Y-89709462D01*
X114294210Y-89651008D01*
X114285348Y-89592210D01*
X114285347Y-89592208D01*
X114285347Y-89592206D01*
X114282831Y-89584049D01*
X114280025Y-89576028D01*
X114260595Y-89539266D01*
X114252222Y-89523423D01*
X114226425Y-89469855D01*
X114226422Y-89469852D01*
X114226422Y-89469851D01*
X114221642Y-89462839D01*
X114216567Y-89455962D01*
X114216566Y-89455960D01*
X114174516Y-89413910D01*
X114134055Y-89370303D01*
X114126792Y-89364511D01*
X114127312Y-89363858D01*
X114115067Y-89354461D01*
X113632411Y-88871805D01*
X113627774Y-88866617D01*
X113620244Y-88857175D01*
X113603382Y-88836030D01*
X113600227Y-88833879D01*
X113554231Y-88802519D01*
X113518969Y-88776494D01*
X113476718Y-88720847D01*
X113471259Y-88651191D01*
X113504326Y-88589641D01*
X113504722Y-88589242D01*
X114664551Y-87429413D01*
X114725872Y-87395930D01*
X114768416Y-87394157D01*
X114779999Y-87395682D01*
X114780000Y-87395682D01*
X114780001Y-87395682D01*
X114852213Y-87386175D01*
X114936762Y-87375044D01*
X115082841Y-87314536D01*
X115208282Y-87218282D01*
X115304536Y-87092841D01*
X115336091Y-87016658D01*
X115379930Y-86962258D01*
X115446224Y-86940192D01*
X115513923Y-86957471D01*
X115535743Y-86973917D01*
X115549567Y-86986959D01*
X115551788Y-86989054D01*
X115551789Y-86989055D01*
X115551791Y-86989056D01*
X115599606Y-87016662D01*
X115702712Y-87076190D01*
X115869664Y-87126172D01*
X115985649Y-87132927D01*
X116043640Y-87136305D01*
X116043640Y-87136304D01*
X116043642Y-87136305D01*
X116215267Y-87106043D01*
X116375287Y-87037017D01*
X116375294Y-87037011D01*
X116375297Y-87037010D01*
X116515067Y-86932955D01*
X116515069Y-86932953D01*
X116515076Y-86932948D01*
X116627096Y-86799448D01*
X116705310Y-86643712D01*
X116745500Y-86474136D01*
X116745500Y-86430419D01*
X122454500Y-86430419D01*
X122469657Y-86560095D01*
X122529262Y-86723857D01*
X122625026Y-86869460D01*
X122751788Y-86989054D01*
X122751789Y-86989055D01*
X122751791Y-86989056D01*
X122799606Y-87016662D01*
X122902712Y-87076190D01*
X123069664Y-87126172D01*
X123185649Y-87132927D01*
X123243640Y-87136305D01*
X123243640Y-87136304D01*
X123243642Y-87136305D01*
X123415267Y-87106043D01*
X123575287Y-87037017D01*
X123575294Y-87037011D01*
X123575297Y-87037010D01*
X123715067Y-86932955D01*
X123715069Y-86932953D01*
X123715076Y-86932948D01*
X123827096Y-86799448D01*
X123905310Y-86643712D01*
X123945500Y-86474136D01*
X123945500Y-85433581D01*
X123930343Y-85303905D01*
X123870738Y-85140143D01*
X123774974Y-84994540D01*
X123648212Y-84874946D01*
X123648211Y-84874945D01*
X123648208Y-84874943D01*
X123497290Y-84787811D01*
X123497289Y-84787810D01*
X123497288Y-84787810D01*
X123397565Y-84757955D01*
X123330337Y-84737828D01*
X123330331Y-84737827D01*
X123156359Y-84727694D01*
X123156357Y-84727695D01*
X122984739Y-84757955D01*
X122984734Y-84757956D01*
X122984733Y-84757957D01*
X122824712Y-84826982D01*
X122824713Y-84826983D01*
X122824702Y-84826989D01*
X122684932Y-84931044D01*
X122684923Y-84931052D01*
X122572904Y-85064550D01*
X122494690Y-85220286D01*
X122474669Y-85304762D01*
X122454500Y-85389864D01*
X122454500Y-86430419D01*
X116745500Y-86430419D01*
X116745500Y-86169664D01*
X116765185Y-86102625D01*
X116817989Y-86056870D01*
X116887147Y-86046926D01*
X116950703Y-86075951D01*
X116967871Y-86094172D01*
X117001718Y-86138282D01*
X117127159Y-86234536D01*
X117273238Y-86295044D01*
X117351619Y-86305363D01*
X117429999Y-86315682D01*
X117430000Y-86315682D01*
X117430001Y-86315682D01*
X117482254Y-86308802D01*
X117586762Y-86295044D01*
X117732841Y-86234536D01*
X117858282Y-86138282D01*
X117954536Y-86012841D01*
X118015044Y-85866762D01*
X118035682Y-85710000D01*
X118025082Y-85629488D01*
X118020576Y-85595260D01*
X118015044Y-85553238D01*
X117954536Y-85407159D01*
X117858282Y-85281718D01*
X117732841Y-85185464D01*
X117586762Y-85124956D01*
X117586760Y-85124955D01*
X117430001Y-85104318D01*
X117429999Y-85104318D01*
X117273239Y-85124955D01*
X117273237Y-85124956D01*
X117127160Y-85185463D01*
X117127158Y-85185464D01*
X117127159Y-85185464D01*
X117001718Y-85281718D01*
X117001717Y-85281719D01*
X117001716Y-85281720D01*
X116949219Y-85350135D01*
X116892791Y-85391337D01*
X116823045Y-85395492D01*
X116762125Y-85361279D01*
X116734039Y-85310245D01*
X116732813Y-85310692D01*
X116730343Y-85303905D01*
X116670738Y-85140143D01*
X116574974Y-84994540D01*
X116448212Y-84874946D01*
X116448211Y-84874945D01*
X116448208Y-84874943D01*
X116297290Y-84787811D01*
X116297289Y-84787810D01*
X116297288Y-84787810D01*
X116197565Y-84757955D01*
X116130337Y-84737828D01*
X116130331Y-84737827D01*
X115956359Y-84727694D01*
X115956357Y-84727695D01*
X115784739Y-84757955D01*
X115784734Y-84757956D01*
X115784733Y-84757957D01*
X115624712Y-84826982D01*
X115624713Y-84826983D01*
X115624702Y-84826989D01*
X115484932Y-84931044D01*
X115484923Y-84931052D01*
X115372904Y-85064550D01*
X115294690Y-85220286D01*
X115254499Y-85389865D01*
X115254499Y-86150988D01*
X115234814Y-86218028D01*
X115182010Y-86263782D01*
X115112852Y-86273726D01*
X115083046Y-86265549D01*
X115076182Y-86262706D01*
X114936762Y-86204956D01*
X114936760Y-86204955D01*
X114780001Y-86184318D01*
X114779999Y-86184318D01*
X114623239Y-86204955D01*
X114623234Y-86204957D01*
X114483814Y-86262706D01*
X114414345Y-86270175D01*
X114351866Y-86238899D01*
X114316214Y-86178810D01*
X114312607Y-86140359D01*
X114312904Y-86135649D01*
X114330246Y-85860000D01*
X114317391Y-85655682D01*
X114311281Y-85558553D01*
X114311280Y-85558546D01*
X114311280Y-85558543D01*
X114254681Y-85261840D01*
X114161341Y-84974570D01*
X114032733Y-84701264D01*
X113984781Y-84625704D01*
X113870888Y-84446236D01*
X113870885Y-84446232D01*
X113678349Y-84213496D01*
X113644190Y-84181418D01*
X113636707Y-84174391D01*
X113601313Y-84114150D01*
X113604107Y-84044336D01*
X113644201Y-83987115D01*
X113708866Y-83960655D01*
X113721592Y-83960000D01*
X125369362Y-83960000D01*
X125436401Y-83979685D01*
G37*
G04 #@! TD.AperFunction*
G04 #@! TA.AperFunction,Conductor*
G36*
X107147539Y-83979685D02*
G01*
X107193294Y-84032489D01*
X107204500Y-84084000D01*
X107204500Y-85604748D01*
X107207617Y-85620420D01*
X107209999Y-85644608D01*
X107209999Y-87164501D01*
X107209700Y-87170581D01*
X107199417Y-87274998D01*
X107199417Y-87274999D01*
X107219699Y-87480932D01*
X107219700Y-87480934D01*
X107279768Y-87678954D01*
X107377315Y-87861450D01*
X107377317Y-87861452D01*
X107508589Y-88021410D01*
X107605209Y-88100702D01*
X107668550Y-88152685D01*
X107851046Y-88250232D01*
X108049066Y-88310300D01*
X108049065Y-88310300D01*
X108067529Y-88312118D01*
X108255000Y-88330583D01*
X108328901Y-88323304D01*
X108359418Y-88320299D01*
X108365499Y-88320000D01*
X109694672Y-88320000D01*
X109761711Y-88339685D01*
X109782353Y-88356319D01*
X110201749Y-88775715D01*
X110217875Y-88795571D01*
X110223645Y-88804403D01*
X110251248Y-88825887D01*
X110257010Y-88830976D01*
X110259726Y-88833692D01*
X110278470Y-88847075D01*
X110321223Y-88880351D01*
X110321227Y-88880352D01*
X110328063Y-88884051D01*
X110335023Y-88887453D01*
X110335028Y-88887457D01*
X110386939Y-88902911D01*
X110412556Y-88911705D01*
X110438173Y-88920500D01*
X110445803Y-88921773D01*
X110453535Y-88922737D01*
X110453538Y-88922738D01*
X110453540Y-88922737D01*
X110453541Y-88922738D01*
X110494119Y-88921059D01*
X110507647Y-88920500D01*
X110821000Y-88920500D01*
X110888039Y-88940185D01*
X110933794Y-88992989D01*
X110945000Y-89044500D01*
X110945000Y-89946218D01*
X110944548Y-89953697D01*
X110924355Y-90120000D01*
X110944548Y-90286308D01*
X110945000Y-90293776D01*
X110945000Y-91216218D01*
X110944548Y-91223697D01*
X110924355Y-91390000D01*
X110944548Y-91556308D01*
X110945000Y-91563776D01*
X110945000Y-92486218D01*
X110944548Y-92493697D01*
X110924355Y-92660000D01*
X110944548Y-92826308D01*
X110945000Y-92833776D01*
X110945000Y-93756218D01*
X110944548Y-93763697D01*
X110924355Y-93930000D01*
X110944548Y-94096308D01*
X110945000Y-94103776D01*
X110945000Y-94884375D01*
X109309537Y-94884375D01*
X109290300Y-94689066D01*
X109230232Y-94491046D01*
X109132685Y-94308550D01*
X109080702Y-94245209D01*
X109001410Y-94148589D01*
X108841452Y-94017317D01*
X108841453Y-94017317D01*
X108841450Y-94017315D01*
X108658954Y-93919768D01*
X108460934Y-93859700D01*
X108460932Y-93859699D01*
X108460934Y-93859699D01*
X108273463Y-93841235D01*
X108255000Y-93839417D01*
X108254999Y-93839417D01*
X108049067Y-93859699D01*
X107851043Y-93919769D01*
X107831903Y-93930000D01*
X107668550Y-94017315D01*
X107668548Y-94017316D01*
X107668547Y-94017317D01*
X107508589Y-94148589D01*
X107377317Y-94308547D01*
X107279769Y-94491043D01*
X107219699Y-94689067D01*
X107199417Y-94895000D01*
X107219699Y-95100932D01*
X107219700Y-95100934D01*
X107279768Y-95298954D01*
X107377315Y-95481450D01*
X107377317Y-95481452D01*
X107508589Y-95641410D01*
X107605209Y-95720702D01*
X107668550Y-95772685D01*
X107851046Y-95870232D01*
X108049066Y-95930300D01*
X108049065Y-95930300D01*
X108069348Y-95932297D01*
X108255000Y-95950583D01*
X108460934Y-95930300D01*
X108658954Y-95870232D01*
X108790000Y-95800185D01*
X108790000Y-96529814D01*
X108658954Y-96459768D01*
X108460934Y-96399700D01*
X108460932Y-96399699D01*
X108460934Y-96399699D01*
X108255000Y-96379417D01*
X108049067Y-96399699D01*
X107851043Y-96459769D01*
X107740898Y-96518643D01*
X107668550Y-96557315D01*
X107668548Y-96557316D01*
X107668547Y-96557317D01*
X107508589Y-96688589D01*
X107377317Y-96848547D01*
X107279769Y-97031043D01*
X107219699Y-97229067D01*
X107199417Y-97434999D01*
X107219699Y-97640932D01*
X107219700Y-97640934D01*
X107279768Y-97838954D01*
X107377315Y-98021450D01*
X107377317Y-98021452D01*
X107508589Y-98181410D01*
X107605209Y-98260702D01*
X107668550Y-98312685D01*
X107851046Y-98410232D01*
X108049066Y-98470300D01*
X108049065Y-98470300D01*
X108069348Y-98472297D01*
X108255000Y-98490583D01*
X108460934Y-98470300D01*
X108658954Y-98410232D01*
X108790000Y-98340185D01*
X108790000Y-99069814D01*
X108658954Y-98999768D01*
X108460934Y-98939700D01*
X108460932Y-98939699D01*
X108460934Y-98939699D01*
X108273463Y-98921235D01*
X108255000Y-98919417D01*
X108254999Y-98919417D01*
X108049067Y-98939699D01*
X107851043Y-98999769D01*
X107740898Y-99058643D01*
X107668550Y-99097315D01*
X107668548Y-99097316D01*
X107668547Y-99097317D01*
X107508589Y-99228589D01*
X107377317Y-99388547D01*
X107279769Y-99571043D01*
X107219699Y-99769067D01*
X107199417Y-99974999D01*
X107219699Y-100180932D01*
X107219700Y-100180934D01*
X107279768Y-100378954D01*
X107377315Y-100561450D01*
X107377317Y-100561452D01*
X107508589Y-100721410D01*
X107605209Y-100800702D01*
X107668550Y-100852685D01*
X107851046Y-100950232D01*
X108049066Y-101010300D01*
X108049065Y-101010300D01*
X108067529Y-101012118D01*
X108255000Y-101030583D01*
X108460934Y-101010300D01*
X108658954Y-100950232D01*
X108790000Y-100880185D01*
X108790000Y-101609814D01*
X108658954Y-101539768D01*
X108460934Y-101479700D01*
X108460932Y-101479699D01*
X108460934Y-101479699D01*
X108273463Y-101461235D01*
X108255000Y-101459417D01*
X108254999Y-101459417D01*
X108049067Y-101479699D01*
X107851043Y-101539769D01*
X107740898Y-101598643D01*
X107668550Y-101637315D01*
X107668548Y-101637316D01*
X107668547Y-101637317D01*
X107508589Y-101768589D01*
X107377317Y-101928547D01*
X107279769Y-102111043D01*
X107219699Y-102309067D01*
X107199417Y-102515000D01*
X107219699Y-102720932D01*
X107219700Y-102720934D01*
X107279768Y-102918954D01*
X107377315Y-103101450D01*
X107377317Y-103101452D01*
X107508589Y-103261410D01*
X107605209Y-103340702D01*
X107668550Y-103392685D01*
X107851046Y-103490232D01*
X108049066Y-103550300D01*
X108049065Y-103550300D01*
X108069348Y-103552297D01*
X108255000Y-103570583D01*
X108460934Y-103550300D01*
X108658954Y-103490232D01*
X108790000Y-103420185D01*
X108790000Y-104149814D01*
X108658954Y-104079768D01*
X108460934Y-104019700D01*
X108460932Y-104019699D01*
X108460934Y-104019699D01*
X108255000Y-103999417D01*
X108049067Y-104019699D01*
X107851043Y-104079769D01*
X107740898Y-104138643D01*
X107668550Y-104177315D01*
X107668548Y-104177316D01*
X107668547Y-104177317D01*
X107508589Y-104308589D01*
X107377317Y-104468547D01*
X107279769Y-104651043D01*
X107219699Y-104849067D01*
X107199417Y-105055000D01*
X107219699Y-105260932D01*
X107219700Y-105260934D01*
X107279768Y-105458954D01*
X107377315Y-105641450D01*
X107377317Y-105641452D01*
X107508589Y-105801410D01*
X107605209Y-105880702D01*
X107668550Y-105932685D01*
X107851046Y-106030232D01*
X108049066Y-106090300D01*
X108049065Y-106090300D01*
X108069348Y-106092297D01*
X108255000Y-106110583D01*
X108460934Y-106090300D01*
X108658954Y-106030232D01*
X108790000Y-105960185D01*
X108790000Y-106689814D01*
X108658954Y-106619768D01*
X108460934Y-106559700D01*
X108460932Y-106559699D01*
X108460934Y-106559699D01*
X108273463Y-106541235D01*
X108255000Y-106539417D01*
X108254999Y-106539417D01*
X108049067Y-106559699D01*
X107851043Y-106619769D01*
X107740898Y-106678643D01*
X107668550Y-106717315D01*
X107668548Y-106717316D01*
X107668547Y-106717317D01*
X107508589Y-106848589D01*
X107377317Y-107008547D01*
X107279769Y-107191043D01*
X107219699Y-107389067D01*
X107199417Y-107595000D01*
X107219699Y-107800932D01*
X107219700Y-107800934D01*
X107279768Y-107998954D01*
X107358156Y-108145607D01*
X107375228Y-108177545D01*
X107389470Y-108245948D01*
X107364470Y-108311192D01*
X107308166Y-108352563D01*
X107265870Y-108359999D01*
X104394000Y-108359999D01*
X104326961Y-108340314D01*
X104281206Y-108287510D01*
X104270000Y-108235999D01*
X104270000Y-92355000D01*
X107199417Y-92355000D01*
X107219699Y-92560932D01*
X107219700Y-92560934D01*
X107279768Y-92758954D01*
X107377315Y-92941450D01*
X107377317Y-92941452D01*
X107508589Y-93101410D01*
X107605209Y-93180702D01*
X107668550Y-93232685D01*
X107851046Y-93330232D01*
X108049066Y-93390300D01*
X108049065Y-93390300D01*
X108069348Y-93392297D01*
X108255000Y-93410583D01*
X108460934Y-93390300D01*
X108658954Y-93330232D01*
X108841450Y-93232685D01*
X109001410Y-93101410D01*
X109132685Y-92941450D01*
X109230232Y-92758954D01*
X109290300Y-92560934D01*
X109310583Y-92355000D01*
X109290300Y-92149066D01*
X109230232Y-91951046D01*
X109132685Y-91768550D01*
X109080702Y-91705209D01*
X109001410Y-91608589D01*
X108841452Y-91477317D01*
X108841453Y-91477317D01*
X108841450Y-91477315D01*
X108658954Y-91379768D01*
X108460934Y-91319700D01*
X108460932Y-91319699D01*
X108460934Y-91319699D01*
X108273463Y-91301235D01*
X108255000Y-91299417D01*
X108254999Y-91299417D01*
X108049067Y-91319699D01*
X107851043Y-91379769D01*
X107831903Y-91390000D01*
X107668550Y-91477315D01*
X107668548Y-91477316D01*
X107668547Y-91477317D01*
X107508589Y-91608589D01*
X107377317Y-91768547D01*
X107279769Y-91951043D01*
X107219699Y-92149067D01*
X107199417Y-92355000D01*
X104270000Y-92355000D01*
X104270000Y-89814999D01*
X107199417Y-89814999D01*
X107219699Y-90020932D01*
X107219700Y-90020934D01*
X107279768Y-90218954D01*
X107377315Y-90401450D01*
X107377317Y-90401452D01*
X107508589Y-90561410D01*
X107605209Y-90640702D01*
X107668550Y-90692685D01*
X107851046Y-90790232D01*
X108049066Y-90850300D01*
X108049065Y-90850300D01*
X108067529Y-90852118D01*
X108255000Y-90870583D01*
X108460934Y-90850300D01*
X108658954Y-90790232D01*
X108841450Y-90692685D01*
X109001410Y-90561410D01*
X109132685Y-90401450D01*
X109230232Y-90218954D01*
X109290300Y-90020934D01*
X109310583Y-89815000D01*
X109290300Y-89609066D01*
X109230232Y-89411046D01*
X109132685Y-89228550D01*
X109080702Y-89165209D01*
X109001410Y-89068589D01*
X108841452Y-88937317D01*
X108841453Y-88937317D01*
X108841450Y-88937315D01*
X108658954Y-88839768D01*
X108460934Y-88779700D01*
X108460932Y-88779699D01*
X108460934Y-88779699D01*
X108273463Y-88761235D01*
X108255000Y-88759417D01*
X108254999Y-88759417D01*
X108049067Y-88779699D01*
X107851043Y-88839769D01*
X107775125Y-88880349D01*
X107668550Y-88937315D01*
X107668548Y-88937316D01*
X107668547Y-88937317D01*
X107508589Y-89068589D01*
X107377317Y-89228547D01*
X107279769Y-89411043D01*
X107219699Y-89609067D01*
X107199417Y-89814999D01*
X104270000Y-89814999D01*
X104270000Y-84084000D01*
X104289685Y-84016961D01*
X104342489Y-83971206D01*
X104394000Y-83960000D01*
X107080500Y-83960000D01*
X107147539Y-83979685D01*
G37*
G04 #@! TD.AperFunction*
G04 #@! TA.AperFunction,Conductor*
G36*
X149071758Y-87965337D02*
G01*
X149200896Y-88036332D01*
X149200901Y-88036334D01*
X149200903Y-88036335D01*
X149200904Y-88036336D01*
X149481734Y-88147524D01*
X149481737Y-88147525D01*
X149538851Y-88162189D01*
X149774302Y-88222642D01*
X149921039Y-88241179D01*
X150073963Y-88260499D01*
X150073969Y-88260499D01*
X150073973Y-88260500D01*
X150073975Y-88260500D01*
X150376025Y-88260500D01*
X150376027Y-88260500D01*
X150376032Y-88260499D01*
X150376036Y-88260499D01*
X150675692Y-88222643D01*
X150675693Y-88222642D01*
X150675698Y-88222642D01*
X150911148Y-88162189D01*
X150980974Y-88164583D01*
X151038423Y-88204349D01*
X151056748Y-88235336D01*
X153610765Y-94477429D01*
X153620000Y-94524386D01*
X153620000Y-95196625D01*
X153600315Y-95263664D01*
X153568637Y-95297123D01*
X150792963Y-97303303D01*
X150727099Y-97326620D01*
X150659792Y-97311025D01*
X150631962Y-97295458D01*
X150590937Y-97272510D01*
X150590936Y-97272509D01*
X150590935Y-97272509D01*
X150523903Y-97252826D01*
X150523899Y-97252825D01*
X150523898Y-97252825D01*
X150466000Y-97244500D01*
X150465996Y-97244500D01*
X148839924Y-97244500D01*
X148772885Y-97224815D01*
X148727130Y-97172011D01*
X148724266Y-97165213D01*
X148706051Y-97118098D01*
X148706051Y-97118097D01*
X148677410Y-97067097D01*
X148677408Y-97067094D01*
X148619903Y-96992152D01*
X148603718Y-96964118D01*
X148576413Y-96898197D01*
X148568035Y-96866930D01*
X148558721Y-96796178D01*
X148558721Y-96763818D01*
X148568034Y-96693068D01*
X148576411Y-96661803D01*
X148603721Y-96595869D01*
X148619899Y-96567850D01*
X148680019Y-96489502D01*
X148688423Y-96477549D01*
X148717490Y-96417252D01*
X148737175Y-96350213D01*
X148745500Y-96292315D01*
X148745500Y-96263403D01*
X148744892Y-96248809D01*
X148731245Y-96183266D01*
X148706051Y-96118097D01*
X148677410Y-96067097D01*
X148677408Y-96067094D01*
X148619903Y-95992152D01*
X148603718Y-95964118D01*
X148576413Y-95898197D01*
X148568035Y-95866930D01*
X148558721Y-95796178D01*
X148558721Y-95763818D01*
X148568034Y-95693068D01*
X148576411Y-95661803D01*
X148603721Y-95595869D01*
X148619899Y-95567850D01*
X148680019Y-95489502D01*
X148688423Y-95477549D01*
X148717490Y-95417252D01*
X148737175Y-95350213D01*
X148745500Y-95292315D01*
X148745500Y-88073999D01*
X148765185Y-88006961D01*
X148817989Y-87961206D01*
X148869500Y-87950000D01*
X149012022Y-87950000D01*
X149071758Y-87965337D01*
G37*
G04 #@! TD.AperFunction*
G04 #@! TA.AperFunction,Conductor*
G36*
X144305426Y-104609685D02*
G01*
X144340276Y-104647503D01*
X144341960Y-104646347D01*
X144345898Y-104652082D01*
X144345900Y-104652085D01*
X144391655Y-104704889D01*
X144409246Y-104722843D01*
X144409247Y-104722844D01*
X144409249Y-104722845D01*
X144485289Y-104765379D01*
X144489063Y-104767490D01*
X144556102Y-104787175D01*
X144614000Y-104795500D01*
X145662972Y-104795500D01*
X145730011Y-104815185D01*
X145775766Y-104867989D01*
X145785911Y-104935685D01*
X145768349Y-105069083D01*
X145768349Y-105069086D01*
X145788986Y-105225845D01*
X145788987Y-105225847D01*
X145820224Y-105301261D01*
X145849495Y-105371926D01*
X145945749Y-105497367D01*
X146071190Y-105593621D01*
X146217269Y-105654129D01*
X146295650Y-105664448D01*
X146374030Y-105674767D01*
X146374031Y-105674767D01*
X146374032Y-105674767D01*
X146426284Y-105667887D01*
X146530793Y-105654129D01*
X146676872Y-105593621D01*
X146802313Y-105497367D01*
X146898567Y-105371926D01*
X146959075Y-105225847D01*
X146979713Y-105069085D01*
X146977859Y-105055000D01*
X146962151Y-104935685D01*
X146972917Y-104866650D01*
X147019297Y-104814394D01*
X147085090Y-104795500D01*
X148223025Y-104795500D01*
X148290064Y-104815185D01*
X148335819Y-104867989D01*
X148345763Y-104937147D01*
X148318568Y-104998541D01*
X148279116Y-105046229D01*
X148279113Y-105046233D01*
X148117268Y-105301261D01*
X148117265Y-105301267D01*
X147988661Y-105574563D01*
X147988659Y-105574568D01*
X147895320Y-105861835D01*
X147838719Y-106158546D01*
X147838718Y-106158553D01*
X147819754Y-106459994D01*
X147819754Y-106460005D01*
X147838718Y-106761446D01*
X147838719Y-106761453D01*
X147859851Y-106872230D01*
X147890466Y-107032722D01*
X147895320Y-107058164D01*
X147988659Y-107345431D01*
X147988661Y-107345436D01*
X148117265Y-107618732D01*
X148117268Y-107618738D01*
X148279111Y-107873763D01*
X148279114Y-107873767D01*
X148279115Y-107873768D01*
X148471651Y-108106504D01*
X148471654Y-108106507D01*
X148471656Y-108106509D01*
X148500883Y-108133955D01*
X148536278Y-108194196D01*
X148540000Y-108224348D01*
X148540000Y-108235998D01*
X148520315Y-108303037D01*
X148467511Y-108348792D01*
X148416000Y-108359998D01*
X145057966Y-108359998D01*
X144990927Y-108340313D01*
X144945172Y-108287509D01*
X144935228Y-108218351D01*
X144959588Y-108160514D01*
X145034536Y-108062841D01*
X145095044Y-107916762D01*
X145110500Y-107799361D01*
X145110500Y-107220639D01*
X145095044Y-107103238D01*
X145034536Y-106957159D01*
X144938282Y-106831718D01*
X144812841Y-106735464D01*
X144792583Y-106727073D01*
X144666762Y-106674956D01*
X144666760Y-106674955D01*
X144510001Y-106654318D01*
X144509999Y-106654318D01*
X144353239Y-106674955D01*
X144353237Y-106674956D01*
X144207160Y-106735463D01*
X144081718Y-106831718D01*
X143983376Y-106959880D01*
X143926947Y-107001082D01*
X143857201Y-107005237D01*
X143796281Y-106971024D01*
X143786624Y-106959880D01*
X143752160Y-106914966D01*
X143688282Y-106831718D01*
X143562841Y-106735464D01*
X143562839Y-106735463D01*
X143487900Y-106704422D01*
X143433496Y-106660580D01*
X143411432Y-106594286D01*
X143412616Y-106572210D01*
X143414125Y-106561717D01*
X143415500Y-106552155D01*
X143415500Y-104714000D01*
X143435185Y-104646961D01*
X143487989Y-104601206D01*
X143539500Y-104590000D01*
X144238387Y-104590000D01*
X144305426Y-104609685D01*
G37*
G04 #@! TD.AperFunction*
G04 #@! TA.AperFunction,Conductor*
G36*
X142211401Y-83979685D02*
G01*
X142257156Y-84032489D01*
X142267100Y-84101647D01*
X142242739Y-84159483D01*
X142187267Y-84231775D01*
X142175463Y-84247160D01*
X142114956Y-84393237D01*
X142114955Y-84393239D01*
X142099501Y-84510629D01*
X142099500Y-84510645D01*
X142099500Y-85089354D01*
X142099501Y-85089370D01*
X142114955Y-85206760D01*
X142114956Y-85206762D01*
X142166714Y-85331718D01*
X142175464Y-85352841D01*
X142271718Y-85478282D01*
X142397159Y-85574536D01*
X142543238Y-85635044D01*
X142614608Y-85644440D01*
X142699999Y-85655682D01*
X142700000Y-85655682D01*
X142700001Y-85655682D01*
X142752253Y-85648802D01*
X142856762Y-85635044D01*
X143002841Y-85574536D01*
X143128282Y-85478282D01*
X143224536Y-85352841D01*
X143224535Y-85352841D01*
X143226624Y-85350120D01*
X143283052Y-85308917D01*
X143352798Y-85304762D01*
X143413718Y-85338974D01*
X143423376Y-85350120D01*
X143502588Y-85453352D01*
X143521718Y-85478282D01*
X143647159Y-85574536D01*
X143793238Y-85635044D01*
X143864608Y-85644440D01*
X143949999Y-85655682D01*
X143950000Y-85655682D01*
X143950001Y-85655682D01*
X144002254Y-85648802D01*
X144106762Y-85635044D01*
X144252841Y-85574536D01*
X144378282Y-85478282D01*
X144474536Y-85352841D01*
X144535044Y-85206762D01*
X144550500Y-85089361D01*
X144550500Y-84510639D01*
X144535044Y-84393238D01*
X144474536Y-84247159D01*
X144407260Y-84159484D01*
X144382068Y-84094318D01*
X144396106Y-84025873D01*
X144444920Y-83975883D01*
X144505638Y-83960000D01*
X148416000Y-83960000D01*
X148483039Y-83979685D01*
X148528794Y-84032489D01*
X148540000Y-84084000D01*
X148540000Y-84095652D01*
X148520315Y-84162691D01*
X148500885Y-84186043D01*
X148471653Y-84213493D01*
X148279111Y-84446236D01*
X148117268Y-84701261D01*
X148117265Y-84701267D01*
X147988661Y-84974563D01*
X147988659Y-84974568D01*
X147895320Y-85261835D01*
X147838719Y-85558546D01*
X147838718Y-85558553D01*
X147819754Y-85859994D01*
X147819754Y-85860005D01*
X147838718Y-86161446D01*
X147838719Y-86161453D01*
X147895320Y-86458164D01*
X147988659Y-86745431D01*
X147988661Y-86745436D01*
X148117265Y-87018732D01*
X148117268Y-87018738D01*
X148279111Y-87273763D01*
X148279114Y-87273767D01*
X148279115Y-87273768D01*
X148471651Y-87506504D01*
X148471654Y-87506507D01*
X148471656Y-87506509D01*
X148500883Y-87533955D01*
X148536278Y-87594196D01*
X148540000Y-87624348D01*
X148540000Y-95292315D01*
X148520315Y-95359354D01*
X148514376Y-95367801D01*
X148430464Y-95477157D01*
X148369956Y-95623237D01*
X148369955Y-95623239D01*
X148349318Y-95779998D01*
X148349318Y-95780001D01*
X148369955Y-95936760D01*
X148369956Y-95936762D01*
X148430464Y-96082842D01*
X148514376Y-96192198D01*
X148539570Y-96257367D01*
X148540000Y-96267684D01*
X148540000Y-96292315D01*
X148520315Y-96359354D01*
X148514376Y-96367801D01*
X148430464Y-96477157D01*
X148369956Y-96623237D01*
X148369955Y-96623239D01*
X148349318Y-96779998D01*
X148349318Y-96780001D01*
X148369955Y-96936760D01*
X148369956Y-96936762D01*
X148430464Y-97082842D01*
X148514376Y-97192198D01*
X148539570Y-97257367D01*
X148540000Y-97267684D01*
X148540000Y-97450000D01*
X150466000Y-97450000D01*
X150533039Y-97469685D01*
X150578794Y-97522489D01*
X150590000Y-97574000D01*
X150590000Y-98304682D01*
X150570315Y-98371721D01*
X150541491Y-98403054D01*
X150536722Y-98406713D01*
X150440463Y-98532160D01*
X150379956Y-98678237D01*
X150379955Y-98678239D01*
X150359318Y-98834998D01*
X150359318Y-98835001D01*
X150379955Y-98991760D01*
X150379956Y-98991762D01*
X150440464Y-99137841D01*
X150536718Y-99263282D01*
X150536721Y-99263284D01*
X150541485Y-99266940D01*
X150582688Y-99323367D01*
X150590000Y-99365317D01*
X150590000Y-103945880D01*
X150570315Y-104012919D01*
X150517511Y-104058674D01*
X150450459Y-104068902D01*
X150376038Y-104059500D01*
X150376027Y-104059500D01*
X150073973Y-104059500D01*
X150073963Y-104059500D01*
X149774304Y-104097357D01*
X149481737Y-104172474D01*
X149481734Y-104172475D01*
X149200904Y-104283663D01*
X149200903Y-104283664D01*
X148936205Y-104429184D01*
X148936193Y-104429191D01*
X148747455Y-104566318D01*
X148681649Y-104589798D01*
X148674570Y-104590000D01*
X146778197Y-104590000D01*
X146711158Y-104570315D01*
X146702712Y-104564377D01*
X146676872Y-104544549D01*
X146676870Y-104544548D01*
X146676868Y-104544547D01*
X146530793Y-104484041D01*
X146530791Y-104484040D01*
X146374032Y-104463403D01*
X146374030Y-104463403D01*
X146217270Y-104484040D01*
X146217268Y-104484041D01*
X146071193Y-104544547D01*
X146071191Y-104544548D01*
X146071189Y-104544549D01*
X146071190Y-104544549D01*
X146047352Y-104562841D01*
X146045350Y-104564377D01*
X145980181Y-104589570D01*
X145969865Y-104590000D01*
X144614000Y-104590000D01*
X144546961Y-104570315D01*
X144501206Y-104517511D01*
X144490000Y-104466000D01*
X144490000Y-103460620D01*
X144498057Y-103416651D01*
X144535140Y-103318872D01*
X144555645Y-103150000D01*
X144535140Y-102981128D01*
X144501895Y-102893469D01*
X144496529Y-102823808D01*
X144529676Y-102762302D01*
X144590815Y-102728480D01*
X144617838Y-102725500D01*
X144782447Y-102725500D01*
X144782452Y-102725500D01*
X144831633Y-102719528D01*
X144889259Y-102705324D01*
X144935583Y-102687755D01*
X144935604Y-102687743D01*
X144935667Y-102687716D01*
X144935868Y-102687646D01*
X144939089Y-102686425D01*
X144939125Y-102686521D01*
X144956911Y-102680382D01*
X145023221Y-102664039D01*
X145045278Y-102658603D01*
X145074951Y-102655000D01*
X145165046Y-102655000D01*
X145194719Y-102658603D01*
X145243435Y-102670609D01*
X145283090Y-102680383D01*
X145300879Y-102686523D01*
X145300916Y-102686427D01*
X145304112Y-102687639D01*
X145304326Y-102687713D01*
X145304411Y-102687751D01*
X145304420Y-102687756D01*
X145350741Y-102705324D01*
X145408367Y-102719528D01*
X145457548Y-102725500D01*
X145457553Y-102725500D01*
X146094138Y-102725500D01*
X146094142Y-102725500D01*
X146105134Y-102724911D01*
X146105142Y-102724910D01*
X146105144Y-102724910D01*
X146105145Y-102724910D01*
X146114637Y-102723889D01*
X146136965Y-102721488D01*
X146213482Y-102697529D01*
X146274805Y-102664044D01*
X146321629Y-102628991D01*
X147562883Y-101387737D01*
X147570235Y-101379554D01*
X147570237Y-101379552D01*
X147570236Y-101379554D01*
X147590325Y-101354623D01*
X147627490Y-101283575D01*
X147647173Y-101216543D01*
X147647173Y-101216542D01*
X147647175Y-101216536D01*
X147655500Y-101158638D01*
X147655500Y-99425858D01*
X147654911Y-99414866D01*
X147651488Y-99383035D01*
X147627529Y-99306518D01*
X147594044Y-99245195D01*
X147558991Y-99198371D01*
X146690621Y-98330001D01*
X148934318Y-98330001D01*
X148954955Y-98486760D01*
X148954956Y-98486762D01*
X149015464Y-98632841D01*
X149111718Y-98758282D01*
X149237159Y-98854536D01*
X149383238Y-98915044D01*
X149461619Y-98925363D01*
X149539999Y-98935682D01*
X149540000Y-98935682D01*
X149540001Y-98935682D01*
X149592254Y-98928802D01*
X149696762Y-98915044D01*
X149842841Y-98854536D01*
X149968282Y-98758282D01*
X150064536Y-98632841D01*
X150125044Y-98486762D01*
X150145682Y-98330000D01*
X150125044Y-98173238D01*
X150064536Y-98027159D01*
X149968282Y-97901718D01*
X149842841Y-97805464D01*
X149696762Y-97744956D01*
X149696760Y-97744955D01*
X149540001Y-97724318D01*
X149539999Y-97724318D01*
X149383239Y-97744955D01*
X149383237Y-97744956D01*
X149237160Y-97805463D01*
X149111718Y-97901718D01*
X149015463Y-98027160D01*
X148954956Y-98173237D01*
X148954955Y-98173239D01*
X148934318Y-98329998D01*
X148934318Y-98330001D01*
X146690621Y-98330001D01*
X146381819Y-98021199D01*
X146348334Y-97959876D01*
X146345500Y-97933518D01*
X146345500Y-92573115D01*
X146345499Y-92573103D01*
X146340960Y-92530156D01*
X146340960Y-92530152D01*
X146330123Y-92479455D01*
X146327862Y-92469982D01*
X146327861Y-92469980D01*
X146327861Y-92469978D01*
X146285437Y-92388964D01*
X146285436Y-92388962D01*
X146240063Y-92335829D01*
X146222600Y-92317747D01*
X146222599Y-92317746D01*
X146202685Y-92306417D01*
X146154148Y-92256157D01*
X146140000Y-92198637D01*
X146140000Y-92137232D01*
X146159685Y-92070193D01*
X146165624Y-92061746D01*
X146239893Y-91964956D01*
X146264536Y-91932841D01*
X146325044Y-91786762D01*
X146345682Y-91630000D01*
X146325044Y-91473238D01*
X146292655Y-91395044D01*
X146275013Y-91352451D01*
X146267544Y-91282982D01*
X146275011Y-91257550D01*
X146325044Y-91136762D01*
X146345682Y-90980000D01*
X146339473Y-90932841D01*
X146325044Y-90823239D01*
X146325044Y-90823238D01*
X146275012Y-90702452D01*
X146267544Y-90632983D01*
X146275013Y-90607547D01*
X146315211Y-90510500D01*
X146325044Y-90486762D01*
X146345682Y-90330000D01*
X146339473Y-90282841D01*
X146325044Y-90173239D01*
X146325042Y-90173234D01*
X146319560Y-90160000D01*
X146277428Y-90058282D01*
X146275013Y-90052451D01*
X146267544Y-89982982D01*
X146275011Y-89957550D01*
X146325044Y-89836762D01*
X146345682Y-89680000D01*
X146345484Y-89678499D01*
X146325044Y-89523239D01*
X146325044Y-89523238D01*
X146275012Y-89402452D01*
X146267544Y-89332983D01*
X146275013Y-89307547D01*
X146325044Y-89186762D01*
X146345682Y-89030000D01*
X146339473Y-88982841D01*
X146325044Y-88873239D01*
X146325044Y-88873238D01*
X146264536Y-88727159D01*
X146264535Y-88727158D01*
X146264535Y-88727157D01*
X146165624Y-88598254D01*
X146140430Y-88533085D01*
X146140000Y-88522768D01*
X146140000Y-87830000D01*
X139496480Y-87830000D01*
X139429441Y-87810315D01*
X139404303Y-87787190D01*
X139404029Y-87787465D01*
X139398286Y-87781722D01*
X139398283Y-87781720D01*
X139398282Y-87781718D01*
X139272841Y-87685464D01*
X139126762Y-87624956D01*
X139126760Y-87624955D01*
X138970001Y-87604318D01*
X138970000Y-87604318D01*
X138934670Y-87608969D01*
X138926572Y-87609500D01*
X138363428Y-87609500D01*
X138355329Y-87608969D01*
X138320000Y-87604318D01*
X138319999Y-87604318D01*
X138163239Y-87624955D01*
X138156087Y-87626872D01*
X138086237Y-87625205D01*
X138028377Y-87586039D01*
X138000876Y-87521809D01*
X138000000Y-87507095D01*
X138000000Y-85291888D01*
X138009439Y-85244435D01*
X138017481Y-85225020D01*
X138025044Y-85206762D01*
X138040500Y-85089361D01*
X138040500Y-84510639D01*
X138025044Y-84393238D01*
X138017482Y-84374982D01*
X138009439Y-84355563D01*
X138000000Y-84308111D01*
X138000000Y-84084000D01*
X138019685Y-84016961D01*
X138072489Y-83971206D01*
X138124000Y-83960000D01*
X142144362Y-83960000D01*
X142211401Y-83979685D01*
G37*
G04 #@! TD.AperFunction*
G04 #@! TA.AperFunction,Conductor*
G36*
X135673039Y-87369685D02*
G01*
X135718794Y-87422489D01*
X135730000Y-87474000D01*
X135730000Y-91955000D01*
X138852542Y-94957965D01*
X138887217Y-95018621D01*
X138883593Y-95088397D01*
X138864964Y-95122825D01*
X138784523Y-95227657D01*
X138724015Y-95373737D01*
X138724014Y-95373739D01*
X138703377Y-95530498D01*
X138703377Y-95530501D01*
X138724014Y-95687260D01*
X138724015Y-95687262D01*
X138784523Y-95833341D01*
X138880777Y-95958782D01*
X139006218Y-96055036D01*
X139152297Y-96115544D01*
X139230677Y-96125862D01*
X139309058Y-96136182D01*
X139309059Y-96136182D01*
X139309060Y-96136182D01*
X139361312Y-96129302D01*
X139465821Y-96115544D01*
X139611900Y-96055036D01*
X139737341Y-95958782D01*
X139737342Y-95958779D01*
X139739447Y-95957165D01*
X139804616Y-95931970D01*
X139873061Y-95946008D01*
X139900887Y-95966164D01*
X140077675Y-96136182D01*
X142629975Y-98590742D01*
X142659893Y-98635960D01*
X143598016Y-101097750D01*
X143603494Y-101167405D01*
X143570444Y-101228964D01*
X143539771Y-101251702D01*
X143449149Y-101299265D01*
X143321816Y-101412072D01*
X143225182Y-101552068D01*
X143164860Y-101711125D01*
X143164859Y-101711130D01*
X143144355Y-101880000D01*
X143164859Y-102048869D01*
X143164860Y-102048874D01*
X143225182Y-102207931D01*
X143326078Y-102354102D01*
X143324284Y-102355339D01*
X143349378Y-102408716D01*
X143340200Y-102477980D01*
X143295032Y-102531287D01*
X143231158Y-102551644D01*
X142997780Y-102559770D01*
X142935839Y-102545641D01*
X142830224Y-102490209D01*
X142830225Y-102490209D01*
X142665056Y-102449500D01*
X142494944Y-102449500D01*
X142329773Y-102490210D01*
X142172507Y-102572751D01*
X142171794Y-102571393D01*
X142113883Y-102590546D01*
X141798687Y-102601521D01*
X141731003Y-102584181D01*
X141712144Y-102570411D01*
X141710852Y-102569266D01*
X141710849Y-102569264D01*
X141710848Y-102569263D01*
X141560226Y-102490210D01*
X141395056Y-102449500D01*
X141224944Y-102449500D01*
X141059773Y-102490210D01*
X140909151Y-102569263D01*
X140909144Y-102569268D01*
X140901220Y-102576288D01*
X140837984Y-102606005D01*
X140768721Y-102596817D01*
X140715897Y-102552358D01*
X140684551Y-102505446D01*
X140635174Y-102472453D01*
X140590370Y-102418841D01*
X140581663Y-102349516D01*
X140602015Y-102298914D01*
X140664818Y-102207930D01*
X140725140Y-102048872D01*
X140745645Y-101880000D01*
X140725140Y-101711128D01*
X140664818Y-101552070D01*
X140568183Y-101412071D01*
X140440852Y-101299266D01*
X140440849Y-101299263D01*
X140290226Y-101220210D01*
X140125056Y-101179500D01*
X139954944Y-101179500D01*
X139789773Y-101220210D01*
X139639150Y-101299263D01*
X139511816Y-101412072D01*
X139415182Y-101552068D01*
X139354860Y-101711125D01*
X139354859Y-101711130D01*
X139350853Y-101744127D01*
X139323231Y-101808304D01*
X139265296Y-101847360D01*
X139195443Y-101848895D01*
X139165222Y-101836255D01*
X135749986Y-99841672D01*
X135715571Y-99811905D01*
X130661650Y-93473922D01*
X130635244Y-93409234D01*
X130634600Y-93396613D01*
X130634600Y-91068303D01*
X130654285Y-91001264D01*
X130707089Y-90955509D01*
X130742415Y-90945364D01*
X130896762Y-90925044D01*
X131042841Y-90864536D01*
X131168282Y-90768282D01*
X131264536Y-90642841D01*
X131325044Y-90496762D01*
X131345682Y-90340000D01*
X131344332Y-90329748D01*
X131325044Y-90183239D01*
X131325044Y-90183238D01*
X131264536Y-90037159D01*
X131168282Y-89911718D01*
X131042841Y-89815464D01*
X130896762Y-89754956D01*
X130875123Y-89752107D01*
X130742414Y-89734635D01*
X130678518Y-89706368D01*
X130640047Y-89648043D01*
X130634600Y-89611696D01*
X130634600Y-89019108D01*
X130654285Y-88952069D01*
X130660224Y-88943622D01*
X130661402Y-88942086D01*
X130714536Y-88872841D01*
X130775044Y-88726762D01*
X130795682Y-88570000D01*
X130775044Y-88413238D01*
X130714536Y-88267159D01*
X130714535Y-88267158D01*
X130714535Y-88267157D01*
X130660224Y-88196377D01*
X130635030Y-88131208D01*
X130634600Y-88120891D01*
X130634600Y-87704500D01*
X130654285Y-87637461D01*
X130707089Y-87591706D01*
X130758600Y-87580500D01*
X132096572Y-87580500D01*
X132104670Y-87581030D01*
X132140000Y-87585682D01*
X132140001Y-87585682D01*
X132192253Y-87578802D01*
X132296762Y-87565044D01*
X132442841Y-87504536D01*
X132442840Y-87504536D01*
X132480362Y-87488994D01*
X132504013Y-87457596D01*
X132568282Y-87408282D01*
X132575776Y-87398514D01*
X132632204Y-87357311D01*
X132674153Y-87350000D01*
X135606000Y-87350000D01*
X135673039Y-87369685D01*
G37*
G04 #@! TD.AperFunction*
G04 #@! TA.AperFunction,Conductor*
G36*
X110953093Y-94901319D02*
G01*
X110964225Y-94970296D01*
X110957145Y-94998732D01*
X110944861Y-95031123D01*
X110944859Y-95031130D01*
X110924355Y-95200000D01*
X110944859Y-95368869D01*
X110944860Y-95368874D01*
X111005182Y-95527931D01*
X111060500Y-95608071D01*
X111101817Y-95667929D01*
X111194971Y-95750456D01*
X111229150Y-95780736D01*
X111379773Y-95859789D01*
X111379775Y-95859790D01*
X111544944Y-95900500D01*
X111715056Y-95900500D01*
X111880225Y-95859790D01*
X111973015Y-95811089D01*
X112041520Y-95797364D01*
X112106574Y-95822856D01*
X112108565Y-95824432D01*
X114089309Y-97424694D01*
X114129086Y-97482136D01*
X114131493Y-97551964D01*
X114099064Y-97608829D01*
X114003577Y-97704316D01*
X113942254Y-97737801D01*
X113932083Y-97739574D01*
X113853238Y-97749955D01*
X113707160Y-97810462D01*
X113581718Y-97906717D01*
X113485463Y-98032159D01*
X113424956Y-98178236D01*
X113424955Y-98178238D01*
X113404318Y-98334997D01*
X113404318Y-98335000D01*
X113424955Y-98491759D01*
X113424956Y-98491761D01*
X113483201Y-98632378D01*
X113485464Y-98637840D01*
X113581718Y-98763281D01*
X113707159Y-98859535D01*
X113853238Y-98920043D01*
X113931618Y-98930361D01*
X114009999Y-98940681D01*
X114010000Y-98940681D01*
X114160331Y-98920889D01*
X114229363Y-98931654D01*
X114281619Y-98978034D01*
X114291006Y-98999600D01*
X114291846Y-98999253D01*
X114294955Y-99006760D01*
X114294956Y-99006762D01*
X114355464Y-99152841D01*
X114451718Y-99278282D01*
X114577159Y-99374536D01*
X114723238Y-99435044D01*
X114801619Y-99445363D01*
X114879999Y-99455682D01*
X114880000Y-99455682D01*
X114880001Y-99455682D01*
X114932254Y-99448802D01*
X115036762Y-99435044D01*
X115182841Y-99374536D01*
X115308282Y-99278282D01*
X115404536Y-99152841D01*
X115465044Y-99006762D01*
X115485682Y-98850000D01*
X115482405Y-98825110D01*
X115493170Y-98756077D01*
X115539549Y-98703821D01*
X115606818Y-98684935D01*
X115673619Y-98705415D01*
X115683271Y-98712472D01*
X118229997Y-100769998D01*
X118229998Y-100769998D01*
X118230000Y-100770000D01*
X118769024Y-100842449D01*
X118832843Y-100870889D01*
X118867066Y-100917891D01*
X118885840Y-100963216D01*
X118976707Y-101081638D01*
X118982096Y-101088660D01*
X119107537Y-101184914D01*
X119253616Y-101245422D01*
X119331997Y-101255740D01*
X119410377Y-101266060D01*
X119410378Y-101266060D01*
X119410379Y-101266060D01*
X119462632Y-101259180D01*
X119567140Y-101245422D01*
X119713219Y-101184914D01*
X119838660Y-101088660D01*
X119866200Y-101052768D01*
X119922624Y-101011567D01*
X119981088Y-101005361D01*
X122825817Y-101387717D01*
X122889634Y-101416156D01*
X122923856Y-101463157D01*
X122936152Y-101492841D01*
X123032406Y-101618282D01*
X123157847Y-101714536D01*
X123303926Y-101775044D01*
X123355517Y-101781836D01*
X123460687Y-101795682D01*
X123460688Y-101795682D01*
X123460689Y-101795682D01*
X123512941Y-101788802D01*
X123617450Y-101775044D01*
X123723292Y-101731202D01*
X123792758Y-101723734D01*
X123855237Y-101755009D01*
X123885302Y-101798309D01*
X123895464Y-101822841D01*
X123991718Y-101948282D01*
X124117159Y-102044536D01*
X124263238Y-102105044D01*
X124308828Y-102111046D01*
X124419999Y-102125682D01*
X124420000Y-102125682D01*
X124420001Y-102125682D01*
X124472254Y-102118802D01*
X124576762Y-102105044D01*
X124722841Y-102044536D01*
X124848282Y-101948282D01*
X124944536Y-101822841D01*
X124967015Y-101768571D01*
X125010854Y-101714170D01*
X125077148Y-101692104D01*
X125098083Y-101693129D01*
X126969627Y-101944681D01*
X127033445Y-101973120D01*
X127071758Y-102031548D01*
X127072880Y-102035475D01*
X127073589Y-102038123D01*
X127134098Y-102184204D01*
X127134099Y-102184206D01*
X127230353Y-102309647D01*
X127355794Y-102405901D01*
X127501873Y-102466409D01*
X127580253Y-102476728D01*
X127658634Y-102487047D01*
X127658634Y-102487046D01*
X127658635Y-102487047D01*
X127713671Y-102479801D01*
X127782704Y-102490566D01*
X127834960Y-102536946D01*
X127852794Y-102586554D01*
X127863354Y-102666760D01*
X127863354Y-102666762D01*
X127912599Y-102785651D01*
X127923862Y-102812841D01*
X128020116Y-102938282D01*
X128145557Y-103034536D01*
X128291636Y-103095044D01*
X128340295Y-103101450D01*
X128448397Y-103115682D01*
X128448398Y-103115682D01*
X128448399Y-103115682D01*
X128500651Y-103108802D01*
X128605160Y-103095044D01*
X128751239Y-103034536D01*
X128876680Y-102938282D01*
X128972934Y-102812841D01*
X129033442Y-102666762D01*
X129054080Y-102510000D01*
X129051521Y-102490566D01*
X129037015Y-102380379D01*
X129047781Y-102311344D01*
X129094160Y-102259088D01*
X129161429Y-102240203D01*
X129176455Y-102241297D01*
X138000755Y-103427359D01*
X138064572Y-103455798D01*
X138071915Y-103462572D01*
X138238399Y-103629056D01*
X138240935Y-103631750D01*
X138282071Y-103678183D01*
X138313431Y-103699829D01*
X138333110Y-103713413D01*
X138336127Y-103715633D01*
X138384938Y-103753874D01*
X138384943Y-103753877D01*
X138394174Y-103758031D01*
X138413727Y-103769059D01*
X138422070Y-103774818D01*
X138474106Y-103794552D01*
X138480057Y-103796809D01*
X138483512Y-103798239D01*
X138509175Y-103809790D01*
X138540063Y-103823692D01*
X138540064Y-103823692D01*
X138540068Y-103823694D01*
X138550030Y-103825519D01*
X138571651Y-103831546D01*
X138581125Y-103835139D01*
X138581128Y-103835140D01*
X138597871Y-103837173D01*
X138642689Y-103842615D01*
X138646386Y-103843177D01*
X138707394Y-103854357D01*
X138707395Y-103854356D01*
X138707396Y-103854357D01*
X138769292Y-103850613D01*
X138773036Y-103850500D01*
X140559750Y-103850500D01*
X140559751Y-103850499D01*
X140574568Y-103847552D01*
X140618229Y-103838868D01*
X140618229Y-103838867D01*
X140618231Y-103838867D01*
X140684552Y-103794552D01*
X140728867Y-103728231D01*
X140728867Y-103728229D01*
X140728868Y-103728229D01*
X140740499Y-103669752D01*
X140740500Y-103669750D01*
X140740500Y-102932202D01*
X140760185Y-102865163D01*
X140812989Y-102819408D01*
X140838055Y-102811055D01*
X140857103Y-102806897D01*
X140925386Y-102791992D01*
X140988622Y-102762275D01*
X141005836Y-102750942D01*
X141011093Y-102747842D01*
X141119850Y-102690761D01*
X141147794Y-102680164D01*
X141209155Y-102665041D01*
X141235278Y-102658603D01*
X141264951Y-102655000D01*
X141355048Y-102655000D01*
X141384722Y-102658603D01*
X141472201Y-102680164D01*
X141500147Y-102690762D01*
X141592838Y-102739409D01*
X141608318Y-102749051D01*
X141609821Y-102750148D01*
X141680003Y-102783252D01*
X141747680Y-102800591D01*
X141747686Y-102800591D01*
X141747687Y-102800592D01*
X141805838Y-102806897D01*
X142121034Y-102795922D01*
X142121040Y-102795921D01*
X142178406Y-102785653D01*
X142178406Y-102785652D01*
X142178411Y-102785652D01*
X142236322Y-102766499D01*
X142236321Y-102766498D01*
X142262639Y-102757795D01*
X142262802Y-102757622D01*
X142268225Y-102754598D01*
X142389854Y-102690760D01*
X142417798Y-102680163D01*
X142479060Y-102665064D01*
X142505278Y-102658603D01*
X142534951Y-102655000D01*
X142625049Y-102655000D01*
X142654722Y-102658603D01*
X142687827Y-102666762D01*
X142742197Y-102680162D01*
X142770144Y-102690760D01*
X142840336Y-102727601D01*
X142890137Y-102745995D01*
X142952078Y-102760124D01*
X143004931Y-102765146D01*
X143063614Y-102763102D01*
X143131296Y-102780441D01*
X143178862Y-102831620D01*
X143191207Y-102900390D01*
X143183872Y-102930996D01*
X143164860Y-102981126D01*
X143164859Y-102981130D01*
X143144355Y-103150000D01*
X143164859Y-103318870D01*
X143164860Y-103318875D01*
X143190132Y-103385511D01*
X143201942Y-103416651D01*
X143210000Y-103460620D01*
X143210000Y-106552155D01*
X143190315Y-106619194D01*
X143137511Y-106664949D01*
X143111011Y-106672560D01*
X143111089Y-106672852D01*
X143103241Y-106674954D01*
X142957160Y-106735463D01*
X142831715Y-106831720D01*
X142777955Y-106901782D01*
X142721527Y-106942985D01*
X142651781Y-106947139D01*
X142590861Y-106912926D01*
X142569098Y-106882593D01*
X142538050Y-106821658D01*
X142538049Y-106821657D01*
X142538045Y-106821652D01*
X142448347Y-106731954D01*
X142448344Y-106731952D01*
X142448342Y-106731950D01*
X142365646Y-106689814D01*
X142335301Y-106674352D01*
X142241524Y-106659500D01*
X141778482Y-106659500D01*
X141697519Y-106672323D01*
X141684696Y-106674354D01*
X141571658Y-106731950D01*
X141571657Y-106731951D01*
X141571652Y-106731954D01*
X141481954Y-106821652D01*
X141481951Y-106821657D01*
X141481950Y-106821658D01*
X141424354Y-106934696D01*
X141424353Y-106934698D01*
X141418691Y-106970444D01*
X141388761Y-107033578D01*
X141329448Y-107070508D01*
X141259586Y-107069510D01*
X141201354Y-107030899D01*
X141181659Y-106998499D01*
X141164535Y-106957159D01*
X141068281Y-106831718D01*
X140942840Y-106735464D01*
X140934366Y-106731954D01*
X140796761Y-106674956D01*
X140796759Y-106674955D01*
X140640000Y-106654318D01*
X140639999Y-106654318D01*
X140604669Y-106658969D01*
X140596571Y-106659500D01*
X139883427Y-106659500D01*
X139875328Y-106658969D01*
X139839999Y-106654318D01*
X139839998Y-106654318D01*
X139683238Y-106674955D01*
X139683236Y-106674956D01*
X139537159Y-106735463D01*
X139411717Y-106831718D01*
X139315462Y-106957160D01*
X139269560Y-107067977D01*
X139225718Y-107122381D01*
X139159424Y-107144445D01*
X139091725Y-107127165D01*
X139044115Y-107076028D01*
X139040438Y-107067977D01*
X138994536Y-106957159D01*
X138898282Y-106831718D01*
X138772841Y-106735464D01*
X138764367Y-106731954D01*
X138626762Y-106674956D01*
X138626760Y-106674955D01*
X138470001Y-106654318D01*
X138469999Y-106654318D01*
X138313239Y-106674955D01*
X138313237Y-106674956D01*
X138167160Y-106735463D01*
X138041718Y-106831718D01*
X137943376Y-106959880D01*
X137886947Y-107001082D01*
X137817201Y-107005237D01*
X137756281Y-106971024D01*
X137746624Y-106959880D01*
X137727301Y-106934698D01*
X137648282Y-106831718D01*
X137522841Y-106735464D01*
X137514367Y-106731954D01*
X137376762Y-106674956D01*
X137376760Y-106674955D01*
X137220001Y-106654318D01*
X137219999Y-106654318D01*
X137063239Y-106674955D01*
X137063237Y-106674956D01*
X136917160Y-106735463D01*
X136791718Y-106831718D01*
X136693376Y-106959880D01*
X136636947Y-107001082D01*
X136567201Y-107005237D01*
X136506281Y-106971024D01*
X136496624Y-106959880D01*
X136477301Y-106934698D01*
X136398282Y-106831718D01*
X136272841Y-106735464D01*
X136264367Y-106731954D01*
X136126762Y-106674956D01*
X136126760Y-106674955D01*
X135970001Y-106654318D01*
X135969999Y-106654318D01*
X135813239Y-106674955D01*
X135813237Y-106674956D01*
X135667160Y-106735463D01*
X135541715Y-106831720D01*
X135487955Y-106901782D01*
X135431527Y-106942985D01*
X135361781Y-106947139D01*
X135300861Y-106912926D01*
X135279098Y-106882593D01*
X135248050Y-106821658D01*
X135248049Y-106821657D01*
X135248045Y-106821652D01*
X135158347Y-106731954D01*
X135158344Y-106731952D01*
X135158342Y-106731950D01*
X135075646Y-106689814D01*
X135045301Y-106674352D01*
X134951524Y-106659500D01*
X134488482Y-106659500D01*
X134407519Y-106672323D01*
X134394696Y-106674354D01*
X134281658Y-106731950D01*
X134281657Y-106731951D01*
X134281652Y-106731954D01*
X134239849Y-106773757D01*
X134178526Y-106807241D01*
X134108834Y-106802256D01*
X134076683Y-106784451D01*
X134012842Y-106735464D01*
X133866762Y-106674956D01*
X133866760Y-106674955D01*
X133710001Y-106654318D01*
X133710000Y-106654318D01*
X133674670Y-106658969D01*
X133666572Y-106659500D01*
X132672928Y-106659500D01*
X132664829Y-106658969D01*
X132629500Y-106654318D01*
X132594170Y-106658969D01*
X132586072Y-106659500D01*
X131223428Y-106659500D01*
X131215329Y-106658969D01*
X131180000Y-106654318D01*
X131140639Y-106659500D01*
X131023239Y-106674955D01*
X131023237Y-106674956D01*
X130877160Y-106735463D01*
X130751718Y-106831718D01*
X130653376Y-106959880D01*
X130596947Y-107001082D01*
X130527201Y-107005237D01*
X130466281Y-106971024D01*
X130456624Y-106959880D01*
X130437301Y-106934698D01*
X130358282Y-106831718D01*
X130232841Y-106735464D01*
X130224367Y-106731954D01*
X130086762Y-106674956D01*
X130086760Y-106674955D01*
X129930001Y-106654318D01*
X129929999Y-106654318D01*
X129773239Y-106674955D01*
X129773237Y-106674956D01*
X129627160Y-106735463D01*
X129501715Y-106831720D01*
X129403374Y-106959880D01*
X129346946Y-107001083D01*
X129277200Y-107005237D01*
X129216280Y-106971024D01*
X129206623Y-106959879D01*
X129108283Y-106831719D01*
X129108282Y-106831718D01*
X128982841Y-106735464D01*
X128974367Y-106731954D01*
X128836762Y-106674956D01*
X128836760Y-106674955D01*
X128680001Y-106654318D01*
X128679999Y-106654318D01*
X128523239Y-106674955D01*
X128523237Y-106674956D01*
X128377160Y-106735463D01*
X128251718Y-106831718D01*
X128153376Y-106959880D01*
X128096947Y-107001082D01*
X128027201Y-107005237D01*
X127966281Y-106971024D01*
X127956624Y-106959880D01*
X127937301Y-106934698D01*
X127858282Y-106831718D01*
X127732841Y-106735464D01*
X127724367Y-106731954D01*
X127586762Y-106674956D01*
X127586760Y-106674955D01*
X127430001Y-106654318D01*
X127429999Y-106654318D01*
X127273239Y-106674955D01*
X127273237Y-106674956D01*
X127127160Y-106735463D01*
X127001718Y-106831718D01*
X126903376Y-106959880D01*
X126846947Y-107001082D01*
X126777201Y-107005237D01*
X126716281Y-106971024D01*
X126706624Y-106959880D01*
X126687301Y-106934698D01*
X126608282Y-106831718D01*
X126482841Y-106735464D01*
X126474367Y-106731954D01*
X126336762Y-106674956D01*
X126336760Y-106674955D01*
X126180001Y-106654318D01*
X126179999Y-106654318D01*
X126023239Y-106674955D01*
X126023237Y-106674956D01*
X125877160Y-106735463D01*
X125751715Y-106831720D01*
X125697955Y-106901782D01*
X125641527Y-106942985D01*
X125571781Y-106947139D01*
X125510861Y-106912926D01*
X125489098Y-106882593D01*
X125458050Y-106821658D01*
X125458049Y-106821657D01*
X125458045Y-106821652D01*
X125368347Y-106731954D01*
X125368344Y-106731952D01*
X125368342Y-106731950D01*
X125285646Y-106689814D01*
X125255301Y-106674352D01*
X125161524Y-106659500D01*
X124698482Y-106659500D01*
X124617519Y-106672323D01*
X124604696Y-106674354D01*
X124491658Y-106731950D01*
X124491657Y-106731951D01*
X124491652Y-106731954D01*
X124449849Y-106773757D01*
X124388526Y-106807241D01*
X124318834Y-106802256D01*
X124286683Y-106784451D01*
X124222842Y-106735464D01*
X124076762Y-106674956D01*
X124076760Y-106674955D01*
X123920001Y-106654318D01*
X123919999Y-106654318D01*
X123763239Y-106674955D01*
X123763237Y-106674956D01*
X123617160Y-106735463D01*
X123491718Y-106831718D01*
X123395463Y-106957160D01*
X123334956Y-107103237D01*
X123334955Y-107103239D01*
X123314318Y-107259998D01*
X123314318Y-107260001D01*
X123334955Y-107416760D01*
X123334956Y-107416762D01*
X123382986Y-107532718D01*
X123395464Y-107562841D01*
X123491718Y-107688282D01*
X123617159Y-107784536D01*
X123763238Y-107845044D01*
X123841619Y-107855362D01*
X123919999Y-107865682D01*
X123920000Y-107865682D01*
X123920001Y-107865682D01*
X123973315Y-107858663D01*
X124076762Y-107845044D01*
X124158048Y-107811373D01*
X124227516Y-107803905D01*
X124289996Y-107835180D01*
X124325648Y-107895269D01*
X124329500Y-107925933D01*
X124329500Y-107991516D01*
X124338832Y-108050438D01*
X124344354Y-108085304D01*
X124392454Y-108179705D01*
X124405350Y-108248373D01*
X124379074Y-108313114D01*
X124321967Y-108353371D01*
X124281969Y-108359999D01*
X121678421Y-108359999D01*
X121611382Y-108340314D01*
X121565627Y-108287510D01*
X121555683Y-108218352D01*
X121563860Y-108188546D01*
X121593180Y-108117762D01*
X121613818Y-107961000D01*
X121609201Y-107925933D01*
X121593180Y-107804239D01*
X121593180Y-107804238D01*
X121532672Y-107658159D01*
X121436418Y-107532718D01*
X121310977Y-107436464D01*
X121263412Y-107416762D01*
X121164898Y-107375956D01*
X121164896Y-107375955D01*
X121008137Y-107355318D01*
X121008135Y-107355318D01*
X120851375Y-107375955D01*
X120851373Y-107375956D01*
X120705296Y-107436463D01*
X120579854Y-107532718D01*
X120483599Y-107658160D01*
X120423092Y-107804237D01*
X120423091Y-107804239D01*
X120402454Y-107960998D01*
X120402454Y-107961001D01*
X120423091Y-108117760D01*
X120423092Y-108117762D01*
X120452302Y-108188282D01*
X120452412Y-108188546D01*
X120459881Y-108258016D01*
X120428606Y-108320495D01*
X120368517Y-108356147D01*
X120337851Y-108359999D01*
X113721593Y-108359999D01*
X113654554Y-108340314D01*
X113608799Y-108287510D01*
X113598855Y-108218352D01*
X113627880Y-108154796D01*
X113636709Y-108145607D01*
X113643401Y-108139322D01*
X113678349Y-108106504D01*
X113870885Y-107873768D01*
X114032733Y-107618736D01*
X114161341Y-107345430D01*
X114254681Y-107058160D01*
X114311280Y-106761457D01*
X114311281Y-106761446D01*
X114321438Y-106600001D01*
X116461818Y-106600001D01*
X116482455Y-106756760D01*
X116482456Y-106756762D01*
X116527307Y-106865043D01*
X116542964Y-106902841D01*
X116639218Y-107028282D01*
X116764659Y-107124536D01*
X116910738Y-107185044D01*
X116956328Y-107191046D01*
X117067499Y-107205682D01*
X117067500Y-107205682D01*
X117067501Y-107205682D01*
X117119753Y-107198802D01*
X117224262Y-107185044D01*
X117370341Y-107124536D01*
X117495782Y-107028282D01*
X117592036Y-106902841D01*
X117652544Y-106756762D01*
X117673182Y-106600000D01*
X117667876Y-106559700D01*
X117652544Y-106443239D01*
X117652544Y-106443238D01*
X117592036Y-106297159D01*
X117578870Y-106280001D01*
X118204318Y-106280001D01*
X118224955Y-106436760D01*
X118224956Y-106436762D01*
X118234581Y-106460000D01*
X118285464Y-106582841D01*
X118381718Y-106708282D01*
X118507159Y-106804536D01*
X118653238Y-106865044D01*
X118688870Y-106869735D01*
X118809999Y-106885682D01*
X118810000Y-106885682D01*
X118810001Y-106885682D01*
X118862253Y-106878802D01*
X118966762Y-106865044D01*
X119112841Y-106804536D01*
X119238282Y-106708282D01*
X119334536Y-106582841D01*
X119395044Y-106436762D01*
X119415682Y-106280000D01*
X119395044Y-106123238D01*
X119334536Y-105977159D01*
X119238282Y-105851718D01*
X119112841Y-105755464D01*
X119089225Y-105745682D01*
X118966762Y-105694956D01*
X118966760Y-105694955D01*
X118810001Y-105674318D01*
X118809999Y-105674318D01*
X118653239Y-105694955D01*
X118653237Y-105694956D01*
X118507160Y-105755463D01*
X118381718Y-105851718D01*
X118285463Y-105977160D01*
X118224956Y-106123237D01*
X118224955Y-106123239D01*
X118204318Y-106279998D01*
X118204318Y-106280001D01*
X117578870Y-106280001D01*
X117495782Y-106171718D01*
X117370341Y-106075464D01*
X117261141Y-106030232D01*
X117224262Y-106014956D01*
X117224260Y-106014955D01*
X117067501Y-105994318D01*
X117067499Y-105994318D01*
X116910739Y-106014955D01*
X116910737Y-106014956D01*
X116764660Y-106075463D01*
X116639218Y-106171718D01*
X116542963Y-106297160D01*
X116482456Y-106443237D01*
X116482455Y-106443239D01*
X116461818Y-106599998D01*
X116461818Y-106600001D01*
X114321438Y-106600001D01*
X114330246Y-106460005D01*
X114330246Y-106459994D01*
X114311281Y-106158553D01*
X114311280Y-106158546D01*
X114311280Y-106158543D01*
X114254681Y-105861840D01*
X114161341Y-105574570D01*
X114032733Y-105301264D01*
X113930393Y-105140001D01*
X116461818Y-105140001D01*
X116482455Y-105296760D01*
X116482456Y-105296762D01*
X116542964Y-105442841D01*
X116639218Y-105568282D01*
X116764659Y-105664536D01*
X116910738Y-105725044D01*
X116989119Y-105735363D01*
X117067499Y-105745682D01*
X117067500Y-105745682D01*
X117067501Y-105745682D01*
X117119754Y-105738802D01*
X117224262Y-105725044D01*
X117370341Y-105664536D01*
X117495782Y-105568282D01*
X117592036Y-105442841D01*
X117652544Y-105296762D01*
X117673182Y-105140000D01*
X117652544Y-104983238D01*
X117592036Y-104837159D01*
X117495782Y-104711718D01*
X117370341Y-104615464D01*
X117224262Y-104554956D01*
X117224260Y-104554955D01*
X117067501Y-104534318D01*
X117067499Y-104534318D01*
X116910739Y-104554955D01*
X116910737Y-104554956D01*
X116764660Y-104615463D01*
X116639218Y-104711718D01*
X116542963Y-104837160D01*
X116482456Y-104983237D01*
X116482455Y-104983239D01*
X116461818Y-105139998D01*
X116461818Y-105140001D01*
X113930393Y-105140001D01*
X113930391Y-105139998D01*
X113870888Y-105046236D01*
X113870885Y-105046232D01*
X113678349Y-104813496D01*
X113458162Y-104606726D01*
X113458159Y-104606724D01*
X113458153Y-104606719D01*
X113213806Y-104429191D01*
X113213799Y-104429186D01*
X113213795Y-104429184D01*
X112949104Y-104283668D01*
X112949101Y-104283666D01*
X112949096Y-104283664D01*
X112949095Y-104283663D01*
X112668265Y-104172475D01*
X112668262Y-104172474D01*
X112375695Y-104097357D01*
X112076036Y-104059500D01*
X112076027Y-104059500D01*
X111773973Y-104059500D01*
X111773963Y-104059500D01*
X111474304Y-104097357D01*
X111181737Y-104172474D01*
X111181734Y-104172475D01*
X110900904Y-104283663D01*
X110900903Y-104283664D01*
X110636205Y-104429184D01*
X110636193Y-104429191D01*
X110391846Y-104606719D01*
X110391836Y-104606727D01*
X110171652Y-104813494D01*
X109979111Y-105046236D01*
X109817268Y-105301261D01*
X109817265Y-105301267D01*
X109688661Y-105574563D01*
X109688659Y-105574568D01*
X109595320Y-105861835D01*
X109538719Y-106158546D01*
X109538718Y-106158553D01*
X109519754Y-106459994D01*
X109519754Y-106460005D01*
X109538718Y-106761446D01*
X109538719Y-106761453D01*
X109538720Y-106761457D01*
X109589657Y-107028481D01*
X109595320Y-107058164D01*
X109688659Y-107345431D01*
X109688661Y-107345436D01*
X109817265Y-107618732D01*
X109817268Y-107618738D01*
X109979111Y-107873763D01*
X109979114Y-107873767D01*
X109979115Y-107873768D01*
X110171651Y-108106504D01*
X110183640Y-108117762D01*
X110213291Y-108145607D01*
X110248686Y-108205849D01*
X110245892Y-108275663D01*
X110205798Y-108332884D01*
X110141133Y-108359344D01*
X110128407Y-108359999D01*
X109244130Y-108359999D01*
X109177091Y-108340314D01*
X109131336Y-108287510D01*
X109121392Y-108218352D01*
X109134772Y-108177545D01*
X109143876Y-108160513D01*
X109230232Y-107998954D01*
X109290300Y-107800934D01*
X109310583Y-107595000D01*
X109290300Y-107389066D01*
X109230232Y-107191046D01*
X109132685Y-107008550D01*
X109054209Y-106912926D01*
X109001410Y-106848589D01*
X108863565Y-106735464D01*
X108841450Y-106717315D01*
X108790000Y-106689814D01*
X108790000Y-105960185D01*
X108841450Y-105932685D01*
X109001410Y-105801410D01*
X109132685Y-105641450D01*
X109230232Y-105458954D01*
X109290300Y-105260934D01*
X109310583Y-105055000D01*
X109290300Y-104849066D01*
X109230232Y-104651046D01*
X109132685Y-104468550D01*
X109080702Y-104405209D01*
X109001410Y-104308589D01*
X108841452Y-104177317D01*
X108841453Y-104177317D01*
X108841450Y-104177315D01*
X108790000Y-104149814D01*
X108790000Y-103420185D01*
X108841450Y-103392685D01*
X109001410Y-103261410D01*
X109132685Y-103101450D01*
X109230232Y-102918954D01*
X109290300Y-102720934D01*
X109310583Y-102515000D01*
X109290300Y-102309066D01*
X109230232Y-102111046D01*
X109132685Y-101928550D01*
X109057357Y-101836762D01*
X109001410Y-101768589D01*
X108841452Y-101637317D01*
X108841453Y-101637317D01*
X108841450Y-101637315D01*
X108790000Y-101609814D01*
X108790000Y-100880185D01*
X108841450Y-100852685D01*
X109001410Y-100721410D01*
X109132685Y-100561450D01*
X109230232Y-100378954D01*
X109290300Y-100180934D01*
X109310583Y-99975000D01*
X109290300Y-99769066D01*
X109230232Y-99571046D01*
X109132685Y-99388550D01*
X109042191Y-99278282D01*
X109001410Y-99228589D01*
X108841452Y-99097317D01*
X108841453Y-99097317D01*
X108841450Y-99097315D01*
X108790000Y-99069814D01*
X108790000Y-98340185D01*
X108841450Y-98312685D01*
X109001410Y-98181410D01*
X109132685Y-98021450D01*
X109230232Y-97838954D01*
X109290300Y-97640934D01*
X109310583Y-97435000D01*
X109290300Y-97229066D01*
X109230232Y-97031046D01*
X109132685Y-96848550D01*
X109024856Y-96717159D01*
X109001410Y-96688589D01*
X108841452Y-96557317D01*
X108841453Y-96557317D01*
X108841450Y-96557315D01*
X108790000Y-96529814D01*
X108790000Y-95800185D01*
X108841450Y-95772685D01*
X109001410Y-95641410D01*
X109132685Y-95481450D01*
X109230232Y-95298954D01*
X109290300Y-95100934D01*
X109310583Y-94895000D01*
X109309537Y-94884375D01*
X110945000Y-94884375D01*
X110953093Y-94901319D01*
G37*
G04 #@! TD.AperFunction*
M02*
