%TF.GenerationSoftware,KiCad,Pcbnew,7.0.6*%
%TF.CreationDate,2024-02-28T18:56:20+03:00*%
%TF.ProjectId,Penguin Junior,50656e67-7569-46e2-904a-756e696f722e,rev?*%
%TF.SameCoordinates,Original*%
%TF.FileFunction,Drillmap*%
%TF.FilePolarity,Positive*%
%FSLAX45Y45*%
G04 Gerber Fmt 4.5, Leading zero omitted, Abs format (unit mm)*
G04 Created by KiCad (PCBNEW 7.0.6) date 2024-02-28 18:56:20*
%MOMM*%
%LPD*%
G01*
G04 APERTURE LIST*
%ADD10C,0.100000*%
%ADD11C,0.200000*%
G04 APERTURE END LIST*
D10*
X10190510Y-10843500D02*
G75*
G03*
X10233007Y-10886000I42500J0D01*
G01*
X10233007Y-8346000D02*
X15915500Y-8346000D01*
X10190507Y-8388500D02*
X10190507Y-10843500D01*
X15915500Y-10886000D02*
X10233007Y-10886000D01*
X16040500Y-8471000D02*
G75*
G03*
X15915500Y-8346000I-125000J0D01*
G01*
X16040500Y-8471000D02*
X16040500Y-10761000D01*
X10233007Y-8345997D02*
G75*
G03*
X10190507Y-8388500I3J-42503D01*
G01*
X15915500Y-10886000D02*
G75*
G03*
X16040500Y-10761000I0J125000D01*
G01*
D11*
X10446284Y-11202484D02*
X10446284Y-11002484D01*
X10446284Y-11002484D02*
X10493903Y-11002484D01*
X10493903Y-11002484D02*
X10522475Y-11012008D01*
X10522475Y-11012008D02*
X10541522Y-11031055D01*
X10541522Y-11031055D02*
X10551046Y-11050103D01*
X10551046Y-11050103D02*
X10560570Y-11088198D01*
X10560570Y-11088198D02*
X10560570Y-11116770D01*
X10560570Y-11116770D02*
X10551046Y-11154865D01*
X10551046Y-11154865D02*
X10541522Y-11173912D01*
X10541522Y-11173912D02*
X10522475Y-11192960D01*
X10522475Y-11192960D02*
X10493903Y-11202484D01*
X10493903Y-11202484D02*
X10446284Y-11202484D01*
X10646284Y-11202484D02*
X10646284Y-11069150D01*
X10646284Y-11107246D02*
X10655808Y-11088198D01*
X10655808Y-11088198D02*
X10665332Y-11078674D01*
X10665332Y-11078674D02*
X10684379Y-11069150D01*
X10684379Y-11069150D02*
X10703427Y-11069150D01*
X10770094Y-11202484D02*
X10770094Y-11069150D01*
X10770094Y-11002484D02*
X10760570Y-11012008D01*
X10760570Y-11012008D02*
X10770094Y-11021531D01*
X10770094Y-11021531D02*
X10779618Y-11012008D01*
X10779618Y-11012008D02*
X10770094Y-11002484D01*
X10770094Y-11002484D02*
X10770094Y-11021531D01*
X10893903Y-11202484D02*
X10874856Y-11192960D01*
X10874856Y-11192960D02*
X10865332Y-11173912D01*
X10865332Y-11173912D02*
X10865332Y-11002484D01*
X10998665Y-11202484D02*
X10979618Y-11192960D01*
X10979618Y-11192960D02*
X10970094Y-11173912D01*
X10970094Y-11173912D02*
X10970094Y-11002484D01*
X11227237Y-11202484D02*
X11227237Y-11002484D01*
X11227237Y-11002484D02*
X11293903Y-11145341D01*
X11293903Y-11145341D02*
X11360570Y-11002484D01*
X11360570Y-11002484D02*
X11360570Y-11202484D01*
X11541522Y-11202484D02*
X11541522Y-11097722D01*
X11541522Y-11097722D02*
X11531998Y-11078674D01*
X11531998Y-11078674D02*
X11512951Y-11069150D01*
X11512951Y-11069150D02*
X11474856Y-11069150D01*
X11474856Y-11069150D02*
X11455808Y-11078674D01*
X11541522Y-11192960D02*
X11522475Y-11202484D01*
X11522475Y-11202484D02*
X11474856Y-11202484D01*
X11474856Y-11202484D02*
X11455808Y-11192960D01*
X11455808Y-11192960D02*
X11446284Y-11173912D01*
X11446284Y-11173912D02*
X11446284Y-11154865D01*
X11446284Y-11154865D02*
X11455808Y-11135817D01*
X11455808Y-11135817D02*
X11474856Y-11126293D01*
X11474856Y-11126293D02*
X11522475Y-11126293D01*
X11522475Y-11126293D02*
X11541522Y-11116770D01*
X11636760Y-11069150D02*
X11636760Y-11269150D01*
X11636760Y-11078674D02*
X11655808Y-11069150D01*
X11655808Y-11069150D02*
X11693903Y-11069150D01*
X11693903Y-11069150D02*
X11712951Y-11078674D01*
X11712951Y-11078674D02*
X11722475Y-11088198D01*
X11722475Y-11088198D02*
X11731998Y-11107246D01*
X11731998Y-11107246D02*
X11731998Y-11164389D01*
X11731998Y-11164389D02*
X11722475Y-11183436D01*
X11722475Y-11183436D02*
X11712951Y-11192960D01*
X11712951Y-11192960D02*
X11693903Y-11202484D01*
X11693903Y-11202484D02*
X11655808Y-11202484D01*
X11655808Y-11202484D02*
X11636760Y-11192960D01*
X11817713Y-11183436D02*
X11827237Y-11192960D01*
X11827237Y-11192960D02*
X11817713Y-11202484D01*
X11817713Y-11202484D02*
X11808189Y-11192960D01*
X11808189Y-11192960D02*
X11817713Y-11183436D01*
X11817713Y-11183436D02*
X11817713Y-11202484D01*
X11817713Y-11078674D02*
X11827237Y-11088198D01*
X11827237Y-11088198D02*
X11817713Y-11097722D01*
X11817713Y-11097722D02*
X11808189Y-11088198D01*
X11808189Y-11088198D02*
X11817713Y-11078674D01*
X11817713Y-11078674D02*
X11817713Y-11097722D01*
M02*
