M48
; DRILL file {KiCad 8.0.1} date 2024-08-06T04:56:35+0300
; FORMAT={-:-/ absolute / metric / decimal}
; #@! TF.CreationDate,2024-08-06T04:56:35+03:00
; #@! TF.GenerationSoftware,Kicad,Pcbnew,8.0.1
; #@! TF.FileFunction,Plated,1,4,PTH
FMAT,2
METRIC
; #@! TA.AperFunction,Plated,PTH,ViaDrill
T1C0.400
; #@! TA.AperFunction,Plated,PTH,ComponentDrill
T2C0.400
; #@! TA.AperFunction,Plated,PTH,ComponentDrill
T3C0.500
; #@! TA.AperFunction,Plated,PTH,ComponentDrill
T4C0.600
; #@! TA.AperFunction,Plated,PTH,ComponentDrill
T5C0.650
; #@! TA.AperFunction,Plated,PTH,ComponentDrill
T6C0.800
; #@! TA.AperFunction,Plated,PTH,ComponentDrill
T7C1.000
; #@! TA.AperFunction,Plated,PTH,ComponentDrill
T8C2.200
%
G90
G05
T1
X114.01Y-98.335
X114.74Y-97.02
X114.88Y-98.85
X114.893Y-86.424
X115.014Y-94.088
X115.45Y-91.62
X115.476Y-90.613
X116.016Y-92.186
X117.067Y-105.14
X117.067Y-106.6
X117.62Y-96.814
X117.65Y-99.33
X117.959Y-94.348
X118.025Y-88.691
X118.11Y-92.88
X118.963Y-95.397
X119.026Y-94.309
X119.105Y-98.096
X119.11Y-108.03
X119.11Y-106.48
X119.203Y-99.098
X119.41Y-100.66
X119.91Y-93.82
X120.367Y-96.213
X120.369Y-98.041
X120.64Y-99.839
X121.008Y-107.961
X121.899Y-95.01
X122.149Y-87.955
X122.399Y-94.07
X122.41Y-97.6
X122.899Y-93.15
X122.94Y-96.74
X123.461Y-101.19
X123.68Y-97.841
X123.689Y-88.071
X123.88Y-107.26
X124.408Y-97.06
X124.42Y-101.52
X124.53Y-94.92
X124.72Y-98.01
X125.675Y-94.54
X125.93Y-97.352
X126.2Y-100.08
X126.264Y-98.789
X126.514Y-85.543
X127.659Y-101.871
X128.448Y-102.51
X129.21Y-100.09
X129.21Y-101.48
X129.437Y-96.675
X129.536Y-92.007
X129.608Y-98.075
X130.188Y-86.98
X130.19Y-88.57
X130.52Y-93.769
X130.75Y-90.34
X130.77Y-94.75
X131.888Y-101.68
X132.14Y-86.98
X132.25Y-95.34
X132.418Y-86.094
X132.756Y-107.26
X133.039Y-86.623
X133.671Y-107.26
X133.87Y-88.21
X133.87Y-88.86
X133.87Y-89.51
X133.87Y-90.16
X133.87Y-90.81
X134.52Y-88.21
X134.52Y-88.86
X134.52Y-89.51
X134.52Y-90.16
X134.52Y-90.81
X134.881Y-100.685
X135.732Y-101.381
X138.11Y-87.22
X138.32Y-88.21
X138.32Y-88.86
X138.32Y-89.51
X138.32Y-90.16
X138.32Y-90.81
X138.97Y-88.21
X138.97Y-88.86
X138.97Y-89.51
X138.97Y-90.16
X138.97Y-90.81
X139.633Y-102.429
X139.84Y-107.26
X139.84Y-108.06
X139.979Y-91.71
X140.439Y-103.079
X140.48Y-87.605
X140.58Y-95.77
X140.587Y-102.058
X140.587Y-104.107
X140.64Y-107.26
X140.64Y-108.06
X140.71Y-92.55
X141.387Y-102.058
X141.387Y-104.107
X141.49Y-84.65
X141.868Y-94.11
X141.868Y-94.76
X142.187Y-102.058
X142.187Y-104.107
X142.517Y-94.11
X142.517Y-94.76
X142.987Y-102.058
X142.987Y-104.107
X143.522Y-103.261
X143.995Y-95.7
X143.995Y-96.45
X143.995Y-97.2
X144.601Y-103.46
X144.829Y-95.7
X144.829Y-96.45
X144.829Y-97.2
X144.904Y-101.651
X145.615Y-103.46
X145.663Y-95.7
X145.663Y-96.45
X145.663Y-97.2
X145.678Y-94.504
X146.374Y-105.069
X147.205Y-90.35
X147.205Y-91.5
X147.205Y-92.65
X147.34Y-107.26
X147.34Y-108.06
X147.705Y-90.925
X147.705Y-92.075
X148.205Y-90.35
X148.205Y-91.5
X148.205Y-92.65
X148.263Y-95.7
X148.263Y-96.45
X148.263Y-97.2
X149.04Y-99.315
X149.113Y-95.7
X149.113Y-96.45
X149.113Y-97.2
X149.963Y-95.7
X149.963Y-96.45
X149.963Y-97.2
X150.22Y-101.737
X151.039Y-99.142
X153.455Y-85.41
X153.455Y-86.41
X153.455Y-87.41
X153.455Y-88.41
X153.455Y-89.41
X153.455Y-104.91
X153.455Y-105.91
X153.455Y-106.91
X153.505Y-96.807
X153.505Y-97.807
X154.455Y-84.41
X154.455Y-85.41
X154.455Y-86.41
X154.455Y-87.41
X154.455Y-88.41
X154.455Y-89.41
X154.455Y-90.41
X154.455Y-95.807
X154.455Y-96.807
X154.455Y-97.807
X154.455Y-98.807
X154.455Y-99.807
X154.455Y-103.91
X154.455Y-104.91
X154.455Y-105.91
X154.455Y-106.91
X154.455Y-107.91
X155.455Y-84.41
X155.455Y-85.41
X155.455Y-86.41
X155.455Y-87.41
X155.455Y-88.41
X155.455Y-89.41
X155.455Y-90.41
X155.455Y-95.807
X155.455Y-96.807
X155.455Y-97.807
X155.455Y-98.807
X155.455Y-99.807
X155.455Y-103.91
X155.455Y-104.91
X155.455Y-105.91
X155.455Y-106.91
X155.455Y-107.91
X155.505Y-91.633
X155.505Y-94.584
X156.455Y-84.41
X156.455Y-85.41
X156.455Y-86.41
X156.455Y-87.41
X156.455Y-88.41
X156.455Y-89.41
X156.455Y-90.41
X156.455Y-91.633
X156.455Y-94.584
X156.455Y-95.807
X156.455Y-96.807
X156.455Y-97.807
X156.455Y-98.807
X156.455Y-99.807
X156.455Y-103.91
X156.455Y-104.91
X156.455Y-105.91
X156.455Y-106.91
X156.455Y-107.91
X157.405Y-91.633
X157.405Y-94.584
X157.455Y-84.41
X157.455Y-85.41
X157.455Y-86.41
X157.455Y-87.41
X157.455Y-88.41
X157.455Y-89.41
X157.455Y-90.41
X157.455Y-95.807
X157.455Y-96.807
X157.455Y-97.807
X157.455Y-98.807
X157.455Y-99.807
X157.455Y-103.91
X157.455Y-104.91
X157.455Y-105.91
X157.455Y-106.91
X157.455Y-107.91
X158.455Y-84.41
X158.455Y-85.41
X158.455Y-86.41
X158.455Y-87.41
X158.455Y-88.41
X158.455Y-89.41
X158.455Y-90.41
X158.455Y-95.807
X158.455Y-96.807
X158.455Y-97.807
X158.455Y-98.807
X158.455Y-99.807
X158.455Y-103.91
X158.455Y-104.91
X158.455Y-105.91
X158.455Y-106.91
X158.455Y-107.91
X159.455Y-85.41
X159.455Y-86.41
X159.455Y-87.41
X159.455Y-88.41
X159.455Y-89.41
X159.455Y-96.807
X159.455Y-97.807
X159.455Y-98.807
X159.455Y-104.91
X159.455Y-105.91
X159.455Y-106.91
T2
X110.275Y-85.86
X110.275Y-106.46
X110.758Y-84.693
X110.758Y-87.027
X110.758Y-105.293
X110.758Y-107.627
X111.925Y-84.21
X111.925Y-87.51
X111.925Y-104.81
X111.925Y-108.11
X113.092Y-84.693
X113.092Y-87.027
X113.092Y-105.293
X113.092Y-107.627
X113.575Y-85.86
X113.575Y-106.46
X148.575Y-85.86
X148.575Y-106.46
X149.058Y-84.693
X149.058Y-87.027
X149.058Y-105.293
X149.058Y-107.627
X150.225Y-84.21
X150.225Y-87.51
X150.225Y-104.81
X150.225Y-108.11
X151.392Y-84.693
X151.392Y-87.027
X151.392Y-105.293
X151.392Y-107.627
X151.875Y-85.86
X151.875Y-106.46
T3
X124.93Y-107.51
X126.18Y-107.51
X127.43Y-84.8
X127.43Y-107.51
X128.68Y-84.8
X128.68Y-107.51
X129.93Y-84.8
X129.93Y-107.51
X131.18Y-84.8
X131.18Y-107.51
X132.43Y-84.8
X133.68Y-84.8
X134.72Y-107.51
X135.97Y-107.51
X137.22Y-84.8
X137.22Y-107.51
X138.47Y-84.8
X138.47Y-107.51
X139.72Y-84.8
X142.01Y-107.51
X143.26Y-84.8
X143.26Y-107.51
X144.51Y-84.8
X144.51Y-107.51
X145.76Y-84.8
X145.76Y-107.51
T5
X111.63Y-90.12
X111.63Y-91.39
X111.63Y-92.66
X111.63Y-93.93
X111.63Y-95.2
X112.9Y-90.12
X112.9Y-91.39
X112.9Y-92.66
X112.9Y-93.93
X112.9Y-95.2
T6
X141.705Y-89.51
X141.705Y-91.51
T7
X103.175Y-84.735
X103.175Y-87.275
X103.175Y-89.815
X103.175Y-92.355
X103.175Y-94.895
X103.175Y-97.435
X103.175Y-99.975
X103.175Y-102.515
X103.175Y-105.055
X103.175Y-107.595
X105.715Y-84.735
X105.715Y-87.275
X105.715Y-89.815
X105.715Y-92.355
X105.715Y-94.895
X105.715Y-97.435
X105.715Y-99.975
X105.715Y-102.515
X105.715Y-105.055
X105.715Y-107.595
X108.255Y-84.735
X108.255Y-87.275
X108.255Y-89.815
X108.255Y-92.355
X108.255Y-94.895
X108.255Y-97.435
X108.255Y-99.975
X108.255Y-102.515
X108.255Y-105.055
X108.255Y-107.595
T8
X111.925Y-85.86
X111.925Y-106.46
X150.225Y-85.86
X150.225Y-106.46
T4
X116.105Y-85.45G85X116.105Y-84.65
G05
X116.105Y-89.25G85X116.105Y-88.85
G05
X124.745Y-85.45G85X124.745Y-84.65
G05
X124.745Y-89.25G85X124.745Y-88.85
G05
M30
