G04 #@! TF.GenerationSoftware,KiCad,Pcbnew,7.0.6*
G04 #@! TF.CreationDate,2024-02-28T18:56:17+03:00*
G04 #@! TF.ProjectId,Penguin Junior,50656e67-7569-46e2-904a-756e696f722e,rev?*
G04 #@! TF.SameCoordinates,Original*
G04 #@! TF.FileFunction,Legend,Top*
G04 #@! TF.FilePolarity,Positive*
%FSLAX46Y46*%
G04 Gerber Fmt 4.6, Leading zero omitted, Abs format (unit mm)*
G04 Created by KiCad (PCBNEW 7.0.6) date 2024-02-28 18:56:17*
%MOMM*%
%LPD*%
G01*
G04 APERTURE LIST*
G04 Aperture macros list*
%AMRoundRect*
0 Rectangle with rounded corners*
0 $1 Rounding radius*
0 $2 $3 $4 $5 $6 $7 $8 $9 X,Y pos of 4 corners*
0 Add a 4 corners polygon primitive as box body*
4,1,4,$2,$3,$4,$5,$6,$7,$8,$9,$2,$3,0*
0 Add four circle primitives for the rounded corners*
1,1,$1+$1,$2,$3*
1,1,$1+$1,$4,$5*
1,1,$1+$1,$6,$7*
1,1,$1+$1,$8,$9*
0 Add four rect primitives between the rounded corners*
20,1,$1+$1,$2,$3,$4,$5,0*
20,1,$1+$1,$4,$5,$6,$7,0*
20,1,$1+$1,$6,$7,$8,$9,0*
20,1,$1+$1,$8,$9,$2,$3,0*%
G04 Aperture macros list end*
%ADD10C,0.120000*%
%ADD11C,0.150000*%
%ADD12C,0.100000*%
%ADD13C,0.350000*%
%ADD14C,0.170000*%
%ADD15C,0.300000*%
%ADD16RoundRect,0.200000X0.200000X0.450000X-0.200000X0.450000X-0.200000X-0.450000X0.200000X-0.450000X0*%
%ADD17O,0.800000X1.300000*%
%ADD18RoundRect,0.140000X-0.170000X0.140000X-0.170000X-0.140000X0.170000X-0.140000X0.170000X0.140000X0*%
%ADD19RoundRect,0.250000X0.425000X-0.450000X0.425000X0.450000X-0.425000X0.450000X-0.425000X-0.450000X0*%
%ADD20RoundRect,0.140000X-0.021213X0.219203X-0.219203X0.021213X0.021213X-0.219203X0.219203X-0.021213X0*%
%ADD21RoundRect,0.218750X-0.218750X-0.256250X0.218750X-0.256250X0.218750X0.256250X-0.218750X0.256250X0*%
%ADD22RoundRect,0.250000X1.000000X0.900000X-1.000000X0.900000X-1.000000X-0.900000X1.000000X-0.900000X0*%
%ADD23RoundRect,1.250000X-2.250000X1.250000X-2.250000X-1.250000X2.250000X-1.250000X2.250000X1.250000X0*%
%ADD24C,0.700000*%
%ADD25C,4.400000*%
%ADD26RoundRect,1.750000X-1.750000X-1.750000X1.750000X-1.750000X1.750000X1.750000X-1.750000X1.750000X0*%
%ADD27RoundRect,0.075000X0.075000X-0.700000X0.075000X0.700000X-0.075000X0.700000X-0.075000X-0.700000X0*%
%ADD28RoundRect,0.075000X0.700000X-0.075000X0.700000X0.075000X-0.700000X0.075000X-0.700000X-0.075000X0*%
%ADD29RoundRect,0.218750X-0.256250X0.218750X-0.256250X-0.218750X0.256250X-0.218750X0.256250X0.218750X0*%
%ADD30R,1.600000X1.600000*%
%ADD31C,1.600000*%
%ADD32RoundRect,0.140000X0.170000X-0.140000X0.170000X0.140000X-0.170000X0.140000X-0.170000X-0.140000X0*%
%ADD33RoundRect,0.200000X-0.200000X-0.450000X0.200000X-0.450000X0.200000X0.450000X-0.200000X0.450000X0*%
%ADD34RoundRect,0.250000X-1.100000X0.325000X-1.100000X-0.325000X1.100000X-0.325000X1.100000X0.325000X0*%
%ADD35R,1.700000X1.700000*%
%ADD36O,1.700000X1.700000*%
%ADD37C,1.000000*%
%ADD38RoundRect,0.135000X0.185000X-0.135000X0.185000X0.135000X-0.185000X0.135000X-0.185000X-0.135000X0*%
%ADD39RoundRect,0.140000X0.140000X0.170000X-0.140000X0.170000X-0.140000X-0.170000X0.140000X-0.170000X0*%
%ADD40RoundRect,0.135000X0.135000X0.185000X-0.135000X0.185000X-0.135000X-0.185000X0.135000X-0.185000X0*%
%ADD41R,1.000000X1.000000*%
%ADD42O,1.000000X1.000000*%
%ADD43R,1.900000X2.500000*%
%ADD44RoundRect,0.140000X0.219203X0.021213X0.021213X0.219203X-0.219203X-0.021213X-0.021213X-0.219203X0*%
%ADD45RoundRect,0.250000X0.750000X0.250000X-0.750000X0.250000X-0.750000X-0.250000X0.750000X-0.250000X0*%
%ADD46R,0.400000X1.800000*%
%ADD47O,1.090000X2.000000*%
%ADD48O,1.050000X1.600000*%
%ADD49RoundRect,0.135000X-0.135000X-0.185000X0.135000X-0.185000X0.135000X0.185000X-0.135000X0.185000X0*%
%ADD50RoundRect,0.140000X-0.140000X-0.170000X0.140000X-0.170000X0.140000X0.170000X-0.140000X0.170000X0*%
%ADD51R,1.400000X1.200000*%
%ADD52RoundRect,0.218750X0.218750X0.256250X-0.218750X0.256250X-0.218750X-0.256250X0.218750X-0.256250X0*%
%ADD53RoundRect,0.062500X-0.325000X-0.062500X0.325000X-0.062500X0.325000X0.062500X-0.325000X0.062500X0*%
%ADD54RoundRect,0.062500X-0.062500X0.325000X-0.062500X-0.325000X0.062500X-0.325000X0.062500X0.325000X0*%
%ADD55R,2.000000X1.500000*%
%ADD56R,2.000000X3.800000*%
%ADD57RoundRect,0.062500X0.525000X0.062500X-0.525000X0.062500X-0.525000X-0.062500X0.525000X-0.062500X0*%
%ADD58RoundRect,0.062500X0.062500X-0.525000X0.062500X0.525000X-0.062500X0.525000X-0.062500X-0.525000X0*%
%ADD59RoundRect,0.135000X-0.185000X0.135000X-0.185000X-0.135000X0.185000X-0.135000X0.185000X0.135000X0*%
%ADD60RoundRect,0.135000X0.035355X-0.226274X0.226274X-0.035355X-0.035355X0.226274X-0.226274X0.035355X0*%
G04 APERTURE END LIST*
D10*
X126380000Y-87340000D02*
X128260000Y-87340000D01*
X128260000Y-89220000D01*
X126380000Y-89220000D01*
X126380000Y-87340000D01*
D11*
G36*
X114740251Y-108008499D02*
G01*
X114751596Y-108011668D01*
X114762610Y-108015189D01*
X114773295Y-108019064D01*
X114783650Y-108023291D01*
X114793674Y-108027872D01*
X114803368Y-108032805D01*
X114812733Y-108038092D01*
X114821767Y-108043731D01*
X114830471Y-108049724D01*
X114838845Y-108056069D01*
X114846888Y-108062768D01*
X114854602Y-108069819D01*
X114861986Y-108077224D01*
X114869039Y-108084982D01*
X114875763Y-108093092D01*
X114882156Y-108101556D01*
X114888189Y-108110260D01*
X114893834Y-108119153D01*
X114899089Y-108128234D01*
X114903954Y-108137505D01*
X114908431Y-108146965D01*
X114912518Y-108156613D01*
X114916216Y-108166451D01*
X114919525Y-108176477D01*
X114922444Y-108186692D01*
X114924975Y-108197097D01*
X114927116Y-108207690D01*
X114928867Y-108218472D01*
X114930230Y-108229443D01*
X114931203Y-108240602D01*
X114931787Y-108251951D01*
X114931981Y-108263489D01*
X114931608Y-108280598D01*
X114930489Y-108297305D01*
X114928624Y-108313609D01*
X114926013Y-108329511D01*
X114922655Y-108345010D01*
X114918552Y-108360106D01*
X114913702Y-108374799D01*
X114908107Y-108389091D01*
X114901765Y-108402979D01*
X114894677Y-108416465D01*
X114886843Y-108429548D01*
X114878263Y-108442229D01*
X114868937Y-108454507D01*
X114858865Y-108466382D01*
X114848047Y-108477855D01*
X114836482Y-108488925D01*
X114824366Y-108499424D01*
X114811890Y-108509247D01*
X114799056Y-108518391D01*
X114785863Y-108526859D01*
X114772311Y-108534649D01*
X114758401Y-108541761D01*
X114744132Y-108548197D01*
X114729504Y-108553954D01*
X114714517Y-108559035D01*
X114699172Y-108563438D01*
X114683468Y-108567164D01*
X114667405Y-108570212D01*
X114650984Y-108572583D01*
X114634204Y-108574276D01*
X114617065Y-108575292D01*
X114599567Y-108575631D01*
X114581975Y-108575330D01*
X114564797Y-108574425D01*
X114548033Y-108572918D01*
X114531683Y-108570807D01*
X114515747Y-108568094D01*
X114500225Y-108564778D01*
X114485117Y-108560858D01*
X114470423Y-108556336D01*
X114456144Y-108551211D01*
X114442278Y-108545482D01*
X114428827Y-108539151D01*
X114415789Y-108532217D01*
X114403166Y-108524680D01*
X114390957Y-108516540D01*
X114379162Y-108507796D01*
X114367780Y-108498450D01*
X114356958Y-108488608D01*
X114346779Y-108478377D01*
X114337243Y-108467756D01*
X114328350Y-108456746D01*
X114320101Y-108445347D01*
X114312494Y-108433558D01*
X114305530Y-108421380D01*
X114299209Y-108408813D01*
X114293532Y-108395857D01*
X114288497Y-108382511D01*
X114284105Y-108368776D01*
X114280357Y-108354652D01*
X114277251Y-108340139D01*
X114274789Y-108325236D01*
X114272969Y-108309944D01*
X114271793Y-108294263D01*
X114405882Y-108294263D01*
X114406322Y-108307281D01*
X114407643Y-108319955D01*
X114409843Y-108332285D01*
X114412923Y-108344272D01*
X114416884Y-108355916D01*
X114421725Y-108367216D01*
X114427446Y-108378172D01*
X114434047Y-108388785D01*
X114441528Y-108399055D01*
X114449889Y-108408981D01*
X114455952Y-108415408D01*
X114465764Y-108424487D01*
X114476331Y-108432673D01*
X114487654Y-108439966D01*
X114499733Y-108446366D01*
X114512567Y-108451872D01*
X114526157Y-108456486D01*
X114535636Y-108459066D01*
X114545452Y-108461249D01*
X114555603Y-108463035D01*
X114566090Y-108464424D01*
X114576913Y-108465416D01*
X114588072Y-108466012D01*
X114599567Y-108466210D01*
X114610750Y-108465992D01*
X114621648Y-108465336D01*
X114632259Y-108464244D01*
X114642584Y-108462715D01*
X114652623Y-108460748D01*
X114662375Y-108458345D01*
X114671842Y-108455505D01*
X114685505Y-108450425D01*
X114698523Y-108444362D01*
X114710898Y-108437316D01*
X114722629Y-108429287D01*
X114733716Y-108420274D01*
X114744159Y-108410279D01*
X114753805Y-108399456D01*
X114762503Y-108388053D01*
X114770251Y-108376072D01*
X114777051Y-108363510D01*
X114782902Y-108350369D01*
X114787805Y-108336648D01*
X114790546Y-108327179D01*
X114792865Y-108317452D01*
X114794763Y-108307468D01*
X114796239Y-108297226D01*
X114797293Y-108286726D01*
X114797925Y-108275969D01*
X114798136Y-108264954D01*
X114797917Y-108253730D01*
X114797259Y-108242835D01*
X114796161Y-108232268D01*
X114794625Y-108222028D01*
X114792650Y-108212118D01*
X114790237Y-108202535D01*
X114785793Y-108188776D01*
X114780362Y-108175756D01*
X114773943Y-108163474D01*
X114766537Y-108151931D01*
X114758144Y-108141126D01*
X114748763Y-108131059D01*
X114741960Y-108124759D01*
X114731025Y-108115942D01*
X114719191Y-108107992D01*
X114706461Y-108100909D01*
X114697476Y-108096669D01*
X114688091Y-108092815D01*
X114678308Y-108089346D01*
X114668126Y-108086262D01*
X114657546Y-108083564D01*
X114646566Y-108081252D01*
X114635188Y-108079324D01*
X114623411Y-108077783D01*
X114611235Y-108076626D01*
X114598660Y-108075855D01*
X114585687Y-108075470D01*
X114579050Y-108075422D01*
X114529469Y-108075422D01*
X114529469Y-107966001D01*
X114559023Y-107966001D01*
X114570593Y-107965841D01*
X114581796Y-107965361D01*
X114592632Y-107964560D01*
X114603101Y-107963440D01*
X114613202Y-107962000D01*
X114622936Y-107960239D01*
X114641302Y-107955758D01*
X114658198Y-107949996D01*
X114673626Y-107942954D01*
X114687584Y-107934632D01*
X114700073Y-107925029D01*
X114711092Y-107914146D01*
X114720643Y-107901983D01*
X114728724Y-107888539D01*
X114735335Y-107873814D01*
X114740478Y-107857810D01*
X114744151Y-107840525D01*
X114746355Y-107821960D01*
X114746906Y-107812197D01*
X114747090Y-107802114D01*
X114746727Y-107788901D01*
X114745638Y-107776280D01*
X114743824Y-107764251D01*
X114741285Y-107752815D01*
X114738020Y-107741972D01*
X114734029Y-107731720D01*
X114729313Y-107722062D01*
X114723871Y-107712996D01*
X114717704Y-107704522D01*
X114710811Y-107696641D01*
X114705812Y-107691716D01*
X114697820Y-107684863D01*
X114689232Y-107678684D01*
X114680046Y-107673180D01*
X114670264Y-107668349D01*
X114659885Y-107664192D01*
X114648909Y-107660710D01*
X114637336Y-107657901D01*
X114625167Y-107655767D01*
X114612400Y-107654306D01*
X114599037Y-107653520D01*
X114589797Y-107653370D01*
X114571094Y-107653981D01*
X114553455Y-107655812D01*
X114536878Y-107658866D01*
X114521363Y-107663140D01*
X114506912Y-107668635D01*
X114493523Y-107675352D01*
X114481198Y-107683290D01*
X114469935Y-107692449D01*
X114459735Y-107702829D01*
X114450598Y-107714431D01*
X114442523Y-107727254D01*
X114435512Y-107741297D01*
X114429563Y-107756563D01*
X114424678Y-107773049D01*
X114420855Y-107790757D01*
X114418094Y-107809685D01*
X114284982Y-107809685D01*
X114287051Y-107793715D01*
X114289657Y-107778228D01*
X114292799Y-107763223D01*
X114296477Y-107748701D01*
X114300691Y-107734662D01*
X114305441Y-107721105D01*
X114310728Y-107708032D01*
X114316550Y-107695441D01*
X114322909Y-107683333D01*
X114329804Y-107671707D01*
X114337236Y-107660565D01*
X114345203Y-107649905D01*
X114353707Y-107639728D01*
X114362747Y-107630033D01*
X114372323Y-107620822D01*
X114382435Y-107612093D01*
X114392995Y-107603841D01*
X114403852Y-107596122D01*
X114415007Y-107588935D01*
X114426460Y-107582280D01*
X114438210Y-107576158D01*
X114450258Y-107570568D01*
X114462604Y-107565510D01*
X114475247Y-107560985D01*
X114488188Y-107556992D01*
X114501427Y-107553532D01*
X114514963Y-107550604D01*
X114528797Y-107548208D01*
X114542929Y-107546345D01*
X114557359Y-107545014D01*
X114572086Y-107544215D01*
X114587110Y-107543949D01*
X114603748Y-107544232D01*
X114619953Y-107545079D01*
X114635728Y-107546491D01*
X114651072Y-107548468D01*
X114665984Y-107551009D01*
X114680465Y-107554116D01*
X114694514Y-107557787D01*
X114708133Y-107562023D01*
X114721320Y-107566824D01*
X114734076Y-107572190D01*
X114746401Y-107578120D01*
X114758294Y-107584616D01*
X114769756Y-107591676D01*
X114780787Y-107599301D01*
X114791387Y-107607491D01*
X114801556Y-107616245D01*
X114811198Y-107625414D01*
X114820217Y-107634907D01*
X114828615Y-107644724D01*
X114836391Y-107654866D01*
X114843544Y-107665332D01*
X114850076Y-107676123D01*
X114855986Y-107687238D01*
X114861273Y-107698677D01*
X114865938Y-107710441D01*
X114869982Y-107722529D01*
X114873403Y-107734941D01*
X114876202Y-107747678D01*
X114878380Y-107760740D01*
X114879935Y-107774125D01*
X114880868Y-107787835D01*
X114881179Y-107801870D01*
X114880874Y-107813760D01*
X114879960Y-107825526D01*
X114878435Y-107837167D01*
X114876302Y-107848684D01*
X114873558Y-107860077D01*
X114870205Y-107871344D01*
X114866242Y-107882488D01*
X114861670Y-107893507D01*
X114856488Y-107904401D01*
X114850696Y-107915171D01*
X114846496Y-107922281D01*
X114839669Y-107932626D01*
X114832194Y-107942503D01*
X114824070Y-107951912D01*
X114815298Y-107960853D01*
X114805878Y-107969326D01*
X114795809Y-107977331D01*
X114785092Y-107984867D01*
X114773727Y-107991936D01*
X114761714Y-107998537D01*
X114749052Y-108004670D01*
X114740251Y-108008499D01*
G37*
G36*
X126731228Y-90274454D02*
G01*
X126750783Y-90275970D01*
X126769696Y-90278496D01*
X126787969Y-90282032D01*
X126805600Y-90286579D01*
X126822590Y-90292136D01*
X126838939Y-90298703D01*
X126854647Y-90306281D01*
X126869714Y-90314869D01*
X126884139Y-90324467D01*
X126897924Y-90335076D01*
X126911067Y-90346695D01*
X126923569Y-90359325D01*
X126935430Y-90372965D01*
X126946650Y-90387615D01*
X126957229Y-90403276D01*
X126967167Y-90419947D01*
X126976463Y-90437628D01*
X126985119Y-90456320D01*
X126993133Y-90476022D01*
X127000506Y-90496735D01*
X127007238Y-90518457D01*
X127013329Y-90541191D01*
X127018778Y-90564934D01*
X127023587Y-90589688D01*
X127027754Y-90615452D01*
X127031280Y-90642227D01*
X127034166Y-90670012D01*
X127036410Y-90698807D01*
X127038012Y-90728613D01*
X127038974Y-90759429D01*
X127039295Y-90791256D01*
X127038974Y-90822902D01*
X127038012Y-90853543D01*
X127036410Y-90883180D01*
X127034166Y-90911812D01*
X127031280Y-90939440D01*
X127027754Y-90966063D01*
X127023587Y-90991681D01*
X127018778Y-91016295D01*
X127013329Y-91039904D01*
X127007238Y-91062508D01*
X127000506Y-91084108D01*
X126993133Y-91104703D01*
X126985119Y-91124294D01*
X126976463Y-91142879D01*
X126967167Y-91160461D01*
X126957229Y-91177037D01*
X126946650Y-91192609D01*
X126935430Y-91207176D01*
X126923569Y-91220739D01*
X126911067Y-91233297D01*
X126897924Y-91244850D01*
X126884139Y-91255399D01*
X126869714Y-91264943D01*
X126854647Y-91273483D01*
X126838939Y-91281017D01*
X126822590Y-91287548D01*
X126805600Y-91293073D01*
X126787969Y-91297594D01*
X126769696Y-91301110D01*
X126750783Y-91303622D01*
X126731228Y-91305129D01*
X126711032Y-91305631D01*
X126690867Y-91305129D01*
X126671341Y-91303622D01*
X126652456Y-91301110D01*
X126634210Y-91297594D01*
X126616605Y-91293073D01*
X126599640Y-91287548D01*
X126583316Y-91281017D01*
X126567631Y-91273483D01*
X126552587Y-91264943D01*
X126538183Y-91255399D01*
X126524419Y-91244850D01*
X126511295Y-91233297D01*
X126498812Y-91220739D01*
X126486968Y-91207176D01*
X126475765Y-91192609D01*
X126465202Y-91177037D01*
X126455279Y-91160461D01*
X126445996Y-91142879D01*
X126437354Y-91124294D01*
X126429352Y-91104703D01*
X126421989Y-91084108D01*
X126415268Y-91062508D01*
X126409186Y-91039904D01*
X126403744Y-91016295D01*
X126398943Y-90991681D01*
X126394782Y-90966063D01*
X126391261Y-90939440D01*
X126388380Y-90911812D01*
X126386139Y-90883180D01*
X126384539Y-90853543D01*
X126383578Y-90822902D01*
X126383258Y-90791256D01*
X126383260Y-90791011D01*
X126517103Y-90791011D01*
X126517152Y-90805043D01*
X126517296Y-90818807D01*
X126517537Y-90832303D01*
X126517874Y-90845531D01*
X126518308Y-90858491D01*
X126518838Y-90871182D01*
X126519464Y-90883606D01*
X126520187Y-90895761D01*
X126521006Y-90907648D01*
X126521922Y-90919267D01*
X126522933Y-90930619D01*
X126524042Y-90941702D01*
X126525246Y-90952516D01*
X126526547Y-90963063D01*
X126527944Y-90973342D01*
X126529438Y-90983353D01*
X126531028Y-90993095D01*
X126534497Y-91011776D01*
X126538351Y-91029384D01*
X126542591Y-91045920D01*
X126547216Y-91061384D01*
X126552227Y-91075775D01*
X126557623Y-91089094D01*
X126563405Y-91101341D01*
X126566441Y-91107062D01*
X126572815Y-91117857D01*
X126579542Y-91127956D01*
X126586622Y-91137358D01*
X126594055Y-91146064D01*
X126601841Y-91154074D01*
X126609981Y-91161387D01*
X126618473Y-91168003D01*
X126627318Y-91173923D01*
X126636516Y-91179147D01*
X126646068Y-91183674D01*
X126655972Y-91187504D01*
X126666229Y-91190638D01*
X126676839Y-91193076D01*
X126687803Y-91194817D01*
X126699119Y-91195862D01*
X126710788Y-91196210D01*
X126722545Y-91195862D01*
X126733942Y-91194817D01*
X126744977Y-91193076D01*
X126755652Y-91190638D01*
X126765967Y-91187504D01*
X126775921Y-91183674D01*
X126785514Y-91179147D01*
X126794747Y-91173923D01*
X126803618Y-91168003D01*
X126812130Y-91161387D01*
X126820280Y-91154074D01*
X126828070Y-91146064D01*
X126835500Y-91137358D01*
X126842569Y-91127956D01*
X126849277Y-91117857D01*
X126855624Y-91107062D01*
X126861628Y-91095351D01*
X126867245Y-91082569D01*
X126872474Y-91068714D01*
X126877316Y-91053786D01*
X126881770Y-91037786D01*
X126885838Y-91020714D01*
X126889518Y-91002570D01*
X126892810Y-90983353D01*
X126894311Y-90973342D01*
X126895715Y-90963063D01*
X126897023Y-90952516D01*
X126898233Y-90941702D01*
X126899347Y-90930619D01*
X126900363Y-90919267D01*
X126901283Y-90907648D01*
X126902107Y-90895761D01*
X126902833Y-90883606D01*
X126903462Y-90871182D01*
X126903995Y-90858491D01*
X126904431Y-90845531D01*
X126904770Y-90832303D01*
X126905012Y-90818807D01*
X126905157Y-90805043D01*
X126905205Y-90791011D01*
X126905157Y-90776949D01*
X126905012Y-90763153D01*
X126904770Y-90749626D01*
X126904431Y-90736366D01*
X126903995Y-90723374D01*
X126903462Y-90710649D01*
X126902833Y-90698192D01*
X126902107Y-90686002D01*
X126901283Y-90674080D01*
X126900363Y-90662426D01*
X126899347Y-90651039D01*
X126898233Y-90639920D01*
X126897023Y-90629069D01*
X126895715Y-90618485D01*
X126894311Y-90608169D01*
X126892810Y-90598121D01*
X126891212Y-90588340D01*
X126887726Y-90569581D01*
X126883852Y-90551892D01*
X126879592Y-90535274D01*
X126874943Y-90519726D01*
X126869908Y-90505249D01*
X126864485Y-90491843D01*
X126858674Y-90479507D01*
X126855624Y-90473740D01*
X126849277Y-90462797D01*
X126842569Y-90452559D01*
X126835500Y-90443028D01*
X126828070Y-90434203D01*
X126820280Y-90426084D01*
X126812130Y-90418671D01*
X126803618Y-90411964D01*
X126794747Y-90405963D01*
X126785514Y-90400667D01*
X126775921Y-90396078D01*
X126765967Y-90392195D01*
X126755652Y-90389018D01*
X126744977Y-90386547D01*
X126733942Y-90384782D01*
X126722545Y-90383723D01*
X126710788Y-90383370D01*
X126699119Y-90383723D01*
X126687803Y-90384782D01*
X126676839Y-90386547D01*
X126666229Y-90389018D01*
X126655972Y-90392195D01*
X126646068Y-90396078D01*
X126636516Y-90400667D01*
X126627318Y-90405963D01*
X126618473Y-90411964D01*
X126609981Y-90418671D01*
X126601841Y-90426084D01*
X126594055Y-90434203D01*
X126586622Y-90443028D01*
X126579542Y-90452559D01*
X126572815Y-90462797D01*
X126566441Y-90473740D01*
X126560466Y-90485541D01*
X126554877Y-90498412D01*
X126549674Y-90512354D01*
X126544856Y-90527366D01*
X126540423Y-90543449D01*
X126536376Y-90560603D01*
X126532714Y-90578826D01*
X126529438Y-90598121D01*
X126527944Y-90608169D01*
X126526547Y-90618485D01*
X126525246Y-90629069D01*
X126524042Y-90639920D01*
X126522933Y-90651039D01*
X126521922Y-90662426D01*
X126521006Y-90674080D01*
X126520187Y-90686002D01*
X126519464Y-90698192D01*
X126518838Y-90710649D01*
X126518308Y-90723374D01*
X126517874Y-90736366D01*
X126517537Y-90749626D01*
X126517296Y-90763153D01*
X126517152Y-90776949D01*
X126517103Y-90791011D01*
X126383260Y-90791011D01*
X126383578Y-90759429D01*
X126384539Y-90728613D01*
X126386139Y-90698807D01*
X126388380Y-90670012D01*
X126391261Y-90642227D01*
X126394782Y-90615452D01*
X126398943Y-90589688D01*
X126403744Y-90564934D01*
X126409186Y-90541191D01*
X126415268Y-90518457D01*
X126421989Y-90496735D01*
X126429352Y-90476022D01*
X126437354Y-90456320D01*
X126445996Y-90437628D01*
X126455279Y-90419947D01*
X126465202Y-90403276D01*
X126475765Y-90387615D01*
X126486968Y-90372965D01*
X126498812Y-90359325D01*
X126511295Y-90346695D01*
X126524419Y-90335076D01*
X126538183Y-90324467D01*
X126552587Y-90314869D01*
X126567631Y-90306281D01*
X126583316Y-90298703D01*
X126599640Y-90292136D01*
X126616605Y-90286579D01*
X126634210Y-90282032D01*
X126652456Y-90278496D01*
X126671341Y-90275970D01*
X126690867Y-90274454D01*
X126711032Y-90273949D01*
X126731228Y-90274454D01*
G37*
G36*
X127808904Y-91290000D02*
G01*
X127141877Y-91290000D01*
X127142099Y-91278735D01*
X127142766Y-91267533D01*
X127143877Y-91256394D01*
X127145433Y-91245318D01*
X127147434Y-91234305D01*
X127149879Y-91223356D01*
X127152769Y-91212469D01*
X127156104Y-91201645D01*
X127159883Y-91190884D01*
X127164107Y-91180186D01*
X127168775Y-91169551D01*
X127173888Y-91158978D01*
X127179445Y-91148469D01*
X127185447Y-91138023D01*
X127191894Y-91127640D01*
X127198785Y-91117320D01*
X127206301Y-91106853D01*
X127214558Y-91096090D01*
X127223558Y-91085031D01*
X127233300Y-91073677D01*
X127243784Y-91062026D01*
X127255011Y-91050081D01*
X127266980Y-91037839D01*
X127279691Y-91025301D01*
X127293144Y-91012468D01*
X127307340Y-90999339D01*
X127314716Y-90992664D01*
X127322278Y-90985914D01*
X127330025Y-90979091D01*
X127337958Y-90972194D01*
X127346076Y-90965223D01*
X127354380Y-90958177D01*
X127362870Y-90951058D01*
X127371545Y-90943865D01*
X127380406Y-90936598D01*
X127389452Y-90929258D01*
X127398684Y-90921843D01*
X127408101Y-90914354D01*
X127417518Y-90906861D01*
X127426747Y-90899463D01*
X127435788Y-90892160D01*
X127444642Y-90884953D01*
X127453309Y-90877842D01*
X127461788Y-90870825D01*
X127470080Y-90863904D01*
X127478184Y-90857079D01*
X127486100Y-90850349D01*
X127493830Y-90843714D01*
X127501371Y-90837175D01*
X127508726Y-90830731D01*
X127522872Y-90818130D01*
X127536268Y-90805910D01*
X127548914Y-90794072D01*
X127560810Y-90782616D01*
X127571957Y-90771541D01*
X127582353Y-90760847D01*
X127592000Y-90750536D01*
X127600897Y-90740606D01*
X127609044Y-90731057D01*
X127616441Y-90721891D01*
X127623273Y-90712839D01*
X127629664Y-90703637D01*
X127635615Y-90694285D01*
X127641124Y-90684781D01*
X127646193Y-90675127D01*
X127650822Y-90665322D01*
X127655009Y-90655366D01*
X127658756Y-90645259D01*
X127662061Y-90635002D01*
X127664927Y-90624594D01*
X127667351Y-90614035D01*
X127669334Y-90603326D01*
X127670877Y-90592466D01*
X127671979Y-90581455D01*
X127672640Y-90570293D01*
X127672861Y-90558981D01*
X127672673Y-90548889D01*
X127672109Y-90539071D01*
X127670558Y-90524855D01*
X127668162Y-90511253D01*
X127664920Y-90498265D01*
X127660832Y-90485891D01*
X127655898Y-90474131D01*
X127650118Y-90462985D01*
X127643493Y-90452452D01*
X127636022Y-90442534D01*
X127627705Y-90433230D01*
X127624745Y-90430265D01*
X127615380Y-90421884D01*
X127605327Y-90414328D01*
X127594588Y-90407596D01*
X127583162Y-90401688D01*
X127571050Y-90396605D01*
X127558250Y-90392346D01*
X127544763Y-90388911D01*
X127530589Y-90386301D01*
X127520758Y-90385019D01*
X127510622Y-90384103D01*
X127500181Y-90383553D01*
X127489434Y-90383370D01*
X127475474Y-90383789D01*
X127461897Y-90385044D01*
X127448701Y-90387137D01*
X127435888Y-90390068D01*
X127423456Y-90393835D01*
X127411407Y-90398440D01*
X127399740Y-90403881D01*
X127388455Y-90410160D01*
X127377552Y-90417277D01*
X127367031Y-90425230D01*
X127360230Y-90430997D01*
X127350611Y-90440320D01*
X127341811Y-90450429D01*
X127333832Y-90461323D01*
X127326673Y-90473003D01*
X127320334Y-90485469D01*
X127314815Y-90498720D01*
X127311591Y-90507991D01*
X127308732Y-90517611D01*
X127306237Y-90527580D01*
X127304106Y-90537898D01*
X127302340Y-90548566D01*
X127300939Y-90559583D01*
X127299902Y-90570949D01*
X127166057Y-90570949D01*
X127167726Y-90554247D01*
X127169988Y-90537972D01*
X127172840Y-90522122D01*
X127176284Y-90506697D01*
X127180320Y-90491698D01*
X127184947Y-90477125D01*
X127190166Y-90462977D01*
X127195976Y-90449255D01*
X127202378Y-90435958D01*
X127209372Y-90423086D01*
X127216957Y-90410640D01*
X127225133Y-90398620D01*
X127233901Y-90387025D01*
X127243260Y-90375856D01*
X127253211Y-90365112D01*
X127263754Y-90354794D01*
X127274836Y-90345004D01*
X127286346Y-90335846D01*
X127298284Y-90327319D01*
X127310648Y-90319424D01*
X127323441Y-90312161D01*
X127336660Y-90305529D01*
X127350307Y-90299529D01*
X127364382Y-90294160D01*
X127378884Y-90289423D01*
X127393813Y-90285318D01*
X127409170Y-90281844D01*
X127424954Y-90279002D01*
X127441166Y-90276791D01*
X127457805Y-90275212D01*
X127474871Y-90274265D01*
X127492365Y-90273949D01*
X127510903Y-90274260D01*
X127528902Y-90275193D01*
X127546364Y-90276749D01*
X127563287Y-90278926D01*
X127579672Y-90281725D01*
X127595520Y-90285146D01*
X127610829Y-90289190D01*
X127625600Y-90293855D01*
X127639833Y-90299143D01*
X127653527Y-90305052D01*
X127666684Y-90311584D01*
X127679303Y-90318737D01*
X127691383Y-90326513D01*
X127702925Y-90334911D01*
X127713930Y-90343931D01*
X127724396Y-90353572D01*
X127734304Y-90363652D01*
X127743573Y-90374047D01*
X127752202Y-90384756D01*
X127760193Y-90395781D01*
X127767544Y-90407120D01*
X127774256Y-90418774D01*
X127780328Y-90430743D01*
X127785762Y-90443026D01*
X127790556Y-90455625D01*
X127794711Y-90468538D01*
X127798227Y-90481767D01*
X127801103Y-90495310D01*
X127803341Y-90509168D01*
X127804939Y-90523340D01*
X127805898Y-90537828D01*
X127806217Y-90552630D01*
X127805981Y-90566057D01*
X127805271Y-90579287D01*
X127804088Y-90592321D01*
X127802431Y-90605158D01*
X127800302Y-90617798D01*
X127797699Y-90630242D01*
X127794623Y-90642490D01*
X127791074Y-90654541D01*
X127787052Y-90666395D01*
X127782556Y-90678053D01*
X127777587Y-90689514D01*
X127772145Y-90700779D01*
X127766230Y-90711847D01*
X127759842Y-90722719D01*
X127752980Y-90733394D01*
X127745645Y-90743872D01*
X127737637Y-90754475D01*
X127728697Y-90765583D01*
X127718823Y-90777197D01*
X127708016Y-90789317D01*
X127696276Y-90801942D01*
X127683603Y-90815073D01*
X127669997Y-90828710D01*
X127662845Y-90835718D01*
X127655458Y-90842852D01*
X127647839Y-90850113D01*
X127639986Y-90857500D01*
X127631900Y-90865013D01*
X127623581Y-90872653D01*
X127615028Y-90880420D01*
X127606242Y-90888313D01*
X127597223Y-90896332D01*
X127587971Y-90904477D01*
X127578485Y-90912749D01*
X127568766Y-90921148D01*
X127558814Y-90929673D01*
X127548629Y-90938324D01*
X127538210Y-90947102D01*
X127527558Y-90956006D01*
X127516673Y-90965037D01*
X127505554Y-90974193D01*
X127494506Y-90983312D01*
X127483802Y-90992226D01*
X127473442Y-91000937D01*
X127463426Y-91009445D01*
X127453754Y-91017748D01*
X127444426Y-91025848D01*
X127435442Y-91033744D01*
X127426801Y-91041437D01*
X127418505Y-91048925D01*
X127410552Y-91056210D01*
X127402944Y-91063292D01*
X127395679Y-91070169D01*
X127382182Y-91083314D01*
X127370061Y-91095643D01*
X127359315Y-91107158D01*
X127349945Y-91117858D01*
X127341951Y-91127743D01*
X127335332Y-91136813D01*
X127330090Y-91145069D01*
X127324805Y-91155925D01*
X127322616Y-91164947D01*
X127808904Y-91164947D01*
X127808904Y-91290000D01*
G37*
G36*
X128268080Y-90289581D02*
G01*
X127976943Y-91290000D01*
X127877292Y-91290000D01*
X128168429Y-90289581D01*
X128268080Y-90289581D01*
G37*
G36*
X128976385Y-91290000D02*
G01*
X128309357Y-91290000D01*
X128309580Y-91278735D01*
X128310247Y-91267533D01*
X128311358Y-91256394D01*
X128312914Y-91245318D01*
X128314915Y-91234305D01*
X128317360Y-91223356D01*
X128320250Y-91212469D01*
X128323585Y-91201645D01*
X128327364Y-91190884D01*
X128331587Y-91180186D01*
X128336256Y-91169551D01*
X128341369Y-91158978D01*
X128346926Y-91148469D01*
X128352928Y-91138023D01*
X128359375Y-91127640D01*
X128366266Y-91117320D01*
X128373781Y-91106853D01*
X128382039Y-91096090D01*
X128391039Y-91085031D01*
X128400781Y-91073677D01*
X128411265Y-91062026D01*
X128422492Y-91050081D01*
X128434460Y-91037839D01*
X128447172Y-91025301D01*
X128460625Y-91012468D01*
X128474821Y-90999339D01*
X128482197Y-90992664D01*
X128489759Y-90985914D01*
X128497506Y-90979091D01*
X128505439Y-90972194D01*
X128513557Y-90965223D01*
X128521861Y-90958177D01*
X128530351Y-90951058D01*
X128539026Y-90943865D01*
X128547887Y-90936598D01*
X128556933Y-90929258D01*
X128566165Y-90921843D01*
X128575582Y-90914354D01*
X128584999Y-90906861D01*
X128594228Y-90899463D01*
X128603269Y-90892160D01*
X128612123Y-90884953D01*
X128620790Y-90877842D01*
X128629269Y-90870825D01*
X128637560Y-90863904D01*
X128645665Y-90857079D01*
X128653581Y-90850349D01*
X128661310Y-90843714D01*
X128668852Y-90837175D01*
X128676206Y-90830731D01*
X128690352Y-90818130D01*
X128703749Y-90805910D01*
X128716395Y-90794072D01*
X128728291Y-90782616D01*
X128739438Y-90771541D01*
X128749834Y-90760847D01*
X128759481Y-90750536D01*
X128768378Y-90740606D01*
X128776524Y-90731057D01*
X128783921Y-90721891D01*
X128790753Y-90712839D01*
X128797145Y-90703637D01*
X128803095Y-90694285D01*
X128808605Y-90684781D01*
X128813674Y-90675127D01*
X128818302Y-90665322D01*
X128822490Y-90655366D01*
X128826236Y-90645259D01*
X128829542Y-90635002D01*
X128832407Y-90624594D01*
X128834832Y-90614035D01*
X128836815Y-90603326D01*
X128838358Y-90592466D01*
X128839460Y-90581455D01*
X128840121Y-90570293D01*
X128840341Y-90558981D01*
X128840153Y-90548889D01*
X128839590Y-90539071D01*
X128838039Y-90524855D01*
X128835643Y-90511253D01*
X128832400Y-90498265D01*
X128828312Y-90485891D01*
X128823379Y-90474131D01*
X128817599Y-90462985D01*
X128810974Y-90452452D01*
X128803503Y-90442534D01*
X128795186Y-90433230D01*
X128792226Y-90430265D01*
X128782860Y-90421884D01*
X128772808Y-90414328D01*
X128762069Y-90407596D01*
X128750643Y-90401688D01*
X128738530Y-90396605D01*
X128725730Y-90392346D01*
X128712244Y-90388911D01*
X128698070Y-90386301D01*
X128688239Y-90385019D01*
X128678103Y-90384103D01*
X128667662Y-90383553D01*
X128656915Y-90383370D01*
X128642955Y-90383789D01*
X128629378Y-90385044D01*
X128616182Y-90387137D01*
X128603369Y-90390068D01*
X128590937Y-90393835D01*
X128578888Y-90398440D01*
X128567221Y-90403881D01*
X128555936Y-90410160D01*
X128545033Y-90417277D01*
X128534512Y-90425230D01*
X128527711Y-90430997D01*
X128518091Y-90440320D01*
X128509292Y-90450429D01*
X128501313Y-90461323D01*
X128494154Y-90473003D01*
X128487815Y-90485469D01*
X128482296Y-90498720D01*
X128479072Y-90507991D01*
X128476213Y-90517611D01*
X128473718Y-90527580D01*
X128471587Y-90537898D01*
X128469821Y-90548566D01*
X128468420Y-90559583D01*
X128467383Y-90570949D01*
X128333538Y-90570949D01*
X128335207Y-90554247D01*
X128337468Y-90537972D01*
X128340321Y-90522122D01*
X128343765Y-90506697D01*
X128347801Y-90491698D01*
X128352428Y-90477125D01*
X128357647Y-90462977D01*
X128363457Y-90449255D01*
X128369859Y-90435958D01*
X128376852Y-90423086D01*
X128384437Y-90410640D01*
X128392614Y-90398620D01*
X128401382Y-90387025D01*
X128410741Y-90375856D01*
X128420692Y-90365112D01*
X128431235Y-90354794D01*
X128442317Y-90345004D01*
X128453827Y-90335846D01*
X128465765Y-90327319D01*
X128478129Y-90319424D01*
X128490922Y-90312161D01*
X128504141Y-90305529D01*
X128517788Y-90299529D01*
X128531863Y-90294160D01*
X128546365Y-90289423D01*
X128561294Y-90285318D01*
X128576651Y-90281844D01*
X128592435Y-90279002D01*
X128608647Y-90276791D01*
X128625286Y-90275212D01*
X128642352Y-90274265D01*
X128659846Y-90273949D01*
X128678384Y-90274260D01*
X128696383Y-90275193D01*
X128713845Y-90276749D01*
X128730768Y-90278926D01*
X128747153Y-90281725D01*
X128763000Y-90285146D01*
X128778309Y-90289190D01*
X128793080Y-90293855D01*
X128807313Y-90299143D01*
X128821008Y-90305052D01*
X128834165Y-90311584D01*
X128846783Y-90318737D01*
X128858864Y-90326513D01*
X128870406Y-90334911D01*
X128881410Y-90343931D01*
X128891877Y-90353572D01*
X128901785Y-90363652D01*
X128911054Y-90374047D01*
X128919683Y-90384756D01*
X128927674Y-90395781D01*
X128935025Y-90407120D01*
X128941737Y-90418774D01*
X128947809Y-90430743D01*
X128953243Y-90443026D01*
X128958037Y-90455625D01*
X128962192Y-90468538D01*
X128965708Y-90481767D01*
X128968584Y-90495310D01*
X128970822Y-90509168D01*
X128972420Y-90523340D01*
X128973378Y-90537828D01*
X128973698Y-90552630D01*
X128973461Y-90566057D01*
X128972752Y-90579287D01*
X128971569Y-90592321D01*
X128969912Y-90605158D01*
X128967783Y-90617798D01*
X128965180Y-90630242D01*
X128962104Y-90642490D01*
X128958555Y-90654541D01*
X128954533Y-90666395D01*
X128950037Y-90678053D01*
X128945068Y-90689514D01*
X128939626Y-90700779D01*
X128933711Y-90711847D01*
X128927322Y-90722719D01*
X128920461Y-90733394D01*
X128913126Y-90743872D01*
X128905118Y-90754475D01*
X128896178Y-90765583D01*
X128886304Y-90777197D01*
X128875497Y-90789317D01*
X128863757Y-90801942D01*
X128851084Y-90815073D01*
X128837478Y-90828710D01*
X128830325Y-90835718D01*
X128822939Y-90842852D01*
X128815320Y-90850113D01*
X128807467Y-90857500D01*
X128799381Y-90865013D01*
X128791062Y-90872653D01*
X128782509Y-90880420D01*
X128773723Y-90888313D01*
X128764704Y-90896332D01*
X128755452Y-90904477D01*
X128745966Y-90912749D01*
X128736247Y-90921148D01*
X128726295Y-90929673D01*
X128716110Y-90938324D01*
X128705691Y-90947102D01*
X128695039Y-90956006D01*
X128684154Y-90965037D01*
X128673035Y-90974193D01*
X128661987Y-90983312D01*
X128651283Y-90992226D01*
X128640923Y-91000937D01*
X128630907Y-91009445D01*
X128621235Y-91017748D01*
X128611907Y-91025848D01*
X128602922Y-91033744D01*
X128594282Y-91041437D01*
X128585986Y-91048925D01*
X128578033Y-91056210D01*
X128570425Y-91063292D01*
X128563160Y-91070169D01*
X128549663Y-91083314D01*
X128537541Y-91095643D01*
X128526796Y-91107158D01*
X128517426Y-91117858D01*
X128509431Y-91127743D01*
X128502813Y-91136813D01*
X128497570Y-91145069D01*
X128492286Y-91155925D01*
X128490097Y-91164947D01*
X128976385Y-91164947D01*
X128976385Y-91290000D01*
G37*
G36*
X129625826Y-90946106D02*
G01*
X129761870Y-90946106D01*
X129761870Y-91055526D01*
X129625826Y-91055526D01*
X129625826Y-91290000D01*
X129496133Y-91290000D01*
X129496133Y-91055526D01*
X129066022Y-91055526D01*
X129066022Y-90946106D01*
X129186922Y-90946106D01*
X129496133Y-90946106D01*
X129496133Y-90479846D01*
X129186922Y-90946106D01*
X129066022Y-90946106D01*
X129524221Y-90273949D01*
X129625826Y-90273949D01*
X129625826Y-90946106D01*
G37*
G36*
X149066505Y-104085310D02*
G01*
X149066322Y-104100035D01*
X149065772Y-104114314D01*
X149064856Y-104128147D01*
X149063574Y-104141535D01*
X149061925Y-104154477D01*
X149059910Y-104166973D01*
X149057529Y-104179023D01*
X149054781Y-104190628D01*
X149051667Y-104201786D01*
X149048187Y-104212500D01*
X149044340Y-104222767D01*
X149040127Y-104232588D01*
X149035547Y-104241964D01*
X149030601Y-104250894D01*
X149025289Y-104259379D01*
X149019610Y-104267418D01*
X149013565Y-104275010D01*
X149007154Y-104282158D01*
X149000376Y-104288859D01*
X148993232Y-104295115D01*
X148985721Y-104300925D01*
X148977845Y-104306289D01*
X148969601Y-104311207D01*
X148960992Y-104315680D01*
X148952016Y-104319707D01*
X148942674Y-104323288D01*
X148932965Y-104326424D01*
X148922890Y-104329113D01*
X148912449Y-104331357D01*
X148901641Y-104333155D01*
X148890467Y-104334508D01*
X148878926Y-104335415D01*
X148878926Y-104231465D01*
X148891041Y-104230761D01*
X148902374Y-104228943D01*
X148912925Y-104226011D01*
X148922695Y-104221964D01*
X148931683Y-104216803D01*
X148939889Y-104210527D01*
X148947314Y-104203137D01*
X148953958Y-104194633D01*
X148959819Y-104185015D01*
X148964900Y-104174282D01*
X148969198Y-104162434D01*
X148972715Y-104149473D01*
X148975451Y-104135397D01*
X148977405Y-104120206D01*
X148978089Y-104112193D01*
X148978577Y-104103901D01*
X148978870Y-104095331D01*
X148978968Y-104086482D01*
X148978870Y-104078566D01*
X148978357Y-104067138D01*
X148977405Y-104056245D01*
X148976013Y-104045888D01*
X148974181Y-104036068D01*
X148971909Y-104026783D01*
X148969198Y-104018033D01*
X148966048Y-104009820D01*
X148962457Y-104002142D01*
X148958427Y-103995000D01*
X148953958Y-103988394D01*
X148947461Y-103980472D01*
X148940573Y-103973606D01*
X148933295Y-103967796D01*
X148925625Y-103963042D01*
X148917565Y-103959345D01*
X148909115Y-103956704D01*
X148900273Y-103955119D01*
X148891041Y-103954591D01*
X148881491Y-103955107D01*
X148872674Y-103956655D01*
X148864589Y-103959235D01*
X148857237Y-103962847D01*
X148850618Y-103967490D01*
X148844732Y-103973166D01*
X148839579Y-103979873D01*
X148835158Y-103987613D01*
X148830905Y-103996919D01*
X148827519Y-104005340D01*
X148823965Y-104014999D01*
X148820242Y-104025893D01*
X148817667Y-104033843D01*
X148815017Y-104042343D01*
X148812292Y-104051392D01*
X148809492Y-104060991D01*
X148806618Y-104071139D01*
X148803669Y-104081837D01*
X148800645Y-104093085D01*
X148797546Y-104104882D01*
X148794372Y-104117228D01*
X148792757Y-104123607D01*
X148789486Y-104136262D01*
X148786169Y-104148483D01*
X148782806Y-104160271D01*
X148779397Y-104171625D01*
X148775943Y-104182546D01*
X148772442Y-104193033D01*
X148768896Y-104203087D01*
X148765304Y-104212707D01*
X148761667Y-104221894D01*
X148757983Y-104230647D01*
X148754254Y-104238966D01*
X148750479Y-104246852D01*
X148746658Y-104254305D01*
X148742791Y-104261324D01*
X148736905Y-104271039D01*
X148734921Y-104274061D01*
X148728485Y-104282546D01*
X148721193Y-104290197D01*
X148713047Y-104297013D01*
X148704045Y-104302995D01*
X148694188Y-104308141D01*
X148683476Y-104312454D01*
X148675860Y-104314865D01*
X148667863Y-104316905D01*
X148659486Y-104318574D01*
X148650729Y-104319872D01*
X148641592Y-104320800D01*
X148632075Y-104321356D01*
X148622178Y-104321542D01*
X148613166Y-104321311D01*
X148604351Y-104320620D01*
X148595734Y-104319467D01*
X148587312Y-104317854D01*
X148579088Y-104315779D01*
X148571061Y-104313244D01*
X148563231Y-104310247D01*
X148555598Y-104306789D01*
X148548161Y-104302871D01*
X148540922Y-104298491D01*
X148533879Y-104293651D01*
X148527033Y-104288349D01*
X148520385Y-104282587D01*
X148513933Y-104276363D01*
X148507678Y-104269678D01*
X148501620Y-104262533D01*
X148495823Y-104254977D01*
X148490400Y-104247112D01*
X148485351Y-104238936D01*
X148480676Y-104230451D01*
X148476375Y-104221656D01*
X148472448Y-104212551D01*
X148468895Y-104203137D01*
X148465716Y-104193412D01*
X148462911Y-104183377D01*
X148460480Y-104173033D01*
X148458423Y-104162379D01*
X148456740Y-104151414D01*
X148455431Y-104140140D01*
X148454496Y-104128556D01*
X148453935Y-104116662D01*
X148453748Y-104104459D01*
X148453907Y-104090353D01*
X148454383Y-104076685D01*
X148455177Y-104063456D01*
X148456288Y-104050664D01*
X148457717Y-104038311D01*
X148459464Y-104026396D01*
X148461527Y-104014918D01*
X148463909Y-104003879D01*
X148466608Y-103993279D01*
X148469624Y-103983116D01*
X148472958Y-103973391D01*
X148476609Y-103964105D01*
X148480578Y-103955256D01*
X148484865Y-103946846D01*
X148489469Y-103938873D01*
X148494390Y-103931339D01*
X148499629Y-103924243D01*
X148505186Y-103917585D01*
X148511060Y-103911366D01*
X148517251Y-103905584D01*
X148523760Y-103900240D01*
X148530587Y-103895335D01*
X148537731Y-103890868D01*
X148545193Y-103886838D01*
X148552972Y-103883247D01*
X148561069Y-103880094D01*
X148569483Y-103877379D01*
X148578214Y-103875102D01*
X148587264Y-103873264D01*
X148596630Y-103871863D01*
X148606315Y-103870901D01*
X148616316Y-103870376D01*
X148616316Y-103973740D01*
X148607230Y-103974864D01*
X148598731Y-103976869D01*
X148590817Y-103979755D01*
X148583490Y-103983522D01*
X148576749Y-103988169D01*
X148570594Y-103993698D01*
X148565025Y-104000107D01*
X148560043Y-104007397D01*
X148555646Y-104015567D01*
X148551836Y-104024619D01*
X148548612Y-104034551D01*
X148545974Y-104045364D01*
X148543923Y-104057058D01*
X148542457Y-104069633D01*
X148541578Y-104083088D01*
X148541285Y-104097424D01*
X148541446Y-104107050D01*
X148541931Y-104116363D01*
X148542738Y-104125364D01*
X148543868Y-104134052D01*
X148545321Y-104142427D01*
X148547096Y-104150490D01*
X148549195Y-104158240D01*
X148551616Y-104165678D01*
X148555347Y-104175109D01*
X148559652Y-104183984D01*
X148564457Y-104192044D01*
X148569788Y-104199030D01*
X148575644Y-104204940D01*
X148582025Y-104209776D01*
X148588931Y-104213538D01*
X148596362Y-104216224D01*
X148604318Y-104217836D01*
X148612799Y-104218374D01*
X148621052Y-104217961D01*
X148630534Y-104216287D01*
X148639091Y-104213325D01*
X148646723Y-104209074D01*
X148653429Y-104203536D01*
X148659210Y-104196709D01*
X148662234Y-104191995D01*
X148666206Y-104184161D01*
X148669397Y-104176659D01*
X148672771Y-104167762D01*
X148676326Y-104157470D01*
X148678798Y-104149835D01*
X148681350Y-104141579D01*
X148683983Y-104132704D01*
X148686697Y-104123209D01*
X148689492Y-104113095D01*
X148692368Y-104102360D01*
X148695325Y-104091006D01*
X148698363Y-104079032D01*
X148701482Y-104066438D01*
X148703071Y-104059909D01*
X148706305Y-104046884D01*
X148709608Y-104034285D01*
X148712979Y-104022111D01*
X148716419Y-104010364D01*
X148719928Y-103999043D01*
X148723505Y-103988147D01*
X148727151Y-103977678D01*
X148730866Y-103967634D01*
X148734650Y-103958016D01*
X148738502Y-103948824D01*
X148742423Y-103940058D01*
X148746412Y-103931718D01*
X148750471Y-103923804D01*
X148754597Y-103916315D01*
X148758793Y-103909253D01*
X148763057Y-103902616D01*
X148769905Y-103893433D01*
X148777625Y-103885152D01*
X148786217Y-103877775D01*
X148795682Y-103871301D01*
X148806019Y-103865731D01*
X148813395Y-103862519D01*
X148821159Y-103859709D01*
X148829311Y-103857300D01*
X148837850Y-103855293D01*
X148846777Y-103853687D01*
X148856092Y-103852482D01*
X148865795Y-103851679D01*
X148875885Y-103851278D01*
X148881076Y-103851228D01*
X148890983Y-103851476D01*
X148900676Y-103852220D01*
X148910156Y-103853460D01*
X148919422Y-103855197D01*
X148928474Y-103857429D01*
X148937312Y-103860158D01*
X148945937Y-103863383D01*
X148954348Y-103867103D01*
X148962546Y-103871320D01*
X148970530Y-103876034D01*
X148978299Y-103881243D01*
X148985856Y-103886948D01*
X148993198Y-103893150D01*
X149000327Y-103899847D01*
X149007242Y-103907041D01*
X149013944Y-103914731D01*
X149020308Y-103922839D01*
X149026263Y-103931287D01*
X149031806Y-103940076D01*
X149036939Y-103949206D01*
X149041661Y-103958675D01*
X149045973Y-103968486D01*
X149049874Y-103978636D01*
X149053364Y-103989127D01*
X149056444Y-103999959D01*
X149059113Y-104011130D01*
X149061372Y-104022643D01*
X149063220Y-104034495D01*
X149064657Y-104046688D01*
X149065683Y-104059222D01*
X149066299Y-104072096D01*
X149066505Y-104085310D01*
G37*
G36*
X148791390Y-103663063D02*
G01*
X148803116Y-103662067D01*
X148814458Y-103660740D01*
X148825416Y-103659081D01*
X148835988Y-103657091D01*
X148846176Y-103654770D01*
X148855980Y-103652118D01*
X148865398Y-103649134D01*
X148874432Y-103645819D01*
X148883081Y-103642173D01*
X148891346Y-103638196D01*
X148899226Y-103633887D01*
X148906721Y-103629248D01*
X148913832Y-103624276D01*
X148920557Y-103618974D01*
X148926899Y-103613341D01*
X148932855Y-103607376D01*
X148938439Y-103601132D01*
X148943663Y-103594712D01*
X148948526Y-103588114D01*
X148953030Y-103581339D01*
X148957172Y-103574388D01*
X148960955Y-103567259D01*
X148964378Y-103559953D01*
X148967440Y-103552470D01*
X148970142Y-103544810D01*
X148972483Y-103536973D01*
X148974465Y-103528958D01*
X148976086Y-103520767D01*
X148977347Y-103512399D01*
X148978248Y-103503853D01*
X148978788Y-103495131D01*
X148978968Y-103486231D01*
X148978740Y-103476106D01*
X148978054Y-103466173D01*
X148976912Y-103456432D01*
X148975314Y-103446884D01*
X148973258Y-103437528D01*
X148970746Y-103428364D01*
X148967776Y-103419393D01*
X148964350Y-103410614D01*
X148960467Y-103402027D01*
X148956128Y-103393633D01*
X148952981Y-103388143D01*
X148947881Y-103380302D01*
X148942400Y-103373193D01*
X148936537Y-103366816D01*
X148930294Y-103361170D01*
X148923669Y-103356255D01*
X148916663Y-103352072D01*
X148909275Y-103348621D01*
X148901506Y-103345901D01*
X148893357Y-103343913D01*
X148884825Y-103342657D01*
X148878926Y-103342226D01*
X148878926Y-103234954D01*
X148890001Y-103236693D01*
X148900755Y-103238880D01*
X148911189Y-103241517D01*
X148921302Y-103244602D01*
X148931095Y-103248136D01*
X148940567Y-103252118D01*
X148949718Y-103256550D01*
X148958549Y-103261430D01*
X148967060Y-103266759D01*
X148975250Y-103272537D01*
X148983119Y-103278764D01*
X148990667Y-103285439D01*
X148997895Y-103292563D01*
X149004803Y-103300136D01*
X149011390Y-103308158D01*
X149017656Y-103316629D01*
X149023571Y-103325419D01*
X149029105Y-103334450D01*
X149034257Y-103343719D01*
X149039027Y-103353229D01*
X149043416Y-103362978D01*
X149047423Y-103372967D01*
X149051049Y-103383195D01*
X149054293Y-103393663D01*
X149057155Y-103404371D01*
X149059635Y-103415318D01*
X149061734Y-103426505D01*
X149063452Y-103437932D01*
X149064787Y-103449599D01*
X149065741Y-103461505D01*
X149066314Y-103473650D01*
X149066505Y-103486036D01*
X149066426Y-103494022D01*
X149066189Y-103501910D01*
X149065241Y-103517390D01*
X149063661Y-103532477D01*
X149061449Y-103547170D01*
X149058605Y-103561469D01*
X149055129Y-103575374D01*
X149051021Y-103588885D01*
X149046281Y-103602002D01*
X149040910Y-103614726D01*
X149034906Y-103627056D01*
X149028270Y-103638991D01*
X149021002Y-103650533D01*
X149013103Y-103661682D01*
X149004571Y-103672436D01*
X148995407Y-103682796D01*
X148985612Y-103692763D01*
X148975251Y-103702204D01*
X148964393Y-103711035D01*
X148953037Y-103719258D01*
X148941184Y-103726871D01*
X148928833Y-103733876D01*
X148915984Y-103740271D01*
X148902638Y-103746057D01*
X148888794Y-103751235D01*
X148874452Y-103755803D01*
X148859613Y-103759762D01*
X148844276Y-103763112D01*
X148836421Y-103764558D01*
X148828441Y-103765853D01*
X148820337Y-103766995D01*
X148812109Y-103767984D01*
X148803756Y-103768822D01*
X148795279Y-103769507D01*
X148786678Y-103770040D01*
X148777952Y-103770421D01*
X148769101Y-103770649D01*
X148760127Y-103770725D01*
X148751211Y-103770652D01*
X148742418Y-103770431D01*
X148733747Y-103770062D01*
X148725197Y-103769547D01*
X148716769Y-103768884D01*
X148708462Y-103768074D01*
X148700278Y-103767116D01*
X148692215Y-103766011D01*
X148684274Y-103764759D01*
X148676454Y-103763360D01*
X148668757Y-103761813D01*
X148653726Y-103758278D01*
X148639183Y-103754153D01*
X148625127Y-103749439D01*
X148611558Y-103744136D01*
X148598476Y-103738244D01*
X148585880Y-103731762D01*
X148573772Y-103724691D01*
X148562151Y-103717031D01*
X148551016Y-103708782D01*
X148540369Y-103699943D01*
X148535228Y-103695303D01*
X148525361Y-103685669D01*
X148516131Y-103675672D01*
X148507537Y-103665312D01*
X148499580Y-103654588D01*
X148492260Y-103643501D01*
X148485576Y-103632050D01*
X148479529Y-103620237D01*
X148474118Y-103608060D01*
X148469344Y-103595519D01*
X148465206Y-103582616D01*
X148461705Y-103569349D01*
X148458841Y-103555718D01*
X148456613Y-103541725D01*
X148455021Y-103527368D01*
X148454067Y-103512648D01*
X148453752Y-103497759D01*
X148541285Y-103497759D01*
X148541639Y-103509255D01*
X148542700Y-103520442D01*
X148544469Y-103531320D01*
X148546945Y-103541888D01*
X148550129Y-103552147D01*
X148554021Y-103562098D01*
X148558620Y-103571739D01*
X148563926Y-103581071D01*
X148569940Y-103590094D01*
X148576662Y-103598807D01*
X148581536Y-103604445D01*
X148589451Y-103612478D01*
X148598100Y-103619944D01*
X148607485Y-103626844D01*
X148614150Y-103631129D01*
X148621141Y-103635162D01*
X148628459Y-103638943D01*
X148636104Y-103642472D01*
X148644076Y-103645750D01*
X148652374Y-103648775D01*
X148660999Y-103651549D01*
X148669950Y-103654071D01*
X148679228Y-103656341D01*
X148688833Y-103658359D01*
X148698765Y-103660125D01*
X148703853Y-103660914D01*
X148703853Y-103333433D01*
X148693828Y-103335143D01*
X148684124Y-103337096D01*
X148674741Y-103339295D01*
X148665678Y-103341737D01*
X148656935Y-103344424D01*
X148648514Y-103347355D01*
X148640412Y-103350530D01*
X148632632Y-103353949D01*
X148625172Y-103357613D01*
X148618032Y-103361521D01*
X148611213Y-103365673D01*
X148604715Y-103370069D01*
X148595568Y-103377122D01*
X148587143Y-103384724D01*
X148581927Y-103390097D01*
X148574664Y-103398514D01*
X148568115Y-103407277D01*
X148562281Y-103416388D01*
X148557161Y-103425845D01*
X148552755Y-103435649D01*
X148549064Y-103445801D01*
X148546087Y-103456299D01*
X148543825Y-103467144D01*
X148542277Y-103478335D01*
X148541444Y-103489874D01*
X148541285Y-103497759D01*
X148453752Y-103497759D01*
X148453748Y-103497564D01*
X148454067Y-103482178D01*
X148455024Y-103467183D01*
X148456620Y-103452581D01*
X148458853Y-103438372D01*
X148461724Y-103424555D01*
X148465234Y-103411130D01*
X148469381Y-103398097D01*
X148474167Y-103385457D01*
X148479591Y-103373209D01*
X148485653Y-103361353D01*
X148492352Y-103349889D01*
X148499690Y-103338818D01*
X148507666Y-103328140D01*
X148516281Y-103317853D01*
X148525533Y-103307959D01*
X148535423Y-103298457D01*
X148545872Y-103289442D01*
X148556849Y-103281009D01*
X148568355Y-103273158D01*
X148580388Y-103265887D01*
X148592950Y-103259199D01*
X148606040Y-103253092D01*
X148619658Y-103247567D01*
X148633804Y-103242623D01*
X148648479Y-103238261D01*
X148663681Y-103234481D01*
X148671480Y-103232809D01*
X148679412Y-103231282D01*
X148687475Y-103229901D01*
X148695671Y-103228665D01*
X148703998Y-103227574D01*
X148712458Y-103226629D01*
X148721050Y-103225830D01*
X148729773Y-103225175D01*
X148738629Y-103224666D01*
X148747617Y-103224303D01*
X148756736Y-103224085D01*
X148765988Y-103224012D01*
X148791390Y-103224012D01*
X148791390Y-103663063D01*
G37*
G36*
X148547928Y-102808213D02*
G01*
X148545671Y-102817100D01*
X148544146Y-102825544D01*
X148542946Y-102834933D01*
X148542219Y-102843125D01*
X148541700Y-102851920D01*
X148541389Y-102861321D01*
X148541285Y-102871325D01*
X148541621Y-102881129D01*
X148542628Y-102890758D01*
X148544307Y-102900211D01*
X148546658Y-102909488D01*
X148549681Y-102918590D01*
X148553375Y-102927517D01*
X148557741Y-102936267D01*
X148562778Y-102944842D01*
X148568487Y-102953242D01*
X148574868Y-102961466D01*
X148581921Y-102969515D01*
X148589645Y-102977388D01*
X148598041Y-102985085D01*
X148607108Y-102992607D01*
X148616848Y-102999954D01*
X148627258Y-103007124D01*
X149054000Y-103007124D01*
X149054000Y-103111074D01*
X148466254Y-103111074D01*
X148466254Y-103007124D01*
X148547538Y-103007124D01*
X148536180Y-102998861D01*
X148525556Y-102990437D01*
X148515664Y-102981850D01*
X148506505Y-102973101D01*
X148498078Y-102964191D01*
X148490385Y-102955119D01*
X148483424Y-102945885D01*
X148477196Y-102936489D01*
X148471700Y-102926932D01*
X148466937Y-102917213D01*
X148462907Y-102907331D01*
X148459610Y-102897288D01*
X148457046Y-102887084D01*
X148455214Y-102876717D01*
X148454115Y-102866189D01*
X148453748Y-102855498D01*
X148453879Y-102847109D01*
X148454270Y-102838499D01*
X148454923Y-102829670D01*
X148455837Y-102820621D01*
X148457011Y-102811352D01*
X148457461Y-102808213D01*
X148547928Y-102808213D01*
G37*
G36*
X148466254Y-102266775D02*
G01*
X149054000Y-102487180D01*
X149054000Y-102579406D01*
X148466254Y-102799811D01*
X148466254Y-102687655D01*
X148926016Y-102533293D01*
X148466254Y-102378932D01*
X148466254Y-102266775D01*
G37*
G36*
X126158588Y-103938186D02*
G01*
X126172818Y-103938439D01*
X126186751Y-103938860D01*
X126200386Y-103939450D01*
X126213725Y-103940209D01*
X126226765Y-103941136D01*
X126239509Y-103942232D01*
X126251955Y-103943496D01*
X126264104Y-103944929D01*
X126275956Y-103946531D01*
X126287510Y-103948301D01*
X126298767Y-103950240D01*
X126309727Y-103952347D01*
X126320390Y-103954623D01*
X126330755Y-103957068D01*
X126340823Y-103959681D01*
X126350613Y-103962545D01*
X126360143Y-103965800D01*
X126369414Y-103969448D01*
X126378426Y-103973486D01*
X126387179Y-103977917D01*
X126395673Y-103982739D01*
X126403907Y-103987952D01*
X126411882Y-103993557D01*
X126419598Y-103999554D01*
X126427055Y-104005942D01*
X126434252Y-104012721D01*
X126441191Y-104019893D01*
X126447870Y-104027455D01*
X126454290Y-104035410D01*
X126460450Y-104043755D01*
X126466352Y-104052493D01*
X126471971Y-104061493D01*
X126477228Y-104070628D01*
X126482122Y-104079896D01*
X126486654Y-104089299D01*
X126490824Y-104098836D01*
X126494630Y-104108507D01*
X126498075Y-104118312D01*
X126501156Y-104128251D01*
X126503875Y-104138324D01*
X126506232Y-104148532D01*
X126508226Y-104158874D01*
X126509857Y-104169349D01*
X126511126Y-104179959D01*
X126512033Y-104190703D01*
X126512576Y-104201582D01*
X126512758Y-104212594D01*
X126512398Y-104230106D01*
X126511318Y-104247083D01*
X126509519Y-104263526D01*
X126507000Y-104279433D01*
X126503762Y-104294806D01*
X126499804Y-104309645D01*
X126495126Y-104323948D01*
X126489729Y-104337717D01*
X126483612Y-104350951D01*
X126476775Y-104363650D01*
X126469218Y-104375814D01*
X126460942Y-104387444D01*
X126451947Y-104398539D01*
X126442231Y-104409099D01*
X126431796Y-104419124D01*
X126420642Y-104428615D01*
X126408834Y-104437550D01*
X126396383Y-104445908D01*
X126383289Y-104453690D01*
X126369551Y-104460896D01*
X126355170Y-104467525D01*
X126340145Y-104473578D01*
X126324477Y-104479054D01*
X126308165Y-104483954D01*
X126291209Y-104488277D01*
X126273610Y-104492024D01*
X126255368Y-104495195D01*
X126246005Y-104496564D01*
X126236482Y-104497789D01*
X126226797Y-104498870D01*
X126216952Y-104499806D01*
X126206946Y-104500599D01*
X126196779Y-104501248D01*
X126186451Y-104501752D01*
X126175962Y-104502112D01*
X126165313Y-104502328D01*
X126154502Y-104502400D01*
X125913654Y-104502400D01*
X125913654Y-104888500D01*
X125786966Y-104888500D01*
X125786966Y-104056901D01*
X125913654Y-104056901D01*
X125913654Y-104383601D01*
X126155662Y-104383601D01*
X126170644Y-104383433D01*
X126185076Y-104382930D01*
X126198959Y-104382092D01*
X126212292Y-104380918D01*
X126225077Y-104379409D01*
X126237312Y-104377564D01*
X126248998Y-104375384D01*
X126260134Y-104372869D01*
X126270722Y-104370019D01*
X126280760Y-104366833D01*
X126290248Y-104363312D01*
X126299188Y-104359455D01*
X126307578Y-104355263D01*
X126319134Y-104348346D01*
X126329453Y-104340675D01*
X126338742Y-104332251D01*
X126347117Y-104323161D01*
X126354578Y-104313407D01*
X126361126Y-104302988D01*
X126366760Y-104291904D01*
X126371480Y-104280156D01*
X126375287Y-104267742D01*
X126378180Y-104254664D01*
X126380159Y-104240921D01*
X126380972Y-104231390D01*
X126381378Y-104221563D01*
X126381428Y-104216539D01*
X126381175Y-104206510D01*
X126380417Y-104196697D01*
X126379152Y-104187101D01*
X126377382Y-104177721D01*
X126375106Y-104168556D01*
X126372325Y-104159609D01*
X126369037Y-104150877D01*
X126365244Y-104142361D01*
X126360945Y-104134062D01*
X126356141Y-104125979D01*
X126352657Y-104120710D01*
X126347169Y-104113150D01*
X126339426Y-104103914D01*
X126331198Y-104095643D01*
X126322485Y-104088335D01*
X126313285Y-104081993D01*
X126303599Y-104076614D01*
X126293428Y-104072200D01*
X126282771Y-104068751D01*
X126280031Y-104068039D01*
X126268404Y-104065429D01*
X126258889Y-104063699D01*
X126248693Y-104062166D01*
X126237816Y-104060828D01*
X126226258Y-104059686D01*
X126214018Y-104058740D01*
X126201098Y-104057989D01*
X126187496Y-104057434D01*
X126178050Y-104057173D01*
X126168301Y-104056999D01*
X126158249Y-104056912D01*
X126153110Y-104056901D01*
X125913654Y-104056901D01*
X125786966Y-104056901D01*
X125786966Y-103938102D01*
X126144061Y-103938102D01*
X126158588Y-103938186D01*
G37*
G36*
X126956109Y-104176080D02*
G01*
X126973915Y-104177217D01*
X126991255Y-104179111D01*
X127008129Y-104181763D01*
X127024537Y-104185173D01*
X127040479Y-104189340D01*
X127055955Y-104194265D01*
X127070966Y-104199948D01*
X127085510Y-104206389D01*
X127099589Y-104213587D01*
X127113202Y-104221544D01*
X127126348Y-104230257D01*
X127139029Y-104239729D01*
X127151245Y-104249958D01*
X127162994Y-104260945D01*
X127174277Y-104272690D01*
X127184982Y-104285098D01*
X127194997Y-104298134D01*
X127204321Y-104311796D01*
X127212954Y-104326086D01*
X127220896Y-104341003D01*
X127228148Y-104356547D01*
X127234709Y-104372719D01*
X127240580Y-104389517D01*
X127245760Y-104406943D01*
X127250249Y-104424996D01*
X127252235Y-104434258D01*
X127254048Y-104443677D01*
X127255688Y-104453252D01*
X127257156Y-104462984D01*
X127258451Y-104472873D01*
X127259573Y-104482919D01*
X127260523Y-104493121D01*
X127261300Y-104503481D01*
X127261904Y-104513997D01*
X127262336Y-104524670D01*
X127262595Y-104535500D01*
X127262681Y-104546486D01*
X127262681Y-104576650D01*
X126741308Y-104576650D01*
X126742491Y-104590576D01*
X126744067Y-104604044D01*
X126746036Y-104617056D01*
X126748399Y-104629611D01*
X126751156Y-104641709D01*
X126754305Y-104653351D01*
X126757848Y-104664535D01*
X126761785Y-104675263D01*
X126766114Y-104685534D01*
X126770837Y-104695348D01*
X126775954Y-104704706D01*
X126781464Y-104713606D01*
X126787367Y-104722050D01*
X126793663Y-104730037D01*
X126800353Y-104737567D01*
X126807437Y-104744640D01*
X126814851Y-104751271D01*
X126822475Y-104757475D01*
X126830310Y-104763250D01*
X126838355Y-104768598D01*
X126846610Y-104773517D01*
X126855075Y-104778009D01*
X126863751Y-104782074D01*
X126872637Y-104785710D01*
X126881734Y-104788918D01*
X126891040Y-104791699D01*
X126900557Y-104794052D01*
X126910284Y-104795977D01*
X126920222Y-104797475D01*
X126930369Y-104798544D01*
X126940727Y-104799186D01*
X126951296Y-104799400D01*
X126963320Y-104799128D01*
X126975115Y-104798315D01*
X126986682Y-104796959D01*
X126998021Y-104795060D01*
X127009131Y-104792619D01*
X127020013Y-104789635D01*
X127030667Y-104786109D01*
X127041092Y-104782041D01*
X127051288Y-104777430D01*
X127061257Y-104772277D01*
X127067775Y-104768540D01*
X127077086Y-104762483D01*
X127085528Y-104755975D01*
X127093102Y-104749013D01*
X127099806Y-104741599D01*
X127105642Y-104733732D01*
X127110609Y-104725412D01*
X127114708Y-104716639D01*
X127117937Y-104707414D01*
X127120298Y-104697736D01*
X127121790Y-104687605D01*
X127122302Y-104680600D01*
X127249687Y-104680600D01*
X127247623Y-104693751D01*
X127245025Y-104706522D01*
X127241894Y-104718912D01*
X127238231Y-104730922D01*
X127234034Y-104742550D01*
X127229305Y-104753798D01*
X127224042Y-104764666D01*
X127218247Y-104775153D01*
X127211919Y-104785259D01*
X127205058Y-104794984D01*
X127197663Y-104804329D01*
X127189736Y-104813293D01*
X127181276Y-104821876D01*
X127172283Y-104830079D01*
X127162757Y-104837900D01*
X127152698Y-104845342D01*
X127142260Y-104852366D01*
X127131536Y-104858937D01*
X127120529Y-104865055D01*
X127109236Y-104870720D01*
X127097659Y-104875932D01*
X127085797Y-104880690D01*
X127073651Y-104884995D01*
X127061220Y-104888848D01*
X127048505Y-104892246D01*
X127035505Y-104895192D01*
X127022220Y-104897685D01*
X127008651Y-104899724D01*
X126994797Y-104901310D01*
X126980658Y-104902443D01*
X126966235Y-104903123D01*
X126951528Y-104903349D01*
X126942044Y-104903256D01*
X126932677Y-104902974D01*
X126914294Y-104901849D01*
X126896379Y-104899972D01*
X126878931Y-104897346D01*
X126861951Y-104893969D01*
X126845439Y-104889841D01*
X126829394Y-104884963D01*
X126813818Y-104879334D01*
X126798708Y-104872955D01*
X126784067Y-104865826D01*
X126769893Y-104857946D01*
X126756187Y-104849315D01*
X126742948Y-104839934D01*
X126730178Y-104829803D01*
X126717875Y-104818921D01*
X126706039Y-104807289D01*
X126694828Y-104794986D01*
X126684341Y-104782092D01*
X126674576Y-104768607D01*
X126665535Y-104754531D01*
X126657218Y-104739864D01*
X126649623Y-104724606D01*
X126642752Y-104708757D01*
X126636604Y-104692318D01*
X126631179Y-104675287D01*
X126626478Y-104657665D01*
X126622500Y-104639453D01*
X126620782Y-104630125D01*
X126619245Y-104620649D01*
X126617889Y-104611026D01*
X126616714Y-104601255D01*
X126615719Y-104591336D01*
X126614906Y-104581269D01*
X126614273Y-104571055D01*
X126613821Y-104560693D01*
X126613549Y-104550183D01*
X126613459Y-104539525D01*
X126613546Y-104528939D01*
X126613809Y-104518497D01*
X126614246Y-104508199D01*
X126614858Y-104498046D01*
X126615646Y-104488038D01*
X126616608Y-104478174D01*
X126617248Y-104472700D01*
X126743860Y-104472700D01*
X127132744Y-104472700D01*
X127130713Y-104460796D01*
X127128393Y-104449273D01*
X127125783Y-104438130D01*
X127122882Y-104427367D01*
X127119692Y-104416986D01*
X127116212Y-104406985D01*
X127112441Y-104397365D01*
X127108381Y-104388125D01*
X127104030Y-104379266D01*
X127099389Y-104370788D01*
X127094459Y-104362691D01*
X127089238Y-104354974D01*
X127080863Y-104344112D01*
X127071836Y-104334107D01*
X127065455Y-104327913D01*
X127055460Y-104319288D01*
X127045053Y-104311512D01*
X127034235Y-104304583D01*
X127023004Y-104298503D01*
X127011362Y-104293272D01*
X126999307Y-104288889D01*
X126986841Y-104285354D01*
X126973962Y-104282667D01*
X126960672Y-104280829D01*
X126946970Y-104279839D01*
X126937606Y-104279651D01*
X126923955Y-104280071D01*
X126910670Y-104281331D01*
X126897753Y-104283432D01*
X126885203Y-104286373D01*
X126873020Y-104290153D01*
X126861204Y-104294775D01*
X126849756Y-104300236D01*
X126838674Y-104306537D01*
X126827959Y-104313679D01*
X126817612Y-104321661D01*
X126810917Y-104327449D01*
X126801378Y-104336848D01*
X126792512Y-104347119D01*
X126784318Y-104358264D01*
X126779230Y-104366178D01*
X126774441Y-104374480D01*
X126769950Y-104383171D01*
X126765759Y-104392249D01*
X126761867Y-104401715D01*
X126758275Y-104411569D01*
X126754981Y-104421811D01*
X126751986Y-104432441D01*
X126749291Y-104443459D01*
X126746894Y-104454864D01*
X126744797Y-104466658D01*
X126743860Y-104472700D01*
X126617248Y-104472700D01*
X126617745Y-104468455D01*
X126619057Y-104458880D01*
X126620544Y-104449450D01*
X126622205Y-104440165D01*
X126624042Y-104431024D01*
X126628241Y-104413175D01*
X126633139Y-104395905D01*
X126638736Y-104379214D01*
X126645034Y-104363100D01*
X126652031Y-104347565D01*
X126659728Y-104332608D01*
X126668124Y-104318229D01*
X126677221Y-104304429D01*
X126687017Y-104291207D01*
X126697513Y-104278563D01*
X126703023Y-104272458D01*
X126714463Y-104260741D01*
X126726335Y-104249781D01*
X126738638Y-104239576D01*
X126751372Y-104230127D01*
X126764538Y-104221434D01*
X126778136Y-104213497D01*
X126792164Y-104206316D01*
X126806625Y-104199890D01*
X126821516Y-104194221D01*
X126836839Y-104189308D01*
X126852594Y-104185150D01*
X126868780Y-104181748D01*
X126885397Y-104179103D01*
X126902446Y-104177213D01*
X126919926Y-104176079D01*
X126937838Y-104175701D01*
X126956109Y-104176080D01*
G37*
G36*
X127520235Y-104280115D02*
G01*
X127531837Y-104267471D01*
X127543616Y-104255643D01*
X127555570Y-104244631D01*
X127567700Y-104234434D01*
X127580006Y-104225053D01*
X127592487Y-104216488D01*
X127605145Y-104208738D01*
X127617978Y-104201805D01*
X127630987Y-104195687D01*
X127644172Y-104190384D01*
X127657533Y-104185898D01*
X127671069Y-104182227D01*
X127684782Y-104179372D01*
X127698670Y-104177333D01*
X127712734Y-104176109D01*
X127726974Y-104175701D01*
X127741392Y-104175952D01*
X127755353Y-104176705D01*
X127768855Y-104177959D01*
X127781900Y-104179715D01*
X127794488Y-104181972D01*
X127806617Y-104184731D01*
X127818289Y-104187992D01*
X127829503Y-104191755D01*
X127840259Y-104196019D01*
X127850558Y-104200785D01*
X127860399Y-104206053D01*
X127869782Y-104211822D01*
X127878708Y-104218093D01*
X127887175Y-104224865D01*
X127895185Y-104232140D01*
X127902738Y-104239916D01*
X127909832Y-104248193D01*
X127916469Y-104256973D01*
X127922648Y-104266254D01*
X127928370Y-104276036D01*
X127933634Y-104286321D01*
X127938440Y-104297107D01*
X127942788Y-104308394D01*
X127946678Y-104320184D01*
X127950111Y-104332475D01*
X127953086Y-104345268D01*
X127955604Y-104358562D01*
X127957664Y-104372358D01*
X127959266Y-104386656D01*
X127960410Y-104401455D01*
X127961097Y-104416756D01*
X127961325Y-104432559D01*
X127961325Y-104888500D01*
X127837885Y-104888500D01*
X127837885Y-104439288D01*
X127837766Y-104428858D01*
X127837410Y-104418800D01*
X127836816Y-104409114D01*
X127835985Y-104399799D01*
X127834293Y-104386524D01*
X127832067Y-104374085D01*
X127829306Y-104362482D01*
X127826012Y-104351715D01*
X127822182Y-104341784D01*
X127817819Y-104332689D01*
X127812921Y-104324430D01*
X127807489Y-104317008D01*
X127799339Y-104308252D01*
X127789971Y-104300664D01*
X127779384Y-104294243D01*
X127770645Y-104290194D01*
X127761221Y-104286801D01*
X127751111Y-104284065D01*
X127740316Y-104281986D01*
X127728836Y-104280563D01*
X127716671Y-104279797D01*
X127708180Y-104279651D01*
X127696433Y-104280086D01*
X127684687Y-104281391D01*
X127672940Y-104283566D01*
X127661194Y-104286612D01*
X127649447Y-104290527D01*
X127637701Y-104295313D01*
X127625954Y-104300969D01*
X127614207Y-104307495D01*
X127602461Y-104314891D01*
X127590714Y-104323157D01*
X127578968Y-104332293D01*
X127567221Y-104342299D01*
X127555475Y-104353176D01*
X127543728Y-104364922D01*
X127531982Y-104377539D01*
X127520235Y-104391026D01*
X127520235Y-104888500D01*
X127396795Y-104888500D01*
X127396795Y-104190551D01*
X127520235Y-104190551D01*
X127520235Y-104280115D01*
G37*
G36*
X128399120Y-104175969D02*
G01*
X128412727Y-104176771D01*
X128426065Y-104178108D01*
X128439135Y-104179979D01*
X128451936Y-104182386D01*
X128464469Y-104185327D01*
X128476734Y-104188803D01*
X128488731Y-104192813D01*
X128500460Y-104197359D01*
X128511920Y-104202439D01*
X128523112Y-104208054D01*
X128534035Y-104214204D01*
X128544690Y-104220888D01*
X128555077Y-104228107D01*
X128565196Y-104235861D01*
X128575047Y-104244150D01*
X128575047Y-104190551D01*
X128697791Y-104190551D01*
X128697791Y-104834204D01*
X128697496Y-104854904D01*
X128696613Y-104874946D01*
X128695140Y-104894331D01*
X128693078Y-104913058D01*
X128690427Y-104931129D01*
X128687186Y-104948543D01*
X128683357Y-104965299D01*
X128678938Y-104981399D01*
X128673931Y-104996841D01*
X128668334Y-105011626D01*
X128662148Y-105025754D01*
X128655373Y-105039225D01*
X128648008Y-105052039D01*
X128640055Y-105064196D01*
X128631513Y-105075695D01*
X128622381Y-105086538D01*
X128612660Y-105096723D01*
X128602350Y-105106251D01*
X128591451Y-105115122D01*
X128579963Y-105123336D01*
X128567885Y-105130893D01*
X128555219Y-105137793D01*
X128541963Y-105144036D01*
X128528118Y-105149621D01*
X128513684Y-105154549D01*
X128498661Y-105158821D01*
X128483049Y-105162435D01*
X128466848Y-105165392D01*
X128450057Y-105167692D01*
X128432678Y-105169335D01*
X128414709Y-105170320D01*
X128396151Y-105170649D01*
X128380066Y-105170429D01*
X128364410Y-105169768D01*
X128349184Y-105168667D01*
X128334387Y-105167125D01*
X128320020Y-105165143D01*
X128306083Y-105162720D01*
X128292576Y-105159857D01*
X128279497Y-105156553D01*
X128266849Y-105152809D01*
X128254630Y-105148624D01*
X128242841Y-105143999D01*
X128231482Y-105138933D01*
X128220552Y-105133427D01*
X128210051Y-105127480D01*
X128199981Y-105121093D01*
X128190340Y-105114265D01*
X128181208Y-105107066D01*
X128172665Y-105099564D01*
X128164712Y-105091759D01*
X128157348Y-105083652D01*
X128150573Y-105075242D01*
X128144387Y-105066529D01*
X128138790Y-105057513D01*
X128133782Y-105048195D01*
X128129364Y-105038574D01*
X128125534Y-105028650D01*
X128122294Y-105018423D01*
X128119643Y-105007894D01*
X128117581Y-104997062D01*
X128116108Y-104985927D01*
X128115224Y-104974490D01*
X128114930Y-104962749D01*
X128242315Y-104962749D01*
X128242911Y-104975337D01*
X128244700Y-104987113D01*
X128247682Y-104998076D01*
X128251857Y-105008227D01*
X128257224Y-105017567D01*
X128263785Y-105026094D01*
X128271538Y-105033809D01*
X128280484Y-105040712D01*
X128290622Y-105046802D01*
X128301954Y-105052081D01*
X128314478Y-105056548D01*
X128328195Y-105060202D01*
X128343105Y-105063045D01*
X128359207Y-105065075D01*
X128376503Y-105066293D01*
X128394991Y-105066699D01*
X128405598Y-105066520D01*
X128415899Y-105065981D01*
X128425893Y-105065084D01*
X128435582Y-105063828D01*
X128444963Y-105062213D01*
X128454039Y-105060238D01*
X128467078Y-105056604D01*
X128479427Y-105052163D01*
X128491088Y-105046913D01*
X128502058Y-105040857D01*
X128512340Y-105033992D01*
X128521932Y-105026320D01*
X128527944Y-105020757D01*
X128536362Y-105011352D01*
X128543952Y-105000364D01*
X128548552Y-104992159D01*
X128552783Y-104983251D01*
X128556647Y-104973640D01*
X128560143Y-104963326D01*
X128563271Y-104952308D01*
X128566031Y-104940587D01*
X128568423Y-104928162D01*
X128570447Y-104915034D01*
X128572103Y-104901203D01*
X128573391Y-104886669D01*
X128574311Y-104871431D01*
X128574863Y-104855490D01*
X128575047Y-104838845D01*
X128575047Y-104804272D01*
X128564649Y-104816270D01*
X128553990Y-104827494D01*
X128543070Y-104837943D01*
X128531889Y-104847619D01*
X128520447Y-104856520D01*
X128508744Y-104864647D01*
X128496780Y-104872001D01*
X128484555Y-104878580D01*
X128472068Y-104884385D01*
X128459321Y-104889417D01*
X128446313Y-104893674D01*
X128433044Y-104897157D01*
X128419514Y-104899866D01*
X128405722Y-104901801D01*
X128391670Y-104902962D01*
X128377356Y-104903349D01*
X128360628Y-104902971D01*
X128344379Y-104901834D01*
X128328608Y-104899940D01*
X128313316Y-104897288D01*
X128298502Y-104893878D01*
X128284167Y-104889710D01*
X128270311Y-104884785D01*
X128256933Y-104879102D01*
X128244033Y-104872662D01*
X128231612Y-104865463D01*
X128219670Y-104857507D01*
X128208206Y-104848793D01*
X128197221Y-104839322D01*
X128186714Y-104829092D01*
X128176686Y-104818105D01*
X128167137Y-104806361D01*
X128158145Y-104793973D01*
X128149734Y-104781058D01*
X128141903Y-104767616D01*
X128134652Y-104753646D01*
X128127981Y-104739149D01*
X128121891Y-104724124D01*
X128116380Y-104708571D01*
X128111449Y-104692492D01*
X128107099Y-104675884D01*
X128103328Y-104658749D01*
X128100138Y-104641087D01*
X128097527Y-104622897D01*
X128096440Y-104613604D01*
X128095497Y-104604179D01*
X128094700Y-104594623D01*
X128094047Y-104584934D01*
X128093539Y-104575114D01*
X128093177Y-104565162D01*
X128092959Y-104555078D01*
X128092887Y-104544862D01*
X128219344Y-104544862D01*
X128219518Y-104560259D01*
X128220040Y-104575186D01*
X128220910Y-104589640D01*
X128222128Y-104603624D01*
X128223694Y-104617136D01*
X128225608Y-104630177D01*
X128227871Y-104642746D01*
X128230481Y-104654845D01*
X128233439Y-104666471D01*
X128236746Y-104677627D01*
X128240400Y-104688311D01*
X128244403Y-104698524D01*
X128248753Y-104708266D01*
X128253452Y-104717536D01*
X128258499Y-104726335D01*
X128263893Y-104734663D01*
X128269625Y-104742502D01*
X128275625Y-104749836D01*
X128285129Y-104759888D01*
X128295236Y-104768802D01*
X128305946Y-104776578D01*
X128317260Y-104783216D01*
X128329178Y-104788716D01*
X128341700Y-104793078D01*
X128354825Y-104796302D01*
X128368554Y-104798388D01*
X128378042Y-104799147D01*
X128387798Y-104799400D01*
X128400602Y-104798947D01*
X128413260Y-104797587D01*
X128425770Y-104795321D01*
X128438134Y-104792149D01*
X128450351Y-104788070D01*
X128462421Y-104783085D01*
X128474344Y-104777194D01*
X128486121Y-104770396D01*
X128497750Y-104762692D01*
X128509233Y-104754081D01*
X128520569Y-104744564D01*
X128531758Y-104734141D01*
X128542801Y-104722811D01*
X128553696Y-104710575D01*
X128564445Y-104697433D01*
X128575047Y-104683384D01*
X128575047Y-104362022D01*
X128565009Y-104352047D01*
X128554791Y-104342716D01*
X128544394Y-104334029D01*
X128533818Y-104325985D01*
X128523062Y-104318584D01*
X128512126Y-104311827D01*
X128501012Y-104305714D01*
X128489717Y-104300244D01*
X128478244Y-104295417D01*
X128466590Y-104291234D01*
X128454758Y-104287695D01*
X128442746Y-104284799D01*
X128430554Y-104282547D01*
X128418183Y-104280938D01*
X128405632Y-104279973D01*
X128392903Y-104279651D01*
X128383164Y-104279911D01*
X128373673Y-104280691D01*
X128364428Y-104281992D01*
X128351023Y-104284919D01*
X128338172Y-104289016D01*
X128325876Y-104294283D01*
X128314135Y-104300721D01*
X128302949Y-104308330D01*
X128292317Y-104317109D01*
X128285538Y-104323613D01*
X128279004Y-104330636D01*
X128272718Y-104338180D01*
X128266678Y-104346244D01*
X128260946Y-104354823D01*
X128255584Y-104363914D01*
X128250592Y-104373516D01*
X128245969Y-104383630D01*
X128241716Y-104394254D01*
X128237833Y-104405390D01*
X128234320Y-104417037D01*
X128231177Y-104429195D01*
X128228404Y-104441864D01*
X128226000Y-104455044D01*
X128223966Y-104468736D01*
X128222302Y-104482939D01*
X128221008Y-104497653D01*
X128220083Y-104512878D01*
X128219528Y-104528614D01*
X128219344Y-104544862D01*
X128092887Y-104544862D01*
X128092968Y-104534273D01*
X128093211Y-104523822D01*
X128093617Y-104513511D01*
X128094185Y-104503339D01*
X128094915Y-104493307D01*
X128095807Y-104483413D01*
X128096862Y-104473658D01*
X128098078Y-104464043D01*
X128099458Y-104454567D01*
X128100999Y-104445229D01*
X128102702Y-104436031D01*
X128106596Y-104418052D01*
X128111139Y-104400630D01*
X128116331Y-104383765D01*
X128122171Y-104367455D01*
X128128661Y-104351703D01*
X128135799Y-104336506D01*
X128143587Y-104321867D01*
X128152023Y-104307784D01*
X128161109Y-104294257D01*
X128170843Y-104281287D01*
X128175954Y-104275010D01*
X128186533Y-104262985D01*
X128197446Y-104251735D01*
X128208692Y-104241261D01*
X128220272Y-104231563D01*
X128232185Y-104222640D01*
X128244432Y-104214494D01*
X128257012Y-104207123D01*
X128269926Y-104200528D01*
X128283174Y-104194710D01*
X128296755Y-104189667D01*
X128310669Y-104185399D01*
X128324918Y-104181908D01*
X128339499Y-104179193D01*
X128354414Y-104177253D01*
X128369663Y-104176089D01*
X128385245Y-104175701D01*
X128399120Y-104175969D01*
G37*
G36*
X129314760Y-104798240D02*
G01*
X129303158Y-104810968D01*
X129291380Y-104822875D01*
X129279426Y-104833961D01*
X129267296Y-104844225D01*
X129254990Y-104853669D01*
X129242508Y-104862291D01*
X129229851Y-104870092D01*
X129217018Y-104877072D01*
X129204008Y-104883231D01*
X129190823Y-104888568D01*
X129177463Y-104893085D01*
X129163926Y-104896780D01*
X129150214Y-104899654D01*
X129136325Y-104901707D01*
X129122261Y-104902939D01*
X129108021Y-104903349D01*
X129093603Y-104903098D01*
X129079643Y-104902344D01*
X129066140Y-104901088D01*
X129053095Y-104899329D01*
X129040508Y-104897067D01*
X129028378Y-104894303D01*
X129016707Y-104891036D01*
X129005493Y-104887267D01*
X128994736Y-104882995D01*
X128984438Y-104878220D01*
X128974597Y-104872943D01*
X128965213Y-104867164D01*
X128956288Y-104860881D01*
X128947820Y-104854096D01*
X128939810Y-104846809D01*
X128932258Y-104839019D01*
X128925163Y-104830726D01*
X128918526Y-104821931D01*
X128912347Y-104812633D01*
X128906626Y-104802833D01*
X128901362Y-104792530D01*
X128896556Y-104781725D01*
X128892208Y-104770416D01*
X128888317Y-104758606D01*
X128884884Y-104746293D01*
X128881909Y-104733477D01*
X128879392Y-104720158D01*
X128877332Y-104706337D01*
X128875730Y-104692014D01*
X128874586Y-104677188D01*
X128873899Y-104661859D01*
X128873670Y-104646027D01*
X128873670Y-104190551D01*
X128996878Y-104190551D01*
X128996878Y-104639763D01*
X128996995Y-104650192D01*
X128997346Y-104660250D01*
X128997931Y-104669937D01*
X128998749Y-104679251D01*
X129000415Y-104692527D01*
X129002608Y-104704966D01*
X129005326Y-104716569D01*
X129008571Y-104727336D01*
X129012341Y-104737267D01*
X129016638Y-104746362D01*
X129021461Y-104754620D01*
X129026810Y-104762043D01*
X129034960Y-104770798D01*
X129044329Y-104778386D01*
X129054915Y-104784807D01*
X129063654Y-104788857D01*
X129073079Y-104792249D01*
X129083188Y-104794985D01*
X129093983Y-104797065D01*
X129105463Y-104798488D01*
X129117629Y-104799254D01*
X129126120Y-104799400D01*
X129138929Y-104798965D01*
X129151603Y-104797659D01*
X129164141Y-104795484D01*
X129176543Y-104792439D01*
X129188809Y-104788523D01*
X129200939Y-104783738D01*
X129212933Y-104778082D01*
X129224791Y-104771556D01*
X129236513Y-104764160D01*
X129248099Y-104755894D01*
X129259549Y-104746758D01*
X129270863Y-104736751D01*
X129282041Y-104725875D01*
X129293084Y-104714128D01*
X129303990Y-104701512D01*
X129314760Y-104688025D01*
X129314760Y-104190551D01*
X129437505Y-104190551D01*
X129437505Y-104888500D01*
X129314760Y-104888500D01*
X129314760Y-104798240D01*
G37*
G36*
X129739377Y-104888500D02*
G01*
X129615936Y-104888500D01*
X129615936Y-104190551D01*
X129739377Y-104190551D01*
X129739377Y-104888500D01*
G37*
G36*
X129739377Y-104071751D02*
G01*
X129615936Y-104071751D01*
X129615936Y-103938102D01*
X129739377Y-103938102D01*
X129739377Y-104071751D01*
G37*
G36*
X130041945Y-104280115D02*
G01*
X130053547Y-104267471D01*
X130065325Y-104255643D01*
X130077280Y-104244631D01*
X130089410Y-104234434D01*
X130101715Y-104225053D01*
X130114197Y-104216488D01*
X130126854Y-104208738D01*
X130139688Y-104201805D01*
X130152697Y-104195687D01*
X130165882Y-104190384D01*
X130179243Y-104185898D01*
X130192779Y-104182227D01*
X130206492Y-104179372D01*
X130220380Y-104177333D01*
X130234444Y-104176109D01*
X130248684Y-104175701D01*
X130263102Y-104175952D01*
X130277063Y-104176705D01*
X130290565Y-104177959D01*
X130303610Y-104179715D01*
X130316197Y-104181972D01*
X130328327Y-104184731D01*
X130339999Y-104187992D01*
X130351213Y-104191755D01*
X130361969Y-104196019D01*
X130372268Y-104200785D01*
X130382109Y-104206053D01*
X130391492Y-104211822D01*
X130400417Y-104218093D01*
X130408885Y-104224865D01*
X130416895Y-104232140D01*
X130424447Y-104239916D01*
X130431542Y-104248193D01*
X130438179Y-104256973D01*
X130444358Y-104266254D01*
X130450079Y-104276036D01*
X130455343Y-104286321D01*
X130460149Y-104297107D01*
X130464498Y-104308394D01*
X130468388Y-104320184D01*
X130471821Y-104332475D01*
X130474796Y-104345268D01*
X130477314Y-104358562D01*
X130479373Y-104372358D01*
X130480975Y-104386656D01*
X130482120Y-104401455D01*
X130482806Y-104416756D01*
X130483035Y-104432559D01*
X130483035Y-104888500D01*
X130359595Y-104888500D01*
X130359595Y-104439288D01*
X130359476Y-104428858D01*
X130359120Y-104418800D01*
X130358526Y-104409114D01*
X130357695Y-104399799D01*
X130356003Y-104386524D01*
X130353777Y-104374085D01*
X130351016Y-104362482D01*
X130347721Y-104351715D01*
X130343892Y-104341784D01*
X130339529Y-104332689D01*
X130334631Y-104324430D01*
X130329199Y-104317008D01*
X130321049Y-104308252D01*
X130311680Y-104300664D01*
X130301094Y-104294243D01*
X130292355Y-104290194D01*
X130282930Y-104286801D01*
X130272821Y-104284065D01*
X130262026Y-104281986D01*
X130250546Y-104280563D01*
X130238380Y-104279797D01*
X130229890Y-104279651D01*
X130218143Y-104280086D01*
X130206396Y-104281391D01*
X130194650Y-104283566D01*
X130182903Y-104286612D01*
X130171157Y-104290527D01*
X130159410Y-104295313D01*
X130147664Y-104300969D01*
X130135917Y-104307495D01*
X130124171Y-104314891D01*
X130112424Y-104323157D01*
X130100677Y-104332293D01*
X130088931Y-104342299D01*
X130077184Y-104353176D01*
X130065438Y-104364922D01*
X130053691Y-104377539D01*
X130041945Y-104391026D01*
X130041945Y-104888500D01*
X129918504Y-104888500D01*
X129918504Y-104190551D01*
X130041945Y-104190551D01*
X130041945Y-104280115D01*
G37*
G36*
X114920258Y-107110000D02*
G01*
X114253230Y-107110000D01*
X114253453Y-107098735D01*
X114254120Y-107087533D01*
X114255231Y-107076394D01*
X114256787Y-107065318D01*
X114258788Y-107054305D01*
X114261233Y-107043356D01*
X114264123Y-107032469D01*
X114267458Y-107021645D01*
X114271237Y-107010884D01*
X114275460Y-107000186D01*
X114280129Y-106989551D01*
X114285242Y-106978978D01*
X114290799Y-106968469D01*
X114296801Y-106958023D01*
X114303248Y-106947640D01*
X114310139Y-106937320D01*
X114317654Y-106926853D01*
X114325912Y-106916090D01*
X114334912Y-106905031D01*
X114344654Y-106893677D01*
X114355138Y-106882026D01*
X114366365Y-106870081D01*
X114378333Y-106857839D01*
X114391045Y-106845301D01*
X114404498Y-106832468D01*
X114418694Y-106819339D01*
X114426070Y-106812664D01*
X114433631Y-106805914D01*
X114441379Y-106799091D01*
X114449312Y-106792194D01*
X114457430Y-106785223D01*
X114465734Y-106778177D01*
X114474224Y-106771058D01*
X114482899Y-106763865D01*
X114491760Y-106756598D01*
X114500806Y-106749258D01*
X114510038Y-106741843D01*
X114519455Y-106734354D01*
X114528872Y-106726861D01*
X114538101Y-106719463D01*
X114547142Y-106712160D01*
X114555996Y-106704953D01*
X114564663Y-106697842D01*
X114573142Y-106690825D01*
X114581433Y-106683904D01*
X114589538Y-106677079D01*
X114597454Y-106670349D01*
X114605183Y-106663714D01*
X114612725Y-106657175D01*
X114620079Y-106650731D01*
X114634225Y-106638130D01*
X114647622Y-106625910D01*
X114660268Y-106614072D01*
X114672164Y-106602616D01*
X114683311Y-106591541D01*
X114693707Y-106580847D01*
X114703354Y-106570536D01*
X114712251Y-106560606D01*
X114720397Y-106551057D01*
X114727794Y-106541891D01*
X114734626Y-106532839D01*
X114741018Y-106523637D01*
X114746968Y-106514285D01*
X114752478Y-106504781D01*
X114757547Y-106495127D01*
X114762175Y-106485322D01*
X114766363Y-106475366D01*
X114770109Y-106465259D01*
X114773415Y-106455002D01*
X114776280Y-106444594D01*
X114778705Y-106434035D01*
X114780688Y-106423326D01*
X114782231Y-106412466D01*
X114783333Y-106401455D01*
X114783994Y-106390293D01*
X114784214Y-106378981D01*
X114784026Y-106368889D01*
X114783463Y-106359071D01*
X114781912Y-106344855D01*
X114779516Y-106331253D01*
X114776273Y-106318265D01*
X114772185Y-106305891D01*
X114767252Y-106294131D01*
X114761472Y-106282985D01*
X114754847Y-106272452D01*
X114747376Y-106262534D01*
X114739059Y-106253230D01*
X114736099Y-106250265D01*
X114726733Y-106241884D01*
X114716681Y-106234328D01*
X114705942Y-106227596D01*
X114694516Y-106221688D01*
X114682403Y-106216605D01*
X114669603Y-106212346D01*
X114656117Y-106208911D01*
X114641943Y-106206301D01*
X114632112Y-106205019D01*
X114621976Y-106204103D01*
X114611535Y-106203553D01*
X114600788Y-106203370D01*
X114586828Y-106203789D01*
X114573251Y-106205044D01*
X114560055Y-106207137D01*
X114547242Y-106210068D01*
X114534810Y-106213835D01*
X114522761Y-106218440D01*
X114511094Y-106223881D01*
X114499809Y-106230160D01*
X114488906Y-106237277D01*
X114478385Y-106245230D01*
X114471584Y-106250997D01*
X114461964Y-106260320D01*
X114453165Y-106270429D01*
X114445186Y-106281323D01*
X114438027Y-106293003D01*
X114431688Y-106305469D01*
X114426169Y-106318720D01*
X114422945Y-106327991D01*
X114420086Y-106337611D01*
X114417591Y-106347580D01*
X114415460Y-106357898D01*
X114413694Y-106368566D01*
X114412293Y-106379583D01*
X114411256Y-106390949D01*
X114277411Y-106390949D01*
X114279080Y-106374247D01*
X114281341Y-106357972D01*
X114284194Y-106342122D01*
X114287638Y-106326697D01*
X114291674Y-106311698D01*
X114296301Y-106297125D01*
X114301520Y-106282977D01*
X114307330Y-106269255D01*
X114313732Y-106255958D01*
X114320725Y-106243086D01*
X114328310Y-106230640D01*
X114336487Y-106218620D01*
X114345255Y-106207025D01*
X114354614Y-106195856D01*
X114364565Y-106185112D01*
X114375108Y-106174794D01*
X114386190Y-106165004D01*
X114397700Y-106155846D01*
X114409637Y-106147319D01*
X114422002Y-106139424D01*
X114434795Y-106132161D01*
X114448014Y-106125529D01*
X114461661Y-106119529D01*
X114475736Y-106114160D01*
X114490238Y-106109423D01*
X114505167Y-106105318D01*
X114520524Y-106101844D01*
X114536308Y-106099002D01*
X114552520Y-106096791D01*
X114569159Y-106095212D01*
X114586225Y-106094265D01*
X114603719Y-106093949D01*
X114622257Y-106094260D01*
X114640256Y-106095193D01*
X114657718Y-106096749D01*
X114674641Y-106098926D01*
X114691026Y-106101725D01*
X114706873Y-106105146D01*
X114722182Y-106109190D01*
X114736953Y-106113855D01*
X114751186Y-106119143D01*
X114764881Y-106125052D01*
X114778038Y-106131584D01*
X114790656Y-106138737D01*
X114802737Y-106146513D01*
X114814279Y-106154911D01*
X114825283Y-106163931D01*
X114835750Y-106173572D01*
X114845658Y-106183652D01*
X114854927Y-106194047D01*
X114863556Y-106204756D01*
X114871547Y-106215781D01*
X114878898Y-106227120D01*
X114885610Y-106238774D01*
X114891682Y-106250743D01*
X114897116Y-106263026D01*
X114901910Y-106275625D01*
X114906065Y-106288538D01*
X114909581Y-106301767D01*
X114912457Y-106315310D01*
X114914694Y-106329168D01*
X114916293Y-106343340D01*
X114917251Y-106357828D01*
X114917571Y-106372630D01*
X114917334Y-106386057D01*
X114916625Y-106399287D01*
X114915442Y-106412321D01*
X114913785Y-106425158D01*
X114911656Y-106437798D01*
X114909053Y-106450242D01*
X114905977Y-106462490D01*
X114902428Y-106474541D01*
X114898406Y-106486395D01*
X114893910Y-106498053D01*
X114888941Y-106509514D01*
X114883499Y-106520779D01*
X114877584Y-106531847D01*
X114871195Y-106542719D01*
X114864334Y-106553394D01*
X114856999Y-106563872D01*
X114848991Y-106574475D01*
X114840051Y-106585583D01*
X114830177Y-106597197D01*
X114819370Y-106609317D01*
X114807630Y-106621942D01*
X114794957Y-106635073D01*
X114781351Y-106648710D01*
X114774198Y-106655718D01*
X114766812Y-106662852D01*
X114759193Y-106670113D01*
X114751340Y-106677500D01*
X114743254Y-106685013D01*
X114734935Y-106692653D01*
X114726382Y-106700420D01*
X114717596Y-106708313D01*
X114708577Y-106716332D01*
X114699325Y-106724477D01*
X114689839Y-106732749D01*
X114680120Y-106741148D01*
X114670168Y-106749673D01*
X114659983Y-106758324D01*
X114649564Y-106767102D01*
X114638912Y-106776006D01*
X114628027Y-106785037D01*
X114616908Y-106794193D01*
X114605860Y-106803312D01*
X114595156Y-106812226D01*
X114584796Y-106820937D01*
X114574780Y-106829445D01*
X114565108Y-106837748D01*
X114555780Y-106845848D01*
X114546795Y-106853744D01*
X114538155Y-106861437D01*
X114529859Y-106868925D01*
X114521906Y-106876210D01*
X114514298Y-106883292D01*
X114507033Y-106890169D01*
X114493536Y-106903314D01*
X114481414Y-106915643D01*
X114470669Y-106927158D01*
X114461299Y-106937858D01*
X114453304Y-106947743D01*
X114446686Y-106956813D01*
X114441443Y-106965069D01*
X114436159Y-106975925D01*
X114433970Y-106984947D01*
X114920258Y-106984947D01*
X114920258Y-107110000D01*
G37*
D10*
X145958093Y-101551053D02*
X145958093Y-101884386D01*
X145958093Y-101884386D02*
X146291426Y-101917719D01*
X146291426Y-101917719D02*
X146258093Y-101884386D01*
X146258093Y-101884386D02*
X146224760Y-101817719D01*
X146224760Y-101817719D02*
X146224760Y-101651053D01*
X146224760Y-101651053D02*
X146258093Y-101584386D01*
X146258093Y-101584386D02*
X146291426Y-101551053D01*
X146291426Y-101551053D02*
X146358093Y-101517719D01*
X146358093Y-101517719D02*
X146524760Y-101517719D01*
X146524760Y-101517719D02*
X146591426Y-101551053D01*
X146591426Y-101551053D02*
X146624760Y-101584386D01*
X146624760Y-101584386D02*
X146658093Y-101651053D01*
X146658093Y-101651053D02*
X146658093Y-101817719D01*
X146658093Y-101817719D02*
X146624760Y-101884386D01*
X146624760Y-101884386D02*
X146591426Y-101917719D01*
X146191426Y-101284386D02*
X146658093Y-101117719D01*
X146658093Y-101117719D02*
X146191426Y-100951052D01*
X145958093Y-100551053D02*
X145958093Y-100484386D01*
X145958093Y-100484386D02*
X145991426Y-100417719D01*
X145991426Y-100417719D02*
X146024760Y-100384386D01*
X146024760Y-100384386D02*
X146091426Y-100351053D01*
X146091426Y-100351053D02*
X146224760Y-100317719D01*
X146224760Y-100317719D02*
X146391426Y-100317719D01*
X146391426Y-100317719D02*
X146524760Y-100351053D01*
X146524760Y-100351053D02*
X146591426Y-100384386D01*
X146591426Y-100384386D02*
X146624760Y-100417719D01*
X146624760Y-100417719D02*
X146658093Y-100484386D01*
X146658093Y-100484386D02*
X146658093Y-100551053D01*
X146658093Y-100551053D02*
X146624760Y-100617719D01*
X146624760Y-100617719D02*
X146591426Y-100651053D01*
X146591426Y-100651053D02*
X146524760Y-100684386D01*
X146524760Y-100684386D02*
X146391426Y-100717719D01*
X146391426Y-100717719D02*
X146224760Y-100717719D01*
X146224760Y-100717719D02*
X146091426Y-100684386D01*
X146091426Y-100684386D02*
X146024760Y-100651053D01*
X146024760Y-100651053D02*
X145991426Y-100617719D01*
X145991426Y-100617719D02*
X145958093Y-100551053D01*
X150978093Y-101982720D02*
X150978093Y-101549386D01*
X150978093Y-101549386D02*
X151244760Y-101782720D01*
X151244760Y-101782720D02*
X151244760Y-101682720D01*
X151244760Y-101682720D02*
X151278093Y-101616053D01*
X151278093Y-101616053D02*
X151311426Y-101582720D01*
X151311426Y-101582720D02*
X151378093Y-101549386D01*
X151378093Y-101549386D02*
X151544760Y-101549386D01*
X151544760Y-101549386D02*
X151611426Y-101582720D01*
X151611426Y-101582720D02*
X151644760Y-101616053D01*
X151644760Y-101616053D02*
X151678093Y-101682720D01*
X151678093Y-101682720D02*
X151678093Y-101882720D01*
X151678093Y-101882720D02*
X151644760Y-101949386D01*
X151644760Y-101949386D02*
X151611426Y-101982720D01*
X151211426Y-101316053D02*
X151678093Y-101149386D01*
X151678093Y-101149386D02*
X151211426Y-100982719D01*
X150978093Y-100782720D02*
X150978093Y-100349386D01*
X150978093Y-100349386D02*
X151244760Y-100582720D01*
X151244760Y-100582720D02*
X151244760Y-100482720D01*
X151244760Y-100482720D02*
X151278093Y-100416053D01*
X151278093Y-100416053D02*
X151311426Y-100382720D01*
X151311426Y-100382720D02*
X151378093Y-100349386D01*
X151378093Y-100349386D02*
X151544760Y-100349386D01*
X151544760Y-100349386D02*
X151611426Y-100382720D01*
X151611426Y-100382720D02*
X151644760Y-100416053D01*
X151644760Y-100416053D02*
X151678093Y-100482720D01*
X151678093Y-100482720D02*
X151678093Y-100682720D01*
X151678093Y-100682720D02*
X151644760Y-100749386D01*
X151644760Y-100749386D02*
X151611426Y-100782720D01*
D11*
G36*
X133811282Y-104563611D02*
G01*
X133811215Y-104574389D01*
X133811016Y-104584969D01*
X133810684Y-104595351D01*
X133810220Y-104605536D01*
X133809622Y-104615523D01*
X133808892Y-104625313D01*
X133808029Y-104634905D01*
X133807033Y-104644300D01*
X133804643Y-104662496D01*
X133801721Y-104679902D01*
X133798269Y-104696518D01*
X133794286Y-104712343D01*
X133789771Y-104727378D01*
X133784725Y-104741622D01*
X133779148Y-104755076D01*
X133773040Y-104767740D01*
X133766401Y-104779614D01*
X133759231Y-104790697D01*
X133751529Y-104800989D01*
X133743297Y-104810492D01*
X133734575Y-104819314D01*
X133725347Y-104827568D01*
X133715614Y-104835252D01*
X133705374Y-104842367D01*
X133694629Y-104848913D01*
X133683378Y-104854889D01*
X133671622Y-104860297D01*
X133659360Y-104865135D01*
X133646592Y-104869404D01*
X133633318Y-104873104D01*
X133619538Y-104876234D01*
X133605253Y-104878796D01*
X133590462Y-104880788D01*
X133575165Y-104882211D01*
X133559363Y-104883065D01*
X133543054Y-104883349D01*
X133528398Y-104883074D01*
X133514130Y-104882247D01*
X133500250Y-104880870D01*
X133486758Y-104878941D01*
X133473654Y-104876461D01*
X133460937Y-104873430D01*
X133448609Y-104869848D01*
X133436668Y-104865715D01*
X133425116Y-104861031D01*
X133413951Y-104855796D01*
X133403174Y-104850010D01*
X133392785Y-104843672D01*
X133382785Y-104836784D01*
X133373172Y-104829344D01*
X133363947Y-104821354D01*
X133355109Y-104812812D01*
X133346736Y-104803789D01*
X133338904Y-104794413D01*
X133331611Y-104784683D01*
X133324858Y-104774600D01*
X133318646Y-104764163D01*
X133312974Y-104753372D01*
X133307842Y-104742229D01*
X133303251Y-104730731D01*
X133299199Y-104718880D01*
X133295688Y-104706676D01*
X133292717Y-104694118D01*
X133290286Y-104681207D01*
X133288395Y-104667942D01*
X133287045Y-104654324D01*
X133286234Y-104640353D01*
X133285964Y-104626027D01*
X133285964Y-104601200D01*
X133413117Y-104601200D01*
X133413244Y-104611250D01*
X133413625Y-104620981D01*
X133414259Y-104630392D01*
X133416289Y-104648259D01*
X133419335Y-104664849D01*
X133423395Y-104680163D01*
X133428471Y-104694201D01*
X133434562Y-104706963D01*
X133441668Y-104718448D01*
X133449789Y-104728657D01*
X133458925Y-104737591D01*
X133469076Y-104745248D01*
X133480243Y-104751629D01*
X133492424Y-104756733D01*
X133505621Y-104760562D01*
X133519833Y-104763114D01*
X133535060Y-104764390D01*
X133543054Y-104764550D01*
X133555607Y-104764217D01*
X133567597Y-104763220D01*
X133579024Y-104761558D01*
X133589888Y-104759231D01*
X133600190Y-104756239D01*
X133609928Y-104752583D01*
X133619104Y-104748262D01*
X133627716Y-104743275D01*
X133635766Y-104737624D01*
X133643253Y-104731309D01*
X133647932Y-104726729D01*
X133654484Y-104718847D01*
X133660391Y-104709473D01*
X133665654Y-104698606D01*
X133670272Y-104686247D01*
X133672993Y-104677177D01*
X133675428Y-104667445D01*
X133677576Y-104657049D01*
X133679438Y-104645989D01*
X133681013Y-104634266D01*
X133682302Y-104621880D01*
X133683304Y-104608830D01*
X133684020Y-104595117D01*
X133684450Y-104580740D01*
X133684593Y-104565699D01*
X133684593Y-103918102D01*
X133811282Y-103918102D01*
X133811282Y-104563611D01*
G37*
G36*
X134443797Y-104778240D02*
G01*
X134432195Y-104790968D01*
X134420417Y-104802875D01*
X134408463Y-104813961D01*
X134396333Y-104824225D01*
X134384027Y-104833669D01*
X134371545Y-104842291D01*
X134358888Y-104850092D01*
X134346055Y-104857072D01*
X134333045Y-104863231D01*
X134319860Y-104868568D01*
X134306500Y-104873085D01*
X134292963Y-104876780D01*
X134279251Y-104879654D01*
X134265362Y-104881707D01*
X134251298Y-104882939D01*
X134237058Y-104883349D01*
X134222640Y-104883098D01*
X134208680Y-104882344D01*
X134195177Y-104881088D01*
X134182132Y-104879329D01*
X134169545Y-104877067D01*
X134157415Y-104874303D01*
X134145744Y-104871036D01*
X134134530Y-104867267D01*
X134123773Y-104862995D01*
X134113475Y-104858220D01*
X134103634Y-104852943D01*
X134094250Y-104847164D01*
X134085325Y-104840881D01*
X134076857Y-104834096D01*
X134068847Y-104826809D01*
X134061295Y-104819019D01*
X134054200Y-104810726D01*
X134047563Y-104801931D01*
X134041384Y-104792633D01*
X134035663Y-104782833D01*
X134030399Y-104772530D01*
X134025593Y-104761725D01*
X134021245Y-104750416D01*
X134017354Y-104738606D01*
X134013921Y-104726293D01*
X134010946Y-104713477D01*
X134008429Y-104700158D01*
X134006369Y-104686337D01*
X134004767Y-104672014D01*
X134003623Y-104657188D01*
X134002936Y-104641859D01*
X134002707Y-104626027D01*
X134002707Y-104170551D01*
X134125915Y-104170551D01*
X134125915Y-104619763D01*
X134126032Y-104630192D01*
X134126383Y-104640250D01*
X134126968Y-104649937D01*
X134127786Y-104659251D01*
X134129452Y-104672527D01*
X134131645Y-104684966D01*
X134134363Y-104696569D01*
X134137608Y-104707336D01*
X134141378Y-104717267D01*
X134145675Y-104726362D01*
X134150498Y-104734620D01*
X134155847Y-104742043D01*
X134163997Y-104750798D01*
X134173366Y-104758386D01*
X134183952Y-104764807D01*
X134192691Y-104768857D01*
X134202116Y-104772249D01*
X134212225Y-104774985D01*
X134223020Y-104777065D01*
X134234500Y-104778488D01*
X134246666Y-104779254D01*
X134255157Y-104779400D01*
X134267966Y-104778965D01*
X134280640Y-104777659D01*
X134293178Y-104775484D01*
X134305580Y-104772439D01*
X134317846Y-104768523D01*
X134329976Y-104763738D01*
X134341970Y-104758082D01*
X134353828Y-104751556D01*
X134365550Y-104744160D01*
X134377136Y-104735894D01*
X134388586Y-104726758D01*
X134399900Y-104716751D01*
X134411078Y-104705875D01*
X134422121Y-104694128D01*
X134433027Y-104681512D01*
X134443797Y-104668025D01*
X134443797Y-104170551D01*
X134566542Y-104170551D01*
X134566542Y-104868500D01*
X134443797Y-104868500D01*
X134443797Y-104778240D01*
G37*
G36*
X134868414Y-104260115D02*
G01*
X134880016Y-104247471D01*
X134891794Y-104235643D01*
X134903748Y-104224631D01*
X134915878Y-104214434D01*
X134928184Y-104205053D01*
X134940666Y-104196488D01*
X134953323Y-104188738D01*
X134966157Y-104181805D01*
X134979166Y-104175687D01*
X134992351Y-104170384D01*
X135005711Y-104165898D01*
X135019248Y-104162227D01*
X135032961Y-104159372D01*
X135046849Y-104157333D01*
X135060913Y-104156109D01*
X135075153Y-104155701D01*
X135089571Y-104155952D01*
X135103531Y-104156705D01*
X135117034Y-104157959D01*
X135130079Y-104159715D01*
X135142666Y-104161972D01*
X135154796Y-104164731D01*
X135166468Y-104167992D01*
X135177682Y-104171755D01*
X135188438Y-104176019D01*
X135198737Y-104180785D01*
X135208577Y-104186053D01*
X135217961Y-104191822D01*
X135226886Y-104198093D01*
X135235354Y-104204865D01*
X135243364Y-104212140D01*
X135250916Y-104219916D01*
X135258011Y-104228193D01*
X135264648Y-104236973D01*
X135270827Y-104246254D01*
X135276548Y-104256036D01*
X135281812Y-104266321D01*
X135286618Y-104277107D01*
X135290967Y-104288394D01*
X135294857Y-104300184D01*
X135298290Y-104312475D01*
X135301265Y-104325268D01*
X135303783Y-104338562D01*
X135305842Y-104352358D01*
X135307444Y-104366656D01*
X135308589Y-104381455D01*
X135309275Y-104396756D01*
X135309504Y-104412559D01*
X135309504Y-104868500D01*
X135186064Y-104868500D01*
X135186064Y-104419288D01*
X135185945Y-104408858D01*
X135185589Y-104398800D01*
X135184995Y-104389114D01*
X135184164Y-104379799D01*
X135182472Y-104366524D01*
X135180246Y-104354085D01*
X135177485Y-104342482D01*
X135174190Y-104331715D01*
X135170361Y-104321784D01*
X135165998Y-104312689D01*
X135161100Y-104304430D01*
X135155668Y-104297008D01*
X135147518Y-104288252D01*
X135138149Y-104280664D01*
X135127563Y-104274243D01*
X135118824Y-104270194D01*
X135109399Y-104266801D01*
X135099290Y-104264065D01*
X135088495Y-104261986D01*
X135077015Y-104260563D01*
X135064849Y-104259797D01*
X135056359Y-104259651D01*
X135044612Y-104260086D01*
X135032865Y-104261391D01*
X135021119Y-104263566D01*
X135009372Y-104266612D01*
X134997626Y-104270527D01*
X134985879Y-104275313D01*
X134974133Y-104280969D01*
X134962386Y-104287495D01*
X134950640Y-104294891D01*
X134938893Y-104303157D01*
X134927146Y-104312293D01*
X134915400Y-104322299D01*
X134903653Y-104333176D01*
X134891907Y-104344922D01*
X134880160Y-104357539D01*
X134868414Y-104371026D01*
X134868414Y-104868500D01*
X134744973Y-104868500D01*
X134744973Y-104170551D01*
X134868414Y-104170551D01*
X134868414Y-104260115D01*
G37*
G36*
X135608128Y-104868500D02*
G01*
X135484687Y-104868500D01*
X135484687Y-104170551D01*
X135608128Y-104170551D01*
X135608128Y-104868500D01*
G37*
G36*
X135608128Y-104051751D02*
G01*
X135484687Y-104051751D01*
X135484687Y-103918102D01*
X135608128Y-103918102D01*
X135608128Y-104051751D01*
G37*
G36*
X136086284Y-104156073D02*
G01*
X136104090Y-104157188D01*
X136121429Y-104159046D01*
X136138303Y-104161647D01*
X136154711Y-104164991D01*
X136170653Y-104169079D01*
X136186130Y-104173910D01*
X136201140Y-104179484D01*
X136215685Y-104185802D01*
X136229763Y-104192862D01*
X136243376Y-104200666D01*
X136256523Y-104209213D01*
X136269204Y-104218504D01*
X136281419Y-104228537D01*
X136293168Y-104239314D01*
X136304452Y-104250834D01*
X136315157Y-104263004D01*
X136325171Y-104275792D01*
X136334495Y-104289195D01*
X136343128Y-104303215D01*
X136351071Y-104317851D01*
X136358323Y-104333103D01*
X136364884Y-104348972D01*
X136370754Y-104365457D01*
X136375934Y-104382558D01*
X136380424Y-104400276D01*
X136382409Y-104409366D01*
X136384222Y-104418610D01*
X136385863Y-104428008D01*
X136387330Y-104437560D01*
X136388625Y-104447267D01*
X136389747Y-104457127D01*
X136390697Y-104467142D01*
X136391474Y-104477310D01*
X136392078Y-104487633D01*
X136392510Y-104498110D01*
X136392769Y-104508740D01*
X136392855Y-104519525D01*
X136392769Y-104530268D01*
X136392510Y-104540859D01*
X136392078Y-104551297D01*
X136391474Y-104561585D01*
X136390697Y-104571720D01*
X136389747Y-104581703D01*
X136388625Y-104591535D01*
X136387330Y-104601215D01*
X136385863Y-104610743D01*
X136384222Y-104620119D01*
X136382409Y-104629343D01*
X136380424Y-104638416D01*
X136375934Y-104656105D01*
X136370754Y-104673188D01*
X136364884Y-104689663D01*
X136358323Y-104705531D01*
X136351071Y-104720791D01*
X136343128Y-104735444D01*
X136334495Y-104749490D01*
X136325171Y-104762929D01*
X136315157Y-104775761D01*
X136304452Y-104787985D01*
X136293168Y-104799533D01*
X136281419Y-104810336D01*
X136269204Y-104820394D01*
X136256523Y-104829707D01*
X136243376Y-104838275D01*
X136229763Y-104846098D01*
X136215685Y-104853176D01*
X136201140Y-104859508D01*
X136186130Y-104865096D01*
X136170653Y-104869939D01*
X136154711Y-104874037D01*
X136138303Y-104877389D01*
X136121429Y-104879997D01*
X136104090Y-104881859D01*
X136086284Y-104882977D01*
X136068012Y-104883349D01*
X136049797Y-104882977D01*
X136032044Y-104881859D01*
X136014753Y-104879997D01*
X135997925Y-104877389D01*
X135981558Y-104874037D01*
X135965654Y-104869939D01*
X135950212Y-104865096D01*
X135935233Y-104859508D01*
X135920716Y-104853176D01*
X135906660Y-104846098D01*
X135893068Y-104838275D01*
X135879937Y-104829707D01*
X135867269Y-104820394D01*
X135855063Y-104810336D01*
X135843319Y-104799533D01*
X135832037Y-104787985D01*
X135821332Y-104775761D01*
X135811318Y-104762929D01*
X135801994Y-104749490D01*
X135793361Y-104735444D01*
X135785418Y-104720791D01*
X135778166Y-104705531D01*
X135771605Y-104689663D01*
X135765734Y-104673188D01*
X135760555Y-104656105D01*
X135756065Y-104638416D01*
X135754080Y-104629343D01*
X135752267Y-104620119D01*
X135750626Y-104610743D01*
X135749159Y-104601215D01*
X135747864Y-104591535D01*
X135746741Y-104581703D01*
X135745792Y-104571720D01*
X135745015Y-104561585D01*
X135744410Y-104551297D01*
X135743979Y-104540859D01*
X135743720Y-104530268D01*
X135743635Y-104519757D01*
X135870090Y-104519757D01*
X135870304Y-104535635D01*
X135870946Y-104551016D01*
X135872015Y-104565901D01*
X135873513Y-104580288D01*
X135875438Y-104594179D01*
X135877791Y-104607574D01*
X135880571Y-104620471D01*
X135883780Y-104632872D01*
X135887416Y-104644777D01*
X135891481Y-104656184D01*
X135895973Y-104667095D01*
X135900892Y-104677509D01*
X135906240Y-104687427D01*
X135912015Y-104696848D01*
X135918218Y-104705772D01*
X135924849Y-104714199D01*
X135931853Y-104722094D01*
X135939116Y-104729480D01*
X135946638Y-104736357D01*
X135954419Y-104742724D01*
X135962459Y-104748582D01*
X135970759Y-104753931D01*
X135979318Y-104758770D01*
X135988136Y-104763100D01*
X135997213Y-104766920D01*
X136006550Y-104770231D01*
X136016145Y-104773032D01*
X136026000Y-104775325D01*
X136036115Y-104777107D01*
X136046488Y-104778381D01*
X136057121Y-104779145D01*
X136068012Y-104779400D01*
X136078875Y-104779145D01*
X136089479Y-104778381D01*
X136099823Y-104777107D01*
X136109908Y-104775325D01*
X136119734Y-104773032D01*
X136129301Y-104770231D01*
X136138609Y-104766920D01*
X136147657Y-104763100D01*
X136156446Y-104758770D01*
X136164976Y-104753931D01*
X136173246Y-104748582D01*
X136181258Y-104742724D01*
X136189010Y-104736357D01*
X136196503Y-104729480D01*
X136203737Y-104722094D01*
X136210711Y-104714199D01*
X136217370Y-104705772D01*
X136223600Y-104696848D01*
X136229400Y-104687427D01*
X136234770Y-104677509D01*
X136239711Y-104667095D01*
X136244222Y-104656184D01*
X136248303Y-104644777D01*
X136251955Y-104632872D01*
X136255177Y-104620471D01*
X136257969Y-104607574D01*
X136260332Y-104594179D01*
X136262266Y-104580288D01*
X136263769Y-104565901D01*
X136264843Y-104551016D01*
X136265488Y-104535635D01*
X136265703Y-104519757D01*
X136265488Y-104503824D01*
X136264843Y-104488393D01*
X136263769Y-104473465D01*
X136262266Y-104459038D01*
X136260332Y-104445113D01*
X136257969Y-104431691D01*
X136255177Y-104418771D01*
X136251955Y-104406352D01*
X136248303Y-104394436D01*
X136244222Y-104383022D01*
X136239711Y-104372111D01*
X136234770Y-104361701D01*
X136229400Y-104351793D01*
X136223600Y-104342388D01*
X136217370Y-104333485D01*
X136210711Y-104325084D01*
X136203737Y-104317160D01*
X136196503Y-104309748D01*
X136189010Y-104302847D01*
X136181258Y-104296457D01*
X136173246Y-104290578D01*
X136164976Y-104285211D01*
X136156446Y-104280354D01*
X136147657Y-104276009D01*
X136138609Y-104272175D01*
X136129301Y-104268852D01*
X136119734Y-104266041D01*
X136109908Y-104263740D01*
X136099823Y-104261951D01*
X136089479Y-104260673D01*
X136078875Y-104259907D01*
X136068012Y-104259651D01*
X136057121Y-104259907D01*
X136046488Y-104260673D01*
X136036115Y-104261951D01*
X136026000Y-104263740D01*
X136016145Y-104266041D01*
X136006550Y-104268852D01*
X135997213Y-104272175D01*
X135988136Y-104276009D01*
X135979318Y-104280354D01*
X135970759Y-104285211D01*
X135962459Y-104290578D01*
X135954419Y-104296457D01*
X135946638Y-104302847D01*
X135939116Y-104309748D01*
X135931853Y-104317160D01*
X135924849Y-104325084D01*
X135918218Y-104333485D01*
X135912015Y-104342388D01*
X135906240Y-104351793D01*
X135900892Y-104361701D01*
X135895973Y-104372111D01*
X135891481Y-104383022D01*
X135887416Y-104394436D01*
X135883780Y-104406352D01*
X135880571Y-104418771D01*
X135877791Y-104431691D01*
X135875438Y-104445113D01*
X135873513Y-104459038D01*
X135872015Y-104473465D01*
X135870946Y-104488393D01*
X135870304Y-104503824D01*
X135870090Y-104519757D01*
X135743635Y-104519757D01*
X135743633Y-104519525D01*
X135743720Y-104508740D01*
X135743979Y-104498110D01*
X135744410Y-104487633D01*
X135745015Y-104477310D01*
X135745792Y-104467142D01*
X135746741Y-104457127D01*
X135747864Y-104447267D01*
X135749159Y-104437560D01*
X135750626Y-104428008D01*
X135752267Y-104418610D01*
X135754080Y-104409366D01*
X135756065Y-104400276D01*
X135760555Y-104382558D01*
X135765734Y-104365457D01*
X135771605Y-104348972D01*
X135778166Y-104333103D01*
X135785418Y-104317851D01*
X135793361Y-104303215D01*
X135801994Y-104289195D01*
X135811318Y-104275792D01*
X135821332Y-104263004D01*
X135832037Y-104250834D01*
X135843319Y-104239314D01*
X135855063Y-104228537D01*
X135867269Y-104218504D01*
X135879937Y-104209213D01*
X135893068Y-104200666D01*
X135906660Y-104192862D01*
X135920716Y-104185802D01*
X135935233Y-104179484D01*
X135950212Y-104173910D01*
X135965654Y-104169079D01*
X135981558Y-104164991D01*
X135997925Y-104161647D01*
X136014753Y-104159046D01*
X136032044Y-104157188D01*
X136049797Y-104156073D01*
X136068012Y-104155701D01*
X136086284Y-104156073D01*
G37*
G36*
X136886617Y-104267540D02*
G01*
X136876064Y-104264859D01*
X136866036Y-104263048D01*
X136854887Y-104261623D01*
X136845159Y-104260760D01*
X136834714Y-104260144D01*
X136823552Y-104259774D01*
X136811671Y-104259651D01*
X136800028Y-104260050D01*
X136788595Y-104261246D01*
X136777369Y-104263240D01*
X136766352Y-104266032D01*
X136755544Y-104269621D01*
X136744944Y-104274008D01*
X136734552Y-104279192D01*
X136724369Y-104285174D01*
X136714395Y-104291954D01*
X136704629Y-104299531D01*
X136695071Y-104307906D01*
X136685722Y-104317079D01*
X136676581Y-104327049D01*
X136667649Y-104337816D01*
X136658925Y-104349382D01*
X136650409Y-104361744D01*
X136650409Y-104868500D01*
X136526969Y-104868500D01*
X136526969Y-104170551D01*
X136650409Y-104170551D01*
X136650409Y-104267076D01*
X136660222Y-104253589D01*
X136670226Y-104240972D01*
X136680423Y-104229226D01*
X136690812Y-104218349D01*
X136701393Y-104208343D01*
X136712166Y-104199207D01*
X136723131Y-104190941D01*
X136734289Y-104183545D01*
X136745638Y-104177019D01*
X136757180Y-104171363D01*
X136768914Y-104166578D01*
X136780840Y-104162662D01*
X136792958Y-104159617D01*
X136805268Y-104157441D01*
X136817771Y-104156136D01*
X136830465Y-104155701D01*
X136840428Y-104155856D01*
X136850652Y-104156321D01*
X136861137Y-104157096D01*
X136871883Y-104158181D01*
X136882890Y-104159576D01*
X136886617Y-104160110D01*
X136886617Y-104267540D01*
G37*
G36*
X137732833Y-104868500D02*
G01*
X137610088Y-104868500D01*
X137610088Y-104133658D01*
X137600460Y-104139924D01*
X137590195Y-104145785D01*
X137579295Y-104151243D01*
X137567757Y-104156296D01*
X137555584Y-104160945D01*
X137542774Y-104165189D01*
X137529328Y-104169029D01*
X137515246Y-104172465D01*
X137500527Y-104175497D01*
X137485173Y-104178125D01*
X137469181Y-104180348D01*
X137452554Y-104182167D01*
X137435290Y-104183582D01*
X137417391Y-104184593D01*
X137398854Y-104185199D01*
X137389348Y-104185351D01*
X137379682Y-104185401D01*
X137379682Y-104081451D01*
X137393576Y-104081277D01*
X137407094Y-104080755D01*
X137420238Y-104079885D01*
X137433006Y-104078667D01*
X137445398Y-104077101D01*
X137457416Y-104075187D01*
X137469058Y-104072924D01*
X137480325Y-104070314D01*
X137491217Y-104067355D01*
X137501734Y-104064049D01*
X137511875Y-104060395D01*
X137521641Y-104056392D01*
X137531032Y-104052041D01*
X137540048Y-104047343D01*
X137548688Y-104042296D01*
X137556953Y-104036901D01*
X137564843Y-104031159D01*
X137572358Y-104025068D01*
X137579498Y-104018629D01*
X137586262Y-104011842D01*
X137592651Y-104004707D01*
X137598665Y-103997224D01*
X137604303Y-103989393D01*
X137609566Y-103981214D01*
X137614454Y-103972687D01*
X137618967Y-103963812D01*
X137623105Y-103954589D01*
X137626867Y-103945017D01*
X137630254Y-103935098D01*
X137633266Y-103924831D01*
X137635903Y-103914215D01*
X137638164Y-103903252D01*
X137732833Y-103903252D01*
X137732833Y-104868500D01*
G37*
G36*
X138223810Y-104868500D02*
G01*
X138090160Y-104868500D01*
X138090160Y-104734850D01*
X138223810Y-104734850D01*
X138223810Y-104868500D01*
G37*
G36*
X138841939Y-104868500D02*
G01*
X138719195Y-104868500D01*
X138719195Y-104133658D01*
X138709567Y-104139924D01*
X138699302Y-104145785D01*
X138688401Y-104151243D01*
X138676864Y-104156296D01*
X138664691Y-104160945D01*
X138651881Y-104165189D01*
X138638435Y-104169029D01*
X138624353Y-104172465D01*
X138609634Y-104175497D01*
X138594279Y-104178125D01*
X138578288Y-104180348D01*
X138561661Y-104182167D01*
X138544397Y-104183582D01*
X138526497Y-104184593D01*
X138507961Y-104185199D01*
X138498455Y-104185351D01*
X138488789Y-104185401D01*
X138488789Y-104081451D01*
X138502682Y-104081277D01*
X138516201Y-104080755D01*
X138529344Y-104079885D01*
X138542112Y-104078667D01*
X138554505Y-104077101D01*
X138566523Y-104075187D01*
X138578165Y-104072924D01*
X138589432Y-104070314D01*
X138600324Y-104067355D01*
X138610841Y-104064049D01*
X138620982Y-104060395D01*
X138630748Y-104056392D01*
X138640139Y-104052041D01*
X138649155Y-104047343D01*
X138657795Y-104042296D01*
X138666060Y-104036901D01*
X138673950Y-104031159D01*
X138681465Y-104025068D01*
X138688604Y-104018629D01*
X138695369Y-104011842D01*
X138701758Y-104004707D01*
X138707771Y-103997224D01*
X138713410Y-103989393D01*
X138718673Y-103981214D01*
X138723561Y-103972687D01*
X138728074Y-103963812D01*
X138732212Y-103954589D01*
X138735974Y-103945017D01*
X138739361Y-103935098D01*
X138742373Y-103924831D01*
X138745010Y-103914215D01*
X138747271Y-103903252D01*
X138841939Y-103903252D01*
X138841939Y-104868500D01*
G37*
G36*
X114737564Y-105650000D02*
G01*
X114608360Y-105650000D01*
X114608360Y-104876482D01*
X114598224Y-104883078D01*
X114587420Y-104889248D01*
X114575945Y-104894992D01*
X114563801Y-104900311D01*
X114550986Y-104905205D01*
X114537502Y-104909673D01*
X114523349Y-104913715D01*
X114508525Y-104917332D01*
X114493032Y-104920523D01*
X114476869Y-104923289D01*
X114460036Y-104925630D01*
X114442534Y-104927544D01*
X114424362Y-104929034D01*
X114405520Y-104930098D01*
X114386008Y-104930736D01*
X114376001Y-104930895D01*
X114365826Y-104930949D01*
X114365826Y-104821528D01*
X114380451Y-104821345D01*
X114394681Y-104820795D01*
X114408516Y-104819879D01*
X114421956Y-104818597D01*
X114435002Y-104816948D01*
X114447652Y-104814933D01*
X114459907Y-104812552D01*
X114471767Y-104809804D01*
X114483232Y-104806690D01*
X114494302Y-104803210D01*
X114504977Y-104799363D01*
X114515257Y-104795150D01*
X114525142Y-104790570D01*
X114534633Y-104785624D01*
X114543728Y-104780312D01*
X114552428Y-104774633D01*
X114560733Y-104768588D01*
X114568643Y-104762177D01*
X114576159Y-104755399D01*
X114583279Y-104748255D01*
X114590004Y-104740744D01*
X114596334Y-104732868D01*
X114602270Y-104724624D01*
X114607810Y-104716015D01*
X114612955Y-104707039D01*
X114617706Y-104697697D01*
X114622061Y-104687988D01*
X114626021Y-104677913D01*
X114629587Y-104667472D01*
X114632757Y-104656664D01*
X114635533Y-104645490D01*
X114637913Y-104633949D01*
X114737564Y-104633949D01*
X114737564Y-105650000D01*
G37*
D10*
X115235093Y-100901386D02*
X114901760Y-101134719D01*
X115235093Y-101301386D02*
X114535093Y-101301386D01*
X114535093Y-101301386D02*
X114535093Y-101034719D01*
X114535093Y-101034719D02*
X114568426Y-100968053D01*
X114568426Y-100968053D02*
X114601760Y-100934719D01*
X114601760Y-100934719D02*
X114668426Y-100901386D01*
X114668426Y-100901386D02*
X114768426Y-100901386D01*
X114768426Y-100901386D02*
X114835093Y-100934719D01*
X114835093Y-100934719D02*
X114868426Y-100968053D01*
X114868426Y-100968053D02*
X114901760Y-101034719D01*
X114901760Y-101034719D02*
X114901760Y-101301386D01*
X114868426Y-100601386D02*
X114868426Y-100368053D01*
X115235093Y-100268053D02*
X115235093Y-100601386D01*
X115235093Y-100601386D02*
X114535093Y-100601386D01*
X114535093Y-100601386D02*
X114535093Y-100268053D01*
X115201760Y-100001386D02*
X115235093Y-99901386D01*
X115235093Y-99901386D02*
X115235093Y-99734720D01*
X115235093Y-99734720D02*
X115201760Y-99668053D01*
X115201760Y-99668053D02*
X115168426Y-99634720D01*
X115168426Y-99634720D02*
X115101760Y-99601386D01*
X115101760Y-99601386D02*
X115035093Y-99601386D01*
X115035093Y-99601386D02*
X114968426Y-99634720D01*
X114968426Y-99634720D02*
X114935093Y-99668053D01*
X114935093Y-99668053D02*
X114901760Y-99734720D01*
X114901760Y-99734720D02*
X114868426Y-99868053D01*
X114868426Y-99868053D02*
X114835093Y-99934720D01*
X114835093Y-99934720D02*
X114801760Y-99968053D01*
X114801760Y-99968053D02*
X114735093Y-100001386D01*
X114735093Y-100001386D02*
X114668426Y-100001386D01*
X114668426Y-100001386D02*
X114601760Y-99968053D01*
X114601760Y-99968053D02*
X114568426Y-99934720D01*
X114568426Y-99934720D02*
X114535093Y-99868053D01*
X114535093Y-99868053D02*
X114535093Y-99701386D01*
X114535093Y-99701386D02*
X114568426Y-99601386D01*
X114868426Y-99301386D02*
X114868426Y-99068053D01*
X115235093Y-98968053D02*
X115235093Y-99301386D01*
X115235093Y-99301386D02*
X114535093Y-99301386D01*
X114535093Y-99301386D02*
X114535093Y-98968053D01*
X114535093Y-98768053D02*
X114535093Y-98368053D01*
X115235093Y-98568053D02*
X114535093Y-98568053D01*
X128103855Y-88413332D02*
X127722902Y-88679999D01*
X128103855Y-88870475D02*
X127303855Y-88870475D01*
X127303855Y-88870475D02*
X127303855Y-88565713D01*
X127303855Y-88565713D02*
X127341950Y-88489523D01*
X127341950Y-88489523D02*
X127380045Y-88451428D01*
X127380045Y-88451428D02*
X127456236Y-88413332D01*
X127456236Y-88413332D02*
X127570521Y-88413332D01*
X127570521Y-88413332D02*
X127646712Y-88451428D01*
X127646712Y-88451428D02*
X127684807Y-88489523D01*
X127684807Y-88489523D02*
X127722902Y-88565713D01*
X127722902Y-88565713D02*
X127722902Y-88870475D01*
X127570521Y-87727618D02*
X128103855Y-87727618D01*
X127265760Y-87918094D02*
X127837188Y-88108571D01*
X127837188Y-88108571D02*
X127837188Y-87613332D01*
X138373855Y-102326666D02*
X138945283Y-102326666D01*
X138945283Y-102326666D02*
X139059569Y-102364761D01*
X139059569Y-102364761D02*
X139135760Y-102440952D01*
X139135760Y-102440952D02*
X139173855Y-102555237D01*
X139173855Y-102555237D02*
X139173855Y-102631428D01*
X139173855Y-101526666D02*
X139173855Y-101983809D01*
X139173855Y-101755237D02*
X138373855Y-101755237D01*
X138373855Y-101755237D02*
X138488140Y-101831428D01*
X138488140Y-101831428D02*
X138564331Y-101907618D01*
X138564331Y-101907618D02*
X138602426Y-101983809D01*
X111993333Y-88403855D02*
X111993333Y-88975283D01*
X111993333Y-88975283D02*
X111955238Y-89089569D01*
X111955238Y-89089569D02*
X111879047Y-89165760D01*
X111879047Y-89165760D02*
X111764762Y-89203855D01*
X111764762Y-89203855D02*
X111688571Y-89203855D01*
X112336190Y-88480045D02*
X112374286Y-88441950D01*
X112374286Y-88441950D02*
X112450476Y-88403855D01*
X112450476Y-88403855D02*
X112640952Y-88403855D01*
X112640952Y-88403855D02*
X112717143Y-88441950D01*
X112717143Y-88441950D02*
X112755238Y-88480045D01*
X112755238Y-88480045D02*
X112793333Y-88556236D01*
X112793333Y-88556236D02*
X112793333Y-88632426D01*
X112793333Y-88632426D02*
X112755238Y-88746712D01*
X112755238Y-88746712D02*
X112298095Y-89203855D01*
X112298095Y-89203855D02*
X112793333Y-89203855D01*
X133785000Y-86960000D02*
X133785000Y-83540000D01*
X133785000Y-83540000D02*
X124315000Y-83540000D01*
X133475000Y-85600000D02*
X133275000Y-85600000D01*
X133475000Y-84800000D02*
X133475000Y-85600000D01*
X133275000Y-86450000D02*
X129050000Y-86450000D01*
X133275000Y-85600000D02*
X133275000Y-86450000D01*
X133275000Y-84800000D02*
X133475000Y-84800000D01*
X133275000Y-84050000D02*
X133275000Y-84800000D01*
X129050000Y-84050000D02*
X133275000Y-84050000D01*
X129050000Y-84050000D02*
X124825000Y-84050000D01*
X124825000Y-86450000D02*
X129050000Y-86450000D01*
X124825000Y-85600000D02*
X124825000Y-86450000D01*
X124825000Y-84800000D02*
X124625000Y-84800000D01*
X124825000Y-84050000D02*
X124825000Y-84800000D01*
X124625000Y-85600000D02*
X124825000Y-85600000D01*
X124625000Y-84800000D02*
X124625000Y-85600000D01*
X124315000Y-86960000D02*
X133785000Y-86960000D01*
X124315000Y-83540000D02*
X124315000Y-86960000D01*
X115140000Y-103392164D02*
X115140000Y-103607836D01*
X114420000Y-103392164D02*
X114420000Y-103607836D01*
X131235000Y-91970000D02*
X133105000Y-91970000D01*
X133105000Y-91970000D02*
X133105000Y-88060000D01*
X131235000Y-88060000D02*
X131235000Y-91970000D01*
X146810000Y-86960000D02*
X146810000Y-83540000D01*
X146810000Y-83540000D02*
X141090000Y-83540000D01*
X146500000Y-85600000D02*
X146300000Y-85600000D01*
X146500000Y-84800000D02*
X146500000Y-85600000D01*
X146300000Y-86450000D02*
X143950000Y-86450000D01*
X146300000Y-85600000D02*
X146300000Y-86450000D01*
X146300000Y-84800000D02*
X146500000Y-84800000D01*
X146300000Y-84050000D02*
X146300000Y-84800000D01*
X143950000Y-84050000D02*
X146300000Y-84050000D01*
X143950000Y-84050000D02*
X141600000Y-84050000D01*
X141600000Y-86450000D02*
X143950000Y-86450000D01*
X141600000Y-85600000D02*
X141600000Y-86450000D01*
X141600000Y-84800000D02*
X141400000Y-84800000D01*
X141600000Y-84050000D02*
X141600000Y-84800000D01*
X141400000Y-85600000D02*
X141600000Y-85600000D01*
X141400000Y-84800000D02*
X141400000Y-85600000D01*
X141090000Y-86960000D02*
X146810000Y-86960000D01*
X141090000Y-83540000D02*
X141090000Y-86960000D01*
X137490221Y-102208307D02*
X137337718Y-102360810D01*
X136981104Y-101699190D02*
X136828601Y-101851693D01*
D12*
X116080000Y-106200000D02*
X116080000Y-107000000D01*
D10*
X122830000Y-107182164D02*
X122830000Y-107397836D01*
X122110000Y-107182164D02*
X122110000Y-107397836D01*
X150965000Y-98430000D02*
X150965000Y-94130000D01*
X150965000Y-98430000D02*
X145155000Y-98430000D01*
X150965000Y-94130000D02*
X145155000Y-94130000D01*
D12*
X159785000Y-100308500D02*
X159785000Y-101858500D01*
X153125000Y-100308500D02*
X153125000Y-101858500D01*
X159785000Y-101858500D02*
X159785000Y-103408500D01*
X153125000Y-101858500D02*
X153125000Y-103408500D01*
D10*
X129000000Y-92172164D02*
X129000000Y-92387836D01*
X128280000Y-92172164D02*
X128280000Y-92387836D01*
X116815000Y-102450000D02*
X117765000Y-102450000D01*
X117765000Y-102450000D02*
X117765000Y-103790000D01*
X127035000Y-102450000D02*
X126085000Y-102450000D01*
X116815000Y-101500000D02*
X116815000Y-102450000D01*
X127035000Y-101500000D02*
X127035000Y-102450000D01*
X116815000Y-93180000D02*
X116815000Y-92230000D01*
X127035000Y-93180000D02*
X127035000Y-92230000D01*
X116815000Y-92230000D02*
X117765000Y-92230000D01*
X127035000Y-92230000D02*
X126085000Y-92230000D01*
D13*
X118100000Y-101340000D02*
G75*
G03*
X118100000Y-101340000I-175000J0D01*
G01*
D12*
X150620000Y-100750000D02*
X149820000Y-100750000D01*
D10*
X143180000Y-87705225D02*
X143180000Y-88205225D01*
X143430000Y-87955225D02*
X142930000Y-87955225D01*
X144285000Y-90510000D02*
X142745000Y-90510000D01*
X140665000Y-90510000D02*
X139125000Y-90510000D01*
X144285000Y-90550000D02*
X142745000Y-90550000D01*
X140665000Y-90550000D02*
X139125000Y-90550000D01*
X144284000Y-90590000D02*
X142745000Y-90590000D01*
X140665000Y-90590000D02*
X139126000Y-90590000D01*
X144283000Y-90630000D02*
X142745000Y-90630000D01*
X140665000Y-90630000D02*
X139127000Y-90630000D01*
X144281000Y-90670000D02*
X142745000Y-90670000D01*
X140665000Y-90670000D02*
X139129000Y-90670000D01*
X144278000Y-90710000D02*
X142745000Y-90710000D01*
X140665000Y-90710000D02*
X139132000Y-90710000D01*
X144274000Y-90750000D02*
X142745000Y-90750000D01*
X140665000Y-90750000D02*
X139136000Y-90750000D01*
X144270000Y-90790000D02*
X142745000Y-90790000D01*
X140665000Y-90790000D02*
X139140000Y-90790000D01*
X144266000Y-90830000D02*
X142745000Y-90830000D01*
X140665000Y-90830000D02*
X139144000Y-90830000D01*
X144261000Y-90870000D02*
X142745000Y-90870000D01*
X140665000Y-90870000D02*
X139149000Y-90870000D01*
X144255000Y-90910000D02*
X142745000Y-90910000D01*
X140665000Y-90910000D02*
X139155000Y-90910000D01*
X144248000Y-90950000D02*
X142745000Y-90950000D01*
X140665000Y-90950000D02*
X139162000Y-90950000D01*
X144241000Y-90990000D02*
X142745000Y-90990000D01*
X140665000Y-90990000D02*
X139169000Y-90990000D01*
X144233000Y-91030000D02*
X142745000Y-91030000D01*
X140665000Y-91030000D02*
X139177000Y-91030000D01*
X144225000Y-91070000D02*
X142745000Y-91070000D01*
X140665000Y-91070000D02*
X139185000Y-91070000D01*
X144216000Y-91110000D02*
X142745000Y-91110000D01*
X140665000Y-91110000D02*
X139194000Y-91110000D01*
X144206000Y-91150000D02*
X142745000Y-91150000D01*
X140665000Y-91150000D02*
X139204000Y-91150000D01*
X144196000Y-91190000D02*
X142745000Y-91190000D01*
X140665000Y-91190000D02*
X139214000Y-91190000D01*
X144185000Y-91231000D02*
X142745000Y-91231000D01*
X140665000Y-91231000D02*
X139225000Y-91231000D01*
X144173000Y-91271000D02*
X142745000Y-91271000D01*
X140665000Y-91271000D02*
X139237000Y-91271000D01*
X144160000Y-91311000D02*
X142745000Y-91311000D01*
X140665000Y-91311000D02*
X139250000Y-91311000D01*
X144147000Y-91351000D02*
X142745000Y-91351000D01*
X140665000Y-91351000D02*
X139263000Y-91351000D01*
X144133000Y-91391000D02*
X142745000Y-91391000D01*
X140665000Y-91391000D02*
X139277000Y-91391000D01*
X144119000Y-91431000D02*
X142745000Y-91431000D01*
X140665000Y-91431000D02*
X139291000Y-91431000D01*
X144103000Y-91471000D02*
X142745000Y-91471000D01*
X140665000Y-91471000D02*
X139307000Y-91471000D01*
X144087000Y-91511000D02*
X142745000Y-91511000D01*
X140665000Y-91511000D02*
X139323000Y-91511000D01*
X144070000Y-91551000D02*
X142745000Y-91551000D01*
X140665000Y-91551000D02*
X139340000Y-91551000D01*
X144053000Y-91591000D02*
X142745000Y-91591000D01*
X140665000Y-91591000D02*
X139357000Y-91591000D01*
X144034000Y-91631000D02*
X142745000Y-91631000D01*
X140665000Y-91631000D02*
X139376000Y-91631000D01*
X144015000Y-91671000D02*
X142745000Y-91671000D01*
X140665000Y-91671000D02*
X139395000Y-91671000D01*
X143995000Y-91711000D02*
X142745000Y-91711000D01*
X140665000Y-91711000D02*
X139415000Y-91711000D01*
X143973000Y-91751000D02*
X142745000Y-91751000D01*
X140665000Y-91751000D02*
X139437000Y-91751000D01*
X143952000Y-91791000D02*
X142745000Y-91791000D01*
X140665000Y-91791000D02*
X139458000Y-91791000D01*
X143929000Y-91831000D02*
X142745000Y-91831000D01*
X140665000Y-91831000D02*
X139481000Y-91831000D01*
X143905000Y-91871000D02*
X142745000Y-91871000D01*
X140665000Y-91871000D02*
X139505000Y-91871000D01*
X143880000Y-91911000D02*
X142745000Y-91911000D01*
X140665000Y-91911000D02*
X139530000Y-91911000D01*
X143854000Y-91951000D02*
X142745000Y-91951000D01*
X140665000Y-91951000D02*
X139556000Y-91951000D01*
X143827000Y-91991000D02*
X142745000Y-91991000D01*
X140665000Y-91991000D02*
X139583000Y-91991000D01*
X143800000Y-92031000D02*
X142745000Y-92031000D01*
X140665000Y-92031000D02*
X139610000Y-92031000D01*
X143770000Y-92071000D02*
X142745000Y-92071000D01*
X140665000Y-92071000D02*
X139640000Y-92071000D01*
X143740000Y-92111000D02*
X142745000Y-92111000D01*
X140665000Y-92111000D02*
X139670000Y-92111000D01*
X143709000Y-92151000D02*
X142745000Y-92151000D01*
X140665000Y-92151000D02*
X139701000Y-92151000D01*
X143676000Y-92191000D02*
X142745000Y-92191000D01*
X140665000Y-92191000D02*
X139734000Y-92191000D01*
X143642000Y-92231000D02*
X142745000Y-92231000D01*
X140665000Y-92231000D02*
X139768000Y-92231000D01*
X143606000Y-92271000D02*
X142745000Y-92271000D01*
X140665000Y-92271000D02*
X139804000Y-92271000D01*
X143569000Y-92311000D02*
X142745000Y-92311000D01*
X140665000Y-92311000D02*
X139841000Y-92311000D01*
X143531000Y-92351000D02*
X142745000Y-92351000D01*
X140665000Y-92351000D02*
X139879000Y-92351000D01*
X143490000Y-92391000D02*
X142745000Y-92391000D01*
X140665000Y-92391000D02*
X139920000Y-92391000D01*
X143448000Y-92431000D02*
X142745000Y-92431000D01*
X140665000Y-92431000D02*
X139962000Y-92431000D01*
X143404000Y-92471000D02*
X142745000Y-92471000D01*
X140665000Y-92471000D02*
X140006000Y-92471000D01*
X143358000Y-92511000D02*
X142745000Y-92511000D01*
X140665000Y-92511000D02*
X140052000Y-92511000D01*
X143310000Y-92551000D02*
X140100000Y-92551000D01*
X143259000Y-92591000D02*
X140151000Y-92591000D01*
X143205000Y-92631000D02*
X140205000Y-92631000D01*
X143148000Y-92671000D02*
X140262000Y-92671000D01*
X143088000Y-92711000D02*
X140322000Y-92711000D01*
X143024000Y-92751000D02*
X140386000Y-92751000D01*
X142956000Y-92791000D02*
X140454000Y-92791000D01*
X142883000Y-92831000D02*
X140527000Y-92831000D01*
X142803000Y-92871000D02*
X140607000Y-92871000D01*
X142716000Y-92911000D02*
X140694000Y-92911000D01*
X142620000Y-92951000D02*
X140790000Y-92951000D01*
X142510000Y-92991000D02*
X140900000Y-92991000D01*
X142382000Y-93031000D02*
X141028000Y-93031000D01*
X142223000Y-93071000D02*
X141187000Y-93071000D01*
X141989000Y-93111000D02*
X141421000Y-93111000D01*
X144325000Y-90510000D02*
G75*
G03*
X144325000Y-90510000I-2620000J0D01*
G01*
X128850000Y-102497836D02*
X128850000Y-102282164D01*
X129570000Y-102497836D02*
X129570000Y-102282164D01*
X140400000Y-105350000D02*
X140400000Y-108770000D01*
X140400000Y-108770000D02*
X147370000Y-108770000D01*
X140710000Y-106710000D02*
X140910000Y-106710000D01*
X140710000Y-107510000D02*
X140710000Y-106710000D01*
X140910000Y-105860000D02*
X143885000Y-105860000D01*
X140910000Y-106710000D02*
X140910000Y-105860000D01*
X140910000Y-107510000D02*
X140710000Y-107510000D01*
X140910000Y-108260000D02*
X140910000Y-107510000D01*
X143885000Y-108260000D02*
X140910000Y-108260000D01*
X143885000Y-108260000D02*
X146860000Y-108260000D01*
X146860000Y-105860000D02*
X143885000Y-105860000D01*
X146860000Y-106710000D02*
X146860000Y-105860000D01*
X146860000Y-107510000D02*
X147060000Y-107510000D01*
X146860000Y-108260000D02*
X146860000Y-107510000D01*
X147060000Y-106710000D02*
X146860000Y-106710000D01*
X147060000Y-107510000D02*
X147060000Y-106710000D01*
X147370000Y-105350000D02*
X140400000Y-105350000D01*
X147370000Y-108770000D02*
X147370000Y-105350000D01*
X157815000Y-92397248D02*
X157815000Y-93819752D01*
X155095000Y-92397248D02*
X155095000Y-93819752D01*
D12*
X147700000Y-100750000D02*
X146900000Y-100750000D01*
D10*
X104385000Y-83405000D02*
X105715000Y-83405000D01*
X104385000Y-84735000D02*
X104385000Y-83405000D01*
X104385000Y-86005000D02*
X104385000Y-108925000D01*
X104385000Y-86005000D02*
X107045000Y-86005000D01*
X104385000Y-108925000D02*
X107045000Y-108925000D01*
X107045000Y-86005000D02*
X107045000Y-108925000D01*
X130672500Y-95502164D02*
X130672500Y-95717836D01*
X129952500Y-95502164D02*
X129952500Y-95717836D01*
G36*
X127735766Y-89344561D02*
G01*
X127759203Y-89347899D01*
X127755835Y-89675458D01*
X127754732Y-89759828D01*
X127753249Y-89839192D01*
X127751481Y-89910416D01*
X127749519Y-89970362D01*
X127747456Y-90015895D01*
X127745387Y-90043880D01*
X127744784Y-90048351D01*
X127737808Y-90077758D01*
X127726949Y-90091907D01*
X127707883Y-90097081D01*
X127684991Y-90095096D01*
X127666607Y-90079633D01*
X127656338Y-90064656D01*
X127649871Y-90053401D01*
X127644826Y-90041087D01*
X127641060Y-90025111D01*
X127638429Y-90002869D01*
X127636789Y-89971758D01*
X127635997Y-89929174D01*
X127635908Y-89872514D01*
X127636380Y-89799174D01*
X127637160Y-89717191D01*
X127640310Y-89405548D01*
X127676320Y-89373385D01*
X127707053Y-89351829D01*
X127733157Y-89344342D01*
X127735766Y-89344561D01*
G37*
G36*
X129508362Y-89355369D02*
G01*
X129531799Y-89358708D01*
X129528431Y-89686266D01*
X129527327Y-89770636D01*
X129525845Y-89850001D01*
X129524076Y-89921224D01*
X129522114Y-89981171D01*
X129520052Y-90026704D01*
X129517982Y-90054688D01*
X129517380Y-90059160D01*
X129510404Y-90088567D01*
X129499545Y-90102715D01*
X129480478Y-90107890D01*
X129457587Y-90105905D01*
X129439203Y-90090441D01*
X129428933Y-90075464D01*
X129422466Y-90064209D01*
X129417422Y-90051896D01*
X129413656Y-90035920D01*
X129411025Y-90013678D01*
X129409385Y-89982567D01*
X129408592Y-89939983D01*
X129408504Y-89883323D01*
X129408976Y-89809983D01*
X129409756Y-89728000D01*
X129412905Y-89416356D01*
X129448915Y-89384194D01*
X129479649Y-89362638D01*
X129505753Y-89355150D01*
X129508362Y-89355369D01*
G37*
G36*
X126628451Y-89362434D02*
G01*
X126673698Y-89396758D01*
X126690274Y-89417898D01*
X126712122Y-89463901D01*
X126729267Y-89525814D01*
X126741137Y-89598328D01*
X126747159Y-89676133D01*
X126746759Y-89753920D01*
X126739365Y-89826380D01*
X126736224Y-89843699D01*
X126711809Y-89920588D01*
X126673227Y-89985431D01*
X126622903Y-90036332D01*
X126563259Y-90071398D01*
X126496720Y-90088733D01*
X126425776Y-90086453D01*
X126362015Y-90067992D01*
X126297730Y-90036750D01*
X126238379Y-89996452D01*
X126189420Y-89950824D01*
X126156310Y-89903592D01*
X126155504Y-89901952D01*
X126135422Y-89836440D01*
X126135667Y-89775226D01*
X126274749Y-89775226D01*
X126281879Y-89825556D01*
X126307090Y-89872743D01*
X126313178Y-89880604D01*
X126360789Y-89926721D01*
X126412884Y-89955022D01*
X126466390Y-89964792D01*
X126518232Y-89955317D01*
X126552726Y-89936236D01*
X126586095Y-89900736D01*
X126608650Y-89850678D01*
X126620957Y-89784295D01*
X126623796Y-89715388D01*
X126618706Y-89632373D01*
X126604320Y-89568668D01*
X126580492Y-89523995D01*
X126547076Y-89498080D01*
X126504873Y-89490617D01*
X126470578Y-89495910D01*
X126438927Y-89511610D01*
X126405806Y-89540600D01*
X126367098Y-89585761D01*
X126364790Y-89588688D01*
X126315910Y-89658459D01*
X126285994Y-89720082D01*
X126274749Y-89775226D01*
X126135667Y-89775226D01*
X126135698Y-89767388D01*
X126156282Y-89698380D01*
X126158421Y-89693771D01*
X126189372Y-89638681D01*
X126230824Y-89579100D01*
X126279057Y-89519196D01*
X126330349Y-89463136D01*
X126380978Y-89415088D01*
X126427223Y-89379219D01*
X126452139Y-89364887D01*
X126513903Y-89345660D01*
X126573930Y-89345122D01*
X126628451Y-89362434D01*
G37*
G36*
X128475039Y-89327670D02*
G01*
X128490495Y-89332706D01*
X128500113Y-89337363D01*
X128526458Y-89357598D01*
X128546127Y-89384502D01*
X128555919Y-89411771D01*
X128552632Y-89433096D01*
X128550204Y-89436015D01*
X128534533Y-89442910D01*
X128502743Y-89451355D01*
X128460144Y-89460060D01*
X128431005Y-89464965D01*
X128385802Y-89472251D01*
X128349455Y-89478639D01*
X128326686Y-89483269D01*
X128321398Y-89484934D01*
X128320051Y-89496215D01*
X128317886Y-89526239D01*
X128315069Y-89572153D01*
X128311767Y-89631105D01*
X128308147Y-89700243D01*
X128304465Y-89774835D01*
X128300458Y-89852537D01*
X128296237Y-89924082D01*
X128292030Y-89986336D01*
X128288063Y-90036166D01*
X128284564Y-90070437D01*
X128281935Y-90085580D01*
X128265562Y-90105115D01*
X128240424Y-90109149D01*
X128212941Y-90097568D01*
X128201325Y-90087018D01*
X128195045Y-90078792D01*
X128190216Y-90068036D01*
X128186673Y-90052086D01*
X128184250Y-90028282D01*
X128182781Y-89993961D01*
X128182101Y-89946464D01*
X128182043Y-89883127D01*
X128182443Y-89801289D01*
X128182545Y-89785315D01*
X128184355Y-89506494D01*
X128111815Y-89526596D01*
X128070224Y-89538555D01*
X128033068Y-89549981D01*
X128010120Y-89557783D01*
X127982099Y-89563790D01*
X127961957Y-89562156D01*
X127931086Y-89544342D01*
X127906469Y-89518202D01*
X127894594Y-89490967D01*
X127894310Y-89486775D01*
X127903068Y-89461846D01*
X127918629Y-89446133D01*
X127941682Y-89435930D01*
X127982323Y-89422815D01*
X128036864Y-89407701D01*
X128101619Y-89391502D01*
X128172900Y-89375133D01*
X128247019Y-89359507D01*
X128320290Y-89345539D01*
X128334467Y-89343034D01*
X128390334Y-89333562D01*
X128429414Y-89327946D01*
X128456164Y-89326033D01*
X128475039Y-89327670D01*
G37*
G36*
X129210018Y-89338479D02*
G01*
X129225474Y-89343515D01*
X129235092Y-89348172D01*
X129261436Y-89368406D01*
X129281106Y-89395311D01*
X129290898Y-89422579D01*
X129287611Y-89443905D01*
X129285183Y-89446824D01*
X129269512Y-89453719D01*
X129237722Y-89462164D01*
X129195122Y-89470869D01*
X129165984Y-89475774D01*
X129120781Y-89483060D01*
X129084434Y-89489448D01*
X129061665Y-89494078D01*
X129056377Y-89495742D01*
X129055030Y-89507024D01*
X129052864Y-89537048D01*
X129050048Y-89582962D01*
X129046746Y-89641914D01*
X129043125Y-89711052D01*
X129039444Y-89785644D01*
X129035437Y-89863345D01*
X129031216Y-89934890D01*
X129027009Y-89997145D01*
X129023042Y-90046974D01*
X129019542Y-90081246D01*
X129016914Y-90096388D01*
X129000540Y-90115923D01*
X128975402Y-90119957D01*
X128947919Y-90108377D01*
X128936304Y-90097826D01*
X128930024Y-90089601D01*
X128925195Y-90078844D01*
X128921652Y-90062894D01*
X128919228Y-90039090D01*
X128917760Y-90004770D01*
X128917079Y-89957272D01*
X128917022Y-89893935D01*
X128917422Y-89812098D01*
X128917524Y-89796124D01*
X128919334Y-89517303D01*
X128846794Y-89537405D01*
X128805202Y-89549363D01*
X128768047Y-89560790D01*
X128745099Y-89568591D01*
X128717078Y-89574598D01*
X128696935Y-89572964D01*
X128666065Y-89555150D01*
X128641448Y-89529011D01*
X128629573Y-89501775D01*
X128629288Y-89497583D01*
X128638047Y-89472655D01*
X128653607Y-89456941D01*
X128676660Y-89446739D01*
X128717301Y-89433624D01*
X128771843Y-89418510D01*
X128836598Y-89402311D01*
X128907879Y-89385941D01*
X128981998Y-89370316D01*
X129055269Y-89356348D01*
X129069446Y-89353843D01*
X129125313Y-89344371D01*
X129164393Y-89338754D01*
X129191142Y-89336841D01*
X129210018Y-89338479D01*
G37*
G36*
X130914583Y-89368860D02*
G01*
X130959563Y-89390459D01*
X130992417Y-89428597D01*
X131011904Y-89482917D01*
X131013506Y-89491862D01*
X131015732Y-89523796D01*
X131007902Y-89545447D01*
X130997788Y-89557229D01*
X130975357Y-89573013D01*
X130955668Y-89569981D01*
X130935550Y-89547142D01*
X130928527Y-89535530D01*
X130915458Y-89515565D01*
X130901254Y-89506481D01*
X130878164Y-89505230D01*
X130856094Y-89507041D01*
X130801909Y-89520412D01*
X130741087Y-89549226D01*
X130678638Y-89590717D01*
X130630284Y-89631734D01*
X130605794Y-89656284D01*
X130592547Y-89674637D01*
X130592202Y-89687606D01*
X130606414Y-89696003D01*
X130636840Y-89700639D01*
X130685136Y-89702328D01*
X130752959Y-89701882D01*
X130772663Y-89701541D01*
X130856530Y-89700967D01*
X130922053Y-89703143D01*
X130972400Y-89708687D01*
X131010736Y-89718217D01*
X131040231Y-89732355D01*
X131064052Y-89751718D01*
X131071792Y-89760024D01*
X131098957Y-89803447D01*
X131105332Y-89848634D01*
X131090785Y-89896144D01*
X131055183Y-89946534D01*
X131018922Y-89982692D01*
X130946113Y-90036536D01*
X130863684Y-90077764D01*
X130776285Y-90105148D01*
X130688567Y-90117459D01*
X130605181Y-90113469D01*
X130561518Y-90103476D01*
X130518580Y-90081956D01*
X130483541Y-90049000D01*
X130461289Y-90010252D01*
X130455927Y-89981506D01*
X130455927Y-89955408D01*
X130539693Y-89964817D01*
X130644436Y-89973484D01*
X130729738Y-89973787D01*
X130795428Y-89965734D01*
X130839629Y-89950290D01*
X130885621Y-89922020D01*
X130915960Y-89896567D01*
X130928717Y-89875717D01*
X130928192Y-89868270D01*
X130919825Y-89858291D01*
X130901797Y-89850781D01*
X130871696Y-89845451D01*
X130827110Y-89842011D01*
X130765627Y-89840173D01*
X130689661Y-89839646D01*
X130624888Y-89839317D01*
X130577786Y-89838087D01*
X130544413Y-89835537D01*
X130520826Y-89831249D01*
X130503084Y-89824803D01*
X130491744Y-89818607D01*
X130456892Y-89790221D01*
X130439131Y-89755402D01*
X130435997Y-89708771D01*
X130436806Y-89698619D01*
X130452013Y-89644677D01*
X130486223Y-89588348D01*
X130537313Y-89531825D01*
X130603159Y-89477301D01*
X130681637Y-89426970D01*
X130719285Y-89406887D01*
X130793203Y-89376716D01*
X130858716Y-89364160D01*
X130914583Y-89368860D01*
G37*
G36*
X124270570Y-89343041D02*
G01*
X124302161Y-89375948D01*
X124335568Y-89428862D01*
X124371937Y-89501933D01*
X124412413Y-89595311D01*
X124458141Y-89709143D01*
X124462421Y-89720057D01*
X124498994Y-89814065D01*
X124527959Y-89890027D01*
X124549963Y-89949875D01*
X124565653Y-89995542D01*
X124575675Y-90028960D01*
X124580678Y-90052061D01*
X124581309Y-90066778D01*
X124580176Y-90071625D01*
X124564744Y-90084824D01*
X124537041Y-90086041D01*
X124503663Y-90075324D01*
X124483648Y-90057138D01*
X124462099Y-90024244D01*
X124442548Y-89982946D01*
X124429248Y-89942494D01*
X124423943Y-89925961D01*
X124414891Y-89918097D01*
X124396192Y-89916985D01*
X124362162Y-89920678D01*
X124294309Y-89934156D01*
X124211405Y-89959144D01*
X124116106Y-89994758D01*
X124031816Y-90030714D01*
X123984478Y-90051626D01*
X123952407Y-90064467D01*
X123931248Y-90070233D01*
X123916646Y-90069923D01*
X123904247Y-90064536D01*
X123898920Y-90061177D01*
X123874651Y-90038767D01*
X123860555Y-90017558D01*
X123856806Y-90008862D01*
X123854669Y-90000102D01*
X123854998Y-89989155D01*
X123858648Y-89973894D01*
X123866471Y-89952194D01*
X123879324Y-89921931D01*
X123898058Y-89880978D01*
X123899086Y-89878808D01*
X124063832Y-89878808D01*
X124066329Y-89882920D01*
X124081056Y-89879741D01*
X124108258Y-89871698D01*
X124122916Y-89866936D01*
X124150099Y-89859437D01*
X124190498Y-89850121D01*
X124237961Y-89840194D01*
X124286335Y-89830865D01*
X124329469Y-89823341D01*
X124361210Y-89818830D01*
X124371847Y-89818069D01*
X124372418Y-89808809D01*
X124366533Y-89784127D01*
X124355768Y-89748668D01*
X124341702Y-89707080D01*
X124325912Y-89664007D01*
X124309976Y-89624098D01*
X124295469Y-89591997D01*
X124294324Y-89589722D01*
X124273072Y-89556817D01*
X124251704Y-89544258D01*
X124227482Y-89550930D01*
X124216969Y-89558270D01*
X124202907Y-89574972D01*
X124184052Y-89605142D01*
X124162142Y-89645035D01*
X124138913Y-89690904D01*
X124116104Y-89739005D01*
X124095454Y-89785591D01*
X124078700Y-89826918D01*
X124067580Y-89859238D01*
X124063832Y-89878808D01*
X123899086Y-89878808D01*
X123923528Y-89827211D01*
X123956588Y-89758504D01*
X123998092Y-89672733D01*
X124004069Y-89660391D01*
X124055019Y-89557418D01*
X124099767Y-89473408D01*
X124139459Y-89408512D01*
X124175240Y-89362878D01*
X124208255Y-89336656D01*
X124239650Y-89329994D01*
X124270570Y-89343041D01*
G37*
G36*
X127422092Y-89332384D02*
G01*
X127437329Y-89361280D01*
X127440352Y-89383829D01*
X127435351Y-89401216D01*
X127419841Y-89429077D01*
X127393062Y-89468457D01*
X127354251Y-89520402D01*
X127302649Y-89585960D01*
X127237494Y-89666175D01*
X127216223Y-89692005D01*
X127176959Y-89740120D01*
X127143382Y-89782340D01*
X127117585Y-89815942D01*
X127101660Y-89838207D01*
X127097527Y-89846337D01*
X127111665Y-89854273D01*
X127141659Y-89867538D01*
X127182939Y-89884382D01*
X127230937Y-89903051D01*
X127281084Y-89921794D01*
X127328812Y-89938859D01*
X127369551Y-89952494D01*
X127391581Y-89959092D01*
X127452955Y-89981588D01*
X127493703Y-90009707D01*
X127513718Y-90043326D01*
X127512891Y-90082322D01*
X127509451Y-90092802D01*
X127494357Y-90107428D01*
X127483291Y-90109899D01*
X127460775Y-90105725D01*
X127420353Y-90093659D01*
X127363963Y-90074388D01*
X127293543Y-90048595D01*
X127211029Y-90016966D01*
X127131892Y-89985628D01*
X127079561Y-89964733D01*
X127034778Y-89947049D01*
X127001161Y-89933990D01*
X126982327Y-89926968D01*
X126979632Y-89926154D01*
X126977732Y-89936099D01*
X126976310Y-89962478D01*
X126975617Y-90000112D01*
X126975586Y-90010461D01*
X126972328Y-90067878D01*
X126962504Y-90104757D01*
X126946036Y-90121179D01*
X126922847Y-90117224D01*
X126895249Y-90095396D01*
X126885501Y-90084301D01*
X126878364Y-90071084D01*
X126873206Y-90052052D01*
X126869395Y-90023512D01*
X126866297Y-89981771D01*
X126863280Y-89923134D01*
X126862380Y-89903545D01*
X126860173Y-89830516D01*
X126859780Y-89753554D01*
X126861022Y-89676045D01*
X126863721Y-89601371D01*
X126867698Y-89532918D01*
X126872775Y-89474070D01*
X126878772Y-89428210D01*
X126885511Y-89398723D01*
X126889455Y-89390727D01*
X126909520Y-89373142D01*
X126933575Y-89358075D01*
X126956226Y-89348661D01*
X126971181Y-89351822D01*
X126981867Y-89361128D01*
X126988629Y-89369957D01*
X126993281Y-89382887D01*
X126996025Y-89403233D01*
X126997064Y-89434313D01*
X126996600Y-89479442D01*
X126994835Y-89541939D01*
X126994151Y-89562538D01*
X126992122Y-89630332D01*
X126991394Y-89678897D01*
X126992073Y-89710591D01*
X126994266Y-89727769D01*
X126998077Y-89732787D01*
X127001669Y-89730431D01*
X127012383Y-89718260D01*
X127035076Y-89692195D01*
X127067606Y-89654708D01*
X127107828Y-89608271D01*
X127153598Y-89555356D01*
X127184832Y-89519212D01*
X127233016Y-89463929D01*
X127277217Y-89414161D01*
X127315277Y-89372260D01*
X127345042Y-89340578D01*
X127364355Y-89321466D01*
X127370299Y-89316892D01*
X127398177Y-89316087D01*
X127422092Y-89332384D01*
G37*
G36*
X125938444Y-89328914D02*
G01*
X126001852Y-89345962D01*
X126051078Y-89371929D01*
X126084212Y-89406247D01*
X126099345Y-89448348D01*
X126100097Y-89461094D01*
X126097977Y-89490894D01*
X126090413Y-89518921D01*
X126075594Y-89547270D01*
X126051711Y-89578036D01*
X126016954Y-89613316D01*
X125969513Y-89655203D01*
X125907580Y-89705793D01*
X125848799Y-89752057D01*
X125806407Y-89785560D01*
X125770966Y-89814465D01*
X125745593Y-89836163D01*
X125733401Y-89848044D01*
X125732774Y-89849247D01*
X125741991Y-89856295D01*
X125766827Y-89870257D01*
X125803277Y-89888977D01*
X125838959Y-89906338D01*
X125909638Y-89942097D01*
X125960912Y-89973163D01*
X125994205Y-90000625D01*
X126010941Y-90025572D01*
X126013629Y-90039967D01*
X126009523Y-90062454D01*
X126002880Y-90072032D01*
X125989033Y-90070670D01*
X125960431Y-90061637D01*
X125921828Y-90046572D01*
X125894459Y-90034696D01*
X125847273Y-90014813D01*
X125794413Y-89994726D01*
X125740261Y-89975839D01*
X125689196Y-89959558D01*
X125645599Y-89947289D01*
X125613851Y-89940436D01*
X125599237Y-89939987D01*
X125593192Y-89951736D01*
X125587657Y-89979010D01*
X125584061Y-90013176D01*
X125577086Y-90066318D01*
X125564578Y-90098734D01*
X125546260Y-90110667D01*
X125521852Y-90102358D01*
X125501519Y-90085155D01*
X125491967Y-90074169D01*
X125484976Y-90060827D01*
X125479929Y-90041444D01*
X125476208Y-90012331D01*
X125473197Y-89969802D01*
X125470280Y-89910170D01*
X125469585Y-89894288D01*
X125466942Y-89826186D01*
X125464735Y-89755962D01*
X125463164Y-89690930D01*
X125462426Y-89638401D01*
X125462398Y-89629391D01*
X125592097Y-89629391D01*
X125592772Y-89678226D01*
X125594606Y-89717985D01*
X125597313Y-89744390D01*
X125600375Y-89753218D01*
X125613034Y-89748108D01*
X125639120Y-89734569D01*
X125673518Y-89715283D01*
X125681699Y-89710532D01*
X125725940Y-89683332D01*
X125775821Y-89650517D01*
X125826965Y-89615209D01*
X125874997Y-89580529D01*
X125915541Y-89549599D01*
X125944221Y-89525540D01*
X125952427Y-89517417D01*
X125967681Y-89489210D01*
X125961822Y-89463442D01*
X125935348Y-89442095D01*
X125933208Y-89441043D01*
X125900198Y-89433364D01*
X125852388Y-89435404D01*
X125788516Y-89447348D01*
X125707318Y-89469382D01*
X125677866Y-89478469D01*
X125592097Y-89505563D01*
X125592097Y-89629391D01*
X125462398Y-89629391D01*
X125462395Y-89628358D01*
X125461430Y-89576878D01*
X125458267Y-89544020D01*
X125452505Y-89526864D01*
X125447884Y-89522984D01*
X125432446Y-89508588D01*
X125417003Y-89482200D01*
X125405687Y-89452835D01*
X125402630Y-89429508D01*
X125403478Y-89426074D01*
X125416700Y-89415494D01*
X125447134Y-89401787D01*
X125490824Y-89386218D01*
X125543817Y-89370050D01*
X125602157Y-89354547D01*
X125661890Y-89340976D01*
X125682218Y-89336949D01*
X125776717Y-89323840D01*
X125862762Y-89321350D01*
X125938444Y-89328914D01*
G37*
G36*
X125173093Y-89318917D02*
G01*
X125194370Y-89327740D01*
X125200509Y-89331334D01*
X125231671Y-89357608D01*
X125251085Y-89387963D01*
X125255254Y-89416432D01*
X125253679Y-89422113D01*
X125238948Y-89433962D01*
X125207989Y-89442953D01*
X125195514Y-89444886D01*
X125130550Y-89454492D01*
X125062916Y-89466777D01*
X124996575Y-89480779D01*
X124935490Y-89495536D01*
X124883626Y-89510086D01*
X124844945Y-89523466D01*
X124823411Y-89534716D01*
X124822655Y-89535392D01*
X124818190Y-89547957D01*
X124811810Y-89575842D01*
X124804484Y-89613394D01*
X124797185Y-89654957D01*
X124790883Y-89694878D01*
X124786548Y-89727502D01*
X124785153Y-89747175D01*
X124785752Y-89750306D01*
X124796887Y-89749128D01*
X124824823Y-89743484D01*
X124865421Y-89734275D01*
X124914542Y-89722400D01*
X124917676Y-89721621D01*
X125016478Y-89698226D01*
X125101922Y-89680471D01*
X125172381Y-89668612D01*
X125226228Y-89662907D01*
X125261837Y-89663613D01*
X125270743Y-89665798D01*
X125296350Y-89681570D01*
X125320488Y-89705260D01*
X125320520Y-89705301D01*
X125334774Y-89730122D01*
X125331443Y-89748054D01*
X125309247Y-89760564D01*
X125266906Y-89769121D01*
X125264596Y-89769425D01*
X125217543Y-89777433D01*
X125157884Y-89790422D01*
X125090507Y-89807030D01*
X125020298Y-89825899D01*
X124952145Y-89845667D01*
X124890935Y-89864975D01*
X124841556Y-89882463D01*
X124811045Y-89895638D01*
X124798062Y-89909756D01*
X124802520Y-89927002D01*
X124820951Y-89945010D01*
X124849886Y-89961413D01*
X124885860Y-89973845D01*
X124925404Y-89979940D01*
X124934959Y-89980197D01*
X124967644Y-89977796D01*
X125013104Y-89971405D01*
X125063132Y-89962239D01*
X125079240Y-89958814D01*
X125124429Y-89949260D01*
X125163212Y-89941851D01*
X125189585Y-89937703D01*
X125195715Y-89937197D01*
X125219815Y-89945824D01*
X125245773Y-89967633D01*
X125267346Y-89995766D01*
X125278287Y-90023363D01*
X125278650Y-90028271D01*
X125276813Y-90043558D01*
X125269308Y-90055201D01*
X125253140Y-90064194D01*
X125225315Y-90071535D01*
X125182840Y-90078220D01*
X125122722Y-90085245D01*
X125100310Y-90087619D01*
X125049071Y-90093064D01*
X125005493Y-90097864D01*
X124974193Y-90101499D01*
X124959799Y-90103448D01*
X124943587Y-90103406D01*
X124913946Y-90100809D01*
X124892848Y-90098257D01*
X124823293Y-90079741D01*
X124765654Y-90043821D01*
X124718869Y-89989670D01*
X124692816Y-89942233D01*
X124682333Y-89917116D01*
X124675273Y-89892226D01*
X124670994Y-89862492D01*
X124668854Y-89822840D01*
X124668211Y-89768198D01*
X124668215Y-89747814D01*
X124670732Y-89665963D01*
X124677551Y-89587112D01*
X124687998Y-89515480D01*
X124701403Y-89455286D01*
X124717093Y-89410746D01*
X124723916Y-89398168D01*
X124739321Y-89381093D01*
X124760652Y-89376178D01*
X124779708Y-89377608D01*
X124808275Y-89376983D01*
X124851968Y-89371017D01*
X124905205Y-89360581D01*
X124938182Y-89352842D01*
X125013338Y-89334747D01*
X125071097Y-89322579D01*
X125114768Y-89316065D01*
X125147663Y-89314935D01*
X125173093Y-89318917D01*
G37*
G36*
X130188242Y-89340534D02*
G01*
X130209519Y-89349357D01*
X130215658Y-89352951D01*
X130246820Y-89379225D01*
X130266233Y-89409580D01*
X130270403Y-89438049D01*
X130268828Y-89443730D01*
X130254096Y-89455579D01*
X130223138Y-89464570D01*
X130210663Y-89466503D01*
X130145699Y-89476109D01*
X130078065Y-89488394D01*
X130011724Y-89502396D01*
X129950639Y-89517153D01*
X129898775Y-89531703D01*
X129860094Y-89545083D01*
X129838560Y-89556333D01*
X129837804Y-89557009D01*
X129833339Y-89569574D01*
X129826959Y-89597459D01*
X129819633Y-89635011D01*
X129812334Y-89676574D01*
X129806032Y-89716495D01*
X129801697Y-89749119D01*
X129800302Y-89768792D01*
X129800901Y-89771923D01*
X129812036Y-89770745D01*
X129839972Y-89765101D01*
X129880570Y-89755892D01*
X129929691Y-89744017D01*
X129932825Y-89743238D01*
X130031627Y-89719843D01*
X130117071Y-89702088D01*
X130187530Y-89690229D01*
X130241377Y-89684524D01*
X130276986Y-89685230D01*
X130285892Y-89687416D01*
X130311499Y-89703187D01*
X130335637Y-89726878D01*
X130335669Y-89726918D01*
X130349923Y-89751739D01*
X130346592Y-89769671D01*
X130324396Y-89782182D01*
X130282055Y-89790738D01*
X130279745Y-89791042D01*
X130232692Y-89799050D01*
X130173033Y-89812039D01*
X130105656Y-89828647D01*
X130035447Y-89847516D01*
X129967294Y-89867284D01*
X129906084Y-89886592D01*
X129856705Y-89904081D01*
X129826193Y-89917255D01*
X129813211Y-89931373D01*
X129817669Y-89948620D01*
X129836100Y-89966627D01*
X129865035Y-89983030D01*
X129901009Y-89995462D01*
X129940553Y-90001557D01*
X129950108Y-90001814D01*
X129982793Y-89999413D01*
X130028253Y-89993022D01*
X130078281Y-89983856D01*
X130094389Y-89980431D01*
X130139578Y-89970877D01*
X130178361Y-89963468D01*
X130204734Y-89959320D01*
X130210864Y-89958814D01*
X130234964Y-89967441D01*
X130260922Y-89989250D01*
X130282495Y-90017383D01*
X130293436Y-90044980D01*
X130293799Y-90049888D01*
X130291962Y-90065175D01*
X130284457Y-90076818D01*
X130268288Y-90085811D01*
X130240464Y-90093152D01*
X130197989Y-90099837D01*
X130137871Y-90106862D01*
X130115459Y-90109236D01*
X130064220Y-90114681D01*
X130020641Y-90119481D01*
X129989342Y-90123116D01*
X129974948Y-90125065D01*
X129958736Y-90125023D01*
X129929095Y-90122426D01*
X129907997Y-90119874D01*
X129838442Y-90101358D01*
X129780803Y-90065438D01*
X129734018Y-90011287D01*
X129707965Y-89963850D01*
X129697482Y-89938733D01*
X129690422Y-89913843D01*
X129686143Y-89884109D01*
X129684003Y-89844457D01*
X129683360Y-89789815D01*
X129683364Y-89769431D01*
X129685881Y-89687580D01*
X129692700Y-89608729D01*
X129703147Y-89537097D01*
X129716552Y-89476903D01*
X129732242Y-89432363D01*
X129739065Y-89419785D01*
X129754470Y-89402710D01*
X129775801Y-89397795D01*
X129794857Y-89399225D01*
X129823424Y-89398600D01*
X129867117Y-89392634D01*
X129920354Y-89382198D01*
X129953331Y-89374459D01*
X130028487Y-89356364D01*
X130086246Y-89344196D01*
X130129917Y-89337682D01*
X130162812Y-89336552D01*
X130188242Y-89340534D01*
G37*
X123320000Y-105350000D02*
X123320000Y-108770000D01*
X123320000Y-108770000D02*
X132790000Y-108770000D01*
X123630000Y-106710000D02*
X123830000Y-106710000D01*
X123630000Y-107510000D02*
X123630000Y-106710000D01*
X123830000Y-105860000D02*
X128055000Y-105860000D01*
X123830000Y-106710000D02*
X123830000Y-105860000D01*
X123830000Y-107510000D02*
X123630000Y-107510000D01*
X123830000Y-108260000D02*
X123830000Y-107510000D01*
X128055000Y-108260000D02*
X123830000Y-108260000D01*
X128055000Y-108260000D02*
X132280000Y-108260000D01*
X132280000Y-105860000D02*
X128055000Y-105860000D01*
X132280000Y-106710000D02*
X132280000Y-105860000D01*
X132280000Y-107510000D02*
X132480000Y-107510000D01*
X132280000Y-108260000D02*
X132280000Y-107510000D01*
X132480000Y-106710000D02*
X132280000Y-106710000D01*
X132480000Y-107510000D02*
X132480000Y-106710000D01*
X132790000Y-105350000D02*
X123320000Y-105350000D01*
X132790000Y-108770000D02*
X132790000Y-105350000D01*
X128850000Y-100677836D02*
X128850000Y-100462164D01*
X129570000Y-100677836D02*
X129570000Y-100462164D01*
X131390000Y-97920000D02*
G75*
G03*
X131390000Y-97920000I-700000J0D01*
G01*
D12*
X126680000Y-88460000D02*
X127040000Y-88460000D01*
X127040000Y-88460000D02*
X127040000Y-88100000D01*
X127040000Y-88100000D02*
X126680000Y-88100000D01*
X126680000Y-88100000D02*
X126680000Y-88460000D01*
G36*
X126680000Y-88460000D02*
G01*
X127040000Y-88460000D01*
X127040000Y-88100000D01*
X126680000Y-88100000D01*
X126680000Y-88460000D01*
G37*
D10*
X132390336Y-93695000D02*
X132174664Y-93695000D01*
X132390336Y-92975000D02*
X132174664Y-92975000D01*
X128430000Y-88443641D02*
X128430000Y-88136359D01*
X129190000Y-88443641D02*
X129190000Y-88136359D01*
X148993641Y-99380000D02*
X148686359Y-99380000D01*
X148993641Y-98620000D02*
X148686359Y-98620000D01*
D12*
X149160000Y-100750000D02*
X148360000Y-100750000D01*
D10*
X150665000Y-94040000D02*
X150665000Y-92690000D01*
X150665000Y-94040000D02*
X144745000Y-94040000D01*
X150665000Y-88320000D02*
X150665000Y-89670000D01*
X150665000Y-88320000D02*
X144745000Y-88320000D01*
X144745000Y-94040000D02*
X144745000Y-92690000D01*
X144745000Y-88320000D02*
X144745000Y-89670000D01*
X135041693Y-102360810D02*
X134889190Y-102208307D01*
X135550810Y-101851693D02*
X135398307Y-101699190D01*
X106925000Y-83405000D02*
X108255000Y-83405000D01*
X106925000Y-84735000D02*
X106925000Y-83405000D01*
X106925000Y-86005000D02*
X106925000Y-108925000D01*
X106925000Y-86005000D02*
X109585000Y-86005000D01*
X106925000Y-108925000D02*
X109585000Y-108925000D01*
X109585000Y-86005000D02*
X109585000Y-108925000D01*
X133110000Y-105350000D02*
X133110000Y-108770000D01*
X133110000Y-108770000D02*
X140080000Y-108770000D01*
X133420000Y-106710000D02*
X133620000Y-106710000D01*
X133420000Y-107510000D02*
X133420000Y-106710000D01*
X133620000Y-105860000D02*
X136595000Y-105860000D01*
X133620000Y-106710000D02*
X133620000Y-105860000D01*
X133620000Y-107510000D02*
X133420000Y-107510000D01*
X133620000Y-108260000D02*
X133620000Y-107510000D01*
X136595000Y-108260000D02*
X133620000Y-108260000D01*
X136595000Y-108260000D02*
X139570000Y-108260000D01*
X139570000Y-105860000D02*
X136595000Y-105860000D01*
X139570000Y-106710000D02*
X139570000Y-105860000D01*
X139570000Y-107510000D02*
X139770000Y-107510000D01*
X139570000Y-108260000D02*
X139570000Y-107510000D01*
X139770000Y-106710000D02*
X139570000Y-106710000D01*
X139770000Y-107510000D02*
X139770000Y-106710000D01*
X140080000Y-105350000D02*
X133110000Y-105350000D01*
X140080000Y-108770000D02*
X140080000Y-105350000D01*
X135485000Y-93280000D02*
X137355000Y-93280000D01*
X137355000Y-93280000D02*
X137355000Y-89370000D01*
X135485000Y-89370000D02*
X135485000Y-93280000D01*
D12*
X113340000Y-101785000D02*
X113340000Y-97935000D01*
X110140000Y-101785000D02*
X110140000Y-97935000D01*
X112640000Y-99860000D02*
G75*
G03*
X112640000Y-99860000I-900000J0D01*
G01*
D10*
X134995000Y-92620000D02*
G75*
G03*
X134995000Y-92620000I-700000J0D01*
G01*
X122027836Y-104860000D02*
X121812164Y-104860000D01*
X122027836Y-104140000D02*
X121812164Y-104140000D01*
X115790000Y-83646000D02*
X115790000Y-84662000D01*
X115790000Y-83646000D02*
X116552000Y-83646000D01*
X115790000Y-87202000D02*
X115790000Y-88472000D01*
X116552000Y-89996000D02*
X117822000Y-89996000D01*
X121378000Y-83646000D02*
X117822000Y-83646000D01*
X121378000Y-89996000D02*
X122648000Y-89996000D01*
X122648000Y-83646000D02*
X123410000Y-83646000D01*
X123410000Y-83646000D02*
X123410000Y-84662000D01*
X123410000Y-87202000D02*
X123410000Y-88472000D01*
X136146359Y-87440000D02*
X136453641Y-87440000D01*
X136146359Y-88200000D02*
X136453641Y-88200000D01*
X128080000Y-92172164D02*
X128080000Y-92387836D01*
X127360000Y-92172164D02*
X127360000Y-92387836D01*
X116042164Y-102690000D02*
X116257836Y-102690000D01*
X116042164Y-103410000D02*
X116257836Y-103410000D01*
X137080000Y-100450000D02*
G75*
G03*
X137080000Y-100450000I-700000J0D01*
G01*
X125020000Y-88433641D02*
X125020000Y-88126359D01*
X125780000Y-88433641D02*
X125780000Y-88126359D01*
X113510000Y-99873641D02*
X113510000Y-99566359D01*
X114270000Y-99873641D02*
X114270000Y-99566359D01*
X114030000Y-95960000D02*
X112900000Y-95960000D01*
X114030000Y-95200000D02*
X114030000Y-95960000D01*
X114030000Y-94440000D02*
X114030000Y-89425000D01*
X114030000Y-94440000D02*
X113463471Y-94440000D01*
X114030000Y-89425000D02*
X113207530Y-89425000D01*
X112336529Y-94440000D02*
X112193471Y-94440000D01*
X112140000Y-95895000D02*
X111937530Y-95895000D01*
X112140000Y-95763471D02*
X112140000Y-95895000D01*
X112140000Y-94493471D02*
X112140000Y-94636529D01*
X111322470Y-95895000D02*
X110500000Y-95895000D01*
X111322470Y-89425000D02*
X110500000Y-89425000D01*
X110500000Y-95895000D02*
X110500000Y-89425000D01*
D12*
X115030000Y-93930000D02*
X114630000Y-93930000D01*
X114630000Y-93930000D02*
X114630000Y-91390000D01*
X114630000Y-91390000D02*
X115030000Y-91390000D01*
X115030000Y-91390000D02*
X115030000Y-93930000D01*
G36*
X115030000Y-93930000D02*
G01*
X114630000Y-93930000D01*
X114630000Y-91390000D01*
X115030000Y-91390000D01*
X115030000Y-93930000D01*
G37*
D10*
X115642164Y-101590000D02*
X115857836Y-101590000D01*
X115642164Y-102310000D02*
X115857836Y-102310000D01*
X116752164Y-91270000D02*
X116967836Y-91270000D01*
X116752164Y-91990000D02*
X116967836Y-91990000D01*
X111946359Y-102900000D02*
X112253641Y-102900000D01*
X111946359Y-103660000D02*
X112253641Y-103660000D01*
D12*
X116080000Y-104740000D02*
X116080000Y-105540000D01*
D10*
X132880000Y-97920000D02*
G75*
G03*
X132880000Y-97920000I-700000J0D01*
G01*
D12*
X116480000Y-108460000D02*
X116480000Y-107660000D01*
D10*
X131284000Y-96336000D02*
X131538000Y-96336000D01*
X131284000Y-96336000D02*
X131284000Y-96082000D01*
X131538000Y-96336000D02*
X131284000Y-96336000D01*
X133316000Y-96336000D02*
X133062000Y-96336000D01*
X133316000Y-96336000D02*
X133316000Y-96082000D01*
X131538000Y-94304000D02*
X131284000Y-94558000D01*
X133062000Y-94304000D02*
X133316000Y-94304000D01*
X133316000Y-94304000D02*
X133316000Y-94558000D01*
X133316000Y-94304000D02*
X133062000Y-94304000D01*
D14*
X132004000Y-94939000D02*
G75*
G03*
X132004000Y-94939000I-85000J0D01*
G01*
D10*
X143345000Y-100290000D02*
X137335000Y-100290000D01*
X141095000Y-93470000D02*
X137335000Y-93470000D01*
X137335000Y-100290000D02*
X137335000Y-99030000D01*
X137335000Y-93470000D02*
X137335000Y-94730000D01*
X116752164Y-90350000D02*
X116967836Y-90350000D01*
X116752164Y-91070000D02*
X116967836Y-91070000D01*
X130436000Y-99624000D02*
X130436000Y-100132000D01*
X130436000Y-99624000D02*
X130944000Y-99624000D01*
X131252000Y-104210000D02*
X131760000Y-104210000D01*
X132668000Y-104210000D02*
X132160000Y-104210000D01*
X133484000Y-99624000D02*
X132976000Y-99624000D01*
X133484000Y-99624000D02*
X133484000Y-100132000D01*
D15*
X131510000Y-103810000D02*
G75*
G03*
X131510000Y-103810000I-150000J0D01*
G01*
D10*
X114240000Y-87963641D02*
X114240000Y-87656359D01*
X115000000Y-87963641D02*
X115000000Y-87656359D01*
X150173641Y-103280000D02*
X149866359Y-103280000D01*
X150173641Y-102520000D02*
X149866359Y-102520000D01*
X119962164Y-104610000D02*
X120177836Y-104610000D01*
X119962164Y-105330000D02*
X120177836Y-105330000D01*
X140300000Y-86960000D02*
X140300000Y-83540000D01*
X140300000Y-83540000D02*
X134580000Y-83540000D01*
X139990000Y-85600000D02*
X139790000Y-85600000D01*
X139990000Y-84800000D02*
X139990000Y-85600000D01*
X139790000Y-86450000D02*
X137440000Y-86450000D01*
X139790000Y-85600000D02*
X139790000Y-86450000D01*
X139790000Y-84800000D02*
X139990000Y-84800000D01*
X139790000Y-84050000D02*
X139790000Y-84800000D01*
X137440000Y-84050000D02*
X139790000Y-84050000D01*
X137440000Y-84050000D02*
X135090000Y-84050000D01*
X135090000Y-86450000D02*
X137440000Y-86450000D01*
X135090000Y-85600000D02*
X135090000Y-86450000D01*
X135090000Y-84800000D02*
X134890000Y-84800000D01*
X135090000Y-84050000D02*
X135090000Y-84800000D01*
X134890000Y-85600000D02*
X135090000Y-85600000D01*
X134890000Y-84800000D02*
X134890000Y-85600000D01*
X134580000Y-86960000D02*
X140300000Y-86960000D01*
X134580000Y-83540000D02*
X134580000Y-86960000D01*
X123632164Y-104140000D02*
X123847836Y-104140000D01*
X123632164Y-104860000D02*
X123847836Y-104860000D01*
X114270000Y-101426359D02*
X114270000Y-101733641D01*
X113510000Y-101426359D02*
X113510000Y-101733641D01*
X114250000Y-96862164D02*
X114250000Y-97077836D01*
X113530000Y-96862164D02*
X113530000Y-97077836D01*
X101845000Y-83405000D02*
X103175000Y-83405000D01*
X101845000Y-84735000D02*
X101845000Y-83405000D01*
X101845000Y-86005000D02*
X101845000Y-108925000D01*
X101845000Y-86005000D02*
X104505000Y-86005000D01*
X101845000Y-108925000D02*
X104505000Y-108925000D01*
X104505000Y-86005000D02*
X104505000Y-108925000D01*
X147122659Y-103259940D02*
X147339940Y-103042659D01*
X147660060Y-103797341D02*
X147877341Y-103580060D01*
X130620000Y-99190000D02*
G75*
G03*
X130620000Y-99190000I-700000J0D01*
G01*
X134360000Y-97920000D02*
G75*
G03*
X134360000Y-97920000I-700000J0D01*
G01*
%LPC*%
D16*
X132175000Y-84800000D03*
D17*
X130925000Y-84800000D03*
X129675000Y-84800000D03*
X128425000Y-84800000D03*
X127175000Y-84800000D03*
X125925000Y-84800000D03*
D18*
X114780000Y-103020000D03*
X114780000Y-103980000D03*
D19*
X132170000Y-91010000D03*
X132170000Y-88310000D03*
D16*
X145200000Y-84800000D03*
D17*
X143950000Y-84800000D03*
X142700000Y-84800000D03*
D20*
X137498822Y-101690589D03*
X136820000Y-102369411D03*
D21*
X115492500Y-106600000D03*
X117067500Y-106600000D03*
D18*
X122470000Y-106810000D03*
X122470000Y-107770000D03*
D22*
X149455000Y-96280000D03*
X145155000Y-96280000D03*
D23*
X156455000Y-97807000D03*
X156455000Y-105910000D03*
D24*
X110275000Y-85860000D03*
X110758274Y-84693274D03*
X110758274Y-87026726D03*
X111925000Y-84210000D03*
D25*
X111925000Y-85860000D03*
D24*
X111925000Y-87510000D03*
X113091726Y-84693274D03*
X113091726Y-87026726D03*
X113575000Y-85860000D03*
D18*
X128640000Y-91800000D03*
X128640000Y-92760000D03*
D26*
X156455000Y-87410000D03*
D27*
X118175000Y-103015000D03*
X118675000Y-103015000D03*
X119175000Y-103015000D03*
X119675000Y-103015000D03*
X120175000Y-103015000D03*
X120675000Y-103015000D03*
X121175000Y-103015000D03*
X121675000Y-103015000D03*
X122175000Y-103015000D03*
X122675000Y-103015000D03*
X123175000Y-103015000D03*
X123675000Y-103015000D03*
X124175000Y-103015000D03*
X124675000Y-103015000D03*
X125175000Y-103015000D03*
X125675000Y-103015000D03*
D28*
X127600000Y-101090000D03*
X127600000Y-100590000D03*
X127600000Y-100090000D03*
X127600000Y-99590000D03*
X127600000Y-99090000D03*
X127600000Y-98590000D03*
X127600000Y-98090000D03*
X127600000Y-97590000D03*
X127600000Y-97090000D03*
X127600000Y-96590000D03*
X127600000Y-96090000D03*
X127600000Y-95590000D03*
X127600000Y-95090000D03*
X127600000Y-94590000D03*
X127600000Y-94090000D03*
X127600000Y-93590000D03*
D27*
X125675000Y-91665000D03*
X125175000Y-91665000D03*
X124675000Y-91665000D03*
X124175000Y-91665000D03*
X123675000Y-91665000D03*
X123175000Y-91665000D03*
X122675000Y-91665000D03*
X122175000Y-91665000D03*
X121675000Y-91665000D03*
X121175000Y-91665000D03*
X120675000Y-91665000D03*
X120175000Y-91665000D03*
X119675000Y-91665000D03*
X119175000Y-91665000D03*
X118675000Y-91665000D03*
X118175000Y-91665000D03*
D28*
X116250000Y-93590000D03*
X116250000Y-94090000D03*
X116250000Y-94590000D03*
X116250000Y-95090000D03*
X116250000Y-95590000D03*
X116250000Y-96090000D03*
X116250000Y-96590000D03*
X116250000Y-97090000D03*
X116250000Y-97590000D03*
X116250000Y-98090000D03*
X116250000Y-98590000D03*
X116250000Y-99090000D03*
X116250000Y-99590000D03*
X116250000Y-100090000D03*
X116250000Y-100590000D03*
X116250000Y-101090000D03*
D29*
X150220000Y-100162500D03*
X150220000Y-101737500D03*
D24*
X148575000Y-106460000D03*
X149058274Y-105293274D03*
X149058274Y-107626726D03*
X150225000Y-104810000D03*
D25*
X150225000Y-106460000D03*
D24*
X150225000Y-108110000D03*
X151391726Y-105293274D03*
X151391726Y-107626726D03*
X151875000Y-106460000D03*
D30*
X141705000Y-89510000D03*
D31*
X141705000Y-91510000D03*
D32*
X129210000Y-102870000D03*
X129210000Y-101910000D03*
D33*
X142010000Y-107510000D03*
D17*
X143260000Y-107510000D03*
X144510000Y-107510000D03*
X145760000Y-107510000D03*
D34*
X156455000Y-91238500D03*
X156455000Y-91633500D03*
X156455000Y-94583500D03*
X156455000Y-94978500D03*
D29*
X147300000Y-100162500D03*
X147300000Y-101737500D03*
D35*
X105715000Y-84735000D03*
D36*
X105715000Y-87275000D03*
X105715000Y-89815000D03*
X105715000Y-92355000D03*
X105715000Y-94895000D03*
X105715000Y-97435000D03*
X105715000Y-99975000D03*
X105715000Y-102515000D03*
X105715000Y-105055000D03*
X105715000Y-107595000D03*
D18*
X130312500Y-95130000D03*
X130312500Y-96090000D03*
D33*
X124930000Y-107510000D03*
D17*
X126180000Y-107510000D03*
X127430000Y-107510000D03*
X128680000Y-107510000D03*
X129930000Y-107510000D03*
X131180000Y-107510000D03*
D32*
X129210000Y-101050000D03*
X129210000Y-100090000D03*
D37*
X130690000Y-97920000D03*
D38*
X126860000Y-88790000D03*
X126860000Y-87770000D03*
D39*
X132762500Y-93335000D03*
X131802500Y-93335000D03*
D38*
X128810000Y-88800000D03*
X128810000Y-87780000D03*
D40*
X149350000Y-99000000D03*
X148330000Y-99000000D03*
D29*
X148760000Y-100162500D03*
X148760000Y-101737500D03*
D41*
X140040000Y-103150000D03*
D42*
X140040000Y-101880000D03*
X141310000Y-103150000D03*
X141310000Y-101880000D03*
X142580000Y-103150000D03*
X142580000Y-101880000D03*
X143850000Y-103150000D03*
X143850000Y-101880000D03*
X145120000Y-103150000D03*
X145120000Y-101880000D03*
D43*
X149755000Y-91180000D03*
X145655000Y-91180000D03*
D44*
X135559411Y-102369411D03*
X134880589Y-101690589D03*
D35*
X108255000Y-84735000D03*
D36*
X108255000Y-87275000D03*
X108255000Y-89815000D03*
X108255000Y-92355000D03*
X108255000Y-94895000D03*
X108255000Y-97435000D03*
X108255000Y-99975000D03*
X108255000Y-102515000D03*
X108255000Y-105055000D03*
X108255000Y-107595000D03*
D33*
X134720000Y-107510000D03*
D17*
X135970000Y-107510000D03*
X137220000Y-107510000D03*
X138470000Y-107510000D03*
D19*
X136420000Y-92320000D03*
X136420000Y-89620000D03*
D45*
X111740000Y-102085000D03*
X111740000Y-97635000D03*
D37*
X134295000Y-92620000D03*
D39*
X122400000Y-104500000D03*
X121440000Y-104500000D03*
D46*
X120900000Y-89182000D03*
X120250000Y-89182000D03*
X119600000Y-89182000D03*
X118950000Y-89182000D03*
X118300000Y-89182000D03*
D47*
X116000000Y-85932000D03*
D48*
X116000000Y-89382000D03*
D47*
X123200000Y-85932000D03*
D48*
X123200000Y-89382000D03*
D49*
X135790000Y-87820000D03*
X136810000Y-87820000D03*
D18*
X127720000Y-91800000D03*
X127720000Y-92760000D03*
D50*
X115670000Y-103050000D03*
X116630000Y-103050000D03*
D37*
X136380000Y-100450000D03*
D38*
X125400000Y-88790000D03*
X125400000Y-87770000D03*
D24*
X110275000Y-106460000D03*
X110758274Y-105293274D03*
X110758274Y-107626726D03*
X111925000Y-104810000D03*
D25*
X111925000Y-106460000D03*
D24*
X111925000Y-108110000D03*
X113091726Y-105293274D03*
X113091726Y-107626726D03*
X113575000Y-106460000D03*
D38*
X113890000Y-100230000D03*
X113890000Y-99210000D03*
D41*
X112900000Y-95200000D03*
D42*
X111630000Y-95200000D03*
X112900000Y-93930000D03*
X111630000Y-93930000D03*
X112900000Y-92660000D03*
X111630000Y-92660000D03*
X112900000Y-91390000D03*
X111630000Y-91390000D03*
X112900000Y-90120000D03*
X111630000Y-90120000D03*
D50*
X115270000Y-101950000D03*
X116230000Y-101950000D03*
D51*
X118810000Y-107980000D03*
X121010000Y-107980000D03*
X121010000Y-106280000D03*
X118810000Y-106280000D03*
D50*
X116380000Y-91630000D03*
X117340000Y-91630000D03*
D49*
X111590000Y-103280000D03*
X112610000Y-103280000D03*
D21*
X115492500Y-105140000D03*
X117067500Y-105140000D03*
D37*
X132180000Y-97920000D03*
D52*
X117067500Y-108060000D03*
X115492500Y-108060000D03*
D53*
X131287500Y-95074000D03*
X131287500Y-95574000D03*
D54*
X131800000Y-96332500D03*
X132300000Y-96332500D03*
X132800000Y-96332500D03*
D53*
X133312500Y-95570000D03*
X133312500Y-95070000D03*
D54*
X132800000Y-94307500D03*
X132300000Y-94307500D03*
X131800000Y-94307500D03*
D55*
X142395000Y-99180000D03*
X142395000Y-96880000D03*
D56*
X136095000Y-96880000D03*
D55*
X142395000Y-94580000D03*
D50*
X116380000Y-90710000D03*
X117340000Y-90710000D03*
D57*
X130445000Y-103410000D03*
X130445000Y-102910000D03*
X130445000Y-102410000D03*
X130445000Y-101910000D03*
X130445000Y-101410000D03*
X130445000Y-100910000D03*
X130445000Y-100410000D03*
D58*
X131960000Y-99645000D03*
D57*
X133475000Y-100410000D03*
X133475000Y-100910000D03*
X133475000Y-101410000D03*
X133475000Y-101910000D03*
X133475000Y-102410000D03*
X133475000Y-102910000D03*
X133475000Y-103410000D03*
D58*
X131960000Y-104175000D03*
D38*
X114620000Y-88320000D03*
X114620000Y-87300000D03*
D40*
X150530000Y-102900000D03*
X149510000Y-102900000D03*
D24*
X148575000Y-85860000D03*
X149058274Y-84693274D03*
X149058274Y-87026726D03*
X150225000Y-84210000D03*
D25*
X150225000Y-85860000D03*
D24*
X150225000Y-87510000D03*
X151391726Y-84693274D03*
X151391726Y-87026726D03*
X151875000Y-85860000D03*
D50*
X119590000Y-104970000D03*
X120550000Y-104970000D03*
D16*
X138690000Y-84800000D03*
D17*
X137440000Y-84800000D03*
X136190000Y-84800000D03*
D50*
X123260000Y-104500000D03*
X124220000Y-104500000D03*
D59*
X113890000Y-101070000D03*
X113890000Y-102090000D03*
D18*
X113890000Y-96490000D03*
X113890000Y-97450000D03*
D35*
X103175000Y-84735000D03*
D36*
X103175000Y-87275000D03*
X103175000Y-89815000D03*
X103175000Y-92355000D03*
X103175000Y-94895000D03*
X103175000Y-97435000D03*
X103175000Y-99975000D03*
X103175000Y-102515000D03*
X103175000Y-105055000D03*
X103175000Y-107595000D03*
D60*
X147139376Y-103780624D03*
X147860624Y-103059376D03*
D37*
X129920000Y-99190000D03*
X133660000Y-97920000D03*
%LPD*%
M02*
