G04 #@! TF.GenerationSoftware,KiCad,Pcbnew,8.0.1*
G04 #@! TF.CreationDate,2024-08-06T04:56:33+03:00*
G04 #@! TF.ProjectId,Penguin Junior,50656e67-7569-46e2-904a-756e696f722e,rev?*
G04 #@! TF.SameCoordinates,Original*
G04 #@! TF.FileFunction,Copper,L4,Bot*
G04 #@! TF.FilePolarity,Positive*
%FSLAX46Y46*%
G04 Gerber Fmt 4.6, Leading zero omitted, Abs format (unit mm)*
G04 Created by KiCad (PCBNEW 8.0.1) date 2024-08-06 04:56:33*
%MOMM*%
%LPD*%
G01*
G04 APERTURE LIST*
G04 Aperture macros list*
%AMRoundRect*
0 Rectangle with rounded corners*
0 $1 Rounding radius*
0 $2 $3 $4 $5 $6 $7 $8 $9 X,Y pos of 4 corners*
0 Add a 4 corners polygon primitive as box body*
4,1,4,$2,$3,$4,$5,$6,$7,$8,$9,$2,$3,0*
0 Add four circle primitives for the rounded corners*
1,1,$1+$1,$2,$3*
1,1,$1+$1,$4,$5*
1,1,$1+$1,$6,$7*
1,1,$1+$1,$8,$9*
0 Add four rect primitives between the rounded corners*
20,1,$1+$1,$2,$3,$4,$5,0*
20,1,$1+$1,$4,$5,$6,$7,0*
20,1,$1+$1,$6,$7,$8,$9,0*
20,1,$1+$1,$8,$9,$2,$3,0*%
%AMFreePoly0*
4,1,19,0.550000,-0.750000,0.000000,-0.750000,0.000000,-0.744911,-0.071157,-0.744911,-0.207708,-0.704816,-0.327430,-0.627875,-0.420627,-0.520320,-0.479746,-0.390866,-0.500000,-0.250000,-0.500000,0.250000,-0.479746,0.390866,-0.420627,0.520320,-0.327430,0.627875,-0.207708,0.704816,-0.071157,0.744911,0.000000,0.744911,0.000000,0.750000,0.550000,0.750000,0.550000,-0.750000,0.550000,-0.750000,
$1*%
%AMFreePoly1*
4,1,19,0.000000,0.744911,0.071157,0.744911,0.207708,0.704816,0.327430,0.627875,0.420627,0.520320,0.479746,0.390866,0.500000,0.250000,0.500000,-0.250000,0.479746,-0.390866,0.420627,-0.520320,0.327430,-0.627875,0.207708,-0.704816,0.071157,-0.744911,0.000000,-0.744911,0.000000,-0.750000,-0.550000,-0.750000,-0.550000,0.750000,0.000000,0.750000,0.000000,0.744911,0.000000,0.744911,
$1*%
%AMFreePoly2*
4,1,19,0.500000,-0.750000,0.000000,-0.750000,0.000000,-0.744911,-0.071157,-0.744911,-0.207708,-0.704816,-0.327430,-0.627875,-0.420627,-0.520320,-0.479746,-0.390866,-0.500000,-0.250000,-0.500000,0.250000,-0.479746,0.390866,-0.420627,0.520320,-0.327430,0.627875,-0.207708,0.704816,-0.071157,0.744911,0.000000,0.744911,0.000000,0.750000,0.500000,0.750000,0.500000,-0.750000,0.500000,-0.750000,
$1*%
%AMFreePoly3*
4,1,19,0.000000,0.744911,0.071157,0.744911,0.207708,0.704816,0.327430,0.627875,0.420627,0.520320,0.479746,0.390866,0.500000,0.250000,0.500000,-0.250000,0.479746,-0.390866,0.420627,-0.520320,0.327430,-0.627875,0.207708,-0.704816,0.071157,-0.744911,0.000000,-0.744911,0.000000,-0.750000,-0.500000,-0.750000,-0.500000,0.750000,0.000000,0.750000,0.000000,0.744911,0.000000,0.744911,
$1*%
G04 Aperture macros list end*
G04 #@! TA.AperFunction,ComponentPad*
%ADD10O,0.900000X1.300000*%
G04 #@! TD*
G04 #@! TA.AperFunction,ComponentPad*
%ADD11C,0.700000*%
G04 #@! TD*
G04 #@! TA.AperFunction,ComponentPad*
%ADD12C,4.400000*%
G04 #@! TD*
G04 #@! TA.AperFunction,ComponentPad*
%ADD13C,1.600000*%
G04 #@! TD*
G04 #@! TA.AperFunction,ComponentPad*
%ADD14C,1.700000*%
G04 #@! TD*
G04 #@! TA.AperFunction,ComponentPad*
%ADD15O,1.700000X1.700000*%
G04 #@! TD*
G04 #@! TA.AperFunction,ComponentPad*
%ADD16C,1.000000*%
G04 #@! TD*
G04 #@! TA.AperFunction,ComponentPad*
%ADD17O,1.000000X1.000000*%
G04 #@! TD*
G04 #@! TA.AperFunction,ComponentPad*
%ADD18O,1.000000X1.400000*%
G04 #@! TD*
G04 #@! TA.AperFunction,ComponentPad*
%ADD19O,1.000000X1.800000*%
G04 #@! TD*
G04 #@! TA.AperFunction,SMDPad,CuDef*
%ADD20RoundRect,0.135000X0.185000X-0.135000X0.185000X0.135000X-0.185000X0.135000X-0.185000X-0.135000X0*%
G04 #@! TD*
G04 #@! TA.AperFunction,SMDPad,CuDef*
%ADD21RoundRect,0.250000X1.000000X0.900000X-1.000000X0.900000X-1.000000X-0.900000X1.000000X-0.900000X0*%
G04 #@! TD*
G04 #@! TA.AperFunction,SMDPad,CuDef*
%ADD22FreePoly0,180.000000*%
G04 #@! TD*
G04 #@! TA.AperFunction,SMDPad,CuDef*
%ADD23R,1.000000X1.500000*%
G04 #@! TD*
G04 #@! TA.AperFunction,SMDPad,CuDef*
%ADD24FreePoly1,180.000000*%
G04 #@! TD*
G04 #@! TA.AperFunction,SMDPad,CuDef*
%ADD25RoundRect,0.135000X-0.135000X-0.185000X0.135000X-0.185000X0.135000X0.185000X-0.135000X0.185000X0*%
G04 #@! TD*
G04 #@! TA.AperFunction,SMDPad,CuDef*
%ADD26FreePoly2,180.000000*%
G04 #@! TD*
G04 #@! TA.AperFunction,SMDPad,CuDef*
%ADD27FreePoly3,180.000000*%
G04 #@! TD*
G04 #@! TA.AperFunction,SMDPad,CuDef*
%ADD28R,1.910000X0.610000*%
G04 #@! TD*
G04 #@! TA.AperFunction,SMDPad,CuDef*
%ADD29R,1.205000X1.550000*%
G04 #@! TD*
G04 #@! TA.AperFunction,SMDPad,CuDef*
%ADD30RoundRect,0.135000X-0.185000X0.135000X-0.185000X-0.135000X0.185000X-0.135000X0.185000X0.135000X0*%
G04 #@! TD*
G04 #@! TA.AperFunction,SMDPad,CuDef*
%ADD31RoundRect,0.135000X0.135000X0.185000X-0.135000X0.185000X-0.135000X-0.185000X0.135000X-0.185000X0*%
G04 #@! TD*
G04 #@! TA.AperFunction,SMDPad,CuDef*
%ADD32RoundRect,0.200000X-0.200000X-0.275000X0.200000X-0.275000X0.200000X0.275000X-0.200000X0.275000X0*%
G04 #@! TD*
G04 #@! TA.AperFunction,SMDPad,CuDef*
%ADD33RoundRect,0.200000X0.200000X0.275000X-0.200000X0.275000X-0.200000X-0.275000X0.200000X-0.275000X0*%
G04 #@! TD*
G04 #@! TA.AperFunction,SMDPad,CuDef*
%ADD34RoundRect,0.250000X-0.475000X0.250000X-0.475000X-0.250000X0.475000X-0.250000X0.475000X0.250000X0*%
G04 #@! TD*
G04 #@! TA.AperFunction,SMDPad,CuDef*
%ADD35RoundRect,0.140000X0.140000X0.170000X-0.140000X0.170000X-0.140000X-0.170000X0.140000X-0.170000X0*%
G04 #@! TD*
G04 #@! TA.AperFunction,SMDPad,CuDef*
%ADD36C,1.000000*%
G04 #@! TD*
G04 #@! TA.AperFunction,SMDPad,CuDef*
%ADD37R,1.400000X1.200000*%
G04 #@! TD*
G04 #@! TA.AperFunction,SMDPad,CuDef*
%ADD38RoundRect,0.140000X-0.170000X0.140000X-0.170000X-0.140000X0.170000X-0.140000X0.170000X0.140000X0*%
G04 #@! TD*
G04 #@! TA.AperFunction,SMDPad,CuDef*
%ADD39RoundRect,0.100000X0.100000X-0.637500X0.100000X0.637500X-0.100000X0.637500X-0.100000X-0.637500X0*%
G04 #@! TD*
G04 #@! TA.AperFunction,SMDPad,CuDef*
%ADD40R,5.400000X2.850000*%
G04 #@! TD*
G04 #@! TA.AperFunction,SMDPad,CuDef*
%ADD41RoundRect,0.250001X0.624999X-0.462499X0.624999X0.462499X-0.624999X0.462499X-0.624999X-0.462499X0*%
G04 #@! TD*
G04 #@! TA.AperFunction,SMDPad,CuDef*
%ADD42R,0.700000X1.300000*%
G04 #@! TD*
G04 #@! TA.AperFunction,SMDPad,CuDef*
%ADD43R,1.200000X2.000000*%
G04 #@! TD*
G04 #@! TA.AperFunction,SMDPad,CuDef*
%ADD44R,1.200000X1.400000*%
G04 #@! TD*
G04 #@! TA.AperFunction,SMDPad,CuDef*
%ADD45R,1.050000X1.400000*%
G04 #@! TD*
G04 #@! TA.AperFunction,SMDPad,CuDef*
%ADD46RoundRect,0.140000X0.170000X-0.140000X0.170000X0.140000X-0.170000X0.140000X-0.170000X-0.140000X0*%
G04 #@! TD*
G04 #@! TA.AperFunction,SMDPad,CuDef*
%ADD47RoundRect,0.150000X-0.825000X-0.150000X0.825000X-0.150000X0.825000X0.150000X-0.825000X0.150000X0*%
G04 #@! TD*
G04 #@! TA.AperFunction,SMDPad,CuDef*
%ADD48RoundRect,0.140000X-0.140000X-0.170000X0.140000X-0.170000X0.140000X0.170000X-0.140000X0.170000X0*%
G04 #@! TD*
G04 #@! TA.AperFunction,SMDPad,CuDef*
%ADD49RoundRect,0.150000X0.150000X-0.587500X0.150000X0.587500X-0.150000X0.587500X-0.150000X-0.587500X0*%
G04 #@! TD*
G04 #@! TA.AperFunction,SMDPad,CuDef*
%ADD50RoundRect,0.250000X0.300000X0.300000X-0.300000X0.300000X-0.300000X-0.300000X0.300000X-0.300000X0*%
G04 #@! TD*
G04 #@! TA.AperFunction,SMDPad,CuDef*
%ADD51RoundRect,0.250000X-0.300000X0.300000X-0.300000X-0.300000X0.300000X-0.300000X0.300000X0.300000X0*%
G04 #@! TD*
G04 #@! TA.AperFunction,SMDPad,CuDef*
%ADD52FreePoly2,270.000000*%
G04 #@! TD*
G04 #@! TA.AperFunction,SMDPad,CuDef*
%ADD53FreePoly3,270.000000*%
G04 #@! TD*
G04 #@! TA.AperFunction,SMDPad,CuDef*
%ADD54FreePoly2,90.000000*%
G04 #@! TD*
G04 #@! TA.AperFunction,SMDPad,CuDef*
%ADD55FreePoly3,90.000000*%
G04 #@! TD*
G04 #@! TA.AperFunction,SMDPad,CuDef*
%ADD56RoundRect,0.250000X-0.400000X-1.450000X0.400000X-1.450000X0.400000X1.450000X-0.400000X1.450000X0*%
G04 #@! TD*
G04 #@! TA.AperFunction,ViaPad*
%ADD57C,0.800000*%
G04 #@! TD*
G04 #@! TA.AperFunction,Conductor*
%ADD58C,0.600000*%
G04 #@! TD*
G04 #@! TA.AperFunction,Conductor*
%ADD59C,0.400000*%
G04 #@! TD*
G04 #@! TA.AperFunction,Conductor*
%ADD60C,0.250000*%
G04 #@! TD*
G04 #@! TA.AperFunction,Conductor*
%ADD61C,0.800000*%
G04 #@! TD*
G04 #@! TA.AperFunction,Conductor*
%ADD62C,0.560000*%
G04 #@! TD*
G04 #@! TA.AperFunction,Conductor*
%ADD63C,0.540000*%
G04 #@! TD*
G04 #@! TA.AperFunction,Conductor*
%ADD64C,0.500000*%
G04 #@! TD*
G04 #@! TA.AperFunction,Conductor*
%ADD65C,0.300000*%
G04 #@! TD*
G04 #@! TA.AperFunction,Conductor*
%ADD66C,0.200000*%
G04 #@! TD*
G04 #@! TA.AperFunction,Conductor*
%ADD67C,0.450000*%
G04 #@! TD*
G04 #@! TA.AperFunction,Conductor*
%ADD68C,1.000000*%
G04 #@! TD*
G04 #@! TA.AperFunction,Conductor*
%ADD69C,0.340000*%
G04 #@! TD*
G04 #@! TA.AperFunction,Conductor*
%ADD70C,0.390000*%
G04 #@! TD*
G04 APERTURE END LIST*
D10*
X133680000Y-84800000D03*
X132430000Y-84800000D03*
X131180000Y-84800000D03*
X129930000Y-84800000D03*
X128680000Y-84800000D03*
X127430000Y-84800000D03*
X145760000Y-84800000D03*
X144510000Y-84800000D03*
X143260000Y-84800000D03*
D11*
X110275000Y-85860000D03*
X110758274Y-84693274D03*
X110758274Y-87026726D03*
X111925000Y-84210000D03*
D12*
X111925000Y-85860000D03*
D11*
X111925000Y-87510000D03*
X113091726Y-84693274D03*
X113091726Y-87026726D03*
X113575000Y-85860000D03*
X148575000Y-106460000D03*
X149058274Y-105293274D03*
X149058274Y-107626726D03*
X150225000Y-104810000D03*
D12*
X150225000Y-106460000D03*
D11*
X150225000Y-108110000D03*
X151391726Y-105293274D03*
X151391726Y-107626726D03*
X151875000Y-106460000D03*
D13*
X141705000Y-89510000D03*
X141705000Y-91510000D03*
D10*
X142010000Y-107510000D03*
X143260000Y-107510000D03*
X144510000Y-107510000D03*
X145760000Y-107510000D03*
D14*
X105715000Y-84735000D03*
D15*
X105715000Y-87275000D03*
X105715000Y-89815000D03*
X105715000Y-92355000D03*
X105715000Y-94895000D03*
X105715000Y-97435000D03*
X105715000Y-99975000D03*
X105715000Y-102515000D03*
X105715000Y-105055000D03*
X105715000Y-107595000D03*
D10*
X124930000Y-107510000D03*
X126180000Y-107510000D03*
X127430000Y-107510000D03*
X128680000Y-107510000D03*
X129930000Y-107510000D03*
X131180000Y-107510000D03*
D14*
X108255000Y-84735000D03*
D15*
X108255000Y-87275000D03*
X108255000Y-89815000D03*
X108255000Y-92355000D03*
X108255000Y-94895000D03*
X108255000Y-97435000D03*
X108255000Y-99975000D03*
X108255000Y-102515000D03*
X108255000Y-105055000D03*
X108255000Y-107595000D03*
D10*
X134720000Y-107510000D03*
X135970000Y-107510000D03*
X137220000Y-107510000D03*
X138470000Y-107510000D03*
D11*
X110275000Y-106460000D03*
X110758274Y-105293274D03*
X110758274Y-107626726D03*
X111925000Y-104810000D03*
D12*
X111925000Y-106460000D03*
D11*
X111925000Y-108110000D03*
X113091726Y-105293274D03*
X113091726Y-107626726D03*
X113575000Y-106460000D03*
D16*
X112900000Y-95200000D03*
D17*
X111630000Y-95200000D03*
X112900000Y-93930000D03*
X111630000Y-93930000D03*
X112900000Y-92660000D03*
X111630000Y-92660000D03*
X112900000Y-91390000D03*
X111630000Y-91390000D03*
X112900000Y-90120000D03*
X111630000Y-90120000D03*
D18*
X124745000Y-89050000D03*
D19*
X124745000Y-85050000D03*
D18*
X116105000Y-89050000D03*
D19*
X116105000Y-85050000D03*
D11*
X148575000Y-85860000D03*
X149058274Y-84693274D03*
X149058274Y-87026726D03*
X150225000Y-84210000D03*
D12*
X150225000Y-85860000D03*
D11*
X150225000Y-87510000D03*
X151391726Y-84693274D03*
X151391726Y-87026726D03*
X151875000Y-85860000D03*
D10*
X139720000Y-84800000D03*
X138470000Y-84800000D03*
X137220000Y-84800000D03*
D14*
X103175000Y-84735000D03*
D15*
X103175000Y-87275000D03*
X103175000Y-89815000D03*
X103175000Y-92355000D03*
X103175000Y-94895000D03*
X103175000Y-97435000D03*
X103175000Y-99975000D03*
X103175000Y-102515000D03*
X103175000Y-105055000D03*
X103175000Y-107595000D03*
D20*
X143235000Y-92100000D03*
X143235000Y-91080000D03*
X132800000Y-106090000D03*
X132800000Y-105070000D03*
D21*
X149113500Y-96450000D03*
X144813500Y-96450000D03*
D20*
X110117500Y-94640000D03*
X110117500Y-93620000D03*
D22*
X144255000Y-99950000D03*
D23*
X142955000Y-99950000D03*
D24*
X141655000Y-99950000D03*
D25*
X143858000Y-101677000D03*
X144878000Y-101677000D03*
D26*
X112720000Y-97300000D03*
D27*
X111420000Y-97300000D03*
D28*
X144925000Y-93405000D03*
X144925000Y-92135000D03*
X144925000Y-90865000D03*
X144925000Y-89595000D03*
X150485000Y-89595000D03*
X150485000Y-90865000D03*
X150485000Y-92135000D03*
X150485000Y-93405000D03*
D29*
X147102500Y-90725000D03*
X147102500Y-92275000D03*
X148307500Y-90725000D03*
X148307500Y-92275000D03*
D30*
X128300000Y-88580000D03*
X128300000Y-89600000D03*
D31*
X147570000Y-104570000D03*
X146550000Y-104570000D03*
D32*
X140480000Y-87680000D03*
X142130000Y-87680000D03*
D20*
X136650000Y-87140000D03*
X136650000Y-86120000D03*
X111467000Y-103376000D03*
X111467000Y-102356000D03*
D30*
X129240000Y-88580000D03*
X129240000Y-89600000D03*
X145770000Y-100980000D03*
X145770000Y-102000000D03*
D33*
X146010000Y-88070000D03*
X144360000Y-88070000D03*
D20*
X110117000Y-91428000D03*
X110117000Y-90408000D03*
D34*
X156455000Y-92158500D03*
X156455000Y-94058500D03*
D30*
X131860000Y-105070000D03*
X131860000Y-106090000D03*
D35*
X138790000Y-100730000D03*
X137830000Y-100730000D03*
D36*
X119110000Y-108030000D03*
D37*
X135790000Y-102660000D03*
X137990000Y-102660000D03*
X137990000Y-104360000D03*
X135790000Y-104360000D03*
D35*
X123641000Y-89970000D03*
X122681000Y-89970000D03*
D20*
X130910000Y-102180000D03*
X130910000Y-101160000D03*
D38*
X126120000Y-86980000D03*
X126120000Y-87940000D03*
D30*
X120985000Y-87005000D03*
X120985000Y-88025000D03*
D39*
X139780000Y-99272500D03*
X139130000Y-99272500D03*
X138480000Y-99272500D03*
X137830000Y-99272500D03*
X137180000Y-99272500D03*
X136530000Y-99272500D03*
X135880000Y-99272500D03*
X135230000Y-99272500D03*
X134580000Y-99272500D03*
X133930000Y-99272500D03*
X133280000Y-99272500D03*
X132630000Y-99272500D03*
X131980000Y-99272500D03*
X131330000Y-99272500D03*
X131330000Y-93547500D03*
X131980000Y-93547500D03*
X132630000Y-93547500D03*
X133280000Y-93547500D03*
X133930000Y-93547500D03*
X134580000Y-93547500D03*
X135230000Y-93547500D03*
X135880000Y-93547500D03*
X136530000Y-93547500D03*
X137180000Y-93547500D03*
X137830000Y-93547500D03*
X138480000Y-93547500D03*
X139130000Y-93547500D03*
X139780000Y-93547500D03*
D40*
X135555000Y-96410000D03*
D41*
X142169000Y-97416500D03*
X142169000Y-94441500D03*
D31*
X112990000Y-99020000D03*
X111970000Y-99020000D03*
D35*
X135230000Y-92100000D03*
X134270000Y-92100000D03*
D30*
X130918000Y-105163000D03*
X130918000Y-106183000D03*
D20*
X110720000Y-100000000D03*
X110720000Y-98980000D03*
D35*
X142665000Y-93019000D03*
X141705000Y-93019000D03*
D30*
X120043000Y-87005000D03*
X120043000Y-88025000D03*
D35*
X137490000Y-92100000D03*
X136530000Y-92100000D03*
D32*
X145455000Y-86610000D03*
X147105000Y-86610000D03*
D42*
X119698000Y-91393500D03*
X120798000Y-91393500D03*
X121898000Y-91393500D03*
X122998000Y-91393500D03*
X124098000Y-91393500D03*
X125198000Y-91393500D03*
X126298000Y-91393500D03*
X127398000Y-91393500D03*
X128498000Y-91393500D03*
D43*
X114178000Y-101943500D03*
X129698000Y-101943500D03*
D44*
X115018000Y-92243500D03*
D45*
X129773000Y-92243500D03*
D31*
X157455000Y-101330000D03*
X156435000Y-101330000D03*
D46*
X155550000Y-102280000D03*
X155550000Y-101320000D03*
D47*
X147465000Y-103305000D03*
X147465000Y-102035000D03*
X147465000Y-100765000D03*
X147465000Y-99495000D03*
X152415000Y-99495000D03*
X152415000Y-100765000D03*
X152415000Y-102035000D03*
X152415000Y-103305000D03*
D46*
X135720000Y-87110000D03*
X135720000Y-86150000D03*
D20*
X119103000Y-88025000D03*
X119103000Y-87005000D03*
D48*
X151044000Y-98229000D03*
X152004000Y-98229000D03*
D49*
X134030000Y-103667500D03*
X132130000Y-103667500D03*
X133080000Y-101792500D03*
D50*
X130187500Y-86980000D03*
X127387500Y-86980000D03*
D51*
X132140000Y-86980000D03*
X132140000Y-89780000D03*
D30*
X127350000Y-88570000D03*
X127350000Y-89590000D03*
D31*
X157455000Y-102270000D03*
X156435000Y-102270000D03*
D20*
X110526000Y-103779000D03*
X110526000Y-102759000D03*
D46*
X143245000Y-89620000D03*
X143245000Y-88660000D03*
D20*
X145770000Y-100140000D03*
X145770000Y-99120000D03*
X112407000Y-102976000D03*
X112407000Y-101956000D03*
D52*
X141787000Y-102432500D03*
D53*
X141787000Y-103732500D03*
D54*
X141490000Y-85950000D03*
D55*
X141490000Y-84650000D03*
D56*
X134195000Y-89510000D03*
X138645000Y-89510000D03*
D57*
X140480000Y-87605000D03*
X140639999Y-107260000D03*
X159455000Y-87410000D03*
X159455000Y-88410000D03*
X158455000Y-87410000D03*
X144903512Y-101651488D03*
X144829250Y-97199998D03*
X155455000Y-87410000D03*
X153455000Y-88410000D03*
X139839999Y-107260000D03*
X154455000Y-86410000D03*
X132756000Y-107260000D03*
X155455000Y-85410000D03*
X156455000Y-89410000D03*
X158455000Y-89410000D03*
X156455000Y-91633500D03*
X147340000Y-107260000D03*
X153455000Y-85410000D03*
X155455000Y-86410000D03*
X156455000Y-88410000D03*
X153455000Y-86410000D03*
X144829250Y-95700000D03*
X157455000Y-87410000D03*
X155455000Y-88410000D03*
X156455000Y-86410000D03*
X130520500Y-93769131D03*
X156455000Y-85410000D03*
X121008136Y-107961000D03*
X158455000Y-88410000D03*
X147205002Y-91500000D03*
X147340000Y-108060000D03*
X116015600Y-92185600D03*
X147205002Y-90350000D03*
X157404999Y-91633500D03*
X157455000Y-89410000D03*
X143995002Y-95700000D03*
X158455000Y-85410000D03*
X129210000Y-101480000D03*
X155455000Y-89410000D03*
X145663499Y-96449999D03*
X154455000Y-90410000D03*
X153455000Y-89410000D03*
X119110500Y-106480000D03*
X143995002Y-97199999D03*
X154455000Y-88410000D03*
X159455000Y-86410000D03*
X159455000Y-89410000D03*
X145663499Y-95700000D03*
X140639999Y-108060000D03*
X157455000Y-88410000D03*
X148204998Y-91500000D03*
X157455000Y-85410000D03*
X156455000Y-84410000D03*
X148204998Y-90350000D03*
X154455000Y-89410000D03*
X158455000Y-86410000D03*
X147705000Y-90925000D03*
X154455000Y-84410000D03*
X130750000Y-90340000D03*
X155455000Y-84410000D03*
X153455000Y-87410000D03*
X158455000Y-84410000D03*
X149039795Y-99314546D03*
X147205002Y-92649999D03*
X156455000Y-87410000D03*
X154455000Y-85410000D03*
X157455000Y-86410000D03*
X147705000Y-92074999D03*
X133671379Y-107260000D03*
X145663499Y-97199999D03*
X148204998Y-92649998D03*
X158455000Y-90410000D03*
X159455000Y-85410000D03*
X144829250Y-96449999D03*
X129536150Y-92006650D03*
X139839999Y-108060000D03*
X115450000Y-91620000D03*
X155505000Y-91633500D03*
X157455000Y-90410000D03*
X157455000Y-84410000D03*
X156455000Y-90410000D03*
X155455000Y-90410000D03*
X154455000Y-87410000D03*
X143995002Y-96449999D03*
X114740000Y-97020000D03*
X117650000Y-99330000D03*
X119110000Y-108030000D03*
X139979117Y-91710000D03*
X140710000Y-92550000D03*
X123688604Y-88070558D03*
X118025000Y-88691000D03*
X145678000Y-94504000D03*
X149963499Y-95700000D03*
X149963499Y-97199998D03*
X149113499Y-96449999D03*
X148263500Y-95700000D03*
X148263500Y-96449999D03*
X149113499Y-95700000D03*
X148263500Y-97199999D03*
X149963499Y-96449999D03*
X149113499Y-97199999D03*
X157455000Y-103910000D03*
X153455000Y-104910000D03*
X154455000Y-105910000D03*
X158455000Y-107910000D03*
X156455000Y-105910000D03*
X159455000Y-104910000D03*
X154455000Y-103910000D03*
X154455000Y-107910000D03*
X154455000Y-104910000D03*
X158455000Y-103910000D03*
X156455000Y-106910000D03*
X155455000Y-106910000D03*
X156455000Y-103910000D03*
X155455000Y-104910000D03*
X153455000Y-106910000D03*
X153455000Y-105910000D03*
X154455000Y-106910000D03*
X156455000Y-107910000D03*
X157455000Y-105910000D03*
X157455000Y-106910000D03*
X158455000Y-105910000D03*
X155455000Y-103910000D03*
X159455000Y-106910000D03*
X157455000Y-107910000D03*
X159455000Y-105910000D03*
X157455000Y-104910000D03*
X156455000Y-104910000D03*
X158455000Y-104910000D03*
X158455000Y-106910000D03*
X155455000Y-105910000D03*
X155455000Y-107910000D03*
X141867500Y-94110000D03*
X141867500Y-94760000D03*
X142517500Y-94760000D03*
X142517500Y-94110000D03*
X117067500Y-105140000D03*
X117067500Y-106600000D03*
X138320000Y-90160000D03*
X138970000Y-90810000D03*
X138320000Y-88210000D03*
X138970000Y-88210000D03*
X138970000Y-89510000D03*
X138320000Y-90810000D03*
X138320000Y-89510000D03*
X138970000Y-90160000D03*
X138320000Y-88860000D03*
X138970000Y-88860000D03*
X117959000Y-94348000D03*
X119025905Y-94308790D03*
X119910000Y-93820000D03*
X118963000Y-95397000D03*
X122899500Y-93150000D03*
X122399500Y-94070000D03*
X121899500Y-95010000D03*
X126200000Y-100080000D03*
X120369282Y-98040719D03*
X119104828Y-98096477D03*
X140587000Y-104107000D03*
X142987000Y-104107000D03*
X142187000Y-104107000D03*
X141387000Y-104107000D03*
X120639684Y-99839073D03*
X119202933Y-99097933D03*
X123460688Y-101190000D03*
X114880000Y-98850000D03*
X122940000Y-96740000D03*
X125929622Y-97352002D03*
X154455000Y-97807000D03*
X158455000Y-99807000D03*
X155455000Y-95807000D03*
X155455000Y-97807000D03*
X156455000Y-96807000D03*
X157455000Y-96807000D03*
X154455000Y-99807000D03*
X158455000Y-97807000D03*
X156455000Y-94583500D03*
X157404999Y-94583500D03*
X157455000Y-98807000D03*
X154455000Y-98807000D03*
X153505000Y-97807000D03*
X157455000Y-95807000D03*
X153505000Y-96807000D03*
X156455000Y-95807000D03*
X155455000Y-99807000D03*
X156455000Y-99807000D03*
X155455000Y-98807000D03*
X158455000Y-95807000D03*
X154455000Y-95807000D03*
X156455000Y-98807000D03*
X158455000Y-98807000D03*
X155455000Y-96807000D03*
X159455000Y-97807000D03*
X154455000Y-96807000D03*
X155505000Y-94583500D03*
X159455000Y-98807000D03*
X159455000Y-96807000D03*
X158455000Y-96807000D03*
X156455000Y-97807000D03*
X157455000Y-97807000D03*
X157455000Y-99807000D03*
X124408373Y-97059793D03*
X127658635Y-101871365D03*
X132250000Y-95340000D03*
X129608176Y-98074500D03*
X131887999Y-101680000D03*
X134881107Y-100685061D03*
X117620000Y-96814500D03*
X124530000Y-94920000D03*
X129436638Y-96675000D03*
X120366697Y-96213303D03*
X125675000Y-94540000D03*
X123680000Y-97841000D03*
X124420000Y-101520000D03*
X130190000Y-88570000D03*
X130770000Y-94750000D03*
X151039000Y-99142000D03*
X139633000Y-102429000D03*
X122149000Y-87955000D03*
X146374031Y-105069085D03*
X135732337Y-101380984D03*
X140439000Y-103079000D03*
X128448398Y-102510000D03*
X129210000Y-100090000D03*
X123880000Y-107260000D03*
X118110000Y-92880000D03*
X119410378Y-100660378D03*
X134520000Y-89510000D03*
X133870000Y-89510000D03*
X134520000Y-88210000D03*
X133870000Y-90810000D03*
X134520000Y-90810000D03*
X134520000Y-90160000D03*
X142987000Y-102058000D03*
X141387000Y-102058000D03*
X133870000Y-88210000D03*
X134520000Y-88860000D03*
X133870000Y-88860000D03*
X140587000Y-102058000D03*
X133870000Y-90160000D03*
X142187000Y-102058000D03*
X132140000Y-86980000D03*
X141490000Y-84650000D03*
X145615000Y-103460000D03*
X133039129Y-86622699D03*
X150220000Y-101737500D03*
X130187500Y-86980000D03*
X144601000Y-103460000D03*
X140580000Y-95770000D03*
X138109623Y-87220393D03*
X132418000Y-86094000D03*
X124720000Y-98010000D03*
X115014312Y-94087615D03*
X126264439Y-98789140D03*
X114893000Y-86424000D03*
X115476000Y-90613000D03*
X126514000Y-85543000D03*
X122410000Y-97600000D03*
X143522000Y-103261000D03*
X114010000Y-98334999D03*
D58*
X151392000Y-99495000D02*
X151039000Y-99142000D01*
X152415000Y-99495000D02*
X151392000Y-99495000D01*
D59*
X134270000Y-92166000D02*
X134270000Y-92100000D01*
D60*
X152004000Y-98229000D02*
X152799908Y-98229000D01*
D58*
X152415000Y-100765000D02*
X150490249Y-100765000D01*
D61*
X129210000Y-101480000D02*
X129234500Y-101480000D01*
D62*
X141705000Y-93019000D02*
X141705000Y-91510000D01*
D61*
X130520500Y-93066000D02*
X129698000Y-92243500D01*
X158455000Y-84410000D02*
X159455000Y-85410000D01*
X159455000Y-85410000D02*
X159455000Y-89410000D01*
X148204998Y-89765002D02*
X148204998Y-90350000D01*
D58*
X150490249Y-100765000D02*
X149039795Y-99314546D01*
X148447500Y-90865000D02*
X148307500Y-90725000D01*
D63*
X138470000Y-85479342D02*
X138470000Y-84800000D01*
D61*
X133671379Y-107260000D02*
X132756000Y-107260000D01*
X153455000Y-89410000D02*
X152735000Y-88690000D01*
D58*
X146962500Y-90865000D02*
X147102500Y-90725000D01*
D63*
X145252024Y-102000000D02*
X144903512Y-101651488D01*
D59*
X136530000Y-92100000D02*
X136530000Y-87260000D01*
D61*
X154455000Y-90410000D02*
X154455000Y-90583500D01*
X153455000Y-85410000D02*
X154455000Y-84410000D01*
D60*
X153715000Y-99845908D02*
X152795908Y-100765000D01*
D61*
X156030000Y-92158500D02*
X155505000Y-91633500D01*
D59*
X134580000Y-93547500D02*
X134580000Y-92476000D01*
D61*
X154455000Y-90583500D02*
X155505000Y-91633500D01*
X140639999Y-107260000D02*
X140639999Y-108060000D01*
D64*
X133830000Y-91660000D02*
X134270000Y-92100000D01*
X130750000Y-90340000D02*
X132070000Y-91660000D01*
D61*
X139839999Y-107260000D02*
X140639999Y-107260000D01*
X130520500Y-93769131D02*
X130520500Y-93066000D01*
X156455000Y-92158500D02*
X156879999Y-92158500D01*
X158455000Y-90583499D02*
X157404999Y-91633500D01*
X149280000Y-88690000D02*
X148204998Y-89765002D01*
D60*
X153715000Y-99144092D02*
X153715000Y-99845908D01*
D63*
X136650000Y-87140000D02*
X136809342Y-87140000D01*
D61*
X153455000Y-89410000D02*
X153455000Y-85410000D01*
D60*
X144615000Y-97414248D02*
X144829250Y-97199998D01*
D61*
X159455000Y-89410000D02*
X158455000Y-90410000D01*
D60*
X152795908Y-100765000D02*
X152415000Y-100765000D01*
D61*
X156455000Y-92158500D02*
X156030000Y-92158500D01*
D64*
X132070000Y-91660000D02*
X133830000Y-91660000D01*
D61*
X154455000Y-90410000D02*
X153455000Y-89410000D01*
D59*
X136530000Y-87260000D02*
X136650000Y-87140000D01*
X134580000Y-92476000D02*
X134270000Y-92166000D01*
D61*
X158455000Y-90410000D02*
X158455000Y-90583499D01*
X129234500Y-101480000D02*
X129698000Y-101943500D01*
D59*
X136530000Y-93547500D02*
X136530000Y-92100000D01*
D61*
X156879999Y-92158500D02*
X157404999Y-91633500D01*
D60*
X152799908Y-98229000D02*
X153715000Y-99144092D01*
D61*
X147340000Y-107260000D02*
X147340000Y-108060000D01*
X140639999Y-108060000D02*
X139839999Y-108060000D01*
X139839999Y-108060000D02*
X139839999Y-107260000D01*
X152735000Y-88690000D02*
X149280000Y-88690000D01*
X154455000Y-84410000D02*
X158455000Y-84410000D01*
D58*
X144925000Y-90865000D02*
X146962500Y-90865000D01*
D63*
X145770000Y-102000000D02*
X145252024Y-102000000D01*
X136809342Y-87140000D02*
X138470000Y-85479342D01*
D58*
X150485000Y-90865000D02*
X148447500Y-90865000D01*
D61*
X116015600Y-92185600D02*
X115450000Y-91620000D01*
X114740000Y-97020000D02*
X115340000Y-97020000D01*
X115340000Y-97020000D02*
X117650000Y-99330000D01*
D65*
X138882965Y-91710000D02*
X137830000Y-92762965D01*
X139979117Y-91710000D02*
X138882965Y-91710000D01*
X137830000Y-92762965D02*
X137830000Y-93547500D01*
D60*
X140645000Y-92485000D02*
X138853959Y-92485000D01*
X140710000Y-92550000D02*
X140645000Y-92485000D01*
X138480000Y-92858959D02*
X138480000Y-93547500D01*
X138853959Y-92485000D02*
X138480000Y-92858959D01*
D65*
X135880000Y-87270000D02*
X135880000Y-93547500D01*
X135720000Y-87110000D02*
X135880000Y-87270000D01*
D63*
X136650000Y-86120000D02*
X136650000Y-85370000D01*
X136650000Y-85370000D02*
X137220000Y-84800000D01*
D64*
X124779162Y-86980000D02*
X127387500Y-86980000D01*
X123688604Y-88070558D02*
X124779162Y-86980000D01*
D58*
X145678000Y-93820000D02*
X145263000Y-93405000D01*
X145263000Y-93405000D02*
X144925000Y-93405000D01*
X145678000Y-94504000D02*
X145678000Y-93820000D01*
D64*
X155550000Y-102280000D02*
X154120000Y-102280000D01*
X156425000Y-102280000D02*
X156435000Y-102270000D01*
X153095000Y-103305000D02*
X152415000Y-103305000D01*
X155550000Y-102280000D02*
X156425000Y-102280000D01*
X154120000Y-102280000D02*
X153095000Y-103305000D01*
X157455000Y-102270000D02*
X157455000Y-103910000D01*
D61*
X158455000Y-107910000D02*
X154455000Y-107910000D01*
X153455000Y-106910000D02*
X153455000Y-104910000D01*
X159455000Y-104910000D02*
X159455000Y-106910000D01*
X159455000Y-106910000D02*
X158455000Y-107910000D01*
X154455000Y-103910000D02*
X158455000Y-103910000D01*
X154455000Y-107910000D02*
X153455000Y-106910000D01*
X153455000Y-104910000D02*
X154455000Y-103910000D01*
X158455000Y-103910000D02*
X159455000Y-104910000D01*
D64*
X155550000Y-101320000D02*
X153800000Y-101320000D01*
X153085000Y-102035000D02*
X152415000Y-102035000D01*
X156425000Y-101320000D02*
X156435000Y-101330000D01*
X153800000Y-101320000D02*
X153085000Y-102035000D01*
X155550000Y-101320000D02*
X156425000Y-101320000D01*
D62*
X142665000Y-93019000D02*
X142665000Y-93945500D01*
X142665000Y-93945500D02*
X142169000Y-94441500D01*
D61*
X142517500Y-94110000D02*
X142517500Y-94760000D01*
X142517500Y-94760000D02*
X141867500Y-94760000D01*
X141867500Y-94110000D02*
X142517500Y-94110000D01*
X141867500Y-94760000D02*
X141867500Y-94110000D01*
D66*
X131860000Y-105070000D02*
X131809000Y-105070000D01*
X131809000Y-105070000D02*
X131332500Y-104593500D01*
D60*
X117614000Y-104593500D02*
X124979500Y-104593500D01*
D66*
X131332500Y-104593500D02*
X124979500Y-104593500D01*
D60*
X117067500Y-105140000D02*
X117614000Y-104593500D01*
X118189305Y-105043500D02*
X117067500Y-106165305D01*
X117067500Y-106165305D02*
X117067500Y-106600000D01*
X130918000Y-105163000D02*
X130798500Y-105043500D01*
X130798500Y-105043500D02*
X118189305Y-105043500D01*
D62*
X144900000Y-89620000D02*
X144925000Y-89595000D01*
D58*
X145204000Y-89595000D02*
X144925000Y-89595000D01*
D61*
X147105000Y-86975000D02*
X146010000Y-88070000D01*
D62*
X143245000Y-89620000D02*
X144900000Y-89620000D01*
D58*
X146010000Y-88070000D02*
X146010000Y-88789000D01*
X146010000Y-88789000D02*
X145204000Y-89595000D01*
D61*
X147105000Y-86610000D02*
X147105000Y-86975000D01*
D62*
X143245000Y-88660000D02*
X143770000Y-88660000D01*
D63*
X143235000Y-91040000D02*
X141705000Y-89510000D01*
D61*
X138970000Y-88210000D02*
X138970000Y-90810000D01*
X138320000Y-90810000D02*
X138320000Y-88210000D01*
D64*
X141745000Y-89470000D02*
X141705000Y-89510000D01*
D61*
X138320000Y-88210000D02*
X138970000Y-88210000D01*
D62*
X143770000Y-88660000D02*
X144360000Y-88070000D01*
D63*
X143235000Y-91080000D02*
X143235000Y-91040000D01*
D62*
X143245000Y-88660000D02*
X142555000Y-88660000D01*
D61*
X138970000Y-90810000D02*
X138320000Y-90810000D01*
D62*
X142555000Y-88660000D02*
X141705000Y-89510000D01*
D63*
X119698000Y-91089000D02*
X119103000Y-90494000D01*
D60*
X117959000Y-94348000D02*
X117959000Y-94064604D01*
X119698000Y-92325604D02*
X119698000Y-91393500D01*
X117959000Y-94064604D02*
X119698000Y-92325604D01*
D63*
X119698000Y-91393500D02*
X119698000Y-91089000D01*
X119103000Y-90494000D02*
X119103000Y-88025000D01*
X120798000Y-90827000D02*
X120043000Y-90072000D01*
X120798000Y-91393500D02*
X120798000Y-90827000D01*
D60*
X120798000Y-91862000D02*
X120798000Y-91393500D01*
X119025905Y-93634095D02*
X120798000Y-91862000D01*
D63*
X120043000Y-90072000D02*
X120043000Y-88025000D01*
D60*
X119025905Y-94308790D02*
X119025905Y-93634095D01*
D63*
X121898000Y-91393500D02*
X121898000Y-90820000D01*
X121898000Y-90820000D02*
X120985000Y-89907000D01*
D60*
X121898000Y-91393500D02*
X121898000Y-91754000D01*
X119910000Y-93742000D02*
X119910000Y-93820000D01*
X121898000Y-91754000D02*
X119910000Y-93742000D01*
D63*
X120985000Y-89907000D02*
X120985000Y-88025000D01*
D60*
X122467000Y-92420000D02*
X123432000Y-92420000D01*
X119593000Y-94767000D02*
X120120000Y-94767000D01*
X118963000Y-95397000D02*
X119593000Y-94767000D01*
X124198000Y-91654000D02*
X124198000Y-91393500D01*
X120120000Y-94767000D02*
X122467000Y-92420000D01*
X123432000Y-92420000D02*
X124198000Y-91654000D01*
X126298000Y-91754000D02*
X125683500Y-92368500D01*
X123627896Y-93150000D02*
X122899500Y-93150000D01*
X124409396Y-92368500D02*
X123627896Y-93150000D01*
X125683500Y-92368500D02*
X124409396Y-92368500D01*
X126298000Y-91393500D02*
X126298000Y-91754000D01*
D59*
X126298000Y-90642000D02*
X127350000Y-89590000D01*
X126298000Y-91393500D02*
X126298000Y-90642000D01*
D60*
X124645299Y-92818500D02*
X123393799Y-94070000D01*
X123393799Y-94070000D02*
X122399500Y-94070000D01*
X127398000Y-91759000D02*
X126338500Y-92818500D01*
D59*
X127398000Y-90622346D02*
X128280000Y-89740346D01*
X128280000Y-89740346D02*
X128280000Y-89600000D01*
X127398000Y-91393500D02*
X127398000Y-90622346D01*
D60*
X127398000Y-91393500D02*
X127398000Y-91759000D01*
X126338500Y-92818500D02*
X124645299Y-92818500D01*
X128498000Y-91393500D02*
X128498000Y-91764000D01*
X123090195Y-95010000D02*
X121899500Y-95010000D01*
D59*
X128498000Y-90492000D02*
X129230000Y-89760000D01*
D60*
X128498000Y-91764000D02*
X126993500Y-93268500D01*
D59*
X128498000Y-91393500D02*
X128498000Y-90492000D01*
X129230000Y-89760000D02*
X129230000Y-89600000D01*
D60*
X126993500Y-93268500D02*
X124831695Y-93268500D01*
X124831695Y-93268500D02*
X123090195Y-95010000D01*
X125469066Y-100080000D02*
X125154566Y-99765500D01*
X117838912Y-102215000D02*
X115642500Y-104411412D01*
X125154566Y-99765500D02*
X122869935Y-99765500D01*
X118477754Y-107205000D02*
X121277441Y-107205000D01*
X126200000Y-100080000D02*
X125469066Y-100080000D01*
X115642500Y-107190254D02*
X116477246Y-108025000D01*
X126473000Y-108686000D02*
X127430000Y-107729000D01*
X115642500Y-104411412D02*
X115642500Y-107190254D01*
X120420433Y-102215000D02*
X117838912Y-102215000D01*
X121277441Y-107205000D02*
X122758441Y-108686000D01*
X127430000Y-107729000D02*
X127430000Y-107510000D01*
X122758441Y-108686000D02*
X126473000Y-108686000D01*
X117657754Y-108025000D02*
X118477754Y-107205000D01*
X116477246Y-108025000D02*
X117657754Y-108025000D01*
X122869935Y-99765500D02*
X120420433Y-102215000D01*
X144045000Y-108485000D02*
X143260000Y-107700000D01*
X146535000Y-108031016D02*
X146081016Y-108485000D01*
X148145000Y-99495000D02*
X149215000Y-100565000D01*
X147465000Y-99495000D02*
X148145000Y-99495000D01*
X149215000Y-103899110D02*
X146535000Y-106579110D01*
X146081016Y-108485000D02*
X144045000Y-108485000D01*
X149215000Y-100565000D02*
X149215000Y-103899110D01*
D63*
X145770000Y-100140000D02*
X145929342Y-100140000D01*
X146574342Y-99495000D02*
X147465000Y-99495000D01*
X145929342Y-100140000D02*
X146574342Y-99495000D01*
D60*
X143260000Y-107700000D02*
X143260000Y-107510000D01*
X146535000Y-106579110D02*
X146535000Y-108031016D01*
X148765000Y-101385000D02*
X148765000Y-103651751D01*
X145255000Y-106535000D02*
X144510000Y-107280000D01*
X147430000Y-104710000D02*
X147430000Y-105038421D01*
X144510000Y-107280000D02*
X144510000Y-107510000D01*
X147570000Y-104520000D02*
X147570000Y-104570000D01*
X147430000Y-105038421D02*
X145933421Y-106535000D01*
X148765000Y-103651751D02*
X148486751Y-103930000D01*
X148486751Y-103930000D02*
X148160000Y-103930000D01*
X148160000Y-103930000D02*
X147570000Y-104520000D01*
X147465000Y-100765000D02*
X148145000Y-100765000D01*
X147570000Y-104570000D02*
X147430000Y-104710000D01*
X145933421Y-106535000D02*
X145255000Y-106535000D01*
X148145000Y-100765000D02*
X148765000Y-101385000D01*
D61*
X140587000Y-104107000D02*
X142987000Y-104107000D01*
D67*
X112900000Y-95261887D02*
X112900000Y-95200000D01*
X111420000Y-96741887D02*
X112900000Y-95261887D01*
X111420000Y-97300000D02*
X111420000Y-96741887D01*
D61*
X139720000Y-84800000D02*
X139720000Y-84985601D01*
X140684399Y-85950000D02*
X141490000Y-85950000D01*
D59*
X145760000Y-84952082D02*
X144762082Y-85950000D01*
X144762082Y-85950000D02*
X141490000Y-85950000D01*
X145760000Y-84800000D02*
X145760000Y-84952082D01*
D61*
X139720000Y-84985601D02*
X140684399Y-85950000D01*
D60*
X125508500Y-104168500D02*
X123460688Y-102120688D01*
D65*
X132630000Y-104910000D02*
X132800000Y-105080000D01*
X132630000Y-104540000D02*
X132630000Y-104910000D01*
D60*
X130812896Y-104168500D02*
X125508500Y-104168500D01*
X131313896Y-103667500D02*
X130812896Y-104168500D01*
D65*
X132130000Y-103667500D02*
X132130000Y-104040000D01*
X132130000Y-104040000D02*
X132630000Y-104540000D01*
D60*
X123460688Y-102120688D02*
X123460688Y-101190000D01*
X132130000Y-103667500D02*
X131313896Y-103667500D01*
X114500000Y-99230000D02*
X112900000Y-99230000D01*
X114880000Y-98850000D02*
X114500000Y-99230000D01*
X112900000Y-99230000D02*
X112900000Y-99020000D01*
X110840000Y-100130000D02*
X110710000Y-100000000D01*
X117875304Y-100130000D02*
X110840000Y-100130000D01*
X122940000Y-96740000D02*
X122244695Y-96740000D01*
X118911000Y-97265000D02*
X118375000Y-97801000D01*
X122244695Y-96740000D02*
X121719695Y-97265000D01*
X118375000Y-97801000D02*
X118375000Y-99630304D01*
X118375000Y-99630304D02*
X117875304Y-100130000D01*
X121719695Y-97265000D02*
X118911000Y-97265000D01*
D66*
X125929622Y-98130378D02*
X125119500Y-98940500D01*
X122528208Y-98940500D02*
X120078708Y-101390000D01*
X111641000Y-103550000D02*
X111467000Y-103376000D01*
X115243686Y-103643500D02*
X112749187Y-103643500D01*
X125929622Y-97352002D02*
X125929622Y-98130378D01*
X112749187Y-103643500D02*
X112655686Y-103550000D01*
X125119500Y-98940500D02*
X122528208Y-98940500D01*
X120078708Y-101390000D02*
X117497186Y-101390000D01*
X112655686Y-103550000D02*
X111641000Y-103550000D01*
X117497186Y-101390000D02*
X115243686Y-103643500D01*
D61*
X154455000Y-99807000D02*
X154455000Y-98807000D01*
X159455000Y-98807000D02*
X158455000Y-99807000D01*
X158455000Y-95807000D02*
X159455000Y-96807000D01*
D68*
X156455000Y-94058500D02*
X155980000Y-94058500D01*
X155455000Y-94583500D02*
X157455000Y-94583500D01*
D61*
X159455000Y-96807000D02*
X159455000Y-98807000D01*
D58*
X153006500Y-92135000D02*
X155455000Y-94583500D01*
D61*
X153505000Y-96807000D02*
X153505000Y-93965000D01*
X153505000Y-96807000D02*
X153505000Y-96757000D01*
X157455000Y-94807000D02*
X158455000Y-95807000D01*
D58*
X152098912Y-89595000D02*
X156455000Y-93951088D01*
D61*
X154455000Y-98757000D02*
X153505000Y-97807000D01*
X157455000Y-94583500D02*
X157455000Y-94807000D01*
X153505000Y-93965000D02*
X151675000Y-92135000D01*
X154455000Y-95583500D02*
X155455000Y-94583500D01*
X154455000Y-98807000D02*
X154455000Y-98757000D01*
D58*
X156455000Y-93951088D02*
X156455000Y-94058500D01*
D61*
X153505000Y-97807000D02*
X153505000Y-96807000D01*
D68*
X155980000Y-94058500D02*
X155455000Y-94583500D01*
D58*
X150485000Y-89595000D02*
X152098912Y-89595000D01*
D61*
X158455000Y-99807000D02*
X154455000Y-99807000D01*
X154455000Y-95807000D02*
X154455000Y-95583500D01*
D68*
X156455000Y-94058500D02*
X156930000Y-94058500D01*
D61*
X151675000Y-92135000D02*
X150485000Y-92135000D01*
D58*
X150485000Y-92135000D02*
X153006500Y-92135000D01*
D68*
X156930000Y-94058500D02*
X157455000Y-94583500D01*
D64*
X157455000Y-101330000D02*
X157455000Y-99807000D01*
D61*
X153505000Y-96757000D02*
X154455000Y-95807000D01*
D60*
X127658635Y-98055710D02*
X127658635Y-101881365D01*
X124408373Y-97059793D02*
X124841164Y-96627002D01*
X126229927Y-96627002D02*
X127658635Y-98055710D01*
X124841164Y-96627002D02*
X126229927Y-96627002D01*
X123362000Y-95509806D02*
X122474805Y-95509806D01*
X123951806Y-94920000D02*
X123362000Y-95509806D01*
X118740195Y-96814500D02*
X117620000Y-96814500D01*
X120918699Y-95740000D02*
X120667002Y-95488303D01*
X122474805Y-95509806D02*
X122244611Y-95740000D01*
X122244611Y-95740000D02*
X120918699Y-95740000D01*
X120667002Y-95488303D02*
X120066392Y-95488303D01*
X124530000Y-94920000D02*
X123951806Y-94920000D01*
X120066392Y-95488303D02*
X118740195Y-96814500D01*
X129436638Y-96675000D02*
X127550717Y-96675000D01*
X127550717Y-96675000D02*
X126603219Y-95727502D01*
X123548396Y-95959806D02*
X122661201Y-95959806D01*
X123780700Y-95727502D02*
X123548396Y-95959806D01*
X122661201Y-95959806D02*
X122407704Y-96213303D01*
X122407704Y-96213303D02*
X120366697Y-96213303D01*
X126603219Y-95727502D02*
X123780700Y-95727502D01*
X138390000Y-98160000D02*
X135653959Y-98160000D01*
X138400000Y-94660000D02*
X138580000Y-94840000D01*
X138580000Y-97970000D02*
X138390000Y-98160000D01*
X135653959Y-98160000D02*
X135230000Y-98583959D01*
X126680000Y-94540000D02*
X127620000Y-95480000D01*
X131070000Y-95480000D02*
X131940000Y-94610000D01*
X135230000Y-98583959D02*
X135230000Y-99272500D01*
X138350000Y-94610000D02*
X138400000Y-94660000D01*
X127620000Y-95480000D02*
X131070000Y-95480000D01*
X125675000Y-94540000D02*
X126680000Y-94540000D01*
X138580000Y-94840000D02*
X138580000Y-97970000D01*
X131940000Y-94610000D02*
X138350000Y-94610000D01*
X130759500Y-98210500D02*
X130040000Y-98930000D01*
X123680000Y-96601697D02*
X123680000Y-97841000D01*
X133930000Y-99272500D02*
X133930000Y-98581188D01*
X129169321Y-98930000D02*
X126416823Y-96177502D01*
X130040000Y-98930000D02*
X129169321Y-98930000D01*
X133559312Y-98210500D02*
X130759500Y-98210500D01*
X126416823Y-96177502D02*
X124104195Y-96177502D01*
X133930000Y-98581188D02*
X133559312Y-98210500D01*
X124104195Y-96177502D02*
X123680000Y-96601697D01*
X124420000Y-101520000D02*
X126618500Y-103718500D01*
X134580000Y-99960334D02*
X134580000Y-99272500D01*
X130626500Y-103718500D02*
X131740000Y-102605000D01*
X133930000Y-102358249D02*
X133930000Y-100610334D01*
X131740000Y-102605000D02*
X132476751Y-102605000D01*
D66*
X134580000Y-99925685D02*
X134580000Y-99272500D01*
D60*
X133930000Y-100610334D02*
X134580000Y-99960334D01*
X126618500Y-103718500D02*
X130626500Y-103718500D01*
X132476751Y-102605000D02*
X132726751Y-102855000D01*
X132726751Y-102855000D02*
X133433249Y-102855000D01*
X133433249Y-102855000D02*
X133930000Y-102358249D01*
D65*
X137890000Y-104360000D02*
X136940000Y-103410000D01*
X137990000Y-104360000D02*
X137890000Y-104360000D01*
X136940000Y-101835000D02*
X137180000Y-101595000D01*
X136940000Y-103410000D02*
X136940000Y-101835000D01*
X137180000Y-101595000D02*
X137180000Y-99272500D01*
X136440000Y-102010000D02*
X135790000Y-102660000D01*
X136565000Y-101502893D02*
X136440000Y-101627893D01*
X136530000Y-99272500D02*
X136565000Y-99307500D01*
X136440000Y-101627893D02*
X136440000Y-102010000D01*
X136565000Y-99307500D02*
X136565000Y-101502893D01*
D64*
X134874939Y-101535061D02*
X135578260Y-101535061D01*
D63*
X150325000Y-98428000D02*
X151039000Y-99142000D01*
X121199000Y-87005000D02*
X122149000Y-87955000D01*
X122998000Y-91393500D02*
X122998000Y-90878000D01*
D62*
X145770000Y-99120000D02*
X145672000Y-99022000D01*
D59*
X132866604Y-106090000D02*
X134030000Y-104926604D01*
D62*
X145672000Y-99022000D02*
X145672000Y-98428000D01*
X145672000Y-98428000D02*
X145375000Y-98725000D01*
D59*
X128280000Y-88580000D02*
X128270000Y-88570000D01*
D63*
X122998000Y-90878000D02*
X122681000Y-90561000D01*
D64*
X146550000Y-104893116D02*
X146374031Y-105069085D01*
D63*
X119103000Y-87005000D02*
X120985000Y-87005000D01*
D64*
X134505000Y-102596421D02*
X134505000Y-101905000D01*
D63*
X143508246Y-98725000D02*
X142955000Y-99278246D01*
X146462000Y-98428000D02*
X150325000Y-98428000D01*
D64*
X134505000Y-101905000D02*
X134874939Y-101535061D01*
D69*
X114699482Y-93313500D02*
X113770000Y-94242982D01*
D62*
X146462000Y-98428000D02*
X145672000Y-98428000D01*
D63*
X122681000Y-90561000D02*
X122681000Y-89970000D01*
D62*
X151044000Y-98229000D02*
X150524000Y-98229000D01*
D64*
X135578260Y-101535061D02*
X135732337Y-101380984D01*
D59*
X130190000Y-88570000D02*
X130180000Y-88580000D01*
D64*
X131767000Y-106183000D02*
X131860000Y-106090000D01*
D69*
X113770000Y-94242982D02*
X113770000Y-95860000D01*
X112720000Y-96910000D02*
X112720000Y-97300000D01*
D61*
X140193786Y-103079000D02*
X139633000Y-102518214D01*
D64*
X146550000Y-104570000D02*
X146550000Y-104893116D01*
D61*
X140439000Y-103079000D02*
X140193786Y-103079000D01*
D63*
X145770000Y-99120000D02*
X145375000Y-98725000D01*
D69*
X113770000Y-95860000D02*
X112720000Y-96910000D01*
D59*
X128270000Y-88570000D02*
X127350000Y-88570000D01*
D63*
X120985000Y-87005000D02*
X121199000Y-87005000D01*
X142955000Y-99278246D02*
X142955000Y-99950000D01*
D69*
X118110000Y-92880000D02*
X117676500Y-93313500D01*
D64*
X123880000Y-107260000D02*
X123880000Y-106990761D01*
X134030000Y-103071421D02*
X134505000Y-102596421D01*
X146374031Y-104745969D02*
X146550000Y-104570000D01*
D59*
X130180000Y-88580000D02*
X128280000Y-88580000D01*
D63*
X122681000Y-88487000D02*
X122149000Y-87955000D01*
D60*
X151077000Y-99104000D02*
X151039000Y-99142000D01*
D64*
X124687761Y-106183000D02*
X131767000Y-106183000D01*
D63*
X145770000Y-99120000D02*
X146462000Y-98428000D01*
D69*
X117676500Y-93313500D02*
X114699482Y-93313500D01*
D59*
X134030000Y-104926604D02*
X134030000Y-103667500D01*
D62*
X151044000Y-98229000D02*
X151044000Y-99137000D01*
X151044000Y-99137000D02*
X151039000Y-99142000D01*
D64*
X123880000Y-106990761D02*
X124687761Y-106183000D01*
D60*
X151077000Y-98266000D02*
X151077000Y-99104000D01*
D63*
X122681000Y-89970000D02*
X122681000Y-88487000D01*
D59*
X131860000Y-106090000D02*
X132866604Y-106090000D01*
D61*
X139633000Y-102518214D02*
X139633000Y-102429000D01*
D62*
X150524000Y-98229000D02*
X150325000Y-98428000D01*
D63*
X145375000Y-98725000D02*
X143508246Y-98725000D01*
D64*
X146374031Y-105069085D02*
X146374031Y-104745969D01*
X134030000Y-103667500D02*
X134030000Y-103071421D01*
D61*
X133870000Y-88210000D02*
X133870000Y-90810000D01*
X134520000Y-88210000D02*
X133870000Y-88210000D01*
X140587000Y-102058000D02*
X142987000Y-102058000D01*
X134520000Y-90810000D02*
X134520000Y-88210000D01*
X133870000Y-90810000D02*
X134520000Y-90810000D01*
D59*
X135230000Y-93547500D02*
X135230000Y-92100000D01*
D64*
X139840588Y-100730000D02*
X138790000Y-100730000D01*
D59*
X138790000Y-100687000D02*
X138790000Y-100730000D01*
D61*
X134720000Y-107510000D02*
X134720000Y-106635786D01*
D64*
X118050000Y-106819582D02*
X118050000Y-106338418D01*
D59*
X135230000Y-92100000D02*
X135320000Y-92010000D01*
D64*
X123108606Y-100340000D02*
X120658606Y-102790000D01*
D59*
X135320000Y-92010000D02*
X135320000Y-87787556D01*
D60*
X127843688Y-103268500D02*
X130439500Y-103268500D01*
D64*
X142169000Y-97416500D02*
X142022500Y-97416500D01*
D65*
X132140000Y-86980000D02*
X132140000Y-87790000D01*
X133930000Y-92820832D02*
X133930000Y-93547500D01*
D60*
X130439500Y-103268500D02*
X130910000Y-102798000D01*
D65*
X129960000Y-89970000D02*
X129960000Y-90670000D01*
D59*
X138109623Y-87220393D02*
X137490000Y-87840016D01*
D64*
X140430000Y-100140588D02*
X139840588Y-100730000D01*
D61*
X142010000Y-107045787D02*
X142010000Y-107510000D01*
X140129000Y-106260000D02*
X141224213Y-106260000D01*
D59*
X137180000Y-93547500D02*
X137180000Y-92527556D01*
X137490000Y-92217556D02*
X137490000Y-92100000D01*
D60*
X127710000Y-103134812D02*
X127843688Y-103268500D01*
D64*
X117419582Y-107450000D02*
X118050000Y-106819582D01*
D65*
X131550000Y-92260000D02*
X133369168Y-92260000D01*
D59*
X135320000Y-87787556D02*
X133680000Y-86147556D01*
D61*
X141224213Y-106260000D02*
X142010000Y-107045787D01*
D64*
X118050000Y-106338418D02*
X118758418Y-105630000D01*
X124915188Y-100340000D02*
X123108606Y-100340000D01*
D61*
X135095786Y-106260000D02*
X140129000Y-106260000D01*
D60*
X130910000Y-102798000D02*
X130910000Y-102180000D01*
D59*
X138480000Y-100377000D02*
X138790000Y-100687000D01*
D61*
X140580000Y-95770000D02*
X142169000Y-97359000D01*
D64*
X116217500Y-106952082D02*
X116715418Y-107450000D01*
D65*
X129960000Y-90670000D02*
X131550000Y-92260000D01*
D59*
X137180000Y-92527556D02*
X137490000Y-92217556D01*
X138480000Y-99272500D02*
X138480000Y-100377000D01*
D64*
X118215418Y-102790000D02*
X116217500Y-104787918D01*
D65*
X132140000Y-87790000D02*
X129960000Y-89970000D01*
D61*
X142169000Y-97359000D02*
X142169000Y-97416500D01*
D64*
X120515613Y-105630000D02*
X122995613Y-108110000D01*
X118758418Y-105630000D02*
X120515613Y-105630000D01*
X127710000Y-103134812D02*
X124915188Y-100340000D01*
X140430000Y-99009000D02*
X140430000Y-100140588D01*
X122995613Y-108110000D02*
X124330000Y-108110000D01*
X120658606Y-102790000D02*
X118215418Y-102790000D01*
D59*
X137490000Y-87840016D02*
X137490000Y-92100000D01*
D65*
X133369168Y-92260000D02*
X133930000Y-92820832D01*
D64*
X142022500Y-97416500D02*
X140430000Y-99009000D01*
X116715418Y-107450000D02*
X117419582Y-107450000D01*
D61*
X134720000Y-106635786D02*
X135095786Y-106260000D01*
X145615000Y-103460000D02*
X144601000Y-103460000D01*
D64*
X116217500Y-104787918D02*
X116217500Y-106952082D01*
D59*
X133680000Y-86147556D02*
X133680000Y-84800000D01*
D64*
X124330000Y-108110000D02*
X124930000Y-107510000D01*
D59*
X133280000Y-100131000D02*
X133177000Y-100234000D01*
D64*
X132345040Y-100830000D02*
X131240000Y-100830000D01*
D59*
X133280000Y-99272500D02*
X133280000Y-100131000D01*
X133177000Y-101695500D02*
X133080000Y-101792500D01*
X133177000Y-100234000D02*
X133177000Y-101695500D01*
D64*
X133080000Y-101564960D02*
X132345040Y-100830000D01*
X131240000Y-100830000D02*
X130910000Y-101160000D01*
X133080000Y-101792500D02*
X133080000Y-101564960D01*
D66*
X124720000Y-98010000D02*
X124189500Y-98540500D01*
X118730344Y-99876000D02*
X118051344Y-100555000D01*
X115078000Y-103243500D02*
X112914871Y-103243500D01*
X117766500Y-100555000D02*
X115078000Y-103243500D01*
X118051344Y-100555000D02*
X117766500Y-100555000D01*
X124189500Y-98540500D02*
X120891025Y-98540500D01*
X119555525Y-99876000D02*
X118730344Y-99876000D01*
X120891025Y-98540500D02*
X119555525Y-99876000D01*
X112914871Y-103243500D02*
X112647371Y-102976000D01*
X112647371Y-102976000D02*
X112407000Y-102976000D01*
D60*
X110762500Y-92073500D02*
X110117000Y-91428000D01*
X111659462Y-99680000D02*
X111370000Y-99390538D01*
X111095538Y-98385000D02*
X110795000Y-98385000D01*
X115300000Y-99680000D02*
X111659462Y-99680000D01*
X110595000Y-98185000D02*
X110595000Y-95081250D01*
X115670000Y-98500000D02*
X115670000Y-99310000D01*
X115014312Y-95315724D02*
X114015000Y-96315036D01*
X115100000Y-97930000D02*
X115670000Y-98500000D01*
X115670000Y-99310000D02*
X115300000Y-99680000D01*
X110180000Y-94640000D02*
X110762500Y-94057500D01*
X114630306Y-97930000D02*
X115100000Y-97930000D01*
X110762500Y-94057500D02*
X110762500Y-92073500D01*
X114310305Y-97609999D02*
X114630306Y-97930000D01*
X110795000Y-98385000D02*
X110595000Y-98185000D01*
X114304694Y-97609999D02*
X114310305Y-97609999D01*
X110153750Y-94640000D02*
X110117500Y-94640000D01*
X115014312Y-94087615D02*
X115014312Y-95315724D01*
X110595000Y-95081250D02*
X110153750Y-94640000D01*
X111370000Y-98659462D02*
X111095538Y-98385000D01*
X111370000Y-99390538D02*
X111370000Y-98659462D01*
X114015000Y-96315036D02*
X114015000Y-97320305D01*
X114015000Y-97320305D02*
X114304694Y-97609999D01*
X110117500Y-94640000D02*
X110180000Y-94640000D01*
D66*
X125713079Y-99340500D02*
X122693894Y-99340500D01*
X117662872Y-101790000D02*
X115409372Y-104043500D01*
X115409372Y-104043500D02*
X112583501Y-104043500D01*
X112583501Y-104043500D02*
X112490001Y-103950000D01*
X126264439Y-98789140D02*
X125713079Y-99340500D01*
X122693894Y-99340500D02*
X120244393Y-101790000D01*
X112490001Y-103950000D02*
X110697000Y-103950000D01*
X120244393Y-101790000D02*
X117662872Y-101790000D01*
X110697000Y-103950000D02*
X110526000Y-103779000D01*
D60*
X109430000Y-91180000D02*
X108255000Y-92355000D01*
X109430000Y-90113604D02*
X109430000Y-91180000D01*
X113701451Y-88838451D02*
X110705153Y-88838451D01*
X115476000Y-90613000D02*
X113701451Y-88838451D01*
X110705153Y-88838451D02*
X109430000Y-90113604D01*
X125652000Y-86405000D02*
X115937305Y-86405000D01*
X109681549Y-88388451D02*
X108255000Y-89815000D01*
X115937305Y-86405000D02*
X113953854Y-88388451D01*
X113953854Y-88388451D02*
X109681549Y-88388451D01*
X126514000Y-85543000D02*
X125652000Y-86405000D01*
X110720000Y-98946396D02*
X110145000Y-98371396D01*
X109395000Y-94895000D02*
X108255000Y-94895000D01*
X110145000Y-95645000D02*
X109395000Y-94895000D01*
X110145000Y-98371396D02*
X110145000Y-95645000D01*
X110720000Y-98980000D02*
X110720000Y-98946396D01*
X111275000Y-102164000D02*
X111467000Y-102356000D01*
X108255000Y-105055000D02*
X109431000Y-103879000D01*
X109431000Y-103879000D02*
X109431000Y-102811462D01*
X109431000Y-102811462D02*
X110078462Y-102164000D01*
X110078462Y-102164000D02*
X111275000Y-102164000D01*
X109881000Y-104933110D02*
X109400000Y-105414110D01*
X110526000Y-102759000D02*
X109881000Y-103404000D01*
X109881000Y-103404000D02*
X109881000Y-104933110D01*
X109400000Y-106450000D02*
X108255000Y-107595000D01*
X109400000Y-105414110D02*
X109400000Y-106450000D01*
D63*
X143235000Y-92100000D02*
X144890000Y-92100000D01*
X144890000Y-92100000D02*
X144925000Y-92135000D01*
D61*
X145455000Y-86610000D02*
X145114000Y-86951000D01*
X142859000Y-86951000D02*
X142130000Y-87680000D01*
X145114000Y-86951000D02*
X142859000Y-86951000D01*
D60*
X112407000Y-101956000D02*
X112165000Y-101714000D01*
X112165000Y-101714000D02*
X109056000Y-101714000D01*
X109056000Y-101714000D02*
X108255000Y-102515000D01*
D59*
X107005000Y-88525000D02*
X108255000Y-87275000D01*
X107005000Y-92872767D02*
X107005000Y-88525000D01*
X107752233Y-93620000D02*
X107005000Y-92872767D01*
X110117500Y-93620000D02*
X107752233Y-93620000D01*
X145215000Y-100910000D02*
X144255000Y-99950000D01*
D70*
X147465000Y-102035000D02*
X146878276Y-102035000D01*
X146878276Y-102035000D02*
X145823276Y-100980000D01*
X145823276Y-100980000D02*
X145770000Y-100980000D01*
D59*
X145770000Y-100980000D02*
X145700000Y-100910000D01*
X145700000Y-100910000D02*
X145215000Y-100910000D01*
D60*
X111890000Y-99040000D02*
X112555000Y-98375000D01*
X113969999Y-98375000D02*
X114010000Y-98334999D01*
X112555000Y-98375000D02*
X113969999Y-98375000D01*
D70*
X146584300Y-103305000D02*
X145944300Y-102665000D01*
D63*
X143351000Y-101170000D02*
X142261000Y-101170000D01*
D70*
X145944300Y-102665000D02*
X144792724Y-102665000D01*
D63*
X141655000Y-100564000D02*
X141655000Y-99950000D01*
D70*
X144792724Y-102665000D02*
X143858000Y-101730276D01*
X147465000Y-103305000D02*
X146584300Y-103305000D01*
D63*
X143858000Y-101677000D02*
X143351000Y-101170000D01*
D70*
X143858000Y-101730276D02*
X143858000Y-101677000D01*
D63*
X142261000Y-101170000D02*
X141655000Y-100564000D01*
G04 #@! TA.AperFunction,Conductor*
G36*
X158378660Y-104054374D02*
G01*
X158383526Y-104057586D01*
X159438399Y-104790085D01*
X159482236Y-104844490D01*
X159491646Y-104894461D01*
X159451101Y-106884940D01*
X159430056Y-106951565D01*
X159409638Y-106974978D01*
X158600460Y-107696281D01*
X158537318Y-107726196D01*
X158519842Y-107727704D01*
X154553658Y-107788272D01*
X154486326Y-107769613D01*
X154470124Y-107757618D01*
X154435926Y-107727704D01*
X153599005Y-106995618D01*
X153561508Y-106936664D01*
X153556655Y-106900865D01*
X153578383Y-105005794D01*
X153598835Y-104938985D01*
X153618703Y-104915701D01*
X154500064Y-104109938D01*
X154562822Y-104079233D01*
X154582324Y-104077466D01*
X158311403Y-104035446D01*
X158378660Y-104054374D01*
G37*
G04 #@! TD.AperFunction*
G04 #@! TA.AperFunction,Conductor*
G36*
X157312006Y-94766509D02*
G01*
X157377662Y-94790400D01*
X157401262Y-94813156D01*
X159186988Y-97062430D01*
X159268963Y-97165685D01*
X159295231Y-97230429D01*
X159295804Y-97246075D01*
X159253912Y-98824917D01*
X159232457Y-98891411D01*
X159188406Y-98930988D01*
X158046120Y-99541504D01*
X157988250Y-99556143D01*
X154882416Y-99570670D01*
X154815285Y-99551299D01*
X154775642Y-99510692D01*
X153390451Y-97213026D01*
X153372696Y-97145450D01*
X153394294Y-97079003D01*
X153407872Y-97062430D01*
X155601459Y-94813159D01*
X155704226Y-94707783D01*
X155765123Y-94673533D01*
X155800852Y-94670608D01*
X157312006Y-94766509D01*
G37*
G04 #@! TD.AperFunction*
G04 #@! TA.AperFunction,Conductor*
G36*
X158347089Y-84360509D02*
G01*
X158361158Y-84370838D01*
X159346678Y-85207234D01*
X159385054Y-85265621D01*
X159390438Y-85300818D01*
X159421639Y-89340331D01*
X159402473Y-89407521D01*
X159391500Y-89422325D01*
X157523563Y-91585809D01*
X157464853Y-91623688D01*
X157433609Y-91628712D01*
X156440559Y-91659982D01*
X156439334Y-91660014D01*
X155529297Y-91679675D01*
X155461848Y-91661443D01*
X155429734Y-91633095D01*
X155231254Y-91384621D01*
X154408000Y-90354000D01*
X153538729Y-89422087D01*
X153507396Y-89359637D01*
X153505414Y-89339020D01*
X153502374Y-89090000D01*
X153814000Y-89090000D01*
X154783000Y-84995000D01*
X153817025Y-85024137D01*
X154453365Y-84407529D01*
X154515206Y-84375016D01*
X154538617Y-84372586D01*
X158279889Y-84341384D01*
X158347089Y-84360509D01*
G37*
G04 #@! TD.AperFunction*
G04 #@! TA.AperFunction,Conductor*
G36*
X153814000Y-89090000D02*
G01*
X151470916Y-89090000D01*
X151460738Y-89089500D01*
X151459748Y-89089500D01*
X149510252Y-89089500D01*
X149510247Y-89089500D01*
X149451770Y-89101131D01*
X149451769Y-89101132D01*
X149385447Y-89145447D01*
X149341132Y-89211769D01*
X149341131Y-89211770D01*
X149329500Y-89270247D01*
X149329500Y-89920738D01*
X149330000Y-89930917D01*
X149330000Y-89950000D01*
X146080000Y-89950000D01*
X146080000Y-89930915D01*
X146080500Y-89920747D01*
X146080500Y-89477676D01*
X146100185Y-89410637D01*
X146116819Y-89389995D01*
X146236567Y-89270247D01*
X146410500Y-89096314D01*
X146476392Y-88982186D01*
X146510500Y-88854893D01*
X146510500Y-88723108D01*
X146510500Y-88661551D01*
X146530185Y-88594512D01*
X146534181Y-88588666D01*
X146538044Y-88583347D01*
X146538050Y-88583342D01*
X146595646Y-88470304D01*
X146595646Y-88470302D01*
X146595647Y-88470301D01*
X146610499Y-88376524D01*
X146610500Y-88376519D01*
X146610499Y-88376511D01*
X146610677Y-88374273D01*
X146610984Y-88373467D01*
X146611263Y-88371706D01*
X146611633Y-88371764D01*
X146635560Y-88308984D01*
X146691790Y-88267512D01*
X146734295Y-88260000D01*
X150062211Y-88260000D01*
X150070062Y-88260494D01*
X150070078Y-88260255D01*
X150073971Y-88260499D01*
X150073973Y-88260500D01*
X150073975Y-88260500D01*
X150376025Y-88260500D01*
X150376027Y-88260500D01*
X150376032Y-88260499D01*
X150376036Y-88260499D01*
X150455591Y-88250448D01*
X150675698Y-88222642D01*
X150968262Y-88147525D01*
X150968265Y-88147524D01*
X151249095Y-88036336D01*
X151249096Y-88036335D01*
X151249094Y-88036335D01*
X151249104Y-88036332D01*
X151513795Y-87890816D01*
X151758162Y-87713274D01*
X151978349Y-87506504D01*
X152170885Y-87273768D01*
X152332733Y-87018736D01*
X152461341Y-86745430D01*
X152554681Y-86458160D01*
X152611280Y-86161457D01*
X152621267Y-86002727D01*
X152630246Y-85860003D01*
X152630246Y-85859998D01*
X152626182Y-85795412D01*
X152622441Y-85735949D01*
X152637877Y-85667807D01*
X152658508Y-85640491D01*
X153223223Y-85075776D01*
X153284542Y-85042294D01*
X153307149Y-85039517D01*
X154783000Y-84995000D01*
X153814000Y-89090000D01*
G37*
G04 #@! TD.AperFunction*
G04 #@! TA.AperFunction,Conductor*
G36*
X134791728Y-87829685D02*
G01*
X134812370Y-87846319D01*
X134883181Y-87917130D01*
X134916666Y-87978453D01*
X134919500Y-88004811D01*
X134919500Y-91086000D01*
X134899815Y-91153039D01*
X134847011Y-91198794D01*
X134795500Y-91210000D01*
X133901233Y-91210000D01*
X133893604Y-91209500D01*
X133889309Y-91209500D01*
X132307965Y-91209500D01*
X132240926Y-91189815D01*
X132220284Y-91173181D01*
X131626319Y-90579216D01*
X131592834Y-90517893D01*
X131590000Y-90491535D01*
X131590000Y-88887044D01*
X131609685Y-88820005D01*
X131626319Y-88799363D01*
X131958799Y-88466883D01*
X132420470Y-88005212D01*
X132466614Y-87925288D01*
X132472878Y-87901908D01*
X132509241Y-87842247D01*
X132572088Y-87811717D01*
X132592653Y-87810000D01*
X134724689Y-87810000D01*
X134791728Y-87829685D01*
G37*
G04 #@! TD.AperFunction*
G04 #@! TA.AperFunction,Conductor*
G36*
X149783528Y-89295024D02*
G01*
X151547516Y-89329979D01*
X151614150Y-89350988D01*
X151634615Y-89368192D01*
X152201784Y-89960476D01*
X155852003Y-93772328D01*
X155884153Y-93834362D01*
X155877660Y-93903929D01*
X155851094Y-93944791D01*
X153820462Y-96021076D01*
X153759515Y-96055241D01*
X153689773Y-96051031D01*
X153633377Y-96009784D01*
X153608234Y-95944595D01*
X153607964Y-95940507D01*
X153549306Y-94755750D01*
X153549305Y-94755749D01*
X153063220Y-94328298D01*
X151671300Y-93104279D01*
X151633957Y-93045228D01*
X151631571Y-93035365D01*
X151628867Y-93021769D01*
X151602301Y-92982012D01*
X151584552Y-92955447D01*
X151518230Y-92911132D01*
X151518229Y-92911131D01*
X151459752Y-92899500D01*
X151459748Y-92899500D01*
X151359644Y-92899500D01*
X151341997Y-92898238D01*
X151316000Y-92894500D01*
X149654000Y-92894500D01*
X149586961Y-92874815D01*
X149541206Y-92822011D01*
X149530000Y-92770500D01*
X149530000Y-91494500D01*
X149549685Y-91427461D01*
X149602489Y-91381706D01*
X149654000Y-91370500D01*
X151459750Y-91370500D01*
X151459751Y-91370499D01*
X151484885Y-91365500D01*
X151518229Y-91358868D01*
X151518229Y-91358867D01*
X151518231Y-91358867D01*
X151584552Y-91314552D01*
X151628867Y-91248231D01*
X151628867Y-91248229D01*
X151628868Y-91248229D01*
X151640499Y-91189752D01*
X151640500Y-91189750D01*
X151640500Y-90540249D01*
X151640499Y-90540247D01*
X151628868Y-90481770D01*
X151628867Y-90481769D01*
X151584552Y-90415447D01*
X151518230Y-90371132D01*
X151518229Y-90371131D01*
X151459752Y-90359500D01*
X151459748Y-90359500D01*
X149654000Y-90359500D01*
X149586961Y-90339815D01*
X149541206Y-90287011D01*
X149530000Y-90235500D01*
X149530000Y-89988067D01*
X149533109Y-89960476D01*
X149533298Y-89959646D01*
X149535500Y-89950000D01*
X149535500Y-89930917D01*
X149535253Y-89920835D01*
X149535149Y-89918709D01*
X149535000Y-89912641D01*
X149535000Y-89419000D01*
X149554685Y-89351961D01*
X149607489Y-89306206D01*
X149659000Y-89295000D01*
X149781071Y-89295000D01*
X149783528Y-89295024D01*
G37*
G04 #@! TD.AperFunction*
G04 #@! TA.AperFunction,Conductor*
G36*
X149325796Y-89965017D02*
G01*
X149325791Y-89965066D01*
X149324500Y-89988065D01*
X149324500Y-90235507D01*
X149329289Y-90280039D01*
X149330000Y-90293295D01*
X149330000Y-91447378D01*
X149328738Y-91465025D01*
X149324500Y-91494500D01*
X149324500Y-92770507D01*
X149329289Y-92815039D01*
X149330000Y-92828295D01*
X149330000Y-92987388D01*
X149310315Y-93054427D01*
X149307200Y-93059044D01*
X147743752Y-95267106D01*
X147740139Y-95272378D01*
X147735915Y-95278754D01*
X147735909Y-95278765D01*
X147709104Y-95337699D01*
X147705064Y-95352376D01*
X147702554Y-95360414D01*
X147665854Y-95465298D01*
X147665853Y-95465305D01*
X147663000Y-95495730D01*
X147663000Y-95652512D01*
X147661939Y-95668697D01*
X147657818Y-95699998D01*
X147657818Y-95700000D01*
X147661939Y-95731301D01*
X147663000Y-95747487D01*
X147663000Y-96402511D01*
X147661939Y-96418696D01*
X147657818Y-96449997D01*
X147657818Y-96449999D01*
X147661939Y-96481300D01*
X147663000Y-96497486D01*
X147663000Y-97152511D01*
X147661939Y-97168696D01*
X147657818Y-97199997D01*
X147657818Y-97199999D01*
X147661939Y-97231300D01*
X147663000Y-97247486D01*
X147663000Y-97404272D01*
X147663458Y-97409147D01*
X147664000Y-97420729D01*
X147664000Y-97824000D01*
X147644315Y-97891039D01*
X147591511Y-97936794D01*
X147540000Y-97948000D01*
X146537183Y-97948000D01*
X146529554Y-97947500D01*
X146525259Y-97947500D01*
X145735259Y-97947500D01*
X145608741Y-97947500D01*
X145604446Y-97947500D01*
X145596817Y-97948000D01*
X143368500Y-97948000D01*
X143301461Y-97928315D01*
X143255706Y-97875511D01*
X143244500Y-97824000D01*
X143244499Y-96899732D01*
X143244364Y-96896849D01*
X143244384Y-96896848D01*
X143244000Y-96888616D01*
X143244000Y-95228000D01*
X143263685Y-95160961D01*
X143316489Y-95115206D01*
X143368000Y-95104000D01*
X145626715Y-95104000D01*
X145642898Y-95105060D01*
X145678000Y-95109682D01*
X145678001Y-95109682D01*
X145730254Y-95102802D01*
X145834762Y-95089044D01*
X145980841Y-95028536D01*
X146106282Y-94932282D01*
X146202536Y-94806841D01*
X146263044Y-94660762D01*
X146283682Y-94504000D01*
X146263044Y-94347238D01*
X146202536Y-94201159D01*
X146202534Y-94201156D01*
X146198472Y-94194119D01*
X146200213Y-94193113D01*
X146178930Y-94138057D01*
X146178500Y-94127742D01*
X146178500Y-93754110D01*
X146178500Y-93754108D01*
X146144392Y-93626814D01*
X146097113Y-93544924D01*
X146080500Y-93482924D01*
X146080500Y-93079262D01*
X146080000Y-93069084D01*
X146080000Y-92470915D01*
X146080500Y-92460747D01*
X146080500Y-91809262D01*
X146080000Y-91799084D01*
X146080000Y-89950000D01*
X149327488Y-89950000D01*
X149325796Y-89965017D01*
G37*
G04 #@! TD.AperFunction*
G04 #@! TA.AperFunction,Conductor*
G36*
X104798352Y-83979685D02*
G01*
X104844107Y-84032489D01*
X104854051Y-84101647D01*
X104838481Y-84142266D01*
X104840187Y-84143178D01*
X104837316Y-84148548D01*
X104837315Y-84148550D01*
X104821774Y-84177625D01*
X104739769Y-84331043D01*
X104679699Y-84529067D01*
X104659417Y-84734999D01*
X104664403Y-84785622D01*
X104665000Y-84797776D01*
X104665000Y-87212222D01*
X104664403Y-87224376D01*
X104659417Y-87274999D01*
X104664403Y-87325622D01*
X104665000Y-87337776D01*
X104665000Y-89752222D01*
X104664403Y-89764376D01*
X104659417Y-89814999D01*
X104664403Y-89865622D01*
X104665000Y-89877776D01*
X104665000Y-92292222D01*
X104664403Y-92304376D01*
X104659417Y-92354999D01*
X104679699Y-92560932D01*
X104679700Y-92560934D01*
X104739768Y-92758954D01*
X104837315Y-92941450D01*
X104837317Y-92941452D01*
X104968589Y-93101410D01*
X105052767Y-93170492D01*
X105128550Y-93232685D01*
X105311046Y-93330232D01*
X105509066Y-93390300D01*
X105509065Y-93390300D01*
X105527529Y-93392118D01*
X105715000Y-93410583D01*
X105920934Y-93390300D01*
X106118954Y-93330232D01*
X106301450Y-93232685D01*
X106442758Y-93116717D01*
X106461409Y-93101411D01*
X106472867Y-93087449D01*
X106530612Y-93048114D01*
X106600456Y-93046242D01*
X106660226Y-93082427D01*
X106676106Y-93104107D01*
X106684520Y-93118680D01*
X107506320Y-93940480D01*
X107506323Y-93940482D01*
X107512769Y-93945428D01*
X107511002Y-93947729D01*
X107549574Y-93988191D01*
X107562789Y-94056800D01*
X107536814Y-94121662D01*
X107518020Y-94140849D01*
X107508592Y-94148586D01*
X107377317Y-94308547D01*
X107279769Y-94491043D01*
X107219699Y-94689067D01*
X107199417Y-94895000D01*
X107219699Y-95100932D01*
X107226728Y-95124103D01*
X107279768Y-95298954D01*
X107377315Y-95481450D01*
X107397724Y-95506319D01*
X107508589Y-95641410D01*
X107571866Y-95693339D01*
X107668550Y-95772685D01*
X107851046Y-95870232D01*
X108049066Y-95930300D01*
X108049065Y-95930300D01*
X108067529Y-95932118D01*
X108255000Y-95950583D01*
X108460934Y-95930300D01*
X108658954Y-95870232D01*
X108841450Y-95772685D01*
X109001410Y-95641410D01*
X109104876Y-95515335D01*
X109162621Y-95476001D01*
X109200729Y-95470000D01*
X109458311Y-95470000D01*
X109525350Y-95489685D01*
X109545992Y-95506319D01*
X109783181Y-95743508D01*
X109816666Y-95804831D01*
X109819500Y-95831189D01*
X109819500Y-98414248D01*
X109841682Y-98497036D01*
X109857675Y-98524736D01*
X109884535Y-98571258D01*
X109884536Y-98571259D01*
X109884537Y-98571260D01*
X110163181Y-98849903D01*
X110196666Y-98911226D01*
X110199500Y-98937584D01*
X110199500Y-99154316D01*
X110205931Y-99203171D01*
X110255935Y-99310404D01*
X110347267Y-99401736D01*
X110344443Y-99404559D01*
X110375183Y-99443042D01*
X110382352Y-99512542D01*
X110350808Y-99574886D01*
X110347101Y-99578098D01*
X110347267Y-99578264D01*
X110255935Y-99669595D01*
X110205931Y-99776828D01*
X110199500Y-99825683D01*
X110199500Y-100174316D01*
X110205931Y-100223171D01*
X110205932Y-100223173D01*
X110255935Y-100330404D01*
X110339596Y-100414065D01*
X110446827Y-100464068D01*
X110495683Y-100470500D01*
X110495684Y-100470500D01*
X110944322Y-100470500D01*
X110947892Y-100470266D01*
X110956003Y-100470000D01*
X114656000Y-100470000D01*
X114723039Y-100489685D01*
X114768794Y-100542489D01*
X114780000Y-100594000D01*
X114780000Y-102819000D01*
X114760315Y-102886039D01*
X114707511Y-102931794D01*
X114656000Y-102943000D01*
X113090704Y-102943000D01*
X113023665Y-102923315D01*
X113003023Y-102906681D01*
X112961732Y-102865390D01*
X112928247Y-102804067D01*
X112926474Y-102793892D01*
X112921068Y-102752829D01*
X112921068Y-102752827D01*
X112871065Y-102645596D01*
X112787404Y-102561935D01*
X112779733Y-102554264D01*
X112782561Y-102551435D01*
X112751843Y-102513023D01*
X112744635Y-102443526D01*
X112776143Y-102381165D01*
X112779903Y-102377906D01*
X112779733Y-102377736D01*
X112787404Y-102370065D01*
X112871065Y-102286404D01*
X112921068Y-102179173D01*
X112927500Y-102130316D01*
X112927500Y-101781684D01*
X112921068Y-101732827D01*
X112871065Y-101625596D01*
X112787404Y-101541935D01*
X112680173Y-101491932D01*
X112680171Y-101491931D01*
X112680172Y-101491931D01*
X112631317Y-101485500D01*
X112631316Y-101485500D01*
X112448189Y-101485500D01*
X112381150Y-101465815D01*
X112371591Y-101458112D01*
X112371308Y-101458482D01*
X112364865Y-101453538D01*
X112364862Y-101453535D01*
X112327750Y-101432108D01*
X112290640Y-101410682D01*
X112249246Y-101399591D01*
X112207853Y-101388500D01*
X109098853Y-101388500D01*
X109013147Y-101388500D01*
X108930359Y-101410682D01*
X108856138Y-101453535D01*
X108795993Y-101513679D01*
X108734669Y-101547163D01*
X108664978Y-101542177D01*
X108660869Y-101540561D01*
X108658958Y-101539769D01*
X108501258Y-101491932D01*
X108460934Y-101479700D01*
X108460932Y-101479699D01*
X108460934Y-101479699D01*
X108255000Y-101459417D01*
X108049067Y-101479699D01*
X107851043Y-101539769D01*
X107778743Y-101578415D01*
X107668550Y-101637315D01*
X107668548Y-101637316D01*
X107668547Y-101637317D01*
X107508589Y-101768589D01*
X107377317Y-101928547D01*
X107279769Y-102111043D01*
X107219699Y-102309067D01*
X107199417Y-102515000D01*
X107219699Y-102720932D01*
X107241831Y-102793892D01*
X107279768Y-102918954D01*
X107377315Y-103101450D01*
X107377317Y-103101452D01*
X107508589Y-103261410D01*
X107573807Y-103314932D01*
X107668550Y-103392685D01*
X107851046Y-103490232D01*
X108049066Y-103550300D01*
X108049065Y-103550300D01*
X108066964Y-103552062D01*
X108148155Y-103560059D01*
X108212941Y-103586220D01*
X108253300Y-103643254D01*
X108260000Y-103683462D01*
X108260000Y-103886537D01*
X108240315Y-103953576D01*
X108187511Y-103999331D01*
X108148155Y-104009940D01*
X108049067Y-104019699D01*
X107851043Y-104079769D01*
X107778743Y-104118415D01*
X107668550Y-104177315D01*
X107668548Y-104177316D01*
X107668547Y-104177317D01*
X107508589Y-104308589D01*
X107377317Y-104468547D01*
X107279769Y-104651043D01*
X107219699Y-104849067D01*
X107199417Y-105055000D01*
X107219699Y-105260932D01*
X107219700Y-105260934D01*
X107279768Y-105458954D01*
X107377315Y-105641450D01*
X107377317Y-105641452D01*
X107508589Y-105801410D01*
X107605209Y-105880702D01*
X107668550Y-105932685D01*
X107851046Y-106030232D01*
X108049066Y-106090300D01*
X108049065Y-106090300D01*
X108066964Y-106092062D01*
X108148155Y-106100059D01*
X108212941Y-106126220D01*
X108253300Y-106183254D01*
X108260000Y-106223462D01*
X108260000Y-106421000D01*
X108240315Y-106488039D01*
X108187511Y-106533794D01*
X108136000Y-106545000D01*
X105777777Y-106545000D01*
X105765623Y-106544403D01*
X105715000Y-106539417D01*
X105509067Y-106559699D01*
X105311043Y-106619769D01*
X105200898Y-106678643D01*
X105128550Y-106717315D01*
X105128548Y-106717316D01*
X105128547Y-106717317D01*
X104968589Y-106848589D01*
X104837317Y-107008547D01*
X104837315Y-107008550D01*
X104798643Y-107080898D01*
X104739769Y-107191043D01*
X104679699Y-107389067D01*
X104659417Y-107595000D01*
X104679699Y-107800932D01*
X104739769Y-107998956D01*
X104835228Y-108177545D01*
X104849470Y-108245948D01*
X104824470Y-108311192D01*
X104768166Y-108352563D01*
X104725870Y-108359999D01*
X102529000Y-108359999D01*
X102461961Y-108340314D01*
X102416206Y-108287510D01*
X102405000Y-108235999D01*
X102405000Y-105055000D01*
X104659417Y-105055000D01*
X104679699Y-105260932D01*
X104679700Y-105260934D01*
X104739768Y-105458954D01*
X104837315Y-105641450D01*
X104837317Y-105641452D01*
X104968589Y-105801410D01*
X105065209Y-105880702D01*
X105128550Y-105932685D01*
X105311046Y-106030232D01*
X105509066Y-106090300D01*
X105509065Y-106090300D01*
X105527529Y-106092118D01*
X105715000Y-106110583D01*
X105920934Y-106090300D01*
X106118954Y-106030232D01*
X106301450Y-105932685D01*
X106461410Y-105801410D01*
X106592685Y-105641450D01*
X106690232Y-105458954D01*
X106750300Y-105260934D01*
X106770583Y-105055000D01*
X106750300Y-104849066D01*
X106690232Y-104651046D01*
X106592685Y-104468550D01*
X106540702Y-104405209D01*
X106461410Y-104308589D01*
X106301452Y-104177317D01*
X106301453Y-104177317D01*
X106301450Y-104177315D01*
X106118954Y-104079768D01*
X105920934Y-104019700D01*
X105920932Y-104019699D01*
X105920934Y-104019699D01*
X105715000Y-103999417D01*
X105509067Y-104019699D01*
X105311043Y-104079769D01*
X105238743Y-104118415D01*
X105128550Y-104177315D01*
X105128548Y-104177316D01*
X105128547Y-104177317D01*
X104968589Y-104308589D01*
X104837317Y-104468547D01*
X104739769Y-104651043D01*
X104679699Y-104849067D01*
X104659417Y-105055000D01*
X102405000Y-105055000D01*
X102405000Y-102515000D01*
X104659417Y-102515000D01*
X104679699Y-102720932D01*
X104701831Y-102793892D01*
X104739768Y-102918954D01*
X104837315Y-103101450D01*
X104837317Y-103101452D01*
X104968589Y-103261410D01*
X105033807Y-103314932D01*
X105128550Y-103392685D01*
X105311046Y-103490232D01*
X105509066Y-103550300D01*
X105509065Y-103550300D01*
X105527529Y-103552118D01*
X105715000Y-103570583D01*
X105920934Y-103550300D01*
X106118954Y-103490232D01*
X106301450Y-103392685D01*
X106461410Y-103261410D01*
X106592685Y-103101450D01*
X106690232Y-102918954D01*
X106750300Y-102720934D01*
X106770583Y-102515000D01*
X106750300Y-102309066D01*
X106690232Y-102111046D01*
X106592685Y-101928550D01*
X106540702Y-101865209D01*
X106461410Y-101768589D01*
X106301452Y-101637317D01*
X106301453Y-101637317D01*
X106301450Y-101637315D01*
X106118954Y-101539768D01*
X105920934Y-101479700D01*
X105920932Y-101479699D01*
X105920934Y-101479699D01*
X105715000Y-101459417D01*
X105509067Y-101479699D01*
X105311043Y-101539769D01*
X105238743Y-101578415D01*
X105128550Y-101637315D01*
X105128548Y-101637316D01*
X105128547Y-101637317D01*
X104968589Y-101768589D01*
X104837317Y-101928547D01*
X104739769Y-102111043D01*
X104679699Y-102309067D01*
X104659417Y-102515000D01*
X102405000Y-102515000D01*
X102405000Y-99975000D01*
X104659417Y-99975000D01*
X104679699Y-100180932D01*
X104679700Y-100180934D01*
X104739768Y-100378954D01*
X104837315Y-100561450D01*
X104837317Y-100561452D01*
X104968589Y-100721410D01*
X105065209Y-100800702D01*
X105128550Y-100852685D01*
X105311046Y-100950232D01*
X105509066Y-101010300D01*
X105509065Y-101010300D01*
X105527529Y-101012118D01*
X105715000Y-101030583D01*
X105920934Y-101010300D01*
X106118954Y-100950232D01*
X106301450Y-100852685D01*
X106461410Y-100721410D01*
X106592685Y-100561450D01*
X106690232Y-100378954D01*
X106750300Y-100180934D01*
X106770583Y-99975000D01*
X107199417Y-99975000D01*
X107219699Y-100180932D01*
X107219700Y-100180934D01*
X107279768Y-100378954D01*
X107377315Y-100561450D01*
X107377317Y-100561452D01*
X107508589Y-100721410D01*
X107605209Y-100800702D01*
X107668550Y-100852685D01*
X107851046Y-100950232D01*
X108049066Y-101010300D01*
X108049065Y-101010300D01*
X108067529Y-101012118D01*
X108255000Y-101030583D01*
X108460934Y-101010300D01*
X108658954Y-100950232D01*
X108841450Y-100852685D01*
X109001410Y-100721410D01*
X109132685Y-100561450D01*
X109230232Y-100378954D01*
X109290300Y-100180934D01*
X109310583Y-99975000D01*
X109290300Y-99769066D01*
X109230232Y-99571046D01*
X109132685Y-99388550D01*
X109019754Y-99250942D01*
X109001410Y-99228589D01*
X108883677Y-99131969D01*
X108841450Y-99097315D01*
X108658954Y-98999768D01*
X108460934Y-98939700D01*
X108460932Y-98939699D01*
X108460934Y-98939699D01*
X108255000Y-98919417D01*
X108049067Y-98939699D01*
X107851043Y-98999769D01*
X107740898Y-99058643D01*
X107668550Y-99097315D01*
X107668548Y-99097316D01*
X107668547Y-99097317D01*
X107508589Y-99228589D01*
X107377317Y-99388547D01*
X107377315Y-99388550D01*
X107353347Y-99433391D01*
X107279769Y-99571043D01*
X107279768Y-99571045D01*
X107279768Y-99571046D01*
X107275252Y-99585935D01*
X107219699Y-99769067D01*
X107199417Y-99975000D01*
X106770583Y-99975000D01*
X106750300Y-99769066D01*
X106690232Y-99571046D01*
X106592685Y-99388550D01*
X106479754Y-99250942D01*
X106461410Y-99228589D01*
X106343677Y-99131969D01*
X106301450Y-99097315D01*
X106118954Y-98999768D01*
X105920934Y-98939700D01*
X105920932Y-98939699D01*
X105920934Y-98939699D01*
X105715000Y-98919417D01*
X105509067Y-98939699D01*
X105311043Y-98999769D01*
X105200898Y-99058643D01*
X105128550Y-99097315D01*
X105128548Y-99097316D01*
X105128547Y-99097317D01*
X104968589Y-99228589D01*
X104837317Y-99388547D01*
X104837315Y-99388550D01*
X104813347Y-99433391D01*
X104739769Y-99571043D01*
X104739768Y-99571045D01*
X104739768Y-99571046D01*
X104735252Y-99585935D01*
X104679699Y-99769067D01*
X104659417Y-99975000D01*
X102405000Y-99975000D01*
X102405000Y-97435000D01*
X104659417Y-97435000D01*
X104679699Y-97640932D01*
X104679700Y-97640934D01*
X104739768Y-97838954D01*
X104837315Y-98021450D01*
X104837317Y-98021452D01*
X104968589Y-98181410D01*
X105052592Y-98250348D01*
X105128550Y-98312685D01*
X105311046Y-98410232D01*
X105509066Y-98470300D01*
X105509065Y-98470300D01*
X105527529Y-98472118D01*
X105715000Y-98490583D01*
X105920934Y-98470300D01*
X106118954Y-98410232D01*
X106301450Y-98312685D01*
X106461410Y-98181410D01*
X106592685Y-98021450D01*
X106690232Y-97838954D01*
X106750300Y-97640934D01*
X106770583Y-97435000D01*
X107199417Y-97435000D01*
X107219699Y-97640932D01*
X107219700Y-97640934D01*
X107279768Y-97838954D01*
X107377315Y-98021450D01*
X107377317Y-98021452D01*
X107508589Y-98181410D01*
X107592592Y-98250348D01*
X107668550Y-98312685D01*
X107851046Y-98410232D01*
X108049066Y-98470300D01*
X108049065Y-98470300D01*
X108067529Y-98472118D01*
X108255000Y-98490583D01*
X108460934Y-98470300D01*
X108658954Y-98410232D01*
X108841450Y-98312685D01*
X109001410Y-98181410D01*
X109132685Y-98021450D01*
X109230232Y-97838954D01*
X109290300Y-97640934D01*
X109310583Y-97435000D01*
X109290300Y-97229066D01*
X109230232Y-97031046D01*
X109132685Y-96848550D01*
X109077376Y-96781155D01*
X109001410Y-96688589D01*
X108856458Y-96569632D01*
X108841450Y-96557315D01*
X108667743Y-96464466D01*
X108658956Y-96459769D01*
X108658955Y-96459768D01*
X108658954Y-96459768D01*
X108460934Y-96399700D01*
X108460932Y-96399699D01*
X108460934Y-96399699D01*
X108255000Y-96379417D01*
X108049067Y-96399699D01*
X107851043Y-96459769D01*
X107784264Y-96495464D01*
X107668550Y-96557315D01*
X107668548Y-96557316D01*
X107668547Y-96557317D01*
X107508589Y-96688589D01*
X107377317Y-96848547D01*
X107279769Y-97031043D01*
X107219699Y-97229067D01*
X107199417Y-97435000D01*
X106770583Y-97435000D01*
X106750300Y-97229066D01*
X106690232Y-97031046D01*
X106592685Y-96848550D01*
X106537376Y-96781155D01*
X106461410Y-96688589D01*
X106316458Y-96569632D01*
X106301450Y-96557315D01*
X106127743Y-96464466D01*
X106118956Y-96459769D01*
X106118955Y-96459768D01*
X106118954Y-96459768D01*
X105920934Y-96399700D01*
X105920932Y-96399699D01*
X105920934Y-96399699D01*
X105715000Y-96379417D01*
X105509067Y-96399699D01*
X105311043Y-96459769D01*
X105244264Y-96495464D01*
X105128550Y-96557315D01*
X105128548Y-96557316D01*
X105128547Y-96557317D01*
X104968589Y-96688589D01*
X104837317Y-96848547D01*
X104739769Y-97031043D01*
X104679699Y-97229067D01*
X104659417Y-97435000D01*
X102405000Y-97435000D01*
X102405000Y-94895000D01*
X104659417Y-94895000D01*
X104679699Y-95100932D01*
X104686728Y-95124103D01*
X104739768Y-95298954D01*
X104837315Y-95481450D01*
X104857724Y-95506319D01*
X104968589Y-95641410D01*
X105031866Y-95693339D01*
X105128550Y-95772685D01*
X105311046Y-95870232D01*
X105509066Y-95930300D01*
X105509065Y-95930300D01*
X105527529Y-95932118D01*
X105715000Y-95950583D01*
X105920934Y-95930300D01*
X106118954Y-95870232D01*
X106301450Y-95772685D01*
X106461410Y-95641410D01*
X106592685Y-95481450D01*
X106690232Y-95298954D01*
X106750300Y-95100934D01*
X106770583Y-94895000D01*
X106750300Y-94689066D01*
X106690232Y-94491046D01*
X106592685Y-94308550D01*
X106483849Y-94175932D01*
X106461410Y-94148589D01*
X106301452Y-94017317D01*
X106301453Y-94017317D01*
X106301450Y-94017315D01*
X106118954Y-93919768D01*
X105920934Y-93859700D01*
X105920932Y-93859699D01*
X105920934Y-93859699D01*
X105715000Y-93839417D01*
X105509067Y-93859699D01*
X105311043Y-93919769D01*
X105258735Y-93947729D01*
X105128550Y-94017315D01*
X105128548Y-94017316D01*
X105128547Y-94017317D01*
X104968589Y-94148589D01*
X104837317Y-94308547D01*
X104739769Y-94491043D01*
X104679699Y-94689067D01*
X104659417Y-94895000D01*
X102405000Y-94895000D01*
X102405000Y-84084000D01*
X102424685Y-84016961D01*
X102477489Y-83971206D01*
X102529000Y-83960000D01*
X104731313Y-83960000D01*
X104798352Y-83979685D01*
G37*
G04 #@! TD.AperFunction*
G04 #@! TA.AperFunction,Conductor*
G36*
X135147539Y-83979685D02*
G01*
X135193294Y-84032489D01*
X135204500Y-84084000D01*
X135204500Y-86296007D01*
X135209196Y-86339677D01*
X135209199Y-86339698D01*
X135212130Y-86353174D01*
X135213901Y-86363333D01*
X135216028Y-86379489D01*
X135218400Y-86387627D01*
X135222112Y-86398189D01*
X135222889Y-86401369D01*
X135222892Y-86401378D01*
X135248096Y-86448675D01*
X135251045Y-86454583D01*
X135266774Y-86488314D01*
X135297521Y-86519061D01*
X135303555Y-86525541D01*
X135311652Y-86534886D01*
X135311659Y-86534893D01*
X135320734Y-86544156D01*
X135353590Y-86605818D01*
X135347894Y-86675455D01*
X135319843Y-86718617D01*
X135266775Y-86771685D01*
X135216027Y-86880514D01*
X135209500Y-86930097D01*
X135209500Y-87289894D01*
X135209501Y-87289900D01*
X135216028Y-87339487D01*
X135216029Y-87339489D01*
X135216029Y-87339490D01*
X135222606Y-87353593D01*
X135233099Y-87422670D01*
X135204581Y-87486455D01*
X135146105Y-87524696D01*
X135110225Y-87530000D01*
X132424998Y-87530000D01*
X130905842Y-89196586D01*
X130846132Y-89232870D01*
X130776285Y-89231113D01*
X130718475Y-89191872D01*
X130697209Y-89154147D01*
X130692298Y-89140166D01*
X130687733Y-89074580D01*
X130739110Y-88819581D01*
X130746099Y-88796638D01*
X130775044Y-88726762D01*
X130795682Y-88570000D01*
X130775044Y-88413238D01*
X130714536Y-88267159D01*
X130618282Y-88141718D01*
X130618280Y-88141717D01*
X130618280Y-88141716D01*
X130568448Y-88103479D01*
X130492841Y-88045464D01*
X130465261Y-88034040D01*
X130448036Y-88025274D01*
X130167672Y-87853853D01*
X129704816Y-87570852D01*
X129657889Y-87519087D01*
X129645500Y-87465060D01*
X129645500Y-87372055D01*
X129645275Y-87362446D01*
X129644733Y-87350867D01*
X129644060Y-87341287D01*
X129643041Y-87330431D01*
X129642500Y-87318851D01*
X129642500Y-86641148D01*
X129643042Y-86629564D01*
X129644062Y-86618691D01*
X129644731Y-86609162D01*
X129644731Y-86609160D01*
X129644733Y-86609133D01*
X129645275Y-86597554D01*
X129645500Y-86587945D01*
X129645500Y-85774000D01*
X129665185Y-85706961D01*
X129717989Y-85661206D01*
X129769500Y-85650000D01*
X129854763Y-85650000D01*
X129864941Y-85650500D01*
X129865931Y-85650500D01*
X129995059Y-85650500D01*
X130005237Y-85650000D01*
X131104763Y-85650000D01*
X131114941Y-85650500D01*
X131115931Y-85650500D01*
X131245059Y-85650500D01*
X131255237Y-85650000D01*
X132354763Y-85650000D01*
X132364941Y-85650500D01*
X132365931Y-85650500D01*
X132494071Y-85650500D01*
X132578615Y-85633682D01*
X132619744Y-85625501D01*
X132738127Y-85576465D01*
X132844669Y-85505276D01*
X132935276Y-85414669D01*
X133006465Y-85308127D01*
X133055501Y-85189744D01*
X133080500Y-85064069D01*
X133080500Y-84535931D01*
X133080500Y-84535928D01*
X133055502Y-84410261D01*
X133055501Y-84410260D01*
X133055501Y-84410256D01*
X133013741Y-84309438D01*
X133006466Y-84291875D01*
X133006461Y-84291866D01*
X132935276Y-84185331D01*
X132935273Y-84185327D01*
X132921627Y-84171681D01*
X132888142Y-84110358D01*
X132893126Y-84040666D01*
X132934998Y-83984733D01*
X133000462Y-83960316D01*
X133009308Y-83960000D01*
X135080500Y-83960000D01*
X135147539Y-83979685D01*
G37*
G04 #@! TD.AperFunction*
G04 #@! TA.AperFunction,Conductor*
G36*
X139267481Y-87872791D02*
G01*
X139851604Y-88073253D01*
X139908622Y-88113632D01*
X139921836Y-88134242D01*
X139951950Y-88193343D01*
X140041652Y-88283045D01*
X140041654Y-88283046D01*
X140041658Y-88283050D01*
X140154696Y-88340646D01*
X140154698Y-88340647D01*
X140248475Y-88355499D01*
X140248481Y-88355500D01*
X140653345Y-88355499D01*
X140693596Y-88362214D01*
X141104275Y-88503153D01*
X141623029Y-88681182D01*
X141680048Y-88721561D01*
X141706185Y-88786358D01*
X141706778Y-88798777D01*
X141703220Y-90221742D01*
X141683367Y-90288732D01*
X141630449Y-90334355D01*
X141619536Y-90338695D01*
X139289088Y-91139928D01*
X139219291Y-91143109D01*
X139158854Y-91108051D01*
X139126965Y-91045883D01*
X139124775Y-91023545D01*
X139119912Y-90338695D01*
X139103242Y-87990956D01*
X139122450Y-87923781D01*
X139174928Y-87877652D01*
X139244014Y-87867218D01*
X139267481Y-87872791D01*
G37*
G04 #@! TD.AperFunction*
G04 #@! TA.AperFunction,Conductor*
G36*
X137563039Y-83979685D02*
G01*
X137608794Y-84032489D01*
X137620000Y-84084000D01*
X137620000Y-85612593D01*
X137600315Y-85679632D01*
X137583681Y-85700274D01*
X136900274Y-86383681D01*
X136838951Y-86417166D01*
X136812593Y-86420000D01*
X135534000Y-86420000D01*
X135466961Y-86400315D01*
X135421206Y-86347511D01*
X135410000Y-86296000D01*
X135410000Y-84084000D01*
X135429685Y-84016961D01*
X135482489Y-83971206D01*
X135533997Y-83960000D01*
X137496002Y-83960000D01*
X137563039Y-83979685D01*
G37*
G04 #@! TD.AperFunction*
G04 #@! TA.AperFunction,Conductor*
G36*
X151383039Y-93119685D02*
G01*
X151428794Y-93172489D01*
X151440000Y-93224000D01*
X151440000Y-93692213D01*
X151434999Y-93727072D01*
X150376881Y-97339232D01*
X150339145Y-97398034D01*
X150275608Y-97427100D01*
X150254412Y-97428324D01*
X148039499Y-97366317D01*
X147973037Y-97344765D01*
X147928777Y-97290701D01*
X147918988Y-97244475D01*
X147888689Y-95459610D01*
X147907233Y-95392248D01*
X147911462Y-95385864D01*
X149492937Y-93152343D01*
X149547742Y-93109006D01*
X149594137Y-93100000D01*
X151316000Y-93100000D01*
X151383039Y-93119685D01*
G37*
G04 #@! TD.AperFunction*
G04 #@! TA.AperFunction,Conductor*
G36*
X145763039Y-103080185D02*
G01*
X145808794Y-103132989D01*
X145820000Y-103184500D01*
X145820000Y-104812785D01*
X145810561Y-104860237D01*
X145788988Y-104912319D01*
X145788986Y-104912324D01*
X145768349Y-105069083D01*
X145768349Y-105069086D01*
X145788986Y-105225845D01*
X145788987Y-105225847D01*
X145810561Y-105277930D01*
X145820000Y-105325383D01*
X145820000Y-106085500D01*
X145800315Y-106152539D01*
X145747511Y-106198294D01*
X145696000Y-106209500D01*
X145212147Y-106209500D01*
X145129359Y-106231682D01*
X145055138Y-106274535D01*
X145055135Y-106274537D01*
X144701094Y-106628577D01*
X144639771Y-106662062D01*
X144589224Y-106662514D01*
X144574070Y-106659500D01*
X144574069Y-106659500D01*
X144445931Y-106659500D01*
X144444941Y-106659500D01*
X144434763Y-106660000D01*
X143335237Y-106660000D01*
X143325059Y-106659500D01*
X143324069Y-106659500D01*
X143195931Y-106659500D01*
X143195929Y-106659500D01*
X143070261Y-106684497D01*
X143070255Y-106684499D01*
X142951875Y-106733533D01*
X142951866Y-106733538D01*
X142845331Y-106804723D01*
X142845327Y-106804726D01*
X142754726Y-106895327D01*
X142754723Y-106895331D01*
X142683538Y-107001866D01*
X142683533Y-107001875D01*
X142634499Y-107120255D01*
X142634497Y-107120261D01*
X142609500Y-107245928D01*
X142609500Y-107245931D01*
X142609500Y-107774069D01*
X142609500Y-107774071D01*
X142609499Y-107774071D01*
X142634497Y-107899738D01*
X142634500Y-107899748D01*
X142671282Y-107988548D01*
X142678751Y-108058017D01*
X142647475Y-108120496D01*
X142587386Y-108156148D01*
X142556721Y-108160000D01*
X141367591Y-108160000D01*
X141300552Y-108140315D01*
X141254797Y-108087511D01*
X141244652Y-108052184D01*
X141241560Y-108028696D01*
X141240499Y-108012512D01*
X141240499Y-107307487D01*
X141241560Y-107291301D01*
X141245681Y-107260000D01*
X141245681Y-107259998D01*
X141241560Y-107228697D01*
X141240499Y-107212512D01*
X141240499Y-107180945D01*
X141240499Y-107180943D01*
X141232326Y-107150441D01*
X141229163Y-107134536D01*
X141225043Y-107103239D01*
X141225043Y-107103238D01*
X141212956Y-107074060D01*
X141207744Y-107058703D01*
X141199575Y-107028214D01*
X141183790Y-107000873D01*
X141176616Y-106986326D01*
X141175656Y-106984009D01*
X141164535Y-106957159D01*
X141145310Y-106932104D01*
X141136304Y-106918625D01*
X141120521Y-106891287D01*
X141120517Y-106891282D01*
X141098195Y-106868960D01*
X141087500Y-106856765D01*
X141068280Y-106831717D01*
X141043232Y-106812497D01*
X141031038Y-106801803D01*
X141008717Y-106779482D01*
X141008715Y-106779480D01*
X141008712Y-106779478D01*
X141008708Y-106779475D01*
X140981371Y-106763692D01*
X140967886Y-106754682D01*
X140942839Y-106735463D01*
X140942838Y-106735462D01*
X140913667Y-106723379D01*
X140899122Y-106716207D01*
X140871783Y-106700423D01*
X140871780Y-106700422D01*
X140841287Y-106692251D01*
X140825931Y-106687038D01*
X140796763Y-106674956D01*
X140765449Y-106670833D01*
X140749551Y-106667670D01*
X140719056Y-106659500D01*
X140687486Y-106659500D01*
X140671301Y-106658439D01*
X140639999Y-106654318D01*
X140608696Y-106658439D01*
X140592512Y-106659500D01*
X139887486Y-106659500D01*
X139871301Y-106658439D01*
X139839999Y-106654318D01*
X139808696Y-106658439D01*
X139792512Y-106659500D01*
X139756649Y-106659500D01*
X139749016Y-106660000D01*
X138545237Y-106660000D01*
X138535059Y-106659500D01*
X138534069Y-106659500D01*
X138405931Y-106659500D01*
X138404941Y-106659500D01*
X138394763Y-106660000D01*
X137295237Y-106660000D01*
X137285059Y-106659500D01*
X137284069Y-106659500D01*
X137155931Y-106659500D01*
X137154941Y-106659500D01*
X137144763Y-106660000D01*
X136045237Y-106660000D01*
X136035059Y-106659500D01*
X136034069Y-106659500D01*
X135905931Y-106659500D01*
X135905929Y-106659500D01*
X135780261Y-106684497D01*
X135780255Y-106684499D01*
X135661875Y-106733533D01*
X135661866Y-106733538D01*
X135555331Y-106804723D01*
X135555327Y-106804726D01*
X135464726Y-106895327D01*
X135464723Y-106895331D01*
X135393538Y-107001866D01*
X135393533Y-107001875D01*
X135344499Y-107120255D01*
X135344497Y-107120261D01*
X135319500Y-107245928D01*
X135319500Y-107245931D01*
X135319500Y-107774069D01*
X135319500Y-107774071D01*
X135319499Y-107774071D01*
X135344497Y-107899738D01*
X135344500Y-107899748D01*
X135381282Y-107988548D01*
X135388751Y-108058017D01*
X135357475Y-108120496D01*
X135297386Y-108156148D01*
X135266721Y-108160000D01*
X134439500Y-108160000D01*
X134372461Y-108140315D01*
X134326706Y-108087511D01*
X134315500Y-108036000D01*
X134315500Y-107961835D01*
X134315500Y-107961831D01*
X134311551Y-107921738D01*
X134302112Y-107874287D01*
X134294725Y-107849938D01*
X134291770Y-107838138D01*
X134277382Y-107765807D01*
X134274999Y-107741615D01*
X134274999Y-107283788D01*
X134276060Y-107267604D01*
X134278122Y-107251940D01*
X134278637Y-107252007D01*
X134279444Y-107243819D01*
X134289716Y-107192181D01*
X134296773Y-107168918D01*
X134299919Y-107161324D01*
X134311612Y-107122777D01*
X134321051Y-107075325D01*
X134325000Y-107035233D01*
X134324999Y-106600108D01*
X134329224Y-106568017D01*
X134347692Y-106499091D01*
X134360080Y-106469183D01*
X134395759Y-106407385D01*
X134415461Y-106381708D01*
X134841706Y-105955462D01*
X134867378Y-105935762D01*
X134929181Y-105900080D01*
X134959082Y-105887695D01*
X135005691Y-105875205D01*
X135028017Y-105869224D01*
X135060109Y-105864999D01*
X139426000Y-105865000D01*
X139465889Y-105860710D01*
X139479145Y-105860000D01*
X139550000Y-105860000D01*
X143200000Y-104780000D01*
X144330000Y-103640000D01*
X144330000Y-103385000D01*
X144349685Y-103317961D01*
X144402489Y-103272206D01*
X144454000Y-103261000D01*
X145005000Y-103261000D01*
X145005000Y-103184500D01*
X145024685Y-103117461D01*
X145077489Y-103071706D01*
X145129000Y-103060500D01*
X145696000Y-103060500D01*
X145763039Y-103080185D01*
G37*
G04 #@! TD.AperFunction*
G04 #@! TA.AperFunction,Conductor*
G36*
X138022539Y-98549685D02*
G01*
X138068294Y-98602489D01*
X138079500Y-98654000D01*
X138079500Y-100429726D01*
X138106793Y-100531589D01*
X138127516Y-100567481D01*
X138159520Y-100622913D01*
X138159522Y-100622915D01*
X138273181Y-100736574D01*
X138306666Y-100797897D01*
X138309500Y-100824254D01*
X138309500Y-100939894D01*
X138309501Y-100939900D01*
X138316028Y-100989487D01*
X138316029Y-100989489D01*
X138316029Y-100989490D01*
X138363126Y-101090489D01*
X138366776Y-101098316D01*
X138451684Y-101183224D01*
X138560513Y-101233972D01*
X138610099Y-101240500D01*
X138969900Y-101240499D01*
X139019487Y-101233972D01*
X139109243Y-101192118D01*
X139161648Y-101180500D01*
X139426000Y-101180500D01*
X139493039Y-101200185D01*
X139538794Y-101252989D01*
X139550000Y-101304500D01*
X139550000Y-101730548D01*
X139530315Y-101797587D01*
X139477511Y-101843342D01*
X139473452Y-101845109D01*
X139447069Y-101856037D01*
X139431715Y-101861250D01*
X139401219Y-101869422D01*
X139401217Y-101869422D01*
X139401216Y-101869423D01*
X139401214Y-101869424D01*
X139401212Y-101869425D01*
X139373875Y-101885207D01*
X139359336Y-101892377D01*
X139330165Y-101904460D01*
X139330160Y-101904463D01*
X139305107Y-101923686D01*
X139291629Y-101932691D01*
X139264283Y-101948480D01*
X139241955Y-101970807D01*
X139229767Y-101981496D01*
X139204718Y-102000718D01*
X139185496Y-102025767D01*
X139174807Y-102037955D01*
X139152480Y-102060283D01*
X139136691Y-102087629D01*
X139127686Y-102101107D01*
X139108463Y-102126160D01*
X139108460Y-102126165D01*
X139096377Y-102155336D01*
X139089207Y-102169875D01*
X139073425Y-102197212D01*
X139073422Y-102197219D01*
X139065250Y-102227715D01*
X139060038Y-102243067D01*
X139047956Y-102272235D01*
X139047954Y-102272244D01*
X139043832Y-102303545D01*
X139040671Y-102319441D01*
X139032500Y-102349940D01*
X139032500Y-102381512D01*
X139031439Y-102397697D01*
X139027318Y-102428998D01*
X139027318Y-102429000D01*
X139031438Y-102460293D01*
X139032499Y-102476479D01*
X139032499Y-102597268D01*
X139032498Y-102597268D01*
X139073423Y-102750000D01*
X139076390Y-102755137D01*
X139076393Y-102755149D01*
X139076396Y-102755148D01*
X139152477Y-102886926D01*
X139152481Y-102886931D01*
X139271349Y-103005799D01*
X139271355Y-103005804D01*
X139513681Y-103248130D01*
X139547166Y-103309453D01*
X139550000Y-103335811D01*
X139550000Y-105535500D01*
X139530315Y-105602539D01*
X139477511Y-105648294D01*
X139426000Y-105659500D01*
X135182456Y-105659500D01*
X135182440Y-105659499D01*
X135174844Y-105659499D01*
X135016729Y-105659499D01*
X134940365Y-105679961D01*
X134864000Y-105700423D01*
X134863995Y-105700426D01*
X134727076Y-105779475D01*
X134727068Y-105779481D01*
X134344217Y-106162332D01*
X134344214Y-106162334D01*
X134344215Y-106162335D01*
X134239480Y-106267070D01*
X134212863Y-106313173D01*
X134160423Y-106404001D01*
X134119499Y-106556729D01*
X134119499Y-106556731D01*
X134119499Y-106724832D01*
X134119500Y-106724845D01*
X134119500Y-107035233D01*
X134110061Y-107082685D01*
X134094500Y-107120251D01*
X134094497Y-107120261D01*
X134069500Y-107245928D01*
X134069500Y-107245931D01*
X134069500Y-107774069D01*
X134069500Y-107774071D01*
X134069499Y-107774071D01*
X134094497Y-107899738D01*
X134094498Y-107899741D01*
X134094499Y-107899744D01*
X134100561Y-107914380D01*
X134110000Y-107961831D01*
X134110000Y-108235998D01*
X134090315Y-108303037D01*
X134037511Y-108348792D01*
X133986000Y-108359998D01*
X130854000Y-108359998D01*
X130786961Y-108340313D01*
X130741206Y-108287509D01*
X130730000Y-108235998D01*
X130730000Y-106777500D01*
X130749685Y-106710461D01*
X130802489Y-106664706D01*
X130854000Y-106653500D01*
X131142317Y-106653500D01*
X131158601Y-106651356D01*
X131191173Y-106647068D01*
X131195355Y-106645117D01*
X131247759Y-106633500D01*
X131826308Y-106633500D01*
X131826309Y-106633500D01*
X131916673Y-106609286D01*
X131940887Y-106602799D01*
X131985376Y-106577113D01*
X132047376Y-106560500D01*
X132084317Y-106560500D01*
X132100601Y-106558356D01*
X132133173Y-106554068D01*
X132240404Y-106504065D01*
X132240404Y-106504064D01*
X132244579Y-106502118D01*
X132296984Y-106490500D01*
X132363016Y-106490500D01*
X132415421Y-106502118D01*
X132419595Y-106504064D01*
X132419596Y-106504065D01*
X132526827Y-106554068D01*
X132575683Y-106560500D01*
X132575684Y-106560500D01*
X133024317Y-106560500D01*
X133040601Y-106558356D01*
X133073173Y-106554068D01*
X133180404Y-106504065D01*
X133264065Y-106420404D01*
X133314068Y-106313173D01*
X133320500Y-106264316D01*
X133320500Y-106253859D01*
X133340185Y-106186820D01*
X133356819Y-106166178D01*
X133847062Y-105675935D01*
X134350480Y-105172517D01*
X134377254Y-105126143D01*
X134403207Y-105081191D01*
X134430500Y-104979331D01*
X134430500Y-104551543D01*
X134450185Y-104484504D01*
X134466818Y-104463862D01*
X134469198Y-104461483D01*
X134520573Y-104356393D01*
X134530500Y-104288260D01*
X134530500Y-103584000D01*
X134550185Y-103516961D01*
X134602989Y-103471206D01*
X134654500Y-103460000D01*
X135059084Y-103460000D01*
X135069262Y-103460500D01*
X136495519Y-103460500D01*
X136562558Y-103480185D01*
X136608313Y-103532989D01*
X136610067Y-103537871D01*
X136610278Y-103537784D01*
X136613387Y-103545291D01*
X136659527Y-103625208D01*
X136659531Y-103625213D01*
X137053181Y-104018863D01*
X137086666Y-104080186D01*
X137089500Y-104106544D01*
X137089500Y-104979752D01*
X137101131Y-105038229D01*
X137101132Y-105038230D01*
X137145447Y-105104552D01*
X137211769Y-105148867D01*
X137211770Y-105148868D01*
X137270247Y-105160499D01*
X137270250Y-105160500D01*
X137270252Y-105160500D01*
X138709750Y-105160500D01*
X138709751Y-105160499D01*
X138724568Y-105157552D01*
X138768229Y-105148868D01*
X138768229Y-105148867D01*
X138768231Y-105148867D01*
X138834552Y-105104552D01*
X138878867Y-105038231D01*
X138878867Y-105038229D01*
X138878868Y-105038229D01*
X138890499Y-104979752D01*
X138890500Y-104979750D01*
X138890500Y-103740249D01*
X138890499Y-103740247D01*
X138878868Y-103681770D01*
X138878867Y-103681769D01*
X138834552Y-103615447D01*
X138768230Y-103571132D01*
X138768229Y-103571131D01*
X138709752Y-103559500D01*
X138709748Y-103559500D01*
X137636544Y-103559500D01*
X137569505Y-103539815D01*
X137548863Y-103523181D01*
X137326819Y-103301137D01*
X137293334Y-103239814D01*
X137290500Y-103213456D01*
X137290500Y-102031543D01*
X137310185Y-101964504D01*
X137326819Y-101943862D01*
X137385474Y-101885207D01*
X137460469Y-101810212D01*
X137506614Y-101730288D01*
X137512332Y-101708947D01*
X137530500Y-101641144D01*
X137530500Y-100112785D01*
X137541066Y-100062698D01*
X137577584Y-99979993D01*
X137577585Y-99979991D01*
X137580500Y-99954865D01*
X137580499Y-98653999D01*
X137600184Y-98586961D01*
X137652987Y-98541206D01*
X137704499Y-98530000D01*
X137955500Y-98530000D01*
X138022539Y-98549685D01*
G37*
G04 #@! TD.AperFunction*
G04 #@! TA.AperFunction,Conductor*
G36*
X118525539Y-86750185D02*
G01*
X118571294Y-86802989D01*
X118582500Y-86854500D01*
X118582500Y-87179316D01*
X118588931Y-87228171D01*
X118638935Y-87335404D01*
X118730267Y-87426736D01*
X118727443Y-87429559D01*
X118758183Y-87468042D01*
X118765352Y-87537542D01*
X118733808Y-87599886D01*
X118730101Y-87603098D01*
X118730267Y-87603264D01*
X118638935Y-87694595D01*
X118588931Y-87801828D01*
X118582500Y-87850683D01*
X118582500Y-88110423D01*
X118562815Y-88177462D01*
X118510011Y-88223217D01*
X118440853Y-88233161D01*
X118383014Y-88208799D01*
X118327842Y-88166464D01*
X118181762Y-88105956D01*
X118181760Y-88105955D01*
X118025001Y-88085318D01*
X118024999Y-88085318D01*
X117868239Y-88105955D01*
X117868237Y-88105956D01*
X117722160Y-88166463D01*
X117596718Y-88262718D01*
X117500463Y-88388160D01*
X117439956Y-88534237D01*
X117439955Y-88534239D01*
X117419318Y-88690998D01*
X117419318Y-88691001D01*
X117439955Y-88847760D01*
X117439956Y-88847762D01*
X117496414Y-88984065D01*
X117500464Y-88993841D01*
X117596718Y-89119282D01*
X117722159Y-89215536D01*
X117868238Y-89276044D01*
X117915932Y-89282323D01*
X118024999Y-89296682D01*
X118025000Y-89296682D01*
X118025001Y-89296682D01*
X118090597Y-89288046D01*
X118181762Y-89276044D01*
X118327841Y-89215536D01*
X118433015Y-89134833D01*
X118498182Y-89109639D01*
X118566627Y-89123677D01*
X118616617Y-89172491D01*
X118632500Y-89233209D01*
X118632500Y-90555943D01*
X118664564Y-90675606D01*
X118679071Y-90700734D01*
X118726505Y-90782892D01*
X118726507Y-90782895D01*
X118821171Y-90877559D01*
X118821177Y-90877564D01*
X119111181Y-91167568D01*
X119144666Y-91228891D01*
X119147500Y-91255249D01*
X119147500Y-92063252D01*
X119159131Y-92121729D01*
X119159132Y-92121730D01*
X119210233Y-92198207D01*
X119208727Y-92199212D01*
X119235139Y-92247582D01*
X119230155Y-92317274D01*
X119201654Y-92361621D01*
X118868735Y-92694540D01*
X118807412Y-92728025D01*
X118737720Y-92723041D01*
X118681787Y-92681169D01*
X118666493Y-92654311D01*
X118634537Y-92577161D01*
X118634536Y-92577160D01*
X118634536Y-92577159D01*
X118538282Y-92451718D01*
X118412841Y-92355464D01*
X118266762Y-92294956D01*
X118266760Y-92294955D01*
X118110001Y-92274318D01*
X118109999Y-92274318D01*
X117953239Y-92294955D01*
X117953237Y-92294956D01*
X117807160Y-92355463D01*
X117681718Y-92451718D01*
X117585463Y-92577160D01*
X117524956Y-92723237D01*
X117524955Y-92723239D01*
X117510218Y-92835185D01*
X117481952Y-92899082D01*
X117423627Y-92937553D01*
X117387279Y-92943000D01*
X114650701Y-92943000D01*
X114624065Y-92950137D01*
X114624065Y-92950138D01*
X114556474Y-92968249D01*
X114556473Y-92968249D01*
X114556471Y-92968250D01*
X114522388Y-92987929D01*
X114522386Y-92987930D01*
X114471989Y-93017025D01*
X114471987Y-93017027D01*
X113473527Y-94015486D01*
X113473524Y-94015491D01*
X113456306Y-94045315D01*
X113456305Y-94045317D01*
X113424750Y-94099970D01*
X113424749Y-94099971D01*
X113418423Y-94123583D01*
X113412550Y-94145500D01*
X113412550Y-94145501D01*
X113412549Y-94145500D01*
X113400565Y-94190230D01*
X113400562Y-94190244D01*
X113399500Y-94194203D01*
X113399500Y-94465918D01*
X113379815Y-94532957D01*
X113327011Y-94578712D01*
X113257853Y-94588656D01*
X113217875Y-94575715D01*
X113150225Y-94540209D01*
X112985056Y-94499500D01*
X112814944Y-94499500D01*
X112649776Y-94540209D01*
X112557241Y-94588776D01*
X112488732Y-94602501D01*
X112423679Y-94577008D01*
X112382735Y-94520392D01*
X112375623Y-94480283D01*
X112350709Y-92099235D01*
X112369690Y-92032000D01*
X112422012Y-91985695D01*
X112491063Y-91975028D01*
X112532327Y-91988148D01*
X112602542Y-92025000D01*
X112649775Y-92049790D01*
X112814944Y-92090500D01*
X112985056Y-92090500D01*
X113150225Y-92049790D01*
X113292671Y-91975028D01*
X113300849Y-91970736D01*
X113300850Y-91970734D01*
X113300852Y-91970734D01*
X113428183Y-91857929D01*
X113524818Y-91717930D01*
X113585140Y-91558872D01*
X113605645Y-91390000D01*
X113585140Y-91221128D01*
X113578601Y-91203887D01*
X113524817Y-91062068D01*
X113485507Y-91005119D01*
X113428183Y-90922071D01*
X113300852Y-90809266D01*
X113300849Y-90809263D01*
X113150226Y-90730210D01*
X112985056Y-90689500D01*
X112814944Y-90689500D01*
X112649776Y-90730209D01*
X112517593Y-90799585D01*
X112449084Y-90813310D01*
X112384031Y-90787817D01*
X112343087Y-90731201D01*
X112335975Y-90691093D01*
X112330532Y-90170939D01*
X112331430Y-90154710D01*
X112335645Y-90120004D01*
X112335645Y-90120001D01*
X112329237Y-90067228D01*
X112315140Y-89951128D01*
X112254818Y-89792070D01*
X112158183Y-89652071D01*
X112054012Y-89559784D01*
X112030849Y-89539263D01*
X111880226Y-89460210D01*
X111715056Y-89419500D01*
X111544944Y-89419500D01*
X111379773Y-89460210D01*
X111229150Y-89539263D01*
X111101816Y-89652072D01*
X111005182Y-89792068D01*
X110944860Y-89951125D01*
X110944859Y-89951130D01*
X110924355Y-90120000D01*
X110944859Y-90288869D01*
X110944860Y-90288874D01*
X111005182Y-90447931D01*
X111031156Y-90485560D01*
X111053039Y-90551915D01*
X111035574Y-90619566D01*
X110984306Y-90667036D01*
X110929106Y-90680000D01*
X109914000Y-90680000D01*
X109846961Y-90660315D01*
X109801206Y-90607511D01*
X109790000Y-90556000D01*
X109790000Y-90265292D01*
X109809685Y-90198253D01*
X109826319Y-90177611D01*
X110803660Y-89200270D01*
X110864983Y-89166785D01*
X110891341Y-89163951D01*
X113515262Y-89163951D01*
X113582301Y-89183636D01*
X113602943Y-89200270D01*
X114843988Y-90441315D01*
X114877473Y-90502638D01*
X114879246Y-90545181D01*
X114870318Y-90612998D01*
X114870318Y-90613001D01*
X114890955Y-90769760D01*
X114890956Y-90769762D01*
X114951464Y-90915841D01*
X115047718Y-91041282D01*
X115173159Y-91137536D01*
X115319238Y-91198044D01*
X115397619Y-91208363D01*
X115475999Y-91218682D01*
X115476000Y-91218682D01*
X115476001Y-91218682D01*
X115528254Y-91211802D01*
X115632762Y-91198044D01*
X115778841Y-91137536D01*
X115904282Y-91041282D01*
X116000536Y-90915841D01*
X116061044Y-90769762D01*
X116081682Y-90613000D01*
X116080959Y-90607511D01*
X116064772Y-90484555D01*
X116061044Y-90456238D01*
X116000536Y-90310159D01*
X115904282Y-90184718D01*
X115778841Y-90088464D01*
X115632762Y-90027956D01*
X115632760Y-90027955D01*
X115476001Y-90007318D01*
X115475999Y-90007318D01*
X115408181Y-90016246D01*
X115339145Y-90005480D01*
X115304315Y-89980988D01*
X114150660Y-88827333D01*
X114117175Y-88766010D01*
X114122159Y-88696318D01*
X114150660Y-88651971D01*
X114153713Y-88648917D01*
X114153716Y-88648916D01*
X116035813Y-86766819D01*
X116097136Y-86733334D01*
X116123494Y-86730500D01*
X118458500Y-86730500D01*
X118525539Y-86750185D01*
G37*
G04 #@! TD.AperFunction*
G04 #@! TA.AperFunction,Conductor*
G36*
X128167731Y-83979685D02*
G01*
X128213486Y-84032489D01*
X128223430Y-84101647D01*
X128194405Y-84165203D01*
X128188373Y-84171681D01*
X128174726Y-84185327D01*
X128174723Y-84185331D01*
X128103538Y-84291866D01*
X128103533Y-84291875D01*
X128054499Y-84410255D01*
X128054497Y-84410261D01*
X128029500Y-84535928D01*
X128029500Y-84535931D01*
X128029500Y-85064069D01*
X128029500Y-85064071D01*
X128029499Y-85064071D01*
X128054497Y-85189738D01*
X128054499Y-85189744D01*
X128103533Y-85308124D01*
X128103538Y-85308133D01*
X128174723Y-85414668D01*
X128174726Y-85414672D01*
X128265327Y-85505273D01*
X128265331Y-85505276D01*
X128371866Y-85576461D01*
X128371872Y-85576464D01*
X128371873Y-85576465D01*
X128490256Y-85625501D01*
X128490260Y-85625501D01*
X128490261Y-85625502D01*
X128615928Y-85650500D01*
X128615931Y-85650500D01*
X128745059Y-85650500D01*
X128755237Y-85650000D01*
X129316000Y-85650000D01*
X129383039Y-85669685D01*
X129428794Y-85722489D01*
X129440000Y-85774000D01*
X129440000Y-86587945D01*
X129439458Y-86599524D01*
X129437000Y-86625732D01*
X129437000Y-87334267D01*
X129439458Y-87360476D01*
X129440000Y-87372055D01*
X129440000Y-87985500D01*
X129420315Y-88052539D01*
X129367511Y-88098294D01*
X129316000Y-88109500D01*
X129015683Y-88109500D01*
X128966828Y-88115931D01*
X128855421Y-88167882D01*
X128803016Y-88179500D01*
X128736984Y-88179500D01*
X128684579Y-88167882D01*
X128642961Y-88148475D01*
X128573173Y-88115932D01*
X128573171Y-88115931D01*
X128573172Y-88115931D01*
X128524317Y-88109500D01*
X128524316Y-88109500D01*
X128075684Y-88109500D01*
X128075683Y-88109500D01*
X128026828Y-88115931D01*
X127936866Y-88157882D01*
X127884461Y-88169500D01*
X127786984Y-88169500D01*
X127734579Y-88157882D01*
X127714406Y-88148475D01*
X127623173Y-88105932D01*
X127623171Y-88105931D01*
X127623172Y-88105931D01*
X127574317Y-88099500D01*
X127574316Y-88099500D01*
X127125684Y-88099500D01*
X127125683Y-88099500D01*
X127076828Y-88105931D01*
X126969595Y-88155935D01*
X126885935Y-88239595D01*
X126835931Y-88346828D01*
X126829500Y-88395683D01*
X126829500Y-88744316D01*
X126835931Y-88793171D01*
X126885935Y-88900404D01*
X126977267Y-88991736D01*
X126974443Y-88994559D01*
X127005183Y-89033042D01*
X127012352Y-89102542D01*
X126980808Y-89164886D01*
X126977101Y-89168098D01*
X126977267Y-89168264D01*
X126885935Y-89259595D01*
X126835931Y-89366828D01*
X126829500Y-89415683D01*
X126829500Y-89492745D01*
X126809815Y-89559784D01*
X126793181Y-89580426D01*
X125977522Y-90396084D01*
X125977520Y-90396087D01*
X125924790Y-90487416D01*
X125921744Y-90494771D01*
X125877902Y-90549173D01*
X125876076Y-90550417D01*
X125803448Y-90598946D01*
X125759132Y-90665269D01*
X125759131Y-90665270D01*
X125747500Y-90723747D01*
X125747500Y-91792811D01*
X125727815Y-91859850D01*
X125711181Y-91880492D01*
X125584992Y-92006681D01*
X125523669Y-92040166D01*
X125497311Y-92043000D01*
X124772500Y-92043000D01*
X124705461Y-92023315D01*
X124659706Y-91970511D01*
X124648500Y-91919000D01*
X124648500Y-90723749D01*
X124648499Y-90723747D01*
X124636868Y-90665270D01*
X124636867Y-90665269D01*
X124592552Y-90598947D01*
X124526230Y-90554632D01*
X124526229Y-90554631D01*
X124467752Y-90543000D01*
X124467748Y-90543000D01*
X123728252Y-90543000D01*
X123728247Y-90543000D01*
X123669770Y-90554631D01*
X123669769Y-90554632D01*
X123616891Y-90589965D01*
X123550214Y-90610843D01*
X123482834Y-90592359D01*
X123479109Y-90589965D01*
X123426230Y-90554632D01*
X123426229Y-90554631D01*
X123361774Y-90541811D01*
X123362026Y-90540541D01*
X123303446Y-90516880D01*
X123292715Y-90507326D01*
X123282575Y-90497186D01*
X123282552Y-90497165D01*
X123187819Y-90402432D01*
X123154334Y-90341109D01*
X123151500Y-90314751D01*
X123151500Y-90259102D01*
X123154373Y-90238979D01*
X123153734Y-90238895D01*
X123159084Y-90198253D01*
X123161500Y-90179901D01*
X123161499Y-89760100D01*
X123154972Y-89710513D01*
X123154970Y-89710509D01*
X123153733Y-89701108D01*
X123154372Y-89701023D01*
X123151500Y-89680900D01*
X123151500Y-88666784D01*
X123171185Y-88599745D01*
X123223989Y-88553990D01*
X123293147Y-88544046D01*
X123350984Y-88568407D01*
X123385763Y-88595094D01*
X123531842Y-88655602D01*
X123610223Y-88665921D01*
X123688603Y-88676240D01*
X123688604Y-88676240D01*
X123688605Y-88676240D01*
X123740858Y-88669360D01*
X123845366Y-88655602D01*
X123991445Y-88595094D01*
X124116886Y-88498840D01*
X124213140Y-88373399D01*
X124273648Y-88227320D01*
X124284028Y-88148472D01*
X124312292Y-88084578D01*
X124319272Y-88076991D01*
X124929446Y-87466819D01*
X124990769Y-87433334D01*
X125017127Y-87430500D01*
X125782687Y-87430500D01*
X125835091Y-87442117D01*
X125860513Y-87453972D01*
X125910099Y-87460500D01*
X126329900Y-87460499D01*
X126379487Y-87453972D01*
X126404908Y-87442117D01*
X126457313Y-87430500D01*
X126577020Y-87430500D01*
X126644059Y-87450185D01*
X126677531Y-87486628D01*
X126679189Y-87485405D01*
X126684706Y-87492880D01*
X126684707Y-87492882D01*
X126765350Y-87602150D01*
X126874618Y-87682793D01*
X126908349Y-87694596D01*
X127002799Y-87727646D01*
X127033230Y-87730500D01*
X127033234Y-87730500D01*
X127741770Y-87730500D01*
X127772199Y-87727646D01*
X127772201Y-87727646D01*
X127836290Y-87705219D01*
X127900382Y-87682793D01*
X128009650Y-87602150D01*
X128090293Y-87492882D01*
X128116123Y-87419065D01*
X128135146Y-87364701D01*
X128135146Y-87364699D01*
X128138000Y-87334269D01*
X128138000Y-86625730D01*
X128135146Y-86595300D01*
X128135146Y-86595298D01*
X128090293Y-86467119D01*
X128090292Y-86467117D01*
X128009650Y-86357850D01*
X127900382Y-86277207D01*
X127900380Y-86277206D01*
X127772200Y-86232353D01*
X127741770Y-86229500D01*
X127741766Y-86229500D01*
X127033234Y-86229500D01*
X127033230Y-86229500D01*
X127002800Y-86232353D01*
X126996223Y-86234655D01*
X126926444Y-86238215D01*
X126865818Y-86203484D01*
X126833593Y-86141490D01*
X126840000Y-86071914D01*
X126879784Y-86019237D01*
X126942282Y-85971282D01*
X127038536Y-85845841D01*
X127099044Y-85699762D01*
X127119682Y-85543000D01*
X127116917Y-85522000D01*
X127099044Y-85386239D01*
X127099044Y-85386238D01*
X127038536Y-85240159D01*
X126942282Y-85114718D01*
X126816841Y-85018464D01*
X126670762Y-84957956D01*
X126670760Y-84957955D01*
X126514001Y-84937318D01*
X126513999Y-84937318D01*
X126357239Y-84957955D01*
X126357237Y-84957956D01*
X126211160Y-85018463D01*
X126085718Y-85114718D01*
X125989463Y-85240160D01*
X125928956Y-85386237D01*
X125928955Y-85386239D01*
X125908318Y-85542998D01*
X125908318Y-85543001D01*
X125917246Y-85610817D01*
X125906480Y-85679852D01*
X125881988Y-85714683D01*
X125553490Y-86043182D01*
X125492169Y-86076666D01*
X125465811Y-86079500D01*
X115894452Y-86079500D01*
X115811667Y-86101682D01*
X115811664Y-86101683D01*
X115749414Y-86137624D01*
X115749409Y-86137627D01*
X115737443Y-86144534D01*
X115649305Y-86232672D01*
X115587981Y-86266156D01*
X115518290Y-86261172D01*
X115462356Y-86219300D01*
X115447063Y-86192443D01*
X115428936Y-86148682D01*
X115417536Y-86121159D01*
X115321282Y-85995718D01*
X115195841Y-85899464D01*
X115049762Y-85838956D01*
X115049760Y-85838955D01*
X114893001Y-85818318D01*
X114892999Y-85818318D01*
X114736239Y-85838955D01*
X114736237Y-85838956D01*
X114590158Y-85899464D01*
X114529211Y-85946230D01*
X114464042Y-85971423D01*
X114395597Y-85957384D01*
X114345608Y-85908570D01*
X114329971Y-85855640D01*
X114312408Y-85576465D01*
X114311281Y-85558554D01*
X114311280Y-85558546D01*
X114311280Y-85558543D01*
X114254681Y-85261840D01*
X114161341Y-84974570D01*
X114032733Y-84701264D01*
X113984781Y-84625704D01*
X113870888Y-84446236D01*
X113757719Y-84309438D01*
X113678349Y-84213496D01*
X113678346Y-84213493D01*
X113636707Y-84174391D01*
X113601313Y-84114150D01*
X113604107Y-84044336D01*
X113644201Y-83987115D01*
X113708866Y-83960655D01*
X113721592Y-83960000D01*
X128100692Y-83960000D01*
X128167731Y-83979685D01*
G37*
G04 #@! TD.AperFunction*
M02*
