%TF.GenerationSoftware,KiCad,Pcbnew,7.0.6*%
%TF.CreationDate,2024-02-28T04:38:36+03:00*%
%TF.ProjectId,Penguin Junior,50656e67-7569-46e2-904a-756e696f722e,rev?*%
%TF.SameCoordinates,Original*%
%TF.FileFunction,Drillmap*%
%TF.FilePolarity,Positive*%
%FSLAX45Y45*%
G04 Gerber Fmt 4.5, Leading zero omitted, Abs format (unit mm)*
G04 Created by KiCad (PCBNEW 7.0.6) date 2024-02-28 04:38:36*
%MOMM*%
%LPD*%
G01*
G04 APERTURE LIST*
%ADD10C,0.100000*%
%ADD11C,0.200000*%
%ADD12C,0.040000*%
%ADD13C,0.045000*%
%ADD14C,0.050000*%
%ADD15C,0.065000*%
%ADD16C,0.080000*%
%ADD17C,0.220000*%
G04 APERTURE END LIST*
D10*
X10190510Y-10843500D02*
G75*
G03*
X10233007Y-10886000I42500J0D01*
G01*
X10233007Y-8346000D02*
X15915500Y-8346000D01*
X10190507Y-8388500D02*
X10190507Y-10843500D01*
X15915500Y-10886000D02*
X10233007Y-10886000D01*
X16040500Y-8471000D02*
G75*
G03*
X15915500Y-8346000I-125000J0D01*
G01*
X16040500Y-8471000D02*
X16040500Y-10761000D01*
X10233007Y-8345997D02*
G75*
G03*
X10190507Y-8388500I3J-42503D01*
G01*
X15915500Y-10886000D02*
G75*
G03*
X16040500Y-10761000I0J125000D01*
G01*
D11*
D12*
X11381000Y-9813500D02*
X11421000Y-9853500D01*
X11421000Y-9813500D02*
X11381000Y-9853500D01*
X11454000Y-9682000D02*
X11494000Y-9722000D01*
X11494000Y-9682000D02*
X11454000Y-9722000D01*
X11458000Y-8659000D02*
X11498000Y-8699000D01*
X11498000Y-8659000D02*
X11458000Y-8699000D01*
X11468000Y-9865000D02*
X11508000Y-9905000D01*
X11508000Y-9865000D02*
X11468000Y-9905000D01*
X11481431Y-9388762D02*
X11521431Y-9428762D01*
X11521431Y-9388762D02*
X11481431Y-9428762D01*
X11514950Y-9041000D02*
X11554950Y-9081000D01*
X11554950Y-9041000D02*
X11514950Y-9081000D01*
X11525000Y-9142000D02*
X11565000Y-9182000D01*
X11565000Y-9142000D02*
X11525000Y-9182000D01*
X11581560Y-9198560D02*
X11621560Y-9238560D01*
X11621560Y-9198560D02*
X11581560Y-9238560D01*
X11686750Y-10494000D02*
X11726750Y-10534000D01*
X11726750Y-10494000D02*
X11686750Y-10534000D01*
X11686750Y-10640000D02*
X11726750Y-10680000D01*
X11726750Y-10640000D02*
X11686750Y-10680000D01*
X11723000Y-8551000D02*
X11763000Y-8591000D01*
X11763000Y-8551000D02*
X11723000Y-8591000D01*
X11742000Y-9661450D02*
X11782000Y-9701450D01*
X11782000Y-9661450D02*
X11742000Y-9701450D01*
X11745000Y-9913000D02*
X11785000Y-9953000D01*
X11785000Y-9913000D02*
X11745000Y-9953000D01*
X11773000Y-9414000D02*
X11813000Y-9454000D01*
X11813000Y-9414000D02*
X11773000Y-9454000D01*
X11791000Y-9268000D02*
X11831000Y-9308000D01*
X11831000Y-9268000D02*
X11791000Y-9308000D01*
X11857000Y-9539000D02*
X11897000Y-9579000D01*
X11897000Y-9539000D02*
X11857000Y-9579000D01*
X11874000Y-9418000D02*
X11914000Y-9458000D01*
X11914000Y-9418000D02*
X11874000Y-9458000D01*
X11891000Y-10783000D02*
X11931000Y-10823000D01*
X11931000Y-10783000D02*
X11891000Y-10823000D01*
X11891050Y-10628000D02*
X11931050Y-10668000D01*
X11931050Y-10628000D02*
X11891050Y-10668000D01*
X11900000Y-9789450D02*
X11940000Y-9829450D01*
X11940000Y-9789450D02*
X11900000Y-9829450D01*
X11904000Y-9891000D02*
X11944000Y-9931000D01*
X11944000Y-9891000D02*
X11904000Y-9931000D01*
X11921038Y-10046038D02*
X11961038Y-10086038D01*
X11961038Y-10046038D02*
X11921038Y-10086038D01*
X11940000Y-8552000D02*
X11980000Y-8592000D01*
X11980000Y-8552000D02*
X11940000Y-8592000D01*
X11971000Y-9362000D02*
X12011000Y-9402000D01*
X12011000Y-9362000D02*
X11971000Y-9402000D01*
X12016670Y-9601330D02*
X12056670Y-9641330D01*
X12056670Y-9601330D02*
X12016670Y-9641330D01*
X12022000Y-9779000D02*
X12062000Y-9819000D01*
X12062000Y-9779000D02*
X12022000Y-9819000D01*
X12044230Y-9961770D02*
X12084230Y-10001770D01*
X12084230Y-9961770D02*
X12044230Y-10001770D01*
X12080814Y-10776100D02*
X12120814Y-10816100D01*
X12120814Y-10776100D02*
X12080814Y-10816100D01*
X12141550Y-8888000D02*
X12181550Y-8928000D01*
X12181550Y-8888000D02*
X12141550Y-8928000D01*
X12169950Y-9481000D02*
X12209950Y-9521000D01*
X12209950Y-9481000D02*
X12169950Y-9521000D01*
X12219950Y-9387000D02*
X12259950Y-9427000D01*
X12259950Y-9387000D02*
X12219950Y-9427000D01*
X12221000Y-9740000D02*
X12261000Y-9780000D01*
X12261000Y-9740000D02*
X12221000Y-9780000D01*
X12269950Y-9295000D02*
X12309950Y-9335000D01*
X12309950Y-9295000D02*
X12269950Y-9335000D01*
X12274000Y-9654000D02*
X12314000Y-9694000D01*
X12314000Y-9654000D02*
X12274000Y-9694000D01*
X12326069Y-10099000D02*
X12366069Y-10139000D01*
X12366069Y-10099000D02*
X12326069Y-10139000D01*
X12348000Y-9764100D02*
X12388000Y-9804100D01*
X12388000Y-9764100D02*
X12348000Y-9804100D01*
X12372000Y-10706000D02*
X12412000Y-10746000D01*
X12412000Y-10706000D02*
X12372000Y-10746000D01*
X12420450Y-9670250D02*
X12460450Y-9710250D01*
X12460450Y-9670250D02*
X12420450Y-9710250D01*
X12422000Y-10132000D02*
X12462000Y-10172000D01*
X12462000Y-10132000D02*
X12422000Y-10172000D01*
X12425000Y-8866000D02*
X12465000Y-8906000D01*
X12465000Y-8866000D02*
X12425000Y-8906000D01*
X12433000Y-9472000D02*
X12473000Y-9512000D01*
X12473000Y-9472000D02*
X12433000Y-9512000D01*
X12452000Y-9781000D02*
X12492000Y-9821000D01*
X12492000Y-9781000D02*
X12452000Y-9821000D01*
X12547500Y-9434000D02*
X12587500Y-9474000D01*
X12587500Y-9434000D02*
X12547500Y-9474000D01*
X12572962Y-9715200D02*
X12612962Y-9755200D01*
X12612962Y-9715200D02*
X12572962Y-9755200D01*
X12600000Y-9988000D02*
X12640000Y-10028000D01*
X12640000Y-9988000D02*
X12600000Y-10028000D01*
X12606444Y-9858914D02*
X12646444Y-9898914D01*
X12646444Y-9858914D02*
X12606444Y-9898914D01*
X12613000Y-8866000D02*
X12653000Y-8906000D01*
X12653000Y-8866000D02*
X12613000Y-8906000D01*
X12745863Y-10167137D02*
X12785863Y-10207137D01*
X12785863Y-10167137D02*
X12745863Y-10207137D01*
X12824840Y-10231000D02*
X12864840Y-10271000D01*
X12864840Y-10231000D02*
X12824840Y-10271000D01*
X12901000Y-9989000D02*
X12941000Y-10029000D01*
X12941000Y-9989000D02*
X12901000Y-10029000D01*
X12901000Y-10128000D02*
X12941000Y-10168000D01*
X12941000Y-10128000D02*
X12901000Y-10168000D01*
X12923664Y-9647500D02*
X12963664Y-9687500D01*
X12963664Y-9647500D02*
X12923664Y-9687500D01*
X12935750Y-9178530D02*
X12975750Y-9218530D01*
X12975750Y-9178530D02*
X12935750Y-9218530D01*
X12940818Y-9787450D02*
X12980818Y-9827450D01*
X12980818Y-9787450D02*
X12940818Y-9827450D01*
X12998750Y-8678000D02*
X13038750Y-8718000D01*
X13038750Y-8678000D02*
X12998750Y-8718000D01*
X12999000Y-8837000D02*
X13039000Y-8877000D01*
X13039000Y-8837000D02*
X12999000Y-8877000D01*
X13032050Y-9356913D02*
X13072050Y-9396913D01*
X13072050Y-9356913D02*
X13032050Y-9396913D01*
X13055000Y-9014000D02*
X13095000Y-9054000D01*
X13095000Y-9014000D02*
X13055000Y-9054000D01*
X13057000Y-9455000D02*
X13097000Y-9495000D01*
X13097000Y-9455000D02*
X13057000Y-9495000D01*
X13168800Y-10148000D02*
X13208800Y-10188000D01*
X13208800Y-10148000D02*
X13168800Y-10188000D01*
X13194000Y-8598000D02*
X13234000Y-8638000D01*
X13234000Y-8598000D02*
X13194000Y-8638000D01*
X13194000Y-8678000D02*
X13234000Y-8718000D01*
X13234000Y-8678000D02*
X13194000Y-8718000D01*
X13205000Y-9514000D02*
X13245000Y-9554000D01*
X13245000Y-9514000D02*
X13205000Y-9554000D01*
X13242950Y-10706000D02*
X13282950Y-10746000D01*
X13282950Y-10706000D02*
X13242950Y-10746000D01*
X13274000Y-8568000D02*
X13314000Y-8608000D01*
X13314000Y-8568000D02*
X13274000Y-8608000D01*
X13274000Y-8648000D02*
X13314000Y-8688000D01*
X13314000Y-8648000D02*
X13274000Y-8688000D01*
X13351000Y-10706000D02*
X13391000Y-10746000D01*
X13391000Y-10706000D02*
X13351000Y-10746000D01*
X13367000Y-8801000D02*
X13407000Y-8841000D01*
X13407000Y-8801000D02*
X13367000Y-8841000D01*
X13367000Y-8866000D02*
X13407000Y-8906000D01*
X13407000Y-8866000D02*
X13367000Y-8906000D01*
X13367000Y-8931000D02*
X13407000Y-8971000D01*
X13407000Y-8931000D02*
X13367000Y-8971000D01*
X13367000Y-8996000D02*
X13407000Y-9036000D01*
X13407000Y-8996000D02*
X13367000Y-9036000D01*
X13367000Y-9061000D02*
X13407000Y-9101000D01*
X13407000Y-9061000D02*
X13367000Y-9101000D01*
X13432000Y-8801000D02*
X13472000Y-8841000D01*
X13472000Y-8801000D02*
X13432000Y-8841000D01*
X13432000Y-8866000D02*
X13472000Y-8906000D01*
X13472000Y-8866000D02*
X13432000Y-8906000D01*
X13432000Y-8931000D02*
X13472000Y-8971000D01*
X13472000Y-8931000D02*
X13432000Y-8971000D01*
X13432000Y-8996000D02*
X13472000Y-9036000D01*
X13472000Y-8996000D02*
X13432000Y-9036000D01*
X13432000Y-9061000D02*
X13472000Y-9101000D01*
X13472000Y-9061000D02*
X13432000Y-9101000D01*
X13468111Y-10048506D02*
X13508111Y-10088506D01*
X13508111Y-10048506D02*
X13468111Y-10088506D01*
X13553234Y-10118098D02*
X13593234Y-10158098D01*
X13593234Y-10118098D02*
X13553234Y-10158098D01*
X13812000Y-8801000D02*
X13852000Y-8841000D01*
X13852000Y-8801000D02*
X13812000Y-8841000D01*
X13812000Y-8866000D02*
X13852000Y-8906000D01*
X13852000Y-8866000D02*
X13812000Y-8906000D01*
X13812000Y-8931000D02*
X13852000Y-8971000D01*
X13852000Y-8931000D02*
X13812000Y-8971000D01*
X13812000Y-8996000D02*
X13852000Y-9036000D01*
X13852000Y-8996000D02*
X13812000Y-9036000D01*
X13812000Y-9061000D02*
X13852000Y-9101000D01*
X13852000Y-9061000D02*
X13812000Y-9101000D01*
X13877000Y-8801000D02*
X13917000Y-8841000D01*
X13917000Y-8801000D02*
X13877000Y-8841000D01*
X13877000Y-8866000D02*
X13917000Y-8906000D01*
X13917000Y-8866000D02*
X13877000Y-8906000D01*
X13877000Y-8931000D02*
X13917000Y-8971000D01*
X13917000Y-8931000D02*
X13877000Y-8971000D01*
X13877000Y-8996000D02*
X13917000Y-9036000D01*
X13917000Y-8996000D02*
X13877000Y-9036000D01*
X13877000Y-9061000D02*
X13917000Y-9101000D01*
X13917000Y-9061000D02*
X13877000Y-9101000D01*
X13910906Y-9533050D02*
X13950906Y-9573050D01*
X13950906Y-9533050D02*
X13910906Y-9573050D01*
X13964000Y-10706000D02*
X14004000Y-10746000D01*
X14004000Y-10706000D02*
X13964000Y-10746000D01*
X13964000Y-10786000D02*
X14004000Y-10826000D01*
X14004000Y-10786000D02*
X13964000Y-10826000D01*
X13977912Y-9151000D02*
X14017912Y-9191000D01*
X14017912Y-9151000D02*
X13977912Y-9191000D01*
X14044000Y-10706000D02*
X14084000Y-10746000D01*
X14084000Y-10706000D02*
X14044000Y-10746000D01*
X14044000Y-10786000D02*
X14084000Y-10826000D01*
X14084000Y-10786000D02*
X14044000Y-10826000D01*
X14051000Y-9235000D02*
X14091000Y-9275000D01*
X14091000Y-9235000D02*
X14051000Y-9275000D01*
X14094500Y-10061000D02*
X14134500Y-10101000D01*
X14134500Y-10061000D02*
X14094500Y-10101000D01*
X14094500Y-10406000D02*
X14134500Y-10446000D01*
X14134500Y-10406000D02*
X14094500Y-10446000D01*
X14166750Y-9391000D02*
X14206750Y-9431000D01*
X14206750Y-9391000D02*
X14166750Y-9431000D01*
X14166750Y-9456000D02*
X14206750Y-9496000D01*
X14206750Y-9456000D02*
X14166750Y-9496000D01*
X14174500Y-10061000D02*
X14214500Y-10101000D01*
X14214500Y-10061000D02*
X14174500Y-10101000D01*
X14174500Y-10406000D02*
X14214500Y-10446000D01*
X14214500Y-10406000D02*
X14174500Y-10446000D01*
X14231750Y-9391000D02*
X14271750Y-9431000D01*
X14271750Y-9391000D02*
X14231750Y-9431000D01*
X14231750Y-9456000D02*
X14271750Y-9496000D01*
X14271750Y-9456000D02*
X14231750Y-9496000D01*
X14254500Y-10061000D02*
X14294500Y-10101000D01*
X14294500Y-10061000D02*
X14254500Y-10101000D01*
X14254500Y-10406000D02*
X14294500Y-10446000D01*
X14294500Y-10406000D02*
X14254500Y-10446000D01*
X14464250Y-9367500D02*
X14504250Y-9407500D01*
X14504250Y-9367500D02*
X14464250Y-9407500D01*
X14464250Y-9432500D02*
X14504250Y-9472500D01*
X14504250Y-9432500D02*
X14464250Y-9472500D01*
X14467000Y-9624000D02*
X14507000Y-9664000D01*
X14507000Y-9624000D02*
X14467000Y-9664000D01*
X14489000Y-8883000D02*
X14529000Y-8923000D01*
X14529000Y-8883000D02*
X14489000Y-8923000D01*
X14489000Y-8948000D02*
X14529000Y-8988000D01*
X14529000Y-8948000D02*
X14489000Y-8988000D01*
X14489000Y-9013000D02*
X14529000Y-9053000D01*
X14529000Y-9013000D02*
X14489000Y-9053000D01*
X14489000Y-9078000D02*
X14529000Y-9118000D01*
X14529000Y-9078000D02*
X14489000Y-9118000D01*
X14489000Y-9143000D02*
X14529000Y-9183000D01*
X14529000Y-9143000D02*
X14489000Y-9183000D01*
X14529250Y-9367500D02*
X14569250Y-9407500D01*
X14569250Y-9367500D02*
X14529250Y-9407500D01*
X14529250Y-9432500D02*
X14569250Y-9472500D01*
X14569250Y-9432500D02*
X14529250Y-9472500D01*
X14554000Y-8883000D02*
X14594000Y-8923000D01*
X14594000Y-8883000D02*
X14554000Y-8923000D01*
X14554000Y-8948000D02*
X14594000Y-8988000D01*
X14594000Y-8948000D02*
X14554000Y-8988000D01*
X14554000Y-9013000D02*
X14594000Y-9053000D01*
X14594000Y-9013000D02*
X14554000Y-9053000D01*
X14554000Y-9078000D02*
X14594000Y-9118000D01*
X14594000Y-9078000D02*
X14554000Y-9118000D01*
X14554000Y-9143000D02*
X14594000Y-9183000D01*
X14594000Y-9143000D02*
X14554000Y-9183000D01*
X14617403Y-10486909D02*
X14657403Y-10526909D01*
X14657403Y-10486909D02*
X14617403Y-10526909D01*
X14714000Y-10706000D02*
X14754000Y-10746000D01*
X14754000Y-10706000D02*
X14714000Y-10746000D01*
X14714000Y-10786000D02*
X14754000Y-10826000D01*
X14754000Y-10786000D02*
X14714000Y-10826000D01*
X14875500Y-9558000D02*
X14915500Y-9598000D01*
X14915500Y-9558000D02*
X14875500Y-9598000D01*
X14875500Y-9658000D02*
X14915500Y-9698000D01*
X14915500Y-9658000D02*
X14875500Y-9698000D01*
X14923000Y-8848000D02*
X14963000Y-8888000D01*
X14963000Y-8848000D02*
X14923000Y-8888000D01*
X14923000Y-8913000D02*
X14963000Y-8953000D01*
X14963000Y-8913000D02*
X14923000Y-8953000D01*
X14923000Y-8978000D02*
X14963000Y-9018000D01*
X14963000Y-8978000D02*
X14923000Y-9018000D01*
X14923000Y-9043000D02*
X14963000Y-9083000D01*
X14963000Y-9043000D02*
X14923000Y-9083000D01*
X14934000Y-9813000D02*
X14974000Y-9853000D01*
X14974000Y-9813000D02*
X14934000Y-9853000D01*
X14975500Y-9558000D02*
X15015500Y-9598000D01*
X15015500Y-9558000D02*
X14975500Y-9598000D01*
X14975500Y-9658000D02*
X15015500Y-9698000D01*
X15015500Y-9658000D02*
X14975500Y-9698000D01*
X14988000Y-8848000D02*
X15028000Y-8888000D01*
X15028000Y-8848000D02*
X14988000Y-8888000D01*
X14988000Y-8913000D02*
X15028000Y-8953000D01*
X15028000Y-8913000D02*
X14988000Y-8953000D01*
X14988000Y-8978000D02*
X15028000Y-9018000D01*
X15028000Y-8978000D02*
X14988000Y-9018000D01*
X14988000Y-9043000D02*
X15028000Y-9083000D01*
X15028000Y-9043000D02*
X14988000Y-9083000D01*
X15076500Y-9863500D02*
X15116500Y-9903500D01*
X15116500Y-9863500D02*
X15076500Y-9903500D01*
X15116000Y-9496000D02*
X15156000Y-9536000D01*
X15156000Y-9496000D02*
X15116000Y-9536000D01*
X15188000Y-9547000D02*
X15228000Y-9587000D01*
X15228000Y-9547000D02*
X15188000Y-9587000D01*
X15216000Y-9460500D02*
X15256000Y-9500500D01*
X15256000Y-9460500D02*
X15216000Y-9500500D01*
X15302000Y-9460500D02*
X15342000Y-9500500D01*
X15342000Y-9460500D02*
X15302000Y-9500500D01*
X15325500Y-8521000D02*
X15365500Y-8561000D01*
X15365500Y-8521000D02*
X15325500Y-8561000D01*
X15325500Y-8621000D02*
X15365500Y-8661000D01*
X15365500Y-8621000D02*
X15325500Y-8661000D01*
X15325500Y-8721000D02*
X15365500Y-8761000D01*
X15365500Y-8721000D02*
X15325500Y-8761000D01*
X15325500Y-8821000D02*
X15365500Y-8861000D01*
X15365500Y-8821000D02*
X15325500Y-8861000D01*
X15325500Y-8921000D02*
X15365500Y-8961000D01*
X15365500Y-8921000D02*
X15325500Y-8961000D01*
X15325500Y-10471000D02*
X15365500Y-10511000D01*
X15365500Y-10471000D02*
X15325500Y-10511000D01*
X15325500Y-10571000D02*
X15365500Y-10611000D01*
X15365500Y-10571000D02*
X15325500Y-10611000D01*
X15325500Y-10671000D02*
X15365500Y-10711000D01*
X15365500Y-10671000D02*
X15325500Y-10711000D01*
X15327000Y-9206500D02*
X15367000Y-9246500D01*
X15367000Y-9206500D02*
X15327000Y-9246500D01*
X15330500Y-9660700D02*
X15370500Y-9700700D01*
X15370500Y-9660700D02*
X15330500Y-9700700D01*
X15330500Y-9760700D02*
X15370500Y-9800700D01*
X15370500Y-9760700D02*
X15330500Y-9800700D01*
X15425500Y-8421000D02*
X15465500Y-8461000D01*
X15465500Y-8421000D02*
X15425500Y-8461000D01*
X15425500Y-8521000D02*
X15465500Y-8561000D01*
X15465500Y-8521000D02*
X15425500Y-8561000D01*
X15425500Y-8621000D02*
X15465500Y-8661000D01*
X15465500Y-8621000D02*
X15425500Y-8661000D01*
X15425500Y-8721000D02*
X15465500Y-8761000D01*
X15465500Y-8721000D02*
X15425500Y-8761000D01*
X15425500Y-8821000D02*
X15465500Y-8861000D01*
X15465500Y-8821000D02*
X15425500Y-8861000D01*
X15425500Y-8921000D02*
X15465500Y-8961000D01*
X15465500Y-8921000D02*
X15425500Y-8961000D01*
X15425500Y-9560700D02*
X15465500Y-9600700D01*
X15465500Y-9560700D02*
X15425500Y-9600700D01*
X15425500Y-9660700D02*
X15465500Y-9700700D01*
X15465500Y-9660700D02*
X15425500Y-9700700D01*
X15425500Y-9760700D02*
X15465500Y-9800700D01*
X15465500Y-9760700D02*
X15425500Y-9800700D01*
X15425500Y-9860700D02*
X15465500Y-9900700D01*
X15465500Y-9860700D02*
X15425500Y-9900700D01*
X15425500Y-9960700D02*
X15465500Y-10000700D01*
X15465500Y-9960700D02*
X15425500Y-10000700D01*
X15425500Y-10371000D02*
X15465500Y-10411000D01*
X15465500Y-10371000D02*
X15425500Y-10411000D01*
X15425500Y-10471000D02*
X15465500Y-10511000D01*
X15465500Y-10471000D02*
X15425500Y-10511000D01*
X15425500Y-10571000D02*
X15465500Y-10611000D01*
X15465500Y-10571000D02*
X15425500Y-10611000D01*
X15425500Y-10671000D02*
X15465500Y-10711000D01*
X15465500Y-10671000D02*
X15425500Y-10711000D01*
X15425500Y-10771000D02*
X15465500Y-10811000D01*
X15465500Y-10771000D02*
X15425500Y-10811000D01*
X15525500Y-8421000D02*
X15565500Y-8461000D01*
X15565500Y-8421000D02*
X15525500Y-8461000D01*
X15525500Y-8521000D02*
X15565500Y-8561000D01*
X15565500Y-8521000D02*
X15525500Y-8561000D01*
X15525500Y-8621000D02*
X15565500Y-8661000D01*
X15565500Y-8621000D02*
X15525500Y-8661000D01*
X15525500Y-8721000D02*
X15565500Y-8761000D01*
X15565500Y-8721000D02*
X15525500Y-8761000D01*
X15525500Y-8821000D02*
X15565500Y-8861000D01*
X15565500Y-8821000D02*
X15525500Y-8861000D01*
X15525500Y-8921000D02*
X15565500Y-8961000D01*
X15565500Y-8921000D02*
X15525500Y-8961000D01*
X15525500Y-9021000D02*
X15565500Y-9061000D01*
X15565500Y-9021000D02*
X15525500Y-9061000D01*
X15525500Y-9438350D02*
X15565500Y-9478350D01*
X15565500Y-9438350D02*
X15525500Y-9478350D01*
X15525500Y-9560700D02*
X15565500Y-9600700D01*
X15565500Y-9560700D02*
X15525500Y-9600700D01*
X15525500Y-9660700D02*
X15565500Y-9700700D01*
X15565500Y-9660700D02*
X15525500Y-9700700D01*
X15525500Y-9760700D02*
X15565500Y-9800700D01*
X15565500Y-9760700D02*
X15525500Y-9800700D01*
X15525500Y-9860700D02*
X15565500Y-9900700D01*
X15565500Y-9860700D02*
X15525500Y-9900700D01*
X15525500Y-9960700D02*
X15565500Y-10000700D01*
X15565500Y-9960700D02*
X15525500Y-10000700D01*
X15525500Y-10371000D02*
X15565500Y-10411000D01*
X15565500Y-10371000D02*
X15525500Y-10411000D01*
X15525500Y-10471000D02*
X15565500Y-10511000D01*
X15565500Y-10471000D02*
X15525500Y-10511000D01*
X15525500Y-10571000D02*
X15565500Y-10611000D01*
X15565500Y-10571000D02*
X15525500Y-10611000D01*
X15525500Y-10671000D02*
X15565500Y-10711000D01*
X15565500Y-10671000D02*
X15525500Y-10711000D01*
X15525500Y-10771000D02*
X15565500Y-10811000D01*
X15565500Y-10771000D02*
X15525500Y-10811000D01*
X15625500Y-8421000D02*
X15665500Y-8461000D01*
X15665500Y-8421000D02*
X15625500Y-8461000D01*
X15625500Y-8521000D02*
X15665500Y-8561000D01*
X15665500Y-8521000D02*
X15625500Y-8561000D01*
X15625500Y-8621000D02*
X15665500Y-8661000D01*
X15665500Y-8621000D02*
X15625500Y-8661000D01*
X15625500Y-8721000D02*
X15665500Y-8761000D01*
X15665500Y-8721000D02*
X15625500Y-8761000D01*
X15625500Y-8821000D02*
X15665500Y-8861000D01*
X15665500Y-8821000D02*
X15625500Y-8861000D01*
X15625500Y-8921000D02*
X15665500Y-8961000D01*
X15665500Y-8921000D02*
X15625500Y-8961000D01*
X15625500Y-9021000D02*
X15665500Y-9061000D01*
X15665500Y-9021000D02*
X15625500Y-9061000D01*
X15625500Y-9143350D02*
X15665500Y-9183350D01*
X15665500Y-9143350D02*
X15625500Y-9183350D01*
X15625500Y-9438350D02*
X15665500Y-9478350D01*
X15665500Y-9438350D02*
X15625500Y-9478350D01*
X15625500Y-9560700D02*
X15665500Y-9600700D01*
X15665500Y-9560700D02*
X15625500Y-9600700D01*
X15625500Y-9660700D02*
X15665500Y-9700700D01*
X15665500Y-9660700D02*
X15625500Y-9700700D01*
X15625500Y-9760700D02*
X15665500Y-9800700D01*
X15665500Y-9760700D02*
X15625500Y-9800700D01*
X15625500Y-9860700D02*
X15665500Y-9900700D01*
X15665500Y-9860700D02*
X15625500Y-9900700D01*
X15625500Y-9960700D02*
X15665500Y-10000700D01*
X15665500Y-9960700D02*
X15625500Y-10000700D01*
X15625500Y-10371000D02*
X15665500Y-10411000D01*
X15665500Y-10371000D02*
X15625500Y-10411000D01*
X15625500Y-10471000D02*
X15665500Y-10511000D01*
X15665500Y-10471000D02*
X15625500Y-10511000D01*
X15625500Y-10571000D02*
X15665500Y-10611000D01*
X15665500Y-10571000D02*
X15625500Y-10611000D01*
X15625500Y-10671000D02*
X15665500Y-10711000D01*
X15665500Y-10671000D02*
X15625500Y-10711000D01*
X15625500Y-10771000D02*
X15665500Y-10811000D01*
X15665500Y-10771000D02*
X15625500Y-10811000D01*
X15725500Y-8421000D02*
X15765500Y-8461000D01*
X15765500Y-8421000D02*
X15725500Y-8461000D01*
X15725500Y-8521000D02*
X15765500Y-8561000D01*
X15765500Y-8521000D02*
X15725500Y-8561000D01*
X15725500Y-8621000D02*
X15765500Y-8661000D01*
X15765500Y-8621000D02*
X15725500Y-8661000D01*
X15725500Y-8721000D02*
X15765500Y-8761000D01*
X15765500Y-8721000D02*
X15725500Y-8761000D01*
X15725500Y-8821000D02*
X15765500Y-8861000D01*
X15765500Y-8821000D02*
X15725500Y-8861000D01*
X15725500Y-8921000D02*
X15765500Y-8961000D01*
X15765500Y-8921000D02*
X15725500Y-8961000D01*
X15725500Y-9021000D02*
X15765500Y-9061000D01*
X15765500Y-9021000D02*
X15725500Y-9061000D01*
X15725500Y-9143350D02*
X15765500Y-9183350D01*
X15765500Y-9143350D02*
X15725500Y-9183350D01*
X15725500Y-9438350D02*
X15765500Y-9478350D01*
X15765500Y-9438350D02*
X15725500Y-9478350D01*
X15725500Y-9560700D02*
X15765500Y-9600700D01*
X15765500Y-9560700D02*
X15725500Y-9600700D01*
X15725500Y-9660700D02*
X15765500Y-9700700D01*
X15765500Y-9660700D02*
X15725500Y-9700700D01*
X15725500Y-9760700D02*
X15765500Y-9800700D01*
X15765500Y-9760700D02*
X15725500Y-9800700D01*
X15725500Y-9860700D02*
X15765500Y-9900700D01*
X15765500Y-9860700D02*
X15725500Y-9900700D01*
X15725500Y-9960700D02*
X15765500Y-10000700D01*
X15765500Y-9960700D02*
X15725500Y-10000700D01*
X15725500Y-10371000D02*
X15765500Y-10411000D01*
X15765500Y-10371000D02*
X15725500Y-10411000D01*
X15725500Y-10471000D02*
X15765500Y-10511000D01*
X15765500Y-10471000D02*
X15725500Y-10511000D01*
X15725500Y-10571000D02*
X15765500Y-10611000D01*
X15765500Y-10571000D02*
X15725500Y-10611000D01*
X15725500Y-10671000D02*
X15765500Y-10711000D01*
X15765500Y-10671000D02*
X15725500Y-10711000D01*
X15725500Y-10771000D02*
X15765500Y-10811000D01*
X15765500Y-10771000D02*
X15725500Y-10811000D01*
X15825500Y-8421000D02*
X15865500Y-8461000D01*
X15865500Y-8421000D02*
X15825500Y-8461000D01*
X15825500Y-8521000D02*
X15865500Y-8561000D01*
X15865500Y-8521000D02*
X15825500Y-8561000D01*
X15825500Y-8621000D02*
X15865500Y-8661000D01*
X15865500Y-8621000D02*
X15825500Y-8661000D01*
X15825500Y-8721000D02*
X15865500Y-8761000D01*
X15865500Y-8721000D02*
X15825500Y-8761000D01*
X15825500Y-8821000D02*
X15865500Y-8861000D01*
X15865500Y-8821000D02*
X15825500Y-8861000D01*
X15825500Y-8921000D02*
X15865500Y-8961000D01*
X15865500Y-8921000D02*
X15825500Y-8961000D01*
X15825500Y-9021000D02*
X15865500Y-9061000D01*
X15865500Y-9021000D02*
X15825500Y-9061000D01*
X15825500Y-9560700D02*
X15865500Y-9600700D01*
X15865500Y-9560700D02*
X15825500Y-9600700D01*
X15825500Y-9660700D02*
X15865500Y-9700700D01*
X15865500Y-9660700D02*
X15825500Y-9700700D01*
X15825500Y-9760700D02*
X15865500Y-9800700D01*
X15865500Y-9760700D02*
X15825500Y-9800700D01*
X15825500Y-9860700D02*
X15865500Y-9900700D01*
X15865500Y-9860700D02*
X15825500Y-9900700D01*
X15825500Y-9960700D02*
X15865500Y-10000700D01*
X15865500Y-9960700D02*
X15825500Y-10000700D01*
X15825500Y-10371000D02*
X15865500Y-10411000D01*
X15865500Y-10371000D02*
X15825500Y-10411000D01*
X15825500Y-10471000D02*
X15865500Y-10511000D01*
X15865500Y-10471000D02*
X15825500Y-10511000D01*
X15825500Y-10571000D02*
X15865500Y-10611000D01*
X15865500Y-10571000D02*
X15825500Y-10611000D01*
X15825500Y-10671000D02*
X15865500Y-10711000D01*
X15865500Y-10671000D02*
X15825500Y-10711000D01*
X15825500Y-10771000D02*
X15865500Y-10811000D01*
X15865500Y-10771000D02*
X15825500Y-10811000D01*
X15925500Y-8521000D02*
X15965500Y-8561000D01*
X15965500Y-8521000D02*
X15925500Y-8561000D01*
X15925500Y-8621000D02*
X15965500Y-8661000D01*
X15965500Y-8621000D02*
X15925500Y-8661000D01*
X15925500Y-8721000D02*
X15965500Y-8761000D01*
X15965500Y-8721000D02*
X15925500Y-8761000D01*
X15925500Y-8821000D02*
X15965500Y-8861000D01*
X15965500Y-8821000D02*
X15925500Y-8861000D01*
X15925500Y-8921000D02*
X15965500Y-8961000D01*
X15965500Y-8921000D02*
X15925500Y-8961000D01*
X15925500Y-9660700D02*
X15965500Y-9700700D01*
X15965500Y-9660700D02*
X15925500Y-9700700D01*
X15925500Y-9760700D02*
X15965500Y-9800700D01*
X15965500Y-9760700D02*
X15925500Y-9800700D01*
X15925500Y-9860700D02*
X15965500Y-9900700D01*
X15965500Y-9860700D02*
X15925500Y-9900700D01*
X15925500Y-10471000D02*
X15965500Y-10511000D01*
X15965500Y-10471000D02*
X15925500Y-10511000D01*
X15925500Y-10571000D02*
X15965500Y-10611000D01*
X15965500Y-10571000D02*
X15925500Y-10611000D01*
X15925500Y-10671000D02*
X15965500Y-10711000D01*
X15965500Y-10671000D02*
X15925500Y-10711000D01*
X11047500Y-8586000D02*
G75*
G03*
X11047500Y-8586000I-20000J0D01*
G01*
X11047500Y-10646000D02*
G75*
G03*
X11047500Y-10646000I-20000J0D01*
G01*
X11095827Y-8469327D02*
G75*
G03*
X11095827Y-8469327I-20000J0D01*
G01*
X11095827Y-8702673D02*
G75*
G03*
X11095827Y-8702673I-20000J0D01*
G01*
X11095827Y-10529327D02*
G75*
G03*
X11095827Y-10529327I-20000J0D01*
G01*
X11095827Y-10762673D02*
G75*
G03*
X11095827Y-10762673I-20000J0D01*
G01*
X11212500Y-8421000D02*
G75*
G03*
X11212500Y-8421000I-20000J0D01*
G01*
X11212500Y-8751000D02*
G75*
G03*
X11212500Y-8751000I-20000J0D01*
G01*
X11212500Y-10481000D02*
G75*
G03*
X11212500Y-10481000I-20000J0D01*
G01*
X11212500Y-10811000D02*
G75*
G03*
X11212500Y-10811000I-20000J0D01*
G01*
X11329173Y-8469327D02*
G75*
G03*
X11329173Y-8469327I-20000J0D01*
G01*
X11329173Y-8702673D02*
G75*
G03*
X11329173Y-8702673I-20000J0D01*
G01*
X11329173Y-10529327D02*
G75*
G03*
X11329173Y-10529327I-20000J0D01*
G01*
X11329173Y-10762673D02*
G75*
G03*
X11329173Y-10762673I-20000J0D01*
G01*
X11377500Y-8586000D02*
G75*
G03*
X11377500Y-8586000I-20000J0D01*
G01*
X11377500Y-10646000D02*
G75*
G03*
X11377500Y-10646000I-20000J0D01*
G01*
X14877500Y-8586000D02*
G75*
G03*
X14877500Y-8586000I-20000J0D01*
G01*
X14877500Y-10646000D02*
G75*
G03*
X14877500Y-10646000I-20000J0D01*
G01*
X14925827Y-8469327D02*
G75*
G03*
X14925827Y-8469327I-20000J0D01*
G01*
X14925827Y-8702673D02*
G75*
G03*
X14925827Y-8702673I-20000J0D01*
G01*
X14925827Y-10529327D02*
G75*
G03*
X14925827Y-10529327I-20000J0D01*
G01*
X14925827Y-10762673D02*
G75*
G03*
X14925827Y-10762673I-20000J0D01*
G01*
X15042500Y-8421000D02*
G75*
G03*
X15042500Y-8421000I-20000J0D01*
G01*
X15042500Y-8751000D02*
G75*
G03*
X15042500Y-8751000I-20000J0D01*
G01*
X15042500Y-10481000D02*
G75*
G03*
X15042500Y-10481000I-20000J0D01*
G01*
X15042500Y-10811000D02*
G75*
G03*
X15042500Y-10811000I-20000J0D01*
G01*
X15159173Y-8469327D02*
G75*
G03*
X15159173Y-8469327I-20000J0D01*
G01*
X15159173Y-8702673D02*
G75*
G03*
X15159173Y-8702673I-20000J0D01*
G01*
X15159173Y-10529327D02*
G75*
G03*
X15159173Y-10529327I-20000J0D01*
G01*
X15159173Y-10762673D02*
G75*
G03*
X15159173Y-10762673I-20000J0D01*
G01*
X15207500Y-8586000D02*
G75*
G03*
X15207500Y-8586000I-20000J0D01*
G01*
X15207500Y-10646000D02*
G75*
G03*
X15207500Y-10646000I-20000J0D01*
G01*
D13*
X11600000Y-8915700D02*
X11600000Y-8960700D01*
X11577500Y-8938200D02*
X11622500Y-8938200D01*
D11*
X11622500Y-8965700D02*
X11622500Y-8910700D01*
X11622500Y-8910700D02*
G75*
G03*
X11577500Y-8910700I-22500J0D01*
G01*
X11577500Y-8910700D02*
X11577500Y-8965700D01*
X11577500Y-8965700D02*
G75*
G03*
X11622500Y-8965700I22500J0D01*
G01*
D13*
X12320000Y-8915700D02*
X12320000Y-8960700D01*
X12297500Y-8938200D02*
X12342500Y-8938200D01*
D11*
X12342500Y-8965700D02*
X12342500Y-8910700D01*
X12342500Y-8910700D02*
G75*
G03*
X12297500Y-8910700I-22500J0D01*
G01*
X12297500Y-8910700D02*
X12297500Y-8965700D01*
X12297500Y-8965700D02*
G75*
G03*
X12342500Y-8965700I22500J0D01*
G01*
D14*
X11617678Y-8610878D02*
X11617678Y-8575522D01*
X11582322Y-8575522D01*
X11582322Y-8610878D01*
X11617678Y-8610878D01*
D11*
X11625000Y-8638200D02*
X11625000Y-8548200D01*
X11625000Y-8548200D02*
G75*
G03*
X11575000Y-8548200I-25000J0D01*
G01*
X11575000Y-8548200D02*
X11575000Y-8638200D01*
X11575000Y-8638200D02*
G75*
G03*
X11625000Y-8638200I25000J0D01*
G01*
D14*
X12337678Y-8610878D02*
X12337678Y-8575522D01*
X12302322Y-8575522D01*
X12302322Y-8610878D01*
X12337678Y-8610878D01*
D11*
X12345000Y-8638200D02*
X12345000Y-8548200D01*
X12345000Y-8548200D02*
G75*
G03*
X12295000Y-8548200I-25000J0D01*
G01*
X12295000Y-8548200D02*
X12295000Y-8638200D01*
X12295000Y-8638200D02*
G75*
G03*
X12345000Y-8638200I25000J0D01*
G01*
D14*
X12510678Y-10768678D02*
X12510678Y-10733322D01*
X12475322Y-10733322D01*
X12475322Y-10768678D01*
X12510678Y-10768678D01*
X12610178Y-8497678D02*
X12610178Y-8462322D01*
X12574822Y-8462322D01*
X12574822Y-8497678D01*
X12610178Y-8497678D01*
X12635678Y-10768678D02*
X12635678Y-10733322D01*
X12600322Y-10733322D01*
X12600322Y-10768678D01*
X12635678Y-10768678D01*
X12735178Y-8497678D02*
X12735178Y-8462322D01*
X12699822Y-8462322D01*
X12699822Y-8497678D01*
X12735178Y-8497678D01*
X12760678Y-10768678D02*
X12760678Y-10733322D01*
X12725322Y-10733322D01*
X12725322Y-10768678D01*
X12760678Y-10768678D01*
X12860178Y-8497678D02*
X12860178Y-8462322D01*
X12824822Y-8462322D01*
X12824822Y-8497678D01*
X12860178Y-8497678D01*
X12885678Y-10768678D02*
X12885678Y-10733322D01*
X12850322Y-10733322D01*
X12850322Y-10768678D01*
X12885678Y-10768678D01*
X12985178Y-8497678D02*
X12985178Y-8462322D01*
X12949822Y-8462322D01*
X12949822Y-8497678D01*
X12985178Y-8497678D01*
X13010678Y-10768678D02*
X13010678Y-10733322D01*
X12975322Y-10733322D01*
X12975322Y-10768678D01*
X13010678Y-10768678D01*
X13110178Y-8497678D02*
X13110178Y-8462322D01*
X13074822Y-8462322D01*
X13074822Y-8497678D01*
X13110178Y-8497678D01*
X13135678Y-10768678D02*
X13135678Y-10733322D01*
X13100322Y-10733322D01*
X13100322Y-10768678D01*
X13135678Y-10768678D01*
X13235178Y-8497678D02*
X13235178Y-8462322D01*
X13199822Y-8462322D01*
X13199822Y-8497678D01*
X13235178Y-8497678D01*
X13489678Y-10768678D02*
X13489678Y-10733322D01*
X13454322Y-10733322D01*
X13454322Y-10768678D01*
X13489678Y-10768678D01*
X13614678Y-10768678D02*
X13614678Y-10733322D01*
X13579322Y-10733322D01*
X13579322Y-10768678D01*
X13614678Y-10768678D01*
X13636678Y-8497678D02*
X13636678Y-8462322D01*
X13601322Y-8462322D01*
X13601322Y-8497678D01*
X13636678Y-8497678D01*
X13739678Y-10768678D02*
X13739678Y-10733322D01*
X13704322Y-10733322D01*
X13704322Y-10768678D01*
X13739678Y-10768678D01*
X13761678Y-8497678D02*
X13761678Y-8462322D01*
X13726322Y-8462322D01*
X13726322Y-8497678D01*
X13761678Y-8497678D01*
X13864678Y-10768678D02*
X13864678Y-10733322D01*
X13829322Y-10733322D01*
X13829322Y-10768678D01*
X13864678Y-10768678D01*
X13886678Y-8497678D02*
X13886678Y-8462322D01*
X13851322Y-8462322D01*
X13851322Y-8497678D01*
X13886678Y-8497678D01*
X14218678Y-10768678D02*
X14218678Y-10733322D01*
X14183322Y-10733322D01*
X14183322Y-10768678D01*
X14218678Y-10768678D01*
X14287678Y-8497678D02*
X14287678Y-8462322D01*
X14252322Y-8462322D01*
X14252322Y-8497678D01*
X14287678Y-8497678D01*
X14343678Y-10768678D02*
X14343678Y-10733322D01*
X14308322Y-10733322D01*
X14308322Y-10768678D01*
X14343678Y-10768678D01*
X14412678Y-8497678D02*
X14412678Y-8462322D01*
X14377322Y-8462322D01*
X14377322Y-8497678D01*
X14412678Y-8497678D01*
X14468678Y-10768678D02*
X14468678Y-10733322D01*
X14433322Y-10733322D01*
X14433322Y-10768678D01*
X14468678Y-10768678D01*
X14537678Y-8497678D02*
X14537678Y-8462322D01*
X14502322Y-8462322D01*
X14502322Y-8497678D01*
X14537678Y-8497678D01*
X14593678Y-10768678D02*
X14593678Y-10733322D01*
X14558322Y-10733322D01*
X14558322Y-10768678D01*
X14593678Y-10768678D01*
D15*
X11163000Y-9044500D02*
X11195500Y-9012000D01*
X11163000Y-8979500D01*
X11130500Y-9012000D01*
X11163000Y-9044500D01*
X11163000Y-9171500D02*
X11195500Y-9139000D01*
X11163000Y-9106500D01*
X11130500Y-9139000D01*
X11163000Y-9171500D01*
X11163000Y-9298500D02*
X11195500Y-9266000D01*
X11163000Y-9233500D01*
X11130500Y-9266000D01*
X11163000Y-9298500D01*
X11163000Y-9425500D02*
X11195500Y-9393000D01*
X11163000Y-9360500D01*
X11130500Y-9393000D01*
X11163000Y-9425500D01*
X11163000Y-9552500D02*
X11195500Y-9520000D01*
X11163000Y-9487500D01*
X11130500Y-9520000D01*
X11163000Y-9552500D01*
X11290000Y-9044500D02*
X11322500Y-9012000D01*
X11290000Y-8979500D01*
X11257500Y-9012000D01*
X11290000Y-9044500D01*
X11290000Y-9171500D02*
X11322500Y-9139000D01*
X11290000Y-9106500D01*
X11257500Y-9139000D01*
X11290000Y-9171500D01*
X11290000Y-9298500D02*
X11322500Y-9266000D01*
X11290000Y-9233500D01*
X11257500Y-9266000D01*
X11290000Y-9298500D01*
X11290000Y-9425500D02*
X11322500Y-9393000D01*
X11290000Y-9360500D01*
X11257500Y-9393000D01*
X11290000Y-9425500D01*
X11290000Y-9552500D02*
X11322500Y-9520000D01*
X11290000Y-9487500D01*
X11257500Y-9520000D01*
X11290000Y-9552500D01*
X14004000Y-10220500D02*
X14036500Y-10188000D01*
X14004000Y-10155500D01*
X13971500Y-10188000D01*
X14004000Y-10220500D01*
X14004000Y-10347500D02*
X14036500Y-10315000D01*
X14004000Y-10282500D01*
X13971500Y-10315000D01*
X14004000Y-10347500D01*
X14131000Y-10220500D02*
X14163500Y-10188000D01*
X14131000Y-10155500D01*
X14098500Y-10188000D01*
X14131000Y-10220500D01*
X14131000Y-10347500D02*
X14163500Y-10315000D01*
X14131000Y-10282500D01*
X14098500Y-10315000D01*
X14131000Y-10347500D01*
X14258000Y-10220500D02*
X14290500Y-10188000D01*
X14258000Y-10155500D01*
X14225500Y-10188000D01*
X14258000Y-10220500D01*
X14258000Y-10347500D02*
X14290500Y-10315000D01*
X14258000Y-10282500D01*
X14225500Y-10315000D01*
X14258000Y-10347500D01*
X14385000Y-10220500D02*
X14417500Y-10188000D01*
X14385000Y-10155500D01*
X14352500Y-10188000D01*
X14385000Y-10220500D01*
X14385000Y-10347500D02*
X14417500Y-10315000D01*
X14385000Y-10282500D01*
X14352500Y-10315000D01*
X14385000Y-10347500D01*
X14512000Y-10220500D02*
X14544500Y-10188000D01*
X14512000Y-10155500D01*
X14479500Y-10188000D01*
X14512000Y-10220500D01*
X14512000Y-10347500D02*
X14544500Y-10315000D01*
X14512000Y-10282500D01*
X14479500Y-10315000D01*
X14512000Y-10347500D01*
D16*
X14130500Y-8911000D02*
X14210500Y-8991000D01*
X14210500Y-8911000D02*
X14130500Y-8991000D01*
X14210500Y-8951000D02*
G75*
G03*
X14210500Y-8951000I-40000J0D01*
G01*
X14130500Y-9111000D02*
X14210500Y-9191000D01*
X14210500Y-9111000D02*
X14130500Y-9191000D01*
X14210500Y-9151000D02*
G75*
G03*
X14210500Y-9151000I-40000J0D01*
G01*
D10*
X10267500Y-8423500D02*
X10367500Y-8523500D01*
X10367500Y-8423500D02*
X10267500Y-8523500D01*
X10317500Y-8423500D02*
X10317500Y-8523500D01*
X10267500Y-8473500D02*
X10367500Y-8473500D01*
X10267500Y-8677500D02*
X10367500Y-8777500D01*
X10367500Y-8677500D02*
X10267500Y-8777500D01*
X10317500Y-8677500D02*
X10317500Y-8777500D01*
X10267500Y-8727500D02*
X10367500Y-8727500D01*
X10267500Y-8931500D02*
X10367500Y-9031500D01*
X10367500Y-8931500D02*
X10267500Y-9031500D01*
X10317500Y-8931500D02*
X10317500Y-9031500D01*
X10267500Y-8981500D02*
X10367500Y-8981500D01*
X10267500Y-9185500D02*
X10367500Y-9285500D01*
X10367500Y-9185500D02*
X10267500Y-9285500D01*
X10317500Y-9185500D02*
X10317500Y-9285500D01*
X10267500Y-9235500D02*
X10367500Y-9235500D01*
X10267500Y-9439500D02*
X10367500Y-9539500D01*
X10367500Y-9439500D02*
X10267500Y-9539500D01*
X10317500Y-9439500D02*
X10317500Y-9539500D01*
X10267500Y-9489500D02*
X10367500Y-9489500D01*
X10267500Y-9693500D02*
X10367500Y-9793500D01*
X10367500Y-9693500D02*
X10267500Y-9793500D01*
X10317500Y-9693500D02*
X10317500Y-9793500D01*
X10267500Y-9743500D02*
X10367500Y-9743500D01*
X10267500Y-9947500D02*
X10367500Y-10047500D01*
X10367500Y-9947500D02*
X10267500Y-10047500D01*
X10317500Y-9947500D02*
X10317500Y-10047500D01*
X10267500Y-9997500D02*
X10367500Y-9997500D01*
X10267500Y-10201500D02*
X10367500Y-10301500D01*
X10367500Y-10201500D02*
X10267500Y-10301500D01*
X10317500Y-10201500D02*
X10317500Y-10301500D01*
X10267500Y-10251500D02*
X10367500Y-10251500D01*
X10267500Y-10455500D02*
X10367500Y-10555500D01*
X10367500Y-10455500D02*
X10267500Y-10555500D01*
X10317500Y-10455500D02*
X10317500Y-10555500D01*
X10267500Y-10505500D02*
X10367500Y-10505500D01*
X10267500Y-10709500D02*
X10367500Y-10809500D01*
X10367500Y-10709500D02*
X10267500Y-10809500D01*
X10317500Y-10709500D02*
X10317500Y-10809500D01*
X10267500Y-10759500D02*
X10367500Y-10759500D01*
X10521500Y-8423500D02*
X10621500Y-8523500D01*
X10621500Y-8423500D02*
X10521500Y-8523500D01*
X10571500Y-8423500D02*
X10571500Y-8523500D01*
X10521500Y-8473500D02*
X10621500Y-8473500D01*
X10521500Y-8677500D02*
X10621500Y-8777500D01*
X10621500Y-8677500D02*
X10521500Y-8777500D01*
X10571500Y-8677500D02*
X10571500Y-8777500D01*
X10521500Y-8727500D02*
X10621500Y-8727500D01*
X10521500Y-8931500D02*
X10621500Y-9031500D01*
X10621500Y-8931500D02*
X10521500Y-9031500D01*
X10571500Y-8931500D02*
X10571500Y-9031500D01*
X10521500Y-8981500D02*
X10621500Y-8981500D01*
X10521500Y-9185500D02*
X10621500Y-9285500D01*
X10621500Y-9185500D02*
X10521500Y-9285500D01*
X10571500Y-9185500D02*
X10571500Y-9285500D01*
X10521500Y-9235500D02*
X10621500Y-9235500D01*
X10521500Y-9439500D02*
X10621500Y-9539500D01*
X10621500Y-9439500D02*
X10521500Y-9539500D01*
X10571500Y-9439500D02*
X10571500Y-9539500D01*
X10521500Y-9489500D02*
X10621500Y-9489500D01*
X10521500Y-9693500D02*
X10621500Y-9793500D01*
X10621500Y-9693500D02*
X10521500Y-9793500D01*
X10571500Y-9693500D02*
X10571500Y-9793500D01*
X10521500Y-9743500D02*
X10621500Y-9743500D01*
X10521500Y-9947500D02*
X10621500Y-10047500D01*
X10621500Y-9947500D02*
X10521500Y-10047500D01*
X10571500Y-9947500D02*
X10571500Y-10047500D01*
X10521500Y-9997500D02*
X10621500Y-9997500D01*
X10521500Y-10201500D02*
X10621500Y-10301500D01*
X10621500Y-10201500D02*
X10521500Y-10301500D01*
X10571500Y-10201500D02*
X10571500Y-10301500D01*
X10521500Y-10251500D02*
X10621500Y-10251500D01*
X10521500Y-10455500D02*
X10621500Y-10555500D01*
X10621500Y-10455500D02*
X10521500Y-10555500D01*
X10571500Y-10455500D02*
X10571500Y-10555500D01*
X10521500Y-10505500D02*
X10621500Y-10505500D01*
X10521500Y-10709500D02*
X10621500Y-10809500D01*
X10621500Y-10709500D02*
X10521500Y-10809500D01*
X10571500Y-10709500D02*
X10571500Y-10809500D01*
X10521500Y-10759500D02*
X10621500Y-10759500D01*
X10775500Y-8423500D02*
X10875500Y-8523500D01*
X10875500Y-8423500D02*
X10775500Y-8523500D01*
X10825500Y-8423500D02*
X10825500Y-8523500D01*
X10775500Y-8473500D02*
X10875500Y-8473500D01*
X10775500Y-8677500D02*
X10875500Y-8777500D01*
X10875500Y-8677500D02*
X10775500Y-8777500D01*
X10825500Y-8677500D02*
X10825500Y-8777500D01*
X10775500Y-8727500D02*
X10875500Y-8727500D01*
X10775500Y-8931500D02*
X10875500Y-9031500D01*
X10875500Y-8931500D02*
X10775500Y-9031500D01*
X10825500Y-8931500D02*
X10825500Y-9031500D01*
X10775500Y-8981500D02*
X10875500Y-8981500D01*
X10775500Y-9185500D02*
X10875500Y-9285500D01*
X10875500Y-9185500D02*
X10775500Y-9285500D01*
X10825500Y-9185500D02*
X10825500Y-9285500D01*
X10775500Y-9235500D02*
X10875500Y-9235500D01*
X10775500Y-9439500D02*
X10875500Y-9539500D01*
X10875500Y-9439500D02*
X10775500Y-9539500D01*
X10825500Y-9439500D02*
X10825500Y-9539500D01*
X10775500Y-9489500D02*
X10875500Y-9489500D01*
X10775500Y-9693500D02*
X10875500Y-9793500D01*
X10875500Y-9693500D02*
X10775500Y-9793500D01*
X10825500Y-9693500D02*
X10825500Y-9793500D01*
X10775500Y-9743500D02*
X10875500Y-9743500D01*
X10775500Y-9947500D02*
X10875500Y-10047500D01*
X10875500Y-9947500D02*
X10775500Y-10047500D01*
X10825500Y-9947500D02*
X10825500Y-10047500D01*
X10775500Y-9997500D02*
X10875500Y-9997500D01*
X10775500Y-10201500D02*
X10875500Y-10301500D01*
X10875500Y-10201500D02*
X10775500Y-10301500D01*
X10825500Y-10201500D02*
X10825500Y-10301500D01*
X10775500Y-10251500D02*
X10875500Y-10251500D01*
X10775500Y-10455500D02*
X10875500Y-10555500D01*
X10875500Y-10455500D02*
X10775500Y-10555500D01*
X10825500Y-10455500D02*
X10825500Y-10555500D01*
X10775500Y-10505500D02*
X10875500Y-10505500D01*
X10775500Y-10709500D02*
X10875500Y-10809500D01*
X10875500Y-10709500D02*
X10775500Y-10809500D01*
X10825500Y-10709500D02*
X10825500Y-10809500D01*
X10775500Y-10759500D02*
X10875500Y-10759500D01*
D17*
X11082500Y-8476000D02*
X11302500Y-8696000D01*
X11302500Y-8476000D02*
X11082500Y-8696000D01*
X11270282Y-8663783D02*
X11270282Y-8508218D01*
X11114718Y-8508218D01*
X11114718Y-8663783D01*
X11270282Y-8663783D01*
X11082500Y-10536000D02*
X11302500Y-10756000D01*
X11302500Y-10536000D02*
X11082500Y-10756000D01*
X11270282Y-10723783D02*
X11270282Y-10568218D01*
X11114718Y-10568218D01*
X11114718Y-10723783D01*
X11270282Y-10723783D01*
X14912500Y-8476000D02*
X15132500Y-8696000D01*
X15132500Y-8476000D02*
X14912500Y-8696000D01*
X15100282Y-8663783D02*
X15100282Y-8508218D01*
X14944717Y-8508218D01*
X14944717Y-8663783D01*
X15100282Y-8663783D01*
X14912500Y-10536000D02*
X15132500Y-10756000D01*
X15132500Y-10536000D02*
X14912500Y-10756000D01*
X15100282Y-10723783D02*
X15100282Y-10568218D01*
X14944717Y-10568218D01*
X14944717Y-10723783D01*
X15100282Y-10723783D01*
D11*
X10446284Y-11202484D02*
X10446284Y-11002484D01*
X10446284Y-11002484D02*
X10493903Y-11002484D01*
X10493903Y-11002484D02*
X10522475Y-11012008D01*
X10522475Y-11012008D02*
X10541522Y-11031055D01*
X10541522Y-11031055D02*
X10551046Y-11050103D01*
X10551046Y-11050103D02*
X10560570Y-11088198D01*
X10560570Y-11088198D02*
X10560570Y-11116770D01*
X10560570Y-11116770D02*
X10551046Y-11154865D01*
X10551046Y-11154865D02*
X10541522Y-11173912D01*
X10541522Y-11173912D02*
X10522475Y-11192960D01*
X10522475Y-11192960D02*
X10493903Y-11202484D01*
X10493903Y-11202484D02*
X10446284Y-11202484D01*
X10646284Y-11202484D02*
X10646284Y-11069150D01*
X10646284Y-11107246D02*
X10655808Y-11088198D01*
X10655808Y-11088198D02*
X10665332Y-11078674D01*
X10665332Y-11078674D02*
X10684379Y-11069150D01*
X10684379Y-11069150D02*
X10703427Y-11069150D01*
X10770094Y-11202484D02*
X10770094Y-11069150D01*
X10770094Y-11002484D02*
X10760570Y-11012008D01*
X10760570Y-11012008D02*
X10770094Y-11021531D01*
X10770094Y-11021531D02*
X10779618Y-11012008D01*
X10779618Y-11012008D02*
X10770094Y-11002484D01*
X10770094Y-11002484D02*
X10770094Y-11021531D01*
X10893903Y-11202484D02*
X10874856Y-11192960D01*
X10874856Y-11192960D02*
X10865332Y-11173912D01*
X10865332Y-11173912D02*
X10865332Y-11002484D01*
X10998665Y-11202484D02*
X10979618Y-11192960D01*
X10979618Y-11192960D02*
X10970094Y-11173912D01*
X10970094Y-11173912D02*
X10970094Y-11002484D01*
X11227237Y-11202484D02*
X11227237Y-11002484D01*
X11227237Y-11002484D02*
X11293903Y-11145341D01*
X11293903Y-11145341D02*
X11360570Y-11002484D01*
X11360570Y-11002484D02*
X11360570Y-11202484D01*
X11541522Y-11202484D02*
X11541522Y-11097722D01*
X11541522Y-11097722D02*
X11531998Y-11078674D01*
X11531998Y-11078674D02*
X11512951Y-11069150D01*
X11512951Y-11069150D02*
X11474856Y-11069150D01*
X11474856Y-11069150D02*
X11455808Y-11078674D01*
X11541522Y-11192960D02*
X11522475Y-11202484D01*
X11522475Y-11202484D02*
X11474856Y-11202484D01*
X11474856Y-11202484D02*
X11455808Y-11192960D01*
X11455808Y-11192960D02*
X11446284Y-11173912D01*
X11446284Y-11173912D02*
X11446284Y-11154865D01*
X11446284Y-11154865D02*
X11455808Y-11135817D01*
X11455808Y-11135817D02*
X11474856Y-11126293D01*
X11474856Y-11126293D02*
X11522475Y-11126293D01*
X11522475Y-11126293D02*
X11541522Y-11116770D01*
X11636760Y-11069150D02*
X11636760Y-11269150D01*
X11636760Y-11078674D02*
X11655808Y-11069150D01*
X11655808Y-11069150D02*
X11693903Y-11069150D01*
X11693903Y-11069150D02*
X11712951Y-11078674D01*
X11712951Y-11078674D02*
X11722475Y-11088198D01*
X11722475Y-11088198D02*
X11731998Y-11107246D01*
X11731998Y-11107246D02*
X11731998Y-11164389D01*
X11731998Y-11164389D02*
X11722475Y-11183436D01*
X11722475Y-11183436D02*
X11712951Y-11192960D01*
X11712951Y-11192960D02*
X11693903Y-11202484D01*
X11693903Y-11202484D02*
X11655808Y-11202484D01*
X11655808Y-11202484D02*
X11636760Y-11192960D01*
X11817713Y-11183436D02*
X11827237Y-11192960D01*
X11827237Y-11192960D02*
X11817713Y-11202484D01*
X11817713Y-11202484D02*
X11808189Y-11192960D01*
X11808189Y-11192960D02*
X11817713Y-11183436D01*
X11817713Y-11183436D02*
X11817713Y-11202484D01*
X11817713Y-11078674D02*
X11827237Y-11088198D01*
X11827237Y-11088198D02*
X11817713Y-11097722D01*
X11817713Y-11097722D02*
X11808189Y-11088198D01*
X11808189Y-11088198D02*
X11817713Y-11078674D01*
X11817713Y-11078674D02*
X11817713Y-11097722D01*
D12*
X10145507Y-11511000D02*
X10185507Y-11551000D01*
X10185507Y-11511000D02*
X10145507Y-11551000D01*
D11*
X10484379Y-11422484D02*
X10503427Y-11422484D01*
X10503427Y-11422484D02*
X10522475Y-11432008D01*
X10522475Y-11432008D02*
X10531999Y-11441531D01*
X10531999Y-11441531D02*
X10541522Y-11460579D01*
X10541522Y-11460579D02*
X10551046Y-11498674D01*
X10551046Y-11498674D02*
X10551046Y-11546293D01*
X10551046Y-11546293D02*
X10541522Y-11584388D01*
X10541522Y-11584388D02*
X10531999Y-11603436D01*
X10531999Y-11603436D02*
X10522475Y-11612960D01*
X10522475Y-11612960D02*
X10503427Y-11622484D01*
X10503427Y-11622484D02*
X10484379Y-11622484D01*
X10484379Y-11622484D02*
X10465332Y-11612960D01*
X10465332Y-11612960D02*
X10455808Y-11603436D01*
X10455808Y-11603436D02*
X10446284Y-11584388D01*
X10446284Y-11584388D02*
X10436760Y-11546293D01*
X10436760Y-11546293D02*
X10436760Y-11498674D01*
X10436760Y-11498674D02*
X10446284Y-11460579D01*
X10446284Y-11460579D02*
X10455808Y-11441531D01*
X10455808Y-11441531D02*
X10465332Y-11432008D01*
X10465332Y-11432008D02*
X10484379Y-11422484D01*
X10636760Y-11603436D02*
X10646284Y-11612960D01*
X10646284Y-11612960D02*
X10636760Y-11622484D01*
X10636760Y-11622484D02*
X10627237Y-11612960D01*
X10627237Y-11612960D02*
X10636760Y-11603436D01*
X10636760Y-11603436D02*
X10636760Y-11622484D01*
X10817713Y-11489150D02*
X10817713Y-11622484D01*
X10770094Y-11412960D02*
X10722475Y-11555817D01*
X10722475Y-11555817D02*
X10846284Y-11555817D01*
X10960570Y-11422484D02*
X10979618Y-11422484D01*
X10979618Y-11422484D02*
X10998665Y-11432008D01*
X10998665Y-11432008D02*
X11008189Y-11441531D01*
X11008189Y-11441531D02*
X11017713Y-11460579D01*
X11017713Y-11460579D02*
X11027237Y-11498674D01*
X11027237Y-11498674D02*
X11027237Y-11546293D01*
X11027237Y-11546293D02*
X11017713Y-11584388D01*
X11017713Y-11584388D02*
X11008189Y-11603436D01*
X11008189Y-11603436D02*
X10998665Y-11612960D01*
X10998665Y-11612960D02*
X10979618Y-11622484D01*
X10979618Y-11622484D02*
X10960570Y-11622484D01*
X10960570Y-11622484D02*
X10941522Y-11612960D01*
X10941522Y-11612960D02*
X10931999Y-11603436D01*
X10931999Y-11603436D02*
X10922475Y-11584388D01*
X10922475Y-11584388D02*
X10912951Y-11546293D01*
X10912951Y-11546293D02*
X10912951Y-11498674D01*
X10912951Y-11498674D02*
X10922475Y-11460579D01*
X10922475Y-11460579D02*
X10931999Y-11441531D01*
X10931999Y-11441531D02*
X10941522Y-11432008D01*
X10941522Y-11432008D02*
X10960570Y-11422484D01*
X11151046Y-11422484D02*
X11170094Y-11422484D01*
X11170094Y-11422484D02*
X11189141Y-11432008D01*
X11189141Y-11432008D02*
X11198665Y-11441531D01*
X11198665Y-11441531D02*
X11208189Y-11460579D01*
X11208189Y-11460579D02*
X11217713Y-11498674D01*
X11217713Y-11498674D02*
X11217713Y-11546293D01*
X11217713Y-11546293D02*
X11208189Y-11584388D01*
X11208189Y-11584388D02*
X11198665Y-11603436D01*
X11198665Y-11603436D02*
X11189141Y-11612960D01*
X11189141Y-11612960D02*
X11170094Y-11622484D01*
X11170094Y-11622484D02*
X11151046Y-11622484D01*
X11151046Y-11622484D02*
X11131999Y-11612960D01*
X11131999Y-11612960D02*
X11122475Y-11603436D01*
X11122475Y-11603436D02*
X11112951Y-11584388D01*
X11112951Y-11584388D02*
X11103427Y-11546293D01*
X11103427Y-11546293D02*
X11103427Y-11498674D01*
X11103427Y-11498674D02*
X11112951Y-11460579D01*
X11112951Y-11460579D02*
X11122475Y-11441531D01*
X11122475Y-11441531D02*
X11131999Y-11432008D01*
X11131999Y-11432008D02*
X11151046Y-11422484D01*
X11303427Y-11622484D02*
X11303427Y-11489150D01*
X11303427Y-11508198D02*
X11312951Y-11498674D01*
X11312951Y-11498674D02*
X11331998Y-11489150D01*
X11331998Y-11489150D02*
X11360570Y-11489150D01*
X11360570Y-11489150D02*
X11379618Y-11498674D01*
X11379618Y-11498674D02*
X11389141Y-11517722D01*
X11389141Y-11517722D02*
X11389141Y-11622484D01*
X11389141Y-11517722D02*
X11398665Y-11498674D01*
X11398665Y-11498674D02*
X11417713Y-11489150D01*
X11417713Y-11489150D02*
X11446284Y-11489150D01*
X11446284Y-11489150D02*
X11465332Y-11498674D01*
X11465332Y-11498674D02*
X11474856Y-11517722D01*
X11474856Y-11517722D02*
X11474856Y-11622484D01*
X11570094Y-11622484D02*
X11570094Y-11489150D01*
X11570094Y-11508198D02*
X11579618Y-11498674D01*
X11579618Y-11498674D02*
X11598665Y-11489150D01*
X11598665Y-11489150D02*
X11627237Y-11489150D01*
X11627237Y-11489150D02*
X11646284Y-11498674D01*
X11646284Y-11498674D02*
X11655808Y-11517722D01*
X11655808Y-11517722D02*
X11655808Y-11622484D01*
X11655808Y-11517722D02*
X11665332Y-11498674D01*
X11665332Y-11498674D02*
X11684379Y-11489150D01*
X11684379Y-11489150D02*
X11712951Y-11489150D01*
X11712951Y-11489150D02*
X11731999Y-11498674D01*
X11731999Y-11498674D02*
X11741522Y-11517722D01*
X11741522Y-11517722D02*
X11741522Y-11622484D01*
X12131999Y-11412960D02*
X11960570Y-11670103D01*
X12389141Y-11422484D02*
X12408189Y-11422484D01*
X12408189Y-11422484D02*
X12427237Y-11432008D01*
X12427237Y-11432008D02*
X12436761Y-11441531D01*
X12436761Y-11441531D02*
X12446284Y-11460579D01*
X12446284Y-11460579D02*
X12455808Y-11498674D01*
X12455808Y-11498674D02*
X12455808Y-11546293D01*
X12455808Y-11546293D02*
X12446284Y-11584388D01*
X12446284Y-11584388D02*
X12436761Y-11603436D01*
X12436761Y-11603436D02*
X12427237Y-11612960D01*
X12427237Y-11612960D02*
X12408189Y-11622484D01*
X12408189Y-11622484D02*
X12389141Y-11622484D01*
X12389141Y-11622484D02*
X12370094Y-11612960D01*
X12370094Y-11612960D02*
X12360570Y-11603436D01*
X12360570Y-11603436D02*
X12351046Y-11584388D01*
X12351046Y-11584388D02*
X12341522Y-11546293D01*
X12341522Y-11546293D02*
X12341522Y-11498674D01*
X12341522Y-11498674D02*
X12351046Y-11460579D01*
X12351046Y-11460579D02*
X12360570Y-11441531D01*
X12360570Y-11441531D02*
X12370094Y-11432008D01*
X12370094Y-11432008D02*
X12389141Y-11422484D01*
X12541522Y-11603436D02*
X12551046Y-11612960D01*
X12551046Y-11612960D02*
X12541522Y-11622484D01*
X12541522Y-11622484D02*
X12531999Y-11612960D01*
X12531999Y-11612960D02*
X12541522Y-11603436D01*
X12541522Y-11603436D02*
X12541522Y-11622484D01*
X12674856Y-11422484D02*
X12693903Y-11422484D01*
X12693903Y-11422484D02*
X12712951Y-11432008D01*
X12712951Y-11432008D02*
X12722475Y-11441531D01*
X12722475Y-11441531D02*
X12731999Y-11460579D01*
X12731999Y-11460579D02*
X12741522Y-11498674D01*
X12741522Y-11498674D02*
X12741522Y-11546293D01*
X12741522Y-11546293D02*
X12731999Y-11584388D01*
X12731999Y-11584388D02*
X12722475Y-11603436D01*
X12722475Y-11603436D02*
X12712951Y-11612960D01*
X12712951Y-11612960D02*
X12693903Y-11622484D01*
X12693903Y-11622484D02*
X12674856Y-11622484D01*
X12674856Y-11622484D02*
X12655808Y-11612960D01*
X12655808Y-11612960D02*
X12646284Y-11603436D01*
X12646284Y-11603436D02*
X12636761Y-11584388D01*
X12636761Y-11584388D02*
X12627237Y-11546293D01*
X12627237Y-11546293D02*
X12627237Y-11498674D01*
X12627237Y-11498674D02*
X12636761Y-11460579D01*
X12636761Y-11460579D02*
X12646284Y-11441531D01*
X12646284Y-11441531D02*
X12655808Y-11432008D01*
X12655808Y-11432008D02*
X12674856Y-11422484D01*
X12931999Y-11622484D02*
X12817713Y-11622484D01*
X12874856Y-11622484D02*
X12874856Y-11422484D01*
X12874856Y-11422484D02*
X12855808Y-11451055D01*
X12855808Y-11451055D02*
X12836761Y-11470103D01*
X12836761Y-11470103D02*
X12817713Y-11479627D01*
X13112951Y-11422484D02*
X13017713Y-11422484D01*
X13017713Y-11422484D02*
X13008189Y-11517722D01*
X13008189Y-11517722D02*
X13017713Y-11508198D01*
X13017713Y-11508198D02*
X13036761Y-11498674D01*
X13036761Y-11498674D02*
X13084380Y-11498674D01*
X13084380Y-11498674D02*
X13103427Y-11508198D01*
X13103427Y-11508198D02*
X13112951Y-11517722D01*
X13112951Y-11517722D02*
X13122475Y-11536769D01*
X13122475Y-11536769D02*
X13122475Y-11584388D01*
X13122475Y-11584388D02*
X13112951Y-11603436D01*
X13112951Y-11603436D02*
X13103427Y-11612960D01*
X13103427Y-11612960D02*
X13084380Y-11622484D01*
X13084380Y-11622484D02*
X13036761Y-11622484D01*
X13036761Y-11622484D02*
X13017713Y-11612960D01*
X13017713Y-11612960D02*
X13008189Y-11603436D01*
X13189142Y-11422484D02*
X13322475Y-11422484D01*
X13322475Y-11422484D02*
X13236761Y-11622484D01*
X13389142Y-11422484D02*
X13389142Y-11460579D01*
X13465332Y-11422484D02*
X13465332Y-11460579D01*
X13760570Y-11698674D02*
X13751046Y-11689150D01*
X13751046Y-11689150D02*
X13731999Y-11660579D01*
X13731999Y-11660579D02*
X13722475Y-11641531D01*
X13722475Y-11641531D02*
X13712951Y-11612960D01*
X13712951Y-11612960D02*
X13703427Y-11565341D01*
X13703427Y-11565341D02*
X13703427Y-11527246D01*
X13703427Y-11527246D02*
X13712951Y-11479627D01*
X13712951Y-11479627D02*
X13722475Y-11451055D01*
X13722475Y-11451055D02*
X13731999Y-11432008D01*
X13731999Y-11432008D02*
X13751046Y-11403436D01*
X13751046Y-11403436D02*
X13760570Y-11393912D01*
X13827237Y-11441531D02*
X13836761Y-11432008D01*
X13836761Y-11432008D02*
X13855808Y-11422484D01*
X13855808Y-11422484D02*
X13903427Y-11422484D01*
X13903427Y-11422484D02*
X13922475Y-11432008D01*
X13922475Y-11432008D02*
X13931999Y-11441531D01*
X13931999Y-11441531D02*
X13941523Y-11460579D01*
X13941523Y-11460579D02*
X13941523Y-11479627D01*
X13941523Y-11479627D02*
X13931999Y-11508198D01*
X13931999Y-11508198D02*
X13817713Y-11622484D01*
X13817713Y-11622484D02*
X13941523Y-11622484D01*
X14122475Y-11422484D02*
X14027237Y-11422484D01*
X14027237Y-11422484D02*
X14017713Y-11517722D01*
X14017713Y-11517722D02*
X14027237Y-11508198D01*
X14027237Y-11508198D02*
X14046284Y-11498674D01*
X14046284Y-11498674D02*
X14093904Y-11498674D01*
X14093904Y-11498674D02*
X14112951Y-11508198D01*
X14112951Y-11508198D02*
X14122475Y-11517722D01*
X14122475Y-11517722D02*
X14131999Y-11536769D01*
X14131999Y-11536769D02*
X14131999Y-11584388D01*
X14131999Y-11584388D02*
X14122475Y-11603436D01*
X14122475Y-11603436D02*
X14112951Y-11612960D01*
X14112951Y-11612960D02*
X14093904Y-11622484D01*
X14093904Y-11622484D02*
X14046284Y-11622484D01*
X14046284Y-11622484D02*
X14027237Y-11612960D01*
X14027237Y-11612960D02*
X14017713Y-11603436D01*
X14198665Y-11422484D02*
X14322475Y-11422484D01*
X14322475Y-11422484D02*
X14255808Y-11498674D01*
X14255808Y-11498674D02*
X14284380Y-11498674D01*
X14284380Y-11498674D02*
X14303427Y-11508198D01*
X14303427Y-11508198D02*
X14312951Y-11517722D01*
X14312951Y-11517722D02*
X14322475Y-11536769D01*
X14322475Y-11536769D02*
X14322475Y-11584388D01*
X14322475Y-11584388D02*
X14312951Y-11603436D01*
X14312951Y-11603436D02*
X14303427Y-11612960D01*
X14303427Y-11612960D02*
X14284380Y-11622484D01*
X14284380Y-11622484D02*
X14227237Y-11622484D01*
X14227237Y-11622484D02*
X14208189Y-11612960D01*
X14208189Y-11612960D02*
X14198665Y-11603436D01*
X14560570Y-11622484D02*
X14560570Y-11422484D01*
X14646285Y-11622484D02*
X14646285Y-11517722D01*
X14646285Y-11517722D02*
X14636761Y-11498674D01*
X14636761Y-11498674D02*
X14617713Y-11489150D01*
X14617713Y-11489150D02*
X14589142Y-11489150D01*
X14589142Y-11489150D02*
X14570094Y-11498674D01*
X14570094Y-11498674D02*
X14560570Y-11508198D01*
X14770094Y-11622484D02*
X14751046Y-11612960D01*
X14751046Y-11612960D02*
X14741523Y-11603436D01*
X14741523Y-11603436D02*
X14731999Y-11584388D01*
X14731999Y-11584388D02*
X14731999Y-11527246D01*
X14731999Y-11527246D02*
X14741523Y-11508198D01*
X14741523Y-11508198D02*
X14751046Y-11498674D01*
X14751046Y-11498674D02*
X14770094Y-11489150D01*
X14770094Y-11489150D02*
X14798666Y-11489150D01*
X14798666Y-11489150D02*
X14817713Y-11498674D01*
X14817713Y-11498674D02*
X14827237Y-11508198D01*
X14827237Y-11508198D02*
X14836761Y-11527246D01*
X14836761Y-11527246D02*
X14836761Y-11584388D01*
X14836761Y-11584388D02*
X14827237Y-11603436D01*
X14827237Y-11603436D02*
X14817713Y-11612960D01*
X14817713Y-11612960D02*
X14798666Y-11622484D01*
X14798666Y-11622484D02*
X14770094Y-11622484D01*
X14951046Y-11622484D02*
X14931999Y-11612960D01*
X14931999Y-11612960D02*
X14922475Y-11593912D01*
X14922475Y-11593912D02*
X14922475Y-11422484D01*
X15103427Y-11612960D02*
X15084380Y-11622484D01*
X15084380Y-11622484D02*
X15046285Y-11622484D01*
X15046285Y-11622484D02*
X15027237Y-11612960D01*
X15027237Y-11612960D02*
X15017713Y-11593912D01*
X15017713Y-11593912D02*
X15017713Y-11517722D01*
X15017713Y-11517722D02*
X15027237Y-11498674D01*
X15027237Y-11498674D02*
X15046285Y-11489150D01*
X15046285Y-11489150D02*
X15084380Y-11489150D01*
X15084380Y-11489150D02*
X15103427Y-11498674D01*
X15103427Y-11498674D02*
X15112951Y-11517722D01*
X15112951Y-11517722D02*
X15112951Y-11536769D01*
X15112951Y-11536769D02*
X15017713Y-11555817D01*
X15189142Y-11612960D02*
X15208189Y-11622484D01*
X15208189Y-11622484D02*
X15246285Y-11622484D01*
X15246285Y-11622484D02*
X15265332Y-11612960D01*
X15265332Y-11612960D02*
X15274856Y-11593912D01*
X15274856Y-11593912D02*
X15274856Y-11584388D01*
X15274856Y-11584388D02*
X15265332Y-11565341D01*
X15265332Y-11565341D02*
X15246285Y-11555817D01*
X15246285Y-11555817D02*
X15217713Y-11555817D01*
X15217713Y-11555817D02*
X15198666Y-11546293D01*
X15198666Y-11546293D02*
X15189142Y-11527246D01*
X15189142Y-11527246D02*
X15189142Y-11517722D01*
X15189142Y-11517722D02*
X15198666Y-11498674D01*
X15198666Y-11498674D02*
X15217713Y-11489150D01*
X15217713Y-11489150D02*
X15246285Y-11489150D01*
X15246285Y-11489150D02*
X15265332Y-11498674D01*
X15341523Y-11698674D02*
X15351047Y-11689150D01*
X15351047Y-11689150D02*
X15370094Y-11660579D01*
X15370094Y-11660579D02*
X15379618Y-11641531D01*
X15379618Y-11641531D02*
X15389142Y-11612960D01*
X15389142Y-11612960D02*
X15398666Y-11565341D01*
X15398666Y-11565341D02*
X15398666Y-11527246D01*
X15398666Y-11527246D02*
X15389142Y-11479627D01*
X15389142Y-11479627D02*
X15379618Y-11451055D01*
X15379618Y-11451055D02*
X15370094Y-11432008D01*
X15370094Y-11432008D02*
X15351047Y-11403436D01*
X15351047Y-11403436D02*
X15341523Y-11393912D01*
D12*
X10185507Y-11795000D02*
G75*
G03*
X10185507Y-11795000I-20000J0D01*
G01*
D11*
X10484379Y-11686484D02*
X10503427Y-11686484D01*
X10503427Y-11686484D02*
X10522475Y-11696008D01*
X10522475Y-11696008D02*
X10531999Y-11705531D01*
X10531999Y-11705531D02*
X10541522Y-11724579D01*
X10541522Y-11724579D02*
X10551046Y-11762674D01*
X10551046Y-11762674D02*
X10551046Y-11810293D01*
X10551046Y-11810293D02*
X10541522Y-11848388D01*
X10541522Y-11848388D02*
X10531999Y-11867436D01*
X10531999Y-11867436D02*
X10522475Y-11876960D01*
X10522475Y-11876960D02*
X10503427Y-11886484D01*
X10503427Y-11886484D02*
X10484379Y-11886484D01*
X10484379Y-11886484D02*
X10465332Y-11876960D01*
X10465332Y-11876960D02*
X10455808Y-11867436D01*
X10455808Y-11867436D02*
X10446284Y-11848388D01*
X10446284Y-11848388D02*
X10436760Y-11810293D01*
X10436760Y-11810293D02*
X10436760Y-11762674D01*
X10436760Y-11762674D02*
X10446284Y-11724579D01*
X10446284Y-11724579D02*
X10455808Y-11705531D01*
X10455808Y-11705531D02*
X10465332Y-11696008D01*
X10465332Y-11696008D02*
X10484379Y-11686484D01*
X10636760Y-11867436D02*
X10646284Y-11876960D01*
X10646284Y-11876960D02*
X10636760Y-11886484D01*
X10636760Y-11886484D02*
X10627237Y-11876960D01*
X10627237Y-11876960D02*
X10636760Y-11867436D01*
X10636760Y-11867436D02*
X10636760Y-11886484D01*
X10817713Y-11753150D02*
X10817713Y-11886484D01*
X10770094Y-11676960D02*
X10722475Y-11819817D01*
X10722475Y-11819817D02*
X10846284Y-11819817D01*
X10960570Y-11686484D02*
X10979618Y-11686484D01*
X10979618Y-11686484D02*
X10998665Y-11696008D01*
X10998665Y-11696008D02*
X11008189Y-11705531D01*
X11008189Y-11705531D02*
X11017713Y-11724579D01*
X11017713Y-11724579D02*
X11027237Y-11762674D01*
X11027237Y-11762674D02*
X11027237Y-11810293D01*
X11027237Y-11810293D02*
X11017713Y-11848388D01*
X11017713Y-11848388D02*
X11008189Y-11867436D01*
X11008189Y-11867436D02*
X10998665Y-11876960D01*
X10998665Y-11876960D02*
X10979618Y-11886484D01*
X10979618Y-11886484D02*
X10960570Y-11886484D01*
X10960570Y-11886484D02*
X10941522Y-11876960D01*
X10941522Y-11876960D02*
X10931999Y-11867436D01*
X10931999Y-11867436D02*
X10922475Y-11848388D01*
X10922475Y-11848388D02*
X10912951Y-11810293D01*
X10912951Y-11810293D02*
X10912951Y-11762674D01*
X10912951Y-11762674D02*
X10922475Y-11724579D01*
X10922475Y-11724579D02*
X10931999Y-11705531D01*
X10931999Y-11705531D02*
X10941522Y-11696008D01*
X10941522Y-11696008D02*
X10960570Y-11686484D01*
X11151046Y-11686484D02*
X11170094Y-11686484D01*
X11170094Y-11686484D02*
X11189141Y-11696008D01*
X11189141Y-11696008D02*
X11198665Y-11705531D01*
X11198665Y-11705531D02*
X11208189Y-11724579D01*
X11208189Y-11724579D02*
X11217713Y-11762674D01*
X11217713Y-11762674D02*
X11217713Y-11810293D01*
X11217713Y-11810293D02*
X11208189Y-11848388D01*
X11208189Y-11848388D02*
X11198665Y-11867436D01*
X11198665Y-11867436D02*
X11189141Y-11876960D01*
X11189141Y-11876960D02*
X11170094Y-11886484D01*
X11170094Y-11886484D02*
X11151046Y-11886484D01*
X11151046Y-11886484D02*
X11131999Y-11876960D01*
X11131999Y-11876960D02*
X11122475Y-11867436D01*
X11122475Y-11867436D02*
X11112951Y-11848388D01*
X11112951Y-11848388D02*
X11103427Y-11810293D01*
X11103427Y-11810293D02*
X11103427Y-11762674D01*
X11103427Y-11762674D02*
X11112951Y-11724579D01*
X11112951Y-11724579D02*
X11122475Y-11705531D01*
X11122475Y-11705531D02*
X11131999Y-11696008D01*
X11131999Y-11696008D02*
X11151046Y-11686484D01*
X11303427Y-11886484D02*
X11303427Y-11753150D01*
X11303427Y-11772198D02*
X11312951Y-11762674D01*
X11312951Y-11762674D02*
X11331998Y-11753150D01*
X11331998Y-11753150D02*
X11360570Y-11753150D01*
X11360570Y-11753150D02*
X11379618Y-11762674D01*
X11379618Y-11762674D02*
X11389141Y-11781722D01*
X11389141Y-11781722D02*
X11389141Y-11886484D01*
X11389141Y-11781722D02*
X11398665Y-11762674D01*
X11398665Y-11762674D02*
X11417713Y-11753150D01*
X11417713Y-11753150D02*
X11446284Y-11753150D01*
X11446284Y-11753150D02*
X11465332Y-11762674D01*
X11465332Y-11762674D02*
X11474856Y-11781722D01*
X11474856Y-11781722D02*
X11474856Y-11886484D01*
X11570094Y-11886484D02*
X11570094Y-11753150D01*
X11570094Y-11772198D02*
X11579618Y-11762674D01*
X11579618Y-11762674D02*
X11598665Y-11753150D01*
X11598665Y-11753150D02*
X11627237Y-11753150D01*
X11627237Y-11753150D02*
X11646284Y-11762674D01*
X11646284Y-11762674D02*
X11655808Y-11781722D01*
X11655808Y-11781722D02*
X11655808Y-11886484D01*
X11655808Y-11781722D02*
X11665332Y-11762674D01*
X11665332Y-11762674D02*
X11684379Y-11753150D01*
X11684379Y-11753150D02*
X11712951Y-11753150D01*
X11712951Y-11753150D02*
X11731999Y-11762674D01*
X11731999Y-11762674D02*
X11741522Y-11781722D01*
X11741522Y-11781722D02*
X11741522Y-11886484D01*
X12131999Y-11676960D02*
X11960570Y-11934103D01*
X12389141Y-11686484D02*
X12408189Y-11686484D01*
X12408189Y-11686484D02*
X12427237Y-11696008D01*
X12427237Y-11696008D02*
X12436761Y-11705531D01*
X12436761Y-11705531D02*
X12446284Y-11724579D01*
X12446284Y-11724579D02*
X12455808Y-11762674D01*
X12455808Y-11762674D02*
X12455808Y-11810293D01*
X12455808Y-11810293D02*
X12446284Y-11848388D01*
X12446284Y-11848388D02*
X12436761Y-11867436D01*
X12436761Y-11867436D02*
X12427237Y-11876960D01*
X12427237Y-11876960D02*
X12408189Y-11886484D01*
X12408189Y-11886484D02*
X12389141Y-11886484D01*
X12389141Y-11886484D02*
X12370094Y-11876960D01*
X12370094Y-11876960D02*
X12360570Y-11867436D01*
X12360570Y-11867436D02*
X12351046Y-11848388D01*
X12351046Y-11848388D02*
X12341522Y-11810293D01*
X12341522Y-11810293D02*
X12341522Y-11762674D01*
X12341522Y-11762674D02*
X12351046Y-11724579D01*
X12351046Y-11724579D02*
X12360570Y-11705531D01*
X12360570Y-11705531D02*
X12370094Y-11696008D01*
X12370094Y-11696008D02*
X12389141Y-11686484D01*
X12541522Y-11867436D02*
X12551046Y-11876960D01*
X12551046Y-11876960D02*
X12541522Y-11886484D01*
X12541522Y-11886484D02*
X12531999Y-11876960D01*
X12531999Y-11876960D02*
X12541522Y-11867436D01*
X12541522Y-11867436D02*
X12541522Y-11886484D01*
X12674856Y-11686484D02*
X12693903Y-11686484D01*
X12693903Y-11686484D02*
X12712951Y-11696008D01*
X12712951Y-11696008D02*
X12722475Y-11705531D01*
X12722475Y-11705531D02*
X12731999Y-11724579D01*
X12731999Y-11724579D02*
X12741522Y-11762674D01*
X12741522Y-11762674D02*
X12741522Y-11810293D01*
X12741522Y-11810293D02*
X12731999Y-11848388D01*
X12731999Y-11848388D02*
X12722475Y-11867436D01*
X12722475Y-11867436D02*
X12712951Y-11876960D01*
X12712951Y-11876960D02*
X12693903Y-11886484D01*
X12693903Y-11886484D02*
X12674856Y-11886484D01*
X12674856Y-11886484D02*
X12655808Y-11876960D01*
X12655808Y-11876960D02*
X12646284Y-11867436D01*
X12646284Y-11867436D02*
X12636761Y-11848388D01*
X12636761Y-11848388D02*
X12627237Y-11810293D01*
X12627237Y-11810293D02*
X12627237Y-11762674D01*
X12627237Y-11762674D02*
X12636761Y-11724579D01*
X12636761Y-11724579D02*
X12646284Y-11705531D01*
X12646284Y-11705531D02*
X12655808Y-11696008D01*
X12655808Y-11696008D02*
X12674856Y-11686484D01*
X12931999Y-11886484D02*
X12817713Y-11886484D01*
X12874856Y-11886484D02*
X12874856Y-11686484D01*
X12874856Y-11686484D02*
X12855808Y-11715055D01*
X12855808Y-11715055D02*
X12836761Y-11734103D01*
X12836761Y-11734103D02*
X12817713Y-11743627D01*
X13112951Y-11686484D02*
X13017713Y-11686484D01*
X13017713Y-11686484D02*
X13008189Y-11781722D01*
X13008189Y-11781722D02*
X13017713Y-11772198D01*
X13017713Y-11772198D02*
X13036761Y-11762674D01*
X13036761Y-11762674D02*
X13084380Y-11762674D01*
X13084380Y-11762674D02*
X13103427Y-11772198D01*
X13103427Y-11772198D02*
X13112951Y-11781722D01*
X13112951Y-11781722D02*
X13122475Y-11800769D01*
X13122475Y-11800769D02*
X13122475Y-11848388D01*
X13122475Y-11848388D02*
X13112951Y-11867436D01*
X13112951Y-11867436D02*
X13103427Y-11876960D01*
X13103427Y-11876960D02*
X13084380Y-11886484D01*
X13084380Y-11886484D02*
X13036761Y-11886484D01*
X13036761Y-11886484D02*
X13017713Y-11876960D01*
X13017713Y-11876960D02*
X13008189Y-11867436D01*
X13189142Y-11686484D02*
X13322475Y-11686484D01*
X13322475Y-11686484D02*
X13236761Y-11886484D01*
X13389142Y-11686484D02*
X13389142Y-11724579D01*
X13465332Y-11686484D02*
X13465332Y-11724579D01*
X13760570Y-11962674D02*
X13751046Y-11953150D01*
X13751046Y-11953150D02*
X13731999Y-11924579D01*
X13731999Y-11924579D02*
X13722475Y-11905531D01*
X13722475Y-11905531D02*
X13712951Y-11876960D01*
X13712951Y-11876960D02*
X13703427Y-11829341D01*
X13703427Y-11829341D02*
X13703427Y-11791246D01*
X13703427Y-11791246D02*
X13712951Y-11743627D01*
X13712951Y-11743627D02*
X13722475Y-11715055D01*
X13722475Y-11715055D02*
X13731999Y-11696008D01*
X13731999Y-11696008D02*
X13751046Y-11667436D01*
X13751046Y-11667436D02*
X13760570Y-11657912D01*
X13817713Y-11686484D02*
X13941523Y-11686484D01*
X13941523Y-11686484D02*
X13874856Y-11762674D01*
X13874856Y-11762674D02*
X13903427Y-11762674D01*
X13903427Y-11762674D02*
X13922475Y-11772198D01*
X13922475Y-11772198D02*
X13931999Y-11781722D01*
X13931999Y-11781722D02*
X13941523Y-11800769D01*
X13941523Y-11800769D02*
X13941523Y-11848388D01*
X13941523Y-11848388D02*
X13931999Y-11867436D01*
X13931999Y-11867436D02*
X13922475Y-11876960D01*
X13922475Y-11876960D02*
X13903427Y-11886484D01*
X13903427Y-11886484D02*
X13846284Y-11886484D01*
X13846284Y-11886484D02*
X13827237Y-11876960D01*
X13827237Y-11876960D02*
X13817713Y-11867436D01*
X14017713Y-11705531D02*
X14027237Y-11696008D01*
X14027237Y-11696008D02*
X14046284Y-11686484D01*
X14046284Y-11686484D02*
X14093904Y-11686484D01*
X14093904Y-11686484D02*
X14112951Y-11696008D01*
X14112951Y-11696008D02*
X14122475Y-11705531D01*
X14122475Y-11705531D02*
X14131999Y-11724579D01*
X14131999Y-11724579D02*
X14131999Y-11743627D01*
X14131999Y-11743627D02*
X14122475Y-11772198D01*
X14122475Y-11772198D02*
X14008189Y-11886484D01*
X14008189Y-11886484D02*
X14131999Y-11886484D01*
X14370094Y-11886484D02*
X14370094Y-11686484D01*
X14455808Y-11886484D02*
X14455808Y-11781722D01*
X14455808Y-11781722D02*
X14446285Y-11762674D01*
X14446285Y-11762674D02*
X14427237Y-11753150D01*
X14427237Y-11753150D02*
X14398665Y-11753150D01*
X14398665Y-11753150D02*
X14379618Y-11762674D01*
X14379618Y-11762674D02*
X14370094Y-11772198D01*
X14579618Y-11886484D02*
X14560570Y-11876960D01*
X14560570Y-11876960D02*
X14551046Y-11867436D01*
X14551046Y-11867436D02*
X14541523Y-11848388D01*
X14541523Y-11848388D02*
X14541523Y-11791246D01*
X14541523Y-11791246D02*
X14551046Y-11772198D01*
X14551046Y-11772198D02*
X14560570Y-11762674D01*
X14560570Y-11762674D02*
X14579618Y-11753150D01*
X14579618Y-11753150D02*
X14608189Y-11753150D01*
X14608189Y-11753150D02*
X14627237Y-11762674D01*
X14627237Y-11762674D02*
X14636761Y-11772198D01*
X14636761Y-11772198D02*
X14646285Y-11791246D01*
X14646285Y-11791246D02*
X14646285Y-11848388D01*
X14646285Y-11848388D02*
X14636761Y-11867436D01*
X14636761Y-11867436D02*
X14627237Y-11876960D01*
X14627237Y-11876960D02*
X14608189Y-11886484D01*
X14608189Y-11886484D02*
X14579618Y-11886484D01*
X14760570Y-11886484D02*
X14741523Y-11876960D01*
X14741523Y-11876960D02*
X14731999Y-11857912D01*
X14731999Y-11857912D02*
X14731999Y-11686484D01*
X14912951Y-11876960D02*
X14893904Y-11886484D01*
X14893904Y-11886484D02*
X14855808Y-11886484D01*
X14855808Y-11886484D02*
X14836761Y-11876960D01*
X14836761Y-11876960D02*
X14827237Y-11857912D01*
X14827237Y-11857912D02*
X14827237Y-11781722D01*
X14827237Y-11781722D02*
X14836761Y-11762674D01*
X14836761Y-11762674D02*
X14855808Y-11753150D01*
X14855808Y-11753150D02*
X14893904Y-11753150D01*
X14893904Y-11753150D02*
X14912951Y-11762674D01*
X14912951Y-11762674D02*
X14922475Y-11781722D01*
X14922475Y-11781722D02*
X14922475Y-11800769D01*
X14922475Y-11800769D02*
X14827237Y-11819817D01*
X14998666Y-11876960D02*
X15017713Y-11886484D01*
X15017713Y-11886484D02*
X15055808Y-11886484D01*
X15055808Y-11886484D02*
X15074856Y-11876960D01*
X15074856Y-11876960D02*
X15084380Y-11857912D01*
X15084380Y-11857912D02*
X15084380Y-11848388D01*
X15084380Y-11848388D02*
X15074856Y-11829341D01*
X15074856Y-11829341D02*
X15055808Y-11819817D01*
X15055808Y-11819817D02*
X15027237Y-11819817D01*
X15027237Y-11819817D02*
X15008189Y-11810293D01*
X15008189Y-11810293D02*
X14998666Y-11791246D01*
X14998666Y-11791246D02*
X14998666Y-11781722D01*
X14998666Y-11781722D02*
X15008189Y-11762674D01*
X15008189Y-11762674D02*
X15027237Y-11753150D01*
X15027237Y-11753150D02*
X15055808Y-11753150D01*
X15055808Y-11753150D02*
X15074856Y-11762674D01*
X15151047Y-11962674D02*
X15160570Y-11953150D01*
X15160570Y-11953150D02*
X15179618Y-11924579D01*
X15179618Y-11924579D02*
X15189142Y-11905531D01*
X15189142Y-11905531D02*
X15198666Y-11876960D01*
X15198666Y-11876960D02*
X15208189Y-11829341D01*
X15208189Y-11829341D02*
X15208189Y-11791246D01*
X15208189Y-11791246D02*
X15198666Y-11743627D01*
X15198666Y-11743627D02*
X15189142Y-11715055D01*
X15189142Y-11715055D02*
X15179618Y-11696008D01*
X15179618Y-11696008D02*
X15160570Y-11667436D01*
X15160570Y-11667436D02*
X15151047Y-11657912D01*
D13*
X10163007Y-12036500D02*
X10163007Y-12081500D01*
X10140507Y-12059000D02*
X10185507Y-12059000D01*
D11*
X10484379Y-11950484D02*
X10503427Y-11950484D01*
X10503427Y-11950484D02*
X10522475Y-11960008D01*
X10522475Y-11960008D02*
X10531999Y-11969531D01*
X10531999Y-11969531D02*
X10541522Y-11988579D01*
X10541522Y-11988579D02*
X10551046Y-12026674D01*
X10551046Y-12026674D02*
X10551046Y-12074293D01*
X10551046Y-12074293D02*
X10541522Y-12112388D01*
X10541522Y-12112388D02*
X10531999Y-12131436D01*
X10531999Y-12131436D02*
X10522475Y-12140960D01*
X10522475Y-12140960D02*
X10503427Y-12150484D01*
X10503427Y-12150484D02*
X10484379Y-12150484D01*
X10484379Y-12150484D02*
X10465332Y-12140960D01*
X10465332Y-12140960D02*
X10455808Y-12131436D01*
X10455808Y-12131436D02*
X10446284Y-12112388D01*
X10446284Y-12112388D02*
X10436760Y-12074293D01*
X10436760Y-12074293D02*
X10436760Y-12026674D01*
X10436760Y-12026674D02*
X10446284Y-11988579D01*
X10446284Y-11988579D02*
X10455808Y-11969531D01*
X10455808Y-11969531D02*
X10465332Y-11960008D01*
X10465332Y-11960008D02*
X10484379Y-11950484D01*
X10636760Y-12131436D02*
X10646284Y-12140960D01*
X10646284Y-12140960D02*
X10636760Y-12150484D01*
X10636760Y-12150484D02*
X10627237Y-12140960D01*
X10627237Y-12140960D02*
X10636760Y-12131436D01*
X10636760Y-12131436D02*
X10636760Y-12150484D01*
X10817713Y-12017150D02*
X10817713Y-12150484D01*
X10770094Y-11940960D02*
X10722475Y-12083817D01*
X10722475Y-12083817D02*
X10846284Y-12083817D01*
X11017713Y-11950484D02*
X10922475Y-11950484D01*
X10922475Y-11950484D02*
X10912951Y-12045722D01*
X10912951Y-12045722D02*
X10922475Y-12036198D01*
X10922475Y-12036198D02*
X10941522Y-12026674D01*
X10941522Y-12026674D02*
X10989141Y-12026674D01*
X10989141Y-12026674D02*
X11008189Y-12036198D01*
X11008189Y-12036198D02*
X11017713Y-12045722D01*
X11017713Y-12045722D02*
X11027237Y-12064769D01*
X11027237Y-12064769D02*
X11027237Y-12112388D01*
X11027237Y-12112388D02*
X11017713Y-12131436D01*
X11017713Y-12131436D02*
X11008189Y-12140960D01*
X11008189Y-12140960D02*
X10989141Y-12150484D01*
X10989141Y-12150484D02*
X10941522Y-12150484D01*
X10941522Y-12150484D02*
X10922475Y-12140960D01*
X10922475Y-12140960D02*
X10912951Y-12131436D01*
X11151046Y-11950484D02*
X11170094Y-11950484D01*
X11170094Y-11950484D02*
X11189141Y-11960008D01*
X11189141Y-11960008D02*
X11198665Y-11969531D01*
X11198665Y-11969531D02*
X11208189Y-11988579D01*
X11208189Y-11988579D02*
X11217713Y-12026674D01*
X11217713Y-12026674D02*
X11217713Y-12074293D01*
X11217713Y-12074293D02*
X11208189Y-12112388D01*
X11208189Y-12112388D02*
X11198665Y-12131436D01*
X11198665Y-12131436D02*
X11189141Y-12140960D01*
X11189141Y-12140960D02*
X11170094Y-12150484D01*
X11170094Y-12150484D02*
X11151046Y-12150484D01*
X11151046Y-12150484D02*
X11131999Y-12140960D01*
X11131999Y-12140960D02*
X11122475Y-12131436D01*
X11122475Y-12131436D02*
X11112951Y-12112388D01*
X11112951Y-12112388D02*
X11103427Y-12074293D01*
X11103427Y-12074293D02*
X11103427Y-12026674D01*
X11103427Y-12026674D02*
X11112951Y-11988579D01*
X11112951Y-11988579D02*
X11122475Y-11969531D01*
X11122475Y-11969531D02*
X11131999Y-11960008D01*
X11131999Y-11960008D02*
X11151046Y-11950484D01*
X11303427Y-12150484D02*
X11303427Y-12017150D01*
X11303427Y-12036198D02*
X11312951Y-12026674D01*
X11312951Y-12026674D02*
X11331998Y-12017150D01*
X11331998Y-12017150D02*
X11360570Y-12017150D01*
X11360570Y-12017150D02*
X11379618Y-12026674D01*
X11379618Y-12026674D02*
X11389141Y-12045722D01*
X11389141Y-12045722D02*
X11389141Y-12150484D01*
X11389141Y-12045722D02*
X11398665Y-12026674D01*
X11398665Y-12026674D02*
X11417713Y-12017150D01*
X11417713Y-12017150D02*
X11446284Y-12017150D01*
X11446284Y-12017150D02*
X11465332Y-12026674D01*
X11465332Y-12026674D02*
X11474856Y-12045722D01*
X11474856Y-12045722D02*
X11474856Y-12150484D01*
X11570094Y-12150484D02*
X11570094Y-12017150D01*
X11570094Y-12036198D02*
X11579618Y-12026674D01*
X11579618Y-12026674D02*
X11598665Y-12017150D01*
X11598665Y-12017150D02*
X11627237Y-12017150D01*
X11627237Y-12017150D02*
X11646284Y-12026674D01*
X11646284Y-12026674D02*
X11655808Y-12045722D01*
X11655808Y-12045722D02*
X11655808Y-12150484D01*
X11655808Y-12045722D02*
X11665332Y-12026674D01*
X11665332Y-12026674D02*
X11684379Y-12017150D01*
X11684379Y-12017150D02*
X11712951Y-12017150D01*
X11712951Y-12017150D02*
X11731999Y-12026674D01*
X11731999Y-12026674D02*
X11741522Y-12045722D01*
X11741522Y-12045722D02*
X11741522Y-12150484D01*
X12131999Y-11940960D02*
X11960570Y-12198103D01*
X12389141Y-11950484D02*
X12408189Y-11950484D01*
X12408189Y-11950484D02*
X12427237Y-11960008D01*
X12427237Y-11960008D02*
X12436761Y-11969531D01*
X12436761Y-11969531D02*
X12446284Y-11988579D01*
X12446284Y-11988579D02*
X12455808Y-12026674D01*
X12455808Y-12026674D02*
X12455808Y-12074293D01*
X12455808Y-12074293D02*
X12446284Y-12112388D01*
X12446284Y-12112388D02*
X12436761Y-12131436D01*
X12436761Y-12131436D02*
X12427237Y-12140960D01*
X12427237Y-12140960D02*
X12408189Y-12150484D01*
X12408189Y-12150484D02*
X12389141Y-12150484D01*
X12389141Y-12150484D02*
X12370094Y-12140960D01*
X12370094Y-12140960D02*
X12360570Y-12131436D01*
X12360570Y-12131436D02*
X12351046Y-12112388D01*
X12351046Y-12112388D02*
X12341522Y-12074293D01*
X12341522Y-12074293D02*
X12341522Y-12026674D01*
X12341522Y-12026674D02*
X12351046Y-11988579D01*
X12351046Y-11988579D02*
X12360570Y-11969531D01*
X12360570Y-11969531D02*
X12370094Y-11960008D01*
X12370094Y-11960008D02*
X12389141Y-11950484D01*
X12541522Y-12131436D02*
X12551046Y-12140960D01*
X12551046Y-12140960D02*
X12541522Y-12150484D01*
X12541522Y-12150484D02*
X12531999Y-12140960D01*
X12531999Y-12140960D02*
X12541522Y-12131436D01*
X12541522Y-12131436D02*
X12541522Y-12150484D01*
X12674856Y-11950484D02*
X12693903Y-11950484D01*
X12693903Y-11950484D02*
X12712951Y-11960008D01*
X12712951Y-11960008D02*
X12722475Y-11969531D01*
X12722475Y-11969531D02*
X12731999Y-11988579D01*
X12731999Y-11988579D02*
X12741522Y-12026674D01*
X12741522Y-12026674D02*
X12741522Y-12074293D01*
X12741522Y-12074293D02*
X12731999Y-12112388D01*
X12731999Y-12112388D02*
X12722475Y-12131436D01*
X12722475Y-12131436D02*
X12712951Y-12140960D01*
X12712951Y-12140960D02*
X12693903Y-12150484D01*
X12693903Y-12150484D02*
X12674856Y-12150484D01*
X12674856Y-12150484D02*
X12655808Y-12140960D01*
X12655808Y-12140960D02*
X12646284Y-12131436D01*
X12646284Y-12131436D02*
X12636761Y-12112388D01*
X12636761Y-12112388D02*
X12627237Y-12074293D01*
X12627237Y-12074293D02*
X12627237Y-12026674D01*
X12627237Y-12026674D02*
X12636761Y-11988579D01*
X12636761Y-11988579D02*
X12646284Y-11969531D01*
X12646284Y-11969531D02*
X12655808Y-11960008D01*
X12655808Y-11960008D02*
X12674856Y-11950484D01*
X12931999Y-12150484D02*
X12817713Y-12150484D01*
X12874856Y-12150484D02*
X12874856Y-11950484D01*
X12874856Y-11950484D02*
X12855808Y-11979055D01*
X12855808Y-11979055D02*
X12836761Y-11998103D01*
X12836761Y-11998103D02*
X12817713Y-12007627D01*
X12998665Y-11950484D02*
X13131999Y-11950484D01*
X13131999Y-11950484D02*
X13046284Y-12150484D01*
X13189142Y-11950484D02*
X13322475Y-11950484D01*
X13322475Y-11950484D02*
X13236761Y-12150484D01*
X13389142Y-11950484D02*
X13389142Y-11988579D01*
X13465332Y-11950484D02*
X13465332Y-11988579D01*
X13760570Y-12226674D02*
X13751046Y-12217150D01*
X13751046Y-12217150D02*
X13731999Y-12188579D01*
X13731999Y-12188579D02*
X13722475Y-12169531D01*
X13722475Y-12169531D02*
X13712951Y-12140960D01*
X13712951Y-12140960D02*
X13703427Y-12093341D01*
X13703427Y-12093341D02*
X13703427Y-12055246D01*
X13703427Y-12055246D02*
X13712951Y-12007627D01*
X13712951Y-12007627D02*
X13722475Y-11979055D01*
X13722475Y-11979055D02*
X13731999Y-11960008D01*
X13731999Y-11960008D02*
X13751046Y-11931436D01*
X13751046Y-11931436D02*
X13760570Y-11921912D01*
X13874856Y-11950484D02*
X13893904Y-11950484D01*
X13893904Y-11950484D02*
X13912951Y-11960008D01*
X13912951Y-11960008D02*
X13922475Y-11969531D01*
X13922475Y-11969531D02*
X13931999Y-11988579D01*
X13931999Y-11988579D02*
X13941523Y-12026674D01*
X13941523Y-12026674D02*
X13941523Y-12074293D01*
X13941523Y-12074293D02*
X13931999Y-12112388D01*
X13931999Y-12112388D02*
X13922475Y-12131436D01*
X13922475Y-12131436D02*
X13912951Y-12140960D01*
X13912951Y-12140960D02*
X13893904Y-12150484D01*
X13893904Y-12150484D02*
X13874856Y-12150484D01*
X13874856Y-12150484D02*
X13855808Y-12140960D01*
X13855808Y-12140960D02*
X13846284Y-12131436D01*
X13846284Y-12131436D02*
X13836761Y-12112388D01*
X13836761Y-12112388D02*
X13827237Y-12074293D01*
X13827237Y-12074293D02*
X13827237Y-12026674D01*
X13827237Y-12026674D02*
X13836761Y-11988579D01*
X13836761Y-11988579D02*
X13846284Y-11969531D01*
X13846284Y-11969531D02*
X13855808Y-11960008D01*
X13855808Y-11960008D02*
X13874856Y-11950484D01*
X14179618Y-12150484D02*
X14179618Y-11950484D01*
X14265332Y-12150484D02*
X14265332Y-12045722D01*
X14265332Y-12045722D02*
X14255808Y-12026674D01*
X14255808Y-12026674D02*
X14236761Y-12017150D01*
X14236761Y-12017150D02*
X14208189Y-12017150D01*
X14208189Y-12017150D02*
X14189142Y-12026674D01*
X14189142Y-12026674D02*
X14179618Y-12036198D01*
X14389142Y-12150484D02*
X14370094Y-12140960D01*
X14370094Y-12140960D02*
X14360570Y-12131436D01*
X14360570Y-12131436D02*
X14351046Y-12112388D01*
X14351046Y-12112388D02*
X14351046Y-12055246D01*
X14351046Y-12055246D02*
X14360570Y-12036198D01*
X14360570Y-12036198D02*
X14370094Y-12026674D01*
X14370094Y-12026674D02*
X14389142Y-12017150D01*
X14389142Y-12017150D02*
X14417713Y-12017150D01*
X14417713Y-12017150D02*
X14436761Y-12026674D01*
X14436761Y-12026674D02*
X14446285Y-12036198D01*
X14446285Y-12036198D02*
X14455808Y-12055246D01*
X14455808Y-12055246D02*
X14455808Y-12112388D01*
X14455808Y-12112388D02*
X14446285Y-12131436D01*
X14446285Y-12131436D02*
X14436761Y-12140960D01*
X14436761Y-12140960D02*
X14417713Y-12150484D01*
X14417713Y-12150484D02*
X14389142Y-12150484D01*
X14570094Y-12150484D02*
X14551046Y-12140960D01*
X14551046Y-12140960D02*
X14541523Y-12121912D01*
X14541523Y-12121912D02*
X14541523Y-11950484D01*
X14722475Y-12140960D02*
X14703427Y-12150484D01*
X14703427Y-12150484D02*
X14665332Y-12150484D01*
X14665332Y-12150484D02*
X14646285Y-12140960D01*
X14646285Y-12140960D02*
X14636761Y-12121912D01*
X14636761Y-12121912D02*
X14636761Y-12045722D01*
X14636761Y-12045722D02*
X14646285Y-12026674D01*
X14646285Y-12026674D02*
X14665332Y-12017150D01*
X14665332Y-12017150D02*
X14703427Y-12017150D01*
X14703427Y-12017150D02*
X14722475Y-12026674D01*
X14722475Y-12026674D02*
X14731999Y-12045722D01*
X14731999Y-12045722D02*
X14731999Y-12064769D01*
X14731999Y-12064769D02*
X14636761Y-12083817D01*
X14808189Y-12140960D02*
X14827237Y-12150484D01*
X14827237Y-12150484D02*
X14865332Y-12150484D01*
X14865332Y-12150484D02*
X14884380Y-12140960D01*
X14884380Y-12140960D02*
X14893904Y-12121912D01*
X14893904Y-12121912D02*
X14893904Y-12112388D01*
X14893904Y-12112388D02*
X14884380Y-12093341D01*
X14884380Y-12093341D02*
X14865332Y-12083817D01*
X14865332Y-12083817D02*
X14836761Y-12083817D01*
X14836761Y-12083817D02*
X14817713Y-12074293D01*
X14817713Y-12074293D02*
X14808189Y-12055246D01*
X14808189Y-12055246D02*
X14808189Y-12045722D01*
X14808189Y-12045722D02*
X14817713Y-12026674D01*
X14817713Y-12026674D02*
X14836761Y-12017150D01*
X14836761Y-12017150D02*
X14865332Y-12017150D01*
X14865332Y-12017150D02*
X14884380Y-12026674D01*
X15131999Y-12074293D02*
X15284380Y-12074293D01*
X15208189Y-12150484D02*
X15208189Y-11998103D01*
X15522475Y-11969531D02*
X15531999Y-11960008D01*
X15531999Y-11960008D02*
X15551047Y-11950484D01*
X15551047Y-11950484D02*
X15598666Y-11950484D01*
X15598666Y-11950484D02*
X15617713Y-11960008D01*
X15617713Y-11960008D02*
X15627237Y-11969531D01*
X15627237Y-11969531D02*
X15636761Y-11988579D01*
X15636761Y-11988579D02*
X15636761Y-12007627D01*
X15636761Y-12007627D02*
X15627237Y-12036198D01*
X15627237Y-12036198D02*
X15512951Y-12150484D01*
X15512951Y-12150484D02*
X15636761Y-12150484D01*
X15865332Y-12140960D02*
X15884380Y-12150484D01*
X15884380Y-12150484D02*
X15922475Y-12150484D01*
X15922475Y-12150484D02*
X15941523Y-12140960D01*
X15941523Y-12140960D02*
X15951047Y-12121912D01*
X15951047Y-12121912D02*
X15951047Y-12112388D01*
X15951047Y-12112388D02*
X15941523Y-12093341D01*
X15941523Y-12093341D02*
X15922475Y-12083817D01*
X15922475Y-12083817D02*
X15893904Y-12083817D01*
X15893904Y-12083817D02*
X15874856Y-12074293D01*
X15874856Y-12074293D02*
X15865332Y-12055246D01*
X15865332Y-12055246D02*
X15865332Y-12045722D01*
X15865332Y-12045722D02*
X15874856Y-12026674D01*
X15874856Y-12026674D02*
X15893904Y-12017150D01*
X15893904Y-12017150D02*
X15922475Y-12017150D01*
X15922475Y-12017150D02*
X15941523Y-12026674D01*
X16065332Y-12150484D02*
X16046285Y-12140960D01*
X16046285Y-12140960D02*
X16036761Y-12121912D01*
X16036761Y-12121912D02*
X16036761Y-11950484D01*
X16170094Y-12150484D02*
X16151047Y-12140960D01*
X16151047Y-12140960D02*
X16141523Y-12131436D01*
X16141523Y-12131436D02*
X16131999Y-12112388D01*
X16131999Y-12112388D02*
X16131999Y-12055246D01*
X16131999Y-12055246D02*
X16141523Y-12036198D01*
X16141523Y-12036198D02*
X16151047Y-12026674D01*
X16151047Y-12026674D02*
X16170094Y-12017150D01*
X16170094Y-12017150D02*
X16198666Y-12017150D01*
X16198666Y-12017150D02*
X16217713Y-12026674D01*
X16217713Y-12026674D02*
X16227237Y-12036198D01*
X16227237Y-12036198D02*
X16236761Y-12055246D01*
X16236761Y-12055246D02*
X16236761Y-12112388D01*
X16236761Y-12112388D02*
X16227237Y-12131436D01*
X16227237Y-12131436D02*
X16217713Y-12140960D01*
X16217713Y-12140960D02*
X16198666Y-12150484D01*
X16198666Y-12150484D02*
X16170094Y-12150484D01*
X16293904Y-12017150D02*
X16370094Y-12017150D01*
X16322475Y-11950484D02*
X16322475Y-12121912D01*
X16322475Y-12121912D02*
X16331999Y-12140960D01*
X16331999Y-12140960D02*
X16351047Y-12150484D01*
X16351047Y-12150484D02*
X16370094Y-12150484D01*
X16427237Y-12140960D02*
X16446285Y-12150484D01*
X16446285Y-12150484D02*
X16484380Y-12150484D01*
X16484380Y-12150484D02*
X16503428Y-12140960D01*
X16503428Y-12140960D02*
X16512951Y-12121912D01*
X16512951Y-12121912D02*
X16512951Y-12112388D01*
X16512951Y-12112388D02*
X16503428Y-12093341D01*
X16503428Y-12093341D02*
X16484380Y-12083817D01*
X16484380Y-12083817D02*
X16455809Y-12083817D01*
X16455809Y-12083817D02*
X16436761Y-12074293D01*
X16436761Y-12074293D02*
X16427237Y-12055246D01*
X16427237Y-12055246D02*
X16427237Y-12045722D01*
X16427237Y-12045722D02*
X16436761Y-12026674D01*
X16436761Y-12026674D02*
X16455809Y-12017150D01*
X16455809Y-12017150D02*
X16484380Y-12017150D01*
X16484380Y-12017150D02*
X16503428Y-12026674D01*
X16579618Y-12226674D02*
X16589142Y-12217150D01*
X16589142Y-12217150D02*
X16608190Y-12188579D01*
X16608190Y-12188579D02*
X16617713Y-12169531D01*
X16617713Y-12169531D02*
X16627237Y-12140960D01*
X16627237Y-12140960D02*
X16636761Y-12093341D01*
X16636761Y-12093341D02*
X16636761Y-12055246D01*
X16636761Y-12055246D02*
X16627237Y-12007627D01*
X16627237Y-12007627D02*
X16617713Y-11979055D01*
X16617713Y-11979055D02*
X16608190Y-11960008D01*
X16608190Y-11960008D02*
X16589142Y-11931436D01*
X16589142Y-11931436D02*
X16579618Y-11921912D01*
D14*
X10178185Y-12340678D02*
X10178185Y-12305322D01*
X10142830Y-12305322D01*
X10142830Y-12340678D01*
X10178185Y-12340678D01*
D11*
X10484379Y-12214484D02*
X10503427Y-12214484D01*
X10503427Y-12214484D02*
X10522475Y-12224008D01*
X10522475Y-12224008D02*
X10531999Y-12233531D01*
X10531999Y-12233531D02*
X10541522Y-12252579D01*
X10541522Y-12252579D02*
X10551046Y-12290674D01*
X10551046Y-12290674D02*
X10551046Y-12338293D01*
X10551046Y-12338293D02*
X10541522Y-12376388D01*
X10541522Y-12376388D02*
X10531999Y-12395436D01*
X10531999Y-12395436D02*
X10522475Y-12404960D01*
X10522475Y-12404960D02*
X10503427Y-12414484D01*
X10503427Y-12414484D02*
X10484379Y-12414484D01*
X10484379Y-12414484D02*
X10465332Y-12404960D01*
X10465332Y-12404960D02*
X10455808Y-12395436D01*
X10455808Y-12395436D02*
X10446284Y-12376388D01*
X10446284Y-12376388D02*
X10436760Y-12338293D01*
X10436760Y-12338293D02*
X10436760Y-12290674D01*
X10436760Y-12290674D02*
X10446284Y-12252579D01*
X10446284Y-12252579D02*
X10455808Y-12233531D01*
X10455808Y-12233531D02*
X10465332Y-12224008D01*
X10465332Y-12224008D02*
X10484379Y-12214484D01*
X10636760Y-12395436D02*
X10646284Y-12404960D01*
X10646284Y-12404960D02*
X10636760Y-12414484D01*
X10636760Y-12414484D02*
X10627237Y-12404960D01*
X10627237Y-12404960D02*
X10636760Y-12395436D01*
X10636760Y-12395436D02*
X10636760Y-12414484D01*
X10827237Y-12214484D02*
X10731999Y-12214484D01*
X10731999Y-12214484D02*
X10722475Y-12309722D01*
X10722475Y-12309722D02*
X10731999Y-12300198D01*
X10731999Y-12300198D02*
X10751046Y-12290674D01*
X10751046Y-12290674D02*
X10798665Y-12290674D01*
X10798665Y-12290674D02*
X10817713Y-12300198D01*
X10817713Y-12300198D02*
X10827237Y-12309722D01*
X10827237Y-12309722D02*
X10836760Y-12328769D01*
X10836760Y-12328769D02*
X10836760Y-12376388D01*
X10836760Y-12376388D02*
X10827237Y-12395436D01*
X10827237Y-12395436D02*
X10817713Y-12404960D01*
X10817713Y-12404960D02*
X10798665Y-12414484D01*
X10798665Y-12414484D02*
X10751046Y-12414484D01*
X10751046Y-12414484D02*
X10731999Y-12404960D01*
X10731999Y-12404960D02*
X10722475Y-12395436D01*
X10960570Y-12214484D02*
X10979618Y-12214484D01*
X10979618Y-12214484D02*
X10998665Y-12224008D01*
X10998665Y-12224008D02*
X11008189Y-12233531D01*
X11008189Y-12233531D02*
X11017713Y-12252579D01*
X11017713Y-12252579D02*
X11027237Y-12290674D01*
X11027237Y-12290674D02*
X11027237Y-12338293D01*
X11027237Y-12338293D02*
X11017713Y-12376388D01*
X11017713Y-12376388D02*
X11008189Y-12395436D01*
X11008189Y-12395436D02*
X10998665Y-12404960D01*
X10998665Y-12404960D02*
X10979618Y-12414484D01*
X10979618Y-12414484D02*
X10960570Y-12414484D01*
X10960570Y-12414484D02*
X10941522Y-12404960D01*
X10941522Y-12404960D02*
X10931999Y-12395436D01*
X10931999Y-12395436D02*
X10922475Y-12376388D01*
X10922475Y-12376388D02*
X10912951Y-12338293D01*
X10912951Y-12338293D02*
X10912951Y-12290674D01*
X10912951Y-12290674D02*
X10922475Y-12252579D01*
X10922475Y-12252579D02*
X10931999Y-12233531D01*
X10931999Y-12233531D02*
X10941522Y-12224008D01*
X10941522Y-12224008D02*
X10960570Y-12214484D01*
X11151046Y-12214484D02*
X11170094Y-12214484D01*
X11170094Y-12214484D02*
X11189141Y-12224008D01*
X11189141Y-12224008D02*
X11198665Y-12233531D01*
X11198665Y-12233531D02*
X11208189Y-12252579D01*
X11208189Y-12252579D02*
X11217713Y-12290674D01*
X11217713Y-12290674D02*
X11217713Y-12338293D01*
X11217713Y-12338293D02*
X11208189Y-12376388D01*
X11208189Y-12376388D02*
X11198665Y-12395436D01*
X11198665Y-12395436D02*
X11189141Y-12404960D01*
X11189141Y-12404960D02*
X11170094Y-12414484D01*
X11170094Y-12414484D02*
X11151046Y-12414484D01*
X11151046Y-12414484D02*
X11131999Y-12404960D01*
X11131999Y-12404960D02*
X11122475Y-12395436D01*
X11122475Y-12395436D02*
X11112951Y-12376388D01*
X11112951Y-12376388D02*
X11103427Y-12338293D01*
X11103427Y-12338293D02*
X11103427Y-12290674D01*
X11103427Y-12290674D02*
X11112951Y-12252579D01*
X11112951Y-12252579D02*
X11122475Y-12233531D01*
X11122475Y-12233531D02*
X11131999Y-12224008D01*
X11131999Y-12224008D02*
X11151046Y-12214484D01*
X11303427Y-12414484D02*
X11303427Y-12281150D01*
X11303427Y-12300198D02*
X11312951Y-12290674D01*
X11312951Y-12290674D02*
X11331998Y-12281150D01*
X11331998Y-12281150D02*
X11360570Y-12281150D01*
X11360570Y-12281150D02*
X11379618Y-12290674D01*
X11379618Y-12290674D02*
X11389141Y-12309722D01*
X11389141Y-12309722D02*
X11389141Y-12414484D01*
X11389141Y-12309722D02*
X11398665Y-12290674D01*
X11398665Y-12290674D02*
X11417713Y-12281150D01*
X11417713Y-12281150D02*
X11446284Y-12281150D01*
X11446284Y-12281150D02*
X11465332Y-12290674D01*
X11465332Y-12290674D02*
X11474856Y-12309722D01*
X11474856Y-12309722D02*
X11474856Y-12414484D01*
X11570094Y-12414484D02*
X11570094Y-12281150D01*
X11570094Y-12300198D02*
X11579618Y-12290674D01*
X11579618Y-12290674D02*
X11598665Y-12281150D01*
X11598665Y-12281150D02*
X11627237Y-12281150D01*
X11627237Y-12281150D02*
X11646284Y-12290674D01*
X11646284Y-12290674D02*
X11655808Y-12309722D01*
X11655808Y-12309722D02*
X11655808Y-12414484D01*
X11655808Y-12309722D02*
X11665332Y-12290674D01*
X11665332Y-12290674D02*
X11684379Y-12281150D01*
X11684379Y-12281150D02*
X11712951Y-12281150D01*
X11712951Y-12281150D02*
X11731999Y-12290674D01*
X11731999Y-12290674D02*
X11741522Y-12309722D01*
X11741522Y-12309722D02*
X11741522Y-12414484D01*
X12131999Y-12204960D02*
X11960570Y-12462103D01*
X12389141Y-12214484D02*
X12408189Y-12214484D01*
X12408189Y-12214484D02*
X12427237Y-12224008D01*
X12427237Y-12224008D02*
X12436761Y-12233531D01*
X12436761Y-12233531D02*
X12446284Y-12252579D01*
X12446284Y-12252579D02*
X12455808Y-12290674D01*
X12455808Y-12290674D02*
X12455808Y-12338293D01*
X12455808Y-12338293D02*
X12446284Y-12376388D01*
X12446284Y-12376388D02*
X12436761Y-12395436D01*
X12436761Y-12395436D02*
X12427237Y-12404960D01*
X12427237Y-12404960D02*
X12408189Y-12414484D01*
X12408189Y-12414484D02*
X12389141Y-12414484D01*
X12389141Y-12414484D02*
X12370094Y-12404960D01*
X12370094Y-12404960D02*
X12360570Y-12395436D01*
X12360570Y-12395436D02*
X12351046Y-12376388D01*
X12351046Y-12376388D02*
X12341522Y-12338293D01*
X12341522Y-12338293D02*
X12341522Y-12290674D01*
X12341522Y-12290674D02*
X12351046Y-12252579D01*
X12351046Y-12252579D02*
X12360570Y-12233531D01*
X12360570Y-12233531D02*
X12370094Y-12224008D01*
X12370094Y-12224008D02*
X12389141Y-12214484D01*
X12541522Y-12395436D02*
X12551046Y-12404960D01*
X12551046Y-12404960D02*
X12541522Y-12414484D01*
X12541522Y-12414484D02*
X12531999Y-12404960D01*
X12531999Y-12404960D02*
X12541522Y-12395436D01*
X12541522Y-12395436D02*
X12541522Y-12414484D01*
X12674856Y-12214484D02*
X12693903Y-12214484D01*
X12693903Y-12214484D02*
X12712951Y-12224008D01*
X12712951Y-12224008D02*
X12722475Y-12233531D01*
X12722475Y-12233531D02*
X12731999Y-12252579D01*
X12731999Y-12252579D02*
X12741522Y-12290674D01*
X12741522Y-12290674D02*
X12741522Y-12338293D01*
X12741522Y-12338293D02*
X12731999Y-12376388D01*
X12731999Y-12376388D02*
X12722475Y-12395436D01*
X12722475Y-12395436D02*
X12712951Y-12404960D01*
X12712951Y-12404960D02*
X12693903Y-12414484D01*
X12693903Y-12414484D02*
X12674856Y-12414484D01*
X12674856Y-12414484D02*
X12655808Y-12404960D01*
X12655808Y-12404960D02*
X12646284Y-12395436D01*
X12646284Y-12395436D02*
X12636761Y-12376388D01*
X12636761Y-12376388D02*
X12627237Y-12338293D01*
X12627237Y-12338293D02*
X12627237Y-12290674D01*
X12627237Y-12290674D02*
X12636761Y-12252579D01*
X12636761Y-12252579D02*
X12646284Y-12233531D01*
X12646284Y-12233531D02*
X12655808Y-12224008D01*
X12655808Y-12224008D02*
X12674856Y-12214484D01*
X12931999Y-12414484D02*
X12817713Y-12414484D01*
X12874856Y-12414484D02*
X12874856Y-12214484D01*
X12874856Y-12214484D02*
X12855808Y-12243055D01*
X12855808Y-12243055D02*
X12836761Y-12262103D01*
X12836761Y-12262103D02*
X12817713Y-12271627D01*
X13027237Y-12414484D02*
X13065332Y-12414484D01*
X13065332Y-12414484D02*
X13084380Y-12404960D01*
X13084380Y-12404960D02*
X13093903Y-12395436D01*
X13093903Y-12395436D02*
X13112951Y-12366865D01*
X13112951Y-12366865D02*
X13122475Y-12328769D01*
X13122475Y-12328769D02*
X13122475Y-12252579D01*
X13122475Y-12252579D02*
X13112951Y-12233531D01*
X13112951Y-12233531D02*
X13103427Y-12224008D01*
X13103427Y-12224008D02*
X13084380Y-12214484D01*
X13084380Y-12214484D02*
X13046284Y-12214484D01*
X13046284Y-12214484D02*
X13027237Y-12224008D01*
X13027237Y-12224008D02*
X13017713Y-12233531D01*
X13017713Y-12233531D02*
X13008189Y-12252579D01*
X13008189Y-12252579D02*
X13008189Y-12300198D01*
X13008189Y-12300198D02*
X13017713Y-12319246D01*
X13017713Y-12319246D02*
X13027237Y-12328769D01*
X13027237Y-12328769D02*
X13046284Y-12338293D01*
X13046284Y-12338293D02*
X13084380Y-12338293D01*
X13084380Y-12338293D02*
X13103427Y-12328769D01*
X13103427Y-12328769D02*
X13112951Y-12319246D01*
X13112951Y-12319246D02*
X13122475Y-12300198D01*
X13189142Y-12214484D02*
X13322475Y-12214484D01*
X13322475Y-12214484D02*
X13236761Y-12414484D01*
X13389142Y-12214484D02*
X13389142Y-12252579D01*
X13465332Y-12214484D02*
X13465332Y-12252579D01*
X13760570Y-12490674D02*
X13751046Y-12481150D01*
X13751046Y-12481150D02*
X13731999Y-12452579D01*
X13731999Y-12452579D02*
X13722475Y-12433531D01*
X13722475Y-12433531D02*
X13712951Y-12404960D01*
X13712951Y-12404960D02*
X13703427Y-12357341D01*
X13703427Y-12357341D02*
X13703427Y-12319246D01*
X13703427Y-12319246D02*
X13712951Y-12271627D01*
X13712951Y-12271627D02*
X13722475Y-12243055D01*
X13722475Y-12243055D02*
X13731999Y-12224008D01*
X13731999Y-12224008D02*
X13751046Y-12195436D01*
X13751046Y-12195436D02*
X13760570Y-12185912D01*
X13827237Y-12233531D02*
X13836761Y-12224008D01*
X13836761Y-12224008D02*
X13855808Y-12214484D01*
X13855808Y-12214484D02*
X13903427Y-12214484D01*
X13903427Y-12214484D02*
X13922475Y-12224008D01*
X13922475Y-12224008D02*
X13931999Y-12233531D01*
X13931999Y-12233531D02*
X13941523Y-12252579D01*
X13941523Y-12252579D02*
X13941523Y-12271627D01*
X13941523Y-12271627D02*
X13931999Y-12300198D01*
X13931999Y-12300198D02*
X13817713Y-12414484D01*
X13817713Y-12414484D02*
X13941523Y-12414484D01*
X14112951Y-12214484D02*
X14074856Y-12214484D01*
X14074856Y-12214484D02*
X14055808Y-12224008D01*
X14055808Y-12224008D02*
X14046284Y-12233531D01*
X14046284Y-12233531D02*
X14027237Y-12262103D01*
X14027237Y-12262103D02*
X14017713Y-12300198D01*
X14017713Y-12300198D02*
X14017713Y-12376388D01*
X14017713Y-12376388D02*
X14027237Y-12395436D01*
X14027237Y-12395436D02*
X14036761Y-12404960D01*
X14036761Y-12404960D02*
X14055808Y-12414484D01*
X14055808Y-12414484D02*
X14093904Y-12414484D01*
X14093904Y-12414484D02*
X14112951Y-12404960D01*
X14112951Y-12404960D02*
X14122475Y-12395436D01*
X14122475Y-12395436D02*
X14131999Y-12376388D01*
X14131999Y-12376388D02*
X14131999Y-12328769D01*
X14131999Y-12328769D02*
X14122475Y-12309722D01*
X14122475Y-12309722D02*
X14112951Y-12300198D01*
X14112951Y-12300198D02*
X14093904Y-12290674D01*
X14093904Y-12290674D02*
X14055808Y-12290674D01*
X14055808Y-12290674D02*
X14036761Y-12300198D01*
X14036761Y-12300198D02*
X14027237Y-12309722D01*
X14027237Y-12309722D02*
X14017713Y-12328769D01*
X14370094Y-12414484D02*
X14370094Y-12214484D01*
X14455808Y-12414484D02*
X14455808Y-12309722D01*
X14455808Y-12309722D02*
X14446285Y-12290674D01*
X14446285Y-12290674D02*
X14427237Y-12281150D01*
X14427237Y-12281150D02*
X14398665Y-12281150D01*
X14398665Y-12281150D02*
X14379618Y-12290674D01*
X14379618Y-12290674D02*
X14370094Y-12300198D01*
X14579618Y-12414484D02*
X14560570Y-12404960D01*
X14560570Y-12404960D02*
X14551046Y-12395436D01*
X14551046Y-12395436D02*
X14541523Y-12376388D01*
X14541523Y-12376388D02*
X14541523Y-12319246D01*
X14541523Y-12319246D02*
X14551046Y-12300198D01*
X14551046Y-12300198D02*
X14560570Y-12290674D01*
X14560570Y-12290674D02*
X14579618Y-12281150D01*
X14579618Y-12281150D02*
X14608189Y-12281150D01*
X14608189Y-12281150D02*
X14627237Y-12290674D01*
X14627237Y-12290674D02*
X14636761Y-12300198D01*
X14636761Y-12300198D02*
X14646285Y-12319246D01*
X14646285Y-12319246D02*
X14646285Y-12376388D01*
X14646285Y-12376388D02*
X14636761Y-12395436D01*
X14636761Y-12395436D02*
X14627237Y-12404960D01*
X14627237Y-12404960D02*
X14608189Y-12414484D01*
X14608189Y-12414484D02*
X14579618Y-12414484D01*
X14760570Y-12414484D02*
X14741523Y-12404960D01*
X14741523Y-12404960D02*
X14731999Y-12385912D01*
X14731999Y-12385912D02*
X14731999Y-12214484D01*
X14912951Y-12404960D02*
X14893904Y-12414484D01*
X14893904Y-12414484D02*
X14855808Y-12414484D01*
X14855808Y-12414484D02*
X14836761Y-12404960D01*
X14836761Y-12404960D02*
X14827237Y-12385912D01*
X14827237Y-12385912D02*
X14827237Y-12309722D01*
X14827237Y-12309722D02*
X14836761Y-12290674D01*
X14836761Y-12290674D02*
X14855808Y-12281150D01*
X14855808Y-12281150D02*
X14893904Y-12281150D01*
X14893904Y-12281150D02*
X14912951Y-12290674D01*
X14912951Y-12290674D02*
X14922475Y-12309722D01*
X14922475Y-12309722D02*
X14922475Y-12328769D01*
X14922475Y-12328769D02*
X14827237Y-12347817D01*
X14998666Y-12404960D02*
X15017713Y-12414484D01*
X15017713Y-12414484D02*
X15055808Y-12414484D01*
X15055808Y-12414484D02*
X15074856Y-12404960D01*
X15074856Y-12404960D02*
X15084380Y-12385912D01*
X15084380Y-12385912D02*
X15084380Y-12376388D01*
X15084380Y-12376388D02*
X15074856Y-12357341D01*
X15074856Y-12357341D02*
X15055808Y-12347817D01*
X15055808Y-12347817D02*
X15027237Y-12347817D01*
X15027237Y-12347817D02*
X15008189Y-12338293D01*
X15008189Y-12338293D02*
X14998666Y-12319246D01*
X14998666Y-12319246D02*
X14998666Y-12309722D01*
X14998666Y-12309722D02*
X15008189Y-12290674D01*
X15008189Y-12290674D02*
X15027237Y-12281150D01*
X15027237Y-12281150D02*
X15055808Y-12281150D01*
X15055808Y-12281150D02*
X15074856Y-12290674D01*
X15322475Y-12338293D02*
X15474856Y-12338293D01*
X15398666Y-12414484D02*
X15398666Y-12262103D01*
X15712951Y-12233531D02*
X15722475Y-12224008D01*
X15722475Y-12224008D02*
X15741523Y-12214484D01*
X15741523Y-12214484D02*
X15789142Y-12214484D01*
X15789142Y-12214484D02*
X15808189Y-12224008D01*
X15808189Y-12224008D02*
X15817713Y-12233531D01*
X15817713Y-12233531D02*
X15827237Y-12252579D01*
X15827237Y-12252579D02*
X15827237Y-12271627D01*
X15827237Y-12271627D02*
X15817713Y-12300198D01*
X15817713Y-12300198D02*
X15703428Y-12414484D01*
X15703428Y-12414484D02*
X15827237Y-12414484D01*
X16055809Y-12404960D02*
X16074856Y-12414484D01*
X16074856Y-12414484D02*
X16112951Y-12414484D01*
X16112951Y-12414484D02*
X16131999Y-12404960D01*
X16131999Y-12404960D02*
X16141523Y-12385912D01*
X16141523Y-12385912D02*
X16141523Y-12376388D01*
X16141523Y-12376388D02*
X16131999Y-12357341D01*
X16131999Y-12357341D02*
X16112951Y-12347817D01*
X16112951Y-12347817D02*
X16084380Y-12347817D01*
X16084380Y-12347817D02*
X16065332Y-12338293D01*
X16065332Y-12338293D02*
X16055809Y-12319246D01*
X16055809Y-12319246D02*
X16055809Y-12309722D01*
X16055809Y-12309722D02*
X16065332Y-12290674D01*
X16065332Y-12290674D02*
X16084380Y-12281150D01*
X16084380Y-12281150D02*
X16112951Y-12281150D01*
X16112951Y-12281150D02*
X16131999Y-12290674D01*
X16255809Y-12414484D02*
X16236761Y-12404960D01*
X16236761Y-12404960D02*
X16227237Y-12385912D01*
X16227237Y-12385912D02*
X16227237Y-12214484D01*
X16360570Y-12414484D02*
X16341523Y-12404960D01*
X16341523Y-12404960D02*
X16331999Y-12395436D01*
X16331999Y-12395436D02*
X16322475Y-12376388D01*
X16322475Y-12376388D02*
X16322475Y-12319246D01*
X16322475Y-12319246D02*
X16331999Y-12300198D01*
X16331999Y-12300198D02*
X16341523Y-12290674D01*
X16341523Y-12290674D02*
X16360570Y-12281150D01*
X16360570Y-12281150D02*
X16389142Y-12281150D01*
X16389142Y-12281150D02*
X16408190Y-12290674D01*
X16408190Y-12290674D02*
X16417713Y-12300198D01*
X16417713Y-12300198D02*
X16427237Y-12319246D01*
X16427237Y-12319246D02*
X16427237Y-12376388D01*
X16427237Y-12376388D02*
X16417713Y-12395436D01*
X16417713Y-12395436D02*
X16408190Y-12404960D01*
X16408190Y-12404960D02*
X16389142Y-12414484D01*
X16389142Y-12414484D02*
X16360570Y-12414484D01*
X16484380Y-12281150D02*
X16560570Y-12281150D01*
X16512951Y-12214484D02*
X16512951Y-12385912D01*
X16512951Y-12385912D02*
X16522475Y-12404960D01*
X16522475Y-12404960D02*
X16541523Y-12414484D01*
X16541523Y-12414484D02*
X16560570Y-12414484D01*
X16617713Y-12404960D02*
X16636761Y-12414484D01*
X16636761Y-12414484D02*
X16674856Y-12414484D01*
X16674856Y-12414484D02*
X16693904Y-12404960D01*
X16693904Y-12404960D02*
X16703428Y-12385912D01*
X16703428Y-12385912D02*
X16703428Y-12376388D01*
X16703428Y-12376388D02*
X16693904Y-12357341D01*
X16693904Y-12357341D02*
X16674856Y-12347817D01*
X16674856Y-12347817D02*
X16646285Y-12347817D01*
X16646285Y-12347817D02*
X16627237Y-12338293D01*
X16627237Y-12338293D02*
X16617713Y-12319246D01*
X16617713Y-12319246D02*
X16617713Y-12309722D01*
X16617713Y-12309722D02*
X16627237Y-12290674D01*
X16627237Y-12290674D02*
X16646285Y-12281150D01*
X16646285Y-12281150D02*
X16674856Y-12281150D01*
X16674856Y-12281150D02*
X16693904Y-12290674D01*
X16770094Y-12490674D02*
X16779618Y-12481150D01*
X16779618Y-12481150D02*
X16798666Y-12452579D01*
X16798666Y-12452579D02*
X16808190Y-12433531D01*
X16808190Y-12433531D02*
X16817713Y-12404960D01*
X16817713Y-12404960D02*
X16827237Y-12357341D01*
X16827237Y-12357341D02*
X16827237Y-12319246D01*
X16827237Y-12319246D02*
X16817713Y-12271627D01*
X16817713Y-12271627D02*
X16808190Y-12243055D01*
X16808190Y-12243055D02*
X16798666Y-12224008D01*
X16798666Y-12224008D02*
X16779618Y-12195436D01*
X16779618Y-12195436D02*
X16770094Y-12185912D01*
D15*
X10153007Y-12619500D02*
X10185507Y-12587000D01*
X10153007Y-12554500D01*
X10120507Y-12587000D01*
X10153007Y-12619500D01*
D11*
X10484379Y-12478484D02*
X10503427Y-12478484D01*
X10503427Y-12478484D02*
X10522475Y-12488008D01*
X10522475Y-12488008D02*
X10531999Y-12497531D01*
X10531999Y-12497531D02*
X10541522Y-12516579D01*
X10541522Y-12516579D02*
X10551046Y-12554674D01*
X10551046Y-12554674D02*
X10551046Y-12602293D01*
X10551046Y-12602293D02*
X10541522Y-12640388D01*
X10541522Y-12640388D02*
X10531999Y-12659436D01*
X10531999Y-12659436D02*
X10522475Y-12668960D01*
X10522475Y-12668960D02*
X10503427Y-12678484D01*
X10503427Y-12678484D02*
X10484379Y-12678484D01*
X10484379Y-12678484D02*
X10465332Y-12668960D01*
X10465332Y-12668960D02*
X10455808Y-12659436D01*
X10455808Y-12659436D02*
X10446284Y-12640388D01*
X10446284Y-12640388D02*
X10436760Y-12602293D01*
X10436760Y-12602293D02*
X10436760Y-12554674D01*
X10436760Y-12554674D02*
X10446284Y-12516579D01*
X10446284Y-12516579D02*
X10455808Y-12497531D01*
X10455808Y-12497531D02*
X10465332Y-12488008D01*
X10465332Y-12488008D02*
X10484379Y-12478484D01*
X10636760Y-12659436D02*
X10646284Y-12668960D01*
X10646284Y-12668960D02*
X10636760Y-12678484D01*
X10636760Y-12678484D02*
X10627237Y-12668960D01*
X10627237Y-12668960D02*
X10636760Y-12659436D01*
X10636760Y-12659436D02*
X10636760Y-12678484D01*
X10817713Y-12478484D02*
X10779618Y-12478484D01*
X10779618Y-12478484D02*
X10760570Y-12488008D01*
X10760570Y-12488008D02*
X10751046Y-12497531D01*
X10751046Y-12497531D02*
X10731999Y-12526103D01*
X10731999Y-12526103D02*
X10722475Y-12564198D01*
X10722475Y-12564198D02*
X10722475Y-12640388D01*
X10722475Y-12640388D02*
X10731999Y-12659436D01*
X10731999Y-12659436D02*
X10741522Y-12668960D01*
X10741522Y-12668960D02*
X10760570Y-12678484D01*
X10760570Y-12678484D02*
X10798665Y-12678484D01*
X10798665Y-12678484D02*
X10817713Y-12668960D01*
X10817713Y-12668960D02*
X10827237Y-12659436D01*
X10827237Y-12659436D02*
X10836760Y-12640388D01*
X10836760Y-12640388D02*
X10836760Y-12592769D01*
X10836760Y-12592769D02*
X10827237Y-12573722D01*
X10827237Y-12573722D02*
X10817713Y-12564198D01*
X10817713Y-12564198D02*
X10798665Y-12554674D01*
X10798665Y-12554674D02*
X10760570Y-12554674D01*
X10760570Y-12554674D02*
X10741522Y-12564198D01*
X10741522Y-12564198D02*
X10731999Y-12573722D01*
X10731999Y-12573722D02*
X10722475Y-12592769D01*
X11017713Y-12478484D02*
X10922475Y-12478484D01*
X10922475Y-12478484D02*
X10912951Y-12573722D01*
X10912951Y-12573722D02*
X10922475Y-12564198D01*
X10922475Y-12564198D02*
X10941522Y-12554674D01*
X10941522Y-12554674D02*
X10989141Y-12554674D01*
X10989141Y-12554674D02*
X11008189Y-12564198D01*
X11008189Y-12564198D02*
X11017713Y-12573722D01*
X11017713Y-12573722D02*
X11027237Y-12592769D01*
X11027237Y-12592769D02*
X11027237Y-12640388D01*
X11027237Y-12640388D02*
X11017713Y-12659436D01*
X11017713Y-12659436D02*
X11008189Y-12668960D01*
X11008189Y-12668960D02*
X10989141Y-12678484D01*
X10989141Y-12678484D02*
X10941522Y-12678484D01*
X10941522Y-12678484D02*
X10922475Y-12668960D01*
X10922475Y-12668960D02*
X10912951Y-12659436D01*
X11151046Y-12478484D02*
X11170094Y-12478484D01*
X11170094Y-12478484D02*
X11189141Y-12488008D01*
X11189141Y-12488008D02*
X11198665Y-12497531D01*
X11198665Y-12497531D02*
X11208189Y-12516579D01*
X11208189Y-12516579D02*
X11217713Y-12554674D01*
X11217713Y-12554674D02*
X11217713Y-12602293D01*
X11217713Y-12602293D02*
X11208189Y-12640388D01*
X11208189Y-12640388D02*
X11198665Y-12659436D01*
X11198665Y-12659436D02*
X11189141Y-12668960D01*
X11189141Y-12668960D02*
X11170094Y-12678484D01*
X11170094Y-12678484D02*
X11151046Y-12678484D01*
X11151046Y-12678484D02*
X11131999Y-12668960D01*
X11131999Y-12668960D02*
X11122475Y-12659436D01*
X11122475Y-12659436D02*
X11112951Y-12640388D01*
X11112951Y-12640388D02*
X11103427Y-12602293D01*
X11103427Y-12602293D02*
X11103427Y-12554674D01*
X11103427Y-12554674D02*
X11112951Y-12516579D01*
X11112951Y-12516579D02*
X11122475Y-12497531D01*
X11122475Y-12497531D02*
X11131999Y-12488008D01*
X11131999Y-12488008D02*
X11151046Y-12478484D01*
X11303427Y-12678484D02*
X11303427Y-12545150D01*
X11303427Y-12564198D02*
X11312951Y-12554674D01*
X11312951Y-12554674D02*
X11331998Y-12545150D01*
X11331998Y-12545150D02*
X11360570Y-12545150D01*
X11360570Y-12545150D02*
X11379618Y-12554674D01*
X11379618Y-12554674D02*
X11389141Y-12573722D01*
X11389141Y-12573722D02*
X11389141Y-12678484D01*
X11389141Y-12573722D02*
X11398665Y-12554674D01*
X11398665Y-12554674D02*
X11417713Y-12545150D01*
X11417713Y-12545150D02*
X11446284Y-12545150D01*
X11446284Y-12545150D02*
X11465332Y-12554674D01*
X11465332Y-12554674D02*
X11474856Y-12573722D01*
X11474856Y-12573722D02*
X11474856Y-12678484D01*
X11570094Y-12678484D02*
X11570094Y-12545150D01*
X11570094Y-12564198D02*
X11579618Y-12554674D01*
X11579618Y-12554674D02*
X11598665Y-12545150D01*
X11598665Y-12545150D02*
X11627237Y-12545150D01*
X11627237Y-12545150D02*
X11646284Y-12554674D01*
X11646284Y-12554674D02*
X11655808Y-12573722D01*
X11655808Y-12573722D02*
X11655808Y-12678484D01*
X11655808Y-12573722D02*
X11665332Y-12554674D01*
X11665332Y-12554674D02*
X11684379Y-12545150D01*
X11684379Y-12545150D02*
X11712951Y-12545150D01*
X11712951Y-12545150D02*
X11731999Y-12554674D01*
X11731999Y-12554674D02*
X11741522Y-12573722D01*
X11741522Y-12573722D02*
X11741522Y-12678484D01*
X12131999Y-12468960D02*
X11960570Y-12726103D01*
X12389141Y-12478484D02*
X12408189Y-12478484D01*
X12408189Y-12478484D02*
X12427237Y-12488008D01*
X12427237Y-12488008D02*
X12436761Y-12497531D01*
X12436761Y-12497531D02*
X12446284Y-12516579D01*
X12446284Y-12516579D02*
X12455808Y-12554674D01*
X12455808Y-12554674D02*
X12455808Y-12602293D01*
X12455808Y-12602293D02*
X12446284Y-12640388D01*
X12446284Y-12640388D02*
X12436761Y-12659436D01*
X12436761Y-12659436D02*
X12427237Y-12668960D01*
X12427237Y-12668960D02*
X12408189Y-12678484D01*
X12408189Y-12678484D02*
X12389141Y-12678484D01*
X12389141Y-12678484D02*
X12370094Y-12668960D01*
X12370094Y-12668960D02*
X12360570Y-12659436D01*
X12360570Y-12659436D02*
X12351046Y-12640388D01*
X12351046Y-12640388D02*
X12341522Y-12602293D01*
X12341522Y-12602293D02*
X12341522Y-12554674D01*
X12341522Y-12554674D02*
X12351046Y-12516579D01*
X12351046Y-12516579D02*
X12360570Y-12497531D01*
X12360570Y-12497531D02*
X12370094Y-12488008D01*
X12370094Y-12488008D02*
X12389141Y-12478484D01*
X12541522Y-12659436D02*
X12551046Y-12668960D01*
X12551046Y-12668960D02*
X12541522Y-12678484D01*
X12541522Y-12678484D02*
X12531999Y-12668960D01*
X12531999Y-12668960D02*
X12541522Y-12659436D01*
X12541522Y-12659436D02*
X12541522Y-12678484D01*
X12674856Y-12478484D02*
X12693903Y-12478484D01*
X12693903Y-12478484D02*
X12712951Y-12488008D01*
X12712951Y-12488008D02*
X12722475Y-12497531D01*
X12722475Y-12497531D02*
X12731999Y-12516579D01*
X12731999Y-12516579D02*
X12741522Y-12554674D01*
X12741522Y-12554674D02*
X12741522Y-12602293D01*
X12741522Y-12602293D02*
X12731999Y-12640388D01*
X12731999Y-12640388D02*
X12722475Y-12659436D01*
X12722475Y-12659436D02*
X12712951Y-12668960D01*
X12712951Y-12668960D02*
X12693903Y-12678484D01*
X12693903Y-12678484D02*
X12674856Y-12678484D01*
X12674856Y-12678484D02*
X12655808Y-12668960D01*
X12655808Y-12668960D02*
X12646284Y-12659436D01*
X12646284Y-12659436D02*
X12636761Y-12640388D01*
X12636761Y-12640388D02*
X12627237Y-12602293D01*
X12627237Y-12602293D02*
X12627237Y-12554674D01*
X12627237Y-12554674D02*
X12636761Y-12516579D01*
X12636761Y-12516579D02*
X12646284Y-12497531D01*
X12646284Y-12497531D02*
X12655808Y-12488008D01*
X12655808Y-12488008D02*
X12674856Y-12478484D01*
X12817713Y-12497531D02*
X12827237Y-12488008D01*
X12827237Y-12488008D02*
X12846284Y-12478484D01*
X12846284Y-12478484D02*
X12893903Y-12478484D01*
X12893903Y-12478484D02*
X12912951Y-12488008D01*
X12912951Y-12488008D02*
X12922475Y-12497531D01*
X12922475Y-12497531D02*
X12931999Y-12516579D01*
X12931999Y-12516579D02*
X12931999Y-12535627D01*
X12931999Y-12535627D02*
X12922475Y-12564198D01*
X12922475Y-12564198D02*
X12808189Y-12678484D01*
X12808189Y-12678484D02*
X12931999Y-12678484D01*
X13112951Y-12478484D02*
X13017713Y-12478484D01*
X13017713Y-12478484D02*
X13008189Y-12573722D01*
X13008189Y-12573722D02*
X13017713Y-12564198D01*
X13017713Y-12564198D02*
X13036761Y-12554674D01*
X13036761Y-12554674D02*
X13084380Y-12554674D01*
X13084380Y-12554674D02*
X13103427Y-12564198D01*
X13103427Y-12564198D02*
X13112951Y-12573722D01*
X13112951Y-12573722D02*
X13122475Y-12592769D01*
X13122475Y-12592769D02*
X13122475Y-12640388D01*
X13122475Y-12640388D02*
X13112951Y-12659436D01*
X13112951Y-12659436D02*
X13103427Y-12668960D01*
X13103427Y-12668960D02*
X13084380Y-12678484D01*
X13084380Y-12678484D02*
X13036761Y-12678484D01*
X13036761Y-12678484D02*
X13017713Y-12668960D01*
X13017713Y-12668960D02*
X13008189Y-12659436D01*
X13293903Y-12478484D02*
X13255808Y-12478484D01*
X13255808Y-12478484D02*
X13236761Y-12488008D01*
X13236761Y-12488008D02*
X13227237Y-12497531D01*
X13227237Y-12497531D02*
X13208189Y-12526103D01*
X13208189Y-12526103D02*
X13198665Y-12564198D01*
X13198665Y-12564198D02*
X13198665Y-12640388D01*
X13198665Y-12640388D02*
X13208189Y-12659436D01*
X13208189Y-12659436D02*
X13217713Y-12668960D01*
X13217713Y-12668960D02*
X13236761Y-12678484D01*
X13236761Y-12678484D02*
X13274856Y-12678484D01*
X13274856Y-12678484D02*
X13293903Y-12668960D01*
X13293903Y-12668960D02*
X13303427Y-12659436D01*
X13303427Y-12659436D02*
X13312951Y-12640388D01*
X13312951Y-12640388D02*
X13312951Y-12592769D01*
X13312951Y-12592769D02*
X13303427Y-12573722D01*
X13303427Y-12573722D02*
X13293903Y-12564198D01*
X13293903Y-12564198D02*
X13274856Y-12554674D01*
X13274856Y-12554674D02*
X13236761Y-12554674D01*
X13236761Y-12554674D02*
X13217713Y-12564198D01*
X13217713Y-12564198D02*
X13208189Y-12573722D01*
X13208189Y-12573722D02*
X13198665Y-12592769D01*
X13389142Y-12478484D02*
X13389142Y-12516579D01*
X13465332Y-12478484D02*
X13465332Y-12516579D01*
X13760570Y-12754674D02*
X13751046Y-12745150D01*
X13751046Y-12745150D02*
X13731999Y-12716579D01*
X13731999Y-12716579D02*
X13722475Y-12697531D01*
X13722475Y-12697531D02*
X13712951Y-12668960D01*
X13712951Y-12668960D02*
X13703427Y-12621341D01*
X13703427Y-12621341D02*
X13703427Y-12583246D01*
X13703427Y-12583246D02*
X13712951Y-12535627D01*
X13712951Y-12535627D02*
X13722475Y-12507055D01*
X13722475Y-12507055D02*
X13731999Y-12488008D01*
X13731999Y-12488008D02*
X13751046Y-12459436D01*
X13751046Y-12459436D02*
X13760570Y-12449912D01*
X13827237Y-12497531D02*
X13836761Y-12488008D01*
X13836761Y-12488008D02*
X13855808Y-12478484D01*
X13855808Y-12478484D02*
X13903427Y-12478484D01*
X13903427Y-12478484D02*
X13922475Y-12488008D01*
X13922475Y-12488008D02*
X13931999Y-12497531D01*
X13931999Y-12497531D02*
X13941523Y-12516579D01*
X13941523Y-12516579D02*
X13941523Y-12535627D01*
X13941523Y-12535627D02*
X13931999Y-12564198D01*
X13931999Y-12564198D02*
X13817713Y-12678484D01*
X13817713Y-12678484D02*
X13941523Y-12678484D01*
X14065332Y-12478484D02*
X14084380Y-12478484D01*
X14084380Y-12478484D02*
X14103427Y-12488008D01*
X14103427Y-12488008D02*
X14112951Y-12497531D01*
X14112951Y-12497531D02*
X14122475Y-12516579D01*
X14122475Y-12516579D02*
X14131999Y-12554674D01*
X14131999Y-12554674D02*
X14131999Y-12602293D01*
X14131999Y-12602293D02*
X14122475Y-12640388D01*
X14122475Y-12640388D02*
X14112951Y-12659436D01*
X14112951Y-12659436D02*
X14103427Y-12668960D01*
X14103427Y-12668960D02*
X14084380Y-12678484D01*
X14084380Y-12678484D02*
X14065332Y-12678484D01*
X14065332Y-12678484D02*
X14046284Y-12668960D01*
X14046284Y-12668960D02*
X14036761Y-12659436D01*
X14036761Y-12659436D02*
X14027237Y-12640388D01*
X14027237Y-12640388D02*
X14017713Y-12602293D01*
X14017713Y-12602293D02*
X14017713Y-12554674D01*
X14017713Y-12554674D02*
X14027237Y-12516579D01*
X14027237Y-12516579D02*
X14036761Y-12497531D01*
X14036761Y-12497531D02*
X14046284Y-12488008D01*
X14046284Y-12488008D02*
X14065332Y-12478484D01*
X14370094Y-12678484D02*
X14370094Y-12478484D01*
X14455808Y-12678484D02*
X14455808Y-12573722D01*
X14455808Y-12573722D02*
X14446285Y-12554674D01*
X14446285Y-12554674D02*
X14427237Y-12545150D01*
X14427237Y-12545150D02*
X14398665Y-12545150D01*
X14398665Y-12545150D02*
X14379618Y-12554674D01*
X14379618Y-12554674D02*
X14370094Y-12564198D01*
X14579618Y-12678484D02*
X14560570Y-12668960D01*
X14560570Y-12668960D02*
X14551046Y-12659436D01*
X14551046Y-12659436D02*
X14541523Y-12640388D01*
X14541523Y-12640388D02*
X14541523Y-12583246D01*
X14541523Y-12583246D02*
X14551046Y-12564198D01*
X14551046Y-12564198D02*
X14560570Y-12554674D01*
X14560570Y-12554674D02*
X14579618Y-12545150D01*
X14579618Y-12545150D02*
X14608189Y-12545150D01*
X14608189Y-12545150D02*
X14627237Y-12554674D01*
X14627237Y-12554674D02*
X14636761Y-12564198D01*
X14636761Y-12564198D02*
X14646285Y-12583246D01*
X14646285Y-12583246D02*
X14646285Y-12640388D01*
X14646285Y-12640388D02*
X14636761Y-12659436D01*
X14636761Y-12659436D02*
X14627237Y-12668960D01*
X14627237Y-12668960D02*
X14608189Y-12678484D01*
X14608189Y-12678484D02*
X14579618Y-12678484D01*
X14760570Y-12678484D02*
X14741523Y-12668960D01*
X14741523Y-12668960D02*
X14731999Y-12649912D01*
X14731999Y-12649912D02*
X14731999Y-12478484D01*
X14912951Y-12668960D02*
X14893904Y-12678484D01*
X14893904Y-12678484D02*
X14855808Y-12678484D01*
X14855808Y-12678484D02*
X14836761Y-12668960D01*
X14836761Y-12668960D02*
X14827237Y-12649912D01*
X14827237Y-12649912D02*
X14827237Y-12573722D01*
X14827237Y-12573722D02*
X14836761Y-12554674D01*
X14836761Y-12554674D02*
X14855808Y-12545150D01*
X14855808Y-12545150D02*
X14893904Y-12545150D01*
X14893904Y-12545150D02*
X14912951Y-12554674D01*
X14912951Y-12554674D02*
X14922475Y-12573722D01*
X14922475Y-12573722D02*
X14922475Y-12592769D01*
X14922475Y-12592769D02*
X14827237Y-12611817D01*
X14998666Y-12668960D02*
X15017713Y-12678484D01*
X15017713Y-12678484D02*
X15055808Y-12678484D01*
X15055808Y-12678484D02*
X15074856Y-12668960D01*
X15074856Y-12668960D02*
X15084380Y-12649912D01*
X15084380Y-12649912D02*
X15084380Y-12640388D01*
X15084380Y-12640388D02*
X15074856Y-12621341D01*
X15074856Y-12621341D02*
X15055808Y-12611817D01*
X15055808Y-12611817D02*
X15027237Y-12611817D01*
X15027237Y-12611817D02*
X15008189Y-12602293D01*
X15008189Y-12602293D02*
X14998666Y-12583246D01*
X14998666Y-12583246D02*
X14998666Y-12573722D01*
X14998666Y-12573722D02*
X15008189Y-12554674D01*
X15008189Y-12554674D02*
X15027237Y-12545150D01*
X15027237Y-12545150D02*
X15055808Y-12545150D01*
X15055808Y-12545150D02*
X15074856Y-12554674D01*
X15151047Y-12754674D02*
X15160570Y-12745150D01*
X15160570Y-12745150D02*
X15179618Y-12716579D01*
X15179618Y-12716579D02*
X15189142Y-12697531D01*
X15189142Y-12697531D02*
X15198666Y-12668960D01*
X15198666Y-12668960D02*
X15208189Y-12621341D01*
X15208189Y-12621341D02*
X15208189Y-12583246D01*
X15208189Y-12583246D02*
X15198666Y-12535627D01*
X15198666Y-12535627D02*
X15189142Y-12507055D01*
X15189142Y-12507055D02*
X15179618Y-12488008D01*
X15179618Y-12488008D02*
X15160570Y-12459436D01*
X15160570Y-12459436D02*
X15151047Y-12449912D01*
D16*
X10105507Y-12811000D02*
X10185507Y-12891000D01*
X10185507Y-12811000D02*
X10105507Y-12891000D01*
X10185507Y-12851000D02*
G75*
G03*
X10185507Y-12851000I-40000J0D01*
G01*
D11*
X10484379Y-12742484D02*
X10503427Y-12742484D01*
X10503427Y-12742484D02*
X10522475Y-12752008D01*
X10522475Y-12752008D02*
X10531999Y-12761531D01*
X10531999Y-12761531D02*
X10541522Y-12780579D01*
X10541522Y-12780579D02*
X10551046Y-12818674D01*
X10551046Y-12818674D02*
X10551046Y-12866293D01*
X10551046Y-12866293D02*
X10541522Y-12904388D01*
X10541522Y-12904388D02*
X10531999Y-12923436D01*
X10531999Y-12923436D02*
X10522475Y-12932960D01*
X10522475Y-12932960D02*
X10503427Y-12942484D01*
X10503427Y-12942484D02*
X10484379Y-12942484D01*
X10484379Y-12942484D02*
X10465332Y-12932960D01*
X10465332Y-12932960D02*
X10455808Y-12923436D01*
X10455808Y-12923436D02*
X10446284Y-12904388D01*
X10446284Y-12904388D02*
X10436760Y-12866293D01*
X10436760Y-12866293D02*
X10436760Y-12818674D01*
X10436760Y-12818674D02*
X10446284Y-12780579D01*
X10446284Y-12780579D02*
X10455808Y-12761531D01*
X10455808Y-12761531D02*
X10465332Y-12752008D01*
X10465332Y-12752008D02*
X10484379Y-12742484D01*
X10636760Y-12923436D02*
X10646284Y-12932960D01*
X10646284Y-12932960D02*
X10636760Y-12942484D01*
X10636760Y-12942484D02*
X10627237Y-12932960D01*
X10627237Y-12932960D02*
X10636760Y-12923436D01*
X10636760Y-12923436D02*
X10636760Y-12942484D01*
X10760570Y-12828198D02*
X10741522Y-12818674D01*
X10741522Y-12818674D02*
X10731999Y-12809150D01*
X10731999Y-12809150D02*
X10722475Y-12790103D01*
X10722475Y-12790103D02*
X10722475Y-12780579D01*
X10722475Y-12780579D02*
X10731999Y-12761531D01*
X10731999Y-12761531D02*
X10741522Y-12752008D01*
X10741522Y-12752008D02*
X10760570Y-12742484D01*
X10760570Y-12742484D02*
X10798665Y-12742484D01*
X10798665Y-12742484D02*
X10817713Y-12752008D01*
X10817713Y-12752008D02*
X10827237Y-12761531D01*
X10827237Y-12761531D02*
X10836760Y-12780579D01*
X10836760Y-12780579D02*
X10836760Y-12790103D01*
X10836760Y-12790103D02*
X10827237Y-12809150D01*
X10827237Y-12809150D02*
X10817713Y-12818674D01*
X10817713Y-12818674D02*
X10798665Y-12828198D01*
X10798665Y-12828198D02*
X10760570Y-12828198D01*
X10760570Y-12828198D02*
X10741522Y-12837722D01*
X10741522Y-12837722D02*
X10731999Y-12847246D01*
X10731999Y-12847246D02*
X10722475Y-12866293D01*
X10722475Y-12866293D02*
X10722475Y-12904388D01*
X10722475Y-12904388D02*
X10731999Y-12923436D01*
X10731999Y-12923436D02*
X10741522Y-12932960D01*
X10741522Y-12932960D02*
X10760570Y-12942484D01*
X10760570Y-12942484D02*
X10798665Y-12942484D01*
X10798665Y-12942484D02*
X10817713Y-12932960D01*
X10817713Y-12932960D02*
X10827237Y-12923436D01*
X10827237Y-12923436D02*
X10836760Y-12904388D01*
X10836760Y-12904388D02*
X10836760Y-12866293D01*
X10836760Y-12866293D02*
X10827237Y-12847246D01*
X10827237Y-12847246D02*
X10817713Y-12837722D01*
X10817713Y-12837722D02*
X10798665Y-12828198D01*
X10960570Y-12742484D02*
X10979618Y-12742484D01*
X10979618Y-12742484D02*
X10998665Y-12752008D01*
X10998665Y-12752008D02*
X11008189Y-12761531D01*
X11008189Y-12761531D02*
X11017713Y-12780579D01*
X11017713Y-12780579D02*
X11027237Y-12818674D01*
X11027237Y-12818674D02*
X11027237Y-12866293D01*
X11027237Y-12866293D02*
X11017713Y-12904388D01*
X11017713Y-12904388D02*
X11008189Y-12923436D01*
X11008189Y-12923436D02*
X10998665Y-12932960D01*
X10998665Y-12932960D02*
X10979618Y-12942484D01*
X10979618Y-12942484D02*
X10960570Y-12942484D01*
X10960570Y-12942484D02*
X10941522Y-12932960D01*
X10941522Y-12932960D02*
X10931999Y-12923436D01*
X10931999Y-12923436D02*
X10922475Y-12904388D01*
X10922475Y-12904388D02*
X10912951Y-12866293D01*
X10912951Y-12866293D02*
X10912951Y-12818674D01*
X10912951Y-12818674D02*
X10922475Y-12780579D01*
X10922475Y-12780579D02*
X10931999Y-12761531D01*
X10931999Y-12761531D02*
X10941522Y-12752008D01*
X10941522Y-12752008D02*
X10960570Y-12742484D01*
X11151046Y-12742484D02*
X11170094Y-12742484D01*
X11170094Y-12742484D02*
X11189141Y-12752008D01*
X11189141Y-12752008D02*
X11198665Y-12761531D01*
X11198665Y-12761531D02*
X11208189Y-12780579D01*
X11208189Y-12780579D02*
X11217713Y-12818674D01*
X11217713Y-12818674D02*
X11217713Y-12866293D01*
X11217713Y-12866293D02*
X11208189Y-12904388D01*
X11208189Y-12904388D02*
X11198665Y-12923436D01*
X11198665Y-12923436D02*
X11189141Y-12932960D01*
X11189141Y-12932960D02*
X11170094Y-12942484D01*
X11170094Y-12942484D02*
X11151046Y-12942484D01*
X11151046Y-12942484D02*
X11131999Y-12932960D01*
X11131999Y-12932960D02*
X11122475Y-12923436D01*
X11122475Y-12923436D02*
X11112951Y-12904388D01*
X11112951Y-12904388D02*
X11103427Y-12866293D01*
X11103427Y-12866293D02*
X11103427Y-12818674D01*
X11103427Y-12818674D02*
X11112951Y-12780579D01*
X11112951Y-12780579D02*
X11122475Y-12761531D01*
X11122475Y-12761531D02*
X11131999Y-12752008D01*
X11131999Y-12752008D02*
X11151046Y-12742484D01*
X11303427Y-12942484D02*
X11303427Y-12809150D01*
X11303427Y-12828198D02*
X11312951Y-12818674D01*
X11312951Y-12818674D02*
X11331998Y-12809150D01*
X11331998Y-12809150D02*
X11360570Y-12809150D01*
X11360570Y-12809150D02*
X11379618Y-12818674D01*
X11379618Y-12818674D02*
X11389141Y-12837722D01*
X11389141Y-12837722D02*
X11389141Y-12942484D01*
X11389141Y-12837722D02*
X11398665Y-12818674D01*
X11398665Y-12818674D02*
X11417713Y-12809150D01*
X11417713Y-12809150D02*
X11446284Y-12809150D01*
X11446284Y-12809150D02*
X11465332Y-12818674D01*
X11465332Y-12818674D02*
X11474856Y-12837722D01*
X11474856Y-12837722D02*
X11474856Y-12942484D01*
X11570094Y-12942484D02*
X11570094Y-12809150D01*
X11570094Y-12828198D02*
X11579618Y-12818674D01*
X11579618Y-12818674D02*
X11598665Y-12809150D01*
X11598665Y-12809150D02*
X11627237Y-12809150D01*
X11627237Y-12809150D02*
X11646284Y-12818674D01*
X11646284Y-12818674D02*
X11655808Y-12837722D01*
X11655808Y-12837722D02*
X11655808Y-12942484D01*
X11655808Y-12837722D02*
X11665332Y-12818674D01*
X11665332Y-12818674D02*
X11684379Y-12809150D01*
X11684379Y-12809150D02*
X11712951Y-12809150D01*
X11712951Y-12809150D02*
X11731999Y-12818674D01*
X11731999Y-12818674D02*
X11741522Y-12837722D01*
X11741522Y-12837722D02*
X11741522Y-12942484D01*
X12131999Y-12732960D02*
X11960570Y-12990103D01*
X12389141Y-12742484D02*
X12408189Y-12742484D01*
X12408189Y-12742484D02*
X12427237Y-12752008D01*
X12427237Y-12752008D02*
X12436761Y-12761531D01*
X12436761Y-12761531D02*
X12446284Y-12780579D01*
X12446284Y-12780579D02*
X12455808Y-12818674D01*
X12455808Y-12818674D02*
X12455808Y-12866293D01*
X12455808Y-12866293D02*
X12446284Y-12904388D01*
X12446284Y-12904388D02*
X12436761Y-12923436D01*
X12436761Y-12923436D02*
X12427237Y-12932960D01*
X12427237Y-12932960D02*
X12408189Y-12942484D01*
X12408189Y-12942484D02*
X12389141Y-12942484D01*
X12389141Y-12942484D02*
X12370094Y-12932960D01*
X12370094Y-12932960D02*
X12360570Y-12923436D01*
X12360570Y-12923436D02*
X12351046Y-12904388D01*
X12351046Y-12904388D02*
X12341522Y-12866293D01*
X12341522Y-12866293D02*
X12341522Y-12818674D01*
X12341522Y-12818674D02*
X12351046Y-12780579D01*
X12351046Y-12780579D02*
X12360570Y-12761531D01*
X12360570Y-12761531D02*
X12370094Y-12752008D01*
X12370094Y-12752008D02*
X12389141Y-12742484D01*
X12541522Y-12923436D02*
X12551046Y-12932960D01*
X12551046Y-12932960D02*
X12541522Y-12942484D01*
X12541522Y-12942484D02*
X12531999Y-12932960D01*
X12531999Y-12932960D02*
X12541522Y-12923436D01*
X12541522Y-12923436D02*
X12541522Y-12942484D01*
X12674856Y-12742484D02*
X12693903Y-12742484D01*
X12693903Y-12742484D02*
X12712951Y-12752008D01*
X12712951Y-12752008D02*
X12722475Y-12761531D01*
X12722475Y-12761531D02*
X12731999Y-12780579D01*
X12731999Y-12780579D02*
X12741522Y-12818674D01*
X12741522Y-12818674D02*
X12741522Y-12866293D01*
X12741522Y-12866293D02*
X12731999Y-12904388D01*
X12731999Y-12904388D02*
X12722475Y-12923436D01*
X12722475Y-12923436D02*
X12712951Y-12932960D01*
X12712951Y-12932960D02*
X12693903Y-12942484D01*
X12693903Y-12942484D02*
X12674856Y-12942484D01*
X12674856Y-12942484D02*
X12655808Y-12932960D01*
X12655808Y-12932960D02*
X12646284Y-12923436D01*
X12646284Y-12923436D02*
X12636761Y-12904388D01*
X12636761Y-12904388D02*
X12627237Y-12866293D01*
X12627237Y-12866293D02*
X12627237Y-12818674D01*
X12627237Y-12818674D02*
X12636761Y-12780579D01*
X12636761Y-12780579D02*
X12646284Y-12761531D01*
X12646284Y-12761531D02*
X12655808Y-12752008D01*
X12655808Y-12752008D02*
X12674856Y-12742484D01*
X12808189Y-12742484D02*
X12931999Y-12742484D01*
X12931999Y-12742484D02*
X12865332Y-12818674D01*
X12865332Y-12818674D02*
X12893903Y-12818674D01*
X12893903Y-12818674D02*
X12912951Y-12828198D01*
X12912951Y-12828198D02*
X12922475Y-12837722D01*
X12922475Y-12837722D02*
X12931999Y-12856769D01*
X12931999Y-12856769D02*
X12931999Y-12904388D01*
X12931999Y-12904388D02*
X12922475Y-12923436D01*
X12922475Y-12923436D02*
X12912951Y-12932960D01*
X12912951Y-12932960D02*
X12893903Y-12942484D01*
X12893903Y-12942484D02*
X12836761Y-12942484D01*
X12836761Y-12942484D02*
X12817713Y-12932960D01*
X12817713Y-12932960D02*
X12808189Y-12923436D01*
X13122475Y-12942484D02*
X13008189Y-12942484D01*
X13065332Y-12942484D02*
X13065332Y-12742484D01*
X13065332Y-12742484D02*
X13046284Y-12771055D01*
X13046284Y-12771055D02*
X13027237Y-12790103D01*
X13027237Y-12790103D02*
X13008189Y-12799627D01*
X13303427Y-12742484D02*
X13208189Y-12742484D01*
X13208189Y-12742484D02*
X13198665Y-12837722D01*
X13198665Y-12837722D02*
X13208189Y-12828198D01*
X13208189Y-12828198D02*
X13227237Y-12818674D01*
X13227237Y-12818674D02*
X13274856Y-12818674D01*
X13274856Y-12818674D02*
X13293903Y-12828198D01*
X13293903Y-12828198D02*
X13303427Y-12837722D01*
X13303427Y-12837722D02*
X13312951Y-12856769D01*
X13312951Y-12856769D02*
X13312951Y-12904388D01*
X13312951Y-12904388D02*
X13303427Y-12923436D01*
X13303427Y-12923436D02*
X13293903Y-12932960D01*
X13293903Y-12932960D02*
X13274856Y-12942484D01*
X13274856Y-12942484D02*
X13227237Y-12942484D01*
X13227237Y-12942484D02*
X13208189Y-12932960D01*
X13208189Y-12932960D02*
X13198665Y-12923436D01*
X13389142Y-12742484D02*
X13389142Y-12780579D01*
X13465332Y-12742484D02*
X13465332Y-12780579D01*
X13760570Y-13018674D02*
X13751046Y-13009150D01*
X13751046Y-13009150D02*
X13731999Y-12980579D01*
X13731999Y-12980579D02*
X13722475Y-12961531D01*
X13722475Y-12961531D02*
X13712951Y-12932960D01*
X13712951Y-12932960D02*
X13703427Y-12885341D01*
X13703427Y-12885341D02*
X13703427Y-12847246D01*
X13703427Y-12847246D02*
X13712951Y-12799627D01*
X13712951Y-12799627D02*
X13722475Y-12771055D01*
X13722475Y-12771055D02*
X13731999Y-12752008D01*
X13731999Y-12752008D02*
X13751046Y-12723436D01*
X13751046Y-12723436D02*
X13760570Y-12713912D01*
X13827237Y-12761531D02*
X13836761Y-12752008D01*
X13836761Y-12752008D02*
X13855808Y-12742484D01*
X13855808Y-12742484D02*
X13903427Y-12742484D01*
X13903427Y-12742484D02*
X13922475Y-12752008D01*
X13922475Y-12752008D02*
X13931999Y-12761531D01*
X13931999Y-12761531D02*
X13941523Y-12780579D01*
X13941523Y-12780579D02*
X13941523Y-12799627D01*
X13941523Y-12799627D02*
X13931999Y-12828198D01*
X13931999Y-12828198D02*
X13817713Y-12942484D01*
X13817713Y-12942484D02*
X13941523Y-12942484D01*
X14179618Y-12942484D02*
X14179618Y-12742484D01*
X14265332Y-12942484D02*
X14265332Y-12837722D01*
X14265332Y-12837722D02*
X14255808Y-12818674D01*
X14255808Y-12818674D02*
X14236761Y-12809150D01*
X14236761Y-12809150D02*
X14208189Y-12809150D01*
X14208189Y-12809150D02*
X14189142Y-12818674D01*
X14189142Y-12818674D02*
X14179618Y-12828198D01*
X14389142Y-12942484D02*
X14370094Y-12932960D01*
X14370094Y-12932960D02*
X14360570Y-12923436D01*
X14360570Y-12923436D02*
X14351046Y-12904388D01*
X14351046Y-12904388D02*
X14351046Y-12847246D01*
X14351046Y-12847246D02*
X14360570Y-12828198D01*
X14360570Y-12828198D02*
X14370094Y-12818674D01*
X14370094Y-12818674D02*
X14389142Y-12809150D01*
X14389142Y-12809150D02*
X14417713Y-12809150D01*
X14417713Y-12809150D02*
X14436761Y-12818674D01*
X14436761Y-12818674D02*
X14446285Y-12828198D01*
X14446285Y-12828198D02*
X14455808Y-12847246D01*
X14455808Y-12847246D02*
X14455808Y-12904388D01*
X14455808Y-12904388D02*
X14446285Y-12923436D01*
X14446285Y-12923436D02*
X14436761Y-12932960D01*
X14436761Y-12932960D02*
X14417713Y-12942484D01*
X14417713Y-12942484D02*
X14389142Y-12942484D01*
X14570094Y-12942484D02*
X14551046Y-12932960D01*
X14551046Y-12932960D02*
X14541523Y-12913912D01*
X14541523Y-12913912D02*
X14541523Y-12742484D01*
X14722475Y-12932960D02*
X14703427Y-12942484D01*
X14703427Y-12942484D02*
X14665332Y-12942484D01*
X14665332Y-12942484D02*
X14646285Y-12932960D01*
X14646285Y-12932960D02*
X14636761Y-12913912D01*
X14636761Y-12913912D02*
X14636761Y-12837722D01*
X14636761Y-12837722D02*
X14646285Y-12818674D01*
X14646285Y-12818674D02*
X14665332Y-12809150D01*
X14665332Y-12809150D02*
X14703427Y-12809150D01*
X14703427Y-12809150D02*
X14722475Y-12818674D01*
X14722475Y-12818674D02*
X14731999Y-12837722D01*
X14731999Y-12837722D02*
X14731999Y-12856769D01*
X14731999Y-12856769D02*
X14636761Y-12875817D01*
X14808189Y-12932960D02*
X14827237Y-12942484D01*
X14827237Y-12942484D02*
X14865332Y-12942484D01*
X14865332Y-12942484D02*
X14884380Y-12932960D01*
X14884380Y-12932960D02*
X14893904Y-12913912D01*
X14893904Y-12913912D02*
X14893904Y-12904388D01*
X14893904Y-12904388D02*
X14884380Y-12885341D01*
X14884380Y-12885341D02*
X14865332Y-12875817D01*
X14865332Y-12875817D02*
X14836761Y-12875817D01*
X14836761Y-12875817D02*
X14817713Y-12866293D01*
X14817713Y-12866293D02*
X14808189Y-12847246D01*
X14808189Y-12847246D02*
X14808189Y-12837722D01*
X14808189Y-12837722D02*
X14817713Y-12818674D01*
X14817713Y-12818674D02*
X14836761Y-12809150D01*
X14836761Y-12809150D02*
X14865332Y-12809150D01*
X14865332Y-12809150D02*
X14884380Y-12818674D01*
X14960570Y-13018674D02*
X14970094Y-13009150D01*
X14970094Y-13009150D02*
X14989142Y-12980579D01*
X14989142Y-12980579D02*
X14998666Y-12961531D01*
X14998666Y-12961531D02*
X15008189Y-12932960D01*
X15008189Y-12932960D02*
X15017713Y-12885341D01*
X15017713Y-12885341D02*
X15017713Y-12847246D01*
X15017713Y-12847246D02*
X15008189Y-12799627D01*
X15008189Y-12799627D02*
X14998666Y-12771055D01*
X14998666Y-12771055D02*
X14989142Y-12752008D01*
X14989142Y-12752008D02*
X14970094Y-12723436D01*
X14970094Y-12723436D02*
X14960570Y-12713912D01*
D10*
X10085507Y-13065000D02*
X10185507Y-13165000D01*
X10185507Y-13065000D02*
X10085507Y-13165000D01*
X10135507Y-13065000D02*
X10135507Y-13165000D01*
X10085507Y-13115000D02*
X10185507Y-13115000D01*
D11*
X10551046Y-13206484D02*
X10436760Y-13206484D01*
X10493903Y-13206484D02*
X10493903Y-13006484D01*
X10493903Y-13006484D02*
X10474856Y-13035055D01*
X10474856Y-13035055D02*
X10455808Y-13054103D01*
X10455808Y-13054103D02*
X10436760Y-13063627D01*
X10636760Y-13187436D02*
X10646284Y-13196960D01*
X10646284Y-13196960D02*
X10636760Y-13206484D01*
X10636760Y-13206484D02*
X10627237Y-13196960D01*
X10627237Y-13196960D02*
X10636760Y-13187436D01*
X10636760Y-13187436D02*
X10636760Y-13206484D01*
X10770094Y-13006484D02*
X10789141Y-13006484D01*
X10789141Y-13006484D02*
X10808189Y-13016008D01*
X10808189Y-13016008D02*
X10817713Y-13025531D01*
X10817713Y-13025531D02*
X10827237Y-13044579D01*
X10827237Y-13044579D02*
X10836760Y-13082674D01*
X10836760Y-13082674D02*
X10836760Y-13130293D01*
X10836760Y-13130293D02*
X10827237Y-13168388D01*
X10827237Y-13168388D02*
X10817713Y-13187436D01*
X10817713Y-13187436D02*
X10808189Y-13196960D01*
X10808189Y-13196960D02*
X10789141Y-13206484D01*
X10789141Y-13206484D02*
X10770094Y-13206484D01*
X10770094Y-13206484D02*
X10751046Y-13196960D01*
X10751046Y-13196960D02*
X10741522Y-13187436D01*
X10741522Y-13187436D02*
X10731999Y-13168388D01*
X10731999Y-13168388D02*
X10722475Y-13130293D01*
X10722475Y-13130293D02*
X10722475Y-13082674D01*
X10722475Y-13082674D02*
X10731999Y-13044579D01*
X10731999Y-13044579D02*
X10741522Y-13025531D01*
X10741522Y-13025531D02*
X10751046Y-13016008D01*
X10751046Y-13016008D02*
X10770094Y-13006484D01*
X10960570Y-13006484D02*
X10979618Y-13006484D01*
X10979618Y-13006484D02*
X10998665Y-13016008D01*
X10998665Y-13016008D02*
X11008189Y-13025531D01*
X11008189Y-13025531D02*
X11017713Y-13044579D01*
X11017713Y-13044579D02*
X11027237Y-13082674D01*
X11027237Y-13082674D02*
X11027237Y-13130293D01*
X11027237Y-13130293D02*
X11017713Y-13168388D01*
X11017713Y-13168388D02*
X11008189Y-13187436D01*
X11008189Y-13187436D02*
X10998665Y-13196960D01*
X10998665Y-13196960D02*
X10979618Y-13206484D01*
X10979618Y-13206484D02*
X10960570Y-13206484D01*
X10960570Y-13206484D02*
X10941522Y-13196960D01*
X10941522Y-13196960D02*
X10931999Y-13187436D01*
X10931999Y-13187436D02*
X10922475Y-13168388D01*
X10922475Y-13168388D02*
X10912951Y-13130293D01*
X10912951Y-13130293D02*
X10912951Y-13082674D01*
X10912951Y-13082674D02*
X10922475Y-13044579D01*
X10922475Y-13044579D02*
X10931999Y-13025531D01*
X10931999Y-13025531D02*
X10941522Y-13016008D01*
X10941522Y-13016008D02*
X10960570Y-13006484D01*
X11151046Y-13006484D02*
X11170094Y-13006484D01*
X11170094Y-13006484D02*
X11189141Y-13016008D01*
X11189141Y-13016008D02*
X11198665Y-13025531D01*
X11198665Y-13025531D02*
X11208189Y-13044579D01*
X11208189Y-13044579D02*
X11217713Y-13082674D01*
X11217713Y-13082674D02*
X11217713Y-13130293D01*
X11217713Y-13130293D02*
X11208189Y-13168388D01*
X11208189Y-13168388D02*
X11198665Y-13187436D01*
X11198665Y-13187436D02*
X11189141Y-13196960D01*
X11189141Y-13196960D02*
X11170094Y-13206484D01*
X11170094Y-13206484D02*
X11151046Y-13206484D01*
X11151046Y-13206484D02*
X11131999Y-13196960D01*
X11131999Y-13196960D02*
X11122475Y-13187436D01*
X11122475Y-13187436D02*
X11112951Y-13168388D01*
X11112951Y-13168388D02*
X11103427Y-13130293D01*
X11103427Y-13130293D02*
X11103427Y-13082674D01*
X11103427Y-13082674D02*
X11112951Y-13044579D01*
X11112951Y-13044579D02*
X11122475Y-13025531D01*
X11122475Y-13025531D02*
X11131999Y-13016008D01*
X11131999Y-13016008D02*
X11151046Y-13006484D01*
X11303427Y-13206484D02*
X11303427Y-13073150D01*
X11303427Y-13092198D02*
X11312951Y-13082674D01*
X11312951Y-13082674D02*
X11331998Y-13073150D01*
X11331998Y-13073150D02*
X11360570Y-13073150D01*
X11360570Y-13073150D02*
X11379618Y-13082674D01*
X11379618Y-13082674D02*
X11389141Y-13101722D01*
X11389141Y-13101722D02*
X11389141Y-13206484D01*
X11389141Y-13101722D02*
X11398665Y-13082674D01*
X11398665Y-13082674D02*
X11417713Y-13073150D01*
X11417713Y-13073150D02*
X11446284Y-13073150D01*
X11446284Y-13073150D02*
X11465332Y-13082674D01*
X11465332Y-13082674D02*
X11474856Y-13101722D01*
X11474856Y-13101722D02*
X11474856Y-13206484D01*
X11570094Y-13206484D02*
X11570094Y-13073150D01*
X11570094Y-13092198D02*
X11579618Y-13082674D01*
X11579618Y-13082674D02*
X11598665Y-13073150D01*
X11598665Y-13073150D02*
X11627237Y-13073150D01*
X11627237Y-13073150D02*
X11646284Y-13082674D01*
X11646284Y-13082674D02*
X11655808Y-13101722D01*
X11655808Y-13101722D02*
X11655808Y-13206484D01*
X11655808Y-13101722D02*
X11665332Y-13082674D01*
X11665332Y-13082674D02*
X11684379Y-13073150D01*
X11684379Y-13073150D02*
X11712951Y-13073150D01*
X11712951Y-13073150D02*
X11731999Y-13082674D01*
X11731999Y-13082674D02*
X11741522Y-13101722D01*
X11741522Y-13101722D02*
X11741522Y-13206484D01*
X12131999Y-12996960D02*
X11960570Y-13254103D01*
X12389141Y-13006484D02*
X12408189Y-13006484D01*
X12408189Y-13006484D02*
X12427237Y-13016008D01*
X12427237Y-13016008D02*
X12436761Y-13025531D01*
X12436761Y-13025531D02*
X12446284Y-13044579D01*
X12446284Y-13044579D02*
X12455808Y-13082674D01*
X12455808Y-13082674D02*
X12455808Y-13130293D01*
X12455808Y-13130293D02*
X12446284Y-13168388D01*
X12446284Y-13168388D02*
X12436761Y-13187436D01*
X12436761Y-13187436D02*
X12427237Y-13196960D01*
X12427237Y-13196960D02*
X12408189Y-13206484D01*
X12408189Y-13206484D02*
X12389141Y-13206484D01*
X12389141Y-13206484D02*
X12370094Y-13196960D01*
X12370094Y-13196960D02*
X12360570Y-13187436D01*
X12360570Y-13187436D02*
X12351046Y-13168388D01*
X12351046Y-13168388D02*
X12341522Y-13130293D01*
X12341522Y-13130293D02*
X12341522Y-13082674D01*
X12341522Y-13082674D02*
X12351046Y-13044579D01*
X12351046Y-13044579D02*
X12360570Y-13025531D01*
X12360570Y-13025531D02*
X12370094Y-13016008D01*
X12370094Y-13016008D02*
X12389141Y-13006484D01*
X12541522Y-13187436D02*
X12551046Y-13196960D01*
X12551046Y-13196960D02*
X12541522Y-13206484D01*
X12541522Y-13206484D02*
X12531999Y-13196960D01*
X12531999Y-13196960D02*
X12541522Y-13187436D01*
X12541522Y-13187436D02*
X12541522Y-13206484D01*
X12674856Y-13006484D02*
X12693903Y-13006484D01*
X12693903Y-13006484D02*
X12712951Y-13016008D01*
X12712951Y-13016008D02*
X12722475Y-13025531D01*
X12722475Y-13025531D02*
X12731999Y-13044579D01*
X12731999Y-13044579D02*
X12741522Y-13082674D01*
X12741522Y-13082674D02*
X12741522Y-13130293D01*
X12741522Y-13130293D02*
X12731999Y-13168388D01*
X12731999Y-13168388D02*
X12722475Y-13187436D01*
X12722475Y-13187436D02*
X12712951Y-13196960D01*
X12712951Y-13196960D02*
X12693903Y-13206484D01*
X12693903Y-13206484D02*
X12674856Y-13206484D01*
X12674856Y-13206484D02*
X12655808Y-13196960D01*
X12655808Y-13196960D02*
X12646284Y-13187436D01*
X12646284Y-13187436D02*
X12636761Y-13168388D01*
X12636761Y-13168388D02*
X12627237Y-13130293D01*
X12627237Y-13130293D02*
X12627237Y-13082674D01*
X12627237Y-13082674D02*
X12636761Y-13044579D01*
X12636761Y-13044579D02*
X12646284Y-13025531D01*
X12646284Y-13025531D02*
X12655808Y-13016008D01*
X12655808Y-13016008D02*
X12674856Y-13006484D01*
X12808189Y-13006484D02*
X12931999Y-13006484D01*
X12931999Y-13006484D02*
X12865332Y-13082674D01*
X12865332Y-13082674D02*
X12893903Y-13082674D01*
X12893903Y-13082674D02*
X12912951Y-13092198D01*
X12912951Y-13092198D02*
X12922475Y-13101722D01*
X12922475Y-13101722D02*
X12931999Y-13120769D01*
X12931999Y-13120769D02*
X12931999Y-13168388D01*
X12931999Y-13168388D02*
X12922475Y-13187436D01*
X12922475Y-13187436D02*
X12912951Y-13196960D01*
X12912951Y-13196960D02*
X12893903Y-13206484D01*
X12893903Y-13206484D02*
X12836761Y-13206484D01*
X12836761Y-13206484D02*
X12817713Y-13196960D01*
X12817713Y-13196960D02*
X12808189Y-13187436D01*
X13027237Y-13206484D02*
X13065332Y-13206484D01*
X13065332Y-13206484D02*
X13084380Y-13196960D01*
X13084380Y-13196960D02*
X13093903Y-13187436D01*
X13093903Y-13187436D02*
X13112951Y-13158865D01*
X13112951Y-13158865D02*
X13122475Y-13120769D01*
X13122475Y-13120769D02*
X13122475Y-13044579D01*
X13122475Y-13044579D02*
X13112951Y-13025531D01*
X13112951Y-13025531D02*
X13103427Y-13016008D01*
X13103427Y-13016008D02*
X13084380Y-13006484D01*
X13084380Y-13006484D02*
X13046284Y-13006484D01*
X13046284Y-13006484D02*
X13027237Y-13016008D01*
X13027237Y-13016008D02*
X13017713Y-13025531D01*
X13017713Y-13025531D02*
X13008189Y-13044579D01*
X13008189Y-13044579D02*
X13008189Y-13092198D01*
X13008189Y-13092198D02*
X13017713Y-13111246D01*
X13017713Y-13111246D02*
X13027237Y-13120769D01*
X13027237Y-13120769D02*
X13046284Y-13130293D01*
X13046284Y-13130293D02*
X13084380Y-13130293D01*
X13084380Y-13130293D02*
X13103427Y-13120769D01*
X13103427Y-13120769D02*
X13112951Y-13111246D01*
X13112951Y-13111246D02*
X13122475Y-13092198D01*
X13293903Y-13073150D02*
X13293903Y-13206484D01*
X13246284Y-12996960D02*
X13198665Y-13139817D01*
X13198665Y-13139817D02*
X13322475Y-13139817D01*
X13389142Y-13006484D02*
X13389142Y-13044579D01*
X13465332Y-13006484D02*
X13465332Y-13044579D01*
X13760570Y-13282674D02*
X13751046Y-13273150D01*
X13751046Y-13273150D02*
X13731999Y-13244579D01*
X13731999Y-13244579D02*
X13722475Y-13225531D01*
X13722475Y-13225531D02*
X13712951Y-13196960D01*
X13712951Y-13196960D02*
X13703427Y-13149341D01*
X13703427Y-13149341D02*
X13703427Y-13111246D01*
X13703427Y-13111246D02*
X13712951Y-13063627D01*
X13712951Y-13063627D02*
X13722475Y-13035055D01*
X13722475Y-13035055D02*
X13731999Y-13016008D01*
X13731999Y-13016008D02*
X13751046Y-12987436D01*
X13751046Y-12987436D02*
X13760570Y-12977912D01*
X13817713Y-13006484D02*
X13941523Y-13006484D01*
X13941523Y-13006484D02*
X13874856Y-13082674D01*
X13874856Y-13082674D02*
X13903427Y-13082674D01*
X13903427Y-13082674D02*
X13922475Y-13092198D01*
X13922475Y-13092198D02*
X13931999Y-13101722D01*
X13931999Y-13101722D02*
X13941523Y-13120769D01*
X13941523Y-13120769D02*
X13941523Y-13168388D01*
X13941523Y-13168388D02*
X13931999Y-13187436D01*
X13931999Y-13187436D02*
X13922475Y-13196960D01*
X13922475Y-13196960D02*
X13903427Y-13206484D01*
X13903427Y-13206484D02*
X13846284Y-13206484D01*
X13846284Y-13206484D02*
X13827237Y-13196960D01*
X13827237Y-13196960D02*
X13817713Y-13187436D01*
X14065332Y-13006484D02*
X14084380Y-13006484D01*
X14084380Y-13006484D02*
X14103427Y-13016008D01*
X14103427Y-13016008D02*
X14112951Y-13025531D01*
X14112951Y-13025531D02*
X14122475Y-13044579D01*
X14122475Y-13044579D02*
X14131999Y-13082674D01*
X14131999Y-13082674D02*
X14131999Y-13130293D01*
X14131999Y-13130293D02*
X14122475Y-13168388D01*
X14122475Y-13168388D02*
X14112951Y-13187436D01*
X14112951Y-13187436D02*
X14103427Y-13196960D01*
X14103427Y-13196960D02*
X14084380Y-13206484D01*
X14084380Y-13206484D02*
X14065332Y-13206484D01*
X14065332Y-13206484D02*
X14046284Y-13196960D01*
X14046284Y-13196960D02*
X14036761Y-13187436D01*
X14036761Y-13187436D02*
X14027237Y-13168388D01*
X14027237Y-13168388D02*
X14017713Y-13130293D01*
X14017713Y-13130293D02*
X14017713Y-13082674D01*
X14017713Y-13082674D02*
X14027237Y-13044579D01*
X14027237Y-13044579D02*
X14036761Y-13025531D01*
X14036761Y-13025531D02*
X14046284Y-13016008D01*
X14046284Y-13016008D02*
X14065332Y-13006484D01*
X14370094Y-13206484D02*
X14370094Y-13006484D01*
X14455808Y-13206484D02*
X14455808Y-13101722D01*
X14455808Y-13101722D02*
X14446285Y-13082674D01*
X14446285Y-13082674D02*
X14427237Y-13073150D01*
X14427237Y-13073150D02*
X14398665Y-13073150D01*
X14398665Y-13073150D02*
X14379618Y-13082674D01*
X14379618Y-13082674D02*
X14370094Y-13092198D01*
X14579618Y-13206484D02*
X14560570Y-13196960D01*
X14560570Y-13196960D02*
X14551046Y-13187436D01*
X14551046Y-13187436D02*
X14541523Y-13168388D01*
X14541523Y-13168388D02*
X14541523Y-13111246D01*
X14541523Y-13111246D02*
X14551046Y-13092198D01*
X14551046Y-13092198D02*
X14560570Y-13082674D01*
X14560570Y-13082674D02*
X14579618Y-13073150D01*
X14579618Y-13073150D02*
X14608189Y-13073150D01*
X14608189Y-13073150D02*
X14627237Y-13082674D01*
X14627237Y-13082674D02*
X14636761Y-13092198D01*
X14636761Y-13092198D02*
X14646285Y-13111246D01*
X14646285Y-13111246D02*
X14646285Y-13168388D01*
X14646285Y-13168388D02*
X14636761Y-13187436D01*
X14636761Y-13187436D02*
X14627237Y-13196960D01*
X14627237Y-13196960D02*
X14608189Y-13206484D01*
X14608189Y-13206484D02*
X14579618Y-13206484D01*
X14760570Y-13206484D02*
X14741523Y-13196960D01*
X14741523Y-13196960D02*
X14731999Y-13177912D01*
X14731999Y-13177912D02*
X14731999Y-13006484D01*
X14912951Y-13196960D02*
X14893904Y-13206484D01*
X14893904Y-13206484D02*
X14855808Y-13206484D01*
X14855808Y-13206484D02*
X14836761Y-13196960D01*
X14836761Y-13196960D02*
X14827237Y-13177912D01*
X14827237Y-13177912D02*
X14827237Y-13101722D01*
X14827237Y-13101722D02*
X14836761Y-13082674D01*
X14836761Y-13082674D02*
X14855808Y-13073150D01*
X14855808Y-13073150D02*
X14893904Y-13073150D01*
X14893904Y-13073150D02*
X14912951Y-13082674D01*
X14912951Y-13082674D02*
X14922475Y-13101722D01*
X14922475Y-13101722D02*
X14922475Y-13120769D01*
X14922475Y-13120769D02*
X14827237Y-13139817D01*
X14998666Y-13196960D02*
X15017713Y-13206484D01*
X15017713Y-13206484D02*
X15055808Y-13206484D01*
X15055808Y-13206484D02*
X15074856Y-13196960D01*
X15074856Y-13196960D02*
X15084380Y-13177912D01*
X15084380Y-13177912D02*
X15084380Y-13168388D01*
X15084380Y-13168388D02*
X15074856Y-13149341D01*
X15074856Y-13149341D02*
X15055808Y-13139817D01*
X15055808Y-13139817D02*
X15027237Y-13139817D01*
X15027237Y-13139817D02*
X15008189Y-13130293D01*
X15008189Y-13130293D02*
X14998666Y-13111246D01*
X14998666Y-13111246D02*
X14998666Y-13101722D01*
X14998666Y-13101722D02*
X15008189Y-13082674D01*
X15008189Y-13082674D02*
X15027237Y-13073150D01*
X15027237Y-13073150D02*
X15055808Y-13073150D01*
X15055808Y-13073150D02*
X15074856Y-13082674D01*
X15151047Y-13282674D02*
X15160570Y-13273150D01*
X15160570Y-13273150D02*
X15179618Y-13244579D01*
X15179618Y-13244579D02*
X15189142Y-13225531D01*
X15189142Y-13225531D02*
X15198666Y-13196960D01*
X15198666Y-13196960D02*
X15208189Y-13149341D01*
X15208189Y-13149341D02*
X15208189Y-13111246D01*
X15208189Y-13111246D02*
X15198666Y-13063627D01*
X15198666Y-13063627D02*
X15189142Y-13035055D01*
X15189142Y-13035055D02*
X15179618Y-13016008D01*
X15179618Y-13016008D02*
X15160570Y-12987436D01*
X15160570Y-12987436D02*
X15151047Y-12977912D01*
X9985507Y-13279000D02*
X10185507Y-13479000D01*
X10185507Y-13279000D02*
X9985507Y-13479000D01*
X10156219Y-13449711D02*
X10156219Y-13308289D01*
X10014796Y-13308289D01*
X10014796Y-13449711D01*
X10156219Y-13449711D01*
X10436760Y-13289531D02*
X10446284Y-13280008D01*
X10446284Y-13280008D02*
X10465332Y-13270484D01*
X10465332Y-13270484D02*
X10512951Y-13270484D01*
X10512951Y-13270484D02*
X10531999Y-13280008D01*
X10531999Y-13280008D02*
X10541522Y-13289531D01*
X10541522Y-13289531D02*
X10551046Y-13308579D01*
X10551046Y-13308579D02*
X10551046Y-13327627D01*
X10551046Y-13327627D02*
X10541522Y-13356198D01*
X10541522Y-13356198D02*
X10427237Y-13470484D01*
X10427237Y-13470484D02*
X10551046Y-13470484D01*
X10636760Y-13451436D02*
X10646284Y-13460960D01*
X10646284Y-13460960D02*
X10636760Y-13470484D01*
X10636760Y-13470484D02*
X10627237Y-13460960D01*
X10627237Y-13460960D02*
X10636760Y-13451436D01*
X10636760Y-13451436D02*
X10636760Y-13470484D01*
X10722475Y-13289531D02*
X10731999Y-13280008D01*
X10731999Y-13280008D02*
X10751046Y-13270484D01*
X10751046Y-13270484D02*
X10798665Y-13270484D01*
X10798665Y-13270484D02*
X10817713Y-13280008D01*
X10817713Y-13280008D02*
X10827237Y-13289531D01*
X10827237Y-13289531D02*
X10836760Y-13308579D01*
X10836760Y-13308579D02*
X10836760Y-13327627D01*
X10836760Y-13327627D02*
X10827237Y-13356198D01*
X10827237Y-13356198D02*
X10712951Y-13470484D01*
X10712951Y-13470484D02*
X10836760Y-13470484D01*
X10960570Y-13270484D02*
X10979618Y-13270484D01*
X10979618Y-13270484D02*
X10998665Y-13280008D01*
X10998665Y-13280008D02*
X11008189Y-13289531D01*
X11008189Y-13289531D02*
X11017713Y-13308579D01*
X11017713Y-13308579D02*
X11027237Y-13346674D01*
X11027237Y-13346674D02*
X11027237Y-13394293D01*
X11027237Y-13394293D02*
X11017713Y-13432388D01*
X11017713Y-13432388D02*
X11008189Y-13451436D01*
X11008189Y-13451436D02*
X10998665Y-13460960D01*
X10998665Y-13460960D02*
X10979618Y-13470484D01*
X10979618Y-13470484D02*
X10960570Y-13470484D01*
X10960570Y-13470484D02*
X10941522Y-13460960D01*
X10941522Y-13460960D02*
X10931999Y-13451436D01*
X10931999Y-13451436D02*
X10922475Y-13432388D01*
X10922475Y-13432388D02*
X10912951Y-13394293D01*
X10912951Y-13394293D02*
X10912951Y-13346674D01*
X10912951Y-13346674D02*
X10922475Y-13308579D01*
X10922475Y-13308579D02*
X10931999Y-13289531D01*
X10931999Y-13289531D02*
X10941522Y-13280008D01*
X10941522Y-13280008D02*
X10960570Y-13270484D01*
X11151046Y-13270484D02*
X11170094Y-13270484D01*
X11170094Y-13270484D02*
X11189141Y-13280008D01*
X11189141Y-13280008D02*
X11198665Y-13289531D01*
X11198665Y-13289531D02*
X11208189Y-13308579D01*
X11208189Y-13308579D02*
X11217713Y-13346674D01*
X11217713Y-13346674D02*
X11217713Y-13394293D01*
X11217713Y-13394293D02*
X11208189Y-13432388D01*
X11208189Y-13432388D02*
X11198665Y-13451436D01*
X11198665Y-13451436D02*
X11189141Y-13460960D01*
X11189141Y-13460960D02*
X11170094Y-13470484D01*
X11170094Y-13470484D02*
X11151046Y-13470484D01*
X11151046Y-13470484D02*
X11131999Y-13460960D01*
X11131999Y-13460960D02*
X11122475Y-13451436D01*
X11122475Y-13451436D02*
X11112951Y-13432388D01*
X11112951Y-13432388D02*
X11103427Y-13394293D01*
X11103427Y-13394293D02*
X11103427Y-13346674D01*
X11103427Y-13346674D02*
X11112951Y-13308579D01*
X11112951Y-13308579D02*
X11122475Y-13289531D01*
X11122475Y-13289531D02*
X11131999Y-13280008D01*
X11131999Y-13280008D02*
X11151046Y-13270484D01*
X11303427Y-13470484D02*
X11303427Y-13337150D01*
X11303427Y-13356198D02*
X11312951Y-13346674D01*
X11312951Y-13346674D02*
X11331998Y-13337150D01*
X11331998Y-13337150D02*
X11360570Y-13337150D01*
X11360570Y-13337150D02*
X11379618Y-13346674D01*
X11379618Y-13346674D02*
X11389141Y-13365722D01*
X11389141Y-13365722D02*
X11389141Y-13470484D01*
X11389141Y-13365722D02*
X11398665Y-13346674D01*
X11398665Y-13346674D02*
X11417713Y-13337150D01*
X11417713Y-13337150D02*
X11446284Y-13337150D01*
X11446284Y-13337150D02*
X11465332Y-13346674D01*
X11465332Y-13346674D02*
X11474856Y-13365722D01*
X11474856Y-13365722D02*
X11474856Y-13470484D01*
X11570094Y-13470484D02*
X11570094Y-13337150D01*
X11570094Y-13356198D02*
X11579618Y-13346674D01*
X11579618Y-13346674D02*
X11598665Y-13337150D01*
X11598665Y-13337150D02*
X11627237Y-13337150D01*
X11627237Y-13337150D02*
X11646284Y-13346674D01*
X11646284Y-13346674D02*
X11655808Y-13365722D01*
X11655808Y-13365722D02*
X11655808Y-13470484D01*
X11655808Y-13365722D02*
X11665332Y-13346674D01*
X11665332Y-13346674D02*
X11684379Y-13337150D01*
X11684379Y-13337150D02*
X11712951Y-13337150D01*
X11712951Y-13337150D02*
X11731999Y-13346674D01*
X11731999Y-13346674D02*
X11741522Y-13365722D01*
X11741522Y-13365722D02*
X11741522Y-13470484D01*
X12131999Y-13260960D02*
X11960570Y-13518103D01*
X12389141Y-13270484D02*
X12408189Y-13270484D01*
X12408189Y-13270484D02*
X12427237Y-13280008D01*
X12427237Y-13280008D02*
X12436761Y-13289531D01*
X12436761Y-13289531D02*
X12446284Y-13308579D01*
X12446284Y-13308579D02*
X12455808Y-13346674D01*
X12455808Y-13346674D02*
X12455808Y-13394293D01*
X12455808Y-13394293D02*
X12446284Y-13432388D01*
X12446284Y-13432388D02*
X12436761Y-13451436D01*
X12436761Y-13451436D02*
X12427237Y-13460960D01*
X12427237Y-13460960D02*
X12408189Y-13470484D01*
X12408189Y-13470484D02*
X12389141Y-13470484D01*
X12389141Y-13470484D02*
X12370094Y-13460960D01*
X12370094Y-13460960D02*
X12360570Y-13451436D01*
X12360570Y-13451436D02*
X12351046Y-13432388D01*
X12351046Y-13432388D02*
X12341522Y-13394293D01*
X12341522Y-13394293D02*
X12341522Y-13346674D01*
X12341522Y-13346674D02*
X12351046Y-13308579D01*
X12351046Y-13308579D02*
X12360570Y-13289531D01*
X12360570Y-13289531D02*
X12370094Y-13280008D01*
X12370094Y-13280008D02*
X12389141Y-13270484D01*
X12541522Y-13451436D02*
X12551046Y-13460960D01*
X12551046Y-13460960D02*
X12541522Y-13470484D01*
X12541522Y-13470484D02*
X12531999Y-13460960D01*
X12531999Y-13460960D02*
X12541522Y-13451436D01*
X12541522Y-13451436D02*
X12541522Y-13470484D01*
X12674856Y-13270484D02*
X12693903Y-13270484D01*
X12693903Y-13270484D02*
X12712951Y-13280008D01*
X12712951Y-13280008D02*
X12722475Y-13289531D01*
X12722475Y-13289531D02*
X12731999Y-13308579D01*
X12731999Y-13308579D02*
X12741522Y-13346674D01*
X12741522Y-13346674D02*
X12741522Y-13394293D01*
X12741522Y-13394293D02*
X12731999Y-13432388D01*
X12731999Y-13432388D02*
X12722475Y-13451436D01*
X12722475Y-13451436D02*
X12712951Y-13460960D01*
X12712951Y-13460960D02*
X12693903Y-13470484D01*
X12693903Y-13470484D02*
X12674856Y-13470484D01*
X12674856Y-13470484D02*
X12655808Y-13460960D01*
X12655808Y-13460960D02*
X12646284Y-13451436D01*
X12646284Y-13451436D02*
X12636761Y-13432388D01*
X12636761Y-13432388D02*
X12627237Y-13394293D01*
X12627237Y-13394293D02*
X12627237Y-13346674D01*
X12627237Y-13346674D02*
X12636761Y-13308579D01*
X12636761Y-13308579D02*
X12646284Y-13289531D01*
X12646284Y-13289531D02*
X12655808Y-13280008D01*
X12655808Y-13280008D02*
X12674856Y-13270484D01*
X12855808Y-13356198D02*
X12836761Y-13346674D01*
X12836761Y-13346674D02*
X12827237Y-13337150D01*
X12827237Y-13337150D02*
X12817713Y-13318103D01*
X12817713Y-13318103D02*
X12817713Y-13308579D01*
X12817713Y-13308579D02*
X12827237Y-13289531D01*
X12827237Y-13289531D02*
X12836761Y-13280008D01*
X12836761Y-13280008D02*
X12855808Y-13270484D01*
X12855808Y-13270484D02*
X12893903Y-13270484D01*
X12893903Y-13270484D02*
X12912951Y-13280008D01*
X12912951Y-13280008D02*
X12922475Y-13289531D01*
X12922475Y-13289531D02*
X12931999Y-13308579D01*
X12931999Y-13308579D02*
X12931999Y-13318103D01*
X12931999Y-13318103D02*
X12922475Y-13337150D01*
X12922475Y-13337150D02*
X12912951Y-13346674D01*
X12912951Y-13346674D02*
X12893903Y-13356198D01*
X12893903Y-13356198D02*
X12855808Y-13356198D01*
X12855808Y-13356198D02*
X12836761Y-13365722D01*
X12836761Y-13365722D02*
X12827237Y-13375246D01*
X12827237Y-13375246D02*
X12817713Y-13394293D01*
X12817713Y-13394293D02*
X12817713Y-13432388D01*
X12817713Y-13432388D02*
X12827237Y-13451436D01*
X12827237Y-13451436D02*
X12836761Y-13460960D01*
X12836761Y-13460960D02*
X12855808Y-13470484D01*
X12855808Y-13470484D02*
X12893903Y-13470484D01*
X12893903Y-13470484D02*
X12912951Y-13460960D01*
X12912951Y-13460960D02*
X12922475Y-13451436D01*
X12922475Y-13451436D02*
X12931999Y-13432388D01*
X12931999Y-13432388D02*
X12931999Y-13394293D01*
X12931999Y-13394293D02*
X12922475Y-13375246D01*
X12922475Y-13375246D02*
X12912951Y-13365722D01*
X12912951Y-13365722D02*
X12893903Y-13356198D01*
X13103427Y-13270484D02*
X13065332Y-13270484D01*
X13065332Y-13270484D02*
X13046284Y-13280008D01*
X13046284Y-13280008D02*
X13036761Y-13289531D01*
X13036761Y-13289531D02*
X13017713Y-13318103D01*
X13017713Y-13318103D02*
X13008189Y-13356198D01*
X13008189Y-13356198D02*
X13008189Y-13432388D01*
X13008189Y-13432388D02*
X13017713Y-13451436D01*
X13017713Y-13451436D02*
X13027237Y-13460960D01*
X13027237Y-13460960D02*
X13046284Y-13470484D01*
X13046284Y-13470484D02*
X13084380Y-13470484D01*
X13084380Y-13470484D02*
X13103427Y-13460960D01*
X13103427Y-13460960D02*
X13112951Y-13451436D01*
X13112951Y-13451436D02*
X13122475Y-13432388D01*
X13122475Y-13432388D02*
X13122475Y-13384769D01*
X13122475Y-13384769D02*
X13112951Y-13365722D01*
X13112951Y-13365722D02*
X13103427Y-13356198D01*
X13103427Y-13356198D02*
X13084380Y-13346674D01*
X13084380Y-13346674D02*
X13046284Y-13346674D01*
X13046284Y-13346674D02*
X13027237Y-13356198D01*
X13027237Y-13356198D02*
X13017713Y-13365722D01*
X13017713Y-13365722D02*
X13008189Y-13384769D01*
X13293903Y-13270484D02*
X13255808Y-13270484D01*
X13255808Y-13270484D02*
X13236761Y-13280008D01*
X13236761Y-13280008D02*
X13227237Y-13289531D01*
X13227237Y-13289531D02*
X13208189Y-13318103D01*
X13208189Y-13318103D02*
X13198665Y-13356198D01*
X13198665Y-13356198D02*
X13198665Y-13432388D01*
X13198665Y-13432388D02*
X13208189Y-13451436D01*
X13208189Y-13451436D02*
X13217713Y-13460960D01*
X13217713Y-13460960D02*
X13236761Y-13470484D01*
X13236761Y-13470484D02*
X13274856Y-13470484D01*
X13274856Y-13470484D02*
X13293903Y-13460960D01*
X13293903Y-13460960D02*
X13303427Y-13451436D01*
X13303427Y-13451436D02*
X13312951Y-13432388D01*
X13312951Y-13432388D02*
X13312951Y-13384769D01*
X13312951Y-13384769D02*
X13303427Y-13365722D01*
X13303427Y-13365722D02*
X13293903Y-13356198D01*
X13293903Y-13356198D02*
X13274856Y-13346674D01*
X13274856Y-13346674D02*
X13236761Y-13346674D01*
X13236761Y-13346674D02*
X13217713Y-13356198D01*
X13217713Y-13356198D02*
X13208189Y-13365722D01*
X13208189Y-13365722D02*
X13198665Y-13384769D01*
X13389142Y-13270484D02*
X13389142Y-13308579D01*
X13465332Y-13270484D02*
X13465332Y-13308579D01*
X13760570Y-13546674D02*
X13751046Y-13537150D01*
X13751046Y-13537150D02*
X13731999Y-13508579D01*
X13731999Y-13508579D02*
X13722475Y-13489531D01*
X13722475Y-13489531D02*
X13712951Y-13460960D01*
X13712951Y-13460960D02*
X13703427Y-13413341D01*
X13703427Y-13413341D02*
X13703427Y-13375246D01*
X13703427Y-13375246D02*
X13712951Y-13327627D01*
X13712951Y-13327627D02*
X13722475Y-13299055D01*
X13722475Y-13299055D02*
X13731999Y-13280008D01*
X13731999Y-13280008D02*
X13751046Y-13251436D01*
X13751046Y-13251436D02*
X13760570Y-13241912D01*
X13922475Y-13337150D02*
X13922475Y-13470484D01*
X13874856Y-13260960D02*
X13827237Y-13403817D01*
X13827237Y-13403817D02*
X13951046Y-13403817D01*
X14179618Y-13470484D02*
X14179618Y-13270484D01*
X14265332Y-13470484D02*
X14265332Y-13365722D01*
X14265332Y-13365722D02*
X14255808Y-13346674D01*
X14255808Y-13346674D02*
X14236761Y-13337150D01*
X14236761Y-13337150D02*
X14208189Y-13337150D01*
X14208189Y-13337150D02*
X14189142Y-13346674D01*
X14189142Y-13346674D02*
X14179618Y-13356198D01*
X14389142Y-13470484D02*
X14370094Y-13460960D01*
X14370094Y-13460960D02*
X14360570Y-13451436D01*
X14360570Y-13451436D02*
X14351046Y-13432388D01*
X14351046Y-13432388D02*
X14351046Y-13375246D01*
X14351046Y-13375246D02*
X14360570Y-13356198D01*
X14360570Y-13356198D02*
X14370094Y-13346674D01*
X14370094Y-13346674D02*
X14389142Y-13337150D01*
X14389142Y-13337150D02*
X14417713Y-13337150D01*
X14417713Y-13337150D02*
X14436761Y-13346674D01*
X14436761Y-13346674D02*
X14446285Y-13356198D01*
X14446285Y-13356198D02*
X14455808Y-13375246D01*
X14455808Y-13375246D02*
X14455808Y-13432388D01*
X14455808Y-13432388D02*
X14446285Y-13451436D01*
X14446285Y-13451436D02*
X14436761Y-13460960D01*
X14436761Y-13460960D02*
X14417713Y-13470484D01*
X14417713Y-13470484D02*
X14389142Y-13470484D01*
X14570094Y-13470484D02*
X14551046Y-13460960D01*
X14551046Y-13460960D02*
X14541523Y-13441912D01*
X14541523Y-13441912D02*
X14541523Y-13270484D01*
X14722475Y-13460960D02*
X14703427Y-13470484D01*
X14703427Y-13470484D02*
X14665332Y-13470484D01*
X14665332Y-13470484D02*
X14646285Y-13460960D01*
X14646285Y-13460960D02*
X14636761Y-13441912D01*
X14636761Y-13441912D02*
X14636761Y-13365722D01*
X14636761Y-13365722D02*
X14646285Y-13346674D01*
X14646285Y-13346674D02*
X14665332Y-13337150D01*
X14665332Y-13337150D02*
X14703427Y-13337150D01*
X14703427Y-13337150D02*
X14722475Y-13346674D01*
X14722475Y-13346674D02*
X14731999Y-13365722D01*
X14731999Y-13365722D02*
X14731999Y-13384769D01*
X14731999Y-13384769D02*
X14636761Y-13403817D01*
X14808189Y-13460960D02*
X14827237Y-13470484D01*
X14827237Y-13470484D02*
X14865332Y-13470484D01*
X14865332Y-13470484D02*
X14884380Y-13460960D01*
X14884380Y-13460960D02*
X14893904Y-13441912D01*
X14893904Y-13441912D02*
X14893904Y-13432388D01*
X14893904Y-13432388D02*
X14884380Y-13413341D01*
X14884380Y-13413341D02*
X14865332Y-13403817D01*
X14865332Y-13403817D02*
X14836761Y-13403817D01*
X14836761Y-13403817D02*
X14817713Y-13394293D01*
X14817713Y-13394293D02*
X14808189Y-13375246D01*
X14808189Y-13375246D02*
X14808189Y-13365722D01*
X14808189Y-13365722D02*
X14817713Y-13346674D01*
X14817713Y-13346674D02*
X14836761Y-13337150D01*
X14836761Y-13337150D02*
X14865332Y-13337150D01*
X14865332Y-13337150D02*
X14884380Y-13346674D01*
X14960570Y-13546674D02*
X14970094Y-13537150D01*
X14970094Y-13537150D02*
X14989142Y-13508579D01*
X14989142Y-13508579D02*
X14998666Y-13489531D01*
X14998666Y-13489531D02*
X15008189Y-13460960D01*
X15008189Y-13460960D02*
X15017713Y-13413341D01*
X15017713Y-13413341D02*
X15017713Y-13375246D01*
X15017713Y-13375246D02*
X15008189Y-13327627D01*
X15008189Y-13327627D02*
X14998666Y-13299055D01*
X14998666Y-13299055D02*
X14989142Y-13280008D01*
X14989142Y-13280008D02*
X14970094Y-13251436D01*
X14970094Y-13251436D02*
X14960570Y-13241912D01*
M02*
