G04 #@! TF.GenerationSoftware,KiCad,Pcbnew,8.0.1*
G04 #@! TF.CreationDate,2024-08-06T04:56:33+03:00*
G04 #@! TF.ProjectId,Penguin Junior,50656e67-7569-46e2-904a-756e696f722e,rev?*
G04 #@! TF.SameCoordinates,Original*
G04 #@! TF.FileFunction,Soldermask,Bot*
G04 #@! TF.FilePolarity,Negative*
%FSLAX46Y46*%
G04 Gerber Fmt 4.6, Leading zero omitted, Abs format (unit mm)*
G04 Created by KiCad (PCBNEW 8.0.1) date 2024-08-06 04:56:33*
%MOMM*%
%LPD*%
G01*
G04 APERTURE LIST*
G04 Aperture macros list*
%AMRoundRect*
0 Rectangle with rounded corners*
0 $1 Rounding radius*
0 $2 $3 $4 $5 $6 $7 $8 $9 X,Y pos of 4 corners*
0 Add a 4 corners polygon primitive as box body*
4,1,4,$2,$3,$4,$5,$6,$7,$8,$9,$2,$3,0*
0 Add four circle primitives for the rounded corners*
1,1,$1+$1,$2,$3*
1,1,$1+$1,$4,$5*
1,1,$1+$1,$6,$7*
1,1,$1+$1,$8,$9*
0 Add four rect primitives between the rounded corners*
20,1,$1+$1,$2,$3,$4,$5,0*
20,1,$1+$1,$4,$5,$6,$7,0*
20,1,$1+$1,$6,$7,$8,$9,0*
20,1,$1+$1,$8,$9,$2,$3,0*%
%AMFreePoly0*
4,1,19,0.550000,-0.750000,0.000000,-0.750000,0.000000,-0.744911,-0.071157,-0.744911,-0.207708,-0.704816,-0.327430,-0.627875,-0.420627,-0.520320,-0.479746,-0.390866,-0.500000,-0.250000,-0.500000,0.250000,-0.479746,0.390866,-0.420627,0.520320,-0.327430,0.627875,-0.207708,0.704816,-0.071157,0.744911,0.000000,0.744911,0.000000,0.750000,0.550000,0.750000,0.550000,-0.750000,0.550000,-0.750000,
$1*%
%AMFreePoly1*
4,1,19,0.000000,0.744911,0.071157,0.744911,0.207708,0.704816,0.327430,0.627875,0.420627,0.520320,0.479746,0.390866,0.500000,0.250000,0.500000,-0.250000,0.479746,-0.390866,0.420627,-0.520320,0.327430,-0.627875,0.207708,-0.704816,0.071157,-0.744911,0.000000,-0.744911,0.000000,-0.750000,-0.550000,-0.750000,-0.550000,0.750000,0.000000,0.750000,0.000000,0.744911,0.000000,0.744911,
$1*%
%AMFreePoly2*
4,1,19,0.500000,-0.750000,0.000000,-0.750000,0.000000,-0.744911,-0.071157,-0.744911,-0.207708,-0.704816,-0.327430,-0.627875,-0.420627,-0.520320,-0.479746,-0.390866,-0.500000,-0.250000,-0.500000,0.250000,-0.479746,0.390866,-0.420627,0.520320,-0.327430,0.627875,-0.207708,0.704816,-0.071157,0.744911,0.000000,0.744911,0.000000,0.750000,0.500000,0.750000,0.500000,-0.750000,0.500000,-0.750000,
$1*%
%AMFreePoly3*
4,1,19,0.000000,0.744911,0.071157,0.744911,0.207708,0.704816,0.327430,0.627875,0.420627,0.520320,0.479746,0.390866,0.500000,0.250000,0.500000,-0.250000,0.479746,-0.390866,0.420627,-0.520320,0.327430,-0.627875,0.207708,-0.704816,0.071157,-0.744911,0.000000,-0.744911,0.000000,-0.750000,-0.500000,-0.750000,-0.500000,0.750000,0.000000,0.750000,0.000000,0.744911,0.000000,0.744911,
$1*%
G04 Aperture macros list end*
%ADD10O,0.900000X1.300000*%
%ADD11C,0.700000*%
%ADD12C,4.400000*%
%ADD13C,1.600000*%
%ADD14C,1.700000*%
%ADD15O,1.700000X1.700000*%
%ADD16C,1.000000*%
%ADD17O,1.000000X1.000000*%
%ADD18O,1.000000X1.400000*%
%ADD19O,1.000000X1.800000*%
%ADD20RoundRect,0.135000X0.185000X-0.135000X0.185000X0.135000X-0.185000X0.135000X-0.185000X-0.135000X0*%
%ADD21RoundRect,0.250000X1.000000X0.900000X-1.000000X0.900000X-1.000000X-0.900000X1.000000X-0.900000X0*%
%ADD22FreePoly0,180.000000*%
%ADD23R,1.000000X1.500000*%
%ADD24FreePoly1,180.000000*%
%ADD25RoundRect,0.135000X-0.135000X-0.185000X0.135000X-0.185000X0.135000X0.185000X-0.135000X0.185000X0*%
%ADD26FreePoly2,180.000000*%
%ADD27FreePoly3,180.000000*%
%ADD28R,1.910000X0.610000*%
%ADD29R,1.205000X1.550000*%
%ADD30RoundRect,0.135000X-0.185000X0.135000X-0.185000X-0.135000X0.185000X-0.135000X0.185000X0.135000X0*%
%ADD31RoundRect,0.135000X0.135000X0.185000X-0.135000X0.185000X-0.135000X-0.185000X0.135000X-0.185000X0*%
%ADD32RoundRect,0.200000X-0.200000X-0.275000X0.200000X-0.275000X0.200000X0.275000X-0.200000X0.275000X0*%
%ADD33RoundRect,0.200000X0.200000X0.275000X-0.200000X0.275000X-0.200000X-0.275000X0.200000X-0.275000X0*%
%ADD34RoundRect,0.250000X-0.475000X0.250000X-0.475000X-0.250000X0.475000X-0.250000X0.475000X0.250000X0*%
%ADD35RoundRect,0.140000X0.140000X0.170000X-0.140000X0.170000X-0.140000X-0.170000X0.140000X-0.170000X0*%
%ADD36R,1.400000X1.200000*%
%ADD37RoundRect,0.140000X-0.170000X0.140000X-0.170000X-0.140000X0.170000X-0.140000X0.170000X0.140000X0*%
%ADD38RoundRect,0.100000X0.100000X-0.637500X0.100000X0.637500X-0.100000X0.637500X-0.100000X-0.637500X0*%
%ADD39R,5.400000X2.850000*%
%ADD40RoundRect,0.250001X0.624999X-0.462499X0.624999X0.462499X-0.624999X0.462499X-0.624999X-0.462499X0*%
%ADD41R,0.700000X1.300000*%
%ADD42R,1.200000X2.000000*%
%ADD43R,1.200000X1.400000*%
%ADD44R,1.050000X1.400000*%
%ADD45RoundRect,0.140000X0.170000X-0.140000X0.170000X0.140000X-0.170000X0.140000X-0.170000X-0.140000X0*%
%ADD46RoundRect,0.150000X-0.825000X-0.150000X0.825000X-0.150000X0.825000X0.150000X-0.825000X0.150000X0*%
%ADD47RoundRect,0.140000X-0.140000X-0.170000X0.140000X-0.170000X0.140000X0.170000X-0.140000X0.170000X0*%
%ADD48RoundRect,0.150000X0.150000X-0.587500X0.150000X0.587500X-0.150000X0.587500X-0.150000X-0.587500X0*%
%ADD49RoundRect,0.250000X0.300000X0.300000X-0.300000X0.300000X-0.300000X-0.300000X0.300000X-0.300000X0*%
%ADD50RoundRect,0.250000X-0.300000X0.300000X-0.300000X-0.300000X0.300000X-0.300000X0.300000X0.300000X0*%
%ADD51FreePoly2,270.000000*%
%ADD52FreePoly3,270.000000*%
%ADD53FreePoly2,90.000000*%
%ADD54FreePoly3,90.000000*%
%ADD55RoundRect,0.250000X-0.400000X-1.450000X0.400000X-1.450000X0.400000X1.450000X-0.400000X1.450000X0*%
G04 APERTURE END LIST*
D10*
X133680000Y-84800000D03*
X132430000Y-84800000D03*
X131180000Y-84800000D03*
X129930000Y-84800000D03*
X128680000Y-84800000D03*
X127430000Y-84800000D03*
X145760000Y-84800000D03*
X144510000Y-84800000D03*
X143260000Y-84800000D03*
D11*
X110275000Y-85860000D03*
X110758274Y-84693274D03*
X110758274Y-87026726D03*
X111925000Y-84210000D03*
D12*
X111925000Y-85860000D03*
D11*
X111925000Y-87510000D03*
X113091726Y-84693274D03*
X113091726Y-87026726D03*
X113575000Y-85860000D03*
X148575000Y-106460000D03*
X149058274Y-105293274D03*
X149058274Y-107626726D03*
X150225000Y-104810000D03*
D12*
X150225000Y-106460000D03*
D11*
X150225000Y-108110000D03*
X151391726Y-105293274D03*
X151391726Y-107626726D03*
X151875000Y-106460000D03*
D13*
X141705000Y-89510000D03*
X141705000Y-91510000D03*
D10*
X142010000Y-107510000D03*
X143260000Y-107510000D03*
X144510000Y-107510000D03*
X145760000Y-107510000D03*
D14*
X105715000Y-84735000D03*
D15*
X105715000Y-87275000D03*
X105715000Y-89815000D03*
X105715000Y-92355000D03*
X105715000Y-94895000D03*
X105715000Y-97435000D03*
X105715000Y-99975000D03*
X105715000Y-102515000D03*
X105715000Y-105055000D03*
X105715000Y-107595000D03*
D10*
X124930000Y-107510000D03*
X126180000Y-107510000D03*
X127430000Y-107510000D03*
X128680000Y-107510000D03*
X129930000Y-107510000D03*
X131180000Y-107510000D03*
D14*
X108255000Y-84735000D03*
D15*
X108255000Y-87275000D03*
X108255000Y-89815000D03*
X108255000Y-92355000D03*
X108255000Y-94895000D03*
X108255000Y-97435000D03*
X108255000Y-99975000D03*
X108255000Y-102515000D03*
X108255000Y-105055000D03*
X108255000Y-107595000D03*
D10*
X134720000Y-107510000D03*
X135970000Y-107510000D03*
X137220000Y-107510000D03*
X138470000Y-107510000D03*
D11*
X110275000Y-106460000D03*
X110758274Y-105293274D03*
X110758274Y-107626726D03*
X111925000Y-104810000D03*
D12*
X111925000Y-106460000D03*
D11*
X111925000Y-108110000D03*
X113091726Y-105293274D03*
X113091726Y-107626726D03*
X113575000Y-106460000D03*
D16*
X112900000Y-95200000D03*
D17*
X111630000Y-95200000D03*
X112900000Y-93930000D03*
X111630000Y-93930000D03*
X112900000Y-92660000D03*
X111630000Y-92660000D03*
X112900000Y-91390000D03*
X111630000Y-91390000D03*
X112900000Y-90120000D03*
X111630000Y-90120000D03*
D18*
X124745000Y-89050000D03*
D19*
X124745000Y-85050000D03*
D18*
X116105000Y-89050000D03*
D19*
X116105000Y-85050000D03*
D11*
X148575000Y-85860000D03*
X149058274Y-84693274D03*
X149058274Y-87026726D03*
X150225000Y-84210000D03*
D12*
X150225000Y-85860000D03*
D11*
X150225000Y-87510000D03*
X151391726Y-84693274D03*
X151391726Y-87026726D03*
X151875000Y-85860000D03*
D10*
X139720000Y-84800000D03*
X138470000Y-84800000D03*
X137220000Y-84800000D03*
D14*
X103175000Y-84735000D03*
D15*
X103175000Y-87275000D03*
X103175000Y-89815000D03*
X103175000Y-92355000D03*
X103175000Y-94895000D03*
X103175000Y-97435000D03*
X103175000Y-99975000D03*
X103175000Y-102515000D03*
X103175000Y-105055000D03*
X103175000Y-107595000D03*
D20*
X143235000Y-92100000D03*
X143235000Y-91080000D03*
X132800000Y-106090000D03*
X132800000Y-105070000D03*
D21*
X149113500Y-96450000D03*
X144813500Y-96450000D03*
D20*
X110117500Y-94640000D03*
X110117500Y-93620000D03*
D22*
X144255000Y-99950000D03*
D23*
X142955000Y-99950000D03*
D24*
X141655000Y-99950000D03*
D25*
X143858000Y-101677000D03*
X144878000Y-101677000D03*
D26*
X112720000Y-97300000D03*
D27*
X111420000Y-97300000D03*
D28*
X144925000Y-93405000D03*
X144925000Y-92135000D03*
X144925000Y-90865000D03*
X144925000Y-89595000D03*
X150485000Y-89595000D03*
X150485000Y-90865000D03*
X150485000Y-92135000D03*
X150485000Y-93405000D03*
D29*
X147102500Y-90725000D03*
X147102500Y-92275000D03*
X148307500Y-90725000D03*
X148307500Y-92275000D03*
D30*
X128300000Y-88580000D03*
X128300000Y-89600000D03*
D31*
X147570000Y-104570000D03*
X146550000Y-104570000D03*
D32*
X140480000Y-87680000D03*
X142130000Y-87680000D03*
D20*
X136650000Y-87140000D03*
X136650000Y-86120000D03*
X111467000Y-103376000D03*
X111467000Y-102356000D03*
D30*
X129240000Y-88580000D03*
X129240000Y-89600000D03*
X145770000Y-100980000D03*
X145770000Y-102000000D03*
D33*
X146010000Y-88070000D03*
X144360000Y-88070000D03*
D20*
X110117000Y-91428000D03*
X110117000Y-90408000D03*
D34*
X156455000Y-92158500D03*
X156455000Y-94058500D03*
D30*
X131860000Y-105070000D03*
X131860000Y-106090000D03*
D35*
X138790000Y-100730000D03*
X137830000Y-100730000D03*
D16*
X119110000Y-108030000D03*
D36*
X135790000Y-102660000D03*
X137990000Y-102660000D03*
X137990000Y-104360000D03*
X135790000Y-104360000D03*
D35*
X123641000Y-89970000D03*
X122681000Y-89970000D03*
D20*
X130910000Y-102180000D03*
X130910000Y-101160000D03*
D37*
X126120000Y-86980000D03*
X126120000Y-87940000D03*
D30*
X120985000Y-87005000D03*
X120985000Y-88025000D03*
D38*
X139780000Y-99272500D03*
X139130000Y-99272500D03*
X138480000Y-99272500D03*
X137830000Y-99272500D03*
X137180000Y-99272500D03*
X136530000Y-99272500D03*
X135880000Y-99272500D03*
X135230000Y-99272500D03*
X134580000Y-99272500D03*
X133930000Y-99272500D03*
X133280000Y-99272500D03*
X132630000Y-99272500D03*
X131980000Y-99272500D03*
X131330000Y-99272500D03*
X131330000Y-93547500D03*
X131980000Y-93547500D03*
X132630000Y-93547500D03*
X133280000Y-93547500D03*
X133930000Y-93547500D03*
X134580000Y-93547500D03*
X135230000Y-93547500D03*
X135880000Y-93547500D03*
X136530000Y-93547500D03*
X137180000Y-93547500D03*
X137830000Y-93547500D03*
X138480000Y-93547500D03*
X139130000Y-93547500D03*
X139780000Y-93547500D03*
D39*
X135555000Y-96410000D03*
D40*
X142169000Y-97416500D03*
X142169000Y-94441500D03*
D31*
X112990000Y-99020000D03*
X111970000Y-99020000D03*
D35*
X135230000Y-92100000D03*
X134270000Y-92100000D03*
D30*
X130918000Y-105163000D03*
X130918000Y-106183000D03*
D20*
X110720000Y-100000000D03*
X110720000Y-98980000D03*
D35*
X142665000Y-93019000D03*
X141705000Y-93019000D03*
D30*
X120043000Y-87005000D03*
X120043000Y-88025000D03*
D35*
X137490000Y-92100000D03*
X136530000Y-92100000D03*
D32*
X145455000Y-86610000D03*
X147105000Y-86610000D03*
D41*
X119698000Y-91393500D03*
X120798000Y-91393500D03*
X121898000Y-91393500D03*
X122998000Y-91393500D03*
X124098000Y-91393500D03*
X125198000Y-91393500D03*
X126298000Y-91393500D03*
X127398000Y-91393500D03*
X128498000Y-91393500D03*
D42*
X114178000Y-101943500D03*
X129698000Y-101943500D03*
D43*
X115018000Y-92243500D03*
D44*
X129773000Y-92243500D03*
D31*
X157455000Y-101330000D03*
X156435000Y-101330000D03*
D45*
X155550000Y-102280000D03*
X155550000Y-101320000D03*
D46*
X147465000Y-103305000D03*
X147465000Y-102035000D03*
X147465000Y-100765000D03*
X147465000Y-99495000D03*
X152415000Y-99495000D03*
X152415000Y-100765000D03*
X152415000Y-102035000D03*
X152415000Y-103305000D03*
D45*
X135720000Y-87110000D03*
X135720000Y-86150000D03*
D20*
X119103000Y-88025000D03*
X119103000Y-87005000D03*
D47*
X151044000Y-98229000D03*
X152004000Y-98229000D03*
D48*
X134030000Y-103667500D03*
X132130000Y-103667500D03*
X133080000Y-101792500D03*
D49*
X130187500Y-86980000D03*
X127387500Y-86980000D03*
D50*
X132140000Y-86980000D03*
X132140000Y-89780000D03*
D30*
X127350000Y-88570000D03*
X127350000Y-89590000D03*
D31*
X157455000Y-102270000D03*
X156435000Y-102270000D03*
D20*
X110526000Y-103779000D03*
X110526000Y-102759000D03*
D45*
X143245000Y-89620000D03*
X143245000Y-88660000D03*
D20*
X145770000Y-100140000D03*
X145770000Y-99120000D03*
X112407000Y-102976000D03*
X112407000Y-101956000D03*
D51*
X141787000Y-102432500D03*
D52*
X141787000Y-103732500D03*
D53*
X141490000Y-85950000D03*
D54*
X141490000Y-84650000D03*
D55*
X134195000Y-89510000D03*
X138645000Y-89510000D03*
M02*
