G04 #@! TF.GenerationSoftware,KiCad,Pcbnew,8.0.1*
G04 #@! TF.CreationDate,2024-08-06T04:56:33+03:00*
G04 #@! TF.ProjectId,Penguin Junior,50656e67-7569-46e2-904a-756e696f722e,rev?*
G04 #@! TF.SameCoordinates,Original*
G04 #@! TF.FileFunction,Copper,L2,Inr*
G04 #@! TF.FilePolarity,Positive*
%FSLAX46Y46*%
G04 Gerber Fmt 4.6, Leading zero omitted, Abs format (unit mm)*
G04 Created by KiCad (PCBNEW 8.0.1) date 2024-08-06 04:56:33*
%MOMM*%
%LPD*%
G01*
G04 APERTURE LIST*
G04 #@! TA.AperFunction,ComponentPad*
%ADD10O,0.900000X1.300000*%
G04 #@! TD*
G04 #@! TA.AperFunction,ComponentPad*
%ADD11C,0.700000*%
G04 #@! TD*
G04 #@! TA.AperFunction,ComponentPad*
%ADD12C,4.400000*%
G04 #@! TD*
G04 #@! TA.AperFunction,ComponentPad*
%ADD13C,1.600000*%
G04 #@! TD*
G04 #@! TA.AperFunction,ComponentPad*
%ADD14C,1.700000*%
G04 #@! TD*
G04 #@! TA.AperFunction,ComponentPad*
%ADD15O,1.700000X1.700000*%
G04 #@! TD*
G04 #@! TA.AperFunction,ComponentPad*
%ADD16C,1.000000*%
G04 #@! TD*
G04 #@! TA.AperFunction,ComponentPad*
%ADD17O,1.000000X1.000000*%
G04 #@! TD*
G04 #@! TA.AperFunction,ComponentPad*
%ADD18O,1.000000X1.400000*%
G04 #@! TD*
G04 #@! TA.AperFunction,ComponentPad*
%ADD19O,1.000000X1.800000*%
G04 #@! TD*
G04 #@! TA.AperFunction,ViaPad*
%ADD20C,0.800000*%
G04 #@! TD*
G04 #@! TA.AperFunction,Conductor*
%ADD21C,0.800000*%
G04 #@! TD*
G04 #@! TA.AperFunction,Conductor*
%ADD22C,0.400000*%
G04 #@! TD*
G04 #@! TA.AperFunction,Conductor*
%ADD23C,0.250000*%
G04 #@! TD*
G04 #@! TA.AperFunction,Conductor*
%ADD24C,0.500000*%
G04 #@! TD*
G04 APERTURE END LIST*
D10*
X133680000Y-84800000D03*
X132430000Y-84800000D03*
X131180000Y-84800000D03*
X129930000Y-84800000D03*
X128680000Y-84800000D03*
X127430000Y-84800000D03*
X145760000Y-84800000D03*
X144510000Y-84800000D03*
X143260000Y-84800000D03*
D11*
X110275000Y-85860000D03*
X110758274Y-84693274D03*
X110758274Y-87026726D03*
X111925000Y-84210000D03*
D12*
X111925000Y-85860000D03*
D11*
X111925000Y-87510000D03*
X113091726Y-84693274D03*
X113091726Y-87026726D03*
X113575000Y-85860000D03*
X148575000Y-106460000D03*
X149058274Y-105293274D03*
X149058274Y-107626726D03*
X150225000Y-104810000D03*
D12*
X150225000Y-106460000D03*
D11*
X150225000Y-108110000D03*
X151391726Y-105293274D03*
X151391726Y-107626726D03*
X151875000Y-106460000D03*
D13*
X141705000Y-89510000D03*
X141705000Y-91510000D03*
D10*
X142010000Y-107510000D03*
X143260000Y-107510000D03*
X144510000Y-107510000D03*
X145760000Y-107510000D03*
D14*
X105715000Y-84735000D03*
D15*
X105715000Y-87275000D03*
X105715000Y-89815000D03*
X105715000Y-92355000D03*
X105715000Y-94895000D03*
X105715000Y-97435000D03*
X105715000Y-99975000D03*
X105715000Y-102515000D03*
X105715000Y-105055000D03*
X105715000Y-107595000D03*
D10*
X124930000Y-107510000D03*
X126180000Y-107510000D03*
X127430000Y-107510000D03*
X128680000Y-107510000D03*
X129930000Y-107510000D03*
X131180000Y-107510000D03*
D14*
X108255000Y-84735000D03*
D15*
X108255000Y-87275000D03*
X108255000Y-89815000D03*
X108255000Y-92355000D03*
X108255000Y-94895000D03*
X108255000Y-97435000D03*
X108255000Y-99975000D03*
X108255000Y-102515000D03*
X108255000Y-105055000D03*
X108255000Y-107595000D03*
D10*
X134720000Y-107510000D03*
X135970000Y-107510000D03*
X137220000Y-107510000D03*
X138470000Y-107510000D03*
D11*
X110275000Y-106460000D03*
X110758274Y-105293274D03*
X110758274Y-107626726D03*
X111925000Y-104810000D03*
D12*
X111925000Y-106460000D03*
D11*
X111925000Y-108110000D03*
X113091726Y-105293274D03*
X113091726Y-107626726D03*
X113575000Y-106460000D03*
D16*
X112900000Y-95200000D03*
D17*
X111630000Y-95200000D03*
X112900000Y-93930000D03*
X111630000Y-93930000D03*
X112900000Y-92660000D03*
X111630000Y-92660000D03*
X112900000Y-91390000D03*
X111630000Y-91390000D03*
X112900000Y-90120000D03*
X111630000Y-90120000D03*
D18*
X124745000Y-89050000D03*
D19*
X124745000Y-85050000D03*
D18*
X116105000Y-89050000D03*
D19*
X116105000Y-85050000D03*
D11*
X148575000Y-85860000D03*
X149058274Y-84693274D03*
X149058274Y-87026726D03*
X150225000Y-84210000D03*
D12*
X150225000Y-85860000D03*
D11*
X150225000Y-87510000D03*
X151391726Y-84693274D03*
X151391726Y-87026726D03*
X151875000Y-85860000D03*
D10*
X139720000Y-84800000D03*
X138470000Y-84800000D03*
X137220000Y-84800000D03*
D14*
X103175000Y-84735000D03*
D15*
X103175000Y-87275000D03*
X103175000Y-89815000D03*
X103175000Y-92355000D03*
X103175000Y-94895000D03*
X103175000Y-97435000D03*
X103175000Y-99975000D03*
X103175000Y-102515000D03*
X103175000Y-105055000D03*
X103175000Y-107595000D03*
D20*
X140480000Y-87605000D03*
X140639999Y-107260000D03*
X159455000Y-87410000D03*
X159455000Y-88410000D03*
X158455000Y-87410000D03*
X144903512Y-101651488D03*
X144829250Y-97199998D03*
X155455000Y-87410000D03*
X153455000Y-88410000D03*
X139839999Y-107260000D03*
X154455000Y-86410000D03*
X132756000Y-107260000D03*
X155455000Y-85410000D03*
X156455000Y-89410000D03*
X158455000Y-89410000D03*
X156455000Y-91633500D03*
X147340000Y-107260000D03*
X153455000Y-85410000D03*
X155455000Y-86410000D03*
X156455000Y-88410000D03*
X153455000Y-86410000D03*
X144829250Y-95700000D03*
X157455000Y-87410000D03*
X155455000Y-88410000D03*
X156455000Y-86410000D03*
X130520500Y-93769131D03*
X156455000Y-85410000D03*
X121008136Y-107961000D03*
X158455000Y-88410000D03*
X147205002Y-91500000D03*
X147340000Y-108060000D03*
X116015600Y-92185600D03*
X147205002Y-90350000D03*
X157404999Y-91633500D03*
X157455000Y-89410000D03*
X143995002Y-95700000D03*
X158455000Y-85410000D03*
X129210000Y-101480000D03*
X155455000Y-89410000D03*
X145663499Y-96449999D03*
X154455000Y-90410000D03*
X153455000Y-89410000D03*
X119110500Y-106480000D03*
X143995002Y-97199999D03*
X154455000Y-88410000D03*
X159455000Y-86410000D03*
X159455000Y-89410000D03*
X145663499Y-95700000D03*
X140639999Y-108060000D03*
X157455000Y-88410000D03*
X148204998Y-91500000D03*
X157455000Y-85410000D03*
X156455000Y-84410000D03*
X148204998Y-90350000D03*
X154455000Y-89410000D03*
X158455000Y-86410000D03*
X147705000Y-90925000D03*
X154455000Y-84410000D03*
X130750000Y-90340000D03*
X155455000Y-84410000D03*
X153455000Y-87410000D03*
X158455000Y-84410000D03*
X149039795Y-99314546D03*
X147205002Y-92649999D03*
X156455000Y-87410000D03*
X154455000Y-85410000D03*
X157455000Y-86410000D03*
X147705000Y-92074999D03*
X133671379Y-107260000D03*
X145663499Y-97199999D03*
X148204998Y-92649998D03*
X158455000Y-90410000D03*
X159455000Y-85410000D03*
X144829250Y-96449999D03*
X129536150Y-92006650D03*
X139839999Y-108060000D03*
X115450000Y-91620000D03*
X155505000Y-91633500D03*
X157455000Y-90410000D03*
X157455000Y-84410000D03*
X156455000Y-90410000D03*
X155455000Y-90410000D03*
X154455000Y-87410000D03*
X143995002Y-96449999D03*
X114740000Y-97020000D03*
X117650000Y-99330000D03*
X119110000Y-108030000D03*
X139979117Y-91710000D03*
X140710000Y-92550000D03*
X123688604Y-88070558D03*
X118025000Y-88691000D03*
X145678000Y-94504000D03*
X149963499Y-95700000D03*
X149963499Y-97199998D03*
X149113499Y-96449999D03*
X148263500Y-95700000D03*
X148263500Y-96449999D03*
X149113499Y-95700000D03*
X148263500Y-97199999D03*
X149963499Y-96449999D03*
X149113499Y-97199999D03*
X157455000Y-103910000D03*
X153455000Y-104910000D03*
X154455000Y-105910000D03*
X158455000Y-107910000D03*
X156455000Y-105910000D03*
X159455000Y-104910000D03*
X154455000Y-103910000D03*
X154455000Y-107910000D03*
X154455000Y-104910000D03*
X158455000Y-103910000D03*
X156455000Y-106910000D03*
X155455000Y-106910000D03*
X156455000Y-103910000D03*
X155455000Y-104910000D03*
X153455000Y-106910000D03*
X153455000Y-105910000D03*
X154455000Y-106910000D03*
X156455000Y-107910000D03*
X157455000Y-105910000D03*
X157455000Y-106910000D03*
X158455000Y-105910000D03*
X155455000Y-103910000D03*
X159455000Y-106910000D03*
X157455000Y-107910000D03*
X159455000Y-105910000D03*
X157455000Y-104910000D03*
X156455000Y-104910000D03*
X158455000Y-104910000D03*
X158455000Y-106910000D03*
X155455000Y-105910000D03*
X155455000Y-107910000D03*
X141867500Y-94110000D03*
X141867500Y-94760000D03*
X142517500Y-94760000D03*
X142517500Y-94110000D03*
X117067500Y-105140000D03*
X117067500Y-106600000D03*
X138320000Y-90160000D03*
X138970000Y-90810000D03*
X138320000Y-88210000D03*
X138970000Y-88210000D03*
X138970000Y-89510000D03*
X138320000Y-90810000D03*
X138320000Y-89510000D03*
X138970000Y-90160000D03*
X138320000Y-88860000D03*
X138970000Y-88860000D03*
X117959000Y-94348000D03*
X119025905Y-94308790D03*
X119910000Y-93820000D03*
X118963000Y-95397000D03*
X122899500Y-93150000D03*
X122399500Y-94070000D03*
X121899500Y-95010000D03*
X126200000Y-100080000D03*
X120369282Y-98040719D03*
X119104828Y-98096477D03*
X140587000Y-104107000D03*
X142987000Y-104107000D03*
X142187000Y-104107000D03*
X141387000Y-104107000D03*
X120639684Y-99839073D03*
X119202933Y-99097933D03*
X123460688Y-101190000D03*
X114880000Y-98850000D03*
X122940000Y-96740000D03*
X125929622Y-97352002D03*
X154455000Y-97807000D03*
X158455000Y-99807000D03*
X155455000Y-95807000D03*
X155455000Y-97807000D03*
X156455000Y-96807000D03*
X157455000Y-96807000D03*
X154455000Y-99807000D03*
X158455000Y-97807000D03*
X156455000Y-94583500D03*
X157404999Y-94583500D03*
X157455000Y-98807000D03*
X154455000Y-98807000D03*
X153505000Y-97807000D03*
X157455000Y-95807000D03*
X153505000Y-96807000D03*
X156455000Y-95807000D03*
X155455000Y-99807000D03*
X156455000Y-99807000D03*
X155455000Y-98807000D03*
X158455000Y-95807000D03*
X154455000Y-95807000D03*
X156455000Y-98807000D03*
X158455000Y-98807000D03*
X155455000Y-96807000D03*
X159455000Y-97807000D03*
X154455000Y-96807000D03*
X155505000Y-94583500D03*
X159455000Y-98807000D03*
X159455000Y-96807000D03*
X158455000Y-96807000D03*
X156455000Y-97807000D03*
X157455000Y-97807000D03*
X157455000Y-99807000D03*
X124408373Y-97059793D03*
X127658635Y-101871365D03*
X132250000Y-95340000D03*
X129608176Y-98074500D03*
X131887999Y-101680000D03*
X134881107Y-100685061D03*
X117620000Y-96814500D03*
X124530000Y-94920000D03*
X129436638Y-96675000D03*
X120366697Y-96213303D03*
X125675000Y-94540000D03*
X123680000Y-97841000D03*
X124420000Y-101520000D03*
X130190000Y-88570000D03*
X130770000Y-94750000D03*
X151039000Y-99142000D03*
X139633000Y-102429000D03*
X122149000Y-87955000D03*
X146374031Y-105069085D03*
X135732337Y-101380984D03*
X140439000Y-103079000D03*
X128448398Y-102510000D03*
X129210000Y-100090000D03*
X123880000Y-107260000D03*
X118110000Y-92880000D03*
X119410378Y-100660378D03*
X134520000Y-89510000D03*
X133870000Y-89510000D03*
X134520000Y-88210000D03*
X133870000Y-90810000D03*
X134520000Y-90810000D03*
X134520000Y-90160000D03*
X142987000Y-102058000D03*
X141387000Y-102058000D03*
X133870000Y-88210000D03*
X134520000Y-88860000D03*
X133870000Y-88860000D03*
X140587000Y-102058000D03*
X133870000Y-90160000D03*
X142187000Y-102058000D03*
X132140000Y-86980000D03*
X141490000Y-84650000D03*
X145615000Y-103460000D03*
X133039129Y-86622699D03*
X150220000Y-101737500D03*
X130187500Y-86980000D03*
X144601000Y-103460000D03*
X140580000Y-95770000D03*
X138109623Y-87220393D03*
X132418000Y-86094000D03*
X124720000Y-98010000D03*
X115014312Y-94087615D03*
X126264439Y-98789140D03*
X114893000Y-86424000D03*
X115476000Y-90613000D03*
X126514000Y-85543000D03*
X122410000Y-97600000D03*
X143522000Y-103261000D03*
X114010000Y-98334999D03*
D21*
X124745000Y-92749000D02*
X124745000Y-89050000D01*
X123530000Y-93964000D02*
X124745000Y-92749000D01*
X140639999Y-107260000D02*
X139839999Y-107260000D01*
X129185786Y-101480000D02*
X127295000Y-99589214D01*
X116015600Y-92185600D02*
X115450000Y-91620000D01*
X139839999Y-108060000D02*
X140639999Y-108060000D01*
X123530000Y-95334214D02*
X123530000Y-93964000D01*
X147340000Y-107260000D02*
X147340000Y-108060000D01*
X139839999Y-107260000D02*
X139839999Y-108060000D01*
X125911834Y-95920000D02*
X124115786Y-95920000D01*
X127295000Y-99589214D02*
X127295000Y-97303166D01*
X140639999Y-108060000D02*
X140639999Y-107260000D01*
X129210000Y-101480000D02*
X129185786Y-101480000D01*
X124115786Y-95920000D02*
X123530000Y-95334214D01*
X127295000Y-97303166D02*
X125911834Y-95920000D01*
X149963499Y-95700000D02*
X149963499Y-97199998D01*
X148263500Y-95700000D02*
X149963499Y-95700000D01*
X148263500Y-96449999D02*
X149963499Y-96449999D01*
X148263501Y-97199998D02*
X148263500Y-97199999D01*
X149963499Y-97199998D02*
X148263501Y-97199998D01*
X148263500Y-97199999D02*
X148263500Y-95700000D01*
X158455000Y-103910000D02*
X158455000Y-107910000D01*
X154455000Y-107910000D02*
X158455000Y-107910000D01*
X156455000Y-103910000D02*
X156455000Y-107910000D01*
X153455000Y-104910000D02*
X153455000Y-106910000D01*
X155455000Y-103910000D02*
X155455000Y-107910000D01*
X159455000Y-104910000D02*
X153455000Y-104910000D01*
X157455000Y-103910000D02*
X157455000Y-107910000D01*
X154455000Y-103910000D02*
X158455000Y-103910000D01*
X154455000Y-103910000D02*
X154455000Y-107910000D01*
X153455000Y-105910000D02*
X159455000Y-105910000D01*
X158455000Y-107910000D02*
X159455000Y-106910000D01*
X159455000Y-106910000D02*
X153455000Y-106910000D01*
X153455000Y-106910000D02*
X154455000Y-107910000D01*
X159455000Y-104910000D02*
X158455000Y-103910000D01*
X154455000Y-103910000D02*
X153455000Y-104910000D01*
X159455000Y-104910000D02*
X159455000Y-106910000D01*
X142517500Y-94110000D02*
X141867500Y-94110000D01*
X141867500Y-94760000D02*
X142517500Y-94760000D01*
X142517500Y-94760000D02*
X142517500Y-94110000D01*
X141867500Y-94110000D02*
X141867500Y-94760000D01*
X138970000Y-88210000D02*
X138970000Y-90810000D01*
X138320000Y-88210000D02*
X138970000Y-88210000D01*
X138320000Y-90810000D02*
X138320000Y-88210000D01*
X138970000Y-90810000D02*
X138320000Y-90810000D01*
D22*
X142362082Y-106460000D02*
X143260000Y-107357918D01*
X120369282Y-98040719D02*
X120746263Y-98417700D01*
X137170610Y-106460000D02*
X142362082Y-106460000D01*
X143260000Y-107357918D02*
X143260000Y-107510000D01*
X124850789Y-104560000D02*
X135270610Y-104560000D01*
X122042300Y-101751511D02*
X124850789Y-104560000D01*
D23*
X143260000Y-107510000D02*
X143260000Y-107320000D01*
D22*
X135270610Y-104560000D02*
X137170610Y-106460000D01*
X120746263Y-98417700D02*
X121222199Y-98417700D01*
X121222199Y-98417700D02*
X122042300Y-99237801D01*
X122042300Y-99237801D02*
X122042300Y-101751511D01*
X120088629Y-97190000D02*
X120843027Y-97190000D01*
X119104828Y-98096477D02*
X119182152Y-98096477D01*
X119182152Y-98096477D02*
X120088629Y-97190000D01*
X122642300Y-101502983D02*
X125099317Y-103960000D01*
X143012082Y-105860000D02*
X144510000Y-107357918D01*
D23*
X144510000Y-107510000D02*
X144510000Y-107310000D01*
D22*
X120843027Y-97190000D02*
X122642300Y-98989273D01*
X125099317Y-103960000D02*
X135519138Y-103960000D01*
X135519138Y-103960000D02*
X137419138Y-105860000D01*
X122642300Y-98989273D02*
X122642300Y-101502983D01*
X144510000Y-107357918D02*
X144510000Y-107510000D01*
X137419138Y-105860000D02*
X143012082Y-105860000D01*
D21*
X140587000Y-104107000D02*
X142974000Y-104107000D01*
D22*
X134372082Y-105760000D02*
X135970000Y-107357918D01*
X120639684Y-102045951D02*
X124353733Y-105760000D01*
X124353733Y-105760000D02*
X134372082Y-105760000D01*
X120639684Y-99835084D02*
X120639684Y-102045951D01*
X120632300Y-99827700D02*
X120639684Y-99835084D01*
X135970000Y-107357918D02*
X135970000Y-107510000D01*
X119202933Y-99097933D02*
X119283166Y-99017700D01*
X119283166Y-99017700D02*
X120973671Y-99017700D01*
X124602261Y-105160000D02*
X135022082Y-105160000D01*
X121442300Y-100149071D02*
X121440000Y-100151371D01*
X120973671Y-99017700D02*
X121442300Y-99486329D01*
X135022082Y-105160000D02*
X137220000Y-107357918D01*
X121440000Y-100151371D02*
X121440000Y-101997739D01*
X121442300Y-99486329D02*
X121442300Y-100149071D01*
X137220000Y-107357918D02*
X137220000Y-107510000D01*
X121440000Y-101997739D02*
X124602261Y-105160000D01*
D21*
X154455000Y-98757000D02*
X153505000Y-97807000D01*
X158455000Y-99807000D02*
X159455000Y-98807000D01*
X153505000Y-96757000D02*
X154455000Y-95807000D01*
X155455000Y-94583500D02*
X157455000Y-94583500D01*
X153505000Y-96807000D02*
X153505000Y-97807000D01*
X154455000Y-98807000D02*
X154455000Y-99807000D01*
X155455000Y-94807000D02*
X154455000Y-95807000D01*
X154455000Y-98807000D02*
X154455000Y-98757000D01*
X158455000Y-95583500D02*
X157455000Y-94583500D01*
X158455000Y-95807000D02*
X158455000Y-95583500D01*
X155455000Y-94583500D02*
X155455000Y-94807000D01*
X153505000Y-96807000D02*
X153505000Y-96757000D01*
X159455000Y-96807000D02*
X158455000Y-95807000D01*
X154455000Y-99807000D02*
X158455000Y-99807000D01*
X159455000Y-96807000D02*
X159455000Y-98807000D01*
X132250000Y-95440500D02*
X132250000Y-95340000D01*
X129608176Y-98074500D02*
X129616000Y-98074500D01*
X129616000Y-98074500D02*
X132250000Y-95440500D01*
D24*
X126683276Y-93690000D02*
X125322918Y-93690000D01*
X131887999Y-101680000D02*
X131887999Y-101557999D01*
X131887999Y-101557999D02*
X128586638Y-98256638D01*
X128586638Y-95593362D02*
X126683276Y-93690000D01*
X124530000Y-94482918D02*
X124530000Y-94920000D01*
X128586638Y-98256638D02*
X128586638Y-95593362D01*
X133886168Y-101680000D02*
X131887999Y-101680000D01*
X134881107Y-100685061D02*
X133886168Y-101680000D01*
X125322918Y-93690000D02*
X124530000Y-94482918D01*
D21*
X140439000Y-103079000D02*
X140193786Y-103079000D01*
X139633000Y-102518214D02*
X139633000Y-102429000D01*
X140193786Y-103079000D02*
X139633000Y-102518214D01*
X134520000Y-90810000D02*
X134520000Y-88210000D01*
X133870000Y-88210000D02*
X133870000Y-90810000D01*
X134520000Y-88210000D02*
X133870000Y-88210000D01*
X133870000Y-90810000D02*
X134520000Y-90810000D01*
X140587000Y-102058000D02*
X142987000Y-102058000D01*
X132140000Y-86980000D02*
X132140000Y-86372000D01*
X133680000Y-85981828D02*
X133680000Y-84800000D01*
X133680000Y-85234924D02*
X132820924Y-86094000D01*
D24*
X124930000Y-107287208D02*
X124930000Y-107510000D01*
D21*
X132946699Y-86622699D02*
X132418000Y-86094000D01*
D24*
X134023461Y-106410000D02*
X125807208Y-106410000D01*
D21*
X133039129Y-86622699D02*
X132946699Y-86622699D01*
X133039129Y-86622699D02*
X133680000Y-85981828D01*
X130187500Y-86980000D02*
X132140000Y-86980000D01*
X132140000Y-86980000D02*
X132681828Y-86980000D01*
X133680000Y-84800000D02*
X133680000Y-85234924D01*
X145615000Y-103460000D02*
X144601000Y-103460000D01*
D24*
X134720000Y-107510000D02*
X134720000Y-107106539D01*
X125807208Y-106410000D02*
X124930000Y-107287208D01*
D21*
X132681828Y-86980000D02*
X133039129Y-86622699D01*
X132140000Y-86372000D02*
X132418000Y-86094000D01*
D24*
X134720000Y-107106539D02*
X134023461Y-106410000D01*
D21*
X132820924Y-86094000D02*
X132418000Y-86094000D01*
D22*
X128015899Y-103360000D02*
X122410000Y-97754101D01*
X143787000Y-104438371D02*
X142965371Y-105260000D01*
X142965371Y-105260000D02*
X137667666Y-105260000D01*
X143522000Y-103510629D02*
X143787000Y-103775629D01*
X122410000Y-97754101D02*
X122410000Y-97600000D01*
X143522000Y-103261000D02*
X143522000Y-103510629D01*
X143787000Y-103775629D02*
X143787000Y-104438371D01*
X135767666Y-103360000D02*
X128015899Y-103360000D01*
X137667666Y-105260000D02*
X135767666Y-103360000D01*
G04 #@! TA.AperFunction,Conductor*
G36*
X158378660Y-104054374D02*
G01*
X158383526Y-104057586D01*
X159438399Y-104790085D01*
X159482236Y-104844490D01*
X159491646Y-104894461D01*
X159451101Y-106884940D01*
X159430056Y-106951565D01*
X159409638Y-106974978D01*
X158600460Y-107696281D01*
X158537318Y-107726196D01*
X158519842Y-107727704D01*
X154553658Y-107788272D01*
X154486326Y-107769613D01*
X154470124Y-107757618D01*
X154435926Y-107727704D01*
X153599005Y-106995618D01*
X153561508Y-106936664D01*
X153556655Y-106900865D01*
X153578383Y-105005794D01*
X153598835Y-104938985D01*
X153618703Y-104915701D01*
X154500064Y-104109938D01*
X154562822Y-104079233D01*
X154582324Y-104077466D01*
X158311403Y-104035446D01*
X158378660Y-104054374D01*
G37*
G04 #@! TD.AperFunction*
G04 #@! TA.AperFunction,Conductor*
G36*
X157312006Y-94766509D02*
G01*
X157377662Y-94790400D01*
X157401262Y-94813156D01*
X159186988Y-97062430D01*
X159268963Y-97165685D01*
X159295231Y-97230429D01*
X159295804Y-97246075D01*
X159253912Y-98824917D01*
X159232457Y-98891411D01*
X159188406Y-98930988D01*
X158046120Y-99541504D01*
X157988250Y-99556143D01*
X154882416Y-99570670D01*
X154815285Y-99551299D01*
X154775642Y-99510692D01*
X153390451Y-97213026D01*
X153372696Y-97145450D01*
X153394294Y-97079003D01*
X153407872Y-97062430D01*
X155601459Y-94813159D01*
X155704226Y-94707783D01*
X155765123Y-94673533D01*
X155800852Y-94670608D01*
X157312006Y-94766509D01*
G37*
G04 #@! TD.AperFunction*
G04 #@! TA.AperFunction,Conductor*
G36*
X104798352Y-83979685D02*
G01*
X104844107Y-84032489D01*
X104854051Y-84101647D01*
X104838481Y-84142266D01*
X104840187Y-84143178D01*
X104837316Y-84148548D01*
X104837315Y-84148550D01*
X104817657Y-84185327D01*
X104739769Y-84331043D01*
X104679699Y-84529067D01*
X104659417Y-84735000D01*
X104679699Y-84940932D01*
X104689903Y-84974570D01*
X104739768Y-85138954D01*
X104837315Y-85321450D01*
X104855001Y-85343000D01*
X104968589Y-85481410D01*
X105043638Y-85543000D01*
X105128550Y-85612685D01*
X105311046Y-85710232D01*
X105509066Y-85770300D01*
X105509065Y-85770300D01*
X105527529Y-85772118D01*
X105715000Y-85790583D01*
X105765623Y-85785597D01*
X105777777Y-85785000D01*
X108192223Y-85785000D01*
X108204377Y-85785597D01*
X108255000Y-85790583D01*
X108305623Y-85785597D01*
X108317777Y-85785000D01*
X109398592Y-85785000D01*
X109465631Y-85804685D01*
X109511386Y-85857489D01*
X109522347Y-85901214D01*
X109538718Y-86161446D01*
X109538719Y-86161453D01*
X109538720Y-86161457D01*
X109591906Y-86440271D01*
X109595320Y-86458164D01*
X109688659Y-86745431D01*
X109688661Y-86745436D01*
X109817265Y-87018732D01*
X109817268Y-87018738D01*
X109979111Y-87273763D01*
X109979114Y-87273767D01*
X109979115Y-87273768D01*
X110171651Y-87506504D01*
X110382688Y-87704682D01*
X110391836Y-87713272D01*
X110391846Y-87713280D01*
X110636193Y-87890808D01*
X110636198Y-87890810D01*
X110636205Y-87890816D01*
X110900896Y-88036332D01*
X110900901Y-88036334D01*
X110900903Y-88036335D01*
X110900904Y-88036336D01*
X111181734Y-88147524D01*
X111181737Y-88147525D01*
X111240109Y-88162512D01*
X111474302Y-88222642D01*
X111621039Y-88241179D01*
X111773963Y-88260499D01*
X111773969Y-88260499D01*
X111773973Y-88260500D01*
X111773975Y-88260500D01*
X112076025Y-88260500D01*
X112076027Y-88260500D01*
X112076032Y-88260499D01*
X112076036Y-88260499D01*
X112157321Y-88250230D01*
X112375698Y-88222642D01*
X112668262Y-88147525D01*
X112682929Y-88141718D01*
X112949095Y-88036336D01*
X112949096Y-88036335D01*
X112949094Y-88036335D01*
X112949104Y-88036332D01*
X113097044Y-87955001D01*
X121543318Y-87955001D01*
X121563955Y-88111760D01*
X121563956Y-88111762D01*
X121604647Y-88210000D01*
X121624464Y-88257841D01*
X121720718Y-88383282D01*
X121846159Y-88479536D01*
X121992238Y-88540044D01*
X122070619Y-88550363D01*
X122148999Y-88560682D01*
X122149000Y-88560682D01*
X122149001Y-88560682D01*
X122201254Y-88553802D01*
X122305762Y-88540044D01*
X122451841Y-88479536D01*
X122577282Y-88383282D01*
X122673536Y-88257841D01*
X122734044Y-88111762D01*
X122739468Y-88070559D01*
X123082922Y-88070559D01*
X123103559Y-88227318D01*
X123103560Y-88227320D01*
X123146332Y-88330582D01*
X123164068Y-88373399D01*
X123260322Y-88498840D01*
X123385763Y-88595094D01*
X123531842Y-88655602D01*
X123610223Y-88665921D01*
X123688603Y-88676240D01*
X123688604Y-88676240D01*
X123688605Y-88676240D01*
X123740858Y-88669360D01*
X123845366Y-88655602D01*
X123991445Y-88595094D01*
X124024147Y-88570001D01*
X129584318Y-88570001D01*
X129604955Y-88726760D01*
X129604956Y-88726762D01*
X129665464Y-88872841D01*
X129761718Y-88998282D01*
X129887159Y-89094536D01*
X130033238Y-89155044D01*
X130111619Y-89165363D01*
X130189999Y-89175682D01*
X130190000Y-89175682D01*
X130190001Y-89175682D01*
X130242254Y-89168802D01*
X130346762Y-89155044D01*
X130492841Y-89094536D01*
X130618282Y-88998282D01*
X130714536Y-88872841D01*
X130775044Y-88726762D01*
X130795682Y-88570000D01*
X130794455Y-88560682D01*
X130775044Y-88413239D01*
X130775044Y-88413238D01*
X130714536Y-88267159D01*
X130618282Y-88141718D01*
X130492841Y-88045464D01*
X130470794Y-88036332D01*
X130346762Y-87984956D01*
X130346760Y-87984955D01*
X130190001Y-87964318D01*
X130189999Y-87964318D01*
X130033239Y-87984955D01*
X130033237Y-87984956D01*
X129887160Y-88045463D01*
X129761718Y-88141718D01*
X129665463Y-88267160D01*
X129604956Y-88413237D01*
X129604955Y-88413239D01*
X129584318Y-88569998D01*
X129584318Y-88570001D01*
X124024147Y-88570001D01*
X124116886Y-88498840D01*
X124213140Y-88373399D01*
X124273648Y-88227320D01*
X124294286Y-88070558D01*
X124292005Y-88053235D01*
X124279072Y-87954998D01*
X124273648Y-87913796D01*
X124213140Y-87767717D01*
X124116886Y-87642276D01*
X123991445Y-87546022D01*
X123975885Y-87539577D01*
X123845366Y-87485514D01*
X123845364Y-87485513D01*
X123688605Y-87464876D01*
X123688603Y-87464876D01*
X123531843Y-87485513D01*
X123531841Y-87485514D01*
X123385764Y-87546021D01*
X123260322Y-87642276D01*
X123164067Y-87767718D01*
X123103560Y-87913795D01*
X123103559Y-87913797D01*
X123082922Y-88070556D01*
X123082922Y-88070559D01*
X122739468Y-88070559D01*
X122754682Y-87955000D01*
X122753212Y-87943837D01*
X122735167Y-87806767D01*
X122734044Y-87798238D01*
X122673536Y-87652159D01*
X122577282Y-87526718D01*
X122451841Y-87430464D01*
X122337815Y-87383233D01*
X122305762Y-87369956D01*
X122305760Y-87369955D01*
X122149001Y-87349318D01*
X122148999Y-87349318D01*
X121992239Y-87369955D01*
X121992237Y-87369956D01*
X121846160Y-87430463D01*
X121720718Y-87526718D01*
X121624463Y-87652160D01*
X121563956Y-87798237D01*
X121563955Y-87798239D01*
X121543318Y-87954998D01*
X121543318Y-87955001D01*
X113097044Y-87955001D01*
X113213795Y-87890816D01*
X113458162Y-87713274D01*
X113678349Y-87506504D01*
X113870885Y-87273768D01*
X114032733Y-87018736D01*
X114158833Y-86750757D01*
X114205188Y-86698483D01*
X114272447Y-86679565D01*
X114339258Y-86700014D01*
X114369407Y-86728070D01*
X114464718Y-86852282D01*
X114590159Y-86948536D01*
X114736238Y-87009044D01*
X114771893Y-87013738D01*
X114892999Y-87029682D01*
X114893000Y-87029682D01*
X114893001Y-87029682D01*
X114945254Y-87022802D01*
X115049762Y-87009044D01*
X115195841Y-86948536D01*
X115321282Y-86852282D01*
X115417536Y-86726841D01*
X115478044Y-86580762D01*
X115498682Y-86424000D01*
X115498211Y-86420426D01*
X115478044Y-86267239D01*
X115478044Y-86267238D01*
X115417536Y-86121159D01*
X115321282Y-85995718D01*
X115195841Y-85899464D01*
X115049762Y-85838956D01*
X115049760Y-85838955D01*
X114893001Y-85818318D01*
X114892999Y-85818318D01*
X114736239Y-85838955D01*
X114736237Y-85838956D01*
X114590158Y-85899464D01*
X114529211Y-85946230D01*
X114464042Y-85971423D01*
X114395597Y-85957384D01*
X114345608Y-85908570D01*
X114329971Y-85855640D01*
X114325565Y-85785597D01*
X114325245Y-85780508D01*
X114325000Y-85772723D01*
X114325000Y-85543001D01*
X125908318Y-85543001D01*
X125928955Y-85699760D01*
X125928956Y-85699762D01*
X125978063Y-85818318D01*
X125989464Y-85845841D01*
X126085718Y-85971282D01*
X126211159Y-86067536D01*
X126357238Y-86128044D01*
X126435619Y-86138363D01*
X126513999Y-86148682D01*
X126514000Y-86148682D01*
X126514001Y-86148682D01*
X126566254Y-86141802D01*
X126670762Y-86128044D01*
X126816841Y-86067536D01*
X126942282Y-85971282D01*
X127038536Y-85845841D01*
X127099044Y-85699762D01*
X127119682Y-85543000D01*
X127116917Y-85522000D01*
X127099044Y-85386239D01*
X127099044Y-85386238D01*
X127038536Y-85240159D01*
X126942282Y-85114718D01*
X126816841Y-85018464D01*
X126670762Y-84957956D01*
X126670760Y-84957955D01*
X126514001Y-84937318D01*
X126513999Y-84937318D01*
X126357239Y-84957955D01*
X126357237Y-84957956D01*
X126211160Y-85018463D01*
X126085718Y-85114718D01*
X125989463Y-85240160D01*
X125928956Y-85386237D01*
X125928955Y-85386239D01*
X125908318Y-85542998D01*
X125908318Y-85543001D01*
X114325000Y-85543001D01*
X114325000Y-84084000D01*
X114344685Y-84016961D01*
X114397489Y-83971206D01*
X114449000Y-83960000D01*
X128100692Y-83960000D01*
X128167731Y-83979685D01*
X128213486Y-84032489D01*
X128223430Y-84101647D01*
X128194405Y-84165203D01*
X128188373Y-84171681D01*
X128174726Y-84185327D01*
X128174723Y-84185331D01*
X128103538Y-84291866D01*
X128103533Y-84291875D01*
X128054499Y-84410255D01*
X128054497Y-84410261D01*
X128029500Y-84535928D01*
X128029500Y-84535931D01*
X128029500Y-85064069D01*
X128029500Y-85064071D01*
X128029499Y-85064071D01*
X128054497Y-85189738D01*
X128054499Y-85189744D01*
X128103533Y-85308124D01*
X128103538Y-85308133D01*
X128174723Y-85414668D01*
X128174726Y-85414672D01*
X128265327Y-85505273D01*
X128265331Y-85505276D01*
X128371866Y-85576461D01*
X128371872Y-85576464D01*
X128371873Y-85576465D01*
X128490256Y-85625501D01*
X128541055Y-85635605D01*
X128602963Y-85667989D01*
X128620303Y-85688841D01*
X129631813Y-87218975D01*
X129635761Y-87225360D01*
X129643707Y-87239124D01*
X129650878Y-87253665D01*
X129662963Y-87282841D01*
X129682182Y-87307887D01*
X129691192Y-87321372D01*
X129706975Y-87348709D01*
X129706982Y-87348718D01*
X129729303Y-87371039D01*
X129739997Y-87383233D01*
X129759217Y-87408281D01*
X129784265Y-87427501D01*
X129796460Y-87438196D01*
X129818784Y-87460520D01*
X129818785Y-87460521D01*
X129818787Y-87460522D01*
X129846125Y-87476305D01*
X129859604Y-87485311D01*
X129884659Y-87504536D01*
X129911509Y-87515657D01*
X129913826Y-87516617D01*
X129928373Y-87523791D01*
X129955714Y-87539576D01*
X129955716Y-87539577D01*
X129986208Y-87547746D01*
X130001560Y-87552957D01*
X130030738Y-87565044D01*
X130062041Y-87569165D01*
X130077941Y-87572327D01*
X130108443Y-87580500D01*
X130140013Y-87580500D01*
X130156197Y-87581560D01*
X130187500Y-87585682D01*
X130218802Y-87581560D01*
X130234987Y-87580500D01*
X132060943Y-87580500D01*
X132092513Y-87580500D01*
X132108697Y-87581560D01*
X132140000Y-87585682D01*
X132171302Y-87581560D01*
X132187487Y-87580500D01*
X132595159Y-87580500D01*
X132595175Y-87580501D01*
X132602771Y-87580501D01*
X132760882Y-87580501D01*
X132760885Y-87580501D01*
X132913613Y-87539577D01*
X132974305Y-87504536D01*
X133050544Y-87460520D01*
X133162348Y-87348716D01*
X133162348Y-87348714D01*
X133172552Y-87338511D01*
X133172556Y-87338506D01*
X133290668Y-87220394D01*
X137503941Y-87220394D01*
X137524578Y-87377153D01*
X137524579Y-87377155D01*
X137578157Y-87506505D01*
X137585087Y-87523234D01*
X137681341Y-87648675D01*
X137779635Y-87724098D01*
X137820836Y-87780525D01*
X137824991Y-87850271D01*
X137802526Y-87897954D01*
X137795465Y-87907158D01*
X137795464Y-87907159D01*
X137795460Y-87907165D01*
X137783377Y-87936336D01*
X137776207Y-87950875D01*
X137760425Y-87978212D01*
X137760422Y-87978219D01*
X137752250Y-88008715D01*
X137747038Y-88024067D01*
X137734956Y-88053235D01*
X137734954Y-88053244D01*
X137730832Y-88084545D01*
X137727671Y-88100441D01*
X137719500Y-88130940D01*
X137719500Y-88162512D01*
X137718439Y-88178697D01*
X137714318Y-88209998D01*
X137714318Y-88210000D01*
X137718439Y-88241301D01*
X137719500Y-88257487D01*
X137719500Y-88812512D01*
X137718439Y-88828697D01*
X137714318Y-88859998D01*
X137714318Y-88860000D01*
X137718439Y-88891301D01*
X137719500Y-88907487D01*
X137719500Y-89462512D01*
X137718439Y-89478697D01*
X137714318Y-89509998D01*
X137714318Y-89510000D01*
X137718439Y-89541301D01*
X137719500Y-89557487D01*
X137719500Y-90112512D01*
X137718439Y-90128697D01*
X137714318Y-90159998D01*
X137714318Y-90160000D01*
X137718439Y-90191301D01*
X137719500Y-90207487D01*
X137719500Y-90762512D01*
X137718439Y-90778697D01*
X137714318Y-90809998D01*
X137714318Y-90810000D01*
X137718439Y-90841301D01*
X137719500Y-90857487D01*
X137719500Y-90889057D01*
X137727670Y-90919549D01*
X137730833Y-90935450D01*
X137734956Y-90966764D01*
X137747038Y-90995932D01*
X137752251Y-91011288D01*
X137760422Y-91041781D01*
X137760423Y-91041784D01*
X137776207Y-91069123D01*
X137783379Y-91083668D01*
X137795462Y-91112839D01*
X137795463Y-91112840D01*
X137814682Y-91137887D01*
X137823692Y-91151372D01*
X137839475Y-91178709D01*
X137839482Y-91178718D01*
X137861803Y-91201039D01*
X137872497Y-91213233D01*
X137891717Y-91238281D01*
X137916765Y-91257501D01*
X137928960Y-91268196D01*
X137951284Y-91290520D01*
X137951285Y-91290521D01*
X137951287Y-91290522D01*
X137978625Y-91306305D01*
X137992104Y-91315311D01*
X138017159Y-91334536D01*
X138044009Y-91345657D01*
X138046326Y-91346617D01*
X138060873Y-91353791D01*
X138088214Y-91369576D01*
X138088216Y-91369577D01*
X138118708Y-91377746D01*
X138134060Y-91382957D01*
X138163238Y-91395044D01*
X138194541Y-91399165D01*
X138210441Y-91402327D01*
X138240943Y-91410500D01*
X138255161Y-91410500D01*
X138317519Y-91427320D01*
X139579501Y-92161546D01*
X139592608Y-92170335D01*
X139676276Y-92234536D01*
X139676279Y-92234537D01*
X139676280Y-92234538D01*
X139706753Y-92247160D01*
X139822355Y-92295044D01*
X139900736Y-92305363D01*
X139979116Y-92315682D01*
X139987244Y-92315682D01*
X139987244Y-92317358D01*
X140046727Y-92326629D01*
X140098986Y-92373005D01*
X140117877Y-92440272D01*
X140116825Y-92454991D01*
X140104318Y-92549997D01*
X140104318Y-92550001D01*
X140124955Y-92706760D01*
X140124956Y-92706762D01*
X140175536Y-92828874D01*
X140185464Y-92852841D01*
X140281718Y-92978282D01*
X140407159Y-93074536D01*
X140553238Y-93135044D01*
X140631619Y-93145363D01*
X140709999Y-93155682D01*
X140710000Y-93155682D01*
X140710001Y-93155682D01*
X140762254Y-93148802D01*
X140866762Y-93135044D01*
X141012841Y-93074536D01*
X141138282Y-92978282D01*
X141234536Y-92852841D01*
X141295044Y-92706762D01*
X141312106Y-92577160D01*
X141315682Y-92550001D01*
X141315682Y-92549998D01*
X141295044Y-92393239D01*
X141295044Y-92393238D01*
X141234536Y-92247159D01*
X141138282Y-92121718D01*
X141012841Y-92025464D01*
X140866762Y-91964956D01*
X140866760Y-91964955D01*
X140710001Y-91944318D01*
X140701873Y-91944318D01*
X140701873Y-91942645D01*
X140642371Y-91933361D01*
X140590119Y-91886977D01*
X140571239Y-91819706D01*
X140572291Y-91805006D01*
X140584799Y-91709999D01*
X140584799Y-91709998D01*
X140564161Y-91553239D01*
X140564161Y-91553238D01*
X140503653Y-91407159D01*
X140407399Y-91281718D01*
X140407397Y-91281717D01*
X140407397Y-91281716D01*
X140281958Y-91185464D01*
X140281955Y-91185462D01*
X140229112Y-91163574D01*
X140206742Y-91151486D01*
X139624677Y-90754882D01*
X139580360Y-90700866D01*
X139570500Y-90652409D01*
X139570500Y-90207487D01*
X139571561Y-90191301D01*
X139575682Y-90160000D01*
X139575682Y-90159998D01*
X139571561Y-90128697D01*
X139570500Y-90112512D01*
X139570500Y-89557487D01*
X139571561Y-89541301D01*
X139575682Y-89510000D01*
X140699659Y-89510000D01*
X140718975Y-89706129D01*
X140776188Y-89894733D01*
X140869086Y-90068532D01*
X140869090Y-90068539D01*
X140994116Y-90220883D01*
X141146460Y-90345909D01*
X141146467Y-90345913D01*
X141320266Y-90438811D01*
X141320269Y-90438811D01*
X141320273Y-90438814D01*
X141508868Y-90496024D01*
X141705000Y-90515341D01*
X141901132Y-90496024D01*
X142089727Y-90438814D01*
X142263538Y-90345910D01*
X142415883Y-90220883D01*
X142540910Y-90068538D01*
X142633814Y-89894727D01*
X142691024Y-89706132D01*
X142710341Y-89510000D01*
X142691024Y-89313868D01*
X142633814Y-89125273D01*
X142633811Y-89125269D01*
X142633811Y-89125266D01*
X142540913Y-88951467D01*
X142540909Y-88951460D01*
X142415883Y-88799116D01*
X142263539Y-88674090D01*
X142263532Y-88674086D01*
X142089733Y-88581188D01*
X142089727Y-88581186D01*
X141954101Y-88540044D01*
X141901129Y-88523975D01*
X141705000Y-88504659D01*
X141508870Y-88523975D01*
X141320266Y-88581188D01*
X141146467Y-88674086D01*
X141146460Y-88674090D01*
X140994116Y-88799116D01*
X140869090Y-88951460D01*
X140869086Y-88951467D01*
X140776188Y-89125266D01*
X140718975Y-89313870D01*
X140699659Y-89510000D01*
X139575682Y-89510000D01*
X139575682Y-89509998D01*
X139571561Y-89478697D01*
X139570500Y-89462512D01*
X139570500Y-88907487D01*
X139571561Y-88891301D01*
X139575682Y-88860000D01*
X139575682Y-88859998D01*
X139571561Y-88828697D01*
X139570500Y-88812512D01*
X139570500Y-88257487D01*
X139571561Y-88241301D01*
X139575682Y-88210000D01*
X139575682Y-88209998D01*
X139571561Y-88178697D01*
X139570500Y-88162512D01*
X139570500Y-88130945D01*
X139570500Y-88130943D01*
X139562327Y-88100441D01*
X139559164Y-88084536D01*
X139555044Y-88053239D01*
X139555044Y-88053238D01*
X139542957Y-88024060D01*
X139537745Y-88008703D01*
X139529577Y-87978216D01*
X139516174Y-87955001D01*
X139513791Y-87950873D01*
X139506617Y-87936326D01*
X139497285Y-87913796D01*
X139494536Y-87907159D01*
X139475311Y-87882104D01*
X139466305Y-87868625D01*
X139450522Y-87841287D01*
X139450518Y-87841282D01*
X139428196Y-87818960D01*
X139417501Y-87806765D01*
X139398281Y-87781717D01*
X139373233Y-87762497D01*
X139361039Y-87751803D01*
X139338718Y-87729482D01*
X139338716Y-87729480D01*
X139338713Y-87729478D01*
X139338709Y-87729475D01*
X139311372Y-87713692D01*
X139297887Y-87704682D01*
X139272840Y-87685463D01*
X139272839Y-87685462D01*
X139243668Y-87673379D01*
X139229123Y-87666207D01*
X139201784Y-87650423D01*
X139201781Y-87650422D01*
X139171288Y-87642251D01*
X139155932Y-87637038D01*
X139126764Y-87624956D01*
X139095450Y-87620833D01*
X139079552Y-87617670D01*
X139049057Y-87609500D01*
X139017487Y-87609500D01*
X139001302Y-87608439D01*
X138970000Y-87604318D01*
X138938697Y-87608439D01*
X138922513Y-87609500D01*
X138784005Y-87609500D01*
X138716966Y-87589815D01*
X138671211Y-87537011D01*
X138661267Y-87467853D01*
X138669442Y-87438051D01*
X138694667Y-87377155D01*
X138710925Y-87253665D01*
X138715305Y-87220394D01*
X138715305Y-87220391D01*
X138695383Y-87069067D01*
X138694667Y-87063631D01*
X138634159Y-86917552D01*
X138537905Y-86792111D01*
X138412464Y-86695857D01*
X138394823Y-86688550D01*
X138266385Y-86635349D01*
X138266383Y-86635348D01*
X138109624Y-86614711D01*
X138109622Y-86614711D01*
X137952862Y-86635348D01*
X137952860Y-86635349D01*
X137806783Y-86695856D01*
X137681341Y-86792111D01*
X137585086Y-86917553D01*
X137524579Y-87063630D01*
X137524578Y-87063632D01*
X137503941Y-87220391D01*
X137503941Y-87220394D01*
X133290668Y-87220394D01*
X133397635Y-87113427D01*
X133397640Y-87113423D01*
X133407843Y-87103219D01*
X133407845Y-87103219D01*
X133430177Y-87080885D01*
X133442363Y-87070200D01*
X133467411Y-87050981D01*
X133486630Y-87025933D01*
X133497315Y-87013747D01*
X133519649Y-86991415D01*
X133519649Y-86991413D01*
X133529853Y-86981210D01*
X133529857Y-86981205D01*
X134038506Y-86472556D01*
X134038511Y-86472552D01*
X134048714Y-86462348D01*
X134048716Y-86462348D01*
X134160520Y-86350544D01*
X134239577Y-86213612D01*
X134280500Y-86060885D01*
X134280500Y-85323983D01*
X134280501Y-85323970D01*
X134280501Y-85274764D01*
X134289940Y-85227311D01*
X134305501Y-85189744D01*
X134330500Y-85064069D01*
X134330500Y-84535931D01*
X134330500Y-84535928D01*
X134305502Y-84410261D01*
X134305501Y-84410260D01*
X134305501Y-84410256D01*
X134256465Y-84291873D01*
X134256464Y-84291872D01*
X134256461Y-84291866D01*
X134185276Y-84185331D01*
X134185273Y-84185327D01*
X134171627Y-84171681D01*
X134138142Y-84110358D01*
X134143126Y-84040666D01*
X134184998Y-83984733D01*
X134250462Y-83960316D01*
X134259308Y-83960000D01*
X136640692Y-83960000D01*
X136707731Y-83979685D01*
X136753486Y-84032489D01*
X136763430Y-84101647D01*
X136734405Y-84165203D01*
X136728373Y-84171681D01*
X136714726Y-84185327D01*
X136714723Y-84185331D01*
X136643538Y-84291866D01*
X136643533Y-84291875D01*
X136594499Y-84410255D01*
X136594497Y-84410261D01*
X136569500Y-84535928D01*
X136569500Y-84535931D01*
X136569500Y-85064069D01*
X136569500Y-85064071D01*
X136569499Y-85064071D01*
X136594497Y-85189738D01*
X136594499Y-85189744D01*
X136643533Y-85308124D01*
X136643538Y-85308133D01*
X136714723Y-85414668D01*
X136714726Y-85414672D01*
X136805327Y-85505273D01*
X136805331Y-85505276D01*
X136911866Y-85576461D01*
X136911872Y-85576464D01*
X136911873Y-85576465D01*
X137030256Y-85625501D01*
X137030260Y-85625501D01*
X137030261Y-85625502D01*
X137155928Y-85650500D01*
X137155931Y-85650500D01*
X137284071Y-85650500D01*
X137368615Y-85633682D01*
X137409744Y-85625501D01*
X137528127Y-85576465D01*
X137634669Y-85505276D01*
X137725276Y-85414669D01*
X137796465Y-85308127D01*
X137845501Y-85189744D01*
X137870500Y-85064069D01*
X137870500Y-84535931D01*
X137870500Y-84535928D01*
X137845502Y-84410261D01*
X137845501Y-84410260D01*
X137845501Y-84410256D01*
X137796465Y-84291873D01*
X137796464Y-84291872D01*
X137796461Y-84291866D01*
X137725276Y-84185331D01*
X137725273Y-84185327D01*
X137711627Y-84171681D01*
X137678142Y-84110358D01*
X137683126Y-84040666D01*
X137724998Y-83984733D01*
X137790462Y-83960316D01*
X137799308Y-83960000D01*
X139140692Y-83960000D01*
X139207731Y-83979685D01*
X139253486Y-84032489D01*
X139263430Y-84101647D01*
X139234405Y-84165203D01*
X139228373Y-84171681D01*
X139214726Y-84185327D01*
X139214723Y-84185331D01*
X139143538Y-84291866D01*
X139143533Y-84291875D01*
X139094499Y-84410255D01*
X139094497Y-84410261D01*
X139069500Y-84535928D01*
X139069500Y-84535931D01*
X139069500Y-85064069D01*
X139069500Y-85064071D01*
X139069499Y-85064071D01*
X139094497Y-85189738D01*
X139094499Y-85189744D01*
X139143533Y-85308124D01*
X139143538Y-85308133D01*
X139214723Y-85414668D01*
X139214726Y-85414672D01*
X139305327Y-85505273D01*
X139305331Y-85505276D01*
X139411866Y-85576461D01*
X139411872Y-85576464D01*
X139411873Y-85576465D01*
X139530256Y-85625501D01*
X139530260Y-85625501D01*
X139530261Y-85625502D01*
X139655928Y-85650500D01*
X139655931Y-85650500D01*
X139784071Y-85650500D01*
X139868615Y-85633682D01*
X139909744Y-85625501D01*
X140028127Y-85576465D01*
X140134669Y-85505276D01*
X140225276Y-85414669D01*
X140296465Y-85308127D01*
X140345501Y-85189744D01*
X140370500Y-85064069D01*
X140370500Y-84535931D01*
X140370500Y-84535928D01*
X140345502Y-84410261D01*
X140345501Y-84410260D01*
X140345501Y-84410256D01*
X140296465Y-84291873D01*
X140296464Y-84291872D01*
X140296461Y-84291866D01*
X140225276Y-84185331D01*
X140225273Y-84185327D01*
X140211627Y-84171681D01*
X140178142Y-84110358D01*
X140183126Y-84040666D01*
X140224998Y-83984733D01*
X140290462Y-83960316D01*
X140299308Y-83960000D01*
X141037504Y-83960000D01*
X141104543Y-83979685D01*
X141150298Y-84032489D01*
X141160242Y-84101647D01*
X141131217Y-84165203D01*
X141112990Y-84182376D01*
X141061719Y-84221716D01*
X140965463Y-84347160D01*
X140904956Y-84493237D01*
X140904955Y-84493239D01*
X140884318Y-84649998D01*
X140884318Y-84650001D01*
X140904955Y-84806760D01*
X140904956Y-84806762D01*
X140965464Y-84952841D01*
X141061718Y-85078282D01*
X141187159Y-85174536D01*
X141333238Y-85235044D01*
X141411619Y-85245363D01*
X141489999Y-85255682D01*
X141490000Y-85255682D01*
X141490001Y-85255682D01*
X141542254Y-85248802D01*
X141646762Y-85235044D01*
X141792841Y-85174536D01*
X141918282Y-85078282D01*
X142014536Y-84952841D01*
X142075044Y-84806762D01*
X142095682Y-84650000D01*
X142092483Y-84625704D01*
X142075044Y-84493239D01*
X142075044Y-84493238D01*
X142014536Y-84347159D01*
X141918282Y-84221718D01*
X141918280Y-84221717D01*
X141918280Y-84221716D01*
X141886318Y-84197191D01*
X141867009Y-84182375D01*
X141825807Y-84125948D01*
X141821652Y-84056202D01*
X141855864Y-83995282D01*
X141917581Y-83962529D01*
X141942496Y-83960000D01*
X142680692Y-83960000D01*
X142747731Y-83979685D01*
X142793486Y-84032489D01*
X142803430Y-84101647D01*
X142774405Y-84165203D01*
X142768373Y-84171681D01*
X142754726Y-84185327D01*
X142754723Y-84185331D01*
X142683538Y-84291866D01*
X142683533Y-84291875D01*
X142634499Y-84410255D01*
X142634497Y-84410261D01*
X142609500Y-84535928D01*
X142609500Y-84535931D01*
X142609500Y-85064069D01*
X142609500Y-85064071D01*
X142609499Y-85064071D01*
X142634497Y-85189738D01*
X142634499Y-85189744D01*
X142683533Y-85308124D01*
X142683538Y-85308133D01*
X142754723Y-85414668D01*
X142754726Y-85414672D01*
X142845327Y-85505273D01*
X142845331Y-85505276D01*
X142951866Y-85576461D01*
X142951872Y-85576464D01*
X142951873Y-85576465D01*
X143070256Y-85625501D01*
X143070260Y-85625501D01*
X143070261Y-85625502D01*
X143195928Y-85650500D01*
X143195931Y-85650500D01*
X143324071Y-85650500D01*
X143408615Y-85633682D01*
X143449744Y-85625501D01*
X143568127Y-85576465D01*
X143674669Y-85505276D01*
X143765276Y-85414669D01*
X143836465Y-85308127D01*
X143885501Y-85189744D01*
X143910500Y-85064069D01*
X143910500Y-84535931D01*
X143910500Y-84535928D01*
X143885502Y-84410261D01*
X143885501Y-84410260D01*
X143885501Y-84410256D01*
X143836465Y-84291873D01*
X143836464Y-84291872D01*
X143836461Y-84291866D01*
X143765276Y-84185331D01*
X143765273Y-84185327D01*
X143751627Y-84171681D01*
X143718142Y-84110358D01*
X143723126Y-84040666D01*
X143764998Y-83984733D01*
X143830462Y-83960316D01*
X143839308Y-83960000D01*
X145180692Y-83960000D01*
X145247731Y-83979685D01*
X145293486Y-84032489D01*
X145303430Y-84101647D01*
X145274405Y-84165203D01*
X145268373Y-84171681D01*
X145254726Y-84185327D01*
X145254723Y-84185331D01*
X145183538Y-84291866D01*
X145183533Y-84291875D01*
X145134499Y-84410255D01*
X145134497Y-84410261D01*
X145109500Y-84535928D01*
X145109500Y-84535931D01*
X145109500Y-85064069D01*
X145109500Y-85064071D01*
X145109499Y-85064071D01*
X145134497Y-85189738D01*
X145134499Y-85189744D01*
X145183533Y-85308124D01*
X145183538Y-85308133D01*
X145254723Y-85414668D01*
X145254726Y-85414672D01*
X145345327Y-85505273D01*
X145345331Y-85505276D01*
X145451866Y-85576461D01*
X145451872Y-85576464D01*
X145451873Y-85576465D01*
X145570256Y-85625501D01*
X145570260Y-85625501D01*
X145570261Y-85625502D01*
X145695928Y-85650500D01*
X145695931Y-85650500D01*
X145824071Y-85650500D01*
X145908615Y-85633682D01*
X145949744Y-85625501D01*
X146068127Y-85576465D01*
X146174669Y-85505276D01*
X146265276Y-85414669D01*
X146336465Y-85308127D01*
X146385501Y-85189744D01*
X146410500Y-85064069D01*
X146410500Y-84535931D01*
X146410500Y-84535928D01*
X146385502Y-84410261D01*
X146385501Y-84410260D01*
X146385501Y-84410256D01*
X146336465Y-84291873D01*
X146336464Y-84291872D01*
X146336461Y-84291866D01*
X146265276Y-84185331D01*
X146265273Y-84185327D01*
X146251627Y-84171681D01*
X146218142Y-84110358D01*
X146223126Y-84040666D01*
X146264998Y-83984733D01*
X146330462Y-83960316D01*
X146339308Y-83960000D01*
X147701000Y-83960000D01*
X147768039Y-83979685D01*
X147813794Y-84032489D01*
X147825000Y-84084000D01*
X147825000Y-85772723D01*
X147824755Y-85780509D01*
X147819754Y-85859994D01*
X147819754Y-85860005D01*
X147838718Y-86161446D01*
X147838719Y-86161453D01*
X147838720Y-86161457D01*
X147891906Y-86440271D01*
X147895320Y-86458164D01*
X147988659Y-86745431D01*
X147988661Y-86745436D01*
X148117265Y-87018732D01*
X148117268Y-87018738D01*
X148279111Y-87273763D01*
X148279114Y-87273767D01*
X148279115Y-87273768D01*
X148471651Y-87506504D01*
X148682688Y-87704682D01*
X148691836Y-87713272D01*
X148691846Y-87713280D01*
X148936193Y-87890808D01*
X148936198Y-87890810D01*
X148936205Y-87890816D01*
X149200896Y-88036332D01*
X149200901Y-88036334D01*
X149200903Y-88036335D01*
X149200904Y-88036336D01*
X149481734Y-88147524D01*
X149481737Y-88147525D01*
X149540109Y-88162512D01*
X149774302Y-88222642D01*
X149921039Y-88241179D01*
X150073963Y-88260499D01*
X150073969Y-88260499D01*
X150073973Y-88260500D01*
X150073975Y-88260500D01*
X150376025Y-88260500D01*
X150376027Y-88260500D01*
X150376032Y-88260499D01*
X150376036Y-88260499D01*
X150457321Y-88250230D01*
X150675698Y-88222642D01*
X150968262Y-88147525D01*
X150982929Y-88141718D01*
X151249095Y-88036336D01*
X151249096Y-88036335D01*
X151249094Y-88036335D01*
X151249104Y-88036332D01*
X151513795Y-87890816D01*
X151758162Y-87713274D01*
X151978349Y-87506504D01*
X152170885Y-87273768D01*
X152332733Y-87018736D01*
X152461341Y-86745430D01*
X152554681Y-86458160D01*
X152611280Y-86161457D01*
X152612084Y-86148682D01*
X152630246Y-85860005D01*
X152630246Y-85859994D01*
X152625245Y-85780509D01*
X152625000Y-85772723D01*
X152625000Y-85373000D01*
X153457000Y-85373000D01*
X153506000Y-89387000D01*
X154408000Y-90354000D01*
X155468000Y-91681000D01*
X156440000Y-91660000D01*
X157488000Y-91627000D01*
X159422000Y-89387000D01*
X159390000Y-85244000D01*
X158326000Y-84341000D01*
X154489000Y-84373000D01*
X153457000Y-85373000D01*
X152625000Y-85373000D01*
X152625000Y-84084000D01*
X152644685Y-84016961D01*
X152697489Y-83971206D01*
X152748999Y-83960000D01*
X159153756Y-83960000D01*
X159156279Y-83960028D01*
X159226701Y-83961566D01*
X159251572Y-83964643D01*
X159390049Y-83996249D01*
X159416249Y-84005417D01*
X159542974Y-84066445D01*
X159566484Y-84081217D01*
X159676452Y-84168915D01*
X159696084Y-84188547D01*
X159783782Y-84298515D01*
X159798556Y-84322028D01*
X159859580Y-84448746D01*
X159868751Y-84474954D01*
X159900355Y-84613419D01*
X159903433Y-84638299D01*
X159904808Y-84701261D01*
X159904969Y-84708629D01*
X159904998Y-84711333D01*
X159904998Y-96108400D01*
X159885313Y-96175439D01*
X159832509Y-96221194D01*
X159763351Y-96231138D01*
X159699795Y-96202113D01*
X159693317Y-96196081D01*
X159091820Y-95594584D01*
X159058335Y-95533261D01*
X159055501Y-95506903D01*
X159055501Y-95504444D01*
X159049340Y-95481450D01*
X159014577Y-95351716D01*
X159004951Y-95335043D01*
X158935524Y-95214790D01*
X158935518Y-95214782D01*
X157942590Y-94221855D01*
X157942588Y-94221852D01*
X157823717Y-94102981D01*
X157823716Y-94102980D01*
X157723566Y-94045159D01*
X157723565Y-94045158D01*
X157686783Y-94023922D01*
X157619706Y-94005949D01*
X157534057Y-93982999D01*
X157534054Y-93982999D01*
X157452479Y-93982999D01*
X157436294Y-93981938D01*
X157405000Y-93977818D01*
X157404999Y-93977818D01*
X157373696Y-93981939D01*
X157357512Y-93983000D01*
X156502487Y-93983000D01*
X156486302Y-93981939D01*
X156455000Y-93977818D01*
X156423697Y-93981939D01*
X156407513Y-93983000D01*
X155552487Y-93983000D01*
X155536302Y-93981939D01*
X155505000Y-93977818D01*
X155473697Y-93981939D01*
X155457513Y-93983000D01*
X155375943Y-93983000D01*
X155223216Y-94023923D01*
X155223209Y-94023926D01*
X155086290Y-94102975D01*
X155086282Y-94102981D01*
X154974481Y-94214782D01*
X154974475Y-94214790D01*
X154895426Y-94351709D01*
X154895423Y-94351716D01*
X154854500Y-94504443D01*
X154854500Y-94506902D01*
X154853913Y-94508899D01*
X154853439Y-94512503D01*
X154852877Y-94512429D01*
X154834815Y-94573941D01*
X154818181Y-94594583D01*
X154086281Y-95326483D01*
X154063958Y-95348804D01*
X154051771Y-95359492D01*
X154026718Y-95378717D01*
X154007491Y-95403773D01*
X153996798Y-95415965D01*
X153136286Y-96276478D01*
X153024481Y-96388282D01*
X153024479Y-96388284D01*
X153006922Y-96418696D01*
X152995613Y-96438284D01*
X152945423Y-96525215D01*
X152904499Y-96677943D01*
X152904499Y-96677945D01*
X152904499Y-96759519D01*
X152903438Y-96775704D01*
X152899318Y-96807000D01*
X152902591Y-96831861D01*
X152903439Y-96838301D01*
X152904500Y-96854487D01*
X152904500Y-97720330D01*
X152904499Y-97720348D01*
X152904499Y-97759519D01*
X152903438Y-97775704D01*
X152899318Y-97806998D01*
X152899318Y-97807000D01*
X152903438Y-97838293D01*
X152904499Y-97854479D01*
X152904499Y-97886056D01*
X152912671Y-97916557D01*
X152915834Y-97932458D01*
X152919956Y-97963763D01*
X152919957Y-97963767D01*
X152932038Y-97992934D01*
X152937250Y-98008288D01*
X152945421Y-98038780D01*
X152945425Y-98038790D01*
X152961205Y-98066121D01*
X152968379Y-98080666D01*
X152980464Y-98109841D01*
X152999682Y-98134886D01*
X153008691Y-98148370D01*
X153024480Y-98175716D01*
X153024482Y-98175718D01*
X153046803Y-98198039D01*
X153057497Y-98210233D01*
X153076717Y-98235281D01*
X153101765Y-98254501D01*
X153113960Y-98265196D01*
X153143349Y-98294585D01*
X153143355Y-98294590D01*
X153818181Y-98969416D01*
X153851666Y-99030739D01*
X153854500Y-99057097D01*
X153854500Y-99759512D01*
X153853438Y-99775697D01*
X153849318Y-99807000D01*
X153851718Y-99825233D01*
X153853439Y-99838301D01*
X153854500Y-99854487D01*
X153854500Y-99886057D01*
X153862670Y-99916552D01*
X153865833Y-99932450D01*
X153869956Y-99963764D01*
X153882038Y-99992932D01*
X153887251Y-100008288D01*
X153895422Y-100038781D01*
X153895423Y-100038784D01*
X153911207Y-100066123D01*
X153918379Y-100080668D01*
X153930462Y-100109839D01*
X153930463Y-100109840D01*
X153949682Y-100134887D01*
X153958692Y-100148372D01*
X153974475Y-100175709D01*
X153974482Y-100175718D01*
X153996803Y-100198039D01*
X154007497Y-100210233D01*
X154026717Y-100235281D01*
X154051765Y-100254501D01*
X154063960Y-100265196D01*
X154086284Y-100287520D01*
X154086285Y-100287521D01*
X154086287Y-100287522D01*
X154113625Y-100303305D01*
X154127104Y-100312311D01*
X154152159Y-100331536D01*
X154179009Y-100342657D01*
X154181326Y-100343617D01*
X154195873Y-100350791D01*
X154223214Y-100366576D01*
X154223216Y-100366577D01*
X154253708Y-100374746D01*
X154269060Y-100379957D01*
X154298238Y-100392044D01*
X154329541Y-100396165D01*
X154345441Y-100399327D01*
X154375943Y-100407500D01*
X154407513Y-100407500D01*
X154423697Y-100408560D01*
X154455000Y-100412682D01*
X154486302Y-100408560D01*
X154502487Y-100407500D01*
X155407513Y-100407500D01*
X155423697Y-100408560D01*
X155455000Y-100412682D01*
X155486302Y-100408560D01*
X155502487Y-100407500D01*
X156407513Y-100407500D01*
X156423697Y-100408560D01*
X156455000Y-100412682D01*
X156486302Y-100408560D01*
X156502487Y-100407500D01*
X157407513Y-100407500D01*
X157423697Y-100408560D01*
X157455000Y-100412682D01*
X157486302Y-100408560D01*
X157502487Y-100407500D01*
X158368331Y-100407500D01*
X158368347Y-100407501D01*
X158375943Y-100407501D01*
X158407520Y-100407501D01*
X158423705Y-100408562D01*
X158454999Y-100412682D01*
X158455000Y-100412682D01*
X158455001Y-100412682D01*
X158486295Y-100408562D01*
X158502480Y-100407501D01*
X158534057Y-100407501D01*
X158564554Y-100399328D01*
X158580456Y-100396165D01*
X158611762Y-100392044D01*
X158640943Y-100379956D01*
X158656284Y-100374749D01*
X158686785Y-100366577D01*
X158714131Y-100350787D01*
X158728668Y-100343619D01*
X158757841Y-100331536D01*
X158782895Y-100312310D01*
X158796374Y-100303305D01*
X158823716Y-100287520D01*
X158846040Y-100265194D01*
X158858234Y-100254501D01*
X158883282Y-100235282D01*
X158902502Y-100210233D01*
X158913186Y-100198048D01*
X158935520Y-100175716D01*
X158935520Y-100175714D01*
X158945724Y-100165511D01*
X158945727Y-100165506D01*
X159693318Y-99417916D01*
X159754640Y-99384432D01*
X159824332Y-99389416D01*
X159880265Y-99431288D01*
X159904682Y-99496752D01*
X159904998Y-99505598D01*
X159904998Y-104211400D01*
X159885313Y-104278439D01*
X159832509Y-104324194D01*
X159763351Y-104334138D01*
X159699795Y-104305113D01*
X159693317Y-104299081D01*
X158942590Y-103548355D01*
X158942588Y-103548352D01*
X158913196Y-103518960D01*
X158902501Y-103506765D01*
X158883281Y-103481717D01*
X158858233Y-103462497D01*
X158846039Y-103451803D01*
X158823718Y-103429482D01*
X158823716Y-103429480D01*
X158796370Y-103413691D01*
X158782890Y-103404685D01*
X158757841Y-103385464D01*
X158728665Y-103373378D01*
X158714121Y-103366205D01*
X158686790Y-103350425D01*
X158686780Y-103350421D01*
X158656288Y-103342250D01*
X158640934Y-103337038D01*
X158611767Y-103324957D01*
X158611763Y-103324956D01*
X158580458Y-103320834D01*
X158564557Y-103317671D01*
X158551545Y-103314184D01*
X158534057Y-103309499D01*
X158534056Y-103309499D01*
X158502480Y-103309499D01*
X158486295Y-103308438D01*
X158455001Y-103304318D01*
X158454999Y-103304318D01*
X158423705Y-103308438D01*
X158407520Y-103309499D01*
X158368347Y-103309499D01*
X158368331Y-103309500D01*
X157502487Y-103309500D01*
X157486302Y-103308439D01*
X157455000Y-103304318D01*
X157423697Y-103308439D01*
X157407513Y-103309500D01*
X156502487Y-103309500D01*
X156486302Y-103308439D01*
X156455000Y-103304318D01*
X156423697Y-103308439D01*
X156407513Y-103309500D01*
X155502487Y-103309500D01*
X155486302Y-103308439D01*
X155455000Y-103304318D01*
X155423697Y-103308439D01*
X155407513Y-103309500D01*
X154541670Y-103309500D01*
X154541654Y-103309499D01*
X154534058Y-103309499D01*
X154502480Y-103309499D01*
X154486295Y-103308438D01*
X154455001Y-103304318D01*
X154454999Y-103304318D01*
X154423705Y-103308438D01*
X154407520Y-103309499D01*
X154375943Y-103309499D01*
X154375935Y-103309500D01*
X154345442Y-103317670D01*
X154329541Y-103320834D01*
X154298238Y-103324956D01*
X154298237Y-103324956D01*
X154269062Y-103337040D01*
X154253711Y-103342251D01*
X154223219Y-103350422D01*
X154223213Y-103350424D01*
X154195877Y-103366206D01*
X154181336Y-103373377D01*
X154152165Y-103385460D01*
X154152160Y-103385463D01*
X154127107Y-103404686D01*
X154113629Y-103413691D01*
X154086283Y-103429480D01*
X154063955Y-103451807D01*
X154051767Y-103462496D01*
X154026717Y-103481718D01*
X154007492Y-103506771D01*
X153996803Y-103518960D01*
X153492082Y-104023682D01*
X153430761Y-104057166D01*
X153404403Y-104060000D01*
X150387789Y-104060000D01*
X150379937Y-104059505D01*
X150379922Y-104059745D01*
X150376028Y-104059500D01*
X150376027Y-104059500D01*
X150073973Y-104059500D01*
X150073963Y-104059500D01*
X149774304Y-104097357D01*
X149481737Y-104172474D01*
X149481734Y-104172475D01*
X149200904Y-104283663D01*
X149200903Y-104283664D01*
X148936205Y-104429184D01*
X148936193Y-104429191D01*
X148691846Y-104606719D01*
X148691836Y-104606727D01*
X148471652Y-104813494D01*
X148279111Y-105046236D01*
X148117268Y-105301261D01*
X148117265Y-105301267D01*
X147988661Y-105574563D01*
X147988659Y-105574568D01*
X147895320Y-105861835D01*
X147838719Y-106158546D01*
X147838718Y-106158553D01*
X147819754Y-106459993D01*
X147819754Y-106460000D01*
X147824750Y-106539417D01*
X147824755Y-106539488D01*
X147825000Y-106547275D01*
X147825000Y-108235998D01*
X147805315Y-108303037D01*
X147752511Y-108348792D01*
X147701000Y-108359998D01*
X145079310Y-108359998D01*
X145012271Y-108340313D01*
X144966516Y-108287509D01*
X144956572Y-108218351D01*
X144985597Y-108154795D01*
X144991629Y-108148317D01*
X145015273Y-108124672D01*
X145015276Y-108124669D01*
X145086465Y-108018127D01*
X145135501Y-107899744D01*
X145155156Y-107800934D01*
X145160500Y-107774071D01*
X145160500Y-107245928D01*
X145135502Y-107120261D01*
X145135501Y-107120260D01*
X145135501Y-107120256D01*
X145089231Y-107008550D01*
X145086466Y-107001875D01*
X145086461Y-107001866D01*
X145015276Y-106895331D01*
X145015273Y-106895327D01*
X144924672Y-106804726D01*
X144924668Y-106804723D01*
X144818133Y-106733538D01*
X144818124Y-106733533D01*
X144699744Y-106684499D01*
X144699738Y-106684497D01*
X144574071Y-106659500D01*
X144574069Y-106659500D01*
X144445931Y-106659500D01*
X144445928Y-106659500D01*
X144442422Y-106659845D01*
X144440604Y-106659500D01*
X144439840Y-106659500D01*
X144439840Y-106659355D01*
X144373777Y-106646821D01*
X144342597Y-106624122D01*
X143342800Y-105624324D01*
X143309315Y-105563001D01*
X143314299Y-105493309D01*
X143342798Y-105448965D01*
X143722677Y-105069086D01*
X145768349Y-105069086D01*
X145788986Y-105225845D01*
X145788987Y-105225847D01*
X145820224Y-105301261D01*
X145849495Y-105371926D01*
X145945749Y-105497367D01*
X146071190Y-105593621D01*
X146217269Y-105654129D01*
X146295650Y-105664448D01*
X146374030Y-105674767D01*
X146374031Y-105674767D01*
X146374032Y-105674767D01*
X146426285Y-105667887D01*
X146530793Y-105654129D01*
X146676872Y-105593621D01*
X146802313Y-105497367D01*
X146898567Y-105371926D01*
X146959075Y-105225847D01*
X146979713Y-105069085D01*
X146976704Y-105046232D01*
X146959075Y-104912324D01*
X146959075Y-104912323D01*
X146898567Y-104766244D01*
X146802313Y-104640803D01*
X146676872Y-104544549D01*
X146652172Y-104534318D01*
X146530793Y-104484041D01*
X146530791Y-104484040D01*
X146374032Y-104463403D01*
X146374030Y-104463403D01*
X146217270Y-104484040D01*
X146217268Y-104484041D01*
X146071191Y-104544548D01*
X145945749Y-104640803D01*
X145849494Y-104766245D01*
X145788987Y-104912322D01*
X145788986Y-104912324D01*
X145768349Y-105069083D01*
X145768349Y-105069086D01*
X143722677Y-105069086D01*
X144107480Y-104684284D01*
X144160207Y-104592959D01*
X144187500Y-104491098D01*
X144187500Y-104385644D01*
X144187500Y-104129437D01*
X144207185Y-104062398D01*
X144259989Y-104016643D01*
X144329147Y-104006699D01*
X144361160Y-104017783D01*
X144361706Y-104016467D01*
X144369212Y-104019576D01*
X144369216Y-104019577D01*
X144399708Y-104027746D01*
X144415060Y-104032957D01*
X144444238Y-104045044D01*
X144475541Y-104049165D01*
X144491441Y-104052327D01*
X144521943Y-104060500D01*
X144553513Y-104060500D01*
X144569697Y-104061560D01*
X144601000Y-104065682D01*
X144632302Y-104061560D01*
X144648487Y-104060500D01*
X145567513Y-104060500D01*
X145583697Y-104061560D01*
X145615000Y-104065682D01*
X145646302Y-104061560D01*
X145662487Y-104060500D01*
X145694056Y-104060500D01*
X145694057Y-104060500D01*
X145724555Y-104052327D01*
X145740439Y-104049167D01*
X145771762Y-104045044D01*
X145800930Y-104032961D01*
X145816293Y-104027747D01*
X145835858Y-104022504D01*
X145846784Y-104019577D01*
X145874130Y-104003787D01*
X145888666Y-103996619D01*
X145917841Y-103984536D01*
X145942895Y-103965310D01*
X145956368Y-103956308D01*
X145983716Y-103940520D01*
X146006040Y-103918194D01*
X146018234Y-103907501D01*
X146043282Y-103888282D01*
X146062501Y-103863234D01*
X146073196Y-103851039D01*
X146095520Y-103828716D01*
X146111308Y-103801368D01*
X146120310Y-103787895D01*
X146139536Y-103762841D01*
X146151619Y-103733666D01*
X146158787Y-103719130D01*
X146174577Y-103691784D01*
X146177504Y-103680858D01*
X146182747Y-103661293D01*
X146187962Y-103645928D01*
X146200044Y-103616762D01*
X146204167Y-103585439D01*
X146207329Y-103569549D01*
X146210022Y-103559500D01*
X146215500Y-103539057D01*
X146215500Y-103507487D01*
X146216561Y-103491301D01*
X146217048Y-103487606D01*
X146220682Y-103460000D01*
X146219603Y-103451807D01*
X146216561Y-103428697D01*
X146215500Y-103412512D01*
X146215500Y-103380945D01*
X146215500Y-103380943D01*
X146207327Y-103350441D01*
X146204164Y-103334536D01*
X146202360Y-103320834D01*
X146200044Y-103303238D01*
X146187957Y-103274060D01*
X146182745Y-103258703D01*
X146174577Y-103228216D01*
X146174576Y-103228214D01*
X146158791Y-103200873D01*
X146151617Y-103186326D01*
X146150657Y-103184009D01*
X146139536Y-103157159D01*
X146120311Y-103132104D01*
X146111305Y-103118625D01*
X146095522Y-103091287D01*
X146095518Y-103091282D01*
X146073196Y-103068960D01*
X146062501Y-103056765D01*
X146043281Y-103031717D01*
X146018233Y-103012497D01*
X146006039Y-103001803D01*
X145983718Y-102979482D01*
X145983716Y-102979480D01*
X145983713Y-102979478D01*
X145983709Y-102979475D01*
X145956372Y-102963692D01*
X145942887Y-102954682D01*
X145917840Y-102935463D01*
X145917839Y-102935462D01*
X145888668Y-102923379D01*
X145874123Y-102916207D01*
X145846784Y-102900423D01*
X145846781Y-102900422D01*
X145816288Y-102892251D01*
X145800932Y-102887038D01*
X145771764Y-102874956D01*
X145740450Y-102870833D01*
X145724552Y-102867670D01*
X145694057Y-102859500D01*
X145662487Y-102859500D01*
X145646302Y-102858439D01*
X145615000Y-102854318D01*
X145583697Y-102858439D01*
X145567513Y-102859500D01*
X144648487Y-102859500D01*
X144632302Y-102858439D01*
X144601000Y-102854318D01*
X144569697Y-102858439D01*
X144553513Y-102859500D01*
X144521940Y-102859500D01*
X144491441Y-102867671D01*
X144475545Y-102870832D01*
X144444244Y-102874954D01*
X144444235Y-102874956D01*
X144415067Y-102887038D01*
X144399715Y-102892250D01*
X144369219Y-102900422D01*
X144369217Y-102900422D01*
X144369216Y-102900423D01*
X144369214Y-102900424D01*
X144369212Y-102900425D01*
X144341875Y-102916207D01*
X144327336Y-102923377D01*
X144298165Y-102935460D01*
X144298160Y-102935463D01*
X144273107Y-102954686D01*
X144259629Y-102963691D01*
X144232282Y-102979480D01*
X144225838Y-102984426D01*
X144224054Y-102982101D01*
X144175060Y-103008835D01*
X144105370Y-103003829D01*
X144050364Y-102963148D01*
X144043868Y-102954682D01*
X143950282Y-102832718D01*
X143824841Y-102736464D01*
X143787343Y-102720932D01*
X143761637Y-102710284D01*
X143678762Y-102675956D01*
X143642315Y-102671157D01*
X143521145Y-102655205D01*
X143457249Y-102626938D01*
X143418778Y-102568614D01*
X143417947Y-102498749D01*
X143449651Y-102444584D01*
X143467520Y-102426716D01*
X143483308Y-102399368D01*
X143492310Y-102385895D01*
X143511536Y-102360841D01*
X143523619Y-102331666D01*
X143530787Y-102317130D01*
X143546577Y-102289784D01*
X143549504Y-102278858D01*
X143554747Y-102259293D01*
X143559962Y-102243928D01*
X143572044Y-102214762D01*
X143576167Y-102183439D01*
X143579329Y-102167549D01*
X143587500Y-102137057D01*
X143587500Y-102105487D01*
X143588561Y-102089301D01*
X143592682Y-102058000D01*
X143592682Y-102057998D01*
X143588561Y-102026697D01*
X143587500Y-102010512D01*
X143587500Y-101978945D01*
X143587500Y-101978943D01*
X143579327Y-101948441D01*
X143576164Y-101932536D01*
X143575639Y-101928550D01*
X143572044Y-101901238D01*
X143559957Y-101872060D01*
X143554745Y-101856703D01*
X143553793Y-101853149D01*
X143546577Y-101826216D01*
X143545892Y-101825030D01*
X143530791Y-101798873D01*
X143523617Y-101784326D01*
X143518923Y-101772993D01*
X143511536Y-101755159D01*
X143497987Y-101737501D01*
X149614318Y-101737501D01*
X149634955Y-101894260D01*
X149634956Y-101894262D01*
X149672668Y-101985308D01*
X149695464Y-102040341D01*
X149791718Y-102165782D01*
X149917159Y-102262036D01*
X150063238Y-102322544D01*
X150132588Y-102331674D01*
X150219999Y-102343182D01*
X150220000Y-102343182D01*
X150220001Y-102343182D01*
X150307412Y-102331674D01*
X150376762Y-102322544D01*
X150522841Y-102262036D01*
X150648282Y-102165782D01*
X150744536Y-102040341D01*
X150805044Y-101894262D01*
X150824335Y-101747734D01*
X150825682Y-101737501D01*
X150825682Y-101737498D01*
X150805044Y-101580739D01*
X150805044Y-101580738D01*
X150744536Y-101434659D01*
X150648282Y-101309218D01*
X150522841Y-101212964D01*
X150376762Y-101152456D01*
X150376760Y-101152455D01*
X150220001Y-101131818D01*
X150219999Y-101131818D01*
X150063239Y-101152455D01*
X150063237Y-101152456D01*
X149917160Y-101212963D01*
X149791718Y-101309218D01*
X149695463Y-101434660D01*
X149634956Y-101580737D01*
X149634955Y-101580739D01*
X149614318Y-101737498D01*
X149614318Y-101737501D01*
X143497987Y-101737501D01*
X143492311Y-101730104D01*
X143483305Y-101716625D01*
X143480053Y-101710993D01*
X143467520Y-101689284D01*
X143445196Y-101666960D01*
X143434501Y-101654765D01*
X143433840Y-101653903D01*
X143415282Y-101629718D01*
X143413220Y-101628136D01*
X143390233Y-101610497D01*
X143378039Y-101599803D01*
X143355718Y-101577482D01*
X143355716Y-101577480D01*
X143355713Y-101577478D01*
X143355709Y-101577475D01*
X143328372Y-101561692D01*
X143314887Y-101552682D01*
X143289840Y-101533463D01*
X143289839Y-101533462D01*
X143260668Y-101521379D01*
X143246123Y-101514207D01*
X143218784Y-101498423D01*
X143218781Y-101498422D01*
X143188288Y-101490251D01*
X143172932Y-101485038D01*
X143143764Y-101472956D01*
X143112450Y-101468833D01*
X143096552Y-101465670D01*
X143066057Y-101457500D01*
X143034487Y-101457500D01*
X143018302Y-101456439D01*
X142987000Y-101452318D01*
X142955697Y-101456439D01*
X142939513Y-101457500D01*
X142234487Y-101457500D01*
X142218302Y-101456439D01*
X142187000Y-101452318D01*
X142155697Y-101456439D01*
X142139513Y-101457500D01*
X141434487Y-101457500D01*
X141418302Y-101456439D01*
X141387000Y-101452318D01*
X141355697Y-101456439D01*
X141339513Y-101457500D01*
X140869500Y-101457500D01*
X140802461Y-101437815D01*
X140756706Y-101385011D01*
X140745500Y-101333500D01*
X140745500Y-101104008D01*
X140745499Y-101103992D01*
X140743967Y-101089745D01*
X140740803Y-101060316D01*
X140734335Y-101030583D01*
X140729602Y-101008825D01*
X140729348Y-101007789D01*
X140727110Y-100998627D01*
X140684100Y-100917915D01*
X140638345Y-100865111D01*
X140638339Y-100865104D01*
X140620757Y-100847160D01*
X140620756Y-100847159D01*
X140620754Y-100847157D01*
X140620752Y-100847156D01*
X140620750Y-100847154D01*
X140540940Y-100802511D01*
X140540935Y-100802509D01*
X140473903Y-100782826D01*
X140473899Y-100782825D01*
X140473898Y-100782825D01*
X140416000Y-100774500D01*
X140415996Y-100774500D01*
X135607309Y-100774500D01*
X135540270Y-100754815D01*
X135494515Y-100702011D01*
X135484370Y-100666685D01*
X135466151Y-100528300D01*
X135466151Y-100528299D01*
X135405643Y-100382220D01*
X135309389Y-100256779D01*
X135183948Y-100160525D01*
X135183513Y-100160345D01*
X135037869Y-100100017D01*
X135037867Y-100100016D01*
X134881108Y-100079379D01*
X134881106Y-100079379D01*
X134724346Y-100100016D01*
X134724344Y-100100017D01*
X134578267Y-100160524D01*
X134452825Y-100256779D01*
X134356570Y-100382221D01*
X134296063Y-100528299D01*
X134285682Y-100607145D01*
X134257415Y-100671041D01*
X134250424Y-100678639D01*
X133735884Y-101193181D01*
X133674561Y-101226666D01*
X133648203Y-101229500D01*
X132329418Y-101229500D01*
X132262379Y-101209815D01*
X132253932Y-101203876D01*
X132190839Y-101155463D01*
X132097076Y-101116625D01*
X132056848Y-101089745D01*
X130109104Y-99142001D01*
X150433318Y-99142001D01*
X150453955Y-99298760D01*
X150453956Y-99298762D01*
X150510405Y-99435043D01*
X150514464Y-99444841D01*
X150610718Y-99570282D01*
X150736159Y-99666536D01*
X150882238Y-99727044D01*
X150960619Y-99737363D01*
X151038999Y-99747682D01*
X151039000Y-99747682D01*
X151039001Y-99747682D01*
X151091254Y-99740802D01*
X151195762Y-99727044D01*
X151341841Y-99666536D01*
X151467282Y-99570282D01*
X151563536Y-99444841D01*
X151624044Y-99298762D01*
X151640569Y-99173239D01*
X151644682Y-99142001D01*
X151644682Y-99141998D01*
X151624044Y-98985239D01*
X151624044Y-98985238D01*
X151563536Y-98839159D01*
X151467282Y-98713718D01*
X151341841Y-98617464D01*
X151295029Y-98598074D01*
X151195762Y-98556956D01*
X151195760Y-98556955D01*
X151039001Y-98536318D01*
X151038999Y-98536318D01*
X150882239Y-98556955D01*
X150882237Y-98556956D01*
X150736160Y-98617463D01*
X150610718Y-98713718D01*
X150514463Y-98839160D01*
X150453956Y-98985237D01*
X150453955Y-98985239D01*
X150433318Y-99141998D01*
X150433318Y-99142001D01*
X130109104Y-99142001D01*
X129804632Y-98837529D01*
X129771147Y-98776206D01*
X129776131Y-98706514D01*
X129818003Y-98650581D01*
X129844869Y-98635283D01*
X129847767Y-98634081D01*
X129847785Y-98634077D01*
X129895006Y-98606812D01*
X129909530Y-98599651D01*
X129911017Y-98599036D01*
X129912279Y-98598066D01*
X129925763Y-98589054D01*
X129984716Y-98555020D01*
X130096520Y-98443216D01*
X130096520Y-98443214D01*
X130106728Y-98433007D01*
X130106729Y-98433004D01*
X131339735Y-97199999D01*
X147657818Y-97199999D01*
X147661938Y-97231292D01*
X147662999Y-97247478D01*
X147662999Y-97279055D01*
X147671171Y-97309556D01*
X147674334Y-97325457D01*
X147678456Y-97356762D01*
X147678457Y-97356766D01*
X147690538Y-97385933D01*
X147695750Y-97401287D01*
X147703921Y-97431779D01*
X147703925Y-97431789D01*
X147719705Y-97459120D01*
X147726879Y-97473665D01*
X147738964Y-97502840D01*
X147758182Y-97527885D01*
X147767191Y-97541369D01*
X147782980Y-97568715D01*
X147782982Y-97568717D01*
X147805303Y-97591038D01*
X147815997Y-97603232D01*
X147835217Y-97628280D01*
X147860265Y-97647500D01*
X147872459Y-97658194D01*
X147894784Y-97680519D01*
X147894785Y-97680520D01*
X147894787Y-97680521D01*
X147922127Y-97696306D01*
X147935613Y-97705317D01*
X147960657Y-97724534D01*
X147960658Y-97724534D01*
X147960659Y-97724535D01*
X147989830Y-97736617D01*
X148004368Y-97743787D01*
X148031715Y-97759576D01*
X148062218Y-97767749D01*
X148077569Y-97772961D01*
X148106736Y-97785042D01*
X148106735Y-97785042D01*
X148106738Y-97785043D01*
X148138036Y-97789163D01*
X148153945Y-97792328D01*
X148170901Y-97796871D01*
X148184443Y-97800500D01*
X148216020Y-97800500D01*
X148232205Y-97801561D01*
X148263499Y-97805681D01*
X148263500Y-97805681D01*
X148263501Y-97805681D01*
X148294795Y-97801561D01*
X148310980Y-97800500D01*
X148351184Y-97800500D01*
X148351212Y-97800498D01*
X149066004Y-97800498D01*
X149082188Y-97801558D01*
X149113499Y-97805681D01*
X149144809Y-97801558D01*
X149160994Y-97800498D01*
X149884442Y-97800498D01*
X149916012Y-97800498D01*
X149932196Y-97801558D01*
X149963499Y-97805680D01*
X149994801Y-97801558D01*
X150010986Y-97800498D01*
X150042555Y-97800498D01*
X150042556Y-97800498D01*
X150073054Y-97792325D01*
X150088938Y-97789165D01*
X150120261Y-97785042D01*
X150149429Y-97772959D01*
X150164792Y-97767745D01*
X150184357Y-97762502D01*
X150195283Y-97759575D01*
X150222629Y-97743785D01*
X150237165Y-97736617D01*
X150266340Y-97724534D01*
X150291394Y-97705308D01*
X150304867Y-97696306D01*
X150332215Y-97680518D01*
X150354539Y-97658192D01*
X150366733Y-97647499D01*
X150391781Y-97628280D01*
X150411000Y-97603232D01*
X150421695Y-97591037D01*
X150429441Y-97583291D01*
X150444019Y-97568714D01*
X150459807Y-97541366D01*
X150468809Y-97527893D01*
X150488035Y-97502839D01*
X150500118Y-97473664D01*
X150507286Y-97459128D01*
X150523076Y-97431782D01*
X150528184Y-97412718D01*
X150531246Y-97401291D01*
X150536461Y-97385926D01*
X150540073Y-97377207D01*
X150548543Y-97356760D01*
X150552666Y-97325437D01*
X150555828Y-97309547D01*
X150563999Y-97279055D01*
X150563999Y-97247478D01*
X150565060Y-97231299D01*
X150569181Y-97199998D01*
X150569181Y-97199996D01*
X150565060Y-97168695D01*
X150563999Y-97152510D01*
X150563999Y-96497486D01*
X150565060Y-96481300D01*
X150569181Y-96449999D01*
X150569181Y-96449997D01*
X150565060Y-96418696D01*
X150563999Y-96402511D01*
X150563999Y-95747487D01*
X150565060Y-95731301D01*
X150569181Y-95700000D01*
X150569181Y-95699998D01*
X150565060Y-95668697D01*
X150563999Y-95652512D01*
X150563999Y-95620945D01*
X150563999Y-95620943D01*
X150555826Y-95590441D01*
X150552663Y-95574536D01*
X150548543Y-95543239D01*
X150548543Y-95543238D01*
X150536456Y-95514060D01*
X150531244Y-95498703D01*
X150526622Y-95481452D01*
X150523076Y-95468216D01*
X150522466Y-95467159D01*
X150507290Y-95440873D01*
X150500116Y-95426326D01*
X150493443Y-95410216D01*
X150488035Y-95397159D01*
X150468810Y-95372104D01*
X150459804Y-95358625D01*
X150444021Y-95331287D01*
X150444017Y-95331282D01*
X150421695Y-95308960D01*
X150411000Y-95296765D01*
X150391781Y-95271718D01*
X150383440Y-95265318D01*
X150366732Y-95252497D01*
X150354538Y-95241803D01*
X150332217Y-95219482D01*
X150332215Y-95219480D01*
X150332212Y-95219478D01*
X150332208Y-95219475D01*
X150304871Y-95203692D01*
X150291386Y-95194682D01*
X150266339Y-95175463D01*
X150266338Y-95175462D01*
X150237167Y-95163379D01*
X150222622Y-95156207D01*
X150195283Y-95140423D01*
X150195280Y-95140422D01*
X150164787Y-95132251D01*
X150149431Y-95127038D01*
X150120263Y-95114956D01*
X150088949Y-95110833D01*
X150073051Y-95107670D01*
X150042556Y-95099500D01*
X150010986Y-95099500D01*
X149994801Y-95098439D01*
X149963499Y-95094318D01*
X149932196Y-95098439D01*
X149916012Y-95099500D01*
X149160986Y-95099500D01*
X149144801Y-95098439D01*
X149113499Y-95094318D01*
X149082196Y-95098439D01*
X149066012Y-95099500D01*
X148310987Y-95099500D01*
X148294802Y-95098439D01*
X148263500Y-95094318D01*
X148232197Y-95098439D01*
X148216013Y-95099500D01*
X148184440Y-95099500D01*
X148153941Y-95107671D01*
X148138045Y-95110832D01*
X148106744Y-95114954D01*
X148106735Y-95114956D01*
X148077567Y-95127038D01*
X148062215Y-95132250D01*
X148031719Y-95140422D01*
X148031717Y-95140422D01*
X148031716Y-95140423D01*
X148031714Y-95140424D01*
X148031712Y-95140425D01*
X148004375Y-95156207D01*
X147989836Y-95163377D01*
X147960665Y-95175460D01*
X147960660Y-95175463D01*
X147935607Y-95194686D01*
X147922129Y-95203691D01*
X147894783Y-95219480D01*
X147872455Y-95241807D01*
X147860267Y-95252496D01*
X147835218Y-95271718D01*
X147815996Y-95296767D01*
X147805307Y-95308955D01*
X147782980Y-95331283D01*
X147767191Y-95358629D01*
X147758186Y-95372107D01*
X147738963Y-95397160D01*
X147738960Y-95397165D01*
X147726877Y-95426336D01*
X147719707Y-95440875D01*
X147703925Y-95468212D01*
X147703922Y-95468219D01*
X147695750Y-95498715D01*
X147690538Y-95514067D01*
X147678456Y-95543235D01*
X147678454Y-95543244D01*
X147674332Y-95574545D01*
X147671171Y-95590441D01*
X147663000Y-95620940D01*
X147663000Y-95652512D01*
X147661939Y-95668697D01*
X147657818Y-95699998D01*
X147657818Y-95700000D01*
X147661939Y-95731301D01*
X147663000Y-95747487D01*
X147663000Y-96402511D01*
X147661939Y-96418696D01*
X147657818Y-96449997D01*
X147657818Y-96449999D01*
X147661939Y-96481300D01*
X147663000Y-96497486D01*
X147663000Y-97113329D01*
X147662999Y-97113347D01*
X147662999Y-97152518D01*
X147661938Y-97168703D01*
X147657818Y-97199997D01*
X147657818Y-97199999D01*
X131339735Y-97199999D01*
X132730520Y-95809216D01*
X132753161Y-95770001D01*
X139974318Y-95770001D01*
X139994955Y-95926760D01*
X139994956Y-95926762D01*
X140055464Y-96072841D01*
X140151718Y-96198282D01*
X140277159Y-96294536D01*
X140423238Y-96355044D01*
X140501619Y-96365363D01*
X140579999Y-96375682D01*
X140580000Y-96375682D01*
X140580001Y-96375682D01*
X140632254Y-96368802D01*
X140736762Y-96355044D01*
X140882841Y-96294536D01*
X141008282Y-96198282D01*
X141104536Y-96072841D01*
X141165044Y-95926762D01*
X141181078Y-95804969D01*
X141185682Y-95770001D01*
X141185682Y-95769998D01*
X141168753Y-95641410D01*
X141165044Y-95613238D01*
X141104536Y-95467159D01*
X141008282Y-95341718D01*
X140882841Y-95245464D01*
X140874012Y-95241807D01*
X140736762Y-95184956D01*
X140736760Y-95184955D01*
X140580001Y-95164318D01*
X140579999Y-95164318D01*
X140423239Y-95184955D01*
X140423237Y-95184956D01*
X140277160Y-95245463D01*
X140151718Y-95341718D01*
X140055463Y-95467160D01*
X139994956Y-95613237D01*
X139994955Y-95613239D01*
X139974318Y-95769998D01*
X139974318Y-95770001D01*
X132753161Y-95770001D01*
X132809577Y-95672284D01*
X132850501Y-95519557D01*
X132850501Y-95387479D01*
X132851562Y-95371293D01*
X132854140Y-95351716D01*
X132855682Y-95340000D01*
X132855029Y-95335043D01*
X132851561Y-95308697D01*
X132850500Y-95292512D01*
X132850500Y-95260945D01*
X132850500Y-95260943D01*
X132842327Y-95230441D01*
X132839164Y-95214536D01*
X132838237Y-95207496D01*
X132835044Y-95183238D01*
X132822957Y-95154060D01*
X132817745Y-95138703D01*
X132809577Y-95108216D01*
X132809575Y-95108212D01*
X132793791Y-95080873D01*
X132786617Y-95066326D01*
X132781031Y-95052841D01*
X132774536Y-95037159D01*
X132755311Y-95012104D01*
X132746305Y-94998625D01*
X132742355Y-94991784D01*
X132730520Y-94971284D01*
X132708196Y-94948960D01*
X132697501Y-94936765D01*
X132684635Y-94919998D01*
X132678282Y-94911718D01*
X132671823Y-94906762D01*
X132653233Y-94892497D01*
X132641039Y-94881803D01*
X132618718Y-94859482D01*
X132618716Y-94859480D01*
X132618713Y-94859478D01*
X132618709Y-94859475D01*
X132591372Y-94843692D01*
X132577887Y-94834682D01*
X132552840Y-94815463D01*
X132552839Y-94815462D01*
X132523668Y-94803379D01*
X132509123Y-94796207D01*
X132481784Y-94780423D01*
X132481781Y-94780422D01*
X132451288Y-94772251D01*
X132435932Y-94767038D01*
X132418941Y-94760000D01*
X141261818Y-94760000D01*
X141265939Y-94791301D01*
X141267000Y-94807487D01*
X141267000Y-94839057D01*
X141275170Y-94869549D01*
X141278333Y-94885450D01*
X141282456Y-94916764D01*
X141294538Y-94945932D01*
X141299751Y-94961288D01*
X141307922Y-94991781D01*
X141307923Y-94991784D01*
X141323707Y-95019123D01*
X141330879Y-95033668D01*
X141342962Y-95062839D01*
X141342963Y-95062840D01*
X141362182Y-95087887D01*
X141371192Y-95101372D01*
X141386975Y-95128709D01*
X141386982Y-95128718D01*
X141409303Y-95151039D01*
X141419997Y-95163233D01*
X141435347Y-95183238D01*
X141439218Y-95188282D01*
X141459300Y-95203691D01*
X141464265Y-95207501D01*
X141476460Y-95218196D01*
X141498784Y-95240520D01*
X141498785Y-95240521D01*
X141498787Y-95240522D01*
X141526125Y-95256305D01*
X141539604Y-95265311D01*
X141564659Y-95284536D01*
X141591509Y-95295657D01*
X141593826Y-95296617D01*
X141608373Y-95303791D01*
X141630816Y-95316748D01*
X141635716Y-95319577D01*
X141666208Y-95327746D01*
X141681560Y-95332957D01*
X141710738Y-95345044D01*
X141742041Y-95349165D01*
X141757941Y-95352327D01*
X141788443Y-95360500D01*
X141820013Y-95360500D01*
X141836197Y-95361560D01*
X141867500Y-95365682D01*
X141898802Y-95361560D01*
X141914987Y-95360500D01*
X141946557Y-95360500D01*
X142438443Y-95360500D01*
X142470013Y-95360500D01*
X142486197Y-95361560D01*
X142517500Y-95365682D01*
X142548802Y-95361560D01*
X142564987Y-95360500D01*
X142596556Y-95360500D01*
X142596557Y-95360500D01*
X142627055Y-95352327D01*
X142642939Y-95349167D01*
X142674262Y-95345044D01*
X142703430Y-95332961D01*
X142718793Y-95327747D01*
X142738358Y-95322504D01*
X142749284Y-95319577D01*
X142776630Y-95303787D01*
X142791166Y-95296619D01*
X142820341Y-95284536D01*
X142845395Y-95265310D01*
X142858874Y-95256305D01*
X142886216Y-95240520D01*
X142886218Y-95240517D01*
X142886221Y-95240516D01*
X142908539Y-95218196D01*
X142920734Y-95207501D01*
X142945782Y-95188282D01*
X142965002Y-95163233D01*
X142975696Y-95151039D01*
X142981053Y-95145682D01*
X142998020Y-95128716D01*
X143013808Y-95101368D01*
X143022810Y-95087895D01*
X143042036Y-95062841D01*
X143054119Y-95033666D01*
X143061292Y-95019123D01*
X143077077Y-94991784D01*
X143082569Y-94971287D01*
X143085247Y-94961293D01*
X143090462Y-94945928D01*
X143094258Y-94936765D01*
X143102544Y-94916762D01*
X143106667Y-94885439D01*
X143109829Y-94869549D01*
X143118000Y-94839057D01*
X143118000Y-94807487D01*
X143119061Y-94791301D01*
X143123182Y-94760000D01*
X143123182Y-94759998D01*
X143119061Y-94728697D01*
X143118000Y-94712512D01*
X143118000Y-94504001D01*
X145072318Y-94504001D01*
X145092955Y-94660760D01*
X145092956Y-94660762D01*
X145150742Y-94800271D01*
X145153464Y-94806841D01*
X145249718Y-94932282D01*
X145375159Y-95028536D01*
X145521238Y-95089044D01*
X145599619Y-95099363D01*
X145677999Y-95109682D01*
X145678000Y-95109682D01*
X145678001Y-95109682D01*
X145730254Y-95102802D01*
X145834762Y-95089044D01*
X145980841Y-95028536D01*
X146106282Y-94932282D01*
X146202536Y-94806841D01*
X146263044Y-94660762D01*
X146282572Y-94512429D01*
X146283682Y-94504001D01*
X146283682Y-94503998D01*
X146263708Y-94352282D01*
X146263044Y-94347238D01*
X146202536Y-94201159D01*
X146106282Y-94075718D01*
X145980841Y-93979464D01*
X145976867Y-93977818D01*
X145834762Y-93918956D01*
X145834760Y-93918955D01*
X145678001Y-93898318D01*
X145677999Y-93898318D01*
X145521239Y-93918955D01*
X145521237Y-93918956D01*
X145375160Y-93979463D01*
X145249718Y-94075718D01*
X145153463Y-94201160D01*
X145092956Y-94347237D01*
X145092955Y-94347239D01*
X145072318Y-94503998D01*
X145072318Y-94504001D01*
X143118000Y-94504001D01*
X143118000Y-94157487D01*
X143119061Y-94141301D01*
X143119167Y-94140500D01*
X143123182Y-94110000D01*
X143119061Y-94078697D01*
X143118000Y-94062512D01*
X143118000Y-94030945D01*
X143118000Y-94030943D01*
X143109827Y-94000441D01*
X143106664Y-93984536D01*
X143105996Y-93979464D01*
X143102544Y-93953238D01*
X143090457Y-93924060D01*
X143085245Y-93908703D01*
X143077077Y-93878216D01*
X143066387Y-93859700D01*
X143061291Y-93850873D01*
X143054117Y-93836326D01*
X143052037Y-93831304D01*
X143042036Y-93807159D01*
X143022811Y-93782104D01*
X143013805Y-93768625D01*
X142998022Y-93741287D01*
X142998018Y-93741282D01*
X142975696Y-93718960D01*
X142965001Y-93706765D01*
X142945782Y-93681718D01*
X142936422Y-93674536D01*
X142920733Y-93662497D01*
X142908539Y-93651803D01*
X142886218Y-93629482D01*
X142886216Y-93629480D01*
X142886213Y-93629478D01*
X142886209Y-93629475D01*
X142858872Y-93613692D01*
X142845387Y-93604682D01*
X142820340Y-93585463D01*
X142820339Y-93585462D01*
X142791168Y-93573379D01*
X142776623Y-93566207D01*
X142749284Y-93550423D01*
X142749281Y-93550422D01*
X142718788Y-93542251D01*
X142703432Y-93537038D01*
X142674264Y-93524956D01*
X142642950Y-93520833D01*
X142627052Y-93517670D01*
X142596557Y-93509500D01*
X142564987Y-93509500D01*
X142548802Y-93508439D01*
X142517500Y-93504318D01*
X142486197Y-93508439D01*
X142470013Y-93509500D01*
X141914987Y-93509500D01*
X141898802Y-93508439D01*
X141867500Y-93504318D01*
X141836197Y-93508439D01*
X141820013Y-93509500D01*
X141788440Y-93509500D01*
X141757941Y-93517671D01*
X141742045Y-93520832D01*
X141710744Y-93524954D01*
X141710735Y-93524956D01*
X141681567Y-93537038D01*
X141666215Y-93542250D01*
X141635719Y-93550422D01*
X141635717Y-93550422D01*
X141635716Y-93550423D01*
X141635714Y-93550424D01*
X141635712Y-93550425D01*
X141608375Y-93566207D01*
X141593836Y-93573377D01*
X141564665Y-93585460D01*
X141564660Y-93585463D01*
X141539607Y-93604686D01*
X141526129Y-93613691D01*
X141498783Y-93629480D01*
X141476455Y-93651807D01*
X141464267Y-93662496D01*
X141439218Y-93681718D01*
X141419996Y-93706767D01*
X141409307Y-93718955D01*
X141386980Y-93741283D01*
X141371191Y-93768629D01*
X141362186Y-93782107D01*
X141342963Y-93807160D01*
X141342960Y-93807165D01*
X141330877Y-93836336D01*
X141323707Y-93850875D01*
X141307925Y-93878212D01*
X141307922Y-93878219D01*
X141299750Y-93908715D01*
X141294538Y-93924067D01*
X141282456Y-93953235D01*
X141282454Y-93953244D01*
X141278332Y-93984545D01*
X141275171Y-94000441D01*
X141267000Y-94030940D01*
X141267000Y-94062512D01*
X141265938Y-94078697D01*
X141261818Y-94110000D01*
X141265833Y-94140500D01*
X141265939Y-94141301D01*
X141267000Y-94157487D01*
X141267000Y-94712512D01*
X141265939Y-94728697D01*
X141261818Y-94759998D01*
X141261818Y-94760000D01*
X132418941Y-94760000D01*
X132406764Y-94754956D01*
X132375450Y-94750833D01*
X132359552Y-94747670D01*
X132329057Y-94739500D01*
X132297487Y-94739500D01*
X132281302Y-94738439D01*
X132250000Y-94734318D01*
X132218697Y-94738439D01*
X132202513Y-94739500D01*
X132170940Y-94739500D01*
X132140441Y-94747671D01*
X132124545Y-94750832D01*
X132093244Y-94754954D01*
X132093235Y-94754956D01*
X132064067Y-94767038D01*
X132048715Y-94772250D01*
X132018219Y-94780422D01*
X132018217Y-94780422D01*
X132018216Y-94780423D01*
X132018214Y-94780424D01*
X132018212Y-94780425D01*
X131990875Y-94796207D01*
X131976336Y-94803377D01*
X131947165Y-94815460D01*
X131947160Y-94815463D01*
X131922107Y-94834686D01*
X131908629Y-94843691D01*
X131881283Y-94859480D01*
X131858955Y-94881807D01*
X131846767Y-94892496D01*
X131821718Y-94911718D01*
X131802496Y-94936767D01*
X131791807Y-94948955D01*
X131769480Y-94971283D01*
X131753691Y-94998629D01*
X131744686Y-95012107D01*
X131725463Y-95037160D01*
X131725460Y-95037165D01*
X131713377Y-95066336D01*
X131706207Y-95080875D01*
X131690425Y-95108212D01*
X131690422Y-95108219D01*
X131683419Y-95134353D01*
X131651326Y-95189936D01*
X130234538Y-96606725D01*
X130173215Y-96640210D01*
X130103523Y-96635226D01*
X130047590Y-96593354D01*
X130023919Y-96535231D01*
X130021682Y-96518238D01*
X129961174Y-96372159D01*
X129864920Y-96246718D01*
X129739479Y-96150464D01*
X129664684Y-96119483D01*
X129593400Y-96089956D01*
X129593398Y-96089955D01*
X129436639Y-96069318D01*
X129436637Y-96069318D01*
X129279877Y-96089955D01*
X129279872Y-96089957D01*
X129208590Y-96119483D01*
X129139121Y-96126952D01*
X129076642Y-96095676D01*
X129040990Y-96035587D01*
X129037138Y-96004922D01*
X129037138Y-95534055D01*
X129037138Y-95534053D01*
X129006437Y-95419476D01*
X128977221Y-95368872D01*
X128947127Y-95316748D01*
X128380380Y-94750001D01*
X130164318Y-94750001D01*
X130184955Y-94906760D01*
X130184956Y-94906762D01*
X130235396Y-95028536D01*
X130245464Y-95052841D01*
X130341718Y-95178282D01*
X130467159Y-95274536D01*
X130613238Y-95335044D01*
X130689181Y-95345042D01*
X130769999Y-95355682D01*
X130770000Y-95355682D01*
X130770001Y-95355682D01*
X130850819Y-95345042D01*
X130926762Y-95335044D01*
X131072841Y-95274536D01*
X131198282Y-95178282D01*
X131294536Y-95052841D01*
X131355044Y-94906762D01*
X131371342Y-94782968D01*
X131375682Y-94750001D01*
X131375682Y-94749998D01*
X131355044Y-94593239D01*
X131355044Y-94593238D01*
X131294536Y-94447159D01*
X131198282Y-94321718D01*
X131072841Y-94225464D01*
X131064128Y-94221855D01*
X130926762Y-94164956D01*
X130926760Y-94164955D01*
X130770001Y-94144318D01*
X130769999Y-94144318D01*
X130613239Y-94164955D01*
X130613237Y-94164956D01*
X130467160Y-94225463D01*
X130341718Y-94321718D01*
X130245463Y-94447160D01*
X130184956Y-94593237D01*
X130184955Y-94593239D01*
X130164318Y-94749998D01*
X130164318Y-94750001D01*
X128380380Y-94750001D01*
X126959890Y-93329511D01*
X126908526Y-93299856D01*
X126857164Y-93270201D01*
X126845056Y-93266957D01*
X126832949Y-93263713D01*
X126832946Y-93263712D01*
X126794754Y-93253478D01*
X126742585Y-93239500D01*
X125263609Y-93239500D01*
X125149032Y-93270201D01*
X125107804Y-93294004D01*
X125047837Y-93328626D01*
X125046301Y-93329513D01*
X124169513Y-94206301D01*
X124169509Y-94206307D01*
X124110200Y-94309031D01*
X124108317Y-94316062D01*
X124079500Y-94423609D01*
X124079500Y-94478580D01*
X124059815Y-94545619D01*
X124053876Y-94554066D01*
X124005464Y-94617157D01*
X123944956Y-94763237D01*
X123944955Y-94763239D01*
X123924318Y-94919998D01*
X123924318Y-94920001D01*
X123944955Y-95076760D01*
X123944956Y-95076762D01*
X124004072Y-95219482D01*
X124005464Y-95222841D01*
X124101718Y-95348282D01*
X124227159Y-95444536D01*
X124373238Y-95505044D01*
X124387359Y-95506903D01*
X124529999Y-95525682D01*
X124530000Y-95525682D01*
X124530001Y-95525682D01*
X124618202Y-95514070D01*
X124686762Y-95505044D01*
X124832841Y-95444536D01*
X124958282Y-95348282D01*
X125054536Y-95222841D01*
X125115044Y-95076762D01*
X125115044Y-95076760D01*
X125118154Y-95069253D01*
X125120824Y-95070359D01*
X125149897Y-95022611D01*
X125212729Y-94992051D01*
X125282109Y-95000312D01*
X125308833Y-95015944D01*
X125372159Y-95064536D01*
X125518238Y-95125044D01*
X125572981Y-95132251D01*
X125674999Y-95145682D01*
X125675000Y-95145682D01*
X125675001Y-95145682D01*
X125728011Y-95138703D01*
X125831762Y-95125044D01*
X125977841Y-95064536D01*
X126103282Y-94968282D01*
X126199536Y-94842841D01*
X126260044Y-94696762D01*
X126280682Y-94540000D01*
X126279546Y-94531374D01*
X126260044Y-94383239D01*
X126260042Y-94383234D01*
X126255736Y-94372839D01*
X126244013Y-94344536D01*
X126230517Y-94311952D01*
X126223048Y-94242483D01*
X126254324Y-94180004D01*
X126314413Y-94144352D01*
X126345078Y-94140500D01*
X126445311Y-94140500D01*
X126512350Y-94160185D01*
X126532992Y-94176819D01*
X128099819Y-95743646D01*
X128133304Y-95804969D01*
X128136138Y-95831327D01*
X128136138Y-98315947D01*
X128151998Y-98375136D01*
X128165638Y-98426044D01*
X128166840Y-98430527D01*
X128174164Y-98443213D01*
X128226149Y-98533252D01*
X128226151Y-98533254D01*
X129024272Y-99331375D01*
X129057757Y-99392698D01*
X129052773Y-99462390D01*
X129010901Y-99518323D01*
X128984044Y-99533617D01*
X128907160Y-99565463D01*
X128781718Y-99661718D01*
X128685463Y-99787160D01*
X128624956Y-99933237D01*
X128624955Y-99933239D01*
X128604318Y-100089998D01*
X128604318Y-100090001D01*
X128624955Y-100246760D01*
X128624956Y-100246762D01*
X128684220Y-100389839D01*
X128685464Y-100392841D01*
X128781718Y-100518282D01*
X128907159Y-100614536D01*
X129053238Y-100675044D01*
X129141305Y-100686638D01*
X129159175Y-100688991D01*
X129223071Y-100717258D01*
X129247450Y-100745118D01*
X129704818Y-101460220D01*
X129724357Y-101527302D01*
X129704526Y-101594299D01*
X129651622Y-101639938D01*
X129648827Y-101641166D01*
X129645779Y-101642460D01*
X129584452Y-101675942D01*
X129537627Y-101710989D01*
X129537615Y-101710999D01*
X129522894Y-101725719D01*
X129513701Y-101735533D01*
X129503006Y-101747728D01*
X129499360Y-101752171D01*
X129482178Y-101769354D01*
X129477740Y-101772996D01*
X129465561Y-101783676D01*
X129461351Y-101787619D01*
X129442080Y-101802405D01*
X129437208Y-101805434D01*
X129423715Y-101814450D01*
X129419039Y-101817800D01*
X129398021Y-101829934D01*
X129392802Y-101832299D01*
X129392787Y-101832306D01*
X129392779Y-101832310D01*
X129386521Y-101835396D01*
X129378228Y-101839485D01*
X129373168Y-101842190D01*
X129350723Y-101851488D01*
X129345249Y-101853148D01*
X129329880Y-101858365D01*
X129324505Y-101860388D01*
X129301051Y-101866674D01*
X129295329Y-101867619D01*
X129279466Y-101870775D01*
X129273874Y-101872079D01*
X129249769Y-101875252D01*
X129244061Y-101875438D01*
X129227854Y-101876500D01*
X129222151Y-101877062D01*
X129197848Y-101877062D01*
X129192142Y-101876500D01*
X129192130Y-101876499D01*
X129192128Y-101876499D01*
X129189734Y-101876342D01*
X129175936Y-101875438D01*
X129162513Y-101875000D01*
X129150110Y-101875000D01*
X129118016Y-101870775D01*
X129106230Y-101867617D01*
X129063899Y-101856274D01*
X129049083Y-101852304D01*
X129019185Y-101839920D01*
X128957385Y-101804240D01*
X128931714Y-101784542D01*
X128858178Y-101711007D01*
X128858162Y-101710993D01*
X128841806Y-101696302D01*
X128833094Y-101689282D01*
X128821164Y-101679669D01*
X128796867Y-101666960D01*
X128750125Y-101642510D01*
X128683092Y-101622826D01*
X128682443Y-101622732D01*
X128625187Y-101614500D01*
X128379824Y-101614500D01*
X128379806Y-101614500D01*
X128349386Y-101616767D01*
X128349368Y-101616769D01*
X128306353Y-101623215D01*
X128305921Y-101620337D01*
X128248924Y-101618710D01*
X128191248Y-101579273D01*
X128188221Y-101574892D01*
X128188118Y-101574972D01*
X128183171Y-101568526D01*
X128183171Y-101568524D01*
X128086917Y-101443083D01*
X128066287Y-101427253D01*
X128066280Y-101427243D01*
X128021153Y-101392618D01*
X128005897Y-101378752D01*
X126835734Y-100122367D01*
X126804448Y-100059894D01*
X126802630Y-100031633D01*
X126804197Y-100000441D01*
X126861675Y-98856364D01*
X126862575Y-98846455D01*
X126870121Y-98789140D01*
X126849483Y-98632378D01*
X126788975Y-98486299D01*
X126788974Y-98486297D01*
X126787012Y-98481561D01*
X126780561Y-98461163D01*
X126538289Y-97377205D01*
X126536398Y-97360060D01*
X126536366Y-97360065D01*
X126528084Y-97297159D01*
X126514666Y-97195240D01*
X126454158Y-97049161D01*
X126357904Y-96923720D01*
X126232463Y-96827466D01*
X126086384Y-96766958D01*
X126066860Y-96764387D01*
X125999980Y-96755582D01*
X125991660Y-96754197D01*
X123181952Y-96187731D01*
X123159007Y-96180738D01*
X123096765Y-96154957D01*
X123096760Y-96154955D01*
X122940001Y-96134318D01*
X122939999Y-96134318D01*
X122783239Y-96154955D01*
X122783237Y-96154956D01*
X122637160Y-96215463D01*
X122511718Y-96311718D01*
X122415463Y-96437160D01*
X122354956Y-96583237D01*
X122354955Y-96583239D01*
X122334318Y-96739998D01*
X122334318Y-96740001D01*
X122352333Y-96876840D01*
X122341567Y-96945875D01*
X122295187Y-96998131D01*
X122260491Y-97010626D01*
X122261088Y-97012853D01*
X122253237Y-97014956D01*
X122107160Y-97075463D01*
X121981718Y-97171718D01*
X121885463Y-97297160D01*
X121859407Y-97360065D01*
X121848696Y-97385926D01*
X121848438Y-97386548D01*
X121804597Y-97440951D01*
X121738303Y-97463016D01*
X121670604Y-97445737D01*
X121646196Y-97426776D01*
X121088942Y-96869522D01*
X121088940Y-96869520D01*
X120997615Y-96816793D01*
X120897277Y-96789908D01*
X120837617Y-96753543D01*
X120807088Y-96690696D01*
X120815383Y-96621320D01*
X120830996Y-96594646D01*
X120831988Y-96593354D01*
X120891233Y-96516144D01*
X120951741Y-96370065D01*
X120970031Y-96231138D01*
X120972379Y-96213304D01*
X120972379Y-96213301D01*
X120951741Y-96056542D01*
X120951741Y-96056541D01*
X120891233Y-95910462D01*
X120794979Y-95785021D01*
X120669538Y-95688767D01*
X120523459Y-95628259D01*
X120523457Y-95628258D01*
X120366698Y-95607621D01*
X120366696Y-95607621D01*
X120209936Y-95628258D01*
X120209934Y-95628259D01*
X120063857Y-95688766D01*
X119938415Y-95785021D01*
X119842160Y-95910463D01*
X119781653Y-96056540D01*
X119781652Y-96056542D01*
X119761015Y-96213301D01*
X119761015Y-96213304D01*
X119781652Y-96370063D01*
X119781653Y-96370065D01*
X119840303Y-96511660D01*
X119842161Y-96516144D01*
X119938415Y-96641585D01*
X119938417Y-96641586D01*
X119943363Y-96648032D01*
X119940823Y-96649980D01*
X119967108Y-96698116D01*
X119962124Y-96767808D01*
X119920252Y-96823741D01*
X119907945Y-96831859D01*
X119882828Y-96846361D01*
X119842716Y-96869520D01*
X119842713Y-96869522D01*
X119251113Y-97461121D01*
X119189790Y-97494606D01*
X119147248Y-97496379D01*
X119104831Y-97490795D01*
X119104827Y-97490795D01*
X118948067Y-97511432D01*
X118948065Y-97511433D01*
X118801988Y-97571940D01*
X118676546Y-97668195D01*
X118580291Y-97793637D01*
X118519784Y-97939714D01*
X118519783Y-97939716D01*
X118499146Y-98096475D01*
X118499146Y-98096478D01*
X118519783Y-98253237D01*
X118519784Y-98253239D01*
X118553650Y-98335000D01*
X118580292Y-98399318D01*
X118676546Y-98524759D01*
X118709895Y-98550349D01*
X118751098Y-98606775D01*
X118755253Y-98676521D01*
X118732786Y-98724209D01*
X118678397Y-98795091D01*
X118617889Y-98941170D01*
X118617888Y-98941172D01*
X118597251Y-99097931D01*
X118597251Y-99097934D01*
X118617888Y-99254693D01*
X118617889Y-99254695D01*
X118637277Y-99301503D01*
X118645788Y-99333823D01*
X118804930Y-100628294D01*
X118804798Y-100659595D01*
X118804696Y-100660370D01*
X118804696Y-100660379D01*
X118825333Y-100817138D01*
X118825334Y-100817140D01*
X118880462Y-100950232D01*
X118885842Y-100963219D01*
X118982096Y-101088660D01*
X119046502Y-101138079D01*
X119053441Y-101143817D01*
X120060837Y-102040341D01*
X120278616Y-102234152D01*
X120303566Y-102264780D01*
X120319202Y-102291861D01*
X120319206Y-102291867D01*
X123283681Y-105256341D01*
X123317166Y-105317664D01*
X123320000Y-105344022D01*
X123320000Y-107018111D01*
X123310561Y-107065563D01*
X123294957Y-107103234D01*
X123294955Y-107103239D01*
X123274318Y-107259998D01*
X123274318Y-107260001D01*
X123294955Y-107416760D01*
X123294956Y-107416762D01*
X123306634Y-107444956D01*
X123310561Y-107454435D01*
X123320000Y-107501888D01*
X123320000Y-108235999D01*
X123300315Y-108303038D01*
X123247511Y-108348793D01*
X123196000Y-108359999D01*
X119808866Y-108359999D01*
X119741827Y-108340314D01*
X119696072Y-108287510D01*
X119686128Y-108218352D01*
X119694304Y-108188549D01*
X119694458Y-108188175D01*
X119695044Y-108186762D01*
X119715682Y-108030000D01*
X119711465Y-107997972D01*
X119698693Y-107900953D01*
X119695044Y-107873238D01*
X119634536Y-107727159D01*
X119538282Y-107601718D01*
X119412841Y-107505464D01*
X119381340Y-107492416D01*
X119266762Y-107444956D01*
X119266760Y-107444955D01*
X119110001Y-107424318D01*
X119109999Y-107424318D01*
X118953239Y-107444955D01*
X118953237Y-107444956D01*
X118807160Y-107505463D01*
X118681718Y-107601718D01*
X118585463Y-107727160D01*
X118524956Y-107873237D01*
X118524955Y-107873239D01*
X118504318Y-108029998D01*
X118504318Y-108030001D01*
X118524955Y-108186760D01*
X118524957Y-108186765D01*
X118525696Y-108188549D01*
X118525870Y-108190174D01*
X118527060Y-108194613D01*
X118526367Y-108194798D01*
X118533163Y-108258019D01*
X118501887Y-108320497D01*
X118441797Y-108356148D01*
X118411134Y-108359999D01*
X114449000Y-108359999D01*
X114381961Y-108340314D01*
X114336206Y-108287510D01*
X114325000Y-108235999D01*
X114325000Y-106600001D01*
X116461818Y-106600001D01*
X116482455Y-106756760D01*
X116482456Y-106756762D01*
X116540469Y-106896819D01*
X116542964Y-106902841D01*
X116639218Y-107028282D01*
X116764659Y-107124536D01*
X116910738Y-107185044D01*
X116956328Y-107191046D01*
X117067499Y-107205682D01*
X117067500Y-107205682D01*
X117067501Y-107205682D01*
X117119754Y-107198802D01*
X117224262Y-107185044D01*
X117370341Y-107124536D01*
X117495782Y-107028282D01*
X117592036Y-106902841D01*
X117652544Y-106756762D01*
X117673182Y-106600000D01*
X117667876Y-106559700D01*
X117652544Y-106443239D01*
X117652544Y-106443238D01*
X117592036Y-106297159D01*
X117495782Y-106171718D01*
X117370341Y-106075464D01*
X117261141Y-106030232D01*
X117224262Y-106014956D01*
X117224260Y-106014955D01*
X117067501Y-105994318D01*
X117067499Y-105994318D01*
X116910739Y-106014955D01*
X116910737Y-106014956D01*
X116764660Y-106075463D01*
X116639218Y-106171718D01*
X116542963Y-106297160D01*
X116482456Y-106443237D01*
X116482455Y-106443239D01*
X116461818Y-106599998D01*
X116461818Y-106600001D01*
X114325000Y-106600001D01*
X114325000Y-106547275D01*
X114325245Y-106539489D01*
X114330246Y-106460003D01*
X114330246Y-106459995D01*
X114311281Y-106158553D01*
X114311280Y-106158546D01*
X114311280Y-106158543D01*
X114254681Y-105861840D01*
X114161341Y-105574570D01*
X114123102Y-105493309D01*
X114032734Y-105301267D01*
X114032733Y-105301264D01*
X113930393Y-105140001D01*
X116461818Y-105140001D01*
X116482455Y-105296760D01*
X116482456Y-105296762D01*
X116542964Y-105442841D01*
X116639218Y-105568282D01*
X116764659Y-105664536D01*
X116910738Y-105725044D01*
X116989119Y-105735363D01*
X117067499Y-105745682D01*
X117067500Y-105745682D01*
X117067501Y-105745682D01*
X117119754Y-105738802D01*
X117224262Y-105725044D01*
X117370341Y-105664536D01*
X117495782Y-105568282D01*
X117592036Y-105442841D01*
X117652544Y-105296762D01*
X117673182Y-105140000D01*
X117652544Y-104983238D01*
X117592036Y-104837159D01*
X117495782Y-104711718D01*
X117370341Y-104615464D01*
X117333297Y-104600120D01*
X117224262Y-104554956D01*
X117224260Y-104554955D01*
X117067501Y-104534318D01*
X117067499Y-104534318D01*
X116910739Y-104554955D01*
X116910737Y-104554956D01*
X116764660Y-104615463D01*
X116639218Y-104711718D01*
X116542963Y-104837160D01*
X116482456Y-104983237D01*
X116482455Y-104983239D01*
X116461818Y-105139998D01*
X116461818Y-105140001D01*
X113930393Y-105140001D01*
X113885387Y-105069083D01*
X113870888Y-105046236D01*
X113823588Y-104989060D01*
X113678349Y-104813496D01*
X113458162Y-104606726D01*
X113458159Y-104606724D01*
X113458153Y-104606719D01*
X113213806Y-104429191D01*
X113213799Y-104429186D01*
X113213795Y-104429184D01*
X112949104Y-104283668D01*
X112949101Y-104283666D01*
X112949096Y-104283664D01*
X112949095Y-104283663D01*
X112668265Y-104172475D01*
X112668262Y-104172474D01*
X112375695Y-104097357D01*
X112076036Y-104059500D01*
X112076027Y-104059500D01*
X111773973Y-104059500D01*
X111773963Y-104059500D01*
X111474304Y-104097357D01*
X111181737Y-104172474D01*
X111181734Y-104172475D01*
X110900904Y-104283663D01*
X110900903Y-104283664D01*
X110636205Y-104429184D01*
X110636193Y-104429191D01*
X110391846Y-104606719D01*
X110391836Y-104606727D01*
X110171652Y-104813494D01*
X109979111Y-105046236D01*
X109817268Y-105301261D01*
X109817265Y-105301267D01*
X109688661Y-105574563D01*
X109688659Y-105574568D01*
X109595320Y-105861835D01*
X109538719Y-106158546D01*
X109538718Y-106158553D01*
X109521717Y-106428786D01*
X109497862Y-106494457D01*
X109442289Y-106536806D01*
X109397962Y-106545000D01*
X108317777Y-106545000D01*
X108305623Y-106544403D01*
X108255000Y-106539417D01*
X108204377Y-106544403D01*
X108192223Y-106545000D01*
X105777777Y-106545000D01*
X105765623Y-106544403D01*
X105715000Y-106539417D01*
X105509067Y-106559699D01*
X105311043Y-106619769D01*
X105236713Y-106659500D01*
X105128550Y-106717315D01*
X105128548Y-106717316D01*
X105128547Y-106717317D01*
X104968589Y-106848589D01*
X104837317Y-107008547D01*
X104837315Y-107008550D01*
X104806841Y-107065563D01*
X104739769Y-107191043D01*
X104679699Y-107389067D01*
X104659417Y-107595000D01*
X104679699Y-107800932D01*
X104693080Y-107845044D01*
X104739768Y-107998954D01*
X104823067Y-108154795D01*
X104835228Y-108177545D01*
X104849470Y-108245948D01*
X104824470Y-108311192D01*
X104768166Y-108352563D01*
X104725870Y-108359999D01*
X102529000Y-108359999D01*
X102461961Y-108340314D01*
X102416206Y-108287510D01*
X102405000Y-108235999D01*
X102405000Y-105055000D01*
X104659417Y-105055000D01*
X104679699Y-105260932D01*
X104704904Y-105344022D01*
X104739768Y-105458954D01*
X104837315Y-105641450D01*
X104856261Y-105664536D01*
X104968589Y-105801410D01*
X105043043Y-105862512D01*
X105128550Y-105932685D01*
X105311046Y-106030232D01*
X105509066Y-106090300D01*
X105509065Y-106090300D01*
X105527529Y-106092118D01*
X105715000Y-106110583D01*
X105920934Y-106090300D01*
X106118954Y-106030232D01*
X106301450Y-105932685D01*
X106461410Y-105801410D01*
X106592685Y-105641450D01*
X106690232Y-105458954D01*
X106750300Y-105260934D01*
X106770583Y-105055000D01*
X107199417Y-105055000D01*
X107219699Y-105260932D01*
X107244904Y-105344022D01*
X107279768Y-105458954D01*
X107377315Y-105641450D01*
X107396261Y-105664536D01*
X107508589Y-105801410D01*
X107583043Y-105862512D01*
X107668550Y-105932685D01*
X107851046Y-106030232D01*
X108049066Y-106090300D01*
X108049065Y-106090300D01*
X108067529Y-106092118D01*
X108255000Y-106110583D01*
X108460934Y-106090300D01*
X108658954Y-106030232D01*
X108841450Y-105932685D01*
X109001410Y-105801410D01*
X109132685Y-105641450D01*
X109230232Y-105458954D01*
X109290300Y-105260934D01*
X109310583Y-105055000D01*
X109290300Y-104849066D01*
X109230232Y-104651046D01*
X109132685Y-104468550D01*
X109014216Y-104324194D01*
X109001410Y-104308589D01*
X108841452Y-104177317D01*
X108841453Y-104177317D01*
X108841450Y-104177315D01*
X108658954Y-104079768D01*
X108460934Y-104019700D01*
X108460932Y-104019699D01*
X108460934Y-104019699D01*
X108255000Y-103999417D01*
X108049067Y-104019699D01*
X107851043Y-104079769D01*
X107740898Y-104138643D01*
X107668550Y-104177315D01*
X107668548Y-104177316D01*
X107668547Y-104177317D01*
X107508589Y-104308589D01*
X107381539Y-104463403D01*
X107377315Y-104468550D01*
X107342161Y-104534318D01*
X107279769Y-104651043D01*
X107219699Y-104849067D01*
X107199417Y-105055000D01*
X106770583Y-105055000D01*
X106750300Y-104849066D01*
X106690232Y-104651046D01*
X106592685Y-104468550D01*
X106474216Y-104324194D01*
X106461410Y-104308589D01*
X106301452Y-104177317D01*
X106301453Y-104177317D01*
X106301450Y-104177315D01*
X106118954Y-104079768D01*
X105920934Y-104019700D01*
X105920932Y-104019699D01*
X105920934Y-104019699D01*
X105715000Y-103999417D01*
X105509067Y-104019699D01*
X105311043Y-104079769D01*
X105200898Y-104138643D01*
X105128550Y-104177315D01*
X105128548Y-104177316D01*
X105128547Y-104177317D01*
X104968589Y-104308589D01*
X104841539Y-104463403D01*
X104837315Y-104468550D01*
X104802161Y-104534318D01*
X104739769Y-104651043D01*
X104679699Y-104849067D01*
X104659417Y-105055000D01*
X102405000Y-105055000D01*
X102405000Y-102515000D01*
X104659417Y-102515000D01*
X104679699Y-102720932D01*
X104684411Y-102736464D01*
X104739768Y-102918954D01*
X104837315Y-103101450D01*
X104851410Y-103118625D01*
X104968589Y-103261410D01*
X105060746Y-103337040D01*
X105128550Y-103392685D01*
X105311046Y-103490232D01*
X105509066Y-103550300D01*
X105509065Y-103550300D01*
X105527529Y-103552118D01*
X105715000Y-103570583D01*
X105920934Y-103550300D01*
X106118954Y-103490232D01*
X106301450Y-103392685D01*
X106461410Y-103261410D01*
X106592685Y-103101450D01*
X106690232Y-102918954D01*
X106750300Y-102720934D01*
X106770583Y-102515000D01*
X107199417Y-102515000D01*
X107219699Y-102720932D01*
X107224411Y-102736464D01*
X107279768Y-102918954D01*
X107377315Y-103101450D01*
X107391410Y-103118625D01*
X107508589Y-103261410D01*
X107600746Y-103337040D01*
X107668550Y-103392685D01*
X107851046Y-103490232D01*
X108049066Y-103550300D01*
X108049065Y-103550300D01*
X108067529Y-103552118D01*
X108255000Y-103570583D01*
X108460934Y-103550300D01*
X108658954Y-103490232D01*
X108841450Y-103392685D01*
X109001410Y-103261410D01*
X109132685Y-103101450D01*
X109230232Y-102918954D01*
X109290300Y-102720934D01*
X109310583Y-102515000D01*
X109290300Y-102309066D01*
X109230232Y-102111046D01*
X109132685Y-101928550D01*
X109066647Y-101848082D01*
X109001410Y-101768589D01*
X108862713Y-101654765D01*
X108841450Y-101637315D01*
X108658954Y-101539768D01*
X108460934Y-101479700D01*
X108460932Y-101479699D01*
X108460934Y-101479699D01*
X108255000Y-101459417D01*
X108049067Y-101479699D01*
X107851043Y-101539769D01*
X107748061Y-101594815D01*
X107668550Y-101637315D01*
X107668548Y-101637316D01*
X107668547Y-101637317D01*
X107508589Y-101768589D01*
X107405454Y-101894262D01*
X107377315Y-101928550D01*
X107360028Y-101960891D01*
X107279769Y-102111043D01*
X107219699Y-102309067D01*
X107199417Y-102515000D01*
X106770583Y-102515000D01*
X106750300Y-102309066D01*
X106690232Y-102111046D01*
X106592685Y-101928550D01*
X106526647Y-101848082D01*
X106461410Y-101768589D01*
X106322713Y-101654765D01*
X106301450Y-101637315D01*
X106118954Y-101539768D01*
X105920934Y-101479700D01*
X105920932Y-101479699D01*
X105920934Y-101479699D01*
X105715000Y-101459417D01*
X105509067Y-101479699D01*
X105311043Y-101539769D01*
X105208061Y-101594815D01*
X105128550Y-101637315D01*
X105128548Y-101637316D01*
X105128547Y-101637317D01*
X104968589Y-101768589D01*
X104865454Y-101894262D01*
X104837315Y-101928550D01*
X104820028Y-101960891D01*
X104739769Y-102111043D01*
X104679699Y-102309067D01*
X104659417Y-102515000D01*
X102405000Y-102515000D01*
X102405000Y-99975000D01*
X104659417Y-99975000D01*
X104679699Y-100180932D01*
X104702016Y-100254501D01*
X104739768Y-100378954D01*
X104837315Y-100561450D01*
X104837317Y-100561452D01*
X104968589Y-100721410D01*
X105043425Y-100782825D01*
X105128550Y-100852685D01*
X105311046Y-100950232D01*
X105509066Y-101010300D01*
X105509065Y-101010300D01*
X105527529Y-101012118D01*
X105715000Y-101030583D01*
X105920934Y-101010300D01*
X106118954Y-100950232D01*
X106301450Y-100852685D01*
X106461410Y-100721410D01*
X106592685Y-100561450D01*
X106690232Y-100378954D01*
X106750300Y-100180934D01*
X106770583Y-99975000D01*
X107199417Y-99975000D01*
X107219699Y-100180932D01*
X107242016Y-100254501D01*
X107279768Y-100378954D01*
X107377315Y-100561450D01*
X107377317Y-100561452D01*
X107508589Y-100721410D01*
X107583425Y-100782825D01*
X107668550Y-100852685D01*
X107851046Y-100950232D01*
X108049066Y-101010300D01*
X108049065Y-101010300D01*
X108067529Y-101012118D01*
X108255000Y-101030583D01*
X108460934Y-101010300D01*
X108658954Y-100950232D01*
X108841450Y-100852685D01*
X109001410Y-100721410D01*
X109132685Y-100561450D01*
X109230232Y-100378954D01*
X109290300Y-100180934D01*
X109310583Y-99975000D01*
X109290300Y-99769066D01*
X109230232Y-99571046D01*
X109132685Y-99388550D01*
X109061248Y-99301503D01*
X109001410Y-99228589D01*
X108842203Y-99097933D01*
X108841450Y-99097315D01*
X108658954Y-98999768D01*
X108460934Y-98939700D01*
X108460932Y-98939699D01*
X108460934Y-98939699D01*
X108255000Y-98919417D01*
X108049067Y-98939699D01*
X107851043Y-98999769D01*
X107743792Y-99057097D01*
X107668550Y-99097315D01*
X107668548Y-99097316D01*
X107668547Y-99097317D01*
X107508589Y-99228589D01*
X107377317Y-99388547D01*
X107377315Y-99388550D01*
X107375098Y-99392698D01*
X107279769Y-99571043D01*
X107219699Y-99769067D01*
X107199417Y-99975000D01*
X106770583Y-99975000D01*
X106750300Y-99769066D01*
X106690232Y-99571046D01*
X106592685Y-99388550D01*
X106521248Y-99301503D01*
X106461410Y-99228589D01*
X106302203Y-99097933D01*
X106301450Y-99097315D01*
X106118954Y-98999768D01*
X105920934Y-98939700D01*
X105920932Y-98939699D01*
X105920934Y-98939699D01*
X105715000Y-98919417D01*
X105509067Y-98939699D01*
X105311043Y-98999769D01*
X105203792Y-99057097D01*
X105128550Y-99097315D01*
X105128548Y-99097316D01*
X105128547Y-99097317D01*
X104968589Y-99228589D01*
X104837317Y-99388547D01*
X104837315Y-99388550D01*
X104835098Y-99392698D01*
X104739769Y-99571043D01*
X104679699Y-99769067D01*
X104659417Y-99975000D01*
X102405000Y-99975000D01*
X102405000Y-97435000D01*
X104659417Y-97435000D01*
X104679699Y-97640932D01*
X104697729Y-97700368D01*
X104739768Y-97838954D01*
X104837315Y-98021450D01*
X104871969Y-98063677D01*
X104968589Y-98181410D01*
X105045244Y-98244318D01*
X105128550Y-98312685D01*
X105311046Y-98410232D01*
X105509066Y-98470300D01*
X105509065Y-98470300D01*
X105527529Y-98472118D01*
X105715000Y-98490583D01*
X105920934Y-98470300D01*
X106118954Y-98410232D01*
X106301450Y-98312685D01*
X106461410Y-98181410D01*
X106592685Y-98021450D01*
X106690232Y-97838954D01*
X106750300Y-97640934D01*
X106770583Y-97435000D01*
X107199417Y-97435000D01*
X107219699Y-97640932D01*
X107237729Y-97700368D01*
X107279768Y-97838954D01*
X107377315Y-98021450D01*
X107411969Y-98063677D01*
X107508589Y-98181410D01*
X107585244Y-98244318D01*
X107668550Y-98312685D01*
X107851046Y-98410232D01*
X108049066Y-98470300D01*
X108049065Y-98470300D01*
X108067529Y-98472118D01*
X108255000Y-98490583D01*
X108460934Y-98470300D01*
X108658954Y-98410232D01*
X108799702Y-98335000D01*
X113404318Y-98335000D01*
X113424955Y-98491759D01*
X113424956Y-98491761D01*
X113483201Y-98632378D01*
X113485464Y-98637840D01*
X113581718Y-98763281D01*
X113707159Y-98859535D01*
X113853238Y-98920043D01*
X113931619Y-98930362D01*
X114009999Y-98940681D01*
X114010000Y-98940681D01*
X114160331Y-98920889D01*
X114229363Y-98931654D01*
X114281619Y-98978034D01*
X114291006Y-98999600D01*
X114291846Y-98999253D01*
X114294955Y-99006760D01*
X114294956Y-99006762D01*
X114332720Y-99097933D01*
X114350973Y-99142000D01*
X114355464Y-99152841D01*
X114451718Y-99278282D01*
X114577159Y-99374536D01*
X114723238Y-99435044D01*
X114744818Y-99437885D01*
X114879999Y-99455682D01*
X114880000Y-99455682D01*
X114880001Y-99455682D01*
X114932254Y-99448802D01*
X115036762Y-99435044D01*
X115182841Y-99374536D01*
X115240880Y-99330001D01*
X117044318Y-99330001D01*
X117064955Y-99486760D01*
X117064956Y-99486762D01*
X117107574Y-99589652D01*
X117125464Y-99632841D01*
X117221718Y-99758282D01*
X117347159Y-99854536D01*
X117493238Y-99915044D01*
X117555478Y-99923238D01*
X117649999Y-99935682D01*
X117650000Y-99935682D01*
X117650001Y-99935682D01*
X117744514Y-99923239D01*
X117806762Y-99915044D01*
X117952841Y-99854536D01*
X118078282Y-99758282D01*
X118174536Y-99632841D01*
X118235044Y-99486762D01*
X118255682Y-99330000D01*
X118251930Y-99301503D01*
X118235044Y-99173239D01*
X118235044Y-99173238D01*
X118174536Y-99027159D01*
X118078282Y-98901718D01*
X117952841Y-98805464D01*
X117927798Y-98795091D01*
X117806762Y-98744956D01*
X117806760Y-98744955D01*
X117650001Y-98724318D01*
X117649999Y-98724318D01*
X117493239Y-98744955D01*
X117493237Y-98744956D01*
X117347160Y-98805463D01*
X117221718Y-98901718D01*
X117125463Y-99027160D01*
X117064956Y-99173237D01*
X117064955Y-99173239D01*
X117044318Y-99329998D01*
X117044318Y-99330001D01*
X115240880Y-99330001D01*
X115308282Y-99278282D01*
X115404536Y-99152841D01*
X115465044Y-99006762D01*
X115485682Y-98850000D01*
X115477669Y-98789138D01*
X115465044Y-98693239D01*
X115465044Y-98693238D01*
X115404536Y-98547159D01*
X115308282Y-98421718D01*
X115182841Y-98325464D01*
X115152366Y-98312841D01*
X115036762Y-98264956D01*
X115036760Y-98264955D01*
X114880001Y-98244318D01*
X114879999Y-98244318D01*
X114729670Y-98264109D01*
X114660635Y-98253343D01*
X114608379Y-98206963D01*
X114598995Y-98185397D01*
X114598154Y-98185746D01*
X114595044Y-98178237D01*
X114534536Y-98032158D01*
X114438282Y-97906717D01*
X114312841Y-97810463D01*
X114307708Y-97808337D01*
X114166762Y-97749955D01*
X114166760Y-97749954D01*
X114010001Y-97729317D01*
X114009999Y-97729317D01*
X113853239Y-97749954D01*
X113853237Y-97749955D01*
X113707160Y-97810462D01*
X113581718Y-97906717D01*
X113485463Y-98032159D01*
X113424956Y-98178236D01*
X113424955Y-98178238D01*
X113404318Y-98334997D01*
X113404318Y-98335000D01*
X108799702Y-98335000D01*
X108841450Y-98312685D01*
X109001410Y-98181410D01*
X109132685Y-98021450D01*
X109230232Y-97838954D01*
X109290300Y-97640934D01*
X109310583Y-97435000D01*
X109290300Y-97229066D01*
X109230232Y-97031046D01*
X109224328Y-97020001D01*
X114134318Y-97020001D01*
X114154955Y-97176760D01*
X114154956Y-97176762D01*
X114212822Y-97316464D01*
X114215464Y-97322841D01*
X114311718Y-97448282D01*
X114437159Y-97544536D01*
X114583238Y-97605044D01*
X114661619Y-97615363D01*
X114739999Y-97625682D01*
X114740000Y-97625682D01*
X114740001Y-97625682D01*
X114792254Y-97618802D01*
X114896762Y-97605044D01*
X115042841Y-97544536D01*
X115168282Y-97448282D01*
X115264536Y-97322841D01*
X115325044Y-97176762D01*
X115345682Y-97020000D01*
X115342541Y-96996145D01*
X115325044Y-96863239D01*
X115325044Y-96863238D01*
X115304856Y-96814501D01*
X117014318Y-96814501D01*
X117034955Y-96971260D01*
X117034956Y-96971262D01*
X117093809Y-97113347D01*
X117095464Y-97117341D01*
X117191718Y-97242782D01*
X117317159Y-97339036D01*
X117463238Y-97399544D01*
X117541619Y-97409863D01*
X117619999Y-97420182D01*
X117620000Y-97420182D01*
X117620001Y-97420182D01*
X117676695Y-97412718D01*
X117776762Y-97399544D01*
X117922841Y-97339036D01*
X118048282Y-97242782D01*
X118144536Y-97117341D01*
X118205044Y-96971262D01*
X118223975Y-96827465D01*
X118225682Y-96814501D01*
X118225682Y-96814498D01*
X118207704Y-96677943D01*
X118205044Y-96657738D01*
X118144536Y-96511659D01*
X118048282Y-96386218D01*
X117922841Y-96289964D01*
X117776762Y-96229456D01*
X117776760Y-96229455D01*
X117620001Y-96208818D01*
X117619999Y-96208818D01*
X117463239Y-96229455D01*
X117463237Y-96229456D01*
X117317160Y-96289963D01*
X117191718Y-96386218D01*
X117095463Y-96511660D01*
X117034956Y-96657737D01*
X117034955Y-96657739D01*
X117014318Y-96814498D01*
X117014318Y-96814501D01*
X115304856Y-96814501D01*
X115264536Y-96717159D01*
X115168282Y-96591718D01*
X115042841Y-96495464D01*
X114956663Y-96459768D01*
X114896762Y-96434956D01*
X114896760Y-96434955D01*
X114740001Y-96414318D01*
X114739999Y-96414318D01*
X114583239Y-96434955D01*
X114583237Y-96434956D01*
X114437160Y-96495463D01*
X114311718Y-96591718D01*
X114215463Y-96717160D01*
X114154956Y-96863237D01*
X114154955Y-96863239D01*
X114134318Y-97019998D01*
X114134318Y-97020001D01*
X109224328Y-97020001D01*
X109132685Y-96848550D01*
X109055252Y-96754197D01*
X109001410Y-96688589D01*
X108841452Y-96557317D01*
X108841453Y-96557317D01*
X108841450Y-96557315D01*
X108658954Y-96459768D01*
X108460934Y-96399700D01*
X108460932Y-96399699D01*
X108460934Y-96399699D01*
X108255000Y-96379417D01*
X108049067Y-96399699D01*
X107851043Y-96459769D01*
X107753964Y-96511660D01*
X107668550Y-96557315D01*
X107668548Y-96557316D01*
X107668547Y-96557317D01*
X107508589Y-96688589D01*
X107391011Y-96831861D01*
X107377315Y-96848550D01*
X107366106Y-96869520D01*
X107279769Y-97031043D01*
X107219699Y-97229067D01*
X107199417Y-97435000D01*
X106770583Y-97435000D01*
X106750300Y-97229066D01*
X106690232Y-97031046D01*
X106592685Y-96848550D01*
X106515252Y-96754197D01*
X106461410Y-96688589D01*
X106301452Y-96557317D01*
X106301453Y-96557317D01*
X106301450Y-96557315D01*
X106118954Y-96459768D01*
X105920934Y-96399700D01*
X105920932Y-96399699D01*
X105920934Y-96399699D01*
X105715000Y-96379417D01*
X105509067Y-96399699D01*
X105311043Y-96459769D01*
X105213964Y-96511660D01*
X105128550Y-96557315D01*
X105128548Y-96557316D01*
X105128547Y-96557317D01*
X104968589Y-96688589D01*
X104851011Y-96831861D01*
X104837315Y-96848550D01*
X104826106Y-96869520D01*
X104739769Y-97031043D01*
X104679699Y-97229067D01*
X104659417Y-97435000D01*
X102405000Y-97435000D01*
X102405000Y-94895000D01*
X104659417Y-94895000D01*
X104679699Y-95100932D01*
X104702308Y-95175463D01*
X104739768Y-95298954D01*
X104837315Y-95481450D01*
X104858204Y-95506903D01*
X104968589Y-95641410D01*
X105065209Y-95720702D01*
X105128550Y-95772685D01*
X105311046Y-95870232D01*
X105509066Y-95930300D01*
X105509065Y-95930300D01*
X105527529Y-95932118D01*
X105715000Y-95950583D01*
X105920934Y-95930300D01*
X106118954Y-95870232D01*
X106301450Y-95772685D01*
X106461410Y-95641410D01*
X106592685Y-95481450D01*
X106690232Y-95298954D01*
X106750300Y-95100934D01*
X106770583Y-94895000D01*
X107199417Y-94895000D01*
X107219699Y-95100932D01*
X107242308Y-95175463D01*
X107279768Y-95298954D01*
X107377315Y-95481450D01*
X107398204Y-95506903D01*
X107508589Y-95641410D01*
X107605209Y-95720702D01*
X107668550Y-95772685D01*
X107851046Y-95870232D01*
X108049066Y-95930300D01*
X108049065Y-95930300D01*
X108067529Y-95932118D01*
X108255000Y-95950583D01*
X108460934Y-95930300D01*
X108658954Y-95870232D01*
X108841450Y-95772685D01*
X109001410Y-95641410D01*
X109132685Y-95481450D01*
X109230232Y-95298954D01*
X109260249Y-95200000D01*
X110924355Y-95200000D01*
X110944859Y-95368869D01*
X110944860Y-95368872D01*
X111005182Y-95527931D01*
X111048334Y-95590446D01*
X111101817Y-95667929D01*
X111187284Y-95743646D01*
X111229150Y-95780736D01*
X111379773Y-95859789D01*
X111379775Y-95859790D01*
X111544944Y-95900500D01*
X111715056Y-95900500D01*
X111880225Y-95859790D01*
X111984677Y-95804969D01*
X112030849Y-95780736D01*
X112030850Y-95780734D01*
X112030852Y-95780734D01*
X112158183Y-95667929D01*
X112162950Y-95661021D01*
X112217230Y-95617033D01*
X112286678Y-95609372D01*
X112349244Y-95640473D01*
X112367046Y-95661017D01*
X112371817Y-95667929D01*
X112457284Y-95743646D01*
X112499150Y-95780736D01*
X112649773Y-95859789D01*
X112649775Y-95859790D01*
X112814944Y-95900500D01*
X112985056Y-95900500D01*
X113150225Y-95859790D01*
X113254677Y-95804969D01*
X113300849Y-95780736D01*
X113300850Y-95780734D01*
X113300852Y-95780734D01*
X113428183Y-95667929D01*
X113524818Y-95527930D01*
X113585140Y-95368872D01*
X113605645Y-95200000D01*
X113585140Y-95031128D01*
X113577929Y-95012115D01*
X113558655Y-94961293D01*
X113524818Y-94872070D01*
X113523074Y-94869544D01*
X113469067Y-94791301D01*
X113428183Y-94732071D01*
X113300852Y-94619266D01*
X113300849Y-94619263D01*
X113150226Y-94540210D01*
X112985056Y-94499500D01*
X112814944Y-94499500D01*
X112649773Y-94540210D01*
X112499150Y-94619263D01*
X112371815Y-94732072D01*
X112367049Y-94738978D01*
X112312766Y-94782968D01*
X112243317Y-94790627D01*
X112180753Y-94759523D01*
X112162951Y-94738978D01*
X112158184Y-94732072D01*
X112158181Y-94732069D01*
X112074363Y-94657813D01*
X112037238Y-94598626D01*
X112038006Y-94528761D01*
X112074363Y-94472186D01*
X112158183Y-94397929D01*
X112254818Y-94257930D01*
X112315140Y-94098872D01*
X112316507Y-94087616D01*
X114408630Y-94087616D01*
X114429267Y-94244375D01*
X114429268Y-94244377D01*
X114486786Y-94383239D01*
X114489776Y-94390456D01*
X114586030Y-94515897D01*
X114711471Y-94612151D01*
X114857550Y-94672659D01*
X114880163Y-94675636D01*
X115014311Y-94693297D01*
X115014312Y-94693297D01*
X115014313Y-94693297D01*
X115066566Y-94686417D01*
X115171074Y-94672659D01*
X115317153Y-94612151D01*
X115442594Y-94515897D01*
X115538848Y-94390456D01*
X115556433Y-94348001D01*
X117353318Y-94348001D01*
X117373955Y-94504760D01*
X117373956Y-94504762D01*
X117420511Y-94617157D01*
X117434464Y-94650841D01*
X117530718Y-94776282D01*
X117581782Y-94815464D01*
X117582994Y-94816394D01*
X117597405Y-94829362D01*
X117819229Y-95062839D01*
X118492850Y-95771846D01*
X118501321Y-95781759D01*
X118534718Y-95825282D01*
X118660159Y-95921536D01*
X118806238Y-95982044D01*
X118884619Y-95992363D01*
X118962999Y-96002682D01*
X118963000Y-96002682D01*
X118963001Y-96002682D01*
X119015254Y-95995802D01*
X119119762Y-95982044D01*
X119265841Y-95921536D01*
X119391282Y-95825282D01*
X119487536Y-95699841D01*
X119548044Y-95553762D01*
X119568682Y-95397000D01*
X119564016Y-95361561D01*
X119551346Y-95265318D01*
X119548044Y-95240238D01*
X119487536Y-95094159D01*
X119422959Y-95010001D01*
X121293818Y-95010001D01*
X121314455Y-95166760D01*
X121314456Y-95166762D01*
X121370975Y-95303212D01*
X121374964Y-95312841D01*
X121471218Y-95438282D01*
X121596659Y-95534536D01*
X121742738Y-95595044D01*
X121821119Y-95605363D01*
X121899499Y-95615682D01*
X121899500Y-95615682D01*
X121899501Y-95615682D01*
X121960730Y-95607621D01*
X122056262Y-95595044D01*
X122202341Y-95534536D01*
X122327782Y-95438282D01*
X122424036Y-95312841D01*
X122484544Y-95166762D01*
X122501606Y-95037160D01*
X122505182Y-95010001D01*
X122505182Y-95009998D01*
X122490042Y-94895000D01*
X122484544Y-94853238D01*
X122471923Y-94822770D01*
X122464455Y-94753303D01*
X122495730Y-94690824D01*
X122549012Y-94658781D01*
X122548753Y-94658154D01*
X122552941Y-94656419D01*
X122554400Y-94655542D01*
X122556253Y-94655045D01*
X122556262Y-94655044D01*
X122702341Y-94594536D01*
X122827782Y-94498282D01*
X122924036Y-94372841D01*
X122984544Y-94226762D01*
X123005182Y-94070000D01*
X123000040Y-94030945D01*
X122986751Y-93930000D01*
X122984544Y-93913238D01*
X122979381Y-93900773D01*
X122971912Y-93831304D01*
X123003187Y-93768825D01*
X123049839Y-93740776D01*
X123048753Y-93738154D01*
X123056260Y-93735044D01*
X123056262Y-93735044D01*
X123202341Y-93674536D01*
X123327782Y-93578282D01*
X123424036Y-93452841D01*
X123484544Y-93306762D01*
X123505182Y-93150000D01*
X123502276Y-93127930D01*
X123484544Y-92993239D01*
X123484544Y-92993238D01*
X123424036Y-92847159D01*
X123327782Y-92721718D01*
X123202341Y-92625464D01*
X123056262Y-92564956D01*
X123056260Y-92564955D01*
X122899501Y-92544318D01*
X122899499Y-92544318D01*
X122742739Y-92564955D01*
X122742737Y-92564956D01*
X122596660Y-92625463D01*
X122471218Y-92721718D01*
X122374963Y-92847160D01*
X122314456Y-92993237D01*
X122314455Y-92993239D01*
X122293818Y-93149998D01*
X122293818Y-93150001D01*
X122314455Y-93306760D01*
X122314458Y-93306768D01*
X122319619Y-93319229D01*
X122327086Y-93388698D01*
X122295809Y-93451176D01*
X122249165Y-93479235D01*
X122250247Y-93481846D01*
X122242739Y-93484955D01*
X122242738Y-93484956D01*
X122200214Y-93502570D01*
X122096660Y-93545463D01*
X121971218Y-93641718D01*
X121874963Y-93767160D01*
X121814456Y-93913237D01*
X121814455Y-93913239D01*
X121793818Y-94069998D01*
X121793818Y-94070001D01*
X121814455Y-94226760D01*
X121814457Y-94226765D01*
X121827075Y-94257228D01*
X121834544Y-94326698D01*
X121803268Y-94389177D01*
X121749988Y-94421220D01*
X121750247Y-94421846D01*
X121746076Y-94423573D01*
X121744614Y-94424453D01*
X121742741Y-94424954D01*
X121596660Y-94485463D01*
X121471218Y-94581718D01*
X121374963Y-94707160D01*
X121314456Y-94853237D01*
X121314455Y-94853239D01*
X121293818Y-95009998D01*
X121293818Y-95010001D01*
X119422959Y-95010001D01*
X119391282Y-94968718D01*
X119391279Y-94968715D01*
X119391277Y-94968713D01*
X119387503Y-94964939D01*
X119354018Y-94903616D01*
X119359002Y-94833924D01*
X119399696Y-94778883D01*
X119454187Y-94737072D01*
X119550441Y-94611631D01*
X119606109Y-94477236D01*
X119649949Y-94422835D01*
X119716243Y-94400770D01*
X119745170Y-94404054D01*
X119745180Y-94403983D01*
X119749158Y-94404506D01*
X119752763Y-94404916D01*
X119753230Y-94405040D01*
X119753238Y-94405044D01*
X119876108Y-94421220D01*
X119909999Y-94425682D01*
X119910000Y-94425682D01*
X119910001Y-94425682D01*
X119962254Y-94418802D01*
X120066762Y-94405044D01*
X120212841Y-94344536D01*
X120338282Y-94248282D01*
X120434536Y-94122841D01*
X120495044Y-93976762D01*
X120497924Y-93954892D01*
X120515682Y-93820001D01*
X120515682Y-93819998D01*
X120495044Y-93663239D01*
X120495044Y-93663238D01*
X120434536Y-93517159D01*
X120338282Y-93391718D01*
X120212841Y-93295464D01*
X120209316Y-93294004D01*
X120066762Y-93234956D01*
X120066760Y-93234955D01*
X119910001Y-93214318D01*
X119909999Y-93214318D01*
X119753239Y-93234955D01*
X119753237Y-93234956D01*
X119607160Y-93295463D01*
X119481718Y-93391718D01*
X119385464Y-93517159D01*
X119329796Y-93651552D01*
X119285954Y-93705955D01*
X119219660Y-93728019D01*
X119190734Y-93724735D01*
X119190725Y-93724807D01*
X119186740Y-93724282D01*
X119183151Y-93723875D01*
X119182672Y-93723746D01*
X119025906Y-93703108D01*
X119025904Y-93703108D01*
X118869144Y-93723745D01*
X118869142Y-93723746D01*
X118723065Y-93784253D01*
X118693212Y-93807160D01*
X118600616Y-93878212D01*
X118597622Y-93880509D01*
X118575349Y-93909536D01*
X118518920Y-93950738D01*
X118449174Y-93954892D01*
X118393987Y-93924328D01*
X118393729Y-93924666D01*
X118391479Y-93922939D01*
X118389293Y-93921729D01*
X118387286Y-93919722D01*
X118387283Y-93919720D01*
X118387282Y-93919718D01*
X118261841Y-93823464D01*
X118253478Y-93820000D01*
X118115762Y-93762956D01*
X118115760Y-93762955D01*
X117959001Y-93742318D01*
X117958999Y-93742318D01*
X117802239Y-93762955D01*
X117802237Y-93762956D01*
X117656160Y-93823463D01*
X117530718Y-93919718D01*
X117434463Y-94045160D01*
X117373956Y-94191237D01*
X117373955Y-94191239D01*
X117353318Y-94347998D01*
X117353318Y-94348001D01*
X115556433Y-94348001D01*
X115599356Y-94244377D01*
X115619994Y-94087615D01*
X115614657Y-94047080D01*
X115599356Y-93930854D01*
X115599356Y-93930853D01*
X115538848Y-93784774D01*
X115442594Y-93659333D01*
X115317153Y-93563079D01*
X115286596Y-93550422D01*
X115171074Y-93502571D01*
X115171072Y-93502570D01*
X115014313Y-93481933D01*
X115014311Y-93481933D01*
X114857551Y-93502570D01*
X114857549Y-93502571D01*
X114711472Y-93563078D01*
X114586030Y-93659333D01*
X114489775Y-93784775D01*
X114429268Y-93930852D01*
X114429267Y-93930854D01*
X114408630Y-94087613D01*
X114408630Y-94087616D01*
X112316507Y-94087616D01*
X112335645Y-93930000D01*
X112315140Y-93761128D01*
X112307613Y-93741282D01*
X112275859Y-93657551D01*
X112254818Y-93602070D01*
X112158183Y-93462071D01*
X112074363Y-93387813D01*
X112037238Y-93328626D01*
X112038006Y-93258761D01*
X112074363Y-93202186D01*
X112158183Y-93127929D01*
X112254818Y-92987930D01*
X112295750Y-92880001D01*
X117504318Y-92880001D01*
X117524955Y-93036760D01*
X117524956Y-93036762D01*
X117540602Y-93074536D01*
X117585464Y-93182841D01*
X117681718Y-93308282D01*
X117807159Y-93404536D01*
X117953238Y-93465044D01*
X117962004Y-93466198D01*
X118109999Y-93485682D01*
X118110000Y-93485682D01*
X118110001Y-93485682D01*
X118162254Y-93478802D01*
X118266762Y-93465044D01*
X118412841Y-93404536D01*
X118538282Y-93308282D01*
X118634536Y-93182841D01*
X118695044Y-93036762D01*
X118715682Y-92880000D01*
X118712106Y-92852841D01*
X118695044Y-92723239D01*
X118695044Y-92723238D01*
X118634536Y-92577159D01*
X118538282Y-92451718D01*
X118412841Y-92355464D01*
X118266762Y-92294956D01*
X118266760Y-92294955D01*
X118110001Y-92274318D01*
X118109999Y-92274318D01*
X117953239Y-92294955D01*
X117953237Y-92294956D01*
X117807160Y-92355463D01*
X117681718Y-92451718D01*
X117585463Y-92577160D01*
X117524956Y-92723237D01*
X117524955Y-92723239D01*
X117504318Y-92879998D01*
X117504318Y-92880001D01*
X112295750Y-92880001D01*
X112315140Y-92828872D01*
X112335645Y-92660000D01*
X112315140Y-92491128D01*
X112254818Y-92332070D01*
X112251062Y-92326629D01*
X112196208Y-92247160D01*
X112158183Y-92192071D01*
X112074363Y-92117813D01*
X112037238Y-92058626D01*
X112038006Y-91988761D01*
X112074363Y-91932186D01*
X112158183Y-91857929D01*
X112162950Y-91851021D01*
X112217230Y-91807033D01*
X112286678Y-91799372D01*
X112349244Y-91830473D01*
X112367046Y-91851017D01*
X112371817Y-91857929D01*
X112467442Y-91942645D01*
X112499150Y-91970736D01*
X112603424Y-92025463D01*
X112649775Y-92049790D01*
X112814944Y-92090500D01*
X112985056Y-92090500D01*
X113150225Y-92049790D01*
X113229692Y-92008081D01*
X113300849Y-91970736D01*
X113300850Y-91970734D01*
X113300852Y-91970734D01*
X113428183Y-91857929D01*
X113524818Y-91717930D01*
X113585140Y-91558872D01*
X113605645Y-91390000D01*
X113585140Y-91221128D01*
X113524818Y-91062070D01*
X113510815Y-91041784D01*
X113479163Y-90995928D01*
X113428183Y-90922071D01*
X113301681Y-90810000D01*
X113300849Y-90809263D01*
X113150226Y-90730210D01*
X112985056Y-90689500D01*
X112814944Y-90689500D01*
X112649773Y-90730210D01*
X112499150Y-90809263D01*
X112371815Y-90922072D01*
X112367049Y-90928978D01*
X112312766Y-90972968D01*
X112243317Y-90980627D01*
X112180753Y-90949523D01*
X112162951Y-90928978D01*
X112158184Y-90922072D01*
X112155336Y-90919549D01*
X112074363Y-90847813D01*
X112037238Y-90788626D01*
X112038006Y-90718761D01*
X112074363Y-90662186D01*
X112129882Y-90613001D01*
X114870318Y-90613001D01*
X114890955Y-90769760D01*
X114890956Y-90769762D01*
X114951464Y-90915841D01*
X115047718Y-91041282D01*
X115173159Y-91137536D01*
X115319238Y-91198044D01*
X115385648Y-91206787D01*
X115475999Y-91218682D01*
X115476000Y-91218682D01*
X115476001Y-91218682D01*
X115528254Y-91211802D01*
X115632762Y-91198044D01*
X115778841Y-91137536D01*
X115904282Y-91041282D01*
X116000536Y-90915841D01*
X116044377Y-90810000D01*
X133264318Y-90810000D01*
X133268439Y-90841301D01*
X133269500Y-90857487D01*
X133269500Y-90889057D01*
X133277670Y-90919549D01*
X133280833Y-90935450D01*
X133284956Y-90966764D01*
X133297038Y-90995932D01*
X133302251Y-91011288D01*
X133310422Y-91041781D01*
X133310423Y-91041784D01*
X133326207Y-91069123D01*
X133333379Y-91083668D01*
X133345462Y-91112839D01*
X133345463Y-91112840D01*
X133364682Y-91137887D01*
X133373692Y-91151372D01*
X133389475Y-91178709D01*
X133389482Y-91178718D01*
X133411803Y-91201039D01*
X133422497Y-91213233D01*
X133441717Y-91238281D01*
X133466765Y-91257501D01*
X133478960Y-91268196D01*
X133501284Y-91290520D01*
X133501285Y-91290521D01*
X133501287Y-91290522D01*
X133528625Y-91306305D01*
X133542104Y-91315311D01*
X133567159Y-91334536D01*
X133594009Y-91345657D01*
X133596326Y-91346617D01*
X133610873Y-91353791D01*
X133638214Y-91369576D01*
X133638216Y-91369577D01*
X133668708Y-91377746D01*
X133684060Y-91382957D01*
X133713238Y-91395044D01*
X133744541Y-91399165D01*
X133760441Y-91402327D01*
X133790943Y-91410500D01*
X133822513Y-91410500D01*
X133838697Y-91411560D01*
X133870000Y-91415682D01*
X133901302Y-91411560D01*
X133917487Y-91410500D01*
X134440943Y-91410500D01*
X134472513Y-91410500D01*
X134488697Y-91411560D01*
X134520000Y-91415682D01*
X134551302Y-91411560D01*
X134567487Y-91410500D01*
X134599056Y-91410500D01*
X134599057Y-91410500D01*
X134629555Y-91402327D01*
X134645439Y-91399167D01*
X134676762Y-91395044D01*
X134705930Y-91382961D01*
X134721293Y-91377747D01*
X134740858Y-91372504D01*
X134751784Y-91369577D01*
X134779130Y-91353787D01*
X134793666Y-91346619D01*
X134822841Y-91334536D01*
X134847895Y-91315310D01*
X134861374Y-91306305D01*
X134888716Y-91290520D01*
X134911040Y-91268194D01*
X134923234Y-91257501D01*
X134948282Y-91238282D01*
X134967502Y-91213233D01*
X134978196Y-91201039D01*
X134981192Y-91198043D01*
X135000520Y-91178716D01*
X135016308Y-91151368D01*
X135025310Y-91137895D01*
X135044536Y-91112841D01*
X135056619Y-91083666D01*
X135063792Y-91069123D01*
X135079577Y-91041784D01*
X135082504Y-91030858D01*
X135087747Y-91011293D01*
X135092962Y-90995928D01*
X135105044Y-90966762D01*
X135109167Y-90935439D01*
X135112329Y-90919549D01*
X135120500Y-90889057D01*
X135120500Y-90857487D01*
X135121561Y-90841301D01*
X135125682Y-90810000D01*
X135125682Y-90809998D01*
X135121561Y-90778697D01*
X135120500Y-90762512D01*
X135120500Y-90207487D01*
X135121561Y-90191301D01*
X135125682Y-90160000D01*
X135125682Y-90159998D01*
X135121561Y-90128697D01*
X135120500Y-90112512D01*
X135120500Y-89557487D01*
X135121561Y-89541301D01*
X135125682Y-89510000D01*
X135125682Y-89509998D01*
X135121561Y-89478697D01*
X135120500Y-89462512D01*
X135120500Y-88907487D01*
X135121561Y-88891301D01*
X135125682Y-88860000D01*
X135125682Y-88859998D01*
X135121561Y-88828697D01*
X135120500Y-88812512D01*
X135120500Y-88257487D01*
X135121561Y-88241301D01*
X135125682Y-88210000D01*
X135125682Y-88209998D01*
X135121561Y-88178697D01*
X135120500Y-88162512D01*
X135120500Y-88130945D01*
X135120500Y-88130943D01*
X135112327Y-88100441D01*
X135109164Y-88084536D01*
X135105044Y-88053239D01*
X135105044Y-88053238D01*
X135092957Y-88024060D01*
X135087745Y-88008703D01*
X135079577Y-87978216D01*
X135066174Y-87955001D01*
X135063791Y-87950873D01*
X135056617Y-87936326D01*
X135047285Y-87913796D01*
X135044536Y-87907159D01*
X135025311Y-87882104D01*
X135016305Y-87868625D01*
X135000522Y-87841287D01*
X135000518Y-87841282D01*
X134978196Y-87818960D01*
X134967501Y-87806765D01*
X134948281Y-87781717D01*
X134923233Y-87762497D01*
X134911039Y-87751803D01*
X134888718Y-87729482D01*
X134888716Y-87729480D01*
X134888713Y-87729478D01*
X134888709Y-87729475D01*
X134861372Y-87713692D01*
X134847887Y-87704682D01*
X134822840Y-87685463D01*
X134822839Y-87685462D01*
X134793668Y-87673379D01*
X134779123Y-87666207D01*
X134751784Y-87650423D01*
X134751781Y-87650422D01*
X134721288Y-87642251D01*
X134705932Y-87637038D01*
X134676764Y-87624956D01*
X134645450Y-87620833D01*
X134629552Y-87617670D01*
X134599057Y-87609500D01*
X134567487Y-87609500D01*
X134551302Y-87608439D01*
X134520000Y-87604318D01*
X134488697Y-87608439D01*
X134472513Y-87609500D01*
X133917487Y-87609500D01*
X133901302Y-87608439D01*
X133870000Y-87604318D01*
X133838697Y-87608439D01*
X133822513Y-87609500D01*
X133790940Y-87609500D01*
X133760441Y-87617671D01*
X133744545Y-87620832D01*
X133713244Y-87624954D01*
X133713235Y-87624956D01*
X133684067Y-87637038D01*
X133668715Y-87642250D01*
X133638219Y-87650422D01*
X133638217Y-87650422D01*
X133638216Y-87650423D01*
X133638214Y-87650424D01*
X133638212Y-87650425D01*
X133610875Y-87666207D01*
X133596336Y-87673377D01*
X133567165Y-87685460D01*
X133567160Y-87685463D01*
X133542107Y-87704686D01*
X133528629Y-87713691D01*
X133501283Y-87729480D01*
X133478955Y-87751807D01*
X133466767Y-87762496D01*
X133441718Y-87781718D01*
X133422496Y-87806767D01*
X133411807Y-87818955D01*
X133389480Y-87841283D01*
X133373691Y-87868629D01*
X133364686Y-87882107D01*
X133345463Y-87907160D01*
X133345460Y-87907165D01*
X133333377Y-87936336D01*
X133326207Y-87950875D01*
X133310425Y-87978212D01*
X133310422Y-87978219D01*
X133302250Y-88008715D01*
X133297038Y-88024067D01*
X133284956Y-88053235D01*
X133284954Y-88053244D01*
X133280832Y-88084545D01*
X133277671Y-88100441D01*
X133269500Y-88130940D01*
X133269500Y-88162512D01*
X133268439Y-88178697D01*
X133264318Y-88209998D01*
X133264318Y-88210000D01*
X133268439Y-88241301D01*
X133269500Y-88257487D01*
X133269500Y-88812512D01*
X133268439Y-88828697D01*
X133264318Y-88859998D01*
X133264318Y-88860000D01*
X133268439Y-88891301D01*
X133269500Y-88907487D01*
X133269500Y-89462512D01*
X133268439Y-89478697D01*
X133264318Y-89509998D01*
X133264318Y-89510000D01*
X133268439Y-89541301D01*
X133269500Y-89557487D01*
X133269500Y-90112512D01*
X133268439Y-90128697D01*
X133264318Y-90159998D01*
X133264318Y-90160000D01*
X133268439Y-90191301D01*
X133269500Y-90207487D01*
X133269500Y-90762512D01*
X133268439Y-90778697D01*
X133264318Y-90809998D01*
X133264318Y-90810000D01*
X116044377Y-90810000D01*
X116061044Y-90769762D01*
X116081682Y-90613000D01*
X116078381Y-90587930D01*
X116061044Y-90456239D01*
X116061044Y-90456238D01*
X116000536Y-90310159D01*
X115904282Y-90184718D01*
X115778841Y-90088464D01*
X115730735Y-90068538D01*
X115632762Y-90027956D01*
X115632760Y-90027955D01*
X115476001Y-90007318D01*
X115475999Y-90007318D01*
X115319239Y-90027955D01*
X115319237Y-90027956D01*
X115173160Y-90088463D01*
X115047718Y-90184718D01*
X114951463Y-90310160D01*
X114890956Y-90456237D01*
X114890955Y-90456239D01*
X114870318Y-90612998D01*
X114870318Y-90613001D01*
X112129882Y-90613001D01*
X112158183Y-90587929D01*
X112254818Y-90447930D01*
X112315140Y-90288872D01*
X112335645Y-90120000D01*
X112315140Y-89951128D01*
X112254818Y-89792070D01*
X112158183Y-89652071D01*
X112030852Y-89539266D01*
X112030849Y-89539263D01*
X111880226Y-89460210D01*
X111715056Y-89419500D01*
X111544944Y-89419500D01*
X111379773Y-89460210D01*
X111229150Y-89539263D01*
X111101816Y-89652072D01*
X111005182Y-89792068D01*
X110944860Y-89951125D01*
X110944859Y-89951130D01*
X110924355Y-90120000D01*
X110944859Y-90288869D01*
X110944860Y-90288874D01*
X111005182Y-90447931D01*
X111101818Y-90587930D01*
X111185634Y-90662185D01*
X111222761Y-90721374D01*
X111221993Y-90791240D01*
X111185634Y-90847815D01*
X111101818Y-90922069D01*
X111005182Y-91062068D01*
X110944860Y-91221125D01*
X110944859Y-91221130D01*
X110924355Y-91390000D01*
X110944859Y-91558869D01*
X110944860Y-91558874D01*
X111005182Y-91717931D01*
X111101818Y-91857930D01*
X111185634Y-91932185D01*
X111222761Y-91991374D01*
X111221993Y-92061240D01*
X111185634Y-92117815D01*
X111101818Y-92192069D01*
X111005182Y-92332068D01*
X110944860Y-92491125D01*
X110944859Y-92491130D01*
X110924355Y-92660000D01*
X110944859Y-92828869D01*
X110944860Y-92828874D01*
X111005182Y-92987931D01*
X111101818Y-93127930D01*
X111185634Y-93202185D01*
X111222761Y-93261374D01*
X111221993Y-93331240D01*
X111185634Y-93387815D01*
X111101818Y-93462069D01*
X111005182Y-93602068D01*
X110944860Y-93761125D01*
X110944859Y-93761130D01*
X110924355Y-93930000D01*
X110944859Y-94098869D01*
X110944860Y-94098874D01*
X111005182Y-94257931D01*
X111049212Y-94321718D01*
X111096657Y-94390454D01*
X111101818Y-94397930D01*
X111185634Y-94472185D01*
X111222761Y-94531374D01*
X111221993Y-94601240D01*
X111185634Y-94657815D01*
X111101818Y-94732069D01*
X111005182Y-94872068D01*
X110944860Y-95031125D01*
X110944859Y-95031130D01*
X110924355Y-95200000D01*
X109260249Y-95200000D01*
X109290300Y-95100934D01*
X109310583Y-94895000D01*
X109290300Y-94689066D01*
X109230232Y-94491046D01*
X109132685Y-94308550D01*
X109065562Y-94226760D01*
X109001410Y-94148589D01*
X108858052Y-94030940D01*
X108841450Y-94017315D01*
X108666997Y-93924067D01*
X108658956Y-93919769D01*
X108658955Y-93919768D01*
X108658954Y-93919768D01*
X108460934Y-93859700D01*
X108460932Y-93859699D01*
X108460934Y-93859699D01*
X108255000Y-93839417D01*
X108049067Y-93859699D01*
X107851043Y-93919769D01*
X107788417Y-93953244D01*
X107668550Y-94017315D01*
X107668548Y-94017316D01*
X107668547Y-94017317D01*
X107508589Y-94148589D01*
X107377317Y-94308547D01*
X107377315Y-94308550D01*
X107356228Y-94348001D01*
X107279769Y-94491043D01*
X107279768Y-94491045D01*
X107279768Y-94491046D01*
X107275838Y-94504001D01*
X107219699Y-94689067D01*
X107199417Y-94895000D01*
X106770583Y-94895000D01*
X106750300Y-94689066D01*
X106690232Y-94491046D01*
X106592685Y-94308550D01*
X106525562Y-94226760D01*
X106461410Y-94148589D01*
X106318052Y-94030940D01*
X106301450Y-94017315D01*
X106126997Y-93924067D01*
X106118956Y-93919769D01*
X106118955Y-93919768D01*
X106118954Y-93919768D01*
X105920934Y-93859700D01*
X105920932Y-93859699D01*
X105920934Y-93859699D01*
X105715000Y-93839417D01*
X105509067Y-93859699D01*
X105311043Y-93919769D01*
X105248417Y-93953244D01*
X105128550Y-94017315D01*
X105128548Y-94017316D01*
X105128547Y-94017317D01*
X104968589Y-94148589D01*
X104837317Y-94308547D01*
X104837315Y-94308550D01*
X104816228Y-94348001D01*
X104739769Y-94491043D01*
X104739768Y-94491045D01*
X104739768Y-94491046D01*
X104735838Y-94504001D01*
X104679699Y-94689067D01*
X104659417Y-94895000D01*
X102405000Y-94895000D01*
X102405000Y-92355000D01*
X104659417Y-92355000D01*
X104679699Y-92560932D01*
X104684622Y-92577160D01*
X104739768Y-92758954D01*
X104837315Y-92941450D01*
X104837317Y-92941452D01*
X104968589Y-93101410D01*
X105034721Y-93155682D01*
X105128550Y-93232685D01*
X105311046Y-93330232D01*
X105509066Y-93390300D01*
X105509065Y-93390300D01*
X105523463Y-93391718D01*
X105715000Y-93410583D01*
X105920934Y-93390300D01*
X106118954Y-93330232D01*
X106301450Y-93232685D01*
X106461410Y-93101410D01*
X106592685Y-92941450D01*
X106690232Y-92758954D01*
X106750300Y-92560934D01*
X106770583Y-92355000D01*
X107199417Y-92355000D01*
X107219699Y-92560932D01*
X107224622Y-92577160D01*
X107279768Y-92758954D01*
X107377315Y-92941450D01*
X107377317Y-92941452D01*
X107508589Y-93101410D01*
X107574721Y-93155682D01*
X107668550Y-93232685D01*
X107851046Y-93330232D01*
X108049066Y-93390300D01*
X108049065Y-93390300D01*
X108063463Y-93391718D01*
X108255000Y-93410583D01*
X108460934Y-93390300D01*
X108658954Y-93330232D01*
X108841450Y-93232685D01*
X109001410Y-93101410D01*
X109132685Y-92941450D01*
X109230232Y-92758954D01*
X109290300Y-92560934D01*
X109310583Y-92355000D01*
X109290300Y-92149066D01*
X109230232Y-91951046D01*
X109132685Y-91768550D01*
X109069108Y-91691081D01*
X109001410Y-91608589D01*
X108841452Y-91477317D01*
X108841453Y-91477317D01*
X108841450Y-91477315D01*
X108664928Y-91382961D01*
X108658956Y-91379769D01*
X108658955Y-91379768D01*
X108658954Y-91379768D01*
X108460934Y-91319700D01*
X108460932Y-91319699D01*
X108460934Y-91319699D01*
X108255000Y-91299417D01*
X108049067Y-91319699D01*
X107884635Y-91369579D01*
X107857709Y-91377747D01*
X107851043Y-91379769D01*
X107791014Y-91411856D01*
X107668550Y-91477315D01*
X107668548Y-91477316D01*
X107668547Y-91477317D01*
X107508589Y-91608589D01*
X107377317Y-91768547D01*
X107279769Y-91951043D01*
X107279768Y-91951045D01*
X107279768Y-91951046D01*
X107273796Y-91970734D01*
X107219699Y-92149067D01*
X107199417Y-92355000D01*
X106770583Y-92355000D01*
X106750300Y-92149066D01*
X106690232Y-91951046D01*
X106592685Y-91768550D01*
X106529108Y-91691081D01*
X106461410Y-91608589D01*
X106301452Y-91477317D01*
X106301453Y-91477317D01*
X106301450Y-91477315D01*
X106124928Y-91382961D01*
X106118956Y-91379769D01*
X106118955Y-91379768D01*
X106118954Y-91379768D01*
X105920934Y-91319700D01*
X105920932Y-91319699D01*
X105920934Y-91319699D01*
X105715000Y-91299417D01*
X105509067Y-91319699D01*
X105344635Y-91369579D01*
X105317709Y-91377747D01*
X105311043Y-91379769D01*
X105251014Y-91411856D01*
X105128550Y-91477315D01*
X105128548Y-91477316D01*
X105128547Y-91477317D01*
X104968589Y-91608589D01*
X104837317Y-91768547D01*
X104739769Y-91951043D01*
X104739768Y-91951045D01*
X104739768Y-91951046D01*
X104733796Y-91970734D01*
X104679699Y-92149067D01*
X104659417Y-92355000D01*
X102405000Y-92355000D01*
X102405000Y-89815000D01*
X104659417Y-89815000D01*
X104679699Y-90020932D01*
X104700184Y-90088463D01*
X104739768Y-90218954D01*
X104837315Y-90401450D01*
X104837317Y-90401452D01*
X104968589Y-90561410D01*
X105031453Y-90613000D01*
X105128550Y-90692685D01*
X105311046Y-90790232D01*
X105509066Y-90850300D01*
X105509065Y-90850300D01*
X105527529Y-90852118D01*
X105715000Y-90870583D01*
X105920934Y-90850300D01*
X106118954Y-90790232D01*
X106301450Y-90692685D01*
X106461410Y-90561410D01*
X106592685Y-90401450D01*
X106690232Y-90218954D01*
X106750300Y-90020934D01*
X106770583Y-89815000D01*
X107199417Y-89815000D01*
X107219699Y-90020932D01*
X107240184Y-90088463D01*
X107279768Y-90218954D01*
X107377315Y-90401450D01*
X107377317Y-90401452D01*
X107508589Y-90561410D01*
X107571453Y-90613000D01*
X107668550Y-90692685D01*
X107851046Y-90790232D01*
X108049066Y-90850300D01*
X108049065Y-90850300D01*
X108067529Y-90852118D01*
X108255000Y-90870583D01*
X108460934Y-90850300D01*
X108658954Y-90790232D01*
X108841450Y-90692685D01*
X109001410Y-90561410D01*
X109132685Y-90401450D01*
X109230232Y-90218954D01*
X109290300Y-90020934D01*
X109310583Y-89815000D01*
X109290300Y-89609066D01*
X109230232Y-89411046D01*
X109132685Y-89228550D01*
X109072360Y-89155043D01*
X109001410Y-89068589D01*
X108841452Y-88937317D01*
X108841453Y-88937317D01*
X108841450Y-88937315D01*
X108658954Y-88839768D01*
X108460934Y-88779700D01*
X108460932Y-88779699D01*
X108460934Y-88779699D01*
X108255000Y-88759417D01*
X108049067Y-88779699D01*
X107851043Y-88839769D01*
X107789175Y-88872839D01*
X107668550Y-88937315D01*
X107668548Y-88937316D01*
X107668547Y-88937317D01*
X107508589Y-89068589D01*
X107377317Y-89228547D01*
X107279769Y-89411043D01*
X107219699Y-89609067D01*
X107199417Y-89815000D01*
X106770583Y-89815000D01*
X106750300Y-89609066D01*
X106690232Y-89411046D01*
X106592685Y-89228550D01*
X106532360Y-89155043D01*
X106461410Y-89068589D01*
X106301452Y-88937317D01*
X106301453Y-88937317D01*
X106301450Y-88937315D01*
X106118954Y-88839768D01*
X105920934Y-88779700D01*
X105920932Y-88779699D01*
X105920934Y-88779699D01*
X105715000Y-88759417D01*
X105509067Y-88779699D01*
X105311043Y-88839769D01*
X105249175Y-88872839D01*
X105128550Y-88937315D01*
X105128548Y-88937316D01*
X105128547Y-88937317D01*
X104968589Y-89068589D01*
X104837317Y-89228547D01*
X104739769Y-89411043D01*
X104679699Y-89609067D01*
X104659417Y-89815000D01*
X102405000Y-89815000D01*
X102405000Y-88691001D01*
X117419318Y-88691001D01*
X117439955Y-88847760D01*
X117439956Y-88847762D01*
X117500464Y-88993841D01*
X117596718Y-89119282D01*
X117722159Y-89215536D01*
X117868238Y-89276044D01*
X117946619Y-89286363D01*
X118024999Y-89296682D01*
X118025000Y-89296682D01*
X118025001Y-89296682D01*
X118077254Y-89289802D01*
X118181762Y-89276044D01*
X118327841Y-89215536D01*
X118453282Y-89119282D01*
X118549536Y-88993841D01*
X118610044Y-88847762D01*
X118630682Y-88691000D01*
X118610044Y-88534238D01*
X118549536Y-88388159D01*
X118453282Y-88262718D01*
X118327841Y-88166464D01*
X118294568Y-88152682D01*
X118181762Y-88105956D01*
X118181760Y-88105955D01*
X118025001Y-88085318D01*
X118024999Y-88085318D01*
X117868239Y-88105955D01*
X117868237Y-88105956D01*
X117722160Y-88166463D01*
X117596718Y-88262718D01*
X117500463Y-88388160D01*
X117439956Y-88534237D01*
X117439955Y-88534239D01*
X117419318Y-88690998D01*
X117419318Y-88691001D01*
X102405000Y-88691001D01*
X102405000Y-87275000D01*
X104659417Y-87275000D01*
X104679699Y-87480932D01*
X104697489Y-87539577D01*
X104739768Y-87678954D01*
X104837315Y-87861450D01*
X104843207Y-87868629D01*
X104968589Y-88021410D01*
X105055336Y-88092600D01*
X105128550Y-88152685D01*
X105311046Y-88250232D01*
X105509066Y-88310300D01*
X105509065Y-88310300D01*
X105527529Y-88312118D01*
X105715000Y-88330583D01*
X105920934Y-88310300D01*
X106118954Y-88250232D01*
X106301450Y-88152685D01*
X106461410Y-88021410D01*
X106592685Y-87861450D01*
X106690232Y-87678954D01*
X106750300Y-87480934D01*
X106770583Y-87275000D01*
X107199417Y-87275000D01*
X107219699Y-87480932D01*
X107237489Y-87539577D01*
X107279768Y-87678954D01*
X107377315Y-87861450D01*
X107383207Y-87868629D01*
X107508589Y-88021410D01*
X107595336Y-88092600D01*
X107668550Y-88152685D01*
X107851046Y-88250232D01*
X108049066Y-88310300D01*
X108049065Y-88310300D01*
X108067529Y-88312118D01*
X108255000Y-88330583D01*
X108460934Y-88310300D01*
X108658954Y-88250232D01*
X108841450Y-88152685D01*
X109001410Y-88021410D01*
X109132685Y-87861450D01*
X109230232Y-87678954D01*
X109290300Y-87480934D01*
X109310583Y-87275000D01*
X109290300Y-87069066D01*
X109230232Y-86871046D01*
X109132685Y-86688550D01*
X109046237Y-86583212D01*
X109001410Y-86528589D01*
X108873966Y-86424000D01*
X108841450Y-86397315D01*
X108658954Y-86299768D01*
X108460934Y-86239700D01*
X108460932Y-86239699D01*
X108460934Y-86239699D01*
X108255000Y-86219417D01*
X108049067Y-86239699D01*
X107851043Y-86299769D01*
X107756050Y-86350545D01*
X107668550Y-86397315D01*
X107668548Y-86397316D01*
X107668547Y-86397317D01*
X107508589Y-86528589D01*
X107377317Y-86688547D01*
X107377315Y-86688550D01*
X107356849Y-86726839D01*
X107279769Y-86871043D01*
X107219699Y-87069067D01*
X107199417Y-87275000D01*
X106770583Y-87275000D01*
X106750300Y-87069066D01*
X106690232Y-86871046D01*
X106592685Y-86688550D01*
X106506237Y-86583212D01*
X106461410Y-86528589D01*
X106333966Y-86424000D01*
X106301450Y-86397315D01*
X106118954Y-86299768D01*
X105920934Y-86239700D01*
X105920932Y-86239699D01*
X105920934Y-86239699D01*
X105715000Y-86219417D01*
X105509067Y-86239699D01*
X105311043Y-86299769D01*
X105216050Y-86350545D01*
X105128550Y-86397315D01*
X105128548Y-86397316D01*
X105128547Y-86397317D01*
X104968589Y-86528589D01*
X104837317Y-86688547D01*
X104837315Y-86688550D01*
X104816849Y-86726839D01*
X104739769Y-86871043D01*
X104679699Y-87069067D01*
X104659417Y-87275000D01*
X102405000Y-87275000D01*
X102405000Y-84084000D01*
X102424685Y-84016961D01*
X102477489Y-83971206D01*
X102529000Y-83960000D01*
X104731313Y-83960000D01*
X104798352Y-83979685D01*
G37*
G04 #@! TD.AperFunction*
G04 #@! TA.AperFunction,Conductor*
G36*
X133852535Y-106880185D02*
G01*
X133873177Y-106896819D01*
X134047982Y-107071624D01*
X134081467Y-107132947D01*
X134081919Y-107183496D01*
X134077506Y-107205682D01*
X134069500Y-107245931D01*
X134069500Y-107774069D01*
X134069500Y-107774071D01*
X134069499Y-107774071D01*
X134094497Y-107899738D01*
X134094499Y-107899744D01*
X134143533Y-108018124D01*
X134143538Y-108018133D01*
X134214723Y-108124668D01*
X134214726Y-108124672D01*
X134238371Y-108148317D01*
X134271856Y-108209640D01*
X134266872Y-108279332D01*
X134225000Y-108335265D01*
X134159536Y-108359682D01*
X134150690Y-108359998D01*
X130499309Y-108359998D01*
X130432270Y-108340313D01*
X130386515Y-108287509D01*
X130376571Y-108218351D01*
X130405596Y-108154795D01*
X130411615Y-108148329D01*
X130435276Y-108124669D01*
X130506465Y-108018127D01*
X130555501Y-107899744D01*
X130575156Y-107800934D01*
X130580500Y-107774071D01*
X130580500Y-107245928D01*
X130555502Y-107120261D01*
X130555501Y-107120260D01*
X130555501Y-107120256D01*
X130548535Y-107103438D01*
X130518925Y-107031952D01*
X130511456Y-106962483D01*
X130542731Y-106900004D01*
X130602821Y-106864352D01*
X130633486Y-106860500D01*
X133785496Y-106860500D01*
X133852535Y-106880185D01*
G37*
G04 #@! TD.AperFunction*
G04 #@! TA.AperFunction,Conductor*
G36*
X141373553Y-106880185D02*
G01*
X141419308Y-106932989D01*
X141429252Y-107002147D01*
X141421075Y-107031952D01*
X141384500Y-107120251D01*
X141384497Y-107120261D01*
X141359500Y-107245928D01*
X141359500Y-107245931D01*
X141359500Y-107774069D01*
X141359500Y-107774071D01*
X141359499Y-107774071D01*
X141384497Y-107899738D01*
X141384499Y-107899744D01*
X141433533Y-108018124D01*
X141433538Y-108018133D01*
X141504723Y-108124668D01*
X141504726Y-108124672D01*
X141528371Y-108148317D01*
X141561856Y-108209640D01*
X141556872Y-108279332D01*
X141515000Y-108335265D01*
X141449536Y-108359682D01*
X141440690Y-108359998D01*
X137789310Y-108359998D01*
X137722271Y-108340313D01*
X137676516Y-108287509D01*
X137666572Y-108218351D01*
X137695597Y-108154795D01*
X137701629Y-108148317D01*
X137725273Y-108124672D01*
X137725276Y-108124669D01*
X137796465Y-108018127D01*
X137845501Y-107899744D01*
X137865156Y-107800934D01*
X137870500Y-107774071D01*
X137870500Y-107245928D01*
X137845502Y-107120261D01*
X137845501Y-107120260D01*
X137845501Y-107120256D01*
X137838535Y-107103438D01*
X137808925Y-107031952D01*
X137801456Y-106962483D01*
X137832731Y-106900004D01*
X137892821Y-106864352D01*
X137923486Y-106860500D01*
X141306514Y-106860500D01*
X141373553Y-106880185D01*
G37*
G04 #@! TD.AperFunction*
G04 #@! TA.AperFunction,Conductor*
G36*
X140483039Y-100999685D02*
G01*
X140528794Y-101052489D01*
X140540000Y-101104000D01*
X140540000Y-101349760D01*
X140520315Y-101416799D01*
X140467511Y-101462554D01*
X140432192Y-101472698D01*
X140430243Y-101472954D01*
X140430235Y-101472956D01*
X140401067Y-101485038D01*
X140385715Y-101490250D01*
X140355219Y-101498422D01*
X140355217Y-101498422D01*
X140355216Y-101498423D01*
X140355214Y-101498424D01*
X140355212Y-101498425D01*
X140327875Y-101514207D01*
X140313336Y-101521377D01*
X140284165Y-101533460D01*
X140284160Y-101533463D01*
X140259107Y-101552686D01*
X140245629Y-101561691D01*
X140218283Y-101577480D01*
X140195955Y-101599807D01*
X140183767Y-101610496D01*
X140158718Y-101629718D01*
X140139496Y-101654767D01*
X140128807Y-101666955D01*
X140106480Y-101689283D01*
X140090691Y-101716629D01*
X140081686Y-101730107D01*
X140062463Y-101755160D01*
X140062460Y-101755165D01*
X140050377Y-101784336D01*
X140043207Y-101798875D01*
X140027425Y-101826212D01*
X140027422Y-101826219D01*
X140019250Y-101856715D01*
X140014038Y-101872067D01*
X140001956Y-101901235D01*
X140001954Y-101901244D01*
X139997832Y-101932545D01*
X139994671Y-101948441D01*
X139986500Y-101978940D01*
X139986500Y-102010512D01*
X139985439Y-102026697D01*
X139983744Y-102039576D01*
X139981318Y-102058000D01*
X139984962Y-102085682D01*
X139985439Y-102089301D01*
X139986500Y-102105487D01*
X139986500Y-102137057D01*
X139994670Y-102167552D01*
X139997833Y-102183450D01*
X140001956Y-102214764D01*
X140014038Y-102243932D01*
X140019251Y-102259288D01*
X140027422Y-102289781D01*
X140027423Y-102289784D01*
X140043207Y-102317123D01*
X140050379Y-102331668D01*
X140062462Y-102360839D01*
X140062463Y-102360840D01*
X140081682Y-102385887D01*
X140090692Y-102399372D01*
X140106475Y-102426709D01*
X140106482Y-102426718D01*
X140128803Y-102449039D01*
X140139497Y-102461233D01*
X140158717Y-102486281D01*
X140183765Y-102505501D01*
X140195960Y-102516196D01*
X140218284Y-102538520D01*
X140218285Y-102538521D01*
X140218287Y-102538522D01*
X140245625Y-102554305D01*
X140259104Y-102563311D01*
X140284159Y-102582536D01*
X140311009Y-102593657D01*
X140313326Y-102594617D01*
X140327873Y-102601791D01*
X140355214Y-102617576D01*
X140355216Y-102617577D01*
X140385708Y-102625746D01*
X140401060Y-102630957D01*
X140430238Y-102643044D01*
X140432183Y-102643300D01*
X140433704Y-102643973D01*
X140438086Y-102645147D01*
X140437902Y-102645830D01*
X140496080Y-102671565D01*
X140534552Y-102729889D01*
X140540000Y-102766239D01*
X140540000Y-103398760D01*
X140520315Y-103465799D01*
X140467511Y-103511554D01*
X140432192Y-103521698D01*
X140430243Y-103521954D01*
X140430235Y-103521956D01*
X140401067Y-103534038D01*
X140385715Y-103539250D01*
X140355219Y-103547422D01*
X140355217Y-103547422D01*
X140355216Y-103547423D01*
X140355214Y-103547424D01*
X140355212Y-103547425D01*
X140327875Y-103563207D01*
X140313336Y-103570377D01*
X140284165Y-103582460D01*
X140284160Y-103582463D01*
X140259107Y-103601686D01*
X140245629Y-103610691D01*
X140218283Y-103626480D01*
X140195955Y-103648807D01*
X140183767Y-103659496D01*
X140158718Y-103678718D01*
X140139496Y-103703767D01*
X140128807Y-103715955D01*
X140106480Y-103738283D01*
X140090691Y-103765629D01*
X140081686Y-103779107D01*
X140062463Y-103804160D01*
X140062460Y-103804165D01*
X140050377Y-103833336D01*
X140043207Y-103847875D01*
X140027425Y-103875212D01*
X140027422Y-103875219D01*
X140019250Y-103905715D01*
X140014038Y-103921067D01*
X140001956Y-103950235D01*
X140001954Y-103950244D01*
X139997832Y-103981545D01*
X139994671Y-103997441D01*
X139986500Y-104027940D01*
X139986500Y-104059512D01*
X139985439Y-104075697D01*
X139981318Y-104106998D01*
X139981318Y-104107000D01*
X139985439Y-104138301D01*
X139986500Y-104154487D01*
X139986500Y-104186057D01*
X139994670Y-104216552D01*
X139997833Y-104232450D01*
X140001956Y-104263764D01*
X140014038Y-104292932D01*
X140019251Y-104308288D01*
X140027422Y-104338781D01*
X140027423Y-104338784D01*
X140043207Y-104366123D01*
X140050379Y-104380668D01*
X140062462Y-104409839D01*
X140062463Y-104409840D01*
X140081682Y-104434887D01*
X140090692Y-104448372D01*
X140106475Y-104475709D01*
X140106482Y-104475718D01*
X140128803Y-104498039D01*
X140139497Y-104510233D01*
X140158717Y-104535281D01*
X140183765Y-104554501D01*
X140195960Y-104565196D01*
X140218284Y-104587520D01*
X140218285Y-104587521D01*
X140218287Y-104587522D01*
X140245625Y-104603305D01*
X140259104Y-104612311D01*
X140284159Y-104631536D01*
X140284160Y-104631536D01*
X140290609Y-104636485D01*
X140288646Y-104639042D01*
X140326435Y-104678659D01*
X140339671Y-104747263D01*
X140313715Y-104812133D01*
X140256809Y-104852672D01*
X140216230Y-104859500D01*
X137884920Y-104859500D01*
X137817881Y-104839815D01*
X137797239Y-104823181D01*
X136013581Y-103039522D01*
X136013580Y-103039521D01*
X136013579Y-103039520D01*
X135967916Y-103013156D01*
X135922255Y-102986793D01*
X135871323Y-102973146D01*
X135820393Y-102959500D01*
X135820392Y-102959500D01*
X128233154Y-102959500D01*
X128166115Y-102939815D01*
X128145473Y-102923181D01*
X128056319Y-102834027D01*
X128022834Y-102772704D01*
X128020000Y-102746346D01*
X128020000Y-102412143D01*
X128039685Y-102345104D01*
X128068514Y-102313767D01*
X128086917Y-102299647D01*
X128183171Y-102174206D01*
X128243679Y-102028127D01*
X128256885Y-101927814D01*
X128285151Y-101863918D01*
X128343476Y-101825447D01*
X128379824Y-101820000D01*
X128625187Y-101820000D01*
X128692226Y-101839685D01*
X128712868Y-101856318D01*
X128817070Y-101960520D01*
X128817072Y-101960521D01*
X128817073Y-101960522D01*
X128884741Y-101999589D01*
X128884743Y-101999591D01*
X128884744Y-101999591D01*
X128903659Y-102010512D01*
X128954001Y-102039577D01*
X129106728Y-102080500D01*
X129106729Y-102080500D01*
X129162513Y-102080500D01*
X129178697Y-102081560D01*
X129210000Y-102085682D01*
X129241302Y-102081560D01*
X129257487Y-102080500D01*
X129289056Y-102080500D01*
X129289057Y-102080500D01*
X129319555Y-102072327D01*
X129335439Y-102069167D01*
X129366762Y-102065044D01*
X129395930Y-102052961D01*
X129411293Y-102047747D01*
X129430858Y-102042504D01*
X129441784Y-102039577D01*
X129469130Y-102023787D01*
X129483666Y-102016619D01*
X129512841Y-102004536D01*
X129537895Y-101985310D01*
X129551368Y-101976308D01*
X129578716Y-101960520D01*
X129601040Y-101938194D01*
X129613234Y-101927501D01*
X129638282Y-101908282D01*
X129657501Y-101883234D01*
X129668199Y-101871036D01*
X129682924Y-101856313D01*
X129744249Y-101822832D01*
X129770599Y-101820000D01*
X131213158Y-101820000D01*
X131280197Y-101839685D01*
X131325952Y-101892489D01*
X131327714Y-101896537D01*
X131342590Y-101932448D01*
X131360753Y-101976300D01*
X131363463Y-101982841D01*
X131459717Y-102108282D01*
X131585158Y-102204536D01*
X131731237Y-102265044D01*
X131809618Y-102275363D01*
X131887998Y-102285682D01*
X131887999Y-102285682D01*
X131888000Y-102285682D01*
X131940253Y-102278802D01*
X132044761Y-102265044D01*
X132190840Y-102204536D01*
X132253932Y-102156123D01*
X132319101Y-102130930D01*
X132329418Y-102130500D01*
X133945476Y-102130500D01*
X133945477Y-102130500D01*
X134035841Y-102106286D01*
X134060055Y-102099799D01*
X134162782Y-102040489D01*
X134887529Y-101315740D01*
X134948850Y-101282257D01*
X134959003Y-101280487D01*
X135037869Y-101270105D01*
X135183948Y-101209597D01*
X135309389Y-101113343D01*
X135374480Y-101028513D01*
X135430908Y-100987311D01*
X135472856Y-100980000D01*
X140416000Y-100980000D01*
X140483039Y-100999685D01*
G37*
G04 #@! TD.AperFunction*
G04 #@! TA.AperFunction,Conductor*
G36*
X159390000Y-85244000D02*
G01*
X159422000Y-89387000D01*
X157488000Y-91627000D01*
X156440000Y-91660000D01*
X155468000Y-91681000D01*
X154408000Y-90354000D01*
X153506000Y-89387000D01*
X153457000Y-85373000D01*
X154489000Y-84373000D01*
X158326000Y-84341000D01*
X159390000Y-85244000D01*
G37*
G04 #@! TD.AperFunction*
M02*
