G04 #@! TF.GenerationSoftware,KiCad,Pcbnew,7.0.6*
G04 #@! TF.CreationDate,2024-02-28T04:38:31+03:00*
G04 #@! TF.ProjectId,Penguin Junior,50656e67-7569-46e2-904a-756e696f722e,rev?*
G04 #@! TF.SameCoordinates,Original*
G04 #@! TF.FileFunction,Legend,Bot*
G04 #@! TF.FilePolarity,Positive*
%FSLAX46Y46*%
G04 Gerber Fmt 4.6, Leading zero omitted, Abs format (unit mm)*
G04 Created by KiCad (PCBNEW 7.0.6) date 2024-02-28 04:38:31*
%MOMM*%
%LPD*%
G01*
G04 APERTURE LIST*
G04 Aperture macros list*
%AMRoundRect*
0 Rectangle with rounded corners*
0 $1 Rounding radius*
0 $2 $3 $4 $5 $6 $7 $8 $9 X,Y pos of 4 corners*
0 Add a 4 corners polygon primitive as box body*
4,1,4,$2,$3,$4,$5,$6,$7,$8,$9,$2,$3,0*
0 Add four circle primitives for the rounded corners*
1,1,$1+$1,$2,$3*
1,1,$1+$1,$4,$5*
1,1,$1+$1,$6,$7*
1,1,$1+$1,$8,$9*
0 Add four rect primitives between the rounded corners*
20,1,$1+$1,$2,$3,$4,$5,0*
20,1,$1+$1,$4,$5,$6,$7,0*
20,1,$1+$1,$6,$7,$8,$9,0*
20,1,$1+$1,$8,$9,$2,$3,0*%
%AMFreePoly0*
4,1,19,0.550000,-0.750000,0.000000,-0.750000,0.000000,-0.744911,-0.071157,-0.744911,-0.207708,-0.704816,-0.327430,-0.627875,-0.420627,-0.520320,-0.479746,-0.390866,-0.500000,-0.250000,-0.500000,0.250000,-0.479746,0.390866,-0.420627,0.520320,-0.327430,0.627875,-0.207708,0.704816,-0.071157,0.744911,0.000000,0.744911,0.000000,0.750000,0.550000,0.750000,0.550000,-0.750000,0.550000,-0.750000,
$1*%
%AMFreePoly1*
4,1,19,0.000000,0.744911,0.071157,0.744911,0.207708,0.704816,0.327430,0.627875,0.420627,0.520320,0.479746,0.390866,0.500000,0.250000,0.500000,-0.250000,0.479746,-0.390866,0.420627,-0.520320,0.327430,-0.627875,0.207708,-0.704816,0.071157,-0.744911,0.000000,-0.744911,0.000000,-0.750000,-0.550000,-0.750000,-0.550000,0.750000,0.000000,0.750000,0.000000,0.744911,0.000000,0.744911,
$1*%
%AMFreePoly2*
4,1,19,0.500000,-0.750000,0.000000,-0.750000,0.000000,-0.744911,-0.071157,-0.744911,-0.207708,-0.704816,-0.327430,-0.627875,-0.420627,-0.520320,-0.479746,-0.390866,-0.500000,-0.250000,-0.500000,0.250000,-0.479746,0.390866,-0.420627,0.520320,-0.327430,0.627875,-0.207708,0.704816,-0.071157,0.744911,0.000000,0.744911,0.000000,0.750000,0.500000,0.750000,0.500000,-0.750000,0.500000,-0.750000,
$1*%
%AMFreePoly3*
4,1,19,0.000000,0.744911,0.071157,0.744911,0.207708,0.704816,0.327430,0.627875,0.420627,0.520320,0.479746,0.390866,0.500000,0.250000,0.500000,-0.250000,0.479746,-0.390866,0.420627,-0.520320,0.327430,-0.627875,0.207708,-0.704816,0.071157,-0.744911,0.000000,-0.744911,0.000000,-0.750000,-0.500000,-0.750000,-0.500000,0.750000,0.000000,0.750000,0.000000,0.744911,0.000000,0.744911,
$1*%
G04 Aperture macros list end*
%ADD10C,0.150000*%
%ADD11C,0.120000*%
%ADD12C,0.500000*%
%ADD13C,0.300000*%
%ADD14C,0.100000*%
%ADD15RoundRect,0.200000X0.200000X0.450000X-0.200000X0.450000X-0.200000X-0.450000X0.200000X-0.450000X0*%
%ADD16O,0.800000X1.300000*%
%ADD17C,0.700000*%
%ADD18C,4.400000*%
%ADD19R,1.600000X1.600000*%
%ADD20C,1.600000*%
%ADD21RoundRect,0.200000X-0.200000X-0.450000X0.200000X-0.450000X0.200000X0.450000X-0.200000X0.450000X0*%
%ADD22R,1.700000X1.700000*%
%ADD23O,1.700000X1.700000*%
%ADD24R,1.000000X1.000000*%
%ADD25O,1.000000X1.000000*%
%ADD26O,1.090000X2.000000*%
%ADD27O,1.050000X1.600000*%
%ADD28RoundRect,0.135000X0.135000X0.185000X-0.135000X0.185000X-0.135000X-0.185000X0.135000X-0.185000X0*%
%ADD29RoundRect,0.135000X0.185000X-0.135000X0.185000X0.135000X-0.185000X0.135000X-0.185000X-0.135000X0*%
%ADD30FreePoly0,180.000000*%
%ADD31R,1.000000X1.500000*%
%ADD32FreePoly1,180.000000*%
%ADD33FreePoly2,180.000000*%
%ADD34FreePoly3,180.000000*%
%ADD35R,1.910000X0.610000*%
%ADD36R,1.205000X1.550000*%
%ADD37RoundRect,0.135000X-0.185000X0.135000X-0.185000X-0.135000X0.185000X-0.135000X0.185000X0.135000X0*%
%ADD38RoundRect,0.200000X-0.200000X-0.275000X0.200000X-0.275000X0.200000X0.275000X-0.200000X0.275000X0*%
%ADD39RoundRect,0.200000X0.200000X0.275000X-0.200000X0.275000X-0.200000X-0.275000X0.200000X-0.275000X0*%
%ADD40RoundRect,0.250000X-0.475000X0.250000X-0.475000X-0.250000X0.475000X-0.250000X0.475000X0.250000X0*%
%ADD41RoundRect,0.140000X0.140000X0.170000X-0.140000X0.170000X-0.140000X-0.170000X0.140000X-0.170000X0*%
%ADD42C,1.000000*%
%ADD43R,1.400000X1.200000*%
%ADD44RoundRect,0.140000X-0.170000X0.140000X-0.170000X-0.140000X0.170000X-0.140000X0.170000X0.140000X0*%
%ADD45RoundRect,0.100000X0.100000X-0.637500X0.100000X0.637500X-0.100000X0.637500X-0.100000X-0.637500X0*%
%ADD46R,5.400000X2.850000*%
%ADD47RoundRect,0.250001X0.462499X0.624999X-0.462499X0.624999X-0.462499X-0.624999X0.462499X-0.624999X0*%
%ADD48RoundRect,0.140000X0.170000X-0.140000X0.170000X0.140000X-0.170000X0.140000X-0.170000X-0.140000X0*%
%ADD49R,0.700000X1.300000*%
%ADD50R,1.200000X2.000000*%
%ADD51R,1.200000X1.400000*%
%ADD52RoundRect,0.150000X-0.825000X-0.150000X0.825000X-0.150000X0.825000X0.150000X-0.825000X0.150000X0*%
%ADD53RoundRect,0.140000X-0.140000X-0.170000X0.140000X-0.170000X0.140000X0.170000X-0.140000X0.170000X0*%
%ADD54RoundRect,0.150000X0.150000X-0.587500X0.150000X0.587500X-0.150000X0.587500X-0.150000X-0.587500X0*%
%ADD55RoundRect,0.250000X0.300000X0.300000X-0.300000X0.300000X-0.300000X-0.300000X0.300000X-0.300000X0*%
%ADD56RoundRect,0.250000X-0.300000X0.300000X-0.300000X-0.300000X0.300000X-0.300000X0.300000X0.300000X0*%
%ADD57RoundRect,0.135000X-0.135000X-0.185000X0.135000X-0.185000X0.135000X0.185000X-0.135000X0.185000X0*%
%ADD58RoundRect,0.250000X-0.400000X-1.450000X0.400000X-1.450000X0.400000X1.450000X-0.400000X1.450000X0*%
G04 APERTURE END LIST*
D10*
X144485000Y-101245000D02*
X145755000Y-101245000D01*
X145755000Y-106680000D01*
X144485000Y-106680000D01*
X144485000Y-101245000D01*
X143215000Y-101245000D02*
X144485000Y-101245000D01*
X144485000Y-106680000D01*
X143215000Y-106680000D01*
X143215000Y-101245000D01*
D11*
X109300000Y-88950000D02*
X110940000Y-88950000D01*
X110940000Y-91860000D01*
X109300000Y-91860000D01*
X109300000Y-88950000D01*
D10*
X140675000Y-101245000D02*
X143215000Y-101245000D01*
X143215000Y-106680000D01*
X140675000Y-106680000D01*
X140675000Y-101245000D01*
X139405000Y-101245000D02*
X140675000Y-101245000D01*
X140675000Y-106680000D01*
X139405000Y-106680000D01*
X139405000Y-101245000D01*
X141945000Y-101245000D02*
X141945000Y-103785000D01*
D11*
X140425394Y-105836767D02*
X140425394Y-105341529D01*
X140425394Y-105341529D02*
X140120632Y-105608195D01*
X140120632Y-105608195D02*
X140120632Y-105493910D01*
X140120632Y-105493910D02*
X140082537Y-105417719D01*
X140082537Y-105417719D02*
X140044442Y-105379624D01*
X140044442Y-105379624D02*
X139968251Y-105341529D01*
X139968251Y-105341529D02*
X139777775Y-105341529D01*
X139777775Y-105341529D02*
X139701585Y-105379624D01*
X139701585Y-105379624D02*
X139663490Y-105417719D01*
X139663490Y-105417719D02*
X139625394Y-105493910D01*
X139625394Y-105493910D02*
X139625394Y-105722481D01*
X139625394Y-105722481D02*
X139663490Y-105798672D01*
X139663490Y-105798672D02*
X139701585Y-105836767D01*
X140158728Y-105074862D02*
X139625394Y-104884386D01*
X139625394Y-104884386D02*
X140158728Y-104693909D01*
X140425394Y-104465338D02*
X140425394Y-103970100D01*
X140425394Y-103970100D02*
X140120632Y-104236766D01*
X140120632Y-104236766D02*
X140120632Y-104122481D01*
X140120632Y-104122481D02*
X140082537Y-104046290D01*
X140082537Y-104046290D02*
X140044442Y-104008195D01*
X140044442Y-104008195D02*
X139968251Y-103970100D01*
X139968251Y-103970100D02*
X139777775Y-103970100D01*
X139777775Y-103970100D02*
X139701585Y-104008195D01*
X139701585Y-104008195D02*
X139663490Y-104046290D01*
X139663490Y-104046290D02*
X139625394Y-104122481D01*
X139625394Y-104122481D02*
X139625394Y-104351052D01*
X139625394Y-104351052D02*
X139663490Y-104427243D01*
X139663490Y-104427243D02*
X139701585Y-104465338D01*
X141301906Y-99904386D02*
X140801906Y-99904386D01*
X140801906Y-99904386D02*
X140701906Y-99937719D01*
X140701906Y-99937719D02*
X140635240Y-100004386D01*
X140635240Y-100004386D02*
X140601906Y-100104386D01*
X140601906Y-100104386D02*
X140601906Y-100171053D01*
X140601906Y-99571053D02*
X141301906Y-99571053D01*
X141301906Y-99571053D02*
X141301906Y-99304386D01*
X141301906Y-99304386D02*
X141268573Y-99237720D01*
X141268573Y-99237720D02*
X141235240Y-99204386D01*
X141235240Y-99204386D02*
X141168573Y-99171053D01*
X141168573Y-99171053D02*
X141068573Y-99171053D01*
X141068573Y-99171053D02*
X141001906Y-99204386D01*
X141001906Y-99204386D02*
X140968573Y-99237720D01*
X140968573Y-99237720D02*
X140935240Y-99304386D01*
X140935240Y-99304386D02*
X140935240Y-99571053D01*
X141235240Y-98904386D02*
X141268573Y-98871053D01*
X141268573Y-98871053D02*
X141301906Y-98804386D01*
X141301906Y-98804386D02*
X141301906Y-98637720D01*
X141301906Y-98637720D02*
X141268573Y-98571053D01*
X141268573Y-98571053D02*
X141235240Y-98537720D01*
X141235240Y-98537720D02*
X141168573Y-98504386D01*
X141168573Y-98504386D02*
X141101906Y-98504386D01*
X141101906Y-98504386D02*
X141001906Y-98537720D01*
X141001906Y-98537720D02*
X140601906Y-98937720D01*
X140601906Y-98937720D02*
X140601906Y-98504386D01*
D12*
X158960761Y-108300576D02*
X156960761Y-107633910D01*
X156960761Y-107633910D02*
X158960761Y-106967243D01*
X156960761Y-106300576D02*
X158960761Y-106300576D01*
X158960761Y-106300576D02*
X158960761Y-105824386D01*
X158960761Y-105824386D02*
X158865523Y-105538671D01*
X158865523Y-105538671D02*
X158675047Y-105348195D01*
X158675047Y-105348195D02*
X158484571Y-105252957D01*
X158484571Y-105252957D02*
X158103619Y-105157719D01*
X158103619Y-105157719D02*
X157817904Y-105157719D01*
X157817904Y-105157719D02*
X157436952Y-105252957D01*
X157436952Y-105252957D02*
X157246476Y-105348195D01*
X157246476Y-105348195D02*
X157056000Y-105538671D01*
X157056000Y-105538671D02*
X156960761Y-105824386D01*
X156960761Y-105824386D02*
X156960761Y-106300576D01*
X156960761Y-104300576D02*
X158960761Y-104300576D01*
X158960761Y-104300576D02*
X158960761Y-103824386D01*
X158960761Y-103824386D02*
X158865523Y-103538671D01*
X158865523Y-103538671D02*
X158675047Y-103348195D01*
X158675047Y-103348195D02*
X158484571Y-103252957D01*
X158484571Y-103252957D02*
X158103619Y-103157719D01*
X158103619Y-103157719D02*
X157817904Y-103157719D01*
X157817904Y-103157719D02*
X157436952Y-103252957D01*
X157436952Y-103252957D02*
X157246476Y-103348195D01*
X157246476Y-103348195D02*
X157056000Y-103538671D01*
X157056000Y-103538671D02*
X156960761Y-103824386D01*
X156960761Y-103824386D02*
X156960761Y-104300576D01*
D10*
G36*
X141885000Y-97915191D02*
G01*
X141885000Y-98031475D01*
X142581165Y-98031475D01*
X142575229Y-98040597D01*
X142569676Y-98050321D01*
X142564506Y-98060649D01*
X142559719Y-98071579D01*
X142555315Y-98083111D01*
X142551294Y-98095247D01*
X142547655Y-98107985D01*
X142544400Y-98121326D01*
X142541528Y-98135270D01*
X142539039Y-98149817D01*
X142536932Y-98164966D01*
X142535209Y-98180718D01*
X142533869Y-98197074D01*
X142532911Y-98214031D01*
X142532337Y-98231592D01*
X142532193Y-98240598D01*
X142532145Y-98249755D01*
X142630624Y-98249755D01*
X142630789Y-98236593D01*
X142631284Y-98223786D01*
X142632108Y-98211334D01*
X142633262Y-98199238D01*
X142634746Y-98187498D01*
X142636559Y-98176113D01*
X142638702Y-98165083D01*
X142641175Y-98154409D01*
X142643978Y-98144090D01*
X142647110Y-98134127D01*
X142650573Y-98124520D01*
X142654364Y-98115268D01*
X142658486Y-98106371D01*
X142662937Y-98097830D01*
X142667718Y-98089644D01*
X142672829Y-98081814D01*
X142678270Y-98074339D01*
X142684040Y-98067220D01*
X142690140Y-98060456D01*
X142696570Y-98054048D01*
X142703329Y-98047995D01*
X142710418Y-98042298D01*
X142717837Y-98036956D01*
X142725586Y-98031970D01*
X142733664Y-98027339D01*
X142742072Y-98023064D01*
X142750810Y-98019144D01*
X142759877Y-98015580D01*
X142769275Y-98012371D01*
X142779002Y-98009518D01*
X142789058Y-98007020D01*
X142799445Y-98004877D01*
X142799445Y-97915191D01*
X141885000Y-97915191D01*
G37*
G36*
X144799513Y-97742922D02*
G01*
X144827247Y-97743788D01*
X144854072Y-97745230D01*
X144879988Y-97747250D01*
X144904995Y-97749847D01*
X144929092Y-97753020D01*
X144952280Y-97756771D01*
X144974558Y-97761099D01*
X144995928Y-97766003D01*
X145016387Y-97771485D01*
X145035938Y-97777544D01*
X145054579Y-97784180D01*
X145072311Y-97791392D01*
X145089134Y-97799182D01*
X145105047Y-97807549D01*
X145120051Y-97816493D01*
X145134145Y-97826014D01*
X145147331Y-97836112D01*
X145159607Y-97846787D01*
X145170973Y-97858039D01*
X145181430Y-97869868D01*
X145190978Y-97882274D01*
X145199617Y-97895257D01*
X145207346Y-97908817D01*
X145214166Y-97922954D01*
X145220077Y-97937668D01*
X145225078Y-97952959D01*
X145229170Y-97968827D01*
X145232353Y-97985272D01*
X145234626Y-98002295D01*
X145235990Y-98019894D01*
X145236445Y-98038070D01*
X145235990Y-98056219D01*
X145234626Y-98073792D01*
X145232353Y-98090789D01*
X145229170Y-98107210D01*
X145225078Y-98123054D01*
X145220077Y-98138323D01*
X145214166Y-98153015D01*
X145207346Y-98167131D01*
X145199617Y-98180671D01*
X145190978Y-98193635D01*
X145181430Y-98206022D01*
X145170973Y-98217833D01*
X145159607Y-98229069D01*
X145147331Y-98239728D01*
X145134145Y-98249811D01*
X145120051Y-98259317D01*
X145105047Y-98268248D01*
X145089134Y-98276602D01*
X145072311Y-98284381D01*
X145054579Y-98291583D01*
X145035938Y-98298209D01*
X145016387Y-98304258D01*
X144995928Y-98309732D01*
X144974558Y-98314629D01*
X144952280Y-98318950D01*
X144929092Y-98322696D01*
X144904995Y-98325864D01*
X144879988Y-98328457D01*
X144854072Y-98330474D01*
X144827247Y-98331914D01*
X144799513Y-98332778D01*
X144770869Y-98333066D01*
X144742387Y-98332778D01*
X144714810Y-98331914D01*
X144688137Y-98330474D01*
X144662368Y-98328457D01*
X144637503Y-98325864D01*
X144613542Y-98322696D01*
X144590486Y-98318950D01*
X144568334Y-98314629D01*
X144547086Y-98309732D01*
X144526742Y-98304258D01*
X144507302Y-98298209D01*
X144488766Y-98291583D01*
X144471135Y-98284381D01*
X144454408Y-98276602D01*
X144438584Y-98268248D01*
X144423666Y-98259317D01*
X144409651Y-98249811D01*
X144396540Y-98239728D01*
X144384334Y-98229069D01*
X144373032Y-98217833D01*
X144362634Y-98206022D01*
X144353140Y-98193635D01*
X144344550Y-98180671D01*
X144336865Y-98167131D01*
X144330083Y-98153015D01*
X144324206Y-98138323D01*
X144319233Y-98123054D01*
X144315165Y-98107210D01*
X144312000Y-98090789D01*
X144309739Y-98073792D01*
X144308383Y-98056219D01*
X144307936Y-98038290D01*
X144406410Y-98038290D01*
X144406723Y-98048792D01*
X144407663Y-98058977D01*
X144409231Y-98068844D01*
X144411424Y-98078393D01*
X144414245Y-98087624D01*
X144417693Y-98096538D01*
X144421767Y-98105134D01*
X144426468Y-98113413D01*
X144431796Y-98121373D01*
X144437751Y-98129016D01*
X144444333Y-98136342D01*
X144451541Y-98143349D01*
X144459377Y-98150039D01*
X144467839Y-98156411D01*
X144476928Y-98162466D01*
X144486644Y-98168203D01*
X144491793Y-98170934D01*
X144502814Y-98176138D01*
X144514801Y-98180995D01*
X144527754Y-98185504D01*
X144541671Y-98189667D01*
X144556553Y-98193483D01*
X144572401Y-98196952D01*
X144589213Y-98200074D01*
X144597982Y-98201505D01*
X144606991Y-98202849D01*
X144616242Y-98204107D01*
X144625734Y-98205278D01*
X144635468Y-98206362D01*
X144645442Y-98207359D01*
X144655658Y-98208270D01*
X144666116Y-98209094D01*
X144676814Y-98209831D01*
X144687754Y-98210481D01*
X144698935Y-98211045D01*
X144710358Y-98211522D01*
X144722021Y-98211912D01*
X144733926Y-98212216D01*
X144746072Y-98212432D01*
X144758460Y-98212563D01*
X144771089Y-98212606D01*
X144783745Y-98212563D01*
X144796161Y-98212432D01*
X144808336Y-98212216D01*
X144820270Y-98211912D01*
X144831963Y-98211522D01*
X144843415Y-98211045D01*
X144854627Y-98210481D01*
X144865597Y-98209831D01*
X144876327Y-98209094D01*
X144886816Y-98208270D01*
X144897064Y-98207359D01*
X144907071Y-98206362D01*
X144916837Y-98205278D01*
X144926362Y-98204107D01*
X144935647Y-98202849D01*
X144944691Y-98201505D01*
X144962055Y-98198556D01*
X144978457Y-98195261D01*
X144993895Y-98191618D01*
X145008369Y-98187629D01*
X145021880Y-98183293D01*
X145034428Y-98178610D01*
X145046012Y-98173580D01*
X145056633Y-98168203D01*
X145066482Y-98162466D01*
X145075696Y-98156411D01*
X145084274Y-98150039D01*
X145092216Y-98143349D01*
X145099524Y-98136342D01*
X145106195Y-98129016D01*
X145112232Y-98121373D01*
X145117633Y-98113413D01*
X145122398Y-98105134D01*
X145126529Y-98096538D01*
X145130023Y-98087624D01*
X145132883Y-98078393D01*
X145135107Y-98068844D01*
X145136695Y-98058977D01*
X145137648Y-98048792D01*
X145137966Y-98038290D01*
X145137648Y-98027708D01*
X145136695Y-98017452D01*
X145135107Y-98007519D01*
X145132883Y-97997912D01*
X145130023Y-97988629D01*
X145126529Y-97979670D01*
X145122398Y-97971036D01*
X145117633Y-97962727D01*
X145112232Y-97954742D01*
X145106195Y-97947082D01*
X145099524Y-97939747D01*
X145092216Y-97932736D01*
X145084274Y-97926049D01*
X145075696Y-97919687D01*
X145066482Y-97913650D01*
X145056633Y-97907937D01*
X145051443Y-97905192D01*
X145040341Y-97899963D01*
X145028275Y-97895082D01*
X145015245Y-97890550D01*
X145001252Y-97886367D01*
X144986296Y-97882532D01*
X144970376Y-97879046D01*
X144953493Y-97875908D01*
X144944691Y-97874470D01*
X144935647Y-97873119D01*
X144926362Y-97871855D01*
X144916837Y-97870679D01*
X144907071Y-97869589D01*
X144897064Y-97868587D01*
X144886816Y-97867672D01*
X144876327Y-97866844D01*
X144865597Y-97866103D01*
X144854627Y-97865450D01*
X144843415Y-97864883D01*
X144831963Y-97864404D01*
X144820270Y-97864011D01*
X144808336Y-97863706D01*
X144796161Y-97863489D01*
X144783745Y-97863358D01*
X144771089Y-97863314D01*
X144758460Y-97863358D01*
X144746072Y-97863489D01*
X144733926Y-97863706D01*
X144722021Y-97864011D01*
X144710358Y-97864404D01*
X144698935Y-97864883D01*
X144687754Y-97865450D01*
X144676814Y-97866103D01*
X144666116Y-97866844D01*
X144655658Y-97867672D01*
X144645442Y-97868587D01*
X144635468Y-97869589D01*
X144625734Y-97870679D01*
X144616242Y-97871855D01*
X144606991Y-97873119D01*
X144597982Y-97874470D01*
X144580686Y-97877433D01*
X144564356Y-97880745D01*
X144548991Y-97884406D01*
X144534592Y-97888415D01*
X144521157Y-97892772D01*
X144508687Y-97897479D01*
X144497183Y-97902534D01*
X144486644Y-97907937D01*
X144476928Y-97913650D01*
X144467839Y-97919687D01*
X144459377Y-97926049D01*
X144451541Y-97932736D01*
X144444333Y-97939747D01*
X144437751Y-97947082D01*
X144431796Y-97954742D01*
X144426468Y-97962727D01*
X144421767Y-97971036D01*
X144417693Y-97979670D01*
X144414245Y-97988629D01*
X144411424Y-97997912D01*
X144409231Y-98007519D01*
X144407663Y-98017452D01*
X144406723Y-98027708D01*
X144406410Y-98038290D01*
X144307936Y-98038290D01*
X144307931Y-98038070D01*
X144308383Y-98019894D01*
X144309739Y-98002295D01*
X144312000Y-97985272D01*
X144315165Y-97968827D01*
X144319233Y-97952959D01*
X144324206Y-97937668D01*
X144330083Y-97922954D01*
X144336865Y-97908817D01*
X144344550Y-97895257D01*
X144353140Y-97882274D01*
X144362634Y-97869868D01*
X144373032Y-97858039D01*
X144384334Y-97846787D01*
X144396540Y-97836112D01*
X144409651Y-97826014D01*
X144423666Y-97816493D01*
X144438584Y-97807549D01*
X144454408Y-97799182D01*
X144471135Y-97791392D01*
X144488766Y-97784180D01*
X144507302Y-97777544D01*
X144526742Y-97771485D01*
X144547086Y-97766003D01*
X144568334Y-97761099D01*
X144590486Y-97756771D01*
X144613542Y-97753020D01*
X144637503Y-97749847D01*
X144662368Y-97747250D01*
X144688137Y-97745230D01*
X144714810Y-97743788D01*
X144742387Y-97742922D01*
X144770869Y-97742634D01*
X144799513Y-97742922D01*
G37*
D12*
X155960761Y-99963910D02*
X155960761Y-99582957D01*
X155960761Y-99582957D02*
X155865523Y-99392481D01*
X155865523Y-99392481D02*
X155675047Y-99202005D01*
X155675047Y-99202005D02*
X155294095Y-99106767D01*
X155294095Y-99106767D02*
X154627428Y-99106767D01*
X154627428Y-99106767D02*
X154246476Y-99202005D01*
X154246476Y-99202005D02*
X154056000Y-99392481D01*
X154056000Y-99392481D02*
X153960761Y-99582957D01*
X153960761Y-99582957D02*
X153960761Y-99963910D01*
X153960761Y-99963910D02*
X154056000Y-100154386D01*
X154056000Y-100154386D02*
X154246476Y-100344862D01*
X154246476Y-100344862D02*
X154627428Y-100440100D01*
X154627428Y-100440100D02*
X155294095Y-100440100D01*
X155294095Y-100440100D02*
X155675047Y-100344862D01*
X155675047Y-100344862D02*
X155865523Y-100154386D01*
X155865523Y-100154386D02*
X155960761Y-99963910D01*
X155960761Y-98249624D02*
X154341714Y-98249624D01*
X154341714Y-98249624D02*
X154151238Y-98154386D01*
X154151238Y-98154386D02*
X154056000Y-98059148D01*
X154056000Y-98059148D02*
X153960761Y-97868672D01*
X153960761Y-97868672D02*
X153960761Y-97487719D01*
X153960761Y-97487719D02*
X154056000Y-97297243D01*
X154056000Y-97297243D02*
X154151238Y-97202005D01*
X154151238Y-97202005D02*
X154341714Y-97106767D01*
X154341714Y-97106767D02*
X155960761Y-97106767D01*
X155960761Y-96440100D02*
X155960761Y-95297243D01*
X153960761Y-95868672D02*
X155960761Y-95868672D01*
D11*
G36*
X142705310Y-105816505D02*
G01*
X142720035Y-105816322D01*
X142734314Y-105815772D01*
X142748147Y-105814856D01*
X142761535Y-105813574D01*
X142774477Y-105811925D01*
X142786973Y-105809910D01*
X142799023Y-105807529D01*
X142810628Y-105804781D01*
X142821786Y-105801667D01*
X142832500Y-105798187D01*
X142842767Y-105794340D01*
X142852588Y-105790127D01*
X142861964Y-105785547D01*
X142870894Y-105780601D01*
X142879379Y-105775289D01*
X142887418Y-105769610D01*
X142895010Y-105763565D01*
X142902158Y-105757154D01*
X142908859Y-105750376D01*
X142915115Y-105743232D01*
X142920925Y-105735721D01*
X142926289Y-105727845D01*
X142931207Y-105719601D01*
X142935680Y-105710992D01*
X142939707Y-105702016D01*
X142943288Y-105692674D01*
X142946424Y-105682965D01*
X142949113Y-105672890D01*
X142951357Y-105662449D01*
X142953155Y-105651641D01*
X142954508Y-105640467D01*
X142955415Y-105628926D01*
X142851465Y-105628926D01*
X142850761Y-105641041D01*
X142848943Y-105652374D01*
X142846011Y-105662925D01*
X142841964Y-105672695D01*
X142836803Y-105681683D01*
X142830527Y-105689889D01*
X142823137Y-105697314D01*
X142814633Y-105703958D01*
X142805015Y-105709819D01*
X142794282Y-105714900D01*
X142782434Y-105719198D01*
X142769473Y-105722715D01*
X142755397Y-105725451D01*
X142740206Y-105727405D01*
X142732193Y-105728089D01*
X142723901Y-105728577D01*
X142715331Y-105728870D01*
X142706482Y-105728968D01*
X142698566Y-105728870D01*
X142687138Y-105728357D01*
X142676245Y-105727405D01*
X142665888Y-105726013D01*
X142656068Y-105724181D01*
X142646783Y-105721909D01*
X142638033Y-105719198D01*
X142629820Y-105716048D01*
X142622142Y-105712457D01*
X142615000Y-105708427D01*
X142608394Y-105703958D01*
X142600472Y-105697461D01*
X142593606Y-105690573D01*
X142587796Y-105683295D01*
X142583042Y-105675625D01*
X142579345Y-105667565D01*
X142576704Y-105659115D01*
X142575119Y-105650273D01*
X142574591Y-105641041D01*
X142575107Y-105631491D01*
X142576655Y-105622674D01*
X142579235Y-105614589D01*
X142582847Y-105607237D01*
X142587490Y-105600618D01*
X142593166Y-105594732D01*
X142599873Y-105589579D01*
X142607613Y-105585158D01*
X142616919Y-105580905D01*
X142625340Y-105577519D01*
X142634999Y-105573965D01*
X142645893Y-105570242D01*
X142653843Y-105567667D01*
X142662343Y-105565017D01*
X142671392Y-105562292D01*
X142680991Y-105559492D01*
X142691139Y-105556618D01*
X142701837Y-105553669D01*
X142713085Y-105550645D01*
X142724882Y-105547546D01*
X142737228Y-105544372D01*
X142743607Y-105542757D01*
X142756262Y-105539486D01*
X142768483Y-105536169D01*
X142780271Y-105532806D01*
X142791625Y-105529397D01*
X142802546Y-105525943D01*
X142813033Y-105522442D01*
X142823087Y-105518896D01*
X142832707Y-105515304D01*
X142841894Y-105511667D01*
X142850647Y-105507983D01*
X142858966Y-105504254D01*
X142866852Y-105500479D01*
X142874305Y-105496658D01*
X142881324Y-105492791D01*
X142891039Y-105486905D01*
X142894061Y-105484921D01*
X142902546Y-105478485D01*
X142910197Y-105471193D01*
X142917013Y-105463047D01*
X142922995Y-105454045D01*
X142928141Y-105444188D01*
X142932454Y-105433476D01*
X142934865Y-105425860D01*
X142936905Y-105417863D01*
X142938574Y-105409486D01*
X142939872Y-105400729D01*
X142940800Y-105391592D01*
X142941356Y-105382075D01*
X142941542Y-105372178D01*
X142941311Y-105363166D01*
X142940620Y-105354351D01*
X142939467Y-105345734D01*
X142937854Y-105337312D01*
X142935779Y-105329088D01*
X142933244Y-105321061D01*
X142930247Y-105313231D01*
X142926789Y-105305598D01*
X142922871Y-105298161D01*
X142918491Y-105290922D01*
X142913651Y-105283879D01*
X142908349Y-105277033D01*
X142902587Y-105270385D01*
X142896363Y-105263933D01*
X142889678Y-105257678D01*
X142882533Y-105251620D01*
X142874977Y-105245823D01*
X142867112Y-105240400D01*
X142858936Y-105235351D01*
X142850451Y-105230676D01*
X142841656Y-105226375D01*
X142832551Y-105222448D01*
X142823137Y-105218895D01*
X142813412Y-105215716D01*
X142803377Y-105212911D01*
X142793033Y-105210480D01*
X142782379Y-105208423D01*
X142771414Y-105206740D01*
X142760140Y-105205431D01*
X142748556Y-105204496D01*
X142736662Y-105203935D01*
X142724459Y-105203748D01*
X142710353Y-105203907D01*
X142696685Y-105204383D01*
X142683456Y-105205177D01*
X142670664Y-105206288D01*
X142658311Y-105207717D01*
X142646396Y-105209464D01*
X142634918Y-105211527D01*
X142623879Y-105213909D01*
X142613279Y-105216608D01*
X142603116Y-105219624D01*
X142593391Y-105222958D01*
X142584105Y-105226609D01*
X142575256Y-105230578D01*
X142566846Y-105234865D01*
X142558873Y-105239469D01*
X142551339Y-105244390D01*
X142544243Y-105249629D01*
X142537585Y-105255186D01*
X142531366Y-105261060D01*
X142525584Y-105267251D01*
X142520240Y-105273760D01*
X142515335Y-105280587D01*
X142510868Y-105287731D01*
X142506838Y-105295193D01*
X142503247Y-105302972D01*
X142500094Y-105311069D01*
X142497379Y-105319483D01*
X142495102Y-105328214D01*
X142493264Y-105337264D01*
X142491863Y-105346630D01*
X142490901Y-105356315D01*
X142490376Y-105366316D01*
X142593740Y-105366316D01*
X142594864Y-105357230D01*
X142596869Y-105348731D01*
X142599755Y-105340817D01*
X142603522Y-105333490D01*
X142608169Y-105326749D01*
X142613698Y-105320594D01*
X142620107Y-105315025D01*
X142627397Y-105310043D01*
X142635567Y-105305646D01*
X142644619Y-105301836D01*
X142654551Y-105298612D01*
X142665364Y-105295974D01*
X142677058Y-105293923D01*
X142689633Y-105292457D01*
X142703088Y-105291578D01*
X142717424Y-105291285D01*
X142727050Y-105291446D01*
X142736363Y-105291931D01*
X142745364Y-105292738D01*
X142754052Y-105293868D01*
X142762427Y-105295321D01*
X142770490Y-105297096D01*
X142778240Y-105299195D01*
X142785678Y-105301616D01*
X142795109Y-105305347D01*
X142803984Y-105309652D01*
X142812044Y-105314457D01*
X142819030Y-105319788D01*
X142824940Y-105325644D01*
X142829776Y-105332025D01*
X142833538Y-105338931D01*
X142836224Y-105346362D01*
X142837836Y-105354318D01*
X142838374Y-105362799D01*
X142837961Y-105371052D01*
X142836287Y-105380534D01*
X142833325Y-105389091D01*
X142829074Y-105396723D01*
X142823536Y-105403429D01*
X142816709Y-105409210D01*
X142811995Y-105412234D01*
X142804161Y-105416206D01*
X142796659Y-105419397D01*
X142787762Y-105422771D01*
X142777470Y-105426326D01*
X142769835Y-105428798D01*
X142761579Y-105431350D01*
X142752704Y-105433983D01*
X142743209Y-105436697D01*
X142733095Y-105439492D01*
X142722360Y-105442368D01*
X142711006Y-105445325D01*
X142699032Y-105448363D01*
X142686438Y-105451482D01*
X142679909Y-105453071D01*
X142666884Y-105456305D01*
X142654285Y-105459608D01*
X142642111Y-105462979D01*
X142630364Y-105466419D01*
X142619043Y-105469928D01*
X142608147Y-105473505D01*
X142597678Y-105477151D01*
X142587634Y-105480866D01*
X142578016Y-105484650D01*
X142568824Y-105488502D01*
X142560058Y-105492423D01*
X142551718Y-105496412D01*
X142543804Y-105500471D01*
X142536315Y-105504597D01*
X142529253Y-105508793D01*
X142522616Y-105513057D01*
X142513433Y-105519905D01*
X142505152Y-105527625D01*
X142497775Y-105536217D01*
X142491301Y-105545682D01*
X142485731Y-105556019D01*
X142482519Y-105563395D01*
X142479709Y-105571159D01*
X142477300Y-105579311D01*
X142475293Y-105587850D01*
X142473687Y-105596777D01*
X142472482Y-105606092D01*
X142471679Y-105615795D01*
X142471278Y-105625885D01*
X142471228Y-105631076D01*
X142471476Y-105640983D01*
X142472220Y-105650676D01*
X142473460Y-105660156D01*
X142475197Y-105669422D01*
X142477429Y-105678474D01*
X142480158Y-105687312D01*
X142483383Y-105695937D01*
X142487103Y-105704348D01*
X142491320Y-105712546D01*
X142496034Y-105720530D01*
X142501243Y-105728299D01*
X142506948Y-105735856D01*
X142513150Y-105743198D01*
X142519847Y-105750327D01*
X142527041Y-105757242D01*
X142534731Y-105763944D01*
X142542839Y-105770308D01*
X142551287Y-105776263D01*
X142560076Y-105781806D01*
X142569206Y-105786939D01*
X142578675Y-105791661D01*
X142588486Y-105795973D01*
X142598636Y-105799874D01*
X142609127Y-105803364D01*
X142619959Y-105806444D01*
X142631130Y-105809113D01*
X142642643Y-105811372D01*
X142654495Y-105813220D01*
X142666688Y-105814657D01*
X142679222Y-105815683D01*
X142692096Y-105816299D01*
X142705310Y-105816505D01*
G37*
G36*
X142132648Y-105204067D02*
G01*
X142147368Y-105205021D01*
X142161725Y-105206613D01*
X142175718Y-105208841D01*
X142189349Y-105211705D01*
X142202616Y-105215206D01*
X142215519Y-105219344D01*
X142228060Y-105224118D01*
X142240237Y-105229529D01*
X142252050Y-105235576D01*
X142263501Y-105242260D01*
X142274588Y-105249580D01*
X142285312Y-105257537D01*
X142295672Y-105266131D01*
X142305669Y-105275361D01*
X142315303Y-105285228D01*
X142319943Y-105290369D01*
X142328782Y-105301016D01*
X142337031Y-105312151D01*
X142344691Y-105323772D01*
X142351762Y-105335880D01*
X142358244Y-105348476D01*
X142364136Y-105361558D01*
X142369439Y-105375127D01*
X142374153Y-105389183D01*
X142378278Y-105403726D01*
X142381813Y-105418757D01*
X142383360Y-105426454D01*
X142384759Y-105434274D01*
X142386011Y-105442215D01*
X142387116Y-105450278D01*
X142388074Y-105458462D01*
X142388884Y-105466769D01*
X142389547Y-105475197D01*
X142390062Y-105483747D01*
X142390431Y-105492418D01*
X142390652Y-105501211D01*
X142390725Y-105510127D01*
X142390649Y-105519101D01*
X142390421Y-105527952D01*
X142390040Y-105536678D01*
X142389507Y-105545279D01*
X142388822Y-105553756D01*
X142387984Y-105562109D01*
X142386995Y-105570337D01*
X142385853Y-105578441D01*
X142384558Y-105586421D01*
X142383112Y-105594276D01*
X142379762Y-105609613D01*
X142375803Y-105624452D01*
X142371235Y-105638794D01*
X142366057Y-105652638D01*
X142360271Y-105665984D01*
X142353876Y-105678833D01*
X142346871Y-105691184D01*
X142339258Y-105703037D01*
X142331035Y-105714393D01*
X142322204Y-105725251D01*
X142312763Y-105735612D01*
X142302796Y-105745407D01*
X142292436Y-105754571D01*
X142281682Y-105763103D01*
X142270533Y-105771002D01*
X142258991Y-105778270D01*
X142247056Y-105784906D01*
X142234726Y-105790910D01*
X142222002Y-105796281D01*
X142208885Y-105801021D01*
X142195374Y-105805129D01*
X142181469Y-105808605D01*
X142167170Y-105811449D01*
X142152477Y-105813661D01*
X142137390Y-105815241D01*
X142121910Y-105816189D01*
X142114022Y-105816426D01*
X142106036Y-105816505D01*
X142093650Y-105816314D01*
X142081505Y-105815741D01*
X142069599Y-105814787D01*
X142057932Y-105813452D01*
X142046505Y-105811734D01*
X142035318Y-105809635D01*
X142024371Y-105807155D01*
X142013663Y-105804293D01*
X142003195Y-105801049D01*
X141992967Y-105797423D01*
X141982978Y-105793416D01*
X141973229Y-105789027D01*
X141963719Y-105784257D01*
X141954450Y-105779105D01*
X141945419Y-105773571D01*
X141936629Y-105767656D01*
X141928158Y-105761390D01*
X141920136Y-105754803D01*
X141912563Y-105747895D01*
X141905439Y-105740667D01*
X141898764Y-105733119D01*
X141892537Y-105725250D01*
X141886759Y-105717060D01*
X141881430Y-105708549D01*
X141876550Y-105699718D01*
X141872118Y-105690567D01*
X141868136Y-105681095D01*
X141864602Y-105671302D01*
X141861517Y-105661189D01*
X141858880Y-105650755D01*
X141856693Y-105640001D01*
X141854954Y-105628926D01*
X141962226Y-105628926D01*
X141962657Y-105634825D01*
X141963913Y-105643357D01*
X141965901Y-105651506D01*
X141968621Y-105659275D01*
X141972072Y-105666663D01*
X141976255Y-105673669D01*
X141981170Y-105680294D01*
X141986816Y-105686537D01*
X141993193Y-105692400D01*
X142000302Y-105697881D01*
X142008143Y-105702981D01*
X142013633Y-105706128D01*
X142022027Y-105710467D01*
X142030614Y-105714350D01*
X142039393Y-105717776D01*
X142048364Y-105720746D01*
X142057528Y-105723258D01*
X142066884Y-105725314D01*
X142076432Y-105726912D01*
X142086173Y-105728054D01*
X142096106Y-105728740D01*
X142106231Y-105728968D01*
X142115131Y-105728788D01*
X142123853Y-105728248D01*
X142132399Y-105727347D01*
X142140767Y-105726086D01*
X142148958Y-105724465D01*
X142156973Y-105722483D01*
X142164810Y-105720142D01*
X142172470Y-105717440D01*
X142179953Y-105714378D01*
X142187259Y-105710955D01*
X142194388Y-105707172D01*
X142201339Y-105703030D01*
X142208114Y-105698526D01*
X142214712Y-105693663D01*
X142221132Y-105688439D01*
X142227376Y-105682855D01*
X142233341Y-105676899D01*
X142238974Y-105670557D01*
X142244276Y-105663832D01*
X142249248Y-105656721D01*
X142253887Y-105649226D01*
X142258196Y-105641346D01*
X142262173Y-105633081D01*
X142265819Y-105624432D01*
X142269134Y-105615398D01*
X142272118Y-105605980D01*
X142274770Y-105596176D01*
X142277091Y-105585988D01*
X142279081Y-105575416D01*
X142280740Y-105564458D01*
X142282067Y-105553116D01*
X142283063Y-105541390D01*
X141844012Y-105541390D01*
X141844012Y-105515988D01*
X141844085Y-105506736D01*
X141844303Y-105497617D01*
X141844666Y-105488629D01*
X141845175Y-105479773D01*
X141845830Y-105471050D01*
X141846629Y-105462458D01*
X141847574Y-105453998D01*
X141847593Y-105453853D01*
X141953433Y-105453853D01*
X142280914Y-105453853D01*
X142280125Y-105448765D01*
X142278359Y-105438833D01*
X142276341Y-105429228D01*
X142274071Y-105419950D01*
X142271549Y-105410999D01*
X142268775Y-105402374D01*
X142265750Y-105394076D01*
X142262472Y-105386104D01*
X142258943Y-105378459D01*
X142255162Y-105371141D01*
X142251129Y-105364150D01*
X142246844Y-105357485D01*
X142239944Y-105348100D01*
X142232478Y-105339451D01*
X142224445Y-105331536D01*
X142218807Y-105326662D01*
X142210094Y-105319940D01*
X142201071Y-105313926D01*
X142191739Y-105308620D01*
X142182098Y-105304021D01*
X142172147Y-105300129D01*
X142161888Y-105296945D01*
X142151320Y-105294469D01*
X142140442Y-105292700D01*
X142129255Y-105291639D01*
X142117759Y-105291285D01*
X142109874Y-105291444D01*
X142098335Y-105292277D01*
X142087144Y-105293825D01*
X142076299Y-105296087D01*
X142065801Y-105299064D01*
X142055649Y-105302755D01*
X142045845Y-105307161D01*
X142036388Y-105312281D01*
X142027277Y-105318115D01*
X142018514Y-105324664D01*
X142010097Y-105331927D01*
X142004724Y-105337143D01*
X141997122Y-105345568D01*
X141990069Y-105354715D01*
X141985673Y-105361213D01*
X141981521Y-105368032D01*
X141977613Y-105375172D01*
X141973949Y-105382632D01*
X141970530Y-105390412D01*
X141967355Y-105398514D01*
X141964424Y-105406935D01*
X141961737Y-105415678D01*
X141959295Y-105424741D01*
X141957096Y-105434124D01*
X141955143Y-105443828D01*
X141953433Y-105453853D01*
X141847593Y-105453853D01*
X141848665Y-105445671D01*
X141849901Y-105437475D01*
X141851282Y-105429412D01*
X141852809Y-105421480D01*
X141854481Y-105413681D01*
X141858261Y-105398479D01*
X141862623Y-105383804D01*
X141867567Y-105369658D01*
X141873092Y-105356040D01*
X141879199Y-105342950D01*
X141885887Y-105330388D01*
X141893158Y-105318355D01*
X141901009Y-105306849D01*
X141909442Y-105295872D01*
X141918457Y-105285423D01*
X141927959Y-105275533D01*
X141937853Y-105266281D01*
X141948140Y-105257666D01*
X141958818Y-105249690D01*
X141969889Y-105242352D01*
X141981353Y-105235653D01*
X141993209Y-105229591D01*
X142005457Y-105224167D01*
X142018097Y-105219381D01*
X142031130Y-105215234D01*
X142044555Y-105211724D01*
X142058372Y-105208853D01*
X142072581Y-105206620D01*
X142087183Y-105205024D01*
X142102178Y-105204067D01*
X142117564Y-105203748D01*
X142132648Y-105204067D01*
G37*
G36*
X141428213Y-105297928D02*
G01*
X141437100Y-105295671D01*
X141445544Y-105294146D01*
X141454933Y-105292946D01*
X141463125Y-105292219D01*
X141471920Y-105291700D01*
X141481321Y-105291389D01*
X141491325Y-105291285D01*
X141501129Y-105291621D01*
X141510758Y-105292628D01*
X141520211Y-105294307D01*
X141529488Y-105296658D01*
X141538590Y-105299681D01*
X141547517Y-105303375D01*
X141556267Y-105307741D01*
X141564842Y-105312778D01*
X141573242Y-105318487D01*
X141581466Y-105324868D01*
X141589515Y-105331921D01*
X141597388Y-105339645D01*
X141605085Y-105348041D01*
X141612607Y-105357108D01*
X141619954Y-105366848D01*
X141627124Y-105377258D01*
X141627124Y-105804000D01*
X141731074Y-105804000D01*
X141731074Y-105216254D01*
X141627124Y-105216254D01*
X141627124Y-105297538D01*
X141618861Y-105286180D01*
X141610437Y-105275556D01*
X141601850Y-105265664D01*
X141593101Y-105256505D01*
X141584191Y-105248078D01*
X141575119Y-105240385D01*
X141565885Y-105233424D01*
X141556489Y-105227196D01*
X141546932Y-105221700D01*
X141537213Y-105216937D01*
X141527331Y-105212907D01*
X141517288Y-105209610D01*
X141507084Y-105207046D01*
X141496717Y-105205214D01*
X141486189Y-105204115D01*
X141475498Y-105203748D01*
X141467109Y-105203879D01*
X141458499Y-105204270D01*
X141449670Y-105204923D01*
X141440621Y-105205837D01*
X141431352Y-105207011D01*
X141428213Y-105207461D01*
X141428213Y-105297928D01*
G37*
G36*
X140886775Y-105216254D02*
G01*
X141107180Y-105804000D01*
X141199406Y-105804000D01*
X141419811Y-105216254D01*
X141307655Y-105216254D01*
X141153293Y-105676016D01*
X140998932Y-105216254D01*
X140886775Y-105216254D01*
G37*
D12*
X158960761Y-100430576D02*
X156960761Y-99763910D01*
X156960761Y-99763910D02*
X158960761Y-99097243D01*
X156960761Y-98430576D02*
X158960761Y-98430576D01*
X158960761Y-98430576D02*
X158960761Y-97954386D01*
X158960761Y-97954386D02*
X158865523Y-97668671D01*
X158865523Y-97668671D02*
X158675047Y-97478195D01*
X158675047Y-97478195D02*
X158484571Y-97382957D01*
X158484571Y-97382957D02*
X158103619Y-97287719D01*
X158103619Y-97287719D02*
X157817904Y-97287719D01*
X157817904Y-97287719D02*
X157436952Y-97382957D01*
X157436952Y-97382957D02*
X157246476Y-97478195D01*
X157246476Y-97478195D02*
X157056000Y-97668671D01*
X157056000Y-97668671D02*
X156960761Y-97954386D01*
X156960761Y-97954386D02*
X156960761Y-98430576D01*
X156960761Y-96430576D02*
X158960761Y-96430576D01*
X158960761Y-96430576D02*
X158960761Y-95954386D01*
X158960761Y-95954386D02*
X158865523Y-95668671D01*
X158865523Y-95668671D02*
X158675047Y-95478195D01*
X158675047Y-95478195D02*
X158484571Y-95382957D01*
X158484571Y-95382957D02*
X158103619Y-95287719D01*
X158103619Y-95287719D02*
X157817904Y-95287719D01*
X157817904Y-95287719D02*
X157436952Y-95382957D01*
X157436952Y-95382957D02*
X157246476Y-95478195D01*
X157246476Y-95478195D02*
X157056000Y-95668671D01*
X157056000Y-95668671D02*
X156960761Y-95954386D01*
X156960761Y-95954386D02*
X156960761Y-96430576D01*
D11*
X145514144Y-105379624D02*
X145514144Y-105760576D01*
X145514144Y-105760576D02*
X145133192Y-105798672D01*
X145133192Y-105798672D02*
X145171287Y-105760576D01*
X145171287Y-105760576D02*
X145209382Y-105684386D01*
X145209382Y-105684386D02*
X145209382Y-105493910D01*
X145209382Y-105493910D02*
X145171287Y-105417719D01*
X145171287Y-105417719D02*
X145133192Y-105379624D01*
X145133192Y-105379624D02*
X145057001Y-105341529D01*
X145057001Y-105341529D02*
X144866525Y-105341529D01*
X144866525Y-105341529D02*
X144790335Y-105379624D01*
X144790335Y-105379624D02*
X144752240Y-105417719D01*
X144752240Y-105417719D02*
X144714144Y-105493910D01*
X144714144Y-105493910D02*
X144714144Y-105684386D01*
X144714144Y-105684386D02*
X144752240Y-105760576D01*
X144752240Y-105760576D02*
X144790335Y-105798672D01*
X145247478Y-105074862D02*
X144714144Y-104884386D01*
X144714144Y-104884386D02*
X145247478Y-104693909D01*
X145514144Y-104236766D02*
X145514144Y-104160576D01*
X145514144Y-104160576D02*
X145476049Y-104084385D01*
X145476049Y-104084385D02*
X145437954Y-104046290D01*
X145437954Y-104046290D02*
X145361763Y-104008195D01*
X145361763Y-104008195D02*
X145209382Y-103970100D01*
X145209382Y-103970100D02*
X145018906Y-103970100D01*
X145018906Y-103970100D02*
X144866525Y-104008195D01*
X144866525Y-104008195D02*
X144790335Y-104046290D01*
X144790335Y-104046290D02*
X144752240Y-104084385D01*
X144752240Y-104084385D02*
X144714144Y-104160576D01*
X144714144Y-104160576D02*
X144714144Y-104236766D01*
X144714144Y-104236766D02*
X144752240Y-104312957D01*
X144752240Y-104312957D02*
X144790335Y-104351052D01*
X144790335Y-104351052D02*
X144866525Y-104389147D01*
X144866525Y-104389147D02*
X145018906Y-104427243D01*
X145018906Y-104427243D02*
X145209382Y-104427243D01*
X145209382Y-104427243D02*
X145361763Y-104389147D01*
X145361763Y-104389147D02*
X145437954Y-104351052D01*
X145437954Y-104351052D02*
X145476049Y-104312957D01*
X145476049Y-104312957D02*
X145514144Y-104236766D01*
X110404144Y-97832005D02*
X109832716Y-97832005D01*
X109832716Y-97832005D02*
X109718430Y-97870100D01*
X109718430Y-97870100D02*
X109642240Y-97946291D01*
X109642240Y-97946291D02*
X109604144Y-98060576D01*
X109604144Y-98060576D02*
X109604144Y-98136767D01*
X109604144Y-97451052D02*
X110404144Y-97451052D01*
X110404144Y-97451052D02*
X110404144Y-97146290D01*
X110404144Y-97146290D02*
X110366049Y-97070100D01*
X110366049Y-97070100D02*
X110327954Y-97032005D01*
X110327954Y-97032005D02*
X110251763Y-96993909D01*
X110251763Y-96993909D02*
X110137478Y-96993909D01*
X110137478Y-96993909D02*
X110061287Y-97032005D01*
X110061287Y-97032005D02*
X110023192Y-97070100D01*
X110023192Y-97070100D02*
X109985097Y-97146290D01*
X109985097Y-97146290D02*
X109985097Y-97451052D01*
X109604144Y-96232005D02*
X109604144Y-96689148D01*
X109604144Y-96460576D02*
X110404144Y-96460576D01*
X110404144Y-96460576D02*
X110289859Y-96536767D01*
X110289859Y-96536767D02*
X110213668Y-96612957D01*
X110213668Y-96612957D02*
X110175573Y-96689148D01*
D12*
X157895523Y-88897243D02*
X157990761Y-89087719D01*
X157990761Y-89087719D02*
X157990761Y-89373433D01*
X157990761Y-89373433D02*
X157895523Y-89659148D01*
X157895523Y-89659148D02*
X157705047Y-89849624D01*
X157705047Y-89849624D02*
X157514571Y-89944862D01*
X157514571Y-89944862D02*
X157133619Y-90040100D01*
X157133619Y-90040100D02*
X156847904Y-90040100D01*
X156847904Y-90040100D02*
X156466952Y-89944862D01*
X156466952Y-89944862D02*
X156276476Y-89849624D01*
X156276476Y-89849624D02*
X156086000Y-89659148D01*
X156086000Y-89659148D02*
X155990761Y-89373433D01*
X155990761Y-89373433D02*
X155990761Y-89182957D01*
X155990761Y-89182957D02*
X156086000Y-88897243D01*
X156086000Y-88897243D02*
X156181238Y-88802005D01*
X156181238Y-88802005D02*
X156847904Y-88802005D01*
X156847904Y-88802005D02*
X156847904Y-89182957D01*
X155990761Y-87944862D02*
X157990761Y-87944862D01*
X157990761Y-87944862D02*
X155990761Y-86802005D01*
X155990761Y-86802005D02*
X157990761Y-86802005D01*
X155990761Y-85849624D02*
X157990761Y-85849624D01*
X157990761Y-85849624D02*
X157990761Y-85373434D01*
X157990761Y-85373434D02*
X157895523Y-85087719D01*
X157895523Y-85087719D02*
X157705047Y-84897243D01*
X157705047Y-84897243D02*
X157514571Y-84802005D01*
X157514571Y-84802005D02*
X157133619Y-84706767D01*
X157133619Y-84706767D02*
X156847904Y-84706767D01*
X156847904Y-84706767D02*
X156466952Y-84802005D01*
X156466952Y-84802005D02*
X156276476Y-84897243D01*
X156276476Y-84897243D02*
X156086000Y-85087719D01*
X156086000Y-85087719D02*
X155990761Y-85373434D01*
X155990761Y-85373434D02*
X155990761Y-85849624D01*
D11*
G36*
X143783372Y-105933683D02*
G01*
X143791874Y-105933866D01*
X143800264Y-105934173D01*
X143808542Y-105934601D01*
X143816708Y-105935153D01*
X143824761Y-105935826D01*
X143832703Y-105936623D01*
X143840532Y-105937541D01*
X143855854Y-105939746D01*
X143870726Y-105942441D01*
X143885151Y-105945627D01*
X143899126Y-105949302D01*
X143912652Y-105953467D01*
X143925730Y-105958122D01*
X143938359Y-105963267D01*
X143950539Y-105968902D01*
X143962270Y-105975027D01*
X143973553Y-105981642D01*
X143984386Y-105988748D01*
X143994771Y-105996343D01*
X144004638Y-106004361D01*
X144013868Y-106012783D01*
X144022462Y-106021611D01*
X144030419Y-106030842D01*
X144037739Y-106040478D01*
X144044423Y-106050519D01*
X144050470Y-106060964D01*
X144055881Y-106071814D01*
X144060655Y-106083068D01*
X144064793Y-106094727D01*
X144068294Y-106106790D01*
X144071158Y-106119258D01*
X144073386Y-106132130D01*
X144074978Y-106145407D01*
X144075932Y-106159089D01*
X144076251Y-106173175D01*
X144075926Y-106185228D01*
X144074953Y-106197062D01*
X144073331Y-106208675D01*
X144071061Y-106220069D01*
X144068141Y-106231243D01*
X144064573Y-106242198D01*
X144060356Y-106252932D01*
X144055490Y-106263447D01*
X144049976Y-106273742D01*
X144043812Y-106283817D01*
X144037000Y-106293672D01*
X144029539Y-106303307D01*
X144021430Y-106312723D01*
X144012671Y-106321919D01*
X144003264Y-106330894D01*
X143993208Y-106339651D01*
X144276334Y-106339651D01*
X144276334Y-106443600D01*
X143476000Y-106443600D01*
X143476000Y-106339651D01*
X143521136Y-106339651D01*
X143514156Y-106331426D01*
X143507626Y-106322972D01*
X143501547Y-106314287D01*
X143495918Y-106305371D01*
X143490739Y-106296225D01*
X143486010Y-106286848D01*
X143481732Y-106277241D01*
X143477905Y-106267404D01*
X143474527Y-106257335D01*
X143471600Y-106247037D01*
X143469123Y-106236508D01*
X143467097Y-106225748D01*
X143465521Y-106214758D01*
X143464395Y-106203537D01*
X143463719Y-106192086D01*
X143463618Y-106186852D01*
X143551031Y-106186852D01*
X143551302Y-106197570D01*
X143552115Y-106208132D01*
X143553470Y-106218538D01*
X143555366Y-106228789D01*
X143557805Y-106238884D01*
X143560785Y-106248823D01*
X143564308Y-106258606D01*
X143568372Y-106268234D01*
X143572978Y-106277706D01*
X143578127Y-106287022D01*
X143583817Y-106296183D01*
X143590049Y-106305188D01*
X143596823Y-106314037D01*
X143604138Y-106322731D01*
X143611996Y-106331268D01*
X143620396Y-106339651D01*
X143891017Y-106339651D01*
X143902847Y-106330725D01*
X143913915Y-106321680D01*
X143924219Y-106312517D01*
X143933759Y-106303234D01*
X143942537Y-106293832D01*
X143950551Y-106284311D01*
X143957802Y-106274671D01*
X143964290Y-106264912D01*
X143970014Y-106255034D01*
X143974975Y-106245037D01*
X143979173Y-106234921D01*
X143982608Y-106224685D01*
X143985279Y-106214331D01*
X143987188Y-106203858D01*
X143988332Y-106193265D01*
X143988714Y-106182554D01*
X143988501Y-106174268D01*
X143987862Y-106166217D01*
X143986105Y-106154577D01*
X143983390Y-106143463D01*
X143979717Y-106132875D01*
X143975085Y-106122812D01*
X143969495Y-106113274D01*
X143962947Y-106104262D01*
X143955441Y-106095776D01*
X143946976Y-106087815D01*
X143940801Y-106082799D01*
X143934199Y-106078018D01*
X143927186Y-106073498D01*
X143919777Y-106069271D01*
X143911970Y-106065335D01*
X143903766Y-106061690D01*
X143895166Y-106058337D01*
X143886169Y-106055276D01*
X143876775Y-106052506D01*
X143866983Y-106050027D01*
X143856795Y-106047841D01*
X143846211Y-106045946D01*
X143835229Y-106044342D01*
X143823850Y-106043030D01*
X143812075Y-106042009D01*
X143799902Y-106041280D01*
X143787333Y-106040843D01*
X143774367Y-106040697D01*
X143760684Y-106040852D01*
X143747433Y-106041317D01*
X143734611Y-106042092D01*
X143722221Y-106043176D01*
X143710260Y-106044571D01*
X143698731Y-106046275D01*
X143687631Y-106048289D01*
X143676963Y-106050614D01*
X143666724Y-106053248D01*
X143656916Y-106056191D01*
X143647539Y-106059445D01*
X143638592Y-106063009D01*
X143630076Y-106066882D01*
X143621990Y-106071066D01*
X143614334Y-106075559D01*
X143607109Y-106080362D01*
X143600318Y-106085404D01*
X143593966Y-106090660D01*
X143588051Y-106096132D01*
X143582575Y-106101819D01*
X143575182Y-106110753D01*
X143568774Y-106120172D01*
X143563353Y-106130074D01*
X143558917Y-106140461D01*
X143555467Y-106151333D01*
X143553002Y-106162688D01*
X143551907Y-106170528D01*
X143551250Y-106178582D01*
X143551031Y-106186852D01*
X143463618Y-106186852D01*
X143463494Y-106180404D01*
X143463821Y-106167212D01*
X143464801Y-106154307D01*
X143466434Y-106141689D01*
X143468721Y-106129357D01*
X143471661Y-106117313D01*
X143475255Y-106105556D01*
X143479501Y-106094086D01*
X143484401Y-106082903D01*
X143489955Y-106072006D01*
X143496162Y-106061397D01*
X143503022Y-106051075D01*
X143510535Y-106041039D01*
X143518702Y-106031291D01*
X143527523Y-106021830D01*
X143536996Y-106012655D01*
X143547123Y-106003768D01*
X143552409Y-105999452D01*
X143563334Y-105991232D01*
X143574731Y-105983560D01*
X143586600Y-105976435D01*
X143598940Y-105969859D01*
X143611752Y-105963831D01*
X143625036Y-105958351D01*
X143638791Y-105953418D01*
X143653019Y-105949034D01*
X143667717Y-105945198D01*
X143682888Y-105941910D01*
X143690650Y-105940472D01*
X143698530Y-105939170D01*
X143706528Y-105938005D01*
X143714644Y-105936978D01*
X143722878Y-105936087D01*
X143731230Y-105935334D01*
X143739699Y-105934717D01*
X143748287Y-105934238D01*
X143756992Y-105933895D01*
X143765816Y-105933690D01*
X143774757Y-105933621D01*
X143783372Y-105933683D01*
G37*
G36*
X143778955Y-105310777D02*
G01*
X143787907Y-105310995D01*
X143796729Y-105311359D01*
X143805422Y-105311868D01*
X143813985Y-105312522D01*
X143822418Y-105313322D01*
X143830722Y-105314267D01*
X143838896Y-105315357D01*
X143846940Y-105316593D01*
X143854854Y-105317974D01*
X143862638Y-105319501D01*
X143870293Y-105321173D01*
X143885213Y-105324954D01*
X143899614Y-105329316D01*
X143913496Y-105334259D01*
X143926860Y-105339784D01*
X143939704Y-105345891D01*
X143952029Y-105352580D01*
X143963835Y-105359850D01*
X143975122Y-105367701D01*
X143985890Y-105376135D01*
X143996139Y-105385150D01*
X144005840Y-105394651D01*
X144014915Y-105404545D01*
X144023365Y-105414832D01*
X144031188Y-105425511D01*
X144038385Y-105436582D01*
X144044957Y-105448045D01*
X144050903Y-105459901D01*
X144056223Y-105472149D01*
X144060917Y-105484789D01*
X144064985Y-105497822D01*
X144068427Y-105511247D01*
X144071244Y-105525064D01*
X144073434Y-105539274D01*
X144074999Y-105553876D01*
X144075938Y-105568870D01*
X144076251Y-105584256D01*
X144075938Y-105599596D01*
X144074999Y-105614545D01*
X144073434Y-105629106D01*
X144071244Y-105643278D01*
X144068427Y-105657060D01*
X144064985Y-105670453D01*
X144060917Y-105683456D01*
X144056223Y-105696071D01*
X144050903Y-105708296D01*
X144044957Y-105720132D01*
X144038385Y-105731578D01*
X144031188Y-105742636D01*
X144023365Y-105753304D01*
X144014915Y-105763582D01*
X144005840Y-105773472D01*
X143996139Y-105782972D01*
X143985890Y-105791987D01*
X143975122Y-105800420D01*
X143963835Y-105808272D01*
X143952029Y-105815542D01*
X143939704Y-105822231D01*
X143926860Y-105828337D01*
X143913496Y-105833863D01*
X143899614Y-105838806D01*
X143885213Y-105843168D01*
X143870293Y-105846949D01*
X143862638Y-105848621D01*
X143854854Y-105850147D01*
X143846940Y-105851529D01*
X143838896Y-105852765D01*
X143830722Y-105853855D01*
X143822418Y-105854800D01*
X143813985Y-105855600D01*
X143805422Y-105856254D01*
X143796729Y-105856763D01*
X143787907Y-105857127D01*
X143778955Y-105857345D01*
X143769872Y-105857418D01*
X143760826Y-105857345D01*
X143751908Y-105857127D01*
X143743117Y-105856763D01*
X143734454Y-105856254D01*
X143725919Y-105855600D01*
X143717512Y-105854800D01*
X143709233Y-105853855D01*
X143701081Y-105852765D01*
X143693058Y-105851529D01*
X143685162Y-105850147D01*
X143677394Y-105848621D01*
X143669754Y-105846949D01*
X143654858Y-105843168D01*
X143640473Y-105838806D01*
X143626599Y-105833863D01*
X143613237Y-105828337D01*
X143600386Y-105822231D01*
X143588046Y-105815542D01*
X143576218Y-105808272D01*
X143564901Y-105800420D01*
X143554095Y-105791987D01*
X143543801Y-105782972D01*
X143534077Y-105773472D01*
X143524979Y-105763582D01*
X143516509Y-105753304D01*
X143508667Y-105742636D01*
X143501452Y-105731578D01*
X143494864Y-105720132D01*
X143488904Y-105708296D01*
X143483571Y-105696071D01*
X143478866Y-105683456D01*
X143474787Y-105670453D01*
X143471337Y-105657060D01*
X143468513Y-105643278D01*
X143466318Y-105629106D01*
X143464749Y-105614545D01*
X143463808Y-105599596D01*
X143463494Y-105584256D01*
X143551031Y-105584256D01*
X143551245Y-105593428D01*
X143551889Y-105602382D01*
X143552961Y-105611118D01*
X143554463Y-105619635D01*
X143556393Y-105627934D01*
X143558752Y-105636014D01*
X143561540Y-105643877D01*
X143564757Y-105651521D01*
X143568403Y-105658947D01*
X143572478Y-105666154D01*
X143576982Y-105673143D01*
X143581915Y-105679914D01*
X143587277Y-105686467D01*
X143593068Y-105692801D01*
X143599288Y-105698917D01*
X143605937Y-105704815D01*
X143613033Y-105710399D01*
X143620549Y-105715622D01*
X143628482Y-105720486D01*
X143636833Y-105724989D01*
X143645603Y-105729132D01*
X143654791Y-105732915D01*
X143664398Y-105736337D01*
X143674422Y-105739399D01*
X143684865Y-105742101D01*
X143695726Y-105744443D01*
X143707006Y-105746424D01*
X143718704Y-105748046D01*
X143730820Y-105749306D01*
X143743354Y-105750207D01*
X143756306Y-105750747D01*
X143769677Y-105750928D01*
X143783094Y-105750747D01*
X143796089Y-105750207D01*
X143808661Y-105749306D01*
X143820809Y-105748046D01*
X143832535Y-105746424D01*
X143843838Y-105744443D01*
X143854719Y-105742101D01*
X143865176Y-105739399D01*
X143875211Y-105736337D01*
X143884822Y-105732915D01*
X143894011Y-105729132D01*
X143902777Y-105724989D01*
X143911120Y-105720486D01*
X143919041Y-105715622D01*
X143926538Y-105710399D01*
X143933613Y-105704815D01*
X143940285Y-105698917D01*
X143946527Y-105692801D01*
X143952339Y-105686467D01*
X143957720Y-105679914D01*
X143962670Y-105673143D01*
X143967190Y-105666154D01*
X143971280Y-105658947D01*
X143974939Y-105651521D01*
X143978167Y-105643877D01*
X143980965Y-105636014D01*
X143983333Y-105627934D01*
X143985270Y-105619635D01*
X143986777Y-105611118D01*
X143987853Y-105602382D01*
X143988499Y-105593428D01*
X143988714Y-105584256D01*
X143988499Y-105575109D01*
X143987853Y-105566179D01*
X143986777Y-105557468D01*
X143985270Y-105548975D01*
X143983333Y-105540701D01*
X143980965Y-105532645D01*
X143978167Y-105524807D01*
X143974939Y-105517187D01*
X143971280Y-105509786D01*
X143967190Y-105502603D01*
X143962670Y-105495638D01*
X143957720Y-105488892D01*
X143952339Y-105482364D01*
X143946527Y-105476054D01*
X143940285Y-105469962D01*
X143933613Y-105464089D01*
X143926538Y-105458481D01*
X143919041Y-105453235D01*
X143911120Y-105448351D01*
X143902777Y-105443829D01*
X143894011Y-105439668D01*
X143884822Y-105435870D01*
X143875211Y-105432433D01*
X143865176Y-105429357D01*
X143854719Y-105426644D01*
X143843838Y-105424293D01*
X143832535Y-105422303D01*
X143820809Y-105420675D01*
X143808661Y-105419408D01*
X143796089Y-105418504D01*
X143783094Y-105417961D01*
X143769677Y-105417780D01*
X143756306Y-105417961D01*
X143743354Y-105418504D01*
X143730820Y-105419408D01*
X143718704Y-105420675D01*
X143707006Y-105422303D01*
X143695726Y-105424293D01*
X143684865Y-105426644D01*
X143674422Y-105429357D01*
X143664398Y-105432433D01*
X143654791Y-105435870D01*
X143645603Y-105439668D01*
X143636833Y-105443829D01*
X143628482Y-105448351D01*
X143620549Y-105453235D01*
X143613033Y-105458481D01*
X143605937Y-105464089D01*
X143599288Y-105469962D01*
X143593068Y-105476054D01*
X143587277Y-105482364D01*
X143581915Y-105488892D01*
X143576982Y-105495638D01*
X143572478Y-105502603D01*
X143568403Y-105509786D01*
X143564757Y-105517187D01*
X143561540Y-105524807D01*
X143558752Y-105532645D01*
X143556393Y-105540701D01*
X143554463Y-105548975D01*
X143552961Y-105557468D01*
X143551889Y-105566179D01*
X143551245Y-105575109D01*
X143551031Y-105584256D01*
X143463494Y-105584256D01*
X143463808Y-105568870D01*
X143464749Y-105553876D01*
X143466318Y-105539274D01*
X143468513Y-105525064D01*
X143471337Y-105511247D01*
X143474787Y-105497822D01*
X143478866Y-105484789D01*
X143483571Y-105472149D01*
X143488904Y-105459901D01*
X143494864Y-105448045D01*
X143501452Y-105436582D01*
X143508667Y-105425511D01*
X143516509Y-105414832D01*
X143524979Y-105404545D01*
X143534077Y-105394651D01*
X143543801Y-105385150D01*
X143554095Y-105376135D01*
X143564901Y-105367701D01*
X143576218Y-105359850D01*
X143588046Y-105352580D01*
X143600386Y-105345891D01*
X143613237Y-105339784D01*
X143626599Y-105334259D01*
X143640473Y-105329316D01*
X143654858Y-105324954D01*
X143669754Y-105321173D01*
X143677394Y-105319501D01*
X143685162Y-105317974D01*
X143693058Y-105316593D01*
X143701081Y-105315357D01*
X143709233Y-105314267D01*
X143717512Y-105313322D01*
X143725919Y-105312522D01*
X143734454Y-105311868D01*
X143743117Y-105311359D01*
X143751908Y-105310995D01*
X143760826Y-105310777D01*
X143769872Y-105310704D01*
X143778955Y-105310777D01*
G37*
G36*
X143778955Y-104687860D02*
G01*
X143787907Y-104688078D01*
X143796729Y-104688442D01*
X143805422Y-104688951D01*
X143813985Y-104689605D01*
X143822418Y-104690405D01*
X143830722Y-104691350D01*
X143838896Y-104692440D01*
X143846940Y-104693676D01*
X143854854Y-104695057D01*
X143862638Y-104696584D01*
X143870293Y-104698256D01*
X143885213Y-104702037D01*
X143899614Y-104706399D01*
X143913496Y-104711342D01*
X143926860Y-104716868D01*
X143939704Y-104722974D01*
X143952029Y-104729663D01*
X143963835Y-104736933D01*
X143975122Y-104744784D01*
X143985890Y-104753218D01*
X143996139Y-104762233D01*
X144005840Y-104771734D01*
X144014915Y-104781629D01*
X144023365Y-104791915D01*
X144031188Y-104802594D01*
X144038385Y-104813665D01*
X144044957Y-104825128D01*
X144050903Y-104836984D01*
X144056223Y-104849232D01*
X144060917Y-104861872D01*
X144064985Y-104874905D01*
X144068427Y-104888330D01*
X144071244Y-104902147D01*
X144073434Y-104916357D01*
X144074999Y-104930959D01*
X144075938Y-104945953D01*
X144076251Y-104961339D01*
X144075938Y-104976679D01*
X144074999Y-104991629D01*
X144073434Y-105006189D01*
X144071244Y-105020361D01*
X144068427Y-105034143D01*
X144064985Y-105047536D01*
X144060917Y-105060539D01*
X144056223Y-105073154D01*
X144050903Y-105085379D01*
X144044957Y-105097215D01*
X144038385Y-105108661D01*
X144031188Y-105119719D01*
X144023365Y-105130387D01*
X144014915Y-105140665D01*
X144005840Y-105150555D01*
X143996139Y-105160055D01*
X143985890Y-105169070D01*
X143975122Y-105177503D01*
X143963835Y-105185355D01*
X143952029Y-105192625D01*
X143939704Y-105199314D01*
X143926860Y-105205420D01*
X143913496Y-105210946D01*
X143899614Y-105215889D01*
X143885213Y-105220251D01*
X143870293Y-105224032D01*
X143862638Y-105225704D01*
X143854854Y-105227231D01*
X143846940Y-105228612D01*
X143838896Y-105229848D01*
X143830722Y-105230938D01*
X143822418Y-105231883D01*
X143813985Y-105232683D01*
X143805422Y-105233337D01*
X143796729Y-105233846D01*
X143787907Y-105234210D01*
X143778955Y-105234428D01*
X143769872Y-105234501D01*
X143760826Y-105234428D01*
X143751908Y-105234210D01*
X143743117Y-105233846D01*
X143734454Y-105233337D01*
X143725919Y-105232683D01*
X143717512Y-105231883D01*
X143709233Y-105230938D01*
X143701081Y-105229848D01*
X143693058Y-105228612D01*
X143685162Y-105227231D01*
X143677394Y-105225704D01*
X143669754Y-105224032D01*
X143654858Y-105220251D01*
X143640473Y-105215889D01*
X143626599Y-105210946D01*
X143613237Y-105205420D01*
X143600386Y-105199314D01*
X143588046Y-105192625D01*
X143576218Y-105185355D01*
X143564901Y-105177503D01*
X143554095Y-105169070D01*
X143543801Y-105160055D01*
X143534077Y-105150555D01*
X143524979Y-105140665D01*
X143516509Y-105130387D01*
X143508667Y-105119719D01*
X143501452Y-105108661D01*
X143494864Y-105097215D01*
X143488904Y-105085379D01*
X143483571Y-105073154D01*
X143478866Y-105060539D01*
X143474787Y-105047536D01*
X143471337Y-105034143D01*
X143468513Y-105020361D01*
X143466318Y-105006189D01*
X143464749Y-104991629D01*
X143463808Y-104976679D01*
X143463494Y-104961339D01*
X143551031Y-104961339D01*
X143551245Y-104970511D01*
X143551889Y-104979465D01*
X143552961Y-104988201D01*
X143554463Y-104996718D01*
X143556393Y-105005017D01*
X143558752Y-105013097D01*
X143561540Y-105020960D01*
X143564757Y-105028604D01*
X143568403Y-105036030D01*
X143572478Y-105043237D01*
X143576982Y-105050226D01*
X143581915Y-105056997D01*
X143587277Y-105063550D01*
X143593068Y-105069884D01*
X143599288Y-105076000D01*
X143605937Y-105081898D01*
X143613033Y-105087482D01*
X143620549Y-105092705D01*
X143628482Y-105097569D01*
X143636833Y-105102072D01*
X143645603Y-105106215D01*
X143654791Y-105109998D01*
X143664398Y-105113420D01*
X143674422Y-105116482D01*
X143684865Y-105119184D01*
X143695726Y-105121526D01*
X143707006Y-105123507D01*
X143718704Y-105125129D01*
X143730820Y-105126390D01*
X143743354Y-105127290D01*
X143756306Y-105127831D01*
X143769677Y-105128011D01*
X143783094Y-105127831D01*
X143796089Y-105127290D01*
X143808661Y-105126390D01*
X143820809Y-105125129D01*
X143832535Y-105123507D01*
X143843838Y-105121526D01*
X143854719Y-105119184D01*
X143865176Y-105116482D01*
X143875211Y-105113420D01*
X143884822Y-105109998D01*
X143894011Y-105106215D01*
X143902777Y-105102072D01*
X143911120Y-105097569D01*
X143919041Y-105092705D01*
X143926538Y-105087482D01*
X143933613Y-105081898D01*
X143940285Y-105076000D01*
X143946527Y-105069884D01*
X143952339Y-105063550D01*
X143957720Y-105056997D01*
X143962670Y-105050226D01*
X143967190Y-105043237D01*
X143971280Y-105036030D01*
X143974939Y-105028604D01*
X143978167Y-105020960D01*
X143980965Y-105013097D01*
X143983333Y-105005017D01*
X143985270Y-104996718D01*
X143986777Y-104988201D01*
X143987853Y-104979465D01*
X143988499Y-104970511D01*
X143988714Y-104961339D01*
X143988499Y-104952192D01*
X143987853Y-104943262D01*
X143986777Y-104934551D01*
X143985270Y-104926058D01*
X143983333Y-104917784D01*
X143980965Y-104909728D01*
X143978167Y-104901890D01*
X143974939Y-104894270D01*
X143971280Y-104886869D01*
X143967190Y-104879686D01*
X143962670Y-104872721D01*
X143957720Y-104865975D01*
X143952339Y-104859447D01*
X143946527Y-104853137D01*
X143940285Y-104847045D01*
X143933613Y-104841172D01*
X143926538Y-104835564D01*
X143919041Y-104830318D01*
X143911120Y-104825434D01*
X143902777Y-104820912D01*
X143894011Y-104816751D01*
X143884822Y-104812953D01*
X143875211Y-104809516D01*
X143865176Y-104806441D01*
X143854719Y-104803727D01*
X143843838Y-104801376D01*
X143832535Y-104799386D01*
X143820809Y-104797758D01*
X143808661Y-104796491D01*
X143796089Y-104795587D01*
X143783094Y-104795044D01*
X143769677Y-104794863D01*
X143756306Y-104795044D01*
X143743354Y-104795587D01*
X143730820Y-104796491D01*
X143718704Y-104797758D01*
X143707006Y-104799386D01*
X143695726Y-104801376D01*
X143684865Y-104803727D01*
X143674422Y-104806441D01*
X143664398Y-104809516D01*
X143654791Y-104812953D01*
X143645603Y-104816751D01*
X143636833Y-104820912D01*
X143628482Y-104825434D01*
X143620549Y-104830318D01*
X143613033Y-104835564D01*
X143605937Y-104841172D01*
X143599288Y-104847045D01*
X143593068Y-104853137D01*
X143587277Y-104859447D01*
X143581915Y-104865975D01*
X143576982Y-104872721D01*
X143572478Y-104879686D01*
X143568403Y-104886869D01*
X143564757Y-104894270D01*
X143561540Y-104901890D01*
X143558752Y-104909728D01*
X143556393Y-104917784D01*
X143554463Y-104926058D01*
X143552961Y-104934551D01*
X143551889Y-104943262D01*
X143551245Y-104952192D01*
X143551031Y-104961339D01*
X143463494Y-104961339D01*
X143463808Y-104945953D01*
X143464749Y-104930959D01*
X143466318Y-104916357D01*
X143468513Y-104902147D01*
X143471337Y-104888330D01*
X143474787Y-104874905D01*
X143478866Y-104861872D01*
X143483571Y-104849232D01*
X143488904Y-104836984D01*
X143494864Y-104825128D01*
X143501452Y-104813665D01*
X143508667Y-104802594D01*
X143516509Y-104791915D01*
X143524979Y-104781629D01*
X143534077Y-104771734D01*
X143543801Y-104762233D01*
X143554095Y-104753218D01*
X143564901Y-104744784D01*
X143576218Y-104736933D01*
X143588046Y-104729663D01*
X143600386Y-104722974D01*
X143613237Y-104716868D01*
X143626599Y-104711342D01*
X143640473Y-104706399D01*
X143654858Y-104702037D01*
X143669754Y-104698256D01*
X143677394Y-104696584D01*
X143685162Y-104695057D01*
X143693058Y-104693676D01*
X143701081Y-104692440D01*
X143709233Y-104691350D01*
X143717512Y-104690405D01*
X143725919Y-104689605D01*
X143734454Y-104688951D01*
X143743117Y-104688442D01*
X143751908Y-104688078D01*
X143760826Y-104687860D01*
X143769872Y-104687787D01*
X143778955Y-104687860D01*
G37*
G36*
X143470724Y-104348387D02*
G01*
X143469029Y-104356985D01*
X143467561Y-104365778D01*
X143466318Y-104374766D01*
X143465302Y-104383949D01*
X143464511Y-104393328D01*
X143463946Y-104402903D01*
X143463607Y-104412672D01*
X143463494Y-104422637D01*
X143463584Y-104430467D01*
X143464052Y-104441713D01*
X143464923Y-104452362D01*
X143466196Y-104462413D01*
X143467870Y-104471866D01*
X143469946Y-104480722D01*
X143472424Y-104488980D01*
X143475304Y-104496640D01*
X143479769Y-104505925D01*
X143484949Y-104514146D01*
X143486355Y-104516036D01*
X143492321Y-104523110D01*
X143498690Y-104529481D01*
X143505461Y-104535151D01*
X143512636Y-104540118D01*
X143520214Y-104544383D01*
X143528194Y-104547946D01*
X143536578Y-104550807D01*
X143545364Y-104552965D01*
X143554759Y-104554614D01*
X143564965Y-104556043D01*
X143573153Y-104556970D01*
X143581797Y-104557774D01*
X143590898Y-104558454D01*
X143600456Y-104559010D01*
X143610471Y-104559443D01*
X143620943Y-104559752D01*
X143631872Y-104559938D01*
X143643257Y-104560000D01*
X143976209Y-104560000D01*
X143976209Y-104632100D01*
X144063745Y-104632100D01*
X144063745Y-104560000D01*
X144213808Y-104560000D01*
X144213808Y-104456636D01*
X144063745Y-104456636D01*
X144063745Y-104362260D01*
X143976209Y-104362260D01*
X143976209Y-104456636D01*
X143642671Y-104456636D01*
X143631913Y-104456504D01*
X143621914Y-104456107D01*
X143612674Y-104455446D01*
X143604193Y-104454520D01*
X143594066Y-104452875D01*
X143585289Y-104450759D01*
X143577861Y-104448173D01*
X143570474Y-104444279D01*
X143567053Y-104441591D01*
X143561608Y-104435484D01*
X143557290Y-104428594D01*
X143554098Y-104420921D01*
X143552032Y-104412465D01*
X143551093Y-104403225D01*
X143551031Y-104399972D01*
X143551141Y-104391654D01*
X143551470Y-104383432D01*
X143552018Y-104375305D01*
X143552786Y-104367274D01*
X143553774Y-104359338D01*
X143554981Y-104351497D01*
X143555525Y-104348387D01*
X143470724Y-104348387D01*
G37*
G36*
X143900456Y-103765001D02*
G01*
X143925109Y-103765771D01*
X143948953Y-103767053D01*
X143971990Y-103768848D01*
X143994218Y-103771156D01*
X144015637Y-103773977D01*
X144036249Y-103777311D01*
X144056052Y-103781158D01*
X144075047Y-103785518D01*
X144093233Y-103790390D01*
X144110611Y-103795776D01*
X144127181Y-103801674D01*
X144142943Y-103808086D01*
X144157897Y-103815010D01*
X144172042Y-103822447D01*
X144185378Y-103830397D01*
X144197907Y-103838860D01*
X144209627Y-103847836D01*
X144220539Y-103857325D01*
X144230643Y-103867327D01*
X144239938Y-103877841D01*
X144248425Y-103888869D01*
X144256104Y-103900409D01*
X144262974Y-103912463D01*
X144269037Y-103925029D01*
X144274290Y-103938108D01*
X144278736Y-103951700D01*
X144282373Y-103965806D01*
X144285202Y-103980423D01*
X144287223Y-103995554D01*
X144288436Y-104011198D01*
X144288840Y-104027355D01*
X144288436Y-104043487D01*
X144287223Y-104059108D01*
X144285202Y-104074216D01*
X144282373Y-104088812D01*
X144278736Y-104102896D01*
X144274290Y-104116468D01*
X144269037Y-104129528D01*
X144262974Y-104142076D01*
X144256104Y-104154111D01*
X144248425Y-104165634D01*
X144239938Y-104176645D01*
X144230643Y-104187144D01*
X144220539Y-104197131D01*
X144209627Y-104206606D01*
X144197907Y-104215569D01*
X144185378Y-104224019D01*
X144172042Y-104231957D01*
X144157897Y-104239383D01*
X144142943Y-104246297D01*
X144127181Y-104252699D01*
X144110611Y-104258589D01*
X144093233Y-104263966D01*
X144075047Y-104268832D01*
X144056052Y-104273185D01*
X144036249Y-104277026D01*
X144015637Y-104280355D01*
X143994218Y-104283172D01*
X143971990Y-104285477D01*
X143948953Y-104287269D01*
X143925109Y-104288550D01*
X143900456Y-104289318D01*
X143874995Y-104289574D01*
X143849678Y-104289318D01*
X143825164Y-104288550D01*
X143801455Y-104287269D01*
X143778549Y-104285477D01*
X143756447Y-104283172D01*
X143735149Y-104280355D01*
X143714654Y-104277026D01*
X143694963Y-104273185D01*
X143676076Y-104268832D01*
X143657992Y-104263966D01*
X143640713Y-104258589D01*
X143624237Y-104252699D01*
X143608564Y-104246297D01*
X143593696Y-104239383D01*
X143579631Y-104231957D01*
X143566369Y-104224019D01*
X143553912Y-104215569D01*
X143542258Y-104206606D01*
X143531408Y-104197131D01*
X143521362Y-104187144D01*
X143512119Y-104176645D01*
X143503680Y-104165634D01*
X143496045Y-104154111D01*
X143489213Y-104142076D01*
X143483185Y-104129528D01*
X143477961Y-104116468D01*
X143473541Y-104102896D01*
X143469924Y-104088812D01*
X143467111Y-104074216D01*
X143465102Y-104059108D01*
X143463896Y-104043487D01*
X143463499Y-104027550D01*
X143551031Y-104027550D01*
X143551309Y-104036886D01*
X143552145Y-104045939D01*
X143553538Y-104054709D01*
X143555488Y-104063197D01*
X143557996Y-104071403D01*
X143561060Y-104079327D01*
X143564682Y-104086968D01*
X143568861Y-104094326D01*
X143573597Y-104101402D01*
X143578890Y-104108196D01*
X143584740Y-104114707D01*
X143591148Y-104120936D01*
X143598113Y-104126883D01*
X143605634Y-104132547D01*
X143613714Y-104137929D01*
X143622350Y-104143028D01*
X143626927Y-104145456D01*
X143636724Y-104150082D01*
X143647379Y-104154399D01*
X143658892Y-104158407D01*
X143671263Y-104162108D01*
X143684492Y-104165500D01*
X143698578Y-104168583D01*
X143713523Y-104171358D01*
X143721317Y-104172630D01*
X143729326Y-104173825D01*
X143737548Y-104174943D01*
X143745986Y-104175984D01*
X143754638Y-104176947D01*
X143763504Y-104177834D01*
X143772585Y-104178643D01*
X143781880Y-104179376D01*
X143791390Y-104180031D01*
X143801115Y-104180609D01*
X143811053Y-104181110D01*
X143821207Y-104181534D01*
X143831574Y-104181881D01*
X143842157Y-104182151D01*
X143852953Y-104182344D01*
X143863964Y-104182459D01*
X143875190Y-104182498D01*
X143886440Y-104182459D01*
X143897476Y-104182344D01*
X143908298Y-104182151D01*
X143918906Y-104181881D01*
X143929300Y-104181534D01*
X143939480Y-104181110D01*
X143949446Y-104180609D01*
X143959197Y-104180031D01*
X143968735Y-104179376D01*
X143978058Y-104178643D01*
X143987168Y-104177834D01*
X143996063Y-104176947D01*
X144004744Y-104175984D01*
X144013211Y-104174943D01*
X144021464Y-104173825D01*
X144029503Y-104172630D01*
X144044938Y-104170009D01*
X144059517Y-104167080D01*
X144073240Y-104163842D01*
X144086106Y-104160296D01*
X144098116Y-104156442D01*
X144109269Y-104152279D01*
X144119566Y-104147808D01*
X144129007Y-104143028D01*
X144137762Y-104137929D01*
X144145952Y-104132547D01*
X144153576Y-104126883D01*
X144160637Y-104120936D01*
X144167132Y-104114707D01*
X144173062Y-104108196D01*
X144178428Y-104101402D01*
X144183229Y-104094326D01*
X144187465Y-104086968D01*
X144191136Y-104079327D01*
X144194243Y-104071403D01*
X144196785Y-104063197D01*
X144198761Y-104054709D01*
X144200173Y-104045939D01*
X144201021Y-104036886D01*
X144201303Y-104027550D01*
X144201021Y-104018144D01*
X144200173Y-104009027D01*
X144198761Y-104000199D01*
X144196785Y-103991659D01*
X144194243Y-103983407D01*
X144191136Y-103975444D01*
X144187465Y-103967769D01*
X144183229Y-103960383D01*
X144178428Y-103953286D01*
X144173062Y-103946477D01*
X144167132Y-103939956D01*
X144160637Y-103933724D01*
X144153576Y-103927781D01*
X144145952Y-103922126D01*
X144137762Y-103916759D01*
X144129007Y-103911681D01*
X144124394Y-103909241D01*
X144114525Y-103904593D01*
X144103800Y-103900254D01*
X144092218Y-103896226D01*
X144079780Y-103892507D01*
X144066485Y-103889099D01*
X144052335Y-103886000D01*
X144037327Y-103883211D01*
X144029503Y-103881933D01*
X144021464Y-103880732D01*
X144013211Y-103879608D01*
X144004744Y-103878563D01*
X143996063Y-103877594D01*
X143987168Y-103876703D01*
X143978058Y-103875890D01*
X143968735Y-103875154D01*
X143959197Y-103874495D01*
X143949446Y-103873914D01*
X143939480Y-103873411D01*
X143929300Y-103872985D01*
X143918906Y-103872636D01*
X143908298Y-103872365D01*
X143897476Y-103872171D01*
X143886440Y-103872055D01*
X143875190Y-103872016D01*
X143863964Y-103872055D01*
X143852953Y-103872171D01*
X143842157Y-103872365D01*
X143831574Y-103872636D01*
X143821207Y-103872985D01*
X143811053Y-103873411D01*
X143801115Y-103873914D01*
X143791390Y-103874495D01*
X143781880Y-103875154D01*
X143772585Y-103875890D01*
X143763504Y-103876703D01*
X143754638Y-103877594D01*
X143745986Y-103878563D01*
X143737548Y-103879608D01*
X143729326Y-103880732D01*
X143721317Y-103881933D01*
X143705943Y-103884567D01*
X143691428Y-103887510D01*
X143677770Y-103890764D01*
X143664970Y-103894328D01*
X143653028Y-103898201D01*
X143641944Y-103902385D01*
X143631718Y-103906878D01*
X143622350Y-103911681D01*
X143613714Y-103916759D01*
X143605634Y-103922126D01*
X143598113Y-103927781D01*
X143591148Y-103933724D01*
X143584740Y-103939956D01*
X143578890Y-103946477D01*
X143573597Y-103953286D01*
X143568861Y-103960383D01*
X143564682Y-103967769D01*
X143561060Y-103975444D01*
X143557996Y-103983407D01*
X143555488Y-103991659D01*
X143553538Y-104000199D01*
X143552145Y-104009027D01*
X143551309Y-104018144D01*
X143551031Y-104027550D01*
X143463499Y-104027550D01*
X143463494Y-104027355D01*
X143463896Y-104011198D01*
X143465102Y-103995554D01*
X143467111Y-103980423D01*
X143469924Y-103965806D01*
X143473541Y-103951700D01*
X143477961Y-103938108D01*
X143483185Y-103925029D01*
X143489213Y-103912463D01*
X143496045Y-103900409D01*
X143503680Y-103888869D01*
X143512119Y-103877841D01*
X143521362Y-103867327D01*
X143531408Y-103857325D01*
X143542258Y-103847836D01*
X143553912Y-103838860D01*
X143566369Y-103830397D01*
X143579631Y-103822447D01*
X143593696Y-103815010D01*
X143608564Y-103808086D01*
X143624237Y-103801674D01*
X143640713Y-103795776D01*
X143657992Y-103790390D01*
X143676076Y-103785518D01*
X143694963Y-103781158D01*
X143714654Y-103777311D01*
X143735149Y-103773977D01*
X143756447Y-103771156D01*
X143778549Y-103768848D01*
X143801455Y-103767053D01*
X143825164Y-103765771D01*
X143849678Y-103765001D01*
X143874995Y-103764745D01*
X143900456Y-103765001D01*
G37*
D12*
X153960761Y-106434862D02*
X155960761Y-106434862D01*
X153960761Y-105482481D02*
X155960761Y-105482481D01*
X155960761Y-105482481D02*
X153960761Y-104339624D01*
X153960761Y-104339624D02*
X155960761Y-104339624D01*
D11*
X141291906Y-97401886D02*
X140791906Y-97401886D01*
X140791906Y-97401886D02*
X140691906Y-97435219D01*
X140691906Y-97435219D02*
X140625240Y-97501886D01*
X140625240Y-97501886D02*
X140591906Y-97601886D01*
X140591906Y-97601886D02*
X140591906Y-97668553D01*
X140591906Y-97068553D02*
X141291906Y-97068553D01*
X141291906Y-97068553D02*
X141291906Y-96801886D01*
X141291906Y-96801886D02*
X141258573Y-96735220D01*
X141258573Y-96735220D02*
X141225240Y-96701886D01*
X141225240Y-96701886D02*
X141158573Y-96668553D01*
X141158573Y-96668553D02*
X141058573Y-96668553D01*
X141058573Y-96668553D02*
X140991906Y-96701886D01*
X140991906Y-96701886D02*
X140958573Y-96735220D01*
X140958573Y-96735220D02*
X140925240Y-96801886D01*
X140925240Y-96801886D02*
X140925240Y-97068553D01*
X141291906Y-96435220D02*
X141291906Y-96001886D01*
X141291906Y-96001886D02*
X141025240Y-96235220D01*
X141025240Y-96235220D02*
X141025240Y-96135220D01*
X141025240Y-96135220D02*
X140991906Y-96068553D01*
X140991906Y-96068553D02*
X140958573Y-96035220D01*
X140958573Y-96035220D02*
X140891906Y-96001886D01*
X140891906Y-96001886D02*
X140725240Y-96001886D01*
X140725240Y-96001886D02*
X140658573Y-96035220D01*
X140658573Y-96035220D02*
X140625240Y-96068553D01*
X140625240Y-96068553D02*
X140591906Y-96135220D01*
X140591906Y-96135220D02*
X140591906Y-96335220D01*
X140591906Y-96335220D02*
X140625240Y-96401886D01*
X140625240Y-96401886D02*
X140658573Y-96435220D01*
X141443332Y-86333855D02*
X141709999Y-85952902D01*
X141900475Y-86333855D02*
X141900475Y-85533855D01*
X141900475Y-85533855D02*
X141595713Y-85533855D01*
X141595713Y-85533855D02*
X141519523Y-85571950D01*
X141519523Y-85571950D02*
X141481428Y-85610045D01*
X141481428Y-85610045D02*
X141443332Y-85686236D01*
X141443332Y-85686236D02*
X141443332Y-85800521D01*
X141443332Y-85800521D02*
X141481428Y-85876712D01*
X141481428Y-85876712D02*
X141519523Y-85914807D01*
X141519523Y-85914807D02*
X141595713Y-85952902D01*
X141595713Y-85952902D02*
X141900475Y-85952902D01*
X141176666Y-85533855D02*
X140681428Y-85533855D01*
X140681428Y-85533855D02*
X140948094Y-85838617D01*
X140948094Y-85838617D02*
X140833809Y-85838617D01*
X140833809Y-85838617D02*
X140757618Y-85876712D01*
X140757618Y-85876712D02*
X140719523Y-85914807D01*
X140719523Y-85914807D02*
X140681428Y-85990998D01*
X140681428Y-85990998D02*
X140681428Y-86181474D01*
X140681428Y-86181474D02*
X140719523Y-86257664D01*
X140719523Y-86257664D02*
X140757618Y-86295760D01*
X140757618Y-86295760D02*
X140833809Y-86333855D01*
X140833809Y-86333855D02*
X141062380Y-86333855D01*
X141062380Y-86333855D02*
X141138571Y-86295760D01*
X141138571Y-86295760D02*
X141176666Y-86257664D01*
X148413332Y-88883855D02*
X148679999Y-88502902D01*
X148870475Y-88883855D02*
X148870475Y-88083855D01*
X148870475Y-88083855D02*
X148565713Y-88083855D01*
X148565713Y-88083855D02*
X148489523Y-88121950D01*
X148489523Y-88121950D02*
X148451428Y-88160045D01*
X148451428Y-88160045D02*
X148413332Y-88236236D01*
X148413332Y-88236236D02*
X148413332Y-88350521D01*
X148413332Y-88350521D02*
X148451428Y-88426712D01*
X148451428Y-88426712D02*
X148489523Y-88464807D01*
X148489523Y-88464807D02*
X148565713Y-88502902D01*
X148565713Y-88502902D02*
X148870475Y-88502902D01*
X147651428Y-88883855D02*
X148108571Y-88883855D01*
X147879999Y-88883855D02*
X147879999Y-88083855D01*
X147879999Y-88083855D02*
X147956190Y-88198140D01*
X147956190Y-88198140D02*
X148032380Y-88274331D01*
X148032380Y-88274331D02*
X148108571Y-88312426D01*
X110253332Y-89963855D02*
X110519999Y-89582902D01*
X110710475Y-89963855D02*
X110710475Y-89163855D01*
X110710475Y-89163855D02*
X110405713Y-89163855D01*
X110405713Y-89163855D02*
X110329523Y-89201950D01*
X110329523Y-89201950D02*
X110291428Y-89240045D01*
X110291428Y-89240045D02*
X110253332Y-89316236D01*
X110253332Y-89316236D02*
X110253332Y-89430521D01*
X110253332Y-89430521D02*
X110291428Y-89506712D01*
X110291428Y-89506712D02*
X110329523Y-89544807D01*
X110329523Y-89544807D02*
X110405713Y-89582902D01*
X110405713Y-89582902D02*
X110710475Y-89582902D01*
X109529523Y-89163855D02*
X109910475Y-89163855D01*
X109910475Y-89163855D02*
X109948571Y-89544807D01*
X109948571Y-89544807D02*
X109910475Y-89506712D01*
X109910475Y-89506712D02*
X109834285Y-89468617D01*
X109834285Y-89468617D02*
X109643809Y-89468617D01*
X109643809Y-89468617D02*
X109567618Y-89506712D01*
X109567618Y-89506712D02*
X109529523Y-89544807D01*
X109529523Y-89544807D02*
X109491428Y-89620998D01*
X109491428Y-89620998D02*
X109491428Y-89811474D01*
X109491428Y-89811474D02*
X109529523Y-89887664D01*
X109529523Y-89887664D02*
X109567618Y-89925760D01*
X109567618Y-89925760D02*
X109643809Y-89963855D01*
X109643809Y-89963855D02*
X109834285Y-89963855D01*
X109834285Y-89963855D02*
X109910475Y-89925760D01*
X109910475Y-89925760D02*
X109948571Y-89887664D01*
X147183332Y-86333855D02*
X147449999Y-85952902D01*
X147640475Y-86333855D02*
X147640475Y-85533855D01*
X147640475Y-85533855D02*
X147335713Y-85533855D01*
X147335713Y-85533855D02*
X147259523Y-85571950D01*
X147259523Y-85571950D02*
X147221428Y-85610045D01*
X147221428Y-85610045D02*
X147183332Y-85686236D01*
X147183332Y-85686236D02*
X147183332Y-85800521D01*
X147183332Y-85800521D02*
X147221428Y-85876712D01*
X147221428Y-85876712D02*
X147259523Y-85914807D01*
X147259523Y-85914807D02*
X147335713Y-85952902D01*
X147335713Y-85952902D02*
X147640475Y-85952902D01*
X146878571Y-85610045D02*
X146840475Y-85571950D01*
X146840475Y-85571950D02*
X146764285Y-85533855D01*
X146764285Y-85533855D02*
X146573809Y-85533855D01*
X146573809Y-85533855D02*
X146497618Y-85571950D01*
X146497618Y-85571950D02*
X146459523Y-85610045D01*
X146459523Y-85610045D02*
X146421428Y-85686236D01*
X146421428Y-85686236D02*
X146421428Y-85762426D01*
X146421428Y-85762426D02*
X146459523Y-85876712D01*
X146459523Y-85876712D02*
X146916666Y-86333855D01*
X146916666Y-86333855D02*
X146421428Y-86333855D01*
X145353641Y-93030000D02*
X145046359Y-93030000D01*
X145353641Y-92270000D02*
X145046359Y-92270000D01*
X112633641Y-99400000D02*
X112326359Y-99400000D01*
X112633641Y-98640000D02*
X112326359Y-98640000D01*
X132420000Y-105733641D02*
X132420000Y-105426359D01*
X133180000Y-105733641D02*
X133180000Y-105426359D01*
X145620000Y-98989999D02*
X145620000Y-99590000D01*
X142170000Y-100290000D02*
X144970000Y-100290000D01*
X141520000Y-98990000D02*
X141520000Y-99590000D01*
X144920000Y-100290000D02*
G75*
G03*
X145620000Y-99590000I1J699999D01*
G01*
X145620000Y-98989999D02*
G75*
G03*
X145414975Y-98495025I-699996J1D01*
G01*
X141520000Y-99590000D02*
G75*
G03*
X142220000Y-100290000I700000J0D01*
G01*
X141725025Y-98495025D02*
G75*
G03*
X141520000Y-98990000I494975J-494975D01*
G01*
X109737500Y-94283641D02*
X109737500Y-93976359D01*
X110497500Y-94283641D02*
X110497500Y-93976359D01*
X145620000Y-97087500D02*
X145620000Y-96487500D01*
X144970000Y-95787500D02*
X142170000Y-95787500D01*
X141520000Y-96487500D02*
X141520000Y-97087500D01*
X145414975Y-97582475D02*
G75*
G03*
X145620000Y-97087500I-494971J494973D01*
G01*
X145620000Y-96487500D02*
G75*
G03*
X144920000Y-95787500I-699999J1D01*
G01*
X141520000Y-97087500D02*
G75*
G03*
X141725025Y-97582475I700000J0D01*
G01*
X142220000Y-95787500D02*
G75*
G03*
X141520000Y-96487500I0J-700000D01*
G01*
X113470000Y-97600000D02*
X113470000Y-97000000D01*
X112770000Y-96300000D02*
X111370000Y-96300000D01*
X111370000Y-98300000D02*
X112770000Y-98300000D01*
X110670000Y-97000000D02*
X110670000Y-97600000D01*
X112770000Y-98300000D02*
G75*
G03*
X113470000Y-97600000I1J699999D01*
G01*
X113470000Y-97000000D02*
G75*
G03*
X112770000Y-96300000I-699999J1D01*
G01*
X110670000Y-97600000D02*
G75*
G03*
X111370000Y-98300000I700000J0D01*
G01*
X111370000Y-96300000D02*
G75*
G03*
X110670000Y-97000000I0J-700000D01*
G01*
D10*
X148060000Y-90325000D02*
X148060000Y-90525000D01*
X148060000Y-90325000D02*
X152210000Y-90325000D01*
X148060000Y-95275000D02*
X146760000Y-95275000D01*
X148060000Y-95475000D02*
X148060000Y-95275000D01*
X148060000Y-95475000D02*
X152210000Y-95475000D01*
X152210000Y-90325000D02*
X152210000Y-90525000D01*
X152210000Y-95475000D02*
X152210000Y-95275000D01*
D13*
X148985000Y-94900000D02*
G75*
G03*
X148985000Y-94900000I-150000J0D01*
G01*
D11*
X128680000Y-88936359D02*
X128680000Y-89243641D01*
X127920000Y-88936359D02*
X127920000Y-89243641D01*
X147213641Y-104950000D02*
X146906359Y-104950000D01*
X147213641Y-104190000D02*
X146906359Y-104190000D01*
X141955242Y-86537500D02*
X142429758Y-86537500D01*
X141955242Y-87582500D02*
X142429758Y-87582500D01*
X136270000Y-86783641D02*
X136270000Y-86476359D01*
X137030000Y-86783641D02*
X137030000Y-86476359D01*
X111087000Y-103019641D02*
X111087000Y-102712359D01*
X111847000Y-103019641D02*
X111847000Y-102712359D01*
X129620000Y-88936359D02*
X129620000Y-89243641D01*
X128860000Y-88936359D02*
X128860000Y-89243641D01*
X146477258Y-89042500D02*
X146002742Y-89042500D01*
X146477258Y-87997500D02*
X146002742Y-87997500D01*
D14*
X110297000Y-91098000D02*
X109937000Y-91098000D01*
X109937000Y-91098000D02*
X109937000Y-90738000D01*
X109937000Y-90738000D02*
X110297000Y-90738000D01*
X110297000Y-90738000D02*
X110297000Y-91098000D01*
G36*
X110297000Y-91098000D02*
G01*
X109937000Y-91098000D01*
X109937000Y-90738000D01*
X110297000Y-90738000D01*
X110297000Y-91098000D01*
G37*
D11*
X157190000Y-92847248D02*
X157190000Y-93369752D01*
X155720000Y-92847248D02*
X155720000Y-93369752D01*
X132240000Y-105426359D02*
X132240000Y-105733641D01*
X131480000Y-105426359D02*
X131480000Y-105733641D01*
X138417836Y-101090000D02*
X138202164Y-101090000D01*
X138417836Y-100370000D02*
X138202164Y-100370000D01*
X119810000Y-108030000D02*
G75*
G03*
X119810000Y-108030000I-700000J0D01*
G01*
X125137836Y-90410000D02*
X124922164Y-90410000D01*
X125137836Y-89690000D02*
X124922164Y-89690000D01*
X130530000Y-101823641D02*
X130530000Y-101516359D01*
X131290000Y-101823641D02*
X131290000Y-101516359D01*
X126480000Y-87352164D02*
X126480000Y-87567836D01*
X125760000Y-87352164D02*
X125760000Y-87567836D01*
X121755000Y-86961360D02*
X121755000Y-87268642D01*
X120995000Y-86961360D02*
X120995000Y-87268642D01*
X130595000Y-98720000D02*
X130870000Y-98720000D01*
X130595000Y-96410000D02*
X130595000Y-98720000D01*
X130595000Y-96410000D02*
X130595000Y-94100000D01*
X140515000Y-95255000D02*
X140515000Y-94100000D01*
X130595000Y-94100000D02*
X130870000Y-94100000D01*
X140515000Y-94100000D02*
X140240000Y-94100000D01*
D13*
X140105000Y-98060000D02*
G75*
G03*
X140105000Y-98060000I-150000J0D01*
G01*
D11*
X144282064Y-95150000D02*
X143077936Y-95150000D01*
X144282064Y-93330000D02*
X143077936Y-93330000D01*
X134857836Y-92460000D02*
X134642164Y-92460000D01*
X134857836Y-91740000D02*
X134642164Y-91740000D01*
X131298000Y-105519359D02*
X131298000Y-105826641D01*
X130538000Y-105519359D02*
X130538000Y-105826641D01*
X110340000Y-99643641D02*
X110340000Y-99336359D01*
X111100000Y-99643641D02*
X111100000Y-99336359D01*
X142860000Y-92317836D02*
X142860000Y-92102164D01*
X143580000Y-92317836D02*
X143580000Y-92102164D01*
X119980000Y-86961360D02*
X119980000Y-87268642D01*
X119220000Y-86961360D02*
X119220000Y-87268642D01*
X137117836Y-92460000D02*
X136902164Y-92460000D01*
X137117836Y-91740000D02*
X136902164Y-91740000D01*
X146002742Y-86537500D02*
X146477258Y-86537500D01*
X146002742Y-87582500D02*
X146477258Y-87582500D01*
X114432000Y-106261500D02*
X129418000Y-106261500D01*
X129418000Y-106261500D02*
X129418000Y-103721500D01*
X114432000Y-103594500D02*
X114432000Y-106261500D01*
D14*
X114432000Y-100546500D02*
X114432000Y-93434500D01*
X129418000Y-100546500D02*
X129418000Y-93434500D01*
X119004000Y-91402500D02*
X116210000Y-91402500D01*
D11*
X157098641Y-101710000D02*
X156791359Y-101710000D01*
X157098641Y-100950000D02*
X156791359Y-100950000D01*
X155190000Y-101907836D02*
X155190000Y-101692164D01*
X155910000Y-101907836D02*
X155910000Y-101692164D01*
X149940000Y-98840000D02*
X147990000Y-98840000D01*
X149940000Y-98840000D02*
X151890000Y-98840000D01*
X149940000Y-103960000D02*
X146490000Y-103960000D01*
X149940000Y-103960000D02*
X151890000Y-103960000D01*
D13*
X149090000Y-103300000D02*
G75*
G03*
X149090000Y-103300000I-150000J0D01*
G01*
D11*
X135360000Y-86737836D02*
X135360000Y-86522164D01*
X136080000Y-86737836D02*
X136080000Y-86522164D01*
X117445000Y-87268642D02*
X117445000Y-86961360D01*
X118205000Y-87268642D02*
X118205000Y-86961360D01*
X147922164Y-95700000D02*
X148137836Y-95700000D01*
X147922164Y-96420000D02*
X148137836Y-96420000D01*
X150627836Y-98600000D02*
X150412164Y-98600000D01*
X150627836Y-97880000D02*
X150412164Y-97880000D01*
X130997500Y-87980000D02*
X127137500Y-87980000D01*
X130997500Y-85980000D02*
X130997500Y-87980000D01*
X130997500Y-85980000D02*
X127137500Y-85980000D01*
X133140000Y-86170000D02*
X133140000Y-90030000D01*
X131140000Y-86170000D02*
X133140000Y-86170000D01*
X131140000Y-86170000D02*
X131140000Y-90030000D01*
X127730000Y-88926359D02*
X127730000Y-89233641D01*
X126970000Y-88926359D02*
X126970000Y-89233641D01*
X157098641Y-102650000D02*
X156791359Y-102650000D01*
X157098641Y-101890000D02*
X156791359Y-101890000D01*
X110146000Y-103422641D02*
X110146000Y-103115359D01*
X110906000Y-103422641D02*
X110906000Y-103115359D01*
X146347836Y-90100000D02*
X146132164Y-90100000D01*
X146347836Y-89380000D02*
X146132164Y-89380000D01*
X147996359Y-97850000D02*
X148303641Y-97850000D01*
X147996359Y-98610000D02*
X148303641Y-98610000D01*
X112027000Y-102619641D02*
X112027000Y-102312359D01*
X112787000Y-102619641D02*
X112787000Y-102312359D01*
X135033748Y-87800000D02*
X137806252Y-87800000D01*
X135033748Y-91220000D02*
X137806252Y-91220000D01*
%LPC*%
D15*
X132175000Y-84800000D03*
D16*
X130925000Y-84800000D03*
X129675000Y-84800000D03*
X128425000Y-84800000D03*
X127175000Y-84800000D03*
X125925000Y-84800000D03*
D15*
X145200000Y-84800000D03*
D16*
X143950000Y-84800000D03*
X142700000Y-84800000D03*
D17*
X110275000Y-85860000D03*
X110758274Y-84693274D03*
X110758274Y-87026726D03*
X111925000Y-84210000D03*
D18*
X111925000Y-85860000D03*
D17*
X111925000Y-87510000D03*
X113091726Y-84693274D03*
X113091726Y-87026726D03*
X113575000Y-85860000D03*
X148575000Y-106460000D03*
X149058274Y-105293274D03*
X149058274Y-107626726D03*
X150225000Y-104810000D03*
D18*
X150225000Y-106460000D03*
D17*
X150225000Y-108110000D03*
X151391726Y-105293274D03*
X151391726Y-107626726D03*
X151875000Y-106460000D03*
D19*
X141705000Y-89510000D03*
D20*
X141705000Y-91510000D03*
D21*
X142010000Y-107510000D03*
D16*
X143260000Y-107510000D03*
X144510000Y-107510000D03*
X145760000Y-107510000D03*
D22*
X105715000Y-84735000D03*
D23*
X105715000Y-87275000D03*
X105715000Y-89815000D03*
X105715000Y-92355000D03*
X105715000Y-94895000D03*
X105715000Y-97435000D03*
X105715000Y-99975000D03*
X105715000Y-102515000D03*
X105715000Y-105055000D03*
X105715000Y-107595000D03*
D21*
X124930000Y-107510000D03*
D16*
X126180000Y-107510000D03*
X127430000Y-107510000D03*
X128680000Y-107510000D03*
X129930000Y-107510000D03*
X131180000Y-107510000D03*
D24*
X140040000Y-103150000D03*
D25*
X140040000Y-101880000D03*
X141310000Y-103150000D03*
X141310000Y-101880000D03*
X142580000Y-103150000D03*
X142580000Y-101880000D03*
X143850000Y-103150000D03*
X143850000Y-101880000D03*
X145120000Y-103150000D03*
X145120000Y-101880000D03*
D22*
X108255000Y-84735000D03*
D23*
X108255000Y-87275000D03*
X108255000Y-89815000D03*
X108255000Y-92355000D03*
X108255000Y-94895000D03*
X108255000Y-97435000D03*
X108255000Y-99975000D03*
X108255000Y-102515000D03*
X108255000Y-105055000D03*
X108255000Y-107595000D03*
D21*
X134720000Y-107510000D03*
D16*
X135970000Y-107510000D03*
X137220000Y-107510000D03*
X138470000Y-107510000D03*
D26*
X116000000Y-85932000D03*
D27*
X116000000Y-89382000D03*
D26*
X123200000Y-85932000D03*
D27*
X123200000Y-89382000D03*
D17*
X110275000Y-106460000D03*
X110758274Y-105293274D03*
X110758274Y-107626726D03*
X111925000Y-104810000D03*
D18*
X111925000Y-106460000D03*
D17*
X111925000Y-108110000D03*
X113091726Y-105293274D03*
X113091726Y-107626726D03*
X113575000Y-106460000D03*
D24*
X112900000Y-95200000D03*
D25*
X111630000Y-95200000D03*
X112900000Y-93930000D03*
X111630000Y-93930000D03*
X112900000Y-92660000D03*
X111630000Y-92660000D03*
X112900000Y-91390000D03*
X111630000Y-91390000D03*
X112900000Y-90120000D03*
X111630000Y-90120000D03*
D17*
X148575000Y-85860000D03*
X149058274Y-84693274D03*
X149058274Y-87026726D03*
X150225000Y-84210000D03*
D18*
X150225000Y-85860000D03*
D17*
X150225000Y-87510000D03*
X151391726Y-84693274D03*
X151391726Y-87026726D03*
X151875000Y-85860000D03*
D15*
X138690000Y-84800000D03*
D16*
X137440000Y-84800000D03*
X136190000Y-84800000D03*
D22*
X103175000Y-84735000D03*
D23*
X103175000Y-87275000D03*
X103175000Y-89815000D03*
X103175000Y-92355000D03*
X103175000Y-94895000D03*
X103175000Y-97435000D03*
X103175000Y-99975000D03*
X103175000Y-102515000D03*
X103175000Y-105055000D03*
X103175000Y-107595000D03*
D28*
X145710000Y-92650000D03*
X144690000Y-92650000D03*
X112990000Y-99020000D03*
X111970000Y-99020000D03*
D29*
X132800000Y-106090000D03*
X132800000Y-105070000D03*
D30*
X144870000Y-99290000D03*
D31*
X143570000Y-99290000D03*
D32*
X142270000Y-99290000D03*
D29*
X110117500Y-94640000D03*
X110117500Y-93620000D03*
D30*
X144870000Y-96787500D03*
D31*
X143570000Y-96787500D03*
D32*
X142270000Y-96787500D03*
D33*
X112720000Y-97300000D03*
D34*
X111420000Y-97300000D03*
D35*
X147355000Y-94805000D03*
X147355000Y-93535000D03*
X147355000Y-92265000D03*
X147355000Y-90995000D03*
X152915000Y-90995000D03*
X152915000Y-92265000D03*
X152915000Y-93535000D03*
X152915000Y-94805000D03*
D36*
X149532500Y-92125000D03*
X149532500Y-93675000D03*
X150737500Y-92125000D03*
X150737500Y-93675000D03*
D37*
X128300000Y-88580000D03*
X128300000Y-89600000D03*
D28*
X147570000Y-104570000D03*
X146550000Y-104570000D03*
D38*
X141367500Y-87060000D03*
X143017500Y-87060000D03*
D29*
X136650000Y-87140000D03*
X136650000Y-86120000D03*
X111467000Y-103376000D03*
X111467000Y-102356000D03*
D37*
X129240000Y-88580000D03*
X129240000Y-89600000D03*
D39*
X147065000Y-88520000D03*
X145415000Y-88520000D03*
D29*
X110117000Y-91428000D03*
X110117000Y-90408000D03*
D40*
X156455000Y-92158500D03*
X156455000Y-94058500D03*
D37*
X131860000Y-105070000D03*
X131860000Y-106090000D03*
D41*
X138790000Y-100730000D03*
X137830000Y-100730000D03*
D42*
X119110000Y-108030000D03*
D43*
X135790000Y-102660000D03*
X137990000Y-102660000D03*
X137990000Y-104360000D03*
X135790000Y-104360000D03*
D41*
X125510000Y-90050000D03*
X124550000Y-90050000D03*
D29*
X130910000Y-102180000D03*
X130910000Y-101160000D03*
D44*
X126120000Y-86980000D03*
X126120000Y-87940000D03*
D37*
X121375000Y-86605001D03*
X121375000Y-87625001D03*
D45*
X139780000Y-99272500D03*
X139130000Y-99272500D03*
X138480000Y-99272500D03*
X137830000Y-99272500D03*
X137180000Y-99272500D03*
X136530000Y-99272500D03*
X135880000Y-99272500D03*
X135230000Y-99272500D03*
X134580000Y-99272500D03*
X133930000Y-99272500D03*
X133280000Y-99272500D03*
X132630000Y-99272500D03*
X131980000Y-99272500D03*
X131330000Y-99272500D03*
X131330000Y-93547500D03*
X131980000Y-93547500D03*
X132630000Y-93547500D03*
X133280000Y-93547500D03*
X133930000Y-93547500D03*
X134580000Y-93547500D03*
X135230000Y-93547500D03*
X135880000Y-93547500D03*
X136530000Y-93547500D03*
X137180000Y-93547500D03*
X137830000Y-93547500D03*
X138480000Y-93547500D03*
X139130000Y-93547500D03*
X139780000Y-93547500D03*
D46*
X135555000Y-96410000D03*
D47*
X145167500Y-94240000D03*
X142192500Y-94240000D03*
D41*
X135230000Y-92100000D03*
X134270000Y-92100000D03*
D37*
X130918000Y-105163000D03*
X130918000Y-106183000D03*
D29*
X110720000Y-100000000D03*
X110720000Y-98980000D03*
D48*
X143220000Y-92690000D03*
X143220000Y-91730000D03*
D37*
X119600000Y-86605001D03*
X119600000Y-87625001D03*
D41*
X137490000Y-92100000D03*
X136530000Y-92100000D03*
D38*
X145415000Y-87060000D03*
X147065000Y-87060000D03*
D49*
X119798000Y-91393500D03*
X120898000Y-91393500D03*
X121998000Y-91393500D03*
X123098000Y-91393500D03*
X124198000Y-91393500D03*
X125298000Y-91393500D03*
X126398000Y-91393500D03*
X127498000Y-91393500D03*
X128598000Y-91393500D03*
D50*
X114178000Y-101943500D03*
X129698000Y-101943500D03*
D51*
X115018000Y-92243500D03*
X129698000Y-92243500D03*
D28*
X157455000Y-101330000D03*
X156435000Y-101330000D03*
D48*
X155550000Y-102280000D03*
X155550000Y-101320000D03*
D52*
X147465000Y-103305000D03*
X147465000Y-102035000D03*
X147465000Y-100765000D03*
X147465000Y-99495000D03*
X152415000Y-99495000D03*
X152415000Y-100765000D03*
X152415000Y-102035000D03*
X152415000Y-103305000D03*
D48*
X135720000Y-87110000D03*
X135720000Y-86150000D03*
D29*
X117825000Y-87625001D03*
X117825000Y-86605001D03*
D53*
X147550000Y-96060000D03*
X148510000Y-96060000D03*
D41*
X151000000Y-98240000D03*
X150040000Y-98240000D03*
D54*
X134030000Y-103667500D03*
X132130000Y-103667500D03*
X133080000Y-101792500D03*
D55*
X130187500Y-86980000D03*
X127387500Y-86980000D03*
D56*
X132140000Y-86980000D03*
X132140000Y-89780000D03*
D37*
X127350000Y-88570000D03*
X127350000Y-89590000D03*
D28*
X157455000Y-102270000D03*
X156435000Y-102270000D03*
D29*
X110526000Y-103779000D03*
X110526000Y-102759000D03*
D41*
X146720000Y-89740000D03*
X145760000Y-89740000D03*
D57*
X147640000Y-98230000D03*
X148660000Y-98230000D03*
D29*
X112407000Y-102976000D03*
X112407000Y-101956000D03*
D58*
X134195000Y-89510000D03*
X138645000Y-89510000D03*
%LPD*%
M02*
