G04 #@! TF.GenerationSoftware,KiCad,Pcbnew,7.0.6*
G04 #@! TF.CreationDate,2023-12-21T17:10:59+03:00*
G04 #@! TF.ProjectId,Penguin Junior,50656e67-7569-46e2-904a-756e696f722e,rev?*
G04 #@! TF.SameCoordinates,Original*
G04 #@! TF.FileFunction,Legend,Top*
G04 #@! TF.FilePolarity,Positive*
%FSLAX46Y46*%
G04 Gerber Fmt 4.6, Leading zero omitted, Abs format (unit mm)*
G04 Created by KiCad (PCBNEW 7.0.6) date 2023-12-21 17:10:59*
%MOMM*%
%LPD*%
G01*
G04 APERTURE LIST*
G04 Aperture macros list*
%AMRoundRect*
0 Rectangle with rounded corners*
0 $1 Rounding radius*
0 $2 $3 $4 $5 $6 $7 $8 $9 X,Y pos of 4 corners*
0 Add a 4 corners polygon primitive as box body*
4,1,4,$2,$3,$4,$5,$6,$7,$8,$9,$2,$3,0*
0 Add four circle primitives for the rounded corners*
1,1,$1+$1,$2,$3*
1,1,$1+$1,$4,$5*
1,1,$1+$1,$6,$7*
1,1,$1+$1,$8,$9*
0 Add four rect primitives between the rounded corners*
20,1,$1+$1,$2,$3,$4,$5,0*
20,1,$1+$1,$4,$5,$6,$7,0*
20,1,$1+$1,$6,$7,$8,$9,0*
20,1,$1+$1,$8,$9,$2,$3,0*%
G04 Aperture macros list end*
%ADD10C,0.100000*%
%ADD11C,0.120000*%
%ADD12C,0.150000*%
%ADD13C,0.350000*%
%ADD14C,0.300000*%
%ADD15RoundRect,0.200000X0.200000X0.450000X-0.200000X0.450000X-0.200000X-0.450000X0.200000X-0.450000X0*%
%ADD16O,0.800000X1.300000*%
%ADD17RoundRect,0.140000X-0.170000X0.140000X-0.170000X-0.140000X0.170000X-0.140000X0.170000X0.140000X0*%
%ADD18RoundRect,0.250000X0.425000X-0.450000X0.425000X0.450000X-0.425000X0.450000X-0.425000X-0.450000X0*%
%ADD19RoundRect,0.140000X-0.021213X0.219203X-0.219203X0.021213X0.021213X-0.219203X0.219203X-0.021213X0*%
%ADD20RoundRect,0.218750X-0.218750X-0.256250X0.218750X-0.256250X0.218750X0.256250X-0.218750X0.256250X0*%
%ADD21RoundRect,0.250000X1.000000X0.900000X-1.000000X0.900000X-1.000000X-0.900000X1.000000X-0.900000X0*%
%ADD22RoundRect,1.250000X-2.250000X1.250000X-2.250000X-1.250000X2.250000X-1.250000X2.250000X1.250000X0*%
%ADD23C,0.700000*%
%ADD24C,4.400000*%
%ADD25RoundRect,1.750000X-1.750000X-1.750000X1.750000X-1.750000X1.750000X1.750000X-1.750000X1.750000X0*%
%ADD26RoundRect,0.075000X0.075000X-0.700000X0.075000X0.700000X-0.075000X0.700000X-0.075000X-0.700000X0*%
%ADD27RoundRect,0.075000X0.700000X-0.075000X0.700000X0.075000X-0.700000X0.075000X-0.700000X-0.075000X0*%
%ADD28RoundRect,0.218750X-0.256250X0.218750X-0.256250X-0.218750X0.256250X-0.218750X0.256250X0.218750X0*%
%ADD29R,1.600000X1.600000*%
%ADD30C,1.600000*%
%ADD31RoundRect,0.140000X0.170000X-0.140000X0.170000X0.140000X-0.170000X0.140000X-0.170000X-0.140000X0*%
%ADD32RoundRect,0.200000X-0.200000X-0.450000X0.200000X-0.450000X0.200000X0.450000X-0.200000X0.450000X0*%
%ADD33RoundRect,0.250000X-1.100000X0.325000X-1.100000X-0.325000X1.100000X-0.325000X1.100000X0.325000X0*%
%ADD34R,1.700000X1.700000*%
%ADD35O,1.700000X1.700000*%
%ADD36RoundRect,0.135000X0.185000X-0.135000X0.185000X0.135000X-0.185000X0.135000X-0.185000X-0.135000X0*%
%ADD37RoundRect,0.135000X0.135000X0.185000X-0.135000X0.185000X-0.135000X-0.185000X0.135000X-0.185000X0*%
%ADD38R,1.000000X1.000000*%
%ADD39O,1.000000X1.000000*%
%ADD40R,1.900000X2.500000*%
%ADD41RoundRect,0.140000X0.219203X0.021213X0.021213X0.219203X-0.219203X-0.021213X-0.021213X-0.219203X0*%
%ADD42RoundRect,0.250000X0.750000X0.250000X-0.750000X0.250000X-0.750000X-0.250000X0.750000X-0.250000X0*%
%ADD43RoundRect,0.140000X0.140000X0.170000X-0.140000X0.170000X-0.140000X-0.170000X0.140000X-0.170000X0*%
%ADD44R,0.400000X1.800000*%
%ADD45O,1.090000X2.000000*%
%ADD46O,1.050000X1.600000*%
%ADD47RoundRect,0.135000X-0.135000X-0.185000X0.135000X-0.185000X0.135000X0.185000X-0.135000X0.185000X0*%
%ADD48R,1.500000X0.550000*%
%ADD49RoundRect,0.140000X-0.140000X-0.170000X0.140000X-0.170000X0.140000X0.170000X-0.140000X0.170000X0*%
%ADD50R,1.400000X1.200000*%
%ADD51RoundRect,0.218750X0.218750X0.256250X-0.218750X0.256250X-0.218750X-0.256250X0.218750X-0.256250X0*%
%ADD52R,2.000000X1.500000*%
%ADD53R,2.000000X3.800000*%
%ADD54RoundRect,0.062500X0.525000X0.062500X-0.525000X0.062500X-0.525000X-0.062500X0.525000X-0.062500X0*%
%ADD55RoundRect,0.062500X0.062500X-0.525000X0.062500X0.525000X-0.062500X0.525000X-0.062500X-0.525000X0*%
%ADD56RoundRect,0.135000X-0.185000X0.135000X-0.185000X-0.135000X0.185000X-0.135000X0.185000X0.135000X0*%
%ADD57RoundRect,0.135000X0.035355X-0.226274X0.226274X-0.035355X-0.035355X0.226274X-0.226274X0.035355X0*%
G04 APERTURE END LIST*
D10*
X101905000Y-83460000D02*
X159155000Y-83460000D01*
D11*
X126470000Y-87430000D02*
X128270000Y-87430000D01*
X128270000Y-89130000D01*
X126470000Y-89130000D01*
X126470000Y-87430000D01*
D12*
G36*
X114740251Y-108008499D02*
G01*
X114751596Y-108011668D01*
X114762610Y-108015189D01*
X114773295Y-108019064D01*
X114783650Y-108023291D01*
X114793674Y-108027872D01*
X114803368Y-108032805D01*
X114812733Y-108038092D01*
X114821767Y-108043731D01*
X114830471Y-108049724D01*
X114838845Y-108056069D01*
X114846888Y-108062768D01*
X114854602Y-108069819D01*
X114861986Y-108077224D01*
X114869039Y-108084982D01*
X114875763Y-108093092D01*
X114882156Y-108101556D01*
X114888189Y-108110260D01*
X114893834Y-108119153D01*
X114899089Y-108128234D01*
X114903954Y-108137505D01*
X114908431Y-108146965D01*
X114912518Y-108156613D01*
X114916216Y-108166451D01*
X114919525Y-108176477D01*
X114922444Y-108186692D01*
X114924975Y-108197097D01*
X114927116Y-108207690D01*
X114928867Y-108218472D01*
X114930230Y-108229443D01*
X114931203Y-108240602D01*
X114931787Y-108251951D01*
X114931981Y-108263489D01*
X114931608Y-108280598D01*
X114930489Y-108297305D01*
X114928624Y-108313609D01*
X114926013Y-108329511D01*
X114922655Y-108345010D01*
X114918552Y-108360106D01*
X114913702Y-108374799D01*
X114908107Y-108389091D01*
X114901765Y-108402979D01*
X114894677Y-108416465D01*
X114886843Y-108429548D01*
X114878263Y-108442229D01*
X114868937Y-108454507D01*
X114858865Y-108466382D01*
X114848047Y-108477855D01*
X114836482Y-108488925D01*
X114824366Y-108499424D01*
X114811890Y-108509247D01*
X114799056Y-108518391D01*
X114785863Y-108526859D01*
X114772311Y-108534649D01*
X114758401Y-108541761D01*
X114744132Y-108548197D01*
X114729504Y-108553954D01*
X114714517Y-108559035D01*
X114699172Y-108563438D01*
X114683468Y-108567164D01*
X114667405Y-108570212D01*
X114650984Y-108572583D01*
X114634204Y-108574276D01*
X114617065Y-108575292D01*
X114599567Y-108575631D01*
X114581975Y-108575330D01*
X114564797Y-108574425D01*
X114548033Y-108572918D01*
X114531683Y-108570807D01*
X114515747Y-108568094D01*
X114500225Y-108564778D01*
X114485117Y-108560858D01*
X114470423Y-108556336D01*
X114456144Y-108551211D01*
X114442278Y-108545482D01*
X114428827Y-108539151D01*
X114415789Y-108532217D01*
X114403166Y-108524680D01*
X114390957Y-108516540D01*
X114379162Y-108507796D01*
X114367780Y-108498450D01*
X114356958Y-108488608D01*
X114346779Y-108478377D01*
X114337243Y-108467756D01*
X114328350Y-108456746D01*
X114320101Y-108445347D01*
X114312494Y-108433558D01*
X114305530Y-108421380D01*
X114299209Y-108408813D01*
X114293532Y-108395857D01*
X114288497Y-108382511D01*
X114284105Y-108368776D01*
X114280357Y-108354652D01*
X114277251Y-108340139D01*
X114274789Y-108325236D01*
X114272969Y-108309944D01*
X114271793Y-108294263D01*
X114405882Y-108294263D01*
X114406322Y-108307281D01*
X114407643Y-108319955D01*
X114409843Y-108332285D01*
X114412923Y-108344272D01*
X114416884Y-108355916D01*
X114421725Y-108367216D01*
X114427446Y-108378172D01*
X114434047Y-108388785D01*
X114441528Y-108399055D01*
X114449889Y-108408981D01*
X114455952Y-108415408D01*
X114465764Y-108424487D01*
X114476331Y-108432673D01*
X114487654Y-108439966D01*
X114499733Y-108446366D01*
X114512567Y-108451872D01*
X114526157Y-108456486D01*
X114535636Y-108459066D01*
X114545452Y-108461249D01*
X114555603Y-108463035D01*
X114566090Y-108464424D01*
X114576913Y-108465416D01*
X114588072Y-108466012D01*
X114599567Y-108466210D01*
X114610750Y-108465992D01*
X114621648Y-108465336D01*
X114632259Y-108464244D01*
X114642584Y-108462715D01*
X114652623Y-108460748D01*
X114662375Y-108458345D01*
X114671842Y-108455505D01*
X114685505Y-108450425D01*
X114698523Y-108444362D01*
X114710898Y-108437316D01*
X114722629Y-108429287D01*
X114733716Y-108420274D01*
X114744159Y-108410279D01*
X114753805Y-108399456D01*
X114762503Y-108388053D01*
X114770251Y-108376072D01*
X114777051Y-108363510D01*
X114782902Y-108350369D01*
X114787805Y-108336648D01*
X114790546Y-108327179D01*
X114792865Y-108317452D01*
X114794763Y-108307468D01*
X114796239Y-108297226D01*
X114797293Y-108286726D01*
X114797925Y-108275969D01*
X114798136Y-108264954D01*
X114797917Y-108253730D01*
X114797259Y-108242835D01*
X114796161Y-108232268D01*
X114794625Y-108222028D01*
X114792650Y-108212118D01*
X114790237Y-108202535D01*
X114785793Y-108188776D01*
X114780362Y-108175756D01*
X114773943Y-108163474D01*
X114766537Y-108151931D01*
X114758144Y-108141126D01*
X114748763Y-108131059D01*
X114741960Y-108124759D01*
X114731025Y-108115942D01*
X114719191Y-108107992D01*
X114706461Y-108100909D01*
X114697476Y-108096669D01*
X114688091Y-108092815D01*
X114678308Y-108089346D01*
X114668126Y-108086262D01*
X114657546Y-108083564D01*
X114646566Y-108081252D01*
X114635188Y-108079324D01*
X114623411Y-108077783D01*
X114611235Y-108076626D01*
X114598660Y-108075855D01*
X114585687Y-108075470D01*
X114579050Y-108075422D01*
X114529469Y-108075422D01*
X114529469Y-107966001D01*
X114559023Y-107966001D01*
X114570593Y-107965841D01*
X114581796Y-107965361D01*
X114592632Y-107964560D01*
X114603101Y-107963440D01*
X114613202Y-107962000D01*
X114622936Y-107960239D01*
X114641302Y-107955758D01*
X114658198Y-107949996D01*
X114673626Y-107942954D01*
X114687584Y-107934632D01*
X114700073Y-107925029D01*
X114711092Y-107914146D01*
X114720643Y-107901983D01*
X114728724Y-107888539D01*
X114735335Y-107873814D01*
X114740478Y-107857810D01*
X114744151Y-107840525D01*
X114746355Y-107821960D01*
X114746906Y-107812197D01*
X114747090Y-107802114D01*
X114746727Y-107788901D01*
X114745638Y-107776280D01*
X114743824Y-107764251D01*
X114741285Y-107752815D01*
X114738020Y-107741972D01*
X114734029Y-107731720D01*
X114729313Y-107722062D01*
X114723871Y-107712996D01*
X114717704Y-107704522D01*
X114710811Y-107696641D01*
X114705812Y-107691716D01*
X114697820Y-107684863D01*
X114689232Y-107678684D01*
X114680046Y-107673180D01*
X114670264Y-107668349D01*
X114659885Y-107664192D01*
X114648909Y-107660710D01*
X114637336Y-107657901D01*
X114625167Y-107655767D01*
X114612400Y-107654306D01*
X114599037Y-107653520D01*
X114589797Y-107653370D01*
X114571094Y-107653981D01*
X114553455Y-107655812D01*
X114536878Y-107658866D01*
X114521363Y-107663140D01*
X114506912Y-107668635D01*
X114493523Y-107675352D01*
X114481198Y-107683290D01*
X114469935Y-107692449D01*
X114459735Y-107702829D01*
X114450598Y-107714431D01*
X114442523Y-107727254D01*
X114435512Y-107741297D01*
X114429563Y-107756563D01*
X114424678Y-107773049D01*
X114420855Y-107790757D01*
X114418094Y-107809685D01*
X114284982Y-107809685D01*
X114287051Y-107793715D01*
X114289657Y-107778228D01*
X114292799Y-107763223D01*
X114296477Y-107748701D01*
X114300691Y-107734662D01*
X114305441Y-107721105D01*
X114310728Y-107708032D01*
X114316550Y-107695441D01*
X114322909Y-107683333D01*
X114329804Y-107671707D01*
X114337236Y-107660565D01*
X114345203Y-107649905D01*
X114353707Y-107639728D01*
X114362747Y-107630033D01*
X114372323Y-107620822D01*
X114382435Y-107612093D01*
X114392995Y-107603841D01*
X114403852Y-107596122D01*
X114415007Y-107588935D01*
X114426460Y-107582280D01*
X114438210Y-107576158D01*
X114450258Y-107570568D01*
X114462604Y-107565510D01*
X114475247Y-107560985D01*
X114488188Y-107556992D01*
X114501427Y-107553532D01*
X114514963Y-107550604D01*
X114528797Y-107548208D01*
X114542929Y-107546345D01*
X114557359Y-107545014D01*
X114572086Y-107544215D01*
X114587110Y-107543949D01*
X114603748Y-107544232D01*
X114619953Y-107545079D01*
X114635728Y-107546491D01*
X114651072Y-107548468D01*
X114665984Y-107551009D01*
X114680465Y-107554116D01*
X114694514Y-107557787D01*
X114708133Y-107562023D01*
X114721320Y-107566824D01*
X114734076Y-107572190D01*
X114746401Y-107578120D01*
X114758294Y-107584616D01*
X114769756Y-107591676D01*
X114780787Y-107599301D01*
X114791387Y-107607491D01*
X114801556Y-107616245D01*
X114811198Y-107625414D01*
X114820217Y-107634907D01*
X114828615Y-107644724D01*
X114836391Y-107654866D01*
X114843544Y-107665332D01*
X114850076Y-107676123D01*
X114855986Y-107687238D01*
X114861273Y-107698677D01*
X114865938Y-107710441D01*
X114869982Y-107722529D01*
X114873403Y-107734941D01*
X114876202Y-107747678D01*
X114878380Y-107760740D01*
X114879935Y-107774125D01*
X114880868Y-107787835D01*
X114881179Y-107801870D01*
X114880874Y-107813760D01*
X114879960Y-107825526D01*
X114878435Y-107837167D01*
X114876302Y-107848684D01*
X114873558Y-107860077D01*
X114870205Y-107871344D01*
X114866242Y-107882488D01*
X114861670Y-107893507D01*
X114856488Y-107904401D01*
X114850696Y-107915171D01*
X114846496Y-107922281D01*
X114839669Y-107932626D01*
X114832194Y-107942503D01*
X114824070Y-107951912D01*
X114815298Y-107960853D01*
X114805878Y-107969326D01*
X114795809Y-107977331D01*
X114785092Y-107984867D01*
X114773727Y-107991936D01*
X114761714Y-107998537D01*
X114749052Y-108004670D01*
X114740251Y-108008499D01*
G37*
G36*
X126847564Y-91290000D02*
G01*
X126718360Y-91290000D01*
X126718360Y-90516482D01*
X126708224Y-90523078D01*
X126697420Y-90529248D01*
X126685945Y-90534992D01*
X126673801Y-90540311D01*
X126660986Y-90545205D01*
X126647502Y-90549673D01*
X126633349Y-90553715D01*
X126618525Y-90557332D01*
X126603032Y-90560523D01*
X126586869Y-90563289D01*
X126570036Y-90565630D01*
X126552534Y-90567544D01*
X126534362Y-90569034D01*
X126515520Y-90570098D01*
X126496008Y-90570736D01*
X126486001Y-90570895D01*
X126475826Y-90570949D01*
X126475826Y-90461528D01*
X126490451Y-90461345D01*
X126504681Y-90460795D01*
X126518516Y-90459879D01*
X126531956Y-90458597D01*
X126545002Y-90456948D01*
X126557652Y-90454933D01*
X126569907Y-90452552D01*
X126581767Y-90449804D01*
X126593232Y-90446690D01*
X126604302Y-90443210D01*
X126614977Y-90439363D01*
X126625257Y-90435150D01*
X126635142Y-90430570D01*
X126644633Y-90425624D01*
X126653728Y-90420312D01*
X126662428Y-90414633D01*
X126670733Y-90408588D01*
X126678643Y-90402177D01*
X126686159Y-90395399D01*
X126693279Y-90388255D01*
X126700004Y-90380744D01*
X126706334Y-90372868D01*
X126712270Y-90364624D01*
X126717810Y-90356015D01*
X126722955Y-90347039D01*
X126727706Y-90337697D01*
X126732061Y-90327988D01*
X126736021Y-90317913D01*
X126739587Y-90307472D01*
X126742757Y-90296664D01*
X126745533Y-90285490D01*
X126747913Y-90273949D01*
X126847564Y-90273949D01*
X126847564Y-91290000D01*
G37*
G36*
X127808904Y-91290000D02*
G01*
X127141877Y-91290000D01*
X127142099Y-91278735D01*
X127142766Y-91267533D01*
X127143877Y-91256394D01*
X127145433Y-91245318D01*
X127147434Y-91234305D01*
X127149879Y-91223356D01*
X127152769Y-91212469D01*
X127156104Y-91201645D01*
X127159883Y-91190884D01*
X127164107Y-91180186D01*
X127168775Y-91169551D01*
X127173888Y-91158978D01*
X127179445Y-91148469D01*
X127185447Y-91138023D01*
X127191894Y-91127640D01*
X127198785Y-91117320D01*
X127206301Y-91106853D01*
X127214558Y-91096090D01*
X127223558Y-91085031D01*
X127233300Y-91073677D01*
X127243784Y-91062026D01*
X127255011Y-91050081D01*
X127266980Y-91037839D01*
X127279691Y-91025301D01*
X127293144Y-91012468D01*
X127307340Y-90999339D01*
X127314716Y-90992664D01*
X127322278Y-90985914D01*
X127330025Y-90979091D01*
X127337958Y-90972194D01*
X127346076Y-90965223D01*
X127354380Y-90958177D01*
X127362870Y-90951058D01*
X127371545Y-90943865D01*
X127380406Y-90936598D01*
X127389452Y-90929258D01*
X127398684Y-90921843D01*
X127408101Y-90914354D01*
X127417518Y-90906861D01*
X127426747Y-90899463D01*
X127435788Y-90892160D01*
X127444642Y-90884953D01*
X127453309Y-90877842D01*
X127461788Y-90870825D01*
X127470080Y-90863904D01*
X127478184Y-90857079D01*
X127486100Y-90850349D01*
X127493830Y-90843714D01*
X127501371Y-90837175D01*
X127508726Y-90830731D01*
X127522872Y-90818130D01*
X127536268Y-90805910D01*
X127548914Y-90794072D01*
X127560810Y-90782616D01*
X127571957Y-90771541D01*
X127582353Y-90760847D01*
X127592000Y-90750536D01*
X127600897Y-90740606D01*
X127609044Y-90731057D01*
X127616441Y-90721891D01*
X127623273Y-90712839D01*
X127629664Y-90703637D01*
X127635615Y-90694285D01*
X127641124Y-90684781D01*
X127646193Y-90675127D01*
X127650822Y-90665322D01*
X127655009Y-90655366D01*
X127658756Y-90645259D01*
X127662061Y-90635002D01*
X127664927Y-90624594D01*
X127667351Y-90614035D01*
X127669334Y-90603326D01*
X127670877Y-90592466D01*
X127671979Y-90581455D01*
X127672640Y-90570293D01*
X127672861Y-90558981D01*
X127672673Y-90548889D01*
X127672109Y-90539071D01*
X127670558Y-90524855D01*
X127668162Y-90511253D01*
X127664920Y-90498265D01*
X127660832Y-90485891D01*
X127655898Y-90474131D01*
X127650118Y-90462985D01*
X127643493Y-90452452D01*
X127636022Y-90442534D01*
X127627705Y-90433230D01*
X127624745Y-90430265D01*
X127615380Y-90421884D01*
X127605327Y-90414328D01*
X127594588Y-90407596D01*
X127583162Y-90401688D01*
X127571050Y-90396605D01*
X127558250Y-90392346D01*
X127544763Y-90388911D01*
X127530589Y-90386301D01*
X127520758Y-90385019D01*
X127510622Y-90384103D01*
X127500181Y-90383553D01*
X127489434Y-90383370D01*
X127475474Y-90383789D01*
X127461897Y-90385044D01*
X127448701Y-90387137D01*
X127435888Y-90390068D01*
X127423456Y-90393835D01*
X127411407Y-90398440D01*
X127399740Y-90403881D01*
X127388455Y-90410160D01*
X127377552Y-90417277D01*
X127367031Y-90425230D01*
X127360230Y-90430997D01*
X127350611Y-90440320D01*
X127341811Y-90450429D01*
X127333832Y-90461323D01*
X127326673Y-90473003D01*
X127320334Y-90485469D01*
X127314815Y-90498720D01*
X127311591Y-90507991D01*
X127308732Y-90517611D01*
X127306237Y-90527580D01*
X127304106Y-90537898D01*
X127302340Y-90548566D01*
X127300939Y-90559583D01*
X127299902Y-90570949D01*
X127166057Y-90570949D01*
X127167726Y-90554247D01*
X127169988Y-90537972D01*
X127172840Y-90522122D01*
X127176284Y-90506697D01*
X127180320Y-90491698D01*
X127184947Y-90477125D01*
X127190166Y-90462977D01*
X127195976Y-90449255D01*
X127202378Y-90435958D01*
X127209372Y-90423086D01*
X127216957Y-90410640D01*
X127225133Y-90398620D01*
X127233901Y-90387025D01*
X127243260Y-90375856D01*
X127253211Y-90365112D01*
X127263754Y-90354794D01*
X127274836Y-90345004D01*
X127286346Y-90335846D01*
X127298284Y-90327319D01*
X127310648Y-90319424D01*
X127323441Y-90312161D01*
X127336660Y-90305529D01*
X127350307Y-90299529D01*
X127364382Y-90294160D01*
X127378884Y-90289423D01*
X127393813Y-90285318D01*
X127409170Y-90281844D01*
X127424954Y-90279002D01*
X127441166Y-90276791D01*
X127457805Y-90275212D01*
X127474871Y-90274265D01*
X127492365Y-90273949D01*
X127510903Y-90274260D01*
X127528902Y-90275193D01*
X127546364Y-90276749D01*
X127563287Y-90278926D01*
X127579672Y-90281725D01*
X127595520Y-90285146D01*
X127610829Y-90289190D01*
X127625600Y-90293855D01*
X127639833Y-90299143D01*
X127653527Y-90305052D01*
X127666684Y-90311584D01*
X127679303Y-90318737D01*
X127691383Y-90326513D01*
X127702925Y-90334911D01*
X127713930Y-90343931D01*
X127724396Y-90353572D01*
X127734304Y-90363652D01*
X127743573Y-90374047D01*
X127752202Y-90384756D01*
X127760193Y-90395781D01*
X127767544Y-90407120D01*
X127774256Y-90418774D01*
X127780328Y-90430743D01*
X127785762Y-90443026D01*
X127790556Y-90455625D01*
X127794711Y-90468538D01*
X127798227Y-90481767D01*
X127801103Y-90495310D01*
X127803341Y-90509168D01*
X127804939Y-90523340D01*
X127805898Y-90537828D01*
X127806217Y-90552630D01*
X127805981Y-90566057D01*
X127805271Y-90579287D01*
X127804088Y-90592321D01*
X127802431Y-90605158D01*
X127800302Y-90617798D01*
X127797699Y-90630242D01*
X127794623Y-90642490D01*
X127791074Y-90654541D01*
X127787052Y-90666395D01*
X127782556Y-90678053D01*
X127777587Y-90689514D01*
X127772145Y-90700779D01*
X127766230Y-90711847D01*
X127759842Y-90722719D01*
X127752980Y-90733394D01*
X127745645Y-90743872D01*
X127737637Y-90754475D01*
X127728697Y-90765583D01*
X127718823Y-90777197D01*
X127708016Y-90789317D01*
X127696276Y-90801942D01*
X127683603Y-90815073D01*
X127669997Y-90828710D01*
X127662845Y-90835718D01*
X127655458Y-90842852D01*
X127647839Y-90850113D01*
X127639986Y-90857500D01*
X127631900Y-90865013D01*
X127623581Y-90872653D01*
X127615028Y-90880420D01*
X127606242Y-90888313D01*
X127597223Y-90896332D01*
X127587971Y-90904477D01*
X127578485Y-90912749D01*
X127568766Y-90921148D01*
X127558814Y-90929673D01*
X127548629Y-90938324D01*
X127538210Y-90947102D01*
X127527558Y-90956006D01*
X127516673Y-90965037D01*
X127505554Y-90974193D01*
X127494506Y-90983312D01*
X127483802Y-90992226D01*
X127473442Y-91000937D01*
X127463426Y-91009445D01*
X127453754Y-91017748D01*
X127444426Y-91025848D01*
X127435442Y-91033744D01*
X127426801Y-91041437D01*
X127418505Y-91048925D01*
X127410552Y-91056210D01*
X127402944Y-91063292D01*
X127395679Y-91070169D01*
X127382182Y-91083314D01*
X127370061Y-91095643D01*
X127359315Y-91107158D01*
X127349945Y-91117858D01*
X127341951Y-91127743D01*
X127335332Y-91136813D01*
X127330090Y-91145069D01*
X127324805Y-91155925D01*
X127322616Y-91164947D01*
X127808904Y-91164947D01*
X127808904Y-91290000D01*
G37*
G36*
X128268080Y-90289581D02*
G01*
X127976943Y-91290000D01*
X127877292Y-91290000D01*
X128168429Y-90289581D01*
X128268080Y-90289581D01*
G37*
G36*
X128976385Y-91290000D02*
G01*
X128309357Y-91290000D01*
X128309580Y-91278735D01*
X128310247Y-91267533D01*
X128311358Y-91256394D01*
X128312914Y-91245318D01*
X128314915Y-91234305D01*
X128317360Y-91223356D01*
X128320250Y-91212469D01*
X128323585Y-91201645D01*
X128327364Y-91190884D01*
X128331587Y-91180186D01*
X128336256Y-91169551D01*
X128341369Y-91158978D01*
X128346926Y-91148469D01*
X128352928Y-91138023D01*
X128359375Y-91127640D01*
X128366266Y-91117320D01*
X128373781Y-91106853D01*
X128382039Y-91096090D01*
X128391039Y-91085031D01*
X128400781Y-91073677D01*
X128411265Y-91062026D01*
X128422492Y-91050081D01*
X128434460Y-91037839D01*
X128447172Y-91025301D01*
X128460625Y-91012468D01*
X128474821Y-90999339D01*
X128482197Y-90992664D01*
X128489759Y-90985914D01*
X128497506Y-90979091D01*
X128505439Y-90972194D01*
X128513557Y-90965223D01*
X128521861Y-90958177D01*
X128530351Y-90951058D01*
X128539026Y-90943865D01*
X128547887Y-90936598D01*
X128556933Y-90929258D01*
X128566165Y-90921843D01*
X128575582Y-90914354D01*
X128584999Y-90906861D01*
X128594228Y-90899463D01*
X128603269Y-90892160D01*
X128612123Y-90884953D01*
X128620790Y-90877842D01*
X128629269Y-90870825D01*
X128637560Y-90863904D01*
X128645665Y-90857079D01*
X128653581Y-90850349D01*
X128661310Y-90843714D01*
X128668852Y-90837175D01*
X128676206Y-90830731D01*
X128690352Y-90818130D01*
X128703749Y-90805910D01*
X128716395Y-90794072D01*
X128728291Y-90782616D01*
X128739438Y-90771541D01*
X128749834Y-90760847D01*
X128759481Y-90750536D01*
X128768378Y-90740606D01*
X128776524Y-90731057D01*
X128783921Y-90721891D01*
X128790753Y-90712839D01*
X128797145Y-90703637D01*
X128803095Y-90694285D01*
X128808605Y-90684781D01*
X128813674Y-90675127D01*
X128818302Y-90665322D01*
X128822490Y-90655366D01*
X128826236Y-90645259D01*
X128829542Y-90635002D01*
X128832407Y-90624594D01*
X128834832Y-90614035D01*
X128836815Y-90603326D01*
X128838358Y-90592466D01*
X128839460Y-90581455D01*
X128840121Y-90570293D01*
X128840341Y-90558981D01*
X128840153Y-90548889D01*
X128839590Y-90539071D01*
X128838039Y-90524855D01*
X128835643Y-90511253D01*
X128832400Y-90498265D01*
X128828312Y-90485891D01*
X128823379Y-90474131D01*
X128817599Y-90462985D01*
X128810974Y-90452452D01*
X128803503Y-90442534D01*
X128795186Y-90433230D01*
X128792226Y-90430265D01*
X128782860Y-90421884D01*
X128772808Y-90414328D01*
X128762069Y-90407596D01*
X128750643Y-90401688D01*
X128738530Y-90396605D01*
X128725730Y-90392346D01*
X128712244Y-90388911D01*
X128698070Y-90386301D01*
X128688239Y-90385019D01*
X128678103Y-90384103D01*
X128667662Y-90383553D01*
X128656915Y-90383370D01*
X128642955Y-90383789D01*
X128629378Y-90385044D01*
X128616182Y-90387137D01*
X128603369Y-90390068D01*
X128590937Y-90393835D01*
X128578888Y-90398440D01*
X128567221Y-90403881D01*
X128555936Y-90410160D01*
X128545033Y-90417277D01*
X128534512Y-90425230D01*
X128527711Y-90430997D01*
X128518091Y-90440320D01*
X128509292Y-90450429D01*
X128501313Y-90461323D01*
X128494154Y-90473003D01*
X128487815Y-90485469D01*
X128482296Y-90498720D01*
X128479072Y-90507991D01*
X128476213Y-90517611D01*
X128473718Y-90527580D01*
X128471587Y-90537898D01*
X128469821Y-90548566D01*
X128468420Y-90559583D01*
X128467383Y-90570949D01*
X128333538Y-90570949D01*
X128335207Y-90554247D01*
X128337468Y-90537972D01*
X128340321Y-90522122D01*
X128343765Y-90506697D01*
X128347801Y-90491698D01*
X128352428Y-90477125D01*
X128357647Y-90462977D01*
X128363457Y-90449255D01*
X128369859Y-90435958D01*
X128376852Y-90423086D01*
X128384437Y-90410640D01*
X128392614Y-90398620D01*
X128401382Y-90387025D01*
X128410741Y-90375856D01*
X128420692Y-90365112D01*
X128431235Y-90354794D01*
X128442317Y-90345004D01*
X128453827Y-90335846D01*
X128465765Y-90327319D01*
X128478129Y-90319424D01*
X128490922Y-90312161D01*
X128504141Y-90305529D01*
X128517788Y-90299529D01*
X128531863Y-90294160D01*
X128546365Y-90289423D01*
X128561294Y-90285318D01*
X128576651Y-90281844D01*
X128592435Y-90279002D01*
X128608647Y-90276791D01*
X128625286Y-90275212D01*
X128642352Y-90274265D01*
X128659846Y-90273949D01*
X128678384Y-90274260D01*
X128696383Y-90275193D01*
X128713845Y-90276749D01*
X128730768Y-90278926D01*
X128747153Y-90281725D01*
X128763000Y-90285146D01*
X128778309Y-90289190D01*
X128793080Y-90293855D01*
X128807313Y-90299143D01*
X128821008Y-90305052D01*
X128834165Y-90311584D01*
X128846783Y-90318737D01*
X128858864Y-90326513D01*
X128870406Y-90334911D01*
X128881410Y-90343931D01*
X128891877Y-90353572D01*
X128901785Y-90363652D01*
X128911054Y-90374047D01*
X128919683Y-90384756D01*
X128927674Y-90395781D01*
X128935025Y-90407120D01*
X128941737Y-90418774D01*
X128947809Y-90430743D01*
X128953243Y-90443026D01*
X128958037Y-90455625D01*
X128962192Y-90468538D01*
X128965708Y-90481767D01*
X128968584Y-90495310D01*
X128970822Y-90509168D01*
X128972420Y-90523340D01*
X128973378Y-90537828D01*
X128973698Y-90552630D01*
X128973461Y-90566057D01*
X128972752Y-90579287D01*
X128971569Y-90592321D01*
X128969912Y-90605158D01*
X128967783Y-90617798D01*
X128965180Y-90630242D01*
X128962104Y-90642490D01*
X128958555Y-90654541D01*
X128954533Y-90666395D01*
X128950037Y-90678053D01*
X128945068Y-90689514D01*
X128939626Y-90700779D01*
X128933711Y-90711847D01*
X128927322Y-90722719D01*
X128920461Y-90733394D01*
X128913126Y-90743872D01*
X128905118Y-90754475D01*
X128896178Y-90765583D01*
X128886304Y-90777197D01*
X128875497Y-90789317D01*
X128863757Y-90801942D01*
X128851084Y-90815073D01*
X128837478Y-90828710D01*
X128830325Y-90835718D01*
X128822939Y-90842852D01*
X128815320Y-90850113D01*
X128807467Y-90857500D01*
X128799381Y-90865013D01*
X128791062Y-90872653D01*
X128782509Y-90880420D01*
X128773723Y-90888313D01*
X128764704Y-90896332D01*
X128755452Y-90904477D01*
X128745966Y-90912749D01*
X128736247Y-90921148D01*
X128726295Y-90929673D01*
X128716110Y-90938324D01*
X128705691Y-90947102D01*
X128695039Y-90956006D01*
X128684154Y-90965037D01*
X128673035Y-90974193D01*
X128661987Y-90983312D01*
X128651283Y-90992226D01*
X128640923Y-91000937D01*
X128630907Y-91009445D01*
X128621235Y-91017748D01*
X128611907Y-91025848D01*
X128602922Y-91033744D01*
X128594282Y-91041437D01*
X128585986Y-91048925D01*
X128578033Y-91056210D01*
X128570425Y-91063292D01*
X128563160Y-91070169D01*
X128549663Y-91083314D01*
X128537541Y-91095643D01*
X128526796Y-91107158D01*
X128517426Y-91117858D01*
X128509431Y-91127743D01*
X128502813Y-91136813D01*
X128497570Y-91145069D01*
X128492286Y-91155925D01*
X128490097Y-91164947D01*
X128976385Y-91164947D01*
X128976385Y-91290000D01*
G37*
G36*
X129575024Y-90738499D02*
G01*
X129586369Y-90741668D01*
X129597384Y-90745189D01*
X129608068Y-90749064D01*
X129618423Y-90753291D01*
X129628447Y-90757872D01*
X129638142Y-90762805D01*
X129647506Y-90768092D01*
X129656540Y-90773731D01*
X129665244Y-90779724D01*
X129673618Y-90786069D01*
X129681662Y-90792768D01*
X129689375Y-90799819D01*
X129696759Y-90807224D01*
X129703812Y-90814982D01*
X129710536Y-90823092D01*
X129716929Y-90831556D01*
X129722963Y-90840260D01*
X129728607Y-90849153D01*
X129733862Y-90858234D01*
X129738728Y-90867505D01*
X129743204Y-90876965D01*
X129747291Y-90886613D01*
X129750989Y-90896451D01*
X129754298Y-90906477D01*
X129757218Y-90916692D01*
X129759748Y-90927097D01*
X129761889Y-90937690D01*
X129763640Y-90948472D01*
X129765003Y-90959443D01*
X129765976Y-90970602D01*
X129766560Y-90981951D01*
X129766755Y-90993489D01*
X129766382Y-91010598D01*
X129765262Y-91027305D01*
X129763397Y-91043609D01*
X129760786Y-91059511D01*
X129757428Y-91075010D01*
X129753325Y-91090106D01*
X129748475Y-91104799D01*
X129742880Y-91119091D01*
X129736538Y-91132979D01*
X129729450Y-91146465D01*
X129721616Y-91159548D01*
X129713036Y-91172229D01*
X129703710Y-91184507D01*
X129693638Y-91196382D01*
X129682820Y-91207855D01*
X129671256Y-91218925D01*
X129659139Y-91229424D01*
X129646663Y-91239247D01*
X129633829Y-91248391D01*
X129620636Y-91256859D01*
X129607085Y-91264649D01*
X129593174Y-91271761D01*
X129578905Y-91278197D01*
X129564277Y-91283954D01*
X129549291Y-91289035D01*
X129533945Y-91293438D01*
X129518241Y-91297164D01*
X129502178Y-91300212D01*
X129485757Y-91302583D01*
X129468977Y-91304276D01*
X129451838Y-91305292D01*
X129434340Y-91305631D01*
X129416748Y-91305330D01*
X129399570Y-91304425D01*
X129382806Y-91302918D01*
X129366456Y-91300807D01*
X129350520Y-91298094D01*
X129334998Y-91294778D01*
X129319890Y-91290858D01*
X129305197Y-91286336D01*
X129290917Y-91281211D01*
X129277051Y-91275482D01*
X129263600Y-91269151D01*
X129250563Y-91262217D01*
X129237939Y-91254680D01*
X129225730Y-91246540D01*
X129213935Y-91237796D01*
X129202554Y-91228450D01*
X129191732Y-91218608D01*
X129181553Y-91208377D01*
X129172017Y-91197756D01*
X129163124Y-91186746D01*
X129154874Y-91175347D01*
X129147267Y-91163558D01*
X129140303Y-91151380D01*
X129133982Y-91138813D01*
X129128305Y-91125857D01*
X129123270Y-91112511D01*
X129118878Y-91098776D01*
X129115130Y-91084652D01*
X129112024Y-91070139D01*
X129109562Y-91055236D01*
X129107743Y-91039944D01*
X129106566Y-91024263D01*
X129240655Y-91024263D01*
X129241096Y-91037281D01*
X129242416Y-91049955D01*
X129244616Y-91062285D01*
X129247697Y-91074272D01*
X129251657Y-91085916D01*
X129256498Y-91097216D01*
X129262219Y-91108172D01*
X129268820Y-91118785D01*
X129276301Y-91129055D01*
X129284662Y-91138981D01*
X129290725Y-91145408D01*
X129300537Y-91154487D01*
X129311104Y-91162673D01*
X129322427Y-91169966D01*
X129334506Y-91176366D01*
X129347340Y-91181872D01*
X129360930Y-91186486D01*
X129370409Y-91189066D01*
X129380225Y-91191249D01*
X129390376Y-91193035D01*
X129400864Y-91194424D01*
X129411687Y-91195416D01*
X129422845Y-91196012D01*
X129434340Y-91196210D01*
X129445524Y-91195992D01*
X129456421Y-91195336D01*
X129467032Y-91194244D01*
X129477357Y-91192715D01*
X129487396Y-91190748D01*
X129497149Y-91188345D01*
X129506615Y-91185505D01*
X129520278Y-91180425D01*
X129533297Y-91174362D01*
X129545671Y-91167316D01*
X129557402Y-91159287D01*
X129568489Y-91150274D01*
X129578932Y-91140279D01*
X129588578Y-91129456D01*
X129597276Y-91118053D01*
X129605025Y-91106072D01*
X129611824Y-91093510D01*
X129617676Y-91080369D01*
X129622578Y-91066648D01*
X129625319Y-91057179D01*
X129627638Y-91047452D01*
X129629536Y-91037468D01*
X129631012Y-91027226D01*
X129632066Y-91016726D01*
X129632699Y-91005969D01*
X129632909Y-90994954D01*
X129632690Y-90983730D01*
X129632032Y-90972835D01*
X129630935Y-90962268D01*
X129629398Y-90952028D01*
X129627424Y-90942118D01*
X129625010Y-90932535D01*
X129620566Y-90918776D01*
X129615135Y-90905756D01*
X129608717Y-90893474D01*
X129601311Y-90881931D01*
X129592917Y-90871126D01*
X129583536Y-90861059D01*
X129576734Y-90854759D01*
X129565798Y-90845942D01*
X129553965Y-90837992D01*
X129541234Y-90830909D01*
X129532249Y-90826669D01*
X129522864Y-90822815D01*
X129513081Y-90819346D01*
X129502900Y-90816262D01*
X129492319Y-90813564D01*
X129481339Y-90811252D01*
X129469961Y-90809324D01*
X129458184Y-90807783D01*
X129446008Y-90806626D01*
X129433433Y-90805855D01*
X129420460Y-90805470D01*
X129413824Y-90805422D01*
X129364242Y-90805422D01*
X129364242Y-90696001D01*
X129393796Y-90696001D01*
X129405366Y-90695841D01*
X129416569Y-90695361D01*
X129427405Y-90694560D01*
X129437874Y-90693440D01*
X129447975Y-90692000D01*
X129457709Y-90690239D01*
X129476075Y-90685758D01*
X129492972Y-90679996D01*
X129508399Y-90672954D01*
X129522357Y-90664632D01*
X129534846Y-90655029D01*
X129545866Y-90644146D01*
X129555416Y-90631983D01*
X129563497Y-90618539D01*
X129570109Y-90603814D01*
X129575251Y-90587810D01*
X129578924Y-90570525D01*
X129581128Y-90551960D01*
X129581679Y-90542197D01*
X129581863Y-90532114D01*
X129581500Y-90518901D01*
X129580412Y-90506280D01*
X129578598Y-90494251D01*
X129576058Y-90482815D01*
X129572793Y-90471972D01*
X129568802Y-90461720D01*
X129564086Y-90452062D01*
X129558644Y-90442996D01*
X129552477Y-90434522D01*
X129545584Y-90426641D01*
X129540586Y-90421716D01*
X129532594Y-90414863D01*
X129524005Y-90408684D01*
X129514819Y-90403180D01*
X129505037Y-90398349D01*
X129494658Y-90394192D01*
X129483682Y-90390710D01*
X129472109Y-90387901D01*
X129459940Y-90385767D01*
X129447174Y-90384306D01*
X129433811Y-90383520D01*
X129424570Y-90383370D01*
X129405868Y-90383981D01*
X129388228Y-90385812D01*
X129371651Y-90388866D01*
X129356137Y-90393140D01*
X129341685Y-90398635D01*
X129328297Y-90405352D01*
X129315971Y-90413290D01*
X129304708Y-90422449D01*
X129294508Y-90432829D01*
X129285371Y-90444431D01*
X129277297Y-90457254D01*
X129270285Y-90471297D01*
X129264337Y-90486563D01*
X129259451Y-90503049D01*
X129255628Y-90520757D01*
X129252868Y-90539685D01*
X129119755Y-90539685D01*
X129121825Y-90523715D01*
X129124430Y-90508228D01*
X129127572Y-90493223D01*
X129131250Y-90478701D01*
X129135464Y-90464662D01*
X129140214Y-90451105D01*
X129145501Y-90438032D01*
X129151324Y-90425441D01*
X129157683Y-90413333D01*
X129164578Y-90401707D01*
X129172009Y-90390565D01*
X129179976Y-90379905D01*
X129188480Y-90369728D01*
X129197520Y-90360033D01*
X129207096Y-90350822D01*
X129217208Y-90342093D01*
X129227768Y-90333841D01*
X129238625Y-90326122D01*
X129249780Y-90318935D01*
X129261233Y-90312280D01*
X129272983Y-90306158D01*
X129285031Y-90300568D01*
X129297377Y-90295510D01*
X129310020Y-90290985D01*
X129322961Y-90286992D01*
X129336200Y-90283532D01*
X129349737Y-90280604D01*
X129363571Y-90278208D01*
X129377702Y-90276345D01*
X129392132Y-90275014D01*
X129406859Y-90274215D01*
X129421884Y-90273949D01*
X129438521Y-90274232D01*
X129454727Y-90275079D01*
X129470501Y-90276491D01*
X129485845Y-90278468D01*
X129500757Y-90281009D01*
X129515238Y-90284116D01*
X129529288Y-90287787D01*
X129542906Y-90292023D01*
X129556093Y-90296824D01*
X129568849Y-90302190D01*
X129581174Y-90308120D01*
X129593067Y-90314616D01*
X129604530Y-90321676D01*
X129615561Y-90329301D01*
X129626160Y-90337491D01*
X129636329Y-90346245D01*
X129645971Y-90355414D01*
X129654991Y-90364907D01*
X129663388Y-90374724D01*
X129671164Y-90384866D01*
X129678318Y-90395332D01*
X129684849Y-90406123D01*
X129690759Y-90417238D01*
X129696046Y-90428677D01*
X129700712Y-90440441D01*
X129704755Y-90452529D01*
X129708176Y-90464941D01*
X129710976Y-90477678D01*
X129713153Y-90490740D01*
X129714708Y-90504125D01*
X129715641Y-90517835D01*
X129715952Y-90531870D01*
X129715647Y-90543760D01*
X129714733Y-90555526D01*
X129713209Y-90567167D01*
X129711075Y-90578684D01*
X129708331Y-90590077D01*
X129704978Y-90601344D01*
X129701016Y-90612488D01*
X129696443Y-90623507D01*
X129691261Y-90634401D01*
X129685469Y-90645171D01*
X129681270Y-90652281D01*
X129674442Y-90662626D01*
X129666967Y-90672503D01*
X129658843Y-90681912D01*
X129650071Y-90690853D01*
X129640651Y-90699326D01*
X129630582Y-90707331D01*
X129619866Y-90714867D01*
X129608500Y-90721936D01*
X129596487Y-90728537D01*
X129583825Y-90734670D01*
X129575024Y-90738499D01*
G37*
G36*
X149066505Y-104085310D02*
G01*
X149066322Y-104100035D01*
X149065772Y-104114314D01*
X149064856Y-104128147D01*
X149063574Y-104141535D01*
X149061925Y-104154477D01*
X149059910Y-104166973D01*
X149057529Y-104179023D01*
X149054781Y-104190628D01*
X149051667Y-104201786D01*
X149048187Y-104212500D01*
X149044340Y-104222767D01*
X149040127Y-104232588D01*
X149035547Y-104241964D01*
X149030601Y-104250894D01*
X149025289Y-104259379D01*
X149019610Y-104267418D01*
X149013565Y-104275010D01*
X149007154Y-104282158D01*
X149000376Y-104288859D01*
X148993232Y-104295115D01*
X148985721Y-104300925D01*
X148977845Y-104306289D01*
X148969601Y-104311207D01*
X148960992Y-104315680D01*
X148952016Y-104319707D01*
X148942674Y-104323288D01*
X148932965Y-104326424D01*
X148922890Y-104329113D01*
X148912449Y-104331357D01*
X148901641Y-104333155D01*
X148890467Y-104334508D01*
X148878926Y-104335415D01*
X148878926Y-104231465D01*
X148891041Y-104230761D01*
X148902374Y-104228943D01*
X148912925Y-104226011D01*
X148922695Y-104221964D01*
X148931683Y-104216803D01*
X148939889Y-104210527D01*
X148947314Y-104203137D01*
X148953958Y-104194633D01*
X148959819Y-104185015D01*
X148964900Y-104174282D01*
X148969198Y-104162434D01*
X148972715Y-104149473D01*
X148975451Y-104135397D01*
X148977405Y-104120206D01*
X148978089Y-104112193D01*
X148978577Y-104103901D01*
X148978870Y-104095331D01*
X148978968Y-104086482D01*
X148978870Y-104078566D01*
X148978357Y-104067138D01*
X148977405Y-104056245D01*
X148976013Y-104045888D01*
X148974181Y-104036068D01*
X148971909Y-104026783D01*
X148969198Y-104018033D01*
X148966048Y-104009820D01*
X148962457Y-104002142D01*
X148958427Y-103995000D01*
X148953958Y-103988394D01*
X148947461Y-103980472D01*
X148940573Y-103973606D01*
X148933295Y-103967796D01*
X148925625Y-103963042D01*
X148917565Y-103959345D01*
X148909115Y-103956704D01*
X148900273Y-103955119D01*
X148891041Y-103954591D01*
X148881491Y-103955107D01*
X148872674Y-103956655D01*
X148864589Y-103959235D01*
X148857237Y-103962847D01*
X148850618Y-103967490D01*
X148844732Y-103973166D01*
X148839579Y-103979873D01*
X148835158Y-103987613D01*
X148830905Y-103996919D01*
X148827519Y-104005340D01*
X148823965Y-104014999D01*
X148820242Y-104025893D01*
X148817667Y-104033843D01*
X148815017Y-104042343D01*
X148812292Y-104051392D01*
X148809492Y-104060991D01*
X148806618Y-104071139D01*
X148803669Y-104081837D01*
X148800645Y-104093085D01*
X148797546Y-104104882D01*
X148794372Y-104117228D01*
X148792757Y-104123607D01*
X148789486Y-104136262D01*
X148786169Y-104148483D01*
X148782806Y-104160271D01*
X148779397Y-104171625D01*
X148775943Y-104182546D01*
X148772442Y-104193033D01*
X148768896Y-104203087D01*
X148765304Y-104212707D01*
X148761667Y-104221894D01*
X148757983Y-104230647D01*
X148754254Y-104238966D01*
X148750479Y-104246852D01*
X148746658Y-104254305D01*
X148742791Y-104261324D01*
X148736905Y-104271039D01*
X148734921Y-104274061D01*
X148728485Y-104282546D01*
X148721193Y-104290197D01*
X148713047Y-104297013D01*
X148704045Y-104302995D01*
X148694188Y-104308141D01*
X148683476Y-104312454D01*
X148675860Y-104314865D01*
X148667863Y-104316905D01*
X148659486Y-104318574D01*
X148650729Y-104319872D01*
X148641592Y-104320800D01*
X148632075Y-104321356D01*
X148622178Y-104321542D01*
X148613166Y-104321311D01*
X148604351Y-104320620D01*
X148595734Y-104319467D01*
X148587312Y-104317854D01*
X148579088Y-104315779D01*
X148571061Y-104313244D01*
X148563231Y-104310247D01*
X148555598Y-104306789D01*
X148548161Y-104302871D01*
X148540922Y-104298491D01*
X148533879Y-104293651D01*
X148527033Y-104288349D01*
X148520385Y-104282587D01*
X148513933Y-104276363D01*
X148507678Y-104269678D01*
X148501620Y-104262533D01*
X148495823Y-104254977D01*
X148490400Y-104247112D01*
X148485351Y-104238936D01*
X148480676Y-104230451D01*
X148476375Y-104221656D01*
X148472448Y-104212551D01*
X148468895Y-104203137D01*
X148465716Y-104193412D01*
X148462911Y-104183377D01*
X148460480Y-104173033D01*
X148458423Y-104162379D01*
X148456740Y-104151414D01*
X148455431Y-104140140D01*
X148454496Y-104128556D01*
X148453935Y-104116662D01*
X148453748Y-104104459D01*
X148453907Y-104090353D01*
X148454383Y-104076685D01*
X148455177Y-104063456D01*
X148456288Y-104050664D01*
X148457717Y-104038311D01*
X148459464Y-104026396D01*
X148461527Y-104014918D01*
X148463909Y-104003879D01*
X148466608Y-103993279D01*
X148469624Y-103983116D01*
X148472958Y-103973391D01*
X148476609Y-103964105D01*
X148480578Y-103955256D01*
X148484865Y-103946846D01*
X148489469Y-103938873D01*
X148494390Y-103931339D01*
X148499629Y-103924243D01*
X148505186Y-103917585D01*
X148511060Y-103911366D01*
X148517251Y-103905584D01*
X148523760Y-103900240D01*
X148530587Y-103895335D01*
X148537731Y-103890868D01*
X148545193Y-103886838D01*
X148552972Y-103883247D01*
X148561069Y-103880094D01*
X148569483Y-103877379D01*
X148578214Y-103875102D01*
X148587264Y-103873264D01*
X148596630Y-103871863D01*
X148606315Y-103870901D01*
X148616316Y-103870376D01*
X148616316Y-103973740D01*
X148607230Y-103974864D01*
X148598731Y-103976869D01*
X148590817Y-103979755D01*
X148583490Y-103983522D01*
X148576749Y-103988169D01*
X148570594Y-103993698D01*
X148565025Y-104000107D01*
X148560043Y-104007397D01*
X148555646Y-104015567D01*
X148551836Y-104024619D01*
X148548612Y-104034551D01*
X148545974Y-104045364D01*
X148543923Y-104057058D01*
X148542457Y-104069633D01*
X148541578Y-104083088D01*
X148541285Y-104097424D01*
X148541446Y-104107050D01*
X148541931Y-104116363D01*
X148542738Y-104125364D01*
X148543868Y-104134052D01*
X148545321Y-104142427D01*
X148547096Y-104150490D01*
X148549195Y-104158240D01*
X148551616Y-104165678D01*
X148555347Y-104175109D01*
X148559652Y-104183984D01*
X148564457Y-104192044D01*
X148569788Y-104199030D01*
X148575644Y-104204940D01*
X148582025Y-104209776D01*
X148588931Y-104213538D01*
X148596362Y-104216224D01*
X148604318Y-104217836D01*
X148612799Y-104218374D01*
X148621052Y-104217961D01*
X148630534Y-104216287D01*
X148639091Y-104213325D01*
X148646723Y-104209074D01*
X148653429Y-104203536D01*
X148659210Y-104196709D01*
X148662234Y-104191995D01*
X148666206Y-104184161D01*
X148669397Y-104176659D01*
X148672771Y-104167762D01*
X148676326Y-104157470D01*
X148678798Y-104149835D01*
X148681350Y-104141579D01*
X148683983Y-104132704D01*
X148686697Y-104123209D01*
X148689492Y-104113095D01*
X148692368Y-104102360D01*
X148695325Y-104091006D01*
X148698363Y-104079032D01*
X148701482Y-104066438D01*
X148703071Y-104059909D01*
X148706305Y-104046884D01*
X148709608Y-104034285D01*
X148712979Y-104022111D01*
X148716419Y-104010364D01*
X148719928Y-103999043D01*
X148723505Y-103988147D01*
X148727151Y-103977678D01*
X148730866Y-103967634D01*
X148734650Y-103958016D01*
X148738502Y-103948824D01*
X148742423Y-103940058D01*
X148746412Y-103931718D01*
X148750471Y-103923804D01*
X148754597Y-103916315D01*
X148758793Y-103909253D01*
X148763057Y-103902616D01*
X148769905Y-103893433D01*
X148777625Y-103885152D01*
X148786217Y-103877775D01*
X148795682Y-103871301D01*
X148806019Y-103865731D01*
X148813395Y-103862519D01*
X148821159Y-103859709D01*
X148829311Y-103857300D01*
X148837850Y-103855293D01*
X148846777Y-103853687D01*
X148856092Y-103852482D01*
X148865795Y-103851679D01*
X148875885Y-103851278D01*
X148881076Y-103851228D01*
X148890983Y-103851476D01*
X148900676Y-103852220D01*
X148910156Y-103853460D01*
X148919422Y-103855197D01*
X148928474Y-103857429D01*
X148937312Y-103860158D01*
X148945937Y-103863383D01*
X148954348Y-103867103D01*
X148962546Y-103871320D01*
X148970530Y-103876034D01*
X148978299Y-103881243D01*
X148985856Y-103886948D01*
X148993198Y-103893150D01*
X149000327Y-103899847D01*
X149007242Y-103907041D01*
X149013944Y-103914731D01*
X149020308Y-103922839D01*
X149026263Y-103931287D01*
X149031806Y-103940076D01*
X149036939Y-103949206D01*
X149041661Y-103958675D01*
X149045973Y-103968486D01*
X149049874Y-103978636D01*
X149053364Y-103989127D01*
X149056444Y-103999959D01*
X149059113Y-104011130D01*
X149061372Y-104022643D01*
X149063220Y-104034495D01*
X149064657Y-104046688D01*
X149065683Y-104059222D01*
X149066299Y-104072096D01*
X149066505Y-104085310D01*
G37*
G36*
X148791390Y-103663063D02*
G01*
X148803116Y-103662067D01*
X148814458Y-103660740D01*
X148825416Y-103659081D01*
X148835988Y-103657091D01*
X148846176Y-103654770D01*
X148855980Y-103652118D01*
X148865398Y-103649134D01*
X148874432Y-103645819D01*
X148883081Y-103642173D01*
X148891346Y-103638196D01*
X148899226Y-103633887D01*
X148906721Y-103629248D01*
X148913832Y-103624276D01*
X148920557Y-103618974D01*
X148926899Y-103613341D01*
X148932855Y-103607376D01*
X148938439Y-103601132D01*
X148943663Y-103594712D01*
X148948526Y-103588114D01*
X148953030Y-103581339D01*
X148957172Y-103574388D01*
X148960955Y-103567259D01*
X148964378Y-103559953D01*
X148967440Y-103552470D01*
X148970142Y-103544810D01*
X148972483Y-103536973D01*
X148974465Y-103528958D01*
X148976086Y-103520767D01*
X148977347Y-103512399D01*
X148978248Y-103503853D01*
X148978788Y-103495131D01*
X148978968Y-103486231D01*
X148978740Y-103476106D01*
X148978054Y-103466173D01*
X148976912Y-103456432D01*
X148975314Y-103446884D01*
X148973258Y-103437528D01*
X148970746Y-103428364D01*
X148967776Y-103419393D01*
X148964350Y-103410614D01*
X148960467Y-103402027D01*
X148956128Y-103393633D01*
X148952981Y-103388143D01*
X148947881Y-103380302D01*
X148942400Y-103373193D01*
X148936537Y-103366816D01*
X148930294Y-103361170D01*
X148923669Y-103356255D01*
X148916663Y-103352072D01*
X148909275Y-103348621D01*
X148901506Y-103345901D01*
X148893357Y-103343913D01*
X148884825Y-103342657D01*
X148878926Y-103342226D01*
X148878926Y-103234954D01*
X148890001Y-103236693D01*
X148900755Y-103238880D01*
X148911189Y-103241517D01*
X148921302Y-103244602D01*
X148931095Y-103248136D01*
X148940567Y-103252118D01*
X148949718Y-103256550D01*
X148958549Y-103261430D01*
X148967060Y-103266759D01*
X148975250Y-103272537D01*
X148983119Y-103278764D01*
X148990667Y-103285439D01*
X148997895Y-103292563D01*
X149004803Y-103300136D01*
X149011390Y-103308158D01*
X149017656Y-103316629D01*
X149023571Y-103325419D01*
X149029105Y-103334450D01*
X149034257Y-103343719D01*
X149039027Y-103353229D01*
X149043416Y-103362978D01*
X149047423Y-103372967D01*
X149051049Y-103383195D01*
X149054293Y-103393663D01*
X149057155Y-103404371D01*
X149059635Y-103415318D01*
X149061734Y-103426505D01*
X149063452Y-103437932D01*
X149064787Y-103449599D01*
X149065741Y-103461505D01*
X149066314Y-103473650D01*
X149066505Y-103486036D01*
X149066426Y-103494022D01*
X149066189Y-103501910D01*
X149065241Y-103517390D01*
X149063661Y-103532477D01*
X149061449Y-103547170D01*
X149058605Y-103561469D01*
X149055129Y-103575374D01*
X149051021Y-103588885D01*
X149046281Y-103602002D01*
X149040910Y-103614726D01*
X149034906Y-103627056D01*
X149028270Y-103638991D01*
X149021002Y-103650533D01*
X149013103Y-103661682D01*
X149004571Y-103672436D01*
X148995407Y-103682796D01*
X148985612Y-103692763D01*
X148975251Y-103702204D01*
X148964393Y-103711035D01*
X148953037Y-103719258D01*
X148941184Y-103726871D01*
X148928833Y-103733876D01*
X148915984Y-103740271D01*
X148902638Y-103746057D01*
X148888794Y-103751235D01*
X148874452Y-103755803D01*
X148859613Y-103759762D01*
X148844276Y-103763112D01*
X148836421Y-103764558D01*
X148828441Y-103765853D01*
X148820337Y-103766995D01*
X148812109Y-103767984D01*
X148803756Y-103768822D01*
X148795279Y-103769507D01*
X148786678Y-103770040D01*
X148777952Y-103770421D01*
X148769101Y-103770649D01*
X148760127Y-103770725D01*
X148751211Y-103770652D01*
X148742418Y-103770431D01*
X148733747Y-103770062D01*
X148725197Y-103769547D01*
X148716769Y-103768884D01*
X148708462Y-103768074D01*
X148700278Y-103767116D01*
X148692215Y-103766011D01*
X148684274Y-103764759D01*
X148676454Y-103763360D01*
X148668757Y-103761813D01*
X148653726Y-103758278D01*
X148639183Y-103754153D01*
X148625127Y-103749439D01*
X148611558Y-103744136D01*
X148598476Y-103738244D01*
X148585880Y-103731762D01*
X148573772Y-103724691D01*
X148562151Y-103717031D01*
X148551016Y-103708782D01*
X148540369Y-103699943D01*
X148535228Y-103695303D01*
X148525361Y-103685669D01*
X148516131Y-103675672D01*
X148507537Y-103665312D01*
X148499580Y-103654588D01*
X148492260Y-103643501D01*
X148485576Y-103632050D01*
X148479529Y-103620237D01*
X148474118Y-103608060D01*
X148469344Y-103595519D01*
X148465206Y-103582616D01*
X148461705Y-103569349D01*
X148458841Y-103555718D01*
X148456613Y-103541725D01*
X148455021Y-103527368D01*
X148454067Y-103512648D01*
X148453752Y-103497759D01*
X148541285Y-103497759D01*
X148541639Y-103509255D01*
X148542700Y-103520442D01*
X148544469Y-103531320D01*
X148546945Y-103541888D01*
X148550129Y-103552147D01*
X148554021Y-103562098D01*
X148558620Y-103571739D01*
X148563926Y-103581071D01*
X148569940Y-103590094D01*
X148576662Y-103598807D01*
X148581536Y-103604445D01*
X148589451Y-103612478D01*
X148598100Y-103619944D01*
X148607485Y-103626844D01*
X148614150Y-103631129D01*
X148621141Y-103635162D01*
X148628459Y-103638943D01*
X148636104Y-103642472D01*
X148644076Y-103645750D01*
X148652374Y-103648775D01*
X148660999Y-103651549D01*
X148669950Y-103654071D01*
X148679228Y-103656341D01*
X148688833Y-103658359D01*
X148698765Y-103660125D01*
X148703853Y-103660914D01*
X148703853Y-103333433D01*
X148693828Y-103335143D01*
X148684124Y-103337096D01*
X148674741Y-103339295D01*
X148665678Y-103341737D01*
X148656935Y-103344424D01*
X148648514Y-103347355D01*
X148640412Y-103350530D01*
X148632632Y-103353949D01*
X148625172Y-103357613D01*
X148618032Y-103361521D01*
X148611213Y-103365673D01*
X148604715Y-103370069D01*
X148595568Y-103377122D01*
X148587143Y-103384724D01*
X148581927Y-103390097D01*
X148574664Y-103398514D01*
X148568115Y-103407277D01*
X148562281Y-103416388D01*
X148557161Y-103425845D01*
X148552755Y-103435649D01*
X148549064Y-103445801D01*
X148546087Y-103456299D01*
X148543825Y-103467144D01*
X148542277Y-103478335D01*
X148541444Y-103489874D01*
X148541285Y-103497759D01*
X148453752Y-103497759D01*
X148453748Y-103497564D01*
X148454067Y-103482178D01*
X148455024Y-103467183D01*
X148456620Y-103452581D01*
X148458853Y-103438372D01*
X148461724Y-103424555D01*
X148465234Y-103411130D01*
X148469381Y-103398097D01*
X148474167Y-103385457D01*
X148479591Y-103373209D01*
X148485653Y-103361353D01*
X148492352Y-103349889D01*
X148499690Y-103338818D01*
X148507666Y-103328140D01*
X148516281Y-103317853D01*
X148525533Y-103307959D01*
X148535423Y-103298457D01*
X148545872Y-103289442D01*
X148556849Y-103281009D01*
X148568355Y-103273158D01*
X148580388Y-103265887D01*
X148592950Y-103259199D01*
X148606040Y-103253092D01*
X148619658Y-103247567D01*
X148633804Y-103242623D01*
X148648479Y-103238261D01*
X148663681Y-103234481D01*
X148671480Y-103232809D01*
X148679412Y-103231282D01*
X148687475Y-103229901D01*
X148695671Y-103228665D01*
X148703998Y-103227574D01*
X148712458Y-103226629D01*
X148721050Y-103225830D01*
X148729773Y-103225175D01*
X148738629Y-103224666D01*
X148747617Y-103224303D01*
X148756736Y-103224085D01*
X148765988Y-103224012D01*
X148791390Y-103224012D01*
X148791390Y-103663063D01*
G37*
G36*
X148547928Y-102808213D02*
G01*
X148545671Y-102817100D01*
X148544146Y-102825544D01*
X148542946Y-102834933D01*
X148542219Y-102843125D01*
X148541700Y-102851920D01*
X148541389Y-102861321D01*
X148541285Y-102871325D01*
X148541621Y-102881129D01*
X148542628Y-102890758D01*
X148544307Y-102900211D01*
X148546658Y-102909488D01*
X148549681Y-102918590D01*
X148553375Y-102927517D01*
X148557741Y-102936267D01*
X148562778Y-102944842D01*
X148568487Y-102953242D01*
X148574868Y-102961466D01*
X148581921Y-102969515D01*
X148589645Y-102977388D01*
X148598041Y-102985085D01*
X148607108Y-102992607D01*
X148616848Y-102999954D01*
X148627258Y-103007124D01*
X149054000Y-103007124D01*
X149054000Y-103111074D01*
X148466254Y-103111074D01*
X148466254Y-103007124D01*
X148547538Y-103007124D01*
X148536180Y-102998861D01*
X148525556Y-102990437D01*
X148515664Y-102981850D01*
X148506505Y-102973101D01*
X148498078Y-102964191D01*
X148490385Y-102955119D01*
X148483424Y-102945885D01*
X148477196Y-102936489D01*
X148471700Y-102926932D01*
X148466937Y-102917213D01*
X148462907Y-102907331D01*
X148459610Y-102897288D01*
X148457046Y-102887084D01*
X148455214Y-102876717D01*
X148454115Y-102866189D01*
X148453748Y-102855498D01*
X148453879Y-102847109D01*
X148454270Y-102838499D01*
X148454923Y-102829670D01*
X148455837Y-102820621D01*
X148457011Y-102811352D01*
X148457461Y-102808213D01*
X148547928Y-102808213D01*
G37*
G36*
X148466254Y-102266775D02*
G01*
X149054000Y-102487180D01*
X149054000Y-102579406D01*
X148466254Y-102799811D01*
X148466254Y-102687655D01*
X148926016Y-102533293D01*
X148466254Y-102378932D01*
X148466254Y-102266775D01*
G37*
G36*
X125923777Y-103859670D02*
G01*
X125938756Y-103859936D01*
X125953422Y-103860379D01*
X125967775Y-103861000D01*
X125981815Y-103861799D01*
X125995543Y-103862775D01*
X126008957Y-103863929D01*
X126022058Y-103865259D01*
X126034847Y-103866768D01*
X126047322Y-103868454D01*
X126059485Y-103870317D01*
X126071334Y-103872358D01*
X126082871Y-103874576D01*
X126094094Y-103876972D01*
X126105005Y-103879545D01*
X126115603Y-103882295D01*
X126125908Y-103885310D01*
X126135940Y-103888737D01*
X126145699Y-103892576D01*
X126155186Y-103896828D01*
X126164399Y-103901491D01*
X126173340Y-103906567D01*
X126182008Y-103912055D01*
X126190403Y-103917955D01*
X126198525Y-103924267D01*
X126206374Y-103930991D01*
X126213950Y-103938128D01*
X126221253Y-103945676D01*
X126228284Y-103953637D01*
X126235042Y-103962010D01*
X126241527Y-103970795D01*
X126247739Y-103979993D01*
X126253654Y-103989466D01*
X126259187Y-103999082D01*
X126264339Y-104008838D01*
X126269110Y-104018736D01*
X126273498Y-104028774D01*
X126277506Y-104038954D01*
X126281131Y-104049275D01*
X126284375Y-104059738D01*
X126287237Y-104070341D01*
X126289718Y-104081086D01*
X126291817Y-104091972D01*
X126293534Y-104102999D01*
X126294870Y-104114168D01*
X126295824Y-104125477D01*
X126296396Y-104136928D01*
X126296587Y-104148520D01*
X126296208Y-104166954D01*
X126295072Y-104184824D01*
X126293178Y-104202132D01*
X126290527Y-104218877D01*
X126287118Y-104235059D01*
X126282951Y-104250678D01*
X126278027Y-104265735D01*
X126272346Y-104280228D01*
X126265907Y-104294158D01*
X126258710Y-104307526D01*
X126250756Y-104320331D01*
X126242045Y-104332572D01*
X126232575Y-104344251D01*
X126222349Y-104355367D01*
X126211364Y-104365920D01*
X126199623Y-104375910D01*
X126187194Y-104385315D01*
X126174088Y-104394114D01*
X126160304Y-104402306D01*
X126145843Y-104409890D01*
X126130705Y-104416869D01*
X126114889Y-104423240D01*
X126098396Y-104429004D01*
X126081226Y-104434162D01*
X126063378Y-104438713D01*
X126044853Y-104442657D01*
X126025650Y-104445995D01*
X126015795Y-104447436D01*
X126005770Y-104448725D01*
X125995576Y-104449863D01*
X125985213Y-104450849D01*
X125974680Y-104451683D01*
X125963978Y-104452366D01*
X125953107Y-104452897D01*
X125942066Y-104453276D01*
X125930856Y-104453504D01*
X125919476Y-104453579D01*
X125665952Y-104453579D01*
X125665952Y-104860000D01*
X125532595Y-104860000D01*
X125532595Y-103984633D01*
X125665952Y-103984633D01*
X125665952Y-104328527D01*
X125920697Y-104328527D01*
X125936467Y-104328351D01*
X125951659Y-104327821D01*
X125966272Y-104326939D01*
X125980308Y-104325703D01*
X125993765Y-104324114D01*
X126006644Y-104322173D01*
X126018945Y-104319878D01*
X126030668Y-104317231D01*
X126041812Y-104314230D01*
X126052379Y-104310877D01*
X126062367Y-104307170D01*
X126071777Y-104303111D01*
X126080609Y-104298698D01*
X126092772Y-104291417D01*
X126103635Y-104283342D01*
X126113413Y-104274474D01*
X126122228Y-104264907D01*
X126130082Y-104254639D01*
X126136974Y-104243672D01*
X126142905Y-104232005D01*
X126147874Y-104219638D01*
X126151881Y-104206571D01*
X126154926Y-104192804D01*
X126157010Y-104178338D01*
X126157865Y-104168305D01*
X126158292Y-104157961D01*
X126158346Y-104152672D01*
X126158079Y-104142116D01*
X126157281Y-104131787D01*
X126155950Y-104121685D01*
X126154087Y-104111811D01*
X126151691Y-104102165D01*
X126148763Y-104092746D01*
X126145302Y-104083555D01*
X126141310Y-104074591D01*
X126136785Y-104065855D01*
X126131727Y-104057346D01*
X126128060Y-104051800D01*
X126122283Y-104043842D01*
X126114133Y-104034120D01*
X126105472Y-104025413D01*
X126096300Y-104017722D01*
X126086616Y-104011045D01*
X126076421Y-104005384D01*
X126065714Y-104000737D01*
X126054496Y-103997106D01*
X126051612Y-103996357D01*
X126039373Y-103993609D01*
X126029357Y-103991789D01*
X126018624Y-103990174D01*
X126007175Y-103988766D01*
X125995008Y-103987564D01*
X125982125Y-103986568D01*
X125968524Y-103985778D01*
X125954207Y-103985194D01*
X125944263Y-103984919D01*
X125934001Y-103984736D01*
X125923421Y-103984645D01*
X125918011Y-103984633D01*
X125665952Y-103984633D01*
X125532595Y-103984633D01*
X125532595Y-103859581D01*
X125908485Y-103859581D01*
X125923777Y-103859670D01*
G37*
G36*
X126763273Y-104110084D02*
G01*
X126782016Y-104111281D01*
X126800268Y-104113275D01*
X126818030Y-104116066D01*
X126835302Y-104119656D01*
X126852083Y-104124042D01*
X126868374Y-104129227D01*
X126884174Y-104135209D01*
X126899484Y-104141988D01*
X126914304Y-104149566D01*
X126928633Y-104157941D01*
X126942472Y-104167113D01*
X126955820Y-104177083D01*
X126968679Y-104187851D01*
X126981046Y-104199416D01*
X126992923Y-104211779D01*
X127004192Y-104224840D01*
X127014734Y-104238562D01*
X127024548Y-104252943D01*
X127033636Y-104267985D01*
X127041996Y-104283688D01*
X127049630Y-104300050D01*
X127056536Y-104317072D01*
X127062716Y-104334755D01*
X127068168Y-104353098D01*
X127072894Y-104372102D01*
X127074984Y-104381851D01*
X127076892Y-104391765D01*
X127078619Y-104401844D01*
X127080164Y-104412089D01*
X127081527Y-104422498D01*
X127082708Y-104433073D01*
X127083708Y-104443812D01*
X127084526Y-104454717D01*
X127085162Y-104465786D01*
X127085616Y-104477021D01*
X127085889Y-104488421D01*
X127085980Y-104499986D01*
X127085980Y-104531737D01*
X126537166Y-104531737D01*
X126538411Y-104546396D01*
X126540070Y-104560573D01*
X126542144Y-104574270D01*
X126544631Y-104587486D01*
X126547532Y-104600221D01*
X126550848Y-104612475D01*
X126554577Y-104624248D01*
X126558721Y-104635540D01*
X126563278Y-104646352D01*
X126568250Y-104656683D01*
X126573636Y-104666532D01*
X126579436Y-104675901D01*
X126585649Y-104684790D01*
X126592277Y-104693197D01*
X126599319Y-104701123D01*
X126606775Y-104708569D01*
X126614580Y-104715549D01*
X126622605Y-104722079D01*
X126630852Y-104728158D01*
X126639321Y-104733787D01*
X126648011Y-104738966D01*
X126656922Y-104743694D01*
X126666054Y-104747972D01*
X126675408Y-104751800D01*
X126684983Y-104755177D01*
X126694779Y-104758104D01*
X126704797Y-104760581D01*
X126715036Y-104762608D01*
X126725497Y-104764184D01*
X126736178Y-104765310D01*
X126747082Y-104765985D01*
X126758206Y-104766210D01*
X126770863Y-104765925D01*
X126783279Y-104765068D01*
X126795455Y-104763641D01*
X126807390Y-104761642D01*
X126819085Y-104759073D01*
X126830540Y-104755932D01*
X126841754Y-104752220D01*
X126852728Y-104747938D01*
X126863461Y-104743084D01*
X126873954Y-104737660D01*
X126880816Y-104733726D01*
X126890617Y-104727351D01*
X126899503Y-104720500D01*
X126907475Y-104713172D01*
X126914533Y-104705367D01*
X126920676Y-104697086D01*
X126925905Y-104688328D01*
X126930219Y-104679094D01*
X126933618Y-104669383D01*
X126936103Y-104659196D01*
X126937674Y-104648532D01*
X126938213Y-104641158D01*
X127072302Y-104641158D01*
X127070129Y-104655002D01*
X127067395Y-104668444D01*
X127064099Y-104681487D01*
X127060243Y-104694128D01*
X127055826Y-104706369D01*
X127050847Y-104718209D01*
X127045308Y-104729648D01*
X127039207Y-104740687D01*
X127032546Y-104751325D01*
X127025324Y-104761562D01*
X127017540Y-104771398D01*
X127009196Y-104780834D01*
X127000291Y-104789869D01*
X126990824Y-104798504D01*
X126980797Y-104806737D01*
X126970209Y-104814570D01*
X126959221Y-104821964D01*
X126947933Y-104828881D01*
X126936346Y-104835321D01*
X126924459Y-104841284D01*
X126912273Y-104846770D01*
X126899787Y-104851779D01*
X126887001Y-104856311D01*
X126873916Y-104860366D01*
X126860531Y-104863944D01*
X126846847Y-104867044D01*
X126832863Y-104869668D01*
X126818580Y-104871815D01*
X126803997Y-104873484D01*
X126789114Y-104874677D01*
X126773932Y-104875393D01*
X126758450Y-104875631D01*
X126748467Y-104875532D01*
X126738607Y-104875236D01*
X126719257Y-104874051D01*
X126700399Y-104872076D01*
X126682033Y-104869311D01*
X126664159Y-104865756D01*
X126646778Y-104861412D01*
X126629889Y-104856277D01*
X126613492Y-104850352D01*
X126597588Y-104843637D01*
X126582176Y-104836132D01*
X126567256Y-104827838D01*
X126552828Y-104818753D01*
X126538893Y-104808878D01*
X126525450Y-104798214D01*
X126512500Y-104786759D01*
X126500041Y-104774515D01*
X126488240Y-104761564D01*
X126477201Y-104747991D01*
X126466923Y-104733797D01*
X126457406Y-104718980D01*
X126448650Y-104703541D01*
X126440656Y-104687480D01*
X126433423Y-104670797D01*
X126426952Y-104653492D01*
X126421242Y-104635565D01*
X126416293Y-104617016D01*
X126412105Y-104597845D01*
X126410297Y-104588026D01*
X126408679Y-104578052D01*
X126407252Y-104567922D01*
X126406015Y-104557636D01*
X126404968Y-104547195D01*
X126404111Y-104536599D01*
X126403445Y-104525847D01*
X126402969Y-104514940D01*
X126402684Y-104503877D01*
X126402588Y-104492658D01*
X126402681Y-104481514D01*
X126402957Y-104470523D01*
X126403417Y-104459683D01*
X126404062Y-104448996D01*
X126404890Y-104438461D01*
X126405903Y-104428078D01*
X126406577Y-104422316D01*
X126539853Y-104422316D01*
X126949204Y-104422316D01*
X126947067Y-104409786D01*
X126944624Y-104397655D01*
X126941877Y-104385926D01*
X126938824Y-104374597D01*
X126935465Y-104363669D01*
X126931802Y-104353142D01*
X126927833Y-104343016D01*
X126923558Y-104333290D01*
X126918979Y-104323965D01*
X126914094Y-104315040D01*
X126908904Y-104306517D01*
X126903408Y-104298394D01*
X126894593Y-104286960D01*
X126885090Y-104276429D01*
X126878374Y-104269909D01*
X126867853Y-104260830D01*
X126856898Y-104252644D01*
X126845510Y-104245351D01*
X126833689Y-104238951D01*
X126821433Y-104233444D01*
X126808744Y-104228830D01*
X126795622Y-104225109D01*
X126782066Y-104222281D01*
X126768076Y-104220347D01*
X126753652Y-104219305D01*
X126743796Y-104219106D01*
X126729426Y-104219548D01*
X126715443Y-104220875D01*
X126701846Y-104223086D01*
X126688635Y-104226182D01*
X126675811Y-104230162D01*
X126663373Y-104235026D01*
X126651322Y-104240775D01*
X126639657Y-104247408D01*
X126628378Y-104254926D01*
X126617486Y-104263328D01*
X126610439Y-104269420D01*
X126600398Y-104279314D01*
X126591065Y-104290126D01*
X126582440Y-104301856D01*
X126577084Y-104310187D01*
X126572043Y-104318927D01*
X126567316Y-104328074D01*
X126562905Y-104337630D01*
X126558808Y-104347595D01*
X126555026Y-104357967D01*
X126551559Y-104368748D01*
X126548406Y-104379938D01*
X126545569Y-104391536D01*
X126543046Y-104403542D01*
X126540839Y-104415956D01*
X126539853Y-104422316D01*
X126406577Y-104422316D01*
X126407100Y-104417847D01*
X126408481Y-104407769D01*
X126410046Y-104397842D01*
X126411795Y-104388068D01*
X126413729Y-104378446D01*
X126418148Y-104359658D01*
X126423304Y-104341479D01*
X126429196Y-104323909D01*
X126435825Y-104306948D01*
X126443191Y-104290595D01*
X126451293Y-104274851D01*
X126460131Y-104259715D01*
X126469706Y-104245188D01*
X126480018Y-104231270D01*
X126491066Y-104217961D01*
X126496866Y-104211535D01*
X126508909Y-104199201D01*
X126521405Y-104187664D01*
X126534356Y-104176922D01*
X126547760Y-104166976D01*
X126561619Y-104157825D01*
X126575932Y-104149470D01*
X126590699Y-104141911D01*
X126605921Y-104135148D01*
X126621596Y-104129180D01*
X126637726Y-104124008D01*
X126654309Y-104119632D01*
X126671347Y-104116051D01*
X126688839Y-104113266D01*
X126706785Y-104111277D01*
X126725186Y-104110083D01*
X126744040Y-104109685D01*
X126763273Y-104110084D01*
G37*
G36*
X127357090Y-104219595D02*
G01*
X127369303Y-104206285D01*
X127381701Y-104193835D01*
X127394284Y-104182243D01*
X127407052Y-104171509D01*
X127420006Y-104161635D01*
X127433144Y-104152619D01*
X127446468Y-104144461D01*
X127459977Y-104137163D01*
X127473671Y-104130723D01*
X127487550Y-104125141D01*
X127501614Y-104120419D01*
X127515863Y-104116555D01*
X127530297Y-104113549D01*
X127544916Y-104111403D01*
X127559720Y-104110115D01*
X127574710Y-104109685D01*
X127589887Y-104109950D01*
X127604582Y-104110742D01*
X127618795Y-104112062D01*
X127632527Y-104113910D01*
X127645776Y-104116286D01*
X127658544Y-104119191D01*
X127670830Y-104122623D01*
X127682635Y-104126584D01*
X127693957Y-104131073D01*
X127704798Y-104136089D01*
X127715157Y-104141634D01*
X127725034Y-104147707D01*
X127734429Y-104154308D01*
X127743342Y-104161437D01*
X127751774Y-104169094D01*
X127759724Y-104177280D01*
X127767192Y-104185993D01*
X127774178Y-104195234D01*
X127780682Y-104205004D01*
X127786705Y-104215301D01*
X127792246Y-104226127D01*
X127797305Y-104237481D01*
X127801882Y-104249363D01*
X127805977Y-104261772D01*
X127809591Y-104274710D01*
X127812723Y-104288176D01*
X127815373Y-104302171D01*
X127817541Y-104316693D01*
X127819227Y-104331743D01*
X127820432Y-104347321D01*
X127821154Y-104363428D01*
X127821395Y-104380062D01*
X127821395Y-104860000D01*
X127691458Y-104860000D01*
X127691458Y-104387145D01*
X127691333Y-104376167D01*
X127690958Y-104365579D01*
X127690333Y-104355383D01*
X127689458Y-104345578D01*
X127687677Y-104331604D01*
X127685334Y-104318510D01*
X127682428Y-104306296D01*
X127678960Y-104294963D01*
X127674929Y-104284509D01*
X127670336Y-104274936D01*
X127665180Y-104266243D01*
X127659462Y-104258429D01*
X127650883Y-104249213D01*
X127641022Y-104241226D01*
X127629878Y-104234467D01*
X127620679Y-104230204D01*
X127610759Y-104226633D01*
X127600117Y-104223753D01*
X127588754Y-104221564D01*
X127576670Y-104220066D01*
X127563864Y-104219260D01*
X127554926Y-104219106D01*
X127542561Y-104219564D01*
X127530197Y-104220938D01*
X127517832Y-104223228D01*
X127505467Y-104226434D01*
X127493102Y-104230555D01*
X127480737Y-104235593D01*
X127468373Y-104241546D01*
X127456008Y-104248415D01*
X127443643Y-104256201D01*
X127431278Y-104264902D01*
X127418913Y-104274519D01*
X127406549Y-104285052D01*
X127394184Y-104296501D01*
X127381819Y-104308866D01*
X127369454Y-104322146D01*
X127357090Y-104336343D01*
X127357090Y-104860000D01*
X127227152Y-104860000D01*
X127227152Y-104125317D01*
X127357090Y-104125317D01*
X127357090Y-104219595D01*
G37*
G36*
X128282232Y-104109967D02*
G01*
X128296554Y-104110811D01*
X128310595Y-104112219D01*
X128324352Y-104114189D01*
X128337828Y-104116722D01*
X128351021Y-104119818D01*
X128363931Y-104123477D01*
X128376559Y-104127698D01*
X128388905Y-104132483D01*
X128400968Y-104137831D01*
X128412749Y-104143741D01*
X128424248Y-104150215D01*
X128435464Y-104157251D01*
X128446397Y-104164850D01*
X128457049Y-104173012D01*
X128467418Y-104181737D01*
X128467418Y-104125317D01*
X128596622Y-104125317D01*
X128596622Y-104802847D01*
X128596312Y-104824635D01*
X128595382Y-104845732D01*
X128593831Y-104866138D01*
X128591661Y-104885851D01*
X128588870Y-104904873D01*
X128585459Y-104923203D01*
X128581428Y-104940841D01*
X128576777Y-104957788D01*
X128571506Y-104974043D01*
X128565615Y-104989607D01*
X128559103Y-105004478D01*
X128551971Y-105018658D01*
X128544219Y-105032146D01*
X128535847Y-105044943D01*
X128526855Y-105057048D01*
X128517243Y-105068461D01*
X128507011Y-105079182D01*
X128496158Y-105089212D01*
X128484685Y-105098550D01*
X128472592Y-105107196D01*
X128459879Y-105115151D01*
X128446546Y-105122414D01*
X128432593Y-105128985D01*
X128418019Y-105134864D01*
X128402826Y-105140052D01*
X128387012Y-105144548D01*
X128370578Y-105148353D01*
X128353524Y-105151465D01*
X128335850Y-105153886D01*
X128317555Y-105155615D01*
X128298641Y-105156653D01*
X128279106Y-105156999D01*
X128262174Y-105156767D01*
X128245695Y-105156071D01*
X128229667Y-105154912D01*
X128214092Y-105153289D01*
X128198969Y-105151203D01*
X128184298Y-105148653D01*
X128170080Y-105145639D01*
X128156313Y-105142161D01*
X128142999Y-105138220D01*
X128130137Y-105133815D01*
X128117728Y-105128946D01*
X128105770Y-105123614D01*
X128094265Y-105117818D01*
X128083212Y-105111558D01*
X128072611Y-105104835D01*
X128062463Y-105097648D01*
X128052851Y-105090070D01*
X128043858Y-105082173D01*
X128035486Y-105073957D01*
X128027735Y-105065423D01*
X128020603Y-105056570D01*
X128014091Y-105047399D01*
X128008200Y-105037908D01*
X128002929Y-105028100D01*
X127998278Y-105017972D01*
X127994247Y-105007526D01*
X127990836Y-104996761D01*
X127988045Y-104985678D01*
X127985875Y-104974276D01*
X127984324Y-104962555D01*
X127983394Y-104950515D01*
X127983084Y-104938157D01*
X128117173Y-104938157D01*
X128117801Y-104951407D01*
X128119684Y-104963803D01*
X128122823Y-104975343D01*
X128127218Y-104986029D01*
X128132868Y-104995860D01*
X128139773Y-105004836D01*
X128147935Y-105012957D01*
X128157351Y-105020223D01*
X128168023Y-105026634D01*
X128179951Y-105032191D01*
X128193135Y-105036892D01*
X128207574Y-105040739D01*
X128223268Y-105043731D01*
X128240218Y-105045868D01*
X128258424Y-105047151D01*
X128277885Y-105047578D01*
X128289051Y-105047389D01*
X128299894Y-105046822D01*
X128310414Y-105045878D01*
X128320612Y-105044556D01*
X128330488Y-105042855D01*
X128340041Y-105040777D01*
X128353766Y-105036952D01*
X128366766Y-105032277D01*
X128379040Y-105026751D01*
X128390588Y-105020375D01*
X128401411Y-105013150D01*
X128411508Y-105005074D01*
X128417836Y-104999218D01*
X128426697Y-104989318D01*
X128434686Y-104977751D01*
X128439528Y-104969115D01*
X128443983Y-104959738D01*
X128448050Y-104949621D01*
X128451730Y-104938764D01*
X128455022Y-104927166D01*
X128457927Y-104914828D01*
X128460445Y-104901750D01*
X128462576Y-104887931D01*
X128464319Y-104873372D01*
X128465674Y-104858072D01*
X128466643Y-104842032D01*
X128467224Y-104825252D01*
X128467418Y-104807732D01*
X128467418Y-104771339D01*
X128456472Y-104783968D01*
X128445252Y-104795783D01*
X128433758Y-104806782D01*
X128421988Y-104816967D01*
X128409944Y-104826337D01*
X128397625Y-104834892D01*
X128385031Y-104842632D01*
X128372163Y-104849558D01*
X128359019Y-104855669D01*
X128345601Y-104860965D01*
X128331909Y-104865446D01*
X128317941Y-104869113D01*
X128303698Y-104871965D01*
X128289181Y-104874001D01*
X128274389Y-104875224D01*
X128259323Y-104875631D01*
X128241714Y-104875232D01*
X128224610Y-104874036D01*
X128208009Y-104872042D01*
X128191912Y-104869250D01*
X128176318Y-104865661D01*
X128161229Y-104861274D01*
X128146643Y-104856090D01*
X128132561Y-104850108D01*
X128118982Y-104843328D01*
X128105908Y-104835751D01*
X128093337Y-104827376D01*
X128081270Y-104818203D01*
X128069706Y-104808233D01*
X128058647Y-104797466D01*
X128048091Y-104785900D01*
X128038039Y-104773538D01*
X128028574Y-104760498D01*
X128019720Y-104746904D01*
X128011477Y-104732754D01*
X128003845Y-104718049D01*
X127996823Y-104702788D01*
X127990411Y-104686973D01*
X127984610Y-104670602D01*
X127979420Y-104653675D01*
X127974841Y-104636194D01*
X127970872Y-104618157D01*
X127967513Y-104599565D01*
X127964766Y-104580418D01*
X127963621Y-104570636D01*
X127962629Y-104560715D01*
X127961789Y-104550656D01*
X127961102Y-104540457D01*
X127960568Y-104530120D01*
X127960186Y-104519644D01*
X127959957Y-104509029D01*
X127959881Y-104498276D01*
X128092993Y-104498276D01*
X128093176Y-104514484D01*
X128093726Y-104530195D01*
X128094642Y-104545411D01*
X128095924Y-104560130D01*
X128097573Y-104574354D01*
X128099588Y-104588081D01*
X128101969Y-104601312D01*
X128104717Y-104614047D01*
X128107831Y-104626286D01*
X128111311Y-104638029D01*
X128115158Y-104649275D01*
X128119371Y-104660026D01*
X128123951Y-104670280D01*
X128128897Y-104680038D01*
X128134209Y-104689300D01*
X128139888Y-104698066D01*
X128145921Y-104706318D01*
X128152237Y-104714038D01*
X128162241Y-104724619D01*
X128172880Y-104734002D01*
X128184154Y-104742187D01*
X128196064Y-104749174D01*
X128208609Y-104754964D01*
X128221789Y-104759556D01*
X128235605Y-104762949D01*
X128250057Y-104765146D01*
X128260044Y-104765944D01*
X128270314Y-104766210D01*
X128283792Y-104765733D01*
X128297115Y-104764302D01*
X128310284Y-104761917D01*
X128323299Y-104758578D01*
X128336159Y-104754284D01*
X128348864Y-104749037D01*
X128361415Y-104742835D01*
X128373811Y-104735680D01*
X128386053Y-104727570D01*
X128398140Y-104718507D01*
X128410073Y-104708489D01*
X128421851Y-104697517D01*
X128433474Y-104685591D01*
X128444943Y-104672711D01*
X128456258Y-104658877D01*
X128467418Y-104644089D01*
X128467418Y-104305812D01*
X128456851Y-104295313D01*
X128446096Y-104285491D01*
X128435152Y-104276346D01*
X128424019Y-104267879D01*
X128412697Y-104260089D01*
X128401186Y-104252976D01*
X128389486Y-104246541D01*
X128377597Y-104240783D01*
X128365520Y-104235702D01*
X128353253Y-104231299D01*
X128340798Y-104227574D01*
X128328153Y-104224525D01*
X128315320Y-104222155D01*
X128302298Y-104220461D01*
X128289087Y-104219445D01*
X128275687Y-104219106D01*
X128265436Y-104219380D01*
X128255445Y-104220202D01*
X128245714Y-104221571D01*
X128231603Y-104224651D01*
X128218076Y-104228964D01*
X128205133Y-104234509D01*
X128192774Y-104241286D01*
X128180999Y-104249295D01*
X128169808Y-104258536D01*
X128162671Y-104265382D01*
X128155794Y-104272775D01*
X128149177Y-104280716D01*
X128142819Y-104289204D01*
X128136785Y-104298235D01*
X128131141Y-104307805D01*
X128125886Y-104317912D01*
X128121020Y-104328558D01*
X128116544Y-104339741D01*
X128112456Y-104351463D01*
X128108758Y-104363723D01*
X128105450Y-104376521D01*
X128102530Y-104389857D01*
X128100000Y-104403731D01*
X128097859Y-104418143D01*
X128096107Y-104433094D01*
X128094745Y-104448582D01*
X128093772Y-104464608D01*
X128093188Y-104481173D01*
X128092993Y-104498276D01*
X127959881Y-104498276D01*
X127959966Y-104487129D01*
X127960222Y-104476129D01*
X127960649Y-104465275D01*
X127961247Y-104454568D01*
X127962016Y-104444007D01*
X127962955Y-104433593D01*
X127964065Y-104423325D01*
X127965346Y-104413203D01*
X127966797Y-104403228D01*
X127968420Y-104393399D01*
X127970213Y-104383717D01*
X127974312Y-104364792D01*
X127979094Y-104346453D01*
X127984558Y-104328700D01*
X127990707Y-104311532D01*
X127997538Y-104294950D01*
X128005052Y-104278954D01*
X128013249Y-104263544D01*
X128022130Y-104248720D01*
X128031694Y-104234481D01*
X128041940Y-104220828D01*
X128047320Y-104214221D01*
X128058456Y-104201563D01*
X128069943Y-104189721D01*
X128081781Y-104178696D01*
X128093970Y-104168487D01*
X128106511Y-104159095D01*
X128119402Y-104150520D01*
X128132645Y-104142761D01*
X128146238Y-104135819D01*
X128160183Y-104129694D01*
X128174479Y-104124386D01*
X128189126Y-104119894D01*
X128204124Y-104116219D01*
X128219473Y-104113361D01*
X128235173Y-104111319D01*
X128251224Y-104110094D01*
X128267627Y-104109685D01*
X128282232Y-104109967D01*
G37*
G36*
X129246064Y-104764989D02*
G01*
X129233851Y-104778387D01*
X129221452Y-104790921D01*
X129208869Y-104802590D01*
X129196101Y-104813395D01*
X129183147Y-104823335D01*
X129170009Y-104832412D01*
X129156685Y-104840623D01*
X129143176Y-104847971D01*
X129129483Y-104854453D01*
X129115604Y-104860072D01*
X129101540Y-104864826D01*
X129087291Y-104868716D01*
X129072856Y-104871741D01*
X129058237Y-104873902D01*
X129043433Y-104875199D01*
X129028443Y-104875631D01*
X129013266Y-104875367D01*
X128998571Y-104874573D01*
X128984358Y-104873250D01*
X128970626Y-104871399D01*
X128957377Y-104869018D01*
X128944609Y-104866108D01*
X128932323Y-104862670D01*
X128920519Y-104858702D01*
X128909196Y-104854205D01*
X128898355Y-104849179D01*
X128887997Y-104843624D01*
X128878119Y-104837541D01*
X128868724Y-104830928D01*
X128859811Y-104823786D01*
X128851379Y-104816115D01*
X128843429Y-104807915D01*
X128835961Y-104799186D01*
X128828975Y-104789928D01*
X128822471Y-104780140D01*
X128816448Y-104769824D01*
X128810907Y-104758979D01*
X128805848Y-104747605D01*
X128801271Y-104735702D01*
X128797176Y-104723269D01*
X128793562Y-104710308D01*
X128790431Y-104696818D01*
X128787781Y-104682798D01*
X128785613Y-104668250D01*
X128783926Y-104653172D01*
X128782722Y-104637566D01*
X128781999Y-104621430D01*
X128781758Y-104604766D01*
X128781758Y-104125317D01*
X128911451Y-104125317D01*
X128911451Y-104598171D01*
X128911574Y-104609150D01*
X128911943Y-104619737D01*
X128912559Y-104629933D01*
X128913420Y-104639738D01*
X128915174Y-104653712D01*
X128917482Y-104666806D01*
X128920343Y-104679020D01*
X128923759Y-104690354D01*
X128927728Y-104700807D01*
X128932251Y-104710381D01*
X128937328Y-104719074D01*
X128942958Y-104726887D01*
X128951537Y-104736103D01*
X128961399Y-104744091D01*
X128972542Y-104750850D01*
X128981741Y-104755112D01*
X128991662Y-104758684D01*
X129002304Y-104761564D01*
X129013667Y-104763753D01*
X129025751Y-104765250D01*
X129038557Y-104766057D01*
X129047494Y-104766210D01*
X129060978Y-104765752D01*
X129074319Y-104764378D01*
X129087517Y-104762089D01*
X129100571Y-104758883D01*
X129113483Y-104754761D01*
X129126251Y-104749724D01*
X129138876Y-104743770D01*
X129151359Y-104736901D01*
X129163698Y-104729116D01*
X129175893Y-104720415D01*
X129187946Y-104710798D01*
X129199856Y-104700265D01*
X129211623Y-104688816D01*
X129223246Y-104676451D01*
X129234726Y-104663170D01*
X129246064Y-104648974D01*
X129246064Y-104125317D01*
X129375268Y-104125317D01*
X129375268Y-104860000D01*
X129246064Y-104860000D01*
X129246064Y-104764989D01*
G37*
G36*
X129693028Y-104860000D02*
G01*
X129563091Y-104860000D01*
X129563091Y-104125317D01*
X129693028Y-104125317D01*
X129693028Y-104860000D01*
G37*
G36*
X129693028Y-104000265D02*
G01*
X129563091Y-104000265D01*
X129563091Y-103859581D01*
X129693028Y-103859581D01*
X129693028Y-104000265D01*
G37*
G36*
X130011521Y-104219595D02*
G01*
X130023734Y-104206285D01*
X130036132Y-104193835D01*
X130048715Y-104182243D01*
X130061484Y-104171509D01*
X130074437Y-104161635D01*
X130087576Y-104152619D01*
X130100899Y-104144461D01*
X130114408Y-104137163D01*
X130128102Y-104130723D01*
X130141981Y-104125141D01*
X130156045Y-104120419D01*
X130170294Y-104116555D01*
X130184728Y-104113549D01*
X130199347Y-104111403D01*
X130214152Y-104110115D01*
X130229141Y-104109685D01*
X130244318Y-104109950D01*
X130259013Y-104110742D01*
X130273227Y-104112062D01*
X130286958Y-104113910D01*
X130300208Y-104116286D01*
X130312976Y-104119191D01*
X130325262Y-104122623D01*
X130337066Y-104126584D01*
X130348388Y-104131073D01*
X130359229Y-104136089D01*
X130369588Y-104141634D01*
X130379465Y-104147707D01*
X130388860Y-104154308D01*
X130397774Y-104161437D01*
X130406205Y-104169094D01*
X130414155Y-104177280D01*
X130421623Y-104185993D01*
X130428609Y-104195234D01*
X130435114Y-104205004D01*
X130441136Y-104215301D01*
X130446677Y-104226127D01*
X130451736Y-104237481D01*
X130456313Y-104249363D01*
X130460409Y-104261772D01*
X130464022Y-104274710D01*
X130467154Y-104288176D01*
X130469804Y-104302171D01*
X130471972Y-104316693D01*
X130473658Y-104331743D01*
X130474863Y-104347321D01*
X130475586Y-104363428D01*
X130475826Y-104380062D01*
X130475826Y-104860000D01*
X130345889Y-104860000D01*
X130345889Y-104387145D01*
X130345764Y-104376167D01*
X130345389Y-104365579D01*
X130344764Y-104355383D01*
X130343890Y-104345578D01*
X130342108Y-104331604D01*
X130339765Y-104318510D01*
X130336859Y-104306296D01*
X130333391Y-104294963D01*
X130329360Y-104284509D01*
X130324767Y-104274936D01*
X130319611Y-104266243D01*
X130313893Y-104258429D01*
X130305314Y-104249213D01*
X130295453Y-104241226D01*
X130284310Y-104234467D01*
X130275110Y-104230204D01*
X130265190Y-104226633D01*
X130254548Y-104223753D01*
X130243185Y-104221564D01*
X130231101Y-104220066D01*
X130218295Y-104219260D01*
X130209357Y-104219106D01*
X130196993Y-104219564D01*
X130184628Y-104220938D01*
X130172263Y-104223228D01*
X130159898Y-104226434D01*
X130147534Y-104230555D01*
X130135169Y-104235593D01*
X130122804Y-104241546D01*
X130110439Y-104248415D01*
X130098074Y-104256201D01*
X130085710Y-104264902D01*
X130073345Y-104274519D01*
X130060980Y-104285052D01*
X130048615Y-104296501D01*
X130036250Y-104308866D01*
X130023886Y-104322146D01*
X130011521Y-104336343D01*
X130011521Y-104860000D01*
X129881584Y-104860000D01*
X129881584Y-104125317D01*
X130011521Y-104125317D01*
X130011521Y-104219595D01*
G37*
G36*
X114920258Y-107110000D02*
G01*
X114253230Y-107110000D01*
X114253453Y-107098735D01*
X114254120Y-107087533D01*
X114255231Y-107076394D01*
X114256787Y-107065318D01*
X114258788Y-107054305D01*
X114261233Y-107043356D01*
X114264123Y-107032469D01*
X114267458Y-107021645D01*
X114271237Y-107010884D01*
X114275460Y-107000186D01*
X114280129Y-106989551D01*
X114285242Y-106978978D01*
X114290799Y-106968469D01*
X114296801Y-106958023D01*
X114303248Y-106947640D01*
X114310139Y-106937320D01*
X114317654Y-106926853D01*
X114325912Y-106916090D01*
X114334912Y-106905031D01*
X114344654Y-106893677D01*
X114355138Y-106882026D01*
X114366365Y-106870081D01*
X114378333Y-106857839D01*
X114391045Y-106845301D01*
X114404498Y-106832468D01*
X114418694Y-106819339D01*
X114426070Y-106812664D01*
X114433631Y-106805914D01*
X114441379Y-106799091D01*
X114449312Y-106792194D01*
X114457430Y-106785223D01*
X114465734Y-106778177D01*
X114474224Y-106771058D01*
X114482899Y-106763865D01*
X114491760Y-106756598D01*
X114500806Y-106749258D01*
X114510038Y-106741843D01*
X114519455Y-106734354D01*
X114528872Y-106726861D01*
X114538101Y-106719463D01*
X114547142Y-106712160D01*
X114555996Y-106704953D01*
X114564663Y-106697842D01*
X114573142Y-106690825D01*
X114581433Y-106683904D01*
X114589538Y-106677079D01*
X114597454Y-106670349D01*
X114605183Y-106663714D01*
X114612725Y-106657175D01*
X114620079Y-106650731D01*
X114634225Y-106638130D01*
X114647622Y-106625910D01*
X114660268Y-106614072D01*
X114672164Y-106602616D01*
X114683311Y-106591541D01*
X114693707Y-106580847D01*
X114703354Y-106570536D01*
X114712251Y-106560606D01*
X114720397Y-106551057D01*
X114727794Y-106541891D01*
X114734626Y-106532839D01*
X114741018Y-106523637D01*
X114746968Y-106514285D01*
X114752478Y-106504781D01*
X114757547Y-106495127D01*
X114762175Y-106485322D01*
X114766363Y-106475366D01*
X114770109Y-106465259D01*
X114773415Y-106455002D01*
X114776280Y-106444594D01*
X114778705Y-106434035D01*
X114780688Y-106423326D01*
X114782231Y-106412466D01*
X114783333Y-106401455D01*
X114783994Y-106390293D01*
X114784214Y-106378981D01*
X114784026Y-106368889D01*
X114783463Y-106359071D01*
X114781912Y-106344855D01*
X114779516Y-106331253D01*
X114776273Y-106318265D01*
X114772185Y-106305891D01*
X114767252Y-106294131D01*
X114761472Y-106282985D01*
X114754847Y-106272452D01*
X114747376Y-106262534D01*
X114739059Y-106253230D01*
X114736099Y-106250265D01*
X114726733Y-106241884D01*
X114716681Y-106234328D01*
X114705942Y-106227596D01*
X114694516Y-106221688D01*
X114682403Y-106216605D01*
X114669603Y-106212346D01*
X114656117Y-106208911D01*
X114641943Y-106206301D01*
X114632112Y-106205019D01*
X114621976Y-106204103D01*
X114611535Y-106203553D01*
X114600788Y-106203370D01*
X114586828Y-106203789D01*
X114573251Y-106205044D01*
X114560055Y-106207137D01*
X114547242Y-106210068D01*
X114534810Y-106213835D01*
X114522761Y-106218440D01*
X114511094Y-106223881D01*
X114499809Y-106230160D01*
X114488906Y-106237277D01*
X114478385Y-106245230D01*
X114471584Y-106250997D01*
X114461964Y-106260320D01*
X114453165Y-106270429D01*
X114445186Y-106281323D01*
X114438027Y-106293003D01*
X114431688Y-106305469D01*
X114426169Y-106318720D01*
X114422945Y-106327991D01*
X114420086Y-106337611D01*
X114417591Y-106347580D01*
X114415460Y-106357898D01*
X114413694Y-106368566D01*
X114412293Y-106379583D01*
X114411256Y-106390949D01*
X114277411Y-106390949D01*
X114279080Y-106374247D01*
X114281341Y-106357972D01*
X114284194Y-106342122D01*
X114287638Y-106326697D01*
X114291674Y-106311698D01*
X114296301Y-106297125D01*
X114301520Y-106282977D01*
X114307330Y-106269255D01*
X114313732Y-106255958D01*
X114320725Y-106243086D01*
X114328310Y-106230640D01*
X114336487Y-106218620D01*
X114345255Y-106207025D01*
X114354614Y-106195856D01*
X114364565Y-106185112D01*
X114375108Y-106174794D01*
X114386190Y-106165004D01*
X114397700Y-106155846D01*
X114409637Y-106147319D01*
X114422002Y-106139424D01*
X114434795Y-106132161D01*
X114448014Y-106125529D01*
X114461661Y-106119529D01*
X114475736Y-106114160D01*
X114490238Y-106109423D01*
X114505167Y-106105318D01*
X114520524Y-106101844D01*
X114536308Y-106099002D01*
X114552520Y-106096791D01*
X114569159Y-106095212D01*
X114586225Y-106094265D01*
X114603719Y-106093949D01*
X114622257Y-106094260D01*
X114640256Y-106095193D01*
X114657718Y-106096749D01*
X114674641Y-106098926D01*
X114691026Y-106101725D01*
X114706873Y-106105146D01*
X114722182Y-106109190D01*
X114736953Y-106113855D01*
X114751186Y-106119143D01*
X114764881Y-106125052D01*
X114778038Y-106131584D01*
X114790656Y-106138737D01*
X114802737Y-106146513D01*
X114814279Y-106154911D01*
X114825283Y-106163931D01*
X114835750Y-106173572D01*
X114845658Y-106183652D01*
X114854927Y-106194047D01*
X114863556Y-106204756D01*
X114871547Y-106215781D01*
X114878898Y-106227120D01*
X114885610Y-106238774D01*
X114891682Y-106250743D01*
X114897116Y-106263026D01*
X114901910Y-106275625D01*
X114906065Y-106288538D01*
X114909581Y-106301767D01*
X114912457Y-106315310D01*
X114914694Y-106329168D01*
X114916293Y-106343340D01*
X114917251Y-106357828D01*
X114917571Y-106372630D01*
X114917334Y-106386057D01*
X114916625Y-106399287D01*
X114915442Y-106412321D01*
X114913785Y-106425158D01*
X114911656Y-106437798D01*
X114909053Y-106450242D01*
X114905977Y-106462490D01*
X114902428Y-106474541D01*
X114898406Y-106486395D01*
X114893910Y-106498053D01*
X114888941Y-106509514D01*
X114883499Y-106520779D01*
X114877584Y-106531847D01*
X114871195Y-106542719D01*
X114864334Y-106553394D01*
X114856999Y-106563872D01*
X114848991Y-106574475D01*
X114840051Y-106585583D01*
X114830177Y-106597197D01*
X114819370Y-106609317D01*
X114807630Y-106621942D01*
X114794957Y-106635073D01*
X114781351Y-106648710D01*
X114774198Y-106655718D01*
X114766812Y-106662852D01*
X114759193Y-106670113D01*
X114751340Y-106677500D01*
X114743254Y-106685013D01*
X114734935Y-106692653D01*
X114726382Y-106700420D01*
X114717596Y-106708313D01*
X114708577Y-106716332D01*
X114699325Y-106724477D01*
X114689839Y-106732749D01*
X114680120Y-106741148D01*
X114670168Y-106749673D01*
X114659983Y-106758324D01*
X114649564Y-106767102D01*
X114638912Y-106776006D01*
X114628027Y-106785037D01*
X114616908Y-106794193D01*
X114605860Y-106803312D01*
X114595156Y-106812226D01*
X114584796Y-106820937D01*
X114574780Y-106829445D01*
X114565108Y-106837748D01*
X114555780Y-106845848D01*
X114546795Y-106853744D01*
X114538155Y-106861437D01*
X114529859Y-106868925D01*
X114521906Y-106876210D01*
X114514298Y-106883292D01*
X114507033Y-106890169D01*
X114493536Y-106903314D01*
X114481414Y-106915643D01*
X114470669Y-106927158D01*
X114461299Y-106937858D01*
X114453304Y-106947743D01*
X114446686Y-106956813D01*
X114441443Y-106965069D01*
X114436159Y-106975925D01*
X114433970Y-106984947D01*
X114920258Y-106984947D01*
X114920258Y-107110000D01*
G37*
D11*
X145895855Y-101511291D02*
X145895855Y-101892243D01*
X145895855Y-101892243D02*
X146276807Y-101930339D01*
X146276807Y-101930339D02*
X146238712Y-101892243D01*
X146238712Y-101892243D02*
X146200617Y-101816053D01*
X146200617Y-101816053D02*
X146200617Y-101625577D01*
X146200617Y-101625577D02*
X146238712Y-101549386D01*
X146238712Y-101549386D02*
X146276807Y-101511291D01*
X146276807Y-101511291D02*
X146352998Y-101473196D01*
X146352998Y-101473196D02*
X146543474Y-101473196D01*
X146543474Y-101473196D02*
X146619664Y-101511291D01*
X146619664Y-101511291D02*
X146657760Y-101549386D01*
X146657760Y-101549386D02*
X146695855Y-101625577D01*
X146695855Y-101625577D02*
X146695855Y-101816053D01*
X146695855Y-101816053D02*
X146657760Y-101892243D01*
X146657760Y-101892243D02*
X146619664Y-101930339D01*
X146162521Y-101206529D02*
X146695855Y-101016053D01*
X146695855Y-101016053D02*
X146162521Y-100825576D01*
X145895855Y-100368433D02*
X145895855Y-100292243D01*
X145895855Y-100292243D02*
X145933950Y-100216052D01*
X145933950Y-100216052D02*
X145972045Y-100177957D01*
X145972045Y-100177957D02*
X146048236Y-100139862D01*
X146048236Y-100139862D02*
X146200617Y-100101767D01*
X146200617Y-100101767D02*
X146391093Y-100101767D01*
X146391093Y-100101767D02*
X146543474Y-100139862D01*
X146543474Y-100139862D02*
X146619664Y-100177957D01*
X146619664Y-100177957D02*
X146657760Y-100216052D01*
X146657760Y-100216052D02*
X146695855Y-100292243D01*
X146695855Y-100292243D02*
X146695855Y-100368433D01*
X146695855Y-100368433D02*
X146657760Y-100444624D01*
X146657760Y-100444624D02*
X146619664Y-100482719D01*
X146619664Y-100482719D02*
X146543474Y-100520814D01*
X146543474Y-100520814D02*
X146391093Y-100558910D01*
X146391093Y-100558910D02*
X146200617Y-100558910D01*
X146200617Y-100558910D02*
X146048236Y-100520814D01*
X146048236Y-100520814D02*
X145972045Y-100482719D01*
X145972045Y-100482719D02*
X145933950Y-100444624D01*
X145933950Y-100444624D02*
X145895855Y-100368433D01*
X150865855Y-101968434D02*
X150865855Y-101473196D01*
X150865855Y-101473196D02*
X151170617Y-101739862D01*
X151170617Y-101739862D02*
X151170617Y-101625577D01*
X151170617Y-101625577D02*
X151208712Y-101549386D01*
X151208712Y-101549386D02*
X151246807Y-101511291D01*
X151246807Y-101511291D02*
X151322998Y-101473196D01*
X151322998Y-101473196D02*
X151513474Y-101473196D01*
X151513474Y-101473196D02*
X151589664Y-101511291D01*
X151589664Y-101511291D02*
X151627760Y-101549386D01*
X151627760Y-101549386D02*
X151665855Y-101625577D01*
X151665855Y-101625577D02*
X151665855Y-101854148D01*
X151665855Y-101854148D02*
X151627760Y-101930339D01*
X151627760Y-101930339D02*
X151589664Y-101968434D01*
X151132521Y-101206529D02*
X151665855Y-101016053D01*
X151665855Y-101016053D02*
X151132521Y-100825576D01*
X150865855Y-100597005D02*
X150865855Y-100101767D01*
X150865855Y-100101767D02*
X151170617Y-100368433D01*
X151170617Y-100368433D02*
X151170617Y-100254148D01*
X151170617Y-100254148D02*
X151208712Y-100177957D01*
X151208712Y-100177957D02*
X151246807Y-100139862D01*
X151246807Y-100139862D02*
X151322998Y-100101767D01*
X151322998Y-100101767D02*
X151513474Y-100101767D01*
X151513474Y-100101767D02*
X151589664Y-100139862D01*
X151589664Y-100139862D02*
X151627760Y-100177957D01*
X151627760Y-100177957D02*
X151665855Y-100254148D01*
X151665855Y-100254148D02*
X151665855Y-100482719D01*
X151665855Y-100482719D02*
X151627760Y-100558910D01*
X151627760Y-100558910D02*
X151589664Y-100597005D01*
D12*
G36*
X133840823Y-104539064D02*
G01*
X133840753Y-104550409D01*
X133840543Y-104561546D01*
X133840194Y-104572475D01*
X133839705Y-104583196D01*
X133839076Y-104593709D01*
X133838307Y-104604014D01*
X133837399Y-104614111D01*
X133836350Y-104624000D01*
X133833834Y-104643154D01*
X133830759Y-104661476D01*
X133827125Y-104678966D01*
X133822932Y-104695624D01*
X133818180Y-104711450D01*
X133812869Y-104726444D01*
X133806998Y-104740607D01*
X133800569Y-104753937D01*
X133793580Y-104766435D01*
X133786032Y-104778102D01*
X133777926Y-104788936D01*
X133769260Y-104798939D01*
X133760079Y-104808226D01*
X133750365Y-104816914D01*
X133740120Y-104825002D01*
X133729341Y-104832492D01*
X133718031Y-104839382D01*
X133706188Y-104845673D01*
X133693813Y-104851365D01*
X133680905Y-104856458D01*
X133667465Y-104860952D01*
X133653492Y-104864846D01*
X133638988Y-104868142D01*
X133623951Y-104870838D01*
X133608381Y-104872935D01*
X133592279Y-104874433D01*
X133575645Y-104875331D01*
X133558478Y-104875631D01*
X133543051Y-104875341D01*
X133528032Y-104874471D01*
X133513421Y-104873021D01*
X133499219Y-104870990D01*
X133485425Y-104868380D01*
X133472039Y-104865190D01*
X133459062Y-104861419D01*
X133446493Y-104857069D01*
X133434332Y-104852138D01*
X133422580Y-104846627D01*
X133411236Y-104840536D01*
X133400300Y-104833866D01*
X133389773Y-104826615D01*
X133379654Y-104818784D01*
X133369944Y-104810372D01*
X133360642Y-104801381D01*
X133351828Y-104791883D01*
X133343583Y-104782014D01*
X133335906Y-104771772D01*
X133328798Y-104761157D01*
X133322259Y-104750171D01*
X133316289Y-104738813D01*
X133310887Y-104727083D01*
X133306053Y-104714980D01*
X133301789Y-104702506D01*
X133298092Y-104689659D01*
X133294965Y-104676441D01*
X133292406Y-104662850D01*
X133290416Y-104648887D01*
X133288994Y-104634552D01*
X133288141Y-104619845D01*
X133287857Y-104604766D01*
X133287857Y-104578632D01*
X133421702Y-104578632D01*
X133421836Y-104589211D01*
X133422237Y-104599453D01*
X133422904Y-104609361D01*
X133425041Y-104628167D01*
X133428247Y-104645631D01*
X133432521Y-104661751D01*
X133437864Y-104676527D01*
X133444276Y-104689961D01*
X133451756Y-104702051D01*
X133460304Y-104712797D01*
X133469921Y-104722201D01*
X133480607Y-104730261D01*
X133492361Y-104736977D01*
X133505184Y-104742351D01*
X133519075Y-104746381D01*
X133534035Y-104749067D01*
X133550063Y-104750411D01*
X133558478Y-104750579D01*
X133571692Y-104750229D01*
X133584313Y-104749179D01*
X133596341Y-104747430D01*
X133607777Y-104744980D01*
X133618621Y-104741831D01*
X133628872Y-104737982D01*
X133638530Y-104733433D01*
X133647596Y-104728185D01*
X133656070Y-104722236D01*
X133663951Y-104715588D01*
X133668876Y-104710767D01*
X133675773Y-104702471D01*
X133681991Y-104692603D01*
X133687531Y-104681165D01*
X133692392Y-104668154D01*
X133695256Y-104658608D01*
X133697819Y-104648363D01*
X133700080Y-104637420D01*
X133702040Y-104625778D01*
X133703698Y-104613438D01*
X133705054Y-104600400D01*
X133706110Y-104586663D01*
X133706863Y-104572228D01*
X133707316Y-104557094D01*
X133707466Y-104541263D01*
X133707466Y-103859581D01*
X133840823Y-103859581D01*
X133840823Y-104539064D01*
G37*
G36*
X134506629Y-104764989D02*
G01*
X134494416Y-104778387D01*
X134482018Y-104790921D01*
X134469434Y-104802590D01*
X134456666Y-104813395D01*
X134443713Y-104823335D01*
X134430574Y-104832412D01*
X134417250Y-104840623D01*
X134403742Y-104847971D01*
X134390048Y-104854453D01*
X134376169Y-104860072D01*
X134362105Y-104864826D01*
X134347856Y-104868716D01*
X134333422Y-104871741D01*
X134318802Y-104873902D01*
X134303998Y-104875199D01*
X134289009Y-104875631D01*
X134273832Y-104875367D01*
X134259137Y-104874573D01*
X134244923Y-104873250D01*
X134231192Y-104871399D01*
X134217942Y-104869018D01*
X134205174Y-104866108D01*
X134192888Y-104862670D01*
X134181084Y-104858702D01*
X134169761Y-104854205D01*
X134158921Y-104849179D01*
X134148562Y-104843624D01*
X134138685Y-104837541D01*
X134129289Y-104830928D01*
X134120376Y-104823786D01*
X134111944Y-104816115D01*
X134103995Y-104807915D01*
X134096527Y-104799186D01*
X134089540Y-104789928D01*
X134083036Y-104780140D01*
X134077013Y-104769824D01*
X134071473Y-104758979D01*
X134066414Y-104747605D01*
X134061836Y-104735702D01*
X134057741Y-104723269D01*
X134054128Y-104710308D01*
X134050996Y-104696818D01*
X134048346Y-104682798D01*
X134046178Y-104668250D01*
X134044491Y-104653172D01*
X134043287Y-104637566D01*
X134042564Y-104621430D01*
X134042323Y-104604766D01*
X134042323Y-104125317D01*
X134172016Y-104125317D01*
X134172016Y-104598171D01*
X134172139Y-104609150D01*
X134172509Y-104619737D01*
X134173124Y-104629933D01*
X134173985Y-104639738D01*
X134175739Y-104653712D01*
X134178047Y-104666806D01*
X134180908Y-104679020D01*
X134184324Y-104690354D01*
X134188293Y-104700807D01*
X134192816Y-104710381D01*
X134197893Y-104719074D01*
X134203524Y-104726887D01*
X134212103Y-104736103D01*
X134221964Y-104744091D01*
X134233107Y-104750850D01*
X134242307Y-104755112D01*
X134252227Y-104758684D01*
X134262869Y-104761564D01*
X134274232Y-104763753D01*
X134286316Y-104765250D01*
X134299122Y-104766057D01*
X134308060Y-104766210D01*
X134321543Y-104765752D01*
X134334884Y-104764378D01*
X134348082Y-104762089D01*
X134361137Y-104758883D01*
X134374048Y-104754761D01*
X134386816Y-104749724D01*
X134399442Y-104743770D01*
X134411924Y-104736901D01*
X134424263Y-104729116D01*
X134436459Y-104720415D01*
X134448512Y-104710798D01*
X134460421Y-104700265D01*
X134472188Y-104688816D01*
X134483811Y-104676451D01*
X134495292Y-104663170D01*
X134506629Y-104648974D01*
X134506629Y-104125317D01*
X134635833Y-104125317D01*
X134635833Y-104860000D01*
X134506629Y-104860000D01*
X134506629Y-104764989D01*
G37*
G36*
X134953593Y-104219595D02*
G01*
X134965806Y-104206285D01*
X134978205Y-104193835D01*
X134990788Y-104182243D01*
X135003556Y-104171509D01*
X135016510Y-104161635D01*
X135029648Y-104152619D01*
X135042972Y-104144461D01*
X135056481Y-104137163D01*
X135070174Y-104130723D01*
X135084053Y-104125141D01*
X135098117Y-104120419D01*
X135112366Y-104116555D01*
X135126801Y-104113549D01*
X135141420Y-104111403D01*
X135156224Y-104110115D01*
X135171214Y-104109685D01*
X135186391Y-104109950D01*
X135201086Y-104110742D01*
X135215299Y-104112062D01*
X135229031Y-104113910D01*
X135242280Y-104116286D01*
X135255048Y-104119191D01*
X135267334Y-104122623D01*
X135279139Y-104126584D01*
X135290461Y-104131073D01*
X135301302Y-104136089D01*
X135311661Y-104141634D01*
X135321538Y-104147707D01*
X135330933Y-104154308D01*
X135339846Y-104161437D01*
X135348278Y-104169094D01*
X135356228Y-104177280D01*
X135363696Y-104185993D01*
X135370682Y-104195234D01*
X135377186Y-104205004D01*
X135383209Y-104215301D01*
X135388750Y-104226127D01*
X135393809Y-104237481D01*
X135398386Y-104249363D01*
X135402481Y-104261772D01*
X135406095Y-104274710D01*
X135409226Y-104288176D01*
X135411876Y-104302171D01*
X135414045Y-104316693D01*
X135415731Y-104331743D01*
X135416935Y-104347321D01*
X135417658Y-104363428D01*
X135417899Y-104380062D01*
X135417899Y-104860000D01*
X135287962Y-104860000D01*
X135287962Y-104387145D01*
X135287837Y-104376167D01*
X135287462Y-104365579D01*
X135286837Y-104355383D01*
X135285962Y-104345578D01*
X135284181Y-104331604D01*
X135281838Y-104318510D01*
X135278932Y-104306296D01*
X135275463Y-104294963D01*
X135271433Y-104284509D01*
X135266840Y-104274936D01*
X135261684Y-104266243D01*
X135255966Y-104258429D01*
X135247387Y-104249213D01*
X135237526Y-104241226D01*
X135226382Y-104234467D01*
X135217183Y-104230204D01*
X135207262Y-104226633D01*
X135196621Y-104223753D01*
X135185258Y-104221564D01*
X135173173Y-104220066D01*
X135160368Y-104219260D01*
X135151430Y-104219106D01*
X135139065Y-104219564D01*
X135126700Y-104220938D01*
X135114336Y-104223228D01*
X135101971Y-104226434D01*
X135089606Y-104230555D01*
X135077241Y-104235593D01*
X135064877Y-104241546D01*
X135052512Y-104248415D01*
X135040147Y-104256201D01*
X135027782Y-104264902D01*
X135015417Y-104274519D01*
X135003053Y-104285052D01*
X134990688Y-104296501D01*
X134978323Y-104308866D01*
X134965958Y-104322146D01*
X134953593Y-104336343D01*
X134953593Y-104860000D01*
X134823656Y-104860000D01*
X134823656Y-104125317D01*
X134953593Y-104125317D01*
X134953593Y-104219595D01*
G37*
G36*
X135732240Y-104860000D02*
G01*
X135602302Y-104860000D01*
X135602302Y-104125317D01*
X135732240Y-104125317D01*
X135732240Y-104860000D01*
G37*
G36*
X135732240Y-104000265D02*
G01*
X135602302Y-104000265D01*
X135602302Y-103859581D01*
X135732240Y-103859581D01*
X135732240Y-104000265D01*
G37*
G36*
X136235562Y-104110077D02*
G01*
X136254305Y-104111250D01*
X136272557Y-104113206D01*
X136290319Y-104115944D01*
X136307591Y-104119465D01*
X136324372Y-104123768D01*
X136340663Y-104128853D01*
X136356463Y-104134720D01*
X136371773Y-104141370D01*
X136386593Y-104148802D01*
X136400922Y-104157017D01*
X136414761Y-104166014D01*
X136428109Y-104175793D01*
X136440967Y-104186355D01*
X136453335Y-104197699D01*
X136465212Y-104209825D01*
X136476481Y-104222636D01*
X136487022Y-104236096D01*
X136496837Y-104250205D01*
X136505925Y-104264963D01*
X136514285Y-104280369D01*
X136521919Y-104296424D01*
X136528825Y-104313128D01*
X136535005Y-104330481D01*
X136540457Y-104348482D01*
X136545183Y-104367133D01*
X136547273Y-104376701D01*
X136549181Y-104386432D01*
X136550908Y-104396324D01*
X136552453Y-104406379D01*
X136553816Y-104416597D01*
X136554997Y-104426976D01*
X136555997Y-104437518D01*
X136556815Y-104448221D01*
X136557451Y-104459087D01*
X136557905Y-104470115D01*
X136558178Y-104481306D01*
X136558269Y-104492658D01*
X136558178Y-104503966D01*
X136557905Y-104515114D01*
X136557451Y-104526103D01*
X136556815Y-104536931D01*
X136555997Y-104547600D01*
X136554997Y-104558109D01*
X136553816Y-104568458D01*
X136552453Y-104578647D01*
X136550908Y-104588676D01*
X136549181Y-104598546D01*
X136547273Y-104608256D01*
X136545183Y-104617806D01*
X136540457Y-104636427D01*
X136535005Y-104654408D01*
X136528825Y-104671750D01*
X136521919Y-104688453D01*
X136514285Y-104704517D01*
X136505925Y-104719941D01*
X136496837Y-104734727D01*
X136487022Y-104748873D01*
X136476481Y-104762380D01*
X136465212Y-104775247D01*
X136453335Y-104787403D01*
X136440967Y-104798775D01*
X136428109Y-104809362D01*
X136414761Y-104819165D01*
X136400922Y-104828184D01*
X136386593Y-104836419D01*
X136371773Y-104843869D01*
X136356463Y-104850535D01*
X136340663Y-104856417D01*
X136324372Y-104861515D01*
X136307591Y-104865828D01*
X136290319Y-104869357D01*
X136272557Y-104872102D01*
X136254305Y-104874063D01*
X136235562Y-104875239D01*
X136216329Y-104875631D01*
X136197155Y-104875239D01*
X136178467Y-104874063D01*
X136160267Y-104872102D01*
X136142552Y-104869357D01*
X136125325Y-104865828D01*
X136108583Y-104861515D01*
X136092329Y-104856417D01*
X136076561Y-104850535D01*
X136061280Y-104843869D01*
X136046485Y-104836419D01*
X136032176Y-104828184D01*
X136018355Y-104819165D01*
X136005020Y-104809362D01*
X135992171Y-104798775D01*
X135979809Y-104787403D01*
X135967934Y-104775247D01*
X135956665Y-104762380D01*
X135946124Y-104748873D01*
X135936309Y-104734727D01*
X135927222Y-104719941D01*
X135918861Y-104704517D01*
X135911228Y-104688453D01*
X135904321Y-104671750D01*
X135898142Y-104654408D01*
X135892689Y-104636427D01*
X135887963Y-104617806D01*
X135885873Y-104608256D01*
X135883965Y-104598546D01*
X135882238Y-104588676D01*
X135880693Y-104578647D01*
X135879330Y-104568458D01*
X135878149Y-104558109D01*
X135877149Y-104547600D01*
X135876331Y-104536931D01*
X135875695Y-104526103D01*
X135875241Y-104515114D01*
X135874968Y-104503966D01*
X135874879Y-104492903D01*
X136007990Y-104492903D01*
X136008215Y-104509616D01*
X136008890Y-104525807D01*
X136010016Y-104541474D01*
X136011592Y-104556619D01*
X136013619Y-104571241D01*
X136016096Y-104585341D01*
X136019023Y-104598917D01*
X136022400Y-104611971D01*
X136026228Y-104624502D01*
X136030506Y-104636510D01*
X136035234Y-104647995D01*
X136040413Y-104658957D01*
X136046042Y-104669397D01*
X136052121Y-104679313D01*
X136058651Y-104688707D01*
X136065631Y-104697578D01*
X136073003Y-104705889D01*
X136080648Y-104713664D01*
X136088566Y-104720902D01*
X136096757Y-104727605D01*
X136105220Y-104733771D01*
X136113957Y-104739401D01*
X136122966Y-104744495D01*
X136132248Y-104749052D01*
X136141803Y-104753074D01*
X136151631Y-104756559D01*
X136161732Y-104759508D01*
X136172106Y-104761921D01*
X136182752Y-104763797D01*
X136193672Y-104765138D01*
X136204864Y-104765942D01*
X136216329Y-104766210D01*
X136227763Y-104765942D01*
X136238925Y-104765138D01*
X136249814Y-104763797D01*
X136260430Y-104761921D01*
X136270773Y-104759508D01*
X136280843Y-104756559D01*
X136290641Y-104753074D01*
X136300165Y-104749052D01*
X136309417Y-104744495D01*
X136318396Y-104739401D01*
X136327102Y-104733771D01*
X136335535Y-104727605D01*
X136343695Y-104720902D01*
X136351582Y-104713664D01*
X136359197Y-104705889D01*
X136366538Y-104697578D01*
X136373548Y-104688707D01*
X136380105Y-104679313D01*
X136386210Y-104669397D01*
X136391863Y-104658957D01*
X136397064Y-104647995D01*
X136401812Y-104636510D01*
X136406108Y-104624502D01*
X136409952Y-104611971D01*
X136413344Y-104598917D01*
X136416284Y-104585341D01*
X136418771Y-104571241D01*
X136420806Y-104556619D01*
X136422389Y-104541474D01*
X136423519Y-104525807D01*
X136424198Y-104509616D01*
X136424424Y-104492903D01*
X136424198Y-104476131D01*
X136423519Y-104459888D01*
X136422389Y-104444173D01*
X136420806Y-104428987D01*
X136418771Y-104414330D01*
X136416284Y-104400201D01*
X136413344Y-104386601D01*
X136409952Y-104373529D01*
X136406108Y-104360986D01*
X136401812Y-104348971D01*
X136397064Y-104337485D01*
X136391863Y-104326527D01*
X136386210Y-104316098D01*
X136380105Y-104306198D01*
X136373548Y-104296826D01*
X136366538Y-104287983D01*
X136359197Y-104279642D01*
X136351582Y-104271840D01*
X136343695Y-104264576D01*
X136335535Y-104257849D01*
X136327102Y-104251661D01*
X136318396Y-104246011D01*
X136309417Y-104240899D01*
X136300165Y-104236325D01*
X136290641Y-104232290D01*
X136280843Y-104228792D01*
X136270773Y-104225832D01*
X136260430Y-104223411D01*
X136249814Y-104221528D01*
X136238925Y-104220182D01*
X136227763Y-104219375D01*
X136216329Y-104219106D01*
X136204864Y-104219375D01*
X136193672Y-104220182D01*
X136182752Y-104221528D01*
X136172106Y-104223411D01*
X136161732Y-104225832D01*
X136151631Y-104228792D01*
X136141803Y-104232290D01*
X136132248Y-104236325D01*
X136122966Y-104240899D01*
X136113957Y-104246011D01*
X136105220Y-104251661D01*
X136096757Y-104257849D01*
X136088566Y-104264576D01*
X136080648Y-104271840D01*
X136073003Y-104279642D01*
X136065631Y-104287983D01*
X136058651Y-104296826D01*
X136052121Y-104306198D01*
X136046042Y-104316098D01*
X136040413Y-104326527D01*
X136035234Y-104337485D01*
X136030506Y-104348971D01*
X136026228Y-104360986D01*
X136022400Y-104373529D01*
X136019023Y-104386601D01*
X136016096Y-104400201D01*
X136013619Y-104414330D01*
X136011592Y-104428987D01*
X136010016Y-104444173D01*
X136008890Y-104459888D01*
X136008215Y-104476131D01*
X136007990Y-104492903D01*
X135874879Y-104492903D01*
X135874877Y-104492658D01*
X135874968Y-104481306D01*
X135875241Y-104470115D01*
X135875695Y-104459087D01*
X135876331Y-104448221D01*
X135877149Y-104437518D01*
X135878149Y-104426976D01*
X135879330Y-104416597D01*
X135880693Y-104406379D01*
X135882238Y-104396324D01*
X135883965Y-104386432D01*
X135885873Y-104376701D01*
X135887963Y-104367133D01*
X135892689Y-104348482D01*
X135898142Y-104330481D01*
X135904321Y-104313128D01*
X135911228Y-104296424D01*
X135918861Y-104280369D01*
X135927222Y-104264963D01*
X135936309Y-104250205D01*
X135946124Y-104236096D01*
X135956665Y-104222636D01*
X135967934Y-104209825D01*
X135979809Y-104197699D01*
X135992171Y-104186355D01*
X136005020Y-104175793D01*
X136018355Y-104166014D01*
X136032176Y-104157017D01*
X136046485Y-104148802D01*
X136061280Y-104141370D01*
X136076561Y-104134720D01*
X136092329Y-104128853D01*
X136108583Y-104123768D01*
X136125325Y-104119465D01*
X136142552Y-104115944D01*
X136160267Y-104113206D01*
X136178467Y-104111250D01*
X136197155Y-104110077D01*
X136216329Y-104109685D01*
X136235562Y-104110077D01*
G37*
G36*
X137078018Y-104227411D02*
G01*
X137066909Y-104224588D01*
X137056354Y-104222683D01*
X137044617Y-104221182D01*
X137034378Y-104220274D01*
X137023384Y-104219625D01*
X137011633Y-104219236D01*
X136999127Y-104219106D01*
X136986872Y-104219526D01*
X136974836Y-104220785D01*
X136963020Y-104222884D01*
X136951424Y-104225823D01*
X136940046Y-104229601D01*
X136928888Y-104234219D01*
X136917950Y-104239676D01*
X136907231Y-104245973D01*
X136896731Y-104253109D01*
X136886451Y-104261086D01*
X136876390Y-104269901D01*
X136866549Y-104279556D01*
X136856927Y-104290051D01*
X136847525Y-104301386D01*
X136838342Y-104313560D01*
X136829378Y-104326573D01*
X136829378Y-104860000D01*
X136699441Y-104860000D01*
X136699441Y-104125317D01*
X136829378Y-104125317D01*
X136829378Y-104226922D01*
X136839707Y-104212725D01*
X136850238Y-104199445D01*
X136860972Y-104187080D01*
X136871907Y-104175631D01*
X136883045Y-104165098D01*
X136894385Y-104155481D01*
X136905928Y-104146780D01*
X136917672Y-104138995D01*
X136929619Y-104132125D01*
X136941768Y-104126172D01*
X136954120Y-104121134D01*
X136966673Y-104117013D01*
X136979429Y-104113807D01*
X136992388Y-104111517D01*
X137005548Y-104110143D01*
X137018911Y-104109685D01*
X137029398Y-104109849D01*
X137040160Y-104110338D01*
X137051197Y-104111154D01*
X137062508Y-104112296D01*
X137074094Y-104113764D01*
X137078018Y-104114326D01*
X137078018Y-104227411D01*
G37*
G36*
X137968771Y-104860000D02*
G01*
X137839567Y-104860000D01*
X137839567Y-104086482D01*
X137829432Y-104093078D01*
X137818627Y-104099248D01*
X137807152Y-104104992D01*
X137795008Y-104110311D01*
X137782194Y-104115205D01*
X137768710Y-104119673D01*
X137754556Y-104123715D01*
X137739733Y-104127332D01*
X137724239Y-104130523D01*
X137708076Y-104133289D01*
X137691244Y-104135630D01*
X137673741Y-104137544D01*
X137655569Y-104139034D01*
X137636727Y-104140098D01*
X137617215Y-104140736D01*
X137607208Y-104140895D01*
X137597034Y-104140949D01*
X137597034Y-104031528D01*
X137611659Y-104031345D01*
X137625889Y-104030795D01*
X137639724Y-104029879D01*
X137653164Y-104028597D01*
X137666209Y-104026948D01*
X137678859Y-104024933D01*
X137691114Y-104022552D01*
X137702974Y-104019804D01*
X137714439Y-104016690D01*
X137725509Y-104013210D01*
X137736184Y-104009363D01*
X137746465Y-104005150D01*
X137756350Y-104000570D01*
X137765840Y-103995624D01*
X137774935Y-103990312D01*
X137783635Y-103984633D01*
X137791940Y-103978588D01*
X137799851Y-103972177D01*
X137807366Y-103965399D01*
X137814486Y-103958255D01*
X137821211Y-103950744D01*
X137827542Y-103942868D01*
X137833477Y-103934624D01*
X137839017Y-103926015D01*
X137844163Y-103917039D01*
X137848913Y-103907697D01*
X137853268Y-103897988D01*
X137857229Y-103887913D01*
X137860794Y-103877472D01*
X137863964Y-103866664D01*
X137866740Y-103855490D01*
X137869120Y-103843949D01*
X137968771Y-103843949D01*
X137968771Y-104860000D01*
G37*
G36*
X138485589Y-104860000D02*
G01*
X138344905Y-104860000D01*
X138344905Y-104719316D01*
X138485589Y-104719316D01*
X138485589Y-104860000D01*
G37*
G36*
X139019916Y-103844454D02*
G01*
X139039471Y-103845970D01*
X139058384Y-103848496D01*
X139076657Y-103852032D01*
X139094288Y-103856579D01*
X139111278Y-103862136D01*
X139127627Y-103868703D01*
X139143335Y-103876281D01*
X139158402Y-103884869D01*
X139172827Y-103894467D01*
X139186612Y-103905076D01*
X139199755Y-103916695D01*
X139212257Y-103929325D01*
X139224118Y-103942965D01*
X139235338Y-103957615D01*
X139245917Y-103973276D01*
X139255855Y-103989947D01*
X139265151Y-104007628D01*
X139273807Y-104026320D01*
X139281821Y-104046022D01*
X139289194Y-104066735D01*
X139295926Y-104088457D01*
X139302017Y-104111191D01*
X139307466Y-104134934D01*
X139312275Y-104159688D01*
X139316442Y-104185452D01*
X139319969Y-104212227D01*
X139322854Y-104240012D01*
X139325098Y-104268807D01*
X139326700Y-104298613D01*
X139327662Y-104329429D01*
X139327983Y-104361256D01*
X139327662Y-104392902D01*
X139326700Y-104423543D01*
X139325098Y-104453180D01*
X139322854Y-104481812D01*
X139319969Y-104509440D01*
X139316442Y-104536063D01*
X139312275Y-104561681D01*
X139307466Y-104586295D01*
X139302017Y-104609904D01*
X139295926Y-104632508D01*
X139289194Y-104654108D01*
X139281821Y-104674703D01*
X139273807Y-104694294D01*
X139265151Y-104712879D01*
X139255855Y-104730461D01*
X139245917Y-104747037D01*
X139235338Y-104762609D01*
X139224118Y-104777176D01*
X139212257Y-104790739D01*
X139199755Y-104803297D01*
X139186612Y-104814850D01*
X139172827Y-104825399D01*
X139158402Y-104834943D01*
X139143335Y-104843483D01*
X139127627Y-104851017D01*
X139111278Y-104857548D01*
X139094288Y-104863073D01*
X139076657Y-104867594D01*
X139058384Y-104871110D01*
X139039471Y-104873622D01*
X139019916Y-104875129D01*
X138999720Y-104875631D01*
X138979555Y-104875129D01*
X138960029Y-104873622D01*
X138941144Y-104871110D01*
X138922898Y-104867594D01*
X138905293Y-104863073D01*
X138888328Y-104857548D01*
X138872004Y-104851017D01*
X138856319Y-104843483D01*
X138841275Y-104834943D01*
X138826871Y-104825399D01*
X138813107Y-104814850D01*
X138799983Y-104803297D01*
X138787500Y-104790739D01*
X138775656Y-104777176D01*
X138764453Y-104762609D01*
X138753890Y-104747037D01*
X138743967Y-104730461D01*
X138734684Y-104712879D01*
X138726042Y-104694294D01*
X138718040Y-104674703D01*
X138710678Y-104654108D01*
X138703956Y-104632508D01*
X138697874Y-104609904D01*
X138692432Y-104586295D01*
X138687631Y-104561681D01*
X138683470Y-104536063D01*
X138679949Y-104509440D01*
X138677068Y-104481812D01*
X138674827Y-104453180D01*
X138673227Y-104423543D01*
X138672267Y-104392902D01*
X138671946Y-104361256D01*
X138671948Y-104361011D01*
X138805792Y-104361011D01*
X138805840Y-104375043D01*
X138805984Y-104388807D01*
X138806225Y-104402303D01*
X138806562Y-104415531D01*
X138806996Y-104428491D01*
X138807526Y-104441182D01*
X138808152Y-104453606D01*
X138808875Y-104465761D01*
X138809694Y-104477648D01*
X138810610Y-104489267D01*
X138811621Y-104500619D01*
X138812730Y-104511702D01*
X138813934Y-104522516D01*
X138815235Y-104533063D01*
X138816632Y-104543342D01*
X138818126Y-104553353D01*
X138819716Y-104563095D01*
X138823185Y-104581776D01*
X138827039Y-104599384D01*
X138831279Y-104615920D01*
X138835904Y-104631384D01*
X138840915Y-104645775D01*
X138846312Y-104659094D01*
X138852093Y-104671341D01*
X138855129Y-104677062D01*
X138861503Y-104687857D01*
X138868230Y-104697956D01*
X138875310Y-104707358D01*
X138882743Y-104716064D01*
X138890530Y-104724074D01*
X138898669Y-104731387D01*
X138907161Y-104738003D01*
X138916006Y-104743923D01*
X138925204Y-104749147D01*
X138934756Y-104753674D01*
X138944660Y-104757504D01*
X138954917Y-104760638D01*
X138965527Y-104763076D01*
X138976491Y-104764817D01*
X138987807Y-104765862D01*
X138999476Y-104766210D01*
X139011233Y-104765862D01*
X139022630Y-104764817D01*
X139033665Y-104763076D01*
X139044340Y-104760638D01*
X139054655Y-104757504D01*
X139064609Y-104753674D01*
X139074202Y-104749147D01*
X139083435Y-104743923D01*
X139092307Y-104738003D01*
X139100818Y-104731387D01*
X139108968Y-104724074D01*
X139116758Y-104716064D01*
X139124188Y-104707358D01*
X139131257Y-104697956D01*
X139137965Y-104687857D01*
X139144312Y-104677062D01*
X139150316Y-104665351D01*
X139155933Y-104652569D01*
X139161162Y-104638714D01*
X139166004Y-104623786D01*
X139170459Y-104607786D01*
X139174526Y-104590714D01*
X139178206Y-104572570D01*
X139181498Y-104553353D01*
X139182999Y-104543342D01*
X139184403Y-104533063D01*
X139185711Y-104522516D01*
X139186921Y-104511702D01*
X139188035Y-104500619D01*
X139189052Y-104489267D01*
X139189971Y-104477648D01*
X139190795Y-104465761D01*
X139191521Y-104453606D01*
X139192150Y-104441182D01*
X139192683Y-104428491D01*
X139193119Y-104415531D01*
X139193458Y-104402303D01*
X139193700Y-104388807D01*
X139193845Y-104375043D01*
X139193893Y-104361011D01*
X139193845Y-104346949D01*
X139193700Y-104333153D01*
X139193458Y-104319626D01*
X139193119Y-104306366D01*
X139192683Y-104293374D01*
X139192150Y-104280649D01*
X139191521Y-104268192D01*
X139190795Y-104256002D01*
X139189971Y-104244080D01*
X139189052Y-104232426D01*
X139188035Y-104221039D01*
X139186921Y-104209920D01*
X139185711Y-104199069D01*
X139184403Y-104188485D01*
X139182999Y-104178169D01*
X139181498Y-104168121D01*
X139179900Y-104158340D01*
X139176414Y-104139581D01*
X139172541Y-104121892D01*
X139168280Y-104105274D01*
X139163631Y-104089726D01*
X139158596Y-104075249D01*
X139153173Y-104061843D01*
X139147363Y-104049507D01*
X139144312Y-104043740D01*
X139137965Y-104032797D01*
X139131257Y-104022559D01*
X139124188Y-104013028D01*
X139116758Y-104004203D01*
X139108968Y-103996084D01*
X139100818Y-103988671D01*
X139092307Y-103981964D01*
X139083435Y-103975963D01*
X139074202Y-103970667D01*
X139064609Y-103966078D01*
X139054655Y-103962195D01*
X139044340Y-103959018D01*
X139033665Y-103956547D01*
X139022630Y-103954782D01*
X139011233Y-103953723D01*
X138999476Y-103953370D01*
X138987807Y-103953723D01*
X138976491Y-103954782D01*
X138965527Y-103956547D01*
X138954917Y-103959018D01*
X138944660Y-103962195D01*
X138934756Y-103966078D01*
X138925204Y-103970667D01*
X138916006Y-103975963D01*
X138907161Y-103981964D01*
X138898669Y-103988671D01*
X138890530Y-103996084D01*
X138882743Y-104004203D01*
X138875310Y-104013028D01*
X138868230Y-104022559D01*
X138861503Y-104032797D01*
X138855129Y-104043740D01*
X138849154Y-104055541D01*
X138843565Y-104068412D01*
X138838362Y-104082354D01*
X138833544Y-104097366D01*
X138829111Y-104113449D01*
X138825064Y-104130603D01*
X138821402Y-104148826D01*
X138818126Y-104168121D01*
X138816632Y-104178169D01*
X138815235Y-104188485D01*
X138813934Y-104199069D01*
X138812730Y-104209920D01*
X138811621Y-104221039D01*
X138810610Y-104232426D01*
X138809694Y-104244080D01*
X138808875Y-104256002D01*
X138808152Y-104268192D01*
X138807526Y-104280649D01*
X138806996Y-104293374D01*
X138806562Y-104306366D01*
X138806225Y-104319626D01*
X138805984Y-104333153D01*
X138805840Y-104346949D01*
X138805792Y-104361011D01*
X138671948Y-104361011D01*
X138672267Y-104329429D01*
X138673227Y-104298613D01*
X138674827Y-104268807D01*
X138677068Y-104240012D01*
X138679949Y-104212227D01*
X138683470Y-104185452D01*
X138687631Y-104159688D01*
X138692432Y-104134934D01*
X138697874Y-104111191D01*
X138703956Y-104088457D01*
X138710678Y-104066735D01*
X138718040Y-104046022D01*
X138726042Y-104026320D01*
X138734684Y-104007628D01*
X138743967Y-103989947D01*
X138753890Y-103973276D01*
X138764453Y-103957615D01*
X138775656Y-103942965D01*
X138787500Y-103929325D01*
X138799983Y-103916695D01*
X138813107Y-103905076D01*
X138826871Y-103894467D01*
X138841275Y-103884869D01*
X138856319Y-103876281D01*
X138872004Y-103868703D01*
X138888328Y-103862136D01*
X138905293Y-103856579D01*
X138922898Y-103852032D01*
X138941144Y-103848496D01*
X138960029Y-103845970D01*
X138979555Y-103844454D01*
X138999720Y-103843949D01*
X139019916Y-103844454D01*
G37*
G36*
X114737564Y-105650000D02*
G01*
X114608360Y-105650000D01*
X114608360Y-104876482D01*
X114598224Y-104883078D01*
X114587420Y-104889248D01*
X114575945Y-104894992D01*
X114563801Y-104900311D01*
X114550986Y-104905205D01*
X114537502Y-104909673D01*
X114523349Y-104913715D01*
X114508525Y-104917332D01*
X114493032Y-104920523D01*
X114476869Y-104923289D01*
X114460036Y-104925630D01*
X114442534Y-104927544D01*
X114424362Y-104929034D01*
X114405520Y-104930098D01*
X114386008Y-104930736D01*
X114376001Y-104930895D01*
X114365826Y-104930949D01*
X114365826Y-104821528D01*
X114380451Y-104821345D01*
X114394681Y-104820795D01*
X114408516Y-104819879D01*
X114421956Y-104818597D01*
X114435002Y-104816948D01*
X114447652Y-104814933D01*
X114459907Y-104812552D01*
X114471767Y-104809804D01*
X114483232Y-104806690D01*
X114494302Y-104803210D01*
X114504977Y-104799363D01*
X114515257Y-104795150D01*
X114525142Y-104790570D01*
X114534633Y-104785624D01*
X114543728Y-104780312D01*
X114552428Y-104774633D01*
X114560733Y-104768588D01*
X114568643Y-104762177D01*
X114576159Y-104755399D01*
X114583279Y-104748255D01*
X114590004Y-104740744D01*
X114596334Y-104732868D01*
X114602270Y-104724624D01*
X114607810Y-104716015D01*
X114612955Y-104707039D01*
X114617706Y-104697697D01*
X114622061Y-104687988D01*
X114626021Y-104677913D01*
X114629587Y-104667472D01*
X114632757Y-104656664D01*
X114635533Y-104645490D01*
X114637913Y-104633949D01*
X114737564Y-104633949D01*
X114737564Y-105650000D01*
G37*
G36*
X114567928Y-101250739D02*
G01*
X114565671Y-101259626D01*
X114564146Y-101268070D01*
X114562946Y-101277459D01*
X114562219Y-101285651D01*
X114561700Y-101294446D01*
X114561389Y-101303847D01*
X114561285Y-101313852D01*
X114561621Y-101323656D01*
X114562628Y-101333284D01*
X114564307Y-101342737D01*
X114566658Y-101352015D01*
X114569681Y-101361116D01*
X114573375Y-101370043D01*
X114577741Y-101378793D01*
X114582778Y-101387369D01*
X114588487Y-101395768D01*
X114594868Y-101403992D01*
X114601921Y-101412041D01*
X114609645Y-101419914D01*
X114618041Y-101427611D01*
X114627108Y-101435133D01*
X114636848Y-101442480D01*
X114647258Y-101449651D01*
X115074000Y-101449651D01*
X115074000Y-101553600D01*
X114486254Y-101553600D01*
X114486254Y-101449651D01*
X114567538Y-101449651D01*
X114556180Y-101441388D01*
X114545556Y-101432963D01*
X114535664Y-101424376D01*
X114526505Y-101415628D01*
X114518078Y-101406717D01*
X114510385Y-101397645D01*
X114503424Y-101388411D01*
X114497196Y-101379016D01*
X114491700Y-101369458D01*
X114486937Y-101359739D01*
X114482907Y-101349858D01*
X114479610Y-101339815D01*
X114477046Y-101329610D01*
X114475214Y-101319243D01*
X114474115Y-101308715D01*
X114473748Y-101298025D01*
X114473879Y-101289635D01*
X114474270Y-101281025D01*
X114474923Y-101272196D01*
X114475837Y-101263147D01*
X114477011Y-101253878D01*
X114477461Y-101250739D01*
X114567928Y-101250739D01*
G37*
G36*
X114811390Y-101109860D02*
G01*
X114823116Y-101108864D01*
X114834458Y-101107537D01*
X114845416Y-101105878D01*
X114855988Y-101103888D01*
X114866176Y-101101567D01*
X114875980Y-101098915D01*
X114885398Y-101095931D01*
X114894432Y-101092616D01*
X114903081Y-101088970D01*
X114911346Y-101084993D01*
X114919226Y-101080684D01*
X114926721Y-101076045D01*
X114933832Y-101071073D01*
X114940557Y-101065771D01*
X114946899Y-101060137D01*
X114952855Y-101054173D01*
X114958439Y-101047929D01*
X114963663Y-101041509D01*
X114968526Y-101034911D01*
X114973030Y-101028136D01*
X114977172Y-101021185D01*
X114980955Y-101014056D01*
X114984378Y-101006750D01*
X114987440Y-100999267D01*
X114990142Y-100991607D01*
X114992483Y-100983770D01*
X114994465Y-100975755D01*
X114996086Y-100967564D01*
X114997347Y-100959196D01*
X114998248Y-100950650D01*
X114998788Y-100941928D01*
X114998968Y-100933028D01*
X114998740Y-100922903D01*
X114998054Y-100912970D01*
X114996912Y-100903229D01*
X114995314Y-100893681D01*
X114993258Y-100884325D01*
X114990746Y-100875161D01*
X114987776Y-100866190D01*
X114984350Y-100857411D01*
X114980467Y-100848824D01*
X114976128Y-100840430D01*
X114972981Y-100834940D01*
X114967881Y-100827099D01*
X114962400Y-100819990D01*
X114956537Y-100813613D01*
X114950294Y-100807967D01*
X114943669Y-100803052D01*
X114936663Y-100798869D01*
X114929275Y-100795418D01*
X114921506Y-100792698D01*
X114913357Y-100790710D01*
X114904825Y-100789454D01*
X114898926Y-100789023D01*
X114898926Y-100681751D01*
X114910001Y-100683490D01*
X114920755Y-100685677D01*
X114931189Y-100688314D01*
X114941302Y-100691399D01*
X114951095Y-100694933D01*
X114960567Y-100698915D01*
X114969718Y-100703347D01*
X114978549Y-100708227D01*
X114987060Y-100713556D01*
X114995250Y-100719334D01*
X115003119Y-100725561D01*
X115010667Y-100732236D01*
X115017895Y-100739360D01*
X115024803Y-100746933D01*
X115031390Y-100754955D01*
X115037656Y-100763426D01*
X115043571Y-100772216D01*
X115049105Y-100781246D01*
X115054257Y-100790516D01*
X115059027Y-100800026D01*
X115063416Y-100809775D01*
X115067423Y-100819764D01*
X115071049Y-100829992D01*
X115074293Y-100840460D01*
X115077155Y-100851168D01*
X115079635Y-100862115D01*
X115081734Y-100873302D01*
X115083452Y-100884729D01*
X115084787Y-100896396D01*
X115085741Y-100908302D01*
X115086314Y-100920447D01*
X115086505Y-100932833D01*
X115086426Y-100940819D01*
X115086189Y-100948707D01*
X115085241Y-100964187D01*
X115083661Y-100979274D01*
X115081449Y-100993967D01*
X115078605Y-101008266D01*
X115075129Y-101022171D01*
X115071021Y-101035682D01*
X115066281Y-101048799D01*
X115060910Y-101061523D01*
X115054906Y-101073852D01*
X115048270Y-101085788D01*
X115041002Y-101097330D01*
X115033103Y-101108478D01*
X115024571Y-101119233D01*
X115015407Y-101129593D01*
X115005612Y-101139560D01*
X114995251Y-101149001D01*
X114984393Y-101157832D01*
X114973037Y-101166055D01*
X114961184Y-101173668D01*
X114948833Y-101180673D01*
X114935984Y-101187068D01*
X114922638Y-101192854D01*
X114908794Y-101198032D01*
X114894452Y-101202600D01*
X114879613Y-101206559D01*
X114864276Y-101209909D01*
X114856421Y-101211355D01*
X114848441Y-101212650D01*
X114840337Y-101213792D01*
X114832109Y-101214781D01*
X114823756Y-101215619D01*
X114815279Y-101216304D01*
X114806678Y-101216837D01*
X114797952Y-101217218D01*
X114789101Y-101217446D01*
X114780127Y-101217522D01*
X114771211Y-101217449D01*
X114762418Y-101217228D01*
X114753747Y-101216859D01*
X114745197Y-101216344D01*
X114736769Y-101215681D01*
X114728462Y-101214871D01*
X114720278Y-101213913D01*
X114712215Y-101212808D01*
X114704274Y-101211556D01*
X114696454Y-101210157D01*
X114688757Y-101208610D01*
X114673726Y-101205075D01*
X114659183Y-101200950D01*
X114645127Y-101196236D01*
X114631558Y-101190933D01*
X114618476Y-101185041D01*
X114605880Y-101178559D01*
X114593772Y-101171488D01*
X114582151Y-101163828D01*
X114571016Y-101155579D01*
X114560369Y-101146740D01*
X114555228Y-101142100D01*
X114545361Y-101132466D01*
X114536131Y-101122469D01*
X114527537Y-101112108D01*
X114519580Y-101101385D01*
X114512260Y-101090298D01*
X114505576Y-101078847D01*
X114499529Y-101067033D01*
X114494118Y-101054856D01*
X114489344Y-101042316D01*
X114485206Y-101029412D01*
X114481705Y-101016145D01*
X114478841Y-101002515D01*
X114476613Y-100988522D01*
X114475021Y-100974165D01*
X114474067Y-100959445D01*
X114473752Y-100944556D01*
X114561285Y-100944556D01*
X114561639Y-100956052D01*
X114562700Y-100967239D01*
X114564469Y-100978116D01*
X114566945Y-100988685D01*
X114570129Y-100998944D01*
X114574021Y-101008895D01*
X114578620Y-101018536D01*
X114583926Y-101027868D01*
X114589940Y-101036890D01*
X114596662Y-101045604D01*
X114601536Y-101051242D01*
X114609451Y-101059275D01*
X114618100Y-101066741D01*
X114627485Y-101073641D01*
X114634150Y-101077926D01*
X114641141Y-101081959D01*
X114648459Y-101085740D01*
X114656104Y-101089269D01*
X114664076Y-101092547D01*
X114672374Y-101095572D01*
X114680999Y-101098346D01*
X114689950Y-101100868D01*
X114699228Y-101103138D01*
X114708833Y-101105156D01*
X114718765Y-101106922D01*
X114723853Y-101107711D01*
X114723853Y-100780230D01*
X114713828Y-100781939D01*
X114704124Y-100783893D01*
X114694741Y-100786092D01*
X114685678Y-100788534D01*
X114676935Y-100791221D01*
X114668514Y-100794152D01*
X114660412Y-100797327D01*
X114652632Y-100800746D01*
X114645172Y-100804410D01*
X114638032Y-100808318D01*
X114631213Y-100812470D01*
X114624715Y-100816866D01*
X114615568Y-100823919D01*
X114607143Y-100831521D01*
X114601927Y-100836894D01*
X114594664Y-100845311D01*
X114588115Y-100854074D01*
X114582281Y-100863185D01*
X114577161Y-100872642D01*
X114572755Y-100882446D01*
X114569064Y-100892598D01*
X114566087Y-100903096D01*
X114563825Y-100913941D01*
X114562277Y-100925132D01*
X114561444Y-100936671D01*
X114561285Y-100944556D01*
X114473752Y-100944556D01*
X114473748Y-100944361D01*
X114474067Y-100928974D01*
X114475024Y-100913980D01*
X114476620Y-100899378D01*
X114478853Y-100885169D01*
X114481724Y-100871351D01*
X114485234Y-100857926D01*
X114489381Y-100844894D01*
X114494167Y-100832254D01*
X114499591Y-100820005D01*
X114505653Y-100808150D01*
X114512352Y-100796686D01*
X114519690Y-100785615D01*
X114527666Y-100774937D01*
X114536281Y-100764650D01*
X114545533Y-100754756D01*
X114555423Y-100745254D01*
X114565872Y-100736239D01*
X114576849Y-100727806D01*
X114588355Y-100719954D01*
X114600388Y-100712684D01*
X114612950Y-100705996D01*
X114626040Y-100699889D01*
X114639658Y-100694364D01*
X114653804Y-100689420D01*
X114668479Y-100685058D01*
X114683681Y-100681278D01*
X114691480Y-100679606D01*
X114699412Y-100678079D01*
X114707475Y-100676698D01*
X114715671Y-100675462D01*
X114723998Y-100674371D01*
X114732458Y-100673426D01*
X114741050Y-100672627D01*
X114749773Y-100671972D01*
X114758629Y-100671463D01*
X114767617Y-100671100D01*
X114776736Y-100670882D01*
X114785988Y-100670809D01*
X114811390Y-100670809D01*
X114811390Y-101109860D01*
G37*
G36*
X115086505Y-100349581D02*
G01*
X115086322Y-100364306D01*
X115085772Y-100378585D01*
X115084856Y-100392418D01*
X115083574Y-100405806D01*
X115081925Y-100418747D01*
X115079910Y-100431243D01*
X115077529Y-100443294D01*
X115074781Y-100454898D01*
X115071667Y-100466057D01*
X115068187Y-100476770D01*
X115064340Y-100487038D01*
X115060127Y-100496859D01*
X115055547Y-100506235D01*
X115050601Y-100515165D01*
X115045289Y-100523650D01*
X115039610Y-100531688D01*
X115033565Y-100539281D01*
X115027154Y-100546428D01*
X115020376Y-100553130D01*
X115013232Y-100559385D01*
X115005721Y-100565195D01*
X114997845Y-100570560D01*
X114989601Y-100575478D01*
X114980992Y-100579951D01*
X114972016Y-100583978D01*
X114962674Y-100587559D01*
X114952965Y-100590694D01*
X114942890Y-100593384D01*
X114932449Y-100595628D01*
X114921641Y-100597426D01*
X114910467Y-100598779D01*
X114898926Y-100599685D01*
X114898926Y-100495736D01*
X114911041Y-100495032D01*
X114922374Y-100493214D01*
X114932925Y-100490281D01*
X114942695Y-100486235D01*
X114951683Y-100481074D01*
X114959889Y-100474798D01*
X114967314Y-100467408D01*
X114973958Y-100458904D01*
X114979819Y-100449285D01*
X114984900Y-100438552D01*
X114989198Y-100426705D01*
X114992715Y-100413743D01*
X114995451Y-100399667D01*
X114997405Y-100384477D01*
X114998089Y-100376464D01*
X114998577Y-100368172D01*
X114998870Y-100359602D01*
X114998968Y-100350753D01*
X114998870Y-100342837D01*
X114998357Y-100331408D01*
X114997405Y-100320516D01*
X114996013Y-100310159D01*
X114994181Y-100300338D01*
X114991909Y-100291053D01*
X114989198Y-100282304D01*
X114986048Y-100274091D01*
X114982457Y-100266413D01*
X114978427Y-100259271D01*
X114973958Y-100252665D01*
X114967461Y-100244743D01*
X114960573Y-100237876D01*
X114953295Y-100232066D01*
X114945625Y-100227313D01*
X114937565Y-100223616D01*
X114929115Y-100220975D01*
X114920273Y-100219390D01*
X114911041Y-100218862D01*
X114901491Y-100219378D01*
X114892674Y-100220926D01*
X114884589Y-100223506D01*
X114877237Y-100227117D01*
X114870618Y-100231761D01*
X114864732Y-100237437D01*
X114859579Y-100244144D01*
X114855158Y-100251884D01*
X114850905Y-100261189D01*
X114847519Y-100269611D01*
X114843965Y-100279269D01*
X114840242Y-100290164D01*
X114837667Y-100298114D01*
X114835017Y-100306614D01*
X114832292Y-100315663D01*
X114829492Y-100325262D01*
X114826618Y-100335410D01*
X114823669Y-100346108D01*
X114820645Y-100357355D01*
X114817546Y-100369152D01*
X114814372Y-100381499D01*
X114812757Y-100387878D01*
X114809486Y-100400533D01*
X114806169Y-100412754D01*
X114802806Y-100424542D01*
X114799397Y-100435896D01*
X114795943Y-100446817D01*
X114792442Y-100457304D01*
X114788896Y-100467358D01*
X114785304Y-100476978D01*
X114781667Y-100486164D01*
X114777983Y-100494918D01*
X114774254Y-100503237D01*
X114770479Y-100511123D01*
X114766658Y-100518575D01*
X114762791Y-100525594D01*
X114756905Y-100535310D01*
X114754921Y-100538332D01*
X114748485Y-100546817D01*
X114741193Y-100554468D01*
X114733047Y-100561284D01*
X114724045Y-100567265D01*
X114714188Y-100572412D01*
X114703476Y-100576724D01*
X114695860Y-100579135D01*
X114687863Y-100581176D01*
X114679486Y-100582845D01*
X114670729Y-100584143D01*
X114661592Y-100585071D01*
X114652075Y-100585627D01*
X114642178Y-100585812D01*
X114633166Y-100585582D01*
X114624351Y-100584890D01*
X114615734Y-100583738D01*
X114607312Y-100582124D01*
X114599088Y-100580050D01*
X114591061Y-100577514D01*
X114583231Y-100574518D01*
X114575598Y-100571060D01*
X114568161Y-100567142D01*
X114560922Y-100562762D01*
X114553879Y-100557921D01*
X114547033Y-100552620D01*
X114540385Y-100546857D01*
X114533933Y-100540634D01*
X114527678Y-100533949D01*
X114521620Y-100526803D01*
X114515823Y-100519248D01*
X114510400Y-100511383D01*
X114505351Y-100503207D01*
X114500676Y-100494722D01*
X114496375Y-100485927D01*
X114492448Y-100476822D01*
X114488895Y-100467407D01*
X114485716Y-100457683D01*
X114482911Y-100447648D01*
X114480480Y-100437304D01*
X114478423Y-100426649D01*
X114476740Y-100415685D01*
X114475431Y-100404411D01*
X114474496Y-100392827D01*
X114473935Y-100380933D01*
X114473748Y-100368729D01*
X114473907Y-100354624D01*
X114474383Y-100340956D01*
X114475177Y-100327726D01*
X114476288Y-100314935D01*
X114477717Y-100302582D01*
X114479464Y-100290666D01*
X114481527Y-100279189D01*
X114483909Y-100268150D01*
X114486608Y-100257549D01*
X114489624Y-100247387D01*
X114492958Y-100237662D01*
X114496609Y-100228375D01*
X114500578Y-100219527D01*
X114504865Y-100211116D01*
X114509469Y-100203144D01*
X114514390Y-100195610D01*
X114519629Y-100188514D01*
X114525186Y-100181856D01*
X114531060Y-100175636D01*
X114537251Y-100169855D01*
X114543760Y-100164511D01*
X114550587Y-100159606D01*
X114557731Y-100155138D01*
X114565193Y-100151109D01*
X114572972Y-100147518D01*
X114581069Y-100144365D01*
X114589483Y-100141650D01*
X114598214Y-100139373D01*
X114607264Y-100137535D01*
X114616630Y-100136134D01*
X114626315Y-100135171D01*
X114636316Y-100134647D01*
X114636316Y-100238011D01*
X114627230Y-100239135D01*
X114618731Y-100241140D01*
X114610817Y-100244026D01*
X114603490Y-100247793D01*
X114596749Y-100252440D01*
X114590594Y-100257968D01*
X114585025Y-100264377D01*
X114580043Y-100271667D01*
X114575646Y-100279838D01*
X114571836Y-100288890D01*
X114568612Y-100298822D01*
X114565974Y-100309635D01*
X114563923Y-100321329D01*
X114562457Y-100333903D01*
X114561578Y-100347359D01*
X114561285Y-100361695D01*
X114561446Y-100371321D01*
X114561931Y-100380634D01*
X114562738Y-100389635D01*
X114563868Y-100398323D01*
X114565321Y-100406698D01*
X114567096Y-100414761D01*
X114569195Y-100422511D01*
X114571616Y-100429949D01*
X114575347Y-100439380D01*
X114579652Y-100448255D01*
X114584457Y-100456315D01*
X114589788Y-100463300D01*
X114595644Y-100469211D01*
X114602025Y-100474047D01*
X114608931Y-100477808D01*
X114616362Y-100480495D01*
X114624318Y-100482107D01*
X114632799Y-100482644D01*
X114641052Y-100482232D01*
X114650534Y-100480558D01*
X114659091Y-100477595D01*
X114666723Y-100473345D01*
X114673429Y-100467807D01*
X114679210Y-100460980D01*
X114682234Y-100456266D01*
X114686206Y-100448432D01*
X114689397Y-100440930D01*
X114692771Y-100432033D01*
X114696326Y-100421741D01*
X114698798Y-100414106D01*
X114701350Y-100405850D01*
X114703983Y-100396975D01*
X114706697Y-100387480D01*
X114709492Y-100377365D01*
X114712368Y-100366631D01*
X114715325Y-100355277D01*
X114718363Y-100343303D01*
X114721482Y-100330709D01*
X114723071Y-100324180D01*
X114726305Y-100311155D01*
X114729608Y-100298555D01*
X114732979Y-100286382D01*
X114736419Y-100274635D01*
X114739928Y-100263313D01*
X114743505Y-100252418D01*
X114747151Y-100241948D01*
X114750866Y-100231905D01*
X114754650Y-100222287D01*
X114758502Y-100213095D01*
X114762423Y-100204329D01*
X114766412Y-100195989D01*
X114770471Y-100188074D01*
X114774597Y-100180586D01*
X114778793Y-100173524D01*
X114783057Y-100166887D01*
X114789905Y-100157703D01*
X114797625Y-100149423D01*
X114806217Y-100142046D01*
X114815682Y-100135572D01*
X114826019Y-100130002D01*
X114833395Y-100126790D01*
X114841159Y-100123980D01*
X114849311Y-100121571D01*
X114857850Y-100119563D01*
X114866777Y-100117957D01*
X114876092Y-100116753D01*
X114885795Y-100115950D01*
X114895885Y-100115549D01*
X114901076Y-100115498D01*
X114910983Y-100115747D01*
X114920676Y-100116491D01*
X114930156Y-100117731D01*
X114939422Y-100119467D01*
X114948474Y-100121700D01*
X114957312Y-100124429D01*
X114965937Y-100127653D01*
X114974348Y-100131374D01*
X114982546Y-100135591D01*
X114990530Y-100140304D01*
X114998299Y-100145514D01*
X115005856Y-100151219D01*
X115013198Y-100157420D01*
X115020327Y-100164118D01*
X115027242Y-100171312D01*
X115033944Y-100179002D01*
X115040308Y-100187110D01*
X115046263Y-100195558D01*
X115051806Y-100204347D01*
X115056939Y-100213476D01*
X115061661Y-100222946D01*
X115065973Y-100232756D01*
X115069874Y-100242907D01*
X115073364Y-100253398D01*
X115076444Y-100264229D01*
X115079113Y-100275401D01*
X115081372Y-100286913D01*
X115083220Y-100298766D01*
X115084657Y-100310959D01*
X115085683Y-100323493D01*
X115086299Y-100336366D01*
X115086505Y-100349581D01*
G37*
G36*
X114811390Y-99927334D02*
G01*
X114823116Y-99926338D01*
X114834458Y-99925010D01*
X114845416Y-99923352D01*
X114855988Y-99921362D01*
X114866176Y-99919041D01*
X114875980Y-99916389D01*
X114885398Y-99913405D01*
X114894432Y-99910090D01*
X114903081Y-99906444D01*
X114911346Y-99902467D01*
X114919226Y-99898158D01*
X114926721Y-99893518D01*
X114933832Y-99888547D01*
X114940557Y-99883245D01*
X114946899Y-99877611D01*
X114952855Y-99871646D01*
X114958439Y-99865403D01*
X114963663Y-99858982D01*
X114968526Y-99852385D01*
X114973030Y-99845610D01*
X114977172Y-99838658D01*
X114980955Y-99831530D01*
X114984378Y-99824224D01*
X114987440Y-99816741D01*
X114990142Y-99809081D01*
X114992483Y-99801243D01*
X114994465Y-99793229D01*
X114996086Y-99785038D01*
X114997347Y-99776670D01*
X114998248Y-99768124D01*
X114998788Y-99759402D01*
X114998968Y-99750502D01*
X114998740Y-99740377D01*
X114998054Y-99730443D01*
X114996912Y-99720703D01*
X114995314Y-99711154D01*
X114993258Y-99701798D01*
X114990746Y-99692635D01*
X114987776Y-99683663D01*
X114984350Y-99674884D01*
X114980467Y-99666298D01*
X114976128Y-99657903D01*
X114972981Y-99652414D01*
X114967881Y-99644573D01*
X114962400Y-99637464D01*
X114956537Y-99631086D01*
X114950294Y-99625440D01*
X114943669Y-99620526D01*
X114936663Y-99616343D01*
X114929275Y-99612892D01*
X114921506Y-99610172D01*
X114913357Y-99608184D01*
X114904825Y-99606928D01*
X114898926Y-99606496D01*
X114898926Y-99499225D01*
X114910001Y-99500964D01*
X114920755Y-99503151D01*
X114931189Y-99505787D01*
X114941302Y-99508872D01*
X114951095Y-99512406D01*
X114960567Y-99516389D01*
X114969718Y-99520821D01*
X114978549Y-99525701D01*
X114987060Y-99531030D01*
X114995250Y-99536808D01*
X115003119Y-99543034D01*
X115010667Y-99549710D01*
X115017895Y-99556834D01*
X115024803Y-99564407D01*
X115031390Y-99572429D01*
X115037656Y-99580900D01*
X115043571Y-99589690D01*
X115049105Y-99598720D01*
X115054257Y-99607990D01*
X115059027Y-99617500D01*
X115063416Y-99627249D01*
X115067423Y-99637237D01*
X115071049Y-99647466D01*
X115074293Y-99657934D01*
X115077155Y-99668642D01*
X115079635Y-99679589D01*
X115081734Y-99690776D01*
X115083452Y-99702203D01*
X115084787Y-99713869D01*
X115085741Y-99725775D01*
X115086314Y-99737921D01*
X115086505Y-99750307D01*
X115086426Y-99758293D01*
X115086189Y-99766181D01*
X115085241Y-99781661D01*
X115083661Y-99796748D01*
X115081449Y-99811441D01*
X115078605Y-99825739D01*
X115075129Y-99839644D01*
X115071021Y-99853156D01*
X115066281Y-99866273D01*
X115060910Y-99878997D01*
X115054906Y-99891326D01*
X115048270Y-99903262D01*
X115041002Y-99914804D01*
X115033103Y-99925952D01*
X115024571Y-99936707D01*
X115015407Y-99947067D01*
X115005612Y-99957034D01*
X114995251Y-99966474D01*
X114984393Y-99975306D01*
X114973037Y-99983529D01*
X114961184Y-99991142D01*
X114948833Y-99998147D01*
X114935984Y-100004542D01*
X114922638Y-100010328D01*
X114908794Y-100015505D01*
X114894452Y-100020074D01*
X114879613Y-100024033D01*
X114864276Y-100027383D01*
X114856421Y-100028829D01*
X114848441Y-100030123D01*
X114840337Y-100031265D01*
X114832109Y-100032255D01*
X114823756Y-100033093D01*
X114815279Y-100033778D01*
X114806678Y-100034311D01*
X114797952Y-100034691D01*
X114789101Y-100034920D01*
X114780127Y-100034996D01*
X114771211Y-100034922D01*
X114762418Y-100034701D01*
X114753747Y-100034333D01*
X114745197Y-100033818D01*
X114736769Y-100033155D01*
X114728462Y-100032344D01*
X114720278Y-100031387D01*
X114712215Y-100030282D01*
X114704274Y-100029030D01*
X114696454Y-100027631D01*
X114688757Y-100026084D01*
X114673726Y-100022548D01*
X114659183Y-100018424D01*
X114645127Y-100013710D01*
X114631558Y-100008407D01*
X114618476Y-100002514D01*
X114605880Y-99996033D01*
X114593772Y-99988962D01*
X114582151Y-99981302D01*
X114571016Y-99973053D01*
X114560369Y-99964214D01*
X114555228Y-99959574D01*
X114545361Y-99949940D01*
X114536131Y-99939943D01*
X114527537Y-99929582D01*
X114519580Y-99918859D01*
X114512260Y-99907771D01*
X114505576Y-99896321D01*
X114499529Y-99884507D01*
X114494118Y-99872330D01*
X114489344Y-99859790D01*
X114485206Y-99846886D01*
X114481705Y-99833619D01*
X114478841Y-99819989D01*
X114476613Y-99805995D01*
X114475021Y-99791639D01*
X114474067Y-99776918D01*
X114473752Y-99762030D01*
X114561285Y-99762030D01*
X114561639Y-99773526D01*
X114562700Y-99784713D01*
X114564469Y-99795590D01*
X114566945Y-99806159D01*
X114570129Y-99816418D01*
X114574021Y-99826368D01*
X114578620Y-99836009D01*
X114583926Y-99845341D01*
X114589940Y-99854364D01*
X114596662Y-99863078D01*
X114601536Y-99868715D01*
X114609451Y-99876749D01*
X114618100Y-99884215D01*
X114627485Y-99891115D01*
X114634150Y-99895400D01*
X114641141Y-99899433D01*
X114648459Y-99903214D01*
X114656104Y-99906743D01*
X114664076Y-99910021D01*
X114672374Y-99913046D01*
X114680999Y-99915820D01*
X114689950Y-99918342D01*
X114699228Y-99920612D01*
X114708833Y-99922630D01*
X114718765Y-99924396D01*
X114723853Y-99925184D01*
X114723853Y-99597704D01*
X114713828Y-99599413D01*
X114704124Y-99601367D01*
X114694741Y-99603565D01*
X114685678Y-99606008D01*
X114676935Y-99608695D01*
X114668514Y-99611625D01*
X114660412Y-99614801D01*
X114652632Y-99618220D01*
X114645172Y-99621884D01*
X114638032Y-99625792D01*
X114631213Y-99629944D01*
X114624715Y-99634340D01*
X114615568Y-99641393D01*
X114607143Y-99648995D01*
X114601927Y-99654368D01*
X114594664Y-99662785D01*
X114588115Y-99671548D01*
X114582281Y-99680659D01*
X114577161Y-99690116D01*
X114572755Y-99699920D01*
X114569064Y-99710071D01*
X114566087Y-99720569D01*
X114563825Y-99731414D01*
X114562277Y-99742606D01*
X114561444Y-99754145D01*
X114561285Y-99762030D01*
X114473752Y-99762030D01*
X114473748Y-99761835D01*
X114474067Y-99746448D01*
X114475024Y-99731454D01*
X114476620Y-99716852D01*
X114478853Y-99702643D01*
X114481724Y-99688825D01*
X114485234Y-99675400D01*
X114489381Y-99662368D01*
X114494167Y-99649727D01*
X114499591Y-99637479D01*
X114505653Y-99625624D01*
X114512352Y-99614160D01*
X114519690Y-99603089D01*
X114527666Y-99592410D01*
X114536281Y-99582124D01*
X114545533Y-99572230D01*
X114555423Y-99562728D01*
X114565872Y-99553713D01*
X114576849Y-99545280D01*
X114588355Y-99537428D01*
X114600388Y-99530158D01*
X114612950Y-99523470D01*
X114626040Y-99517363D01*
X114639658Y-99511838D01*
X114653804Y-99506894D01*
X114668479Y-99502532D01*
X114683681Y-99498752D01*
X114691480Y-99497080D01*
X114699412Y-99495553D01*
X114707475Y-99494172D01*
X114715671Y-99492936D01*
X114723998Y-99491845D01*
X114732458Y-99490900D01*
X114741050Y-99490100D01*
X114749773Y-99489446D01*
X114758629Y-99488937D01*
X114767617Y-99488574D01*
X114776736Y-99488356D01*
X114785988Y-99488283D01*
X114811390Y-99488283D01*
X114811390Y-99927334D01*
G37*
G36*
X115079275Y-99148883D02*
G01*
X115080970Y-99157480D01*
X115082438Y-99166273D01*
X115083681Y-99175261D01*
X115084697Y-99184445D01*
X115085488Y-99193824D01*
X115086053Y-99203398D01*
X115086392Y-99213168D01*
X115086505Y-99223133D01*
X115086415Y-99230962D01*
X115085947Y-99242209D01*
X115085076Y-99252857D01*
X115083803Y-99262908D01*
X115082129Y-99272361D01*
X115080053Y-99281217D01*
X115077575Y-99289475D01*
X115074695Y-99297136D01*
X115070230Y-99306420D01*
X115065050Y-99314642D01*
X115063644Y-99316531D01*
X115057678Y-99323605D01*
X115051309Y-99329977D01*
X115044538Y-99335646D01*
X115037363Y-99340614D01*
X115029785Y-99344879D01*
X115021805Y-99348442D01*
X115013421Y-99351302D01*
X115004635Y-99353461D01*
X114995240Y-99355109D01*
X114985034Y-99356538D01*
X114976846Y-99357466D01*
X114968202Y-99358269D01*
X114959101Y-99358949D01*
X114949543Y-99359506D01*
X114939528Y-99359939D01*
X114929056Y-99360248D01*
X114918127Y-99360433D01*
X114906742Y-99360495D01*
X114573790Y-99360495D01*
X114573790Y-99432595D01*
X114486254Y-99432595D01*
X114486254Y-99360495D01*
X114336191Y-99360495D01*
X114336191Y-99257131D01*
X114486254Y-99257131D01*
X114486254Y-99162756D01*
X114573790Y-99162756D01*
X114573790Y-99257131D01*
X114907328Y-99257131D01*
X114918086Y-99256999D01*
X114928085Y-99256602D01*
X114937325Y-99255941D01*
X114945806Y-99255016D01*
X114955933Y-99253370D01*
X114964710Y-99251254D01*
X114972138Y-99248668D01*
X114979525Y-99244775D01*
X114982946Y-99242086D01*
X114988391Y-99235979D01*
X114992709Y-99229089D01*
X114995901Y-99221416D01*
X114997967Y-99212960D01*
X114998906Y-99203721D01*
X114998968Y-99200467D01*
X114998858Y-99192149D01*
X114998529Y-99183927D01*
X114997981Y-99175800D01*
X114997213Y-99167769D01*
X114996225Y-99159833D01*
X114995018Y-99151992D01*
X114994474Y-99148883D01*
X115079275Y-99148883D01*
G37*
D11*
X128103855Y-88413332D02*
X127722902Y-88679999D01*
X128103855Y-88870475D02*
X127303855Y-88870475D01*
X127303855Y-88870475D02*
X127303855Y-88565713D01*
X127303855Y-88565713D02*
X127341950Y-88489523D01*
X127341950Y-88489523D02*
X127380045Y-88451428D01*
X127380045Y-88451428D02*
X127456236Y-88413332D01*
X127456236Y-88413332D02*
X127570521Y-88413332D01*
X127570521Y-88413332D02*
X127646712Y-88451428D01*
X127646712Y-88451428D02*
X127684807Y-88489523D01*
X127684807Y-88489523D02*
X127722902Y-88565713D01*
X127722902Y-88565713D02*
X127722902Y-88870475D01*
X127570521Y-87727618D02*
X128103855Y-87727618D01*
X127265760Y-87918094D02*
X127837188Y-88108571D01*
X127837188Y-88108571D02*
X127837188Y-87613332D01*
X138373855Y-102326666D02*
X138945283Y-102326666D01*
X138945283Y-102326666D02*
X139059569Y-102364761D01*
X139059569Y-102364761D02*
X139135760Y-102440952D01*
X139135760Y-102440952D02*
X139173855Y-102555237D01*
X139173855Y-102555237D02*
X139173855Y-102631428D01*
X139173855Y-101526666D02*
X139173855Y-101983809D01*
X139173855Y-101755237D02*
X138373855Y-101755237D01*
X138373855Y-101755237D02*
X138488140Y-101831428D01*
X138488140Y-101831428D02*
X138564331Y-101907618D01*
X138564331Y-101907618D02*
X138602426Y-101983809D01*
X111993333Y-88403855D02*
X111993333Y-88975283D01*
X111993333Y-88975283D02*
X111955238Y-89089569D01*
X111955238Y-89089569D02*
X111879047Y-89165760D01*
X111879047Y-89165760D02*
X111764762Y-89203855D01*
X111764762Y-89203855D02*
X111688571Y-89203855D01*
X112336190Y-88480045D02*
X112374286Y-88441950D01*
X112374286Y-88441950D02*
X112450476Y-88403855D01*
X112450476Y-88403855D02*
X112640952Y-88403855D01*
X112640952Y-88403855D02*
X112717143Y-88441950D01*
X112717143Y-88441950D02*
X112755238Y-88480045D01*
X112755238Y-88480045D02*
X112793333Y-88556236D01*
X112793333Y-88556236D02*
X112793333Y-88632426D01*
X112793333Y-88632426D02*
X112755238Y-88746712D01*
X112755238Y-88746712D02*
X112298095Y-89203855D01*
X112298095Y-89203855D02*
X112793333Y-89203855D01*
X133785000Y-86960000D02*
X133785000Y-83540000D01*
X133785000Y-83540000D02*
X124315000Y-83540000D01*
X133475000Y-85600000D02*
X133275000Y-85600000D01*
X133475000Y-84800000D02*
X133475000Y-85600000D01*
X133275000Y-86450000D02*
X129050000Y-86450000D01*
X133275000Y-85600000D02*
X133275000Y-86450000D01*
X133275000Y-84800000D02*
X133475000Y-84800000D01*
X133275000Y-84050000D02*
X133275000Y-84800000D01*
X129050000Y-84050000D02*
X133275000Y-84050000D01*
X129050000Y-84050000D02*
X124825000Y-84050000D01*
X124825000Y-86450000D02*
X129050000Y-86450000D01*
X124825000Y-85600000D02*
X124825000Y-86450000D01*
X124825000Y-84800000D02*
X124625000Y-84800000D01*
X124825000Y-84050000D02*
X124825000Y-84800000D01*
X124625000Y-85600000D02*
X124825000Y-85600000D01*
X124625000Y-84800000D02*
X124625000Y-85600000D01*
X124315000Y-86960000D02*
X133785000Y-86960000D01*
X124315000Y-83540000D02*
X124315000Y-86960000D01*
X115140000Y-103392164D02*
X115140000Y-103607836D01*
X114420000Y-103392164D02*
X114420000Y-103607836D01*
X131235000Y-92170000D02*
X133105000Y-92170000D01*
X133105000Y-92170000D02*
X133105000Y-88260000D01*
X131235000Y-88260000D02*
X131235000Y-92170000D01*
X146810000Y-86960000D02*
X146810000Y-83540000D01*
X146810000Y-83540000D02*
X141090000Y-83540000D01*
X146500000Y-85600000D02*
X146300000Y-85600000D01*
X146500000Y-84800000D02*
X146500000Y-85600000D01*
X146300000Y-86450000D02*
X143950000Y-86450000D01*
X146300000Y-85600000D02*
X146300000Y-86450000D01*
X146300000Y-84800000D02*
X146500000Y-84800000D01*
X146300000Y-84050000D02*
X146300000Y-84800000D01*
X143950000Y-84050000D02*
X146300000Y-84050000D01*
X143950000Y-84050000D02*
X141600000Y-84050000D01*
X141600000Y-86450000D02*
X143950000Y-86450000D01*
X141600000Y-85600000D02*
X141600000Y-86450000D01*
X141600000Y-84800000D02*
X141400000Y-84800000D01*
X141600000Y-84050000D02*
X141600000Y-84800000D01*
X141400000Y-85600000D02*
X141600000Y-85600000D01*
X141400000Y-84800000D02*
X141400000Y-85600000D01*
X141090000Y-86960000D02*
X146810000Y-86960000D01*
X141090000Y-83540000D02*
X141090000Y-86960000D01*
X137490221Y-102208307D02*
X137337718Y-102360810D01*
X136981104Y-101699190D02*
X136828601Y-101851693D01*
D10*
X115990000Y-106200000D02*
X115990000Y-107000000D01*
D11*
X122830000Y-107182164D02*
X122830000Y-107397836D01*
X122110000Y-107182164D02*
X122110000Y-107397836D01*
X150965000Y-98430000D02*
X150965000Y-94130000D01*
X150965000Y-98430000D02*
X145155000Y-98430000D01*
X150965000Y-94130000D02*
X145155000Y-94130000D01*
D10*
X159785000Y-100308500D02*
X159785000Y-101858500D01*
X153125000Y-100308500D02*
X153125000Y-101858500D01*
X159785000Y-101858500D02*
X159785000Y-103408500D01*
X153125000Y-101858500D02*
X153125000Y-103408500D01*
D11*
X129000000Y-92172164D02*
X129000000Y-92387836D01*
X128280000Y-92172164D02*
X128280000Y-92387836D01*
X116815000Y-102450000D02*
X117765000Y-102450000D01*
X117765000Y-102450000D02*
X117765000Y-103790000D01*
X127035000Y-102450000D02*
X126085000Y-102450000D01*
X116815000Y-101500000D02*
X116815000Y-102450000D01*
X127035000Y-101500000D02*
X127035000Y-102450000D01*
X116815000Y-93180000D02*
X116815000Y-92230000D01*
X127035000Y-93180000D02*
X127035000Y-92230000D01*
X116815000Y-92230000D02*
X117765000Y-92230000D01*
X127035000Y-92230000D02*
X126085000Y-92230000D01*
D13*
X118100000Y-101340000D02*
G75*
G03*
X118100000Y-101340000I-175000J0D01*
G01*
D10*
X150620000Y-100660000D02*
X149820000Y-100660000D01*
D11*
X143180000Y-87705225D02*
X143180000Y-88205225D01*
X143430000Y-87955225D02*
X142930000Y-87955225D01*
X144285000Y-90510000D02*
X142745000Y-90510000D01*
X140665000Y-90510000D02*
X139125000Y-90510000D01*
X144285000Y-90550000D02*
X142745000Y-90550000D01*
X140665000Y-90550000D02*
X139125000Y-90550000D01*
X144284000Y-90590000D02*
X142745000Y-90590000D01*
X140665000Y-90590000D02*
X139126000Y-90590000D01*
X144283000Y-90630000D02*
X142745000Y-90630000D01*
X140665000Y-90630000D02*
X139127000Y-90630000D01*
X144281000Y-90670000D02*
X142745000Y-90670000D01*
X140665000Y-90670000D02*
X139129000Y-90670000D01*
X144278000Y-90710000D02*
X142745000Y-90710000D01*
X140665000Y-90710000D02*
X139132000Y-90710000D01*
X144274000Y-90750000D02*
X142745000Y-90750000D01*
X140665000Y-90750000D02*
X139136000Y-90750000D01*
X144270000Y-90790000D02*
X142745000Y-90790000D01*
X140665000Y-90790000D02*
X139140000Y-90790000D01*
X144266000Y-90830000D02*
X142745000Y-90830000D01*
X140665000Y-90830000D02*
X139144000Y-90830000D01*
X144261000Y-90870000D02*
X142745000Y-90870000D01*
X140665000Y-90870000D02*
X139149000Y-90870000D01*
X144255000Y-90910000D02*
X142745000Y-90910000D01*
X140665000Y-90910000D02*
X139155000Y-90910000D01*
X144248000Y-90950000D02*
X142745000Y-90950000D01*
X140665000Y-90950000D02*
X139162000Y-90950000D01*
X144241000Y-90990000D02*
X142745000Y-90990000D01*
X140665000Y-90990000D02*
X139169000Y-90990000D01*
X144233000Y-91030000D02*
X142745000Y-91030000D01*
X140665000Y-91030000D02*
X139177000Y-91030000D01*
X144225000Y-91070000D02*
X142745000Y-91070000D01*
X140665000Y-91070000D02*
X139185000Y-91070000D01*
X144216000Y-91110000D02*
X142745000Y-91110000D01*
X140665000Y-91110000D02*
X139194000Y-91110000D01*
X144206000Y-91150000D02*
X142745000Y-91150000D01*
X140665000Y-91150000D02*
X139204000Y-91150000D01*
X144196000Y-91190000D02*
X142745000Y-91190000D01*
X140665000Y-91190000D02*
X139214000Y-91190000D01*
X144185000Y-91231000D02*
X142745000Y-91231000D01*
X140665000Y-91231000D02*
X139225000Y-91231000D01*
X144173000Y-91271000D02*
X142745000Y-91271000D01*
X140665000Y-91271000D02*
X139237000Y-91271000D01*
X144160000Y-91311000D02*
X142745000Y-91311000D01*
X140665000Y-91311000D02*
X139250000Y-91311000D01*
X144147000Y-91351000D02*
X142745000Y-91351000D01*
X140665000Y-91351000D02*
X139263000Y-91351000D01*
X144133000Y-91391000D02*
X142745000Y-91391000D01*
X140665000Y-91391000D02*
X139277000Y-91391000D01*
X144119000Y-91431000D02*
X142745000Y-91431000D01*
X140665000Y-91431000D02*
X139291000Y-91431000D01*
X144103000Y-91471000D02*
X142745000Y-91471000D01*
X140665000Y-91471000D02*
X139307000Y-91471000D01*
X144087000Y-91511000D02*
X142745000Y-91511000D01*
X140665000Y-91511000D02*
X139323000Y-91511000D01*
X144070000Y-91551000D02*
X142745000Y-91551000D01*
X140665000Y-91551000D02*
X139340000Y-91551000D01*
X144053000Y-91591000D02*
X142745000Y-91591000D01*
X140665000Y-91591000D02*
X139357000Y-91591000D01*
X144034000Y-91631000D02*
X142745000Y-91631000D01*
X140665000Y-91631000D02*
X139376000Y-91631000D01*
X144015000Y-91671000D02*
X142745000Y-91671000D01*
X140665000Y-91671000D02*
X139395000Y-91671000D01*
X143995000Y-91711000D02*
X142745000Y-91711000D01*
X140665000Y-91711000D02*
X139415000Y-91711000D01*
X143973000Y-91751000D02*
X142745000Y-91751000D01*
X140665000Y-91751000D02*
X139437000Y-91751000D01*
X143952000Y-91791000D02*
X142745000Y-91791000D01*
X140665000Y-91791000D02*
X139458000Y-91791000D01*
X143929000Y-91831000D02*
X142745000Y-91831000D01*
X140665000Y-91831000D02*
X139481000Y-91831000D01*
X143905000Y-91871000D02*
X142745000Y-91871000D01*
X140665000Y-91871000D02*
X139505000Y-91871000D01*
X143880000Y-91911000D02*
X142745000Y-91911000D01*
X140665000Y-91911000D02*
X139530000Y-91911000D01*
X143854000Y-91951000D02*
X142745000Y-91951000D01*
X140665000Y-91951000D02*
X139556000Y-91951000D01*
X143827000Y-91991000D02*
X142745000Y-91991000D01*
X140665000Y-91991000D02*
X139583000Y-91991000D01*
X143800000Y-92031000D02*
X142745000Y-92031000D01*
X140665000Y-92031000D02*
X139610000Y-92031000D01*
X143770000Y-92071000D02*
X142745000Y-92071000D01*
X140665000Y-92071000D02*
X139640000Y-92071000D01*
X143740000Y-92111000D02*
X142745000Y-92111000D01*
X140665000Y-92111000D02*
X139670000Y-92111000D01*
X143709000Y-92151000D02*
X142745000Y-92151000D01*
X140665000Y-92151000D02*
X139701000Y-92151000D01*
X143676000Y-92191000D02*
X142745000Y-92191000D01*
X140665000Y-92191000D02*
X139734000Y-92191000D01*
X143642000Y-92231000D02*
X142745000Y-92231000D01*
X140665000Y-92231000D02*
X139768000Y-92231000D01*
X143606000Y-92271000D02*
X142745000Y-92271000D01*
X140665000Y-92271000D02*
X139804000Y-92271000D01*
X143569000Y-92311000D02*
X142745000Y-92311000D01*
X140665000Y-92311000D02*
X139841000Y-92311000D01*
X143531000Y-92351000D02*
X142745000Y-92351000D01*
X140665000Y-92351000D02*
X139879000Y-92351000D01*
X143490000Y-92391000D02*
X142745000Y-92391000D01*
X140665000Y-92391000D02*
X139920000Y-92391000D01*
X143448000Y-92431000D02*
X142745000Y-92431000D01*
X140665000Y-92431000D02*
X139962000Y-92431000D01*
X143404000Y-92471000D02*
X142745000Y-92471000D01*
X140665000Y-92471000D02*
X140006000Y-92471000D01*
X143358000Y-92511000D02*
X142745000Y-92511000D01*
X140665000Y-92511000D02*
X140052000Y-92511000D01*
X143310000Y-92551000D02*
X140100000Y-92551000D01*
X143259000Y-92591000D02*
X140151000Y-92591000D01*
X143205000Y-92631000D02*
X140205000Y-92631000D01*
X143148000Y-92671000D02*
X140262000Y-92671000D01*
X143088000Y-92711000D02*
X140322000Y-92711000D01*
X143024000Y-92751000D02*
X140386000Y-92751000D01*
X142956000Y-92791000D02*
X140454000Y-92791000D01*
X142883000Y-92831000D02*
X140527000Y-92831000D01*
X142803000Y-92871000D02*
X140607000Y-92871000D01*
X142716000Y-92911000D02*
X140694000Y-92911000D01*
X142620000Y-92951000D02*
X140790000Y-92951000D01*
X142510000Y-92991000D02*
X140900000Y-92991000D01*
X142382000Y-93031000D02*
X141028000Y-93031000D01*
X142223000Y-93071000D02*
X141187000Y-93071000D01*
X141989000Y-93111000D02*
X141421000Y-93111000D01*
X144325000Y-90510000D02*
G75*
G03*
X144325000Y-90510000I-2620000J0D01*
G01*
X128850000Y-102497836D02*
X128850000Y-102282164D01*
X129570000Y-102497836D02*
X129570000Y-102282164D01*
X140400000Y-105350000D02*
X140400000Y-108770000D01*
X140400000Y-108770000D02*
X147370000Y-108770000D01*
X140710000Y-106710000D02*
X140910000Y-106710000D01*
X140710000Y-107510000D02*
X140710000Y-106710000D01*
X140910000Y-105860000D02*
X143885000Y-105860000D01*
X140910000Y-106710000D02*
X140910000Y-105860000D01*
X140910000Y-107510000D02*
X140710000Y-107510000D01*
X140910000Y-108260000D02*
X140910000Y-107510000D01*
X143885000Y-108260000D02*
X140910000Y-108260000D01*
X143885000Y-108260000D02*
X146860000Y-108260000D01*
X146860000Y-105860000D02*
X143885000Y-105860000D01*
X146860000Y-106710000D02*
X146860000Y-105860000D01*
X146860000Y-107510000D02*
X147060000Y-107510000D01*
X146860000Y-108260000D02*
X146860000Y-107510000D01*
X147060000Y-106710000D02*
X146860000Y-106710000D01*
X147060000Y-107510000D02*
X147060000Y-106710000D01*
X147370000Y-105350000D02*
X140400000Y-105350000D01*
X147370000Y-108770000D02*
X147370000Y-105350000D01*
X157815000Y-92397248D02*
X157815000Y-93819752D01*
X155095000Y-92397248D02*
X155095000Y-93819752D01*
D10*
X147700000Y-100660000D02*
X146900000Y-100660000D01*
D11*
X104385000Y-83405000D02*
X105715000Y-83405000D01*
X104385000Y-84735000D02*
X104385000Y-83405000D01*
X104385000Y-86005000D02*
X104385000Y-108925000D01*
X104385000Y-86005000D02*
X107045000Y-86005000D01*
X104385000Y-108925000D02*
X107045000Y-108925000D01*
X107045000Y-86005000D02*
X107045000Y-108925000D01*
G36*
X127735766Y-89344561D02*
G01*
X127759203Y-89347899D01*
X127755835Y-89675458D01*
X127754732Y-89759828D01*
X127753249Y-89839192D01*
X127751481Y-89910416D01*
X127749519Y-89970362D01*
X127747456Y-90015895D01*
X127745387Y-90043880D01*
X127744784Y-90048351D01*
X127737808Y-90077758D01*
X127726949Y-90091907D01*
X127707883Y-90097081D01*
X127684991Y-90095096D01*
X127666607Y-90079633D01*
X127656338Y-90064656D01*
X127649871Y-90053401D01*
X127644826Y-90041087D01*
X127641060Y-90025111D01*
X127638429Y-90002869D01*
X127636789Y-89971758D01*
X127635997Y-89929174D01*
X127635908Y-89872514D01*
X127636380Y-89799174D01*
X127637160Y-89717191D01*
X127640310Y-89405548D01*
X127676320Y-89373385D01*
X127707053Y-89351829D01*
X127733157Y-89344342D01*
X127735766Y-89344561D01*
G37*
G36*
X129508362Y-89355369D02*
G01*
X129531799Y-89358708D01*
X129528431Y-89686266D01*
X129527327Y-89770636D01*
X129525845Y-89850001D01*
X129524076Y-89921224D01*
X129522114Y-89981171D01*
X129520052Y-90026704D01*
X129517982Y-90054688D01*
X129517380Y-90059160D01*
X129510404Y-90088567D01*
X129499545Y-90102715D01*
X129480478Y-90107890D01*
X129457587Y-90105905D01*
X129439203Y-90090441D01*
X129428933Y-90075464D01*
X129422466Y-90064209D01*
X129417422Y-90051896D01*
X129413656Y-90035920D01*
X129411025Y-90013678D01*
X129409385Y-89982567D01*
X129408592Y-89939983D01*
X129408504Y-89883323D01*
X129408976Y-89809983D01*
X129409756Y-89728000D01*
X129412905Y-89416356D01*
X129448915Y-89384194D01*
X129479649Y-89362638D01*
X129505753Y-89355150D01*
X129508362Y-89355369D01*
G37*
G36*
X126628451Y-89362434D02*
G01*
X126673698Y-89396758D01*
X126690274Y-89417898D01*
X126712122Y-89463901D01*
X126729267Y-89525814D01*
X126741137Y-89598328D01*
X126747159Y-89676133D01*
X126746759Y-89753920D01*
X126739365Y-89826380D01*
X126736224Y-89843699D01*
X126711809Y-89920588D01*
X126673227Y-89985431D01*
X126622903Y-90036332D01*
X126563259Y-90071398D01*
X126496720Y-90088733D01*
X126425776Y-90086453D01*
X126362015Y-90067992D01*
X126297730Y-90036750D01*
X126238379Y-89996452D01*
X126189420Y-89950824D01*
X126156310Y-89903592D01*
X126155504Y-89901952D01*
X126135422Y-89836440D01*
X126135667Y-89775226D01*
X126274749Y-89775226D01*
X126281879Y-89825556D01*
X126307090Y-89872743D01*
X126313178Y-89880604D01*
X126360789Y-89926721D01*
X126412884Y-89955022D01*
X126466390Y-89964792D01*
X126518232Y-89955317D01*
X126552726Y-89936236D01*
X126586095Y-89900736D01*
X126608650Y-89850678D01*
X126620957Y-89784295D01*
X126623796Y-89715388D01*
X126618706Y-89632373D01*
X126604320Y-89568668D01*
X126580492Y-89523995D01*
X126547076Y-89498080D01*
X126504873Y-89490617D01*
X126470578Y-89495910D01*
X126438927Y-89511610D01*
X126405806Y-89540600D01*
X126367098Y-89585761D01*
X126364790Y-89588688D01*
X126315910Y-89658459D01*
X126285994Y-89720082D01*
X126274749Y-89775226D01*
X126135667Y-89775226D01*
X126135698Y-89767388D01*
X126156282Y-89698380D01*
X126158421Y-89693771D01*
X126189372Y-89638681D01*
X126230824Y-89579100D01*
X126279057Y-89519196D01*
X126330349Y-89463136D01*
X126380978Y-89415088D01*
X126427223Y-89379219D01*
X126452139Y-89364887D01*
X126513903Y-89345660D01*
X126573930Y-89345122D01*
X126628451Y-89362434D01*
G37*
G36*
X128475039Y-89327670D02*
G01*
X128490495Y-89332706D01*
X128500113Y-89337363D01*
X128526458Y-89357598D01*
X128546127Y-89384502D01*
X128555919Y-89411771D01*
X128552632Y-89433096D01*
X128550204Y-89436015D01*
X128534533Y-89442910D01*
X128502743Y-89451355D01*
X128460144Y-89460060D01*
X128431005Y-89464965D01*
X128385802Y-89472251D01*
X128349455Y-89478639D01*
X128326686Y-89483269D01*
X128321398Y-89484934D01*
X128320051Y-89496215D01*
X128317886Y-89526239D01*
X128315069Y-89572153D01*
X128311767Y-89631105D01*
X128308147Y-89700243D01*
X128304465Y-89774835D01*
X128300458Y-89852537D01*
X128296237Y-89924082D01*
X128292030Y-89986336D01*
X128288063Y-90036166D01*
X128284564Y-90070437D01*
X128281935Y-90085580D01*
X128265562Y-90105115D01*
X128240424Y-90109149D01*
X128212941Y-90097568D01*
X128201325Y-90087018D01*
X128195045Y-90078792D01*
X128190216Y-90068036D01*
X128186673Y-90052086D01*
X128184250Y-90028282D01*
X128182781Y-89993961D01*
X128182101Y-89946464D01*
X128182043Y-89883127D01*
X128182443Y-89801289D01*
X128182545Y-89785315D01*
X128184355Y-89506494D01*
X128111815Y-89526596D01*
X128070224Y-89538555D01*
X128033068Y-89549981D01*
X128010120Y-89557783D01*
X127982099Y-89563790D01*
X127961957Y-89562156D01*
X127931086Y-89544342D01*
X127906469Y-89518202D01*
X127894594Y-89490967D01*
X127894310Y-89486775D01*
X127903068Y-89461846D01*
X127918629Y-89446133D01*
X127941682Y-89435930D01*
X127982323Y-89422815D01*
X128036864Y-89407701D01*
X128101619Y-89391502D01*
X128172900Y-89375133D01*
X128247019Y-89359507D01*
X128320290Y-89345539D01*
X128334467Y-89343034D01*
X128390334Y-89333562D01*
X128429414Y-89327946D01*
X128456164Y-89326033D01*
X128475039Y-89327670D01*
G37*
G36*
X129210018Y-89338479D02*
G01*
X129225474Y-89343515D01*
X129235092Y-89348172D01*
X129261436Y-89368406D01*
X129281106Y-89395311D01*
X129290898Y-89422579D01*
X129287611Y-89443905D01*
X129285183Y-89446824D01*
X129269512Y-89453719D01*
X129237722Y-89462164D01*
X129195122Y-89470869D01*
X129165984Y-89475774D01*
X129120781Y-89483060D01*
X129084434Y-89489448D01*
X129061665Y-89494078D01*
X129056377Y-89495742D01*
X129055030Y-89507024D01*
X129052864Y-89537048D01*
X129050048Y-89582962D01*
X129046746Y-89641914D01*
X129043125Y-89711052D01*
X129039444Y-89785644D01*
X129035437Y-89863345D01*
X129031216Y-89934890D01*
X129027009Y-89997145D01*
X129023042Y-90046974D01*
X129019542Y-90081246D01*
X129016914Y-90096388D01*
X129000540Y-90115923D01*
X128975402Y-90119957D01*
X128947919Y-90108377D01*
X128936304Y-90097826D01*
X128930024Y-90089601D01*
X128925195Y-90078844D01*
X128921652Y-90062894D01*
X128919228Y-90039090D01*
X128917760Y-90004770D01*
X128917079Y-89957272D01*
X128917022Y-89893935D01*
X128917422Y-89812098D01*
X128917524Y-89796124D01*
X128919334Y-89517303D01*
X128846794Y-89537405D01*
X128805202Y-89549363D01*
X128768047Y-89560790D01*
X128745099Y-89568591D01*
X128717078Y-89574598D01*
X128696935Y-89572964D01*
X128666065Y-89555150D01*
X128641448Y-89529011D01*
X128629573Y-89501775D01*
X128629288Y-89497583D01*
X128638047Y-89472655D01*
X128653607Y-89456941D01*
X128676660Y-89446739D01*
X128717301Y-89433624D01*
X128771843Y-89418510D01*
X128836598Y-89402311D01*
X128907879Y-89385941D01*
X128981998Y-89370316D01*
X129055269Y-89356348D01*
X129069446Y-89353843D01*
X129125313Y-89344371D01*
X129164393Y-89338754D01*
X129191142Y-89336841D01*
X129210018Y-89338479D01*
G37*
G36*
X130914583Y-89368860D02*
G01*
X130959563Y-89390459D01*
X130992417Y-89428597D01*
X131011904Y-89482917D01*
X131013506Y-89491862D01*
X131015732Y-89523796D01*
X131007902Y-89545447D01*
X130997788Y-89557229D01*
X130975357Y-89573013D01*
X130955668Y-89569981D01*
X130935550Y-89547142D01*
X130928527Y-89535530D01*
X130915458Y-89515565D01*
X130901254Y-89506481D01*
X130878164Y-89505230D01*
X130856094Y-89507041D01*
X130801909Y-89520412D01*
X130741087Y-89549226D01*
X130678638Y-89590717D01*
X130630284Y-89631734D01*
X130605794Y-89656284D01*
X130592547Y-89674637D01*
X130592202Y-89687606D01*
X130606414Y-89696003D01*
X130636840Y-89700639D01*
X130685136Y-89702328D01*
X130752959Y-89701882D01*
X130772663Y-89701541D01*
X130856530Y-89700967D01*
X130922053Y-89703143D01*
X130972400Y-89708687D01*
X131010736Y-89718217D01*
X131040231Y-89732355D01*
X131064052Y-89751718D01*
X131071792Y-89760024D01*
X131098957Y-89803447D01*
X131105332Y-89848634D01*
X131090785Y-89896144D01*
X131055183Y-89946534D01*
X131018922Y-89982692D01*
X130946113Y-90036536D01*
X130863684Y-90077764D01*
X130776285Y-90105148D01*
X130688567Y-90117459D01*
X130605181Y-90113469D01*
X130561518Y-90103476D01*
X130518580Y-90081956D01*
X130483541Y-90049000D01*
X130461289Y-90010252D01*
X130455927Y-89981506D01*
X130455927Y-89955408D01*
X130539693Y-89964817D01*
X130644436Y-89973484D01*
X130729738Y-89973787D01*
X130795428Y-89965734D01*
X130839629Y-89950290D01*
X130885621Y-89922020D01*
X130915960Y-89896567D01*
X130928717Y-89875717D01*
X130928192Y-89868270D01*
X130919825Y-89858291D01*
X130901797Y-89850781D01*
X130871696Y-89845451D01*
X130827110Y-89842011D01*
X130765627Y-89840173D01*
X130689661Y-89839646D01*
X130624888Y-89839317D01*
X130577786Y-89838087D01*
X130544413Y-89835537D01*
X130520826Y-89831249D01*
X130503084Y-89824803D01*
X130491744Y-89818607D01*
X130456892Y-89790221D01*
X130439131Y-89755402D01*
X130435997Y-89708771D01*
X130436806Y-89698619D01*
X130452013Y-89644677D01*
X130486223Y-89588348D01*
X130537313Y-89531825D01*
X130603159Y-89477301D01*
X130681637Y-89426970D01*
X130719285Y-89406887D01*
X130793203Y-89376716D01*
X130858716Y-89364160D01*
X130914583Y-89368860D01*
G37*
G36*
X124270570Y-89343041D02*
G01*
X124302161Y-89375948D01*
X124335568Y-89428862D01*
X124371937Y-89501933D01*
X124412413Y-89595311D01*
X124458141Y-89709143D01*
X124462421Y-89720057D01*
X124498994Y-89814065D01*
X124527959Y-89890027D01*
X124549963Y-89949875D01*
X124565653Y-89995542D01*
X124575675Y-90028960D01*
X124580678Y-90052061D01*
X124581309Y-90066778D01*
X124580176Y-90071625D01*
X124564744Y-90084824D01*
X124537041Y-90086041D01*
X124503663Y-90075324D01*
X124483648Y-90057138D01*
X124462099Y-90024244D01*
X124442548Y-89982946D01*
X124429248Y-89942494D01*
X124423943Y-89925961D01*
X124414891Y-89918097D01*
X124396192Y-89916985D01*
X124362162Y-89920678D01*
X124294309Y-89934156D01*
X124211405Y-89959144D01*
X124116106Y-89994758D01*
X124031816Y-90030714D01*
X123984478Y-90051626D01*
X123952407Y-90064467D01*
X123931248Y-90070233D01*
X123916646Y-90069923D01*
X123904247Y-90064536D01*
X123898920Y-90061177D01*
X123874651Y-90038767D01*
X123860555Y-90017558D01*
X123856806Y-90008862D01*
X123854669Y-90000102D01*
X123854998Y-89989155D01*
X123858648Y-89973894D01*
X123866471Y-89952194D01*
X123879324Y-89921931D01*
X123898058Y-89880978D01*
X123899086Y-89878808D01*
X124063832Y-89878808D01*
X124066329Y-89882920D01*
X124081056Y-89879741D01*
X124108258Y-89871698D01*
X124122916Y-89866936D01*
X124150099Y-89859437D01*
X124190498Y-89850121D01*
X124237961Y-89840194D01*
X124286335Y-89830865D01*
X124329469Y-89823341D01*
X124361210Y-89818830D01*
X124371847Y-89818069D01*
X124372418Y-89808809D01*
X124366533Y-89784127D01*
X124355768Y-89748668D01*
X124341702Y-89707080D01*
X124325912Y-89664007D01*
X124309976Y-89624098D01*
X124295469Y-89591997D01*
X124294324Y-89589722D01*
X124273072Y-89556817D01*
X124251704Y-89544258D01*
X124227482Y-89550930D01*
X124216969Y-89558270D01*
X124202907Y-89574972D01*
X124184052Y-89605142D01*
X124162142Y-89645035D01*
X124138913Y-89690904D01*
X124116104Y-89739005D01*
X124095454Y-89785591D01*
X124078700Y-89826918D01*
X124067580Y-89859238D01*
X124063832Y-89878808D01*
X123899086Y-89878808D01*
X123923528Y-89827211D01*
X123956588Y-89758504D01*
X123998092Y-89672733D01*
X124004069Y-89660391D01*
X124055019Y-89557418D01*
X124099767Y-89473408D01*
X124139459Y-89408512D01*
X124175240Y-89362878D01*
X124208255Y-89336656D01*
X124239650Y-89329994D01*
X124270570Y-89343041D01*
G37*
G36*
X127422092Y-89332384D02*
G01*
X127437329Y-89361280D01*
X127440352Y-89383829D01*
X127435351Y-89401216D01*
X127419841Y-89429077D01*
X127393062Y-89468457D01*
X127354251Y-89520402D01*
X127302649Y-89585960D01*
X127237494Y-89666175D01*
X127216223Y-89692005D01*
X127176959Y-89740120D01*
X127143382Y-89782340D01*
X127117585Y-89815942D01*
X127101660Y-89838207D01*
X127097527Y-89846337D01*
X127111665Y-89854273D01*
X127141659Y-89867538D01*
X127182939Y-89884382D01*
X127230937Y-89903051D01*
X127281084Y-89921794D01*
X127328812Y-89938859D01*
X127369551Y-89952494D01*
X127391581Y-89959092D01*
X127452955Y-89981588D01*
X127493703Y-90009707D01*
X127513718Y-90043326D01*
X127512891Y-90082322D01*
X127509451Y-90092802D01*
X127494357Y-90107428D01*
X127483291Y-90109899D01*
X127460775Y-90105725D01*
X127420353Y-90093659D01*
X127363963Y-90074388D01*
X127293543Y-90048595D01*
X127211029Y-90016966D01*
X127131892Y-89985628D01*
X127079561Y-89964733D01*
X127034778Y-89947049D01*
X127001161Y-89933990D01*
X126982327Y-89926968D01*
X126979632Y-89926154D01*
X126977732Y-89936099D01*
X126976310Y-89962478D01*
X126975617Y-90000112D01*
X126975586Y-90010461D01*
X126972328Y-90067878D01*
X126962504Y-90104757D01*
X126946036Y-90121179D01*
X126922847Y-90117224D01*
X126895249Y-90095396D01*
X126885501Y-90084301D01*
X126878364Y-90071084D01*
X126873206Y-90052052D01*
X126869395Y-90023512D01*
X126866297Y-89981771D01*
X126863280Y-89923134D01*
X126862380Y-89903545D01*
X126860173Y-89830516D01*
X126859780Y-89753554D01*
X126861022Y-89676045D01*
X126863721Y-89601371D01*
X126867698Y-89532918D01*
X126872775Y-89474070D01*
X126878772Y-89428210D01*
X126885511Y-89398723D01*
X126889455Y-89390727D01*
X126909520Y-89373142D01*
X126933575Y-89358075D01*
X126956226Y-89348661D01*
X126971181Y-89351822D01*
X126981867Y-89361128D01*
X126988629Y-89369957D01*
X126993281Y-89382887D01*
X126996025Y-89403233D01*
X126997064Y-89434313D01*
X126996600Y-89479442D01*
X126994835Y-89541939D01*
X126994151Y-89562538D01*
X126992122Y-89630332D01*
X126991394Y-89678897D01*
X126992073Y-89710591D01*
X126994266Y-89727769D01*
X126998077Y-89732787D01*
X127001669Y-89730431D01*
X127012383Y-89718260D01*
X127035076Y-89692195D01*
X127067606Y-89654708D01*
X127107828Y-89608271D01*
X127153598Y-89555356D01*
X127184832Y-89519212D01*
X127233016Y-89463929D01*
X127277217Y-89414161D01*
X127315277Y-89372260D01*
X127345042Y-89340578D01*
X127364355Y-89321466D01*
X127370299Y-89316892D01*
X127398177Y-89316087D01*
X127422092Y-89332384D01*
G37*
G36*
X125938444Y-89328914D02*
G01*
X126001852Y-89345962D01*
X126051078Y-89371929D01*
X126084212Y-89406247D01*
X126099345Y-89448348D01*
X126100097Y-89461094D01*
X126097977Y-89490894D01*
X126090413Y-89518921D01*
X126075594Y-89547270D01*
X126051711Y-89578036D01*
X126016954Y-89613316D01*
X125969513Y-89655203D01*
X125907580Y-89705793D01*
X125848799Y-89752057D01*
X125806407Y-89785560D01*
X125770966Y-89814465D01*
X125745593Y-89836163D01*
X125733401Y-89848044D01*
X125732774Y-89849247D01*
X125741991Y-89856295D01*
X125766827Y-89870257D01*
X125803277Y-89888977D01*
X125838959Y-89906338D01*
X125909638Y-89942097D01*
X125960912Y-89973163D01*
X125994205Y-90000625D01*
X126010941Y-90025572D01*
X126013629Y-90039967D01*
X126009523Y-90062454D01*
X126002880Y-90072032D01*
X125989033Y-90070670D01*
X125960431Y-90061637D01*
X125921828Y-90046572D01*
X125894459Y-90034696D01*
X125847273Y-90014813D01*
X125794413Y-89994726D01*
X125740261Y-89975839D01*
X125689196Y-89959558D01*
X125645599Y-89947289D01*
X125613851Y-89940436D01*
X125599237Y-89939987D01*
X125593192Y-89951736D01*
X125587657Y-89979010D01*
X125584061Y-90013176D01*
X125577086Y-90066318D01*
X125564578Y-90098734D01*
X125546260Y-90110667D01*
X125521852Y-90102358D01*
X125501519Y-90085155D01*
X125491967Y-90074169D01*
X125484976Y-90060827D01*
X125479929Y-90041444D01*
X125476208Y-90012331D01*
X125473197Y-89969802D01*
X125470280Y-89910170D01*
X125469585Y-89894288D01*
X125466942Y-89826186D01*
X125464735Y-89755962D01*
X125463164Y-89690930D01*
X125462426Y-89638401D01*
X125462398Y-89629391D01*
X125592097Y-89629391D01*
X125592772Y-89678226D01*
X125594606Y-89717985D01*
X125597313Y-89744390D01*
X125600375Y-89753218D01*
X125613034Y-89748108D01*
X125639120Y-89734569D01*
X125673518Y-89715283D01*
X125681699Y-89710532D01*
X125725940Y-89683332D01*
X125775821Y-89650517D01*
X125826965Y-89615209D01*
X125874997Y-89580529D01*
X125915541Y-89549599D01*
X125944221Y-89525540D01*
X125952427Y-89517417D01*
X125967681Y-89489210D01*
X125961822Y-89463442D01*
X125935348Y-89442095D01*
X125933208Y-89441043D01*
X125900198Y-89433364D01*
X125852388Y-89435404D01*
X125788516Y-89447348D01*
X125707318Y-89469382D01*
X125677866Y-89478469D01*
X125592097Y-89505563D01*
X125592097Y-89629391D01*
X125462398Y-89629391D01*
X125462395Y-89628358D01*
X125461430Y-89576878D01*
X125458267Y-89544020D01*
X125452505Y-89526864D01*
X125447884Y-89522984D01*
X125432446Y-89508588D01*
X125417003Y-89482200D01*
X125405687Y-89452835D01*
X125402630Y-89429508D01*
X125403478Y-89426074D01*
X125416700Y-89415494D01*
X125447134Y-89401787D01*
X125490824Y-89386218D01*
X125543817Y-89370050D01*
X125602157Y-89354547D01*
X125661890Y-89340976D01*
X125682218Y-89336949D01*
X125776717Y-89323840D01*
X125862762Y-89321350D01*
X125938444Y-89328914D01*
G37*
G36*
X125173093Y-89318917D02*
G01*
X125194370Y-89327740D01*
X125200509Y-89331334D01*
X125231671Y-89357608D01*
X125251085Y-89387963D01*
X125255254Y-89416432D01*
X125253679Y-89422113D01*
X125238948Y-89433962D01*
X125207989Y-89442953D01*
X125195514Y-89444886D01*
X125130550Y-89454492D01*
X125062916Y-89466777D01*
X124996575Y-89480779D01*
X124935490Y-89495536D01*
X124883626Y-89510086D01*
X124844945Y-89523466D01*
X124823411Y-89534716D01*
X124822655Y-89535392D01*
X124818190Y-89547957D01*
X124811810Y-89575842D01*
X124804484Y-89613394D01*
X124797185Y-89654957D01*
X124790883Y-89694878D01*
X124786548Y-89727502D01*
X124785153Y-89747175D01*
X124785752Y-89750306D01*
X124796887Y-89749128D01*
X124824823Y-89743484D01*
X124865421Y-89734275D01*
X124914542Y-89722400D01*
X124917676Y-89721621D01*
X125016478Y-89698226D01*
X125101922Y-89680471D01*
X125172381Y-89668612D01*
X125226228Y-89662907D01*
X125261837Y-89663613D01*
X125270743Y-89665798D01*
X125296350Y-89681570D01*
X125320488Y-89705260D01*
X125320520Y-89705301D01*
X125334774Y-89730122D01*
X125331443Y-89748054D01*
X125309247Y-89760564D01*
X125266906Y-89769121D01*
X125264596Y-89769425D01*
X125217543Y-89777433D01*
X125157884Y-89790422D01*
X125090507Y-89807030D01*
X125020298Y-89825899D01*
X124952145Y-89845667D01*
X124890935Y-89864975D01*
X124841556Y-89882463D01*
X124811045Y-89895638D01*
X124798062Y-89909756D01*
X124802520Y-89927002D01*
X124820951Y-89945010D01*
X124849886Y-89961413D01*
X124885860Y-89973845D01*
X124925404Y-89979940D01*
X124934959Y-89980197D01*
X124967644Y-89977796D01*
X125013104Y-89971405D01*
X125063132Y-89962239D01*
X125079240Y-89958814D01*
X125124429Y-89949260D01*
X125163212Y-89941851D01*
X125189585Y-89937703D01*
X125195715Y-89937197D01*
X125219815Y-89945824D01*
X125245773Y-89967633D01*
X125267346Y-89995766D01*
X125278287Y-90023363D01*
X125278650Y-90028271D01*
X125276813Y-90043558D01*
X125269308Y-90055201D01*
X125253140Y-90064194D01*
X125225315Y-90071535D01*
X125182840Y-90078220D01*
X125122722Y-90085245D01*
X125100310Y-90087619D01*
X125049071Y-90093064D01*
X125005493Y-90097864D01*
X124974193Y-90101499D01*
X124959799Y-90103448D01*
X124943587Y-90103406D01*
X124913946Y-90100809D01*
X124892848Y-90098257D01*
X124823293Y-90079741D01*
X124765654Y-90043821D01*
X124718869Y-89989670D01*
X124692816Y-89942233D01*
X124682333Y-89917116D01*
X124675273Y-89892226D01*
X124670994Y-89862492D01*
X124668854Y-89822840D01*
X124668211Y-89768198D01*
X124668215Y-89747814D01*
X124670732Y-89665963D01*
X124677551Y-89587112D01*
X124687998Y-89515480D01*
X124701403Y-89455286D01*
X124717093Y-89410746D01*
X124723916Y-89398168D01*
X124739321Y-89381093D01*
X124760652Y-89376178D01*
X124779708Y-89377608D01*
X124808275Y-89376983D01*
X124851968Y-89371017D01*
X124905205Y-89360581D01*
X124938182Y-89352842D01*
X125013338Y-89334747D01*
X125071097Y-89322579D01*
X125114768Y-89316065D01*
X125147663Y-89314935D01*
X125173093Y-89318917D01*
G37*
G36*
X130188242Y-89340534D02*
G01*
X130209519Y-89349357D01*
X130215658Y-89352951D01*
X130246820Y-89379225D01*
X130266233Y-89409580D01*
X130270403Y-89438049D01*
X130268828Y-89443730D01*
X130254096Y-89455579D01*
X130223138Y-89464570D01*
X130210663Y-89466503D01*
X130145699Y-89476109D01*
X130078065Y-89488394D01*
X130011724Y-89502396D01*
X129950639Y-89517153D01*
X129898775Y-89531703D01*
X129860094Y-89545083D01*
X129838560Y-89556333D01*
X129837804Y-89557009D01*
X129833339Y-89569574D01*
X129826959Y-89597459D01*
X129819633Y-89635011D01*
X129812334Y-89676574D01*
X129806032Y-89716495D01*
X129801697Y-89749119D01*
X129800302Y-89768792D01*
X129800901Y-89771923D01*
X129812036Y-89770745D01*
X129839972Y-89765101D01*
X129880570Y-89755892D01*
X129929691Y-89744017D01*
X129932825Y-89743238D01*
X130031627Y-89719843D01*
X130117071Y-89702088D01*
X130187530Y-89690229D01*
X130241377Y-89684524D01*
X130276986Y-89685230D01*
X130285892Y-89687416D01*
X130311499Y-89703187D01*
X130335637Y-89726878D01*
X130335669Y-89726918D01*
X130349923Y-89751739D01*
X130346592Y-89769671D01*
X130324396Y-89782182D01*
X130282055Y-89790738D01*
X130279745Y-89791042D01*
X130232692Y-89799050D01*
X130173033Y-89812039D01*
X130105656Y-89828647D01*
X130035447Y-89847516D01*
X129967294Y-89867284D01*
X129906084Y-89886592D01*
X129856705Y-89904081D01*
X129826193Y-89917255D01*
X129813211Y-89931373D01*
X129817669Y-89948620D01*
X129836100Y-89966627D01*
X129865035Y-89983030D01*
X129901009Y-89995462D01*
X129940553Y-90001557D01*
X129950108Y-90001814D01*
X129982793Y-89999413D01*
X130028253Y-89993022D01*
X130078281Y-89983856D01*
X130094389Y-89980431D01*
X130139578Y-89970877D01*
X130178361Y-89963468D01*
X130204734Y-89959320D01*
X130210864Y-89958814D01*
X130234964Y-89967441D01*
X130260922Y-89989250D01*
X130282495Y-90017383D01*
X130293436Y-90044980D01*
X130293799Y-90049888D01*
X130291962Y-90065175D01*
X130284457Y-90076818D01*
X130268288Y-90085811D01*
X130240464Y-90093152D01*
X130197989Y-90099837D01*
X130137871Y-90106862D01*
X130115459Y-90109236D01*
X130064220Y-90114681D01*
X130020641Y-90119481D01*
X129989342Y-90123116D01*
X129974948Y-90125065D01*
X129958736Y-90125023D01*
X129929095Y-90122426D01*
X129907997Y-90119874D01*
X129838442Y-90101358D01*
X129780803Y-90065438D01*
X129734018Y-90011287D01*
X129707965Y-89963850D01*
X129697482Y-89938733D01*
X129690422Y-89913843D01*
X129686143Y-89884109D01*
X129684003Y-89844457D01*
X129683360Y-89789815D01*
X129683364Y-89769431D01*
X129685881Y-89687580D01*
X129692700Y-89608729D01*
X129703147Y-89537097D01*
X129716552Y-89476903D01*
X129732242Y-89432363D01*
X129739065Y-89419785D01*
X129754470Y-89402710D01*
X129775801Y-89397795D01*
X129794857Y-89399225D01*
X129823424Y-89398600D01*
X129867117Y-89392634D01*
X129920354Y-89382198D01*
X129953331Y-89374459D01*
X130028487Y-89356364D01*
X130086246Y-89344196D01*
X130129917Y-89337682D01*
X130162812Y-89336552D01*
X130188242Y-89340534D01*
G37*
X123320000Y-105350000D02*
X123320000Y-108770000D01*
X123320000Y-108770000D02*
X132790000Y-108770000D01*
X123630000Y-106710000D02*
X123830000Y-106710000D01*
X123630000Y-107510000D02*
X123630000Y-106710000D01*
X123830000Y-105860000D02*
X128055000Y-105860000D01*
X123830000Y-106710000D02*
X123830000Y-105860000D01*
X123830000Y-107510000D02*
X123630000Y-107510000D01*
X123830000Y-108260000D02*
X123830000Y-107510000D01*
X128055000Y-108260000D02*
X123830000Y-108260000D01*
X128055000Y-108260000D02*
X132280000Y-108260000D01*
X132280000Y-105860000D02*
X128055000Y-105860000D01*
X132280000Y-106710000D02*
X132280000Y-105860000D01*
X132280000Y-107510000D02*
X132480000Y-107510000D01*
X132280000Y-108260000D02*
X132280000Y-107510000D01*
X132480000Y-106710000D02*
X132280000Y-106710000D01*
X132480000Y-107510000D02*
X132480000Y-106710000D01*
X132790000Y-105350000D02*
X123320000Y-105350000D01*
X132790000Y-108770000D02*
X132790000Y-105350000D01*
X128850000Y-100677836D02*
X128850000Y-100462164D01*
X129570000Y-100677836D02*
X129570000Y-100462164D01*
D10*
X126680000Y-88460000D02*
X127040000Y-88460000D01*
X127040000Y-88460000D02*
X127040000Y-88100000D01*
X127040000Y-88100000D02*
X126680000Y-88100000D01*
X126680000Y-88100000D02*
X126680000Y-88460000D01*
G36*
X126680000Y-88460000D02*
G01*
X127040000Y-88460000D01*
X127040000Y-88100000D01*
X126680000Y-88100000D01*
X126680000Y-88460000D01*
G37*
D11*
X128430000Y-88443641D02*
X128430000Y-88136359D01*
X129190000Y-88443641D02*
X129190000Y-88136359D01*
X148993641Y-99380000D02*
X148686359Y-99380000D01*
X148993641Y-98620000D02*
X148686359Y-98620000D01*
D10*
X149160000Y-100660000D02*
X148360000Y-100660000D01*
D11*
X150665000Y-94040000D02*
X150665000Y-92690000D01*
X150665000Y-94040000D02*
X144745000Y-94040000D01*
X150665000Y-88320000D02*
X150665000Y-89670000D01*
X150665000Y-88320000D02*
X144745000Y-88320000D01*
X144745000Y-94040000D02*
X144745000Y-92690000D01*
X144745000Y-88320000D02*
X144745000Y-89670000D01*
X135041693Y-102360810D02*
X134889190Y-102208307D01*
X135550810Y-101851693D02*
X135398307Y-101699190D01*
X106925000Y-83405000D02*
X108255000Y-83405000D01*
X106925000Y-84735000D02*
X106925000Y-83405000D01*
X106925000Y-86005000D02*
X106925000Y-108925000D01*
X106925000Y-86005000D02*
X109585000Y-86005000D01*
X106925000Y-108925000D02*
X109585000Y-108925000D01*
X109585000Y-86005000D02*
X109585000Y-108925000D01*
X133110000Y-105350000D02*
X133110000Y-108770000D01*
X133110000Y-108770000D02*
X140080000Y-108770000D01*
X133420000Y-106710000D02*
X133620000Y-106710000D01*
X133420000Y-107510000D02*
X133420000Y-106710000D01*
X133620000Y-105860000D02*
X136595000Y-105860000D01*
X133620000Y-106710000D02*
X133620000Y-105860000D01*
X133620000Y-107510000D02*
X133420000Y-107510000D01*
X133620000Y-108260000D02*
X133620000Y-107510000D01*
X136595000Y-108260000D02*
X133620000Y-108260000D01*
X136595000Y-108260000D02*
X139570000Y-108260000D01*
X139570000Y-105860000D02*
X136595000Y-105860000D01*
X139570000Y-106710000D02*
X139570000Y-105860000D01*
X139570000Y-107510000D02*
X139770000Y-107510000D01*
X139570000Y-108260000D02*
X139570000Y-107510000D01*
X139770000Y-106710000D02*
X139570000Y-106710000D01*
X139770000Y-107510000D02*
X139770000Y-106710000D01*
X140080000Y-105350000D02*
X133110000Y-105350000D01*
X140080000Y-108770000D02*
X140080000Y-105350000D01*
X135485000Y-93280000D02*
X137355000Y-93280000D01*
X137355000Y-93280000D02*
X137355000Y-89370000D01*
X135485000Y-89370000D02*
X135485000Y-93280000D01*
D10*
X113340000Y-101785000D02*
X113340000Y-97935000D01*
X110140000Y-101785000D02*
X110140000Y-97935000D01*
X112640000Y-99860000D02*
G75*
G03*
X112640000Y-99860000I-900000J0D01*
G01*
D11*
X122027836Y-104860000D02*
X121812164Y-104860000D01*
X122027836Y-104140000D02*
X121812164Y-104140000D01*
X115790000Y-83646000D02*
X115790000Y-84662000D01*
X115790000Y-83646000D02*
X116552000Y-83646000D01*
X115790000Y-87202000D02*
X115790000Y-88472000D01*
X116552000Y-89996000D02*
X117822000Y-89996000D01*
X121378000Y-83646000D02*
X117822000Y-83646000D01*
X121378000Y-89996000D02*
X122648000Y-89996000D01*
X122648000Y-83646000D02*
X123410000Y-83646000D01*
X123410000Y-83646000D02*
X123410000Y-84662000D01*
X123410000Y-87202000D02*
X123410000Y-88472000D01*
X136146359Y-87440000D02*
X136453641Y-87440000D01*
X136146359Y-88200000D02*
X136453641Y-88200000D01*
X128080000Y-92172164D02*
X128080000Y-92387836D01*
X127360000Y-92172164D02*
X127360000Y-92387836D01*
X133152000Y-98275000D02*
X132771000Y-98275000D01*
X132905000Y-93135000D02*
X133405000Y-93135000D01*
X130605000Y-98335000D02*
X130105000Y-98335000D01*
X130105000Y-93135000D02*
X130605000Y-93135000D01*
D14*
X133855000Y-98285000D02*
G75*
G03*
X133855000Y-98285000I-150000J0D01*
G01*
D11*
X116042164Y-102690000D02*
X116257836Y-102690000D01*
X116042164Y-103410000D02*
X116257836Y-103410000D01*
X125020000Y-88433641D02*
X125020000Y-88126359D01*
X125780000Y-88433641D02*
X125780000Y-88126359D01*
X113510000Y-99873641D02*
X113510000Y-99566359D01*
X114270000Y-99873641D02*
X114270000Y-99566359D01*
X114030000Y-95960000D02*
X112900000Y-95960000D01*
X114030000Y-95200000D02*
X114030000Y-95960000D01*
X114030000Y-94440000D02*
X114030000Y-89425000D01*
X114030000Y-94440000D02*
X113463471Y-94440000D01*
X114030000Y-89425000D02*
X113207530Y-89425000D01*
X112336529Y-94440000D02*
X112193471Y-94440000D01*
X112140000Y-95895000D02*
X111937530Y-95895000D01*
X112140000Y-95763471D02*
X112140000Y-95895000D01*
X112140000Y-94493471D02*
X112140000Y-94636529D01*
X111322470Y-95895000D02*
X110500000Y-95895000D01*
X111322470Y-89425000D02*
X110500000Y-89425000D01*
X110500000Y-95895000D02*
X110500000Y-89425000D01*
D10*
X115030000Y-93930000D02*
X114630000Y-93930000D01*
X114630000Y-93930000D02*
X114630000Y-91390000D01*
X114630000Y-91390000D02*
X115030000Y-91390000D01*
X115030000Y-91390000D02*
X115030000Y-93930000D01*
G36*
X115030000Y-93930000D02*
G01*
X114630000Y-93930000D01*
X114630000Y-91390000D01*
X115030000Y-91390000D01*
X115030000Y-93930000D01*
G37*
D11*
X115642164Y-101590000D02*
X115857836Y-101590000D01*
X115642164Y-102310000D02*
X115857836Y-102310000D01*
X116752164Y-91270000D02*
X116967836Y-91270000D01*
X116752164Y-91990000D02*
X116967836Y-91990000D01*
X111946359Y-102900000D02*
X112253641Y-102900000D01*
X111946359Y-103660000D02*
X112253641Y-103660000D01*
D10*
X115990000Y-104740000D02*
X115990000Y-105540000D01*
X116570000Y-108460000D02*
X116570000Y-107660000D01*
D11*
X134020000Y-97237836D02*
X134020000Y-97022164D01*
X134740000Y-97237836D02*
X134740000Y-97022164D01*
X143345000Y-100290000D02*
X137335000Y-100290000D01*
X141095000Y-93470000D02*
X137335000Y-93470000D01*
X137335000Y-100290000D02*
X137335000Y-99030000D01*
X137335000Y-93470000D02*
X137335000Y-94730000D01*
X116752164Y-90350000D02*
X116967836Y-90350000D01*
X116752164Y-91070000D02*
X116967836Y-91070000D01*
X130436000Y-99624000D02*
X130436000Y-100132000D01*
X130436000Y-99624000D02*
X130944000Y-99624000D01*
X131252000Y-104210000D02*
X131760000Y-104210000D01*
X132668000Y-104210000D02*
X132160000Y-104210000D01*
X133484000Y-99624000D02*
X132976000Y-99624000D01*
X133484000Y-99624000D02*
X133484000Y-100132000D01*
D14*
X131510000Y-103810000D02*
G75*
G03*
X131510000Y-103810000I-150000J0D01*
G01*
D11*
X114260000Y-87933641D02*
X114260000Y-87626359D01*
X115020000Y-87933641D02*
X115020000Y-87626359D01*
X150173641Y-103280000D02*
X149866359Y-103280000D01*
X150173641Y-102520000D02*
X149866359Y-102520000D01*
X119962164Y-104610000D02*
X120177836Y-104610000D01*
X119962164Y-105330000D02*
X120177836Y-105330000D01*
X140300000Y-86960000D02*
X140300000Y-83540000D01*
X140300000Y-83540000D02*
X134580000Y-83540000D01*
X139990000Y-85600000D02*
X139790000Y-85600000D01*
X139990000Y-84800000D02*
X139990000Y-85600000D01*
X139790000Y-86450000D02*
X137440000Y-86450000D01*
X139790000Y-85600000D02*
X139790000Y-86450000D01*
X139790000Y-84800000D02*
X139990000Y-84800000D01*
X139790000Y-84050000D02*
X139790000Y-84800000D01*
X137440000Y-84050000D02*
X139790000Y-84050000D01*
X137440000Y-84050000D02*
X135090000Y-84050000D01*
X135090000Y-86450000D02*
X137440000Y-86450000D01*
X135090000Y-85600000D02*
X135090000Y-86450000D01*
X135090000Y-84800000D02*
X134890000Y-84800000D01*
X135090000Y-84050000D02*
X135090000Y-84800000D01*
X134890000Y-85600000D02*
X135090000Y-85600000D01*
X134890000Y-84800000D02*
X134890000Y-85600000D01*
X134580000Y-86960000D02*
X140300000Y-86960000D01*
X134580000Y-83540000D02*
X134580000Y-86960000D01*
X123632164Y-104140000D02*
X123847836Y-104140000D01*
X123632164Y-104860000D02*
X123847836Y-104860000D01*
X114270000Y-101426359D02*
X114270000Y-101733641D01*
X113510000Y-101426359D02*
X113510000Y-101733641D01*
X114250000Y-96862164D02*
X114250000Y-97077836D01*
X113530000Y-96862164D02*
X113530000Y-97077836D01*
X101845000Y-83405000D02*
X103175000Y-83405000D01*
X101845000Y-84735000D02*
X101845000Y-83405000D01*
X101845000Y-86005000D02*
X101845000Y-108925000D01*
X101845000Y-86005000D02*
X104505000Y-86005000D01*
X101845000Y-108925000D02*
X104505000Y-108925000D01*
X104505000Y-86005000D02*
X104505000Y-108925000D01*
X147122659Y-103259940D02*
X147339940Y-103042659D01*
X147660060Y-103797341D02*
X147877341Y-103580060D01*
%LPC*%
D15*
X132175000Y-84800000D03*
D16*
X130925000Y-84800000D03*
X129675000Y-84800000D03*
X128425000Y-84800000D03*
X127175000Y-84800000D03*
X125925000Y-84800000D03*
D17*
X114780000Y-103020000D03*
X114780000Y-103980000D03*
D18*
X132170000Y-91210000D03*
X132170000Y-88510000D03*
D15*
X145200000Y-84800000D03*
D16*
X143950000Y-84800000D03*
X142700000Y-84800000D03*
D19*
X137498822Y-101690589D03*
X136820000Y-102369411D03*
D20*
X115492500Y-106600000D03*
X117067500Y-106600000D03*
D17*
X122470000Y-106810000D03*
X122470000Y-107770000D03*
D21*
X149455000Y-96280000D03*
X145155000Y-96280000D03*
D22*
X156455000Y-97807000D03*
X156455000Y-105910000D03*
D23*
X110275000Y-85860000D03*
X110758274Y-84693274D03*
X110758274Y-87026726D03*
X111925000Y-84210000D03*
D24*
X111925000Y-85860000D03*
D23*
X111925000Y-87510000D03*
X113091726Y-84693274D03*
X113091726Y-87026726D03*
X113575000Y-85860000D03*
D17*
X128640000Y-91800000D03*
X128640000Y-92760000D03*
D25*
X156455000Y-87410000D03*
D26*
X118175000Y-103015000D03*
X118675000Y-103015000D03*
X119175000Y-103015000D03*
X119675000Y-103015000D03*
X120175000Y-103015000D03*
X120675000Y-103015000D03*
X121175000Y-103015000D03*
X121675000Y-103015000D03*
X122175000Y-103015000D03*
X122675000Y-103015000D03*
X123175000Y-103015000D03*
X123675000Y-103015000D03*
X124175000Y-103015000D03*
X124675000Y-103015000D03*
X125175000Y-103015000D03*
X125675000Y-103015000D03*
D27*
X127600000Y-101090000D03*
X127600000Y-100590000D03*
X127600000Y-100090000D03*
X127600000Y-99590000D03*
X127600000Y-99090000D03*
X127600000Y-98590000D03*
X127600000Y-98090000D03*
X127600000Y-97590000D03*
X127600000Y-97090000D03*
X127600000Y-96590000D03*
X127600000Y-96090000D03*
X127600000Y-95590000D03*
X127600000Y-95090000D03*
X127600000Y-94590000D03*
X127600000Y-94090000D03*
X127600000Y-93590000D03*
D26*
X125675000Y-91665000D03*
X125175000Y-91665000D03*
X124675000Y-91665000D03*
X124175000Y-91665000D03*
X123675000Y-91665000D03*
X123175000Y-91665000D03*
X122675000Y-91665000D03*
X122175000Y-91665000D03*
X121675000Y-91665000D03*
X121175000Y-91665000D03*
X120675000Y-91665000D03*
X120175000Y-91665000D03*
X119675000Y-91665000D03*
X119175000Y-91665000D03*
X118675000Y-91665000D03*
X118175000Y-91665000D03*
D27*
X116250000Y-93590000D03*
X116250000Y-94090000D03*
X116250000Y-94590000D03*
X116250000Y-95090000D03*
X116250000Y-95590000D03*
X116250000Y-96090000D03*
X116250000Y-96590000D03*
X116250000Y-97090000D03*
X116250000Y-97590000D03*
X116250000Y-98090000D03*
X116250000Y-98590000D03*
X116250000Y-99090000D03*
X116250000Y-99590000D03*
X116250000Y-100090000D03*
X116250000Y-100590000D03*
X116250000Y-101090000D03*
D28*
X150220000Y-100162500D03*
X150220000Y-101737500D03*
D23*
X148575000Y-106460000D03*
X149058274Y-105293274D03*
X149058274Y-107626726D03*
X150225000Y-104810000D03*
D24*
X150225000Y-106460000D03*
D23*
X150225000Y-108110000D03*
X151391726Y-105293274D03*
X151391726Y-107626726D03*
X151875000Y-106460000D03*
D29*
X141705000Y-89510000D03*
D30*
X141705000Y-91510000D03*
D31*
X129210000Y-102870000D03*
X129210000Y-101910000D03*
D32*
X142010000Y-107510000D03*
D16*
X143260000Y-107510000D03*
X144510000Y-107510000D03*
X145760000Y-107510000D03*
D33*
X156455000Y-91633500D03*
X156455000Y-94583500D03*
D28*
X147300000Y-100162500D03*
X147300000Y-101737500D03*
D34*
X105715000Y-84735000D03*
D35*
X105715000Y-87275000D03*
X105715000Y-89815000D03*
X105715000Y-92355000D03*
X105715000Y-94895000D03*
X105715000Y-97435000D03*
X105715000Y-99975000D03*
X105715000Y-102515000D03*
X105715000Y-105055000D03*
X105715000Y-107595000D03*
D32*
X124930000Y-107510000D03*
D16*
X126180000Y-107510000D03*
X127430000Y-107510000D03*
X128680000Y-107510000D03*
X129930000Y-107510000D03*
X131180000Y-107510000D03*
D31*
X129210000Y-101050000D03*
X129210000Y-100090000D03*
D36*
X126860000Y-88790000D03*
X126860000Y-87770000D03*
X128810000Y-88800000D03*
X128810000Y-87780000D03*
D37*
X149350000Y-99000000D03*
X148330000Y-99000000D03*
D28*
X148760000Y-100162500D03*
X148760000Y-101737500D03*
D38*
X140040000Y-103150000D03*
D39*
X140040000Y-101880000D03*
X141310000Y-103150000D03*
X141310000Y-101880000D03*
X142580000Y-103150000D03*
X142580000Y-101880000D03*
X143850000Y-103150000D03*
X143850000Y-101880000D03*
X145120000Y-103150000D03*
X145120000Y-101880000D03*
D40*
X149755000Y-91180000D03*
X145655000Y-91180000D03*
D41*
X135559411Y-102369411D03*
X134880589Y-101690589D03*
D34*
X108255000Y-84735000D03*
D35*
X108255000Y-87275000D03*
X108255000Y-89815000D03*
X108255000Y-92355000D03*
X108255000Y-94895000D03*
X108255000Y-97435000D03*
X108255000Y-99975000D03*
X108255000Y-102515000D03*
X108255000Y-105055000D03*
X108255000Y-107595000D03*
D32*
X134720000Y-107510000D03*
D16*
X135970000Y-107510000D03*
X137220000Y-107510000D03*
X138470000Y-107510000D03*
D18*
X136420000Y-92320000D03*
X136420000Y-89620000D03*
D42*
X111740000Y-102085000D03*
X111740000Y-97635000D03*
D43*
X122400000Y-104500000D03*
X121440000Y-104500000D03*
D44*
X120900000Y-89182000D03*
X120250000Y-89182000D03*
X119600000Y-89182000D03*
X118950000Y-89182000D03*
X118300000Y-89182000D03*
D45*
X116000000Y-85932000D03*
D46*
X116000000Y-89382000D03*
D45*
X123200000Y-85932000D03*
D46*
X123200000Y-89382000D03*
D47*
X135790000Y-87820000D03*
X136810000Y-87820000D03*
D17*
X127720000Y-91800000D03*
X127720000Y-92760000D03*
D48*
X133080000Y-97610000D03*
X133080000Y-96360000D03*
X133080000Y-95110000D03*
X133080000Y-93860000D03*
X130430000Y-93860000D03*
X130430000Y-95110000D03*
X130430000Y-96360000D03*
X130430000Y-97610000D03*
D49*
X115670000Y-103050000D03*
X116630000Y-103050000D03*
D36*
X125400000Y-88790000D03*
X125400000Y-87770000D03*
D23*
X110275000Y-106460000D03*
X110758274Y-105293274D03*
X110758274Y-107626726D03*
X111925000Y-104810000D03*
D24*
X111925000Y-106460000D03*
D23*
X111925000Y-108110000D03*
X113091726Y-105293274D03*
X113091726Y-107626726D03*
X113575000Y-106460000D03*
D36*
X113890000Y-100230000D03*
X113890000Y-99210000D03*
D38*
X112900000Y-95200000D03*
D39*
X111630000Y-95200000D03*
X112900000Y-93930000D03*
X111630000Y-93930000D03*
X112900000Y-92660000D03*
X111630000Y-92660000D03*
X112900000Y-91390000D03*
X111630000Y-91390000D03*
X112900000Y-90120000D03*
X111630000Y-90120000D03*
D49*
X115270000Y-101950000D03*
X116230000Y-101950000D03*
D50*
X118810000Y-107980000D03*
X121010000Y-107980000D03*
X121010000Y-106280000D03*
X118810000Y-106280000D03*
D49*
X116380000Y-91630000D03*
X117340000Y-91630000D03*
D47*
X111590000Y-103280000D03*
X112610000Y-103280000D03*
D20*
X115492500Y-105140000D03*
X117067500Y-105140000D03*
D51*
X117067500Y-108060000D03*
X115492500Y-108060000D03*
D31*
X134380000Y-97610000D03*
X134380000Y-96650000D03*
D52*
X142395000Y-99180000D03*
X142395000Y-96880000D03*
D53*
X136095000Y-96880000D03*
D52*
X142395000Y-94580000D03*
D49*
X116380000Y-90710000D03*
X117340000Y-90710000D03*
D54*
X130445000Y-103410000D03*
X130445000Y-102910000D03*
X130445000Y-102410000D03*
X130445000Y-101910000D03*
X130445000Y-101410000D03*
X130445000Y-100910000D03*
X130445000Y-100410000D03*
D55*
X131960000Y-99645000D03*
D54*
X133475000Y-100410000D03*
X133475000Y-100910000D03*
X133475000Y-101410000D03*
X133475000Y-101910000D03*
X133475000Y-102410000D03*
X133475000Y-102910000D03*
X133475000Y-103410000D03*
D55*
X131960000Y-104175000D03*
D36*
X114640000Y-88290000D03*
X114640000Y-87270000D03*
D37*
X150530000Y-102900000D03*
X149510000Y-102900000D03*
D23*
X148575000Y-85860000D03*
X149058274Y-84693274D03*
X149058274Y-87026726D03*
X150225000Y-84210000D03*
D24*
X150225000Y-85860000D03*
D23*
X150225000Y-87510000D03*
X151391726Y-84693274D03*
X151391726Y-87026726D03*
X151875000Y-85860000D03*
D49*
X119590000Y-104970000D03*
X120550000Y-104970000D03*
D15*
X138690000Y-84800000D03*
D16*
X137440000Y-84800000D03*
X136190000Y-84800000D03*
D49*
X123260000Y-104500000D03*
X124220000Y-104500000D03*
D56*
X113890000Y-101070000D03*
X113890000Y-102090000D03*
D17*
X113890000Y-96490000D03*
X113890000Y-97450000D03*
D34*
X103175000Y-84735000D03*
D35*
X103175000Y-87275000D03*
X103175000Y-89815000D03*
X103175000Y-92355000D03*
X103175000Y-94895000D03*
X103175000Y-97435000D03*
X103175000Y-99975000D03*
X103175000Y-102515000D03*
X103175000Y-105055000D03*
X103175000Y-107595000D03*
D57*
X147139376Y-103780624D03*
X147860624Y-103059376D03*
%LPD*%
M02*
