G04 #@! TF.GenerationSoftware,KiCad,Pcbnew,7.0.6*
G04 #@! TF.CreationDate,2023-08-28T17:59:06+03:00*
G04 #@! TF.ProjectId,power_sheld,706f7765-725f-4736-9865-6c642e6b6963,rev?*
G04 #@! TF.SameCoordinates,Original*
G04 #@! TF.FileFunction,Copper,L2,Bot*
G04 #@! TF.FilePolarity,Positive*
%FSLAX46Y46*%
G04 Gerber Fmt 4.6, Leading zero omitted, Abs format (unit mm)*
G04 Created by KiCad (PCBNEW 7.0.6) date 2023-08-28 17:59:06*
%MOMM*%
%LPD*%
G01*
G04 APERTURE LIST*
G04 Aperture macros list*
%AMRoundRect*
0 Rectangle with rounded corners*
0 $1 Rounding radius*
0 $2 $3 $4 $5 $6 $7 $8 $9 X,Y pos of 4 corners*
0 Add a 4 corners polygon primitive as box body*
4,1,4,$2,$3,$4,$5,$6,$7,$8,$9,$2,$3,0*
0 Add four circle primitives for the rounded corners*
1,1,$1+$1,$2,$3*
1,1,$1+$1,$4,$5*
1,1,$1+$1,$6,$7*
1,1,$1+$1,$8,$9*
0 Add four rect primitives between the rounded corners*
20,1,$1+$1,$2,$3,$4,$5,0*
20,1,$1+$1,$4,$5,$6,$7,0*
20,1,$1+$1,$6,$7,$8,$9,0*
20,1,$1+$1,$8,$9,$2,$3,0*%
G04 Aperture macros list end*
G04 #@! TA.AperFunction,ComponentPad*
%ADD10C,0.800000*%
G04 #@! TD*
G04 #@! TA.AperFunction,ComponentPad*
%ADD11C,5.400000*%
G04 #@! TD*
G04 #@! TA.AperFunction,ComponentPad*
%ADD12R,2.000000X2.000000*%
G04 #@! TD*
G04 #@! TA.AperFunction,ComponentPad*
%ADD13C,2.000000*%
G04 #@! TD*
G04 #@! TA.AperFunction,ComponentPad*
%ADD14R,1.500000X1.500000*%
G04 #@! TD*
G04 #@! TA.AperFunction,ComponentPad*
%ADD15RoundRect,0.250001X0.499999X0.499999X-0.499999X0.499999X-0.499999X-0.499999X0.499999X-0.499999X0*%
G04 #@! TD*
G04 #@! TA.AperFunction,ComponentPad*
%ADD16C,1.500000*%
G04 #@! TD*
G04 #@! TA.AperFunction,ComponentPad*
%ADD17C,3.000000*%
G04 #@! TD*
G04 #@! TA.AperFunction,ComponentPad*
%ADD18C,2.400000*%
G04 #@! TD*
G04 #@! TA.AperFunction,ComponentPad*
%ADD19R,1.905000X2.000000*%
G04 #@! TD*
G04 #@! TA.AperFunction,ComponentPad*
%ADD20O,1.905000X2.000000*%
G04 #@! TD*
G04 #@! TA.AperFunction,ComponentPad*
%ADD21R,1.600000X1.600000*%
G04 #@! TD*
G04 #@! TA.AperFunction,ComponentPad*
%ADD22C,1.600000*%
G04 #@! TD*
G04 #@! TA.AperFunction,ComponentPad*
%ADD23R,1.700000X1.700000*%
G04 #@! TD*
G04 #@! TA.AperFunction,ComponentPad*
%ADD24O,1.700000X1.700000*%
G04 #@! TD*
G04 #@! TA.AperFunction,SMDPad,CuDef*
%ADD25RoundRect,0.200000X0.200000X0.275000X-0.200000X0.275000X-0.200000X-0.275000X0.200000X-0.275000X0*%
G04 #@! TD*
G04 #@! TA.AperFunction,SMDPad,CuDef*
%ADD26RoundRect,0.250000X0.689429X0.229810X0.229810X0.689429X-0.689429X-0.229810X-0.229810X-0.689429X0*%
G04 #@! TD*
G04 #@! TA.AperFunction,SMDPad,CuDef*
%ADD27RoundRect,0.200000X0.275000X-0.200000X0.275000X0.200000X-0.275000X0.200000X-0.275000X-0.200000X0*%
G04 #@! TD*
G04 #@! TA.AperFunction,SMDPad,CuDef*
%ADD28RoundRect,0.250000X0.325000X0.650000X-0.325000X0.650000X-0.325000X-0.650000X0.325000X-0.650000X0*%
G04 #@! TD*
G04 #@! TA.AperFunction,SMDPad,CuDef*
%ADD29RoundRect,0.250000X-0.250000X-0.475000X0.250000X-0.475000X0.250000X0.475000X-0.250000X0.475000X0*%
G04 #@! TD*
G04 #@! TA.AperFunction,SMDPad,CuDef*
%ADD30RoundRect,0.150000X-0.150000X0.587500X-0.150000X-0.587500X0.150000X-0.587500X0.150000X0.587500X0*%
G04 #@! TD*
G04 #@! TA.AperFunction,SMDPad,CuDef*
%ADD31RoundRect,0.250000X-0.325000X-0.650000X0.325000X-0.650000X0.325000X0.650000X-0.325000X0.650000X0*%
G04 #@! TD*
G04 #@! TA.AperFunction,SMDPad,CuDef*
%ADD32RoundRect,0.200000X-1.500000X0.200000X-1.500000X-0.200000X1.500000X-0.200000X1.500000X0.200000X0*%
G04 #@! TD*
G04 #@! TA.AperFunction,SMDPad,CuDef*
%ADD33RoundRect,0.250000X-0.450000X0.262500X-0.450000X-0.262500X0.450000X-0.262500X0.450000X0.262500X0*%
G04 #@! TD*
G04 #@! TA.AperFunction,SMDPad,CuDef*
%ADD34RoundRect,0.250000X-0.262500X-0.450000X0.262500X-0.450000X0.262500X0.450000X-0.262500X0.450000X0*%
G04 #@! TD*
G04 #@! TA.AperFunction,SMDPad,CuDef*
%ADD35RoundRect,0.200000X-0.275000X0.200000X-0.275000X-0.200000X0.275000X-0.200000X0.275000X0.200000X0*%
G04 #@! TD*
G04 #@! TA.AperFunction,ViaPad*
%ADD36C,0.800000*%
G04 #@! TD*
G04 #@! TA.AperFunction,Conductor*
%ADD37C,0.400000*%
G04 #@! TD*
G04 #@! TA.AperFunction,Conductor*
%ADD38C,1.500000*%
G04 #@! TD*
G04 #@! TA.AperFunction,Conductor*
%ADD39C,0.800000*%
G04 #@! TD*
G04 #@! TA.AperFunction,Conductor*
%ADD40C,1.000000*%
G04 #@! TD*
G04 #@! TA.AperFunction,Conductor*
%ADD41C,0.700000*%
G04 #@! TD*
G04 #@! TA.AperFunction,Conductor*
%ADD42C,0.900000*%
G04 #@! TD*
G04 #@! TA.AperFunction,Conductor*
%ADD43C,0.500000*%
G04 #@! TD*
G04 #@! TA.AperFunction,Profile*
%ADD44C,0.100000*%
G04 #@! TD*
G04 APERTURE END LIST*
D10*
X171543109Y-72068109D03*
X172136218Y-70636218D03*
X172136218Y-73500000D03*
X173568109Y-70043109D03*
D11*
X173568109Y-72068109D03*
D10*
X173568109Y-74093109D03*
X175000000Y-70636218D03*
X175000000Y-73500000D03*
X175593109Y-72068109D03*
D12*
X135580000Y-82867677D03*
D13*
X135580000Y-77867677D03*
D14*
X130670000Y-107420000D03*
D10*
X171543109Y-121068109D03*
X172136218Y-119636218D03*
X172136218Y-122500000D03*
X173568109Y-119043109D03*
D11*
X173568109Y-121068109D03*
D10*
X173568109Y-123093109D03*
X175000000Y-119636218D03*
X175000000Y-122500000D03*
X175593109Y-121068109D03*
D14*
X125090000Y-107420000D03*
D12*
X171840000Y-82700000D03*
D13*
X171840000Y-77700000D03*
X145950000Y-83090000D03*
X145950000Y-85630000D03*
X145950000Y-88170000D03*
X145950000Y-100870000D03*
X145950000Y-105950000D03*
X161190000Y-105950000D03*
X161190000Y-103410000D03*
X161190000Y-100870000D03*
X161190000Y-85630000D03*
X161190000Y-83090000D03*
X159200000Y-81470000D03*
D15*
X146500000Y-115115000D03*
D16*
X146500000Y-112115000D03*
D12*
X169340000Y-109100000D03*
D13*
X174340000Y-109100000D03*
D12*
X153327677Y-119320000D03*
D13*
X158327677Y-119320000D03*
D17*
X122960000Y-96700000D03*
D18*
X122960000Y-76700000D03*
D17*
X115360000Y-100200000D03*
X115360000Y-93200000D03*
D18*
X115360000Y-76700000D03*
D15*
X165170000Y-115160000D03*
D16*
X165170000Y-112160000D03*
D19*
X139710000Y-104820000D03*
D20*
X137170000Y-104820000D03*
X134630000Y-104820000D03*
D18*
X165470000Y-102150000D03*
X175470000Y-102150000D03*
X175470000Y-87150000D03*
X165470000Y-87150000D03*
D15*
X127830000Y-115165000D03*
D16*
X124830000Y-115165000D03*
X127830000Y-112165000D03*
X124830000Y-112165000D03*
D10*
X113543109Y-72068109D03*
X114136218Y-70636218D03*
X114136218Y-73500000D03*
X115568109Y-70043109D03*
D11*
X115568109Y-72068109D03*
D10*
X115568109Y-74093109D03*
X117000000Y-70636218D03*
X117000000Y-73500000D03*
X117593109Y-72068109D03*
X113543109Y-121068109D03*
X114136218Y-119636218D03*
X114136218Y-122500000D03*
X115568109Y-119043109D03*
D11*
X115568109Y-121068109D03*
D10*
X115568109Y-123093109D03*
X117000000Y-119636218D03*
X117000000Y-122500000D03*
X117593109Y-121068109D03*
D21*
X138707621Y-88140000D03*
D22*
X141207621Y-88140000D03*
D23*
X120468109Y-73358109D03*
D24*
X120468109Y-70818109D03*
X123008109Y-73358109D03*
X123008109Y-70818109D03*
X125548109Y-73358109D03*
X125548109Y-70818109D03*
X128088109Y-73358109D03*
X128088109Y-70818109D03*
X130628109Y-73358109D03*
X130628109Y-70818109D03*
X133168109Y-73358109D03*
X133168109Y-70818109D03*
X135708109Y-73358109D03*
X135708109Y-70818109D03*
X138248109Y-73358109D03*
X138248109Y-70818109D03*
X140788109Y-73358109D03*
X140788109Y-70818109D03*
X143328109Y-73358109D03*
X143328109Y-70818109D03*
X145868109Y-73358109D03*
X145868109Y-70818109D03*
X148408109Y-73358109D03*
X148408109Y-70818109D03*
X150948109Y-73358109D03*
X150948109Y-70818109D03*
X153488109Y-73358109D03*
X153488109Y-70818109D03*
X156028109Y-73358109D03*
X156028109Y-70818109D03*
X158568109Y-73358109D03*
X158568109Y-70818109D03*
X161108109Y-73358109D03*
X161108109Y-70818109D03*
X163648109Y-73358109D03*
X163648109Y-70818109D03*
X166188109Y-73358109D03*
X166188109Y-70818109D03*
X168728109Y-73358109D03*
X168728109Y-70818109D03*
D25*
X149615000Y-76707500D03*
X147965000Y-76707500D03*
D26*
X120500000Y-78580000D03*
X118414034Y-76494034D03*
D27*
X158850000Y-105950000D03*
X158850000Y-104300000D03*
D28*
X139915000Y-107470000D03*
X136965000Y-107470000D03*
D29*
X117330000Y-116260000D03*
X119230000Y-116260000D03*
D26*
X157258839Y-111121162D03*
X155172873Y-109035196D03*
D30*
X124760000Y-101320000D03*
X126660000Y-101320000D03*
X125710000Y-103195000D03*
D31*
X154115000Y-81470000D03*
X157065000Y-81470000D03*
D32*
X121550000Y-106570000D03*
X121550000Y-107840000D03*
X121550000Y-112920000D03*
X121550000Y-114190000D03*
X114250000Y-114190000D03*
X114250000Y-107840000D03*
X114250000Y-106570000D03*
D27*
X158850000Y-102520000D03*
X158850000Y-100870000D03*
D33*
X128360000Y-101365000D03*
X128360000Y-103190000D03*
D34*
X124797500Y-99387500D03*
X126622500Y-99387500D03*
D35*
X151000000Y-76707500D03*
X151000000Y-78357500D03*
D29*
X116950000Y-104500000D03*
X118850000Y-104500000D03*
D36*
X134860000Y-95865000D03*
X134270000Y-94215000D03*
X125920000Y-79950000D03*
X143400000Y-76730000D03*
X127920000Y-78950000D03*
X148898749Y-78357500D03*
X126920000Y-79950000D03*
X127920000Y-79950000D03*
X126920000Y-78950000D03*
X123570000Y-104600000D03*
X131590000Y-95630000D03*
X125920000Y-78950000D03*
X118668109Y-74090000D03*
X131470000Y-88140000D03*
X127090000Y-104820000D03*
X119930000Y-101700000D03*
X117330000Y-114860000D03*
X119230000Y-117580000D03*
X123376250Y-91540000D03*
X122465000Y-103195000D03*
D37*
X123376250Y-87786250D02*
X123376250Y-91540000D01*
X118330000Y-78218730D02*
X118330000Y-82740000D01*
X121740000Y-74808730D02*
X118330000Y-78218730D01*
X126816218Y-72090000D02*
X121740000Y-72090000D01*
X121740000Y-72090000D02*
X121740000Y-74808730D01*
X118330000Y-82740000D02*
X123376250Y-87786250D01*
X128088109Y-70818109D02*
X126816218Y-72090000D01*
D38*
X161190000Y-83090000D02*
X161190000Y-85630000D01*
X154115000Y-78730000D02*
X170810000Y-78730000D01*
X147570000Y-81470000D02*
X145950000Y-83090000D01*
X154115000Y-81470000D02*
X147570000Y-81470000D01*
X170810000Y-78730000D02*
X171840000Y-77700000D01*
X145950000Y-83090000D02*
X145950000Y-85630000D01*
X154115000Y-81470000D02*
X154115000Y-78730000D01*
D39*
X155172873Y-85987127D02*
X159200000Y-81960000D01*
D40*
X157065000Y-81470000D02*
X159200000Y-81470000D01*
D39*
X155172873Y-109035196D02*
X155172873Y-85987127D01*
X159200000Y-81960000D02*
X159200000Y-81470000D01*
D41*
X158850000Y-105950000D02*
X161190000Y-105950000D01*
X153327677Y-115052323D02*
X153327677Y-101327677D01*
D38*
X157258839Y-111121162D02*
X161190000Y-107190001D01*
D41*
X153327677Y-101327677D02*
X142980000Y-90980000D01*
D38*
X161190000Y-107190001D02*
X161190000Y-105950000D01*
D41*
X145252500Y-76707500D02*
X147965000Y-76707500D01*
D38*
X153327677Y-115052323D02*
X153327677Y-119320000D01*
X157258839Y-111121162D02*
X153327677Y-115052323D01*
D41*
X142980000Y-78980000D02*
X145252500Y-76707500D01*
X142980000Y-90980000D02*
X142980000Y-78980000D01*
D40*
X121870000Y-79950000D02*
X120500000Y-78580000D01*
D39*
X118850000Y-106570000D02*
X121550000Y-106570000D01*
D40*
X136965000Y-107470000D02*
X136965000Y-105025000D01*
X125920000Y-79950000D02*
X125920000Y-78950000D01*
X125920000Y-79950000D02*
X121870000Y-79950000D01*
D39*
X121550000Y-107840000D02*
X121550000Y-106570000D01*
D40*
X125920000Y-78950000D02*
X127920000Y-78950000D01*
D41*
X151000000Y-78357500D02*
X148898749Y-78357500D01*
D40*
X127920000Y-79950000D02*
X127920000Y-78950000D01*
D39*
X118850000Y-104500000D02*
X118850000Y-106570000D01*
D40*
X127920000Y-79950000D02*
X125920000Y-79950000D01*
X136965000Y-105025000D02*
X137170000Y-104820000D01*
X136965000Y-115115000D02*
X136965000Y-107470000D01*
X146500000Y-115115000D02*
X136965000Y-115115000D01*
D41*
X158850000Y-100870000D02*
X161190000Y-100870000D01*
D40*
X139915000Y-105025000D02*
X139710000Y-104820000D01*
X139915000Y-112115000D02*
X139915000Y-107470000D01*
X146500000Y-112115000D02*
X139915000Y-112115000D01*
X139915000Y-107470000D02*
X139915000Y-105025000D01*
D42*
X118918109Y-73840000D02*
X118668109Y-74090000D01*
X118918109Y-71908109D02*
X118918109Y-73840000D01*
D39*
X114250000Y-107840000D02*
X114250000Y-106570000D01*
D38*
X120468109Y-70818109D02*
X123008109Y-70818109D01*
D39*
X116950000Y-102460000D02*
X118210000Y-101200000D01*
X130590000Y-89020000D02*
X131470000Y-88140000D01*
X118210000Y-89340000D02*
X115360000Y-86490000D01*
X130590000Y-104820000D02*
X130590000Y-101365000D01*
X128360000Y-101365000D02*
X129870000Y-101365000D01*
X116950000Y-106570000D02*
X116950000Y-104500000D01*
X114250000Y-106570000D02*
X116950000Y-106570000D01*
X130590000Y-101365000D02*
X130590000Y-89020000D01*
X116950000Y-104500000D02*
X116950000Y-102460000D01*
X118210000Y-101200000D02*
X118210000Y-89340000D01*
D42*
X120008109Y-70818109D02*
X118918109Y-71908109D01*
D39*
X115360000Y-86490000D02*
X115360000Y-76700000D01*
D42*
X120468109Y-70818109D02*
X120008109Y-70818109D01*
D39*
X127090000Y-104820000D02*
X130590000Y-104820000D01*
X129870000Y-101365000D02*
X130590000Y-101365000D01*
X123090000Y-101700000D02*
X119930000Y-101700000D01*
X118414034Y-76494034D02*
X117360026Y-77548042D01*
X124460000Y-101320000D02*
X123470000Y-101320000D01*
D37*
X124760000Y-99425000D02*
X124797500Y-99387500D01*
D39*
X123470000Y-101320000D02*
X123090000Y-101700000D01*
X119930000Y-87990000D02*
X119930000Y-101700000D01*
X120468109Y-74439959D02*
X118414034Y-76494034D01*
X117360026Y-77548042D02*
X117360026Y-85420026D01*
X117360026Y-85420026D02*
X119930000Y-87990000D01*
D37*
X124760000Y-101320000D02*
X124760000Y-99425000D01*
D43*
X124760000Y-101320000D02*
X124460000Y-101320000D01*
D39*
X120468109Y-73358109D02*
X120468109Y-74439959D01*
X117330000Y-114860000D02*
X117330000Y-116260000D01*
X114250000Y-116260000D02*
X114250000Y-114190000D01*
X117330000Y-116260000D02*
X114250000Y-116260000D01*
D38*
X124830000Y-112165000D02*
X127830000Y-115165000D01*
D39*
X120305000Y-117335000D02*
X119230000Y-116260000D01*
X119230000Y-116260000D02*
X120040000Y-115450000D01*
X119230000Y-116260000D02*
X119230000Y-117580000D01*
X121550000Y-114840000D02*
X121550000Y-114190000D01*
X120040000Y-115450000D02*
X120940000Y-115450000D01*
X120940000Y-115450000D02*
X121550000Y-114840000D01*
X127830000Y-115165000D02*
X127830000Y-116320000D01*
X127830000Y-116320000D02*
X126815000Y-117335000D01*
X126815000Y-117335000D02*
X120305000Y-117335000D01*
X121550000Y-114190000D02*
X121550000Y-112920000D01*
D37*
X118930000Y-80331472D02*
X126622500Y-88023972D01*
X126622500Y-88023972D02*
X126622500Y-99387500D01*
X118930000Y-78467258D02*
X118930000Y-80331472D01*
X122557258Y-74840000D02*
X118930000Y-78467258D01*
X126660000Y-101320000D02*
X126660000Y-99425000D01*
X129360000Y-72400000D02*
X129360000Y-74840000D01*
X129360000Y-74840000D02*
X122557258Y-74840000D01*
X130628109Y-71131891D02*
X129360000Y-72400000D01*
X126660000Y-99425000D02*
X126622500Y-99387500D01*
X130628109Y-70818109D02*
X130628109Y-71131891D01*
D41*
X149615000Y-76707500D02*
X151000000Y-76707500D01*
X158706218Y-75760000D02*
X161108109Y-73358109D01*
X151000000Y-75760000D02*
X158706218Y-75760000D01*
X151000000Y-76707500D02*
X151000000Y-75760000D01*
D43*
X128360000Y-103190000D02*
X125715000Y-103190000D01*
X122465000Y-103195000D02*
X125710000Y-103195000D01*
X125715000Y-103190000D02*
X125710000Y-103195000D01*
D41*
X160300000Y-102520000D02*
X161190000Y-103410000D01*
X158850000Y-104300000D02*
X160300000Y-104300000D01*
X160300000Y-104300000D02*
X161190000Y-103410000D01*
X158850000Y-102520000D02*
X160300000Y-102520000D01*
G04 #@! TA.AperFunction,Conductor*
G36*
X170963039Y-68887794D02*
G01*
X171008794Y-68940598D01*
X171020000Y-68992109D01*
X171020000Y-70547338D01*
X171003387Y-70609338D01*
X170926980Y-70741678D01*
X170926974Y-70741691D01*
X170790846Y-71057268D01*
X170692275Y-71386520D01*
X170692272Y-71386533D01*
X170632594Y-71724984D01*
X170632593Y-71724995D01*
X170612609Y-72068105D01*
X170612609Y-72068112D01*
X170632593Y-72411222D01*
X170632594Y-72411233D01*
X170692272Y-72749684D01*
X170692275Y-72749697D01*
X170790846Y-73078949D01*
X170926976Y-73394532D01*
X170926978Y-73394535D01*
X171003387Y-73526879D01*
X171020000Y-73588878D01*
X171020000Y-75060775D01*
X171000315Y-75127814D01*
X170961074Y-75166328D01*
X169638016Y-75982000D01*
X168995306Y-76378234D01*
X168989922Y-76381553D01*
X168924848Y-76400000D01*
X159222145Y-76400000D01*
X159155106Y-76380315D01*
X159109351Y-76327511D01*
X159099407Y-76258353D01*
X159128432Y-76194797D01*
X159134456Y-76188326D01*
X159134495Y-76188285D01*
X159134500Y-76188282D01*
X159156201Y-76159999D01*
X159161529Y-76153922D01*
X160834139Y-74481312D01*
X160895460Y-74447829D01*
X160944602Y-74447107D01*
X161006133Y-74458609D01*
X161006134Y-74458609D01*
X161210083Y-74458609D01*
X161210085Y-74458609D01*
X161410565Y-74421133D01*
X161600746Y-74347457D01*
X161774150Y-74240090D01*
X161924873Y-74102688D01*
X162047782Y-73939930D01*
X162138691Y-73757359D01*
X162194506Y-73561192D01*
X162213324Y-73358109D01*
X162542894Y-73358109D01*
X162561711Y-73561191D01*
X162617526Y-73757356D01*
X162617531Y-73757369D01*
X162708436Y-73939930D01*
X162831346Y-74102690D01*
X162982067Y-74240089D01*
X162982069Y-74240091D01*
X163081250Y-74301501D01*
X163155472Y-74347457D01*
X163345653Y-74421133D01*
X163546133Y-74458609D01*
X163546135Y-74458609D01*
X163750083Y-74458609D01*
X163750085Y-74458609D01*
X163950565Y-74421133D01*
X164140746Y-74347457D01*
X164314150Y-74240090D01*
X164464873Y-74102688D01*
X164587782Y-73939930D01*
X164678691Y-73757359D01*
X164734506Y-73561192D01*
X164753324Y-73358109D01*
X165082894Y-73358109D01*
X165101711Y-73561191D01*
X165157526Y-73757356D01*
X165157531Y-73757369D01*
X165248436Y-73939930D01*
X165371346Y-74102690D01*
X165522067Y-74240089D01*
X165522069Y-74240091D01*
X165621250Y-74301501D01*
X165695472Y-74347457D01*
X165885653Y-74421133D01*
X166086133Y-74458609D01*
X166086135Y-74458609D01*
X166290083Y-74458609D01*
X166290085Y-74458609D01*
X166490565Y-74421133D01*
X166680746Y-74347457D01*
X166854150Y-74240090D01*
X167004873Y-74102688D01*
X167127782Y-73939930D01*
X167191010Y-73812950D01*
X167214926Y-73764921D01*
X167262428Y-73713684D01*
X167330091Y-73696262D01*
X167396432Y-73718187D01*
X167440387Y-73772498D01*
X167445701Y-73788098D01*
X167454676Y-73821594D01*
X167454679Y-73821601D01*
X167554508Y-74035687D01*
X167690003Y-74229191D01*
X167857026Y-74396214D01*
X168050530Y-74531709D01*
X168264616Y-74631538D01*
X168264625Y-74631542D01*
X168478109Y-74688743D01*
X168478109Y-73793610D01*
X168585794Y-73842789D01*
X168692346Y-73858109D01*
X168763872Y-73858109D01*
X168870424Y-73842789D01*
X168978109Y-73793610D01*
X168978109Y-74688742D01*
X169191592Y-74631542D01*
X169191601Y-74631538D01*
X169405687Y-74531709D01*
X169599191Y-74396214D01*
X169766214Y-74229191D01*
X169901709Y-74035687D01*
X170001538Y-73821601D01*
X170001541Y-73821595D01*
X170058745Y-73608109D01*
X169161795Y-73608109D01*
X169187602Y-73567953D01*
X169228109Y-73429998D01*
X169228109Y-73286220D01*
X169187602Y-73148265D01*
X169161795Y-73108109D01*
X170058745Y-73108109D01*
X170058744Y-73108108D01*
X170001541Y-72894622D01*
X170001538Y-72894616D01*
X169901709Y-72680531D01*
X169901708Y-72680529D01*
X169766222Y-72487035D01*
X169766217Y-72487029D01*
X169599191Y-72320003D01*
X169405687Y-72184508D01*
X169191601Y-72084679D01*
X169191586Y-72084673D01*
X169152523Y-72074206D01*
X169092863Y-72037841D01*
X169062335Y-71974994D01*
X169070630Y-71905618D01*
X169115116Y-71851741D01*
X169139819Y-71838807D01*
X169220746Y-71807457D01*
X169394150Y-71700090D01*
X169538378Y-71568609D01*
X169544871Y-71562690D01*
X169550276Y-71555533D01*
X169667782Y-71399930D01*
X169758691Y-71217359D01*
X169814506Y-71021192D01*
X169833324Y-70818109D01*
X169814506Y-70615026D01*
X169758691Y-70418859D01*
X169743383Y-70388117D01*
X169708524Y-70318109D01*
X169667782Y-70236288D01*
X169544873Y-70073530D01*
X169544871Y-70073527D01*
X169394150Y-69936128D01*
X169394148Y-69936126D01*
X169220751Y-69828764D01*
X169220744Y-69828760D01*
X169094878Y-69780000D01*
X169030565Y-69755085D01*
X168830085Y-69717609D01*
X168626133Y-69717609D01*
X168425653Y-69755085D01*
X168425650Y-69755085D01*
X168425650Y-69755086D01*
X168235473Y-69828760D01*
X168235466Y-69828764D01*
X168062069Y-69936126D01*
X168062067Y-69936128D01*
X167911346Y-70073527D01*
X167788436Y-70236287D01*
X167697531Y-70418848D01*
X167697526Y-70418861D01*
X167641711Y-70615026D01*
X167622894Y-70818108D01*
X167622894Y-70818109D01*
X167641711Y-71021191D01*
X167697526Y-71217356D01*
X167697531Y-71217369D01*
X167788436Y-71399930D01*
X167911346Y-71562690D01*
X168062067Y-71700089D01*
X168062069Y-71700091D01*
X168161250Y-71761501D01*
X168235472Y-71807457D01*
X168316392Y-71838805D01*
X168371794Y-71881378D01*
X168395385Y-71947144D01*
X168379674Y-72015225D01*
X168329651Y-72064004D01*
X168303695Y-72074206D01*
X168264628Y-72084674D01*
X168264616Y-72084679D01*
X168050531Y-72184508D01*
X168050529Y-72184509D01*
X167857035Y-72319995D01*
X167857029Y-72320000D01*
X167690000Y-72487029D01*
X167689995Y-72487035D01*
X167554509Y-72680529D01*
X167554508Y-72680531D01*
X167454679Y-72894616D01*
X167454677Y-72894620D01*
X167445701Y-72928120D01*
X167409335Y-72987780D01*
X167346488Y-73018308D01*
X167277112Y-73010013D01*
X167223235Y-72965527D01*
X167214926Y-72951297D01*
X167168524Y-72858109D01*
X167127782Y-72776288D01*
X167050436Y-72673865D01*
X167004871Y-72613527D01*
X166854150Y-72476128D01*
X166854148Y-72476126D01*
X166680751Y-72368764D01*
X166680744Y-72368760D01*
X166554878Y-72320000D01*
X166490565Y-72295085D01*
X166290085Y-72257609D01*
X166086133Y-72257609D01*
X165885653Y-72295085D01*
X165885650Y-72295085D01*
X165885650Y-72295086D01*
X165695473Y-72368760D01*
X165695466Y-72368764D01*
X165522069Y-72476126D01*
X165522067Y-72476128D01*
X165371346Y-72613527D01*
X165248436Y-72776287D01*
X165157531Y-72958848D01*
X165157526Y-72958861D01*
X165101711Y-73155026D01*
X165082894Y-73358108D01*
X165082894Y-73358109D01*
X164753324Y-73358109D01*
X164734506Y-73155026D01*
X164678691Y-72958859D01*
X164663383Y-72928117D01*
X164628524Y-72858109D01*
X164587782Y-72776288D01*
X164510436Y-72673865D01*
X164464871Y-72613527D01*
X164314150Y-72476128D01*
X164314148Y-72476126D01*
X164140751Y-72368764D01*
X164140744Y-72368760D01*
X164014878Y-72320000D01*
X163950565Y-72295085D01*
X163750085Y-72257609D01*
X163546133Y-72257609D01*
X163345653Y-72295085D01*
X163345650Y-72295085D01*
X163345650Y-72295086D01*
X163155473Y-72368760D01*
X163155466Y-72368764D01*
X162982069Y-72476126D01*
X162982067Y-72476128D01*
X162831346Y-72613527D01*
X162708436Y-72776287D01*
X162617531Y-72958848D01*
X162617526Y-72958861D01*
X162561711Y-73155026D01*
X162542894Y-73358108D01*
X162542894Y-73358109D01*
X162213324Y-73358109D01*
X162194506Y-73155026D01*
X162138691Y-72958859D01*
X162123383Y-72928117D01*
X162088524Y-72858109D01*
X162047782Y-72776288D01*
X161970436Y-72673865D01*
X161924871Y-72613527D01*
X161774150Y-72476128D01*
X161774148Y-72476126D01*
X161600751Y-72368764D01*
X161600744Y-72368760D01*
X161519824Y-72337412D01*
X161464422Y-72294839D01*
X161440832Y-72229072D01*
X161456543Y-72160992D01*
X161506567Y-72112213D01*
X161532526Y-72102010D01*
X161571590Y-72091543D01*
X161571601Y-72091538D01*
X161785687Y-71991709D01*
X161979191Y-71856214D01*
X162146214Y-71689191D01*
X162281709Y-71495687D01*
X162381538Y-71281601D01*
X162381540Y-71281598D01*
X162390515Y-71248101D01*
X162426879Y-71188440D01*
X162489725Y-71157909D01*
X162559101Y-71166203D01*
X162612980Y-71210687D01*
X162621291Y-71224920D01*
X162708436Y-71399930D01*
X162831346Y-71562690D01*
X162982067Y-71700089D01*
X162982069Y-71700091D01*
X163081250Y-71761501D01*
X163155472Y-71807457D01*
X163345653Y-71881133D01*
X163546133Y-71918609D01*
X163546135Y-71918609D01*
X163750083Y-71918609D01*
X163750085Y-71918609D01*
X163950565Y-71881133D01*
X164140746Y-71807457D01*
X164314150Y-71700090D01*
X164458378Y-71568609D01*
X164464871Y-71562690D01*
X164470276Y-71555533D01*
X164587782Y-71399930D01*
X164678691Y-71217359D01*
X164734506Y-71021192D01*
X164753324Y-70818109D01*
X165082894Y-70818109D01*
X165101711Y-71021191D01*
X165157526Y-71217356D01*
X165157531Y-71217369D01*
X165248436Y-71399930D01*
X165371346Y-71562690D01*
X165522067Y-71700089D01*
X165522069Y-71700091D01*
X165621250Y-71761501D01*
X165695472Y-71807457D01*
X165885653Y-71881133D01*
X166086133Y-71918609D01*
X166086135Y-71918609D01*
X166290083Y-71918609D01*
X166290085Y-71918609D01*
X166490565Y-71881133D01*
X166680746Y-71807457D01*
X166854150Y-71700090D01*
X166998378Y-71568609D01*
X167004871Y-71562690D01*
X167010276Y-71555533D01*
X167127782Y-71399930D01*
X167218691Y-71217359D01*
X167274506Y-71021192D01*
X167293324Y-70818109D01*
X167274506Y-70615026D01*
X167218691Y-70418859D01*
X167203383Y-70388117D01*
X167168524Y-70318109D01*
X167127782Y-70236288D01*
X167004873Y-70073530D01*
X167004871Y-70073527D01*
X166854150Y-69936128D01*
X166854148Y-69936126D01*
X166680751Y-69828764D01*
X166680744Y-69828760D01*
X166554878Y-69780000D01*
X166490565Y-69755085D01*
X166290085Y-69717609D01*
X166086133Y-69717609D01*
X165885653Y-69755085D01*
X165885650Y-69755085D01*
X165885650Y-69755086D01*
X165695473Y-69828760D01*
X165695466Y-69828764D01*
X165522069Y-69936126D01*
X165522067Y-69936128D01*
X165371346Y-70073527D01*
X165248436Y-70236287D01*
X165157531Y-70418848D01*
X165157526Y-70418861D01*
X165101711Y-70615026D01*
X165082894Y-70818108D01*
X165082894Y-70818109D01*
X164753324Y-70818109D01*
X164734506Y-70615026D01*
X164678691Y-70418859D01*
X164663383Y-70388117D01*
X164628524Y-70318109D01*
X164587782Y-70236288D01*
X164464873Y-70073530D01*
X164464871Y-70073527D01*
X164314150Y-69936128D01*
X164314148Y-69936126D01*
X164140751Y-69828764D01*
X164140744Y-69828760D01*
X164014878Y-69780000D01*
X163950565Y-69755085D01*
X163750085Y-69717609D01*
X163546133Y-69717609D01*
X163345653Y-69755085D01*
X163345650Y-69755085D01*
X163345650Y-69755086D01*
X163155473Y-69828760D01*
X163155466Y-69828764D01*
X162982069Y-69936126D01*
X162982067Y-69936128D01*
X162831346Y-70073527D01*
X162708436Y-70236287D01*
X162621291Y-70411297D01*
X162573788Y-70462534D01*
X162506125Y-70479955D01*
X162439785Y-70458029D01*
X162395830Y-70403718D01*
X162390516Y-70388117D01*
X162381543Y-70354627D01*
X162381538Y-70354616D01*
X162281709Y-70140531D01*
X162281708Y-70140529D01*
X162146222Y-69947035D01*
X162146217Y-69947029D01*
X161979191Y-69780003D01*
X161785687Y-69644508D01*
X161571601Y-69544679D01*
X161571595Y-69544676D01*
X161358109Y-69487473D01*
X161358109Y-70382607D01*
X161250424Y-70333429D01*
X161143872Y-70318109D01*
X161072346Y-70318109D01*
X160965794Y-70333429D01*
X160858109Y-70382607D01*
X160858109Y-69487473D01*
X160858108Y-69487473D01*
X160644622Y-69544676D01*
X160644616Y-69544679D01*
X160430531Y-69644508D01*
X160430529Y-69644509D01*
X160237035Y-69779995D01*
X160237029Y-69780000D01*
X160070000Y-69947029D01*
X160069995Y-69947035D01*
X159934509Y-70140529D01*
X159934508Y-70140531D01*
X159834679Y-70354616D01*
X159834677Y-70354620D01*
X159825701Y-70388120D01*
X159789335Y-70447780D01*
X159726488Y-70478308D01*
X159657112Y-70470013D01*
X159603235Y-70425527D01*
X159594926Y-70411297D01*
X159548524Y-70318109D01*
X159507782Y-70236288D01*
X159384873Y-70073530D01*
X159384871Y-70073527D01*
X159234150Y-69936128D01*
X159234148Y-69936126D01*
X159060751Y-69828764D01*
X159060744Y-69828760D01*
X158934878Y-69780000D01*
X158870565Y-69755085D01*
X158670085Y-69717609D01*
X158466133Y-69717609D01*
X158265653Y-69755085D01*
X158265650Y-69755085D01*
X158265650Y-69755086D01*
X158075473Y-69828760D01*
X158075466Y-69828764D01*
X157902069Y-69936126D01*
X157902067Y-69936128D01*
X157751346Y-70073527D01*
X157628436Y-70236287D01*
X157541291Y-70411297D01*
X157493788Y-70462534D01*
X157426125Y-70479955D01*
X157359785Y-70458029D01*
X157315830Y-70403718D01*
X157310516Y-70388117D01*
X157301543Y-70354627D01*
X157301538Y-70354616D01*
X157201709Y-70140531D01*
X157201708Y-70140529D01*
X157066222Y-69947035D01*
X157066217Y-69947029D01*
X156899191Y-69780003D01*
X156705687Y-69644508D01*
X156491601Y-69544679D01*
X156491595Y-69544676D01*
X156278109Y-69487473D01*
X156278109Y-70382607D01*
X156170424Y-70333429D01*
X156063872Y-70318109D01*
X155992346Y-70318109D01*
X155885794Y-70333429D01*
X155778109Y-70382607D01*
X155778109Y-69487473D01*
X155778108Y-69487473D01*
X155564622Y-69544676D01*
X155564616Y-69544679D01*
X155350531Y-69644508D01*
X155350529Y-69644509D01*
X155157035Y-69779995D01*
X155157029Y-69780000D01*
X154990000Y-69947029D01*
X154989995Y-69947035D01*
X154854509Y-70140529D01*
X154854508Y-70140531D01*
X154754679Y-70354616D01*
X154754677Y-70354620D01*
X154745701Y-70388120D01*
X154709335Y-70447780D01*
X154646488Y-70478308D01*
X154577112Y-70470013D01*
X154523235Y-70425527D01*
X154514926Y-70411297D01*
X154468524Y-70318109D01*
X154427782Y-70236288D01*
X154304873Y-70073530D01*
X154304871Y-70073527D01*
X154154150Y-69936128D01*
X154154148Y-69936126D01*
X153980751Y-69828764D01*
X153980744Y-69828760D01*
X153854878Y-69780000D01*
X153790565Y-69755085D01*
X153590085Y-69717609D01*
X153386133Y-69717609D01*
X153185653Y-69755085D01*
X153185650Y-69755085D01*
X153185650Y-69755086D01*
X152995473Y-69828760D01*
X152995466Y-69828764D01*
X152822069Y-69936126D01*
X152822067Y-69936128D01*
X152671346Y-70073527D01*
X152548436Y-70236287D01*
X152457531Y-70418848D01*
X152457526Y-70418861D01*
X152401711Y-70615026D01*
X152382894Y-70818108D01*
X152382894Y-70818109D01*
X152401711Y-71021191D01*
X152457526Y-71217356D01*
X152457531Y-71217369D01*
X152548436Y-71399930D01*
X152671346Y-71562690D01*
X152822067Y-71700089D01*
X152822069Y-71700091D01*
X152921250Y-71761501D01*
X152995472Y-71807457D01*
X153185653Y-71881133D01*
X153386133Y-71918609D01*
X153386135Y-71918609D01*
X153590083Y-71918609D01*
X153590085Y-71918609D01*
X153790565Y-71881133D01*
X153980746Y-71807457D01*
X154154150Y-71700090D01*
X154298378Y-71568609D01*
X154304871Y-71562690D01*
X154310276Y-71555533D01*
X154427782Y-71399930D01*
X154489707Y-71275565D01*
X154514926Y-71224921D01*
X154562428Y-71173684D01*
X154630091Y-71156262D01*
X154696432Y-71178187D01*
X154740387Y-71232498D01*
X154745701Y-71248098D01*
X154754676Y-71281594D01*
X154754679Y-71281601D01*
X154854508Y-71495687D01*
X154990003Y-71689191D01*
X155157026Y-71856214D01*
X155350530Y-71991709D01*
X155564616Y-72091538D01*
X155564625Y-72091542D01*
X155603692Y-72102010D01*
X155663353Y-72138375D01*
X155693882Y-72201222D01*
X155685588Y-72270597D01*
X155641102Y-72324475D01*
X155616393Y-72337411D01*
X155535482Y-72368756D01*
X155535466Y-72368764D01*
X155362069Y-72476126D01*
X155362067Y-72476128D01*
X155211346Y-72613527D01*
X155088436Y-72776287D01*
X154997531Y-72958848D01*
X154997526Y-72958861D01*
X154941711Y-73155026D01*
X154922894Y-73358108D01*
X154922894Y-73358109D01*
X154941711Y-73561191D01*
X154997526Y-73757356D01*
X154997531Y-73757369D01*
X155088436Y-73939930D01*
X155211346Y-74102690D01*
X155362067Y-74240089D01*
X155362069Y-74240091D01*
X155461250Y-74301501D01*
X155535472Y-74347457D01*
X155725653Y-74421133D01*
X155926133Y-74458609D01*
X155926135Y-74458609D01*
X156130083Y-74458609D01*
X156130085Y-74458609D01*
X156330565Y-74421133D01*
X156520746Y-74347457D01*
X156694150Y-74240090D01*
X156844873Y-74102688D01*
X156967782Y-73939930D01*
X157058691Y-73757359D01*
X157114506Y-73561192D01*
X157133324Y-73358109D01*
X157114506Y-73155026D01*
X157058691Y-72958859D01*
X157043383Y-72928117D01*
X157008524Y-72858109D01*
X156967782Y-72776288D01*
X156890436Y-72673865D01*
X156844871Y-72613527D01*
X156694150Y-72476128D01*
X156694148Y-72476126D01*
X156520751Y-72368764D01*
X156520744Y-72368760D01*
X156439824Y-72337412D01*
X156384422Y-72294839D01*
X156360832Y-72229072D01*
X156376543Y-72160992D01*
X156426567Y-72112213D01*
X156452526Y-72102010D01*
X156491590Y-72091543D01*
X156491601Y-72091538D01*
X156705687Y-71991709D01*
X156899191Y-71856214D01*
X157066214Y-71689191D01*
X157201709Y-71495687D01*
X157301538Y-71281601D01*
X157301540Y-71281598D01*
X157310515Y-71248101D01*
X157346879Y-71188440D01*
X157409725Y-71157909D01*
X157479101Y-71166203D01*
X157532980Y-71210687D01*
X157541291Y-71224920D01*
X157628436Y-71399930D01*
X157751346Y-71562690D01*
X157902067Y-71700089D01*
X157902069Y-71700091D01*
X158001250Y-71761501D01*
X158075472Y-71807457D01*
X158265653Y-71881133D01*
X158466133Y-71918609D01*
X158466135Y-71918609D01*
X158670083Y-71918609D01*
X158670085Y-71918609D01*
X158870565Y-71881133D01*
X159060746Y-71807457D01*
X159234150Y-71700090D01*
X159378378Y-71568609D01*
X159384871Y-71562690D01*
X159390276Y-71555533D01*
X159507782Y-71399930D01*
X159569707Y-71275565D01*
X159594926Y-71224921D01*
X159642428Y-71173684D01*
X159710091Y-71156262D01*
X159776432Y-71178187D01*
X159820387Y-71232498D01*
X159825701Y-71248098D01*
X159834676Y-71281594D01*
X159834679Y-71281601D01*
X159934508Y-71495687D01*
X160070003Y-71689191D01*
X160237026Y-71856214D01*
X160430530Y-71991709D01*
X160644616Y-72091538D01*
X160644625Y-72091542D01*
X160683692Y-72102010D01*
X160743353Y-72138375D01*
X160773882Y-72201222D01*
X160765588Y-72270597D01*
X160721102Y-72324475D01*
X160696393Y-72337411D01*
X160615482Y-72368756D01*
X160615466Y-72368764D01*
X160442069Y-72476126D01*
X160442067Y-72476128D01*
X160291346Y-72613527D01*
X160168436Y-72776287D01*
X160077531Y-72958848D01*
X160077526Y-72958861D01*
X160021711Y-73155026D01*
X160002894Y-73358108D01*
X160002894Y-73358109D01*
X160019231Y-73534418D01*
X160005816Y-73602988D01*
X159983441Y-73633540D01*
X159832532Y-73784449D01*
X159771209Y-73817934D01*
X159701517Y-73812950D01*
X159645584Y-73771078D01*
X159621167Y-73705614D01*
X159625584Y-73662840D01*
X159654506Y-73561192D01*
X159673324Y-73358109D01*
X159654506Y-73155026D01*
X159598691Y-72958859D01*
X159583383Y-72928117D01*
X159548524Y-72858109D01*
X159507782Y-72776288D01*
X159430436Y-72673865D01*
X159384871Y-72613527D01*
X159234150Y-72476128D01*
X159234148Y-72476126D01*
X159060751Y-72368764D01*
X159060744Y-72368760D01*
X158934878Y-72320000D01*
X158870565Y-72295085D01*
X158670085Y-72257609D01*
X158466133Y-72257609D01*
X158265653Y-72295085D01*
X158265650Y-72295085D01*
X158265650Y-72295086D01*
X158075473Y-72368760D01*
X158075466Y-72368764D01*
X157902069Y-72476126D01*
X157902067Y-72476128D01*
X157751346Y-72613527D01*
X157628436Y-72776287D01*
X157537531Y-72958848D01*
X157537526Y-72958861D01*
X157481711Y-73155026D01*
X157462894Y-73358108D01*
X157462894Y-73358109D01*
X157481711Y-73561191D01*
X157537526Y-73757356D01*
X157537531Y-73757369D01*
X157628436Y-73939930D01*
X157751346Y-74102690D01*
X157902067Y-74240089D01*
X157902069Y-74240091D01*
X158001250Y-74301501D01*
X158075472Y-74347457D01*
X158265653Y-74421133D01*
X158466133Y-74458609D01*
X158466135Y-74458609D01*
X158670083Y-74458609D01*
X158670085Y-74458609D01*
X158870565Y-74421133D01*
X158870568Y-74421131D01*
X158876200Y-74420079D01*
X158876659Y-74422538D01*
X158935788Y-74423003D01*
X158994267Y-74461239D01*
X159022791Y-74525021D01*
X159012304Y-74594099D01*
X158987599Y-74629383D01*
X158493802Y-75123181D01*
X158432479Y-75156666D01*
X158406121Y-75159500D01*
X151043428Y-75159500D01*
X151035329Y-75158969D01*
X151000000Y-75154318D01*
X150960639Y-75159500D01*
X150843239Y-75174955D01*
X150843237Y-75174956D01*
X150697160Y-75235463D01*
X150571718Y-75331718D01*
X150475463Y-75457160D01*
X150414956Y-75603237D01*
X150414955Y-75603239D01*
X150394318Y-75759998D01*
X150394318Y-75759999D01*
X150398969Y-75795326D01*
X150399500Y-75803428D01*
X150399500Y-75983000D01*
X150379815Y-76050039D01*
X150327011Y-76095794D01*
X150275500Y-76107000D01*
X150173413Y-76107000D01*
X150106374Y-76087315D01*
X150099798Y-76082783D01*
X150027882Y-76029707D01*
X150027880Y-76029706D01*
X149899700Y-75984853D01*
X149869270Y-75982000D01*
X149869266Y-75982000D01*
X149360734Y-75982000D01*
X149360730Y-75982000D01*
X149330300Y-75984853D01*
X149330298Y-75984853D01*
X149202119Y-76029706D01*
X149202117Y-76029707D01*
X149092850Y-76110350D01*
X149012207Y-76219617D01*
X149012206Y-76219619D01*
X148967353Y-76347798D01*
X148967353Y-76347800D01*
X148964500Y-76378230D01*
X148964500Y-77036769D01*
X148967353Y-77067199D01*
X148967353Y-77067201D01*
X149004231Y-77172589D01*
X149012207Y-77195382D01*
X149092850Y-77304650D01*
X149202118Y-77385293D01*
X149223369Y-77392729D01*
X149330299Y-77430146D01*
X149360730Y-77433000D01*
X149360734Y-77433000D01*
X149869270Y-77433000D01*
X149899699Y-77430146D01*
X149899701Y-77430146D01*
X149963790Y-77407719D01*
X150027882Y-77385293D01*
X150099781Y-77332229D01*
X150165408Y-77308259D01*
X150173413Y-77308000D01*
X150332355Y-77308000D01*
X150399394Y-77327685D01*
X150445149Y-77380489D01*
X150455093Y-77449647D01*
X150426068Y-77513203D01*
X150396505Y-77538117D01*
X150290122Y-77602427D01*
X150169927Y-77722622D01*
X150081980Y-77868104D01*
X150031409Y-78030393D01*
X150025000Y-78100927D01*
X150025000Y-78107500D01*
X151126000Y-78107500D01*
X151193039Y-78127185D01*
X151238794Y-78179989D01*
X151250000Y-78231500D01*
X151250000Y-78483500D01*
X151230315Y-78550539D01*
X151177511Y-78596294D01*
X151126000Y-78607500D01*
X150025001Y-78607500D01*
X150025001Y-78614082D01*
X150031408Y-78684602D01*
X150031409Y-78684607D01*
X150081981Y-78846896D01*
X150139383Y-78941850D01*
X150157219Y-79009404D01*
X150135702Y-79075878D01*
X150081662Y-79120166D01*
X150033266Y-79130000D01*
X143978597Y-79130000D01*
X143911558Y-79110315D01*
X143865803Y-79057511D01*
X143855859Y-78988353D01*
X143884884Y-78924797D01*
X143890916Y-78918319D01*
X145464916Y-77344319D01*
X145526239Y-77310834D01*
X145552597Y-77308000D01*
X147406587Y-77308000D01*
X147473626Y-77327685D01*
X147480201Y-77332216D01*
X147552118Y-77385293D01*
X147573369Y-77392729D01*
X147680299Y-77430146D01*
X147710730Y-77433000D01*
X147710734Y-77433000D01*
X148219270Y-77433000D01*
X148249699Y-77430146D01*
X148249701Y-77430146D01*
X148313790Y-77407719D01*
X148377882Y-77385293D01*
X148487150Y-77304650D01*
X148567793Y-77195382D01*
X148594037Y-77120382D01*
X148612646Y-77067201D01*
X148612646Y-77067199D01*
X148615500Y-77036769D01*
X148615500Y-76378230D01*
X148612646Y-76347800D01*
X148612646Y-76347798D01*
X148579006Y-76251663D01*
X148567793Y-76219618D01*
X148487150Y-76110350D01*
X148377882Y-76029707D01*
X148377880Y-76029706D01*
X148249700Y-75984853D01*
X148219270Y-75982000D01*
X148219266Y-75982000D01*
X147710734Y-75982000D01*
X147710730Y-75982000D01*
X147680300Y-75984853D01*
X147680298Y-75984853D01*
X147552119Y-76029706D01*
X147552117Y-76029707D01*
X147524569Y-76050039D01*
X147480218Y-76082770D01*
X147414592Y-76106741D01*
X147406587Y-76107000D01*
X145295928Y-76107000D01*
X145287829Y-76106469D01*
X145252500Y-76101818D01*
X145213139Y-76107000D01*
X145095739Y-76122455D01*
X145095737Y-76122456D01*
X144949657Y-76182964D01*
X144824219Y-76279216D01*
X144802519Y-76307494D01*
X144797168Y-76313596D01*
X142586096Y-78524668D01*
X142579994Y-78530019D01*
X142551720Y-78551715D01*
X142551717Y-78551718D01*
X142551718Y-78551718D01*
X142492986Y-78628259D01*
X142474224Y-78652709D01*
X142455464Y-78677158D01*
X142394956Y-78823237D01*
X142394955Y-78823239D01*
X142374318Y-78979998D01*
X142374318Y-78979999D01*
X142378969Y-79015326D01*
X142379500Y-79023428D01*
X142379500Y-87287328D01*
X142359815Y-87354367D01*
X142307011Y-87400122D01*
X142299810Y-87401362D01*
X141605574Y-88095598D01*
X141592786Y-88014852D01*
X141535262Y-87901955D01*
X141445666Y-87812359D01*
X141332769Y-87754835D01*
X141252021Y-87742046D01*
X141933093Y-87060974D01*
X141933092Y-87060973D01*
X141860104Y-87009866D01*
X141860102Y-87009865D01*
X141653947Y-86913734D01*
X141653938Y-86913730D01*
X141434231Y-86854860D01*
X141434220Y-86854858D01*
X141207623Y-86835034D01*
X141207619Y-86835034D01*
X140981021Y-86854858D01*
X140981010Y-86854860D01*
X140761303Y-86913730D01*
X140761294Y-86913734D01*
X140555134Y-87009868D01*
X140482148Y-87060972D01*
X140482147Y-87060973D01*
X141163221Y-87742046D01*
X141082473Y-87754835D01*
X140969576Y-87812359D01*
X140879980Y-87901955D01*
X140822456Y-88014852D01*
X140809667Y-88095599D01*
X140128594Y-87414526D01*
X140128593Y-87414527D01*
X140077489Y-87487513D01*
X139994503Y-87665477D01*
X139948331Y-87717916D01*
X139881137Y-87737068D01*
X139814256Y-87716852D01*
X139768921Y-87663687D01*
X139758121Y-87613072D01*
X139758121Y-87315323D01*
X139758120Y-87315321D01*
X139743588Y-87242264D01*
X139743587Y-87242260D01*
X139743586Y-87242259D01*
X139688222Y-87159399D01*
X139605361Y-87104034D01*
X139605360Y-87104033D01*
X139605356Y-87104032D01*
X139532298Y-87089500D01*
X139532295Y-87089500D01*
X137882947Y-87089500D01*
X137882944Y-87089500D01*
X137809885Y-87104032D01*
X137809881Y-87104033D01*
X137727020Y-87159399D01*
X137671654Y-87242260D01*
X137671653Y-87242264D01*
X137657121Y-87315321D01*
X137657121Y-88964678D01*
X137671653Y-89037735D01*
X137671654Y-89037739D01*
X137681804Y-89052930D01*
X137727020Y-89120601D01*
X137809880Y-89175966D01*
X137809881Y-89175966D01*
X137809885Y-89175967D01*
X137882942Y-89190499D01*
X137882945Y-89190500D01*
X137882947Y-89190500D01*
X139532297Y-89190500D01*
X139532298Y-89190499D01*
X139605361Y-89175966D01*
X139688222Y-89120601D01*
X139743587Y-89037740D01*
X139758121Y-88964674D01*
X139758121Y-88666927D01*
X139777806Y-88599888D01*
X139830610Y-88554133D01*
X139899768Y-88544189D01*
X139963324Y-88573214D01*
X139994503Y-88614522D01*
X140077486Y-88792481D01*
X140077487Y-88792483D01*
X140128594Y-88865471D01*
X140128595Y-88865472D01*
X140809667Y-88184399D01*
X140822456Y-88265148D01*
X140879980Y-88378045D01*
X140969576Y-88467641D01*
X141082473Y-88525165D01*
X141163220Y-88537953D01*
X140482147Y-89219025D01*
X140482147Y-89219026D01*
X140555133Y-89270131D01*
X140555137Y-89270133D01*
X140761294Y-89366265D01*
X140761303Y-89366269D01*
X140981010Y-89425139D01*
X140981021Y-89425141D01*
X141207619Y-89444966D01*
X141207623Y-89444966D01*
X141434220Y-89425141D01*
X141434231Y-89425139D01*
X141653938Y-89366269D01*
X141653952Y-89366264D01*
X141860099Y-89270136D01*
X141933093Y-89219025D01*
X141252022Y-88537953D01*
X141332769Y-88525165D01*
X141445666Y-88467641D01*
X141535262Y-88378045D01*
X141592786Y-88265148D01*
X141605574Y-88184400D01*
X142301789Y-88880615D01*
X142313186Y-88882905D01*
X142363372Y-88931517D01*
X142379500Y-88992670D01*
X142379500Y-90936571D01*
X142378969Y-90944673D01*
X142374318Y-90979999D01*
X142374318Y-90980000D01*
X142379500Y-91019360D01*
X142394955Y-91136760D01*
X142394956Y-91136762D01*
X142455464Y-91282841D01*
X142551718Y-91408282D01*
X142579995Y-91429980D01*
X142586085Y-91435320D01*
X147850760Y-96699995D01*
X152690858Y-101540093D01*
X152724343Y-101601416D01*
X152727177Y-101627774D01*
X152727177Y-109696000D01*
X152707492Y-109763039D01*
X152654688Y-109808794D01*
X152603177Y-109820000D01*
X152430000Y-109820000D01*
X152430000Y-114579476D01*
X152415909Y-114636886D01*
X152393769Y-114679271D01*
X152393767Y-114679275D01*
X152384317Y-114712298D01*
X152381684Y-114719694D01*
X152368136Y-114751266D01*
X152355790Y-114811342D01*
X152354667Y-114815918D01*
X152337790Y-114874900D01*
X152337790Y-114874902D01*
X152335180Y-114909164D01*
X152334091Y-114916931D01*
X152328657Y-114943375D01*
X152327177Y-114950581D01*
X152327177Y-115011920D01*
X152326998Y-115016629D01*
X152322339Y-115077797D01*
X152324384Y-115093850D01*
X152326680Y-115111883D01*
X152327177Y-115119711D01*
X152327177Y-117962927D01*
X152307492Y-118029966D01*
X152254688Y-118075721D01*
X152233432Y-118082586D01*
X152229937Y-118084033D01*
X152147076Y-118139399D01*
X152091710Y-118222260D01*
X152091709Y-118222264D01*
X152077177Y-118295321D01*
X152077177Y-120344678D01*
X152091709Y-120417735D01*
X152091710Y-120417739D01*
X152091711Y-120417740D01*
X152147076Y-120500601D01*
X152211443Y-120543609D01*
X152229937Y-120555966D01*
X152229941Y-120555967D01*
X152302998Y-120570499D01*
X152303001Y-120570500D01*
X152303003Y-120570500D01*
X154352353Y-120570500D01*
X154352354Y-120570499D01*
X154425417Y-120555966D01*
X154508278Y-120500601D01*
X154563643Y-120417740D01*
X154578177Y-120344674D01*
X154578177Y-119320005D01*
X156822536Y-119320005D01*
X156843062Y-119567729D01*
X156843064Y-119567738D01*
X156904089Y-119808717D01*
X157003943Y-120036364D01*
X157104241Y-120189882D01*
X157844600Y-119449523D01*
X157868184Y-119529844D01*
X157945916Y-119650798D01*
X158054577Y-119744952D01*
X158185362Y-119804680D01*
X158195143Y-119806086D01*
X157457619Y-120543609D01*
X157504445Y-120580055D01*
X157504447Y-120580056D01*
X157723062Y-120698364D01*
X157723073Y-120698369D01*
X157958183Y-120779083D01*
X158203384Y-120820000D01*
X158451970Y-120820000D01*
X158697170Y-120779083D01*
X158932280Y-120698369D01*
X158932291Y-120698364D01*
X159150905Y-120580057D01*
X159150908Y-120580055D01*
X159197733Y-120543609D01*
X158460210Y-119806086D01*
X158469992Y-119804680D01*
X158600777Y-119744952D01*
X158709438Y-119650798D01*
X158787170Y-119529844D01*
X158810753Y-119449524D01*
X159551111Y-120189882D01*
X159651408Y-120036369D01*
X159751264Y-119808717D01*
X159812289Y-119567738D01*
X159812291Y-119567729D01*
X159832818Y-119320005D01*
X159832818Y-119319994D01*
X159812291Y-119072270D01*
X159812289Y-119072261D01*
X159751264Y-118831282D01*
X159651408Y-118603630D01*
X159551111Y-118450116D01*
X158810753Y-119190475D01*
X158787170Y-119110156D01*
X158709438Y-118989202D01*
X158600777Y-118895048D01*
X158469992Y-118835320D01*
X158460211Y-118833913D01*
X159197734Y-118096390D01*
X159197733Y-118096389D01*
X159150906Y-118059943D01*
X158932291Y-117941635D01*
X158932280Y-117941630D01*
X158697170Y-117860916D01*
X158451970Y-117820000D01*
X158203384Y-117820000D01*
X157958183Y-117860916D01*
X157723073Y-117941630D01*
X157723067Y-117941632D01*
X157504438Y-118059949D01*
X157457619Y-118096388D01*
X157457619Y-118096390D01*
X158195143Y-118833913D01*
X158185362Y-118835320D01*
X158054577Y-118895048D01*
X157945916Y-118989202D01*
X157868184Y-119110156D01*
X157844600Y-119190475D01*
X157104241Y-118450116D01*
X157003944Y-118603632D01*
X156904089Y-118831282D01*
X156843064Y-119072261D01*
X156843062Y-119072270D01*
X156822536Y-119319994D01*
X156822536Y-119320005D01*
X154578177Y-119320005D01*
X154578177Y-118295326D01*
X154578177Y-118295325D01*
X154578177Y-118295323D01*
X154578176Y-118295321D01*
X154563644Y-118222264D01*
X154563643Y-118222260D01*
X154508278Y-118139399D01*
X154452912Y-118102405D01*
X154425416Y-118084033D01*
X154414133Y-118079360D01*
X154414834Y-118077665D01*
X154366073Y-118052157D01*
X154331500Y-117991441D01*
X154328177Y-117962927D01*
X154328177Y-116074000D01*
X154347862Y-116006961D01*
X154400666Y-115961206D01*
X154452177Y-115950000D01*
X161356000Y-115950000D01*
X161423039Y-115969685D01*
X161468794Y-116022489D01*
X161480000Y-116074000D01*
X161480000Y-124146000D01*
X161460315Y-124213039D01*
X161407511Y-124258794D01*
X161356000Y-124270000D01*
X147934000Y-124270000D01*
X147866961Y-124250315D01*
X147821206Y-124197511D01*
X147810000Y-124146000D01*
X147810000Y-120645432D01*
X147829685Y-120578393D01*
X147843102Y-120561090D01*
X147847856Y-120555966D01*
X147872433Y-120529479D01*
X148020228Y-120312704D01*
X148134063Y-120076323D01*
X148211396Y-119825615D01*
X148250500Y-119566182D01*
X148250500Y-119303818D01*
X148211396Y-119044385D01*
X148134063Y-118793677D01*
X148122121Y-118768880D01*
X148020232Y-118557303D01*
X148020231Y-118557302D01*
X148020230Y-118557301D01*
X148020228Y-118557296D01*
X147872433Y-118340521D01*
X147843100Y-118308907D01*
X147811933Y-118246374D01*
X147810000Y-118224567D01*
X147810000Y-110860000D01*
X142754000Y-110860000D01*
X142686961Y-110840315D01*
X142641206Y-110787511D01*
X142630000Y-110736000D01*
X142630000Y-105950002D01*
X144694723Y-105950002D01*
X144713793Y-106167975D01*
X144713793Y-106167979D01*
X144770422Y-106379322D01*
X144770424Y-106379326D01*
X144770425Y-106379330D01*
X144795934Y-106434034D01*
X144862897Y-106577638D01*
X144862898Y-106577639D01*
X144988402Y-106756877D01*
X145143123Y-106911598D01*
X145322361Y-107037102D01*
X145520670Y-107129575D01*
X145732023Y-107186207D01*
X145914926Y-107202208D01*
X145949998Y-107205277D01*
X145950000Y-107205277D01*
X145950002Y-107205277D01*
X145978254Y-107202805D01*
X146167977Y-107186207D01*
X146379330Y-107129575D01*
X146577639Y-107037102D01*
X146756877Y-106911598D01*
X146911598Y-106756877D01*
X147037102Y-106577639D01*
X147129575Y-106379330D01*
X147186207Y-106167977D01*
X147205277Y-105950000D01*
X147203975Y-105935122D01*
X147194921Y-105831628D01*
X147186207Y-105732023D01*
X147129575Y-105520670D01*
X147037102Y-105322362D01*
X147037100Y-105322359D01*
X147037099Y-105322357D01*
X146911599Y-105143124D01*
X146843890Y-105075415D01*
X146756877Y-104988402D01*
X146604187Y-104881487D01*
X146577638Y-104862897D01*
X146445016Y-104801055D01*
X146379330Y-104770425D01*
X146379326Y-104770424D01*
X146379322Y-104770422D01*
X146167977Y-104713793D01*
X145950002Y-104694723D01*
X145949998Y-104694723D01*
X145809132Y-104707047D01*
X145732023Y-104713793D01*
X145732020Y-104713793D01*
X145520677Y-104770422D01*
X145520668Y-104770426D01*
X145322361Y-104862898D01*
X145322357Y-104862900D01*
X145143121Y-104988402D01*
X144988402Y-105143121D01*
X144862900Y-105322357D01*
X144862898Y-105322361D01*
X144770426Y-105520668D01*
X144770422Y-105520677D01*
X144713793Y-105732020D01*
X144713793Y-105732024D01*
X144694723Y-105949997D01*
X144694723Y-105950002D01*
X142630000Y-105950002D01*
X142630000Y-103520000D01*
X137938792Y-103520000D01*
X137879775Y-103505055D01*
X137755468Y-103437784D01*
X137755454Y-103437778D01*
X137527791Y-103359619D01*
X137420000Y-103341633D01*
X137420000Y-103396000D01*
X137400315Y-103463039D01*
X137347511Y-103508794D01*
X137296000Y-103520000D01*
X137044000Y-103520000D01*
X136976961Y-103500315D01*
X136931206Y-103447511D01*
X136920000Y-103396000D01*
X136920000Y-103341633D01*
X136919999Y-103341633D01*
X136812208Y-103359619D01*
X136584545Y-103437778D01*
X136584531Y-103437784D01*
X136460225Y-103505055D01*
X136401208Y-103520000D01*
X135970000Y-103520000D01*
X135970000Y-103916674D01*
X135950315Y-103983713D01*
X135949809Y-103984495D01*
X135888183Y-104078820D01*
X135872305Y-104115019D01*
X135827349Y-104168505D01*
X135760613Y-104189194D01*
X135693285Y-104170519D01*
X135659796Y-104139935D01*
X135582545Y-104037639D01*
X135522837Y-103958572D01*
X135522834Y-103958569D01*
X135522831Y-103958566D01*
X135358076Y-103808373D01*
X135358075Y-103808372D01*
X135168521Y-103691005D01*
X134960627Y-103610467D01*
X134741474Y-103569500D01*
X134518526Y-103569500D01*
X134299373Y-103610467D01*
X134299370Y-103610467D01*
X134299370Y-103610468D01*
X134091481Y-103691004D01*
X134091480Y-103691004D01*
X133901923Y-103808373D01*
X133737168Y-103958566D01*
X133737165Y-103958569D01*
X133602807Y-104136488D01*
X133503434Y-104336053D01*
X133503428Y-104336068D01*
X133442417Y-104550500D01*
X133442416Y-104550502D01*
X133429410Y-104690867D01*
X133427000Y-104716879D01*
X133427000Y-104923121D01*
X133429273Y-104947646D01*
X133442416Y-105089497D01*
X133442417Y-105089499D01*
X133503428Y-105303931D01*
X133503434Y-105303946D01*
X133585029Y-105467809D01*
X133602807Y-105503511D01*
X133724982Y-105665298D01*
X133737165Y-105681430D01*
X133737168Y-105681433D01*
X133752856Y-105695734D01*
X133901925Y-105831628D01*
X134091479Y-105948995D01*
X134299373Y-106029533D01*
X134518526Y-106070500D01*
X134518528Y-106070500D01*
X134741472Y-106070500D01*
X134741474Y-106070500D01*
X134960627Y-106029533D01*
X135168521Y-105948995D01*
X135358075Y-105831628D01*
X135522837Y-105681428D01*
X135657193Y-105503511D01*
X135657193Y-105503510D01*
X135659796Y-105500064D01*
X135715905Y-105458428D01*
X135785617Y-105453737D01*
X135846799Y-105487479D01*
X135872306Y-105524981D01*
X135888186Y-105561184D01*
X135949808Y-105655502D01*
X135969996Y-105722391D01*
X135970000Y-105723324D01*
X135970000Y-106442597D01*
X135958384Y-106494998D01*
X135955642Y-106500876D01*
X135900494Y-106667302D01*
X135900493Y-106667309D01*
X135890000Y-106770013D01*
X135890000Y-107220000D01*
X135908290Y-107238290D01*
X135913039Y-107239685D01*
X135958794Y-107292489D01*
X135970000Y-107344000D01*
X135970000Y-107596000D01*
X135950315Y-107663039D01*
X135925197Y-107684803D01*
X135890001Y-107720000D01*
X135890001Y-108169986D01*
X135900494Y-108272697D01*
X135955640Y-108439118D01*
X135958381Y-108444994D01*
X135970000Y-108497402D01*
X135970000Y-108726000D01*
X135950315Y-108793039D01*
X135897511Y-108838794D01*
X135846000Y-108850000D01*
X126134530Y-108850000D01*
X126067491Y-108830315D01*
X126021736Y-108777511D01*
X126011792Y-108708353D01*
X126040817Y-108644797D01*
X126075103Y-108617168D01*
X126082091Y-108613351D01*
X126197187Y-108527190D01*
X126197190Y-108527187D01*
X126283350Y-108412093D01*
X126283354Y-108412086D01*
X126333596Y-108277379D01*
X126333598Y-108277372D01*
X126339999Y-108217844D01*
X126340000Y-108217827D01*
X126340000Y-108194678D01*
X129669500Y-108194678D01*
X129684032Y-108267735D01*
X129684033Y-108267739D01*
X129684034Y-108267740D01*
X129739399Y-108350601D01*
X129771586Y-108372107D01*
X129822260Y-108405966D01*
X129822264Y-108405967D01*
X129895321Y-108420499D01*
X129895324Y-108420500D01*
X129895326Y-108420500D01*
X131444676Y-108420500D01*
X131444677Y-108420499D01*
X131517740Y-108405966D01*
X131600601Y-108350601D01*
X131655966Y-108267740D01*
X131670500Y-108194674D01*
X131670500Y-106645326D01*
X131670500Y-106645323D01*
X131670499Y-106645321D01*
X131655967Y-106572264D01*
X131655966Y-106572260D01*
X131654580Y-106570185D01*
X131600601Y-106489399D01*
X131517740Y-106434034D01*
X131517739Y-106434033D01*
X131517735Y-106434032D01*
X131444677Y-106419500D01*
X131444674Y-106419500D01*
X129895326Y-106419500D01*
X129895323Y-106419500D01*
X129822264Y-106434032D01*
X129822260Y-106434033D01*
X129739399Y-106489399D01*
X129684033Y-106572260D01*
X129684032Y-106572264D01*
X129669500Y-106645321D01*
X129669500Y-108194678D01*
X126340000Y-108194678D01*
X126340000Y-107670000D01*
X125335581Y-107670000D01*
X125387060Y-107614079D01*
X125433982Y-107507108D01*
X125443628Y-107390698D01*
X125414953Y-107277462D01*
X125351064Y-107179673D01*
X125258885Y-107107928D01*
X125148405Y-107070000D01*
X125060995Y-107070000D01*
X124974784Y-107084386D01*
X124872053Y-107139981D01*
X124840000Y-107174799D01*
X124840000Y-106170000D01*
X125340000Y-106170000D01*
X125340000Y-107170000D01*
X126340000Y-107170000D01*
X126340000Y-106622172D01*
X126339999Y-106622155D01*
X126333598Y-106562627D01*
X126333596Y-106562620D01*
X126283354Y-106427913D01*
X126283350Y-106427906D01*
X126197190Y-106312812D01*
X126197187Y-106312809D01*
X126082093Y-106226649D01*
X126082086Y-106226645D01*
X125947379Y-106176403D01*
X125947372Y-106176401D01*
X125887844Y-106170000D01*
X125340000Y-106170000D01*
X124840000Y-106170000D01*
X124292155Y-106170000D01*
X124232627Y-106176401D01*
X124232620Y-106176403D01*
X124097913Y-106226645D01*
X124097906Y-106226649D01*
X123982812Y-106312809D01*
X123982810Y-106312811D01*
X123968682Y-106331684D01*
X123912747Y-106373554D01*
X123843056Y-106378536D01*
X123781733Y-106345050D01*
X123748250Y-106283726D01*
X123745926Y-106268590D01*
X123743591Y-106242897D01*
X123743590Y-106242892D01*
X123693018Y-106080603D01*
X123605072Y-105935122D01*
X123526318Y-105856368D01*
X123492833Y-105795045D01*
X123490000Y-105768696D01*
X123490000Y-105240000D01*
X119965347Y-105240000D01*
X119898308Y-105220315D01*
X119852553Y-105167511D01*
X119841989Y-105103398D01*
X119849999Y-105024988D01*
X119850000Y-105024973D01*
X119850000Y-104750000D01*
X118724000Y-104750000D01*
X118656961Y-104730315D01*
X118611206Y-104677511D01*
X118600000Y-104626000D01*
X118600000Y-104250000D01*
X119099999Y-104250000D01*
X119849999Y-104250000D01*
X119849999Y-103975028D01*
X119849998Y-103975013D01*
X119839505Y-103872302D01*
X119784358Y-103705880D01*
X119784356Y-103705875D01*
X119692315Y-103556654D01*
X119568345Y-103432684D01*
X119419124Y-103340643D01*
X119419119Y-103340641D01*
X119252697Y-103285494D01*
X119252690Y-103285493D01*
X119149986Y-103275000D01*
X119100000Y-103275000D01*
X119099999Y-104250000D01*
X118600000Y-104250000D01*
X118600000Y-103275000D01*
X118599999Y-103274999D01*
X118550029Y-103275000D01*
X118550011Y-103275001D01*
X118447302Y-103285494D01*
X118280880Y-103340641D01*
X118280875Y-103340643D01*
X118131654Y-103432684D01*
X118007684Y-103556654D01*
X117915643Y-103705875D01*
X117915642Y-103705878D01*
X117885069Y-103798141D01*
X117845296Y-103855585D01*
X117780780Y-103882408D01*
X117712004Y-103870093D01*
X117660804Y-103822549D01*
X117651181Y-103802468D01*
X117643798Y-103782673D01*
X117643795Y-103782668D01*
X117632806Y-103767989D01*
X117625233Y-103757872D01*
X117600816Y-103692408D01*
X117600500Y-103683561D01*
X117600500Y-102780807D01*
X117620185Y-102713768D01*
X117636814Y-102693130D01*
X118609513Y-101720431D01*
X118622079Y-101710365D01*
X118621925Y-101710178D01*
X118627937Y-101705204D01*
X118627937Y-101705203D01*
X118627940Y-101705202D01*
X118677190Y-101652755D01*
X118698911Y-101631035D01*
X118703401Y-101625245D01*
X118707183Y-101620815D01*
X118740448Y-101585393D01*
X118750674Y-101566790D01*
X118761353Y-101550533D01*
X118774362Y-101533764D01*
X118793663Y-101489159D01*
X118796212Y-101483956D01*
X118801549Y-101474249D01*
X118851099Y-101424992D01*
X118910204Y-101410000D01*
X119155500Y-101410000D01*
X119222539Y-101429685D01*
X119268294Y-101482489D01*
X119279500Y-101534000D01*
X119279500Y-101626789D01*
X119277304Y-101650020D01*
X119275624Y-101658826D01*
X119275624Y-101658829D01*
X119276305Y-101669658D01*
X119275646Y-101692387D01*
X119274722Y-101699998D01*
X119274722Y-101700003D01*
X119279076Y-101735867D01*
X119279405Y-101739431D01*
X119279498Y-101740908D01*
X119281823Y-101759328D01*
X119282189Y-101763200D01*
X119285944Y-101822863D01*
X119288132Y-101829598D01*
X119293292Y-101852946D01*
X119293803Y-101857154D01*
X119294828Y-101862666D01*
X119294927Y-101863055D01*
X119316938Y-101918648D01*
X119318257Y-101922312D01*
X119336731Y-101979168D01*
X119336736Y-101979180D01*
X119338503Y-101981964D01*
X119349736Y-102004409D01*
X119349779Y-102004522D01*
X119352961Y-102010584D01*
X119355159Y-102015375D01*
X119355430Y-102015868D01*
X119355431Y-102015870D01*
X119355432Y-102015871D01*
X119383704Y-102054785D01*
X119390580Y-102064248D01*
X119392758Y-102067454D01*
X119409106Y-102093213D01*
X119424801Y-102117945D01*
X119426528Y-102120033D01*
X119434328Y-102129098D01*
X119434539Y-102128912D01*
X119444490Y-102140143D01*
X119444103Y-102140485D01*
X119446604Y-102143239D01*
X119446698Y-102143152D01*
X119452035Y-102148836D01*
X119498101Y-102186945D01*
X119501022Y-102189520D01*
X119508106Y-102196172D01*
X119544607Y-102230448D01*
X119544609Y-102230449D01*
X119544610Y-102230450D01*
X119550919Y-102235034D01*
X119550728Y-102235296D01*
X119551180Y-102235613D01*
X119551588Y-102235023D01*
X119563936Y-102243547D01*
X119563902Y-102243595D01*
X119577593Y-102252706D01*
X119578674Y-102253600D01*
X119632785Y-102279063D01*
X119636213Y-102280809D01*
X119688632Y-102309627D01*
X119688637Y-102309628D01*
X119689031Y-102309784D01*
X119694671Y-102311571D01*
X119697628Y-102312692D01*
X119697635Y-102312696D01*
X119699578Y-102313174D01*
X119722696Y-102321371D01*
X119727387Y-102323579D01*
X119786131Y-102334784D01*
X119789875Y-102335621D01*
X119847823Y-102350500D01*
X119851015Y-102350500D01*
X119856790Y-102350500D01*
X119880022Y-102352696D01*
X119881706Y-102353017D01*
X119888830Y-102354376D01*
X119948508Y-102350621D01*
X119952381Y-102350500D01*
X120008985Y-102350500D01*
X122171213Y-102350500D01*
X122238252Y-102370185D01*
X122284007Y-102422989D01*
X122293951Y-102492147D01*
X122264926Y-102555703D01*
X122228839Y-102584296D01*
X122092762Y-102655715D01*
X121974516Y-102760471D01*
X121884781Y-102890475D01*
X121884780Y-102890476D01*
X121828762Y-103038181D01*
X121809721Y-103194999D01*
X121809721Y-103195000D01*
X121828762Y-103351818D01*
X121865054Y-103447511D01*
X121884780Y-103499523D01*
X121974517Y-103629530D01*
X122092760Y-103734283D01*
X122092762Y-103734284D01*
X122232634Y-103807696D01*
X122386014Y-103845500D01*
X122386015Y-103845500D01*
X122543985Y-103845500D01*
X122697365Y-103807696D01*
X122837233Y-103734287D01*
X122837234Y-103734285D01*
X122837240Y-103734283D01*
X122845818Y-103726683D01*
X122909050Y-103696963D01*
X122928044Y-103695500D01*
X125035549Y-103695500D01*
X125102588Y-103715185D01*
X125148343Y-103767989D01*
X125159167Y-103809777D01*
X125159500Y-103814011D01*
X125159501Y-103814017D01*
X125159501Y-103814018D01*
X125174354Y-103907804D01*
X125231950Y-104020842D01*
X125231952Y-104020844D01*
X125231954Y-104020847D01*
X125321652Y-104110545D01*
X125321654Y-104110546D01*
X125321658Y-104110550D01*
X125434694Y-104168145D01*
X125434698Y-104168147D01*
X125528475Y-104182999D01*
X125528481Y-104183000D01*
X125891518Y-104182999D01*
X125985304Y-104168146D01*
X126098342Y-104110550D01*
X126188050Y-104020842D01*
X126245646Y-103907804D01*
X126245646Y-103907802D01*
X126245647Y-103907801D01*
X126260500Y-103814022D01*
X126260882Y-103809169D01*
X126262038Y-103809259D01*
X126280185Y-103747461D01*
X126332989Y-103701706D01*
X126384500Y-103690500D01*
X127400893Y-103690500D01*
X127467932Y-103710185D01*
X127500156Y-103740185D01*
X127552454Y-103810046D01*
X127552455Y-103810046D01*
X127552456Y-103810048D01*
X127667664Y-103896293D01*
X127667671Y-103896297D01*
X127756205Y-103929318D01*
X127812139Y-103971189D01*
X127836556Y-104036653D01*
X127821705Y-104104926D01*
X127772300Y-104154332D01*
X127712872Y-104169500D01*
X127011010Y-104169500D01*
X126974487Y-104178501D01*
X126967419Y-104179814D01*
X126926941Y-104184929D01*
X126926939Y-104184929D01*
X126895440Y-104197401D01*
X126887447Y-104199955D01*
X126857637Y-104207302D01*
X126857633Y-104207304D01*
X126821270Y-104226389D01*
X126815279Y-104229137D01*
X126774130Y-104245431D01*
X126774128Y-104245432D01*
X126774129Y-104245432D01*
X126753150Y-104260673D01*
X126737898Y-104270147D01*
X126717761Y-104280716D01*
X126684432Y-104310240D01*
X126679762Y-104313991D01*
X126641161Y-104342037D01*
X126627033Y-104359115D01*
X126613725Y-104372881D01*
X126599517Y-104385468D01*
X126599517Y-104385469D01*
X126572262Y-104424952D01*
X126569011Y-104429250D01*
X126536398Y-104468674D01*
X126528565Y-104485320D01*
X126518425Y-104502951D01*
X126509779Y-104515477D01*
X126491541Y-104563565D01*
X126489670Y-104567977D01*
X126466421Y-104617385D01*
X126466419Y-104617394D01*
X126463679Y-104631754D01*
X126457823Y-104652472D01*
X126453763Y-104663180D01*
X126453761Y-104663186D01*
X126447145Y-104717669D01*
X126446499Y-104721811D01*
X126435624Y-104778822D01*
X126435624Y-104778829D01*
X126436305Y-104789658D01*
X126435646Y-104812387D01*
X126434722Y-104820000D01*
X126439930Y-104862898D01*
X126441753Y-104877907D01*
X126442082Y-104881487D01*
X126445944Y-104942863D01*
X126445944Y-104942864D01*
X126448131Y-104949595D01*
X126453293Y-104972950D01*
X126453762Y-104976816D01*
X126475664Y-105034567D01*
X126476656Y-105037385D01*
X126496732Y-105099171D01*
X126496733Y-105099172D01*
X126496734Y-105099176D01*
X126498500Y-105101958D01*
X126509739Y-105124417D01*
X126509778Y-105124521D01*
X126547515Y-105179192D01*
X126584800Y-105237943D01*
X126586534Y-105240040D01*
X126594329Y-105249099D01*
X126594540Y-105248913D01*
X126599517Y-105254530D01*
X126651596Y-105300668D01*
X126704607Y-105350448D01*
X126704609Y-105350449D01*
X126704610Y-105350450D01*
X126710919Y-105355034D01*
X126710728Y-105355296D01*
X126711179Y-105355612D01*
X126711587Y-105355022D01*
X126717756Y-105359280D01*
X126717757Y-105359280D01*
X126717760Y-105359283D01*
X126782148Y-105393077D01*
X126848632Y-105429627D01*
X126848639Y-105429628D01*
X126849040Y-105429788D01*
X126854677Y-105431574D01*
X126857633Y-105432695D01*
X126857635Y-105432696D01*
X126931304Y-105450853D01*
X127007823Y-105470500D01*
X127011015Y-105470500D01*
X127168985Y-105470500D01*
X130516790Y-105470500D01*
X130540022Y-105472696D01*
X130541706Y-105473017D01*
X130548830Y-105474376D01*
X130608508Y-105470621D01*
X130612381Y-105470500D01*
X130630925Y-105470500D01*
X130649325Y-105468175D01*
X130653185Y-105467810D01*
X130712860Y-105464056D01*
X130717358Y-105462594D01*
X130721382Y-105461287D01*
X130744165Y-105456193D01*
X130753058Y-105455071D01*
X130808664Y-105433054D01*
X130812276Y-105431753D01*
X130869171Y-105413268D01*
X130876737Y-105408465D01*
X130897539Y-105397866D01*
X130905871Y-105394568D01*
X130954268Y-105359404D01*
X130957429Y-105357256D01*
X131007940Y-105325202D01*
X131014069Y-105318674D01*
X131031582Y-105303234D01*
X131038837Y-105297963D01*
X131057696Y-105275166D01*
X131076957Y-105251882D01*
X131079499Y-105248998D01*
X131120448Y-105205393D01*
X131124765Y-105197539D01*
X131137891Y-105178226D01*
X131143600Y-105171326D01*
X131169071Y-105117195D01*
X131170799Y-105113803D01*
X131199627Y-105061368D01*
X131201857Y-105052679D01*
X131209764Y-105030720D01*
X131212468Y-105024973D01*
X131213579Y-105022613D01*
X131224785Y-104963864D01*
X131225626Y-104960103D01*
X131240500Y-104902177D01*
X131240499Y-104893210D01*
X131242698Y-104869962D01*
X131244376Y-104861170D01*
X131240620Y-104801492D01*
X131240499Y-104797616D01*
X131240499Y-101438211D01*
X131242696Y-101414972D01*
X131244376Y-101406170D01*
X131240620Y-101346490D01*
X131240499Y-101342614D01*
X131240500Y-101324074D01*
X131240500Y-100870002D01*
X144694723Y-100870002D01*
X144713793Y-101087975D01*
X144713793Y-101087979D01*
X144770422Y-101299322D01*
X144770424Y-101299326D01*
X144770425Y-101299330D01*
X144814563Y-101393985D01*
X144862897Y-101497638D01*
X144862898Y-101497639D01*
X144988402Y-101676877D01*
X145143123Y-101831598D01*
X145322361Y-101957102D01*
X145520670Y-102049575D01*
X145732023Y-102106207D01*
X145907868Y-102121591D01*
X145949998Y-102125277D01*
X145950000Y-102125277D01*
X145950002Y-102125277D01*
X145978254Y-102122805D01*
X146167977Y-102106207D01*
X146379330Y-102049575D01*
X146577639Y-101957102D01*
X146756877Y-101831598D01*
X146911598Y-101676877D01*
X147037102Y-101497639D01*
X147129575Y-101299330D01*
X147186207Y-101087977D01*
X147204473Y-100879191D01*
X147205277Y-100870002D01*
X147205277Y-100869997D01*
X147194379Y-100745433D01*
X147186207Y-100652023D01*
X147143906Y-100494153D01*
X147129577Y-100440677D01*
X147129576Y-100440676D01*
X147129575Y-100440670D01*
X147037102Y-100242362D01*
X147037100Y-100242359D01*
X147037099Y-100242357D01*
X146911599Y-100063124D01*
X146911596Y-100063121D01*
X146756877Y-99908402D01*
X146577639Y-99782898D01*
X146577640Y-99782898D01*
X146577638Y-99782897D01*
X146478484Y-99736661D01*
X146379330Y-99690425D01*
X146379326Y-99690424D01*
X146379322Y-99690422D01*
X146167977Y-99633793D01*
X145950002Y-99614723D01*
X145949998Y-99614723D01*
X145804681Y-99627436D01*
X145732023Y-99633793D01*
X145732020Y-99633793D01*
X145520677Y-99690422D01*
X145520668Y-99690426D01*
X145322361Y-99782898D01*
X145322357Y-99782900D01*
X145143121Y-99908402D01*
X144988402Y-100063121D01*
X144862900Y-100242357D01*
X144862898Y-100242361D01*
X144770426Y-100440668D01*
X144770422Y-100440677D01*
X144713793Y-100652020D01*
X144713793Y-100652023D01*
X144713209Y-100658702D01*
X144694723Y-100869997D01*
X144694723Y-100870002D01*
X131240500Y-100870002D01*
X131240500Y-89944000D01*
X131260185Y-89876961D01*
X131312989Y-89831206D01*
X131364500Y-89820000D01*
X131479999Y-89820000D01*
X131480000Y-89820000D01*
X131479999Y-89101306D01*
X131499683Y-89034268D01*
X131516313Y-89013631D01*
X131914751Y-88615193D01*
X131917444Y-88612657D01*
X131960483Y-88574530D01*
X131994119Y-88525797D01*
X131996150Y-88523024D01*
X132019011Y-88493553D01*
X132034362Y-88473764D01*
X132036795Y-88468139D01*
X132048545Y-88446949D01*
X132050220Y-88444523D01*
X132072442Y-88385925D01*
X132073486Y-88383352D01*
X132099636Y-88322926D01*
X132100002Y-88320610D01*
X132105069Y-88301554D01*
X132106234Y-88296825D01*
X132106237Y-88296818D01*
X132114336Y-88230110D01*
X132125347Y-88160595D01*
X132125346Y-88160587D01*
X132125592Y-88152798D01*
X132125606Y-88152798D01*
X132125678Y-88147503D01*
X132125278Y-88147503D01*
X132125277Y-88140008D01*
X132125278Y-88140000D01*
X132116797Y-88070155D01*
X132109879Y-87996971D01*
X132109878Y-87996968D01*
X132109732Y-87996318D01*
X132108330Y-87991682D01*
X132106238Y-87983194D01*
X132106237Y-87983182D01*
X132080158Y-87914419D01*
X132054206Y-87842332D01*
X132054204Y-87842329D01*
X132054023Y-87841973D01*
X132050860Y-87836697D01*
X132050217Y-87835472D01*
X132016376Y-87786446D01*
X132006604Y-87772289D01*
X131961825Y-87706398D01*
X131961820Y-87706394D01*
X131961819Y-87706392D01*
X131901010Y-87652782D01*
X131840742Y-87599390D01*
X131838914Y-87597961D01*
X131838541Y-87597708D01*
X131768844Y-87562195D01*
X131702367Y-87527305D01*
X131702366Y-87527304D01*
X131702365Y-87527304D01*
X131702363Y-87527303D01*
X131697696Y-87525533D01*
X131692552Y-87523254D01*
X131692104Y-87523093D01*
X131659074Y-87515710D01*
X131618815Y-87506711D01*
X131609857Y-87504503D01*
X131548985Y-87489499D01*
X131541540Y-87488596D01*
X131541616Y-87487966D01*
X131539494Y-87487732D01*
X131539472Y-87487974D01*
X131531705Y-87487240D01*
X131531704Y-87487240D01*
X131459797Y-87489500D01*
X131391013Y-87489500D01*
X131390617Y-87489548D01*
X131383141Y-87490000D01*
X126930000Y-87490000D01*
X126915497Y-87504503D01*
X126854174Y-87537988D01*
X126784482Y-87533004D01*
X126740135Y-87504503D01*
X123127987Y-83892355D01*
X134329500Y-83892355D01*
X134344032Y-83965412D01*
X134344033Y-83965416D01*
X134344034Y-83965417D01*
X134399399Y-84048278D01*
X134446404Y-84079685D01*
X134482260Y-84103643D01*
X134482264Y-84103644D01*
X134555321Y-84118176D01*
X134555324Y-84118177D01*
X134555326Y-84118177D01*
X136604676Y-84118177D01*
X136604677Y-84118176D01*
X136677740Y-84103643D01*
X136760601Y-84048278D01*
X136815966Y-83965417D01*
X136830500Y-83892351D01*
X136830500Y-81843003D01*
X136830500Y-81843000D01*
X136830499Y-81842998D01*
X136815967Y-81769941D01*
X136815966Y-81769937D01*
X136815965Y-81769936D01*
X136760601Y-81687076D01*
X136677740Y-81631711D01*
X136677739Y-81631710D01*
X136677735Y-81631709D01*
X136604677Y-81617177D01*
X136604674Y-81617177D01*
X134555326Y-81617177D01*
X134555323Y-81617177D01*
X134482264Y-81631709D01*
X134482260Y-81631710D01*
X134399399Y-81687076D01*
X134344033Y-81769937D01*
X134344032Y-81769941D01*
X134329500Y-81842998D01*
X134329500Y-83892355D01*
X123127987Y-83892355D01*
X119416819Y-80181187D01*
X119383334Y-80119864D01*
X119380500Y-80093506D01*
X119380500Y-79739759D01*
X119400185Y-79672720D01*
X119452989Y-79626965D01*
X119522147Y-79617021D01*
X119585703Y-79646046D01*
X119592181Y-79652078D01*
X119775193Y-79835090D01*
X119775214Y-79835109D01*
X119855245Y-79900305D01*
X119855258Y-79900314D01*
X120011925Y-79978995D01*
X120182530Y-80019430D01*
X120357850Y-80019430D01*
X120528454Y-79978995D01*
X120685130Y-79900310D01*
X120765168Y-79835109D01*
X120765186Y-79835093D01*
X121083363Y-79516916D01*
X121083363Y-79516915D01*
X120234128Y-78667680D01*
X120200643Y-78606357D01*
X120205627Y-78536665D01*
X120234128Y-78492318D01*
X120412318Y-78314128D01*
X120473641Y-78280643D01*
X120543333Y-78285627D01*
X120587680Y-78314128D01*
X121436914Y-79163362D01*
X121436915Y-79163362D01*
X121755090Y-78845187D01*
X121755109Y-78845166D01*
X121820305Y-78765135D01*
X121820314Y-78765122D01*
X121898995Y-78608454D01*
X121939430Y-78437850D01*
X121939430Y-78262529D01*
X121898995Y-78091925D01*
X121832513Y-77959548D01*
X121820016Y-77890805D01*
X121846668Y-77826219D01*
X121904008Y-77786295D01*
X121973830Y-77783708D01*
X122019484Y-77806043D01*
X122163933Y-77918472D01*
X122375344Y-78032882D01*
X122375347Y-78032883D01*
X122602699Y-78110933D01*
X122602701Y-78110933D01*
X122602703Y-78110934D01*
X122839808Y-78150500D01*
X122839809Y-78150500D01*
X123080191Y-78150500D01*
X123080192Y-78150500D01*
X123317297Y-78110934D01*
X123544656Y-78032882D01*
X123756067Y-77918472D01*
X123821322Y-77867682D01*
X134074858Y-77867682D01*
X134095385Y-78115406D01*
X134095387Y-78115415D01*
X134156412Y-78356394D01*
X134256266Y-78584041D01*
X134392235Y-78792157D01*
X134447229Y-78851895D01*
X134478152Y-78914549D01*
X134480000Y-78935879D01*
X134480000Y-78970000D01*
X134511545Y-78970000D01*
X134578584Y-78989685D01*
X134587707Y-78996147D01*
X134756762Y-79127728D01*
X134756771Y-79127734D01*
X134975385Y-79246041D01*
X134975396Y-79246046D01*
X135210506Y-79326760D01*
X135455707Y-79367677D01*
X135704293Y-79367677D01*
X135949493Y-79326760D01*
X136184603Y-79246046D01*
X136184614Y-79246041D01*
X136403228Y-79127734D01*
X136403237Y-79127728D01*
X136572293Y-78996147D01*
X136637287Y-78970504D01*
X136648455Y-78970000D01*
X136680000Y-78970000D01*
X136680000Y-78935879D01*
X136699685Y-78868840D01*
X136712771Y-78851895D01*
X136767764Y-78792157D01*
X136903733Y-78584041D01*
X137003587Y-78356394D01*
X137064612Y-78115415D01*
X137064614Y-78115406D01*
X137085141Y-77867682D01*
X137085141Y-77867671D01*
X137064614Y-77619947D01*
X137064612Y-77619938D01*
X137003587Y-77378959D01*
X136903732Y-77151309D01*
X136767770Y-76943202D01*
X136712770Y-76883456D01*
X136681848Y-76820801D01*
X136680000Y-76799473D01*
X136680000Y-76760000D01*
X136641576Y-76760000D01*
X136574537Y-76740315D01*
X136565414Y-76733853D01*
X136403237Y-76607625D01*
X136403228Y-76607619D01*
X136184614Y-76489312D01*
X136184603Y-76489307D01*
X135949493Y-76408593D01*
X135704293Y-76367677D01*
X135455707Y-76367677D01*
X135210506Y-76408593D01*
X134975396Y-76489307D01*
X134975385Y-76489312D01*
X134756771Y-76607619D01*
X134756762Y-76607625D01*
X134594586Y-76733853D01*
X134529592Y-76759496D01*
X134518424Y-76760000D01*
X134480000Y-76760000D01*
X134480000Y-76799473D01*
X134460315Y-76866512D01*
X134447230Y-76883456D01*
X134392229Y-76943202D01*
X134256267Y-77151309D01*
X134156412Y-77378959D01*
X134095387Y-77619938D01*
X134095385Y-77619947D01*
X134074858Y-77867671D01*
X134074858Y-77867682D01*
X123821322Y-77867682D01*
X123945764Y-77770825D01*
X124108571Y-77593969D01*
X124240049Y-77392728D01*
X124336610Y-77172591D01*
X124395620Y-76939563D01*
X124406401Y-76809458D01*
X124415471Y-76700005D01*
X124415471Y-76699994D01*
X124395620Y-76460440D01*
X124395620Y-76460437D01*
X124336610Y-76227409D01*
X124240049Y-76007272D01*
X124108571Y-75806031D01*
X123945764Y-75629175D01*
X123945759Y-75629171D01*
X123945757Y-75629169D01*
X123795672Y-75512353D01*
X123754859Y-75455643D01*
X123751184Y-75385870D01*
X123785816Y-75325187D01*
X123847757Y-75292860D01*
X123871834Y-75290500D01*
X129295268Y-75290500D01*
X129322859Y-75293608D01*
X129325954Y-75294315D01*
X129374561Y-75290672D01*
X129379178Y-75290500D01*
X129393759Y-75290500D01*
X129393762Y-75290500D01*
X129408219Y-75288320D01*
X129412759Y-75287808D01*
X129461378Y-75284166D01*
X129464329Y-75283007D01*
X129491158Y-75275819D01*
X129494287Y-75275348D01*
X129538197Y-75254200D01*
X129542415Y-75252360D01*
X129587794Y-75234552D01*
X129590272Y-75232575D01*
X129613786Y-75217799D01*
X129616642Y-75216425D01*
X129652368Y-75183274D01*
X129655856Y-75180272D01*
X129693970Y-75149879D01*
X129695754Y-75147261D01*
X129713872Y-75126209D01*
X129716194Y-75124055D01*
X129740563Y-75081843D01*
X129742999Y-75077966D01*
X129770472Y-75037673D01*
X129771406Y-75034641D01*
X129782513Y-75009186D01*
X129784096Y-75006445D01*
X129794940Y-74958927D01*
X129796139Y-74954459D01*
X129810500Y-74907901D01*
X129810500Y-74904733D01*
X129813609Y-74877139D01*
X129814315Y-74874045D01*
X129811517Y-74836712D01*
X129810672Y-74825439D01*
X129810500Y-74820821D01*
X129810500Y-74661053D01*
X129830185Y-74594014D01*
X129882989Y-74548259D01*
X129952147Y-74538315D01*
X129986905Y-74548671D01*
X130164616Y-74631538D01*
X130164625Y-74631542D01*
X130378109Y-74688743D01*
X130378109Y-73793610D01*
X130485794Y-73842789D01*
X130592346Y-73858109D01*
X130663872Y-73858109D01*
X130770424Y-73842789D01*
X130878109Y-73793610D01*
X130878109Y-74688742D01*
X131091592Y-74631542D01*
X131091601Y-74631538D01*
X131305687Y-74531709D01*
X131499191Y-74396214D01*
X131666214Y-74229191D01*
X131801709Y-74035687D01*
X131901538Y-73821601D01*
X131901540Y-73821598D01*
X131910515Y-73788101D01*
X131946879Y-73728440D01*
X132009725Y-73697909D01*
X132079101Y-73706203D01*
X132132980Y-73750687D01*
X132141291Y-73764920D01*
X132228436Y-73939930D01*
X132351346Y-74102690D01*
X132502067Y-74240089D01*
X132502069Y-74240091D01*
X132601250Y-74301501D01*
X132675472Y-74347457D01*
X132865653Y-74421133D01*
X133066133Y-74458609D01*
X133066135Y-74458609D01*
X133270083Y-74458609D01*
X133270085Y-74458609D01*
X133470565Y-74421133D01*
X133660746Y-74347457D01*
X133834150Y-74240090D01*
X133984873Y-74102688D01*
X134107782Y-73939930D01*
X134198691Y-73757359D01*
X134254506Y-73561192D01*
X134273324Y-73358109D01*
X134254506Y-73155026D01*
X134198691Y-72958859D01*
X134183383Y-72928117D01*
X134148524Y-72858109D01*
X134107782Y-72776288D01*
X134030436Y-72673865D01*
X133984871Y-72613527D01*
X133834150Y-72476128D01*
X133834148Y-72476126D01*
X133660751Y-72368764D01*
X133660744Y-72368760D01*
X133534878Y-72320000D01*
X133470565Y-72295085D01*
X133270085Y-72257609D01*
X133066133Y-72257609D01*
X132865653Y-72295085D01*
X132865650Y-72295085D01*
X132865650Y-72295086D01*
X132675473Y-72368760D01*
X132675466Y-72368764D01*
X132502069Y-72476126D01*
X132502067Y-72476128D01*
X132351346Y-72613527D01*
X132228436Y-72776287D01*
X132141291Y-72951297D01*
X132093788Y-73002534D01*
X132026125Y-73019955D01*
X131959785Y-72998029D01*
X131915830Y-72943718D01*
X131910516Y-72928117D01*
X131901543Y-72894627D01*
X131901538Y-72894616D01*
X131801709Y-72680531D01*
X131801708Y-72680529D01*
X131666222Y-72487035D01*
X131666217Y-72487029D01*
X131499191Y-72320003D01*
X131305687Y-72184508D01*
X131091601Y-72084679D01*
X131091586Y-72084673D01*
X131052523Y-72074206D01*
X130992863Y-72037841D01*
X130962335Y-71974994D01*
X130970630Y-71905618D01*
X131015116Y-71851741D01*
X131039819Y-71838807D01*
X131120746Y-71807457D01*
X131294150Y-71700090D01*
X131438378Y-71568609D01*
X131444871Y-71562690D01*
X131450276Y-71555533D01*
X131567782Y-71399930D01*
X131658691Y-71217359D01*
X131714506Y-71021192D01*
X131733324Y-70818109D01*
X132062894Y-70818109D01*
X132081711Y-71021191D01*
X132137526Y-71217356D01*
X132137531Y-71217369D01*
X132228436Y-71399930D01*
X132351346Y-71562690D01*
X132502067Y-71700089D01*
X132502069Y-71700091D01*
X132601250Y-71761501D01*
X132675472Y-71807457D01*
X132865653Y-71881133D01*
X133066133Y-71918609D01*
X133066135Y-71918609D01*
X133270083Y-71918609D01*
X133270085Y-71918609D01*
X133470565Y-71881133D01*
X133660746Y-71807457D01*
X133834150Y-71700090D01*
X133978378Y-71568609D01*
X133984871Y-71562690D01*
X133990276Y-71555533D01*
X134107782Y-71399930D01*
X134169707Y-71275565D01*
X134194926Y-71224921D01*
X134242428Y-71173684D01*
X134310091Y-71156262D01*
X134376432Y-71178187D01*
X134420387Y-71232498D01*
X134425701Y-71248098D01*
X134434676Y-71281594D01*
X134434679Y-71281601D01*
X134534508Y-71495687D01*
X134670003Y-71689191D01*
X134837026Y-71856214D01*
X135030530Y-71991709D01*
X135244616Y-72091538D01*
X135244625Y-72091542D01*
X135283692Y-72102010D01*
X135343353Y-72138375D01*
X135373882Y-72201222D01*
X135365588Y-72270597D01*
X135321102Y-72324475D01*
X135296393Y-72337411D01*
X135215482Y-72368756D01*
X135215466Y-72368764D01*
X135042069Y-72476126D01*
X135042067Y-72476128D01*
X134891346Y-72613527D01*
X134768436Y-72776287D01*
X134677531Y-72958848D01*
X134677526Y-72958861D01*
X134621711Y-73155026D01*
X134602894Y-73358108D01*
X134602894Y-73358109D01*
X134621711Y-73561191D01*
X134677526Y-73757356D01*
X134677531Y-73757369D01*
X134768436Y-73939930D01*
X134891346Y-74102690D01*
X135042067Y-74240089D01*
X135042069Y-74240091D01*
X135141250Y-74301501D01*
X135215472Y-74347457D01*
X135405653Y-74421133D01*
X135606133Y-74458609D01*
X135606135Y-74458609D01*
X135810083Y-74458609D01*
X135810085Y-74458609D01*
X136010565Y-74421133D01*
X136200746Y-74347457D01*
X136374150Y-74240090D01*
X136524873Y-74102688D01*
X136647782Y-73939930D01*
X136738691Y-73757359D01*
X136794506Y-73561192D01*
X136813324Y-73358109D01*
X137142894Y-73358109D01*
X137161711Y-73561191D01*
X137217526Y-73757356D01*
X137217531Y-73757369D01*
X137308436Y-73939930D01*
X137431346Y-74102690D01*
X137582067Y-74240089D01*
X137582069Y-74240091D01*
X137681250Y-74301501D01*
X137755472Y-74347457D01*
X137945653Y-74421133D01*
X138146133Y-74458609D01*
X138146135Y-74458609D01*
X138350083Y-74458609D01*
X138350085Y-74458609D01*
X138550565Y-74421133D01*
X138740746Y-74347457D01*
X138914150Y-74240090D01*
X139064873Y-74102688D01*
X139187782Y-73939930D01*
X139278691Y-73757359D01*
X139334506Y-73561192D01*
X139353324Y-73358109D01*
X139682894Y-73358109D01*
X139701711Y-73561191D01*
X139757526Y-73757356D01*
X139757531Y-73757369D01*
X139848436Y-73939930D01*
X139971346Y-74102690D01*
X140122067Y-74240089D01*
X140122069Y-74240091D01*
X140221250Y-74301501D01*
X140295472Y-74347457D01*
X140485653Y-74421133D01*
X140686133Y-74458609D01*
X140686135Y-74458609D01*
X140890083Y-74458609D01*
X140890085Y-74458609D01*
X141090565Y-74421133D01*
X141280746Y-74347457D01*
X141454150Y-74240090D01*
X141604873Y-74102688D01*
X141727782Y-73939930D01*
X141818691Y-73757359D01*
X141874506Y-73561192D01*
X141893324Y-73358109D01*
X141874506Y-73155026D01*
X141818691Y-72958859D01*
X141803383Y-72928117D01*
X141768524Y-72858109D01*
X141727782Y-72776288D01*
X141650436Y-72673865D01*
X141604871Y-72613527D01*
X141454150Y-72476128D01*
X141454148Y-72476126D01*
X141280751Y-72368764D01*
X141280744Y-72368760D01*
X141154878Y-72320000D01*
X141090565Y-72295085D01*
X140890085Y-72257609D01*
X140686133Y-72257609D01*
X140485653Y-72295085D01*
X140485650Y-72295085D01*
X140485650Y-72295086D01*
X140295473Y-72368760D01*
X140295466Y-72368764D01*
X140122069Y-72476126D01*
X140122067Y-72476128D01*
X139971346Y-72613527D01*
X139848436Y-72776287D01*
X139757531Y-72958848D01*
X139757526Y-72958861D01*
X139701711Y-73155026D01*
X139682894Y-73358108D01*
X139682894Y-73358109D01*
X139353324Y-73358109D01*
X139334506Y-73155026D01*
X139278691Y-72958859D01*
X139263383Y-72928117D01*
X139228524Y-72858109D01*
X139187782Y-72776288D01*
X139110436Y-72673865D01*
X139064871Y-72613527D01*
X138914150Y-72476128D01*
X138914148Y-72476126D01*
X138740751Y-72368764D01*
X138740744Y-72368760D01*
X138614878Y-72320000D01*
X138550565Y-72295085D01*
X138350085Y-72257609D01*
X138146133Y-72257609D01*
X137945653Y-72295085D01*
X137945650Y-72295085D01*
X137945650Y-72295086D01*
X137755473Y-72368760D01*
X137755466Y-72368764D01*
X137582069Y-72476126D01*
X137582067Y-72476128D01*
X137431346Y-72613527D01*
X137308436Y-72776287D01*
X137217531Y-72958848D01*
X137217526Y-72958861D01*
X137161711Y-73155026D01*
X137142894Y-73358108D01*
X137142894Y-73358109D01*
X136813324Y-73358109D01*
X136794506Y-73155026D01*
X136738691Y-72958859D01*
X136723383Y-72928117D01*
X136688524Y-72858109D01*
X136647782Y-72776288D01*
X136570436Y-72673865D01*
X136524871Y-72613527D01*
X136374150Y-72476128D01*
X136374148Y-72476126D01*
X136200751Y-72368764D01*
X136200744Y-72368760D01*
X136119824Y-72337412D01*
X136064422Y-72294839D01*
X136040832Y-72229072D01*
X136056543Y-72160992D01*
X136106567Y-72112213D01*
X136132526Y-72102010D01*
X136171590Y-72091543D01*
X136171601Y-72091538D01*
X136385687Y-71991709D01*
X136579191Y-71856214D01*
X136746214Y-71689191D01*
X136881709Y-71495687D01*
X136981538Y-71281601D01*
X136981540Y-71281598D01*
X136990515Y-71248101D01*
X137026879Y-71188440D01*
X137089725Y-71157909D01*
X137159101Y-71166203D01*
X137212980Y-71210687D01*
X137221291Y-71224920D01*
X137308436Y-71399930D01*
X137431346Y-71562690D01*
X137582067Y-71700089D01*
X137582069Y-71700091D01*
X137681250Y-71761501D01*
X137755472Y-71807457D01*
X137945653Y-71881133D01*
X138146133Y-71918609D01*
X138146135Y-71918609D01*
X138350083Y-71918609D01*
X138350085Y-71918609D01*
X138550565Y-71881133D01*
X138740746Y-71807457D01*
X138914150Y-71700090D01*
X139058378Y-71568609D01*
X139064871Y-71562690D01*
X139070276Y-71555533D01*
X139187782Y-71399930D01*
X139278691Y-71217359D01*
X139334506Y-71021192D01*
X139353324Y-70818109D01*
X139682894Y-70818109D01*
X139701711Y-71021191D01*
X139757526Y-71217356D01*
X139757531Y-71217369D01*
X139848436Y-71399930D01*
X139971346Y-71562690D01*
X140122067Y-71700089D01*
X140122069Y-71700091D01*
X140221250Y-71761501D01*
X140295472Y-71807457D01*
X140485653Y-71881133D01*
X140686133Y-71918609D01*
X140686135Y-71918609D01*
X140890083Y-71918609D01*
X140890085Y-71918609D01*
X141090565Y-71881133D01*
X141280746Y-71807457D01*
X141454150Y-71700090D01*
X141598378Y-71568609D01*
X141604871Y-71562690D01*
X141610276Y-71555533D01*
X141727782Y-71399930D01*
X141789707Y-71275565D01*
X141814926Y-71224921D01*
X141862428Y-71173684D01*
X141930091Y-71156262D01*
X141996432Y-71178187D01*
X142040387Y-71232498D01*
X142045701Y-71248098D01*
X142054676Y-71281594D01*
X142054679Y-71281601D01*
X142154508Y-71495687D01*
X142290003Y-71689191D01*
X142457026Y-71856214D01*
X142650530Y-71991709D01*
X142864616Y-72091538D01*
X142864625Y-72091542D01*
X142903692Y-72102010D01*
X142963353Y-72138375D01*
X142993882Y-72201222D01*
X142985588Y-72270597D01*
X142941102Y-72324475D01*
X142916393Y-72337411D01*
X142835482Y-72368756D01*
X142835466Y-72368764D01*
X142662069Y-72476126D01*
X142662067Y-72476128D01*
X142511346Y-72613527D01*
X142388436Y-72776287D01*
X142297531Y-72958848D01*
X142297526Y-72958861D01*
X142241711Y-73155026D01*
X142222894Y-73358108D01*
X142222894Y-73358109D01*
X142241711Y-73561191D01*
X142297526Y-73757356D01*
X142297531Y-73757369D01*
X142388436Y-73939930D01*
X142511346Y-74102690D01*
X142662067Y-74240089D01*
X142662069Y-74240091D01*
X142761250Y-74301501D01*
X142835472Y-74347457D01*
X143025653Y-74421133D01*
X143226133Y-74458609D01*
X143226135Y-74458609D01*
X143430083Y-74458609D01*
X143430085Y-74458609D01*
X143630565Y-74421133D01*
X143820746Y-74347457D01*
X143994150Y-74240090D01*
X144144873Y-74102688D01*
X144267782Y-73939930D01*
X144358691Y-73757359D01*
X144414506Y-73561192D01*
X144433324Y-73358109D01*
X144762894Y-73358109D01*
X144781711Y-73561191D01*
X144837526Y-73757356D01*
X144837531Y-73757369D01*
X144928436Y-73939930D01*
X145051346Y-74102690D01*
X145202067Y-74240089D01*
X145202069Y-74240091D01*
X145301250Y-74301501D01*
X145375472Y-74347457D01*
X145565653Y-74421133D01*
X145766133Y-74458609D01*
X145766135Y-74458609D01*
X145970083Y-74458609D01*
X145970085Y-74458609D01*
X146170565Y-74421133D01*
X146360746Y-74347457D01*
X146534150Y-74240090D01*
X146684873Y-74102688D01*
X146807782Y-73939930D01*
X146898691Y-73757359D01*
X146954506Y-73561192D01*
X146973324Y-73358109D01*
X147302894Y-73358109D01*
X147321711Y-73561191D01*
X147377526Y-73757356D01*
X147377531Y-73757369D01*
X147468436Y-73939930D01*
X147591346Y-74102690D01*
X147742067Y-74240089D01*
X147742069Y-74240091D01*
X147841250Y-74301501D01*
X147915472Y-74347457D01*
X148105653Y-74421133D01*
X148306133Y-74458609D01*
X148306135Y-74458609D01*
X148510083Y-74458609D01*
X148510085Y-74458609D01*
X148710565Y-74421133D01*
X148900746Y-74347457D01*
X149074150Y-74240090D01*
X149224873Y-74102688D01*
X149347782Y-73939930D01*
X149411010Y-73812950D01*
X149434926Y-73764921D01*
X149482428Y-73713684D01*
X149550091Y-73696262D01*
X149616432Y-73718187D01*
X149660387Y-73772498D01*
X149665701Y-73788098D01*
X149674676Y-73821594D01*
X149674679Y-73821601D01*
X149774508Y-74035687D01*
X149910003Y-74229191D01*
X150077026Y-74396214D01*
X150270530Y-74531709D01*
X150484616Y-74631538D01*
X150484625Y-74631542D01*
X150698109Y-74688743D01*
X150698109Y-73793610D01*
X150805794Y-73842789D01*
X150912346Y-73858109D01*
X150983872Y-73858109D01*
X151090424Y-73842789D01*
X151198109Y-73793610D01*
X151198109Y-74688742D01*
X151411592Y-74631542D01*
X151411601Y-74631538D01*
X151625687Y-74531709D01*
X151819191Y-74396214D01*
X151986214Y-74229191D01*
X152121709Y-74035687D01*
X152221538Y-73821601D01*
X152221540Y-73821598D01*
X152230515Y-73788101D01*
X152266879Y-73728440D01*
X152329725Y-73697909D01*
X152399101Y-73706203D01*
X152452980Y-73750687D01*
X152461291Y-73764920D01*
X152548436Y-73939930D01*
X152671346Y-74102690D01*
X152822067Y-74240089D01*
X152822069Y-74240091D01*
X152921250Y-74301501D01*
X152995472Y-74347457D01*
X153185653Y-74421133D01*
X153386133Y-74458609D01*
X153386135Y-74458609D01*
X153590083Y-74458609D01*
X153590085Y-74458609D01*
X153790565Y-74421133D01*
X153980746Y-74347457D01*
X154154150Y-74240090D01*
X154304873Y-74102688D01*
X154427782Y-73939930D01*
X154518691Y-73757359D01*
X154574506Y-73561192D01*
X154593324Y-73358109D01*
X154574506Y-73155026D01*
X154518691Y-72958859D01*
X154503383Y-72928117D01*
X154468524Y-72858109D01*
X154427782Y-72776288D01*
X154350436Y-72673865D01*
X154304871Y-72613527D01*
X154154150Y-72476128D01*
X154154148Y-72476126D01*
X153980751Y-72368764D01*
X153980744Y-72368760D01*
X153854878Y-72320000D01*
X153790565Y-72295085D01*
X153590085Y-72257609D01*
X153386133Y-72257609D01*
X153185653Y-72295085D01*
X153185650Y-72295085D01*
X153185650Y-72295086D01*
X152995473Y-72368760D01*
X152995466Y-72368764D01*
X152822069Y-72476126D01*
X152822067Y-72476128D01*
X152671346Y-72613527D01*
X152548436Y-72776287D01*
X152461291Y-72951297D01*
X152413788Y-73002534D01*
X152346125Y-73019955D01*
X152279785Y-72998029D01*
X152235830Y-72943718D01*
X152230516Y-72928117D01*
X152221543Y-72894627D01*
X152221538Y-72894616D01*
X152121709Y-72680531D01*
X152121708Y-72680529D01*
X151986222Y-72487035D01*
X151986217Y-72487029D01*
X151819191Y-72320003D01*
X151625687Y-72184508D01*
X151411601Y-72084679D01*
X151411586Y-72084673D01*
X151372523Y-72074206D01*
X151312863Y-72037841D01*
X151282335Y-71974994D01*
X151290630Y-71905618D01*
X151335116Y-71851741D01*
X151359819Y-71838807D01*
X151440746Y-71807457D01*
X151614150Y-71700090D01*
X151758378Y-71568609D01*
X151764871Y-71562690D01*
X151770276Y-71555533D01*
X151887782Y-71399930D01*
X151978691Y-71217359D01*
X152034506Y-71021192D01*
X152053324Y-70818109D01*
X152034506Y-70615026D01*
X151978691Y-70418859D01*
X151963383Y-70388117D01*
X151928524Y-70318109D01*
X151887782Y-70236288D01*
X151764873Y-70073530D01*
X151764871Y-70073527D01*
X151614150Y-69936128D01*
X151614148Y-69936126D01*
X151440751Y-69828764D01*
X151440744Y-69828760D01*
X151314878Y-69780000D01*
X151250565Y-69755085D01*
X151050085Y-69717609D01*
X150846133Y-69717609D01*
X150645653Y-69755085D01*
X150645650Y-69755085D01*
X150645650Y-69755086D01*
X150455473Y-69828760D01*
X150455466Y-69828764D01*
X150282069Y-69936126D01*
X150282067Y-69936128D01*
X150131346Y-70073527D01*
X150008436Y-70236287D01*
X149917531Y-70418848D01*
X149917526Y-70418861D01*
X149861711Y-70615026D01*
X149842894Y-70818108D01*
X149842894Y-70818109D01*
X149861711Y-71021191D01*
X149917526Y-71217356D01*
X149917531Y-71217369D01*
X150008436Y-71399930D01*
X150131346Y-71562690D01*
X150282067Y-71700089D01*
X150282069Y-71700091D01*
X150381250Y-71761501D01*
X150455472Y-71807457D01*
X150536392Y-71838805D01*
X150591794Y-71881378D01*
X150615385Y-71947144D01*
X150599674Y-72015225D01*
X150549651Y-72064004D01*
X150523695Y-72074206D01*
X150484628Y-72084674D01*
X150484616Y-72084679D01*
X150270531Y-72184508D01*
X150270529Y-72184509D01*
X150077035Y-72319995D01*
X150077029Y-72320000D01*
X149910000Y-72487029D01*
X149909995Y-72487035D01*
X149774509Y-72680529D01*
X149774508Y-72680531D01*
X149674679Y-72894616D01*
X149674677Y-72894620D01*
X149665701Y-72928120D01*
X149629335Y-72987780D01*
X149566488Y-73018308D01*
X149497112Y-73010013D01*
X149443235Y-72965527D01*
X149434926Y-72951297D01*
X149388524Y-72858109D01*
X149347782Y-72776288D01*
X149270436Y-72673865D01*
X149224871Y-72613527D01*
X149074150Y-72476128D01*
X149074148Y-72476126D01*
X148900751Y-72368764D01*
X148900744Y-72368760D01*
X148774878Y-72320000D01*
X148710565Y-72295085D01*
X148510085Y-72257609D01*
X148306133Y-72257609D01*
X148105653Y-72295085D01*
X148105650Y-72295085D01*
X148105650Y-72295086D01*
X147915473Y-72368760D01*
X147915466Y-72368764D01*
X147742069Y-72476126D01*
X147742067Y-72476128D01*
X147591346Y-72613527D01*
X147468436Y-72776287D01*
X147377531Y-72958848D01*
X147377526Y-72958861D01*
X147321711Y-73155026D01*
X147302894Y-73358108D01*
X147302894Y-73358109D01*
X146973324Y-73358109D01*
X146954506Y-73155026D01*
X146898691Y-72958859D01*
X146883383Y-72928117D01*
X146848524Y-72858109D01*
X146807782Y-72776288D01*
X146730436Y-72673865D01*
X146684871Y-72613527D01*
X146534150Y-72476128D01*
X146534148Y-72476126D01*
X146360751Y-72368764D01*
X146360744Y-72368760D01*
X146234878Y-72320000D01*
X146170565Y-72295085D01*
X145970085Y-72257609D01*
X145766133Y-72257609D01*
X145565653Y-72295085D01*
X145565650Y-72295085D01*
X145565650Y-72295086D01*
X145375473Y-72368760D01*
X145375466Y-72368764D01*
X145202069Y-72476126D01*
X145202067Y-72476128D01*
X145051346Y-72613527D01*
X144928436Y-72776287D01*
X144837531Y-72958848D01*
X144837526Y-72958861D01*
X144781711Y-73155026D01*
X144762894Y-73358108D01*
X144762894Y-73358109D01*
X144433324Y-73358109D01*
X144414506Y-73155026D01*
X144358691Y-72958859D01*
X144343383Y-72928117D01*
X144308524Y-72858109D01*
X144267782Y-72776288D01*
X144190436Y-72673865D01*
X144144871Y-72613527D01*
X143994150Y-72476128D01*
X143994148Y-72476126D01*
X143820751Y-72368764D01*
X143820744Y-72368760D01*
X143739824Y-72337412D01*
X143684422Y-72294839D01*
X143660832Y-72229072D01*
X143676543Y-72160992D01*
X143726567Y-72112213D01*
X143752526Y-72102010D01*
X143791590Y-72091543D01*
X143791601Y-72091538D01*
X144005687Y-71991709D01*
X144199191Y-71856214D01*
X144366214Y-71689191D01*
X144501709Y-71495687D01*
X144601538Y-71281601D01*
X144601540Y-71281598D01*
X144610515Y-71248101D01*
X144646879Y-71188440D01*
X144709725Y-71157909D01*
X144779101Y-71166203D01*
X144832980Y-71210687D01*
X144841291Y-71224920D01*
X144928436Y-71399930D01*
X145051346Y-71562690D01*
X145202067Y-71700089D01*
X145202069Y-71700091D01*
X145301250Y-71761501D01*
X145375472Y-71807457D01*
X145565653Y-71881133D01*
X145766133Y-71918609D01*
X145766135Y-71918609D01*
X145970083Y-71918609D01*
X145970085Y-71918609D01*
X146170565Y-71881133D01*
X146360746Y-71807457D01*
X146534150Y-71700090D01*
X146678378Y-71568609D01*
X146684871Y-71562690D01*
X146690276Y-71555533D01*
X146807782Y-71399930D01*
X146898691Y-71217359D01*
X146954506Y-71021192D01*
X146973324Y-70818109D01*
X147302894Y-70818109D01*
X147321711Y-71021191D01*
X147377526Y-71217356D01*
X147377531Y-71217369D01*
X147468436Y-71399930D01*
X147591346Y-71562690D01*
X147742067Y-71700089D01*
X147742069Y-71700091D01*
X147841250Y-71761501D01*
X147915472Y-71807457D01*
X148105653Y-71881133D01*
X148306133Y-71918609D01*
X148306135Y-71918609D01*
X148510083Y-71918609D01*
X148510085Y-71918609D01*
X148710565Y-71881133D01*
X148900746Y-71807457D01*
X149074150Y-71700090D01*
X149218378Y-71568609D01*
X149224871Y-71562690D01*
X149230276Y-71555533D01*
X149347782Y-71399930D01*
X149438691Y-71217359D01*
X149494506Y-71021192D01*
X149513324Y-70818109D01*
X149494506Y-70615026D01*
X149438691Y-70418859D01*
X149423383Y-70388117D01*
X149388524Y-70318109D01*
X149347782Y-70236288D01*
X149224873Y-70073530D01*
X149224871Y-70073527D01*
X149074150Y-69936128D01*
X149074148Y-69936126D01*
X148900751Y-69828764D01*
X148900744Y-69828760D01*
X148774878Y-69780000D01*
X148710565Y-69755085D01*
X148510085Y-69717609D01*
X148306133Y-69717609D01*
X148105653Y-69755085D01*
X148105650Y-69755085D01*
X148105650Y-69755086D01*
X147915473Y-69828760D01*
X147915466Y-69828764D01*
X147742069Y-69936126D01*
X147742067Y-69936128D01*
X147591346Y-70073527D01*
X147468436Y-70236287D01*
X147377531Y-70418848D01*
X147377526Y-70418861D01*
X147321711Y-70615026D01*
X147302894Y-70818108D01*
X147302894Y-70818109D01*
X146973324Y-70818109D01*
X146954506Y-70615026D01*
X146898691Y-70418859D01*
X146883383Y-70388117D01*
X146848524Y-70318109D01*
X146807782Y-70236288D01*
X146684873Y-70073530D01*
X146684871Y-70073527D01*
X146534150Y-69936128D01*
X146534148Y-69936126D01*
X146360751Y-69828764D01*
X146360744Y-69828760D01*
X146234878Y-69780000D01*
X146170565Y-69755085D01*
X145970085Y-69717609D01*
X145766133Y-69717609D01*
X145565653Y-69755085D01*
X145565650Y-69755085D01*
X145565650Y-69755086D01*
X145375473Y-69828760D01*
X145375466Y-69828764D01*
X145202069Y-69936126D01*
X145202067Y-69936128D01*
X145051346Y-70073527D01*
X144928436Y-70236287D01*
X144841291Y-70411297D01*
X144793788Y-70462534D01*
X144726125Y-70479955D01*
X144659785Y-70458029D01*
X144615830Y-70403718D01*
X144610516Y-70388117D01*
X144601543Y-70354627D01*
X144601538Y-70354616D01*
X144501709Y-70140531D01*
X144501708Y-70140529D01*
X144366222Y-69947035D01*
X144366217Y-69947029D01*
X144199191Y-69780003D01*
X144005687Y-69644508D01*
X143791601Y-69544679D01*
X143791595Y-69544676D01*
X143578109Y-69487473D01*
X143578109Y-70382607D01*
X143470424Y-70333429D01*
X143363872Y-70318109D01*
X143292346Y-70318109D01*
X143185794Y-70333429D01*
X143078109Y-70382607D01*
X143078109Y-69487473D01*
X143078108Y-69487473D01*
X142864622Y-69544676D01*
X142864616Y-69544679D01*
X142650531Y-69644508D01*
X142650529Y-69644509D01*
X142457035Y-69779995D01*
X142457029Y-69780000D01*
X142290000Y-69947029D01*
X142289995Y-69947035D01*
X142154509Y-70140529D01*
X142154508Y-70140531D01*
X142054679Y-70354616D01*
X142054677Y-70354620D01*
X142045701Y-70388120D01*
X142009335Y-70447780D01*
X141946488Y-70478308D01*
X141877112Y-70470013D01*
X141823235Y-70425527D01*
X141814926Y-70411297D01*
X141768524Y-70318109D01*
X141727782Y-70236288D01*
X141604873Y-70073530D01*
X141604871Y-70073527D01*
X141454150Y-69936128D01*
X141454148Y-69936126D01*
X141280751Y-69828764D01*
X141280744Y-69828760D01*
X141154878Y-69780000D01*
X141090565Y-69755085D01*
X140890085Y-69717609D01*
X140686133Y-69717609D01*
X140485653Y-69755085D01*
X140485650Y-69755085D01*
X140485650Y-69755086D01*
X140295473Y-69828760D01*
X140295466Y-69828764D01*
X140122069Y-69936126D01*
X140122067Y-69936128D01*
X139971346Y-70073527D01*
X139848436Y-70236287D01*
X139757531Y-70418848D01*
X139757526Y-70418861D01*
X139701711Y-70615026D01*
X139682894Y-70818108D01*
X139682894Y-70818109D01*
X139353324Y-70818109D01*
X139334506Y-70615026D01*
X139278691Y-70418859D01*
X139263383Y-70388117D01*
X139228524Y-70318109D01*
X139187782Y-70236288D01*
X139064873Y-70073530D01*
X139064871Y-70073527D01*
X138914150Y-69936128D01*
X138914148Y-69936126D01*
X138740751Y-69828764D01*
X138740744Y-69828760D01*
X138614878Y-69780000D01*
X138550565Y-69755085D01*
X138350085Y-69717609D01*
X138146133Y-69717609D01*
X137945653Y-69755085D01*
X137945650Y-69755085D01*
X137945650Y-69755086D01*
X137755473Y-69828760D01*
X137755466Y-69828764D01*
X137582069Y-69936126D01*
X137582067Y-69936128D01*
X137431346Y-70073527D01*
X137308436Y-70236287D01*
X137221291Y-70411297D01*
X137173788Y-70462534D01*
X137106125Y-70479955D01*
X137039785Y-70458029D01*
X136995830Y-70403718D01*
X136990516Y-70388117D01*
X136981543Y-70354627D01*
X136981538Y-70354616D01*
X136881709Y-70140531D01*
X136881708Y-70140529D01*
X136746222Y-69947035D01*
X136746217Y-69947029D01*
X136579191Y-69780003D01*
X136385687Y-69644508D01*
X136171601Y-69544679D01*
X136171595Y-69544676D01*
X135958109Y-69487473D01*
X135958109Y-70382607D01*
X135850424Y-70333429D01*
X135743872Y-70318109D01*
X135672346Y-70318109D01*
X135565794Y-70333429D01*
X135458109Y-70382607D01*
X135458109Y-69487473D01*
X135458108Y-69487473D01*
X135244622Y-69544676D01*
X135244616Y-69544679D01*
X135030531Y-69644508D01*
X135030529Y-69644509D01*
X134837035Y-69779995D01*
X134837029Y-69780000D01*
X134670000Y-69947029D01*
X134669995Y-69947035D01*
X134534509Y-70140529D01*
X134534508Y-70140531D01*
X134434679Y-70354616D01*
X134434677Y-70354620D01*
X134425701Y-70388120D01*
X134389335Y-70447780D01*
X134326488Y-70478308D01*
X134257112Y-70470013D01*
X134203235Y-70425527D01*
X134194926Y-70411297D01*
X134148524Y-70318109D01*
X134107782Y-70236288D01*
X133984873Y-70073530D01*
X133984871Y-70073527D01*
X133834150Y-69936128D01*
X133834148Y-69936126D01*
X133660751Y-69828764D01*
X133660744Y-69828760D01*
X133534878Y-69780000D01*
X133470565Y-69755085D01*
X133270085Y-69717609D01*
X133066133Y-69717609D01*
X132865653Y-69755085D01*
X132865650Y-69755085D01*
X132865650Y-69755086D01*
X132675473Y-69828760D01*
X132675466Y-69828764D01*
X132502069Y-69936126D01*
X132502067Y-69936128D01*
X132351346Y-70073527D01*
X132228436Y-70236287D01*
X132137531Y-70418848D01*
X132137526Y-70418861D01*
X132081711Y-70615026D01*
X132062894Y-70818108D01*
X132062894Y-70818109D01*
X131733324Y-70818109D01*
X131714506Y-70615026D01*
X131658691Y-70418859D01*
X131643383Y-70388117D01*
X131608524Y-70318109D01*
X131567782Y-70236288D01*
X131444873Y-70073530D01*
X131444871Y-70073527D01*
X131294150Y-69936128D01*
X131294148Y-69936126D01*
X131120751Y-69828764D01*
X131120744Y-69828760D01*
X130994878Y-69780000D01*
X130930565Y-69755085D01*
X130730085Y-69717609D01*
X130526133Y-69717609D01*
X130325653Y-69755085D01*
X130325650Y-69755085D01*
X130325650Y-69755086D01*
X130135473Y-69828760D01*
X130135466Y-69828764D01*
X129962069Y-69936126D01*
X129962067Y-69936128D01*
X129811346Y-70073527D01*
X129688436Y-70236287D01*
X129597528Y-70418854D01*
X129591530Y-70439936D01*
X129554249Y-70499029D01*
X129490939Y-70528586D01*
X129472264Y-70530000D01*
X129243954Y-70530000D01*
X129176915Y-70510315D01*
X129131160Y-70457511D01*
X129124688Y-70439936D01*
X129120588Y-70425527D01*
X129118691Y-70418859D01*
X129103383Y-70388117D01*
X129068524Y-70318109D01*
X129027782Y-70236288D01*
X128904873Y-70073530D01*
X128904871Y-70073527D01*
X128754150Y-69936128D01*
X128754148Y-69936126D01*
X128580751Y-69828764D01*
X128580744Y-69828760D01*
X128454878Y-69780000D01*
X128390565Y-69755085D01*
X128190085Y-69717609D01*
X127986133Y-69717609D01*
X127785653Y-69755085D01*
X127785650Y-69755085D01*
X127785650Y-69755086D01*
X127595473Y-69828760D01*
X127595466Y-69828764D01*
X127422069Y-69936126D01*
X127422067Y-69936128D01*
X127271346Y-70073527D01*
X127148436Y-70236287D01*
X127061291Y-70411297D01*
X127013788Y-70462534D01*
X126946125Y-70479955D01*
X126879785Y-70458029D01*
X126835830Y-70403718D01*
X126830516Y-70388117D01*
X126821543Y-70354627D01*
X126821538Y-70354616D01*
X126721709Y-70140531D01*
X126721708Y-70140529D01*
X126586222Y-69947035D01*
X126586217Y-69947029D01*
X126419191Y-69780003D01*
X126225687Y-69644508D01*
X126011601Y-69544679D01*
X126011595Y-69544676D01*
X125798109Y-69487473D01*
X125798109Y-70382607D01*
X125690424Y-70333429D01*
X125583872Y-70318109D01*
X125512346Y-70318109D01*
X125405794Y-70333429D01*
X125298108Y-70382607D01*
X125298108Y-69487473D01*
X125084622Y-69544676D01*
X125084616Y-69544679D01*
X124870531Y-69644508D01*
X124870529Y-69644509D01*
X124677035Y-69779995D01*
X124677029Y-69780000D01*
X124510000Y-69947029D01*
X124509995Y-69947035D01*
X124395575Y-70110445D01*
X124340998Y-70154070D01*
X124271500Y-70161264D01*
X124209145Y-70129741D01*
X124173731Y-70069511D01*
X124170000Y-70039322D01*
X124170000Y-68992109D01*
X124189685Y-68925070D01*
X124242489Y-68879315D01*
X124294000Y-68868109D01*
X170896000Y-68868109D01*
X170963039Y-68887794D01*
G37*
G04 #@! TD.AperFunction*
D44*
X174068109Y-124568109D02*
G75*
G03*
X177068109Y-121568109I-9J3000009D01*
G01*
X112068109Y-71568109D02*
X112068109Y-121568109D01*
X177068109Y-121568109D02*
X177068109Y-71568109D01*
X115068109Y-68568109D02*
G75*
G03*
X112068109Y-71568109I-9J-2999991D01*
G01*
X115068109Y-124568109D02*
X174068109Y-124568109D01*
X174068109Y-68568109D02*
X115068109Y-68568109D01*
X112068091Y-121568109D02*
G75*
G03*
X115068109Y-124568109I3000009J9D01*
G01*
X177068091Y-71568109D02*
G75*
G03*
X174068109Y-68568109I-2999991J9D01*
G01*
M02*
