G04 #@! TF.GenerationSoftware,KiCad,Pcbnew,7.0.6*
G04 #@! TF.CreationDate,2023-08-28T17:59:06+03:00*
G04 #@! TF.ProjectId,power_sheld,706f7765-725f-4736-9865-6c642e6b6963,rev?*
G04 #@! TF.SameCoordinates,Original*
G04 #@! TF.FileFunction,Soldermask,Top*
G04 #@! TF.FilePolarity,Negative*
%FSLAX46Y46*%
G04 Gerber Fmt 4.6, Leading zero omitted, Abs format (unit mm)*
G04 Created by KiCad (PCBNEW 7.0.6) date 2023-08-28 17:59:06*
%MOMM*%
%LPD*%
G01*
G04 APERTURE LIST*
G04 Aperture macros list*
%AMRoundRect*
0 Rectangle with rounded corners*
0 $1 Rounding radius*
0 $2 $3 $4 $5 $6 $7 $8 $9 X,Y pos of 4 corners*
0 Add a 4 corners polygon primitive as box body*
4,1,4,$2,$3,$4,$5,$6,$7,$8,$9,$2,$3,0*
0 Add four circle primitives for the rounded corners*
1,1,$1+$1,$2,$3*
1,1,$1+$1,$4,$5*
1,1,$1+$1,$6,$7*
1,1,$1+$1,$8,$9*
0 Add four rect primitives between the rounded corners*
20,1,$1+$1,$2,$3,$4,$5,0*
20,1,$1+$1,$4,$5,$6,$7,0*
20,1,$1+$1,$6,$7,$8,$9,0*
20,1,$1+$1,$8,$9,$2,$3,0*%
G04 Aperture macros list end*
%ADD10C,0.800000*%
%ADD11C,5.400000*%
%ADD12RoundRect,0.200000X0.275000X-0.200000X0.275000X0.200000X-0.275000X0.200000X-0.275000X-0.200000X0*%
%ADD13R,2.000000X2.000000*%
%ADD14C,2.000000*%
%ADD15R,1.500000X1.500000*%
%ADD16RoundRect,0.250000X-0.375000X-0.625000X0.375000X-0.625000X0.375000X0.625000X-0.375000X0.625000X0*%
%ADD17RoundRect,0.200000X0.200000X0.275000X-0.200000X0.275000X-0.200000X-0.275000X0.200000X-0.275000X0*%
%ADD18RoundRect,0.250000X0.450000X-0.262500X0.450000X0.262500X-0.450000X0.262500X-0.450000X-0.262500X0*%
%ADD19RoundRect,0.250000X0.650000X-0.325000X0.650000X0.325000X-0.650000X0.325000X-0.650000X-0.325000X0*%
%ADD20RoundRect,0.150000X-0.587500X-0.150000X0.587500X-0.150000X0.587500X0.150000X-0.587500X0.150000X0*%
%ADD21C,3.000000*%
%ADD22RoundRect,0.250001X0.499999X0.499999X-0.499999X0.499999X-0.499999X-0.499999X0.499999X-0.499999X0*%
%ADD23C,1.500000*%
%ADD24RoundRect,0.250000X-0.325000X-0.650000X0.325000X-0.650000X0.325000X0.650000X-0.325000X0.650000X0*%
%ADD25RoundRect,0.250000X-0.250000X-0.475000X0.250000X-0.475000X0.250000X0.475000X-0.250000X0.475000X0*%
%ADD26RoundRect,0.150000X0.150000X-0.725000X0.150000X0.725000X-0.150000X0.725000X-0.150000X-0.725000X0*%
%ADD27RoundRect,0.250000X0.375000X0.625000X-0.375000X0.625000X-0.375000X-0.625000X0.375000X-0.625000X0*%
%ADD28C,2.400000*%
%ADD29RoundRect,0.150000X-0.150000X0.725000X-0.150000X-0.725000X0.150000X-0.725000X0.150000X0.725000X0*%
%ADD30R,1.905000X2.000000*%
%ADD31O,1.905000X2.000000*%
%ADD32RoundRect,1.250000X1.250000X1.250000X-1.250000X1.250000X-1.250000X-1.250000X1.250000X-1.250000X0*%
%ADD33RoundRect,0.250000X-1.400000X-1.000000X1.400000X-1.000000X1.400000X1.000000X-1.400000X1.000000X0*%
%ADD34RoundRect,0.250000X0.325000X0.650000X-0.325000X0.650000X-0.325000X-0.650000X0.325000X-0.650000X0*%
%ADD35RoundRect,0.250000X-0.787500X-1.025000X0.787500X-1.025000X0.787500X1.025000X-0.787500X1.025000X0*%
%ADD36RoundRect,0.250000X0.250000X0.475000X-0.250000X0.475000X-0.250000X-0.475000X0.250000X-0.475000X0*%
%ADD37RoundRect,0.200000X-0.275000X0.200000X-0.275000X-0.200000X0.275000X-0.200000X0.275000X0.200000X0*%
%ADD38R,1.600000X1.600000*%
%ADD39C,1.600000*%
%ADD40R,1.700000X1.700000*%
%ADD41O,1.700000X1.700000*%
G04 #@! TA.AperFunction,Profile*
%ADD42C,0.100000*%
G04 #@! TD*
G04 APERTURE END LIST*
D10*
X171543109Y-72068109D03*
X172136218Y-70636218D03*
X172136218Y-73500000D03*
X173568109Y-70043109D03*
D11*
X173568109Y-72068109D03*
D10*
X173568109Y-74093109D03*
X175000000Y-70636218D03*
X175000000Y-73500000D03*
X175593109Y-72068109D03*
D12*
X135940000Y-95865000D03*
X135940000Y-94215000D03*
D13*
X135580000Y-82867677D03*
D14*
X135580000Y-77867677D03*
D15*
X130670000Y-107420000D03*
D10*
X171543109Y-121068109D03*
X172136218Y-119636218D03*
X172136218Y-122500000D03*
X173568109Y-119043109D03*
D11*
X173568109Y-121068109D03*
D10*
X173568109Y-123093109D03*
X175000000Y-119636218D03*
X175000000Y-122500000D03*
X175593109Y-121068109D03*
D16*
X132990000Y-97650000D03*
X135790000Y-97650000D03*
D17*
X117765000Y-105540000D03*
X116115000Y-105540000D03*
D18*
X142150000Y-80112500D03*
X142150000Y-78287500D03*
D19*
X129220000Y-84775000D03*
X129220000Y-81825000D03*
D15*
X125090000Y-107420000D03*
D13*
X171840000Y-82700000D03*
D14*
X171840000Y-77700000D03*
D20*
X146972500Y-76457500D03*
X146972500Y-78357500D03*
X148847500Y-77407500D03*
D14*
X145950000Y-83090000D03*
X145950000Y-85630000D03*
X145950000Y-88170000D03*
X145950000Y-100870000D03*
X145950000Y-105950000D03*
X161190000Y-105950000D03*
X161190000Y-103410000D03*
X161190000Y-100870000D03*
X161190000Y-85630000D03*
X161190000Y-83090000D03*
X159200000Y-81470000D03*
D21*
X146500000Y-119435000D03*
D22*
X146500000Y-115115000D03*
D23*
X146500000Y-112115000D03*
D13*
X169340000Y-109100000D03*
D14*
X174340000Y-109100000D03*
D24*
X126585000Y-97600000D03*
X129535000Y-97600000D03*
D17*
X120090000Y-114400000D03*
X118440000Y-114400000D03*
D19*
X126920000Y-84775000D03*
X126920000Y-81825000D03*
D13*
X153327677Y-119320000D03*
D14*
X158327677Y-119320000D03*
D25*
X120565000Y-105290000D03*
X122465000Y-105290000D03*
D26*
X118975000Y-112545000D03*
X120245000Y-112545000D03*
X121515000Y-112545000D03*
X122785000Y-112545000D03*
X122785000Y-107395000D03*
X121515000Y-107395000D03*
X120245000Y-107395000D03*
X118975000Y-107395000D03*
D27*
X136150000Y-92440000D03*
X133350000Y-92440000D03*
D21*
X122960000Y-96700000D03*
D28*
X122960000Y-76700000D03*
D21*
X115360000Y-100200000D03*
X115360000Y-93200000D03*
D28*
X115360000Y-76700000D03*
D21*
X165170000Y-119480000D03*
D22*
X165170000Y-115160000D03*
D23*
X165170000Y-112160000D03*
D29*
X117385000Y-107395000D03*
X116115000Y-107395000D03*
X114845000Y-107395000D03*
X113575000Y-107395000D03*
X113575000Y-112545000D03*
X114845000Y-112545000D03*
X116115000Y-112545000D03*
X117385000Y-112545000D03*
D30*
X139710000Y-104820000D03*
D31*
X137170000Y-104820000D03*
X134630000Y-104820000D03*
D32*
X137170000Y-121480000D03*
D33*
X140020000Y-95270000D03*
X140020000Y-102070000D03*
D19*
X164920000Y-83090000D03*
X164920000Y-80140000D03*
D34*
X158327677Y-112895000D03*
X155377677Y-112895000D03*
D28*
X165470000Y-102150000D03*
X175470000Y-102150000D03*
X175470000Y-87150000D03*
X165470000Y-87150000D03*
D18*
X150787500Y-78320000D03*
X150787500Y-76495000D03*
D35*
X129147500Y-101170000D03*
X135372500Y-101170000D03*
D36*
X115800000Y-114650000D03*
X113900000Y-114650000D03*
D21*
X126330000Y-119485000D03*
D22*
X127830000Y-115165000D03*
D23*
X124830000Y-115165000D03*
X127830000Y-112165000D03*
X124830000Y-112165000D03*
D33*
X129110000Y-88140000D03*
X129110000Y-94940000D03*
D10*
X113543109Y-72068109D03*
X114136218Y-70636218D03*
X114136218Y-73500000D03*
X115568109Y-70043109D03*
D11*
X115568109Y-72068109D03*
D10*
X115568109Y-74093109D03*
X117000000Y-70636218D03*
X117000000Y-73500000D03*
X117593109Y-72068109D03*
X113543109Y-121068109D03*
X114136218Y-119636218D03*
X114136218Y-122500000D03*
X115568109Y-119043109D03*
D11*
X115568109Y-121068109D03*
D10*
X115568109Y-123093109D03*
X117000000Y-119636218D03*
X117000000Y-122500000D03*
X117593109Y-121068109D03*
D37*
X133200000Y-94215000D03*
X133200000Y-95865000D03*
D38*
X138707621Y-88140000D03*
D39*
X141207621Y-88140000D03*
D40*
X120468109Y-73358109D03*
D41*
X120468109Y-70818109D03*
X123008109Y-73358109D03*
X123008109Y-70818109D03*
X125548109Y-73358109D03*
X125548109Y-70818109D03*
X128088109Y-73358109D03*
X128088109Y-70818109D03*
X130628109Y-73358109D03*
X130628109Y-70818109D03*
X133168109Y-73358109D03*
X133168109Y-70818109D03*
X135708109Y-73358109D03*
X135708109Y-70818109D03*
X138248109Y-73358109D03*
X138248109Y-70818109D03*
X140788109Y-73358109D03*
X140788109Y-70818109D03*
X143328109Y-73358109D03*
X143328109Y-70818109D03*
X145868109Y-73358109D03*
X145868109Y-70818109D03*
X148408109Y-73358109D03*
X148408109Y-70818109D03*
X150948109Y-73358109D03*
X150948109Y-70818109D03*
X153488109Y-73358109D03*
X153488109Y-70818109D03*
X156028109Y-73358109D03*
X156028109Y-70818109D03*
X158568109Y-73358109D03*
X158568109Y-70818109D03*
X161108109Y-73358109D03*
X161108109Y-70818109D03*
X163648109Y-73358109D03*
X163648109Y-70818109D03*
X166188109Y-73358109D03*
X166188109Y-70818109D03*
X168728109Y-73358109D03*
X168728109Y-70818109D03*
D42*
X174068109Y-124568109D02*
G75*
G03*
X177068109Y-121568109I-9J3000009D01*
G01*
X112068109Y-71568109D02*
X112068109Y-121568109D01*
X177068109Y-121568109D02*
X177068109Y-71568109D01*
X115068109Y-68568109D02*
G75*
G03*
X112068109Y-71568109I-9J-2999991D01*
G01*
X115068109Y-124568109D02*
X174068109Y-124568109D01*
X174068109Y-68568109D02*
X115068109Y-68568109D01*
X112068091Y-121568109D02*
G75*
G03*
X115068109Y-124568109I3000009J9D01*
G01*
X177068091Y-71568109D02*
G75*
G03*
X174068109Y-68568109I-2999991J9D01*
G01*
M02*
