G04 #@! TF.GenerationSoftware,KiCad,Pcbnew,7.0.2*
G04 #@! TF.CreationDate,2023-06-10T11:02:38+03:00*
G04 #@! TF.ProjectId,2.0,322e302e-6b69-4636-9164-5f7063625858,2.0*
G04 #@! TF.SameCoordinates,Original*
G04 #@! TF.FileFunction,Soldermask,Top*
G04 #@! TF.FilePolarity,Negative*
%FSLAX46Y46*%
G04 Gerber Fmt 4.6, Leading zero omitted, Abs format (unit mm)*
G04 Created by KiCad (PCBNEW 7.0.2) date 2023-06-10 11:02:38*
%MOMM*%
%LPD*%
G01*
G04 APERTURE LIST*
G04 Aperture macros list*
%AMRoundRect*
0 Rectangle with rounded corners*
0 $1 Rounding radius*
0 $2 $3 $4 $5 $6 $7 $8 $9 X,Y pos of 4 corners*
0 Add a 4 corners polygon primitive as box body*
4,1,4,$2,$3,$4,$5,$6,$7,$8,$9,$2,$3,0*
0 Add four circle primitives for the rounded corners*
1,1,$1+$1,$2,$3*
1,1,$1+$1,$4,$5*
1,1,$1+$1,$6,$7*
1,1,$1+$1,$8,$9*
0 Add four rect primitives between the rounded corners*
20,1,$1+$1,$2,$3,$4,$5,0*
20,1,$1+$1,$4,$5,$6,$7,0*
20,1,$1+$1,$6,$7,$8,$9,0*
20,1,$1+$1,$8,$9,$2,$3,0*%
%AMRotRect*
0 Rectangle, with rotation*
0 The origin of the aperture is its center*
0 $1 length*
0 $2 width*
0 $3 Rotation angle, in degrees counterclockwise*
0 Add horizontal line*
21,1,$1,$2,0,0,$3*%
G04 Aperture macros list end*
%ADD10C,0.500000*%
%ADD11R,0.400000X1.800000*%
%ADD12O,1.090000X2.000000*%
%ADD13O,1.050000X1.600000*%
%ADD14RoundRect,0.200000X0.200000X0.450000X-0.200000X0.450000X-0.200000X-0.450000X0.200000X-0.450000X0*%
%ADD15O,0.800000X1.300000*%
%ADD16RoundRect,0.200000X0.275000X-0.200000X0.275000X0.200000X-0.275000X0.200000X-0.275000X-0.200000X0*%
%ADD17RoundRect,0.200000X-0.200000X-0.450000X0.200000X-0.450000X0.200000X0.450000X-0.200000X0.450000X0*%
%ADD18RoundRect,0.200000X0.200000X0.275000X-0.200000X0.275000X-0.200000X-0.275000X0.200000X-0.275000X0*%
%ADD19C,1.000000*%
%ADD20RoundRect,0.225000X-0.225000X-0.250000X0.225000X-0.250000X0.225000X0.250000X-0.225000X0.250000X0*%
%ADD21R,1.000000X1.000000*%
%ADD22O,1.000000X1.000000*%
%ADD23RoundRect,0.225000X0.017678X-0.335876X0.335876X-0.017678X-0.017678X0.335876X-0.335876X0.017678X0*%
%ADD24RoundRect,0.225000X-0.335876X-0.017678X-0.017678X-0.335876X0.335876X0.017678X0.017678X0.335876X0*%
%ADD25RoundRect,0.200000X-0.450000X0.200000X-0.450000X-0.200000X0.450000X-0.200000X0.450000X0.200000X0*%
%ADD26O,1.300000X0.800000*%
%ADD27RoundRect,0.250001X0.624999X-0.462499X0.624999X0.462499X-0.624999X0.462499X-0.624999X-0.462499X0*%
%ADD28RoundRect,0.225000X0.335876X0.017678X0.017678X0.335876X-0.335876X-0.017678X-0.017678X-0.335876X0*%
%ADD29R,1.700000X1.700000*%
%ADD30O,1.700000X1.700000*%
%ADD31O,1.000000X0.700000*%
%ADD32RoundRect,0.225000X0.225000X0.250000X-0.225000X0.250000X-0.225000X-0.250000X0.225000X-0.250000X0*%
%ADD33C,0.800000*%
%ADD34C,6.400000*%
%ADD35RoundRect,0.375000X0.625000X0.375000X-0.625000X0.375000X-0.625000X-0.375000X0.625000X-0.375000X0*%
%ADD36RoundRect,0.050000X0.050000X-0.225000X0.050000X0.225000X-0.050000X0.225000X-0.050000X-0.225000X0*%
%ADD37RoundRect,0.050000X0.225000X0.050000X-0.225000X0.050000X-0.225000X-0.050000X0.225000X-0.050000X0*%
%ADD38RoundRect,0.250001X-0.462499X-0.624999X0.462499X-0.624999X0.462499X0.624999X-0.462499X0.624999X0*%
%ADD39RoundRect,0.200000X-0.275000X0.200000X-0.275000X-0.200000X0.275000X-0.200000X0.275000X0.200000X0*%
%ADD40RoundRect,0.200000X0.053033X-0.335876X0.335876X-0.053033X-0.053033X0.335876X-0.335876X0.053033X0*%
%ADD41RoundRect,0.075000X-0.459619X-0.565685X0.565685X0.459619X0.459619X0.565685X-0.565685X-0.459619X0*%
%ADD42RoundRect,0.075000X0.459619X-0.565685X0.565685X-0.459619X-0.459619X0.565685X-0.565685X0.459619X0*%
%ADD43RoundRect,0.200000X-0.200000X-0.275000X0.200000X-0.275000X0.200000X0.275000X-0.200000X0.275000X0*%
%ADD44RoundRect,0.225000X-0.017678X0.335876X-0.335876X0.017678X0.017678X-0.335876X0.335876X-0.017678X0*%
%ADD45RoundRect,0.250001X-0.624999X0.462499X-0.624999X-0.462499X0.624999X-0.462499X0.624999X0.462499X0*%
%ADD46RoundRect,0.062500X0.062500X-0.525000X0.062500X0.525000X-0.062500X0.525000X-0.062500X-0.525000X0*%
%ADD47RoundRect,0.062500X-0.525000X-0.062500X0.525000X-0.062500X0.525000X0.062500X-0.525000X0.062500X0*%
%ADD48RoundRect,0.225000X-0.250000X0.225000X-0.250000X-0.225000X0.250000X-0.225000X0.250000X0.225000X0*%
%ADD49RoundRect,0.225000X0.250000X-0.225000X0.250000X0.225000X-0.250000X0.225000X-0.250000X-0.225000X0*%
%ADD50RoundRect,0.062500X-0.062500X0.325000X-0.062500X-0.325000X0.062500X-0.325000X0.062500X0.325000X0*%
%ADD51RoundRect,0.062500X0.325000X0.062500X-0.325000X0.062500X-0.325000X-0.062500X0.325000X-0.062500X0*%
%ADD52C,1.400000*%
%ADD53R,1.500000X0.550000*%
%ADD54R,0.250000X0.975000*%
%ADD55R,0.975000X0.250000*%
%ADD56RotRect,1.400000X1.200000X315.000000*%
%ADD57RoundRect,0.150000X0.150000X-0.825000X0.150000X0.825000X-0.150000X0.825000X-0.150000X-0.825000X0*%
%ADD58RoundRect,0.150000X0.150000X-0.512500X0.150000X0.512500X-0.150000X0.512500X-0.150000X-0.512500X0*%
G04 APERTURE END LIST*
D10*
X111390000Y-60824000D03*
X115390000Y-60824000D03*
D11*
X114690000Y-61924000D03*
X114040000Y-61924000D03*
X113390000Y-61924000D03*
X112740000Y-61924000D03*
X112090000Y-61924000D03*
D12*
X109790000Y-58674000D03*
D13*
X109790000Y-62124000D03*
D12*
X116990000Y-58674000D03*
D13*
X116990000Y-62124000D03*
D14*
X88352000Y-100330000D03*
D15*
X87102000Y-100330000D03*
X85852000Y-100330000D03*
X84602000Y-100330000D03*
D16*
X120142000Y-67881000D03*
X120142000Y-66231000D03*
D17*
X103154000Y-58674000D03*
D15*
X104404000Y-58674000D03*
X105654000Y-58674000D03*
X106904000Y-58674000D03*
D18*
X131635000Y-75398000D03*
X129985000Y-75398000D03*
D19*
X131318000Y-78028800D03*
D20*
X123177000Y-85471000D03*
X124727000Y-85471000D03*
D21*
X88392000Y-67818000D03*
D22*
X89662000Y-67818000D03*
X88392000Y-69088000D03*
X89662000Y-69088000D03*
X88392000Y-70358000D03*
X89662000Y-70358000D03*
X88392000Y-71628000D03*
X89662000Y-71628000D03*
X88392000Y-72898000D03*
X89662000Y-72898000D03*
D20*
X123640500Y-94361000D03*
X125190500Y-94361000D03*
D14*
X129022000Y-100388000D03*
D15*
X127772000Y-100388000D03*
X126522000Y-100388000D03*
X125272000Y-100388000D03*
D20*
X116332000Y-64720000D03*
X117882000Y-64720000D03*
D23*
X86923403Y-90537895D03*
X88019419Y-89441879D03*
D24*
X103147262Y-69935632D03*
X104243278Y-71031648D03*
D19*
X118237000Y-94615000D03*
D25*
X132842000Y-81340000D03*
D26*
X132842000Y-82590000D03*
X132842000Y-83840000D03*
X132842000Y-85090000D03*
D27*
X128524000Y-83620000D03*
X128524000Y-80645000D03*
D19*
X91948000Y-97637600D03*
D17*
X95153000Y-58674000D03*
D15*
X96403000Y-58674000D03*
X97653000Y-58674000D03*
X98903000Y-58674000D03*
D14*
X113254000Y-100330000D03*
D15*
X112004000Y-100330000D03*
X110754000Y-100330000D03*
D28*
X95471618Y-93238336D03*
X94375602Y-92142320D03*
D20*
X123177000Y-86995000D03*
X124727000Y-86995000D03*
D18*
X85069000Y-66852000D03*
X83419000Y-66852000D03*
D14*
X121138000Y-100330000D03*
D15*
X119888000Y-100330000D03*
X118638000Y-100330000D03*
X117388000Y-100330000D03*
D25*
X137160000Y-81340000D03*
D26*
X137160000Y-82590000D03*
X137160000Y-83840000D03*
X137160000Y-85090000D03*
D19*
X86106000Y-88900000D03*
D29*
X80900000Y-65525000D03*
D30*
X80900000Y-68065000D03*
X80900000Y-70605000D03*
X80900000Y-73145000D03*
X80900000Y-75685000D03*
X80900000Y-78225000D03*
X80900000Y-80765000D03*
X80900000Y-83305000D03*
X80900000Y-85845000D03*
X80900000Y-88385000D03*
X80900000Y-90925000D03*
X80900000Y-93465000D03*
D21*
X87122000Y-84074000D03*
D27*
X123952000Y-83620000D03*
X123952000Y-80645000D03*
D19*
X134366000Y-69027000D03*
D31*
X90090000Y-60884000D03*
X87590000Y-64084000D03*
X85090000Y-60884000D03*
D32*
X122431500Y-77216000D03*
X120881500Y-77216000D03*
D20*
X116594000Y-69977000D03*
X118144000Y-69977000D03*
D19*
X115976400Y-77368400D03*
D33*
X133600000Y-99000000D03*
X134302944Y-97302944D03*
X134302944Y-100697056D03*
X136000000Y-96600000D03*
D34*
X136000000Y-99000000D03*
D33*
X136000000Y-101400000D03*
X137697056Y-97302944D03*
X137697056Y-100697056D03*
X138400000Y-99000000D03*
D14*
X99986000Y-100330000D03*
D15*
X98736000Y-100330000D03*
X97486000Y-100330000D03*
X96236000Y-100330000D03*
X94986000Y-100330000D03*
X93736000Y-100330000D03*
X92486000Y-100330000D03*
D33*
X75600000Y-99000000D03*
X76302944Y-97302944D03*
X76302944Y-100697056D03*
X78000000Y-96600000D03*
D34*
X78000000Y-99000000D03*
D33*
X78000000Y-101400000D03*
X79697056Y-97302944D03*
X79697056Y-100697056D03*
X80400000Y-99000000D03*
D35*
X102290000Y-66256400D03*
X93290000Y-66256400D03*
X102290000Y-61756400D03*
X93290000Y-61756400D03*
D23*
X88638844Y-80021803D03*
X89734860Y-78925787D03*
D36*
X128159000Y-91543000D03*
X128559000Y-91543000D03*
X128959000Y-91543000D03*
X129359000Y-91543000D03*
X129759000Y-91543000D03*
X130159000Y-91543000D03*
D37*
X130659000Y-91043000D03*
X130659000Y-90643000D03*
X130659000Y-90243000D03*
X130659000Y-89843000D03*
X130659000Y-89443000D03*
X130659000Y-89043000D03*
D36*
X130159000Y-88543000D03*
X129759000Y-88543000D03*
X129359000Y-88543000D03*
X128959000Y-88543000D03*
X128559000Y-88543000D03*
X128159000Y-88543000D03*
D37*
X127659000Y-89043000D03*
X127659000Y-89443000D03*
X127659000Y-89843000D03*
X127659000Y-90243000D03*
X127659000Y-90643000D03*
X127659000Y-91043000D03*
D38*
X83729500Y-97409000D03*
X86704500Y-97409000D03*
D39*
X134620000Y-75398000D03*
X134620000Y-77048000D03*
D40*
X91873859Y-89729673D03*
X93040585Y-88562947D03*
D41*
X91002703Y-82822653D03*
X91356256Y-83176206D03*
X91709810Y-83529760D03*
X92063363Y-83883313D03*
X92416916Y-84236866D03*
X92770470Y-84590420D03*
X93124023Y-84943973D03*
X93477577Y-85297527D03*
X93831130Y-85651080D03*
X94184683Y-86004633D03*
X94538237Y-86358187D03*
X94891790Y-86711740D03*
X95245343Y-87065294D03*
X95598897Y-87418847D03*
X95952450Y-87772400D03*
X96306004Y-88125954D03*
X96659557Y-88479507D03*
X97013110Y-88833060D03*
X97366664Y-89186614D03*
X97720217Y-89540167D03*
X98073771Y-89893721D03*
X98427324Y-90247274D03*
X98780877Y-90600827D03*
X99134431Y-90954381D03*
X99487984Y-91307934D03*
D42*
X101856792Y-91307934D03*
X102210345Y-90954381D03*
X102563899Y-90600827D03*
X102917452Y-90247274D03*
X103271005Y-89893721D03*
X103624559Y-89540167D03*
X103978112Y-89186614D03*
X104331666Y-88833060D03*
X104685219Y-88479507D03*
X105038772Y-88125954D03*
X105392326Y-87772400D03*
X105745879Y-87418847D03*
X106099433Y-87065294D03*
X106452986Y-86711740D03*
X106806539Y-86358187D03*
X107160093Y-86004633D03*
X107513646Y-85651080D03*
X107867199Y-85297527D03*
X108220753Y-84943973D03*
X108574306Y-84590420D03*
X108927860Y-84236866D03*
X109281413Y-83883313D03*
X109634966Y-83529760D03*
X109988520Y-83176206D03*
X110342073Y-82822653D03*
D41*
X110342073Y-80453845D03*
X109988520Y-80100292D03*
X109634966Y-79746738D03*
X109281413Y-79393185D03*
X108927860Y-79039632D03*
X108574306Y-78686078D03*
X108220753Y-78332525D03*
X107867199Y-77978971D03*
X107513646Y-77625418D03*
X107160093Y-77271865D03*
X106806539Y-76918311D03*
X106452986Y-76564758D03*
X106099433Y-76211204D03*
X105745879Y-75857651D03*
X105392326Y-75504098D03*
X105038772Y-75150544D03*
X104685219Y-74796991D03*
X104331666Y-74443438D03*
X103978112Y-74089884D03*
X103624559Y-73736331D03*
X103271005Y-73382777D03*
X102917452Y-73029224D03*
X102563899Y-72675671D03*
X102210345Y-72322117D03*
X101856792Y-71968564D03*
D42*
X99487984Y-71968564D03*
X99134431Y-72322117D03*
X98780877Y-72675671D03*
X98427324Y-73029224D03*
X98073771Y-73382777D03*
X97720217Y-73736331D03*
X97366664Y-74089884D03*
X97013110Y-74443438D03*
X96659557Y-74796991D03*
X96306004Y-75150544D03*
X95952450Y-75504098D03*
X95598897Y-75857651D03*
X95245343Y-76211204D03*
X94891790Y-76564758D03*
X94538237Y-76918311D03*
X94184683Y-77271865D03*
X93831130Y-77625418D03*
X93477577Y-77978971D03*
X93124023Y-78332525D03*
X92770470Y-78686078D03*
X92416916Y-79039632D03*
X92063363Y-79393185D03*
X91709810Y-79746738D03*
X91356256Y-80100292D03*
X91002703Y-80453845D03*
D24*
X97589686Y-93201143D03*
X98685702Y-94297159D03*
D20*
X109664200Y-67005200D03*
X111214200Y-67005200D03*
D18*
X85069000Y-69392000D03*
X83419000Y-69392000D03*
D14*
X106620000Y-100330000D03*
D15*
X105370000Y-100330000D03*
X104120000Y-100330000D03*
D19*
X115189000Y-91694000D03*
D17*
X119948000Y-58674000D03*
D15*
X121198000Y-58674000D03*
X122448000Y-58674000D03*
X123698000Y-58674000D03*
X124948000Y-58674000D03*
X126198000Y-58674000D03*
D43*
X84900000Y-95504000D03*
X86550000Y-95504000D03*
D16*
X124714000Y-67881000D03*
X124714000Y-66231000D03*
D44*
X104783507Y-92077973D03*
X103687491Y-93173989D03*
D16*
X123952000Y-78893500D03*
X123952000Y-77243500D03*
D32*
X122431500Y-78748000D03*
X120881500Y-78748000D03*
D16*
X122428000Y-67818000D03*
X122428000Y-66168000D03*
D28*
X101292521Y-70801839D03*
X100196505Y-69705823D03*
D45*
X120142000Y-61504500D03*
X120142000Y-64479500D03*
D28*
X96549248Y-92160705D03*
X95453232Y-91064689D03*
D46*
X115594000Y-71637000D03*
X116094000Y-71637000D03*
X116594000Y-71637000D03*
X117094000Y-71637000D03*
X117594000Y-71637000D03*
X118094000Y-71637000D03*
X118594000Y-71637000D03*
D47*
X119359000Y-73152000D03*
D46*
X118594000Y-74667000D03*
X118094000Y-74667000D03*
X117594000Y-74667000D03*
X117094000Y-74667000D03*
X116594000Y-74667000D03*
X116094000Y-74667000D03*
X115594000Y-74667000D03*
D47*
X114829000Y-73152000D03*
D20*
X93290000Y-68529200D03*
X94840000Y-68529200D03*
D44*
X89785065Y-85378138D03*
X88689049Y-86474154D03*
D19*
X131318000Y-58928000D03*
D16*
X128524000Y-78893500D03*
X128524000Y-77243500D03*
D45*
X122428000Y-61504500D03*
X122428000Y-64479500D03*
D21*
X129286000Y-56896000D03*
D48*
X133096000Y-75398000D03*
X133096000Y-76948000D03*
D25*
X137160000Y-70906000D03*
D26*
X137160000Y-72156000D03*
X137160000Y-73406000D03*
X137160000Y-74656000D03*
X137160000Y-75906000D03*
X137160000Y-77156000D03*
D27*
X126238000Y-83620000D03*
X126238000Y-80645000D03*
D49*
X108305600Y-93789800D03*
X108305600Y-92239800D03*
D19*
X122428000Y-70612000D03*
D50*
X118740500Y-78235500D03*
X118240500Y-78235500D03*
D51*
X117482000Y-78748000D03*
X117482000Y-79248000D03*
X117482000Y-79748000D03*
D50*
X118244500Y-80260500D03*
X118744500Y-80260500D03*
D51*
X119507000Y-79748000D03*
X119507000Y-79248000D03*
X119507000Y-78748000D03*
D29*
X127762000Y-66162000D03*
D30*
X127762000Y-68702000D03*
D18*
X85069000Y-77012000D03*
X83419000Y-77012000D03*
D32*
X129934000Y-87122000D03*
X128384000Y-87122000D03*
D16*
X134620000Y-73406000D03*
X134620000Y-71756000D03*
D28*
X90862696Y-88629414D03*
X89766680Y-87533398D03*
X91940326Y-87551783D03*
X90844310Y-86455767D03*
D49*
X121031000Y-74054000D03*
X121031000Y-72504000D03*
D29*
X131445000Y-66157000D03*
D30*
X131445000Y-68697000D03*
D52*
X134239000Y-93726000D03*
X134239000Y-88646000D03*
D19*
X114249200Y-78841600D03*
X128066800Y-75398000D03*
D44*
X94401907Y-89994978D03*
X93305891Y-91090994D03*
D19*
X110871000Y-64897000D03*
D18*
X131635000Y-73406000D03*
X129985000Y-73406000D03*
D21*
X131216400Y-96926400D03*
D19*
X120269000Y-94488000D03*
D33*
X133600000Y-60000000D03*
X134302944Y-58302944D03*
X134302944Y-61697056D03*
X136000000Y-57600000D03*
D34*
X136000000Y-60000000D03*
D33*
X136000000Y-62400000D03*
X137697056Y-58302944D03*
X137697056Y-61697056D03*
X138400000Y-60000000D03*
D29*
X75820000Y-65525000D03*
D30*
X75820000Y-68065000D03*
X75820000Y-70605000D03*
X75820000Y-73145000D03*
X75820000Y-75685000D03*
X75820000Y-78225000D03*
X75820000Y-80765000D03*
X75820000Y-83305000D03*
X75820000Y-85845000D03*
X75820000Y-88385000D03*
X75820000Y-90925000D03*
X75820000Y-93465000D03*
D18*
X85069000Y-71932000D03*
X83419000Y-71932000D03*
D25*
X137160000Y-89408000D03*
D26*
X137160000Y-90658000D03*
X137160000Y-91908000D03*
X137160000Y-93158000D03*
D24*
X96512055Y-94278773D03*
X97608071Y-95374789D03*
D45*
X124714000Y-61504500D03*
X124714000Y-64479500D03*
D44*
X92150337Y-93572797D03*
X91054321Y-94668813D03*
D53*
X110308000Y-90073000D03*
X110308000Y-91323000D03*
X110308000Y-92573000D03*
X110308000Y-93823000D03*
X112958000Y-93823000D03*
X112958000Y-92573000D03*
X112958000Y-91323000D03*
X112958000Y-90073000D03*
D16*
X126238000Y-78893500D03*
X126238000Y-77243500D03*
D19*
X96062800Y-97586800D03*
X94030800Y-97586800D03*
X128066800Y-72847200D03*
X122783600Y-72948800D03*
X81661000Y-96393000D03*
D33*
X75600000Y-60000000D03*
X76302944Y-58302944D03*
X76302944Y-61697056D03*
X78000000Y-57600000D03*
D34*
X78000000Y-60000000D03*
D33*
X78000000Y-62400000D03*
X79697056Y-58302944D03*
X79697056Y-61697056D03*
X80400000Y-60000000D03*
D54*
X121690000Y-92013500D03*
X122190000Y-92013500D03*
X122690000Y-92013500D03*
X123190000Y-92013500D03*
D55*
X123640500Y-91051000D03*
X123640500Y-90551000D03*
X123640500Y-90051000D03*
D54*
X123178000Y-89088500D03*
X122678000Y-89088500D03*
X122178000Y-89088500D03*
X121678000Y-89088500D03*
D55*
X121215500Y-90051000D03*
X121215500Y-90551000D03*
X121215500Y-91051000D03*
D18*
X85069000Y-79552000D03*
X83419000Y-79552000D03*
D56*
X88163670Y-91884227D03*
X89719305Y-93439862D03*
X90921386Y-92237781D03*
X89365751Y-90682146D03*
D23*
X111747802Y-81416926D03*
X112843818Y-80320910D03*
D32*
X131318000Y-92862400D03*
X129768000Y-92862400D03*
D17*
X84602000Y-58674000D03*
D15*
X85852000Y-58674000D03*
X87102000Y-58674000D03*
X88352000Y-58674000D03*
X89602000Y-58674000D03*
X90852000Y-58674000D03*
D23*
X112877758Y-82546882D03*
X113973774Y-81450866D03*
D57*
X104267000Y-66737000D03*
X105537000Y-66737000D03*
X106807000Y-66737000D03*
X108077000Y-66737000D03*
X108077000Y-61787000D03*
X106807000Y-61787000D03*
X105537000Y-61787000D03*
X104267000Y-61787000D03*
D21*
X114808000Y-96926400D03*
D58*
X112765000Y-67177500D03*
X113715000Y-67177500D03*
X114665000Y-67177500D03*
X114665000Y-64902500D03*
X113715000Y-64902500D03*
X112765000Y-64902500D03*
D18*
X85069000Y-74472000D03*
X83419000Y-74472000D03*
D49*
X133096000Y-73406000D03*
X133096000Y-71856000D03*
D19*
X126542800Y-86969600D03*
D29*
X78360000Y-65525000D03*
D30*
X78360000Y-68065000D03*
X78360000Y-70605000D03*
X78360000Y-73145000D03*
X78360000Y-75685000D03*
X78360000Y-78225000D03*
X78360000Y-80765000D03*
X78360000Y-83305000D03*
X78360000Y-85845000D03*
X78360000Y-88385000D03*
X78360000Y-90925000D03*
X78360000Y-93465000D03*
D20*
X133045200Y-90627200D03*
X134595200Y-90627200D03*
D19*
X129286000Y-58928000D03*
X102870000Y-64746500D03*
X94870000Y-64746500D03*
M02*
