G04 #@! TF.GenerationSoftware,KiCad,Pcbnew,7.0.2*
G04 #@! TF.CreationDate,2023-06-10T11:02:38+03:00*
G04 #@! TF.ProjectId,2.0,322e302e-6b69-4636-9164-5f7063625858,2.0*
G04 #@! TF.SameCoordinates,Original*
G04 #@! TF.FileFunction,Paste,Top*
G04 #@! TF.FilePolarity,Positive*
%FSLAX46Y46*%
G04 Gerber Fmt 4.6, Leading zero omitted, Abs format (unit mm)*
G04 Created by KiCad (PCBNEW 7.0.2) date 2023-06-10 11:02:38*
%MOMM*%
%LPD*%
G01*
G04 APERTURE LIST*
G04 Aperture macros list*
%AMRoundRect*
0 Rectangle with rounded corners*
0 $1 Rounding radius*
0 $2 $3 $4 $5 $6 $7 $8 $9 X,Y pos of 4 corners*
0 Add a 4 corners polygon primitive as box body*
4,1,4,$2,$3,$4,$5,$6,$7,$8,$9,$2,$3,0*
0 Add four circle primitives for the rounded corners*
1,1,$1+$1,$2,$3*
1,1,$1+$1,$4,$5*
1,1,$1+$1,$6,$7*
1,1,$1+$1,$8,$9*
0 Add four rect primitives between the rounded corners*
20,1,$1+$1,$2,$3,$4,$5,0*
20,1,$1+$1,$4,$5,$6,$7,0*
20,1,$1+$1,$6,$7,$8,$9,0*
20,1,$1+$1,$8,$9,$2,$3,0*%
%AMRotRect*
0 Rectangle, with rotation*
0 The origin of the aperture is its center*
0 $1 length*
0 $2 width*
0 $3 Rotation angle, in degrees counterclockwise*
0 Add horizontal line*
21,1,$1,$2,0,0,$3*%
G04 Aperture macros list end*
%ADD10R,0.400000X1.800000*%
%ADD11RoundRect,0.200000X0.275000X-0.200000X0.275000X0.200000X-0.275000X0.200000X-0.275000X-0.200000X0*%
%ADD12RoundRect,0.200000X0.200000X0.275000X-0.200000X0.275000X-0.200000X-0.275000X0.200000X-0.275000X0*%
%ADD13RoundRect,0.225000X-0.225000X-0.250000X0.225000X-0.250000X0.225000X0.250000X-0.225000X0.250000X0*%
%ADD14RoundRect,0.225000X0.017678X-0.335876X0.335876X-0.017678X-0.017678X0.335876X-0.335876X0.017678X0*%
%ADD15RoundRect,0.225000X-0.335876X-0.017678X-0.017678X-0.335876X0.335876X0.017678X0.017678X0.335876X0*%
%ADD16RoundRect,0.250001X0.624999X-0.462499X0.624999X0.462499X-0.624999X0.462499X-0.624999X-0.462499X0*%
%ADD17RoundRect,0.225000X0.335876X0.017678X0.017678X0.335876X-0.335876X-0.017678X-0.017678X-0.335876X0*%
%ADD18RoundRect,0.225000X0.225000X0.250000X-0.225000X0.250000X-0.225000X-0.250000X0.225000X-0.250000X0*%
%ADD19RoundRect,0.375000X0.625000X0.375000X-0.625000X0.375000X-0.625000X-0.375000X0.625000X-0.375000X0*%
%ADD20RoundRect,0.050000X0.050000X-0.225000X0.050000X0.225000X-0.050000X0.225000X-0.050000X-0.225000X0*%
%ADD21RoundRect,0.050000X0.225000X0.050000X-0.225000X0.050000X-0.225000X-0.050000X0.225000X-0.050000X0*%
%ADD22RoundRect,0.250001X-0.462499X-0.624999X0.462499X-0.624999X0.462499X0.624999X-0.462499X0.624999X0*%
%ADD23RoundRect,0.200000X-0.275000X0.200000X-0.275000X-0.200000X0.275000X-0.200000X0.275000X0.200000X0*%
%ADD24RoundRect,0.200000X0.053033X-0.335876X0.335876X-0.053033X-0.053033X0.335876X-0.335876X0.053033X0*%
%ADD25RoundRect,0.075000X-0.459619X-0.565685X0.565685X0.459619X0.459619X0.565685X-0.565685X-0.459619X0*%
%ADD26RoundRect,0.075000X0.459619X-0.565685X0.565685X-0.459619X-0.459619X0.565685X-0.565685X0.459619X0*%
%ADD27RoundRect,0.200000X-0.200000X-0.275000X0.200000X-0.275000X0.200000X0.275000X-0.200000X0.275000X0*%
%ADD28RoundRect,0.225000X-0.017678X0.335876X-0.335876X0.017678X0.017678X-0.335876X0.335876X-0.017678X0*%
%ADD29RoundRect,0.250001X-0.624999X0.462499X-0.624999X-0.462499X0.624999X-0.462499X0.624999X0.462499X0*%
%ADD30RoundRect,0.062500X0.062500X-0.525000X0.062500X0.525000X-0.062500X0.525000X-0.062500X-0.525000X0*%
%ADD31RoundRect,0.062500X-0.525000X-0.062500X0.525000X-0.062500X0.525000X0.062500X-0.525000X0.062500X0*%
%ADD32RoundRect,0.225000X-0.250000X0.225000X-0.250000X-0.225000X0.250000X-0.225000X0.250000X0.225000X0*%
%ADD33RoundRect,0.225000X0.250000X-0.225000X0.250000X0.225000X-0.250000X0.225000X-0.250000X-0.225000X0*%
%ADD34RoundRect,0.062500X-0.062500X0.325000X-0.062500X-0.325000X0.062500X-0.325000X0.062500X0.325000X0*%
%ADD35RoundRect,0.062500X0.325000X0.062500X-0.325000X0.062500X-0.325000X-0.062500X0.325000X-0.062500X0*%
%ADD36R,1.500000X0.550000*%
%ADD37R,0.250000X0.975000*%
%ADD38R,0.975000X0.250000*%
%ADD39RotRect,1.400000X1.200000X315.000000*%
%ADD40RoundRect,0.150000X0.150000X-0.825000X0.150000X0.825000X-0.150000X0.825000X-0.150000X-0.825000X0*%
%ADD41RoundRect,0.150000X0.150000X-0.512500X0.150000X0.512500X-0.150000X0.512500X-0.150000X-0.512500X0*%
G04 APERTURE END LIST*
D10*
X114690000Y-61924000D03*
X114040000Y-61924000D03*
X113390000Y-61924000D03*
X112740000Y-61924000D03*
X112090000Y-61924000D03*
D11*
X120142000Y-67881000D03*
X120142000Y-66231000D03*
D12*
X131635000Y-75398000D03*
X129985000Y-75398000D03*
D13*
X123177000Y-85471000D03*
X124727000Y-85471000D03*
X123640500Y-94361000D03*
X125190500Y-94361000D03*
X116332000Y-64720000D03*
X117882000Y-64720000D03*
D14*
X86923403Y-90537895D03*
X88019419Y-89441879D03*
D15*
X103147262Y-69935632D03*
X104243278Y-71031648D03*
D16*
X128524000Y-83620000D03*
X128524000Y-80645000D03*
D17*
X95471618Y-93238336D03*
X94375602Y-92142320D03*
D13*
X123177000Y-86995000D03*
X124727000Y-86995000D03*
D12*
X85069000Y-66852000D03*
X83419000Y-66852000D03*
D16*
X123952000Y-83620000D03*
X123952000Y-80645000D03*
D18*
X122431500Y-77216000D03*
X120881500Y-77216000D03*
D13*
X116594000Y-69977000D03*
X118144000Y-69977000D03*
D19*
X102290000Y-66256400D03*
X93290000Y-66256400D03*
X102290000Y-61756400D03*
X93290000Y-61756400D03*
D14*
X88638844Y-80021803D03*
X89734860Y-78925787D03*
D20*
X128159000Y-91543000D03*
X128559000Y-91543000D03*
X128959000Y-91543000D03*
X129359000Y-91543000D03*
X129759000Y-91543000D03*
X130159000Y-91543000D03*
D21*
X130659000Y-91043000D03*
X130659000Y-90643000D03*
X130659000Y-90243000D03*
X130659000Y-89843000D03*
X130659000Y-89443000D03*
X130659000Y-89043000D03*
D20*
X130159000Y-88543000D03*
X129759000Y-88543000D03*
X129359000Y-88543000D03*
X128959000Y-88543000D03*
X128559000Y-88543000D03*
X128159000Y-88543000D03*
D21*
X127659000Y-89043000D03*
X127659000Y-89443000D03*
X127659000Y-89843000D03*
X127659000Y-90243000D03*
X127659000Y-90643000D03*
X127659000Y-91043000D03*
D22*
X83729500Y-97409000D03*
X86704500Y-97409000D03*
D23*
X134620000Y-75398000D03*
X134620000Y-77048000D03*
D24*
X91873859Y-89729673D03*
X93040585Y-88562947D03*
D25*
X91002703Y-82822653D03*
X91356256Y-83176206D03*
X91709810Y-83529760D03*
X92063363Y-83883313D03*
X92416916Y-84236866D03*
X92770470Y-84590420D03*
X93124023Y-84943973D03*
X93477577Y-85297527D03*
X93831130Y-85651080D03*
X94184683Y-86004633D03*
X94538237Y-86358187D03*
X94891790Y-86711740D03*
X95245343Y-87065294D03*
X95598897Y-87418847D03*
X95952450Y-87772400D03*
X96306004Y-88125954D03*
X96659557Y-88479507D03*
X97013110Y-88833060D03*
X97366664Y-89186614D03*
X97720217Y-89540167D03*
X98073771Y-89893721D03*
X98427324Y-90247274D03*
X98780877Y-90600827D03*
X99134431Y-90954381D03*
X99487984Y-91307934D03*
D26*
X101856792Y-91307934D03*
X102210345Y-90954381D03*
X102563899Y-90600827D03*
X102917452Y-90247274D03*
X103271005Y-89893721D03*
X103624559Y-89540167D03*
X103978112Y-89186614D03*
X104331666Y-88833060D03*
X104685219Y-88479507D03*
X105038772Y-88125954D03*
X105392326Y-87772400D03*
X105745879Y-87418847D03*
X106099433Y-87065294D03*
X106452986Y-86711740D03*
X106806539Y-86358187D03*
X107160093Y-86004633D03*
X107513646Y-85651080D03*
X107867199Y-85297527D03*
X108220753Y-84943973D03*
X108574306Y-84590420D03*
X108927860Y-84236866D03*
X109281413Y-83883313D03*
X109634966Y-83529760D03*
X109988520Y-83176206D03*
X110342073Y-82822653D03*
D25*
X110342073Y-80453845D03*
X109988520Y-80100292D03*
X109634966Y-79746738D03*
X109281413Y-79393185D03*
X108927860Y-79039632D03*
X108574306Y-78686078D03*
X108220753Y-78332525D03*
X107867199Y-77978971D03*
X107513646Y-77625418D03*
X107160093Y-77271865D03*
X106806539Y-76918311D03*
X106452986Y-76564758D03*
X106099433Y-76211204D03*
X105745879Y-75857651D03*
X105392326Y-75504098D03*
X105038772Y-75150544D03*
X104685219Y-74796991D03*
X104331666Y-74443438D03*
X103978112Y-74089884D03*
X103624559Y-73736331D03*
X103271005Y-73382777D03*
X102917452Y-73029224D03*
X102563899Y-72675671D03*
X102210345Y-72322117D03*
X101856792Y-71968564D03*
D26*
X99487984Y-71968564D03*
X99134431Y-72322117D03*
X98780877Y-72675671D03*
X98427324Y-73029224D03*
X98073771Y-73382777D03*
X97720217Y-73736331D03*
X97366664Y-74089884D03*
X97013110Y-74443438D03*
X96659557Y-74796991D03*
X96306004Y-75150544D03*
X95952450Y-75504098D03*
X95598897Y-75857651D03*
X95245343Y-76211204D03*
X94891790Y-76564758D03*
X94538237Y-76918311D03*
X94184683Y-77271865D03*
X93831130Y-77625418D03*
X93477577Y-77978971D03*
X93124023Y-78332525D03*
X92770470Y-78686078D03*
X92416916Y-79039632D03*
X92063363Y-79393185D03*
X91709810Y-79746738D03*
X91356256Y-80100292D03*
X91002703Y-80453845D03*
D15*
X97589686Y-93201143D03*
X98685702Y-94297159D03*
D13*
X109664200Y-67005200D03*
X111214200Y-67005200D03*
D12*
X85069000Y-69392000D03*
X83419000Y-69392000D03*
D27*
X84900000Y-95504000D03*
X86550000Y-95504000D03*
D11*
X124714000Y-67881000D03*
X124714000Y-66231000D03*
D28*
X104783507Y-92077973D03*
X103687491Y-93173989D03*
D11*
X123952000Y-78893500D03*
X123952000Y-77243500D03*
D18*
X122431500Y-78748000D03*
X120881500Y-78748000D03*
D11*
X122428000Y-67818000D03*
X122428000Y-66168000D03*
D17*
X101292521Y-70801839D03*
X100196505Y-69705823D03*
D29*
X120142000Y-61504500D03*
X120142000Y-64479500D03*
D17*
X96549248Y-92160705D03*
X95453232Y-91064689D03*
D30*
X115594000Y-71637000D03*
X116094000Y-71637000D03*
X116594000Y-71637000D03*
X117094000Y-71637000D03*
X117594000Y-71637000D03*
X118094000Y-71637000D03*
X118594000Y-71637000D03*
D31*
X119359000Y-73152000D03*
D30*
X118594000Y-74667000D03*
X118094000Y-74667000D03*
X117594000Y-74667000D03*
X117094000Y-74667000D03*
X116594000Y-74667000D03*
X116094000Y-74667000D03*
X115594000Y-74667000D03*
D31*
X114829000Y-73152000D03*
D13*
X93290000Y-68529200D03*
X94840000Y-68529200D03*
D28*
X89785065Y-85378138D03*
X88689049Y-86474154D03*
D11*
X128524000Y-78893500D03*
X128524000Y-77243500D03*
D29*
X122428000Y-61504500D03*
X122428000Y-64479500D03*
D32*
X133096000Y-75398000D03*
X133096000Y-76948000D03*
D16*
X126238000Y-83620000D03*
X126238000Y-80645000D03*
D33*
X108305600Y-93789800D03*
X108305600Y-92239800D03*
D34*
X118740500Y-78235500D03*
X118240500Y-78235500D03*
D35*
X117482000Y-78748000D03*
X117482000Y-79248000D03*
X117482000Y-79748000D03*
D34*
X118244500Y-80260500D03*
X118744500Y-80260500D03*
D35*
X119507000Y-79748000D03*
X119507000Y-79248000D03*
X119507000Y-78748000D03*
D12*
X85069000Y-77012000D03*
X83419000Y-77012000D03*
D18*
X129934000Y-87122000D03*
X128384000Y-87122000D03*
D11*
X134620000Y-73406000D03*
X134620000Y-71756000D03*
D17*
X90862696Y-88629414D03*
X89766680Y-87533398D03*
X91940326Y-87551783D03*
X90844310Y-86455767D03*
D33*
X121031000Y-74054000D03*
X121031000Y-72504000D03*
D28*
X94401907Y-89994978D03*
X93305891Y-91090994D03*
D12*
X131635000Y-73406000D03*
X129985000Y-73406000D03*
X85069000Y-71932000D03*
X83419000Y-71932000D03*
D15*
X96512055Y-94278773D03*
X97608071Y-95374789D03*
D29*
X124714000Y-61504500D03*
X124714000Y-64479500D03*
D28*
X92150337Y-93572797D03*
X91054321Y-94668813D03*
D36*
X110308000Y-90073000D03*
X110308000Y-91323000D03*
X110308000Y-92573000D03*
X110308000Y-93823000D03*
X112958000Y-93823000D03*
X112958000Y-92573000D03*
X112958000Y-91323000D03*
X112958000Y-90073000D03*
D11*
X126238000Y-78893500D03*
X126238000Y-77243500D03*
D37*
X121690000Y-92013500D03*
X122190000Y-92013500D03*
X122690000Y-92013500D03*
X123190000Y-92013500D03*
D38*
X123640500Y-91051000D03*
X123640500Y-90551000D03*
X123640500Y-90051000D03*
D37*
X123178000Y-89088500D03*
X122678000Y-89088500D03*
X122178000Y-89088500D03*
X121678000Y-89088500D03*
D38*
X121215500Y-90051000D03*
X121215500Y-90551000D03*
X121215500Y-91051000D03*
D12*
X85069000Y-79552000D03*
X83419000Y-79552000D03*
D39*
X88163670Y-91884227D03*
X89719305Y-93439862D03*
X90921386Y-92237781D03*
X89365751Y-90682146D03*
D14*
X111747802Y-81416926D03*
X112843818Y-80320910D03*
D18*
X131318000Y-92862400D03*
X129768000Y-92862400D03*
D14*
X112877758Y-82546882D03*
X113973774Y-81450866D03*
D40*
X104267000Y-66737000D03*
X105537000Y-66737000D03*
X106807000Y-66737000D03*
X108077000Y-66737000D03*
X108077000Y-61787000D03*
X106807000Y-61787000D03*
X105537000Y-61787000D03*
X104267000Y-61787000D03*
D41*
X112765000Y-67177500D03*
X113715000Y-67177500D03*
X114665000Y-67177500D03*
X114665000Y-64902500D03*
X113715000Y-64902500D03*
X112765000Y-64902500D03*
D12*
X85069000Y-74472000D03*
X83419000Y-74472000D03*
D33*
X133096000Y-73406000D03*
X133096000Y-71856000D03*
D13*
X133045200Y-90627200D03*
X134595200Y-90627200D03*
M02*
